solid 6206PART3
  facet normal -1.000000e+000 -4.126287e-016 -1.269940e-015
    outer loop
      vertex   7.674070e-001 1.181250e+001 2.045985e+001
      vertex   7.674070e-001 1.187326e+001 1.634214e+001
      vertex   7.674070e-001 -2.473787e-015 2.020000e+001
    endloop
  endfacet
  facet normal -1.000000e+000 -9.827330e-016 -7.139973e-016
    outer loop
      vertex   7.674070e-001 2.045985e+001 1.181250e+001
      vertex   7.674070e-001 1.921134e+001 6.242143e+000
      vertex   7.674070e-001 1.187326e+001 1.634214e+001
    endloop
  endfacet
  facet normal -1.000000e+000 -1.179106e-015 -3.276795e-031
    outer loop
      vertex   7.674070e-001 2.362500e+001 -1.446614e-015
      vertex   7.674070e-001 1.921134e+001 -6.242143e+000
      vertex   7.674070e-001 1.921134e+001 6.242143e+000
    endloop
  endfacet
  facet normal -1.000000e+000 -1.282781e-015 -1.282781e-015
    outer loop
      vertex   7.674070e-001 1.187326e+001 1.634214e+001
      vertex   7.674070e-001 1.181250e+001 2.045985e+001
      vertex   7.674070e-001 2.045985e+001 1.181250e+001
    endloop
  endfacet
  facet normal -1.000000e+000 -1.898583e-015 5.087238e-016
    outer loop
      vertex   7.674070e-001 2.362500e+001 -1.446614e-015
      vertex   7.674070e-001 2.045985e+001 -1.181250e+001
      vertex   7.674070e-001 1.921134e+001 -6.242143e+000
    endloop
  endfacet
  facet normal -1.000000e+000 -1.898583e-015 -5.087238e-016
    outer loop
      vertex   7.674070e-001 1.921134e+001 6.242143e+000
      vertex   7.674070e-001 2.045985e+001 1.181250e+001
      vertex   7.674070e-001 2.362500e+001 -1.446614e-015
    endloop
  endfacet
  facet normal -1.000000e+000 -1.282781e-015 1.282781e-015
    outer loop
      vertex   7.674070e-001 2.045985e+001 -1.181250e+001
      vertex   7.674070e-001 1.181250e+001 -2.045985e+001
      vertex   7.674070e-001 1.187326e+001 -1.634214e+001
    endloop
  endfacet
  facet normal -1.000000e+000 -9.827330e-016 7.139973e-016
    outer loop
      vertex   7.674070e-001 1.187326e+001 -1.634214e+001
      vertex   7.674070e-001 1.921134e+001 -6.242143e+000
      vertex   7.674070e-001 2.045985e+001 -1.181250e+001
    endloop
  endfacet
  facet normal -1.000000e+000 -4.071396e-016 1.519466e-015
    outer loop
      vertex   7.674070e-001 1.181250e+001 -2.045985e+001
      vertex   7.674070e-001 -5.786456e-015 -2.362500e+001
      vertex   7.674070e-001 4.947573e-015 -2.020000e+001
    endloop
  endfacet
  facet normal -1.000000e+000 1.179106e-015 3.276795e-031
    outer loop
      vertex   7.674070e-001 -2.362500e+001 4.339842e-015
      vertex   7.674070e-001 -1.921134e+001 6.242143e+000
      vertex   7.674070e-001 -1.921134e+001 -6.242143e+000
    endloop
  endfacet
  facet normal -1.000000e+000 -4.126287e-016 1.269940e-015
    outer loop
      vertex   7.674070e-001 4.947573e-015 -2.020000e+001
      vertex   7.674070e-001 1.187326e+001 -1.634214e+001
      vertex   7.674070e-001 1.181250e+001 -2.045985e+001
    endloop
  endfacet
  facet normal -1.000000e+000 4.126287e-016 1.269940e-015
    outer loop
      vertex   7.674070e-001 -1.181250e+001 -2.045985e+001
      vertex   7.674070e-001 -1.187326e+001 -1.634214e+001
      vertex   7.674070e-001 4.947573e-015 -2.020000e+001
    endloop
  endfacet
  facet normal -1.000000e+000 9.827330e-016 7.139973e-016
    outer loop
      vertex   7.674070e-001 -2.045985e+001 -1.181250e+001
      vertex   7.674070e-001 -1.921134e+001 -6.242143e+000
      vertex   7.674070e-001 -1.187326e+001 -1.634214e+001
    endloop
  endfacet
  facet normal -1.000000e+000 1.898583e-015 -5.087238e-016
    outer loop
      vertex   7.674070e-001 -2.362500e+001 4.339842e-015
      vertex   7.674070e-001 -2.045985e+001 1.181250e+001
      vertex   7.674070e-001 -1.921134e+001 6.242143e+000
    endloop
  endfacet
  facet normal -1.000000e+000 4.071396e-016 1.519466e-015
    outer loop
      vertex   7.674070e-001 4.947573e-015 -2.020000e+001
      vertex   7.674070e-001 -5.786456e-015 -2.362500e+001
      vertex   7.674070e-001 -1.181250e+001 -2.045985e+001
    endloop
  endfacet
  facet normal -1.000000e+000 1.898583e-015 5.087238e-016
    outer loop
      vertex   7.674070e-001 -1.921134e+001 -6.242143e+000
      vertex   7.674070e-001 -2.045985e+001 -1.181250e+001
      vertex   7.674070e-001 -2.362500e+001 4.339842e-015
    endloop
  endfacet
  facet normal -1.000000e+000 1.282781e-015 -1.282781e-015
    outer loop
      vertex   7.674070e-001 -2.045985e+001 1.181250e+001
      vertex   7.674070e-001 -1.181250e+001 2.045985e+001
      vertex   7.674070e-001 -1.187326e+001 1.634214e+001
    endloop
  endfacet
  facet normal -1.000000e+000 4.071396e-016 -1.519466e-015
    outer loop
      vertex   7.674070e-001 -1.181250e+001 2.045985e+001
      vertex   7.674070e-001 1.338484e-014 2.362500e+001
      vertex   7.674070e-001 -2.473787e-015 2.020000e+001
    endloop
  endfacet
  facet normal -1.000000e+000 1.282781e-015 1.282781e-015
    outer loop
      vertex   7.674070e-001 -1.187326e+001 -1.634214e+001
      vertex   7.674070e-001 -1.181250e+001 -2.045985e+001
      vertex   7.674070e-001 -2.045985e+001 -1.181250e+001
    endloop
  endfacet
  facet normal -1.000000e+000 4.126287e-016 -1.269940e-015
    outer loop
      vertex   7.674070e-001 -2.473787e-015 2.020000e+001
      vertex   7.674070e-001 -1.187326e+001 1.634214e+001
      vertex   7.674070e-001 -1.181250e+001 2.045985e+001
    endloop
  endfacet
  facet normal -1.000000e+000 9.827330e-016 -7.139973e-016
    outer loop
      vertex   7.674070e-001 -1.187326e+001 1.634214e+001
      vertex   7.674070e-001 -1.921134e+001 6.242143e+000
      vertex   7.674070e-001 -2.045985e+001 1.181250e+001
    endloop
  endfacet
  facet normal -1.000000e+000 -4.071396e-016 -1.519466e-015
    outer loop
      vertex   7.674070e-001 -2.473787e-015 2.020000e+001
      vertex   7.674070e-001 1.338484e-014 2.362500e+001
      vertex   7.674070e-001 1.181250e+001 2.045985e+001
    endloop
  endfacet
  facet normal -9.970241e-001 1.995253e-002 -7.446387e-002
    outer loop
      vertex   8.953070e-001 0.000000e+000 -2.533750e+001
      vertex   7.674070e-001 -5.786456e-015 -2.362500e+001
      vertex   7.674070e-001 1.181250e+001 -2.045985e+001
    endloop
  endfacet
  facet normal -9.970241e-001 5.451134e-002 -5.451134e-002
    outer loop
      vertex   8.953070e-001 1.266875e+001 -2.194292e+001
      vertex   7.674070e-001 1.181250e+001 -2.045985e+001
      vertex   7.674070e-001 2.045985e+001 -1.181250e+001
    endloop
  endfacet
  facet normal -9.970241e-001 7.446387e-002 -1.995253e-002
    outer loop
      vertex   8.953070e-001 2.194292e+001 -1.266875e+001
      vertex   7.674070e-001 2.045985e+001 -1.181250e+001
      vertex   7.674070e-001 2.362500e+001 -1.446614e-015
    endloop
  endfacet
  facet normal -9.970241e-001 7.446387e-002 1.995253e-002
    outer loop
      vertex   8.953070e-001 2.533750e+001 -1.551474e-015
      vertex   7.674070e-001 2.362500e+001 -1.446614e-015
      vertex   7.674070e-001 2.045985e+001 1.181250e+001
    endloop
  endfacet
  facet normal -9.970241e-001 5.451134e-002 5.451134e-002
    outer loop
      vertex   8.953070e-001 2.194292e+001 1.266875e+001
      vertex   7.674070e-001 2.045985e+001 1.181250e+001
      vertex   7.674070e-001 1.181250e+001 2.045985e+001
    endloop
  endfacet
  facet normal -9.970241e-001 1.995253e-002 7.446387e-002
    outer loop
      vertex   8.953070e-001 1.266875e+001 2.194292e+001
      vertex   7.674070e-001 1.181250e+001 2.045985e+001
      vertex   7.674070e-001 1.338484e-014 2.362500e+001
    endloop
  endfacet
  facet normal -9.970241e-001 -1.995253e-002 7.446387e-002
    outer loop
      vertex   8.953070e-001 1.435506e-014 2.533750e+001
      vertex   7.674070e-001 1.338484e-014 2.362500e+001
      vertex   7.674070e-001 -1.181250e+001 2.045985e+001
    endloop
  endfacet
  facet normal -9.970241e-001 -5.451134e-002 5.451134e-002
    outer loop
      vertex   8.953070e-001 -1.266875e+001 2.194292e+001
      vertex   7.674070e-001 -1.181250e+001 2.045985e+001
      vertex   7.674070e-001 -2.045985e+001 1.181250e+001
    endloop
  endfacet
  facet normal -9.970241e-001 -7.446387e-002 1.995253e-002
    outer loop
      vertex   8.953070e-001 -2.194292e+001 1.266875e+001
      vertex   7.674070e-001 -2.045985e+001 1.181250e+001
      vertex   7.674070e-001 -2.362500e+001 4.339842e-015
    endloop
  endfacet
  facet normal -9.970241e-001 -7.446387e-002 -1.995253e-002
    outer loop
      vertex   8.953070e-001 -2.533750e+001 4.654423e-015
      vertex   7.674070e-001 -2.362500e+001 4.339842e-015
      vertex   7.674070e-001 -2.045985e+001 -1.181250e+001
    endloop
  endfacet
  facet normal -9.970241e-001 -5.451134e-002 -5.451134e-002
    outer loop
      vertex   8.953070e-001 -2.194292e+001 -1.266875e+001
      vertex   7.674070e-001 -2.045985e+001 -1.181250e+001
      vertex   7.674070e-001 -1.181250e+001 -2.045985e+001
    endloop
  endfacet
  facet normal -9.970241e-001 -1.995253e-002 -7.446387e-002
    outer loop
      vertex   8.953070e-001 -1.266875e+001 -2.194292e+001
      vertex   7.674070e-001 -1.181250e+001 -2.045985e+001
      vertex   7.674070e-001 -5.786456e-015 -2.362500e+001
    endloop
  endfacet
  facet normal -9.970241e-001 -1.995253e-002 -7.446387e-002
    outer loop
      vertex   7.674070e-001 -5.786456e-015 -2.362500e+001
      vertex   8.953070e-001 0.000000e+000 -2.533750e+001
      vertex   8.953070e-001 -1.266875e+001 -2.194292e+001
    endloop
  endfacet
  facet normal -9.970241e-001 -5.451134e-002 -5.451134e-002
    outer loop
      vertex   7.674070e-001 -1.181250e+001 -2.045985e+001
      vertex   8.953070e-001 -1.266875e+001 -2.194292e+001
      vertex   8.953070e-001 -2.194292e+001 -1.266875e+001
    endloop
  endfacet
  facet normal -9.970241e-001 -7.446387e-002 -1.995253e-002
    outer loop
      vertex   7.674070e-001 -2.045985e+001 -1.181250e+001
      vertex   8.953070e-001 -2.194292e+001 -1.266875e+001
      vertex   8.953070e-001 -2.533750e+001 4.654423e-015
    endloop
  endfacet
  facet normal -9.970241e-001 -7.446387e-002 1.995253e-002
    outer loop
      vertex   7.674070e-001 -2.362500e+001 4.339842e-015
      vertex   8.953070e-001 -2.533750e+001 4.654423e-015
      vertex   8.953070e-001 -2.194292e+001 1.266875e+001
    endloop
  endfacet
  facet normal -9.970241e-001 -5.451134e-002 5.451134e-002
    outer loop
      vertex   7.674070e-001 -2.045985e+001 1.181250e+001
      vertex   8.953070e-001 -2.194292e+001 1.266875e+001
      vertex   8.953070e-001 -1.266875e+001 2.194292e+001
    endloop
  endfacet
  facet normal -9.970241e-001 -1.995253e-002 7.446387e-002
    outer loop
      vertex   7.674070e-001 -1.181250e+001 2.045985e+001
      vertex   8.953070e-001 -1.266875e+001 2.194292e+001
      vertex   8.953070e-001 1.435506e-014 2.533750e+001
    endloop
  endfacet
  facet normal -9.970241e-001 1.995253e-002 7.446387e-002
    outer loop
      vertex   7.674070e-001 1.338484e-014 2.362500e+001
      vertex   8.953070e-001 1.435506e-014 2.533750e+001
      vertex   8.953070e-001 1.266875e+001 2.194292e+001
    endloop
  endfacet
  facet normal -9.970241e-001 5.451134e-002 5.451134e-002
    outer loop
      vertex   7.674070e-001 1.181250e+001 2.045985e+001
      vertex   8.953070e-001 1.266875e+001 2.194292e+001
      vertex   8.953070e-001 2.194292e+001 1.266875e+001
    endloop
  endfacet
  facet normal -9.970241e-001 7.446387e-002 1.995253e-002
    outer loop
      vertex   7.674070e-001 2.045985e+001 1.181250e+001
      vertex   8.953070e-001 2.194292e+001 1.266875e+001
      vertex   8.953070e-001 2.533750e+001 -1.551474e-015
    endloop
  endfacet
  facet normal -9.970241e-001 7.446387e-002 -1.995253e-002
    outer loop
      vertex   7.674070e-001 2.362500e+001 -1.446614e-015
      vertex   8.953070e-001 2.533750e+001 -1.551474e-015
      vertex   8.953070e-001 2.194292e+001 -1.266875e+001
    endloop
  endfacet
  facet normal -9.970241e-001 5.451134e-002 -5.451134e-002
    outer loop
      vertex   7.674070e-001 2.045985e+001 -1.181250e+001
      vertex   8.953070e-001 2.194292e+001 -1.266875e+001
      vertex   8.953070e-001 1.266875e+001 -2.194292e+001
    endloop
  endfacet
  facet normal -9.970241e-001 1.995253e-002 -7.446387e-002
    outer loop
      vertex   7.674070e-001 1.181250e+001 -2.045985e+001
      vertex   8.953070e-001 1.266875e+001 -2.194292e+001
      vertex   8.953070e-001 0.000000e+000 -2.533750e+001
    endloop
  endfacet
  facet normal -5.449149e-015 -2.817326e-001 9.594930e-001
    outer loop
      vertex   7.674070e-001 4.947573e-015 -2.020000e+001
      vertex   1.023207e+000 0.000000e+000 -2.020000e+001
      vertex   1.023207e+000 1.092094e+001 -1.699332e+001
    endloop
  endfacet
  facet normal 7.858208e-001 -1.911129e-001 5.881849e-001
    outer loop
      vertex   1.023207e+000 1.092094e+001 -1.699332e+001
      vertex   7.674070e-001 1.187326e+001 -1.634214e+001
      vertex   7.674070e-001 4.947573e-015 -2.020000e+001
    endloop
  endfacet
  facet normal -7.536229e-001 -4.967595e-001 4.304445e-001
    outer loop
      vertex   7.674070e-001 1.187326e+001 -1.634214e+001
      vertex   1.023207e+000 1.165161e+001 -1.615008e+001
      vertex   1.023207e+000 1.837457e+001 -8.391383e+000
    endloop
  endfacet
  facet normal 9.165688e-001 -3.235073e-001 2.350418e-001
    outer loop
      vertex   1.023207e+000 1.837457e+001 -8.391383e+000
      vertex   7.674070e-001 1.921134e+001 -6.242143e+000
      vertex   7.674070e-001 1.187326e+001 -1.634214e+001
    endloop
  endfacet
  facet normal -8.981063e-001 -4.353021e-001 6.258699e-002
    outer loop
      vertex   1.023207e+000 1.837457e+001 -8.391383e+000
      vertex   1.023207e+000 1.869427e+001 -6.167800e+000
      vertex   7.674070e-001 1.921134e+001 -6.242143e+000
    endloop
  endfacet
  facet normal -8.981063e-001 -4.353021e-001 6.258699e-002
    outer loop
      vertex   7.674070e-001 1.921134e+001 -6.242143e+000
      vertex   1.023207e+000 1.869427e+001 -6.167800e+000
      vertex   1.023207e+000 1.999439e+001 2.874760e+000
    endloop
  endfacet
  facet normal 9.505661e-001 -3.105221e-001 -8.750997e-017
    outer loop
      vertex   1.023207e+000 1.999439e+001 2.874760e+000
      vertex   7.674070e-001 1.921134e+001 6.242143e+000
      vertex   7.674070e-001 1.921134e+001 -6.242143e+000
    endloop
  endfacet
  facet normal -9.370741e-001 -3.175803e-001 -1.450340e-001
    outer loop
      vertex   1.023207e+000 1.999439e+001 2.874760e+000
      vertex   1.023207e+000 1.858681e+001 5.956931e+000
      vertex   7.674070e-001 1.921134e+001 6.242143e+000
    endloop
  endfacet
  facet normal -9.370741e-001 -3.175803e-001 -1.450340e-001
    outer loop
      vertex   7.674070e-001 1.921134e+001 6.242143e+000
      vertex   1.023207e+000 1.858681e+001 5.956931e+000
      vertex   1.023207e+000 1.526614e+001 1.322819e+001
    endloop
  endfacet
  facet normal 9.630396e-001 -2.179167e-001 -1.583257e-001
    outer loop
      vertex   1.023207e+000 1.526614e+001 1.322819e+001
      vertex   7.674070e-001 1.187326e+001 1.634214e+001
      vertex   7.674070e-001 1.921134e+001 6.242143e+000
    endloop
  endfacet
  facet normal -9.508281e-001 -1.674468e-001 -2.605524e-001
    outer loop
      vertex   1.023207e+000 1.526614e+001 1.322819e+001
      vertex   1.023207e+000 1.144870e+001 1.568151e+001
      vertex   7.674070e-001 1.187326e+001 1.634214e+001
    endloop
  endfacet
  facet normal -9.508281e-001 -1.674468e-001 -2.605524e-001
    outer loop
      vertex   7.674070e-001 1.187326e+001 1.634214e+001
      vertex   1.023207e+000 1.144870e+001 1.568151e+001
      vertex   1.023207e+000 5.690998e+000 1.938176e+001
    endloop
  endfacet
  facet normal 9.676081e-001 -7.801353e-002 -2.401010e-001
    outer loop
      vertex   1.023207e+000 5.690998e+000 1.938176e+001
      vertex   7.674070e-001 -2.473787e-015 2.020000e+001
      vertex   7.674070e-001 1.187326e+001 1.634214e+001
    endloop
  endfacet
  facet normal -9.544470e-001 -0.000000e+000 -2.983806e-001
    outer loop
      vertex   1.023207e+000 5.690998e+000 1.938176e+001
      vertex   1.023207e+000 -2.602085e-015 1.938176e+001
      vertex   7.674070e-001 -2.473787e-015 2.020000e+001
    endloop
  endfacet
  facet normal 9.676081e-001 7.801353e-002 -2.401010e-001
    outer loop
      vertex   7.674070e-001 -1.187326e+001 1.634214e+001
      vertex   7.674070e-001 -2.473787e-015 2.020000e+001
      vertex   1.023207e+000 -5.690998e+000 1.938176e+001
    endloop
  endfacet
  facet normal -9.508281e-001 1.674468e-001 -2.605524e-001
    outer loop
      vertex   1.023207e+000 -5.690998e+000 1.938176e+001
      vertex   1.023207e+000 -1.144870e+001 1.568151e+001
      vertex   7.674070e-001 -1.187326e+001 1.634214e+001
    endloop
  endfacet
  facet normal -9.544470e-001 0.000000e+000 -2.983806e-001
    outer loop
      vertex   7.674070e-001 -2.473787e-015 2.020000e+001
      vertex   1.023207e+000 -2.602085e-015 1.938176e+001
      vertex   1.023207e+000 -5.690998e+000 1.938176e+001
    endloop
  endfacet
  facet normal 9.630396e-001 2.179167e-001 -1.583257e-001
    outer loop
      vertex   7.674070e-001 -1.921134e+001 6.242143e+000
      vertex   7.674070e-001 -1.187326e+001 1.634214e+001
      vertex   1.023207e+000 -1.526614e+001 1.322819e+001
    endloop
  endfacet
  facet normal -9.370741e-001 3.175803e-001 -1.450340e-001
    outer loop
      vertex   1.023207e+000 -1.526614e+001 1.322819e+001
      vertex   1.023207e+000 -1.858681e+001 5.956931e+000
      vertex   7.674070e-001 -1.921134e+001 6.242143e+000
    endloop
  endfacet
  facet normal -9.508281e-001 1.674468e-001 -2.605524e-001
    outer loop
      vertex   7.674070e-001 -1.187326e+001 1.634214e+001
      vertex   1.023207e+000 -1.144870e+001 1.568151e+001
      vertex   1.023207e+000 -1.526614e+001 1.322819e+001
    endloop
  endfacet
  facet normal 9.505661e-001 3.105221e-001 8.629569e-017
    outer loop
      vertex   7.674070e-001 -1.921134e+001 -6.242143e+000
      vertex   7.674070e-001 -1.921134e+001 6.242143e+000
      vertex   1.023207e+000 -1.999439e+001 2.874760e+000
    endloop
  endfacet
  facet normal -8.981063e-001 4.353021e-001 6.258699e-002
    outer loop
      vertex   1.023207e+000 -1.999439e+001 2.874760e+000
      vertex   1.023207e+000 -1.869427e+001 -6.167800e+000
      vertex   7.674070e-001 -1.921134e+001 -6.242143e+000
    endloop
  endfacet
  facet normal -9.370741e-001 3.175803e-001 -1.450340e-001
    outer loop
      vertex   7.674070e-001 -1.921134e+001 6.242143e+000
      vertex   1.023207e+000 -1.858681e+001 5.956931e+000
      vertex   1.023207e+000 -1.999439e+001 2.874760e+000
    endloop
  endfacet
  facet normal 9.165688e-001 3.235073e-001 2.350418e-001
    outer loop
      vertex   7.674070e-001 -1.187326e+001 -1.634214e+001
      vertex   7.674070e-001 -1.921134e+001 -6.242143e+000
      vertex   1.023207e+000 -1.837457e+001 -8.391383e+000
    endloop
  endfacet
  facet normal -7.536229e-001 4.967595e-001 4.304445e-001
    outer loop
      vertex   1.023207e+000 -1.837457e+001 -8.391383e+000
      vertex   1.023207e+000 -1.165161e+001 -1.615008e+001
      vertex   7.674070e-001 -1.187326e+001 -1.634214e+001
    endloop
  endfacet
  facet normal -8.981063e-001 4.353021e-001 6.258699e-002
    outer loop
      vertex   7.674070e-001 -1.921134e+001 -6.242143e+000
      vertex   1.023207e+000 -1.869427e+001 -6.167800e+000
      vertex   1.023207e+000 -1.837457e+001 -8.391383e+000
    endloop
  endfacet
  facet normal 7.858208e-001 1.911129e-001 5.881849e-001
    outer loop
      vertex   7.674070e-001 4.947573e-015 -2.020000e+001
      vertex   7.674070e-001 -1.187326e+001 -1.634214e+001
      vertex   1.023207e+000 -1.092094e+001 -1.699332e+001
    endloop
  endfacet
  facet normal -7.536229e-001 4.967595e-001 4.304445e-001
    outer loop
      vertex   7.674070e-001 -1.187326e+001 -1.634214e+001
      vertex   1.023207e+000 -1.165161e+001 -1.615008e+001
      vertex   1.023207e+000 -1.092094e+001 -1.699332e+001
    endloop
  endfacet
  facet normal 4.654803e-015 2.817326e-001 9.594930e-001
    outer loop
      vertex   1.023207e+000 -1.092094e+001 -1.699332e+001
      vertex   1.023207e+000 0.000000e+000 -2.020000e+001
      vertex   7.674070e-001 4.947573e-015 -2.020000e+001
    endloop
  endfacet
  facet normal -7.536229e-001 -4.967595e-001 4.304445e-001
    outer loop
      vertex   1.023207e+000 1.092094e+001 -1.699332e+001
      vertex   1.023207e+000 1.165161e+001 -1.615008e+001
      vertex   7.674070e-001 1.187326e+001 -1.634214e+001
    endloop
  endfacet
  facet normal 9.969842e-001 -2.186369e-002 7.446090e-002
    outer loop
      vertex   1.279007e+000 -5.786456e-015 -2.362500e+001
      vertex   1.279007e+000 1.277264e+001 -1.987461e+001
      vertex   1.023207e+000 1.092094e+001 -1.699332e+001
    endloop
  endfacet
  facet normal 9.969842e-001 -5.864951e-002 5.082009e-002
    outer loop
      vertex   1.279007e+000 2.149006e+001 -9.814180e+000
      vertex   1.023207e+000 1.837457e+001 -8.391383e+000
      vertex   1.023207e+000 1.165161e+001 -1.615008e+001
    endloop
  endfacet
  facet normal 9.969842e-001 -5.864951e-002 5.082009e-002
    outer loop
      vertex   1.023207e+000 1.165161e+001 -1.615008e+001
      vertex   1.279007e+000 1.277264e+001 -1.987461e+001
      vertex   1.279007e+000 2.149006e+001 -9.814180e+000
    endloop
  endfacet
  facet normal 9.969842e-001 -7.681452e-002 1.104426e-002
    outer loop
      vertex   1.279007e+000 2.338453e+001 3.362188e+000
      vertex   1.023207e+000 1.999439e+001 2.874760e+000
      vertex   1.023207e+000 1.869427e+001 -6.167800e+000
    endloop
  endfacet
  facet normal 9.969842e-001 -7.681452e-002 1.104426e-002
    outer loop
      vertex   1.023207e+000 1.869427e+001 -6.167800e+000
      vertex   1.279007e+000 2.149006e+001 -9.814180e+000
      vertex   1.279007e+000 2.338453e+001 3.362188e+000
    endloop
  endfacet
  facet normal 9.969842e-001 -7.059146e-002 -3.223804e-002
    outer loop
      vertex   1.279007e+000 1.785458e+001 1.547108e+001
      vertex   1.023207e+000 1.526614e+001 1.322819e+001
      vertex   1.023207e+000 1.858681e+001 5.956931e+000
    endloop
  endfacet
  facet normal 9.969842e-001 -7.059146e-002 -3.223804e-002
    outer loop
      vertex   1.023207e+000 1.858681e+001 5.956931e+000
      vertex   1.279007e+000 2.338453e+001 3.362188e+000
      vertex   1.279007e+000 1.785458e+001 1.547108e+001
    endloop
  endfacet
  facet normal 9.969842e-001 -4.195612e-002 -6.528499e-002
    outer loop
      vertex   1.279007e+000 6.655932e+000 2.266802e+001
      vertex   1.023207e+000 5.690998e+000 1.938176e+001
      vertex   1.023207e+000 1.144870e+001 1.568151e+001
    endloop
  endfacet
  facet normal 9.969842e-001 -4.195612e-002 -6.528499e-002
    outer loop
      vertex   1.023207e+000 1.144870e+001 1.568151e+001
      vertex   1.279007e+000 1.785458e+001 1.547108e+001
      vertex   1.279007e+000 6.655932e+000 2.266802e+001
    endloop
  endfacet
  facet normal 9.969842e-001 0.000000e+000 -7.760442e-002
    outer loop
      vertex   1.279007e+000 6.655932e+000 2.266802e+001
      vertex   1.279007e+000 -6.655932e+000 2.266802e+001
      vertex   1.023207e+000 -2.602085e-015 1.938176e+001
    endloop
  endfacet
  facet normal 9.969842e-001 0.000000e+000 -7.760442e-002
    outer loop
      vertex   1.279007e+000 -6.655932e+000 2.266802e+001
      vertex   1.023207e+000 -5.690998e+000 1.938176e+001
      vertex   1.023207e+000 -2.602085e-015 1.938176e+001
    endloop
  endfacet
  facet normal 9.969842e-001 4.195612e-002 -6.528499e-002
    outer loop
      vertex   1.279007e+000 -6.655932e+000 2.266802e+001
      vertex   1.279007e+000 -1.785458e+001 1.547108e+001
      vertex   1.023207e+000 -1.144870e+001 1.568151e+001
    endloop
  endfacet
  facet normal 9.969842e-001 4.195612e-002 -6.528499e-002
    outer loop
      vertex   1.279007e+000 -1.785458e+001 1.547108e+001
      vertex   1.023207e+000 -1.526614e+001 1.322819e+001
      vertex   1.023207e+000 -1.144870e+001 1.568151e+001
    endloop
  endfacet
  facet normal 9.969842e-001 7.059146e-002 -3.223804e-002
    outer loop
      vertex   1.279007e+000 -1.785458e+001 1.547108e+001
      vertex   1.279007e+000 -2.338453e+001 3.362188e+000
      vertex   1.023207e+000 -1.858681e+001 5.956931e+000
    endloop
  endfacet
  facet normal 9.969842e-001 7.059146e-002 -3.223804e-002
    outer loop
      vertex   1.279007e+000 -2.338453e+001 3.362188e+000
      vertex   1.023207e+000 -1.999439e+001 2.874760e+000
      vertex   1.023207e+000 -1.858681e+001 5.956931e+000
    endloop
  endfacet
  facet normal 9.969842e-001 7.681452e-002 1.104426e-002
    outer loop
      vertex   1.279007e+000 -2.338453e+001 3.362188e+000
      vertex   1.279007e+000 -2.149006e+001 -9.814180e+000
      vertex   1.023207e+000 -1.869427e+001 -6.167800e+000
    endloop
  endfacet
  facet normal 9.969842e-001 7.681452e-002 1.104426e-002
    outer loop
      vertex   1.279007e+000 -2.149006e+001 -9.814180e+000
      vertex   1.023207e+000 -1.837457e+001 -8.391383e+000
      vertex   1.023207e+000 -1.869427e+001 -6.167800e+000
    endloop
  endfacet
  facet normal 9.969842e-001 5.864951e-002 5.082009e-002
    outer loop
      vertex   1.279007e+000 -2.149006e+001 -9.814180e+000
      vertex   1.279007e+000 -1.277264e+001 -1.987461e+001
      vertex   1.023207e+000 -1.165161e+001 -1.615008e+001
    endloop
  endfacet
  facet normal 9.969842e-001 5.864951e-002 5.082009e-002
    outer loop
      vertex   1.279007e+000 -1.277264e+001 -1.987461e+001
      vertex   1.023207e+000 -1.092094e+001 -1.699332e+001
      vertex   1.023207e+000 -1.165161e+001 -1.615008e+001
    endloop
  endfacet
  facet normal 9.969842e-001 2.186369e-002 7.446090e-002
    outer loop
      vertex   1.279007e+000 -1.277264e+001 -1.987461e+001
      vertex   1.279007e+000 -5.786456e-015 -2.362500e+001
      vertex   1.023207e+000 0.000000e+000 -2.020000e+001
    endloop
  endfacet
  facet normal 9.969842e-001 2.186369e-002 7.446090e-002
    outer loop
      vertex   1.023207e+000 0.000000e+000 -2.020000e+001
      vertex   1.023207e+000 -1.092094e+001 -1.699332e+001
      vertex   1.279007e+000 -1.277264e+001 -1.987461e+001
    endloop
  endfacet
  facet normal 9.969842e-001 5.864951e-002 5.082009e-002
    outer loop
      vertex   1.023207e+000 -1.165161e+001 -1.615008e+001
      vertex   1.023207e+000 -1.837457e+001 -8.391383e+000
      vertex   1.279007e+000 -2.149006e+001 -9.814180e+000
    endloop
  endfacet
  facet normal 9.969842e-001 7.681452e-002 1.104426e-002
    outer loop
      vertex   1.023207e+000 -1.869427e+001 -6.167800e+000
      vertex   1.023207e+000 -1.999439e+001 2.874760e+000
      vertex   1.279007e+000 -2.338453e+001 3.362188e+000
    endloop
  endfacet
  facet normal 9.969842e-001 7.059146e-002 -3.223804e-002
    outer loop
      vertex   1.023207e+000 -1.858681e+001 5.956931e+000
      vertex   1.023207e+000 -1.526614e+001 1.322819e+001
      vertex   1.279007e+000 -1.785458e+001 1.547108e+001
    endloop
  endfacet
  facet normal 9.969842e-001 4.195612e-002 -6.528499e-002
    outer loop
      vertex   1.023207e+000 -1.144870e+001 1.568151e+001
      vertex   1.023207e+000 -5.690998e+000 1.938176e+001
      vertex   1.279007e+000 -6.655932e+000 2.266802e+001
    endloop
  endfacet
  facet normal 9.969842e-001 0.000000e+000 -7.760442e-002
    outer loop
      vertex   1.023207e+000 -2.602085e-015 1.938176e+001
      vertex   1.023207e+000 5.690998e+000 1.938176e+001
      vertex   1.279007e+000 6.655932e+000 2.266802e+001
    endloop
  endfacet
  facet normal 9.969842e-001 -4.195612e-002 -6.528499e-002
    outer loop
      vertex   1.023207e+000 1.144870e+001 1.568151e+001
      vertex   1.023207e+000 1.526614e+001 1.322819e+001
      vertex   1.279007e+000 1.785458e+001 1.547108e+001
    endloop
  endfacet
  facet normal 9.969842e-001 -7.059146e-002 -3.223804e-002
    outer loop
      vertex   1.023207e+000 1.858681e+001 5.956931e+000
      vertex   1.023207e+000 1.999439e+001 2.874760e+000
      vertex   1.279007e+000 2.338453e+001 3.362188e+000
    endloop
  endfacet
  facet normal 9.969842e-001 -7.681452e-002 1.104426e-002
    outer loop
      vertex   1.023207e+000 1.869427e+001 -6.167800e+000
      vertex   1.023207e+000 1.837457e+001 -8.391383e+000
      vertex   1.279007e+000 2.149006e+001 -9.814180e+000
    endloop
  endfacet
  facet normal 9.969842e-001 -5.864951e-002 5.082009e-002
    outer loop
      vertex   1.023207e+000 1.165161e+001 -1.615008e+001
      vertex   1.023207e+000 1.092094e+001 -1.699332e+001
      vertex   1.279007e+000 1.277264e+001 -1.987461e+001
    endloop
  endfacet
  facet normal 9.969842e-001 -2.186369e-002 7.446090e-002
    outer loop
      vertex   1.023207e+000 1.092094e+001 -1.699332e+001
      vertex   1.023207e+000 0.000000e+000 -2.020000e+001
      vertex   1.279007e+000 -5.786456e-015 -2.362500e+001
    endloop
  endfacet
  facet normal 1.000000e+000 3.903954e-015 1.782876e-015
    outer loop
      vertex   1.279007e+000 2.191810e+001 1.265442e+001
      vertex   1.279007e+000 1.785458e+001 1.547108e+001
      vertex   1.279007e+000 2.338453e+001 3.362188e+000
    endloop
  endfacet
  facet normal 1.000000e+000 2.243986e-015 3.491710e-015
    outer loop
      vertex   1.279007e+000 1.265442e+001 2.191810e+001
      vertex   1.279007e+000 6.655932e+000 2.266802e+001
      vertex   1.279007e+000 1.785458e+001 1.547108e+001
    endloop
  endfacet
  facet normal 1.000000e+000 -3.388399e-015 1.264568e-014
    outer loop
      vertex   1.279007e+000 0.000000e+000 2.530884e+001
      vertex   1.279007e+000 -1.265442e+001 2.191810e+001
      vertex   1.279007e+000 -6.655932e+000 2.266802e+001
    endloop
  endfacet
  facet normal 1.000000e+000 8.695503e-015 8.695503e-015
    outer loop
      vertex   1.279007e+000 1.785458e+001 1.547108e+001
      vertex   1.279007e+000 2.191810e+001 1.265442e+001
      vertex   1.279007e+000 1.265442e+001 2.191810e+001
    endloop
  endfacet
  facet normal 1.000000e+000 -0.000000e+000 4.105549e-015
    outer loop
      vertex   1.279007e+000 -6.655932e+000 2.266802e+001
      vertex   1.279007e+000 6.655932e+000 2.266802e+001
      vertex   1.279007e+000 0.000000e+000 2.530884e+001
    endloop
  endfacet
  facet normal 1.000000e+000 -1.059396e-014 2.838642e-015
    outer loop
      vertex   1.279007e+000 -2.191810e+001 1.265442e+001
      vertex   1.279007e+000 -2.530884e+001 -4.649159e-015
      vertex   1.279007e+000 -2.338453e+001 3.362188e+000
    endloop
  endfacet
  facet normal 1.000000e+000 -9.117949e-015 -2.443147e-015
    outer loop
      vertex   1.279007e+000 -2.530884e+001 -4.649159e-015
      vertex   1.279007e+000 -2.191810e+001 -1.265442e+001
      vertex   1.279007e+000 -2.149006e+001 -9.814180e+000
    endloop
  endfacet
  facet normal 1.000000e+000 3.388399e-015 1.264568e-014
    outer loop
      vertex   1.279007e+000 6.655932e+000 2.266802e+001
      vertex   1.279007e+000 1.265442e+001 2.191810e+001
      vertex   1.279007e+000 0.000000e+000 2.530884e+001
    endloop
  endfacet
  facet normal 1.000000e+000 -8.695503e-015 8.695503e-015
    outer loop
      vertex   1.279007e+000 -1.265442e+001 2.191810e+001
      vertex   1.279007e+000 -2.191810e+001 1.265442e+001
      vertex   1.279007e+000 -1.785458e+001 1.547108e+001
    endloop
  endfacet
  facet normal 1.000000e+000 -4.503022e-015 -6.474369e-016
    outer loop
      vertex   1.279007e+000 -2.149006e+001 -9.814180e+000
      vertex   1.279007e+000 -2.338453e+001 3.362188e+000
      vertex   1.279007e+000 -2.530884e+001 -4.649159e-015
    endloop
  endfacet
  facet normal 1.000000e+000 -5.631434e-015 -5.631434e-015
    outer loop
      vertex   1.279007e+000 -2.191810e+001 -1.265442e+001
      vertex   1.279007e+000 -1.265442e+001 -2.191810e+001
      vertex   1.279007e+000 -1.277264e+001 -1.987461e+001
    endloop
  endfacet
  facet normal 1.000000e+000 3.752696e-015 -3.251730e-015
    outer loop
      vertex   1.279007e+000 2.191810e+001 -1.265442e+001
      vertex   1.279007e+000 2.149006e+001 -9.814180e+000
      vertex   1.279007e+000 1.277264e+001 -1.987461e+001
    endloop
  endfacet
  facet normal 1.000000e+000 4.503022e-015 -6.474369e-016
    outer loop
      vertex   1.279007e+000 2.530884e+001 1.549720e-015
      vertex   1.279007e+000 2.338453e+001 3.362188e+000
      vertex   1.279007e+000 2.149006e+001 -9.814180e+000
    endloop
  endfacet
  facet normal 1.000000e+000 -2.243986e-015 3.491710e-015
    outer loop
      vertex   1.279007e+000 -1.785458e+001 1.547108e+001
      vertex   1.279007e+000 -6.655932e+000 2.266802e+001
      vertex   1.279007e+000 -1.265442e+001 2.191810e+001
    endloop
  endfacet
  facet normal 1.000000e+000 -3.752696e-015 -3.251730e-015
    outer loop
      vertex   1.279007e+000 -1.277264e+001 -1.987461e+001
      vertex   1.279007e+000 -2.149006e+001 -9.814180e+000
      vertex   1.279007e+000 -2.191810e+001 -1.265442e+001
    endloop
  endfacet
  facet normal 1.000000e+000 1.725286e-015 -6.438856e-015
    outer loop
      vertex   1.279007e+000 -5.786456e-015 -2.362500e+001
      vertex   1.279007e+000 9.298318e-015 -2.530884e+001
      vertex   1.279007e+000 1.265442e+001 -2.191810e+001
    endloop
  endfacet
  facet normal 1.000000e+000 9.117949e-015 -2.443147e-015
    outer loop
      vertex   1.279007e+000 2.149006e+001 -9.814180e+000
      vertex   1.279007e+000 2.191810e+001 -1.265442e+001
      vertex   1.279007e+000 2.530884e+001 1.549720e-015
    endloop
  endfacet
  facet normal 1.000000e+000 -3.903954e-015 1.782876e-015
    outer loop
      vertex   1.279007e+000 -2.338453e+001 3.362188e+000
      vertex   1.279007e+000 -1.785458e+001 1.547108e+001
      vertex   1.279007e+000 -2.191810e+001 1.265442e+001
    endloop
  endfacet
  facet normal 1.000000e+000 -1.584800e-015 -5.397332e-015
    outer loop
      vertex   1.279007e+000 -5.786456e-015 -2.362500e+001
      vertex   1.279007e+000 -1.277264e+001 -1.987461e+001
      vertex   1.279007e+000 -1.265442e+001 -2.191810e+001
    endloop
  endfacet
  facet normal 1.000000e+000 5.631434e-015 -5.631434e-015
    outer loop
      vertex   1.279007e+000 1.277264e+001 -1.987461e+001
      vertex   1.279007e+000 1.265442e+001 -2.191810e+001
      vertex   1.279007e+000 2.191810e+001 -1.265442e+001
    endloop
  endfacet
  facet normal 1.000000e+000 -1.725286e-015 -6.438856e-015
    outer loop
      vertex   1.279007e+000 -1.265442e+001 -2.191810e+001
      vertex   1.279007e+000 9.298318e-015 -2.530884e+001
      vertex   1.279007e+000 -5.786456e-015 -2.362500e+001
    endloop
  endfacet
  facet normal 1.000000e+000 1.059396e-014 2.838642e-015
    outer loop
      vertex   1.279007e+000 2.338453e+001 3.362188e+000
      vertex   1.279007e+000 2.530884e+001 1.549720e-015
      vertex   1.279007e+000 2.191810e+001 1.265442e+001
    endloop
  endfacet
  facet normal 1.000000e+000 1.584800e-015 -5.397332e-015
    outer loop
      vertex   1.279007e+000 1.265442e+001 -2.191810e+001
      vertex   1.279007e+000 1.277264e+001 -1.987461e+001
      vertex   1.279007e+000 -5.786456e-015 -2.362500e+001
    endloop
  endfacet
  facet normal 9.886302e-001 3.891786e-002 1.452434e-001
    outer loop
      vertex   1.023207e+000 0.000000e+000 2.705000e+001
      vertex   1.279007e+000 0.000000e+000 2.530884e+001
      vertex   1.279007e+000 1.265442e+001 2.191810e+001
    endloop
  endfacet
  facet normal 9.886302e-001 1.063256e-001 1.063256e-001
    outer loop
      vertex   1.023207e+000 1.352500e+001 2.342599e+001
      vertex   1.279007e+000 1.265442e+001 2.191810e+001
      vertex   1.279007e+000 2.191810e+001 1.265442e+001
    endloop
  endfacet
  facet normal 9.886302e-001 1.452434e-001 3.891786e-002
    outer loop
      vertex   1.023207e+000 2.342599e+001 1.352500e+001
      vertex   1.279007e+000 2.191810e+001 1.265442e+001
      vertex   1.279007e+000 2.530884e+001 1.549720e-015
    endloop
  endfacet
  facet normal 9.886302e-001 1.452434e-001 -3.891786e-002
    outer loop
      vertex   1.023207e+000 2.705000e+001 1.656335e-015
      vertex   1.279007e+000 2.530884e+001 1.549720e-015
      vertex   1.279007e+000 2.191810e+001 -1.265442e+001
    endloop
  endfacet
  facet normal 9.886302e-001 1.063256e-001 -1.063256e-001
    outer loop
      vertex   1.023207e+000 2.342599e+001 -1.352500e+001
      vertex   1.279007e+000 2.191810e+001 -1.265442e+001
      vertex   1.279007e+000 1.265442e+001 -2.191810e+001
    endloop
  endfacet
  facet normal 9.886302e-001 3.891786e-002 -1.452434e-001
    outer loop
      vertex   1.023207e+000 1.352500e+001 -2.342599e+001
      vertex   1.279007e+000 1.265442e+001 -2.191810e+001
      vertex   1.279007e+000 9.298318e-015 -2.530884e+001
    endloop
  endfacet
  facet normal 9.886302e-001 -3.891786e-002 -1.452434e-001
    outer loop
      vertex   1.023207e+000 3.312670e-015 -2.705000e+001
      vertex   1.279007e+000 9.298318e-015 -2.530884e+001
      vertex   1.279007e+000 -1.265442e+001 -2.191810e+001
    endloop
  endfacet
  facet normal 9.886302e-001 -1.063256e-001 -1.063256e-001
    outer loop
      vertex   1.023207e+000 -1.352500e+001 -2.342599e+001
      vertex   1.279007e+000 -1.265442e+001 -2.191810e+001
      vertex   1.279007e+000 -2.191810e+001 -1.265442e+001
    endloop
  endfacet
  facet normal 9.886302e-001 -1.452434e-001 -3.891786e-002
    outer loop
      vertex   1.023207e+000 -2.342599e+001 -1.352500e+001
      vertex   1.279007e+000 -2.191810e+001 -1.265442e+001
      vertex   1.279007e+000 -2.530884e+001 -4.649159e-015
    endloop
  endfacet
  facet normal 9.886302e-001 -1.452434e-001 3.891786e-002
    outer loop
      vertex   1.023207e+000 -2.705000e+001 -4.969004e-015
      vertex   1.279007e+000 -2.530884e+001 -4.649159e-015
      vertex   1.279007e+000 -2.191810e+001 1.265442e+001
    endloop
  endfacet
  facet normal 9.886302e-001 -1.063256e-001 1.063256e-001
    outer loop
      vertex   1.023207e+000 -2.342599e+001 1.352500e+001
      vertex   1.279007e+000 -2.191810e+001 1.265442e+001
      vertex   1.279007e+000 -1.265442e+001 2.191810e+001
    endloop
  endfacet
  facet normal 9.886302e-001 -3.891786e-002 1.452434e-001
    outer loop
      vertex   1.023207e+000 -1.352500e+001 2.342599e+001
      vertex   1.279007e+000 -1.265442e+001 2.191810e+001
      vertex   1.279007e+000 0.000000e+000 2.530884e+001
    endloop
  endfacet
  facet normal 9.886302e-001 -3.891786e-002 1.452434e-001
    outer loop
      vertex   1.279007e+000 0.000000e+000 2.530884e+001
      vertex   1.023207e+000 0.000000e+000 2.705000e+001
      vertex   1.023207e+000 -1.352500e+001 2.342599e+001
    endloop
  endfacet
  facet normal 9.886302e-001 -1.063256e-001 1.063256e-001
    outer loop
      vertex   1.279007e+000 -1.265442e+001 2.191810e+001
      vertex   1.023207e+000 -1.352500e+001 2.342599e+001
      vertex   1.023207e+000 -2.342599e+001 1.352500e+001
    endloop
  endfacet
  facet normal 9.886302e-001 -1.452434e-001 3.891786e-002
    outer loop
      vertex   1.279007e+000 -2.191810e+001 1.265442e+001
      vertex   1.023207e+000 -2.342599e+001 1.352500e+001
      vertex   1.023207e+000 -2.705000e+001 -4.969004e-015
    endloop
  endfacet
  facet normal 9.886302e-001 -1.452434e-001 -3.891786e-002
    outer loop
      vertex   1.279007e+000 -2.530884e+001 -4.649159e-015
      vertex   1.023207e+000 -2.705000e+001 -4.969004e-015
      vertex   1.023207e+000 -2.342599e+001 -1.352500e+001
    endloop
  endfacet
  facet normal 9.886302e-001 -1.063256e-001 -1.063256e-001
    outer loop
      vertex   1.279007e+000 -2.191810e+001 -1.265442e+001
      vertex   1.023207e+000 -2.342599e+001 -1.352500e+001
      vertex   1.023207e+000 -1.352500e+001 -2.342599e+001
    endloop
  endfacet
  facet normal 9.886302e-001 -3.891786e-002 -1.452434e-001
    outer loop
      vertex   1.279007e+000 -1.265442e+001 -2.191810e+001
      vertex   1.023207e+000 -1.352500e+001 -2.342599e+001
      vertex   1.023207e+000 3.312670e-015 -2.705000e+001
    endloop
  endfacet
  facet normal 9.886302e-001 3.891786e-002 -1.452434e-001
    outer loop
      vertex   1.279007e+000 9.298318e-015 -2.530884e+001
      vertex   1.023207e+000 3.312670e-015 -2.705000e+001
      vertex   1.023207e+000 1.352500e+001 -2.342599e+001
    endloop
  endfacet
  facet normal 9.886302e-001 1.063256e-001 -1.063256e-001
    outer loop
      vertex   1.279007e+000 1.265442e+001 -2.191810e+001
      vertex   1.023207e+000 1.352500e+001 -2.342599e+001
      vertex   1.023207e+000 2.342599e+001 -1.352500e+001
    endloop
  endfacet
  facet normal 9.886302e-001 1.452434e-001 -3.891786e-002
    outer loop
      vertex   1.279007e+000 2.191810e+001 -1.265442e+001
      vertex   1.023207e+000 2.342599e+001 -1.352500e+001
      vertex   1.023207e+000 2.705000e+001 1.656335e-015
    endloop
  endfacet
  facet normal 9.886302e-001 1.452434e-001 3.891786e-002
    outer loop
      vertex   1.279007e+000 2.530884e+001 1.549720e-015
      vertex   1.023207e+000 2.705000e+001 1.656335e-015
      vertex   1.023207e+000 2.342599e+001 1.352500e+001
    endloop
  endfacet
  facet normal 9.886302e-001 1.063256e-001 1.063256e-001
    outer loop
      vertex   1.279007e+000 2.191810e+001 1.265442e+001
      vertex   1.023207e+000 2.342599e+001 1.352500e+001
      vertex   1.023207e+000 1.352500e+001 2.342599e+001
    endloop
  endfacet
  facet normal 9.886302e-001 3.891786e-002 1.452434e-001
    outer loop
      vertex   1.279007e+000 1.265442e+001 2.191810e+001
      vertex   1.023207e+000 1.352500e+001 2.342599e+001
      vertex   1.023207e+000 0.000000e+000 2.705000e+001
    endloop
  endfacet
  facet normal -6.703534e-015 -2.588190e-001 -9.659258e-001
    outer loop
      vertex   7.674070e-001 9.938009e-015 -2.705000e+001
      vertex   1.023207e+000 3.312670e-015 -2.705000e+001
      vertex   1.023207e+000 -1.352500e+001 -2.342599e+001
    endloop
  endfacet
  facet normal 0.000000e+000 -7.071068e-001 -7.071068e-001
    outer loop
      vertex   7.674070e-001 -1.352500e+001 -2.342599e+001
      vertex   1.023207e+000 -1.352500e+001 -2.342599e+001
      vertex   1.023207e+000 -2.342599e+001 -1.352500e+001
    endloop
  endfacet
  facet normal 0.000000e+000 -9.659258e-001 -2.588190e-001
    outer loop
      vertex   7.674070e-001 -2.342599e+001 -1.352500e+001
      vertex   1.023207e+000 -2.342599e+001 -1.352500e+001
      vertex   1.023207e+000 -2.705000e+001 -4.969004e-015
    endloop
  endfacet
  facet normal 0.000000e+000 -9.659258e-001 2.588190e-001
    outer loop
      vertex   7.674070e-001 -2.705000e+001 -4.969004e-015
      vertex   1.023207e+000 -2.705000e+001 -4.969004e-015
      vertex   1.023207e+000 -2.342599e+001 1.352500e+001
    endloop
  endfacet
  facet normal 0.000000e+000 -7.071068e-001 7.071068e-001
    outer loop
      vertex   7.674070e-001 -2.342599e+001 1.352500e+001
      vertex   1.023207e+000 -2.342599e+001 1.352500e+001
      vertex   1.023207e+000 -1.352500e+001 2.342599e+001
    endloop
  endfacet
  facet normal 0.000000e+000 -2.588190e-001 9.659258e-001
    outer loop
      vertex   7.674070e-001 -1.352500e+001 2.342599e+001
      vertex   1.023207e+000 -1.352500e+001 2.342599e+001
      vertex   1.023207e+000 0.000000e+000 2.705000e+001
    endloop
  endfacet
  facet normal -0.000000e+000 2.588190e-001 9.659258e-001
    outer loop
      vertex   7.674070e-001 0.000000e+000 2.705000e+001
      vertex   1.023207e+000 0.000000e+000 2.705000e+001
      vertex   1.023207e+000 1.352500e+001 2.342599e+001
    endloop
  endfacet
  facet normal -0.000000e+000 7.071068e-001 7.071068e-001
    outer loop
      vertex   7.674070e-001 1.352500e+001 2.342599e+001
      vertex   1.023207e+000 1.352500e+001 2.342599e+001
      vertex   1.023207e+000 2.342599e+001 1.352500e+001
    endloop
  endfacet
  facet normal -0.000000e+000 9.659258e-001 2.588190e-001
    outer loop
      vertex   7.674070e-001 2.342599e+001 1.352500e+001
      vertex   1.023207e+000 2.342599e+001 1.352500e+001
      vertex   1.023207e+000 2.705000e+001 1.656335e-015
    endloop
  endfacet
  facet normal 0.000000e+000 9.659258e-001 -2.588190e-001
    outer loop
      vertex   7.674070e-001 2.705000e+001 1.656335e-015
      vertex   1.023207e+000 2.705000e+001 1.656335e-015
      vertex   1.023207e+000 2.342599e+001 -1.352500e+001
    endloop
  endfacet
  facet normal 0.000000e+000 7.071068e-001 -7.071068e-001
    outer loop
      vertex   7.674070e-001 2.342599e+001 -1.352500e+001
      vertex   1.023207e+000 2.342599e+001 -1.352500e+001
      vertex   1.023207e+000 1.352500e+001 -2.342599e+001
    endloop
  endfacet
  facet normal 0.000000e+000 2.588190e-001 -9.659258e-001
    outer loop
      vertex   7.674070e-001 1.352500e+001 -2.342599e+001
      vertex   1.023207e+000 1.352500e+001 -2.342599e+001
      vertex   1.023207e+000 3.312670e-015 -2.705000e+001
    endloop
  endfacet
  facet normal 6.703534e-015 2.588190e-001 -9.659258e-001
    outer loop
      vertex   1.023207e+000 3.312670e-015 -2.705000e+001
      vertex   7.674070e-001 9.938009e-015 -2.705000e+001
      vertex   7.674070e-001 1.352500e+001 -2.342599e+001
    endloop
  endfacet
  facet normal 0.000000e+000 7.071068e-001 -7.071068e-001
    outer loop
      vertex   1.023207e+000 1.352500e+001 -2.342599e+001
      vertex   7.674070e-001 1.352500e+001 -2.342599e+001
      vertex   7.674070e-001 2.342599e+001 -1.352500e+001
    endloop
  endfacet
  facet normal 0.000000e+000 9.659258e-001 -2.588190e-001
    outer loop
      vertex   1.023207e+000 2.342599e+001 -1.352500e+001
      vertex   7.674070e-001 2.342599e+001 -1.352500e+001
      vertex   7.674070e-001 2.705000e+001 1.656335e-015
    endloop
  endfacet
  facet normal 0.000000e+000 9.659258e-001 2.588190e-001
    outer loop
      vertex   1.023207e+000 2.705000e+001 1.656335e-015
      vertex   7.674070e-001 2.705000e+001 1.656335e-015
      vertex   7.674070e-001 2.342599e+001 1.352500e+001
    endloop
  endfacet
  facet normal 0.000000e+000 7.071068e-001 7.071068e-001
    outer loop
      vertex   1.023207e+000 2.342599e+001 1.352500e+001
      vertex   7.674070e-001 2.342599e+001 1.352500e+001
      vertex   7.674070e-001 1.352500e+001 2.342599e+001
    endloop
  endfacet
  facet normal 0.000000e+000 2.588190e-001 9.659258e-001
    outer loop
      vertex   1.023207e+000 1.352500e+001 2.342599e+001
      vertex   7.674070e-001 1.352500e+001 2.342599e+001
      vertex   7.674070e-001 0.000000e+000 2.705000e+001
    endloop
  endfacet
  facet normal 0.000000e+000 -2.588190e-001 9.659258e-001
    outer loop
      vertex   1.023207e+000 0.000000e+000 2.705000e+001
      vertex   7.674070e-001 0.000000e+000 2.705000e+001
      vertex   7.674070e-001 -1.352500e+001 2.342599e+001
    endloop
  endfacet
  facet normal 0.000000e+000 -7.071068e-001 7.071068e-001
    outer loop
      vertex   1.023207e+000 -1.352500e+001 2.342599e+001
      vertex   7.674070e-001 -1.352500e+001 2.342599e+001
      vertex   7.674070e-001 -2.342599e+001 1.352500e+001
    endloop
  endfacet
  facet normal 0.000000e+000 -9.659258e-001 2.588190e-001
    outer loop
      vertex   1.023207e+000 -2.342599e+001 1.352500e+001
      vertex   7.674070e-001 -2.342599e+001 1.352500e+001
      vertex   7.674070e-001 -2.705000e+001 -4.969004e-015
    endloop
  endfacet
  facet normal -0.000000e+000 -9.659258e-001 -2.588190e-001
    outer loop
      vertex   1.023207e+000 -2.705000e+001 -4.969004e-015
      vertex   7.674070e-001 -2.705000e+001 -4.969004e-015
      vertex   7.674070e-001 -2.342599e+001 -1.352500e+001
    endloop
  endfacet
  facet normal -0.000000e+000 -7.071068e-001 -7.071068e-001
    outer loop
      vertex   1.023207e+000 -2.342599e+001 -1.352500e+001
      vertex   7.674070e-001 -2.342599e+001 -1.352500e+001
      vertex   7.674070e-001 -1.352500e+001 -2.342599e+001
    endloop
  endfacet
  facet normal -0.000000e+000 -2.588190e-001 -9.659258e-001
    outer loop
      vertex   1.023207e+000 -1.352500e+001 -2.342599e+001
      vertex   7.674070e-001 -1.352500e+001 -2.342599e+001
      vertex   7.674070e-001 9.938009e-015 -2.705000e+001
    endloop
  endfacet
  facet normal -9.970241e-001 -1.995253e-002 -7.446387e-002
    outer loop
      vertex   7.674070e-001 0.000000e+000 2.705000e+001
      vertex   7.674070e-001 1.352500e+001 2.342599e+001
      vertex   8.953070e-001 1.266875e+001 2.194292e+001
    endloop
  endfacet
  facet normal -9.970241e-001 -5.451134e-002 -5.451134e-002
    outer loop
      vertex   7.674070e-001 1.352500e+001 2.342599e+001
      vertex   7.674070e-001 2.342599e+001 1.352500e+001
      vertex   8.953070e-001 2.194292e+001 1.266875e+001
    endloop
  endfacet
  facet normal -9.970241e-001 -7.446387e-002 -1.995253e-002
    outer loop
      vertex   7.674070e-001 2.342599e+001 1.352500e+001
      vertex   7.674070e-001 2.705000e+001 1.656335e-015
      vertex   8.953070e-001 2.533750e+001 -1.551474e-015
    endloop
  endfacet
  facet normal -9.970241e-001 -7.446387e-002 1.995253e-002
    outer loop
      vertex   7.674070e-001 2.705000e+001 1.656335e-015
      vertex   7.674070e-001 2.342599e+001 -1.352500e+001
      vertex   8.953070e-001 2.194292e+001 -1.266875e+001
    endloop
  endfacet
  facet normal -9.970241e-001 -5.451134e-002 5.451134e-002
    outer loop
      vertex   7.674070e-001 2.342599e+001 -1.352500e+001
      vertex   7.674070e-001 1.352500e+001 -2.342599e+001
      vertex   8.953070e-001 1.266875e+001 -2.194292e+001
    endloop
  endfacet
  facet normal -9.970241e-001 -1.995253e-002 7.446387e-002
    outer loop
      vertex   7.674070e-001 1.352500e+001 -2.342599e+001
      vertex   7.674070e-001 9.938009e-015 -2.705000e+001
      vertex   8.953070e-001 0.000000e+000 -2.533750e+001
    endloop
  endfacet
  facet normal -9.970241e-001 1.995253e-002 7.446387e-002
    outer loop
      vertex   7.674070e-001 9.938009e-015 -2.705000e+001
      vertex   7.674070e-001 -1.352500e+001 -2.342599e+001
      vertex   8.953070e-001 -1.266875e+001 -2.194292e+001
    endloop
  endfacet
  facet normal -9.970241e-001 5.451134e-002 5.451134e-002
    outer loop
      vertex   7.674070e-001 -1.352500e+001 -2.342599e+001
      vertex   7.674070e-001 -2.342599e+001 -1.352500e+001
      vertex   8.953070e-001 -2.194292e+001 -1.266875e+001
    endloop
  endfacet
  facet normal -9.970241e-001 7.446387e-002 1.995253e-002
    outer loop
      vertex   7.674070e-001 -2.342599e+001 -1.352500e+001
      vertex   7.674070e-001 -2.705000e+001 -4.969004e-015
      vertex   8.953070e-001 -2.533750e+001 4.654423e-015
    endloop
  endfacet
  facet normal -9.970241e-001 7.446387e-002 -1.995253e-002
    outer loop
      vertex   7.674070e-001 -2.705000e+001 -4.969004e-015
      vertex   7.674070e-001 -2.342599e+001 1.352500e+001
      vertex   8.953070e-001 -2.194292e+001 1.266875e+001
    endloop
  endfacet
  facet normal -9.970241e-001 5.451134e-002 -5.451134e-002
    outer loop
      vertex   7.674070e-001 -2.342599e+001 1.352500e+001
      vertex   7.674070e-001 -1.352500e+001 2.342599e+001
      vertex   8.953070e-001 -1.266875e+001 2.194292e+001
    endloop
  endfacet
  facet normal -9.970241e-001 1.995253e-002 -7.446387e-002
    outer loop
      vertex   7.674070e-001 -1.352500e+001 2.342599e+001
      vertex   7.674070e-001 0.000000e+000 2.705000e+001
      vertex   8.953070e-001 1.435506e-014 2.533750e+001
    endloop
  endfacet
  facet normal -9.970241e-001 1.995253e-002 -7.446387e-002
    outer loop
      vertex   8.953070e-001 1.435506e-014 2.533750e+001
      vertex   8.953070e-001 -1.266875e+001 2.194292e+001
      vertex   7.674070e-001 -1.352500e+001 2.342599e+001
    endloop
  endfacet
  facet normal -9.970241e-001 5.451134e-002 -5.451134e-002
    outer loop
      vertex   8.953070e-001 -1.266875e+001 2.194292e+001
      vertex   8.953070e-001 -2.194292e+001 1.266875e+001
      vertex   7.674070e-001 -2.342599e+001 1.352500e+001
    endloop
  endfacet
  facet normal -9.970241e-001 7.446387e-002 -1.995253e-002
    outer loop
      vertex   8.953070e-001 -2.194292e+001 1.266875e+001
      vertex   8.953070e-001 -2.533750e+001 4.654423e-015
      vertex   7.674070e-001 -2.705000e+001 -4.969004e-015
    endloop
  endfacet
  facet normal -9.970241e-001 7.446387e-002 1.995253e-002
    outer loop
      vertex   8.953070e-001 -2.533750e+001 4.654423e-015
      vertex   8.953070e-001 -2.194292e+001 -1.266875e+001
      vertex   7.674070e-001 -2.342599e+001 -1.352500e+001
    endloop
  endfacet
  facet normal -9.970241e-001 5.451134e-002 5.451134e-002
    outer loop
      vertex   8.953070e-001 -2.194292e+001 -1.266875e+001
      vertex   8.953070e-001 -1.266875e+001 -2.194292e+001
      vertex   7.674070e-001 -1.352500e+001 -2.342599e+001
    endloop
  endfacet
  facet normal -9.970241e-001 1.995253e-002 7.446387e-002
    outer loop
      vertex   8.953070e-001 -1.266875e+001 -2.194292e+001
      vertex   8.953070e-001 0.000000e+000 -2.533750e+001
      vertex   7.674070e-001 9.938009e-015 -2.705000e+001
    endloop
  endfacet
  facet normal -9.970241e-001 -1.995253e-002 7.446387e-002
    outer loop
      vertex   8.953070e-001 0.000000e+000 -2.533750e+001
      vertex   8.953070e-001 1.266875e+001 -2.194292e+001
      vertex   7.674070e-001 1.352500e+001 -2.342599e+001
    endloop
  endfacet
  facet normal -9.970241e-001 -5.451134e-002 5.451134e-002
    outer loop
      vertex   8.953070e-001 1.266875e+001 -2.194292e+001
      vertex   8.953070e-001 2.194292e+001 -1.266875e+001
      vertex   7.674070e-001 2.342599e+001 -1.352500e+001
    endloop
  endfacet
  facet normal -9.970241e-001 -7.446387e-002 1.995253e-002
    outer loop
      vertex   8.953070e-001 2.194292e+001 -1.266875e+001
      vertex   8.953070e-001 2.533750e+001 -1.551474e-015
      vertex   7.674070e-001 2.705000e+001 1.656335e-015
    endloop
  endfacet
  facet normal -9.970241e-001 -7.446387e-002 -1.995253e-002
    outer loop
      vertex   8.953070e-001 2.533750e+001 -1.551474e-015
      vertex   8.953070e-001 2.194292e+001 1.266875e+001
      vertex   7.674070e-001 2.342599e+001 1.352500e+001
    endloop
  endfacet
  facet normal -9.970241e-001 -5.451134e-002 -5.451134e-002
    outer loop
      vertex   8.953070e-001 2.194292e+001 1.266875e+001
      vertex   8.953070e-001 1.266875e+001 2.194292e+001
      vertex   7.674070e-001 1.352500e+001 2.342599e+001
    endloop
  endfacet
  facet normal -9.970241e-001 -1.995253e-002 -7.446387e-002
    outer loop
      vertex   8.953070e-001 1.266875e+001 2.194292e+001
      vertex   8.953070e-001 1.435506e-014 2.533750e+001
      vertex   7.674070e-001 0.000000e+000 2.705000e+001
    endloop
  endfacet
endsolid
