solid AbrazaderaBuje
  facet normal -9.396926e-001 3.420201e-001 3.470198e-017
    outer loop
      vertex   1.754274e+001 -9.641814e-001 -1.500000e+000
      vertex   1.789367e+001 0.000000e+000 -1.500000e+000
      vertex   1.789367e+001 7.771625e-016 -8.934011e+000
    endloop
  endfacet
  facet normal -9.790109e-001 2.028330e-001 -1.990847e-002
    outer loop
      vertex   1.789367e+001 7.771625e-016 -8.934011e+000
      vertex   1.777918e+001 -5.747795e-001 -9.159741e+000
      vertex   1.754274e+001 -9.641814e-001 -1.500000e+000
    endloop
  endfacet
  facet normal -4.999138e-001 8.658760e-001 1.857279e-002
    outer loop
      vertex   1.665414e+001 -1.477212e+000 -1.500000e+000
      vertex   1.754274e+001 -9.641814e-001 -1.500000e+000
      vertex   1.744011e+001 -8.467561e-001 -9.736746e+000
    endloop
  endfacet
  facet normal 1.736482e-001 9.848078e-001 0.000000e+000
    outer loop
      vertex   1.564367e+001 -1.299038e+000 -1.500000e+000
      vertex   1.665414e+001 -1.477212e+000 -1.500000e+000
      vertex   1.665414e+001 -1.477212e+000 -1.107427e+001
    endloop
  endfacet
  facet normal 7.660287e-001 6.427744e-001 6.401739e-003
    outer loop
      vertex   1.498413e+001 -5.130302e-001 -1.500000e+000
      vertex   1.564367e+001 -1.299038e+000 -1.500000e+000
      vertex   1.566896e+001 -1.220572e+000 -1.240414e+001
    endloop
  endfacet
  facet normal 3.052623e-001 9.513169e-001 -4.255682e-002
    outer loop
      vertex   1.566896e+001 -1.220572e+000 -1.240414e+001
      vertex   1.544559e+001 -1.162385e+000 -1.270566e+001
      vertex   1.498413e+001 -5.130302e-001 -1.500000e+000
    endloop
  endfacet
  facet normal 9.848078e-001 1.736482e-001 1.730222e-017
    outer loop
      vertex   1.489367e+001 5.510911e-016 -1.500000e+000
      vertex   1.498413e+001 -5.130302e-001 -1.500000e+000
      vertex   1.498413e+001 -5.130302e-001 -1.324673e+001
    endloop
  endfacet
  facet normal 9.847820e-001 -1.737939e-001 -6.561700e-006
    outer loop
      vertex   1.489367e+001 5.510911e-016 -1.500000e+000
      vertex   1.489367e+001 4.477209e-004 -1.334835e+001
      vertex   1.498413e+001 5.130302e-001 -1.324673e+001
    endloop
  endfacet
  facet normal 9.848078e-001 -1.736482e-001 0.000000e+000
    outer loop
      vertex   1.498413e+001 5.130302e-001 -1.324673e+001
      vertex   1.498413e+001 5.130302e-001 -1.500000e+000
      vertex   1.489367e+001 5.510911e-016 -1.500000e+000
    endloop
  endfacet
  facet normal 7.660444e-001 -6.427876e-001 -2.004033e-016
    outer loop
      vertex   1.498413e+001 5.130302e-001 -1.500000e+000
      vertex   1.544130e+001 1.057859e+000 -1.270207e+001
      vertex   1.564367e+001 1.299038e+000 -1.246096e+001
    endloop
  endfacet
  facet normal 7.660444e-001 -6.427876e-001 0.000000e+000
    outer loop
      vertex   1.498413e+001 5.130302e-001 -1.500000e+000
      vertex   1.498413e+001 5.130302e-001 -1.324673e+001
      vertex   1.544130e+001 1.057859e+000 -1.270207e+001
    endloop
  endfacet
  facet normal 1.736482e-001 -9.848078e-001 0.000000e+000
    outer loop
      vertex   1.564367e+001 1.299038e+000 -1.500000e+000
      vertex   1.564367e+001 1.299038e+000 -1.246096e+001
      vertex   1.665414e+001 1.477212e+000 -1.107427e+001
    endloop
  endfacet
  facet normal -5.000000e-001 -8.660254e-001 -1.223441e-016
    outer loop
      vertex   1.665414e+001 1.477212e+000 -1.500000e+000
      vertex   1.665414e+001 1.477212e+000 -1.107427e+001
      vertex   1.754274e+001 9.641814e-001 -9.604810e+000
    endloop
  endfacet
  facet normal -9.788397e-001 -2.036691e-001 -1.979194e-002
    outer loop
      vertex   1.754274e+001 9.641814e-001 -1.500000e+000
      vertex   1.777818e+001 5.771796e-001 -9.161678e+000
      vertex   1.789367e+001 7.771625e-016 -8.934011e+000
    endloop
  endfacet
  facet normal -8.543206e-001 -5.197464e-001 -2.085836e-017
    outer loop
      vertex   1.754274e+001 9.641814e-001 -1.500000e+000
      vertex   1.754274e+001 9.641814e-001 -9.604810e+000
      vertex   1.777818e+001 5.771796e-001 -9.161678e+000
    endloop
  endfacet
  facet normal -9.396926e-001 -3.420201e-001 -3.575529e-017
    outer loop
      vertex   1.789367e+001 7.771625e-016 -8.934011e+000
      vertex   1.789367e+001 0.000000e+000 -1.500000e+000
      vertex   1.754274e+001 9.641814e-001 -1.500000e+000
    endloop
  endfacet
  facet normal -5.000000e-001 -8.660254e-001 -3.475516e-017
    outer loop
      vertex   1.754274e+001 9.641814e-001 -9.604810e+000
      vertex   1.754274e+001 9.641814e-001 -1.500000e+000
      vertex   1.665414e+001 1.477212e+000 -1.500000e+000
    endloop
  endfacet
  facet normal 1.736482e-001 -9.848078e-001 1.298377e-016
    outer loop
      vertex   1.665414e+001 1.477212e+000 -1.107427e+001
      vertex   1.665414e+001 1.477212e+000 -1.500000e+000
      vertex   1.564367e+001 1.299038e+000 -1.500000e+000
    endloop
  endfacet
  facet normal 7.660444e-001 -6.427876e-001 0.000000e+000
    outer loop
      vertex   1.564367e+001 1.299038e+000 -1.246096e+001
      vertex   1.564367e+001 1.299038e+000 -1.500000e+000
      vertex   1.498413e+001 5.130302e-001 -1.500000e+000
    endloop
  endfacet
  facet normal 9.848334e-001 1.735025e-001 6.561796e-006
    outer loop
      vertex   1.498413e+001 -5.130302e-001 -1.324673e+001
      vertex   1.489367e+001 4.477209e-004 -1.334835e+001
      vertex   1.489367e+001 5.510911e-016 -1.500000e+000
    endloop
  endfacet
  facet normal 8.151374e-001 5.792677e-001 5.657335e-017
    outer loop
      vertex   1.544559e+001 -1.162385e+000 -1.270566e+001
      vertex   1.498413e+001 -5.130302e-001 -1.324673e+001
      vertex   1.498413e+001 -5.130302e-001 -1.500000e+000
    endloop
  endfacet
  facet normal 2.425305e-001 9.701144e-001 7.543305e-003
    outer loop
      vertex   1.665414e+001 -1.477212e+000 -1.107427e+001
      vertex   1.566896e+001 -1.220572e+000 -1.240414e+001
      vertex   1.564367e+001 -1.299038e+000 -1.500000e+000
    endloop
  endfacet
  facet normal -6.257112e-001 7.800548e-001 0.000000e+000
    outer loop
      vertex   1.744011e+001 -8.467561e-001 -9.736746e+000
      vertex   1.665414e+001 -1.477212e+000 -1.107427e+001
      vertex   1.665414e+001 -1.477212e+000 -1.500000e+000
    endloop
  endfacet
  facet normal -6.450007e-001 7.639476e-001 1.892737e-002
    outer loop
      vertex   1.777918e+001 -5.747795e-001 -9.159741e+000
      vertex   1.744011e+001 -8.467561e-001 -9.736746e+000
      vertex   1.754274e+001 -9.641814e-001 -1.500000e+000
    endloop
  endfacet
  facet normal -5.970352e-001 -1.538503e-015 8.022151e-001
    outer loop
      vertex   -6.470797e+000 -6.500000e+000 1.892429e+001
      vertex   -6.470797e+000 6.500000e+000 1.892429e+001
      vertex   -6.696199e+000 6.500000e+000 1.875654e+001
    endloop
  endfacet
  facet normal -1.913494e-002 -1.869098e-015 9.998169e-001
    outer loop
      vertex   -6.470797e+000 6.500000e+000 1.892429e+001
      vertex   -6.470797e+000 -6.500000e+000 1.892429e+001
      vertex   5.320097e+000 -6.500000e+000 1.914995e+001
    endloop
  endfacet
  facet normal -1.913494e-002 2.693850e-016 9.998169e-001
    outer loop
      vertex   5.320097e+000 -6.500000e+000 1.914995e+001
      vertex   5.320097e+000 6.500000e+000 1.914995e+001
      vertex   -6.470797e+000 6.500000e+000 1.892429e+001
    endloop
  endfacet
  facet normal -9.522322e-001 -1.718986e-015 3.053748e-001
    outer loop
      vertex   -1.631270e+001 -6.500000e+000 1.149789e+001
      vertex   -1.626985e+001 -6.500000e+000 1.163151e+001
      vertex   -1.626985e+001 6.500000e+000 1.163151e+001
    endloop
  endfacet
  facet normal -5.970352e-001 -1.974211e-015 8.022151e-001
    outer loop
      vertex   -1.626985e+001 6.500000e+000 1.163151e+001
      vertex   -1.626985e+001 -6.500000e+000 1.163151e+001
      vertex   -6.696199e+000 -6.500000e+000 1.875654e+001
    endloop
  endfacet
  facet normal -5.970352e-001 -1.344271e-016 8.022151e-001
    outer loop
      vertex   -6.696199e+000 -6.500000e+000 1.875654e+001
      vertex   -6.696199e+000 6.500000e+000 1.875654e+001
      vertex   -1.626985e+001 6.500000e+000 1.163151e+001
    endloop
  endfacet
  facet normal -9.522322e-001 0.000000e+000 3.053748e-001
    outer loop
      vertex   -1.631270e+001 -6.500000e+000 1.149789e+001
      vertex   -1.631270e+001 6.500000e+000 1.149789e+001
      vertex   -2.000000e+001 6.500000e+000 3.673940e-015
    endloop
  endfacet
  facet normal -9.522322e-001 -1.606321e-015 -3.053748e-001
    outer loop
      vertex   -2.000000e+001 -6.500000e+000 -3.673940e-015
      vertex   -2.000000e+001 6.500000e+000 3.673940e-015
      vertex   -1.631270e+001 6.500000e+000 -1.149789e+001
    endloop
  endfacet
  facet normal -5.970352e-001 8.735550e-017 -8.022151e-001
    outer loop
      vertex   -1.626985e+001 6.500000e+000 -1.163151e+001
      vertex   -6.696199e+000 6.500000e+000 -1.875654e+001
      vertex   -6.696199e+000 -6.500000e+000 -1.875654e+001
    endloop
  endfacet
  facet normal -9.522322e-001 -1.982672e-015 -3.053748e-001
    outer loop
      vertex   -1.626985e+001 6.500000e+000 -1.163151e+001
      vertex   -1.626985e+001 -6.500000e+000 -1.163151e+001
      vertex   -1.631270e+001 -6.500000e+000 -1.149789e+001
    endloop
  endfacet
  facet normal -9.522322e-001 -2.133829e-016 -3.053748e-001
    outer loop
      vertex   -1.631270e+001 -6.500000e+000 -1.149789e+001
      vertex   -1.631270e+001 6.500000e+000 -1.149789e+001
      vertex   -1.626985e+001 6.500000e+000 -1.163151e+001
    endloop
  endfacet
  facet normal -1.913494e-002 -1.622694e-015 -9.998169e-001
    outer loop
      vertex   -6.470797e+000 -6.500000e+000 -1.892429e+001
      vertex   -6.470797e+000 6.500000e+000 -1.892429e+001
      vertex   5.320097e+000 6.500000e+000 -1.914995e+001
    endloop
  endfacet
  facet normal -5.970352e-001 7.971339e-017 -8.022151e-001
    outer loop
      vertex   -6.470797e+000 -6.500000e+000 -1.892429e+001
      vertex   -6.696199e+000 -6.500000e+000 -1.875654e+001
      vertex   -6.696199e+000 6.500000e+000 -1.875654e+001
    endloop
  endfacet
  facet normal -5.970352e-001 -1.962036e-015 -8.022151e-001
    outer loop
      vertex   -6.696199e+000 6.500000e+000 -1.875654e+001
      vertex   -6.470797e+000 6.500000e+000 -1.892429e+001
      vertex   -6.470797e+000 -6.500000e+000 -1.892429e+001
    endloop
  endfacet
  facet normal 5.627004e-001 1.062368e-001 8.198061e-001
    outer loop
      vertex   1.534853e+001 6.500000e+000 1.256425e+001
      vertex   5.741960e+000 6.500000e+000 1.915802e+001
      vertex   1.448834e+001 1.618558e+000 1.378724e+001
    endloop
  endfacet
  facet normal 5.754890e-001 1.457534e-001 8.047164e-001
    outer loop
      vertex   1.406267e+001 9.035638e-001 1.422116e+001
      vertex   1.448834e+001 1.618558e+000 1.378724e+001
      vertex   5.741960e+000 6.500000e+000 1.915802e+001
    endloop
  endfacet
  facet normal -1.414926e-002 -6.732158e-001 7.393107e-001
    outer loop
      vertex   5.741960e+000 6.500000e+000 1.915802e+001
      vertex   5.320097e+000 6.500000e+000 1.914995e+001
      vertex   1.406267e+001 9.035638e-001 1.422116e+001
    endloop
  endfacet
  facet normal 4.856853e-001 1.684793e-016 8.741337e-001
    outer loop
      vertex   5.320097e+000 6.500000e+000 1.914995e+001
      vertex   5.320097e+000 -6.500000e+000 1.914995e+001
      vertex   1.389367e+001 3.061617e-016 1.438631e+001
    endloop
  endfacet
  facet normal 5.185982e-001 5.891085e-002 8.529862e-001
    outer loop
      vertex   1.389367e+001 3.061617e-016 1.438631e+001
      vertex   1.406267e+001 9.035638e-001 1.422116e+001
      vertex   5.320097e+000 6.500000e+000 1.914995e+001
    endloop
  endfacet
  facet normal -1.414863e-002 6.732522e-001 7.392776e-001
    outer loop
      vertex   1.406282e+001 -9.039512e-001 1.422101e+001
      vertex   5.320097e+000 -6.500000e+000 1.914995e+001
      vertex   5.741960e+000 -6.500000e+000 1.915802e+001
    endloop
  endfacet
  facet normal 5.754961e-001 -1.457762e-001 8.047071e-001
    outer loop
      vertex   5.741960e+000 -6.500000e+000 1.915802e+001
      vertex   1.448834e+001 -1.618558e+000 1.378724e+001
      vertex   1.406282e+001 -9.039512e-001 1.422101e+001
    endloop
  endfacet
  facet normal 5.186114e-001 -5.893534e-002 8.529765e-001
    outer loop
      vertex   1.406282e+001 -9.039512e-001 1.422101e+001
      vertex   1.389367e+001 3.061617e-016 1.438631e+001
      vertex   5.320097e+000 -6.500000e+000 1.914995e+001
    endloop
  endfacet
  facet normal 7.555536e-001 -3.080321e-002 6.543622e-001
    outer loop
      vertex   1.534853e+001 -6.500000e+000 1.256425e+001
      vertex   1.542133e+001 -2.145956e+000 1.268515e+001
      vertex   1.448834e+001 -1.618558e+000 1.378724e+001
    endloop
  endfacet
  facet normal 5.627004e-001 -1.062368e-001 8.198061e-001
    outer loop
      vertex   1.448834e+001 -1.618558e+000 1.378724e+001
      vertex   5.741960e+000 -6.500000e+000 1.915802e+001
      vertex   1.534853e+001 -6.500000e+000 1.256425e+001
    endloop
  endfacet
  facet normal 5.657591e-001 2.253900e-002 8.242624e-001
    outer loop
      vertex   1.534853e+001 -6.500000e+000 1.256425e+001
      vertex   1.581288e+001 -6.500000e+000 1.224552e+001
      vertex   1.598945e+001 -2.467105e+000 1.201405e+001
    endloop
  endfacet
  facet normal 9.214464e-001 -1.595717e-001 3.542222e-001
    outer loop
      vertex   1.581288e+001 -6.500000e+000 1.224552e+001
      vertex   1.994367e+001 -6.500000e+000 1.500000e+000
      vertex   1.768287e+001 -2.141957e+000 9.344318e+000
    endloop
  endfacet
  facet normal 9.292212e-001 -1.362307e-001 3.434955e-001
    outer loop
      vertex   1.994367e+001 -6.500000e+000 1.500000e+000
      vertex   1.873499e+001 -8.764731e-001 7.000000e+000
      vertex   1.768287e+001 -2.141957e+000 9.344318e+000
    endloop
  endfacet
  facet normal 8.447786e-001 -6.275643e-003 5.350792e-001
    outer loop
      vertex   1.768287e+001 -2.141957e+000 9.344318e+000
      vertex   1.598945e+001 -2.467105e+000 1.201405e+001
      vertex   1.581288e+001 -6.500000e+000 1.224552e+001
    endloop
  endfacet
  facet normal 9.766938e-001 -0.000000e+000 2.146376e-001
    outer loop
      vertex   1.994367e+001 -6.500000e+000 1.500000e+000
      vertex   1.994367e+001 6.500000e+000 1.500000e+000
      vertex   1.873499e+001 8.764731e-001 7.000000e+000
    endloop
  endfacet
  facet normal 9.766938e-001 0.000000e+000 2.146376e-001
    outer loop
      vertex   1.873499e+001 8.764731e-001 7.000000e+000
      vertex   1.873499e+001 -8.764731e-001 7.000000e+000
      vertex   1.994367e+001 -6.500000e+000 1.500000e+000
    endloop
  endfacet
  facet normal 8.321194e-001 -1.206190e-002 5.544653e-001
    outer loop
      vertex   1.544559e+001 2.313253e+000 1.270566e+001
      vertex   1.598537e+001 2.271925e+000 1.189467e+001
      vertex   1.581288e+001 6.500000e+000 1.224552e+001
    endloop
  endfacet
  facet normal 8.321194e-001 -1.206190e-002 5.544653e-001
    outer loop
      vertex   1.581288e+001 6.500000e+000 1.224552e+001
      vertex   1.598537e+001 2.271925e+000 1.189467e+001
      vertex   1.768287e+001 2.141957e+000 9.344318e+000
    endloop
  endfacet
  facet normal 9.214464e-001 1.595717e-001 3.542222e-001
    outer loop
      vertex   1.768287e+001 2.141957e+000 9.344318e+000
      vertex   1.994367e+001 6.500000e+000 1.500000e+000
      vertex   1.581288e+001 6.500000e+000 1.224552e+001
    endloop
  endfacet
  facet normal 5.654286e-001 4.093268e-002 8.237809e-001
    outer loop
      vertex   1.581288e+001 6.500000e+000 1.224552e+001
      vertex   1.534853e+001 6.500000e+000 1.256425e+001
      vertex   1.544559e+001 2.313253e+000 1.270566e+001
    endloop
  endfacet
  facet normal 9.292212e-001 1.362307e-001 3.434955e-001
    outer loop
      vertex   1.768287e+001 2.141957e+000 9.344318e+000
      vertex   1.873499e+001 8.764731e-001 7.000000e+000
      vertex   1.994367e+001 6.500000e+000 1.500000e+000
    endloop
  endfacet
  facet normal 6.158805e-001 -1.977699e-001 -7.626128e-001
    outer loop
      vertex   5.741960e+000 -6.500000e+000 -1.915802e+001
      vertex   1.498413e+001 -5.130302e-001 -1.324673e+001
      vertex   1.544559e+001 -1.162385e+000 -1.270566e+001
    endloop
  endfacet
  facet normal 5.269093e-001 1.762648e-002 -8.497387e-001
    outer loop
      vertex   5.741960e+000 -6.500000e+000 -1.915802e+001
      vertex   5.320097e+000 6.500000e+000 -1.914995e+001
      vertex   1.489367e+001 4.477209e-004 -1.334835e+001
    endloop
  endfacet
  facet normal 5.663344e-001 -6.287158e-002 -8.217740e-001
    outer loop
      vertex   1.489367e+001 4.477209e-004 -1.334835e+001
      vertex   1.498413e+001 -5.130302e-001 -1.324673e+001
      vertex   5.741960e+000 -6.500000e+000 -1.915802e+001
    endloop
  endfacet
  facet normal -1.407754e-002 -6.773100e-001 -7.355630e-001
    outer loop
      vertex   1.489367e+001 4.477209e-004 -1.334835e+001
      vertex   5.320097e+000 6.500000e+000 -1.914995e+001
      vertex   5.741960e+000 6.500000e+000 -1.915802e+001
    endloop
  endfacet
  facet normal 5.663743e-001 6.296747e-002 -8.217392e-001
    outer loop
      vertex   5.741960e+000 6.500000e+000 -1.915802e+001
      vertex   1.498413e+001 5.130302e-001 -1.324673e+001
      vertex   1.489367e+001 4.477209e-004 -1.334835e+001
    endloop
  endfacet
  facet normal -1.913494e-002 -2.693316e-016 -9.998169e-001
    outer loop
      vertex   5.741960e+000 -6.500000e+000 -1.915802e+001
      vertex   5.320097e+000 -6.500000e+000 -1.914995e+001
      vertex   5.320097e+000 6.500000e+000 -1.914995e+001
    endloop
  endfacet
  facet normal 5.656394e-001 3.051194e-002 -8.240880e-001
    outer loop
      vertex   5.741960e+000 6.500000e+000 -1.915802e+001
      vertex   1.534853e+001 6.500000e+000 -1.256425e+001
      vertex   1.544130e+001 1.057859e+000 -1.270207e+001
    endloop
  endfacet
  facet normal 6.240994e-001 2.244894e-001 -7.484013e-001
    outer loop
      vertex   1.544130e+001 1.057859e+000 -1.270207e+001
      vertex   1.498413e+001 5.130302e-001 -1.324673e+001
      vertex   5.741960e+000 6.500000e+000 -1.915802e+001
    endloop
  endfacet
  facet normal 5.658328e-001 1.573877e-002 -8.243698e-001
    outer loop
      vertex   1.564367e+001 1.299038e+000 -1.246096e+001
      vertex   1.534853e+001 6.500000e+000 -1.256425e+001
      vertex   1.581288e+001 6.500000e+000 -1.224552e+001
    endloop
  endfacet
  facet normal 9.267020e-001 1.196441e-001 -3.562425e-001
    outer loop
      vertex   1.581288e+001 6.500000e+000 -1.224552e+001
      vertex   1.994367e+001 6.500000e+000 -1.500000e+000
      vertex   1.754274e+001 9.641814e-001 -9.604810e+000
    endloop
  endfacet
  facet normal 9.196646e-001 1.389091e-001 -3.673163e-001
    outer loop
      vertex   1.994367e+001 6.500000e+000 -1.500000e+000
      vertex   1.777818e+001 5.771796e-001 -9.161678e+000
      vertex   1.754274e+001 9.641814e-001 -9.604810e+000
    endloop
  endfacet
  facet normal 8.592540e-001 2.476907e-002 -5.109491e-001
    outer loop
      vertex   1.754274e+001 9.641814e-001 -9.604810e+000
      vertex   1.665414e+001 1.477212e+000 -1.107427e+001
      vertex   1.581288e+001 6.500000e+000 -1.224552e+001
    endloop
  endfacet
  facet normal 9.462112e-001 6.425164e-002 -3.171059e-001
    outer loop
      vertex   1.994367e+001 6.500000e+000 -1.500000e+000
      vertex   1.789367e+001 7.771625e-016 -8.934011e+000
      vertex   1.777818e+001 5.771796e-001 -9.161678e+000
    endloop
  endfacet
  facet normal 8.083045e-001 -1.909332e-003 -5.887616e-001
    outer loop
      vertex   1.581288e+001 6.500000e+000 -1.224552e+001
      vertex   1.665414e+001 1.477212e+000 -1.107427e+001
      vertex   1.564367e+001 1.299038e+000 -1.246096e+001
    endloop
  endfacet
  facet normal 9.462848e-001 -6.402874e-002 -3.169313e-001
    outer loop
      vertex   1.994367e+001 -6.500000e+000 -1.500000e+000
      vertex   1.777918e+001 -5.747795e-001 -9.159741e+000
      vertex   1.789367e+001 7.771625e-016 -8.934011e+000
    endloop
  endfacet
  facet normal 9.309523e-001 -7.247239e-002 -3.578765e-001
    outer loop
      vertex   1.994367e+001 -6.500000e+000 -1.500000e+000
      vertex   1.581288e+001 -6.500000e+000 -1.224552e+001
      vertex   1.665414e+001 -1.477212e+000 -1.107427e+001
    endloop
  endfacet
  facet normal 8.828673e-001 -2.163342e-001 -4.168272e-001
    outer loop
      vertex   1.665414e+001 -1.477212e+000 -1.107427e+001
      vertex   1.744011e+001 -8.467561e-001 -9.736746e+000
      vertex   1.994367e+001 -6.500000e+000 -1.500000e+000
    endloop
  endfacet
  facet normal 8.038957e-001 4.045698e-003 -5.947565e-001
    outer loop
      vertex   1.566896e+001 -1.220572e+000 -1.240414e+001
      vertex   1.665414e+001 -1.477212e+000 -1.107427e+001
      vertex   1.581288e+001 -6.500000e+000 -1.224552e+001
    endloop
  endfacet
  facet normal 8.003406e-001 -3.041756e-002 -5.987736e-001
    outer loop
      vertex   1.534853e+001 -6.500000e+000 -1.256425e+001
      vertex   1.544559e+001 -1.162385e+000 -1.270566e+001
      vertex   1.566896e+001 -1.220572e+000 -1.240414e+001
    endloop
  endfacet
  facet normal 5.658782e-001 -9.343545e-003 -8.244359e-001
    outer loop
      vertex   1.581288e+001 -6.500000e+000 -1.224552e+001
      vertex   1.534853e+001 -6.500000e+000 -1.256425e+001
      vertex   1.566896e+001 -1.220572e+000 -1.240414e+001
    endloop
  endfacet
  facet normal 8.828673e-001 -2.163342e-001 -4.168272e-001
    outer loop
      vertex   1.744011e+001 -8.467561e-001 -9.736746e+000
      vertex   1.777918e+001 -5.747795e-001 -9.159741e+000
      vertex   1.994367e+001 -6.500000e+000 -1.500000e+000
    endloop
  endfacet
  facet normal 9.640179e-001 0.000000e+000 -2.658372e-001
    outer loop
      vertex   1.789367e+001 7.771625e-016 -8.934011e+000
      vertex   1.994367e+001 6.500000e+000 -1.500000e+000
      vertex   1.994367e+001 -6.500000e+000 -1.500000e+000
    endloop
  endfacet
  facet normal 7.508822e-001 2.950865e-002 -6.597766e-001
    outer loop
      vertex   1.564367e+001 1.299038e+000 -1.246096e+001
      vertex   1.544130e+001 1.057859e+000 -1.270207e+001
      vertex   1.534853e+001 6.500000e+000 -1.256425e+001
    endloop
  endfacet
  facet normal 5.656110e-001 -3.211735e-002 -8.240466e-001
    outer loop
      vertex   1.544559e+001 -1.162385e+000 -1.270566e+001
      vertex   1.534853e+001 -6.500000e+000 -1.256425e+001
      vertex   5.741960e+000 -6.500000e+000 -1.915802e+001
    endloop
  endfacet
  facet normal 7.555536e-001 -3.080321e-002 6.543622e-001
    outer loop
      vertex   1.598945e+001 -2.467105e+000 1.201405e+001
      vertex   1.542133e+001 -2.145956e+000 1.268515e+001
      vertex   1.534853e+001 -6.500000e+000 1.256425e+001
    endloop
  endfacet
  facet normal 7.353843e-001 3.989739e-002 6.764748e-001
    outer loop
      vertex   1.448834e+001 1.618558e+000 1.378724e+001
      vertex   1.544559e+001 2.313253e+000 1.270566e+001
      vertex   1.534853e+001 6.500000e+000 1.256425e+001
    endloop
  endfacet
  facet normal -1.913494e-002 -2.693850e-016 -9.998169e-001
    outer loop
      vertex   5.320097e+000 6.500000e+000 -1.914995e+001
      vertex   5.320097e+000 -6.500000e+000 -1.914995e+001
      vertex   -6.470797e+000 -6.500000e+000 -1.892429e+001
    endloop
  endfacet
  facet normal -5.970352e-001 -1.659754e-015 -8.022151e-001
    outer loop
      vertex   -6.696199e+000 -6.500000e+000 -1.875654e+001
      vertex   -1.626985e+001 -6.500000e+000 -1.163151e+001
      vertex   -1.626985e+001 6.500000e+000 -1.163151e+001
    endloop
  endfacet
  facet normal -9.522322e-001 -2.133829e-016 -3.053748e-001
    outer loop
      vertex   -1.631270e+001 6.500000e+000 -1.149789e+001
      vertex   -1.631270e+001 -6.500000e+000 -1.149789e+001
      vertex   -2.000000e+001 -6.500000e+000 -3.673940e-015
    endloop
  endfacet
  facet normal -9.522322e-001 -1.951530e-015 3.053748e-001
    outer loop
      vertex   -2.000000e+001 6.500000e+000 3.673940e-015
      vertex   -2.000000e+001 -6.500000e+000 -3.673940e-015
      vertex   -1.631270e+001 -6.500000e+000 1.149789e+001
    endloop
  endfacet
  facet normal -9.522322e-001 0.000000e+000 3.053748e-001
    outer loop
      vertex   -1.626985e+001 6.500000e+000 1.163151e+001
      vertex   -1.631270e+001 6.500000e+000 1.149789e+001
      vertex   -1.631270e+001 -6.500000e+000 1.149789e+001
    endloop
  endfacet
  facet normal -5.970352e-001 -1.344271e-016 8.022151e-001
    outer loop
      vertex   -6.696199e+000 6.500000e+000 1.875654e+001
      vertex   -6.696199e+000 -6.500000e+000 1.875654e+001
      vertex   -6.470797e+000 -6.500000e+000 1.892429e+001
    endloop
  endfacet
  facet normal -1.885637e-001 -9.820610e-001 0.000000e+000
    outer loop
      vertex   1.598945e+001 2.467105e+000 7.000000e+000
      vertex   1.768287e+001 2.141957e+000 7.000000e+000
      vertex   1.768287e+001 2.141957e+000 9.344318e+000
    endloop
  endfacet
  facet normal 4.918094e-001 -8.700277e-001 -3.428348e-002
    outer loop
      vertex   1.448834e+001 1.618558e+000 7.000000e+000
      vertex   1.598945e+001 2.467105e+000 7.000000e+000
      vertex   1.598537e+001 2.271925e+000 1.189467e+001
    endloop
  endfacet
  facet normal 8.416445e-002 -9.907433e-001 1.065081e-001
    outer loop
      vertex   1.598537e+001 2.271925e+000 1.189467e+001
      vertex   1.544559e+001 2.313253e+000 1.270566e+001
      vertex   1.448834e+001 1.618558e+000 7.000000e+000
    endloop
  endfacet
  facet normal 9.386509e-001 -3.448689e-001 0.000000e+000
    outer loop
      vertex   1.389367e+001 3.061617e-016 7.000000e+000
      vertex   1.448834e+001 1.618558e+000 7.000000e+000
      vertex   1.448834e+001 1.618558e+000 1.378724e+001
    endloop
  endfacet
  facet normal 8.693291e-001 -4.925067e-001 4.128101e-002
    outer loop
      vertex   1.448834e+001 1.618558e+000 1.378724e+001
      vertex   1.406267e+001 9.035638e-001 1.422116e+001
      vertex   1.389367e+001 3.061617e-016 7.000000e+000
    endloop
  endfacet
  facet normal 8.692937e-001 4.925677e-001 4.129867e-002
    outer loop
      vertex   1.389367e+001 3.061617e-016 7.000000e+000
      vertex   1.406282e+001 -9.039512e-001 1.422101e+001
      vertex   1.448834e+001 -1.618558e+000 1.378724e+001
    endloop
  endfacet
  facet normal 9.829397e-001 1.839281e-001 -0.000000e+000
    outer loop
      vertex   1.389367e+001 3.061617e-016 7.000000e+000
      vertex   1.389367e+001 3.061617e-016 1.438631e+001
      vertex   1.406282e+001 -9.039512e-001 1.422101e+001
    endloop
  endfacet
  facet normal 4.920987e-001 8.705394e-001 4.780710e-017
    outer loop
      vertex   1.448834e+001 -1.618558e+000 7.000000e+000
      vertex   1.542133e+001 -2.145956e+000 1.268515e+001
      vertex   1.598945e+001 -2.467105e+000 1.201405e+001
    endloop
  endfacet
  facet normal 4.920987e-001 8.705394e-001 -0.000000e+000
    outer loop
      vertex   1.448834e+001 -1.618558e+000 7.000000e+000
      vertex   1.448834e+001 -1.618558e+000 1.378724e+001
      vertex   1.542133e+001 -2.145956e+000 1.268515e+001
    endloop
  endfacet
  facet normal -1.885637e-001 9.820610e-001 0.000000e+000
    outer loop
      vertex   1.598945e+001 -2.467105e+000 7.000000e+000
      vertex   1.598945e+001 -2.467105e+000 1.201405e+001
      vertex   1.768287e+001 -2.141957e+000 9.344318e+000
    endloop
  endfacet
  facet normal -7.689501e-001 6.393088e-001 0.000000e+000
    outer loop
      vertex   1.873499e+001 -8.764731e-001 7.000000e+000
      vertex   1.768287e+001 -2.141957e+000 7.000000e+000
      vertex   1.768287e+001 -2.141957e+000 9.344318e+000
    endloop
  endfacet
  facet normal -1.885637e-001 9.820610e-001 0.000000e+000
    outer loop
      vertex   1.768287e+001 -2.141957e+000 9.344318e+000
      vertex   1.768287e+001 -2.141957e+000 7.000000e+000
      vertex   1.598945e+001 -2.467105e+000 7.000000e+000
    endloop
  endfacet
  facet normal 4.920987e-001 8.705394e-001 0.000000e+000
    outer loop
      vertex   1.598945e+001 -2.467105e+000 1.201405e+001
      vertex   1.598945e+001 -2.467105e+000 7.000000e+000
      vertex   1.448834e+001 -1.618558e+000 7.000000e+000
    endloop
  endfacet
  facet normal 9.386509e-001 3.448689e-001 0.000000e+000
    outer loop
      vertex   1.448834e+001 -1.618558e+000 1.378724e+001
      vertex   1.448834e+001 -1.618558e+000 7.000000e+000
      vertex   1.389367e+001 3.061617e-016 7.000000e+000
    endloop
  endfacet
  facet normal 9.829550e-001 -1.838464e-001 0.000000e+000
    outer loop
      vertex   1.406267e+001 9.035638e-001 1.422116e+001
      vertex   1.389367e+001 3.061617e-016 1.438631e+001
      vertex   1.389367e+001 3.061617e-016 7.000000e+000
    endloop
  endfacet
  facet normal 5.873516e-001 -8.093319e-001 0.000000e+000
    outer loop
      vertex   1.544559e+001 2.313253e+000 1.270566e+001
      vertex   1.448834e+001 1.618558e+000 1.378724e+001
      vertex   1.448834e+001 1.618558e+000 7.000000e+000
    endloop
  endfacet
  facet normal -1.352825e-001 -9.900158e-001 -3.959079e-002
    outer loop
      vertex   1.768287e+001 2.141957e+000 9.344318e+000
      vertex   1.598537e+001 2.271925e+000 1.189467e+001
      vertex   1.598945e+001 2.467105e+000 7.000000e+000
    endloop
  endfacet
  facet normal -7.689501e-001 -6.393088e-001 -0.000000e+000
    outer loop
      vertex   1.768287e+001 2.141957e+000 9.344318e+000
      vertex   1.768287e+001 2.141957e+000 7.000000e+000
      vertex   1.873499e+001 8.764731e-001 7.000000e+000
    endloop
  endfacet
  facet normal 4.098222e-001 6.895987e-001 5.970757e-001
    outer loop
      vertex   1.534853e+001 6.500000e+000 1.256425e+001
      vertex   1.502224e+001 7.500000e+000 1.163325e+001
      vertex   5.454862e+000 7.500000e+000 1.820012e+001
    endloop
  endfacet
  facet normal 4.098222e-001 6.895987e-001 5.970757e-001
    outer loop
      vertex   5.454862e+000 7.500000e+000 1.820012e+001
      vertex   5.741960e+000 6.500000e+000 1.915802e+001
      vertex   1.534853e+001 6.500000e+000 1.256425e+001
    endloop
  endfacet
  facet normal -1.385737e-002 6.895987e-001 7.240591e-001
    outer loop
      vertex   5.320097e+000 6.500000e+000 1.914995e+001
      vertex   5.454862e+000 7.500000e+000 1.820012e+001
      vertex   -6.147257e+000 7.500000e+000 1.797808e+001
    endloop
  endfacet
  facet normal -1.385737e-002 6.895987e-001 7.240591e-001
    outer loop
      vertex   -6.147257e+000 7.500000e+000 1.797808e+001
      vertex   -6.470797e+000 6.500000e+000 1.892429e+001
      vertex   5.320097e+000 6.500000e+000 1.914995e+001
    endloop
  endfacet
  facet normal -4.323679e-001 6.895987e-001 5.809575e-001
    outer loop
      vertex   -6.696199e+000 6.500000e+000 1.875654e+001
      vertex   -6.147257e+000 7.500000e+000 1.797808e+001
      vertex   -1.545636e+001 7.500000e+000 1.104993e+001
    endloop
  endfacet
  facet normal -4.323679e-001 6.895987e-001 5.809575e-001
    outer loop
      vertex   -1.545636e+001 7.500000e+000 1.104993e+001
      vertex   -1.626985e+001 6.500000e+000 1.163151e+001
      vertex   -6.696199e+000 6.500000e+000 1.875654e+001
    endloop
  endfacet
  facet normal -6.895987e-001 6.895987e-001 2.211499e-001
    outer loop
      vertex   -1.631270e+001 6.500000e+000 1.149789e+001
      vertex   -1.545636e+001 7.500000e+000 1.104993e+001
      vertex   -1.900000e+001 7.500000e+000 3.490243e-015
    endloop
  endfacet
  facet normal -6.895987e-001 6.895987e-001 2.211499e-001
    outer loop
      vertex   -1.900000e+001 7.500000e+000 3.490243e-015
      vertex   -2.000000e+001 6.500000e+000 3.673940e-015
      vertex   -1.631270e+001 6.500000e+000 1.149789e+001
    endloop
  endfacet
  facet normal -6.895987e-001 6.895987e-001 -2.211499e-001
    outer loop
      vertex   -1.631270e+001 6.500000e+000 -1.149789e+001
      vertex   -2.000000e+001 6.500000e+000 3.673940e-015
      vertex   -1.900000e+001 7.500000e+000 3.490243e-015
    endloop
  endfacet
  facet normal -6.895987e-001 6.895987e-001 -2.211499e-001
    outer loop
      vertex   -1.545636e+001 7.500000e+000 -1.104993e+001
      vertex   -1.626985e+001 6.500000e+000 -1.163151e+001
      vertex   -1.631270e+001 6.500000e+000 -1.149789e+001
    endloop
  endfacet
  facet normal -4.323679e-001 6.895987e-001 -5.809575e-001
    outer loop
      vertex   -6.696199e+000 6.500000e+000 -1.875654e+001
      vertex   -1.626985e+001 6.500000e+000 -1.163151e+001
      vertex   -1.545636e+001 7.500000e+000 -1.104993e+001
    endloop
  endfacet
  facet normal -4.323679e-001 6.895987e-001 -5.809575e-001
    outer loop
      vertex   -6.147257e+000 7.500000e+000 -1.797808e+001
      vertex   -6.470797e+000 6.500000e+000 -1.892429e+001
      vertex   -6.696199e+000 6.500000e+000 -1.875654e+001
    endloop
  endfacet
  facet normal -1.385737e-002 6.895987e-001 -7.240591e-001
    outer loop
      vertex   5.320097e+000 6.500000e+000 -1.914995e+001
      vertex   -6.470797e+000 6.500000e+000 -1.892429e+001
      vertex   -6.147257e+000 7.500000e+000 -1.797808e+001
    endloop
  endfacet
  facet normal -1.385737e-002 6.895987e-001 -7.240591e-001
    outer loop
      vertex   5.454862e+000 7.500000e+000 -1.820012e+001
      vertex   5.741960e+000 6.500000e+000 -1.915802e+001
      vertex   5.320097e+000 6.500000e+000 -1.914995e+001
    endloop
  endfacet
  facet normal 4.098222e-001 6.895987e-001 -5.970757e-001
    outer loop
      vertex   1.534853e+001 6.500000e+000 -1.256425e+001
      vertex   5.741960e+000 6.500000e+000 -1.915802e+001
      vertex   5.454862e+000 7.500000e+000 -1.820012e+001
    endloop
  endfacet
  facet normal 4.098222e-001 6.895987e-001 -5.970757e-001
    outer loop
      vertex   1.502224e+001 7.500000e+000 -1.163325e+001
      vertex   1.581288e+001 6.500000e+000 -1.224552e+001
      vertex   1.534853e+001 6.500000e+000 -1.256425e+001
    endloop
  endfacet
  facet normal 6.734201e-001 6.918767e-001 -2.604072e-001
    outer loop
      vertex   1.581288e+001 6.500000e+000 -1.224552e+001
      vertex   1.502224e+001 7.500000e+000 -1.163325e+001
      vertex   1.894070e+001 7.500000e+000 -1.500000e+000
    endloop
  endfacet
  facet normal 6.814027e-001 6.834291e-001 2.619447e-001
    outer loop
      vertex   1.581288e+001 6.500000e+000 1.224552e+001
      vertex   1.994367e+001 6.500000e+000 1.500000e+000
      vertex   1.894070e+001 7.500000e+000 1.500000e+000
    endloop
  endfacet
  facet normal 6.734201e-001 6.918767e-001 2.604072e-001
    outer loop
      vertex   1.894070e+001 7.500000e+000 1.500000e+000
      vertex   1.502224e+001 7.500000e+000 1.163325e+001
      vertex   1.581288e+001 6.500000e+000 1.224552e+001
    endloop
  endfacet
  facet normal 6.814027e-001 6.834291e-001 -2.619447e-001
    outer loop
      vertex   1.894070e+001 7.500000e+000 -1.500000e+000
      vertex   1.994367e+001 6.500000e+000 -1.500000e+000
      vertex   1.581288e+001 6.500000e+000 -1.224552e+001
    endloop
  endfacet
  facet normal 4.098222e-001 6.895987e-001 -5.970757e-001
    outer loop
      vertex   5.454862e+000 7.500000e+000 -1.820012e+001
      vertex   1.502224e+001 7.500000e+000 -1.163325e+001
      vertex   1.534853e+001 6.500000e+000 -1.256425e+001
    endloop
  endfacet
  facet normal -1.385737e-002 6.895987e-001 -7.240591e-001
    outer loop
      vertex   -6.147257e+000 7.500000e+000 -1.797808e+001
      vertex   5.454862e+000 7.500000e+000 -1.820012e+001
      vertex   5.320097e+000 6.500000e+000 -1.914995e+001
    endloop
  endfacet
  facet normal -4.323679e-001 6.895987e-001 -5.809575e-001
    outer loop
      vertex   -1.545636e+001 7.500000e+000 -1.104993e+001
      vertex   -6.147257e+000 7.500000e+000 -1.797808e+001
      vertex   -6.696199e+000 6.500000e+000 -1.875654e+001
    endloop
  endfacet
  facet normal -6.895987e-001 6.895987e-001 -2.211499e-001
    outer loop
      vertex   -1.900000e+001 7.500000e+000 3.490243e-015
      vertex   -1.545636e+001 7.500000e+000 -1.104993e+001
      vertex   -1.631270e+001 6.500000e+000 -1.149789e+001
    endloop
  endfacet
  facet normal -6.895987e-001 6.895987e-001 2.211499e-001
    outer loop
      vertex   -1.631270e+001 6.500000e+000 1.149789e+001
      vertex   -1.626985e+001 6.500000e+000 1.163151e+001
      vertex   -1.545636e+001 7.500000e+000 1.104993e+001
    endloop
  endfacet
  facet normal -4.323679e-001 6.895987e-001 5.809575e-001
    outer loop
      vertex   -6.696199e+000 6.500000e+000 1.875654e+001
      vertex   -6.470797e+000 6.500000e+000 1.892429e+001
      vertex   -6.147257e+000 7.500000e+000 1.797808e+001
    endloop
  endfacet
  facet normal -1.385737e-002 6.895987e-001 7.240591e-001
    outer loop
      vertex   5.320097e+000 6.500000e+000 1.914995e+001
      vertex   5.741960e+000 6.500000e+000 1.915802e+001
      vertex   5.454862e+000 7.500000e+000 1.820012e+001
    endloop
  endfacet
  facet normal 4.098222e-001 6.895987e-001 5.970757e-001
    outer loop
      vertex   1.534853e+001 6.500000e+000 1.256425e+001
      vertex   1.581288e+001 6.500000e+000 1.224552e+001
      vertex   1.502224e+001 7.500000e+000 1.163325e+001
    endloop
  endfacet
  facet normal 4.098222e-001 -6.895987e-001 -5.970757e-001
    outer loop
      vertex   1.534853e+001 -6.500000e+000 -1.256425e+001
      vertex   1.502224e+001 -7.500000e+000 -1.163325e+001
      vertex   5.454862e+000 -7.500000e+000 -1.820012e+001
    endloop
  endfacet
  facet normal 4.098222e-001 -6.895987e-001 -5.970757e-001
    outer loop
      vertex   5.454862e+000 -7.500000e+000 -1.820012e+001
      vertex   5.741960e+000 -6.500000e+000 -1.915802e+001
      vertex   1.534853e+001 -6.500000e+000 -1.256425e+001
    endloop
  endfacet
  facet normal -1.385737e-002 -6.895987e-001 -7.240591e-001
    outer loop
      vertex   5.320097e+000 -6.500000e+000 -1.914995e+001
      vertex   5.454862e+000 -7.500000e+000 -1.820012e+001
      vertex   -6.147257e+000 -7.500000e+000 -1.797808e+001
    endloop
  endfacet
  facet normal -1.385737e-002 -6.895987e-001 -7.240591e-001
    outer loop
      vertex   -6.147257e+000 -7.500000e+000 -1.797808e+001
      vertex   -6.470797e+000 -6.500000e+000 -1.892429e+001
      vertex   5.320097e+000 -6.500000e+000 -1.914995e+001
    endloop
  endfacet
  facet normal -4.323679e-001 -6.895987e-001 -5.809575e-001
    outer loop
      vertex   -6.696199e+000 -6.500000e+000 -1.875654e+001
      vertex   -6.147257e+000 -7.500000e+000 -1.797808e+001
      vertex   -1.545636e+001 -7.500000e+000 -1.104993e+001
    endloop
  endfacet
  facet normal -4.323679e-001 -6.895987e-001 -5.809575e-001
    outer loop
      vertex   -1.545636e+001 -7.500000e+000 -1.104993e+001
      vertex   -1.626985e+001 -6.500000e+000 -1.163151e+001
      vertex   -6.696199e+000 -6.500000e+000 -1.875654e+001
    endloop
  endfacet
  facet normal -6.895987e-001 -6.895987e-001 -2.211499e-001
    outer loop
      vertex   -1.631270e+001 -6.500000e+000 -1.149789e+001
      vertex   -1.545636e+001 -7.500000e+000 -1.104993e+001
      vertex   -1.900000e+001 -7.500000e+000 -3.490243e-015
    endloop
  endfacet
  facet normal -6.895987e-001 -6.895987e-001 -2.211499e-001
    outer loop
      vertex   -1.900000e+001 -7.500000e+000 -3.490243e-015
      vertex   -2.000000e+001 -6.500000e+000 -3.673940e-015
      vertex   -1.631270e+001 -6.500000e+000 -1.149789e+001
    endloop
  endfacet
  facet normal -6.895987e-001 -6.895987e-001 2.211499e-001
    outer loop
      vertex   -1.631270e+001 -6.500000e+000 1.149789e+001
      vertex   -2.000000e+001 -6.500000e+000 -3.673940e-015
      vertex   -1.900000e+001 -7.500000e+000 -3.490243e-015
    endloop
  endfacet
  facet normal -6.895987e-001 -6.895987e-001 2.211499e-001
    outer loop
      vertex   -1.545636e+001 -7.500000e+000 1.104993e+001
      vertex   -1.626985e+001 -6.500000e+000 1.163151e+001
      vertex   -1.631270e+001 -6.500000e+000 1.149789e+001
    endloop
  endfacet
  facet normal -4.323679e-001 -6.895987e-001 5.809575e-001
    outer loop
      vertex   -6.696199e+000 -6.500000e+000 1.875654e+001
      vertex   -1.626985e+001 -6.500000e+000 1.163151e+001
      vertex   -1.545636e+001 -7.500000e+000 1.104993e+001
    endloop
  endfacet
  facet normal -4.323679e-001 -6.895987e-001 5.809575e-001
    outer loop
      vertex   -6.147257e+000 -7.500000e+000 1.797808e+001
      vertex   -6.470797e+000 -6.500000e+000 1.892429e+001
      vertex   -6.696199e+000 -6.500000e+000 1.875654e+001
    endloop
  endfacet
  facet normal -1.385737e-002 -6.895987e-001 7.240591e-001
    outer loop
      vertex   5.320097e+000 -6.500000e+000 1.914995e+001
      vertex   -6.470797e+000 -6.500000e+000 1.892429e+001
      vertex   -6.147257e+000 -7.500000e+000 1.797808e+001
    endloop
  endfacet
  facet normal -1.385737e-002 -6.895987e-001 7.240591e-001
    outer loop
      vertex   5.454862e+000 -7.500000e+000 1.820012e+001
      vertex   5.741960e+000 -6.500000e+000 1.915802e+001
      vertex   5.320097e+000 -6.500000e+000 1.914995e+001
    endloop
  endfacet
  facet normal 4.098222e-001 -6.895987e-001 5.970757e-001
    outer loop
      vertex   1.534853e+001 -6.500000e+000 1.256425e+001
      vertex   5.741960e+000 -6.500000e+000 1.915802e+001
      vertex   5.454862e+000 -7.500000e+000 1.820012e+001
    endloop
  endfacet
  facet normal 4.098222e-001 -6.895987e-001 5.970757e-001
    outer loop
      vertex   1.502224e+001 -7.500000e+000 1.163325e+001
      vertex   1.581288e+001 -6.500000e+000 1.224552e+001
      vertex   1.534853e+001 -6.500000e+000 1.256425e+001
    endloop
  endfacet
  facet normal 6.734201e-001 -6.918767e-001 2.604072e-001
    outer loop
      vertex   1.581288e+001 -6.500000e+000 1.224552e+001
      vertex   1.502224e+001 -7.500000e+000 1.163325e+001
      vertex   1.894070e+001 -7.500000e+000 1.500000e+000
    endloop
  endfacet
  facet normal 6.814027e-001 -6.834291e-001 -2.619447e-001
    outer loop
      vertex   1.581288e+001 -6.500000e+000 -1.224552e+001
      vertex   1.994367e+001 -6.500000e+000 -1.500000e+000
      vertex   1.894070e+001 -7.500000e+000 -1.500000e+000
    endloop
  endfacet
  facet normal 6.734201e-001 -6.918767e-001 -2.604072e-001
    outer loop
      vertex   1.894070e+001 -7.500000e+000 -1.500000e+000
      vertex   1.502224e+001 -7.500000e+000 -1.163325e+001
      vertex   1.581288e+001 -6.500000e+000 -1.224552e+001
    endloop
  endfacet
  facet normal 6.814027e-001 -6.834291e-001 2.619447e-001
    outer loop
      vertex   1.894070e+001 -7.500000e+000 1.500000e+000
      vertex   1.994367e+001 -6.500000e+000 1.500000e+000
      vertex   1.581288e+001 -6.500000e+000 1.224552e+001
    endloop
  endfacet
  facet normal 4.098222e-001 -6.895987e-001 5.970757e-001
    outer loop
      vertex   5.454862e+000 -7.500000e+000 1.820012e+001
      vertex   1.502224e+001 -7.500000e+000 1.163325e+001
      vertex   1.534853e+001 -6.500000e+000 1.256425e+001
    endloop
  endfacet
  facet normal -1.385737e-002 -6.895987e-001 7.240591e-001
    outer loop
      vertex   -6.147257e+000 -7.500000e+000 1.797808e+001
      vertex   5.454862e+000 -7.500000e+000 1.820012e+001
      vertex   5.320097e+000 -6.500000e+000 1.914995e+001
    endloop
  endfacet
  facet normal -4.323679e-001 -6.895987e-001 5.809575e-001
    outer loop
      vertex   -1.545636e+001 -7.500000e+000 1.104993e+001
      vertex   -6.147257e+000 -7.500000e+000 1.797808e+001
      vertex   -6.696199e+000 -6.500000e+000 1.875654e+001
    endloop
  endfacet
  facet normal -6.895987e-001 -6.895987e-001 2.211499e-001
    outer loop
      vertex   -1.900000e+001 -7.500000e+000 -3.490243e-015
      vertex   -1.545636e+001 -7.500000e+000 1.104993e+001
      vertex   -1.631270e+001 -6.500000e+000 1.149789e+001
    endloop
  endfacet
  facet normal -6.895987e-001 -6.895987e-001 -2.211499e-001
    outer loop
      vertex   -1.631270e+001 -6.500000e+000 -1.149789e+001
      vertex   -1.626985e+001 -6.500000e+000 -1.163151e+001
      vertex   -1.545636e+001 -7.500000e+000 -1.104993e+001
    endloop
  endfacet
  facet normal -4.323679e-001 -6.895987e-001 -5.809575e-001
    outer loop
      vertex   -6.696199e+000 -6.500000e+000 -1.875654e+001
      vertex   -6.470797e+000 -6.500000e+000 -1.892429e+001
      vertex   -6.147257e+000 -7.500000e+000 -1.797808e+001
    endloop
  endfacet
  facet normal -1.385737e-002 -6.895987e-001 -7.240591e-001
    outer loop
      vertex   5.320097e+000 -6.500000e+000 -1.914995e+001
      vertex   5.741960e+000 -6.500000e+000 -1.915802e+001
      vertex   5.454862e+000 -7.500000e+000 -1.820012e+001
    endloop
  endfacet
  facet normal 4.098222e-001 -6.895987e-001 -5.970757e-001
    outer loop
      vertex   1.534853e+001 -6.500000e+000 -1.256425e+001
      vertex   1.581288e+001 -6.500000e+000 -1.224552e+001
      vertex   1.502224e+001 -7.500000e+000 -1.163325e+001
    endloop
  endfacet
  facet normal -1.139332e-016 -2.008949e-017 1.000000e+000
    outer loop
      vertex   1.240967e+001 -7.500000e+000 -1.500000e+000
      vertex   1.498413e+001 -5.130302e-001 -1.500000e+000
      vertex   1.489367e+001 5.510911e-016 -1.500000e+000
    endloop
  endfacet
  facet normal -1.745899e-016 0.000000e+000 1.000000e+000
    outer loop
      vertex   1.489367e+001 5.510911e-016 -1.500000e+000
      vertex   1.240967e+001 7.500000e+000 -1.500000e+000
      vertex   1.240967e+001 -7.500000e+000 -1.500000e+000
    endloop
  endfacet
  facet normal -1.139332e-016 2.008949e-017 1.000000e+000
    outer loop
      vertex   1.489367e+001 5.510911e-016 -1.500000e+000
      vertex   1.498413e+001 5.130302e-001 -1.500000e+000
      vertex   1.240967e+001 7.500000e+000 -1.500000e+000
    endloop
  endfacet
  facet normal 0.000000e+000 -7.200666e-017 1.000000e+000
    outer loop
      vertex   1.240967e+001 -7.500000e+000 -1.500000e+000
      vertex   1.894070e+001 -7.500000e+000 -1.500000e+000
      vertex   1.665414e+001 -1.477212e+000 -1.500000e+000
    endloop
  endfacet
  facet normal 5.207971e-017 -5.223458e-017 1.000000e+000
    outer loop
      vertex   1.665414e+001 -1.477212e+000 -1.500000e+000
      vertex   1.894070e+001 -7.500000e+000 -1.500000e+000
      vertex   1.994367e+001 -6.500000e+000 -1.500000e+000
    endloop
  endfacet
  facet normal 3.617247e-017 6.265256e-017 1.000000e+000
    outer loop
      vertex   1.665414e+001 1.477212e+000 -1.500000e+000
      vertex   1.754274e+001 9.641814e-001 -1.500000e+000
      vertex   1.994367e+001 6.500000e+000 -1.500000e+000
    endloop
  endfacet
  facet normal -1.129336e-017 6.404783e-017 1.000000e+000
    outer loop
      vertex   1.240967e+001 7.500000e+000 -1.500000e+000
      vertex   1.564367e+001 1.299038e+000 -1.500000e+000
      vertex   1.665414e+001 1.477212e+000 -1.500000e+000
    endloop
  endfacet
  facet normal -5.140091e-017 -4.313048e-017 1.000000e+000
    outer loop
      vertex   1.240967e+001 -7.500000e+000 -1.500000e+000
      vertex   1.564367e+001 -1.299038e+000 -1.500000e+000
      vertex   1.498413e+001 -5.130302e-001 -1.500000e+000
    endloop
  endfacet
  facet normal 3.617247e-017 -6.265256e-017 1.000000e+000
    outer loop
      vertex   1.994367e+001 -6.500000e+000 -1.500000e+000
      vertex   1.754274e+001 -9.641814e-001 -1.500000e+000
      vertex   1.665414e+001 -1.477212e+000 -1.500000e+000
    endloop
  endfacet
  facet normal 0.000000e+000 7.200666e-017 1.000000e+000
    outer loop
      vertex   1.665414e+001 1.477212e+000 -1.500000e+000
      vertex   1.894070e+001 7.500000e+000 -1.500000e+000
      vertex   1.240967e+001 7.500000e+000 -1.500000e+000
    endloop
  endfacet
  facet normal -1.129336e-017 -6.404783e-017 1.000000e+000
    outer loop
      vertex   1.665414e+001 -1.477212e+000 -1.500000e+000
      vertex   1.564367e+001 -1.299038e+000 -1.500000e+000
      vertex   1.240967e+001 -7.500000e+000 -1.500000e+000
    endloop
  endfacet
  facet normal -5.140091e-017 4.313048e-017 1.000000e+000
    outer loop
      vertex   1.498413e+001 5.130302e-001 -1.500000e+000
      vertex   1.564367e+001 1.299038e+000 -1.500000e+000
      vertex   1.240967e+001 7.500000e+000 -1.500000e+000
    endloop
  endfacet
  facet normal 2.115516e-016 -0.000000e+000 1.000000e+000
    outer loop
      vertex   1.994367e+001 -6.500000e+000 -1.500000e+000
      vertex   1.994367e+001 6.500000e+000 -1.500000e+000
      vertex   1.789367e+001 0.000000e+000 -1.500000e+000
    endloop
  endfacet
  facet normal 9.821102e-017 -3.574589e-017 1.000000e+000
    outer loop
      vertex   1.789367e+001 0.000000e+000 -1.500000e+000
      vertex   1.754274e+001 -9.641814e-001 -1.500000e+000
      vertex   1.994367e+001 -6.500000e+000 -1.500000e+000
    endloop
  endfacet
  facet normal 5.207971e-017 5.223458e-017 1.000000e+000
    outer loop
      vertex   1.994367e+001 6.500000e+000 -1.500000e+000
      vertex   1.894070e+001 7.500000e+000 -1.500000e+000
      vertex   1.665414e+001 1.477212e+000 -1.500000e+000
    endloop
  endfacet
  facet normal 9.821102e-017 3.574589e-017 1.000000e+000
    outer loop
      vertex   1.754274e+001 9.641814e-001 -1.500000e+000
      vertex   1.789367e+001 0.000000e+000 -1.500000e+000
      vertex   1.994367e+001 6.500000e+000 -1.500000e+000
    endloop
  endfacet
  facet normal -8.856444e-001 0.000000e+000 4.643641e-001
    outer loop
      vertex   8.291562e+000 -7.500000e+000 -9.354143e+000
      vertex   1.240967e+001 -7.500000e+000 -1.500000e+000
      vertex   1.240967e+001 7.500000e+000 -1.500000e+000
    endloop
  endfacet
  facet normal -3.547313e-001 0.000000e+000 9.349683e-001
    outer loop
      vertex   -3.061617e-015 -7.500000e+000 -1.250000e+001
      vertex   8.291562e+000 -7.500000e+000 -9.354143e+000
      vertex   8.291562e+000 7.500000e+000 -9.354143e+000
    endloop
  endfacet
  facet normal 3.547313e-001 0.000000e+000 9.349683e-001
    outer loop
      vertex   -8.291562e+000 -7.500000e+000 -9.354143e+000
      vertex   -3.061617e-015 -7.500000e+000 -1.250000e+001
      vertex   -3.061617e-015 7.500000e+000 -1.250000e+001
    endloop
  endfacet
  facet normal 8.856444e-001 0.000000e+000 4.643641e-001
    outer loop
      vertex   -1.240967e+001 -7.500000e+000 -1.500000e+000
      vertex   -8.291562e+000 -7.500000e+000 -9.354143e+000
      vertex   -8.291562e+000 7.500000e+000 -9.354143e+000
    endloop
  endfacet
  facet normal 8.856444e-001 0.000000e+000 4.643641e-001
    outer loop
      vertex   -8.291562e+000 7.500000e+000 -9.354143e+000
      vertex   -1.240967e+001 7.500000e+000 -1.500000e+000
      vertex   -1.240967e+001 -7.500000e+000 -1.500000e+000
    endloop
  endfacet
  facet normal 3.547313e-001 0.000000e+000 9.349683e-001
    outer loop
      vertex   -3.061617e-015 7.500000e+000 -1.250000e+001
      vertex   -8.291562e+000 7.500000e+000 -9.354143e+000
      vertex   -8.291562e+000 -7.500000e+000 -9.354143e+000
    endloop
  endfacet
  facet normal -3.547313e-001 0.000000e+000 9.349683e-001
    outer loop
      vertex   8.291562e+000 7.500000e+000 -9.354143e+000
      vertex   -3.061617e-015 7.500000e+000 -1.250000e+001
      vertex   -3.061617e-015 -7.500000e+000 -1.250000e+001
    endloop
  endfacet
  facet normal -8.856444e-001 0.000000e+000 4.643641e-001
    outer loop
      vertex   1.240967e+001 7.500000e+000 -1.500000e+000
      vertex   8.291562e+000 7.500000e+000 -9.354143e+000
      vertex   8.291562e+000 -7.500000e+000 -9.354143e+000
    endloop
  endfacet
  facet normal 0.000000e+000 0.000000e+000 1.000000e+000
    outer loop
      vertex   -1.240967e+001 7.500000e+000 -1.500000e+000
      vertex   -1.505633e+001 7.500000e+000 -1.500000e+000
      vertex   -1.505633e+001 -7.500000e+000 -1.500000e+000
    endloop
  endfacet
  facet normal 0.000000e+000 0.000000e+000 1.000000e+000
    outer loop
      vertex   -1.505633e+001 -7.500000e+000 -1.500000e+000
      vertex   -1.240967e+001 -7.500000e+000 -1.500000e+000
      vertex   -1.240967e+001 7.500000e+000 -1.500000e+000
    endloop
  endfacet
  facet normal 1.000000e+000 3.353799e-015 0.000000e+000
    outer loop
      vertex   -1.505633e+001 7.500000e+000 1.500000e+000
      vertex   -1.505633e+001 -7.500000e+000 1.500000e+000
      vertex   -1.505633e+001 -7.500000e+000 -1.500000e+000
    endloop
  endfacet
  facet normal 1.000000e+000 3.353799e-015 0.000000e+000
    outer loop
      vertex   -1.505633e+001 -7.500000e+000 -1.500000e+000
      vertex   -1.505633e+001 7.500000e+000 -1.500000e+000
      vertex   -1.505633e+001 7.500000e+000 1.500000e+000
    endloop
  endfacet
  facet normal 3.370707e-016 1.000000e+000 -8.884202e-016
    outer loop
      vertex   -6.147257e+000 7.500000e+000 1.797808e+001
      vertex   1.530808e-015 7.500000e+000 1.250000e+001
      vertex   -8.291562e+000 7.500000e+000 9.354143e+000
    endloop
  endfacet
  facet normal 2.373234e-017 1.000000e+000 -1.240035e-015
    outer loop
      vertex   -6.147257e+000 7.500000e+000 1.797808e+001
      vertex   5.454862e+000 7.500000e+000 1.820012e+001
      vertex   1.530808e-015 7.500000e+000 1.250000e+001
    endloop
  endfacet
  facet normal -6.903594e-016 1.000000e+000 -1.005794e-015
    outer loop
      vertex   5.454862e+000 7.500000e+000 1.820012e+001
      vertex   1.502224e+001 7.500000e+000 1.163325e+001
      vertex   8.291562e+000 7.500000e+000 9.354143e+000
    endloop
  endfacet
  facet normal -8.754972e-016 1.000000e+000 4.590437e-016
    outer loop
      vertex   1.502224e+001 7.500000e+000 -1.163325e+001
      vertex   8.291562e+000 7.500000e+000 -9.354143e+000
      vertex   1.240967e+001 7.500000e+000 -1.500000e+000
    endloop
  endfacet
  facet normal -3.388342e-016 1.000000e+000 8.930684e-016
    outer loop
      vertex   5.454862e+000 7.500000e+000 -1.820012e+001
      vertex   -3.061617e-015 7.500000e+000 -1.250000e+001
      vertex   8.291562e+000 7.500000e+000 -9.354143e+000
    endloop
  endfacet
  facet normal 7.347901e-016 1.000000e+000 9.873115e-016
    outer loop
      vertex   -6.147257e+000 7.500000e+000 -1.797808e+001
      vertex   -1.545636e+001 7.500000e+000 -1.104993e+001
      vertex   -8.291562e+000 7.500000e+000 -9.354143e+000
    endloop
  endfacet
  facet normal 8.615530e-016 1.000000e+000 -4.517325e-016
    outer loop
      vertex   -1.545636e+001 7.500000e+000 1.104993e+001
      vertex   -8.291562e+000 7.500000e+000 9.354143e+000
      vertex   -1.240967e+001 7.500000e+000 1.500000e+000
    endloop
  endfacet
  facet normal -3.388342e-016 1.000000e+000 -8.930684e-016
    outer loop
      vertex   8.291562e+000 7.500000e+000 9.354143e+000
      vertex   1.530808e-015 7.500000e+000 1.250000e+001
      vertex   5.454862e+000 7.500000e+000 1.820012e+001
    endloop
  endfacet
  facet normal -6.903594e-016 1.000000e+000 1.005794e-015
    outer loop
      vertex   8.291562e+000 7.500000e+000 -9.354143e+000
      vertex   1.502224e+001 7.500000e+000 -1.163325e+001
      vertex   5.454862e+000 7.500000e+000 -1.820012e+001
    endloop
  endfacet
  facet normal 3.370707e-016 1.000000e+000 8.884202e-016
    outer loop
      vertex   -8.291562e+000 7.500000e+000 -9.354143e+000
      vertex   -3.061617e-015 7.500000e+000 -1.250000e+001
      vertex   -6.147257e+000 7.500000e+000 -1.797808e+001
    endloop
  endfacet
  facet normal 1.759501e-015 1.000000e+000 0.000000e+000
    outer loop
      vertex   -1.900000e+001 7.500000e+000 3.490243e-015
      vertex   -1.505633e+001 7.500000e+000 1.500000e+000
      vertex   -1.505633e+001 7.500000e+000 -1.500000e+000
    endloop
  endfacet
  facet normal 7.347901e-016 1.000000e+000 -9.873115e-016
    outer loop
      vertex   -8.291562e+000 7.500000e+000 9.354143e+000
      vertex   -1.545636e+001 7.500000e+000 1.104993e+001
      vertex   -6.147257e+000 7.500000e+000 1.797808e+001
    endloop
  endfacet
  facet normal 0.000000e+000 1.000000e+000 -6.847650e-016
    outer loop
      vertex   1.502224e+001 7.500000e+000 1.163325e+001
      vertex   1.894070e+001 7.500000e+000 1.500000e+000
      vertex   1.240967e+001 7.500000e+000 1.500000e+000
    endloop
  endfacet
  facet normal 2.373234e-017 1.000000e+000 1.240035e-015
    outer loop
      vertex   -3.061617e-015 7.500000e+000 -1.250000e+001
      vertex   5.454862e+000 7.500000e+000 -1.820012e+001
      vertex   -6.147257e+000 7.500000e+000 -1.797808e+001
    endloop
  endfacet
  facet normal 0.000000e+000 1.000000e+000 7.265907e-016
    outer loop
      vertex   -1.545636e+001 7.500000e+000 -1.104993e+001
      vertex   -1.505633e+001 7.500000e+000 -1.500000e+000
      vertex   -1.240967e+001 7.500000e+000 -1.500000e+000
    endloop
  endfacet
  facet normal 2.003937e-015 1.000000e+000 -6.426500e-016
    outer loop
      vertex   -1.900000e+001 7.500000e+000 3.490243e-015
      vertex   -1.545636e+001 7.500000e+000 1.104993e+001
      vertex   -1.505633e+001 7.500000e+000 1.500000e+000
    endloop
  endfacet
  facet normal -8.754972e-016 1.000000e+000 -4.590437e-016
    outer loop
      vertex   1.240967e+001 7.500000e+000 1.500000e+000
      vertex   8.291562e+000 7.500000e+000 9.354143e+000
      vertex   1.502224e+001 7.500000e+000 1.163325e+001
    endloop
  endfacet
  facet normal 8.615530e-016 1.000000e+000 4.517325e-016
    outer loop
      vertex   -1.240967e+001 7.500000e+000 -1.500000e+000
      vertex   -8.291562e+000 7.500000e+000 -9.354143e+000
      vertex   -1.545636e+001 7.500000e+000 -1.104993e+001
    endloop
  endfacet
  facet normal 0.000000e+000 1.000000e+000 -7.265907e-016
    outer loop
      vertex   -1.240967e+001 7.500000e+000 1.500000e+000
      vertex   -1.505633e+001 7.500000e+000 1.500000e+000
      vertex   -1.545636e+001 7.500000e+000 1.104993e+001
    endloop
  endfacet
  facet normal 2.003937e-015 1.000000e+000 6.426500e-016
    outer loop
      vertex   -1.505633e+001 7.500000e+000 -1.500000e+000
      vertex   -1.545636e+001 7.500000e+000 -1.104993e+001
      vertex   -1.900000e+001 7.500000e+000 3.490243e-015
    endloop
  endfacet
  facet normal -0.000000e+000 1.000000e+000 6.847650e-016
    outer loop
      vertex   1.240967e+001 7.500000e+000 -1.500000e+000
      vertex   1.894070e+001 7.500000e+000 -1.500000e+000
      vertex   1.502224e+001 7.500000e+000 -1.163325e+001
    endloop
  endfacet
  facet normal 0.000000e+000 -1.000000e+000 0.000000e+000
    outer loop
      vertex   -6.147257e+000 -7.500000e+000 1.797808e+001
      vertex   -1.545636e+001 -7.500000e+000 1.104993e+001
      vertex   -8.291562e+000 -7.500000e+000 9.354143e+000
    endloop
  endfacet
  facet normal 0.000000e+000 -1.000000e+000 -0.000000e+000
    outer loop
      vertex   5.454862e+000 -7.500000e+000 1.820012e+001
      vertex   1.530808e-015 -7.500000e+000 1.250000e+001
      vertex   8.291562e+000 -7.500000e+000 9.354143e+000
    endloop
  endfacet
  facet normal 0.000000e+000 -1.000000e+000 0.000000e+000
    outer loop
      vertex   -8.291562e+000 -7.500000e+000 9.354143e+000
      vertex   1.530808e-015 -7.500000e+000 1.250000e+001
      vertex   -6.147257e+000 -7.500000e+000 1.797808e+001
    endloop
  endfacet
  facet normal 0.000000e+000 -1.000000e+000 0.000000e+000
    outer loop
      vertex   -6.147257e+000 -7.500000e+000 -1.797808e+001
      vertex   -3.061617e-015 -7.500000e+000 -1.250000e+001
      vertex   -8.291562e+000 -7.500000e+000 -9.354143e+000
    endloop
  endfacet
  facet normal 0.000000e+000 -1.000000e+000 0.000000e+000
    outer loop
      vertex   1.502224e+001 -7.500000e+000 1.163325e+001
      vertex   8.291562e+000 -7.500000e+000 9.354143e+000
      vertex   1.240967e+001 -7.500000e+000 1.500000e+000
    endloop
  endfacet
  facet normal 0.000000e+000 -1.000000e+000 0.000000e+000
    outer loop
      vertex   1.530808e-015 -7.500000e+000 1.250000e+001
      vertex   5.454862e+000 -7.500000e+000 1.820012e+001
      vertex   -6.147257e+000 -7.500000e+000 1.797808e+001
    endloop
  endfacet
  facet normal 0.000000e+000 -1.000000e+000 0.000000e+000
    outer loop
      vertex   -1.545636e+001 -7.500000e+000 -1.104993e+001
      vertex   -8.291562e+000 -7.500000e+000 -9.354143e+000
      vertex   -1.240967e+001 -7.500000e+000 -1.500000e+000
    endloop
  endfacet
  facet normal 0.000000e+000 -1.000000e+000 0.000000e+000
    outer loop
      vertex   -6.147257e+000 -7.500000e+000 -1.797808e+001
      vertex   5.454862e+000 -7.500000e+000 -1.820012e+001
      vertex   -3.061617e-015 -7.500000e+000 -1.250000e+001
    endloop
  endfacet
  facet normal 0.000000e+000 -1.000000e+000 0.000000e+000
    outer loop
      vertex   8.291562e+000 -7.500000e+000 9.354143e+000
      vertex   1.502224e+001 -7.500000e+000 1.163325e+001
      vertex   5.454862e+000 -7.500000e+000 1.820012e+001
    endloop
  endfacet
  facet normal 0.000000e+000 -1.000000e+000 0.000000e+000
    outer loop
      vertex   -1.545636e+001 -7.500000e+000 1.104993e+001
      vertex   -1.505633e+001 -7.500000e+000 1.500000e+000
      vertex   -1.240967e+001 -7.500000e+000 1.500000e+000
    endloop
  endfacet
  facet normal 0.000000e+000 -1.000000e+000 0.000000e+000
    outer loop
      vertex   -1.900000e+001 -7.500000e+000 -3.490243e-015
      vertex   -1.505633e+001 -7.500000e+000 -1.500000e+000
      vertex   -1.505633e+001 -7.500000e+000 1.500000e+000
    endloop
  endfacet
  facet normal 0.000000e+000 -1.000000e+000 -0.000000e+000
    outer loop
      vertex   -8.291562e+000 -7.500000e+000 -9.354143e+000
      vertex   -1.545636e+001 -7.500000e+000 -1.104993e+001
      vertex   -6.147257e+000 -7.500000e+000 -1.797808e+001
    endloop
  endfacet
  facet normal 0.000000e+000 -1.000000e+000 0.000000e+000
    outer loop
      vertex   5.454862e+000 -7.500000e+000 -1.820012e+001
      vertex   1.502224e+001 -7.500000e+000 -1.163325e+001
      vertex   8.291562e+000 -7.500000e+000 -9.354143e+000
    endloop
  endfacet
  facet normal 0.000000e+000 -1.000000e+000 0.000000e+000
    outer loop
      vertex   -1.240967e+001 -7.500000e+000 1.500000e+000
      vertex   -8.291562e+000 -7.500000e+000 9.354143e+000
      vertex   -1.545636e+001 -7.500000e+000 1.104993e+001
    endloop
  endfacet
  facet normal 0.000000e+000 -1.000000e+000 0.000000e+000
    outer loop
      vertex   -1.900000e+001 -7.500000e+000 -3.490243e-015
      vertex   -1.545636e+001 -7.500000e+000 -1.104993e+001
      vertex   -1.505633e+001 -7.500000e+000 -1.500000e+000
    endloop
  endfacet
  facet normal 0.000000e+000 -1.000000e+000 0.000000e+000
    outer loop
      vertex   8.291562e+000 -7.500000e+000 -9.354143e+000
      vertex   -3.061617e-015 -7.500000e+000 -1.250000e+001
      vertex   5.454862e+000 -7.500000e+000 -1.820012e+001
    endloop
  endfacet
  facet normal 0.000000e+000 -1.000000e+000 0.000000e+000
    outer loop
      vertex   1.502224e+001 -7.500000e+000 -1.163325e+001
      vertex   1.894070e+001 -7.500000e+000 -1.500000e+000
      vertex   1.240967e+001 -7.500000e+000 -1.500000e+000
    endloop
  endfacet
  facet normal -0.000000e+000 -1.000000e+000 0.000000e+000
    outer loop
      vertex   -1.505633e+001 -7.500000e+000 1.500000e+000
      vertex   -1.545636e+001 -7.500000e+000 1.104993e+001
      vertex   -1.900000e+001 -7.500000e+000 -3.490243e-015
    endloop
  endfacet
  facet normal 0.000000e+000 -1.000000e+000 -0.000000e+000
    outer loop
      vertex   1.240967e+001 -7.500000e+000 -1.500000e+000
      vertex   8.291562e+000 -7.500000e+000 -9.354143e+000
      vertex   1.502224e+001 -7.500000e+000 -1.163325e+001
    endloop
  endfacet
  facet normal -0.000000e+000 -1.000000e+000 0.000000e+000
    outer loop
      vertex   -1.240967e+001 -7.500000e+000 -1.500000e+000
      vertex   -1.505633e+001 -7.500000e+000 -1.500000e+000
      vertex   -1.545636e+001 -7.500000e+000 -1.104993e+001
    endloop
  endfacet
  facet normal 0.000000e+000 -1.000000e+000 0.000000e+000
    outer loop
      vertex   1.240967e+001 -7.500000e+000 1.500000e+000
      vertex   1.894070e+001 -7.500000e+000 1.500000e+000
      vertex   1.502224e+001 -7.500000e+000 1.163325e+001
    endloop
  endfacet
  facet normal 0.000000e+000 -0.000000e+000 -1.000000e+000
    outer loop
      vertex   -1.240967e+001 7.500000e+000 1.500000e+000
      vertex   -1.240967e+001 -7.500000e+000 1.500000e+000
      vertex   -1.505633e+001 -7.500000e+000 1.500000e+000
    endloop
  endfacet
  facet normal 0.000000e+000 0.000000e+000 -1.000000e+000
    outer loop
      vertex   -1.505633e+001 -7.500000e+000 1.500000e+000
      vertex   -1.505633e+001 7.500000e+000 1.500000e+000
      vertex   -1.240967e+001 7.500000e+000 1.500000e+000
    endloop
  endfacet
  facet normal 8.856444e-001 0.000000e+000 -4.643641e-001
    outer loop
      vertex   -8.291562e+000 -7.500000e+000 9.354143e+000
      vertex   -1.240967e+001 -7.500000e+000 1.500000e+000
      vertex   -1.240967e+001 7.500000e+000 1.500000e+000
    endloop
  endfacet
  facet normal 3.547313e-001 0.000000e+000 -9.349683e-001
    outer loop
      vertex   1.530808e-015 -7.500000e+000 1.250000e+001
      vertex   -8.291562e+000 -7.500000e+000 9.354143e+000
      vertex   -8.291562e+000 7.500000e+000 9.354143e+000
    endloop
  endfacet
  facet normal -3.547313e-001 0.000000e+000 -9.349683e-001
    outer loop
      vertex   8.291562e+000 -7.500000e+000 9.354143e+000
      vertex   1.530808e-015 -7.500000e+000 1.250000e+001
      vertex   1.530808e-015 7.500000e+000 1.250000e+001
    endloop
  endfacet
  facet normal -8.856444e-001 0.000000e+000 -4.643641e-001
    outer loop
      vertex   1.240967e+001 -7.500000e+000 1.500000e+000
      vertex   8.291562e+000 -7.500000e+000 9.354143e+000
      vertex   8.291562e+000 7.500000e+000 9.354143e+000
    endloop
  endfacet
  facet normal -8.856444e-001 0.000000e+000 -4.643641e-001
    outer loop
      vertex   8.291562e+000 7.500000e+000 9.354143e+000
      vertex   1.240967e+001 7.500000e+000 1.500000e+000
      vertex   1.240967e+001 -7.500000e+000 1.500000e+000
    endloop
  endfacet
  facet normal -3.547313e-001 0.000000e+000 -9.349683e-001
    outer loop
      vertex   1.530808e-015 7.500000e+000 1.250000e+001
      vertex   8.291562e+000 7.500000e+000 9.354143e+000
      vertex   8.291562e+000 -7.500000e+000 9.354143e+000
    endloop
  endfacet
  facet normal 3.547313e-001 0.000000e+000 -9.349683e-001
    outer loop
      vertex   -8.291562e+000 7.500000e+000 9.354143e+000
      vertex   1.530808e-015 7.500000e+000 1.250000e+001
      vertex   1.530808e-015 -7.500000e+000 1.250000e+001
    endloop
  endfacet
  facet normal 8.856444e-001 0.000000e+000 -4.643641e-001
    outer loop
      vertex   -1.240967e+001 7.500000e+000 1.500000e+000
      vertex   -8.291562e+000 7.500000e+000 9.354143e+000
      vertex   -8.291562e+000 -7.500000e+000 9.354143e+000
    endloop
  endfacet
  facet normal 9.821102e-017 -3.574589e-017 -1.000000e+000
    outer loop
      vertex   1.994367e+001 -6.500000e+000 1.500000e+000
      vertex   1.754274e+001 -9.641814e-001 1.500000e+000
      vertex   1.789367e+001 0.000000e+000 1.500000e+000
    endloop
  endfacet
  facet normal 3.617247e-017 -6.265256e-017 -1.000000e+000
    outer loop
      vertex   1.665414e+001 -1.477212e+000 1.500000e+000
      vertex   1.754274e+001 -9.641814e-001 1.500000e+000
      vertex   1.994367e+001 -6.500000e+000 1.500000e+000
    endloop
  endfacet
  facet normal 5.207971e-017 5.223458e-017 -1.000000e+000
    outer loop
      vertex   1.665414e+001 1.477212e+000 1.500000e+000
      vertex   1.894070e+001 7.500000e+000 1.500000e+000
      vertex   1.994367e+001 6.500000e+000 1.500000e+000
    endloop
  endfacet
  facet normal 5.207971e-017 -5.223458e-017 -1.000000e+000
    outer loop
      vertex   1.994367e+001 -6.500000e+000 1.500000e+000
      vertex   1.894070e+001 -7.500000e+000 1.500000e+000
      vertex   1.665414e+001 -1.477212e+000 1.500000e+000
    endloop
  endfacet
  facet normal -1.129336e-017 -6.404783e-017 -1.000000e+000
    outer loop
      vertex   1.240967e+001 -7.500000e+000 1.500000e+000
      vertex   1.564367e+001 -1.299038e+000 1.500000e+000
      vertex   1.665414e+001 -1.477212e+000 1.500000e+000
    endloop
  endfacet
  facet normal 0.000000e+000 7.200666e-017 -1.000000e+000
    outer loop
      vertex   1.240967e+001 7.500000e+000 1.500000e+000
      vertex   1.894070e+001 7.500000e+000 1.500000e+000
      vertex   1.665414e+001 1.477212e+000 1.500000e+000
    endloop
  endfacet
  facet normal 9.821102e-017 3.574589e-017 -1.000000e+000
    outer loop
      vertex   1.994367e+001 6.500000e+000 1.500000e+000
      vertex   1.789367e+001 0.000000e+000 1.500000e+000
      vertex   1.754274e+001 9.641814e-001 1.500000e+000
    endloop
  endfacet
  facet normal 0.000000e+000 -7.200666e-017 -1.000000e+000
    outer loop
      vertex   1.665414e+001 -1.477212e+000 1.500000e+000
      vertex   1.894070e+001 -7.500000e+000 1.500000e+000
      vertex   1.240967e+001 -7.500000e+000 1.500000e+000
    endloop
  endfacet
  facet normal 3.617247e-017 6.265256e-017 -1.000000e+000
    outer loop
      vertex   1.994367e+001 6.500000e+000 1.500000e+000
      vertex   1.754274e+001 9.641814e-001 1.500000e+000
      vertex   1.665414e+001 1.477212e+000 1.500000e+000
    endloop
  endfacet
  facet normal -5.140091e-017 -4.313048e-017 -1.000000e+000
    outer loop
      vertex   1.240967e+001 -7.500000e+000 1.500000e+000
      vertex   1.498413e+001 -5.130302e-001 1.500000e+000
      vertex   1.564367e+001 -1.299038e+000 1.500000e+000
    endloop
  endfacet
  facet normal -1.684552e-016 2.848012e-031 -1.000000e+000
    outer loop
      vertex   1.240967e+001 7.500000e+000 1.500000e+000
      vertex   1.498413e+001 5.130302e-001 1.500000e+000
      vertex   1.498413e+001 -5.130302e-001 1.500000e+000
    endloop
  endfacet
  facet normal -1.129336e-017 6.404783e-017 -1.000000e+000
    outer loop
      vertex   1.665414e+001 1.477212e+000 1.500000e+000
      vertex   1.564367e+001 1.299038e+000 1.500000e+000
      vertex   1.240967e+001 7.500000e+000 1.500000e+000
    endloop
  endfacet
  facet normal -1.684552e-016 0.000000e+000 -1.000000e+000
    outer loop
      vertex   1.498413e+001 -5.130302e-001 1.500000e+000
      vertex   1.240967e+001 -7.500000e+000 1.500000e+000
      vertex   1.240967e+001 7.500000e+000 1.500000e+000
    endloop
  endfacet
  facet normal 2.115516e-016 0.000000e+000 -1.000000e+000
    outer loop
      vertex   1.789367e+001 0.000000e+000 1.500000e+000
      vertex   1.994367e+001 6.500000e+000 1.500000e+000
      vertex   1.994367e+001 -6.500000e+000 1.500000e+000
    endloop
  endfacet
  facet normal -5.140091e-017 4.313048e-017 -1.000000e+000
    outer loop
      vertex   1.564367e+001 1.299038e+000 1.500000e+000
      vertex   1.498413e+001 5.130302e-001 1.500000e+000
      vertex   1.240967e+001 7.500000e+000 1.500000e+000
    endloop
  endfacet
  facet normal 0.000000e+000 0.000000e+000 1.000000e+000
    outer loop
      vertex   1.389367e+001 3.061617e-016 7.000000e+000
      vertex   1.489367e+001 5.510911e-016 7.000000e+000
      vertex   1.498413e+001 5.130302e-001 7.000000e+000
    endloop
  endfacet
  facet normal 0.000000e+000 0.000000e+000 1.000000e+000
    outer loop
      vertex   1.389367e+001 3.061617e-016 7.000000e+000
      vertex   1.448834e+001 -1.618558e+000 7.000000e+000
      vertex   1.498413e+001 -5.130302e-001 7.000000e+000
    endloop
  endfacet
  facet normal 0.000000e+000 0.000000e+000 1.000000e+000
    outer loop
      vertex   1.498413e+001 -5.130302e-001 7.000000e+000
      vertex   1.489367e+001 5.510911e-016 7.000000e+000
      vertex   1.389367e+001 3.061617e-016 7.000000e+000
    endloop
  endfacet
  facet normal 0.000000e+000 0.000000e+000 1.000000e+000
    outer loop
      vertex   1.873499e+001 8.764731e-001 7.000000e+000
      vertex   1.768287e+001 2.141957e+000 7.000000e+000
      vertex   1.754274e+001 9.641814e-001 7.000000e+000
    endloop
  endfacet
  facet normal 0.000000e+000 0.000000e+000 1.000000e+000
    outer loop
      vertex   1.768287e+001 2.141957e+000 7.000000e+000
      vertex   1.598945e+001 2.467105e+000 7.000000e+000
      vertex   1.665414e+001 1.477212e+000 7.000000e+000
    endloop
  endfacet
  facet normal 0.000000e+000 0.000000e+000 1.000000e+000
    outer loop
      vertex   1.498413e+001 5.130302e-001 7.000000e+000
      vertex   1.448834e+001 1.618558e+000 7.000000e+000
      vertex   1.389367e+001 3.061617e-016 7.000000e+000
    endloop
  endfacet
  facet normal -0.000000e+000 0.000000e+000 1.000000e+000
    outer loop
      vertex   1.665414e+001 1.477212e+000 7.000000e+000
      vertex   1.754274e+001 9.641814e-001 7.000000e+000
      vertex   1.768287e+001 2.141957e+000 7.000000e+000
    endloop
  endfacet
  facet normal 0.000000e+000 0.000000e+000 1.000000e+000
    outer loop
      vertex   1.598945e+001 2.467105e+000 7.000000e+000
      vertex   1.448834e+001 1.618558e+000 7.000000e+000
      vertex   1.564367e+001 1.299038e+000 7.000000e+000
    endloop
  endfacet
  facet normal 0.000000e+000 0.000000e+000 1.000000e+000
    outer loop
      vertex   1.448834e+001 -1.618558e+000 7.000000e+000
      vertex   1.564367e+001 -1.299038e+000 7.000000e+000
      vertex   1.498413e+001 -5.130302e-001 7.000000e+000
    endloop
  endfacet
  facet normal 0.000000e+000 -0.000000e+000 1.000000e+000
    outer loop
      vertex   1.598945e+001 -2.467105e+000 7.000000e+000
      vertex   1.665414e+001 -1.477212e+000 7.000000e+000
      vertex   1.564367e+001 -1.299038e+000 7.000000e+000
    endloop
  endfacet
  facet normal 0.000000e+000 0.000000e+000 1.000000e+000
    outer loop
      vertex   1.873499e+001 -8.764731e-001 7.000000e+000
      vertex   1.789367e+001 -3.673940e-016 7.000000e+000
      vertex   1.754274e+001 -9.641814e-001 7.000000e+000
    endloop
  endfacet
  facet normal 0.000000e+000 0.000000e+000 1.000000e+000
    outer loop
      vertex   1.564367e+001 1.299038e+000 7.000000e+000
      vertex   1.665414e+001 1.477212e+000 7.000000e+000
      vertex   1.598945e+001 2.467105e+000 7.000000e+000
    endloop
  endfacet
  facet normal 0.000000e+000 0.000000e+000 1.000000e+000
    outer loop
      vertex   1.564367e+001 -1.299038e+000 7.000000e+000
      vertex   1.448834e+001 -1.618558e+000 7.000000e+000
      vertex   1.598945e+001 -2.467105e+000 7.000000e+000
    endloop
  endfacet
  facet normal 0.000000e+000 0.000000e+000 1.000000e+000
    outer loop
      vertex   1.768287e+001 -2.141957e+000 7.000000e+000
      vertex   1.754274e+001 -9.641814e-001 7.000000e+000
      vertex   1.665414e+001 -1.477212e+000 7.000000e+000
    endloop
  endfacet
  facet normal 0.000000e+000 -0.000000e+000 1.000000e+000
    outer loop
      vertex   1.873499e+001 -8.764731e-001 7.000000e+000
      vertex   1.873499e+001 8.764731e-001 7.000000e+000
      vertex   1.789367e+001 -3.673940e-016 7.000000e+000
    endloop
  endfacet
  facet normal 0.000000e+000 -0.000000e+000 1.000000e+000
    outer loop
      vertex   1.498413e+001 5.130302e-001 7.000000e+000
      vertex   1.564367e+001 1.299038e+000 7.000000e+000
      vertex   1.448834e+001 1.618558e+000 7.000000e+000
    endloop
  endfacet
  facet normal -0.000000e+000 0.000000e+000 1.000000e+000
    outer loop
      vertex   1.754274e+001 -9.641814e-001 7.000000e+000
      vertex   1.768287e+001 -2.141957e+000 7.000000e+000
      vertex   1.873499e+001 -8.764731e-001 7.000000e+000
    endloop
  endfacet
  facet normal 0.000000e+000 0.000000e+000 1.000000e+000
    outer loop
      vertex   1.665414e+001 -1.477212e+000 7.000000e+000
      vertex   1.598945e+001 -2.467105e+000 7.000000e+000
      vertex   1.768287e+001 -2.141957e+000 7.000000e+000
    endloop
  endfacet
  facet normal 0.000000e+000 0.000000e+000 1.000000e+000
    outer loop
      vertex   1.754274e+001 9.641814e-001 7.000000e+000
      vertex   1.789367e+001 -3.673940e-016 7.000000e+000
      vertex   1.873499e+001 8.764731e-001 7.000000e+000
    endloop
  endfacet
  facet normal -9.396926e-001 3.420201e-001 1.876181e-017
    outer loop
      vertex   1.754274e+001 -9.641814e-001 7.000000e+000
      vertex   1.789367e+001 -3.673940e-016 7.000000e+000
      vertex   1.789367e+001 0.000000e+000 1.500000e+000
    endloop
  endfacet
  facet normal -5.000000e-001 8.660254e-001 0.000000e+000
    outer loop
      vertex   1.665414e+001 -1.477212e+000 7.000000e+000
      vertex   1.754274e+001 -9.641814e-001 7.000000e+000
      vertex   1.754274e+001 -9.641814e-001 1.500000e+000
    endloop
  endfacet
  facet normal 1.736482e-001 9.848078e-001 0.000000e+000
    outer loop
      vertex   1.564367e+001 -1.299038e+000 7.000000e+000
      vertex   1.665414e+001 -1.477212e+000 7.000000e+000
      vertex   1.665414e+001 -1.477212e+000 1.500000e+000
    endloop
  endfacet
  facet normal 7.660444e-001 6.427876e-001 0.000000e+000
    outer loop
      vertex   1.498413e+001 -5.130302e-001 7.000000e+000
      vertex   1.564367e+001 -1.299038e+000 7.000000e+000
      vertex   1.564367e+001 -1.299038e+000 1.500000e+000
    endloop
  endfacet
  facet normal 9.998648e-001 -1.690435e-015 1.644524e-002
    outer loop
      vertex   1.498413e+001 -5.130302e-001 1.500000e+000
      vertex   1.498413e+001 5.130302e-001 1.500000e+000
      vertex   1.489367e+001 5.510911e-016 7.000000e+000
    endloop
  endfacet
  facet normal 9.848078e-001 -1.736482e-001 0.000000e+000
    outer loop
      vertex   1.498413e+001 5.130302e-001 1.500000e+000
      vertex   1.498413e+001 5.130302e-001 7.000000e+000
      vertex   1.489367e+001 5.510911e-016 7.000000e+000
    endloop
  endfacet
  facet normal 7.660444e-001 -6.427876e-001 0.000000e+000
    outer loop
      vertex   1.564367e+001 1.299038e+000 7.000000e+000
      vertex   1.498413e+001 5.130302e-001 7.000000e+000
      vertex   1.498413e+001 5.130302e-001 1.500000e+000
    endloop
  endfacet
  facet normal 1.736482e-001 -9.848078e-001 0.000000e+000
    outer loop
      vertex   1.665414e+001 1.477212e+000 7.000000e+000
      vertex   1.564367e+001 1.299038e+000 7.000000e+000
      vertex   1.564367e+001 1.299038e+000 1.500000e+000
    endloop
  endfacet
  facet normal -5.000000e-001 -8.660254e-001 0.000000e+000
    outer loop
      vertex   1.754274e+001 9.641814e-001 7.000000e+000
      vertex   1.665414e+001 1.477212e+000 7.000000e+000
      vertex   1.665414e+001 1.477212e+000 1.500000e+000
    endloop
  endfacet
  facet normal -9.396926e-001 -3.420201e-001 0.000000e+000
    outer loop
      vertex   1.789367e+001 -3.673940e-016 7.000000e+000
      vertex   1.754274e+001 9.641814e-001 7.000000e+000
      vertex   1.754274e+001 9.641814e-001 1.500000e+000
    endloop
  endfacet
  facet normal -9.396926e-001 -3.420201e-001 -1.876181e-017
    outer loop
      vertex   1.754274e+001 9.641814e-001 1.500000e+000
      vertex   1.789367e+001 0.000000e+000 1.500000e+000
      vertex   1.789367e+001 -3.673940e-016 7.000000e+000
    endloop
  endfacet
  facet normal -5.000000e-001 -8.660254e-001 0.000000e+000
    outer loop
      vertex   1.665414e+001 1.477212e+000 1.500000e+000
      vertex   1.754274e+001 9.641814e-001 1.500000e+000
      vertex   1.754274e+001 9.641814e-001 7.000000e+000
    endloop
  endfacet
  facet normal 1.736482e-001 -9.848078e-001 0.000000e+000
    outer loop
      vertex   1.564367e+001 1.299038e+000 1.500000e+000
      vertex   1.665414e+001 1.477212e+000 1.500000e+000
      vertex   1.665414e+001 1.477212e+000 7.000000e+000
    endloop
  endfacet
  facet normal 7.660444e-001 -6.427876e-001 0.000000e+000
    outer loop
      vertex   1.498413e+001 5.130302e-001 1.500000e+000
      vertex   1.564367e+001 1.299038e+000 1.500000e+000
      vertex   1.564367e+001 1.299038e+000 7.000000e+000
    endloop
  endfacet
  facet normal 9.848078e-001 1.736482e-001 0.000000e+000
    outer loop
      vertex   1.489367e+001 5.510911e-016 7.000000e+000
      vertex   1.498413e+001 -5.130302e-001 7.000000e+000
      vertex   1.498413e+001 -5.130302e-001 1.500000e+000
    endloop
  endfacet
  facet normal 7.660444e-001 6.427876e-001 0.000000e+000
    outer loop
      vertex   1.564367e+001 -1.299038e+000 1.500000e+000
      vertex   1.498413e+001 -5.130302e-001 1.500000e+000
      vertex   1.498413e+001 -5.130302e-001 7.000000e+000
    endloop
  endfacet
  facet normal 1.736482e-001 9.848078e-001 0.000000e+000
    outer loop
      vertex   1.665414e+001 -1.477212e+000 1.500000e+000
      vertex   1.564367e+001 -1.299038e+000 1.500000e+000
      vertex   1.564367e+001 -1.299038e+000 7.000000e+000
    endloop
  endfacet
  facet normal -5.000000e-001 8.660254e-001 0.000000e+000
    outer loop
      vertex   1.754274e+001 -9.641814e-001 1.500000e+000
      vertex   1.665414e+001 -1.477212e+000 1.500000e+000
      vertex   1.665414e+001 -1.477212e+000 7.000000e+000
    endloop
  endfacet
  facet normal -9.396926e-001 3.420201e-001 0.000000e+000
    outer loop
      vertex   1.789367e+001 0.000000e+000 1.500000e+000
      vertex   1.754274e+001 -9.641814e-001 1.500000e+000
      vertex   1.754274e+001 -9.641814e-001 7.000000e+000
    endloop
  endfacet
endsolid
