solid ApoyoMotor
  facet normal 0.000000e+000 0.000000e+000 -1.000000e+000
    outer loop
      vertex   -1.500000e+003 -6.000000e+002 -5.000000e+002
      vertex   -3.500000e+003 -6.000000e+002 -5.000000e+002
      vertex   -3.500000e+003 6.000000e+002 -5.000000e+002
    endloop
  endfacet
  facet normal 0.000000e+000 0.000000e+000 -1.000000e+000
    outer loop
      vertex   -3.500000e+003 6.000000e+002 -5.000000e+002
      vertex   -1.500000e+003 6.000000e+002 -5.000000e+002
      vertex   -1.500000e+003 -6.000000e+002 -5.000000e+002
    endloop
  endfacet
  facet normal 1.110223e-016 -1.000000e+000 0.000000e+000
    outer loop
      vertex   -1.500000e+003 -6.000000e+002 -5.000000e+002
      vertex   -1.500000e+003 -6.000000e+002 0.000000e+000
      vertex   -3.500000e+003 -6.000000e+002 0.000000e+000
    endloop
  endfacet
  facet normal -1.110223e-016 -1.000000e+000 -8.881784e-016
    outer loop
      vertex   -3.500000e+003 -6.000000e+002 0.000000e+000
      vertex   -3.500000e+003 -6.000000e+002 -5.000000e+002
      vertex   -1.500000e+003 -6.000000e+002 -5.000000e+002
    endloop
  endfacet
  facet normal 1.000000e+000 0.000000e+000 -0.000000e+000
    outer loop
      vertex   -1.500000e+003 6.000000e+002 -5.000000e+002
      vertex   -1.500000e+003 6.000000e+002 0.000000e+000
      vertex   -1.500000e+003 -6.000000e+002 0.000000e+000
    endloop
  endfacet
  facet normal 1.000000e+000 0.000000e+000 0.000000e+000
    outer loop
      vertex   -1.500000e+003 -6.000000e+002 0.000000e+000
      vertex   -1.500000e+003 -6.000000e+002 -5.000000e+002
      vertex   -1.500000e+003 6.000000e+002 -5.000000e+002
    endloop
  endfacet
  facet normal -2.220446e-016 1.000000e+000 0.000000e+000
    outer loop
      vertex   -3.500000e+003 6.000000e+002 -5.000000e+002
      vertex   -3.500000e+003 6.000000e+002 0.000000e+000
      vertex   -1.500000e+003 6.000000e+002 0.000000e+000
    endloop
  endfacet
  facet normal -2.220446e-016 1.000000e+000 0.000000e+000
    outer loop
      vertex   -1.500000e+003 6.000000e+002 0.000000e+000
      vertex   -1.500000e+003 6.000000e+002 -5.000000e+002
      vertex   -3.500000e+003 6.000000e+002 -5.000000e+002
    endloop
  endfacet
  facet normal -1.000000e+000 0.000000e+000 0.000000e+000
    outer loop
      vertex   -3.500000e+003 -1.750000e+003 6.000000e+002
      vertex   -3.500000e+003 6.000000e+002 0.000000e+000
      vertex   -3.500000e+003 -6.000000e+002 0.000000e+000
    endloop
  endfacet
  facet normal -1.000000e+000 0.000000e+000 -0.000000e+000
    outer loop
      vertex   -3.500000e+003 6.000000e+002 0.000000e+000
      vertex   -3.500000e+003 6.000000e+002 -5.000000e+002
      vertex   -3.500000e+003 -6.000000e+002 -5.000000e+002
    endloop
  endfacet
  facet normal -1.000000e+000 0.000000e+000 0.000000e+000
    outer loop
      vertex   -3.500000e+003 -6.000000e+002 -5.000000e+002
      vertex   -3.500000e+003 -6.000000e+002 0.000000e+000
      vertex   -3.500000e+003 6.000000e+002 0.000000e+000
    endloop
  endfacet
  facet normal -1.000000e+000 0.000000e+000 -0.000000e+000
    outer loop
      vertex   -3.500000e+003 1.750000e+003 6.000000e+002
      vertex   -3.500000e+003 1.750000e+003 0.000000e+000
      vertex   -3.500000e+003 6.000000e+002 0.000000e+000
    endloop
  endfacet
  facet normal -1.000000e+000 0.000000e+000 0.000000e+000
    outer loop
      vertex   -3.500000e+003 6.000000e+002 0.000000e+000
      vertex   -3.500000e+003 -1.750000e+003 6.000000e+002
      vertex   -3.500000e+003 1.750000e+003 6.000000e+002
    endloop
  endfacet
  facet normal -1.000000e+000 0.000000e+000 0.000000e+000
    outer loop
      vertex   -3.500000e+003 -6.000000e+002 0.000000e+000
      vertex   -3.500000e+003 -1.750000e+003 0.000000e+000
      vertex   -3.500000e+003 -1.750000e+003 6.000000e+002
    endloop
  endfacet
  facet normal 0.000000e+000 0.000000e+000 1.000000e+000
    outer loop
      vertex   -3.500000e+003 1.750000e+003 6.000000e+002
      vertex   -3.500000e+003 -1.750000e+003 6.000000e+002
      vertex   3.500000e+003 -1.750000e+003 6.000000e+002
    endloop
  endfacet
  facet normal 0.000000e+000 -0.000000e+000 1.000000e+000
    outer loop
      vertex   3.500000e+003 -1.750000e+003 6.000000e+002
      vertex   3.500000e+003 1.750000e+003 6.000000e+002
      vertex   -3.500000e+003 1.750000e+003 6.000000e+002
    endloop
  endfacet
  facet normal -1.268826e-016 1.000000e+000 0.000000e+000
    outer loop
      vertex   3.500000e+003 1.750000e+003 6.000000e+002
      vertex   3.500000e+003 1.750000e+003 0.000000e+000
      vertex   -3.500000e+003 1.750000e+003 0.000000e+000
    endloop
  endfacet
  facet normal -1.268826e-016 1.000000e+000 0.000000e+000
    outer loop
      vertex   -3.500000e+003 1.750000e+003 0.000000e+000
      vertex   -3.500000e+003 1.750000e+003 6.000000e+002
      vertex   3.500000e+003 1.750000e+003 6.000000e+002
    endloop
  endfacet
  facet normal 1.000000e+000 0.000000e+000 0.000000e+000
    outer loop
      vertex   3.500000e+003 -1.750000e+003 6.000000e+002
      vertex   3.500000e+003 -1.750000e+003 0.000000e+000
      vertex   3.500000e+003 1.750000e+003 0.000000e+000
    endloop
  endfacet
  facet normal 1.000000e+000 0.000000e+000 -0.000000e+000
    outer loop
      vertex   3.500000e+003 1.750000e+003 0.000000e+000
      vertex   3.500000e+003 1.750000e+003 6.000000e+002
      vertex   3.500000e+003 -1.750000e+003 6.000000e+002
    endloop
  endfacet
  facet normal 1.268826e-016 -1.000000e+000 0.000000e+000
    outer loop
      vertex   -3.500000e+003 -1.750000e+003 6.000000e+002
      vertex   -3.500000e+003 -1.750000e+003 0.000000e+000
      vertex   3.500000e+003 -1.750000e+003 0.000000e+000
    endloop
  endfacet
  facet normal 1.268826e-016 -1.000000e+000 0.000000e+000
    outer loop
      vertex   3.500000e+003 -1.750000e+003 0.000000e+000
      vertex   3.500000e+003 -1.750000e+003 6.000000e+002
      vertex   -3.500000e+003 -1.750000e+003 6.000000e+002
    endloop
  endfacet
  facet normal 0.000000e+000 0.000000e+000 -1.000000e+000
    outer loop
      vertex   3.500000e+003 1.750000e+003 0.000000e+000
      vertex   3.000000e+003 1.000000e+003 0.000000e+000
      vertex   -1.000000e+003 1.000000e+003 0.000000e+000
    endloop
  endfacet
  facet normal 0.000000e+000 0.000000e+000 -1.000000e+000
    outer loop
      vertex   3.500000e+003 -1.750000e+003 0.000000e+000
      vertex   3.000000e+003 -1.000000e+003 0.000000e+000
      vertex   3.000000e+003 1.000000e+003 0.000000e+000
    endloop
  endfacet
  facet normal -0.000000e+000 0.000000e+000 -1.000000e+000
    outer loop
      vertex   3.500000e+003 -1.750000e+003 0.000000e+000
      vertex   -3.500000e+003 -1.750000e+003 0.000000e+000
      vertex   -1.000000e+003 -1.000000e+003 0.000000e+000
    endloop
  endfacet
  facet normal 0.000000e+000 0.000000e+000 -1.000000e+000
    outer loop
      vertex   -3.500000e+003 -1.750000e+003 0.000000e+000
      vertex   -3.500000e+003 -6.000000e+002 0.000000e+000
      vertex   -1.500000e+003 -6.000000e+002 0.000000e+000
    endloop
  endfacet
  facet normal 0.000000e+000 0.000000e+000 -1.000000e+000
    outer loop
      vertex   -3.500000e+003 1.750000e+003 0.000000e+000
      vertex   -1.000000e+003 1.000000e+003 0.000000e+000
      vertex   -1.500000e+003 6.000000e+002 0.000000e+000
    endloop
  endfacet
  facet normal 0.000000e+000 0.000000e+000 -1.000000e+000
    outer loop
      vertex   -1.000000e+003 1.000000e+003 0.000000e+000
      vertex   -1.000000e+003 -1.000000e+003 0.000000e+000
      vertex   -1.500000e+003 -6.000000e+002 0.000000e+000
    endloop
  endfacet
  facet normal 0.000000e+000 0.000000e+000 -1.000000e+000
    outer loop
      vertex   3.000000e+003 1.000000e+003 0.000000e+000
      vertex   3.500000e+003 1.750000e+003 0.000000e+000
      vertex   3.500000e+003 -1.750000e+003 0.000000e+000
    endloop
  endfacet
  facet normal 0.000000e+000 -0.000000e+000 -1.000000e+000
    outer loop
      vertex   -1.500000e+003 -6.000000e+002 0.000000e+000
      vertex   -1.000000e+003 -1.000000e+003 0.000000e+000
      vertex   -3.500000e+003 -1.750000e+003 0.000000e+000
    endloop
  endfacet
  facet normal 0.000000e+000 0.000000e+000 -1.000000e+000
    outer loop
      vertex   -1.500000e+003 -6.000000e+002 0.000000e+000
      vertex   -1.500000e+003 6.000000e+002 0.000000e+000
      vertex   -1.000000e+003 1.000000e+003 0.000000e+000
    endloop
  endfacet
  facet normal 0.000000e+000 0.000000e+000 -1.000000e+000
    outer loop
      vertex   -1.000000e+003 -1.000000e+003 0.000000e+000
      vertex   3.000000e+003 -1.000000e+003 0.000000e+000
      vertex   3.500000e+003 -1.750000e+003 0.000000e+000
    endloop
  endfacet
  facet normal 0.000000e+000 0.000000e+000 -1.000000e+000
    outer loop
      vertex   -1.000000e+003 1.000000e+003 0.000000e+000
      vertex   -3.500000e+003 1.750000e+003 0.000000e+000
      vertex   3.500000e+003 1.750000e+003 0.000000e+000
    endloop
  endfacet
  facet normal -0.000000e+000 0.000000e+000 -1.000000e+000
    outer loop
      vertex   -1.500000e+003 6.000000e+002 0.000000e+000
      vertex   -3.500000e+003 6.000000e+002 0.000000e+000
      vertex   -3.500000e+003 1.750000e+003 0.000000e+000
    endloop
  endfacet
  facet normal 0.000000e+000 1.000000e+000 0.000000e+000
    outer loop
      vertex   -1.000000e+003 1.000000e+003 -4.000000e+002
      vertex   -1.000000e+003 1.000000e+003 0.000000e+000
      vertex   3.000000e+003 1.000000e+003 0.000000e+000
    endloop
  endfacet
  facet normal 0.000000e+000 1.000000e+000 0.000000e+000
    outer loop
      vertex   3.000000e+003 1.000000e+003 0.000000e+000
      vertex   3.000000e+003 1.000000e+003 -4.000000e+002
      vertex   -1.000000e+003 1.000000e+003 -4.000000e+002
    endloop
  endfacet
  facet normal -1.000000e+000 1.110223e-016 -6.162976e-032
    outer loop
      vertex   -1.000000e+003 1.000000e+003 -4.000000e+002
      vertex   -1.000000e+003 -1.000000e+003 -4.000000e+002
      vertex   -1.000000e+003 -1.000000e+003 0.000000e+000
    endloop
  endfacet
  facet normal -1.000000e+000 1.110223e-016 0.000000e+000
    outer loop
      vertex   -1.000000e+003 -1.000000e+003 0.000000e+000
      vertex   -1.000000e+003 1.000000e+003 0.000000e+000
      vertex   -1.000000e+003 1.000000e+003 -4.000000e+002
    endloop
  endfacet
  facet normal -5.551115e-017 -1.000000e+000 0.000000e+000
    outer loop
      vertex   3.000000e+003 -1.000000e+003 -4.000000e+002
      vertex   3.000000e+003 -1.000000e+003 0.000000e+000
      vertex   -1.000000e+003 -1.000000e+003 0.000000e+000
    endloop
  endfacet
  facet normal 0.000000e+000 -1.000000e+000 5.551115e-016
    outer loop
      vertex   -1.000000e+003 -1.000000e+003 0.000000e+000
      vertex   -1.000000e+003 -1.000000e+003 -4.000000e+002
      vertex   3.000000e+003 -1.000000e+003 -4.000000e+002
    endloop
  endfacet
  facet normal 1.000000e+000 -2.220446e-016 0.000000e+000
    outer loop
      vertex   3.000000e+003 1.000000e+003 -4.000000e+002
      vertex   3.000000e+003 1.000000e+003 0.000000e+000
      vertex   3.000000e+003 -1.000000e+003 0.000000e+000
    endloop
  endfacet
  facet normal 1.000000e+000 -2.220446e-016 0.000000e+000
    outer loop
      vertex   3.000000e+003 -1.000000e+003 0.000000e+000
      vertex   3.000000e+003 -1.000000e+003 -4.000000e+002
      vertex   3.000000e+003 1.000000e+003 -4.000000e+002
    endloop
  endfacet
  facet normal 0.000000e+000 0.000000e+000 -1.000000e+000
    outer loop
      vertex   -1.000000e+003 1.000000e+003 -4.000000e+002
      vertex   3.000000e+003 1.000000e+003 -4.000000e+002
      vertex   4.000000e+002 5.000000e+002 -4.000000e+002
    endloop
  endfacet
  facet normal 0.000000e+000 0.000000e+000 -1.000000e+000
    outer loop
      vertex   3.000000e+003 1.000000e+003 -4.000000e+002
      vertex   3.000000e+003 -1.000000e+003 -4.000000e+002
      vertex   4.000000e+002 -5.000000e+002 -4.000000e+002
    endloop
  endfacet
  facet normal 0.000000e+000 0.000000e+000 -1.000000e+000
    outer loop
      vertex   -1.000000e+003 -1.000000e+003 -4.000000e+002
      vertex   -8.000000e+002 -5.000000e+002 -4.000000e+002
      vertex   4.000000e+002 -5.000000e+002 -4.000000e+002
    endloop
  endfacet
  facet normal 0.000000e+000 0.000000e+000 -1.000000e+000
    outer loop
      vertex   -1.000000e+003 -1.000000e+003 -4.000000e+002
      vertex   -1.000000e+003 1.000000e+003 -4.000000e+002
      vertex   -8.000000e+002 5.000000e+002 -4.000000e+002
    endloop
  endfacet
  facet normal 0.000000e+000 0.000000e+000 -1.000000e+000
    outer loop
      vertex   4.000000e+002 -5.000000e+002 -4.000000e+002
      vertex   4.000000e+002 5.000000e+002 -4.000000e+002
      vertex   3.000000e+003 1.000000e+003 -4.000000e+002
    endloop
  endfacet
  facet normal 0.000000e+000 0.000000e+000 -1.000000e+000
    outer loop
      vertex   -8.000000e+002 5.000000e+002 -4.000000e+002
      vertex   -8.000000e+002 -5.000000e+002 -4.000000e+002
      vertex   -1.000000e+003 -1.000000e+003 -4.000000e+002
    endloop
  endfacet
  facet normal 0.000000e+000 -0.000000e+000 -1.000000e+000
    outer loop
      vertex   4.000000e+002 -5.000000e+002 -4.000000e+002
      vertex   3.000000e+003 -1.000000e+003 -4.000000e+002
      vertex   -1.000000e+003 -1.000000e+003 -4.000000e+002
    endloop
  endfacet
  facet normal 0.000000e+000 0.000000e+000 -1.000000e+000
    outer loop
      vertex   4.000000e+002 5.000000e+002 -4.000000e+002
      vertex   -8.000000e+002 5.000000e+002 -4.000000e+002
      vertex   -1.000000e+003 1.000000e+003 -4.000000e+002
    endloop
  endfacet
  facet normal 2.312965e-016 1.000000e+000 -0.000000e+000
    outer loop
      vertex   -8.000000e+002 5.000000e+002 -5.900000e+002
      vertex   -8.000000e+002 5.000000e+002 -4.000000e+002
      vertex   4.000000e+002 5.000000e+002 -4.000000e+002
    endloop
  endfacet
  facet normal 2.312965e-016 1.000000e+000 0.000000e+000
    outer loop
      vertex   4.000000e+002 5.000000e+002 -4.000000e+002
      vertex   4.000000e+002 5.000000e+002 -5.900000e+002
      vertex   -8.000000e+002 5.000000e+002 -5.900000e+002
    endloop
  endfacet
  facet normal 0.000000e+000 0.000000e+000 -1.000000e+000
    outer loop
      vertex   -8.000000e+002 -5.000000e+002 -5.900000e+002
      vertex   -8.000000e+002 5.000000e+002 -5.900000e+002
      vertex   4.000000e+002 5.000000e+002 -5.900000e+002
    endloop
  endfacet
  facet normal 0.000000e+000 -0.000000e+000 -1.000000e+000
    outer loop
      vertex   4.000000e+002 5.000000e+002 -5.900000e+002
      vertex   4.000000e+002 -5.000000e+002 -5.900000e+002
      vertex   -8.000000e+002 -5.000000e+002 -5.900000e+002
    endloop
  endfacet
  facet normal -1.000000e+000 1.110223e-016 0.000000e+000
    outer loop
      vertex   -8.000000e+002 -5.000000e+002 -5.900000e+002
      vertex   -8.000000e+002 -5.000000e+002 -4.000000e+002
      vertex   -8.000000e+002 5.000000e+002 -4.000000e+002
    endloop
  endfacet
  facet normal -1.000000e+000 1.110223e-016 0.000000e+000
    outer loop
      vertex   -8.000000e+002 5.000000e+002 -4.000000e+002
      vertex   -8.000000e+002 5.000000e+002 -5.900000e+002
      vertex   -8.000000e+002 -5.000000e+002 -5.900000e+002
    endloop
  endfacet
  facet normal -9.251859e-017 -1.000000e+000 0.000000e+000
    outer loop
      vertex   4.000000e+002 -5.000000e+002 -5.900000e+002
      vertex   4.000000e+002 -5.000000e+002 -4.000000e+002
      vertex   -8.000000e+002 -5.000000e+002 -4.000000e+002
    endloop
  endfacet
  facet normal -9.251859e-017 -1.000000e+000 -0.000000e+000
    outer loop
      vertex   -8.000000e+002 -5.000000e+002 -4.000000e+002
      vertex   -8.000000e+002 -5.000000e+002 -5.900000e+002
      vertex   4.000000e+002 -5.000000e+002 -5.900000e+002
    endloop
  endfacet
  facet normal 1.000000e+000 0.000000e+000 -0.000000e+000
    outer loop
      vertex   4.000000e+002 5.000000e+002 -5.900000e+002
      vertex   4.000000e+002 5.000000e+002 -4.000000e+002
      vertex   4.000000e+002 -5.000000e+002 -4.000000e+002
    endloop
  endfacet
  facet normal 1.000000e+000 0.000000e+000 0.000000e+000
    outer loop
      vertex   4.000000e+002 -5.000000e+002 -4.000000e+002
      vertex   4.000000e+002 -5.000000e+002 -5.900000e+002
      vertex   4.000000e+002 5.000000e+002 -5.900000e+002
    endloop
  endfacet
endsolid
