solid EpmAguas
  facet normal -9.868649e-017 0.000000e+000 1.000000e+000
    outer loop
      vertex   -8.815323e+003 2.000000e+002 5.331314e+003
      vertex   -8.815323e+003 0.000000e+000 5.331314e+003
      vertex   9.184677e+003 0.000000e+000 5.331314e+003
    endloop
  endfacet
  facet normal -9.868649e-017 0.000000e+000 1.000000e+000
    outer loop
      vertex   9.184677e+003 0.000000e+000 5.331314e+003
      vertex   9.184677e+003 2.000000e+002 5.331314e+003
      vertex   -8.815323e+003 2.000000e+002 5.331314e+003
    endloop
  endfacet
  facet normal 1.000000e+000 0.000000e+000 1.776357e-016
    outer loop
      vertex   9.184677e+003 2.000000e+002 5.331314e+003
      vertex   9.184677e+003 0.000000e+000 5.331314e+003
      vertex   9.184677e+003 0.000000e+000 -4.668686e+003
    endloop
  endfacet
  facet normal 1.000000e+000 -0.000000e+000 1.776357e-016
    outer loop
      vertex   9.184677e+003 0.000000e+000 -4.668686e+003
      vertex   9.184677e+003 2.000000e+002 -4.668686e+003
      vertex   9.184677e+003 2.000000e+002 5.331314e+003
    endloop
  endfacet
  facet normal 9.868649e-017 0.000000e+000 -1.000000e+000
    outer loop
      vertex   9.184677e+003 2.000000e+002 -4.668686e+003
      vertex   9.184677e+003 0.000000e+000 -4.668686e+003
      vertex   -8.815323e+003 0.000000e+000 -4.668686e+003
    endloop
  endfacet
  facet normal 9.868649e-017 0.000000e+000 -1.000000e+000
    outer loop
      vertex   -8.815323e+003 0.000000e+000 -4.668686e+003
      vertex   -8.815323e+003 2.000000e+002 -4.668686e+003
      vertex   9.184677e+003 2.000000e+002 -4.668686e+003
    endloop
  endfacet
  facet normal -1.000000e+000 -0.000000e+000 -1.776357e-016
    outer loop
      vertex   -8.815323e+003 2.000000e+002 -4.668686e+003
      vertex   -8.815323e+003 0.000000e+000 -4.668686e+003
      vertex   -8.815323e+003 0.000000e+000 5.331314e+003
    endloop
  endfacet
  facet normal -1.000000e+000 0.000000e+000 -1.776357e-016
    outer loop
      vertex   -8.815323e+003 0.000000e+000 5.331314e+003
      vertex   -8.815323e+003 2.000000e+002 5.331314e+003
      vertex   -8.815323e+003 2.000000e+002 -4.668686e+003
    endloop
  endfacet
  facet normal 0.000000e+000 1.000000e+000 -0.000000e+000
    outer loop
      vertex   -8.815323e+003 2.000000e+002 -4.668686e+003
      vertex   -8.815323e+003 2.000000e+002 5.331314e+003
      vertex   9.184677e+003 2.000000e+002 5.331314e+003
    endloop
  endfacet
  facet normal 0.000000e+000 1.000000e+000 0.000000e+000
    outer loop
      vertex   9.184677e+003 2.000000e+002 5.331314e+003
      vertex   9.184677e+003 2.000000e+002 -4.668686e+003
      vertex   -8.815323e+003 2.000000e+002 -4.668686e+003
    endloop
  endfacet
  facet normal 0.000000e+000 -1.000000e+000 0.000000e+000
    outer loop
      vertex   9.184677e+003 0.000000e+000 5.331314e+003
      vertex   -8.815323e+003 0.000000e+000 5.331314e+003
      vertex   -8.815323e+003 0.000000e+000 -4.668686e+003
    endloop
  endfacet
  facet normal 0.000000e+000 -1.000000e+000 0.000000e+000
    outer loop
      vertex   -8.815323e+003 0.000000e+000 -4.668686e+003
      vertex   9.184677e+003 0.000000e+000 -4.668686e+003
      vertex   9.184677e+003 0.000000e+000 5.331314e+003
    endloop
  endfacet
endsolid
