solid Eje
  facet normal 0.000000e+000 -1.000000e+000 0.000000e+000
    outer loop
      vertex   0.000000e+000 -2.213500e+003 0.000000e+000
      vertex   -2.223131e+001 -2.213500e+003 6.108002e+001
      vertex   -4.178119e+001 -2.213500e+003 4.979289e+001
    endloop
  endfacet
  facet normal 0.000000e+000 -1.000000e+000 -0.000000e+000
    outer loop
      vertex   -4.178119e+001 -2.213500e+003 4.979289e+001
      vertex   -5.629165e+001 -2.213500e+003 3.250000e+001
      vertex   0.000000e+000 -2.213500e+003 0.000000e+000
    endloop
  endfacet
  facet normal 0.000000e+000 -1.000000e+000 -0.000000e+000
    outer loop
      vertex   -5.629165e+001 -2.213500e+003 3.250000e+001
      vertex   -6.401250e+001 -2.213500e+003 1.128713e+001
      vertex   0.000000e+000 -2.213500e+003 0.000000e+000
    endloop
  endfacet
  facet normal 0.000000e+000 -1.000000e+000 -0.000000e+000
    outer loop
      vertex   -6.401250e+001 -2.213500e+003 1.128713e+001
      vertex   -6.401250e+001 -2.213500e+003 -1.128713e+001
      vertex   0.000000e+000 -2.213500e+003 0.000000e+000
    endloop
  endfacet
  facet normal 0.000000e+000 -1.000000e+000 0.000000e+000
    outer loop
      vertex   -6.401250e+001 -2.213500e+003 -1.128713e+001
      vertex   -5.629165e+001 -2.213500e+003 -3.250000e+001
      vertex   0.000000e+000 -2.213500e+003 0.000000e+000
    endloop
  endfacet
  facet normal 0.000000e+000 -1.000000e+000 0.000000e+000
    outer loop
      vertex   -5.629165e+001 -2.213500e+003 -3.250000e+001
      vertex   -4.178119e+001 -2.213500e+003 -4.979289e+001
      vertex   0.000000e+000 -2.213500e+003 0.000000e+000
    endloop
  endfacet
  facet normal 0.000000e+000 -1.000000e+000 0.000000e+000
    outer loop
      vertex   -4.178119e+001 -2.213500e+003 -4.979289e+001
      vertex   -2.223131e+001 -2.213500e+003 -6.108002e+001
      vertex   0.000000e+000 -2.213500e+003 0.000000e+000
    endloop
  endfacet
  facet normal 0.000000e+000 -1.000000e+000 0.000000e+000
    outer loop
      vertex   -2.223131e+001 -2.213500e+003 -6.108002e+001
      vertex   0.000000e+000 -2.213500e+003 -6.500000e+001
      vertex   0.000000e+000 -2.213500e+003 0.000000e+000
    endloop
  endfacet
  facet normal 0.000000e+000 -1.000000e+000 0.000000e+000
    outer loop
      vertex   0.000000e+000 -2.213500e+003 -6.500000e+001
      vertex   2.223131e+001 -2.213500e+003 -6.108002e+001
      vertex   0.000000e+000 -2.213500e+003 0.000000e+000
    endloop
  endfacet
  facet normal 0.000000e+000 -1.000000e+000 0.000000e+000
    outer loop
      vertex   2.223131e+001 -2.213500e+003 -6.108002e+001
      vertex   4.178119e+001 -2.213500e+003 -4.979289e+001
      vertex   0.000000e+000 -2.213500e+003 0.000000e+000
    endloop
  endfacet
  facet normal 0.000000e+000 -1.000000e+000 0.000000e+000
    outer loop
      vertex   4.178119e+001 -2.213500e+003 -4.979289e+001
      vertex   5.629165e+001 -2.213500e+003 -3.250000e+001
      vertex   0.000000e+000 -2.213500e+003 0.000000e+000
    endloop
  endfacet
  facet normal 0.000000e+000 -1.000000e+000 0.000000e+000
    outer loop
      vertex   5.629165e+001 -2.213500e+003 -3.250000e+001
      vertex   6.401250e+001 -2.213500e+003 -1.128713e+001
      vertex   0.000000e+000 -2.213500e+003 0.000000e+000
    endloop
  endfacet
  facet normal 0.000000e+000 -1.000000e+000 0.000000e+000
    outer loop
      vertex   6.401250e+001 -2.213500e+003 -1.128713e+001
      vertex   6.401250e+001 -2.213500e+003 1.128713e+001
      vertex   0.000000e+000 -2.213500e+003 0.000000e+000
    endloop
  endfacet
  facet normal -0.000000e+000 -1.000000e+000 0.000000e+000
    outer loop
      vertex   6.401250e+001 -2.213500e+003 1.128713e+001
      vertex   5.629165e+001 -2.213500e+003 3.250000e+001
      vertex   0.000000e+000 -2.213500e+003 0.000000e+000
    endloop
  endfacet
  facet normal -0.000000e+000 -1.000000e+000 0.000000e+000
    outer loop
      vertex   5.629165e+001 -2.213500e+003 3.250000e+001
      vertex   4.178119e+001 -2.213500e+003 4.979289e+001
      vertex   0.000000e+000 -2.213500e+003 0.000000e+000
    endloop
  endfacet
  facet normal -0.000000e+000 -1.000000e+000 0.000000e+000
    outer loop
      vertex   4.178119e+001 -2.213500e+003 4.979289e+001
      vertex   2.223131e+001 -2.213500e+003 6.108002e+001
      vertex   0.000000e+000 -2.213500e+003 0.000000e+000
    endloop
  endfacet
  facet normal -0.000000e+000 -1.000000e+000 0.000000e+000
    outer loop
      vertex   2.223131e+001 -2.213500e+003 6.108002e+001
      vertex   7.960204e-015 -2.213500e+003 6.500000e+001
      vertex   0.000000e+000 -2.213500e+003 0.000000e+000
    endloop
  endfacet
  facet normal 0.000000e+000 -1.000000e+000 0.000000e+000
    outer loop
      vertex   7.960204e-015 -2.213500e+003 6.500000e+001
      vertex   -2.223131e+001 -2.213500e+003 6.108002e+001
      vertex   0.000000e+000 -2.213500e+003 0.000000e+000
    endloop
  endfacet
  facet normal 1.736482e-001 0.000000e+000 -9.848078e-001
    outer loop
      vertex   0.000000e+000 -2.213500e+003 -6.500000e+001
      vertex   0.000000e+000 2.213500e+003 -6.500000e+001
      vertex   2.223131e+001 2.213500e+003 -6.108002e+001
    endloop
  endfacet
  facet normal 5.000000e-001 0.000000e+000 -8.660254e-001
    outer loop
      vertex   2.223131e+001 -2.213500e+003 -6.108002e+001
      vertex   2.223131e+001 2.213500e+003 -6.108002e+001
      vertex   4.178119e+001 2.213500e+003 -4.979289e+001
    endloop
  endfacet
  facet normal 7.660444e-001 0.000000e+000 -6.427876e-001
    outer loop
      vertex   4.178119e+001 -2.213500e+003 -4.979289e+001
      vertex   4.178119e+001 2.213500e+003 -4.979289e+001
      vertex   5.629165e+001 2.213500e+003 -3.250000e+001
    endloop
  endfacet
  facet normal 9.396926e-001 0.000000e+000 -3.420201e-001
    outer loop
      vertex   5.629165e+001 -2.213500e+003 -3.250000e+001
      vertex   5.629165e+001 2.213500e+003 -3.250000e+001
      vertex   6.401250e+001 2.213500e+003 -1.128713e+001
    endloop
  endfacet
  facet normal 1.000000e+000 0.000000e+000 0.000000e+000
    outer loop
      vertex   6.401250e+001 -2.213500e+003 -1.128713e+001
      vertex   6.401250e+001 2.213500e+003 -1.128713e+001
      vertex   6.401250e+001 2.213500e+003 1.128713e+001
    endloop
  endfacet
  facet normal 9.396926e-001 -0.000000e+000 3.420201e-001
    outer loop
      vertex   6.401250e+001 -2.213500e+003 1.128713e+001
      vertex   6.401250e+001 2.213500e+003 1.128713e+001
      vertex   5.629165e+001 2.213500e+003 3.250000e+001
    endloop
  endfacet
  facet normal 7.660444e-001 -0.000000e+000 6.427876e-001
    outer loop
      vertex   5.629165e+001 -2.213500e+003 3.250000e+001
      vertex   5.629165e+001 2.213500e+003 3.250000e+001
      vertex   4.178119e+001 2.213500e+003 4.979289e+001
    endloop
  endfacet
  facet normal 5.000000e-001 -0.000000e+000 8.660254e-001
    outer loop
      vertex   4.178119e+001 -2.213500e+003 4.979289e+001
      vertex   4.178119e+001 2.213500e+003 4.979289e+001
      vertex   2.223131e+001 2.213500e+003 6.108002e+001
    endloop
  endfacet
  facet normal -5.000000e-001 0.000000e+000 8.660254e-001
    outer loop
      vertex   -2.223131e+001 -2.213500e+003 6.108002e+001
      vertex   -2.223131e+001 2.213500e+003 6.108002e+001
      vertex   -4.178119e+001 2.213500e+003 4.979289e+001
    endloop
  endfacet
  facet normal -7.660444e-001 0.000000e+000 6.427876e-001
    outer loop
      vertex   -4.178119e+001 -2.213500e+003 4.979289e+001
      vertex   -4.178119e+001 2.213500e+003 4.979289e+001
      vertex   -5.629165e+001 2.213500e+003 3.250000e+001
    endloop
  endfacet
  facet normal -9.396926e-001 0.000000e+000 3.420201e-001
    outer loop
      vertex   -5.629165e+001 -2.213500e+003 3.250000e+001
      vertex   -5.629165e+001 2.213500e+003 3.250000e+001
      vertex   -6.401250e+001 2.213500e+003 1.128713e+001
    endloop
  endfacet
  facet normal -1.000000e+000 0.000000e+000 6.147615e-016
    outer loop
      vertex   -6.401250e+001 -2.213500e+003 1.128713e+001
      vertex   -6.401250e+001 2.213500e+003 1.128713e+001
      vertex   -6.401250e+001 2.213500e+003 -1.128713e+001
    endloop
  endfacet
  facet normal -9.396926e-001 0.000000e+000 -3.420201e-001
    outer loop
      vertex   -6.401250e+001 -2.213500e+003 -1.128713e+001
      vertex   -6.401250e+001 2.213500e+003 -1.128713e+001
      vertex   -5.629165e+001 2.213500e+003 -3.250000e+001
    endloop
  endfacet
  facet normal -7.660444e-001 0.000000e+000 -6.427876e-001
    outer loop
      vertex   -5.629165e+001 -2.213500e+003 -3.250000e+001
      vertex   -5.629165e+001 2.213500e+003 -3.250000e+001
      vertex   -4.178119e+001 2.213500e+003 -4.979289e+001
    endloop
  endfacet
  facet normal -5.000000e-001 0.000000e+000 -8.660254e-001
    outer loop
      vertex   -4.178119e+001 -2.213500e+003 -4.979289e+001
      vertex   -4.178119e+001 2.213500e+003 -4.979289e+001
      vertex   -2.223131e+001 2.213500e+003 -6.108002e+001
    endloop
  endfacet
  facet normal -1.736482e-001 0.000000e+000 -9.848078e-001
    outer loop
      vertex   -2.223131e+001 -2.213500e+003 -6.108002e+001
      vertex   -2.223131e+001 2.213500e+003 -6.108002e+001
      vertex   0.000000e+000 2.213500e+003 -6.500000e+001
    endloop
  endfacet
  facet normal 1.736081e-001 -2.149402e-002 9.845802e-001
    outer loop
      vertex   7.960204e-015 -2.213500e+003 6.500000e+001
      vertex   2.223131e+001 -2.213500e+003 6.108002e+001
      vertex   5.407797e+000 -2.180143e+003 6.477465e+001
    endloop
  endfacet
  facet normal 2.041725e-001 -1.664286e-002 9.787934e-001
    outer loop
      vertex   2.223131e+001 -2.213500e+003 6.108002e+001
      vertex   1.415780e+001 -2.173786e+003 6.343939e+001
      vertex   1.029222e+001 -2.177653e+003 6.417998e+001
    endloop
  endfacet
  facet normal 1.402548e-001 -3.884455e-002 9.893532e-001
    outer loop
      vertex   1.029222e+001 -2.177653e+003 6.417998e+001
      vertex   5.407797e+000 -2.180143e+003 6.477465e+001
      vertex   2.223131e+001 -2.213500e+003 6.108002e+001
    endloop
  endfacet
  facet normal 2.495171e-001 -6.803991e-003 9.683465e-001
    outer loop
      vertex   2.223131e+001 -2.213500e+003 6.108002e+001
      vertex   1.663970e+001 -2.168919e+003 6.283407e+001
      vertex   1.415780e+001 -2.173786e+003 6.343939e+001
    endloop
  endfacet
  facet normal 3.058490e-001 1.622941e-017 9.520800e-001
    outer loop
      vertex   2.223131e+001 2.213500e+003 6.108002e+001
      vertex   1.750000e+001 2.163500e+003 6.259992e+001
      vertex   1.750000e+001 -2.163500e+003 6.259992e+001
    endloop
  endfacet
  facet normal 3.058490e-001 0.000000e+000 9.520800e-001
    outer loop
      vertex   1.750000e+001 -2.163500e+003 6.259992e+001
      vertex   2.223131e+001 -2.213500e+003 6.108002e+001
      vertex   2.223131e+001 2.213500e+003 6.108002e+001
    endloop
  endfacet
  facet normal 2.789140e-001 2.798993e-003 9.603120e-001
    outer loop
      vertex   2.223131e+001 2.213500e+003 6.108002e+001
      vertex   1.663494e+001 2.168934e+003 6.283533e+001
      vertex   1.750000e+001 2.163500e+003 6.259992e+001
    endloop
  endfacet
  facet normal 1.402654e-001 3.883905e-002 9.893519e-001
    outer loop
      vertex   2.223131e+001 2.213500e+003 6.108002e+001
      vertex   5.407797e+000 2.180143e+003 6.477465e+001
      vertex   1.029365e+001 2.177652e+003 6.417975e+001
    endloop
  endfacet
  facet normal 5.469261e-002 8.263235e-002 9.950782e-001
    outer loop
      vertex   2.223131e+001 2.213500e+003 6.108002e+001
      vertex   1.381384e-002 2.181000e+003 6.500000e+001
      vertex   5.407797e+000 2.180143e+003 6.477465e+001
    endloop
  endfacet
  facet normal 2.041828e-001 1.664064e-002 9.787913e-001
    outer loop
      vertex   1.029365e+001 2.177652e+003 6.417975e+001
      vertex   1.415780e+001 2.173786e+003 6.343939e+001
      vertex   2.223131e+001 2.213500e+003 6.108002e+001
    endloop
  endfacet
  facet normal -4.152558e-002 -1.769521e-005 9.991374e-001
    outer loop
      vertex   2.388061e-014 2.213500e+003 6.500000e+001
      vertex   2.369089e-005 2.180998e+003 6.499943e+001
      vertex   1.381384e-002 2.181000e+003 6.500000e+001
    endloop
  endfacet
  facet normal 1.736482e-001 7.376315e-005 9.848078e-001
    outer loop
      vertex   1.381384e-002 2.181000e+003 6.500000e+001
      vertex   2.223131e+001 2.213500e+003 6.108002e+001
      vertex   2.388061e-014 2.213500e+003 6.500000e+001
    endloop
  endfacet
  facet normal 2.494814e-001 6.811806e-003 9.683556e-001
    outer loop
      vertex   1.415780e+001 2.173786e+003 6.343939e+001
      vertex   1.663494e+001 2.168934e+003 6.283533e+001
      vertex   2.223131e+001 2.213500e+003 6.108002e+001
    endloop
  endfacet
  facet normal 2.789653e-001 -2.793681e-003 9.602971e-001
    outer loop
      vertex   1.750000e+001 -2.163500e+003 6.259992e+001
      vertex   1.663970e+001 -2.168919e+003 6.283407e+001
      vertex   2.223131e+001 -2.213500e+003 6.108002e+001
    endloop
  endfacet
  facet normal -1.736081e-001 2.149402e-002 9.845802e-001
    outer loop
      vertex   2.388061e-014 2.213500e+003 6.500000e+001
      vertex   -2.223131e+001 2.213500e+003 6.108002e+001
      vertex   -5.407797e+000 2.180143e+003 6.477465e+001
    endloop
  endfacet
  facet normal -2.041725e-001 1.664286e-002 9.787934e-001
    outer loop
      vertex   -2.223131e+001 2.213500e+003 6.108002e+001
      vertex   -1.415780e+001 2.173786e+003 6.343939e+001
      vertex   -1.029222e+001 2.177653e+003 6.417998e+001
    endloop
  endfacet
  facet normal -1.402548e-001 3.884455e-002 9.893532e-001
    outer loop
      vertex   -1.029222e+001 2.177653e+003 6.417998e+001
      vertex   -5.407797e+000 2.180143e+003 6.477465e+001
      vertex   -2.223131e+001 2.213500e+003 6.108002e+001
    endloop
  endfacet
  facet normal -2.495171e-001 6.803991e-003 9.683465e-001
    outer loop
      vertex   -2.223131e+001 2.213500e+003 6.108002e+001
      vertex   -1.663970e+001 2.168919e+003 6.283407e+001
      vertex   -1.415780e+001 2.173786e+003 6.343939e+001
    endloop
  endfacet
  facet normal -3.058490e-001 -7.878355e-020 9.520800e-001
    outer loop
      vertex   -2.223131e+001 -2.213500e+003 6.108002e+001
      vertex   -1.750000e+001 -2.163500e+003 6.259992e+001
      vertex   -1.750000e+001 2.163500e+003 6.259992e+001
    endloop
  endfacet
  facet normal -3.058490e-001 0.000000e+000 9.520800e-001
    outer loop
      vertex   -1.750000e+001 2.163500e+003 6.259992e+001
      vertex   -2.223131e+001 2.213500e+003 6.108002e+001
      vertex   -2.223131e+001 -2.213500e+003 6.108002e+001
    endloop
  endfacet
  facet normal -2.789140e-001 -2.798993e-003 9.603120e-001
    outer loop
      vertex   -2.223131e+001 -2.213500e+003 6.108002e+001
      vertex   -1.663494e+001 -2.168934e+003 6.283533e+001
      vertex   -1.750000e+001 -2.163500e+003 6.259992e+001
    endloop
  endfacet
  facet normal -1.402654e-001 -3.883905e-002 9.893519e-001
    outer loop
      vertex   -2.223131e+001 -2.213500e+003 6.108002e+001
      vertex   -5.407797e+000 -2.180143e+003 6.477465e+001
      vertex   -1.029365e+001 -2.177652e+003 6.417975e+001
    endloop
  endfacet
  facet normal -5.469261e-002 -8.263235e-002 9.950782e-001
    outer loop
      vertex   -2.223131e+001 -2.213500e+003 6.108002e+001
      vertex   -1.381384e-002 -2.181000e+003 6.500000e+001
      vertex   -5.407797e+000 -2.180143e+003 6.477465e+001
    endloop
  endfacet
  facet normal -2.041828e-001 -1.664064e-002 9.787913e-001
    outer loop
      vertex   -1.029365e+001 -2.177652e+003 6.417975e+001
      vertex   -1.415780e+001 -2.173786e+003 6.343939e+001
      vertex   -2.223131e+001 -2.213500e+003 6.108002e+001
    endloop
  endfacet
  facet normal 4.152558e-002 1.769521e-005 9.991374e-001
    outer loop
      vertex   7.960204e-015 -2.213500e+003 6.500000e+001
      vertex   -2.369089e-005 -2.180998e+003 6.499943e+001
      vertex   -1.381384e-002 -2.181000e+003 6.500000e+001
    endloop
  endfacet
  facet normal -1.736482e-001 -7.376315e-005 9.848078e-001
    outer loop
      vertex   -1.381384e-002 -2.181000e+003 6.500000e+001
      vertex   -2.223131e+001 -2.213500e+003 6.108002e+001
      vertex   7.960204e-015 -2.213500e+003 6.500000e+001
    endloop
  endfacet
  facet normal -2.494814e-001 -6.811806e-003 9.683556e-001
    outer loop
      vertex   -1.415780e+001 -2.173786e+003 6.343939e+001
      vertex   -1.663494e+001 -2.168934e+003 6.283533e+001
      vertex   -2.223131e+001 -2.213500e+003 6.108002e+001
    endloop
  endfacet
  facet normal -2.789653e-001 2.793681e-003 9.602971e-001
    outer loop
      vertex   -1.750000e+001 2.163500e+003 6.259992e+001
      vertex   -1.663970e+001 2.168919e+003 6.283407e+001
      vertex   -2.223131e+001 2.213500e+003 6.108002e+001
    endloop
  endfacet
  facet normal -4.152558e-002 -1.769521e-005 9.991374e-001
    outer loop
      vertex   -5.407797e+000 2.180143e+003 6.477465e+001
      vertex   2.369089e-005 2.180998e+003 6.499943e+001
      vertex   2.388061e-014 2.213500e+003 6.500000e+001
    endloop
  endfacet
  facet normal 4.152558e-002 1.769521e-005 9.991374e-001
    outer loop
      vertex   5.407797e+000 -2.180143e+003 6.477465e+001
      vertex   -2.369089e-005 -2.180998e+003 6.499943e+001
      vertex   7.960204e-015 -2.213500e+003 6.500000e+001
    endloop
  endfacet
  facet normal -1.736482e-001 -0.000000e+000 -9.848078e-001
    outer loop
      vertex   0.000000e+000 2.213500e+003 -6.500000e+001
      vertex   0.000000e+000 -2.213500e+003 -6.500000e+001
      vertex   -2.223131e+001 -2.213500e+003 -6.108002e+001
    endloop
  endfacet
  facet normal -5.000000e-001 -0.000000e+000 -8.660254e-001
    outer loop
      vertex   -2.223131e+001 2.213500e+003 -6.108002e+001
      vertex   -2.223131e+001 -2.213500e+003 -6.108002e+001
      vertex   -4.178119e+001 -2.213500e+003 -4.979289e+001
    endloop
  endfacet
  facet normal -7.660444e-001 -0.000000e+000 -6.427876e-001
    outer loop
      vertex   -4.178119e+001 2.213500e+003 -4.979289e+001
      vertex   -4.178119e+001 -2.213500e+003 -4.979289e+001
      vertex   -5.629165e+001 -2.213500e+003 -3.250000e+001
    endloop
  endfacet
  facet normal -9.396926e-001 -0.000000e+000 -3.420201e-001
    outer loop
      vertex   -5.629165e+001 2.213500e+003 -3.250000e+001
      vertex   -5.629165e+001 -2.213500e+003 -3.250000e+001
      vertex   -6.401250e+001 -2.213500e+003 -1.128713e+001
    endloop
  endfacet
  facet normal -1.000000e+000 0.000000e+000 6.147615e-016
    outer loop
      vertex   -6.401250e+001 2.213500e+003 -1.128713e+001
      vertex   -6.401250e+001 -2.213500e+003 -1.128713e+001
      vertex   -6.401250e+001 -2.213500e+003 1.128713e+001
    endloop
  endfacet
  facet normal -9.396926e-001 0.000000e+000 3.420201e-001
    outer loop
      vertex   -6.401250e+001 2.213500e+003 1.128713e+001
      vertex   -6.401250e+001 -2.213500e+003 1.128713e+001
      vertex   -5.629165e+001 -2.213500e+003 3.250000e+001
    endloop
  endfacet
  facet normal -7.660444e-001 0.000000e+000 6.427876e-001
    outer loop
      vertex   -5.629165e+001 2.213500e+003 3.250000e+001
      vertex   -5.629165e+001 -2.213500e+003 3.250000e+001
      vertex   -4.178119e+001 -2.213500e+003 4.979289e+001
    endloop
  endfacet
  facet normal -5.000000e-001 0.000000e+000 8.660254e-001
    outer loop
      vertex   -4.178119e+001 2.213500e+003 4.979289e+001
      vertex   -4.178119e+001 -2.213500e+003 4.979289e+001
      vertex   -2.223131e+001 -2.213500e+003 6.108002e+001
    endloop
  endfacet
  facet normal 5.000000e-001 0.000000e+000 8.660254e-001
    outer loop
      vertex   2.223131e+001 2.213500e+003 6.108002e+001
      vertex   2.223131e+001 -2.213500e+003 6.108002e+001
      vertex   4.178119e+001 -2.213500e+003 4.979289e+001
    endloop
  endfacet
  facet normal 7.660444e-001 0.000000e+000 6.427876e-001
    outer loop
      vertex   4.178119e+001 2.213500e+003 4.979289e+001
      vertex   4.178119e+001 -2.213500e+003 4.979289e+001
      vertex   5.629165e+001 -2.213500e+003 3.250000e+001
    endloop
  endfacet
  facet normal 9.396926e-001 0.000000e+000 3.420201e-001
    outer loop
      vertex   5.629165e+001 2.213500e+003 3.250000e+001
      vertex   5.629165e+001 -2.213500e+003 3.250000e+001
      vertex   6.401250e+001 -2.213500e+003 1.128713e+001
    endloop
  endfacet
  facet normal 1.000000e+000 0.000000e+000 0.000000e+000
    outer loop
      vertex   6.401250e+001 2.213500e+003 1.128713e+001
      vertex   6.401250e+001 -2.213500e+003 1.128713e+001
      vertex   6.401250e+001 -2.213500e+003 -1.128713e+001
    endloop
  endfacet
  facet normal 9.396926e-001 0.000000e+000 -3.420201e-001
    outer loop
      vertex   6.401250e+001 2.213500e+003 -1.128713e+001
      vertex   6.401250e+001 -2.213500e+003 -1.128713e+001
      vertex   5.629165e+001 -2.213500e+003 -3.250000e+001
    endloop
  endfacet
  facet normal 7.660444e-001 0.000000e+000 -6.427876e-001
    outer loop
      vertex   5.629165e+001 2.213500e+003 -3.250000e+001
      vertex   5.629165e+001 -2.213500e+003 -3.250000e+001
      vertex   4.178119e+001 -2.213500e+003 -4.979289e+001
    endloop
  endfacet
  facet normal 5.000000e-001 0.000000e+000 -8.660254e-001
    outer loop
      vertex   4.178119e+001 2.213500e+003 -4.979289e+001
      vertex   4.178119e+001 -2.213500e+003 -4.979289e+001
      vertex   2.223131e+001 -2.213500e+003 -6.108002e+001
    endloop
  endfacet
  facet normal 1.736482e-001 0.000000e+000 -9.848078e-001
    outer loop
      vertex   2.223131e+001 2.213500e+003 -6.108002e+001
      vertex   2.223131e+001 -2.213500e+003 -6.108002e+001
      vertex   0.000000e+000 -2.213500e+003 -6.500000e+001
    endloop
  endfacet
  facet normal 0.000000e+000 1.000000e+000 0.000000e+000
    outer loop
      vertex   0.000000e+000 2.213500e+003 0.000000e+000
      vertex   2.223131e+001 2.213500e+003 6.108002e+001
      vertex   4.178119e+001 2.213500e+003 4.979289e+001
    endloop
  endfacet
  facet normal 0.000000e+000 1.000000e+000 0.000000e+000
    outer loop
      vertex   4.178119e+001 2.213500e+003 4.979289e+001
      vertex   5.629165e+001 2.213500e+003 3.250000e+001
      vertex   0.000000e+000 2.213500e+003 0.000000e+000
    endloop
  endfacet
  facet normal 0.000000e+000 1.000000e+000 0.000000e+000
    outer loop
      vertex   5.629165e+001 2.213500e+003 3.250000e+001
      vertex   6.401250e+001 2.213500e+003 1.128713e+001
      vertex   0.000000e+000 2.213500e+003 0.000000e+000
    endloop
  endfacet
  facet normal 0.000000e+000 1.000000e+000 0.000000e+000
    outer loop
      vertex   6.401250e+001 2.213500e+003 1.128713e+001
      vertex   6.401250e+001 2.213500e+003 -1.128713e+001
      vertex   0.000000e+000 2.213500e+003 0.000000e+000
    endloop
  endfacet
  facet normal 0.000000e+000 1.000000e+000 0.000000e+000
    outer loop
      vertex   6.401250e+001 2.213500e+003 -1.128713e+001
      vertex   5.629165e+001 2.213500e+003 -3.250000e+001
      vertex   0.000000e+000 2.213500e+003 0.000000e+000
    endloop
  endfacet
  facet normal 0.000000e+000 1.000000e+000 0.000000e+000
    outer loop
      vertex   5.629165e+001 2.213500e+003 -3.250000e+001
      vertex   4.178119e+001 2.213500e+003 -4.979289e+001
      vertex   0.000000e+000 2.213500e+003 0.000000e+000
    endloop
  endfacet
  facet normal 0.000000e+000 1.000000e+000 0.000000e+000
    outer loop
      vertex   4.178119e+001 2.213500e+003 -4.979289e+001
      vertex   2.223131e+001 2.213500e+003 -6.108002e+001
      vertex   0.000000e+000 2.213500e+003 0.000000e+000
    endloop
  endfacet
  facet normal 0.000000e+000 1.000000e+000 0.000000e+000
    outer loop
      vertex   2.223131e+001 2.213500e+003 -6.108002e+001
      vertex   0.000000e+000 2.213500e+003 -6.500000e+001
      vertex   0.000000e+000 2.213500e+003 0.000000e+000
    endloop
  endfacet
  facet normal 0.000000e+000 1.000000e+000 -0.000000e+000
    outer loop
      vertex   0.000000e+000 2.213500e+003 -6.500000e+001
      vertex   -2.223131e+001 2.213500e+003 -6.108002e+001
      vertex   0.000000e+000 2.213500e+003 0.000000e+000
    endloop
  endfacet
  facet normal 0.000000e+000 1.000000e+000 -0.000000e+000
    outer loop
      vertex   -2.223131e+001 2.213500e+003 -6.108002e+001
      vertex   -4.178119e+001 2.213500e+003 -4.979289e+001
      vertex   0.000000e+000 2.213500e+003 0.000000e+000
    endloop
  endfacet
  facet normal 0.000000e+000 1.000000e+000 -0.000000e+000
    outer loop
      vertex   -4.178119e+001 2.213500e+003 -4.979289e+001
      vertex   -5.629165e+001 2.213500e+003 -3.250000e+001
      vertex   0.000000e+000 2.213500e+003 0.000000e+000
    endloop
  endfacet
  facet normal 0.000000e+000 1.000000e+000 -0.000000e+000
    outer loop
      vertex   -5.629165e+001 2.213500e+003 -3.250000e+001
      vertex   -6.401250e+001 2.213500e+003 -1.128713e+001
      vertex   0.000000e+000 2.213500e+003 0.000000e+000
    endloop
  endfacet
  facet normal 0.000000e+000 1.000000e+000 0.000000e+000
    outer loop
      vertex   -6.401250e+001 2.213500e+003 -1.128713e+001
      vertex   -6.401250e+001 2.213500e+003 1.128713e+001
      vertex   0.000000e+000 2.213500e+003 0.000000e+000
    endloop
  endfacet
  facet normal -0.000000e+000 1.000000e+000 0.000000e+000
    outer loop
      vertex   -6.401250e+001 2.213500e+003 1.128713e+001
      vertex   -5.629165e+001 2.213500e+003 3.250000e+001
      vertex   0.000000e+000 2.213500e+003 0.000000e+000
    endloop
  endfacet
  facet normal -0.000000e+000 1.000000e+000 0.000000e+000
    outer loop
      vertex   -5.629165e+001 2.213500e+003 3.250000e+001
      vertex   -4.178119e+001 2.213500e+003 4.979289e+001
      vertex   0.000000e+000 2.213500e+003 0.000000e+000
    endloop
  endfacet
  facet normal -0.000000e+000 1.000000e+000 0.000000e+000
    outer loop
      vertex   -4.178119e+001 2.213500e+003 4.979289e+001
      vertex   -2.223131e+001 2.213500e+003 6.108002e+001
      vertex   0.000000e+000 2.213500e+003 0.000000e+000
    endloop
  endfacet
  facet normal -0.000000e+000 1.000000e+000 0.000000e+000
    outer loop
      vertex   -2.223131e+001 2.213500e+003 6.108002e+001
      vertex   2.388061e-014 2.213500e+003 6.500000e+001
      vertex   0.000000e+000 2.213500e+003 0.000000e+000
    endloop
  endfacet
  facet normal 0.000000e+000 1.000000e+000 0.000000e+000
    outer loop
      vertex   2.388061e-014 2.213500e+003 6.500000e+001
      vertex   2.223131e+001 2.213500e+003 6.108002e+001
      vertex   0.000000e+000 2.213500e+003 0.000000e+000
    endloop
  endfacet
  facet normal 1.000000e+000 6.013601e-017 3.515135e-014
    outer loop
      vertex   -1.750000e+001 2.163500e+003 6.259992e+001
      vertex   -1.750000e+001 -2.163500e+003 6.259992e+001
      vertex   -1.750000e+001 -2.163500e+003 5.500000e+001
    endloop
  endfacet
  facet normal 1.000000e+000 1.218756e-016 0.000000e+000
    outer loop
      vertex   -1.750000e+001 -2.163500e+003 5.500000e+001
      vertex   -1.750000e+001 2.163500e+003 5.500000e+001
      vertex   -1.750000e+001 2.163500e+003 6.259992e+001
    endloop
  endfacet
  facet normal 0.000000e+000 0.000000e+000 1.000000e+000
    outer loop
      vertex   1.750000e+001 -2.163500e+003 5.500000e+001
      vertex   -5.407797e+000 -2.180143e+003 5.500000e+001
      vertex   5.407797e+000 -2.180143e+003 5.500000e+001
    endloop
  endfacet
  facet normal 0.000000e+000 0.000000e+000 1.000000e+000
    outer loop
      vertex   1.750000e+001 -2.163500e+003 5.500000e+001
      vertex   -1.750000e+001 -2.163500e+003 5.500000e+001
      vertex   -1.415780e+001 -2.173786e+003 5.500000e+001
    endloop
  endfacet
  facet normal 0.000000e+000 0.000000e+000 1.000000e+000
    outer loop
      vertex   -1.750000e+001 2.163500e+003 5.500000e+001
      vertex   5.407797e+000 2.180143e+003 5.500000e+001
      vertex   -5.407797e+000 2.180143e+003 5.500000e+001
    endloop
  endfacet
  facet normal 0.000000e+000 0.000000e+000 1.000000e+000
    outer loop
      vertex   -1.750000e+001 2.163500e+003 5.500000e+001
      vertex   1.750000e+001 2.163500e+003 5.500000e+001
      vertex   1.415780e+001 2.173786e+003 5.500000e+001
    endloop
  endfacet
  facet normal -0.000000e+000 0.000000e+000 1.000000e+000
    outer loop
      vertex   -1.415780e+001 -2.173786e+003 5.500000e+001
      vertex   -5.407797e+000 -2.180143e+003 5.500000e+001
      vertex   1.750000e+001 -2.163500e+003 5.500000e+001
    endloop
  endfacet
  facet normal 0.000000e+000 0.000000e+000 1.000000e+000
    outer loop
      vertex   -1.750000e+001 -2.163500e+003 5.500000e+001
      vertex   1.750000e+001 -2.163500e+003 5.500000e+001
      vertex   1.750000e+001 2.163500e+003 5.500000e+001
    endloop
  endfacet
  facet normal 0.000000e+000 0.000000e+000 1.000000e+000
    outer loop
      vertex   1.415780e+001 2.173786e+003 5.500000e+001
      vertex   5.407797e+000 2.180143e+003 5.500000e+001
      vertex   -1.750000e+001 2.163500e+003 5.500000e+001
    endloop
  endfacet
  facet normal 0.000000e+000 0.000000e+000 1.000000e+000
    outer loop
      vertex   1.750000e+001 2.163500e+003 5.500000e+001
      vertex   -1.750000e+001 2.163500e+003 5.500000e+001
      vertex   -1.750000e+001 -2.163500e+003 5.500000e+001
    endloop
  endfacet
  facet normal 0.000000e+000 0.000000e+000 1.000000e+000
    outer loop
      vertex   5.407797e+000 -2.180143e+003 5.500000e+001
      vertex   1.415780e+001 -2.173786e+003 5.500000e+001
      vertex   1.750000e+001 -2.163500e+003 5.500000e+001
    endloop
  endfacet
  facet normal 0.000000e+000 0.000000e+000 1.000000e+000
    outer loop
      vertex   -5.407797e+000 2.180143e+003 5.500000e+001
      vertex   -1.415780e+001 2.173786e+003 5.500000e+001
      vertex   -1.750000e+001 2.163500e+003 5.500000e+001
    endloop
  endfacet
  facet normal 9.875647e-001 1.572132e-001 3.471423e-014
    outer loop
      vertex   -1.750000e+001 -2.163500e+003 5.500000e+001
      vertex   -1.750000e+001 -2.163500e+003 6.259992e+001
      vertex   -1.663494e+001 -2.168934e+003 6.283533e+001
    endloop
  endfacet
  facet normal 9.454249e-001 3.071872e-001 1.086639e-001
    outer loop
      vertex   -1.663494e+001 -2.168934e+003 6.283533e+001
      vertex   -1.415780e+001 -2.173786e+003 5.500000e+001
      vertex   -1.750000e+001 -2.163500e+003 5.500000e+001
    endloop
  endfacet
  facet normal 7.072917e-001 7.069218e-001 -9.159212e-015
    outer loop
      vertex   -1.415780e+001 -2.173786e+003 5.500000e+001
      vertex   -1.415780e+001 -2.173786e+003 6.343939e+001
      vertex   -1.029365e+001 -2.177652e+003 6.417975e+001
    endloop
  endfacet
  facet normal 5.852433e-001 8.055183e-001 9.290058e-002
    outer loop
      vertex   -1.029365e+001 -2.177652e+003 6.417975e+001
      vertex   -5.407797e+000 -2.180143e+003 5.500000e+001
      vertex   -1.415780e+001 -2.173786e+003 5.500000e+001
    endloop
  endfacet
  facet normal 0.000000e+000 9.963701e-001 8.512747e-002
    outer loop
      vertex   5.407797e+000 -2.180143e+003 5.500000e+001
      vertex   -5.407797e+000 -2.180143e+003 5.500000e+001
      vertex   -2.369089e-005 -2.180998e+003 6.499943e+001
    endloop
  endfacet
  facet normal 1.568243e-001 9.876265e-001 4.313938e-016
    outer loop
      vertex   -5.407797e+000 -2.180143e+003 5.500000e+001
      vertex   -5.407797e+000 -2.180143e+003 6.477465e+001
      vertex   -1.381384e-002 -2.181000e+003 6.500000e+001
    endloop
  endfacet
  facet normal -1.473420e-001 9.755566e-001 1.630330e-001
    outer loop
      vertex   -1.381384e-002 -2.181000e+003 6.500000e+001
      vertex   -2.369089e-005 -2.180998e+003 6.499943e+001
      vertex   -5.407797e+000 -2.180143e+003 5.500000e+001
    endloop
  endfacet
  facet normal -5.852434e-001 8.055185e-001 9.289838e-002
    outer loop
      vertex   1.415780e+001 -2.173786e+003 5.500000e+001
      vertex   5.407797e+000 -2.180143e+003 5.500000e+001
      vertex   1.029222e+001 -2.177653e+003 6.417998e+001
    endloop
  endfacet
  facet normal -4.541788e-001 8.909106e-001 8.060383e-015
    outer loop
      vertex   5.407797e+000 -2.180143e+003 5.500000e+001
      vertex   5.407797e+000 -2.180143e+003 6.477465e+001
      vertex   1.029222e+001 -2.177653e+003 6.417998e+001
    endloop
  endfacet
  facet normal -9.454229e-001 3.071865e-001 1.086834e-001
    outer loop
      vertex   1.750000e+001 -2.163500e+003 5.500000e+001
      vertex   1.415780e+001 -2.173786e+003 5.500000e+001
      vertex   1.663970e+001 -2.168919e+003 6.283407e+001
    endloop
  endfacet
  facet normal -8.908476e-001 4.543023e-001 -1.080375e-014
    outer loop
      vertex   1.415780e+001 -2.173786e+003 5.500000e+001
      vertex   1.415780e+001 -2.173786e+003 6.343939e+001
      vertex   1.663970e+001 -2.168919e+003 6.283407e+001
    endloop
  endfacet
  facet normal -9.876335e-001 1.567801e-001 -1.714252e-014
    outer loop
      vertex   1.663970e+001 -2.168919e+003 6.283407e+001
      vertex   1.750000e+001 -2.163500e+003 6.259992e+001
      vertex   1.750000e+001 -2.163500e+003 5.500000e+001
    endloop
  endfacet
  facet normal -7.072562e-001 7.069574e-001 -8.590415e-015
    outer loop
      vertex   1.029222e+001 -2.177653e+003 6.417998e+001
      vertex   1.415780e+001 -2.173786e+003 6.343939e+001
      vertex   1.415780e+001 -2.173786e+003 5.500000e+001
    endloop
  endfacet
  facet normal -1.560446e-001 9.877500e-001 2.769885e-015
    outer loop
      vertex   -2.369089e-005 -2.180998e+003 6.499943e+001
      vertex   5.407797e+000 -2.180143e+003 6.477465e+001
      vertex   5.407797e+000 -2.180143e+003 5.500000e+001
    endloop
  endfacet
  facet normal 4.542235e-001 8.908877e-001 1.232470e-015
    outer loop
      vertex   -1.029365e+001 -2.177652e+003 6.417975e+001
      vertex   -5.407797e+000 -2.180143e+003 6.477465e+001
      vertex   -5.407797e+000 -2.180143e+003 5.500000e+001
    endloop
  endfacet
  facet normal 8.906483e-001 4.546929e-001 -1.153269e-014
    outer loop
      vertex   -1.663494e+001 -2.168934e+003 6.283533e+001
      vertex   -1.415780e+001 -2.173786e+003 6.343939e+001
      vertex   -1.415780e+001 -2.173786e+003 5.500000e+001
    endloop
  endfacet
  facet normal -1.000000e+000 -9.301036e-017 -4.565110e-016
    outer loop
      vertex   1.750000e+001 -2.163500e+003 6.259992e+001
      vertex   1.750000e+001 2.163500e+003 6.259992e+001
      vertex   1.750000e+001 2.163500e+003 5.500000e+001
    endloop
  endfacet
  facet normal -1.000000e+000 -1.226775e-016 -1.734742e-014
    outer loop
      vertex   1.750000e+001 2.163500e+003 5.500000e+001
      vertex   1.750000e+001 -2.163500e+003 5.500000e+001
      vertex   1.750000e+001 -2.163500e+003 6.259992e+001
    endloop
  endfacet
  facet normal -9.875647e-001 -1.572132e-001 -4.508341e-016
    outer loop
      vertex   1.750000e+001 2.163500e+003 5.500000e+001
      vertex   1.750000e+001 2.163500e+003 6.259992e+001
      vertex   1.663494e+001 2.168934e+003 6.283533e+001
    endloop
  endfacet
  facet normal -9.454249e-001 -3.071872e-001 1.086639e-001
    outer loop
      vertex   1.663494e+001 2.168934e+003 6.283533e+001
      vertex   1.415780e+001 2.173786e+003 5.500000e+001
      vertex   1.750000e+001 2.163500e+003 5.500000e+001
    endloop
  endfacet
  facet normal -7.072917e-001 -7.069218e-001 -6.687678e-015
    outer loop
      vertex   1.415780e+001 2.173786e+003 5.500000e+001
      vertex   1.415780e+001 2.173786e+003 6.343939e+001
      vertex   1.029365e+001 2.177652e+003 6.417975e+001
    endloop
  endfacet
  facet normal -5.852433e-001 -8.055183e-001 9.290058e-002
    outer loop
      vertex   1.029365e+001 2.177652e+003 6.417975e+001
      vertex   5.407797e+000 2.180143e+003 5.500000e+001
      vertex   1.415780e+001 2.173786e+003 5.500000e+001
    endloop
  endfacet
  facet normal 0.000000e+000 -9.963701e-001 8.512747e-002
    outer loop
      vertex   -5.407797e+000 2.180143e+003 5.500000e+001
      vertex   5.407797e+000 2.180143e+003 5.500000e+001
      vertex   2.369089e-005 2.180998e+003 6.499943e+001
    endloop
  endfacet
  facet normal -1.568243e-001 -9.876265e-001 1.809071e-016
    outer loop
      vertex   5.407797e+000 2.180143e+003 5.500000e+001
      vertex   5.407797e+000 2.180143e+003 6.477465e+001
      vertex   1.381384e-002 2.181000e+003 6.500000e+001
    endloop
  endfacet
  facet normal 1.473420e-001 -9.755566e-001 1.630330e-001
    outer loop
      vertex   1.381384e-002 2.181000e+003 6.500000e+001
      vertex   2.369089e-005 2.180998e+003 6.499943e+001
      vertex   5.407797e+000 2.180143e+003 5.500000e+001
    endloop
  endfacet
  facet normal 5.852434e-001 -8.055185e-001 9.289838e-002
    outer loop
      vertex   -1.415780e+001 2.173786e+003 5.500000e+001
      vertex   -5.407797e+000 2.180143e+003 5.500000e+001
      vertex   -1.029222e+001 2.177653e+003 6.417998e+001
    endloop
  endfacet
  facet normal 4.541788e-001 -8.909106e-001 6.408005e-015
    outer loop
      vertex   -5.407797e+000 2.180143e+003 5.500000e+001
      vertex   -5.407797e+000 2.180143e+003 6.477465e+001
      vertex   -1.029222e+001 2.177653e+003 6.417998e+001
    endloop
  endfacet
  facet normal 9.454229e-001 -3.071865e-001 1.086834e-001
    outer loop
      vertex   -1.750000e+001 2.163500e+003 5.500000e+001
      vertex   -1.415780e+001 2.173786e+003 5.500000e+001
      vertex   -1.663970e+001 2.168919e+003 6.283407e+001
    endloop
  endfacet
  facet normal 8.908476e-001 -4.543023e-001 -1.300112e-014
    outer loop
      vertex   -1.415780e+001 2.173786e+003 5.500000e+001
      vertex   -1.415780e+001 2.173786e+003 6.343939e+001
      vertex   -1.663970e+001 2.168919e+003 6.283407e+001
    endloop
  endfacet
  facet normal 9.876335e-001 -1.567801e-001 0.000000e+000
    outer loop
      vertex   -1.663970e+001 2.168919e+003 6.283407e+001
      vertex   -1.750000e+001 2.163500e+003 6.259992e+001
      vertex   -1.750000e+001 2.163500e+003 5.500000e+001
    endloop
  endfacet
  facet normal 7.072562e-001 -7.069574e-001 -1.031584e-014
    outer loop
      vertex   -1.029222e+001 2.177653e+003 6.417998e+001
      vertex   -1.415780e+001 2.173786e+003 6.343939e+001
      vertex   -1.415780e+001 2.173786e+003 5.500000e+001
    endloop
  endfacet
  facet normal 1.560446e-001 -9.877500e-001 2.215908e-015
    outer loop
      vertex   2.369089e-005 2.180998e+003 6.499943e+001
      vertex   -5.407797e+000 2.180143e+003 6.477465e+001
      vertex   -5.407797e+000 2.180143e+003 5.500000e+001
    endloop
  endfacet
  facet normal -4.542235e-001 -8.908877e-001 5.056288e-016
    outer loop
      vertex   1.029365e+001 2.177652e+003 6.417975e+001
      vertex   5.407797e+000 2.180143e+003 6.477465e+001
      vertex   5.407797e+000 2.180143e+003 5.500000e+001
    endloop
  endfacet
  facet normal -8.906483e-001 -4.546929e-001 -8.400808e-015
    outer loop
      vertex   1.663494e+001 2.168934e+003 6.283533e+001
      vertex   1.415780e+001 2.173786e+003 6.343939e+001
      vertex   1.415780e+001 2.173786e+003 5.500000e+001
    endloop
  endfacet
endsolid
