solid EjeMotor
  facet normal 0.000000e+000 -1.000000e+000 0.000000e+000
    outer loop
      vertex   0.000000e+000 -1.282000e+003 0.000000e+000
      vertex   -2.223131e+001 -1.282000e+003 6.108002e+001
      vertex   -4.178119e+001 -1.282000e+003 4.979289e+001
    endloop
  endfacet
  facet normal 0.000000e+000 -1.000000e+000 -0.000000e+000
    outer loop
      vertex   -4.178119e+001 -1.282000e+003 4.979289e+001
      vertex   -5.629165e+001 -1.282000e+003 3.250000e+001
      vertex   0.000000e+000 -1.282000e+003 0.000000e+000
    endloop
  endfacet
  facet normal 0.000000e+000 -1.000000e+000 -0.000000e+000
    outer loop
      vertex   -5.629165e+001 -1.282000e+003 3.250000e+001
      vertex   -6.401250e+001 -1.282000e+003 1.128713e+001
      vertex   0.000000e+000 -1.282000e+003 0.000000e+000
    endloop
  endfacet
  facet normal 0.000000e+000 -1.000000e+000 -0.000000e+000
    outer loop
      vertex   -6.401250e+001 -1.282000e+003 1.128713e+001
      vertex   -6.401250e+001 -1.282000e+003 -1.128713e+001
      vertex   0.000000e+000 -1.282000e+003 0.000000e+000
    endloop
  endfacet
  facet normal 0.000000e+000 -1.000000e+000 0.000000e+000
    outer loop
      vertex   -6.401250e+001 -1.282000e+003 -1.128713e+001
      vertex   -5.629165e+001 -1.282000e+003 -3.250000e+001
      vertex   0.000000e+000 -1.282000e+003 0.000000e+000
    endloop
  endfacet
  facet normal 0.000000e+000 -1.000000e+000 0.000000e+000
    outer loop
      vertex   -5.629165e+001 -1.282000e+003 -3.250000e+001
      vertex   -4.178119e+001 -1.282000e+003 -4.979289e+001
      vertex   0.000000e+000 -1.282000e+003 0.000000e+000
    endloop
  endfacet
  facet normal 0.000000e+000 -1.000000e+000 0.000000e+000
    outer loop
      vertex   -4.178119e+001 -1.282000e+003 -4.979289e+001
      vertex   -2.223131e+001 -1.282000e+003 -6.108002e+001
      vertex   0.000000e+000 -1.282000e+003 0.000000e+000
    endloop
  endfacet
  facet normal 0.000000e+000 -1.000000e+000 0.000000e+000
    outer loop
      vertex   -2.223131e+001 -1.282000e+003 -6.108002e+001
      vertex   0.000000e+000 -1.282000e+003 -6.500000e+001
      vertex   0.000000e+000 -1.282000e+003 0.000000e+000
    endloop
  endfacet
  facet normal 0.000000e+000 -1.000000e+000 0.000000e+000
    outer loop
      vertex   0.000000e+000 -1.282000e+003 -6.500000e+001
      vertex   2.223131e+001 -1.282000e+003 -6.108002e+001
      vertex   0.000000e+000 -1.282000e+003 0.000000e+000
    endloop
  endfacet
  facet normal 0.000000e+000 -1.000000e+000 0.000000e+000
    outer loop
      vertex   2.223131e+001 -1.282000e+003 -6.108002e+001
      vertex   4.178119e+001 -1.282000e+003 -4.979289e+001
      vertex   0.000000e+000 -1.282000e+003 0.000000e+000
    endloop
  endfacet
  facet normal 0.000000e+000 -1.000000e+000 0.000000e+000
    outer loop
      vertex   4.178119e+001 -1.282000e+003 -4.979289e+001
      vertex   5.629165e+001 -1.282000e+003 -3.250000e+001
      vertex   0.000000e+000 -1.282000e+003 0.000000e+000
    endloop
  endfacet
  facet normal 0.000000e+000 -1.000000e+000 0.000000e+000
    outer loop
      vertex   5.629165e+001 -1.282000e+003 -3.250000e+001
      vertex   6.401250e+001 -1.282000e+003 -1.128713e+001
      vertex   0.000000e+000 -1.282000e+003 0.000000e+000
    endloop
  endfacet
  facet normal 0.000000e+000 -1.000000e+000 0.000000e+000
    outer loop
      vertex   6.401250e+001 -1.282000e+003 -1.128713e+001
      vertex   6.401250e+001 -1.282000e+003 1.128713e+001
      vertex   0.000000e+000 -1.282000e+003 0.000000e+000
    endloop
  endfacet
  facet normal -0.000000e+000 -1.000000e+000 0.000000e+000
    outer loop
      vertex   6.401250e+001 -1.282000e+003 1.128713e+001
      vertex   5.629165e+001 -1.282000e+003 3.250000e+001
      vertex   0.000000e+000 -1.282000e+003 0.000000e+000
    endloop
  endfacet
  facet normal -0.000000e+000 -1.000000e+000 0.000000e+000
    outer loop
      vertex   5.629165e+001 -1.282000e+003 3.250000e+001
      vertex   4.178119e+001 -1.282000e+003 4.979289e+001
      vertex   0.000000e+000 -1.282000e+003 0.000000e+000
    endloop
  endfacet
  facet normal -0.000000e+000 -1.000000e+000 0.000000e+000
    outer loop
      vertex   4.178119e+001 -1.282000e+003 4.979289e+001
      vertex   2.223131e+001 -1.282000e+003 6.108002e+001
      vertex   0.000000e+000 -1.282000e+003 0.000000e+000
    endloop
  endfacet
  facet normal -0.000000e+000 -1.000000e+000 0.000000e+000
    outer loop
      vertex   2.223131e+001 -1.282000e+003 6.108002e+001
      vertex   7.960204e-015 -1.282000e+003 6.500000e+001
      vertex   0.000000e+000 -1.282000e+003 0.000000e+000
    endloop
  endfacet
  facet normal 0.000000e+000 -1.000000e+000 0.000000e+000
    outer loop
      vertex   7.960204e-015 -1.282000e+003 6.500000e+001
      vertex   -2.223131e+001 -1.282000e+003 6.108002e+001
      vertex   0.000000e+000 -1.282000e+003 0.000000e+000
    endloop
  endfacet
  facet normal 1.736482e-001 0.000000e+000 -9.848078e-001
    outer loop
      vertex   0.000000e+000 -1.282000e+003 -6.500000e+001
      vertex   0.000000e+000 1.282000e+003 -6.500000e+001
      vertex   2.223131e+001 1.282000e+003 -6.108002e+001
    endloop
  endfacet
  facet normal 5.000000e-001 0.000000e+000 -8.660254e-001
    outer loop
      vertex   2.223131e+001 -1.282000e+003 -6.108002e+001
      vertex   2.223131e+001 1.282000e+003 -6.108002e+001
      vertex   4.178119e+001 1.282000e+003 -4.979289e+001
    endloop
  endfacet
  facet normal 7.660444e-001 0.000000e+000 -6.427876e-001
    outer loop
      vertex   4.178119e+001 -1.282000e+003 -4.979289e+001
      vertex   4.178119e+001 1.282000e+003 -4.979289e+001
      vertex   5.629165e+001 1.282000e+003 -3.250000e+001
    endloop
  endfacet
  facet normal 7.660444e-001 -0.000000e+000 6.427876e-001
    outer loop
      vertex   5.629165e+001 -1.282000e+003 3.250000e+001
      vertex   5.629165e+001 1.282000e+003 3.250000e+001
      vertex   4.178119e+001 1.282000e+003 4.979289e+001
    endloop
  endfacet
  facet normal 5.000000e-001 -0.000000e+000 8.660254e-001
    outer loop
      vertex   4.178119e+001 -1.282000e+003 4.979289e+001
      vertex   4.178119e+001 1.282000e+003 4.979289e+001
      vertex   2.223131e+001 1.282000e+003 6.108002e+001
    endloop
  endfacet
  facet normal 1.736482e-001 -0.000000e+000 9.848078e-001
    outer loop
      vertex   2.223131e+001 -1.282000e+003 6.108002e+001
      vertex   2.223131e+001 1.282000e+003 6.108002e+001
      vertex   2.388061e-014 1.282000e+003 6.500000e+001
    endloop
  endfacet
  facet normal -1.736482e-001 1.078218e-018 9.848078e-001
    outer loop
      vertex   7.960204e-015 -1.282000e+003 6.500000e+001
      vertex   2.388061e-014 1.282000e+003 6.500000e+001
      vertex   -2.223131e+001 1.282000e+003 6.108002e+001
    endloop
  endfacet
  facet normal -5.000000e-001 0.000000e+000 8.660254e-001
    outer loop
      vertex   -2.223131e+001 -1.282000e+003 6.108002e+001
      vertex   -2.223131e+001 1.282000e+003 6.108002e+001
      vertex   -4.178119e+001 1.282000e+003 4.979289e+001
    endloop
  endfacet
  facet normal -7.660444e-001 0.000000e+000 6.427876e-001
    outer loop
      vertex   -4.178119e+001 -1.282000e+003 4.979289e+001
      vertex   -4.178119e+001 1.282000e+003 4.979289e+001
      vertex   -5.629165e+001 1.282000e+003 3.250000e+001
    endloop
  endfacet
  facet normal -9.396926e-001 0.000000e+000 3.420201e-001
    outer loop
      vertex   -5.629165e+001 -1.282000e+003 3.250000e+001
      vertex   -5.629165e+001 1.282000e+003 3.250000e+001
      vertex   -6.401250e+001 1.282000e+003 1.128713e+001
    endloop
  endfacet
  facet normal -1.000000e+000 0.000000e+000 6.147615e-016
    outer loop
      vertex   -6.401250e+001 -1.282000e+003 1.128713e+001
      vertex   -6.401250e+001 1.282000e+003 1.128713e+001
      vertex   -6.401250e+001 1.282000e+003 -1.128713e+001
    endloop
  endfacet
  facet normal -9.396926e-001 0.000000e+000 -3.420201e-001
    outer loop
      vertex   -6.401250e+001 -1.282000e+003 -1.128713e+001
      vertex   -6.401250e+001 1.282000e+003 -1.128713e+001
      vertex   -5.629165e+001 1.282000e+003 -3.250000e+001
    endloop
  endfacet
  facet normal -7.660444e-001 0.000000e+000 -6.427876e-001
    outer loop
      vertex   -5.629165e+001 -1.282000e+003 -3.250000e+001
      vertex   -5.629165e+001 1.282000e+003 -3.250000e+001
      vertex   -4.178119e+001 1.282000e+003 -4.979289e+001
    endloop
  endfacet
  facet normal -5.000000e-001 0.000000e+000 -8.660254e-001
    outer loop
      vertex   -4.178119e+001 -1.282000e+003 -4.979289e+001
      vertex   -4.178119e+001 1.282000e+003 -4.979289e+001
      vertex   -2.223131e+001 1.282000e+003 -6.108002e+001
    endloop
  endfacet
  facet normal -1.736482e-001 0.000000e+000 -9.848078e-001
    outer loop
      vertex   -2.223131e+001 -1.282000e+003 -6.108002e+001
      vertex   -2.223131e+001 1.282000e+003 -6.108002e+001
      vertex   0.000000e+000 1.282000e+003 -6.500000e+001
    endloop
  endfacet
  facet normal 9.995387e-001 -3.037048e-002 0.000000e+000
    outer loop
      vertex   6.401250e+001 -1.282000e+003 1.128713e+001
      vertex   6.401250e+001 -1.282000e+003 -1.128713e+001
      vertex   6.500000e+001 -1.249500e+003 -1.573847e-003
    endloop
  endfacet
  facet normal 9.989169e-001 -1.506424e-002 -4.402429e-002
    outer loop
      vertex   6.401250e+001 -1.282000e+003 -1.128713e+001
      vertex   6.477465e+001 -1.248643e+003 -5.407797e+000
      vertex   6.500000e+001 -1.249500e+003 -1.573847e-003
    endloop
  endfacet
  facet normal 9.917022e-001 -3.296423e-016 -1.285563e-001
    outer loop
      vertex   6.401250e+001 -1.282000e+003 -1.128713e+001
      vertex   6.401250e+001 -1.245374e+003 -1.128713e+001
      vertex   6.477465e+001 -1.248643e+003 -5.407797e+000
    endloop
  endfacet
  facet normal 9.989179e-001 -1.506865e-002 4.399941e-002
    outer loop
      vertex   6.500000e+001 -1.249500e+003 -1.573847e-003
      vertex   6.477465e+001 -1.248643e+003 5.407797e+000
      vertex   6.401250e+001 -1.282000e+003 1.128713e+001
    endloop
  endfacet
  facet normal 9.656283e-001 5.662910e-002 2.536832e-001
    outer loop
      vertex   5.629165e+001 1.282000e+003 3.250000e+001
      vertex   6.343939e+001 1.242286e+003 1.415780e+001
      vertex   6.401250e+001 1.245374e+003 1.128713e+001
    endloop
  endfacet
  facet normal 9.537521e-001 3.370046e-002 2.986993e-001
    outer loop
      vertex   5.629165e+001 1.282000e+003 3.250000e+001
      vertex   6.283407e+001 1.237419e+003 1.663970e+001
      vertex   6.343939e+001 1.242286e+003 1.415780e+001
    endloop
  endfacet
  facet normal 9.218006e-001 -1.250625e-017 3.876644e-001
    outer loop
      vertex   5.629165e+001 -1.282000e+003 3.250000e+001
      vertex   6.259992e+001 -1.232000e+003 1.750000e+001
      vertex   6.259992e+001 1.232000e+003 1.750000e+001
    endloop
  endfacet
  facet normal 9.218006e-001 0.000000e+000 3.876644e-001
    outer loop
      vertex   6.259992e+001 1.232000e+003 1.750000e+001
      vertex   5.629165e+001 1.282000e+003 3.250000e+001
      vertex   5.629165e+001 -1.282000e+003 3.250000e+001
    endloop
  endfacet
  facet normal 9.380275e-001 -1.446897e-002 3.462587e-001
    outer loop
      vertex   5.629165e+001 -1.282000e+003 3.250000e+001
      vertex   6.283490e+001 -1.237429e+003 1.663658e+001
      vertex   6.259992e+001 -1.232000e+003 1.750000e+001
    endloop
  endfacet
  facet normal 9.396926e-001 1.016256e-015 3.420201e-001
    outer loop
      vertex   5.629165e+001 -1.282000e+003 3.250000e+001
      vertex   6.401250e+001 -1.282000e+003 1.128713e+001
      vertex   6.401250e+001 -1.245374e+003 1.128713e+001
    endloop
  endfacet
  facet normal 9.656283e-001 -5.662910e-002 2.536832e-001
    outer loop
      vertex   6.401250e+001 -1.245374e+003 1.128713e+001
      vertex   6.343939e+001 -1.242286e+003 1.415780e+001
      vertex   5.629165e+001 -1.282000e+003 3.250000e+001
    endloop
  endfacet
  facet normal 9.537623e-001 -3.371826e-002 2.986647e-001
    outer loop
      vertex   6.343939e+001 -1.242286e+003 1.415780e+001
      vertex   6.283490e+001 -1.237429e+003 1.663658e+001
      vertex   5.629165e+001 -1.282000e+003 3.250000e+001
    endloop
  endfacet
  facet normal 9.380060e-001 1.444853e-002 3.463178e-001
    outer loop
      vertex   6.259992e+001 1.232000e+003 1.750000e+001
      vertex   6.283407e+001 1.237419e+003 1.663970e+001
      vertex   5.629165e+001 1.282000e+003 3.250000e+001
    endloop
  endfacet
  facet normal 9.995387e-001 3.037048e-002 -0.000000e+000
    outer loop
      vertex   6.401250e+001 1.282000e+003 -1.128713e+001
      vertex   6.401250e+001 1.282000e+003 1.128713e+001
      vertex   6.500000e+001 1.249500e+003 1.573847e-003
    endloop
  endfacet
  facet normal 9.989169e-001 1.506424e-002 4.402429e-002
    outer loop
      vertex   6.401250e+001 1.282000e+003 1.128713e+001
      vertex   6.477465e+001 1.248643e+003 5.407797e+000
      vertex   6.500000e+001 1.249500e+003 1.573847e-003
    endloop
  endfacet
  facet normal 9.917022e-001 7.740742e-017 1.285563e-001
    outer loop
      vertex   6.401250e+001 1.282000e+003 1.128713e+001
      vertex   6.401250e+001 1.245374e+003 1.128713e+001
      vertex   6.477465e+001 1.248643e+003 5.407797e+000
    endloop
  endfacet
  facet normal 9.989179e-001 1.506865e-002 -4.399941e-002
    outer loop
      vertex   6.500000e+001 1.249500e+003 1.573847e-003
      vertex   6.477465e+001 1.248643e+003 -5.407797e+000
      vertex   6.401250e+001 1.282000e+003 -1.128713e+001
    endloop
  endfacet
  facet normal 9.656283e-001 -5.662910e-002 -2.536832e-001
    outer loop
      vertex   5.629165e+001 -1.282000e+003 -3.250000e+001
      vertex   6.343939e+001 -1.242286e+003 -1.415780e+001
      vertex   6.401250e+001 -1.245374e+003 -1.128713e+001
    endloop
  endfacet
  facet normal 9.537521e-001 -3.370046e-002 -2.986993e-001
    outer loop
      vertex   5.629165e+001 -1.282000e+003 -3.250000e+001
      vertex   6.283407e+001 -1.237419e+003 -1.663970e+001
      vertex   6.343939e+001 -1.242286e+003 -1.415780e+001
    endloop
  endfacet
  facet normal 9.218006e-001 1.926638e-017 -3.876644e-001
    outer loop
      vertex   5.629165e+001 1.282000e+003 -3.250000e+001
      vertex   6.259992e+001 1.232000e+003 -1.750000e+001
      vertex   6.259992e+001 -1.232000e+003 -1.750000e+001
    endloop
  endfacet
  facet normal 9.218006e-001 0.000000e+000 -3.876644e-001
    outer loop
      vertex   6.259992e+001 -1.232000e+003 -1.750000e+001
      vertex   5.629165e+001 -1.282000e+003 -3.250000e+001
      vertex   5.629165e+001 1.282000e+003 -3.250000e+001
    endloop
  endfacet
  facet normal 9.380275e-001 1.446897e-002 -3.462587e-001
    outer loop
      vertex   5.629165e+001 1.282000e+003 -3.250000e+001
      vertex   6.283490e+001 1.237429e+003 -1.663658e+001
      vertex   6.259992e+001 1.232000e+003 -1.750000e+001
    endloop
  endfacet
  facet normal 9.396926e-001 2.950420e-016 -3.420201e-001
    outer loop
      vertex   5.629165e+001 1.282000e+003 -3.250000e+001
      vertex   6.401250e+001 1.282000e+003 -1.128713e+001
      vertex   6.401250e+001 1.245374e+003 -1.128713e+001
    endloop
  endfacet
  facet normal 9.656283e-001 5.662910e-002 -2.536832e-001
    outer loop
      vertex   6.401250e+001 1.245374e+003 -1.128713e+001
      vertex   6.343939e+001 1.242286e+003 -1.415780e+001
      vertex   5.629165e+001 1.282000e+003 -3.250000e+001
    endloop
  endfacet
  facet normal 9.537623e-001 3.371826e-002 -2.986647e-001
    outer loop
      vertex   6.343939e+001 1.242286e+003 -1.415780e+001
      vertex   6.283490e+001 1.237429e+003 -1.663658e+001
      vertex   5.629165e+001 1.282000e+003 -3.250000e+001
    endloop
  endfacet
  facet normal 9.380060e-001 -1.444853e-002 -3.463178e-001
    outer loop
      vertex   6.259992e+001 -1.232000e+003 -1.750000e+001
      vertex   6.283407e+001 -1.237419e+003 -1.663970e+001
      vertex   5.629165e+001 -1.282000e+003 -3.250000e+001
    endloop
  endfacet
  facet normal 9.396926e-001 1.053912e-015 -3.420201e-001
    outer loop
      vertex   6.401250e+001 -1.245374e+003 -1.128713e+001
      vertex   6.401250e+001 -1.282000e+003 -1.128713e+001
      vertex   5.629165e+001 -1.282000e+003 -3.250000e+001
    endloop
  endfacet
  facet normal 9.917022e-001 -1.248269e-016 -1.285563e-001
    outer loop
      vertex   6.477465e+001 1.248643e+003 -5.407797e+000
      vertex   6.401250e+001 1.245374e+003 -1.128713e+001
      vertex   6.401250e+001 1.282000e+003 -1.128713e+001
    endloop
  endfacet
  facet normal 9.396926e-001 -4.376983e-016 3.420201e-001
    outer loop
      vertex   6.401250e+001 1.245374e+003 1.128713e+001
      vertex   6.401250e+001 1.282000e+003 1.128713e+001
      vertex   5.629165e+001 1.282000e+003 3.250000e+001
    endloop
  endfacet
  facet normal 9.917022e-001 -1.053227e-016 1.285563e-001
    outer loop
      vertex   6.477465e+001 -1.248643e+003 5.407797e+000
      vertex   6.401250e+001 -1.245374e+003 1.128713e+001
      vertex   6.401250e+001 -1.282000e+003 1.128713e+001
    endloop
  endfacet
  facet normal -1.736482e-001 -0.000000e+000 -9.848078e-001
    outer loop
      vertex   0.000000e+000 1.282000e+003 -6.500000e+001
      vertex   0.000000e+000 -1.282000e+003 -6.500000e+001
      vertex   -2.223131e+001 -1.282000e+003 -6.108002e+001
    endloop
  endfacet
  facet normal -5.000000e-001 -0.000000e+000 -8.660254e-001
    outer loop
      vertex   -2.223131e+001 1.282000e+003 -6.108002e+001
      vertex   -2.223131e+001 -1.282000e+003 -6.108002e+001
      vertex   -4.178119e+001 -1.282000e+003 -4.979289e+001
    endloop
  endfacet
  facet normal -7.660444e-001 -0.000000e+000 -6.427876e-001
    outer loop
      vertex   -4.178119e+001 1.282000e+003 -4.979289e+001
      vertex   -4.178119e+001 -1.282000e+003 -4.979289e+001
      vertex   -5.629165e+001 -1.282000e+003 -3.250000e+001
    endloop
  endfacet
  facet normal -9.396926e-001 -0.000000e+000 -3.420201e-001
    outer loop
      vertex   -5.629165e+001 1.282000e+003 -3.250000e+001
      vertex   -5.629165e+001 -1.282000e+003 -3.250000e+001
      vertex   -6.401250e+001 -1.282000e+003 -1.128713e+001
    endloop
  endfacet
  facet normal -1.000000e+000 0.000000e+000 6.147615e-016
    outer loop
      vertex   -6.401250e+001 1.282000e+003 -1.128713e+001
      vertex   -6.401250e+001 -1.282000e+003 -1.128713e+001
      vertex   -6.401250e+001 -1.282000e+003 1.128713e+001
    endloop
  endfacet
  facet normal -9.396926e-001 0.000000e+000 3.420201e-001
    outer loop
      vertex   -6.401250e+001 1.282000e+003 1.128713e+001
      vertex   -6.401250e+001 -1.282000e+003 1.128713e+001
      vertex   -5.629165e+001 -1.282000e+003 3.250000e+001
    endloop
  endfacet
  facet normal -7.660444e-001 0.000000e+000 6.427876e-001
    outer loop
      vertex   -5.629165e+001 1.282000e+003 3.250000e+001
      vertex   -5.629165e+001 -1.282000e+003 3.250000e+001
      vertex   -4.178119e+001 -1.282000e+003 4.979289e+001
    endloop
  endfacet
  facet normal -5.000000e-001 0.000000e+000 8.660254e-001
    outer loop
      vertex   -4.178119e+001 1.282000e+003 4.979289e+001
      vertex   -4.178119e+001 -1.282000e+003 4.979289e+001
      vertex   -2.223131e+001 -1.282000e+003 6.108002e+001
    endloop
  endfacet
  facet normal -1.736482e-001 0.000000e+000 9.848078e-001
    outer loop
      vertex   -2.223131e+001 1.282000e+003 6.108002e+001
      vertex   -2.223131e+001 -1.282000e+003 6.108002e+001
      vertex   7.960204e-015 -1.282000e+003 6.500000e+001
    endloop
  endfacet
  facet normal 1.736482e-001 -1.078218e-018 9.848078e-001
    outer loop
      vertex   2.388061e-014 1.282000e+003 6.500000e+001
      vertex   7.960204e-015 -1.282000e+003 6.500000e+001
      vertex   2.223131e+001 -1.282000e+003 6.108002e+001
    endloop
  endfacet
  facet normal 5.000000e-001 0.000000e+000 8.660254e-001
    outer loop
      vertex   2.223131e+001 1.282000e+003 6.108002e+001
      vertex   2.223131e+001 -1.282000e+003 6.108002e+001
      vertex   4.178119e+001 -1.282000e+003 4.979289e+001
    endloop
  endfacet
  facet normal 7.660444e-001 0.000000e+000 6.427876e-001
    outer loop
      vertex   4.178119e+001 1.282000e+003 4.979289e+001
      vertex   4.178119e+001 -1.282000e+003 4.979289e+001
      vertex   5.629165e+001 -1.282000e+003 3.250000e+001
    endloop
  endfacet
  facet normal 7.660444e-001 0.000000e+000 -6.427876e-001
    outer loop
      vertex   5.629165e+001 1.282000e+003 -3.250000e+001
      vertex   5.629165e+001 -1.282000e+003 -3.250000e+001
      vertex   4.178119e+001 -1.282000e+003 -4.979289e+001
    endloop
  endfacet
  facet normal 5.000000e-001 0.000000e+000 -8.660254e-001
    outer loop
      vertex   4.178119e+001 1.282000e+003 -4.979289e+001
      vertex   4.178119e+001 -1.282000e+003 -4.979289e+001
      vertex   2.223131e+001 -1.282000e+003 -6.108002e+001
    endloop
  endfacet
  facet normal 1.736482e-001 0.000000e+000 -9.848078e-001
    outer loop
      vertex   2.223131e+001 1.282000e+003 -6.108002e+001
      vertex   2.223131e+001 -1.282000e+003 -6.108002e+001
      vertex   0.000000e+000 -1.282000e+003 -6.500000e+001
    endloop
  endfacet
  facet normal 0.000000e+000 1.000000e+000 0.000000e+000
    outer loop
      vertex   0.000000e+000 1.282000e+003 0.000000e+000
      vertex   2.223131e+001 1.282000e+003 6.108002e+001
      vertex   4.178119e+001 1.282000e+003 4.979289e+001
    endloop
  endfacet
  facet normal 0.000000e+000 1.000000e+000 0.000000e+000
    outer loop
      vertex   4.178119e+001 1.282000e+003 4.979289e+001
      vertex   5.629165e+001 1.282000e+003 3.250000e+001
      vertex   0.000000e+000 1.282000e+003 0.000000e+000
    endloop
  endfacet
  facet normal 0.000000e+000 1.000000e+000 0.000000e+000
    outer loop
      vertex   5.629165e+001 1.282000e+003 3.250000e+001
      vertex   6.401250e+001 1.282000e+003 1.128713e+001
      vertex   0.000000e+000 1.282000e+003 0.000000e+000
    endloop
  endfacet
  facet normal 0.000000e+000 1.000000e+000 0.000000e+000
    outer loop
      vertex   6.401250e+001 1.282000e+003 1.128713e+001
      vertex   6.401250e+001 1.282000e+003 -1.128713e+001
      vertex   0.000000e+000 1.282000e+003 0.000000e+000
    endloop
  endfacet
  facet normal 0.000000e+000 1.000000e+000 0.000000e+000
    outer loop
      vertex   6.401250e+001 1.282000e+003 -1.128713e+001
      vertex   5.629165e+001 1.282000e+003 -3.250000e+001
      vertex   0.000000e+000 1.282000e+003 0.000000e+000
    endloop
  endfacet
  facet normal 0.000000e+000 1.000000e+000 0.000000e+000
    outer loop
      vertex   5.629165e+001 1.282000e+003 -3.250000e+001
      vertex   4.178119e+001 1.282000e+003 -4.979289e+001
      vertex   0.000000e+000 1.282000e+003 0.000000e+000
    endloop
  endfacet
  facet normal 0.000000e+000 1.000000e+000 0.000000e+000
    outer loop
      vertex   4.178119e+001 1.282000e+003 -4.979289e+001
      vertex   2.223131e+001 1.282000e+003 -6.108002e+001
      vertex   0.000000e+000 1.282000e+003 0.000000e+000
    endloop
  endfacet
  facet normal 0.000000e+000 1.000000e+000 0.000000e+000
    outer loop
      vertex   2.223131e+001 1.282000e+003 -6.108002e+001
      vertex   0.000000e+000 1.282000e+003 -6.500000e+001
      vertex   0.000000e+000 1.282000e+003 0.000000e+000
    endloop
  endfacet
  facet normal 0.000000e+000 1.000000e+000 -0.000000e+000
    outer loop
      vertex   0.000000e+000 1.282000e+003 -6.500000e+001
      vertex   -2.223131e+001 1.282000e+003 -6.108002e+001
      vertex   0.000000e+000 1.282000e+003 0.000000e+000
    endloop
  endfacet
  facet normal 0.000000e+000 1.000000e+000 -0.000000e+000
    outer loop
      vertex   -2.223131e+001 1.282000e+003 -6.108002e+001
      vertex   -4.178119e+001 1.282000e+003 -4.979289e+001
      vertex   0.000000e+000 1.282000e+003 0.000000e+000
    endloop
  endfacet
  facet normal 0.000000e+000 1.000000e+000 -0.000000e+000
    outer loop
      vertex   -4.178119e+001 1.282000e+003 -4.979289e+001
      vertex   -5.629165e+001 1.282000e+003 -3.250000e+001
      vertex   0.000000e+000 1.282000e+003 0.000000e+000
    endloop
  endfacet
  facet normal 0.000000e+000 1.000000e+000 -0.000000e+000
    outer loop
      vertex   -5.629165e+001 1.282000e+003 -3.250000e+001
      vertex   -6.401250e+001 1.282000e+003 -1.128713e+001
      vertex   0.000000e+000 1.282000e+003 0.000000e+000
    endloop
  endfacet
  facet normal 0.000000e+000 1.000000e+000 0.000000e+000
    outer loop
      vertex   -6.401250e+001 1.282000e+003 -1.128713e+001
      vertex   -6.401250e+001 1.282000e+003 1.128713e+001
      vertex   0.000000e+000 1.282000e+003 0.000000e+000
    endloop
  endfacet
  facet normal -0.000000e+000 1.000000e+000 0.000000e+000
    outer loop
      vertex   -6.401250e+001 1.282000e+003 1.128713e+001
      vertex   -5.629165e+001 1.282000e+003 3.250000e+001
      vertex   0.000000e+000 1.282000e+003 0.000000e+000
    endloop
  endfacet
  facet normal -0.000000e+000 1.000000e+000 0.000000e+000
    outer loop
      vertex   -5.629165e+001 1.282000e+003 3.250000e+001
      vertex   -4.178119e+001 1.282000e+003 4.979289e+001
      vertex   0.000000e+000 1.282000e+003 0.000000e+000
    endloop
  endfacet
  facet normal -0.000000e+000 1.000000e+000 0.000000e+000
    outer loop
      vertex   -4.178119e+001 1.282000e+003 4.979289e+001
      vertex   -2.223131e+001 1.282000e+003 6.108002e+001
      vertex   0.000000e+000 1.282000e+003 0.000000e+000
    endloop
  endfacet
  facet normal -0.000000e+000 1.000000e+000 0.000000e+000
    outer loop
      vertex   -2.223131e+001 1.282000e+003 6.108002e+001
      vertex   2.388061e-014 1.282000e+003 6.500000e+001
      vertex   0.000000e+000 1.282000e+003 0.000000e+000
    endloop
  endfacet
  facet normal 0.000000e+000 1.000000e+000 0.000000e+000
    outer loop
      vertex   2.388061e-014 1.282000e+003 6.500000e+001
      vertex   2.223131e+001 1.282000e+003 6.108002e+001
      vertex   0.000000e+000 1.282000e+003 0.000000e+000
    endloop
  endfacet
  facet normal 2.008648e-014 5.913830e-017 -1.000000e+000
    outer loop
      vertex   6.259992e+001 1.232000e+003 1.750000e+001
      vertex   6.259992e+001 -1.232000e+003 1.750000e+001
      vertex   5.500000e+001 -1.232000e+003 1.750000e+001
    endloop
  endfacet
  facet normal -4.565110e-016 1.225008e-016 -1.000000e+000
    outer loop
      vertex   5.500000e+001 -1.232000e+003 1.750000e+001
      vertex   5.500000e+001 1.232000e+003 1.750000e+001
      vertex   6.259992e+001 1.232000e+003 1.750000e+001
    endloop
  endfacet
  facet normal 1.000000e+000 0.000000e+000 0.000000e+000
    outer loop
      vertex   5.500000e+001 1.242286e+003 -1.415780e+001
      vertex   5.500000e+001 1.248643e+003 -5.407797e+000
      vertex   5.500000e+001 1.248643e+003 5.407797e+000
    endloop
  endfacet
  facet normal 1.000000e+000 0.000000e+000 0.000000e+000
    outer loop
      vertex   5.500000e+001 1.242286e+003 1.415780e+001
      vertex   5.500000e+001 1.232000e+003 -1.750000e+001
      vertex   5.500000e+001 1.242286e+003 -1.415780e+001
    endloop
  endfacet
  facet normal 1.000000e+000 0.000000e+000 0.000000e+000
    outer loop
      vertex   5.500000e+001 -1.232000e+003 1.750000e+001
      vertex   5.500000e+001 -1.248643e+003 -5.407797e+000
      vertex   5.500000e+001 -1.242286e+003 -1.415780e+001
    endloop
  endfacet
  facet normal 1.000000e+000 0.000000e+000 0.000000e+000
    outer loop
      vertex   5.500000e+001 -1.232000e+003 1.750000e+001
      vertex   5.500000e+001 -1.242286e+003 1.415780e+001
      vertex   5.500000e+001 -1.248643e+003 5.407797e+000
    endloop
  endfacet
  facet normal 1.000000e+000 0.000000e+000 0.000000e+000
    outer loop
      vertex   5.500000e+001 1.248643e+003 5.407797e+000
      vertex   5.500000e+001 1.242286e+003 1.415780e+001
      vertex   5.500000e+001 1.242286e+003 -1.415780e+001
    endloop
  endfacet
  facet normal 1.000000e+000 0.000000e+000 -0.000000e+000
    outer loop
      vertex   5.500000e+001 1.232000e+003 -1.750000e+001
      vertex   5.500000e+001 1.232000e+003 1.750000e+001
      vertex   5.500000e+001 -1.232000e+003 1.750000e+001
    endloop
  endfacet
  facet normal 1.000000e+000 -0.000000e+000 0.000000e+000
    outer loop
      vertex   5.500000e+001 -1.248643e+003 5.407797e+000
      vertex   5.500000e+001 -1.248643e+003 -5.407797e+000
      vertex   5.500000e+001 -1.232000e+003 1.750000e+001
    endloop
  endfacet
  facet normal 1.000000e+000 0.000000e+000 0.000000e+000
    outer loop
      vertex   5.500000e+001 -1.232000e+003 1.750000e+001
      vertex   5.500000e+001 -1.232000e+003 -1.750000e+001
      vertex   5.500000e+001 1.232000e+003 -1.750000e+001
    endloop
  endfacet
  facet normal 1.000000e+000 0.000000e+000 0.000000e+000
    outer loop
      vertex   5.500000e+001 1.242286e+003 1.415780e+001
      vertex   5.500000e+001 1.232000e+003 1.750000e+001
      vertex   5.500000e+001 1.232000e+003 -1.750000e+001
    endloop
  endfacet
  facet normal 1.000000e+000 -0.000000e+000 0.000000e+000
    outer loop
      vertex   5.500000e+001 -1.242286e+003 -1.415780e+001
      vertex   5.500000e+001 -1.232000e+003 -1.750000e+001
      vertex   5.500000e+001 -1.232000e+003 1.750000e+001
    endloop
  endfacet
  facet normal 2.442606e-014 1.570637e-001 -9.875885e-001
    outer loop
      vertex   5.500000e+001 -1.232000e+003 1.750000e+001
      vertex   6.259992e+001 -1.232000e+003 1.750000e+001
      vertex   6.283490e+001 -1.237429e+003 1.663658e+001
    endloop
  endfacet
  facet normal 1.086708e-001 3.071869e-001 -9.454242e-001
    outer loop
      vertex   6.283490e+001 -1.237429e+003 1.663658e+001
      vertex   5.500000e+001 -1.242286e+003 1.415780e+001
      vertex   5.500000e+001 -1.232000e+003 1.750000e+001
    endloop
  endfacet
  facet normal -1.806370e-015 6.809504e-001 -7.323296e-001
    outer loop
      vertex   5.500000e+001 -1.242286e+003 1.415780e+001
      vertex   6.343939e+001 -1.242286e+003 1.415780e+001
      vertex   6.401250e+001 -1.245374e+003 1.128713e+001
    endloop
  endfacet
  facet normal 8.954876e-002 8.057667e-001 -5.854238e-001
    outer loop
      vertex   6.401250e+001 -1.245374e+003 1.128713e+001
      vertex   5.500000e+001 -1.248643e+003 5.407797e+000
      vertex   5.500000e+001 -1.242286e+003 1.415780e+001
    endloop
  endfacet
  facet normal -1.193456e-015 9.876954e-001 -1.563901e-001
    outer loop
      vertex   5.500000e+001 -1.248643e+003 5.407797e+000
      vertex   6.477465e+001 -1.248643e+003 5.407797e+000
      vertex   6.500000e+001 -1.249500e+003 -1.573847e-003
    endloop
  endfacet
  facet normal 8.533863e-002 9.963520e-001 0.000000e+000
    outer loop
      vertex   6.500000e+001 -1.249500e+003 -1.573847e-003
      vertex   5.500000e+001 -1.248643e+003 -5.407797e+000
      vertex   5.500000e+001 -1.248643e+003 5.407797e+000
    endloop
  endfacet
  facet normal 8.954876e-002 8.057667e-001 5.854238e-001
    outer loop
      vertex   5.500000e+001 -1.242286e+003 -1.415780e+001
      vertex   5.500000e+001 -1.248643e+003 -5.407797e+000
      vertex   6.401250e+001 -1.245374e+003 -1.128713e+001
    endloop
  endfacet
  facet normal -1.121408e-015 8.739246e-001 4.860616e-001
    outer loop
      vertex   5.500000e+001 -1.248643e+003 -5.407797e+000
      vertex   6.477465e+001 -1.248643e+003 -5.407797e+000
      vertex   6.401250e+001 -1.245374e+003 -1.128713e+001
    endloop
  endfacet
  facet normal 1.086834e-001 3.071865e-001 9.454229e-001
    outer loop
      vertex   5.500000e+001 -1.232000e+003 -1.750000e+001
      vertex   5.500000e+001 -1.242286e+003 -1.415780e+001
      vertex   6.283407e+001 -1.237419e+003 -1.663970e+001
    endloop
  endfacet
  facet normal 6.592117e-015 4.543023e-001 8.908476e-001
    outer loop
      vertex   5.500000e+001 -1.242286e+003 -1.415780e+001
      vertex   6.343939e+001 -1.242286e+003 -1.415780e+001
      vertex   6.283407e+001 -1.237419e+003 -1.663970e+001
    endloop
  endfacet
  facet normal -5.341805e-015 1.567801e-001 9.876335e-001
    outer loop
      vertex   6.283407e+001 -1.237419e+003 -1.663970e+001
      vertex   6.259992e+001 -1.232000e+003 -1.750000e+001
      vertex   5.500000e+001 -1.232000e+003 -1.750000e+001
    endloop
  endfacet
  facet normal 5.428210e-015 6.809504e-001 7.323296e-001
    outer loop
      vertex   6.401250e+001 -1.245374e+003 -1.128713e+001
      vertex   6.343939e+001 -1.242286e+003 -1.415780e+001
      vertex   5.500000e+001 -1.242286e+003 -1.415780e+001
    endloop
  endfacet
  facet normal -3.641243e-016 9.876813e-001 1.564789e-001
    outer loop
      vertex   6.500000e+001 -1.249500e+003 -1.573847e-003
      vertex   6.477465e+001 -1.248643e+003 -5.407797e+000
      vertex   5.500000e+001 -1.248643e+003 -5.407797e+000
    endloop
  endfacet
  facet normal -3.709687e-015 8.739246e-001 -4.860616e-001
    outer loop
      vertex   6.401250e+001 -1.245374e+003 1.128713e+001
      vertex   6.477465e+001 -1.248643e+003 5.407797e+000
      vertex   5.500000e+001 -1.248643e+003 5.407797e+000
    endloop
  endfacet
  facet normal -2.208617e-015 4.545581e-001 -8.907171e-001
    outer loop
      vertex   6.283490e+001 -1.237429e+003 1.663658e+001
      vertex   6.343939e+001 -1.242286e+003 1.415780e+001
      vertex   5.500000e+001 -1.242286e+003 1.415780e+001
    endloop
  endfacet
  facet normal 0.000000e+000 -1.210927e-016 1.000000e+000
    outer loop
      vertex   6.259992e+001 1.232000e+003 -1.750000e+001
      vertex   5.500000e+001 1.232000e+003 -1.750000e+001
      vertex   5.500000e+001 -1.232000e+003 -1.750000e+001
    endloop
  endfacet
  facet normal -1.004324e-014 -9.011551e-017 1.000000e+000
    outer loop
      vertex   5.500000e+001 -1.232000e+003 -1.750000e+001
      vertex   6.259992e+001 -1.232000e+003 -1.750000e+001
      vertex   6.259992e+001 1.232000e+003 -1.750000e+001
    endloop
  endfacet
  facet normal 0.000000e+000 -1.570637e-001 9.875885e-001
    outer loop
      vertex   5.500000e+001 1.232000e+003 -1.750000e+001
      vertex   6.259992e+001 1.232000e+003 -1.750000e+001
      vertex   6.283490e+001 1.237429e+003 -1.663658e+001
    endloop
  endfacet
  facet normal 1.086708e-001 -3.071869e-001 9.454242e-001
    outer loop
      vertex   6.283490e+001 1.237429e+003 -1.663658e+001
      vertex   5.500000e+001 1.242286e+003 -1.415780e+001
      vertex   5.500000e+001 1.232000e+003 -1.750000e+001
    endloop
  endfacet
  facet normal -1.655839e-015 -6.809504e-001 7.323296e-001
    outer loop
      vertex   5.500000e+001 1.242286e+003 -1.415780e+001
      vertex   6.343939e+001 1.242286e+003 -1.415780e+001
      vertex   6.401250e+001 1.245374e+003 -1.128713e+001
    endloop
  endfacet
  facet normal 8.954876e-002 -8.057667e-001 5.854238e-001
    outer loop
      vertex   6.401250e+001 1.245374e+003 -1.128713e+001
      vertex   5.500000e+001 1.248643e+003 -5.407797e+000
      vertex   5.500000e+001 1.242286e+003 -1.415780e+001
    endloop
  endfacet
  facet normal -9.436630e-016 -9.876954e-001 1.563901e-001
    outer loop
      vertex   5.500000e+001 1.248643e+003 -5.407797e+000
      vertex   6.477465e+001 1.248643e+003 -5.407797e+000
      vertex   6.500000e+001 1.249500e+003 1.573847e-003
    endloop
  endfacet
  facet normal 8.533863e-002 -9.963520e-001 0.000000e+000
    outer loop
      vertex   6.500000e+001 1.249500e+003 1.573847e-003
      vertex   5.500000e+001 1.248643e+003 5.407797e+000
      vertex   5.500000e+001 1.248643e+003 -5.407797e+000
    endloop
  endfacet
  facet normal 8.954876e-002 -8.057667e-001 -5.854238e-001
    outer loop
      vertex   5.500000e+001 1.242286e+003 1.415780e+001
      vertex   5.500000e+001 1.248643e+003 5.407797e+000
      vertex   6.401250e+001 1.245374e+003 1.128713e+001
    endloop
  endfacet
  facet normal -1.164539e-015 -8.739246e-001 -4.860616e-001
    outer loop
      vertex   5.500000e+001 1.248643e+003 5.407797e+000
      vertex   6.477465e+001 1.248643e+003 5.407797e+000
      vertex   6.401250e+001 1.245374e+003 1.128713e+001
    endloop
  endfacet
  facet normal 1.086834e-001 -3.071865e-001 -9.454229e-001
    outer loop
      vertex   5.500000e+001 1.232000e+003 1.750000e+001
      vertex   5.500000e+001 1.242286e+003 1.415780e+001
      vertex   6.283407e+001 1.237419e+003 1.663970e+001
    endloop
  endfacet
  facet normal 6.042774e-015 -4.543023e-001 -8.908476e-001
    outer loop
      vertex   5.500000e+001 1.242286e+003 1.415780e+001
      vertex   6.343939e+001 1.242286e+003 1.415780e+001
      vertex   6.283407e+001 1.237419e+003 1.663970e+001
    endloop
  endfacet
  facet normal -4.468430e-016 -1.567801e-001 -9.876335e-001
    outer loop
      vertex   6.283407e+001 1.237419e+003 1.663970e+001
      vertex   6.259992e+001 1.232000e+003 1.750000e+001
      vertex   5.500000e+001 1.232000e+003 1.750000e+001
    endloop
  endfacet
  facet normal 4.999667e-015 -6.809504e-001 -7.323296e-001
    outer loop
      vertex   6.401250e+001 1.245374e+003 1.128713e+001
      vertex   6.343939e+001 1.242286e+003 1.415780e+001
      vertex   5.500000e+001 1.242286e+003 1.415780e+001
    endloop
  endfacet
  facet normal -3.799557e-016 -9.876813e-001 -1.564789e-001
    outer loop
      vertex   6.500000e+001 1.249500e+003 1.573847e-003
      vertex   6.477465e+001 1.248643e+003 5.407797e+000
      vertex   5.500000e+001 1.248643e+003 5.407797e+000
    endloop
  endfacet
  facet normal -2.936835e-015 -8.739246e-001 4.860616e-001
    outer loop
      vertex   6.401250e+001 1.245374e+003 -1.128713e+001
      vertex   6.477465e+001 1.248643e+003 -5.407797e+000
      vertex   5.500000e+001 1.248643e+003 -5.407797e+000
    endloop
  endfacet
  facet normal -2.024565e-015 -4.545581e-001 8.907171e-001
    outer loop
      vertex   6.283490e+001 1.237429e+003 -1.663658e+001
      vertex   6.343939e+001 1.242286e+003 -1.415780e+001
      vertex   5.500000e+001 1.242286e+003 -1.415780e+001
    endloop
  endfacet
endsolid
