solid Mortero
   facet normal 1.000000e+000 0.000000e+000 0.000000e+000
      outer loop
         vertex 1.200000e+004 0.000000e+000 4.000000e+003
         vertex 1.200000e+004 0.000000e+000 0.000000e+000
         vertex 1.200000e+004 8.000000e+002 4.000000e+003
      endloop
   endfacet
   facet normal 1.000000e+000 0.000000e+000 0.000000e+000
      outer loop
         vertex 1.200000e+004 8.000000e+002 4.000000e+003
         vertex 1.200000e+004 0.000000e+000 0.000000e+000
         vertex 1.200000e+004 8.000000e+002 0.000000e+000
      endloop
   endfacet
   facet normal 0.000000e+000 0.000000e+000 1.000000e+000
      outer loop
         vertex 0.000000e+000 0.000000e+000 4.000000e+003
         vertex 1.200000e+004 0.000000e+000 4.000000e+003
         vertex 0.000000e+000 8.000000e+002 4.000000e+003
      endloop
   endfacet
   facet normal 0.000000e+000 0.000000e+000 1.000000e+000
      outer loop
         vertex 0.000000e+000 8.000000e+002 4.000000e+003
         vertex 1.200000e+004 0.000000e+000 4.000000e+003
         vertex 1.200000e+004 8.000000e+002 4.000000e+003
      endloop
   endfacet
   facet normal -1.000000e+000 0.000000e+000 2.220446e-016
      outer loop
         vertex 0.000000e+000 0.000000e+000 0.000000e+000
         vertex 0.000000e+000 0.000000e+000 4.000000e+003
         vertex 0.000000e+000 8.000000e+002 0.000000e+000
      endloop
   endfacet
   facet normal -1.000000e+000 0.000000e+000 2.220446e-016
      outer loop
         vertex 0.000000e+000 8.000000e+002 0.000000e+000
         vertex 0.000000e+000 0.000000e+000 4.000000e+003
         vertex 0.000000e+000 8.000000e+002 4.000000e+003
      endloop
   endfacet
   facet normal 0.000000e+000 0.000000e+000 -1.000000e+000
      outer loop
         vertex 1.200000e+004 0.000000e+000 0.000000e+000
         vertex 0.000000e+000 0.000000e+000 0.000000e+000
         vertex 1.200000e+004 8.000000e+002 0.000000e+000
      endloop
   endfacet
   facet normal 0.000000e+000 0.000000e+000 -1.000000e+000
      outer loop
         vertex 1.200000e+004 8.000000e+002 0.000000e+000
         vertex 0.000000e+000 0.000000e+000 0.000000e+000
         vertex 0.000000e+000 8.000000e+002 0.000000e+000
      endloop
   endfacet
   facet normal 0.000000e+000 -1.000000e+000 0.000000e+000
      outer loop
         vertex 0.000000e+000 0.000000e+000 4.000000e+003
         vertex 0.000000e+000 0.000000e+000 0.000000e+000
         vertex 1.200000e+004 0.000000e+000 4.000000e+003
      endloop
   endfacet
   facet normal 0.000000e+000 -1.000000e+000 0.000000e+000
      outer loop
         vertex 1.200000e+004 0.000000e+000 4.000000e+003
         vertex 0.000000e+000 0.000000e+000 0.000000e+000
         vertex 1.200000e+004 0.000000e+000 0.000000e+000
      endloop
   endfacet
   facet normal 0.000000e+000 1.000000e+000 0.000000e+000
      outer loop
         vertex 0.000000e+000 8.000000e+002 0.000000e+000
         vertex 0.000000e+000 8.000000e+002 4.000000e+003
         vertex 1.200000e+004 8.000000e+002 0.000000e+000
      endloop
   endfacet
   facet normal 0.000000e+000 1.000000e+000 0.000000e+000
      outer loop
         vertex 1.200000e+004 8.000000e+002 0.000000e+000
         vertex 0.000000e+000 8.000000e+002 4.000000e+003
         vertex 1.200000e+004 8.000000e+002 4.000000e+003
      endloop
   endfacet
endsolid