solid AnilloInternoRotor
  facet normal 1.160929e-001 0.000000e+000 -9.932384e-001
    outer loop
      vertex   -3.228622e+001 3.250000e+002 1.362263e+002
      vertex   -3.429011e-014 3.250000e+002 1.400000e+002
      vertex   -3.429011e-014 -3.250000e+002 1.400000e+002
    endloop
  endfacet
  facet normal 3.420201e-001 0.000000e+000 -9.396926e-001
    outer loop
      vertex   -6.283189e+001 3.250000e+002 1.251086e+002
      vertex   -3.228622e+001 3.250000e+002 1.362263e+002
      vertex   -3.228622e+001 -3.250000e+002 1.362263e+002
    endloop
  endfacet
  facet normal 5.495090e-001 0.000000e+000 -8.354878e-001
    outer loop
      vertex   -8.999027e+001 3.250000e+002 1.072462e+002
      vertex   -6.283189e+001 3.250000e+002 1.251086e+002
      vertex   -6.283189e+001 -3.250000e+002 1.251086e+002
    endloop
  endfacet
  facet normal 7.273736e-001 0.000000e+000 -6.862416e-001
    outer loop
      vertex   -1.122972e+002 3.250000e+002 8.360220e+001
      vertex   -8.999027e+001 3.250000e+002 1.072462e+002
      vertex   -8.999027e+001 -3.250000e+002 1.072462e+002
    endloop
  endfacet
  facet normal 8.660254e-001 0.000000e+000 -5.000000e-001
    outer loop
      vertex   -1.285503e+002 3.250000e+002 5.545117e+001
      vertex   -1.122972e+002 3.250000e+002 8.360220e+001
      vertex   -1.122972e+002 -3.250000e+002 8.360220e+001
    endloop
  endfacet
  facet normal 9.579895e-001 0.000000e+000 -2.868032e-001
    outer loop
      vertex   -1.378731e+002 3.250000e+002 2.431074e+001
      vertex   -1.285503e+002 3.250000e+002 5.545117e+001
      vertex   -1.285503e+002 -3.250000e+002 5.545117e+001
    endloop
  endfacet
  facet normal 9.983082e-001 0.000000e+000 -5.814483e-002
    outer loop
      vertex   -1.397631e+002 3.250000e+002 -8.140276e+000
      vertex   -1.378731e+002 3.250000e+002 2.431074e+001
      vertex   -1.378731e+002 -3.250000e+002 2.431074e+001
    endloop
  endfacet
  facet normal 9.848078e-001 0.000000e+000 1.736482e-001
    outer loop
      vertex   -1.341185e+002 3.250000e+002 -4.015245e+001
      vertex   -1.397631e+002 3.250000e+002 -8.140276e+000
      vertex   -1.397631e+002 -3.250000e+002 -8.140276e+000
    endloop
  endfacet
  facet normal 9.182161e-001 0.000000e+000 3.960798e-001
    outer loop
      vertex   -1.212436e+002 3.250000e+002 -7.000000e+001
      vertex   -1.341185e+002 3.250000e+002 -4.015245e+001
      vertex   -1.341185e+002 -3.250000e+002 -4.015245e+001
    endloop
  endfacet
  facet normal 8.021232e-001 0.000000e+000 5.971586e-001
    outer loop
      vertex   -1.018323e+002 3.250000e+002 -9.607383e+001
      vertex   -1.212436e+002 3.250000e+002 -7.000000e+001
      vertex   -1.212436e+002 -3.250000e+002 -7.000000e+001
    endloop
  endfacet
  facet normal 6.427876e-001 0.000000e+000 7.660444e-001
    outer loop
      vertex   -7.693126e+001 3.250000e+002 -1.169683e+002
      vertex   -1.018323e+002 3.250000e+002 -9.607383e+001
      vertex   -1.018323e+002 -3.250000e+002 -9.607383e+001
    endloop
  endfacet
  facet normal 4.487992e-001 0.000000e+000 8.936326e-001
    outer loop
      vertex   -4.788282e+001 3.250000e+002 -1.315570e+002
      vertex   -7.693126e+001 3.250000e+002 -1.169683e+002
      vertex   -7.693126e+001 -3.250000e+002 -1.169683e+002
    endloop
  endfacet
  facet normal 2.306159e-001 0.000000e+000 9.730449e-001
    outer loop
      vertex   -1.625301e+001 3.250000e+002 -1.390534e+002
      vertex   -4.788282e+001 3.250000e+002 -1.315570e+002
      vertex   -4.788282e+001 -3.250000e+002 -1.315570e+002
    endloop
  endfacet
  facet normal 0.000000e+000 0.000000e+000 1.000000e+000
    outer loop
      vertex   1.625301e+001 3.250000e+002 -1.390534e+002
      vertex   -1.625301e+001 3.250000e+002 -1.390534e+002
      vertex   -1.625301e+001 -3.250000e+002 -1.390534e+002
    endloop
  endfacet
  facet normal -2.306159e-001 0.000000e+000 9.730449e-001
    outer loop
      vertex   4.788282e+001 3.250000e+002 -1.315570e+002
      vertex   1.625301e+001 3.250000e+002 -1.390534e+002
      vertex   1.625301e+001 -3.250000e+002 -1.390534e+002
    endloop
  endfacet
  facet normal -4.487992e-001 0.000000e+000 8.936326e-001
    outer loop
      vertex   7.693126e+001 3.250000e+002 -1.169683e+002
      vertex   4.788282e+001 3.250000e+002 -1.315570e+002
      vertex   4.788282e+001 -3.250000e+002 -1.315570e+002
    endloop
  endfacet
  facet normal -6.427876e-001 0.000000e+000 7.660444e-001
    outer loop
      vertex   1.018323e+002 3.250000e+002 -9.607383e+001
      vertex   7.693126e+001 3.250000e+002 -1.169683e+002
      vertex   7.693126e+001 -3.250000e+002 -1.169683e+002
    endloop
  endfacet
  facet normal -8.021232e-001 0.000000e+000 5.971586e-001
    outer loop
      vertex   1.212436e+002 3.250000e+002 -7.000000e+001
      vertex   1.018323e+002 3.250000e+002 -9.607383e+001
      vertex   1.018323e+002 -3.250000e+002 -9.607383e+001
    endloop
  endfacet
  facet normal -9.182161e-001 0.000000e+000 3.960798e-001
    outer loop
      vertex   1.341185e+002 3.250000e+002 -4.015245e+001
      vertex   1.212436e+002 3.250000e+002 -7.000000e+001
      vertex   1.212436e+002 -3.250000e+002 -7.000000e+001
    endloop
  endfacet
  facet normal -9.848078e-001 0.000000e+000 1.736482e-001
    outer loop
      vertex   1.397631e+002 3.250000e+002 -8.140276e+000
      vertex   1.341185e+002 3.250000e+002 -4.015245e+001
      vertex   1.341185e+002 -3.250000e+002 -4.015245e+001
    endloop
  endfacet
  facet normal -9.961947e-001 0.000000e+000 -8.715574e-002
    outer loop
      vertex   1.378731e+002 -3.250000e+002 2.431074e+001
      vertex   1.378731e+002 3.250000e+002 2.431074e+001
      vertex   1.400000e+002 3.250000e+002 4.286264e-014
    endloop
  endfacet
  facet normal -9.995770e-001 0.000000e+000 2.908472e-002
    outer loop
      vertex   1.397631e+002 3.250000e+002 -8.140276e+000
      vertex   1.397631e+002 -3.250000e+002 -8.140276e+000
      vertex   1.400000e+002 -3.250000e+002 8.572528e-015
    endloop
  endfacet
  facet normal -9.995770e-001 -1.534336e-018 2.908472e-002
    outer loop
      vertex   1.400000e+002 -3.250000e+002 8.572528e-015
      vertex   1.400000e+002 3.250000e+002 4.286264e-014
      vertex   1.397631e+002 3.250000e+002 -8.140276e+000
    endloop
  endfacet
  facet normal -9.579895e-001 0.000000e+000 -2.868032e-001
    outer loop
      vertex   1.285503e+002 3.250000e+002 5.545117e+001
      vertex   1.378731e+002 3.250000e+002 2.431074e+001
      vertex   1.378731e+002 -3.250000e+002 2.431074e+001
    endloop
  endfacet
  facet normal -8.660254e-001 0.000000e+000 -5.000000e-001
    outer loop
      vertex   1.122972e+002 3.250000e+002 8.360220e+001
      vertex   1.285503e+002 3.250000e+002 5.545117e+001
      vertex   1.285503e+002 -3.250000e+002 5.545117e+001
    endloop
  endfacet
  facet normal -7.273736e-001 0.000000e+000 -6.862416e-001
    outer loop
      vertex   8.999027e+001 3.250000e+002 1.072462e+002
      vertex   1.122972e+002 3.250000e+002 8.360220e+001
      vertex   1.122972e+002 -3.250000e+002 8.360220e+001
    endloop
  endfacet
  facet normal -5.495090e-001 0.000000e+000 -8.354878e-001
    outer loop
      vertex   6.283189e+001 3.250000e+002 1.251086e+002
      vertex   8.999027e+001 3.250000e+002 1.072462e+002
      vertex   8.999027e+001 -3.250000e+002 1.072462e+002
    endloop
  endfacet
  facet normal -3.420201e-001 0.000000e+000 -9.396926e-001
    outer loop
      vertex   3.228622e+001 3.250000e+002 1.362263e+002
      vertex   6.283189e+001 3.250000e+002 1.251086e+002
      vertex   6.283189e+001 -3.250000e+002 1.251086e+002
    endloop
  endfacet
  facet normal -1.160929e-001 0.000000e+000 -9.932384e-001
    outer loop
      vertex   -3.429011e-014 3.250000e+002 1.400000e+002
      vertex   3.228622e+001 3.250000e+002 1.362263e+002
      vertex   3.228622e+001 -3.250000e+002 1.362263e+002
    endloop
  endfacet
  facet normal -1.160929e-001 0.000000e+000 -9.932384e-001
    outer loop
      vertex   3.228622e+001 -3.250000e+002 1.362263e+002
      vertex   -3.429011e-014 -3.250000e+002 1.400000e+002
      vertex   -3.429011e-014 3.250000e+002 1.400000e+002
    endloop
  endfacet
  facet normal -3.420201e-001 0.000000e+000 -9.396926e-001
    outer loop
      vertex   6.283189e+001 -3.250000e+002 1.251086e+002
      vertex   3.228622e+001 -3.250000e+002 1.362263e+002
      vertex   3.228622e+001 3.250000e+002 1.362263e+002
    endloop
  endfacet
  facet normal -5.495090e-001 0.000000e+000 -8.354878e-001
    outer loop
      vertex   8.999027e+001 -3.250000e+002 1.072462e+002
      vertex   6.283189e+001 -3.250000e+002 1.251086e+002
      vertex   6.283189e+001 3.250000e+002 1.251086e+002
    endloop
  endfacet
  facet normal -7.273736e-001 0.000000e+000 -6.862416e-001
    outer loop
      vertex   1.122972e+002 -3.250000e+002 8.360220e+001
      vertex   8.999027e+001 -3.250000e+002 1.072462e+002
      vertex   8.999027e+001 3.250000e+002 1.072462e+002
    endloop
  endfacet
  facet normal -8.660254e-001 0.000000e+000 -5.000000e-001
    outer loop
      vertex   1.285503e+002 -3.250000e+002 5.545117e+001
      vertex   1.122972e+002 -3.250000e+002 8.360220e+001
      vertex   1.122972e+002 3.250000e+002 8.360220e+001
    endloop
  endfacet
  facet normal -9.579895e-001 0.000000e+000 -2.868032e-001
    outer loop
      vertex   1.378731e+002 -3.250000e+002 2.431074e+001
      vertex   1.285503e+002 -3.250000e+002 5.545117e+001
      vertex   1.285503e+002 3.250000e+002 5.545117e+001
    endloop
  endfacet
  facet normal -9.961947e-001 4.597815e-018 -8.715574e-002
    outer loop
      vertex   1.400000e+002 3.250000e+002 4.286264e-014
      vertex   1.400000e+002 -3.250000e+002 8.572528e-015
      vertex   1.378731e+002 -3.250000e+002 2.431074e+001
    endloop
  endfacet
  facet normal -9.848078e-001 0.000000e+000 1.736482e-001
    outer loop
      vertex   1.341185e+002 -3.250000e+002 -4.015245e+001
      vertex   1.397631e+002 -3.250000e+002 -8.140276e+000
      vertex   1.397631e+002 3.250000e+002 -8.140276e+000
    endloop
  endfacet
  facet normal -9.182161e-001 0.000000e+000 3.960798e-001
    outer loop
      vertex   1.212436e+002 -3.250000e+002 -7.000000e+001
      vertex   1.341185e+002 -3.250000e+002 -4.015245e+001
      vertex   1.341185e+002 3.250000e+002 -4.015245e+001
    endloop
  endfacet
  facet normal -8.021232e-001 0.000000e+000 5.971586e-001
    outer loop
      vertex   1.018323e+002 -3.250000e+002 -9.607383e+001
      vertex   1.212436e+002 -3.250000e+002 -7.000000e+001
      vertex   1.212436e+002 3.250000e+002 -7.000000e+001
    endloop
  endfacet
  facet normal -6.427876e-001 0.000000e+000 7.660444e-001
    outer loop
      vertex   7.693126e+001 -3.250000e+002 -1.169683e+002
      vertex   1.018323e+002 -3.250000e+002 -9.607383e+001
      vertex   1.018323e+002 3.250000e+002 -9.607383e+001
    endloop
  endfacet
  facet normal -4.487992e-001 0.000000e+000 8.936326e-001
    outer loop
      vertex   4.788282e+001 -3.250000e+002 -1.315570e+002
      vertex   7.693126e+001 -3.250000e+002 -1.169683e+002
      vertex   7.693126e+001 3.250000e+002 -1.169683e+002
    endloop
  endfacet
  facet normal -2.306159e-001 0.000000e+000 9.730449e-001
    outer loop
      vertex   1.625301e+001 -3.250000e+002 -1.390534e+002
      vertex   4.788282e+001 -3.250000e+002 -1.315570e+002
      vertex   4.788282e+001 3.250000e+002 -1.315570e+002
    endloop
  endfacet
  facet normal 0.000000e+000 0.000000e+000 1.000000e+000
    outer loop
      vertex   -1.625301e+001 -3.250000e+002 -1.390534e+002
      vertex   1.625301e+001 -3.250000e+002 -1.390534e+002
      vertex   1.625301e+001 3.250000e+002 -1.390534e+002
    endloop
  endfacet
  facet normal 2.306159e-001 0.000000e+000 9.730449e-001
    outer loop
      vertex   -4.788282e+001 -3.250000e+002 -1.315570e+002
      vertex   -1.625301e+001 -3.250000e+002 -1.390534e+002
      vertex   -1.625301e+001 3.250000e+002 -1.390534e+002
    endloop
  endfacet
  facet normal 4.487992e-001 0.000000e+000 8.936326e-001
    outer loop
      vertex   -7.693126e+001 -3.250000e+002 -1.169683e+002
      vertex   -4.788282e+001 -3.250000e+002 -1.315570e+002
      vertex   -4.788282e+001 3.250000e+002 -1.315570e+002
    endloop
  endfacet
  facet normal 6.427876e-001 0.000000e+000 7.660444e-001
    outer loop
      vertex   -1.018323e+002 -3.250000e+002 -9.607383e+001
      vertex   -7.693126e+001 -3.250000e+002 -1.169683e+002
      vertex   -7.693126e+001 3.250000e+002 -1.169683e+002
    endloop
  endfacet
  facet normal 8.021232e-001 0.000000e+000 5.971586e-001
    outer loop
      vertex   -1.212436e+002 -3.250000e+002 -7.000000e+001
      vertex   -1.018323e+002 -3.250000e+002 -9.607383e+001
      vertex   -1.018323e+002 3.250000e+002 -9.607383e+001
    endloop
  endfacet
  facet normal 9.182161e-001 0.000000e+000 3.960798e-001
    outer loop
      vertex   -1.341185e+002 -3.250000e+002 -4.015245e+001
      vertex   -1.212436e+002 -3.250000e+002 -7.000000e+001
      vertex   -1.212436e+002 3.250000e+002 -7.000000e+001
    endloop
  endfacet
  facet normal 9.848078e-001 0.000000e+000 1.736482e-001
    outer loop
      vertex   -1.397631e+002 -3.250000e+002 -8.140276e+000
      vertex   -1.341185e+002 -3.250000e+002 -4.015245e+001
      vertex   -1.341185e+002 3.250000e+002 -4.015245e+001
    endloop
  endfacet
  facet normal 9.983082e-001 0.000000e+000 -5.814483e-002
    outer loop
      vertex   -1.378731e+002 -3.250000e+002 2.431074e+001
      vertex   -1.397631e+002 -3.250000e+002 -8.140276e+000
      vertex   -1.397631e+002 3.250000e+002 -8.140276e+000
    endloop
  endfacet
  facet normal 9.579895e-001 0.000000e+000 -2.868032e-001
    outer loop
      vertex   -1.285503e+002 -3.250000e+002 5.545117e+001
      vertex   -1.378731e+002 -3.250000e+002 2.431074e+001
      vertex   -1.378731e+002 3.250000e+002 2.431074e+001
    endloop
  endfacet
  facet normal 8.660254e-001 0.000000e+000 -5.000000e-001
    outer loop
      vertex   -1.122972e+002 -3.250000e+002 8.360220e+001
      vertex   -1.285503e+002 -3.250000e+002 5.545117e+001
      vertex   -1.285503e+002 3.250000e+002 5.545117e+001
    endloop
  endfacet
  facet normal 7.273736e-001 0.000000e+000 -6.862416e-001
    outer loop
      vertex   -8.999027e+001 -3.250000e+002 1.072462e+002
      vertex   -1.122972e+002 -3.250000e+002 8.360220e+001
      vertex   -1.122972e+002 3.250000e+002 8.360220e+001
    endloop
  endfacet
  facet normal 5.495090e-001 0.000000e+000 -8.354878e-001
    outer loop
      vertex   -6.283189e+001 -3.250000e+002 1.251086e+002
      vertex   -8.999027e+001 -3.250000e+002 1.072462e+002
      vertex   -8.999027e+001 3.250000e+002 1.072462e+002
    endloop
  endfacet
  facet normal 3.420201e-001 0.000000e+000 -9.396926e-001
    outer loop
      vertex   -3.228622e+001 -3.250000e+002 1.362263e+002
      vertex   -6.283189e+001 -3.250000e+002 1.251086e+002
      vertex   -6.283189e+001 3.250000e+002 1.251086e+002
    endloop
  endfacet
  facet normal 1.160929e-001 0.000000e+000 -9.932384e-001
    outer loop
      vertex   -3.429011e-014 -3.250000e+002 1.400000e+002
      vertex   -3.228622e+001 -3.250000e+002 1.362263e+002
      vertex   -3.228622e+001 3.250000e+002 1.362263e+002
    endloop
  endfacet
  facet normal 0.000000e+000 -1.000000e+000 0.000000e+000
    outer loop
      vertex   2.790437e+002 -3.250000e+002 2.312222e+001
      vertex   2.714321e+002 -3.250000e+002 6.873594e+001
      vertex   1.378731e+002 -3.250000e+002 2.431074e+001
    endloop
  endfacet
  facet normal 0.000000e+000 -1.000000e+000 0.000000e+000
    outer loop
      vertex   2.800000e+002 -3.250000e+002 8.572528e-014
      vertex   1.400000e+002 -3.250000e+002 8.572528e-015
      vertex   1.397631e+002 -3.250000e+002 -8.140276e+000
    endloop
  endfacet
  facet normal 0.000000e+000 -1.000000e+000 0.000000e+000
    outer loop
      vertex   1.400000e+002 -3.250000e+002 8.572528e-015
      vertex   2.800000e+002 -3.250000e+002 8.572528e-014
      vertex   2.790437e+002 -3.250000e+002 2.312222e+001
    endloop
  endfacet
  facet normal -0.000000e+000 -1.000000e+000 0.000000e+000
    outer loop
      vertex   2.060027e+002 -3.250000e+002 1.896388e+002
      vertex   1.719796e+002 -3.250000e+002 2.209593e+002
      vertex   8.999027e+001 -3.250000e+002 1.072462e+002
    endloop
  endfacet
  facet normal 0.000000e+000 -1.000000e+000 0.000000e+000
    outer loop
      vertex   2.564165e+002 -3.250000e+002 -1.124747e+002
      vertex   2.714321e+002 -3.250000e+002 -6.873594e+001
      vertex   1.341185e+002 -3.250000e+002 -4.015245e+001
    endloop
  endfacet
  facet normal 0.000000e+000 -1.000000e+000 0.000000e+000
    outer loop
      vertex   2.714321e+002 -3.250000e+002 -6.873594e+001
      vertex   2.790437e+002 -3.250000e+002 -2.312222e+001
      vertex   1.397631e+002 -3.250000e+002 -8.140276e+000
    endloop
  endfacet
  facet normal 0.000000e+000 -1.000000e+000 0.000000e+000
    outer loop
      vertex   1.378731e+002 -3.250000e+002 2.431074e+001
      vertex   1.400000e+002 -3.250000e+002 8.572528e-015
      vertex   2.790437e+002 -3.250000e+002 2.312222e+001
    endloop
  endfacet
  facet normal 0.000000e+000 -1.000000e+000 0.000000e+000
    outer loop
      vertex   2.344066e+002 -3.250000e+002 1.531455e+002
      vertex   1.122972e+002 -3.250000e+002 8.360220e+001
      vertex   1.285503e+002 -3.250000e+002 5.545117e+001
    endloop
  endfacet
  facet normal 0.000000e+000 -1.000000e+000 0.000000e+000
    outer loop
      vertex   1.122972e+002 -3.250000e+002 8.360220e+001
      vertex   2.344066e+002 -3.250000e+002 1.531455e+002
      vertex   2.060027e+002 -3.250000e+002 1.896388e+002
    endloop
  endfacet
  facet normal 0.000000e+000 -1.000000e+000 0.000000e+000
    outer loop
      vertex   2.344066e+002 -3.250000e+002 -1.531455e+002
      vertex   1.212436e+002 -3.250000e+002 -7.000000e+001
      vertex   1.018323e+002 -3.250000e+002 -9.607383e+001
    endloop
  endfacet
  facet normal 0.000000e+000 -1.000000e+000 0.000000e+000
    outer loop
      vertex   1.212436e+002 -3.250000e+002 -7.000000e+001
      vertex   2.344066e+002 -3.250000e+002 -1.531455e+002
      vertex   2.564165e+002 -3.250000e+002 -1.124747e+002
    endloop
  endfacet
  facet normal 0.000000e+000 -1.000000e+000 0.000000e+000
    outer loop
      vertex   1.397631e+002 -3.250000e+002 -8.140276e+000
      vertex   2.790437e+002 -3.250000e+002 -2.312222e+001
      vertex   2.800000e+002 -3.250000e+002 8.572528e-014
    endloop
  endfacet
  facet normal -0.000000e+000 -1.000000e+000 0.000000e+000
    outer loop
      vertex   2.714321e+002 -3.250000e+002 6.873594e+001
      vertex   2.564165e+002 -3.250000e+002 1.124747e+002
      vertex   1.285503e+002 -3.250000e+002 5.545117e+001
    endloop
  endfacet
  facet normal 0.000000e+000 -1.000000e+000 0.000000e+000
    outer loop
      vertex   8.999027e+001 -3.250000e+002 1.072462e+002
      vertex   1.122972e+002 -3.250000e+002 8.360220e+001
      vertex   2.060027e+002 -3.250000e+002 1.896388e+002
    endloop
  endfacet
  facet normal -0.000000e+000 -1.000000e+000 0.000000e+000
    outer loop
      vertex   1.719796e+002 -3.250000e+002 2.209593e+002
      vertex   1.332653e+002 -3.250000e+002 2.462527e+002
      vertex   6.283189e+001 -3.250000e+002 1.251086e+002
    endloop
  endfacet
  facet normal 0.000000e+000 -1.000000e+000 0.000000e+000
    outer loop
      vertex   9.091585e+001 -3.250000e+002 2.648288e+002
      vertex   3.228622e+001 -3.250000e+002 1.362263e+002
      vertex   6.283189e+001 -3.250000e+002 1.251086e+002
    endloop
  endfacet
  facet normal 0.000000e+000 -1.000000e+000 -0.000000e+000
    outer loop
      vertex   1.341185e+002 -3.250000e+002 -4.015245e+001
      vertex   1.212436e+002 -3.250000e+002 -7.000000e+001
      vertex   2.564165e+002 -3.250000e+002 -1.124747e+002
    endloop
  endfacet
  facet normal 0.000000e+000 -1.000000e+000 0.000000e+000
    outer loop
      vertex   1.285503e+002 -3.250000e+002 5.545117e+001
      vertex   1.378731e+002 -3.250000e+002 2.431074e+001
      vertex   2.714321e+002 -3.250000e+002 6.873594e+001
    endloop
  endfacet
  facet normal 0.000000e+000 -1.000000e+000 0.000000e+000
    outer loop
      vertex   6.283189e+001 -3.250000e+002 1.251086e+002
      vertex   8.999027e+001 -3.250000e+002 1.072462e+002
      vertex   1.719796e+002 -3.250000e+002 2.209593e+002
    endloop
  endfacet
  facet normal 0.000000e+000 -1.000000e+000 0.000000e+000
    outer loop
      vertex   6.283189e+001 -3.250000e+002 1.251086e+002
      vertex   1.332653e+002 -3.250000e+002 2.462527e+002
      vertex   9.091585e+001 -3.250000e+002 2.648288e+002
    endloop
  endfacet
  facet normal 0.000000e+000 -1.000000e+000 0.000000e+000
    outer loop
      vertex   -2.790437e+002 -3.250000e+002 2.312222e+001
      vertex   -2.790437e+002 -3.250000e+002 -2.312222e+001
      vertex   -1.397631e+002 -3.250000e+002 -8.140276e+000
    endloop
  endfacet
  facet normal 0.000000e+000 -1.000000e+000 -0.000000e+000
    outer loop
      vertex   1.397631e+002 -3.250000e+002 -8.140276e+000
      vertex   1.341185e+002 -3.250000e+002 -4.015245e+001
      vertex   2.714321e+002 -3.250000e+002 -6.873594e+001
    endloop
  endfacet
  facet normal -0.000000e+000 -1.000000e+000 0.000000e+000
    outer loop
      vertex   9.091585e+001 -3.250000e+002 2.648288e+002
      vertex   4.608649e+001 -3.250000e+002 2.761812e+002
      vertex   3.228622e+001 -3.250000e+002 1.362263e+002
    endloop
  endfacet
  facet normal -0.000000e+000 -1.000000e+000 0.000000e+000
    outer loop
      vertex   4.608649e+001 -3.250000e+002 2.761812e+002
      vertex   -6.858022e-014 -3.250000e+002 2.800000e+002
      vertex   -3.429011e-014 -3.250000e+002 1.400000e+002
    endloop
  endfacet
  facet normal 0.000000e+000 -1.000000e+000 0.000000e+000
    outer loop
      vertex   -4.608649e+001 -3.250000e+002 2.761812e+002
      vertex   -3.228622e+001 -3.250000e+002 1.362263e+002
      vertex   -3.429011e-014 -3.250000e+002 1.400000e+002
    endloop
  endfacet
  facet normal 0.000000e+000 -1.000000e+000 0.000000e+000
    outer loop
      vertex   -2.060027e+002 -3.250000e+002 1.896388e+002
      vertex   -1.122972e+002 -3.250000e+002 8.360220e+001
      vertex   -8.999027e+001 -3.250000e+002 1.072462e+002
    endloop
  endfacet
  facet normal 0.000000e+000 -1.000000e+000 0.000000e+000
    outer loop
      vertex   -2.714321e+002 -3.250000e+002 6.873594e+001
      vertex   -1.378731e+002 -3.250000e+002 2.431074e+001
      vertex   -1.285503e+002 -3.250000e+002 5.545117e+001
    endloop
  endfacet
  facet normal -0.000000e+000 -1.000000e+000 0.000000e+000
    outer loop
      vertex   -1.378731e+002 -3.250000e+002 2.431074e+001
      vertex   -2.714321e+002 -3.250000e+002 6.873594e+001
      vertex   -2.790437e+002 -3.250000e+002 2.312222e+001
    endloop
  endfacet
  facet normal 0.000000e+000 -1.000000e+000 0.000000e+000
    outer loop
      vertex   -2.564165e+002 -3.250000e+002 -1.124747e+002
      vertex   -1.212436e+002 -3.250000e+002 -7.000000e+001
      vertex   -1.341185e+002 -3.250000e+002 -4.015245e+001
    endloop
  endfacet
  facet normal 0.000000e+000 -1.000000e+000 0.000000e+000
    outer loop
      vertex   1.332653e+002 -3.250000e+002 -2.462527e+002
      vertex   7.693126e+001 -3.250000e+002 -1.169683e+002
      vertex   4.788282e+001 -3.250000e+002 -1.315570e+002
    endloop
  endfacet
  facet normal 0.000000e+000 -1.000000e+000 0.000000e+000
    outer loop
      vertex   1.285503e+002 -3.250000e+002 5.545117e+001
      vertex   2.564165e+002 -3.250000e+002 1.124747e+002
      vertex   2.344066e+002 -3.250000e+002 1.531455e+002
    endloop
  endfacet
  facet normal 0.000000e+000 -1.000000e+000 0.000000e+000
    outer loop
      vertex   -3.429011e-014 -3.250000e+002 1.400000e+002
      vertex   -6.858022e-014 -3.250000e+002 2.800000e+002
      vertex   -4.608649e+001 -3.250000e+002 2.761812e+002
    endloop
  endfacet
  facet normal 0.000000e+000 -1.000000e+000 -0.000000e+000
    outer loop
      vertex   -9.091585e+001 -3.250000e+002 2.648288e+002
      vertex   -1.332653e+002 -3.250000e+002 2.462527e+002
      vertex   -6.283189e+001 -3.250000e+002 1.251086e+002
    endloop
  endfacet
  facet normal 0.000000e+000 -1.000000e+000 0.000000e+000
    outer loop
      vertex   -8.999027e+001 -3.250000e+002 1.072462e+002
      vertex   -1.719796e+002 -3.250000e+002 2.209593e+002
      vertex   -2.060027e+002 -3.250000e+002 1.896388e+002
    endloop
  endfacet
  facet normal 0.000000e+000 -1.000000e+000 -0.000000e+000
    outer loop
      vertex   -2.344066e+002 -3.250000e+002 1.531455e+002
      vertex   -2.564165e+002 -3.250000e+002 1.124747e+002
      vertex   -1.285503e+002 -3.250000e+002 5.545117e+001
    endloop
  endfacet
  facet normal 0.000000e+000 -1.000000e+000 0.000000e+000
    outer loop
      vertex   -1.397631e+002 -3.250000e+002 -8.140276e+000
      vertex   -1.378731e+002 -3.250000e+002 2.431074e+001
      vertex   -2.790437e+002 -3.250000e+002 2.312222e+001
    endloop
  endfacet
  facet normal 0.000000e+000 -1.000000e+000 0.000000e+000
    outer loop
      vertex   -2.714321e+002 -3.250000e+002 -6.873594e+001
      vertex   -1.341185e+002 -3.250000e+002 -4.015245e+001
      vertex   -1.397631e+002 -3.250000e+002 -8.140276e+000
    endloop
  endfacet
  facet normal 0.000000e+000 -1.000000e+000 0.000000e+000
    outer loop
      vertex   -1.341185e+002 -3.250000e+002 -4.015245e+001
      vertex   -2.714321e+002 -3.250000e+002 -6.873594e+001
      vertex   -2.564165e+002 -3.250000e+002 -1.124747e+002
    endloop
  endfacet
  facet normal 0.000000e+000 -1.000000e+000 0.000000e+000
    outer loop
      vertex   -2.344066e+002 -3.250000e+002 -1.531455e+002
      vertex   -2.060027e+002 -3.250000e+002 -1.896388e+002
      vertex   -1.018323e+002 -3.250000e+002 -9.607383e+001
    endloop
  endfacet
  facet normal 0.000000e+000 -1.000000e+000 0.000000e+000
    outer loop
      vertex   -1.332653e+002 -3.250000e+002 -2.462527e+002
      vertex   -9.091585e+001 -3.250000e+002 -2.648288e+002
      vertex   -4.788282e+001 -3.250000e+002 -1.315570e+002
    endloop
  endfacet
  facet normal 0.000000e+000 -1.000000e+000 0.000000e+000
    outer loop
      vertex   4.788282e+001 -3.250000e+002 -1.315570e+002
      vertex   9.091585e+001 -3.250000e+002 -2.648288e+002
      vertex   1.332653e+002 -3.250000e+002 -2.462527e+002
    endloop
  endfacet
  facet normal 0.000000e+000 -1.000000e+000 0.000000e+000
    outer loop
      vertex   1.719796e+002 -3.250000e+002 -2.209593e+002
      vertex   2.060027e+002 -3.250000e+002 -1.896388e+002
      vertex   1.018323e+002 -3.250000e+002 -9.607383e+001
    endloop
  endfacet
  facet normal 0.000000e+000 -1.000000e+000 0.000000e+000
    outer loop
      vertex   -3.429011e-014 -3.250000e+002 1.400000e+002
      vertex   3.228622e+001 -3.250000e+002 1.362263e+002
      vertex   4.608649e+001 -3.250000e+002 2.761812e+002
    endloop
  endfacet
  facet normal 0.000000e+000 -1.000000e+000 0.000000e+000
    outer loop
      vertex   -3.228622e+001 -3.250000e+002 1.362263e+002
      vertex   -4.608649e+001 -3.250000e+002 2.761812e+002
      vertex   -9.091585e+001 -3.250000e+002 2.648288e+002
    endloop
  endfacet
  facet normal 0.000000e+000 -1.000000e+000 0.000000e+000
    outer loop
      vertex   -1.719796e+002 -3.250000e+002 2.209593e+002
      vertex   -8.999027e+001 -3.250000e+002 1.072462e+002
      vertex   -6.283189e+001 -3.250000e+002 1.251086e+002
    endloop
  endfacet
  facet normal 0.000000e+000 -1.000000e+000 0.000000e+000
    outer loop
      vertex   -1.285503e+002 -3.250000e+002 5.545117e+001
      vertex   -1.122972e+002 -3.250000e+002 8.360220e+001
      vertex   -2.344066e+002 -3.250000e+002 1.531455e+002
    endloop
  endfacet
  facet normal 0.000000e+000 -1.000000e+000 0.000000e+000
    outer loop
      vertex   -1.397631e+002 -3.250000e+002 -8.140276e+000
      vertex   -2.790437e+002 -3.250000e+002 -2.312222e+001
      vertex   -2.714321e+002 -3.250000e+002 -6.873594e+001
    endloop
  endfacet
  facet normal -0.000000e+000 -1.000000e+000 0.000000e+000
    outer loop
      vertex   -1.018323e+002 -3.250000e+002 -9.607383e+001
      vertex   -1.212436e+002 -3.250000e+002 -7.000000e+001
      vertex   -2.344066e+002 -3.250000e+002 -1.531455e+002
    endloop
  endfacet
  facet normal 0.000000e+000 -1.000000e+000 0.000000e+000
    outer loop
      vertex   -1.719796e+002 -3.250000e+002 -2.209593e+002
      vertex   -7.693126e+001 -3.250000e+002 -1.169683e+002
      vertex   -1.018323e+002 -3.250000e+002 -9.607383e+001
    endloop
  endfacet
  facet normal 0.000000e+000 -1.000000e+000 0.000000e+000
    outer loop
      vertex   -7.693126e+001 -3.250000e+002 -1.169683e+002
      vertex   -1.719796e+002 -3.250000e+002 -2.209593e+002
      vertex   -1.332653e+002 -3.250000e+002 -2.462527e+002
    endloop
  endfacet
  facet normal 0.000000e+000 -1.000000e+000 0.000000e+000
    outer loop
      vertex   3.429011e-014 -3.250000e+002 -2.800000e+002
      vertex   4.608649e+001 -3.250000e+002 -2.761812e+002
      vertex   1.625301e+001 -3.250000e+002 -1.390534e+002
    endloop
  endfacet
  facet normal 0.000000e+000 -1.000000e+000 0.000000e+000
    outer loop
      vertex   4.608649e+001 -3.250000e+002 -2.761812e+002
      vertex   9.091585e+001 -3.250000e+002 -2.648288e+002
      vertex   4.788282e+001 -3.250000e+002 -1.315570e+002
    endloop
  endfacet
  facet normal 0.000000e+000 -1.000000e+000 -0.000000e+000
    outer loop
      vertex   1.018323e+002 -3.250000e+002 -9.607383e+001
      vertex   7.693126e+001 -3.250000e+002 -1.169683e+002
      vertex   1.719796e+002 -3.250000e+002 -2.209593e+002
    endloop
  endfacet
  facet normal 0.000000e+000 -1.000000e+000 0.000000e+000
    outer loop
      vertex   -6.283189e+001 -3.250000e+002 1.251086e+002
      vertex   -3.228622e+001 -3.250000e+002 1.362263e+002
      vertex   -9.091585e+001 -3.250000e+002 2.648288e+002
    endloop
  endfacet
  facet normal 0.000000e+000 -1.000000e+000 -0.000000e+000
    outer loop
      vertex   -2.060027e+002 -3.250000e+002 1.896388e+002
      vertex   -2.344066e+002 -3.250000e+002 1.531455e+002
      vertex   -1.122972e+002 -3.250000e+002 8.360220e+001
    endloop
  endfacet
  facet normal 0.000000e+000 -1.000000e+000 0.000000e+000
    outer loop
      vertex   -2.564165e+002 -3.250000e+002 -1.124747e+002
      vertex   -2.344066e+002 -3.250000e+002 -1.531455e+002
      vertex   -1.212436e+002 -3.250000e+002 -7.000000e+001
    endloop
  endfacet
  facet normal -0.000000e+000 -1.000000e+000 0.000000e+000
    outer loop
      vertex   -4.788282e+001 -3.250000e+002 -1.315570e+002
      vertex   -7.693126e+001 -3.250000e+002 -1.169683e+002
      vertex   -1.332653e+002 -3.250000e+002 -2.462527e+002
    endloop
  endfacet
  facet normal 0.000000e+000 -1.000000e+000 0.000000e+000
    outer loop
      vertex   -4.608649e+001 -3.250000e+002 -2.761812e+002
      vertex   -1.625301e+001 -3.250000e+002 -1.390534e+002
      vertex   -4.788282e+001 -3.250000e+002 -1.315570e+002
    endloop
  endfacet
  facet normal 0.000000e+000 -1.000000e+000 -0.000000e+000
    outer loop
      vertex   -1.625301e+001 -3.250000e+002 -1.390534e+002
      vertex   -4.608649e+001 -3.250000e+002 -2.761812e+002
      vertex   3.429011e-014 -3.250000e+002 -2.800000e+002
    endloop
  endfacet
  facet normal 0.000000e+000 -1.000000e+000 0.000000e+000
    outer loop
      vertex   1.332653e+002 -3.250000e+002 -2.462527e+002
      vertex   1.719796e+002 -3.250000e+002 -2.209593e+002
      vertex   7.693126e+001 -3.250000e+002 -1.169683e+002
    endloop
  endfacet
  facet normal 0.000000e+000 -1.000000e+000 0.000000e+000
    outer loop
      vertex   -6.283189e+001 -3.250000e+002 1.251086e+002
      vertex   -1.332653e+002 -3.250000e+002 2.462527e+002
      vertex   -1.719796e+002 -3.250000e+002 2.209593e+002
    endloop
  endfacet
  facet normal 0.000000e+000 -1.000000e+000 0.000000e+000
    outer loop
      vertex   -1.018323e+002 -3.250000e+002 -9.607383e+001
      vertex   -2.060027e+002 -3.250000e+002 -1.896388e+002
      vertex   -1.719796e+002 -3.250000e+002 -2.209593e+002
    endloop
  endfacet
  facet normal -0.000000e+000 -1.000000e+000 0.000000e+000
    outer loop
      vertex   1.625301e+001 -3.250000e+002 -1.390534e+002
      vertex   -1.625301e+001 -3.250000e+002 -1.390534e+002
      vertex   3.429011e-014 -3.250000e+002 -2.800000e+002
    endloop
  endfacet
  facet normal 0.000000e+000 -1.000000e+000 0.000000e+000
    outer loop
      vertex   1.018323e+002 -3.250000e+002 -9.607383e+001
      vertex   2.060027e+002 -3.250000e+002 -1.896388e+002
      vertex   2.344066e+002 -3.250000e+002 -1.531455e+002
    endloop
  endfacet
  facet normal 0.000000e+000 -1.000000e+000 -0.000000e+000
    outer loop
      vertex   -4.788282e+001 -3.250000e+002 -1.315570e+002
      vertex   -9.091585e+001 -3.250000e+002 -2.648288e+002
      vertex   -4.608649e+001 -3.250000e+002 -2.761812e+002
    endloop
  endfacet
  facet normal 0.000000e+000 -1.000000e+000 0.000000e+000
    outer loop
      vertex   -1.285503e+002 -3.250000e+002 5.545117e+001
      vertex   -2.564165e+002 -3.250000e+002 1.124747e+002
      vertex   -2.714321e+002 -3.250000e+002 6.873594e+001
    endloop
  endfacet
  facet normal 0.000000e+000 -1.000000e+000 0.000000e+000
    outer loop
      vertex   4.788282e+001 -3.250000e+002 -1.315570e+002
      vertex   1.625301e+001 -3.250000e+002 -1.390534e+002
      vertex   4.608649e+001 -3.250000e+002 -2.761812e+002
    endloop
  endfacet
  facet normal 8.257935e-002 0.000000e+000 9.965845e-001
    outer loop
      vertex   -6.858022e-014 3.250000e+002 2.800000e+002
      vertex   -6.858022e-014 -3.250000e+002 2.800000e+002
      vertex   4.608649e+001 -3.250000e+002 2.761812e+002
    endloop
  endfacet
  facet normal 2.454855e-001 0.000000e+000 9.694003e-001
    outer loop
      vertex   4.608649e+001 3.250000e+002 2.761812e+002
      vertex   4.608649e+001 -3.250000e+002 2.761812e+002
      vertex   9.091585e+001 -3.250000e+002 2.648288e+002
    endloop
  endfacet
  facet normal 4.016954e-001 0.000000e+000 9.157733e-001
    outer loop
      vertex   9.091585e+001 3.250000e+002 2.648288e+002
      vertex   9.091585e+001 -3.250000e+002 2.648288e+002
      vertex   1.332653e+002 -3.250000e+002 2.462527e+002
    endloop
  endfacet
  facet normal 5.469482e-001 0.000000e+000 8.371665e-001
    outer loop
      vertex   1.332653e+002 3.250000e+002 2.462527e+002
      vertex   1.332653e+002 -3.250000e+002 2.462527e+002
      vertex   1.719796e+002 -3.250000e+002 2.209593e+002
    endloop
  endfacet
  facet normal 6.772816e-001 0.000000e+000 7.357239e-001
    outer loop
      vertex   1.719796e+002 3.250000e+002 2.209593e+002
      vertex   1.719796e+002 -3.250000e+002 2.209593e+002
      vertex   2.060027e+002 -3.250000e+002 1.896388e+002
    endloop
  endfacet
  facet normal 7.891405e-001 0.000000e+000 6.142127e-001
    outer loop
      vertex   2.060027e+002 3.250000e+002 1.896388e+002
      vertex   2.060027e+002 -3.250000e+002 1.896388e+002
      vertex   2.344066e+002 -3.250000e+002 1.531455e+002
    endloop
  endfacet
  facet normal 8.794738e-001 0.000000e+000 4.759474e-001
    outer loop
      vertex   2.344066e+002 3.250000e+002 1.531455e+002
      vertex   2.344066e+002 -3.250000e+002 1.531455e+002
      vertex   2.564165e+002 -3.250000e+002 1.124747e+002
    endloop
  endfacet
  facet normal 9.458172e-001 0.000000e+000 3.246995e-001
    outer loop
      vertex   2.564165e+002 3.250000e+002 1.124747e+002
      vertex   2.564165e+002 -3.250000e+002 1.124747e+002
      vertex   2.714321e+002 -3.250000e+002 6.873594e+001
    endloop
  endfacet
  facet normal 9.863613e-001 0.000000e+000 1.645946e-001
    outer loop
      vertex   2.714321e+002 3.250000e+002 6.873594e+001
      vertex   2.714321e+002 -3.250000e+002 6.873594e+001
      vertex   2.790437e+002 -3.250000e+002 2.312222e+001
    endloop
  endfacet
  facet normal 9.991458e-001 0.000000e+000 -4.132497e-002
    outer loop
      vertex   2.790437e+002 -3.250000e+002 -2.312222e+001
      vertex   2.790437e+002 3.250000e+002 -2.312222e+001
      vertex   2.800000e+002 3.250000e+002 1.714506e-014
    endloop
  endfacet
  facet normal 9.991458e-001 0.000000e+000 4.132497e-002
    outer loop
      vertex   2.790437e+002 3.250000e+002 2.312222e+001
      vertex   2.790437e+002 -3.250000e+002 2.312222e+001
      vertex   2.800000e+002 -3.250000e+002 8.572528e-014
    endloop
  endfacet
  facet normal 9.991458e-001 4.360117e-018 4.132497e-002
    outer loop
      vertex   2.800000e+002 -3.250000e+002 8.572528e-014
      vertex   2.800000e+002 3.250000e+002 1.714506e-014
      vertex   2.790437e+002 3.250000e+002 2.312222e+001
    endloop
  endfacet
  facet normal 9.863613e-001 0.000000e+000 -1.645946e-001
    outer loop
      vertex   2.790437e+002 3.250000e+002 -2.312222e+001
      vertex   2.790437e+002 -3.250000e+002 -2.312222e+001
      vertex   2.714321e+002 -3.250000e+002 -6.873594e+001
    endloop
  endfacet
  facet normal 9.458172e-001 0.000000e+000 -3.246995e-001
    outer loop
      vertex   2.714321e+002 3.250000e+002 -6.873594e+001
      vertex   2.714321e+002 -3.250000e+002 -6.873594e+001
      vertex   2.564165e+002 -3.250000e+002 -1.124747e+002
    endloop
  endfacet
  facet normal 8.794738e-001 0.000000e+000 -4.759474e-001
    outer loop
      vertex   2.564165e+002 3.250000e+002 -1.124747e+002
      vertex   2.564165e+002 -3.250000e+002 -1.124747e+002
      vertex   2.344066e+002 -3.250000e+002 -1.531455e+002
    endloop
  endfacet
  facet normal 7.891405e-001 0.000000e+000 -6.142127e-001
    outer loop
      vertex   2.344066e+002 3.250000e+002 -1.531455e+002
      vertex   2.344066e+002 -3.250000e+002 -1.531455e+002
      vertex   2.060027e+002 -3.250000e+002 -1.896388e+002
    endloop
  endfacet
  facet normal 6.772816e-001 0.000000e+000 -7.357239e-001
    outer loop
      vertex   2.060027e+002 3.250000e+002 -1.896388e+002
      vertex   2.060027e+002 -3.250000e+002 -1.896388e+002
      vertex   1.719796e+002 -3.250000e+002 -2.209593e+002
    endloop
  endfacet
  facet normal 5.469482e-001 0.000000e+000 -8.371665e-001
    outer loop
      vertex   1.719796e+002 3.250000e+002 -2.209593e+002
      vertex   1.719796e+002 -3.250000e+002 -2.209593e+002
      vertex   1.332653e+002 -3.250000e+002 -2.462527e+002
    endloop
  endfacet
  facet normal 4.016954e-001 0.000000e+000 -9.157733e-001
    outer loop
      vertex   1.332653e+002 3.250000e+002 -2.462527e+002
      vertex   1.332653e+002 -3.250000e+002 -2.462527e+002
      vertex   9.091585e+001 -3.250000e+002 -2.648288e+002
    endloop
  endfacet
  facet normal 2.454855e-001 0.000000e+000 -9.694003e-001
    outer loop
      vertex   9.091585e+001 3.250000e+002 -2.648288e+002
      vertex   9.091585e+001 -3.250000e+002 -2.648288e+002
      vertex   4.608649e+001 -3.250000e+002 -2.761812e+002
    endloop
  endfacet
  facet normal 8.257935e-002 0.000000e+000 -9.965845e-001
    outer loop
      vertex   4.608649e+001 3.250000e+002 -2.761812e+002
      vertex   4.608649e+001 -3.250000e+002 -2.761812e+002
      vertex   3.429011e-014 -3.250000e+002 -2.800000e+002
    endloop
  endfacet
  facet normal -8.257935e-002 -0.000000e+000 -9.965845e-001
    outer loop
      vertex   3.429011e-014 3.250000e+002 -2.800000e+002
      vertex   3.429011e-014 -3.250000e+002 -2.800000e+002
      vertex   -4.608649e+001 -3.250000e+002 -2.761812e+002
    endloop
  endfacet
  facet normal -2.454855e-001 -0.000000e+000 -9.694003e-001
    outer loop
      vertex   -4.608649e+001 3.250000e+002 -2.761812e+002
      vertex   -4.608649e+001 -3.250000e+002 -2.761812e+002
      vertex   -9.091585e+001 -3.250000e+002 -2.648288e+002
    endloop
  endfacet
  facet normal -4.016954e-001 -0.000000e+000 -9.157733e-001
    outer loop
      vertex   -9.091585e+001 3.250000e+002 -2.648288e+002
      vertex   -9.091585e+001 -3.250000e+002 -2.648288e+002
      vertex   -1.332653e+002 -3.250000e+002 -2.462527e+002
    endloop
  endfacet
  facet normal -5.469482e-001 -0.000000e+000 -8.371665e-001
    outer loop
      vertex   -1.332653e+002 3.250000e+002 -2.462527e+002
      vertex   -1.332653e+002 -3.250000e+002 -2.462527e+002
      vertex   -1.719796e+002 -3.250000e+002 -2.209593e+002
    endloop
  endfacet
  facet normal -6.772816e-001 -0.000000e+000 -7.357239e-001
    outer loop
      vertex   -1.719796e+002 3.250000e+002 -2.209593e+002
      vertex   -1.719796e+002 -3.250000e+002 -2.209593e+002
      vertex   -2.060027e+002 -3.250000e+002 -1.896388e+002
    endloop
  endfacet
  facet normal -7.891405e-001 -0.000000e+000 -6.142127e-001
    outer loop
      vertex   -2.060027e+002 3.250000e+002 -1.896388e+002
      vertex   -2.060027e+002 -3.250000e+002 -1.896388e+002
      vertex   -2.344066e+002 -3.250000e+002 -1.531455e+002
    endloop
  endfacet
  facet normal -8.794738e-001 -0.000000e+000 -4.759474e-001
    outer loop
      vertex   -2.344066e+002 3.250000e+002 -1.531455e+002
      vertex   -2.344066e+002 -3.250000e+002 -1.531455e+002
      vertex   -2.564165e+002 -3.250000e+002 -1.124747e+002
    endloop
  endfacet
  facet normal -9.458172e-001 -0.000000e+000 -3.246995e-001
    outer loop
      vertex   -2.564165e+002 3.250000e+002 -1.124747e+002
      vertex   -2.564165e+002 -3.250000e+002 -1.124747e+002
      vertex   -2.714321e+002 -3.250000e+002 -6.873594e+001
    endloop
  endfacet
  facet normal -9.863613e-001 -0.000000e+000 -1.645946e-001
    outer loop
      vertex   -2.714321e+002 3.250000e+002 -6.873594e+001
      vertex   -2.714321e+002 -3.250000e+002 -6.873594e+001
      vertex   -2.790437e+002 -3.250000e+002 -2.312222e+001
    endloop
  endfacet
  facet normal -1.000000e+000 0.000000e+000 0.000000e+000
    outer loop
      vertex   -2.790437e+002 3.250000e+002 -2.312222e+001
      vertex   -2.790437e+002 -3.250000e+002 -2.312222e+001
      vertex   -2.790437e+002 -3.250000e+002 2.312222e+001
    endloop
  endfacet
  facet normal -9.863613e-001 0.000000e+000 1.645946e-001
    outer loop
      vertex   -2.790437e+002 3.250000e+002 2.312222e+001
      vertex   -2.790437e+002 -3.250000e+002 2.312222e+001
      vertex   -2.714321e+002 -3.250000e+002 6.873594e+001
    endloop
  endfacet
  facet normal -9.458172e-001 0.000000e+000 3.246995e-001
    outer loop
      vertex   -2.714321e+002 3.250000e+002 6.873594e+001
      vertex   -2.714321e+002 -3.250000e+002 6.873594e+001
      vertex   -2.564165e+002 -3.250000e+002 1.124747e+002
    endloop
  endfacet
  facet normal -8.794738e-001 0.000000e+000 4.759474e-001
    outer loop
      vertex   -2.564165e+002 3.250000e+002 1.124747e+002
      vertex   -2.564165e+002 -3.250000e+002 1.124747e+002
      vertex   -2.344066e+002 -3.250000e+002 1.531455e+002
    endloop
  endfacet
  facet normal -7.891405e-001 0.000000e+000 6.142127e-001
    outer loop
      vertex   -2.344066e+002 3.250000e+002 1.531455e+002
      vertex   -2.344066e+002 -3.250000e+002 1.531455e+002
      vertex   -2.060027e+002 -3.250000e+002 1.896388e+002
    endloop
  endfacet
  facet normal -6.772816e-001 0.000000e+000 7.357239e-001
    outer loop
      vertex   -2.060027e+002 3.250000e+002 1.896388e+002
      vertex   -2.060027e+002 -3.250000e+002 1.896388e+002
      vertex   -1.719796e+002 -3.250000e+002 2.209593e+002
    endloop
  endfacet
  facet normal -5.469482e-001 0.000000e+000 8.371665e-001
    outer loop
      vertex   -1.719796e+002 3.250000e+002 2.209593e+002
      vertex   -1.719796e+002 -3.250000e+002 2.209593e+002
      vertex   -1.332653e+002 -3.250000e+002 2.462527e+002
    endloop
  endfacet
  facet normal -4.016954e-001 0.000000e+000 9.157733e-001
    outer loop
      vertex   -1.332653e+002 3.250000e+002 2.462527e+002
      vertex   -1.332653e+002 -3.250000e+002 2.462527e+002
      vertex   -9.091585e+001 -3.250000e+002 2.648288e+002
    endloop
  endfacet
  facet normal -2.454855e-001 0.000000e+000 9.694003e-001
    outer loop
      vertex   -9.091585e+001 3.250000e+002 2.648288e+002
      vertex   -9.091585e+001 -3.250000e+002 2.648288e+002
      vertex   -4.608649e+001 -3.250000e+002 2.761812e+002
    endloop
  endfacet
  facet normal -8.257935e-002 0.000000e+000 9.965845e-001
    outer loop
      vertex   -4.608649e+001 3.250000e+002 2.761812e+002
      vertex   -4.608649e+001 -3.250000e+002 2.761812e+002
      vertex   -6.858022e-014 -3.250000e+002 2.800000e+002
    endloop
  endfacet
  facet normal -8.257935e-002 0.000000e+000 9.965845e-001
    outer loop
      vertex   -6.858022e-014 -3.250000e+002 2.800000e+002
      vertex   -6.858022e-014 3.250000e+002 2.800000e+002
      vertex   -4.608649e+001 3.250000e+002 2.761812e+002
    endloop
  endfacet
  facet normal -2.454855e-001 0.000000e+000 9.694003e-001
    outer loop
      vertex   -4.608649e+001 -3.250000e+002 2.761812e+002
      vertex   -4.608649e+001 3.250000e+002 2.761812e+002
      vertex   -9.091585e+001 3.250000e+002 2.648288e+002
    endloop
  endfacet
  facet normal -4.016954e-001 0.000000e+000 9.157733e-001
    outer loop
      vertex   -9.091585e+001 -3.250000e+002 2.648288e+002
      vertex   -9.091585e+001 3.250000e+002 2.648288e+002
      vertex   -1.332653e+002 3.250000e+002 2.462527e+002
    endloop
  endfacet
  facet normal -5.469482e-001 0.000000e+000 8.371665e-001
    outer loop
      vertex   -1.332653e+002 -3.250000e+002 2.462527e+002
      vertex   -1.332653e+002 3.250000e+002 2.462527e+002
      vertex   -1.719796e+002 3.250000e+002 2.209593e+002
    endloop
  endfacet
  facet normal -6.772816e-001 0.000000e+000 7.357239e-001
    outer loop
      vertex   -1.719796e+002 -3.250000e+002 2.209593e+002
      vertex   -1.719796e+002 3.250000e+002 2.209593e+002
      vertex   -2.060027e+002 3.250000e+002 1.896388e+002
    endloop
  endfacet
  facet normal -7.891405e-001 0.000000e+000 6.142127e-001
    outer loop
      vertex   -2.060027e+002 -3.250000e+002 1.896388e+002
      vertex   -2.060027e+002 3.250000e+002 1.896388e+002
      vertex   -2.344066e+002 3.250000e+002 1.531455e+002
    endloop
  endfacet
  facet normal -8.794738e-001 0.000000e+000 4.759474e-001
    outer loop
      vertex   -2.344066e+002 -3.250000e+002 1.531455e+002
      vertex   -2.344066e+002 3.250000e+002 1.531455e+002
      vertex   -2.564165e+002 3.250000e+002 1.124747e+002
    endloop
  endfacet
  facet normal -9.458172e-001 0.000000e+000 3.246995e-001
    outer loop
      vertex   -2.564165e+002 -3.250000e+002 1.124747e+002
      vertex   -2.564165e+002 3.250000e+002 1.124747e+002
      vertex   -2.714321e+002 3.250000e+002 6.873594e+001
    endloop
  endfacet
  facet normal -9.863613e-001 0.000000e+000 1.645946e-001
    outer loop
      vertex   -2.714321e+002 -3.250000e+002 6.873594e+001
      vertex   -2.714321e+002 3.250000e+002 6.873594e+001
      vertex   -2.790437e+002 3.250000e+002 2.312222e+001
    endloop
  endfacet
  facet normal -1.000000e+000 0.000000e+000 0.000000e+000
    outer loop
      vertex   -2.790437e+002 -3.250000e+002 2.312222e+001
      vertex   -2.790437e+002 3.250000e+002 2.312222e+001
      vertex   -2.790437e+002 3.250000e+002 -2.312222e+001
    endloop
  endfacet
  facet normal -9.863613e-001 0.000000e+000 -1.645946e-001
    outer loop
      vertex   -2.790437e+002 -3.250000e+002 -2.312222e+001
      vertex   -2.790437e+002 3.250000e+002 -2.312222e+001
      vertex   -2.714321e+002 3.250000e+002 -6.873594e+001
    endloop
  endfacet
  facet normal -9.458172e-001 0.000000e+000 -3.246995e-001
    outer loop
      vertex   -2.714321e+002 -3.250000e+002 -6.873594e+001
      vertex   -2.714321e+002 3.250000e+002 -6.873594e+001
      vertex   -2.564165e+002 3.250000e+002 -1.124747e+002
    endloop
  endfacet
  facet normal -8.794738e-001 0.000000e+000 -4.759474e-001
    outer loop
      vertex   -2.564165e+002 -3.250000e+002 -1.124747e+002
      vertex   -2.564165e+002 3.250000e+002 -1.124747e+002
      vertex   -2.344066e+002 3.250000e+002 -1.531455e+002
    endloop
  endfacet
  facet normal -7.891405e-001 0.000000e+000 -6.142127e-001
    outer loop
      vertex   -2.344066e+002 -3.250000e+002 -1.531455e+002
      vertex   -2.344066e+002 3.250000e+002 -1.531455e+002
      vertex   -2.060027e+002 3.250000e+002 -1.896388e+002
    endloop
  endfacet
  facet normal -6.772816e-001 0.000000e+000 -7.357239e-001
    outer loop
      vertex   -2.060027e+002 -3.250000e+002 -1.896388e+002
      vertex   -2.060027e+002 3.250000e+002 -1.896388e+002
      vertex   -1.719796e+002 3.250000e+002 -2.209593e+002
    endloop
  endfacet
  facet normal -5.469482e-001 0.000000e+000 -8.371665e-001
    outer loop
      vertex   -1.719796e+002 -3.250000e+002 -2.209593e+002
      vertex   -1.719796e+002 3.250000e+002 -2.209593e+002
      vertex   -1.332653e+002 3.250000e+002 -2.462527e+002
    endloop
  endfacet
  facet normal -4.016954e-001 0.000000e+000 -9.157733e-001
    outer loop
      vertex   -1.332653e+002 -3.250000e+002 -2.462527e+002
      vertex   -1.332653e+002 3.250000e+002 -2.462527e+002
      vertex   -9.091585e+001 3.250000e+002 -2.648288e+002
    endloop
  endfacet
  facet normal -2.454855e-001 0.000000e+000 -9.694003e-001
    outer loop
      vertex   -9.091585e+001 -3.250000e+002 -2.648288e+002
      vertex   -9.091585e+001 3.250000e+002 -2.648288e+002
      vertex   -4.608649e+001 3.250000e+002 -2.761812e+002
    endloop
  endfacet
  facet normal -8.257935e-002 0.000000e+000 -9.965845e-001
    outer loop
      vertex   -4.608649e+001 -3.250000e+002 -2.761812e+002
      vertex   -4.608649e+001 3.250000e+002 -2.761812e+002
      vertex   3.429011e-014 3.250000e+002 -2.800000e+002
    endloop
  endfacet
  facet normal 8.257935e-002 0.000000e+000 -9.965845e-001
    outer loop
      vertex   3.429011e-014 -3.250000e+002 -2.800000e+002
      vertex   3.429011e-014 3.250000e+002 -2.800000e+002
      vertex   4.608649e+001 3.250000e+002 -2.761812e+002
    endloop
  endfacet
  facet normal 2.454855e-001 0.000000e+000 -9.694003e-001
    outer loop
      vertex   4.608649e+001 -3.250000e+002 -2.761812e+002
      vertex   4.608649e+001 3.250000e+002 -2.761812e+002
      vertex   9.091585e+001 3.250000e+002 -2.648288e+002
    endloop
  endfacet
  facet normal 4.016954e-001 0.000000e+000 -9.157733e-001
    outer loop
      vertex   9.091585e+001 -3.250000e+002 -2.648288e+002
      vertex   9.091585e+001 3.250000e+002 -2.648288e+002
      vertex   1.332653e+002 3.250000e+002 -2.462527e+002
    endloop
  endfacet
  facet normal 5.469482e-001 0.000000e+000 -8.371665e-001
    outer loop
      vertex   1.332653e+002 -3.250000e+002 -2.462527e+002
      vertex   1.332653e+002 3.250000e+002 -2.462527e+002
      vertex   1.719796e+002 3.250000e+002 -2.209593e+002
    endloop
  endfacet
  facet normal 6.772816e-001 0.000000e+000 -7.357239e-001
    outer loop
      vertex   1.719796e+002 -3.250000e+002 -2.209593e+002
      vertex   1.719796e+002 3.250000e+002 -2.209593e+002
      vertex   2.060027e+002 3.250000e+002 -1.896388e+002
    endloop
  endfacet
  facet normal 7.891405e-001 0.000000e+000 -6.142127e-001
    outer loop
      vertex   2.060027e+002 -3.250000e+002 -1.896388e+002
      vertex   2.060027e+002 3.250000e+002 -1.896388e+002
      vertex   2.344066e+002 3.250000e+002 -1.531455e+002
    endloop
  endfacet
  facet normal 8.794738e-001 0.000000e+000 -4.759474e-001
    outer loop
      vertex   2.344066e+002 -3.250000e+002 -1.531455e+002
      vertex   2.344066e+002 3.250000e+002 -1.531455e+002
      vertex   2.564165e+002 3.250000e+002 -1.124747e+002
    endloop
  endfacet
  facet normal 9.458172e-001 0.000000e+000 -3.246995e-001
    outer loop
      vertex   2.564165e+002 -3.250000e+002 -1.124747e+002
      vertex   2.564165e+002 3.250000e+002 -1.124747e+002
      vertex   2.714321e+002 3.250000e+002 -6.873594e+001
    endloop
  endfacet
  facet normal 9.863613e-001 0.000000e+000 -1.645946e-001
    outer loop
      vertex   2.714321e+002 -3.250000e+002 -6.873594e+001
      vertex   2.714321e+002 3.250000e+002 -6.873594e+001
      vertex   2.790437e+002 3.250000e+002 -2.312222e+001
    endloop
  endfacet
  facet normal 9.991458e-001 -4.360117e-018 -4.132497e-002
    outer loop
      vertex   2.800000e+002 3.250000e+002 1.714506e-014
      vertex   2.800000e+002 -3.250000e+002 8.572528e-014
      vertex   2.790437e+002 -3.250000e+002 -2.312222e+001
    endloop
  endfacet
  facet normal 9.863613e-001 -0.000000e+000 1.645946e-001
    outer loop
      vertex   2.790437e+002 -3.250000e+002 2.312222e+001
      vertex   2.790437e+002 3.250000e+002 2.312222e+001
      vertex   2.714321e+002 3.250000e+002 6.873594e+001
    endloop
  endfacet
  facet normal 9.458172e-001 -0.000000e+000 3.246995e-001
    outer loop
      vertex   2.714321e+002 -3.250000e+002 6.873594e+001
      vertex   2.714321e+002 3.250000e+002 6.873594e+001
      vertex   2.564165e+002 3.250000e+002 1.124747e+002
    endloop
  endfacet
  facet normal 8.794738e-001 -0.000000e+000 4.759474e-001
    outer loop
      vertex   2.564165e+002 -3.250000e+002 1.124747e+002
      vertex   2.564165e+002 3.250000e+002 1.124747e+002
      vertex   2.344066e+002 3.250000e+002 1.531455e+002
    endloop
  endfacet
  facet normal 7.891405e-001 -0.000000e+000 6.142127e-001
    outer loop
      vertex   2.344066e+002 -3.250000e+002 1.531455e+002
      vertex   2.344066e+002 3.250000e+002 1.531455e+002
      vertex   2.060027e+002 3.250000e+002 1.896388e+002
    endloop
  endfacet
  facet normal 6.772816e-001 -0.000000e+000 7.357239e-001
    outer loop
      vertex   2.060027e+002 -3.250000e+002 1.896388e+002
      vertex   2.060027e+002 3.250000e+002 1.896388e+002
      vertex   1.719796e+002 3.250000e+002 2.209593e+002
    endloop
  endfacet
  facet normal 5.469482e-001 -0.000000e+000 8.371665e-001
    outer loop
      vertex   1.719796e+002 -3.250000e+002 2.209593e+002
      vertex   1.719796e+002 3.250000e+002 2.209593e+002
      vertex   1.332653e+002 3.250000e+002 2.462527e+002
    endloop
  endfacet
  facet normal 4.016954e-001 -0.000000e+000 9.157733e-001
    outer loop
      vertex   1.332653e+002 -3.250000e+002 2.462527e+002
      vertex   1.332653e+002 3.250000e+002 2.462527e+002
      vertex   9.091585e+001 3.250000e+002 2.648288e+002
    endloop
  endfacet
  facet normal 2.454855e-001 -0.000000e+000 9.694003e-001
    outer loop
      vertex   9.091585e+001 -3.250000e+002 2.648288e+002
      vertex   9.091585e+001 3.250000e+002 2.648288e+002
      vertex   4.608649e+001 3.250000e+002 2.761812e+002
    endloop
  endfacet
  facet normal 8.257935e-002 -0.000000e+000 9.965845e-001
    outer loop
      vertex   4.608649e+001 -3.250000e+002 2.761812e+002
      vertex   4.608649e+001 3.250000e+002 2.761812e+002
      vertex   -6.858022e-014 3.250000e+002 2.800000e+002
    endloop
  endfacet
  facet normal 0.000000e+000 1.000000e+000 0.000000e+000
    outer loop
      vertex   9.091585e+001 3.250000e+002 2.648288e+002
      vertex   1.332653e+002 3.250000e+002 2.462527e+002
      vertex   6.283189e+001 3.250000e+002 1.251086e+002
    endloop
  endfacet
  facet normal 0.000000e+000 1.000000e+000 0.000000e+000
    outer loop
      vertex   3.228622e+001 3.250000e+002 1.362263e+002
      vertex   4.608649e+001 3.250000e+002 2.761812e+002
      vertex   9.091585e+001 3.250000e+002 2.648288e+002
    endloop
  endfacet
  facet normal 0.000000e+000 1.000000e+000 0.000000e+000
    outer loop
      vertex   1.719796e+002 3.250000e+002 2.209593e+002
      vertex   8.999027e+001 3.250000e+002 1.072462e+002
      vertex   6.283189e+001 3.250000e+002 1.251086e+002
    endloop
  endfacet
  facet normal 0.000000e+000 1.000000e+000 0.000000e+000
    outer loop
      vertex   2.060027e+002 3.250000e+002 1.896388e+002
      vertex   1.122972e+002 3.250000e+002 8.360220e+001
      vertex   8.999027e+001 3.250000e+002 1.072462e+002
    endloop
  endfacet
  facet normal 0.000000e+000 1.000000e+000 0.000000e+000
    outer loop
      vertex   2.790437e+002 3.250000e+002 2.312222e+001
      vertex   1.400000e+002 3.250000e+002 4.286264e-014
      vertex   1.378731e+002 3.250000e+002 2.431074e+001
    endloop
  endfacet
  facet normal 0.000000e+000 1.000000e+000 0.000000e+000
    outer loop
      vertex   -1.332653e+002 3.250000e+002 -2.462527e+002
      vertex   -7.693126e+001 3.250000e+002 -1.169683e+002
      vertex   -4.788282e+001 3.250000e+002 -1.315570e+002
    endloop
  endfacet
  facet normal 0.000000e+000 1.000000e+000 -0.000000e+000
    outer loop
      vertex   -2.564165e+002 3.250000e+002 -1.124747e+002
      vertex   -2.714321e+002 3.250000e+002 -6.873594e+001
      vertex   -1.341185e+002 3.250000e+002 -4.015245e+001
    endloop
  endfacet
  facet normal 0.000000e+000 1.000000e+000 0.000000e+000
    outer loop
      vertex   6.283189e+001 3.250000e+002 1.251086e+002
      vertex   1.332653e+002 3.250000e+002 2.462527e+002
      vertex   1.719796e+002 3.250000e+002 2.209593e+002
    endloop
  endfacet
  facet normal 0.000000e+000 1.000000e+000 0.000000e+000
    outer loop
      vertex   8.999027e+001 3.250000e+002 1.072462e+002
      vertex   1.719796e+002 3.250000e+002 2.209593e+002
      vertex   2.060027e+002 3.250000e+002 1.896388e+002
    endloop
  endfacet
  facet normal -0.000000e+000 1.000000e+000 0.000000e+000
    outer loop
      vertex   1.378731e+002 3.250000e+002 2.431074e+001
      vertex   2.714321e+002 3.250000e+002 6.873594e+001
      vertex   2.790437e+002 3.250000e+002 2.312222e+001
    endloop
  endfacet
  facet normal 0.000000e+000 1.000000e+000 0.000000e+000
    outer loop
      vertex   2.800000e+002 3.250000e+002 1.714506e-014
      vertex   2.790437e+002 3.250000e+002 -2.312222e+001
      vertex   1.397631e+002 3.250000e+002 -8.140276e+000
    endloop
  endfacet
  facet normal 0.000000e+000 1.000000e+000 -0.000000e+000
    outer loop
      vertex   3.429011e-014 3.250000e+002 -2.800000e+002
      vertex   -1.625301e+001 3.250000e+002 -1.390534e+002
      vertex   1.625301e+001 3.250000e+002 -1.390534e+002
    endloop
  endfacet
  facet normal 0.000000e+000 1.000000e+000 0.000000e+000
    outer loop
      vertex   -4.788282e+001 3.250000e+002 -1.315570e+002
      vertex   -9.091585e+001 3.250000e+002 -2.648288e+002
      vertex   -1.332653e+002 3.250000e+002 -2.462527e+002
    endloop
  endfacet
  facet normal 0.000000e+000 1.000000e+000 -0.000000e+000
    outer loop
      vertex   -1.719796e+002 3.250000e+002 -2.209593e+002
      vertex   -2.060027e+002 3.250000e+002 -1.896388e+002
      vertex   -1.018323e+002 3.250000e+002 -9.607383e+001
    endloop
  endfacet
  facet normal 0.000000e+000 1.000000e+000 0.000000e+000
    outer loop
      vertex   -2.344066e+002 3.250000e+002 -1.531455e+002
      vertex   -1.212436e+002 3.250000e+002 -7.000000e+001
      vertex   -1.018323e+002 3.250000e+002 -9.607383e+001
    endloop
  endfacet
  facet normal 0.000000e+000 1.000000e+000 0.000000e+000
    outer loop
      vertex   -1.212436e+002 3.250000e+002 -7.000000e+001
      vertex   -2.344066e+002 3.250000e+002 -1.531455e+002
      vertex   -2.564165e+002 3.250000e+002 -1.124747e+002
    endloop
  endfacet
  facet normal 0.000000e+000 1.000000e+000 0.000000e+000
    outer loop
      vertex   2.060027e+002 3.250000e+002 1.896388e+002
      vertex   2.344066e+002 3.250000e+002 1.531455e+002
      vertex   1.122972e+002 3.250000e+002 8.360220e+001
    endloop
  endfacet
  facet normal 0.000000e+000 1.000000e+000 0.000000e+000
    outer loop
      vertex   2.344066e+002 3.250000e+002 1.531455e+002
      vertex   2.564165e+002 3.250000e+002 1.124747e+002
      vertex   1.285503e+002 3.250000e+002 5.545117e+001
    endloop
  endfacet
  facet normal 0.000000e+000 1.000000e+000 0.000000e+000
    outer loop
      vertex   1.397631e+002 3.250000e+002 -8.140276e+000
      vertex   1.400000e+002 3.250000e+002 4.286264e-014
      vertex   2.800000e+002 3.250000e+002 1.714506e-014
    endloop
  endfacet
  facet normal 0.000000e+000 1.000000e+000 0.000000e+000
    outer loop
      vertex   2.714321e+002 3.250000e+002 -6.873594e+001
      vertex   1.341185e+002 3.250000e+002 -4.015245e+001
      vertex   1.397631e+002 3.250000e+002 -8.140276e+000
    endloop
  endfacet
  facet normal 0.000000e+000 1.000000e+000 0.000000e+000
    outer loop
      vertex   1.332653e+002 3.250000e+002 -2.462527e+002
      vertex   9.091585e+001 3.250000e+002 -2.648288e+002
      vertex   4.788282e+001 3.250000e+002 -1.315570e+002
    endloop
  endfacet
  facet normal 0.000000e+000 1.000000e+000 0.000000e+000
    outer loop
      vertex   1.625301e+001 3.250000e+002 -1.390534e+002
      vertex   4.608649e+001 3.250000e+002 -2.761812e+002
      vertex   3.429011e-014 3.250000e+002 -2.800000e+002
    endloop
  endfacet
  facet normal 0.000000e+000 1.000000e+000 0.000000e+000
    outer loop
      vertex   -4.608649e+001 3.250000e+002 -2.761812e+002
      vertex   -9.091585e+001 3.250000e+002 -2.648288e+002
      vertex   -4.788282e+001 3.250000e+002 -1.315570e+002
    endloop
  endfacet
  facet normal 0.000000e+000 1.000000e+000 0.000000e+000
    outer loop
      vertex   -1.018323e+002 3.250000e+002 -9.607383e+001
      vertex   -7.693126e+001 3.250000e+002 -1.169683e+002
      vertex   -1.719796e+002 3.250000e+002 -2.209593e+002
    endloop
  endfacet
  facet normal 0.000000e+000 1.000000e+000 0.000000e+000
    outer loop
      vertex   -1.341185e+002 3.250000e+002 -4.015245e+001
      vertex   -1.212436e+002 3.250000e+002 -7.000000e+001
      vertex   -2.564165e+002 3.250000e+002 -1.124747e+002
    endloop
  endfacet
  facet normal -0.000000e+000 1.000000e+000 0.000000e+000
    outer loop
      vertex   -2.790437e+002 3.250000e+002 2.312222e+001
      vertex   -1.378731e+002 3.250000e+002 2.431074e+001
      vertex   -1.397631e+002 3.250000e+002 -8.140276e+000
    endloop
  endfacet
  facet normal -0.000000e+000 1.000000e+000 0.000000e+000
    outer loop
      vertex   -2.060027e+002 3.250000e+002 1.896388e+002
      vertex   -1.719796e+002 3.250000e+002 2.209593e+002
      vertex   -8.999027e+001 3.250000e+002 1.072462e+002
    endloop
  endfacet
  facet normal 0.000000e+000 1.000000e+000 0.000000e+000
    outer loop
      vertex   4.608649e+001 3.250000e+002 2.761812e+002
      vertex   3.228622e+001 3.250000e+002 1.362263e+002
      vertex   -3.429011e-014 3.250000e+002 1.400000e+002
    endloop
  endfacet
  facet normal 0.000000e+000 1.000000e+000 -0.000000e+000
    outer loop
      vertex   1.285503e+002 3.250000e+002 5.545117e+001
      vertex   1.122972e+002 3.250000e+002 8.360220e+001
      vertex   2.344066e+002 3.250000e+002 1.531455e+002
    endloop
  endfacet
  facet normal 0.000000e+000 1.000000e+000 0.000000e+000
    outer loop
      vertex   2.714321e+002 3.250000e+002 6.873594e+001
      vertex   1.378731e+002 3.250000e+002 2.431074e+001
      vertex   1.285503e+002 3.250000e+002 5.545117e+001
    endloop
  endfacet
  facet normal 0.000000e+000 1.000000e+000 0.000000e+000
    outer loop
      vertex   1.397631e+002 3.250000e+002 -8.140276e+000
      vertex   2.790437e+002 3.250000e+002 -2.312222e+001
      vertex   2.714321e+002 3.250000e+002 -6.873594e+001
    endloop
  endfacet
  facet normal 0.000000e+000 1.000000e+000 0.000000e+000
    outer loop
      vertex   2.564165e+002 3.250000e+002 -1.124747e+002
      vertex   1.212436e+002 3.250000e+002 -7.000000e+001
      vertex   1.341185e+002 3.250000e+002 -4.015245e+001
    endloop
  endfacet
  facet normal 0.000000e+000 1.000000e+000 0.000000e+000
    outer loop
      vertex   1.719796e+002 3.250000e+002 -2.209593e+002
      vertex   7.693126e+001 3.250000e+002 -1.169683e+002
      vertex   1.018323e+002 3.250000e+002 -9.607383e+001
    endloop
  endfacet
  facet normal 0.000000e+000 1.000000e+000 0.000000e+000
    outer loop
      vertex   7.693126e+001 3.250000e+002 -1.169683e+002
      vertex   1.719796e+002 3.250000e+002 -2.209593e+002
      vertex   1.332653e+002 3.250000e+002 -2.462527e+002
    endloop
  endfacet
  facet normal 0.000000e+000 1.000000e+000 -0.000000e+000
    outer loop
      vertex   4.608649e+001 3.250000e+002 -2.761812e+002
      vertex   1.625301e+001 3.250000e+002 -1.390534e+002
      vertex   4.788282e+001 3.250000e+002 -1.315570e+002
    endloop
  endfacet
  facet normal 0.000000e+000 1.000000e+000 0.000000e+000
    outer loop
      vertex   -4.788282e+001 3.250000e+002 -1.315570e+002
      vertex   -1.625301e+001 3.250000e+002 -1.390534e+002
      vertex   -4.608649e+001 3.250000e+002 -2.761812e+002
    endloop
  endfacet
  facet normal 0.000000e+000 1.000000e+000 0.000000e+000
    outer loop
      vertex   -1.018323e+002 3.250000e+002 -9.607383e+001
      vertex   -2.060027e+002 3.250000e+002 -1.896388e+002
      vertex   -2.344066e+002 3.250000e+002 -1.531455e+002
    endloop
  endfacet
  facet normal 0.000000e+000 1.000000e+000 -0.000000e+000
    outer loop
      vertex   -2.714321e+002 3.250000e+002 -6.873594e+001
      vertex   -2.790437e+002 3.250000e+002 -2.312222e+001
      vertex   -1.397631e+002 3.250000e+002 -8.140276e+000
    endloop
  endfacet
  facet normal 0.000000e+000 1.000000e+000 0.000000e+000
    outer loop
      vertex   -1.397631e+002 3.250000e+002 -8.140276e+000
      vertex   -2.790437e+002 3.250000e+002 -2.312222e+001
      vertex   -2.790437e+002 3.250000e+002 2.312222e+001
    endloop
  endfacet
  facet normal -0.000000e+000 1.000000e+000 0.000000e+000
    outer loop
      vertex   -2.714321e+002 3.250000e+002 6.873594e+001
      vertex   -2.564165e+002 3.250000e+002 1.124747e+002
      vertex   -1.285503e+002 3.250000e+002 5.545117e+001
    endloop
  endfacet
  facet normal 0.000000e+000 1.000000e+000 0.000000e+000
    outer loop
      vertex   -2.344066e+002 3.250000e+002 1.531455e+002
      vertex   -1.122972e+002 3.250000e+002 8.360220e+001
      vertex   -1.285503e+002 3.250000e+002 5.545117e+001
    endloop
  endfacet
  facet normal 0.000000e+000 1.000000e+000 0.000000e+000
    outer loop
      vertex   -1.122972e+002 3.250000e+002 8.360220e+001
      vertex   -2.344066e+002 3.250000e+002 1.531455e+002
      vertex   -2.060027e+002 3.250000e+002 1.896388e+002
    endloop
  endfacet
  facet normal 0.000000e+000 1.000000e+000 -0.000000e+000
    outer loop
      vertex   6.283189e+001 3.250000e+002 1.251086e+002
      vertex   3.228622e+001 3.250000e+002 1.362263e+002
      vertex   9.091585e+001 3.250000e+002 2.648288e+002
    endloop
  endfacet
  facet normal 0.000000e+000 1.000000e+000 0.000000e+000
    outer loop
      vertex   2.790437e+002 3.250000e+002 2.312222e+001
      vertex   2.800000e+002 3.250000e+002 1.714506e-014
      vertex   1.400000e+002 3.250000e+002 4.286264e-014
    endloop
  endfacet
  facet normal 0.000000e+000 1.000000e+000 0.000000e+000
    outer loop
      vertex   1.341185e+002 3.250000e+002 -4.015245e+001
      vertex   2.714321e+002 3.250000e+002 -6.873594e+001
      vertex   2.564165e+002 3.250000e+002 -1.124747e+002
    endloop
  endfacet
  facet normal 0.000000e+000 1.000000e+000 0.000000e+000
    outer loop
      vertex   2.344066e+002 3.250000e+002 -1.531455e+002
      vertex   2.060027e+002 3.250000e+002 -1.896388e+002
      vertex   1.018323e+002 3.250000e+002 -9.607383e+001
    endloop
  endfacet
  facet normal -0.000000e+000 1.000000e+000 0.000000e+000
    outer loop
      vertex   4.788282e+001 3.250000e+002 -1.315570e+002
      vertex   7.693126e+001 3.250000e+002 -1.169683e+002
      vertex   1.332653e+002 3.250000e+002 -2.462527e+002
    endloop
  endfacet
  facet normal 0.000000e+000 1.000000e+000 0.000000e+000
    outer loop
      vertex   3.429011e-014 3.250000e+002 -2.800000e+002
      vertex   -4.608649e+001 3.250000e+002 -2.761812e+002
      vertex   -1.625301e+001 3.250000e+002 -1.390534e+002
    endloop
  endfacet
  facet normal 0.000000e+000 1.000000e+000 0.000000e+000
    outer loop
      vertex   -1.397631e+002 3.250000e+002 -8.140276e+000
      vertex   -1.341185e+002 3.250000e+002 -4.015245e+001
      vertex   -2.714321e+002 3.250000e+002 -6.873594e+001
    endloop
  endfacet
  facet normal 0.000000e+000 1.000000e+000 0.000000e+000
    outer loop
      vertex   -1.285503e+002 3.250000e+002 5.545117e+001
      vertex   -1.378731e+002 3.250000e+002 2.431074e+001
      vertex   -2.714321e+002 3.250000e+002 6.873594e+001
    endloop
  endfacet
  facet normal 0.000000e+000 1.000000e+000 0.000000e+000
    outer loop
      vertex   -8.999027e+001 3.250000e+002 1.072462e+002
      vertex   -1.122972e+002 3.250000e+002 8.360220e+001
      vertex   -2.060027e+002 3.250000e+002 1.896388e+002
    endloop
  endfacet
  facet normal -0.000000e+000 1.000000e+000 0.000000e+000
    outer loop
      vertex   -1.719796e+002 3.250000e+002 2.209593e+002
      vertex   -1.332653e+002 3.250000e+002 2.462527e+002
      vertex   -6.283189e+001 3.250000e+002 1.251086e+002
    endloop
  endfacet
  facet normal 0.000000e+000 1.000000e+000 0.000000e+000
    outer loop
      vertex   -9.091585e+001 3.250000e+002 2.648288e+002
      vertex   -3.228622e+001 3.250000e+002 1.362263e+002
      vertex   -6.283189e+001 3.250000e+002 1.251086e+002
    endloop
  endfacet
  facet normal 0.000000e+000 1.000000e+000 0.000000e+000
    outer loop
      vertex   1.285503e+002 3.250000e+002 5.545117e+001
      vertex   2.564165e+002 3.250000e+002 1.124747e+002
      vertex   2.714321e+002 3.250000e+002 6.873594e+001
    endloop
  endfacet
  facet normal -0.000000e+000 1.000000e+000 0.000000e+000
    outer loop
      vertex   1.018323e+002 3.250000e+002 -9.607383e+001
      vertex   1.212436e+002 3.250000e+002 -7.000000e+001
      vertex   2.344066e+002 3.250000e+002 -1.531455e+002
    endloop
  endfacet
  facet normal 0.000000e+000 1.000000e+000 0.000000e+000
    outer loop
      vertex   4.788282e+001 3.250000e+002 -1.315570e+002
      vertex   9.091585e+001 3.250000e+002 -2.648288e+002
      vertex   4.608649e+001 3.250000e+002 -2.761812e+002
    endloop
  endfacet
  facet normal 0.000000e+000 1.000000e+000 0.000000e+000
    outer loop
      vertex   -2.790437e+002 3.250000e+002 2.312222e+001
      vertex   -2.714321e+002 3.250000e+002 6.873594e+001
      vertex   -1.378731e+002 3.250000e+002 2.431074e+001
    endloop
  endfacet
  facet normal 0.000000e+000 1.000000e+000 0.000000e+000
    outer loop
      vertex   -6.283189e+001 3.250000e+002 1.251086e+002
      vertex   -8.999027e+001 3.250000e+002 1.072462e+002
      vertex   -1.719796e+002 3.250000e+002 2.209593e+002
    endloop
  endfacet
  facet normal 0.000000e+000 1.000000e+000 0.000000e+000
    outer loop
      vertex   -6.283189e+001 3.250000e+002 1.251086e+002
      vertex   -1.332653e+002 3.250000e+002 2.462527e+002
      vertex   -9.091585e+001 3.250000e+002 2.648288e+002
    endloop
  endfacet
  facet normal 0.000000e+000 1.000000e+000 0.000000e+000
    outer loop
      vertex   2.564165e+002 3.250000e+002 -1.124747e+002
      vertex   2.344066e+002 3.250000e+002 -1.531455e+002
      vertex   1.212436e+002 3.250000e+002 -7.000000e+001
    endloop
  endfacet
  facet normal 0.000000e+000 1.000000e+000 -0.000000e+000
    outer loop
      vertex   -1.332653e+002 3.250000e+002 -2.462527e+002
      vertex   -1.719796e+002 3.250000e+002 -2.209593e+002
      vertex   -7.693126e+001 3.250000e+002 -1.169683e+002
    endloop
  endfacet
  facet normal -0.000000e+000 1.000000e+000 0.000000e+000
    outer loop
      vertex   -9.091585e+001 3.250000e+002 2.648288e+002
      vertex   -4.608649e+001 3.250000e+002 2.761812e+002
      vertex   -3.228622e+001 3.250000e+002 1.362263e+002
    endloop
  endfacet
  facet normal -0.000000e+000 1.000000e+000 0.000000e+000
    outer loop
      vertex   -4.608649e+001 3.250000e+002 2.761812e+002
      vertex   -6.858022e-014 3.250000e+002 2.800000e+002
      vertex   -3.429011e-014 3.250000e+002 1.400000e+002
    endloop
  endfacet
  facet normal 0.000000e+000 1.000000e+000 0.000000e+000
    outer loop
      vertex   1.018323e+002 3.250000e+002 -9.607383e+001
      vertex   2.060027e+002 3.250000e+002 -1.896388e+002
      vertex   1.719796e+002 3.250000e+002 -2.209593e+002
    endloop
  endfacet
  facet normal 0.000000e+000 1.000000e+000 0.000000e+000
    outer loop
      vertex   -3.429011e-014 3.250000e+002 1.400000e+002
      vertex   -3.228622e+001 3.250000e+002 1.362263e+002
      vertex   -4.608649e+001 3.250000e+002 2.761812e+002
    endloop
  endfacet
  facet normal 0.000000e+000 1.000000e+000 0.000000e+000
    outer loop
      vertex   -1.285503e+002 3.250000e+002 5.545117e+001
      vertex   -2.564165e+002 3.250000e+002 1.124747e+002
      vertex   -2.344066e+002 3.250000e+002 1.531455e+002
    endloop
  endfacet
  facet normal 0.000000e+000 1.000000e+000 -0.000000e+000
    outer loop
      vertex   -3.429011e-014 3.250000e+002 1.400000e+002
      vertex   -6.858022e-014 3.250000e+002 2.800000e+002
      vertex   4.608649e+001 3.250000e+002 2.761812e+002
    endloop
  endfacet
endsolid
