solid CajaEmbrague
  facet normal 2.588190e-001 0.000000e+000 -9.659258e-001
    outer loop
      vertex   -5.000000e+001 -1.100000e+002 8.660254e+001
      vertex   -2.449294e-014 -1.100000e+002 1.000000e+002
      vertex   -2.449294e-014 -1.150000e+002 1.000000e+002
    endloop
  endfacet
  facet normal 7.071068e-001 0.000000e+000 -7.071068e-001
    outer loop
      vertex   -8.660254e+001 -1.100000e+002 5.000000e+001
      vertex   -5.000000e+001 -1.100000e+002 8.660254e+001
      vertex   -5.000000e+001 -1.150000e+002 8.660254e+001
    endloop
  endfacet
  facet normal 9.659258e-001 0.000000e+000 -2.588190e-001
    outer loop
      vertex   -1.000000e+002 -1.100000e+002 -1.071875e-013
      vertex   -8.660254e+001 -1.100000e+002 5.000000e+001
      vertex   -8.660254e+001 -1.150000e+002 5.000000e+001
    endloop
  endfacet
  facet normal 9.659258e-001 0.000000e+000 2.588190e-001
    outer loop
      vertex   -8.660254e+001 -1.100000e+002 -5.000000e+001
      vertex   -1.000000e+002 -1.100000e+002 -1.071875e-013
      vertex   -1.000000e+002 -1.150000e+002 -1.071875e-013
    endloop
  endfacet
  facet normal 7.071068e-001 0.000000e+000 7.071068e-001
    outer loop
      vertex   -5.000000e+001 -1.100000e+002 -8.660254e+001
      vertex   -8.660254e+001 -1.100000e+002 -5.000000e+001
      vertex   -8.660254e+001 -1.150000e+002 -5.000000e+001
    endloop
  endfacet
  facet normal 2.588190e-001 0.000000e+000 9.659258e-001
    outer loop
      vertex   3.673940e-014 -1.100000e+002 -1.000000e+002
      vertex   -5.000000e+001 -1.100000e+002 -8.660254e+001
      vertex   -5.000000e+001 -1.150000e+002 -8.660254e+001
    endloop
  endfacet
  facet normal -2.588190e-001 1.256711e-015 9.659258e-001
    outer loop
      vertex   5.000000e+001 -1.100000e+002 -8.660254e+001
      vertex   3.673940e-014 -1.100000e+002 -1.000000e+002
      vertex   1.224647e-014 -1.150000e+002 -1.000000e+002
    endloop
  endfacet
  facet normal -7.071068e-001 0.000000e+000 7.071068e-001
    outer loop
      vertex   8.660254e+001 -1.100000e+002 -5.000000e+001
      vertex   5.000000e+001 -1.100000e+002 -8.660254e+001
      vertex   5.000000e+001 -1.150000e+002 -8.660254e+001
    endloop
  endfacet
  facet normal -9.659258e-001 0.000000e+000 2.588190e-001
    outer loop
      vertex   1.000000e+002 -1.100000e+002 2.832769e-014
      vertex   8.660254e+001 -1.100000e+002 -5.000000e+001
      vertex   8.660254e+001 -1.150000e+002 -5.000000e+001
    endloop
  endfacet
  facet normal -9.659258e-001 0.000000e+000 -2.588190e-001
    outer loop
      vertex   8.660254e+001 -1.100000e+002 5.000000e+001
      vertex   1.000000e+002 -1.100000e+002 2.832769e-014
      vertex   1.000000e+002 -1.150000e+002 2.832769e-014
    endloop
  endfacet
  facet normal -7.071068e-001 0.000000e+000 -7.071068e-001
    outer loop
      vertex   5.000000e+001 -1.100000e+002 8.660254e+001
      vertex   8.660254e+001 -1.100000e+002 5.000000e+001
      vertex   8.660254e+001 -1.150000e+002 5.000000e+001
    endloop
  endfacet
  facet normal -2.588190e-001 0.000000e+000 -9.659258e-001
    outer loop
      vertex   -2.449294e-014 -1.100000e+002 1.000000e+002
      vertex   5.000000e+001 -1.100000e+002 8.660254e+001
      vertex   5.000000e+001 -1.150000e+002 8.660254e+001
    endloop
  endfacet
  facet normal -2.588190e-001 0.000000e+000 -9.659258e-001
    outer loop
      vertex   5.000000e+001 -1.150000e+002 8.660254e+001
      vertex   -2.449294e-014 -1.150000e+002 1.000000e+002
      vertex   -2.449294e-014 -1.100000e+002 1.000000e+002
    endloop
  endfacet
  facet normal -7.071068e-001 0.000000e+000 -7.071068e-001
    outer loop
      vertex   8.660254e+001 -1.150000e+002 5.000000e+001
      vertex   5.000000e+001 -1.150000e+002 8.660254e+001
      vertex   5.000000e+001 -1.100000e+002 8.660254e+001
    endloop
  endfacet
  facet normal -9.659258e-001 0.000000e+000 -2.588190e-001
    outer loop
      vertex   1.000000e+002 -1.150000e+002 2.832769e-014
      vertex   8.660254e+001 -1.150000e+002 5.000000e+001
      vertex   8.660254e+001 -1.100000e+002 5.000000e+001
    endloop
  endfacet
  facet normal -9.659258e-001 0.000000e+000 2.588190e-001
    outer loop
      vertex   8.660254e+001 -1.150000e+002 -5.000000e+001
      vertex   1.000000e+002 -1.150000e+002 2.832769e-014
      vertex   1.000000e+002 -1.100000e+002 2.832769e-014
    endloop
  endfacet
  facet normal -7.071068e-001 0.000000e+000 7.071068e-001
    outer loop
      vertex   5.000000e+001 -1.150000e+002 -8.660254e+001
      vertex   8.660254e+001 -1.150000e+002 -5.000000e+001
      vertex   8.660254e+001 -1.100000e+002 -5.000000e+001
    endloop
  endfacet
  facet normal -2.588190e-001 0.000000e+000 9.659258e-001
    outer loop
      vertex   1.224647e-014 -1.150000e+002 -1.000000e+002
      vertex   5.000000e+001 -1.150000e+002 -8.660254e+001
      vertex   5.000000e+001 -1.100000e+002 -8.660254e+001
    endloop
  endfacet
  facet normal 2.588190e-001 -8.378071e-016 9.659258e-001
    outer loop
      vertex   -5.000000e+001 -1.150000e+002 -8.660254e+001
      vertex   1.224647e-014 -1.150000e+002 -1.000000e+002
      vertex   3.673940e-014 -1.100000e+002 -1.000000e+002
    endloop
  endfacet
  facet normal 7.071068e-001 0.000000e+000 7.071068e-001
    outer loop
      vertex   -8.660254e+001 -1.150000e+002 -5.000000e+001
      vertex   -5.000000e+001 -1.150000e+002 -8.660254e+001
      vertex   -5.000000e+001 -1.100000e+002 -8.660254e+001
    endloop
  endfacet
  facet normal 9.659258e-001 0.000000e+000 2.588190e-001
    outer loop
      vertex   -1.000000e+002 -1.150000e+002 -1.071875e-013
      vertex   -8.660254e+001 -1.150000e+002 -5.000000e+001
      vertex   -8.660254e+001 -1.100000e+002 -5.000000e+001
    endloop
  endfacet
  facet normal 9.659258e-001 0.000000e+000 -2.588190e-001
    outer loop
      vertex   -8.660254e+001 -1.150000e+002 5.000000e+001
      vertex   -1.000000e+002 -1.150000e+002 -1.071875e-013
      vertex   -1.000000e+002 -1.100000e+002 -1.071875e-013
    endloop
  endfacet
  facet normal 7.071068e-001 0.000000e+000 -7.071068e-001
    outer loop
      vertex   -5.000000e+001 -1.150000e+002 8.660254e+001
      vertex   -8.660254e+001 -1.150000e+002 5.000000e+001
      vertex   -8.660254e+001 -1.100000e+002 5.000000e+001
    endloop
  endfacet
  facet normal 2.588190e-001 0.000000e+000 -9.659258e-001
    outer loop
      vertex   -2.449294e-014 -1.150000e+002 1.000000e+002
      vertex   -5.000000e+001 -1.150000e+002 8.660254e+001
      vertex   -5.000000e+001 -1.100000e+002 8.660254e+001
    endloop
  endfacet
  facet normal -3.357008e-017 -1.000000e+000 3.357008e-017
    outer loop
      vertex   3.000000e+002 -1.150000e+002 -2.500000e+002
      vertex   8.660254e+001 -1.150000e+002 -5.000000e+001
      vertex   5.000000e+001 -1.150000e+002 -8.660254e+001
    endloop
  endfacet
  facet normal -6.938894e-017 -1.000000e+000 0.000000e+000
    outer loop
      vertex   3.000000e+002 -1.150000e+002 -2.500000e+002
      vertex   3.000000e+002 -1.150000e+002 2.500000e+002
      vertex   1.000000e+002 -1.150000e+002 2.832769e-014
    endloop
  endfacet
  facet normal -5.197921e-017 -1.000000e+000 1.392779e-017
    outer loop
      vertex   1.000000e+002 -1.150000e+002 2.832769e-014
      vertex   8.660254e+001 -1.150000e+002 -5.000000e+001
      vertex   3.000000e+002 -1.150000e+002 -2.500000e+002
    endloop
  endfacet
  facet normal -5.197921e-017 -1.000000e+000 -1.392779e-017
    outer loop
      vertex   3.000000e+002 -1.150000e+002 2.500000e+002
      vertex   8.660254e+001 -1.150000e+002 5.000000e+001
      vertex   1.000000e+002 -1.150000e+002 2.832769e-014
    endloop
  endfacet
  facet normal -3.357008e-017 -1.000000e+000 -3.357008e-017
    outer loop
      vertex   3.000000e+002 -1.150000e+002 2.500000e+002
      vertex   5.000000e+001 -1.150000e+002 8.660254e+001
      vertex   8.660254e+001 -1.150000e+002 5.000000e+001
    endloop
  endfacet
  facet normal -0.000000e+000 -1.000000e+000 -9.251859e-017
    outer loop
      vertex   3.000000e+002 -1.150000e+002 2.500000e+002
      vertex   -3.000000e+002 -1.150000e+002 2.500000e+002
      vertex   -2.449294e-014 -1.150000e+002 1.000000e+002
    endloop
  endfacet
  facet normal -1.614057e-017 -1.000000e+000 -6.023744e-017
    outer loop
      vertex   -2.449294e-014 -1.150000e+002 1.000000e+002
      vertex   5.000000e+001 -1.150000e+002 8.660254e+001
      vertex   3.000000e+002 -1.150000e+002 2.500000e+002
    endloop
  endfacet
  facet normal 6.938894e-017 -1.000000e+000 0.000000e+000
    outer loop
      vertex   -3.000000e+002 -1.150000e+002 2.500000e+002
      vertex   -3.000000e+002 -1.150000e+002 -2.500000e+002
      vertex   -1.000000e+002 -1.150000e+002 -1.071875e-013
    endloop
  endfacet
  facet normal 1.614057e-017 -1.000000e+000 -6.023744e-017
    outer loop
      vertex   -3.000000e+002 -1.150000e+002 2.500000e+002
      vertex   -5.000000e+001 -1.150000e+002 8.660254e+001
      vertex   -2.449294e-014 -1.150000e+002 1.000000e+002
    endloop
  endfacet
  facet normal 5.197921e-017 -1.000000e+000 -1.392779e-017
    outer loop
      vertex   -1.000000e+002 -1.150000e+002 -1.071875e-013
      vertex   -8.660254e+001 -1.150000e+002 5.000000e+001
      vertex   -3.000000e+002 -1.150000e+002 2.500000e+002
    endloop
  endfacet
  facet normal 3.357008e-017 -1.000000e+000 3.357008e-017
    outer loop
      vertex   -3.000000e+002 -1.150000e+002 -2.500000e+002
      vertex   -5.000000e+001 -1.150000e+002 -8.660254e+001
      vertex   -8.660254e+001 -1.150000e+002 -5.000000e+001
    endloop
  endfacet
  facet normal 0.000000e+000 -1.000000e+000 9.251859e-017
    outer loop
      vertex   -3.000000e+002 -1.150000e+002 -2.500000e+002
      vertex   3.000000e+002 -1.150000e+002 -2.500000e+002
      vertex   1.224647e-014 -1.150000e+002 -1.000000e+002
    endloop
  endfacet
  facet normal 3.357008e-017 -1.000000e+000 -3.357008e-017
    outer loop
      vertex   -8.660254e+001 -1.150000e+002 5.000000e+001
      vertex   -5.000000e+001 -1.150000e+002 8.660254e+001
      vertex   -3.000000e+002 -1.150000e+002 2.500000e+002
    endloop
  endfacet
  facet normal 1.614057e-017 -1.000000e+000 6.023744e-017
    outer loop
      vertex   1.224647e-014 -1.150000e+002 -1.000000e+002
      vertex   -5.000000e+001 -1.150000e+002 -8.660254e+001
      vertex   -3.000000e+002 -1.150000e+002 -2.500000e+002
    endloop
  endfacet
  facet normal 5.197921e-017 -1.000000e+000 1.392779e-017
    outer loop
      vertex   -8.660254e+001 -1.150000e+002 -5.000000e+001
      vertex   -1.000000e+002 -1.150000e+002 -1.071875e-013
      vertex   -3.000000e+002 -1.150000e+002 -2.500000e+002
    endloop
  endfacet
  facet normal -1.614057e-017 -1.000000e+000 6.023744e-017
    outer loop
      vertex   5.000000e+001 -1.150000e+002 -8.660254e+001
      vertex   1.224647e-014 -1.150000e+002 -1.000000e+002
      vertex   3.000000e+002 -1.150000e+002 -2.500000e+002
    endloop
  endfacet
  facet normal -1.000000e+000 0.000000e+000 0.000000e+000
    outer loop
      vertex   -3.000000e+002 -1.150000e+002 2.500000e+002
      vertex   -3.000000e+002 1.150000e+002 2.500000e+002
      vertex   -3.000000e+002 1.150000e+002 -2.500000e+002
    endloop
  endfacet
  facet normal -1.000000e+000 0.000000e+000 0.000000e+000
    outer loop
      vertex   -3.000000e+002 1.150000e+002 -2.500000e+002
      vertex   -3.000000e+002 -1.150000e+002 -2.500000e+002
      vertex   -3.000000e+002 -1.150000e+002 2.500000e+002
    endloop
  endfacet
  facet normal 0.000000e+000 0.000000e+000 -1.000000e+000
    outer loop
      vertex   -3.000000e+002 -1.150000e+002 -2.500000e+002
      vertex   -3.000000e+002 1.150000e+002 -2.500000e+002
      vertex   3.000000e+002 1.150000e+002 -2.500000e+002
    endloop
  endfacet
  facet normal 0.000000e+000 -0.000000e+000 -1.000000e+000
    outer loop
      vertex   3.000000e+002 1.150000e+002 -2.500000e+002
      vertex   3.000000e+002 -1.150000e+002 -2.500000e+002
      vertex   -3.000000e+002 -1.150000e+002 -2.500000e+002
    endloop
  endfacet
  facet normal 1.000000e+000 0.000000e+000 0.000000e+000
    outer loop
      vertex   3.000000e+002 -1.150000e+002 -2.500000e+002
      vertex   3.000000e+002 1.150000e+002 -2.500000e+002
      vertex   3.000000e+002 1.150000e+002 2.500000e+002
    endloop
  endfacet
  facet normal 1.000000e+000 0.000000e+000 0.000000e+000
    outer loop
      vertex   3.000000e+002 1.150000e+002 2.500000e+002
      vertex   3.000000e+002 -1.150000e+002 2.500000e+002
      vertex   3.000000e+002 -1.150000e+002 -2.500000e+002
    endloop
  endfacet
  facet normal -1.614057e-017 1.000000e+000 -6.023744e-017
    outer loop
      vertex   3.000000e+002 1.150000e+002 2.500000e+002
      vertex   5.000000e+001 1.150000e+002 8.660254e+001
      vertex   0.000000e+000 1.150000e+002 1.000000e+002
    endloop
  endfacet
  facet normal -3.357008e-017 1.000000e+000 -3.357008e-017
    outer loop
      vertex   3.000000e+002 1.150000e+002 2.500000e+002
      vertex   8.660254e+001 1.150000e+002 5.000000e+001
      vertex   5.000000e+001 1.150000e+002 8.660254e+001
    endloop
  endfacet
  facet normal -5.197921e-017 1.000000e+000 -1.392779e-017
    outer loop
      vertex   3.000000e+002 1.150000e+002 2.500000e+002
      vertex   1.000000e+002 1.150000e+002 2.832769e-014
      vertex   8.660254e+001 1.150000e+002 5.000000e+001
    endloop
  endfacet
  facet normal -5.197921e-017 1.000000e+000 1.392779e-017
    outer loop
      vertex   3.000000e+002 1.150000e+002 -2.500000e+002
      vertex   8.660254e+001 1.150000e+002 -5.000000e+001
      vertex   1.000000e+002 1.150000e+002 2.832769e-014
    endloop
  endfacet
  facet normal -6.938894e-017 1.000000e+000 0.000000e+000
    outer loop
      vertex   1.000000e+002 1.150000e+002 2.832769e-014
      vertex   3.000000e+002 1.150000e+002 2.500000e+002
      vertex   3.000000e+002 1.150000e+002 -2.500000e+002
    endloop
  endfacet
  facet normal -3.357008e-017 1.000000e+000 3.357008e-017
    outer loop
      vertex   3.000000e+002 1.150000e+002 -2.500000e+002
      vertex   5.000000e+001 1.150000e+002 -8.660254e+001
      vertex   8.660254e+001 1.150000e+002 -5.000000e+001
    endloop
  endfacet
  facet normal -1.614057e-017 1.000000e+000 6.023744e-017
    outer loop
      vertex   3.000000e+002 1.150000e+002 -2.500000e+002
      vertex   5.665539e-014 1.150000e+002 -1.000000e+002
      vertex   5.000000e+001 1.150000e+002 -8.660254e+001
    endloop
  endfacet
  facet normal 1.614057e-017 1.000000e+000 6.023744e-017
    outer loop
      vertex   -3.000000e+002 1.150000e+002 -2.500000e+002
      vertex   -5.000000e+001 1.150000e+002 -8.660254e+001
      vertex   5.665539e-014 1.150000e+002 -1.000000e+002
    endloop
  endfacet
  facet normal 0.000000e+000 1.000000e+000 9.251859e-017
    outer loop
      vertex   5.665539e-014 1.150000e+002 -1.000000e+002
      vertex   3.000000e+002 1.150000e+002 -2.500000e+002
      vertex   -3.000000e+002 1.150000e+002 -2.500000e+002
    endloop
  endfacet
  facet normal 3.357008e-017 1.000000e+000 3.357008e-017
    outer loop
      vertex   -3.000000e+002 1.150000e+002 -2.500000e+002
      vertex   -8.660254e+001 1.150000e+002 -5.000000e+001
      vertex   -5.000000e+001 1.150000e+002 -8.660254e+001
    endloop
  endfacet
  facet normal 5.197921e-017 1.000000e+000 -1.392779e-017
    outer loop
      vertex   -3.000000e+002 1.150000e+002 2.500000e+002
      vertex   -8.660254e+001 1.150000e+002 5.000000e+001
      vertex   -1.000000e+002 1.150000e+002 -4.286264e-014
    endloop
  endfacet
  facet normal 5.197921e-017 1.000000e+000 1.392779e-017
    outer loop
      vertex   -3.000000e+002 1.150000e+002 -2.500000e+002
      vertex   -1.000000e+002 1.150000e+002 -4.286264e-014
      vertex   -8.660254e+001 1.150000e+002 -5.000000e+001
    endloop
  endfacet
  facet normal 3.357008e-017 1.000000e+000 -3.357008e-017
    outer loop
      vertex   -3.000000e+002 1.150000e+002 2.500000e+002
      vertex   -5.000000e+001 1.150000e+002 8.660254e+001
      vertex   -8.660254e+001 1.150000e+002 5.000000e+001
    endloop
  endfacet
  facet normal 6.938894e-017 1.000000e+000 0.000000e+000
    outer loop
      vertex   -1.000000e+002 1.150000e+002 -4.286264e-014
      vertex   -3.000000e+002 1.150000e+002 -2.500000e+002
      vertex   -3.000000e+002 1.150000e+002 2.500000e+002
    endloop
  endfacet
  facet normal 1.614057e-017 1.000000e+000 -6.023744e-017
    outer loop
      vertex   -3.000000e+002 1.150000e+002 2.500000e+002
      vertex   0.000000e+000 1.150000e+002 1.000000e+002
      vertex   -5.000000e+001 1.150000e+002 8.660254e+001
    endloop
  endfacet
  facet normal 0.000000e+000 1.000000e+000 -9.251859e-017
    outer loop
      vertex   0.000000e+000 1.150000e+002 1.000000e+002
      vertex   -3.000000e+002 1.150000e+002 2.500000e+002
      vertex   3.000000e+002 1.150000e+002 2.500000e+002
    endloop
  endfacet
  facet normal 2.588190e-001 0.000000e+000 -9.659258e-001
    outer loop
      vertex   -5.000000e+001 1.150000e+002 8.660254e+001
      vertex   0.000000e+000 1.150000e+002 1.000000e+002
      vertex   0.000000e+000 1.100000e+002 1.000000e+002
    endloop
  endfacet
  facet normal 7.071068e-001 0.000000e+000 -7.071068e-001
    outer loop
      vertex   -8.660254e+001 1.150000e+002 5.000000e+001
      vertex   -5.000000e+001 1.150000e+002 8.660254e+001
      vertex   -5.000000e+001 1.100000e+002 8.660254e+001
    endloop
  endfacet
  facet normal 9.659258e-001 0.000000e+000 -2.588190e-001
    outer loop
      vertex   -1.000000e+002 1.150000e+002 -4.286264e-014
      vertex   -8.660254e+001 1.150000e+002 5.000000e+001
      vertex   -8.660254e+001 1.100000e+002 5.000000e+001
    endloop
  endfacet
  facet normal 9.659258e-001 -3.351228e-015 2.588190e-001
    outer loop
      vertex   -8.660254e+001 1.150000e+002 -5.000000e+001
      vertex   -1.000000e+002 1.150000e+002 -4.286264e-014
      vertex   -1.000000e+002 1.100000e+002 -1.071875e-013
    endloop
  endfacet
  facet normal 7.071068e-001 0.000000e+000 7.071068e-001
    outer loop
      vertex   -5.000000e+001 1.150000e+002 -8.660254e+001
      vertex   -8.660254e+001 1.150000e+002 -5.000000e+001
      vertex   -8.660254e+001 1.100000e+002 -5.000000e+001
    endloop
  endfacet
  facet normal 2.588190e-001 0.000000e+000 9.659258e-001
    outer loop
      vertex   5.665539e-014 1.150000e+002 -1.000000e+002
      vertex   -5.000000e+001 1.150000e+002 -8.660254e+001
      vertex   -5.000000e+001 1.100000e+002 -8.660254e+001
    endloop
  endfacet
  facet normal -2.588190e-001 0.000000e+000 9.659258e-001
    outer loop
      vertex   5.000000e+001 1.150000e+002 -8.660254e+001
      vertex   5.665539e-014 1.150000e+002 -1.000000e+002
      vertex   5.665539e-014 1.100000e+002 -1.000000e+002
    endloop
  endfacet
  facet normal -7.071068e-001 0.000000e+000 7.071068e-001
    outer loop
      vertex   8.660254e+001 1.150000e+002 -5.000000e+001
      vertex   5.000000e+001 1.150000e+002 -8.660254e+001
      vertex   5.000000e+001 1.100000e+002 -8.660254e+001
    endloop
  endfacet
  facet normal -9.659258e-001 0.000000e+000 2.588190e-001
    outer loop
      vertex   1.000000e+002 1.150000e+002 2.832769e-014
      vertex   8.660254e+001 1.150000e+002 -5.000000e+001
      vertex   8.660254e+001 1.100000e+002 -5.000000e+001
    endloop
  endfacet
  facet normal -9.659258e-001 0.000000e+000 -2.588190e-001
    outer loop
      vertex   8.660254e+001 1.150000e+002 5.000000e+001
      vertex   1.000000e+002 1.150000e+002 2.832769e-014
      vertex   1.000000e+002 1.100000e+002 2.832769e-014
    endloop
  endfacet
  facet normal -7.071068e-001 0.000000e+000 -7.071068e-001
    outer loop
      vertex   5.000000e+001 1.150000e+002 8.660254e+001
      vertex   8.660254e+001 1.150000e+002 5.000000e+001
      vertex   8.660254e+001 1.100000e+002 5.000000e+001
    endloop
  endfacet
  facet normal -2.588190e-001 0.000000e+000 -9.659258e-001
    outer loop
      vertex   0.000000e+000 1.150000e+002 1.000000e+002
      vertex   5.000000e+001 1.150000e+002 8.660254e+001
      vertex   5.000000e+001 1.100000e+002 8.660254e+001
    endloop
  endfacet
  facet normal -2.588190e-001 0.000000e+000 -9.659258e-001
    outer loop
      vertex   5.000000e+001 1.100000e+002 8.660254e+001
      vertex   0.000000e+000 1.100000e+002 1.000000e+002
      vertex   0.000000e+000 1.150000e+002 1.000000e+002
    endloop
  endfacet
  facet normal -7.071068e-001 0.000000e+000 -7.071068e-001
    outer loop
      vertex   8.660254e+001 1.100000e+002 5.000000e+001
      vertex   5.000000e+001 1.100000e+002 8.660254e+001
      vertex   5.000000e+001 1.150000e+002 8.660254e+001
    endloop
  endfacet
  facet normal -9.659258e-001 0.000000e+000 -2.588190e-001
    outer loop
      vertex   1.000000e+002 1.100000e+002 2.832769e-014
      vertex   8.660254e+001 1.100000e+002 5.000000e+001
      vertex   8.660254e+001 1.150000e+002 5.000000e+001
    endloop
  endfacet
  facet normal -9.659258e-001 0.000000e+000 2.588190e-001
    outer loop
      vertex   8.660254e+001 1.100000e+002 -5.000000e+001
      vertex   1.000000e+002 1.100000e+002 2.832769e-014
      vertex   1.000000e+002 1.150000e+002 2.832769e-014
    endloop
  endfacet
  facet normal -7.071068e-001 0.000000e+000 7.071068e-001
    outer loop
      vertex   5.000000e+001 1.100000e+002 -8.660254e+001
      vertex   8.660254e+001 1.100000e+002 -5.000000e+001
      vertex   8.660254e+001 1.150000e+002 -5.000000e+001
    endloop
  endfacet
  facet normal -2.588190e-001 0.000000e+000 9.659258e-001
    outer loop
      vertex   5.665539e-014 1.100000e+002 -1.000000e+002
      vertex   5.000000e+001 1.100000e+002 -8.660254e+001
      vertex   5.000000e+001 1.150000e+002 -8.660254e+001
    endloop
  endfacet
  facet normal 2.588190e-001 0.000000e+000 9.659258e-001
    outer loop
      vertex   -5.000000e+001 1.100000e+002 -8.660254e+001
      vertex   5.665539e-014 1.100000e+002 -1.000000e+002
      vertex   5.665539e-014 1.150000e+002 -1.000000e+002
    endloop
  endfacet
  facet normal 7.071068e-001 0.000000e+000 7.071068e-001
    outer loop
      vertex   -8.660254e+001 1.100000e+002 -5.000000e+001
      vertex   -5.000000e+001 1.100000e+002 -8.660254e+001
      vertex   -5.000000e+001 1.150000e+002 -8.660254e+001
    endloop
  endfacet
  facet normal 9.659258e-001 0.000000e+000 2.588190e-001
    outer loop
      vertex   -1.000000e+002 1.100000e+002 -1.071875e-013
      vertex   -8.660254e+001 1.100000e+002 -5.000000e+001
      vertex   -8.660254e+001 1.150000e+002 -5.000000e+001
    endloop
  endfacet
  facet normal 9.659258e-001 3.351228e-015 -2.588190e-001
    outer loop
      vertex   -8.660254e+001 1.100000e+002 5.000000e+001
      vertex   -1.000000e+002 1.100000e+002 -1.071875e-013
      vertex   -1.000000e+002 1.150000e+002 -4.286264e-014
    endloop
  endfacet
  facet normal 7.071068e-001 0.000000e+000 -7.071068e-001
    outer loop
      vertex   -5.000000e+001 1.100000e+002 8.660254e+001
      vertex   -8.660254e+001 1.100000e+002 5.000000e+001
      vertex   -8.660254e+001 1.150000e+002 5.000000e+001
    endloop
  endfacet
  facet normal 2.588190e-001 0.000000e+000 -9.659258e-001
    outer loop
      vertex   0.000000e+000 1.100000e+002 1.000000e+002
      vertex   -5.000000e+001 1.100000e+002 8.660254e+001
      vertex   -5.000000e+001 1.150000e+002 8.660254e+001
    endloop
  endfacet
  facet normal 0.000000e+000 0.000000e+000 1.000000e+000
    outer loop
      vertex   -3.000000e+002 1.150000e+002 2.500000e+002
      vertex   -3.000000e+002 -1.150000e+002 2.500000e+002
      vertex   -2.950000e+002 -1.100000e+002 2.500000e+002
    endloop
  endfacet
  facet normal 0.000000e+000 0.000000e+000 1.000000e+000
    outer loop
      vertex   -3.000000e+002 -1.150000e+002 2.500000e+002
      vertex   3.000000e+002 -1.150000e+002 2.500000e+002
      vertex   2.950000e+002 -1.100000e+002 2.500000e+002
    endloop
  endfacet
  facet normal 0.000000e+000 0.000000e+000 1.000000e+000
    outer loop
      vertex   2.950000e+002 -1.100000e+002 2.500000e+002
      vertex   -2.950000e+002 -1.100000e+002 2.500000e+002
      vertex   -3.000000e+002 -1.150000e+002 2.500000e+002
    endloop
  endfacet
  facet normal 0.000000e+000 -0.000000e+000 1.000000e+000
    outer loop
      vertex   3.000000e+002 -1.150000e+002 2.500000e+002
      vertex   3.000000e+002 1.150000e+002 2.500000e+002
      vertex   2.950000e+002 1.100000e+002 2.500000e+002
    endloop
  endfacet
  facet normal 0.000000e+000 0.000000e+000 1.000000e+000
    outer loop
      vertex   3.000000e+002 1.150000e+002 2.500000e+002
      vertex   -3.000000e+002 1.150000e+002 2.500000e+002
      vertex   -2.950000e+002 1.100000e+002 2.500000e+002
    endloop
  endfacet
  facet normal 0.000000e+000 0.000000e+000 1.000000e+000
    outer loop
      vertex   2.950000e+002 1.100000e+002 2.500000e+002
      vertex   2.950000e+002 -1.100000e+002 2.500000e+002
      vertex   3.000000e+002 -1.150000e+002 2.500000e+002
    endloop
  endfacet
  facet normal 0.000000e+000 -0.000000e+000 1.000000e+000
    outer loop
      vertex   -2.950000e+002 -1.100000e+002 2.500000e+002
      vertex   -2.950000e+002 1.100000e+002 2.500000e+002
      vertex   -3.000000e+002 1.150000e+002 2.500000e+002
    endloop
  endfacet
  facet normal 0.000000e+000 0.000000e+000 1.000000e+000
    outer loop
      vertex   -2.950000e+002 1.100000e+002 2.500000e+002
      vertex   2.950000e+002 1.100000e+002 2.500000e+002
      vertex   3.000000e+002 1.150000e+002 2.500000e+002
    endloop
  endfacet
  facet normal 5.297122e-017 -1.000000e+000 1.419360e-017
    outer loop
      vertex   2.950000e+002 1.100000e+002 2.500000e+002
      vertex   8.660254e+001 1.100000e+002 5.000000e+001
      vertex   1.000000e+002 1.100000e+002 2.832769e-014
    endloop
  endfacet
  facet normal 3.483403e-017 -1.000000e+000 -3.483403e-017
    outer loop
      vertex   2.950000e+002 1.100000e+002 -2.400000e+002
      vertex   8.660254e+001 1.100000e+002 -5.000000e+001
      vertex   5.000000e+001 1.100000e+002 -8.660254e+001
    endloop
  endfacet
  facet normal 7.116814e-017 -1.000000e+000 0.000000e+000
    outer loop
      vertex   1.000000e+002 1.100000e+002 2.832769e-014
      vertex   2.950000e+002 1.100000e+002 -2.400000e+002
      vertex   2.950000e+002 1.100000e+002 2.500000e+002
    endloop
  endfacet
  facet normal 0.000000e+000 -1.000000e+000 9.251859e-017
    outer loop
      vertex   2.950000e+002 1.100000e+002 2.500000e+002
      vertex   -2.950000e+002 1.100000e+002 2.500000e+002
      vertex   0.000000e+000 1.100000e+002 1.000000e+002
    endloop
  endfacet
  facet normal -7.116814e-017 -1.000000e+000 -0.000000e+000
    outer loop
      vertex   -2.950000e+002 1.100000e+002 2.500000e+002
      vertex   -2.950000e+002 1.100000e+002 -2.400000e+002
      vertex   -1.000000e+002 1.100000e+002 -1.071875e-013
    endloop
  endfacet
  facet normal 5.351859e-017 -1.000000e+000 -1.434026e-017
    outer loop
      vertex   1.000000e+002 1.100000e+002 2.832769e-014
      vertex   8.660254e+001 1.100000e+002 -5.000000e+001
      vertex   2.950000e+002 1.100000e+002 -2.400000e+002
    endloop
  endfacet
  facet normal -1.623498e-017 -1.000000e+000 6.058978e-017
    outer loop
      vertex   -2.950000e+002 1.100000e+002 2.500000e+002
      vertex   -5.000000e+001 1.100000e+002 8.660254e+001
      vertex   0.000000e+000 1.100000e+002 1.000000e+002
    endloop
  endfacet
  facet normal -5.297122e-017 -1.000000e+000 1.419360e-017
    outer loop
      vertex   -1.000000e+002 1.100000e+002 -1.071875e-013
      vertex   -8.660254e+001 1.100000e+002 5.000000e+001
      vertex   -2.950000e+002 1.100000e+002 2.500000e+002
    endloop
  endfacet
  facet normal 3.398108e-017 -1.000000e+000 3.398108e-017
    outer loop
      vertex   2.950000e+002 1.100000e+002 2.500000e+002
      vertex   5.000000e+001 1.100000e+002 8.660254e+001
      vertex   8.660254e+001 1.100000e+002 5.000000e+001
    endloop
  endfacet
  facet normal -3.398108e-017 -1.000000e+000 3.398108e-017
    outer loop
      vertex   -8.660254e+001 1.100000e+002 5.000000e+001
      vertex   -5.000000e+001 1.100000e+002 8.660254e+001
      vertex   -2.950000e+002 1.100000e+002 2.500000e+002
    endloop
  endfacet
  facet normal -3.483403e-017 -1.000000e+000 -3.483403e-017
    outer loop
      vertex   -2.950000e+002 1.100000e+002 -2.400000e+002
      vertex   -5.000000e+001 1.100000e+002 -8.660254e+001
      vertex   -8.660254e+001 1.100000e+002 -5.000000e+001
    endloop
  endfacet
  facet normal 0.000000e+000 -1.000000e+000 -9.912706e-017
    outer loop
      vertex   -2.950000e+002 1.100000e+002 -2.400000e+002
      vertex   2.950000e+002 1.100000e+002 -2.400000e+002
      vertex   5.665539e-014 1.100000e+002 -1.000000e+002
    endloop
  endfacet
  facet normal 1.623498e-017 -1.000000e+000 6.058978e-017
    outer loop
      vertex   0.000000e+000 1.100000e+002 1.000000e+002
      vertex   5.000000e+001 1.100000e+002 8.660254e+001
      vertex   2.950000e+002 1.100000e+002 2.500000e+002
    endloop
  endfacet
  facet normal -1.697615e-017 -1.000000e+000 -6.335587e-017
    outer loop
      vertex   5.665539e-014 1.100000e+002 -1.000000e+002
      vertex   -5.000000e+001 1.100000e+002 -8.660254e+001
      vertex   -2.950000e+002 1.100000e+002 -2.400000e+002
    endloop
  endfacet
  facet normal -5.351859e-017 -1.000000e+000 -1.434026e-017
    outer loop
      vertex   -8.660254e+001 1.100000e+002 -5.000000e+001
      vertex   -1.000000e+002 1.100000e+002 -1.071875e-013
      vertex   -2.950000e+002 1.100000e+002 -2.400000e+002
    endloop
  endfacet
  facet normal 1.697615e-017 -1.000000e+000 -6.335587e-017
    outer loop
      vertex   5.000000e+001 1.100000e+002 -8.660254e+001
      vertex   5.665539e-014 1.100000e+002 -1.000000e+002
      vertex   2.950000e+002 1.100000e+002 -2.400000e+002
    endloop
  endfacet
  facet normal 7.116814e-017 1.000000e+000 0.000000e+000
    outer loop
      vertex   2.950000e+002 -1.100000e+002 2.500000e+002
      vertex   2.950000e+002 -1.100000e+002 -2.400000e+002
      vertex   1.000000e+002 -1.100000e+002 2.832769e-014
    endloop
  endfacet
  facet normal 5.351859e-017 1.000000e+000 -1.434026e-017
    outer loop
      vertex   2.950000e+002 -1.100000e+002 -2.400000e+002
      vertex   8.660254e+001 -1.100000e+002 -5.000000e+001
      vertex   1.000000e+002 -1.100000e+002 2.832769e-014
    endloop
  endfacet
  facet normal 1.697615e-017 1.000000e+000 -6.335587e-017
    outer loop
      vertex   2.950000e+002 -1.100000e+002 -2.400000e+002
      vertex   3.673940e-014 -1.100000e+002 -1.000000e+002
      vertex   5.000000e+001 -1.100000e+002 -8.660254e+001
    endloop
  endfacet
  facet normal -1.697615e-017 1.000000e+000 -6.335587e-017
    outer loop
      vertex   -2.950000e+002 -1.100000e+002 -2.400000e+002
      vertex   -5.000000e+001 -1.100000e+002 -8.660254e+001
      vertex   3.673940e-014 -1.100000e+002 -1.000000e+002
    endloop
  endfacet
  facet normal -5.351859e-017 1.000000e+000 -1.434026e-017
    outer loop
      vertex   -2.950000e+002 -1.100000e+002 -2.400000e+002
      vertex   -1.000000e+002 -1.100000e+002 -1.071875e-013
      vertex   -8.660254e+001 -1.100000e+002 -5.000000e+001
    endloop
  endfacet
  facet normal 3.483403e-017 1.000000e+000 -3.483403e-017
    outer loop
      vertex   5.000000e+001 -1.100000e+002 -8.660254e+001
      vertex   8.660254e+001 -1.100000e+002 -5.000000e+001
      vertex   2.950000e+002 -1.100000e+002 -2.400000e+002
    endloop
  endfacet
  facet normal -3.483403e-017 1.000000e+000 -3.483403e-017
    outer loop
      vertex   -8.660254e+001 -1.100000e+002 -5.000000e+001
      vertex   -5.000000e+001 -1.100000e+002 -8.660254e+001
      vertex   -2.950000e+002 -1.100000e+002 -2.400000e+002
    endloop
  endfacet
  facet normal -5.297122e-017 1.000000e+000 1.419360e-017
    outer loop
      vertex   -2.950000e+002 -1.100000e+002 2.500000e+002
      vertex   -8.660254e+001 -1.100000e+002 5.000000e+001
      vertex   -1.000000e+002 -1.100000e+002 -1.071875e-013
    endloop
  endfacet
  facet normal 0.000000e+000 1.000000e+000 -9.912706e-017
    outer loop
      vertex   3.673940e-014 -1.100000e+002 -1.000000e+002
      vertex   2.950000e+002 -1.100000e+002 -2.400000e+002
      vertex   -2.950000e+002 -1.100000e+002 -2.400000e+002
    endloop
  endfacet
  facet normal -3.398108e-017 1.000000e+000 3.398108e-017
    outer loop
      vertex   -2.950000e+002 -1.100000e+002 2.500000e+002
      vertex   -5.000000e+001 -1.100000e+002 8.660254e+001
      vertex   -8.660254e+001 -1.100000e+002 5.000000e+001
    endloop
  endfacet
  facet normal 1.623498e-017 1.000000e+000 6.058978e-017
    outer loop
      vertex   2.950000e+002 -1.100000e+002 2.500000e+002
      vertex   5.000000e+001 -1.100000e+002 8.660254e+001
      vertex   -2.449294e-014 -1.100000e+002 1.000000e+002
    endloop
  endfacet
  facet normal -7.116814e-017 1.000000e+000 0.000000e+000
    outer loop
      vertex   -1.000000e+002 -1.100000e+002 -1.071875e-013
      vertex   -2.950000e+002 -1.100000e+002 -2.400000e+002
      vertex   -2.950000e+002 -1.100000e+002 2.500000e+002
    endloop
  endfacet
  facet normal 3.398108e-017 1.000000e+000 3.398108e-017
    outer loop
      vertex   2.950000e+002 -1.100000e+002 2.500000e+002
      vertex   8.660254e+001 -1.100000e+002 5.000000e+001
      vertex   5.000000e+001 -1.100000e+002 8.660254e+001
    endloop
  endfacet
  facet normal -1.623498e-017 1.000000e+000 6.058978e-017
    outer loop
      vertex   -2.950000e+002 -1.100000e+002 2.500000e+002
      vertex   -2.449294e-014 -1.100000e+002 1.000000e+002
      vertex   -5.000000e+001 -1.100000e+002 8.660254e+001
    endloop
  endfacet
  facet normal 5.297122e-017 1.000000e+000 1.419360e-017
    outer loop
      vertex   1.000000e+002 -1.100000e+002 2.832769e-014
      vertex   8.660254e+001 -1.100000e+002 5.000000e+001
      vertex   2.950000e+002 -1.100000e+002 2.500000e+002
    endloop
  endfacet
  facet normal 0.000000e+000 1.000000e+000 9.251859e-017
    outer loop
      vertex   -2.449294e-014 -1.100000e+002 1.000000e+002
      vertex   -2.950000e+002 -1.100000e+002 2.500000e+002
      vertex   2.950000e+002 -1.100000e+002 2.500000e+002
    endloop
  endfacet
  facet normal 1.000000e+000 0.000000e+000 -0.000000e+000
    outer loop
      vertex   -2.950000e+002 1.100000e+002 -2.400000e+002
      vertex   -2.950000e+002 1.100000e+002 2.500000e+002
      vertex   -2.950000e+002 -1.100000e+002 2.500000e+002
    endloop
  endfacet
  facet normal 1.000000e+000 0.000000e+000 0.000000e+000
    outer loop
      vertex   -2.950000e+002 -1.100000e+002 2.500000e+002
      vertex   -2.950000e+002 -1.100000e+002 -2.400000e+002
      vertex   -2.950000e+002 1.100000e+002 -2.400000e+002
    endloop
  endfacet
  facet normal -1.000000e+000 0.000000e+000 0.000000e+000
    outer loop
      vertex   2.950000e+002 -1.100000e+002 -2.400000e+002
      vertex   2.950000e+002 -1.100000e+002 2.500000e+002
      vertex   2.950000e+002 1.100000e+002 2.500000e+002
    endloop
  endfacet
  facet normal -1.000000e+000 0.000000e+000 -0.000000e+000
    outer loop
      vertex   2.950000e+002 1.100000e+002 2.500000e+002
      vertex   2.950000e+002 1.100000e+002 -2.400000e+002
      vertex   2.950000e+002 -1.100000e+002 -2.400000e+002
    endloop
  endfacet
  facet normal 0.000000e+000 -0.000000e+000 1.000000e+000
    outer loop
      vertex   2.950000e+002 -1.100000e+002 -2.400000e+002
      vertex   2.950000e+002 1.100000e+002 -2.400000e+002
      vertex   -2.950000e+002 1.100000e+002 -2.400000e+002
    endloop
  endfacet
  facet normal 0.000000e+000 0.000000e+000 1.000000e+000
    outer loop
      vertex   -2.950000e+002 1.100000e+002 -2.400000e+002
      vertex   -2.950000e+002 -1.100000e+002 -2.400000e+002
      vertex   2.950000e+002 -1.100000e+002 -2.400000e+002
    endloop
  endfacet
endsolid
