solid Rotor1
  facet normal -4.487992e-001 0.000000e+000 -8.936326e-001
    outer loop
      vertex   1.109023e+002 6.500000e+002 2.571005e+002
      vertex   1.400000e+002 6.500000e+002 2.424871e+002
      vertex   1.400000e+002 -6.500000e+002 2.424871e+002
    endloop
  endfacet
  facet normal -3.420201e-001 0.000000e+000 -9.396926e-001
    outer loop
      vertex   8.030491e+001 6.500000e+002 2.682371e+002
      vertex   1.109023e+002 6.500000e+002 2.571005e+002
      vertex   1.109023e+002 -6.500000e+002 2.571005e+002
    endloop
  endfacet
  facet normal -2.306159e-001 0.000000e+000 -9.730449e-001
    outer loop
      vertex   4.862149e+001 6.500000e+002 2.757462e+002
      vertex   8.030491e+001 6.500000e+002 2.682371e+002
      vertex   8.030491e+001 -6.500000e+002 2.682371e+002
    endloop
  endfacet
  facet normal -2.306159e-001 0.000000e+000 -9.730449e-001
    outer loop
      vertex   8.030491e+001 -6.500000e+002 2.682371e+002
      vertex   4.862149e+001 -6.500000e+002 2.757462e+002
      vertex   4.862149e+001 6.500000e+002 2.757462e+002
    endloop
  endfacet
  facet normal -3.420201e-001 0.000000e+000 -9.396926e-001
    outer loop
      vertex   1.109023e+002 -6.500000e+002 2.571005e+002
      vertex   8.030491e+001 -6.500000e+002 2.682371e+002
      vertex   8.030491e+001 6.500000e+002 2.682371e+002
    endloop
  endfacet
  facet normal -4.487992e-001 0.000000e+000 -8.936326e-001
    outer loop
      vertex   1.400000e+002 -6.500000e+002 2.424871e+002
      vertex   1.109023e+002 -6.500000e+002 2.571005e+002
      vertex   1.109023e+002 6.500000e+002 2.571005e+002
    endloop
  endfacet
  facet normal 8.660254e-001 0.000000e+000 -5.000000e-001
    outer loop
      vertex   1.400000e+002 -6.500000e+002 2.424871e+002
      vertex   1.400000e+002 6.500000e+002 2.424871e+002
      vertex   2.500000e+002 6.500000e+002 4.330127e+002
    endloop
  endfacet
  facet normal 8.660254e-001 0.000000e+000 -5.000000e-001
    outer loop
      vertex   2.500000e+002 6.500000e+002 4.330127e+002
      vertex   2.500000e+002 -6.500000e+002 4.330127e+002
      vertex   1.400000e+002 -6.500000e+002 2.424871e+002
    endloop
  endfacet
  facet normal 2.306159e-001 0.000000e+000 9.730449e-001
    outer loop
      vertex   8.682409e+001 6.500000e+002 4.924039e+002
      vertex   8.682409e+001 -6.500000e+002 4.924039e+002
      vertex   1.434016e+002 -6.500000e+002 4.789948e+002
    endloop
  endfacet
  facet normal 3.420201e-001 0.000000e+000 9.396926e-001
    outer loop
      vertex   1.434016e+002 6.500000e+002 4.789948e+002
      vertex   1.434016e+002 -6.500000e+002 4.789948e+002
      vertex   1.980399e+002 -6.500000e+002 4.591081e+002
    endloop
  endfacet
  facet normal 4.487992e-001 0.000000e+000 8.936326e-001
    outer loop
      vertex   1.980399e+002 6.500000e+002 4.591081e+002
      vertex   1.980399e+002 -6.500000e+002 4.591081e+002
      vertex   2.500000e+002 -6.500000e+002 4.330127e+002
    endloop
  endfacet
  facet normal 4.487992e-001 -0.000000e+000 8.936326e-001
    outer loop
      vertex   2.500000e+002 -6.500000e+002 4.330127e+002
      vertex   2.500000e+002 6.500000e+002 4.330127e+002
      vertex   1.980399e+002 6.500000e+002 4.591081e+002
    endloop
  endfacet
  facet normal 3.420201e-001 -0.000000e+000 9.396926e-001
    outer loop
      vertex   1.980399e+002 -6.500000e+002 4.591081e+002
      vertex   1.980399e+002 6.500000e+002 4.591081e+002
      vertex   1.434016e+002 6.500000e+002 4.789948e+002
    endloop
  endfacet
  facet normal 2.306159e-001 -0.000000e+000 9.730449e-001
    outer loop
      vertex   1.434016e+002 -6.500000e+002 4.789948e+002
      vertex   1.434016e+002 6.500000e+002 4.789948e+002
      vertex   8.682409e+001 6.500000e+002 4.924039e+002
    endloop
  endfacet
  facet normal -9.848078e-001 0.000000e+000 1.736482e-001
    outer loop
      vertex   8.682409e+001 -6.500000e+002 4.924039e+002
      vertex   8.682409e+001 6.500000e+002 4.924039e+002
      vertex   4.862149e+001 6.500000e+002 2.757462e+002
    endloop
  endfacet
  facet normal -9.848078e-001 0.000000e+000 1.736482e-001
    outer loop
      vertex   4.862149e+001 6.500000e+002 2.757462e+002
      vertex   4.862149e+001 -6.500000e+002 2.757462e+002
      vertex   8.682409e+001 -6.500000e+002 4.924039e+002
    endloop
  endfacet
  facet normal 0.000000e+000 -1.000000e+000 0.000000e+000
    outer loop
      vertex   1.434016e+002 -6.500000e+002 4.789948e+002
      vertex   8.030491e+001 -6.500000e+002 2.682371e+002
      vertex   1.109023e+002 -6.500000e+002 2.571005e+002
    endloop
  endfacet
  facet normal 0.000000e+000 -1.000000e+000 0.000000e+000
    outer loop
      vertex   8.682409e+001 -6.500000e+002 4.924039e+002
      vertex   4.862149e+001 -6.500000e+002 2.757462e+002
      vertex   8.030491e+001 -6.500000e+002 2.682371e+002
    endloop
  endfacet
  facet normal -0.000000e+000 -1.000000e+000 0.000000e+000
    outer loop
      vertex   2.500000e+002 -6.500000e+002 4.330127e+002
      vertex   1.980399e+002 -6.500000e+002 4.591081e+002
      vertex   1.109023e+002 -6.500000e+002 2.571005e+002
    endloop
  endfacet
  facet normal 0.000000e+000 -1.000000e+000 0.000000e+000
    outer loop
      vertex   8.030491e+001 -6.500000e+002 2.682371e+002
      vertex   1.434016e+002 -6.500000e+002 4.789948e+002
      vertex   8.682409e+001 -6.500000e+002 4.924039e+002
    endloop
  endfacet
  facet normal 0.000000e+000 -1.000000e+000 0.000000e+000
    outer loop
      vertex   1.109023e+002 -6.500000e+002 2.571005e+002
      vertex   1.980399e+002 -6.500000e+002 4.591081e+002
      vertex   1.434016e+002 -6.500000e+002 4.789948e+002
    endloop
  endfacet
  facet normal 0.000000e+000 -1.000000e+000 0.000000e+000
    outer loop
      vertex   1.109023e+002 -6.500000e+002 2.571005e+002
      vertex   1.400000e+002 -6.500000e+002 2.424871e+002
      vertex   2.500000e+002 -6.500000e+002 4.330127e+002
    endloop
  endfacet
  facet normal -1.832294e-015 1.000000e+000 5.485529e-016
    outer loop
      vertex   8.682409e+001 6.500000e+002 4.924039e+002
      vertex   1.434016e+002 6.500000e+002 4.789948e+002
      vertex   8.030491e+001 6.500000e+002 2.682371e+002
    endloop
  endfacet
  facet normal 0.000000e+000 1.000000e+000 0.000000e+000
    outer loop
      vertex   1.434016e+002 6.500000e+002 4.789948e+002
      vertex   1.980399e+002 6.500000e+002 4.591081e+002
      vertex   1.109023e+002 6.500000e+002 2.571005e+002
    endloop
  endfacet
  facet normal 0.000000e+000 1.000000e+000 -0.000000e+000
    outer loop
      vertex   1.109023e+002 6.500000e+002 2.571005e+002
      vertex   8.030491e+001 6.500000e+002 2.682371e+002
      vertex   1.434016e+002 6.500000e+002 4.789948e+002
    endloop
  endfacet
  facet normal 2.957857e-015 1.000000e+000 -1.707719e-015
    outer loop
      vertex   2.500000e+002 6.500000e+002 4.330127e+002
      vertex   1.400000e+002 6.500000e+002 2.424871e+002
      vertex   1.109023e+002 6.500000e+002 2.571005e+002
    endloop
  endfacet
  facet normal 1.756222e-015 1.000000e+000 -7.575602e-016
    outer loop
      vertex   1.109023e+002 6.500000e+002 2.571005e+002
      vertex   1.980399e+002 6.500000e+002 4.591081e+002
      vertex   2.500000e+002 6.500000e+002 4.330127e+002
    endloop
  endfacet
  facet normal -3.363550e-015 1.000000e+000 5.930847e-016
    outer loop
      vertex   8.030491e+001 6.500000e+002 2.682371e+002
      vertex   4.862149e+001 6.500000e+002 2.757462e+002
      vertex   8.682409e+001 6.500000e+002 4.924039e+002
    endloop
  endfacet
  facet normal 8.021232e-001 0.000000e+000 -5.971586e-001
    outer loop
      vertex   -2.339366e+002 6.500000e+002 1.538625e+002
      vertex   -2.144924e+002 6.500000e+002 1.799805e+002
      vertex   -2.144924e+002 -6.500000e+002 1.799805e+002
    endloop
  endfacet
  facet normal 8.660254e-001 0.000000e+000 -5.000000e-001
    outer loop
      vertex   -2.502171e+002 6.500000e+002 1.256638e+002
      vertex   -2.339366e+002 6.500000e+002 1.538625e+002
      vertex   -2.339366e+002 -6.500000e+002 1.538625e+002
    endloop
  endfacet
  facet normal 9.182161e-001 0.000000e+000 -3.960798e-001
    outer loop
      vertex   -2.631139e+002 6.500000e+002 9.576564e+001
      vertex   -2.502171e+002 6.500000e+002 1.256638e+002
      vertex   -2.502171e+002 -6.500000e+002 1.256638e+002
    endloop
  endfacet
  facet normal 9.182161e-001 0.000000e+000 -3.960798e-001
    outer loop
      vertex   -2.502171e+002 -6.500000e+002 1.256638e+002
      vertex   -2.631139e+002 -6.500000e+002 9.576564e+001
      vertex   -2.631139e+002 6.500000e+002 9.576564e+001
    endloop
  endfacet
  facet normal 8.660254e-001 0.000000e+000 -5.000000e-001
    outer loop
      vertex   -2.339366e+002 -6.500000e+002 1.538625e+002
      vertex   -2.502171e+002 -6.500000e+002 1.256638e+002
      vertex   -2.502171e+002 6.500000e+002 1.256638e+002
    endloop
  endfacet
  facet normal 8.021232e-001 0.000000e+000 -5.971586e-001
    outer loop
      vertex   -2.144924e+002 -6.500000e+002 1.799805e+002
      vertex   -2.339366e+002 -6.500000e+002 1.538625e+002
      vertex   -2.339366e+002 6.500000e+002 1.538625e+002
    endloop
  endfacet
  facet normal -3.420201e-001 0.000000e+000 -9.396926e-001
    outer loop
      vertex   -4.698463e+002 -6.500000e+002 1.710101e+002
      vertex   -4.698463e+002 6.500000e+002 1.710101e+002
      vertex   -2.631139e+002 6.500000e+002 9.576564e+001
    endloop
  endfacet
  facet normal -3.420201e-001 -0.000000e+000 -9.396926e-001
    outer loop
      vertex   -2.631139e+002 6.500000e+002 9.576564e+001
      vertex   -2.631139e+002 -6.500000e+002 9.576564e+001
      vertex   -4.698463e+002 -6.500000e+002 1.710101e+002
    endloop
  endfacet
  facet normal -9.182161e-001 0.000000e+000 3.960798e-001
    outer loop
      vertex   -4.698463e+002 6.500000e+002 1.710101e+002
      vertex   -4.698463e+002 -6.500000e+002 1.710101e+002
      vertex   -4.468163e+002 -6.500000e+002 2.243996e+002
    endloop
  endfacet
  facet normal -8.660254e-001 0.000000e+000 5.000000e-001
    outer loop
      vertex   -4.468163e+002 6.500000e+002 2.243996e+002
      vertex   -4.468163e+002 -6.500000e+002 2.243996e+002
      vertex   -4.177439e+002 -6.500000e+002 2.747545e+002
    endloop
  endfacet
  facet normal -8.021232e-001 0.000000e+000 5.971586e-001
    outer loop
      vertex   -4.177439e+002 6.500000e+002 2.747545e+002
      vertex   -4.177439e+002 -6.500000e+002 2.747545e+002
      vertex   -3.830222e+002 -6.500000e+002 3.213938e+002
    endloop
  endfacet
  facet normal -8.021232e-001 0.000000e+000 5.971586e-001
    outer loop
      vertex   -3.830222e+002 -6.500000e+002 3.213938e+002
      vertex   -3.830222e+002 6.500000e+002 3.213938e+002
      vertex   -4.177439e+002 6.500000e+002 2.747545e+002
    endloop
  endfacet
  facet normal -8.660254e-001 0.000000e+000 5.000000e-001
    outer loop
      vertex   -4.177439e+002 -6.500000e+002 2.747545e+002
      vertex   -4.177439e+002 6.500000e+002 2.747545e+002
      vertex   -4.468163e+002 6.500000e+002 2.243996e+002
    endloop
  endfacet
  facet normal -9.182161e-001 0.000000e+000 3.960798e-001
    outer loop
      vertex   -4.468163e+002 -6.500000e+002 2.243996e+002
      vertex   -4.468163e+002 6.500000e+002 2.243996e+002
      vertex   -4.698463e+002 6.500000e+002 1.710101e+002
    endloop
  endfacet
  facet normal 6.427876e-001 -0.000000e+000 7.660444e-001
    outer loop
      vertex   -2.144924e+002 -6.500000e+002 1.799805e+002
      vertex   -2.144924e+002 6.500000e+002 1.799805e+002
      vertex   -3.830222e+002 6.500000e+002 3.213938e+002
    endloop
  endfacet
  facet normal 6.427876e-001 0.000000e+000 7.660444e-001
    outer loop
      vertex   -3.830222e+002 6.500000e+002 3.213938e+002
      vertex   -3.830222e+002 -6.500000e+002 3.213938e+002
      vertex   -2.144924e+002 -6.500000e+002 1.799805e+002
    endloop
  endfacet
  facet normal 0.000000e+000 -1.000000e+000 -0.000000e+000
    outer loop
      vertex   -4.177439e+002 -6.500000e+002 2.747545e+002
      vertex   -4.468163e+002 -6.500000e+002 2.243996e+002
      vertex   -2.502171e+002 -6.500000e+002 1.256638e+002
    endloop
  endfacet
  facet normal 0.000000e+000 -1.000000e+000 -0.000000e+000
    outer loop
      vertex   -4.468163e+002 -6.500000e+002 2.243996e+002
      vertex   -4.698463e+002 -6.500000e+002 1.710101e+002
      vertex   -2.631139e+002 -6.500000e+002 9.576564e+001
    endloop
  endfacet
  facet normal 0.000000e+000 -1.000000e+000 -0.000000e+000
    outer loop
      vertex   -3.830222e+002 -6.500000e+002 3.213938e+002
      vertex   -4.177439e+002 -6.500000e+002 2.747545e+002
      vertex   -2.339366e+002 -6.500000e+002 1.538625e+002
    endloop
  endfacet
  facet normal 0.000000e+000 -1.000000e+000 0.000000e+000
    outer loop
      vertex   -2.631139e+002 -6.500000e+002 9.576564e+001
      vertex   -2.502171e+002 -6.500000e+002 1.256638e+002
      vertex   -4.468163e+002 -6.500000e+002 2.243996e+002
    endloop
  endfacet
  facet normal 0.000000e+000 -1.000000e+000 0.000000e+000
    outer loop
      vertex   -2.502171e+002 -6.500000e+002 1.256638e+002
      vertex   -2.339366e+002 -6.500000e+002 1.538625e+002
      vertex   -4.177439e+002 -6.500000e+002 2.747545e+002
    endloop
  endfacet
  facet normal 0.000000e+000 -1.000000e+000 0.000000e+000
    outer loop
      vertex   -2.339366e+002 -6.500000e+002 1.538625e+002
      vertex   -2.144924e+002 -6.500000e+002 1.799805e+002
      vertex   -3.830222e+002 -6.500000e+002 3.213938e+002
    endloop
  endfacet
  facet normal -1.532846e-015 1.000000e+000 -3.052147e-015
    outer loop
      vertex   -4.468163e+002 6.500000e+002 2.243996e+002
      vertex   -2.502171e+002 6.500000e+002 1.256638e+002
      vertex   -2.631139e+002 6.500000e+002 9.576564e+001
    endloop
  endfacet
  facet normal 0.000000e+000 1.000000e+000 0.000000e+000
    outer loop
      vertex   -4.177439e+002 6.500000e+002 2.747545e+002
      vertex   -2.339366e+002 6.500000e+002 1.538625e+002
      vertex   -2.502171e+002 6.500000e+002 1.256638e+002
    endloop
  endfacet
  facet normal 0.000000e+000 1.000000e+000 0.000000e+000
    outer loop
      vertex   -2.502171e+002 6.500000e+002 1.256638e+002
      vertex   -4.468163e+002 6.500000e+002 2.243996e+002
      vertex   -4.177439e+002 6.500000e+002 2.747545e+002
    endloop
  endfacet
  facet normal -4.054749e-016 1.000000e+000 3.018649e-016
    outer loop
      vertex   -3.830222e+002 6.500000e+002 3.213938e+002
      vertex   -2.144924e+002 6.500000e+002 1.799805e+002
      vertex   -2.339366e+002 6.500000e+002 1.538625e+002
    endloop
  endfacet
  facet normal 1.051016e-015 1.000000e+000 1.597992e-015
    outer loop
      vertex   -2.339366e+002 6.500000e+002 1.538625e+002
      vertex   -4.177439e+002 6.500000e+002 2.747545e+002
      vertex   -3.830222e+002 6.500000e+002 3.213938e+002
    endloop
  endfacet
  facet normal 4.641601e-016 1.000000e+000 -2.002191e-016
    outer loop
      vertex   -2.631139e+002 6.500000e+002 9.576564e+001
      vertex   -4.698463e+002 6.500000e+002 1.710101e+002
      vertex   -4.468163e+002 6.500000e+002 2.243996e+002
    endloop
  endfacet
  facet normal -9.182161e-001 0.000000e+000 -3.960798e-001
    outer loop
      vertex   2.502171e+002 6.500000e+002 1.256638e+002
      vertex   2.631139e+002 6.500000e+002 9.576564e+001
      vertex   2.631139e+002 -6.500000e+002 9.576564e+001
    endloop
  endfacet
  facet normal -8.660254e-001 0.000000e+000 -5.000000e-001
    outer loop
      vertex   2.339366e+002 6.500000e+002 1.538625e+002
      vertex   2.502171e+002 6.500000e+002 1.256638e+002
      vertex   2.502171e+002 -6.500000e+002 1.256638e+002
    endloop
  endfacet
  facet normal -8.021232e-001 0.000000e+000 -5.971586e-001
    outer loop
      vertex   2.144924e+002 6.500000e+002 1.799805e+002
      vertex   2.339366e+002 6.500000e+002 1.538625e+002
      vertex   2.339366e+002 -6.500000e+002 1.538625e+002
    endloop
  endfacet
  facet normal -8.021232e-001 0.000000e+000 -5.971586e-001
    outer loop
      vertex   2.339366e+002 -6.500000e+002 1.538625e+002
      vertex   2.144924e+002 -6.500000e+002 1.799805e+002
      vertex   2.144924e+002 6.500000e+002 1.799805e+002
    endloop
  endfacet
  facet normal -8.660254e-001 0.000000e+000 -5.000000e-001
    outer loop
      vertex   2.502171e+002 -6.500000e+002 1.256638e+002
      vertex   2.339366e+002 -6.500000e+002 1.538625e+002
      vertex   2.339366e+002 6.500000e+002 1.538625e+002
    endloop
  endfacet
  facet normal -9.182161e-001 0.000000e+000 -3.960798e-001
    outer loop
      vertex   2.631139e+002 -6.500000e+002 9.576564e+001
      vertex   2.502171e+002 -6.500000e+002 1.256638e+002
      vertex   2.502171e+002 6.500000e+002 1.256638e+002
    endloop
  endfacet
  facet normal -6.427876e-001 0.000000e+000 7.660444e-001
    outer loop
      vertex   3.830222e+002 -6.500000e+002 3.213938e+002
      vertex   3.830222e+002 6.500000e+002 3.213938e+002
      vertex   2.144924e+002 6.500000e+002 1.799805e+002
    endloop
  endfacet
  facet normal -6.427876e-001 0.000000e+000 7.660444e-001
    outer loop
      vertex   2.144924e+002 6.500000e+002 1.799805e+002
      vertex   2.144924e+002 -6.500000e+002 1.799805e+002
      vertex   3.830222e+002 -6.500000e+002 3.213938e+002
    endloop
  endfacet
  facet normal 8.021232e-001 0.000000e+000 5.971586e-001
    outer loop
      vertex   3.830222e+002 6.500000e+002 3.213938e+002
      vertex   3.830222e+002 -6.500000e+002 3.213938e+002
      vertex   4.177439e+002 -6.500000e+002 2.747545e+002
    endloop
  endfacet
  facet normal 8.660254e-001 0.000000e+000 5.000000e-001
    outer loop
      vertex   4.177439e+002 6.500000e+002 2.747545e+002
      vertex   4.177439e+002 -6.500000e+002 2.747545e+002
      vertex   4.468163e+002 -6.500000e+002 2.243996e+002
    endloop
  endfacet
  facet normal 9.182161e-001 0.000000e+000 3.960798e-001
    outer loop
      vertex   4.468163e+002 6.500000e+002 2.243996e+002
      vertex   4.468163e+002 -6.500000e+002 2.243996e+002
      vertex   4.698463e+002 -6.500000e+002 1.710101e+002
    endloop
  endfacet
  facet normal 9.182161e-001 -0.000000e+000 3.960798e-001
    outer loop
      vertex   4.698463e+002 -6.500000e+002 1.710101e+002
      vertex   4.698463e+002 6.500000e+002 1.710101e+002
      vertex   4.468163e+002 6.500000e+002 2.243996e+002
    endloop
  endfacet
  facet normal 8.660254e-001 -0.000000e+000 5.000000e-001
    outer loop
      vertex   4.468163e+002 -6.500000e+002 2.243996e+002
      vertex   4.468163e+002 6.500000e+002 2.243996e+002
      vertex   4.177439e+002 6.500000e+002 2.747545e+002
    endloop
  endfacet
  facet normal 8.021232e-001 -0.000000e+000 5.971586e-001
    outer loop
      vertex   4.177439e+002 -6.500000e+002 2.747545e+002
      vertex   4.177439e+002 6.500000e+002 2.747545e+002
      vertex   3.830222e+002 6.500000e+002 3.213938e+002
    endloop
  endfacet
  facet normal 3.420201e-001 0.000000e+000 -9.396926e-001
    outer loop
      vertex   2.631139e+002 -6.500000e+002 9.576564e+001
      vertex   2.631139e+002 6.500000e+002 9.576564e+001
      vertex   4.698463e+002 6.500000e+002 1.710101e+002
    endloop
  endfacet
  facet normal 3.420201e-001 0.000000e+000 -9.396926e-001
    outer loop
      vertex   4.698463e+002 6.500000e+002 1.710101e+002
      vertex   4.698463e+002 -6.500000e+002 1.710101e+002
      vertex   2.631139e+002 -6.500000e+002 9.576564e+001
    endloop
  endfacet
  facet normal 0.000000e+000 -1.000000e+000 0.000000e+000
    outer loop
      vertex   4.468163e+002 -6.500000e+002 2.243996e+002
      vertex   2.502171e+002 -6.500000e+002 1.256638e+002
      vertex   2.631139e+002 -6.500000e+002 9.576564e+001
    endloop
  endfacet
  facet normal -0.000000e+000 -1.000000e+000 0.000000e+000
    outer loop
      vertex   4.468163e+002 -6.500000e+002 2.243996e+002
      vertex   4.177439e+002 -6.500000e+002 2.747545e+002
      vertex   2.339366e+002 -6.500000e+002 1.538625e+002
    endloop
  endfacet
  facet normal 0.000000e+000 -1.000000e+000 0.000000e+000
    outer loop
      vertex   2.339366e+002 -6.500000e+002 1.538625e+002
      vertex   2.502171e+002 -6.500000e+002 1.256638e+002
      vertex   4.468163e+002 -6.500000e+002 2.243996e+002
    endloop
  endfacet
  facet normal 0.000000e+000 -1.000000e+000 0.000000e+000
    outer loop
      vertex   3.830222e+002 -6.500000e+002 3.213938e+002
      vertex   2.144924e+002 -6.500000e+002 1.799805e+002
      vertex   2.339366e+002 -6.500000e+002 1.538625e+002
    endloop
  endfacet
  facet normal 0.000000e+000 -1.000000e+000 0.000000e+000
    outer loop
      vertex   2.339366e+002 -6.500000e+002 1.538625e+002
      vertex   4.177439e+002 -6.500000e+002 2.747545e+002
      vertex   3.830222e+002 -6.500000e+002 3.213938e+002
    endloop
  endfacet
  facet normal 0.000000e+000 -1.000000e+000 0.000000e+000
    outer loop
      vertex   2.631139e+002 -6.500000e+002 9.576564e+001
      vertex   4.698463e+002 -6.500000e+002 1.710101e+002
      vertex   4.468163e+002 -6.500000e+002 2.243996e+002
    endloop
  endfacet
  facet normal 0.000000e+000 1.000000e+000 0.000000e+000
    outer loop
      vertex   4.468163e+002 6.500000e+002 2.243996e+002
      vertex   2.502171e+002 6.500000e+002 1.256638e+002
      vertex   2.339366e+002 6.500000e+002 1.538625e+002
    endloop
  endfacet
  facet normal 1.118323e-015 1.000000e+000 -1.597080e-015
    outer loop
      vertex   4.468163e+002 6.500000e+002 2.243996e+002
      vertex   4.698463e+002 6.500000e+002 1.710101e+002
      vertex   2.631139e+002 6.500000e+002 9.576564e+001
    endloop
  endfacet
  facet normal 0.000000e+000 1.000000e+000 0.000000e+000
    outer loop
      vertex   3.830222e+002 6.500000e+002 3.213938e+002
      vertex   4.177439e+002 6.500000e+002 2.747545e+002
      vertex   2.339366e+002 6.500000e+002 1.538625e+002
    endloop
  endfacet
  facet normal 0.000000e+000 1.000000e+000 -0.000000e+000
    outer loop
      vertex   2.631139e+002 6.500000e+002 9.576564e+001
      vertex   2.502171e+002 6.500000e+002 1.256638e+002
      vertex   4.468163e+002 6.500000e+002 2.243996e+002
    endloop
  endfacet
  facet normal 0.000000e+000 1.000000e+000 0.000000e+000
    outer loop
      vertex   2.339366e+002 6.500000e+002 1.538625e+002
      vertex   4.177439e+002 6.500000e+002 2.747545e+002
      vertex   4.468163e+002 6.500000e+002 2.243996e+002
    endloop
  endfacet
  facet normal -2.600877e-015 1.000000e+000 2.314513e-015
    outer loop
      vertex   2.339366e+002 6.500000e+002 1.538625e+002
      vertex   2.144924e+002 6.500000e+002 1.799805e+002
      vertex   3.830222e+002 6.500000e+002 3.213938e+002
    endloop
  endfacet
  facet normal -9.579895e-001 0.000000e+000 2.868032e-001
    outer loop
      vertex   2.724526e+002 6.500000e+002 -6.457244e+001
      vertex   2.631139e+002 6.500000e+002 -9.576564e+001
      vertex   2.631139e+002 -6.500000e+002 -9.576564e+001
    endloop
  endfacet
  facet normal -9.848078e-001 0.000000e+000 1.736482e-001
    outer loop
      vertex   2.781067e+002 6.500000e+002 -3.250602e+001
      vertex   2.724526e+002 6.500000e+002 -6.457244e+001
      vertex   2.724526e+002 -6.500000e+002 -6.457244e+001
    endloop
  endfacet
  facet normal -9.983082e-001 0.000000e+000 5.814483e-002
    outer loop
      vertex   2.800000e+002 6.500000e+002 0.000000e+000
      vertex   2.781067e+002 6.500000e+002 -3.250602e+001
      vertex   2.781067e+002 -6.500000e+002 -3.250602e+001
    endloop
  endfacet
  facet normal -9.983082e-001 0.000000e+000 5.814483e-002
    outer loop
      vertex   2.781067e+002 -6.500000e+002 -3.250602e+001
      vertex   2.800000e+002 -6.500000e+002 0.000000e+000
      vertex   2.800000e+002 6.500000e+002 0.000000e+000
    endloop
  endfacet
  facet normal -9.848078e-001 0.000000e+000 1.736482e-001
    outer loop
      vertex   2.724526e+002 -6.500000e+002 -6.457244e+001
      vertex   2.781067e+002 -6.500000e+002 -3.250602e+001
      vertex   2.781067e+002 6.500000e+002 -3.250602e+001
    endloop
  endfacet
  facet normal -9.579895e-001 0.000000e+000 2.868032e-001
    outer loop
      vertex   2.631139e+002 -6.500000e+002 -9.576564e+001
      vertex   2.724526e+002 -6.500000e+002 -6.457244e+001
      vertex   2.724526e+002 6.500000e+002 -6.457244e+001
    endloop
  endfacet
  facet normal 5.566576e-016 -0.000000e+000 1.000000e+000
    outer loop
      vertex   5.000000e+002 -6.500000e+002 -1.224647e-013
      vertex   5.000000e+002 6.500000e+002 -1.224647e-013
      vertex   2.800000e+002 6.500000e+002 0.000000e+000
    endloop
  endfacet
  facet normal 5.566576e-016 0.000000e+000 1.000000e+000
    outer loop
      vertex   2.800000e+002 6.500000e+002 0.000000e+000
      vertex   2.800000e+002 -6.500000e+002 0.000000e+000
      vertex   5.000000e+002 -6.500000e+002 -1.224647e-013
    endloop
  endfacet
  facet normal 9.983082e-001 0.000000e+000 -5.814483e-002
    outer loop
      vertex   5.000000e+002 6.500000e+002 -1.224647e-013
      vertex   5.000000e+002 -6.500000e+002 -1.224647e-013
      vertex   4.966192e+002 -6.500000e+002 -5.804646e+001
    endloop
  endfacet
  facet normal 9.848078e-001 0.000000e+000 -1.736482e-001
    outer loop
      vertex   4.966192e+002 6.500000e+002 -5.804646e+001
      vertex   4.966192e+002 -6.500000e+002 -5.804646e+001
      vertex   4.865224e+002 -6.500000e+002 -1.153079e+002
    endloop
  endfacet
  facet normal 9.579895e-001 0.000000e+000 -2.868032e-001
    outer loop
      vertex   4.865224e+002 6.500000e+002 -1.153079e+002
      vertex   4.865224e+002 -6.500000e+002 -1.153079e+002
      vertex   4.698463e+002 -6.500000e+002 -1.710101e+002
    endloop
  endfacet
  facet normal 9.579895e-001 0.000000e+000 -2.868032e-001
    outer loop
      vertex   4.698463e+002 -6.500000e+002 -1.710101e+002
      vertex   4.698463e+002 6.500000e+002 -1.710101e+002
      vertex   4.865224e+002 6.500000e+002 -1.153079e+002
    endloop
  endfacet
  facet normal 9.848078e-001 0.000000e+000 -1.736482e-001
    outer loop
      vertex   4.865224e+002 -6.500000e+002 -1.153079e+002
      vertex   4.865224e+002 6.500000e+002 -1.153079e+002
      vertex   4.966192e+002 6.500000e+002 -5.804646e+001
    endloop
  endfacet
  facet normal 9.983082e-001 0.000000e+000 -5.814483e-002
    outer loop
      vertex   4.966192e+002 -6.500000e+002 -5.804646e+001
      vertex   4.966192e+002 6.500000e+002 -5.804646e+001
      vertex   5.000000e+002 6.500000e+002 -1.224647e-013
    endloop
  endfacet
  facet normal -3.420201e-001 0.000000e+000 -9.396926e-001
    outer loop
      vertex   2.631139e+002 -6.500000e+002 -9.576564e+001
      vertex   2.631139e+002 6.500000e+002 -9.576564e+001
      vertex   4.698463e+002 6.500000e+002 -1.710101e+002
    endloop
  endfacet
  facet normal -3.420201e-001 -0.000000e+000 -9.396926e-001
    outer loop
      vertex   4.698463e+002 6.500000e+002 -1.710101e+002
      vertex   4.698463e+002 -6.500000e+002 -1.710101e+002
      vertex   2.631139e+002 -6.500000e+002 -9.576564e+001
    endloop
  endfacet
  facet normal -0.000000e+000 -1.000000e+000 0.000000e+000
    outer loop
      vertex   4.966192e+002 -6.500000e+002 -5.804646e+001
      vertex   2.781067e+002 -6.500000e+002 -3.250602e+001
      vertex   2.724526e+002 -6.500000e+002 -6.457244e+001
    endloop
  endfacet
  facet normal -0.000000e+000 -1.000000e+000 0.000000e+000
    outer loop
      vertex   5.000000e+002 -6.500000e+002 -1.224647e-013
      vertex   2.800000e+002 -6.500000e+002 0.000000e+000
      vertex   2.781067e+002 -6.500000e+002 -3.250602e+001
    endloop
  endfacet
  facet normal 0.000000e+000 -1.000000e+000 0.000000e+000
    outer loop
      vertex   4.865224e+002 -6.500000e+002 -1.153079e+002
      vertex   2.724526e+002 -6.500000e+002 -6.457244e+001
      vertex   2.631139e+002 -6.500000e+002 -9.576564e+001
    endloop
  endfacet
  facet normal 0.000000e+000 -1.000000e+000 0.000000e+000
    outer loop
      vertex   2.781067e+002 -6.500000e+002 -3.250602e+001
      vertex   4.966192e+002 -6.500000e+002 -5.804646e+001
      vertex   5.000000e+002 -6.500000e+002 -1.224647e-013
    endloop
  endfacet
  facet normal 0.000000e+000 -1.000000e+000 0.000000e+000
    outer loop
      vertex   2.724526e+002 -6.500000e+002 -6.457244e+001
      vertex   4.865224e+002 -6.500000e+002 -1.153079e+002
      vertex   4.966192e+002 -6.500000e+002 -5.804646e+001
    endloop
  endfacet
  facet normal 0.000000e+000 -1.000000e+000 0.000000e+000
    outer loop
      vertex   2.631139e+002 -6.500000e+002 -9.576564e+001
      vertex   4.698463e+002 -6.500000e+002 -1.710101e+002
      vertex   4.865224e+002 -6.500000e+002 -1.153079e+002
    endloop
  endfacet
  facet normal 0.000000e+000 1.000000e+000 0.000000e+000
    outer loop
      vertex   5.000000e+002 6.500000e+002 -1.224647e-013
      vertex   4.966192e+002 6.500000e+002 -5.804646e+001
      vertex   2.781067e+002 6.500000e+002 -3.250602e+001
    endloop
  endfacet
  facet normal 0.000000e+000 1.000000e+000 0.000000e+000
    outer loop
      vertex   4.966192e+002 6.500000e+002 -5.804646e+001
      vertex   4.865224e+002 6.500000e+002 -1.153079e+002
      vertex   2.724526e+002 6.500000e+002 -6.457244e+001
    endloop
  endfacet
  facet normal 0.000000e+000 1.000000e+000 0.000000e+000
    outer loop
      vertex   2.724526e+002 6.500000e+002 -6.457244e+001
      vertex   2.781067e+002 6.500000e+002 -3.250602e+001
      vertex   4.966192e+002 6.500000e+002 -5.804646e+001
    endloop
  endfacet
  facet normal -1.698977e-016 1.000000e+000 -1.942279e-015
    outer loop
      vertex   4.865224e+002 6.500000e+002 -1.153079e+002
      vertex   4.698463e+002 6.500000e+002 -1.710101e+002
      vertex   2.631139e+002 6.500000e+002 -9.576564e+001
    endloop
  endfacet
  facet normal -0.000000e+000 1.000000e+000 0.000000e+000
    outer loop
      vertex   2.631139e+002 6.500000e+002 -9.576564e+001
      vertex   2.724526e+002 6.500000e+002 -6.457244e+001
      vertex   4.865224e+002 6.500000e+002 -1.153079e+002
    endloop
  endfacet
  facet normal -5.046468e-016 1.000000e+000 3.444831e-015
    outer loop
      vertex   2.781067e+002 6.500000e+002 -3.250602e+001
      vertex   2.800000e+002 6.500000e+002 0.000000e+000
      vertex   5.000000e+002 6.500000e+002 -1.224647e-013
    endloop
  endfacet
  facet normal -5.495090e-001 0.000000e+000 8.354878e-001
    outer loop
      vertex   1.672044e+002 6.500000e+002 -2.245945e+002
      vertex   1.400000e+002 6.500000e+002 -2.424871e+002
      vertex   1.400000e+002 -6.500000e+002 -2.424871e+002
    endloop
  endfacet
  facet normal -6.427876e-001 0.000000e+000 7.660444e-001
    outer loop
      vertex   1.921477e+002 6.500000e+002 -2.036646e+002
      vertex   1.672044e+002 6.500000e+002 -2.245945e+002
      vertex   1.672044e+002 -6.500000e+002 -2.245945e+002
    endloop
  endfacet
  facet normal -7.273736e-001 0.000000e+000 6.862416e-001
    outer loop
      vertex   2.144924e+002 6.500000e+002 -1.799805e+002
      vertex   1.921477e+002 6.500000e+002 -2.036646e+002
      vertex   1.921477e+002 -6.500000e+002 -2.036646e+002
    endloop
  endfacet
  facet normal -7.273736e-001 0.000000e+000 6.862416e-001
    outer loop
      vertex   1.921477e+002 -6.500000e+002 -2.036646e+002
      vertex   2.144924e+002 -6.500000e+002 -1.799805e+002
      vertex   2.144924e+002 6.500000e+002 -1.799805e+002
    endloop
  endfacet
  facet normal -6.427876e-001 0.000000e+000 7.660444e-001
    outer loop
      vertex   1.672044e+002 -6.500000e+002 -2.245945e+002
      vertex   1.921477e+002 -6.500000e+002 -2.036646e+002
      vertex   1.921477e+002 6.500000e+002 -2.036646e+002
    endloop
  endfacet
  facet normal -5.495090e-001 0.000000e+000 8.354878e-001
    outer loop
      vertex   1.400000e+002 -6.500000e+002 -2.424871e+002
      vertex   1.672044e+002 -6.500000e+002 -2.245945e+002
      vertex   1.672044e+002 6.500000e+002 -2.245945e+002
    endloop
  endfacet
  facet normal 6.427876e-001 0.000000e+000 7.660444e-001
    outer loop
      vertex   3.830222e+002 6.500000e+002 -3.213938e+002
      vertex   2.144924e+002 6.500000e+002 -1.799805e+002
      vertex   2.144924e+002 -6.500000e+002 -1.799805e+002
    endloop
  endfacet
  facet normal 6.427876e-001 0.000000e+000 7.660444e-001
    outer loop
      vertex   2.144924e+002 -6.500000e+002 -1.799805e+002
      vertex   3.830222e+002 -6.500000e+002 -3.213938e+002
      vertex   3.830222e+002 6.500000e+002 -3.213938e+002
    endloop
  endfacet
  facet normal 7.273736e-001 0.000000e+000 -6.862416e-001
    outer loop
      vertex   3.830222e+002 6.500000e+002 -3.213938e+002
      vertex   3.830222e+002 -6.500000e+002 -3.213938e+002
      vertex   3.431208e+002 -6.500000e+002 -3.636868e+002
    endloop
  endfacet
  facet normal 6.427876e-001 0.000000e+000 -7.660444e-001
    outer loop
      vertex   3.431208e+002 6.500000e+002 -3.636868e+002
      vertex   3.431208e+002 -6.500000e+002 -3.636868e+002
      vertex   2.985793e+002 -6.500000e+002 -4.010616e+002
    endloop
  endfacet
  facet normal 5.495090e-001 0.000000e+000 -8.354878e-001
    outer loop
      vertex   2.985793e+002 6.500000e+002 -4.010616e+002
      vertex   2.985793e+002 -6.500000e+002 -4.010616e+002
      vertex   2.500000e+002 -6.500000e+002 -4.330127e+002
    endloop
  endfacet
  facet normal 5.495090e-001 0.000000e+000 -8.354878e-001
    outer loop
      vertex   2.500000e+002 -6.500000e+002 -4.330127e+002
      vertex   2.500000e+002 6.500000e+002 -4.330127e+002
      vertex   2.985793e+002 6.500000e+002 -4.010616e+002
    endloop
  endfacet
  facet normal 6.427876e-001 0.000000e+000 -7.660444e-001
    outer loop
      vertex   2.985793e+002 -6.500000e+002 -4.010616e+002
      vertex   2.985793e+002 6.500000e+002 -4.010616e+002
      vertex   3.431208e+002 6.500000e+002 -3.636868e+002
    endloop
  endfacet
  facet normal 7.273736e-001 0.000000e+000 -6.862416e-001
    outer loop
      vertex   3.431208e+002 -6.500000e+002 -3.636868e+002
      vertex   3.431208e+002 6.500000e+002 -3.636868e+002
      vertex   3.830222e+002 6.500000e+002 -3.213938e+002
    endloop
  endfacet
  facet normal -8.660254e-001 0.000000e+000 -5.000000e-001
    outer loop
      vertex   1.400000e+002 6.500000e+002 -2.424871e+002
      vertex   2.500000e+002 6.500000e+002 -4.330127e+002
      vertex   2.500000e+002 -6.500000e+002 -4.330127e+002
    endloop
  endfacet
  facet normal -8.660254e-001 0.000000e+000 -5.000000e-001
    outer loop
      vertex   2.500000e+002 -6.500000e+002 -4.330127e+002
      vertex   1.400000e+002 -6.500000e+002 -2.424871e+002
      vertex   1.400000e+002 6.500000e+002 -2.424871e+002
    endloop
  endfacet
  facet normal 0.000000e+000 -1.000000e+000 0.000000e+000
    outer loop
      vertex   3.431208e+002 -6.500000e+002 -3.636868e+002
      vertex   1.921477e+002 -6.500000e+002 -2.036646e+002
      vertex   1.672044e+002 -6.500000e+002 -2.245945e+002
    endloop
  endfacet
  facet normal 0.000000e+000 -1.000000e+000 0.000000e+000
    outer loop
      vertex   3.431208e+002 -6.500000e+002 -3.636868e+002
      vertex   3.830222e+002 -6.500000e+002 -3.213938e+002
      vertex   2.144924e+002 -6.500000e+002 -1.799805e+002
    endloop
  endfacet
  facet normal 0.000000e+000 -1.000000e+000 0.000000e+000
    outer loop
      vertex   2.985793e+002 -6.500000e+002 -4.010616e+002
      vertex   1.672044e+002 -6.500000e+002 -2.245945e+002
      vertex   1.400000e+002 -6.500000e+002 -2.424871e+002
    endloop
  endfacet
  facet normal 0.000000e+000 -1.000000e+000 -0.000000e+000
    outer loop
      vertex   2.144924e+002 -6.500000e+002 -1.799805e+002
      vertex   1.921477e+002 -6.500000e+002 -2.036646e+002
      vertex   3.431208e+002 -6.500000e+002 -3.636868e+002
    endloop
  endfacet
  facet normal 0.000000e+000 -1.000000e+000 0.000000e+000
    outer loop
      vertex   1.672044e+002 -6.500000e+002 -2.245945e+002
      vertex   2.985793e+002 -6.500000e+002 -4.010616e+002
      vertex   3.431208e+002 -6.500000e+002 -3.636868e+002
    endloop
  endfacet
  facet normal 0.000000e+000 -1.000000e+000 0.000000e+000
    outer loop
      vertex   1.400000e+002 -6.500000e+002 -2.424871e+002
      vertex   2.500000e+002 -6.500000e+002 -4.330127e+002
      vertex   2.985793e+002 -6.500000e+002 -4.010616e+002
    endloop
  endfacet
  facet normal 2.484300e-015 1.000000e+000 2.343816e-015
    outer loop
      vertex   3.431208e+002 6.500000e+002 -3.636868e+002
      vertex   1.921477e+002 6.500000e+002 -2.036646e+002
      vertex   2.144924e+002 6.500000e+002 -1.799805e+002
    endloop
  endfacet
  facet normal 0.000000e+000 1.000000e+000 0.000000e+000
    outer loop
      vertex   3.431208e+002 6.500000e+002 -3.636868e+002
      vertex   2.985793e+002 6.500000e+002 -4.010616e+002
      vertex   1.672044e+002 6.500000e+002 -2.245945e+002
    endloop
  endfacet
  facet normal -0.000000e+000 1.000000e+000 0.000000e+000
    outer loop
      vertex   1.672044e+002 6.500000e+002 -2.245945e+002
      vertex   1.921477e+002 6.500000e+002 -2.036646e+002
      vertex   3.431208e+002 6.500000e+002 -3.636868e+002
    endloop
  endfacet
  facet normal -1.378622e-015 1.000000e+000 -1.378664e-015
    outer loop
      vertex   2.985793e+002 6.500000e+002 -4.010616e+002
      vertex   2.500000e+002 6.500000e+002 -4.330127e+002
      vertex   1.400000e+002 6.500000e+002 -2.424871e+002
    endloop
  endfacet
  facet normal -0.000000e+000 1.000000e+000 0.000000e+000
    outer loop
      vertex   1.400000e+002 6.500000e+002 -2.424871e+002
      vertex   1.672044e+002 6.500000e+002 -2.245945e+002
      vertex   2.985793e+002 6.500000e+002 -4.010616e+002
    endloop
  endfacet
  facet normal -3.676889e-016 1.000000e+000 3.468966e-016
    outer loop
      vertex   2.144924e+002 6.500000e+002 -1.799805e+002
      vertex   3.830222e+002 6.500000e+002 -3.213938e+002
      vertex   3.431208e+002 6.500000e+002 -3.636868e+002
    endloop
  endfacet
  facet normal 1.160929e-001 0.000000e+000 9.932384e-001
    outer loop
      vertex   -1.628055e+001 6.500000e+002 -2.795263e+002
      vertex   -4.862149e+001 6.500000e+002 -2.757462e+002
      vertex   -4.862149e+001 -6.500000e+002 -2.757462e+002
    endloop
  endfacet
  facet normal -1.704830e-015 0.000000e+000 1.000000e+000
    outer loop
      vertex   1.628055e+001 6.500000e+002 -2.795263e+002
      vertex   -1.628055e+001 6.500000e+002 -2.795263e+002
      vertex   -1.628055e+001 -6.500000e+002 -2.795263e+002
    endloop
  endfacet
  facet normal -1.160929e-001 0.000000e+000 9.932384e-001
    outer loop
      vertex   4.862149e+001 6.500000e+002 -2.757462e+002
      vertex   1.628055e+001 6.500000e+002 -2.795263e+002
      vertex   1.628055e+001 -6.500000e+002 -2.795263e+002
    endloop
  endfacet
  facet normal -1.160929e-001 0.000000e+000 9.932384e-001
    outer loop
      vertex   1.628055e+001 -6.500000e+002 -2.795263e+002
      vertex   4.862149e+001 -6.500000e+002 -2.757462e+002
      vertex   4.862149e+001 6.500000e+002 -2.757462e+002
    endloop
  endfacet
  facet normal -1.704830e-015 0.000000e+000 1.000000e+000
    outer loop
      vertex   -1.628055e+001 -6.500000e+002 -2.795263e+002
      vertex   1.628055e+001 -6.500000e+002 -2.795263e+002
      vertex   1.628055e+001 6.500000e+002 -2.795263e+002
    endloop
  endfacet
  facet normal 1.160929e-001 0.000000e+000 9.932384e-001
    outer loop
      vertex   -4.862149e+001 -6.500000e+002 -2.757462e+002
      vertex   -1.628055e+001 -6.500000e+002 -2.795263e+002
      vertex   -1.628055e+001 6.500000e+002 -2.795263e+002
    endloop
  endfacet
  facet normal 9.848078e-001 -0.000000e+000 1.736482e-001
    outer loop
      vertex   8.682409e+001 -6.500000e+002 -4.924039e+002
      vertex   8.682409e+001 6.500000e+002 -4.924039e+002
      vertex   4.862149e+001 6.500000e+002 -2.757462e+002
    endloop
  endfacet
  facet normal 9.848078e-001 0.000000e+000 1.736482e-001
    outer loop
      vertex   4.862149e+001 6.500000e+002 -2.757462e+002
      vertex   4.862149e+001 -6.500000e+002 -2.757462e+002
      vertex   8.682409e+001 -6.500000e+002 -4.924039e+002
    endloop
  endfacet
  facet normal 1.160929e-001 0.000000e+000 -9.932384e-001
    outer loop
      vertex   8.682409e+001 6.500000e+002 -4.924039e+002
      vertex   8.682409e+001 -6.500000e+002 -4.924039e+002
      vertex   2.907241e+001 -6.500000e+002 -4.991541e+002
    endloop
  endfacet
  facet normal 9.547049e-016 0.000000e+000 -1.000000e+000
    outer loop
      vertex   2.907241e+001 6.500000e+002 -4.991541e+002
      vertex   2.907241e+001 -6.500000e+002 -4.991541e+002
      vertex   -2.907241e+001 -6.500000e+002 -4.991541e+002
    endloop
  endfacet
  facet normal -1.160929e-001 -0.000000e+000 -9.932384e-001
    outer loop
      vertex   -2.907241e+001 6.500000e+002 -4.991541e+002
      vertex   -2.907241e+001 -6.500000e+002 -4.991541e+002
      vertex   -8.682409e+001 -6.500000e+002 -4.924039e+002
    endloop
  endfacet
  facet normal -1.160929e-001 0.000000e+000 -9.932384e-001
    outer loop
      vertex   -8.682409e+001 -6.500000e+002 -4.924039e+002
      vertex   -8.682409e+001 6.500000e+002 -4.924039e+002
      vertex   -2.907241e+001 6.500000e+002 -4.991541e+002
    endloop
  endfacet
  facet normal 9.547049e-016 0.000000e+000 -1.000000e+000
    outer loop
      vertex   -2.907241e+001 -6.500000e+002 -4.991541e+002
      vertex   -2.907241e+001 6.500000e+002 -4.991541e+002
      vertex   2.907241e+001 6.500000e+002 -4.991541e+002
    endloop
  endfacet
  facet normal 1.160929e-001 0.000000e+000 -9.932384e-001
    outer loop
      vertex   2.907241e+001 -6.500000e+002 -4.991541e+002
      vertex   2.907241e+001 6.500000e+002 -4.991541e+002
      vertex   8.682409e+001 6.500000e+002 -4.924039e+002
    endloop
  endfacet
  facet normal -9.848078e-001 0.000000e+000 1.736482e-001
    outer loop
      vertex   -4.862149e+001 -6.500000e+002 -2.757462e+002
      vertex   -4.862149e+001 6.500000e+002 -2.757462e+002
      vertex   -8.682409e+001 6.500000e+002 -4.924039e+002
    endloop
  endfacet
  facet normal -9.848078e-001 0.000000e+000 1.736482e-001
    outer loop
      vertex   -8.682409e+001 6.500000e+002 -4.924039e+002
      vertex   -8.682409e+001 -6.500000e+002 -4.924039e+002
      vertex   -4.862149e+001 -6.500000e+002 -2.757462e+002
    endloop
  endfacet
  facet normal 0.000000e+000 -1.000000e+000 0.000000e+000
    outer loop
      vertex   2.907241e+001 -6.500000e+002 -4.991541e+002
      vertex   1.628055e+001 -6.500000e+002 -2.795263e+002
      vertex   -1.628055e+001 -6.500000e+002 -2.795263e+002
    endloop
  endfacet
  facet normal 0.000000e+000 -1.000000e+000 0.000000e+000
    outer loop
      vertex   8.682409e+001 -6.500000e+002 -4.924039e+002
      vertex   4.862149e+001 -6.500000e+002 -2.757462e+002
      vertex   1.628055e+001 -6.500000e+002 -2.795263e+002
    endloop
  endfacet
  facet normal 0.000000e+000 -1.000000e+000 0.000000e+000
    outer loop
      vertex   -8.682409e+001 -6.500000e+002 -4.924039e+002
      vertex   -2.907241e+001 -6.500000e+002 -4.991541e+002
      vertex   -1.628055e+001 -6.500000e+002 -2.795263e+002
    endloop
  endfacet
  facet normal 0.000000e+000 -1.000000e+000 0.000000e+000
    outer loop
      vertex   1.628055e+001 -6.500000e+002 -2.795263e+002
      vertex   2.907241e+001 -6.500000e+002 -4.991541e+002
      vertex   8.682409e+001 -6.500000e+002 -4.924039e+002
    endloop
  endfacet
  facet normal 0.000000e+000 -1.000000e+000 -0.000000e+000
    outer loop
      vertex   -1.628055e+001 -6.500000e+002 -2.795263e+002
      vertex   -2.907241e+001 -6.500000e+002 -4.991541e+002
      vertex   2.907241e+001 -6.500000e+002 -4.991541e+002
    endloop
  endfacet
  facet normal -0.000000e+000 -1.000000e+000 0.000000e+000
    outer loop
      vertex   -1.628055e+001 -6.500000e+002 -2.795263e+002
      vertex   -4.862149e+001 -6.500000e+002 -2.757462e+002
      vertex   -8.682409e+001 -6.500000e+002 -4.924039e+002
    endloop
  endfacet
  facet normal 0.000000e+000 1.000000e+000 0.000000e+000
    outer loop
      vertex   8.682409e+001 6.500000e+002 -4.924039e+002
      vertex   2.907241e+001 6.500000e+002 -4.991541e+002
      vertex   1.628055e+001 6.500000e+002 -2.795263e+002
    endloop
  endfacet
  facet normal 0.000000e+000 1.000000e+000 0.000000e+000
    outer loop
      vertex   2.907241e+001 6.500000e+002 -4.991541e+002
      vertex   -2.907241e+001 6.500000e+002 -4.991541e+002
      vertex   -1.628055e+001 6.500000e+002 -2.795263e+002
    endloop
  endfacet
  facet normal -0.000000e+000 1.000000e+000 0.000000e+000
    outer loop
      vertex   -1.628055e+001 6.500000e+002 -2.795263e+002
      vertex   1.628055e+001 6.500000e+002 -2.795263e+002
      vertex   2.907241e+001 6.500000e+002 -4.991541e+002
    endloop
  endfacet
  facet normal -5.868521e-017 1.000000e+000 -5.020840e-016
    outer loop
      vertex   -8.682409e+001 6.500000e+002 -4.924039e+002
      vertex   -4.862149e+001 6.500000e+002 -2.757462e+002
      vertex   -1.628055e+001 6.500000e+002 -2.795263e+002
    endloop
  endfacet
  facet normal -1.909410e-015 1.000000e+000 1.112105e-016
    outer loop
      vertex   -1.628055e+001 6.500000e+002 -2.795263e+002
      vertex   -2.907241e+001 6.500000e+002 -4.991541e+002
      vertex   -8.682409e+001 6.500000e+002 -4.924039e+002
    endloop
  endfacet
  facet normal 3.304865e-015 1.000000e+000 1.095169e-015
    outer loop
      vertex   1.628055e+001 6.500000e+002 -2.795263e+002
      vertex   4.862149e+001 6.500000e+002 -2.757462e+002
      vertex   8.682409e+001 6.500000e+002 -4.924039e+002
    endloop
  endfacet
  facet normal 7.273736e-001 0.000000e+000 6.862416e-001
    outer loop
      vertex   -1.921477e+002 6.500000e+002 -2.036646e+002
      vertex   -2.144924e+002 6.500000e+002 -1.799805e+002
      vertex   -2.144924e+002 -6.500000e+002 -1.799805e+002
    endloop
  endfacet
  facet normal 6.427876e-001 0.000000e+000 7.660444e-001
    outer loop
      vertex   -1.672044e+002 6.500000e+002 -2.245945e+002
      vertex   -1.921477e+002 6.500000e+002 -2.036646e+002
      vertex   -1.921477e+002 -6.500000e+002 -2.036646e+002
    endloop
  endfacet
  facet normal 5.495090e-001 0.000000e+000 8.354878e-001
    outer loop
      vertex   -1.400000e+002 6.500000e+002 -2.424871e+002
      vertex   -1.672044e+002 6.500000e+002 -2.245945e+002
      vertex   -1.672044e+002 -6.500000e+002 -2.245945e+002
    endloop
  endfacet
  facet normal 5.495090e-001 0.000000e+000 8.354878e-001
    outer loop
      vertex   -1.672044e+002 -6.500000e+002 -2.245945e+002
      vertex   -1.400000e+002 -6.500000e+002 -2.424871e+002
      vertex   -1.400000e+002 6.500000e+002 -2.424871e+002
    endloop
  endfacet
  facet normal 6.427876e-001 0.000000e+000 7.660444e-001
    outer loop
      vertex   -1.921477e+002 -6.500000e+002 -2.036646e+002
      vertex   -1.672044e+002 -6.500000e+002 -2.245945e+002
      vertex   -1.672044e+002 6.500000e+002 -2.245945e+002
    endloop
  endfacet
  facet normal 7.273736e-001 0.000000e+000 6.862416e-001
    outer loop
      vertex   -2.144924e+002 -6.500000e+002 -1.799805e+002
      vertex   -1.921477e+002 -6.500000e+002 -2.036646e+002
      vertex   -1.921477e+002 6.500000e+002 -2.036646e+002
    endloop
  endfacet
  facet normal 8.660254e-001 0.000000e+000 -5.000000e-001
    outer loop
      vertex   -2.500000e+002 -6.500000e+002 -4.330127e+002
      vertex   -2.500000e+002 6.500000e+002 -4.330127e+002
      vertex   -1.400000e+002 6.500000e+002 -2.424871e+002
    endloop
  endfacet
  facet normal 8.660254e-001 0.000000e+000 -5.000000e-001
    outer loop
      vertex   -1.400000e+002 6.500000e+002 -2.424871e+002
      vertex   -1.400000e+002 -6.500000e+002 -2.424871e+002
      vertex   -2.500000e+002 -6.500000e+002 -4.330127e+002
    endloop
  endfacet
  facet normal -5.495090e-001 -0.000000e+000 -8.354878e-001
    outer loop
      vertex   -2.500000e+002 6.500000e+002 -4.330127e+002
      vertex   -2.500000e+002 -6.500000e+002 -4.330127e+002
      vertex   -2.985793e+002 -6.500000e+002 -4.010616e+002
    endloop
  endfacet
  facet normal -6.427876e-001 -0.000000e+000 -7.660444e-001
    outer loop
      vertex   -2.985793e+002 6.500000e+002 -4.010616e+002
      vertex   -2.985793e+002 -6.500000e+002 -4.010616e+002
      vertex   -3.431208e+002 -6.500000e+002 -3.636868e+002
    endloop
  endfacet
  facet normal -7.273736e-001 -0.000000e+000 -6.862416e-001
    outer loop
      vertex   -3.431208e+002 6.500000e+002 -3.636868e+002
      vertex   -3.431208e+002 -6.500000e+002 -3.636868e+002
      vertex   -3.830222e+002 -6.500000e+002 -3.213938e+002
    endloop
  endfacet
  facet normal -7.273736e-001 0.000000e+000 -6.862416e-001
    outer loop
      vertex   -3.830222e+002 -6.500000e+002 -3.213938e+002
      vertex   -3.830222e+002 6.500000e+002 -3.213938e+002
      vertex   -3.431208e+002 6.500000e+002 -3.636868e+002
    endloop
  endfacet
  facet normal -6.427876e-001 0.000000e+000 -7.660444e-001
    outer loop
      vertex   -3.431208e+002 -6.500000e+002 -3.636868e+002
      vertex   -3.431208e+002 6.500000e+002 -3.636868e+002
      vertex   -2.985793e+002 6.500000e+002 -4.010616e+002
    endloop
  endfacet
  facet normal -5.495090e-001 0.000000e+000 -8.354878e-001
    outer loop
      vertex   -2.985793e+002 -6.500000e+002 -4.010616e+002
      vertex   -2.985793e+002 6.500000e+002 -4.010616e+002
      vertex   -2.500000e+002 6.500000e+002 -4.330127e+002
    endloop
  endfacet
  facet normal -6.427876e-001 0.000000e+000 7.660444e-001
    outer loop
      vertex   -2.144924e+002 -6.500000e+002 -1.799805e+002
      vertex   -2.144924e+002 6.500000e+002 -1.799805e+002
      vertex   -3.830222e+002 6.500000e+002 -3.213938e+002
    endloop
  endfacet
  facet normal -6.427876e-001 0.000000e+000 7.660444e-001
    outer loop
      vertex   -3.830222e+002 6.500000e+002 -3.213938e+002
      vertex   -3.830222e+002 -6.500000e+002 -3.213938e+002
      vertex   -2.144924e+002 -6.500000e+002 -1.799805e+002
    endloop
  endfacet
  facet normal 0.000000e+000 -1.000000e+000 0.000000e+000
    outer loop
      vertex   -3.431208e+002 -6.500000e+002 -3.636868e+002
      vertex   -1.921477e+002 -6.500000e+002 -2.036646e+002
      vertex   -2.144924e+002 -6.500000e+002 -1.799805e+002
    endloop
  endfacet
  facet normal 0.000000e+000 -1.000000e+000 0.000000e+000
    outer loop
      vertex   -2.985793e+002 -6.500000e+002 -4.010616e+002
      vertex   -1.672044e+002 -6.500000e+002 -2.245945e+002
      vertex   -1.921477e+002 -6.500000e+002 -2.036646e+002
    endloop
  endfacet
  facet normal 0.000000e+000 -1.000000e+000 0.000000e+000
    outer loop
      vertex   -1.921477e+002 -6.500000e+002 -2.036646e+002
      vertex   -3.431208e+002 -6.500000e+002 -3.636868e+002
      vertex   -2.985793e+002 -6.500000e+002 -4.010616e+002
    endloop
  endfacet
  facet normal 0.000000e+000 -1.000000e+000 0.000000e+000
    outer loop
      vertex   -2.500000e+002 -6.500000e+002 -4.330127e+002
      vertex   -1.400000e+002 -6.500000e+002 -2.424871e+002
      vertex   -1.672044e+002 -6.500000e+002 -2.245945e+002
    endloop
  endfacet
  facet normal 0.000000e+000 -1.000000e+000 0.000000e+000
    outer loop
      vertex   -1.672044e+002 -6.500000e+002 -2.245945e+002
      vertex   -2.985793e+002 -6.500000e+002 -4.010616e+002
      vertex   -2.500000e+002 -6.500000e+002 -4.330127e+002
    endloop
  endfacet
  facet normal 0.000000e+000 -1.000000e+000 0.000000e+000
    outer loop
      vertex   -2.144924e+002 -6.500000e+002 -1.799805e+002
      vertex   -3.830222e+002 -6.500000e+002 -3.213938e+002
      vertex   -3.431208e+002 -6.500000e+002 -3.636868e+002
    endloop
  endfacet
  facet normal 0.000000e+000 1.000000e+000 -0.000000e+000
    outer loop
      vertex   -2.985793e+002 6.500000e+002 -4.010616e+002
      vertex   -3.431208e+002 6.500000e+002 -3.636868e+002
      vertex   -1.921477e+002 6.500000e+002 -2.036646e+002
    endloop
  endfacet
  facet normal -1.597114e-015 1.000000e+000 1.118275e-015
    outer loop
      vertex   -3.431208e+002 6.500000e+002 -3.636868e+002
      vertex   -3.830222e+002 6.500000e+002 -3.213938e+002
      vertex   -2.144924e+002 6.500000e+002 -1.799805e+002
    endloop
  endfacet
  facet normal 1.534177e-015 1.000000e+000 -1.142153e-015
    outer loop
      vertex   -2.500000e+002 6.500000e+002 -4.330127e+002
      vertex   -2.985793e+002 6.500000e+002 -4.010616e+002
      vertex   -1.672044e+002 6.500000e+002 -2.245945e+002
    endloop
  endfacet
  facet normal 0.000000e+000 1.000000e+000 0.000000e+000
    outer loop
      vertex   -2.144924e+002 6.500000e+002 -1.799805e+002
      vertex   -1.921477e+002 6.500000e+002 -2.036646e+002
      vertex   -3.431208e+002 6.500000e+002 -3.636868e+002
    endloop
  endfacet
  facet normal 0.000000e+000 1.000000e+000 0.000000e+000
    outer loop
      vertex   -1.921477e+002 6.500000e+002 -2.036646e+002
      vertex   -1.672044e+002 6.500000e+002 -2.245945e+002
      vertex   -2.985793e+002 6.500000e+002 -4.010616e+002
    endloop
  endfacet
  facet normal 2.957857e-015 1.000000e+000 -1.707719e-015
    outer loop
      vertex   -1.672044e+002 6.500000e+002 -2.245945e+002
      vertex   -1.400000e+002 6.500000e+002 -2.424871e+002
      vertex   -2.500000e+002 6.500000e+002 -4.330127e+002
    endloop
  endfacet
  facet normal 9.983082e-001 0.000000e+000 5.814483e-002
    outer loop
      vertex   -2.781067e+002 6.500000e+002 -3.250602e+001
      vertex   -2.800000e+002 6.500000e+002 -6.217249e-014
      vertex   -2.800000e+002 -6.500000e+002 -6.217249e-014
    endloop
  endfacet
  facet normal 9.848078e-001 0.000000e+000 1.736482e-001
    outer loop
      vertex   -2.724526e+002 6.500000e+002 -6.457244e+001
      vertex   -2.781067e+002 6.500000e+002 -3.250602e+001
      vertex   -2.781067e+002 -6.500000e+002 -3.250602e+001
    endloop
  endfacet
  facet normal 9.579895e-001 0.000000e+000 2.868032e-001
    outer loop
      vertex   -2.631139e+002 6.500000e+002 -9.576564e+001
      vertex   -2.724526e+002 6.500000e+002 -6.457244e+001
      vertex   -2.724526e+002 -6.500000e+002 -6.457244e+001
    endloop
  endfacet
  facet normal 9.579895e-001 0.000000e+000 2.868032e-001
    outer loop
      vertex   -2.724526e+002 -6.500000e+002 -6.457244e+001
      vertex   -2.631139e+002 -6.500000e+002 -9.576564e+001
      vertex   -2.631139e+002 6.500000e+002 -9.576564e+001
    endloop
  endfacet
  facet normal 9.848078e-001 0.000000e+000 1.736482e-001
    outer loop
      vertex   -2.781067e+002 -6.500000e+002 -3.250602e+001
      vertex   -2.724526e+002 -6.500000e+002 -6.457244e+001
      vertex   -2.724526e+002 6.500000e+002 -6.457244e+001
    endloop
  endfacet
  facet normal 9.983082e-001 0.000000e+000 5.814483e-002
    outer loop
      vertex   -2.800000e+002 -6.500000e+002 -6.217249e-014
      vertex   -2.781067e+002 -6.500000e+002 -3.250602e+001
      vertex   -2.781067e+002 6.500000e+002 -3.250602e+001
    endloop
  endfacet
  facet normal 3.420201e-001 0.000000e+000 -9.396926e-001
    outer loop
      vertex   -4.698463e+002 -6.500000e+002 -1.710101e+002
      vertex   -4.698463e+002 6.500000e+002 -1.710101e+002
      vertex   -2.631139e+002 6.500000e+002 -9.576564e+001
    endloop
  endfacet
  facet normal 3.420201e-001 0.000000e+000 -9.396926e-001
    outer loop
      vertex   -2.631139e+002 6.500000e+002 -9.576564e+001
      vertex   -2.631139e+002 -6.500000e+002 -9.576564e+001
      vertex   -4.698463e+002 -6.500000e+002 -1.710101e+002
    endloop
  endfacet
  facet normal -9.579895e-001 -0.000000e+000 -2.868032e-001
    outer loop
      vertex   -4.698463e+002 6.500000e+002 -1.710101e+002
      vertex   -4.698463e+002 -6.500000e+002 -1.710101e+002
      vertex   -4.865224e+002 -6.500000e+002 -1.153079e+002
    endloop
  endfacet
  facet normal -9.848078e-001 -0.000000e+000 -1.736482e-001
    outer loop
      vertex   -4.865224e+002 6.500000e+002 -1.153079e+002
      vertex   -4.865224e+002 -6.500000e+002 -1.153079e+002
      vertex   -4.966192e+002 -6.500000e+002 -5.804646e+001
    endloop
  endfacet
  facet normal -9.983082e-001 -0.000000e+000 -5.814483e-002
    outer loop
      vertex   -4.966192e+002 6.500000e+002 -5.804646e+001
      vertex   -4.966192e+002 -6.500000e+002 -5.804646e+001
      vertex   -5.000000e+002 -6.500000e+002 -6.123234e-014
    endloop
  endfacet
  facet normal -9.983082e-001 0.000000e+000 -5.814483e-002
    outer loop
      vertex   -5.000000e+002 -6.500000e+002 -6.123234e-014
      vertex   -5.000000e+002 6.500000e+002 -6.123234e-014
      vertex   -4.966192e+002 6.500000e+002 -5.804646e+001
    endloop
  endfacet
  facet normal -9.848078e-001 0.000000e+000 -1.736482e-001
    outer loop
      vertex   -4.966192e+002 -6.500000e+002 -5.804646e+001
      vertex   -4.966192e+002 6.500000e+002 -5.804646e+001
      vertex   -4.865224e+002 6.500000e+002 -1.153079e+002
    endloop
  endfacet
  facet normal -9.579895e-001 0.000000e+000 -2.868032e-001
    outer loop
      vertex   -4.865224e+002 -6.500000e+002 -1.153079e+002
      vertex   -4.865224e+002 6.500000e+002 -1.153079e+002
      vertex   -4.698463e+002 6.500000e+002 -1.710101e+002
    endloop
  endfacet
  facet normal 4.273406e-018 -0.000000e+000 1.000000e+000
    outer loop
      vertex   -2.800000e+002 -6.500000e+002 -6.217249e-014
      vertex   -2.800000e+002 6.500000e+002 -6.217249e-014
      vertex   -5.000000e+002 6.500000e+002 -6.123234e-014
    endloop
  endfacet
  facet normal 4.273406e-018 0.000000e+000 1.000000e+000
    outer loop
      vertex   -5.000000e+002 6.500000e+002 -6.123234e-014
      vertex   -5.000000e+002 -6.500000e+002 -6.123234e-014
      vertex   -2.800000e+002 -6.500000e+002 -6.217249e-014
    endloop
  endfacet
  facet normal 0.000000e+000 -1.000000e+000 0.000000e+000
    outer loop
      vertex   -4.865224e+002 -6.500000e+002 -1.153079e+002
      vertex   -2.724526e+002 -6.500000e+002 -6.457244e+001
      vertex   -2.781067e+002 -6.500000e+002 -3.250602e+001
    endloop
  endfacet
  facet normal 0.000000e+000 -1.000000e+000 0.000000e+000
    outer loop
      vertex   -4.698463e+002 -6.500000e+002 -1.710101e+002
      vertex   -2.631139e+002 -6.500000e+002 -9.576564e+001
      vertex   -2.724526e+002 -6.500000e+002 -6.457244e+001
    endloop
  endfacet
  facet normal 0.000000e+000 -1.000000e+000 0.000000e+000
    outer loop
      vertex   -5.000000e+002 -6.500000e+002 -6.123234e-014
      vertex   -4.966192e+002 -6.500000e+002 -5.804646e+001
      vertex   -2.781067e+002 -6.500000e+002 -3.250602e+001
    endloop
  endfacet
  facet normal 0.000000e+000 -1.000000e+000 0.000000e+000
    outer loop
      vertex   -2.724526e+002 -6.500000e+002 -6.457244e+001
      vertex   -4.865224e+002 -6.500000e+002 -1.153079e+002
      vertex   -4.698463e+002 -6.500000e+002 -1.710101e+002
    endloop
  endfacet
  facet normal 0.000000e+000 -1.000000e+000 0.000000e+000
    outer loop
      vertex   -2.781067e+002 -6.500000e+002 -3.250602e+001
      vertex   -4.966192e+002 -6.500000e+002 -5.804646e+001
      vertex   -4.865224e+002 -6.500000e+002 -1.153079e+002
    endloop
  endfacet
  facet normal 0.000000e+000 -1.000000e+000 0.000000e+000
    outer loop
      vertex   -2.781067e+002 -6.500000e+002 -3.250602e+001
      vertex   -2.800000e+002 -6.500000e+002 -6.217249e-014
      vertex   -5.000000e+002 -6.500000e+002 -6.123234e-014
    endloop
  endfacet
  facet normal 0.000000e+000 1.000000e+000 -0.000000e+000
    outer loop
      vertex   -4.698463e+002 6.500000e+002 -1.710101e+002
      vertex   -4.865224e+002 6.500000e+002 -1.153079e+002
      vertex   -2.724526e+002 6.500000e+002 -6.457244e+001
    endloop
  endfacet
  facet normal 0.000000e+000 1.000000e+000 -0.000000e+000
    outer loop
      vertex   -4.865224e+002 6.500000e+002 -1.153079e+002
      vertex   -4.966192e+002 6.500000e+002 -5.804646e+001
      vertex   -2.781067e+002 6.500000e+002 -3.250602e+001
    endloop
  endfacet
  facet normal 0.000000e+000 1.000000e+000 0.000000e+000
    outer loop
      vertex   -2.781067e+002 6.500000e+002 -3.250602e+001
      vertex   -2.724526e+002 6.500000e+002 -6.457244e+001
      vertex   -4.865224e+002 6.500000e+002 -1.153079e+002
    endloop
  endfacet
  facet normal -5.046468e-016 1.000000e+000 -2.939233e-017
    outer loop
      vertex   -5.000000e+002 6.500000e+002 -6.123234e-014
      vertex   -2.800000e+002 6.500000e+002 -6.217249e-014
      vertex   -2.781067e+002 6.500000e+002 -3.250602e+001
    endloop
  endfacet
  facet normal -2.220446e-016 1.000000e+000 1.899713e-015
    outer loop
      vertex   -2.781067e+002 6.500000e+002 -3.250602e+001
      vertex   -4.966192e+002 6.500000e+002 -5.804646e+001
      vertex   -5.000000e+002 6.500000e+002 -6.123234e-014
    endloop
  endfacet
  facet normal 1.652414e-015 1.000000e+000 -3.064483e-015
    outer loop
      vertex   -2.724526e+002 6.500000e+002 -6.457244e+001
      vertex   -2.631139e+002 6.500000e+002 -9.576564e+001
      vertex   -4.698463e+002 6.500000e+002 -1.710101e+002
    endloop
  endfacet
  facet normal 2.306159e-001 0.000000e+000 -9.730449e-001
    outer loop
      vertex   -8.030491e+001 6.500000e+002 2.682371e+002
      vertex   -4.862149e+001 6.500000e+002 2.757462e+002
      vertex   -4.862149e+001 -6.500000e+002 2.757462e+002
    endloop
  endfacet
  facet normal 3.420201e-001 0.000000e+000 -9.396926e-001
    outer loop
      vertex   -1.109023e+002 6.500000e+002 2.571005e+002
      vertex   -8.030491e+001 6.500000e+002 2.682371e+002
      vertex   -8.030491e+001 -6.500000e+002 2.682371e+002
    endloop
  endfacet
  facet normal 4.487992e-001 0.000000e+000 -8.936326e-001
    outer loop
      vertex   -1.400000e+002 6.500000e+002 2.424871e+002
      vertex   -1.109023e+002 6.500000e+002 2.571005e+002
      vertex   -1.109023e+002 -6.500000e+002 2.571005e+002
    endloop
  endfacet
  facet normal 4.487992e-001 0.000000e+000 -8.936326e-001
    outer loop
      vertex   -1.109023e+002 -6.500000e+002 2.571005e+002
      vertex   -1.400000e+002 -6.500000e+002 2.424871e+002
      vertex   -1.400000e+002 6.500000e+002 2.424871e+002
    endloop
  endfacet
  facet normal 3.420201e-001 0.000000e+000 -9.396926e-001
    outer loop
      vertex   -8.030491e+001 -6.500000e+002 2.682371e+002
      vertex   -1.109023e+002 -6.500000e+002 2.571005e+002
      vertex   -1.109023e+002 6.500000e+002 2.571005e+002
    endloop
  endfacet
  facet normal 2.306159e-001 0.000000e+000 -9.730449e-001
    outer loop
      vertex   -4.862149e+001 -6.500000e+002 2.757462e+002
      vertex   -8.030491e+001 -6.500000e+002 2.682371e+002
      vertex   -8.030491e+001 6.500000e+002 2.682371e+002
    endloop
  endfacet
  facet normal 9.848078e-001 -0.000000e+000 1.736482e-001
    outer loop
      vertex   -4.862149e+001 -6.500000e+002 2.757462e+002
      vertex   -4.862149e+001 6.500000e+002 2.757462e+002
      vertex   -8.682409e+001 6.500000e+002 4.924039e+002
    endloop
  endfacet
  facet normal 9.848078e-001 0.000000e+000 1.736482e-001
    outer loop
      vertex   -8.682409e+001 6.500000e+002 4.924039e+002
      vertex   -8.682409e+001 -6.500000e+002 4.924039e+002
      vertex   -4.862149e+001 -6.500000e+002 2.757462e+002
    endloop
  endfacet
  facet normal -4.487992e-001 0.000000e+000 8.936326e-001
    outer loop
      vertex   -2.500000e+002 6.500000e+002 4.330127e+002
      vertex   -2.500000e+002 -6.500000e+002 4.330127e+002
      vertex   -1.980399e+002 -6.500000e+002 4.591081e+002
    endloop
  endfacet
  facet normal -3.420201e-001 0.000000e+000 9.396926e-001
    outer loop
      vertex   -1.980399e+002 6.500000e+002 4.591081e+002
      vertex   -1.980399e+002 -6.500000e+002 4.591081e+002
      vertex   -1.434016e+002 -6.500000e+002 4.789948e+002
    endloop
  endfacet
  facet normal -2.306159e-001 0.000000e+000 9.730449e-001
    outer loop
      vertex   -1.434016e+002 6.500000e+002 4.789948e+002
      vertex   -1.434016e+002 -6.500000e+002 4.789948e+002
      vertex   -8.682409e+001 -6.500000e+002 4.924039e+002
    endloop
  endfacet
  facet normal -2.306159e-001 0.000000e+000 9.730449e-001
    outer loop
      vertex   -8.682409e+001 -6.500000e+002 4.924039e+002
      vertex   -8.682409e+001 6.500000e+002 4.924039e+002
      vertex   -1.434016e+002 6.500000e+002 4.789948e+002
    endloop
  endfacet
  facet normal -3.420201e-001 0.000000e+000 9.396926e-001
    outer loop
      vertex   -1.434016e+002 -6.500000e+002 4.789948e+002
      vertex   -1.434016e+002 6.500000e+002 4.789948e+002
      vertex   -1.980399e+002 6.500000e+002 4.591081e+002
    endloop
  endfacet
  facet normal -4.487992e-001 0.000000e+000 8.936326e-001
    outer loop
      vertex   -1.980399e+002 -6.500000e+002 4.591081e+002
      vertex   -1.980399e+002 6.500000e+002 4.591081e+002
      vertex   -2.500000e+002 6.500000e+002 4.330127e+002
    endloop
  endfacet
  facet normal -8.660254e-001 0.000000e+000 -5.000000e-001
    outer loop
      vertex   -2.500000e+002 -6.500000e+002 4.330127e+002
      vertex   -2.500000e+002 6.500000e+002 4.330127e+002
      vertex   -1.400000e+002 6.500000e+002 2.424871e+002
    endloop
  endfacet
  facet normal -8.660254e-001 -0.000000e+000 -5.000000e-001
    outer loop
      vertex   -1.400000e+002 6.500000e+002 2.424871e+002
      vertex   -1.400000e+002 -6.500000e+002 2.424871e+002
      vertex   -2.500000e+002 -6.500000e+002 4.330127e+002
    endloop
  endfacet
  facet normal 0.000000e+000 -1.000000e+000 0.000000e+000
    outer loop
      vertex   -1.434016e+002 -6.500000e+002 4.789948e+002
      vertex   -8.030491e+001 -6.500000e+002 2.682371e+002
      vertex   -4.862149e+001 -6.500000e+002 2.757462e+002
    endloop
  endfacet
  facet normal 0.000000e+000 -1.000000e+000 -0.000000e+000
    outer loop
      vertex   -1.434016e+002 -6.500000e+002 4.789948e+002
      vertex   -1.980399e+002 -6.500000e+002 4.591081e+002
      vertex   -1.109023e+002 -6.500000e+002 2.571005e+002
    endloop
  endfacet
  facet normal 0.000000e+000 -1.000000e+000 0.000000e+000
    outer loop
      vertex   -1.109023e+002 -6.500000e+002 2.571005e+002
      vertex   -8.030491e+001 -6.500000e+002 2.682371e+002
      vertex   -1.434016e+002 -6.500000e+002 4.789948e+002
    endloop
  endfacet
  facet normal 0.000000e+000 -1.000000e+000 0.000000e+000
    outer loop
      vertex   -2.500000e+002 -6.500000e+002 4.330127e+002
      vertex   -1.400000e+002 -6.500000e+002 2.424871e+002
      vertex   -1.109023e+002 -6.500000e+002 2.571005e+002
    endloop
  endfacet
  facet normal 0.000000e+000 -1.000000e+000 0.000000e+000
    outer loop
      vertex   -1.109023e+002 -6.500000e+002 2.571005e+002
      vertex   -1.980399e+002 -6.500000e+002 4.591081e+002
      vertex   -2.500000e+002 -6.500000e+002 4.330127e+002
    endloop
  endfacet
  facet normal 0.000000e+000 -1.000000e+000 0.000000e+000
    outer loop
      vertex   -4.862149e+001 -6.500000e+002 2.757462e+002
      vertex   -8.682409e+001 -6.500000e+002 4.924039e+002
      vertex   -1.434016e+002 -6.500000e+002 4.789948e+002
    endloop
  endfacet
  facet normal 0.000000e+000 1.000000e+000 0.000000e+000
    outer loop
      vertex   -1.434016e+002 6.500000e+002 4.789948e+002
      vertex   -8.030491e+001 6.500000e+002 2.682371e+002
      vertex   -1.109023e+002 6.500000e+002 2.571005e+002
    endloop
  endfacet
  facet normal 1.883588e-015 1.000000e+000 3.321274e-016
    outer loop
      vertex   -1.434016e+002 6.500000e+002 4.789948e+002
      vertex   -8.682409e+001 6.500000e+002 4.924039e+002
      vertex   -4.862149e+001 6.500000e+002 2.757462e+002
    endloop
  endfacet
  facet normal -1.756222e-015 1.000000e+000 -7.575602e-016
    outer loop
      vertex   -2.500000e+002 6.500000e+002 4.330127e+002
      vertex   -1.980399e+002 6.500000e+002 4.591081e+002
      vertex   -1.109023e+002 6.500000e+002 2.571005e+002
    endloop
  endfacet
  facet normal 3.271954e-015 1.000000e+000 9.795588e-016
    outer loop
      vertex   -4.862149e+001 6.500000e+002 2.757462e+002
      vertex   -8.030491e+001 6.500000e+002 2.682371e+002
      vertex   -1.434016e+002 6.500000e+002 4.789948e+002
    endloop
  endfacet
  facet normal 0.000000e+000 1.000000e+000 0.000000e+000
    outer loop
      vertex   -1.109023e+002 6.500000e+002 2.571005e+002
      vertex   -1.980399e+002 6.500000e+002 4.591081e+002
      vertex   -1.434016e+002 6.500000e+002 4.789948e+002
    endloop
  endfacet
  facet normal -2.957857e-015 1.000000e+000 -1.707719e-015
    outer loop
      vertex   -1.109023e+002 6.500000e+002 2.571005e+002
      vertex   -1.400000e+002 6.500000e+002 2.424871e+002
      vertex   -2.500000e+002 6.500000e+002 4.330127e+002
    endloop
  endfacet
endsolid
