solid bobinado2
  facet normal 0.000000e+000 0.000000e+000 -1.000000e+000
    outer loop
      vertex   2.487113e+001 -1.677579e+001 -1.250000e+001
      vertex   1.036297e+001 -6.989911e+000 -1.250000e+001
      vertex   1.212870e+001 -3.024024e+000 -1.250000e+001
    endloop
  endfacet
  facet normal 0.000000e+000 0.000000e+000 -1.000000e+000
    outer loop
      vertex   1.212870e+001 -3.024024e+000 -1.250000e+001
      vertex   2.910887e+001 -7.257657e+000 -1.250000e+001
      vertex   2.487113e+001 -1.677579e+001 -1.250000e+001
    endloop
  endfacet
  facet normal -5.591929e-001 -8.290376e-001 0.000000e+000
    outer loop
      vertex   1.036297e+001 -6.989911e+000 -1.250000e+001
      vertex   2.487113e+001 -1.677579e+001 -1.250000e+001
      vertex   2.487113e+001 -1.677579e+001 1.250000e+001
    endloop
  endfacet
  facet normal -5.591929e-001 -8.290376e-001 0.000000e+000
    outer loop
      vertex   2.487113e+001 -1.677579e+001 1.250000e+001
      vertex   1.036297e+001 -6.989911e+000 1.250000e+001
      vertex   1.036297e+001 -6.989911e+000 -1.250000e+001
    endloop
  endfacet
  facet normal 0.000000e+000 -0.000000e+000 1.000000e+000
    outer loop
      vertex   2.487113e+001 -1.677579e+001 1.250000e+001
      vertex   2.910887e+001 -7.257657e+000 1.250000e+001
      vertex   1.212870e+001 -3.024024e+000 1.250000e+001
    endloop
  endfacet
  facet normal 0.000000e+000 0.000000e+000 1.000000e+000
    outer loop
      vertex   1.212870e+001 -3.024024e+000 1.250000e+001
      vertex   1.036297e+001 -6.989911e+000 1.250000e+001
      vertex   2.487113e+001 -1.677579e+001 1.250000e+001
    endloop
  endfacet
  facet normal 9.135455e-001 -4.067366e-001 0.000000e+000
    outer loop
      vertex   2.910887e+001 -7.257657e+000 -1.250000e+001
      vertex   2.910887e+001 -7.257657e+000 1.250000e+001
      vertex   2.487113e+001 -1.677579e+001 1.250000e+001
    endloop
  endfacet
  facet normal 9.135455e-001 -4.067366e-001 0.000000e+000
    outer loop
      vertex   2.487113e+001 -1.677579e+001 1.250000e+001
      vertex   2.487113e+001 -1.677579e+001 -1.250000e+001
      vertex   2.910887e+001 -7.257657e+000 -1.250000e+001
    endloop
  endfacet
  facet normal 2.419219e-001 9.702957e-001 0.000000e+000
    outer loop
      vertex   2.910887e+001 -7.257657e+000 -1.250000e+001
      vertex   1.212870e+001 -3.024024e+000 -1.250000e+001
      vertex   1.212870e+001 -3.024024e+000 1.250000e+001
    endloop
  endfacet
  facet normal 2.419219e-001 9.702957e-001 0.000000e+000
    outer loop
      vertex   1.212870e+001 -3.024024e+000 1.250000e+001
      vertex   2.910887e+001 -7.257657e+000 1.250000e+001
      vertex   2.910887e+001 -7.257657e+000 -1.250000e+001
    endloop
  endfacet
  facet normal -9.135455e-001 4.067366e-001 0.000000e+000
    outer loop
      vertex   1.212870e+001 -3.024024e+000 -1.250000e+001
      vertex   1.036297e+001 -6.989911e+000 -1.250000e+001
      vertex   1.036297e+001 -6.989911e+000 1.250000e+001
    endloop
  endfacet
  facet normal -9.135455e-001 4.067366e-001 0.000000e+000
    outer loop
      vertex   1.036297e+001 -6.989911e+000 1.250000e+001
      vertex   1.212870e+001 -3.024024e+000 1.250000e+001
      vertex   1.212870e+001 -3.024024e+000 -1.250000e+001
    endloop
  endfacet
  facet normal 0.000000e+000 0.000000e+000 -1.000000e+000
    outer loop
      vertex   4.175193e+000 -2.970804e+001 -1.250000e+001
      vertex   1.739664e+000 -1.237835e+001 -1.250000e+001
      vertex   5.868395e+000 -1.103684e+001 -1.250000e+001
    endloop
  endfacet
  facet normal 0.000000e+000 -0.000000e+000 -1.000000e+000
    outer loop
      vertex   5.868395e+000 -1.103684e+001 -1.250000e+001
      vertex   1.408415e+001 -2.648843e+001 -1.250000e+001
      vertex   4.175193e+000 -2.970804e+001 -1.250000e+001
    endloop
  endfacet
  facet normal -9.902681e-001 -1.391731e-001 -0.000000e+000
    outer loop
      vertex   1.739664e+000 -1.237835e+001 1.250000e+001
      vertex   1.739664e+000 -1.237835e+001 -1.250000e+001
      vertex   4.175193e+000 -2.970804e+001 -1.250000e+001
    endloop
  endfacet
  facet normal -9.902681e-001 -1.391731e-001 0.000000e+000
    outer loop
      vertex   4.175193e+000 -2.970804e+001 -1.250000e+001
      vertex   4.175193e+000 -2.970804e+001 1.250000e+001
      vertex   1.739664e+000 -1.237835e+001 1.250000e+001
    endloop
  endfacet
  facet normal 0.000000e+000 0.000000e+000 1.000000e+000
    outer loop
      vertex   4.175193e+000 -2.970804e+001 1.250000e+001
      vertex   1.408415e+001 -2.648843e+001 1.250000e+001
      vertex   5.868395e+000 -1.103684e+001 1.250000e+001
    endloop
  endfacet
  facet normal 0.000000e+000 0.000000e+000 1.000000e+000
    outer loop
      vertex   5.868395e+000 -1.103684e+001 1.250000e+001
      vertex   1.739664e+000 -1.237835e+001 1.250000e+001
      vertex   4.175193e+000 -2.970804e+001 1.250000e+001
    endloop
  endfacet
  facet normal 3.090170e-001 -9.510565e-001 0.000000e+000
    outer loop
      vertex   1.408415e+001 -2.648843e+001 -1.250000e+001
      vertex   1.408415e+001 -2.648843e+001 1.250000e+001
      vertex   4.175193e+000 -2.970804e+001 1.250000e+001
    endloop
  endfacet
  facet normal 3.090170e-001 -9.510565e-001 0.000000e+000
    outer loop
      vertex   4.175193e+000 -2.970804e+001 1.250000e+001
      vertex   4.175193e+000 -2.970804e+001 -1.250000e+001
      vertex   1.408415e+001 -2.648843e+001 -1.250000e+001
    endloop
  endfacet
  facet normal 8.829476e-001 4.694716e-001 0.000000e+000
    outer loop
      vertex   1.408415e+001 -2.648843e+001 -1.250000e+001
      vertex   5.868395e+000 -1.103684e+001 -1.250000e+001
      vertex   5.868395e+000 -1.103684e+001 1.250000e+001
    endloop
  endfacet
  facet normal 8.829476e-001 4.694716e-001 0.000000e+000
    outer loop
      vertex   5.868395e+000 -1.103684e+001 1.250000e+001
      vertex   1.408415e+001 -2.648843e+001 1.250000e+001
      vertex   1.408415e+001 -2.648843e+001 -1.250000e+001
    endloop
  endfacet
  facet normal -3.090170e-001 9.510565e-001 0.000000e+000
    outer loop
      vertex   5.868395e+000 -1.103684e+001 -1.250000e+001
      vertex   1.739664e+000 -1.237835e+001 -1.250000e+001
      vertex   1.739664e+000 -1.237835e+001 1.250000e+001
    endloop
  endfacet
  facet normal -3.090170e-001 9.510565e-001 0.000000e+000
    outer loop
      vertex   1.739664e+000 -1.237835e+001 1.250000e+001
      vertex   5.868395e+000 -1.103684e+001 1.250000e+001
      vertex   5.868395e+000 -1.103684e+001 -1.250000e+001
    endloop
  endfacet
  facet normal 0.000000e+000 0.000000e+000 -1.000000e+000
    outer loop
      vertex   -1.026060e+001 -2.819078e+001 -1.250000e+001
      vertex   -1.928363e+001 -2.298133e+001 -1.250000e+001
      vertex   -8.034845e+000 -9.575556e+000 -1.250000e+001
    endloop
  endfacet
  facet normal 0.000000e+000 -0.000000e+000 -1.000000e+000
    outer loop
      vertex   -8.034845e+000 -9.575556e+000 -1.250000e+001
      vertex   -4.275252e+000 -1.174616e+001 -1.250000e+001
      vertex   -1.026060e+001 -2.819078e+001 -1.250000e+001
    endloop
  endfacet
  facet normal -7.660444e-001 6.427876e-001 0.000000e+000
    outer loop
      vertex   -8.034845e+000 -9.575556e+000 1.250000e+001
      vertex   -8.034845e+000 -9.575556e+000 -1.250000e+001
      vertex   -1.928363e+001 -2.298133e+001 -1.250000e+001
    endloop
  endfacet
  facet normal -7.660444e-001 6.427876e-001 0.000000e+000
    outer loop
      vertex   -1.928363e+001 -2.298133e+001 -1.250000e+001
      vertex   -1.928363e+001 -2.298133e+001 1.250000e+001
      vertex   -8.034845e+000 -9.575556e+000 1.250000e+001
    endloop
  endfacet
  facet normal 0.000000e+000 0.000000e+000 1.000000e+000
    outer loop
      vertex   -1.026060e+001 -2.819078e+001 1.250000e+001
      vertex   -4.275252e+000 -1.174616e+001 1.250000e+001
      vertex   -8.034845e+000 -9.575556e+000 1.250000e+001
    endloop
  endfacet
  facet normal 0.000000e+000 0.000000e+000 1.000000e+000
    outer loop
      vertex   -8.034845e+000 -9.575556e+000 1.250000e+001
      vertex   -1.928363e+001 -2.298133e+001 1.250000e+001
      vertex   -1.026060e+001 -2.819078e+001 1.250000e+001
    endloop
  endfacet
  facet normal -5.000000e-001 -8.660254e-001 0.000000e+000
    outer loop
      vertex   -1.026060e+001 -2.819078e+001 -1.250000e+001
      vertex   -1.026060e+001 -2.819078e+001 1.250000e+001
      vertex   -1.928363e+001 -2.298133e+001 1.250000e+001
    endloop
  endfacet
  facet normal -5.000000e-001 -8.660254e-001 -0.000000e+000
    outer loop
      vertex   -1.928363e+001 -2.298133e+001 1.250000e+001
      vertex   -1.928363e+001 -2.298133e+001 -1.250000e+001
      vertex   -1.026060e+001 -2.819078e+001 -1.250000e+001
    endloop
  endfacet
  facet normal 9.396926e-001 -3.420201e-001 0.000000e+000
    outer loop
      vertex   -1.026060e+001 -2.819078e+001 -1.250000e+001
      vertex   -4.275252e+000 -1.174616e+001 -1.250000e+001
      vertex   -4.275252e+000 -1.174616e+001 1.250000e+001
    endloop
  endfacet
  facet normal 9.396926e-001 -3.420201e-001 0.000000e+000
    outer loop
      vertex   -4.275252e+000 -1.174616e+001 1.250000e+001
      vertex   -1.026060e+001 -2.819078e+001 1.250000e+001
      vertex   -1.026060e+001 -2.819078e+001 -1.250000e+001
    endloop
  endfacet
  facet normal 5.000000e-001 8.660254e-001 0.000000e+000
    outer loop
      vertex   -4.275252e+000 -1.174616e+001 -1.250000e+001
      vertex   -8.034845e+000 -9.575556e+000 -1.250000e+001
      vertex   -8.034845e+000 -9.575556e+000 1.250000e+001
    endloop
  endfacet
  facet normal 5.000000e-001 8.660254e-001 0.000000e+000
    outer loop
      vertex   -8.034845e+000 -9.575556e+000 1.250000e+001
      vertex   -4.275252e+000 -1.174616e+001 1.250000e+001
      vertex   -4.275252e+000 -1.174616e+001 -1.250000e+001
    endloop
  endfacet
  facet normal 0.000000e+000 0.000000e+000 -1.000000e+000
    outer loop
      vertex   -2.998172e+001 -1.046985e+000 -1.250000e+001
      vertex   -1.249239e+001 -4.362437e-001 -1.250000e+001
      vertex   -1.158980e+001 -4.682582e+000 -1.250000e+001
    endloop
  endfacet
  facet normal -0.000000e+000 0.000000e+000 -1.000000e+000
    outer loop
      vertex   -1.158980e+001 -4.682582e+000 -1.250000e+001
      vertex   -2.781552e+001 -1.123820e+001 -1.250000e+001
      vertex   -2.998172e+001 -1.046985e+000 -1.250000e+001
    endloop
  endfacet
  facet normal -3.489950e-002 9.993908e-001 0.000000e+000
    outer loop
      vertex   -1.249239e+001 -4.362437e-001 1.250000e+001
      vertex   -1.249239e+001 -4.362437e-001 -1.250000e+001
      vertex   -2.998172e+001 -1.046985e+000 -1.250000e+001
    endloop
  endfacet
  facet normal -3.489950e-002 9.993908e-001 0.000000e+000
    outer loop
      vertex   -2.998172e+001 -1.046985e+000 -1.250000e+001
      vertex   -2.998172e+001 -1.046985e+000 1.250000e+001
      vertex   -1.249239e+001 -4.362437e-001 1.250000e+001
    endloop
  endfacet
  facet normal 0.000000e+000 0.000000e+000 1.000000e+000
    outer loop
      vertex   -2.998172e+001 -1.046985e+000 1.250000e+001
      vertex   -2.781552e+001 -1.123820e+001 1.250000e+001
      vertex   -1.158980e+001 -4.682582e+000 1.250000e+001
    endloop
  endfacet
  facet normal 0.000000e+000 0.000000e+000 1.000000e+000
    outer loop
      vertex   -1.158980e+001 -4.682582e+000 1.250000e+001
      vertex   -1.249239e+001 -4.362437e-001 1.250000e+001
      vertex   -2.998172e+001 -1.046985e+000 1.250000e+001
    endloop
  endfacet
  facet normal -9.781476e-001 -2.079117e-001 0.000000e+000
    outer loop
      vertex   -2.781552e+001 -1.123820e+001 -1.250000e+001
      vertex   -2.781552e+001 -1.123820e+001 1.250000e+001
      vertex   -2.998172e+001 -1.046985e+000 1.250000e+001
    endloop
  endfacet
  facet normal -9.781476e-001 -2.079117e-001 -0.000000e+000
    outer loop
      vertex   -2.998172e+001 -1.046985e+000 1.250000e+001
      vertex   -2.998172e+001 -1.046985e+000 -1.250000e+001
      vertex   -2.781552e+001 -1.123820e+001 -1.250000e+001
    endloop
  endfacet
  facet normal 3.746066e-001 -9.271839e-001 0.000000e+000
    outer loop
      vertex   -2.781552e+001 -1.123820e+001 -1.250000e+001
      vertex   -1.158980e+001 -4.682582e+000 -1.250000e+001
      vertex   -1.158980e+001 -4.682582e+000 1.250000e+001
    endloop
  endfacet
  facet normal 3.746066e-001 -9.271839e-001 0.000000e+000
    outer loop
      vertex   -1.158980e+001 -4.682582e+000 1.250000e+001
      vertex   -2.781552e+001 -1.123820e+001 1.250000e+001
      vertex   -2.781552e+001 -1.123820e+001 -1.250000e+001
    endloop
  endfacet
  facet normal 9.781476e-001 2.079117e-001 0.000000e+000
    outer loop
      vertex   -1.158980e+001 -4.682582e+000 -1.250000e+001
      vertex   -1.249239e+001 -4.362437e-001 -1.250000e+001
      vertex   -1.249239e+001 -4.362437e-001 1.250000e+001
    endloop
  endfacet
  facet normal 9.781476e-001 2.079117e-001 0.000000e+000
    outer loop
      vertex   -1.249239e+001 -4.362437e-001 1.250000e+001
      vertex   -1.158980e+001 -4.682582e+000 1.250000e+001
      vertex   -1.158980e+001 -4.682582e+000 -1.250000e+001
    endloop
  endfacet
  facet normal 0.000000e+000 0.000000e+000 -1.000000e+000
    outer loop
      vertex   -2.083975e+001 2.158019e+001 -1.250000e+001
      vertex   -8.683230e+000 8.991748e+000 -1.250000e+001
      vertex   -1.123493e+001 5.479639e+000 -1.250000e+001
    endloop
  endfacet
  facet normal 0.000000e+000 0.000000e+000 -1.000000e+000
    outer loop
      vertex   -1.123493e+001 5.479639e+000 -1.250000e+001
      vertex   -2.696382e+001 1.315113e+001 -1.250000e+001
      vertex   -2.083975e+001 2.158019e+001 -1.250000e+001
    endloop
  endfacet
  facet normal 7.193398e-001 6.946584e-001 0.000000e+000
    outer loop
      vertex   -8.683230e+000 8.991748e+000 1.250000e+001
      vertex   -8.683230e+000 8.991748e+000 -1.250000e+001
      vertex   -2.083975e+001 2.158019e+001 -1.250000e+001
    endloop
  endfacet
  facet normal 7.193398e-001 6.946584e-001 -0.000000e+000
    outer loop
      vertex   -2.083975e+001 2.158019e+001 -1.250000e+001
      vertex   -2.083975e+001 2.158019e+001 1.250000e+001
      vertex   -8.683230e+000 8.991748e+000 1.250000e+001
    endloop
  endfacet
  facet normal 0.000000e+000 0.000000e+000 1.000000e+000
    outer loop
      vertex   -2.083975e+001 2.158019e+001 1.250000e+001
      vertex   -2.696382e+001 1.315113e+001 1.250000e+001
      vertex   -1.123493e+001 5.479639e+000 1.250000e+001
    endloop
  endfacet
  facet normal 0.000000e+000 -0.000000e+000 1.000000e+000
    outer loop
      vertex   -1.123493e+001 5.479639e+000 1.250000e+001
      vertex   -8.683230e+000 8.991748e+000 1.250000e+001
      vertex   -2.083975e+001 2.158019e+001 1.250000e+001
    endloop
  endfacet
  facet normal -8.090170e-001 5.877853e-001 0.000000e+000
    outer loop
      vertex   -2.696382e+001 1.315113e+001 -1.250000e+001
      vertex   -2.696382e+001 1.315113e+001 1.250000e+001
      vertex   -2.083975e+001 2.158019e+001 1.250000e+001
    endloop
  endfacet
  facet normal -8.090170e-001 5.877853e-001 0.000000e+000
    outer loop
      vertex   -2.083975e+001 2.158019e+001 1.250000e+001
      vertex   -2.083975e+001 2.158019e+001 -1.250000e+001
      vertex   -2.696382e+001 1.315113e+001 -1.250000e+001
    endloop
  endfacet
  facet normal -4.383711e-001 -8.987940e-001 0.000000e+000
    outer loop
      vertex   -2.696382e+001 1.315113e+001 -1.250000e+001
      vertex   -1.123493e+001 5.479639e+000 -1.250000e+001
      vertex   -1.123493e+001 5.479639e+000 1.250000e+001
    endloop
  endfacet
  facet normal -4.383711e-001 -8.987940e-001 0.000000e+000
    outer loop
      vertex   -1.123493e+001 5.479639e+000 1.250000e+001
      vertex   -2.696382e+001 1.315113e+001 1.250000e+001
      vertex   -2.696382e+001 1.315113e+001 -1.250000e+001
    endloop
  endfacet
  facet normal 8.090170e-001 -5.877853e-001 0.000000e+000
    outer loop
      vertex   -1.123493e+001 5.479639e+000 -1.250000e+001
      vertex   -8.683230e+000 8.991748e+000 -1.250000e+001
      vertex   -8.683230e+000 8.991748e+000 1.250000e+001
    endloop
  endfacet
  facet normal 8.090170e-001 -5.877853e-001 0.000000e+000
    outer loop
      vertex   -8.683230e+000 8.991748e+000 1.250000e+001
      vertex   -1.123493e+001 5.479639e+000 1.250000e+001
      vertex   -1.123493e+001 5.479639e+000 -1.250000e+001
    endloop
  endfacet
  facet normal 0.000000e+000 0.000000e+000 -1.000000e+000
    outer loop
      vertex   2.092694e+000 2.992692e+001 -1.250000e+001
      vertex   8.719559e-001 1.246955e+001 -1.250000e+001
      vertex   -3.445467e+000 1.201577e+001 -1.250000e+001
    endloop
  endfacet
  facet normal 0.000000e+000 0.000000e+000 -1.000000e+000
    outer loop
      vertex   -3.445467e+000 1.201577e+001 -1.250000e+001
      vertex   -8.269121e+000 2.883785e+001 -1.250000e+001
      vertex   2.092694e+000 2.992692e+001 -1.250000e+001
    endloop
  endfacet
  facet normal 9.975641e-001 -6.975647e-002 0.000000e+000
    outer loop
      vertex   8.719559e-001 1.246955e+001 -1.250000e+001
      vertex   2.092694e+000 2.992692e+001 -1.250000e+001
      vertex   2.092694e+000 2.992692e+001 1.250000e+001
    endloop
  endfacet
  facet normal 9.975641e-001 -6.975647e-002 0.000000e+000
    outer loop
      vertex   2.092694e+000 2.992692e+001 1.250000e+001
      vertex   8.719559e-001 1.246955e+001 1.250000e+001
      vertex   8.719559e-001 1.246955e+001 -1.250000e+001
    endloop
  endfacet
  facet normal 0.000000e+000 0.000000e+000 1.000000e+000
    outer loop
      vertex   2.092694e+000 2.992692e+001 1.250000e+001
      vertex   -8.269121e+000 2.883785e+001 1.250000e+001
      vertex   -3.445467e+000 1.201577e+001 1.250000e+001
    endloop
  endfacet
  facet normal 0.000000e+000 0.000000e+000 1.000000e+000
    outer loop
      vertex   -3.445467e+000 1.201577e+001 1.250000e+001
      vertex   8.719559e-001 1.246955e+001 1.250000e+001
      vertex   2.092694e+000 2.992692e+001 1.250000e+001
    endloop
  endfacet
  facet normal -1.045285e-001 9.945219e-001 0.000000e+000
    outer loop
      vertex   -8.269121e+000 2.883785e+001 -1.250000e+001
      vertex   -8.269121e+000 2.883785e+001 1.250000e+001
      vertex   2.092694e+000 2.992692e+001 1.250000e+001
    endloop
  endfacet
  facet normal -1.045285e-001 9.945219e-001 0.000000e+000
    outer loop
      vertex   2.092694e+000 2.992692e+001 1.250000e+001
      vertex   2.092694e+000 2.992692e+001 -1.250000e+001
      vertex   -8.269121e+000 2.883785e+001 -1.250000e+001
    endloop
  endfacet
  facet normal -9.612617e-001 -2.756374e-001 0.000000e+000
    outer loop
      vertex   -8.269121e+000 2.883785e+001 -1.250000e+001
      vertex   -3.445467e+000 1.201577e+001 -1.250000e+001
      vertex   -3.445467e+000 1.201577e+001 1.250000e+001
    endloop
  endfacet
  facet normal -9.612617e-001 -2.756374e-001 0.000000e+000
    outer loop
      vertex   -3.445467e+000 1.201577e+001 1.250000e+001
      vertex   -8.269121e+000 2.883785e+001 1.250000e+001
      vertex   -8.269121e+000 2.883785e+001 -1.250000e+001
    endloop
  endfacet
  facet normal 1.045285e-001 -9.945219e-001 0.000000e+000
    outer loop
      vertex   -3.445467e+000 1.201577e+001 -1.250000e+001
      vertex   8.719559e-001 1.246955e+001 -1.250000e+001
      vertex   8.719559e-001 1.246955e+001 1.250000e+001
    endloop
  endfacet
  facet normal 1.045285e-001 -9.945219e-001 0.000000e+000
    outer loop
      vertex   8.719559e-001 1.246955e+001 1.250000e+001
      vertex   -3.445467e+000 1.201577e+001 1.250000e+001
      vertex   -3.445467e+000 1.201577e+001 -1.250000e+001
    endloop
  endfacet
  facet normal 0.000000e+000 0.000000e+000 -1.000000e+000
    outer loop
      vertex   2.364032e+001 1.846984e+001 -1.250000e+001
      vertex   9.850134e+000 7.695768e+000 -1.250000e+001
      vertex   6.623991e+000 1.060060e+001 -1.250000e+001
    endloop
  endfacet
  facet normal 0.000000e+000 0.000000e+000 -1.000000e+000
    outer loop
      vertex   6.623991e+000 1.060060e+001 -1.250000e+001
      vertex   1.589758e+001 2.544144e+001 -1.250000e+001
      vertex   2.364032e+001 1.846984e+001 -1.250000e+001
    endloop
  endfacet
  facet normal 6.156615e-001 -7.880108e-001 0.000000e+000
    outer loop
      vertex   9.850134e+000 7.695768e+000 -1.250000e+001
      vertex   2.364032e+001 1.846984e+001 -1.250000e+001
      vertex   2.364032e+001 1.846984e+001 1.250000e+001
    endloop
  endfacet
  facet normal 6.156615e-001 -7.880108e-001 0.000000e+000
    outer loop
      vertex   2.364032e+001 1.846984e+001 1.250000e+001
      vertex   9.850134e+000 7.695768e+000 1.250000e+001
      vertex   9.850134e+000 7.695768e+000 -1.250000e+001
    endloop
  endfacet
  facet normal 0.000000e+000 0.000000e+000 1.000000e+000
    outer loop
      vertex   2.364032e+001 1.846984e+001 1.250000e+001
      vertex   1.589758e+001 2.544144e+001 1.250000e+001
      vertex   6.623991e+000 1.060060e+001 1.250000e+001
    endloop
  endfacet
  facet normal -0.000000e+000 0.000000e+000 1.000000e+000
    outer loop
      vertex   6.623991e+000 1.060060e+001 1.250000e+001
      vertex   9.850134e+000 7.695768e+000 1.250000e+001
      vertex   2.364032e+001 1.846984e+001 1.250000e+001
    endloop
  endfacet
  facet normal 6.691306e-001 7.431448e-001 -0.000000e+000
    outer loop
      vertex   1.589758e+001 2.544144e+001 -1.250000e+001
      vertex   1.589758e+001 2.544144e+001 1.250000e+001
      vertex   2.364032e+001 1.846984e+001 1.250000e+001
    endloop
  endfacet
  facet normal 6.691306e-001 7.431448e-001 0.000000e+000
    outer loop
      vertex   2.364032e+001 1.846984e+001 1.250000e+001
      vertex   2.364032e+001 1.846984e+001 -1.250000e+001
      vertex   1.589758e+001 2.544144e+001 -1.250000e+001
    endloop
  endfacet
  facet normal -8.480481e-001 5.299193e-001 0.000000e+000
    outer loop
      vertex   1.589758e+001 2.544144e+001 -1.250000e+001
      vertex   6.623991e+000 1.060060e+001 -1.250000e+001
      vertex   6.623991e+000 1.060060e+001 1.250000e+001
    endloop
  endfacet
  facet normal -8.480481e-001 5.299193e-001 0.000000e+000
    outer loop
      vertex   6.623991e+000 1.060060e+001 1.250000e+001
      vertex   1.589758e+001 2.544144e+001 1.250000e+001
      vertex   1.589758e+001 2.544144e+001 -1.250000e+001
    endloop
  endfacet
  facet normal -6.691306e-001 -7.431448e-001 0.000000e+000
    outer loop
      vertex   6.623991e+000 1.060060e+001 -1.250000e+001
      vertex   9.850134e+000 7.695768e+000 -1.250000e+001
      vertex   9.850134e+000 7.695768e+000 1.250000e+001
    endloop
  endfacet
  facet normal -6.691306e-001 -7.431448e-001 0.000000e+000
    outer loop
      vertex   9.850134e+000 7.695768e+000 1.250000e+001
      vertex   6.623991e+000 1.060060e+001 1.250000e+001
      vertex   6.623991e+000 1.060060e+001 -1.250000e+001
    endloop
  endfacet
  facet normal -1.000000e+000 0.000000e+000 0.000000e+000
    outer loop
      vertex   1.231010e+001 2.170602e+000 -1.250000e+001
      vertex   1.231010e+001 -2.170602e+000 -1.250000e+001
      vertex   1.231010e+001 -2.170602e+000 1.250000e+001
    endloop
  endfacet
  facet normal -1.000000e+000 0.000000e+000 0.000000e+000
    outer loop
      vertex   1.231010e+001 -2.170602e+000 1.250000e+001
      vertex   1.231010e+001 2.170602e+000 1.250000e+001
      vertex   1.231010e+001 2.170602e+000 -1.250000e+001
    endloop
  endfacet
  facet normal -1.736482e-001 9.848078e-001 0.000000e+000
    outer loop
      vertex   2.954423e+001 5.209445e+000 -1.250000e+001
      vertex   1.231010e+001 2.170602e+000 -1.250000e+001
      vertex   1.231010e+001 2.170602e+000 1.250000e+001
    endloop
  endfacet
  facet normal -1.736482e-001 9.848078e-001 0.000000e+000
    outer loop
      vertex   1.231010e+001 2.170602e+000 1.250000e+001
      vertex   2.954423e+001 5.209445e+000 1.250000e+001
      vertex   2.954423e+001 5.209445e+000 -1.250000e+001
    endloop
  endfacet
  facet normal 1.000000e+000 6.659916e-016 -0.000000e+000
    outer loop
      vertex   2.954423e+001 5.209445e+000 -1.250000e+001
      vertex   2.954423e+001 5.209445e+000 1.250000e+001
      vertex   2.954423e+001 -5.209445e+000 1.250000e+001
    endloop
  endfacet
  facet normal 1.000000e+000 6.659916e-016 0.000000e+000
    outer loop
      vertex   2.954423e+001 -5.209445e+000 1.250000e+001
      vertex   2.954423e+001 -5.209445e+000 -1.250000e+001
      vertex   2.954423e+001 5.209445e+000 -1.250000e+001
    endloop
  endfacet
  facet normal -1.736482e-001 -9.848078e-001 0.000000e+000
    outer loop
      vertex   1.231010e+001 -2.170602e+000 -1.250000e+001
      vertex   2.954423e+001 -5.209445e+000 -1.250000e+001
      vertex   2.954423e+001 -5.209445e+000 1.250000e+001
    endloop
  endfacet
  facet normal -1.736482e-001 -9.848078e-001 0.000000e+000
    outer loop
      vertex   2.954423e+001 -5.209445e+000 1.250000e+001
      vertex   1.231010e+001 -2.170602e+000 1.250000e+001
      vertex   1.231010e+001 -2.170602e+000 -1.250000e+001
    endloop
  endfacet
  facet normal 0.000000e+000 0.000000e+000 1.000000e+000
    outer loop
      vertex   2.954423e+001 -5.209445e+000 1.250000e+001
      vertex   2.954423e+001 5.209445e+000 1.250000e+001
      vertex   1.231010e+001 2.170602e+000 1.250000e+001
    endloop
  endfacet
  facet normal 0.000000e+000 0.000000e+000 1.000000e+000
    outer loop
      vertex   1.231010e+001 2.170602e+000 1.250000e+001
      vertex   1.231010e+001 -2.170602e+000 1.250000e+001
      vertex   2.954423e+001 -5.209445e+000 1.250000e+001
    endloop
  endfacet
  facet normal 0.000000e+000 0.000000e+000 -1.000000e+000
    outer loop
      vertex   2.954423e+001 -5.209445e+000 -1.250000e+001
      vertex   1.231010e+001 -2.170602e+000 -1.250000e+001
      vertex   1.231010e+001 2.170602e+000 -1.250000e+001
    endloop
  endfacet
  facet normal 0.000000e+000 0.000000e+000 -1.000000e+000
    outer loop
      vertex   1.231010e+001 2.170602e+000 -1.250000e+001
      vertex   2.954423e+001 5.209445e+000 -1.250000e+001
      vertex   2.954423e+001 -5.209445e+000 -1.250000e+001
    endloop
  endfacet
  facet normal 0.000000e+000 0.000000e+000 -1.000000e+000
    outer loop
      vertex   2.910887e+001 7.257657e+000 -1.250000e+001
      vertex   1.212870e+001 3.024024e+000 -1.250000e+001
      vertex   1.036297e+001 6.989911e+000 -1.250000e+001
    endloop
  endfacet
  facet normal 0.000000e+000 0.000000e+000 -1.000000e+000
    outer loop
      vertex   1.036297e+001 6.989911e+000 -1.250000e+001
      vertex   2.487113e+001 1.677579e+001 -1.250000e+001
      vertex   2.910887e+001 7.257657e+000 -1.250000e+001
    endloop
  endfacet
  facet normal 2.419219e-001 -9.702957e-001 0.000000e+000
    outer loop
      vertex   1.212870e+001 3.024024e+000 -1.250000e+001
      vertex   2.910887e+001 7.257657e+000 -1.250000e+001
      vertex   2.910887e+001 7.257657e+000 1.250000e+001
    endloop
  endfacet
  facet normal 2.419219e-001 -9.702957e-001 0.000000e+000
    outer loop
      vertex   2.910887e+001 7.257657e+000 1.250000e+001
      vertex   1.212870e+001 3.024024e+000 1.250000e+001
      vertex   1.212870e+001 3.024024e+000 -1.250000e+001
    endloop
  endfacet
  facet normal 0.000000e+000 0.000000e+000 1.000000e+000
    outer loop
      vertex   2.910887e+001 7.257657e+000 1.250000e+001
      vertex   2.487113e+001 1.677579e+001 1.250000e+001
      vertex   1.036297e+001 6.989911e+000 1.250000e+001
    endloop
  endfacet
  facet normal -0.000000e+000 0.000000e+000 1.000000e+000
    outer loop
      vertex   1.036297e+001 6.989911e+000 1.250000e+001
      vertex   1.212870e+001 3.024024e+000 1.250000e+001
      vertex   2.910887e+001 7.257657e+000 1.250000e+001
    endloop
  endfacet
  facet normal 9.135455e-001 4.067366e-001 -0.000000e+000
    outer loop
      vertex   2.487113e+001 1.677579e+001 -1.250000e+001
      vertex   2.487113e+001 1.677579e+001 1.250000e+001
      vertex   2.910887e+001 7.257657e+000 1.250000e+001
    endloop
  endfacet
  facet normal 9.135455e-001 4.067366e-001 0.000000e+000
    outer loop
      vertex   2.910887e+001 7.257657e+000 1.250000e+001
      vertex   2.910887e+001 7.257657e+000 -1.250000e+001
      vertex   2.487113e+001 1.677579e+001 -1.250000e+001
    endloop
  endfacet
  facet normal -5.591929e-001 8.290376e-001 0.000000e+000
    outer loop
      vertex   2.487113e+001 1.677579e+001 -1.250000e+001
      vertex   1.036297e+001 6.989911e+000 -1.250000e+001
      vertex   1.036297e+001 6.989911e+000 1.250000e+001
    endloop
  endfacet
  facet normal -5.591929e-001 8.290376e-001 0.000000e+000
    outer loop
      vertex   1.036297e+001 6.989911e+000 1.250000e+001
      vertex   2.487113e+001 1.677579e+001 1.250000e+001
      vertex   2.487113e+001 1.677579e+001 -1.250000e+001
    endloop
  endfacet
  facet normal -9.135455e-001 -4.067366e-001 0.000000e+000
    outer loop
      vertex   1.036297e+001 6.989911e+000 -1.250000e+001
      vertex   1.212870e+001 3.024024e+000 -1.250000e+001
      vertex   1.212870e+001 3.024024e+000 1.250000e+001
    endloop
  endfacet
  facet normal -9.135455e-001 -4.067366e-001 0.000000e+000
    outer loop
      vertex   1.212870e+001 3.024024e+000 1.250000e+001
      vertex   1.036297e+001 6.989911e+000 1.250000e+001
      vertex   1.036297e+001 6.989911e+000 -1.250000e+001
    endloop
  endfacet
  facet normal 0.000000e+000 0.000000e+000 -1.000000e+000
    outer loop
      vertex   1.408415e+001 2.648843e+001 -1.250000e+001
      vertex   5.868395e+000 1.103684e+001 -1.250000e+001
      vertex   1.739664e+000 1.237835e+001 -1.250000e+001
    endloop
  endfacet
  facet normal 0.000000e+000 0.000000e+000 -1.000000e+000
    outer loop
      vertex   1.739664e+000 1.237835e+001 -1.250000e+001
      vertex   4.175193e+000 2.970804e+001 -1.250000e+001
      vertex   1.408415e+001 2.648843e+001 -1.250000e+001
    endloop
  endfacet
  facet normal 8.829476e-001 -4.694716e-001 0.000000e+000
    outer loop
      vertex   5.868395e+000 1.103684e+001 -1.250000e+001
      vertex   1.408415e+001 2.648843e+001 -1.250000e+001
      vertex   1.408415e+001 2.648843e+001 1.250000e+001
    endloop
  endfacet
  facet normal 8.829476e-001 -4.694716e-001 0.000000e+000
    outer loop
      vertex   1.408415e+001 2.648843e+001 1.250000e+001
      vertex   5.868395e+000 1.103684e+001 1.250000e+001
      vertex   5.868395e+000 1.103684e+001 -1.250000e+001
    endloop
  endfacet
  facet normal 0.000000e+000 0.000000e+000 1.000000e+000
    outer loop
      vertex   1.408415e+001 2.648843e+001 1.250000e+001
      vertex   4.175193e+000 2.970804e+001 1.250000e+001
      vertex   1.739664e+000 1.237835e+001 1.250000e+001
    endloop
  endfacet
  facet normal -0.000000e+000 0.000000e+000 1.000000e+000
    outer loop
      vertex   1.739664e+000 1.237835e+001 1.250000e+001
      vertex   5.868395e+000 1.103684e+001 1.250000e+001
      vertex   1.408415e+001 2.648843e+001 1.250000e+001
    endloop
  endfacet
  facet normal 3.090170e-001 9.510565e-001 -0.000000e+000
    outer loop
      vertex   4.175193e+000 2.970804e+001 -1.250000e+001
      vertex   4.175193e+000 2.970804e+001 1.250000e+001
      vertex   1.408415e+001 2.648843e+001 1.250000e+001
    endloop
  endfacet
  facet normal 3.090170e-001 9.510565e-001 0.000000e+000
    outer loop
      vertex   1.408415e+001 2.648843e+001 1.250000e+001
      vertex   1.408415e+001 2.648843e+001 -1.250000e+001
      vertex   4.175193e+000 2.970804e+001 -1.250000e+001
    endloop
  endfacet
  facet normal -9.902681e-001 1.391731e-001 0.000000e+000
    outer loop
      vertex   4.175193e+000 2.970804e+001 -1.250000e+001
      vertex   1.739664e+000 1.237835e+001 -1.250000e+001
      vertex   1.739664e+000 1.237835e+001 1.250000e+001
    endloop
  endfacet
  facet normal -9.902681e-001 1.391731e-001 0.000000e+000
    outer loop
      vertex   1.739664e+000 1.237835e+001 1.250000e+001
      vertex   4.175193e+000 2.970804e+001 1.250000e+001
      vertex   4.175193e+000 2.970804e+001 -1.250000e+001
    endloop
  endfacet
  facet normal -3.090170e-001 -9.510565e-001 0.000000e+000
    outer loop
      vertex   1.739664e+000 1.237835e+001 -1.250000e+001
      vertex   5.868395e+000 1.103684e+001 -1.250000e+001
      vertex   5.868395e+000 1.103684e+001 1.250000e+001
    endloop
  endfacet
  facet normal -3.090170e-001 -9.510565e-001 0.000000e+000
    outer loop
      vertex   5.868395e+000 1.103684e+001 1.250000e+001
      vertex   1.739664e+000 1.237835e+001 1.250000e+001
      vertex   1.739664e+000 1.237835e+001 -1.250000e+001
    endloop
  endfacet
  facet normal 0.000000e+000 0.000000e+000 -1.000000e+000
    outer loop
      vertex   -1.026060e+001 2.819078e+001 -1.250000e+001
      vertex   -4.275252e+000 1.174616e+001 -1.250000e+001
      vertex   -8.034845e+000 9.575556e+000 -1.250000e+001
    endloop
  endfacet
  facet normal 0.000000e+000 0.000000e+000 -1.000000e+000
    outer loop
      vertex   -8.034845e+000 9.575556e+000 -1.250000e+001
      vertex   -1.928363e+001 2.298133e+001 -1.250000e+001
      vertex   -1.026060e+001 2.819078e+001 -1.250000e+001
    endloop
  endfacet
  facet normal 9.396926e-001 3.420201e-001 0.000000e+000
    outer loop
      vertex   -4.275252e+000 1.174616e+001 1.250000e+001
      vertex   -4.275252e+000 1.174616e+001 -1.250000e+001
      vertex   -1.026060e+001 2.819078e+001 -1.250000e+001
    endloop
  endfacet
  facet normal 9.396926e-001 3.420201e-001 -0.000000e+000
    outer loop
      vertex   -1.026060e+001 2.819078e+001 -1.250000e+001
      vertex   -1.026060e+001 2.819078e+001 1.250000e+001
      vertex   -4.275252e+000 1.174616e+001 1.250000e+001
    endloop
  endfacet
  facet normal 0.000000e+000 0.000000e+000 1.000000e+000
    outer loop
      vertex   -1.026060e+001 2.819078e+001 1.250000e+001
      vertex   -1.928363e+001 2.298133e+001 1.250000e+001
      vertex   -8.034845e+000 9.575556e+000 1.250000e+001
    endloop
  endfacet
  facet normal 0.000000e+000 -0.000000e+000 1.000000e+000
    outer loop
      vertex   -8.034845e+000 9.575556e+000 1.250000e+001
      vertex   -4.275252e+000 1.174616e+001 1.250000e+001
      vertex   -1.026060e+001 2.819078e+001 1.250000e+001
    endloop
  endfacet
  facet normal -5.000000e-001 8.660254e-001 0.000000e+000
    outer loop
      vertex   -1.928363e+001 2.298133e+001 -1.250000e+001
      vertex   -1.928363e+001 2.298133e+001 1.250000e+001
      vertex   -1.026060e+001 2.819078e+001 1.250000e+001
    endloop
  endfacet
  facet normal -5.000000e-001 8.660254e-001 0.000000e+000
    outer loop
      vertex   -1.026060e+001 2.819078e+001 1.250000e+001
      vertex   -1.026060e+001 2.819078e+001 -1.250000e+001
      vertex   -1.928363e+001 2.298133e+001 -1.250000e+001
    endloop
  endfacet
  facet normal -7.660444e-001 -6.427876e-001 0.000000e+000
    outer loop
      vertex   -1.928363e+001 2.298133e+001 -1.250000e+001
      vertex   -8.034845e+000 9.575556e+000 -1.250000e+001
      vertex   -8.034845e+000 9.575556e+000 1.250000e+001
    endloop
  endfacet
  facet normal -7.660444e-001 -6.427876e-001 0.000000e+000
    outer loop
      vertex   -8.034845e+000 9.575556e+000 1.250000e+001
      vertex   -1.928363e+001 2.298133e+001 1.250000e+001
      vertex   -1.928363e+001 2.298133e+001 -1.250000e+001
    endloop
  endfacet
  facet normal 5.000000e-001 -8.660254e-001 0.000000e+000
    outer loop
      vertex   -8.034845e+000 9.575556e+000 -1.250000e+001
      vertex   -4.275252e+000 1.174616e+001 -1.250000e+001
      vertex   -4.275252e+000 1.174616e+001 1.250000e+001
    endloop
  endfacet
  facet normal 5.000000e-001 -8.660254e-001 0.000000e+000
    outer loop
      vertex   -4.275252e+000 1.174616e+001 1.250000e+001
      vertex   -8.034845e+000 9.575556e+000 1.250000e+001
      vertex   -8.034845e+000 9.575556e+000 -1.250000e+001
    endloop
  endfacet
  facet normal 0.000000e+000 0.000000e+000 -1.000000e+000
    outer loop
      vertex   -2.781552e+001 1.123820e+001 -1.250000e+001
      vertex   -1.158980e+001 4.682582e+000 -1.250000e+001
      vertex   -1.249239e+001 4.362437e-001 -1.250000e+001
    endloop
  endfacet
  facet normal 0.000000e+000 0.000000e+000 -1.000000e+000
    outer loop
      vertex   -1.249239e+001 4.362437e-001 -1.250000e+001
      vertex   -2.998172e+001 1.046985e+000 -1.250000e+001
      vertex   -2.781552e+001 1.123820e+001 -1.250000e+001
    endloop
  endfacet
  facet normal 3.746066e-001 9.271839e-001 0.000000e+000
    outer loop
      vertex   -1.158980e+001 4.682582e+000 1.250000e+001
      vertex   -1.158980e+001 4.682582e+000 -1.250000e+001
      vertex   -2.781552e+001 1.123820e+001 -1.250000e+001
    endloop
  endfacet
  facet normal 3.746066e-001 9.271839e-001 -0.000000e+000
    outer loop
      vertex   -2.781552e+001 1.123820e+001 -1.250000e+001
      vertex   -2.781552e+001 1.123820e+001 1.250000e+001
      vertex   -1.158980e+001 4.682582e+000 1.250000e+001
    endloop
  endfacet
  facet normal 0.000000e+000 0.000000e+000 1.000000e+000
    outer loop
      vertex   -2.781552e+001 1.123820e+001 1.250000e+001
      vertex   -2.998172e+001 1.046985e+000 1.250000e+001
      vertex   -1.249239e+001 4.362437e-001 1.250000e+001
    endloop
  endfacet
  facet normal 0.000000e+000 -0.000000e+000 1.000000e+000
    outer loop
      vertex   -1.249239e+001 4.362437e-001 1.250000e+001
      vertex   -1.158980e+001 4.682582e+000 1.250000e+001
      vertex   -2.781552e+001 1.123820e+001 1.250000e+001
    endloop
  endfacet
  facet normal -9.781476e-001 2.079117e-001 0.000000e+000
    outer loop
      vertex   -2.998172e+001 1.046985e+000 -1.250000e+001
      vertex   -2.998172e+001 1.046985e+000 1.250000e+001
      vertex   -2.781552e+001 1.123820e+001 1.250000e+001
    endloop
  endfacet
  facet normal -9.781476e-001 2.079117e-001 0.000000e+000
    outer loop
      vertex   -2.781552e+001 1.123820e+001 1.250000e+001
      vertex   -2.781552e+001 1.123820e+001 -1.250000e+001
      vertex   -2.998172e+001 1.046985e+000 -1.250000e+001
    endloop
  endfacet
  facet normal -3.489950e-002 -9.993908e-001 0.000000e+000
    outer loop
      vertex   -2.998172e+001 1.046985e+000 -1.250000e+001
      vertex   -1.249239e+001 4.362437e-001 -1.250000e+001
      vertex   -1.249239e+001 4.362437e-001 1.250000e+001
    endloop
  endfacet
  facet normal -3.489950e-002 -9.993908e-001 0.000000e+000
    outer loop
      vertex   -1.249239e+001 4.362437e-001 1.250000e+001
      vertex   -2.998172e+001 1.046985e+000 1.250000e+001
      vertex   -2.998172e+001 1.046985e+000 -1.250000e+001
    endloop
  endfacet
  facet normal 9.781476e-001 -2.079117e-001 0.000000e+000
    outer loop
      vertex   -1.249239e+001 4.362437e-001 -1.250000e+001
      vertex   -1.158980e+001 4.682582e+000 -1.250000e+001
      vertex   -1.158980e+001 4.682582e+000 1.250000e+001
    endloop
  endfacet
  facet normal 9.781476e-001 -2.079117e-001 0.000000e+000
    outer loop
      vertex   -1.158980e+001 4.682582e+000 1.250000e+001
      vertex   -1.249239e+001 4.362437e-001 1.250000e+001
      vertex   -1.249239e+001 4.362437e-001 -1.250000e+001
    endloop
  endfacet
  facet normal 0.000000e+000 0.000000e+000 -1.000000e+000
    outer loop
      vertex   -2.696382e+001 -1.315113e+001 -1.250000e+001
      vertex   -1.123493e+001 -5.479639e+000 -1.250000e+001
      vertex   -8.683230e+000 -8.991748e+000 -1.250000e+001
    endloop
  endfacet
  facet normal 0.000000e+000 0.000000e+000 -1.000000e+000
    outer loop
      vertex   -8.683230e+000 -8.991748e+000 -1.250000e+001
      vertex   -2.083975e+001 -2.158019e+001 -1.250000e+001
      vertex   -2.696382e+001 -1.315113e+001 -1.250000e+001
    endloop
  endfacet
  facet normal -4.383711e-001 8.987940e-001 0.000000e+000
    outer loop
      vertex   -1.123493e+001 -5.479639e+000 1.250000e+001
      vertex   -1.123493e+001 -5.479639e+000 -1.250000e+001
      vertex   -2.696382e+001 -1.315113e+001 -1.250000e+001
    endloop
  endfacet
  facet normal -4.383711e-001 8.987940e-001 0.000000e+000
    outer loop
      vertex   -2.696382e+001 -1.315113e+001 -1.250000e+001
      vertex   -2.696382e+001 -1.315113e+001 1.250000e+001
      vertex   -1.123493e+001 -5.479639e+000 1.250000e+001
    endloop
  endfacet
  facet normal -0.000000e+000 0.000000e+000 1.000000e+000
    outer loop
      vertex   -2.696382e+001 -1.315113e+001 1.250000e+001
      vertex   -2.083975e+001 -2.158019e+001 1.250000e+001
      vertex   -8.683230e+000 -8.991748e+000 1.250000e+001
    endloop
  endfacet
  facet normal 0.000000e+000 0.000000e+000 1.000000e+000
    outer loop
      vertex   -8.683230e+000 -8.991748e+000 1.250000e+001
      vertex   -1.123493e+001 -5.479639e+000 1.250000e+001
      vertex   -2.696382e+001 -1.315113e+001 1.250000e+001
    endloop
  endfacet
  facet normal -8.090170e-001 -5.877853e-001 0.000000e+000
    outer loop
      vertex   -2.083975e+001 -2.158019e+001 -1.250000e+001
      vertex   -2.083975e+001 -2.158019e+001 1.250000e+001
      vertex   -2.696382e+001 -1.315113e+001 1.250000e+001
    endloop
  endfacet
  facet normal -8.090170e-001 -5.877853e-001 -0.000000e+000
    outer loop
      vertex   -2.696382e+001 -1.315113e+001 1.250000e+001
      vertex   -2.696382e+001 -1.315113e+001 -1.250000e+001
      vertex   -2.083975e+001 -2.158019e+001 -1.250000e+001
    endloop
  endfacet
  facet normal 7.193398e-001 -6.946584e-001 0.000000e+000
    outer loop
      vertex   -2.083975e+001 -2.158019e+001 -1.250000e+001
      vertex   -8.683230e+000 -8.991748e+000 -1.250000e+001
      vertex   -8.683230e+000 -8.991748e+000 1.250000e+001
    endloop
  endfacet
  facet normal 7.193398e-001 -6.946584e-001 0.000000e+000
    outer loop
      vertex   -8.683230e+000 -8.991748e+000 1.250000e+001
      vertex   -2.083975e+001 -2.158019e+001 1.250000e+001
      vertex   -2.083975e+001 -2.158019e+001 -1.250000e+001
    endloop
  endfacet
  facet normal 8.090170e-001 5.877853e-001 0.000000e+000
    outer loop
      vertex   -8.683230e+000 -8.991748e+000 -1.250000e+001
      vertex   -1.123493e+001 -5.479639e+000 -1.250000e+001
      vertex   -1.123493e+001 -5.479639e+000 1.250000e+001
    endloop
  endfacet
  facet normal 8.090170e-001 5.877853e-001 0.000000e+000
    outer loop
      vertex   -1.123493e+001 -5.479639e+000 1.250000e+001
      vertex   -8.683230e+000 -8.991748e+000 1.250000e+001
      vertex   -8.683230e+000 -8.991748e+000 -1.250000e+001
    endloop
  endfacet
  facet normal 0.000000e+000 0.000000e+000 -1.000000e+000
    outer loop
      vertex   -8.269121e+000 -2.883785e+001 -1.250000e+001
      vertex   -3.445467e+000 -1.201577e+001 -1.250000e+001
      vertex   8.719559e-001 -1.246955e+001 -1.250000e+001
    endloop
  endfacet
  facet normal 0.000000e+000 -0.000000e+000 -1.000000e+000
    outer loop
      vertex   8.719559e-001 -1.246955e+001 -1.250000e+001
      vertex   2.092694e+000 -2.992692e+001 -1.250000e+001
      vertex   -8.269121e+000 -2.883785e+001 -1.250000e+001
    endloop
  endfacet
  facet normal -9.612617e-001 2.756374e-001 0.000000e+000
    outer loop
      vertex   -3.445467e+000 -1.201577e+001 1.250000e+001
      vertex   -3.445467e+000 -1.201577e+001 -1.250000e+001
      vertex   -8.269121e+000 -2.883785e+001 -1.250000e+001
    endloop
  endfacet
  facet normal -9.612617e-001 2.756374e-001 0.000000e+000
    outer loop
      vertex   -8.269121e+000 -2.883785e+001 -1.250000e+001
      vertex   -8.269121e+000 -2.883785e+001 1.250000e+001
      vertex   -3.445467e+000 -1.201577e+001 1.250000e+001
    endloop
  endfacet
  facet normal -0.000000e+000 0.000000e+000 1.000000e+000
    outer loop
      vertex   -8.269121e+000 -2.883785e+001 1.250000e+001
      vertex   2.092694e+000 -2.992692e+001 1.250000e+001
      vertex   8.719559e-001 -1.246955e+001 1.250000e+001
    endloop
  endfacet
  facet normal 0.000000e+000 0.000000e+000 1.000000e+000
    outer loop
      vertex   8.719559e-001 -1.246955e+001 1.250000e+001
      vertex   -3.445467e+000 -1.201577e+001 1.250000e+001
      vertex   -8.269121e+000 -2.883785e+001 1.250000e+001
    endloop
  endfacet
  facet normal -1.045285e-001 -9.945219e-001 0.000000e+000
    outer loop
      vertex   2.092694e+000 -2.992692e+001 -1.250000e+001
      vertex   2.092694e+000 -2.992692e+001 1.250000e+001
      vertex   -8.269121e+000 -2.883785e+001 1.250000e+001
    endloop
  endfacet
  facet normal -1.045285e-001 -9.945219e-001 -0.000000e+000
    outer loop
      vertex   -8.269121e+000 -2.883785e+001 1.250000e+001
      vertex   -8.269121e+000 -2.883785e+001 -1.250000e+001
      vertex   2.092694e+000 -2.992692e+001 -1.250000e+001
    endloop
  endfacet
  facet normal 9.975641e-001 6.975647e-002 0.000000e+000
    outer loop
      vertex   2.092694e+000 -2.992692e+001 -1.250000e+001
      vertex   8.719559e-001 -1.246955e+001 -1.250000e+001
      vertex   8.719559e-001 -1.246955e+001 1.250000e+001
    endloop
  endfacet
  facet normal 9.975641e-001 6.975647e-002 0.000000e+000
    outer loop
      vertex   8.719559e-001 -1.246955e+001 1.250000e+001
      vertex   2.092694e+000 -2.992692e+001 1.250000e+001
      vertex   2.092694e+000 -2.992692e+001 -1.250000e+001
    endloop
  endfacet
  facet normal 1.045285e-001 9.945219e-001 0.000000e+000
    outer loop
      vertex   8.719559e-001 -1.246955e+001 -1.250000e+001
      vertex   -3.445467e+000 -1.201577e+001 -1.250000e+001
      vertex   -3.445467e+000 -1.201577e+001 1.250000e+001
    endloop
  endfacet
  facet normal 1.045285e-001 9.945219e-001 0.000000e+000
    outer loop
      vertex   -3.445467e+000 -1.201577e+001 1.250000e+001
      vertex   8.719559e-001 -1.246955e+001 1.250000e+001
      vertex   8.719559e-001 -1.246955e+001 -1.250000e+001
    endloop
  endfacet
  facet normal 0.000000e+000 0.000000e+000 -1.000000e+000
    outer loop
      vertex   1.589758e+001 -2.544144e+001 -1.250000e+001
      vertex   6.623991e+000 -1.060060e+001 -1.250000e+001
      vertex   9.850134e+000 -7.695768e+000 -1.250000e+001
    endloop
  endfacet
  facet normal 0.000000e+000 0.000000e+000 -1.000000e+000
    outer loop
      vertex   9.850134e+000 -7.695768e+000 -1.250000e+001
      vertex   2.364032e+001 -1.846984e+001 -1.250000e+001
      vertex   1.589758e+001 -2.544144e+001 -1.250000e+001
    endloop
  endfacet
  facet normal -8.480481e-001 -5.299193e-001 0.000000e+000
    outer loop
      vertex   6.623991e+000 -1.060060e+001 -1.250000e+001
      vertex   1.589758e+001 -2.544144e+001 -1.250000e+001
      vertex   1.589758e+001 -2.544144e+001 1.250000e+001
    endloop
  endfacet
  facet normal -8.480481e-001 -5.299193e-001 0.000000e+000
    outer loop
      vertex   1.589758e+001 -2.544144e+001 1.250000e+001
      vertex   6.623991e+000 -1.060060e+001 1.250000e+001
      vertex   6.623991e+000 -1.060060e+001 -1.250000e+001
    endloop
  endfacet
  facet normal 0.000000e+000 -0.000000e+000 1.000000e+000
    outer loop
      vertex   1.589758e+001 -2.544144e+001 1.250000e+001
      vertex   2.364032e+001 -1.846984e+001 1.250000e+001
      vertex   9.850134e+000 -7.695768e+000 1.250000e+001
    endloop
  endfacet
  facet normal 0.000000e+000 0.000000e+000 1.000000e+000
    outer loop
      vertex   9.850134e+000 -7.695768e+000 1.250000e+001
      vertex   6.623991e+000 -1.060060e+001 1.250000e+001
      vertex   1.589758e+001 -2.544144e+001 1.250000e+001
    endloop
  endfacet
  facet normal 6.691306e-001 -7.431448e-001 0.000000e+000
    outer loop
      vertex   2.364032e+001 -1.846984e+001 -1.250000e+001
      vertex   2.364032e+001 -1.846984e+001 1.250000e+001
      vertex   1.589758e+001 -2.544144e+001 1.250000e+001
    endloop
  endfacet
  facet normal 6.691306e-001 -7.431448e-001 0.000000e+000
    outer loop
      vertex   1.589758e+001 -2.544144e+001 1.250000e+001
      vertex   1.589758e+001 -2.544144e+001 -1.250000e+001
      vertex   2.364032e+001 -1.846984e+001 -1.250000e+001
    endloop
  endfacet
  facet normal 6.156615e-001 7.880108e-001 0.000000e+000
    outer loop
      vertex   2.364032e+001 -1.846984e+001 -1.250000e+001
      vertex   9.850134e+000 -7.695768e+000 -1.250000e+001
      vertex   9.850134e+000 -7.695768e+000 1.250000e+001
    endloop
  endfacet
  facet normal 6.156615e-001 7.880108e-001 0.000000e+000
    outer loop
      vertex   9.850134e+000 -7.695768e+000 1.250000e+001
      vertex   2.364032e+001 -1.846984e+001 1.250000e+001
      vertex   2.364032e+001 -1.846984e+001 -1.250000e+001
    endloop
  endfacet
  facet normal -6.691306e-001 7.431448e-001 0.000000e+000
    outer loop
      vertex   9.850134e+000 -7.695768e+000 -1.250000e+001
      vertex   6.623991e+000 -1.060060e+001 -1.250000e+001
      vertex   6.623991e+000 -1.060060e+001 1.250000e+001
    endloop
  endfacet
  facet normal -6.691306e-001 7.431448e-001 0.000000e+000
    outer loop
      vertex   6.623991e+000 -1.060060e+001 1.250000e+001
      vertex   9.850134e+000 -7.695768e+000 1.250000e+001
      vertex   9.850134e+000 -7.695768e+000 -1.250000e+001
    endloop
  endfacet
endsolid
