solid MorteroReductor
  facet normal 0.000000e+000 1.000000e+000 0.000000e+000
    outer loop
      vertex   1.004999e+003 7.369989e+002 1.079277e+003
      vertex   1.004999e+003 7.369989e+002 -8.569435e+002
      vertex   -1.004999e+003 7.369989e+002 -8.569435e+002
    endloop
  endfacet
  facet normal 0.000000e+000 1.000000e+000 0.000000e+000
    outer loop
      vertex   -1.004999e+003 7.369989e+002 -8.569435e+002
      vertex   -1.004999e+003 7.369989e+002 1.079277e+003
      vertex   1.004999e+003 7.369989e+002 1.079277e+003
    endloop
  endfacet
  facet normal -1.000000e+000 0.000000e+000 -0.000000e+000
    outer loop
      vertex   -1.004999e+003 7.369989e+002 1.079277e+003
      vertex   -1.004999e+003 7.369989e+002 -8.569435e+002
      vertex   -1.004999e+003 -7.369989e+002 -8.569435e+002
    endloop
  endfacet
  facet normal -1.000000e+000 0.000000e+000 0.000000e+000
    outer loop
      vertex   -1.004999e+003 -7.369989e+002 -8.569435e+002
      vertex   -1.004999e+003 -7.369989e+002 1.079277e+003
      vertex   -1.004999e+003 7.369989e+002 1.079277e+003
    endloop
  endfacet
  facet normal 0.000000e+000 -1.000000e+000 0.000000e+000
    outer loop
      vertex   -1.004999e+003 -7.369989e+002 1.079277e+003
      vertex   -1.004999e+003 -7.369989e+002 -8.569435e+002
      vertex   1.004999e+003 -7.369989e+002 -8.569435e+002
    endloop
  endfacet
  facet normal 0.000000e+000 -1.000000e+000 0.000000e+000
    outer loop
      vertex   1.004999e+003 -7.369989e+002 -8.569435e+002
      vertex   1.004999e+003 -7.369989e+002 1.079277e+003
      vertex   -1.004999e+003 -7.369989e+002 1.079277e+003
    endloop
  endfacet
  facet normal 1.000000e+000 0.000000e+000 0.000000e+000
    outer loop
      vertex   1.004999e+003 -7.369989e+002 1.079277e+003
      vertex   1.004999e+003 -7.369989e+002 -8.569435e+002
      vertex   1.004999e+003 7.369989e+002 -8.569435e+002
    endloop
  endfacet
  facet normal 1.000000e+000 0.000000e+000 -0.000000e+000
    outer loop
      vertex   1.004999e+003 7.369989e+002 -8.569435e+002
      vertex   1.004999e+003 7.369989e+002 1.079277e+003
      vertex   1.004999e+003 -7.369989e+002 1.079277e+003
    endloop
  endfacet
  facet normal -7.071068e-001 0.000000e+000 7.071068e-001
    outer loop
      vertex   1.004999e+003 7.369989e+002 1.079277e+003
      vertex   9.826652e+002 7.146656e+002 1.056944e+003
      vertex   9.826652e+002 -7.146656e+002 1.056944e+003
    endloop
  endfacet
  facet normal -7.071068e-001 0.000000e+000 7.071068e-001
    outer loop
      vertex   9.826652e+002 -7.146656e+002 1.056944e+003
      vertex   1.004999e+003 -7.369989e+002 1.079277e+003
      vertex   1.004999e+003 7.369989e+002 1.079277e+003
    endloop
  endfacet
  facet normal 0.000000e+000 -0.000000e+000 1.000000e+000
    outer loop
      vertex   9.826652e+002 -7.146656e+002 1.056944e+003
      vertex   9.826652e+002 7.146656e+002 1.056944e+003
      vertex   -9.826652e+002 7.146656e+002 1.056944e+003
    endloop
  endfacet
  facet normal 0.000000e+000 0.000000e+000 1.000000e+000
    outer loop
      vertex   -9.826652e+002 7.146656e+002 1.056944e+003
      vertex   -9.826652e+002 -7.146656e+002 1.056944e+003
      vertex   9.826652e+002 -7.146656e+002 1.056944e+003
    endloop
  endfacet
  facet normal 1.187725e-016 -7.071068e-001 7.071068e-001
    outer loop
      vertex   -1.004999e+003 7.369989e+002 1.079277e+003
      vertex   -9.826652e+002 7.146656e+002 1.056944e+003
      vertex   9.826652e+002 7.146656e+002 1.056944e+003
    endloop
  endfacet
  facet normal 0.000000e+000 -7.071068e-001 7.071068e-001
    outer loop
      vertex   9.826652e+002 7.146656e+002 1.056944e+003
      vertex   1.004999e+003 7.369989e+002 1.079277e+003
      vertex   -1.004999e+003 7.369989e+002 1.079277e+003
    endloop
  endfacet
  facet normal -0.000000e+000 7.071068e-001 7.071068e-001
    outer loop
      vertex   -1.004999e+003 -7.369989e+002 1.079277e+003
      vertex   1.004999e+003 -7.369989e+002 1.079277e+003
      vertex   9.826652e+002 -7.146656e+002 1.056944e+003
    endloop
  endfacet
  facet normal 0.000000e+000 7.071068e-001 7.071068e-001
    outer loop
      vertex   9.826652e+002 -7.146656e+002 1.056944e+003
      vertex   -9.826652e+002 -7.146656e+002 1.056944e+003
      vertex   -1.004999e+003 -7.369989e+002 1.079277e+003
    endloop
  endfacet
  facet normal 7.071068e-001 0.000000e+000 7.071068e-001
    outer loop
      vertex   -1.004999e+003 -7.369989e+002 1.079277e+003
      vertex   -9.826652e+002 -7.146656e+002 1.056944e+003
      vertex   -9.826652e+002 7.146656e+002 1.056944e+003
    endloop
  endfacet
  facet normal 7.071068e-001 0.000000e+000 7.071068e-001
    outer loop
      vertex   -9.826652e+002 7.146656e+002 1.056944e+003
      vertex   -1.004999e+003 7.369989e+002 1.079277e+003
      vertex   -1.004999e+003 -7.369989e+002 1.079277e+003
    endloop
  endfacet
  facet normal 0.000000e+000 0.000000e+000 1.000000e+000
    outer loop
      vertex   -1.100000e+003 8.000000e+002 -8.569435e+002
      vertex   -1.100000e+003 -8.000000e+002 -8.569435e+002
      vertex   -1.004999e+003 -7.369989e+002 -8.569435e+002
    endloop
  endfacet
  facet normal 0.000000e+000 0.000000e+000 1.000000e+000
    outer loop
      vertex   -1.100000e+003 -8.000000e+002 -8.569435e+002
      vertex   1.100000e+003 -8.000000e+002 -8.569435e+002
      vertex   1.004999e+003 -7.369989e+002 -8.569435e+002
    endloop
  endfacet
  facet normal 0.000000e+000 0.000000e+000 1.000000e+000
    outer loop
      vertex   1.004999e+003 -7.369989e+002 -8.569435e+002
      vertex   -1.004999e+003 -7.369989e+002 -8.569435e+002
      vertex   -1.100000e+003 -8.000000e+002 -8.569435e+002
    endloop
  endfacet
  facet normal 0.000000e+000 -0.000000e+000 1.000000e+000
    outer loop
      vertex   1.100000e+003 -8.000000e+002 -8.569435e+002
      vertex   1.100000e+003 8.000000e+002 -8.569435e+002
      vertex   1.004999e+003 7.369989e+002 -8.569435e+002
    endloop
  endfacet
  facet normal 0.000000e+000 0.000000e+000 1.000000e+000
    outer loop
      vertex   1.100000e+003 8.000000e+002 -8.569435e+002
      vertex   -1.100000e+003 8.000000e+002 -8.569435e+002
      vertex   -1.004999e+003 7.369989e+002 -8.569435e+002
    endloop
  endfacet
  facet normal 0.000000e+000 0.000000e+000 1.000000e+000
    outer loop
      vertex   1.004999e+003 7.369989e+002 -8.569435e+002
      vertex   1.004999e+003 -7.369989e+002 -8.569435e+002
      vertex   1.100000e+003 -8.000000e+002 -8.569435e+002
    endloop
  endfacet
  facet normal 0.000000e+000 -0.000000e+000 1.000000e+000
    outer loop
      vertex   -1.004999e+003 -7.369989e+002 -8.569435e+002
      vertex   -1.004999e+003 7.369989e+002 -8.569435e+002
      vertex   -1.100000e+003 8.000000e+002 -8.569435e+002
    endloop
  endfacet
  facet normal 0.000000e+000 0.000000e+000 1.000000e+000
    outer loop
      vertex   -1.004999e+003 7.369989e+002 -8.569435e+002
      vertex   1.004999e+003 7.369989e+002 -8.569435e+002
      vertex   1.100000e+003 8.000000e+002 -8.569435e+002
    endloop
  endfacet
  facet normal 1.000000e+000 0.000000e+000 0.000000e+000
    outer loop
      vertex   1.100000e+003 -8.000000e+002 -8.569435e+002
      vertex   1.100000e+003 -8.000000e+002 -1.056944e+003
      vertex   1.100000e+003 8.000000e+002 -1.056944e+003
    endloop
  endfacet
  facet normal 1.000000e+000 0.000000e+000 -0.000000e+000
    outer loop
      vertex   1.100000e+003 8.000000e+002 -1.056944e+003
      vertex   1.100000e+003 8.000000e+002 -8.569435e+002
      vertex   1.100000e+003 -8.000000e+002 -8.569435e+002
    endloop
  endfacet
  facet normal 0.000000e+000 -1.000000e+000 0.000000e+000
    outer loop
      vertex   -1.100000e+003 -8.000000e+002 -8.569435e+002
      vertex   -1.100000e+003 -8.000000e+002 -1.056944e+003
      vertex   1.100000e+003 -8.000000e+002 -1.056944e+003
    endloop
  endfacet
  facet normal 0.000000e+000 -1.000000e+000 0.000000e+000
    outer loop
      vertex   1.100000e+003 -8.000000e+002 -1.056944e+003
      vertex   1.100000e+003 -8.000000e+002 -8.569435e+002
      vertex   -1.100000e+003 -8.000000e+002 -8.569435e+002
    endloop
  endfacet
  facet normal -1.000000e+000 0.000000e+000 -0.000000e+000
    outer loop
      vertex   -1.100000e+003 8.000000e+002 -8.569435e+002
      vertex   -1.100000e+003 8.000000e+002 -1.056944e+003
      vertex   -1.100000e+003 -8.000000e+002 -1.056944e+003
    endloop
  endfacet
  facet normal -1.000000e+000 0.000000e+000 0.000000e+000
    outer loop
      vertex   -1.100000e+003 -8.000000e+002 -1.056944e+003
      vertex   -1.100000e+003 -8.000000e+002 -8.569435e+002
      vertex   -1.100000e+003 8.000000e+002 -8.569435e+002
    endloop
  endfacet
  facet normal 0.000000e+000 1.000000e+000 0.000000e+000
    outer loop
      vertex   1.100000e+003 8.000000e+002 -8.569435e+002
      vertex   1.100000e+003 8.000000e+002 -1.056944e+003
      vertex   -1.100000e+003 8.000000e+002 -1.056944e+003
    endloop
  endfacet
  facet normal 0.000000e+000 1.000000e+000 0.000000e+000
    outer loop
      vertex   -1.100000e+003 8.000000e+002 -1.056944e+003
      vertex   -1.100000e+003 8.000000e+002 -8.569435e+002
      vertex   1.100000e+003 8.000000e+002 -8.569435e+002
    endloop
  endfacet
  facet normal 0.000000e+000 0.000000e+000 -1.000000e+000
    outer loop
      vertex   -1.100000e+003 8.000000e+002 -1.056944e+003
      vertex   1.100000e+003 8.000000e+002 -1.056944e+003
      vertex   1.100000e+003 -8.000000e+002 -1.056944e+003
    endloop
  endfacet
  facet normal 0.000000e+000 0.000000e+000 -1.000000e+000
    outer loop
      vertex   1.100000e+003 -8.000000e+002 -1.056944e+003
      vertex   -1.100000e+003 -8.000000e+002 -1.056944e+003
      vertex   -1.100000e+003 8.000000e+002 -1.056944e+003
    endloop
  endfacet
endsolid
