solid CarcasaCojinete
  facet normal -9.438833e-001 0.000000e+000 3.302791e-001
    outer loop
      vertex   -1.462392e+001 -5.000000e+000 3.337814e+000
      vertex   -1.351453e+001 -5.000000e+000 6.508256e+000
      vertex   -1.351453e+001 5.000000e+000 6.508256e+000
    endloop
  endfacet
  facet normal -9.937122e-001 0.000000e+000 1.119645e-001
    outer loop
      vertex   -1.462392e+001 -5.000000e+000 3.337814e+000
      vertex   -1.462392e+001 5.000000e+000 3.337814e+000
      vertex   -1.500000e+001 5.000000e+000 0.000000e+000
    endloop
  endfacet
  facet normal -9.937122e-001 0.000000e+000 1.119645e-001
    outer loop
      vertex   -1.500000e+001 5.000000e+000 0.000000e+000
      vertex   -1.500000e+001 -5.000000e+000 0.000000e+000
      vertex   -1.462392e+001 -5.000000e+000 3.337814e+000
    endloop
  endfacet
  facet normal -7.071068e-001 0.000000e+000 7.071068e-001
    outer loop
      vertex   -1.172747e+001 -5.000000e+000 9.352347e+000
      vertex   -9.352347e+000 -5.000000e+000 1.172747e+001
      vertex   -9.352347e+000 5.000000e+000 1.172747e+001
    endloop
  endfacet
  facet normal -8.467242e-001 0.000000e+000 5.320321e-001
    outer loop
      vertex   -1.172747e+001 -5.000000e+000 9.352347e+000
      vertex   -1.172747e+001 5.000000e+000 9.352347e+000
      vertex   -1.351453e+001 5.000000e+000 6.508256e+000
    endloop
  endfacet
  facet normal -8.467242e-001 0.000000e+000 5.320321e-001
    outer loop
      vertex   -1.351453e+001 5.000000e+000 6.508256e+000
      vertex   -1.351453e+001 -5.000000e+000 6.508256e+000
      vertex   -1.172747e+001 -5.000000e+000 9.352347e+000
    endloop
  endfacet
  facet normal -3.302791e-001 0.000000e+000 9.438833e-001
    outer loop
      vertex   -6.508256e+000 -5.000000e+000 1.351453e+001
      vertex   -3.337814e+000 -5.000000e+000 1.462392e+001
      vertex   -3.337814e+000 5.000000e+000 1.462392e+001
    endloop
  endfacet
  facet normal -5.320321e-001 0.000000e+000 8.467242e-001
    outer loop
      vertex   -6.508256e+000 -5.000000e+000 1.351453e+001
      vertex   -6.508256e+000 5.000000e+000 1.351453e+001
      vertex   -9.352347e+000 5.000000e+000 1.172747e+001
    endloop
  endfacet
  facet normal -5.320321e-001 0.000000e+000 8.467242e-001
    outer loop
      vertex   -9.352347e+000 5.000000e+000 1.172747e+001
      vertex   -9.352347e+000 -5.000000e+000 1.172747e+001
      vertex   -6.508256e+000 -5.000000e+000 1.351453e+001
    endloop
  endfacet
  facet normal 1.119645e-001 0.000000e+000 9.937122e-001
    outer loop
      vertex   1.836970e-015 -5.000000e+000 1.500000e+001
      vertex   3.337814e+000 -5.000000e+000 1.462392e+001
      vertex   3.337814e+000 5.000000e+000 1.462392e+001
    endloop
  endfacet
  facet normal -1.119645e-001 0.000000e+000 9.937122e-001
    outer loop
      vertex   1.836970e-015 -5.000000e+000 1.500000e+001
      vertex   1.836970e-015 5.000000e+000 1.500000e+001
      vertex   -3.337814e+000 5.000000e+000 1.462392e+001
    endloop
  endfacet
  facet normal -1.119645e-001 0.000000e+000 9.937122e-001
    outer loop
      vertex   -3.337814e+000 5.000000e+000 1.462392e+001
      vertex   -3.337814e+000 -5.000000e+000 1.462392e+001
      vertex   1.836970e-015 -5.000000e+000 1.500000e+001
    endloop
  endfacet
  facet normal 5.320321e-001 0.000000e+000 8.467242e-001
    outer loop
      vertex   6.508256e+000 -5.000000e+000 1.351453e+001
      vertex   9.352347e+000 -5.000000e+000 1.172747e+001
      vertex   9.352347e+000 5.000000e+000 1.172747e+001
    endloop
  endfacet
  facet normal 3.302791e-001 -0.000000e+000 9.438833e-001
    outer loop
      vertex   6.508256e+000 -5.000000e+000 1.351453e+001
      vertex   6.508256e+000 5.000000e+000 1.351453e+001
      vertex   3.337814e+000 5.000000e+000 1.462392e+001
    endloop
  endfacet
  facet normal 3.302791e-001 0.000000e+000 9.438833e-001
    outer loop
      vertex   3.337814e+000 5.000000e+000 1.462392e+001
      vertex   3.337814e+000 -5.000000e+000 1.462392e+001
      vertex   6.508256e+000 -5.000000e+000 1.351453e+001
    endloop
  endfacet
  facet normal 8.467242e-001 0.000000e+000 5.320321e-001
    outer loop
      vertex   1.172747e+001 -5.000000e+000 9.352347e+000
      vertex   1.351453e+001 -5.000000e+000 6.508256e+000
      vertex   1.351453e+001 5.000000e+000 6.508256e+000
    endloop
  endfacet
  facet normal 7.071068e-001 -0.000000e+000 7.071068e-001
    outer loop
      vertex   1.172747e+001 -5.000000e+000 9.352347e+000
      vertex   1.172747e+001 5.000000e+000 9.352347e+000
      vertex   9.352347e+000 5.000000e+000 1.172747e+001
    endloop
  endfacet
  facet normal 7.071068e-001 0.000000e+000 7.071068e-001
    outer loop
      vertex   9.352347e+000 5.000000e+000 1.172747e+001
      vertex   9.352347e+000 -5.000000e+000 1.172747e+001
      vertex   1.172747e+001 -5.000000e+000 9.352347e+000
    endloop
  endfacet
  facet normal 9.937122e-001 0.000000e+000 1.119645e-001
    outer loop
      vertex   1.462392e+001 -5.000000e+000 3.337814e+000
      vertex   1.500000e+001 -5.000000e+000 0.000000e+000
      vertex   1.500000e+001 5.000000e+000 0.000000e+000
    endloop
  endfacet
  facet normal 9.438833e-001 -0.000000e+000 3.302791e-001
    outer loop
      vertex   1.462392e+001 -5.000000e+000 3.337814e+000
      vertex   1.462392e+001 5.000000e+000 3.337814e+000
      vertex   1.351453e+001 5.000000e+000 6.508256e+000
    endloop
  endfacet
  facet normal 9.438833e-001 0.000000e+000 3.302791e-001
    outer loop
      vertex   1.351453e+001 5.000000e+000 6.508256e+000
      vertex   1.351453e+001 -5.000000e+000 6.508256e+000
      vertex   1.462392e+001 -5.000000e+000 3.337814e+000
    endloop
  endfacet
  facet normal 9.937122e-001 0.000000e+000 1.119645e-001
    outer loop
      vertex   1.500000e+001 5.000000e+000 0.000000e+000
      vertex   1.462392e+001 5.000000e+000 3.337814e+000
      vertex   1.462392e+001 -5.000000e+000 3.337814e+000
    endloop
  endfacet
  facet normal 8.467242e-001 0.000000e+000 5.320321e-001
    outer loop
      vertex   1.351453e+001 5.000000e+000 6.508256e+000
      vertex   1.172747e+001 5.000000e+000 9.352347e+000
      vertex   1.172747e+001 -5.000000e+000 9.352347e+000
    endloop
  endfacet
  facet normal 5.320321e-001 0.000000e+000 8.467242e-001
    outer loop
      vertex   9.352347e+000 5.000000e+000 1.172747e+001
      vertex   6.508256e+000 5.000000e+000 1.351453e+001
      vertex   6.508256e+000 -5.000000e+000 1.351453e+001
    endloop
  endfacet
  facet normal 1.119645e-001 0.000000e+000 9.937122e-001
    outer loop
      vertex   3.337814e+000 5.000000e+000 1.462392e+001
      vertex   1.836970e-015 5.000000e+000 1.500000e+001
      vertex   1.836970e-015 -5.000000e+000 1.500000e+001
    endloop
  endfacet
  facet normal -3.302791e-001 0.000000e+000 9.438833e-001
    outer loop
      vertex   -3.337814e+000 5.000000e+000 1.462392e+001
      vertex   -6.508256e+000 5.000000e+000 1.351453e+001
      vertex   -6.508256e+000 -5.000000e+000 1.351453e+001
    endloop
  endfacet
  facet normal -7.071068e-001 0.000000e+000 7.071068e-001
    outer loop
      vertex   -9.352347e+000 5.000000e+000 1.172747e+001
      vertex   -1.172747e+001 5.000000e+000 9.352347e+000
      vertex   -1.172747e+001 -5.000000e+000 9.352347e+000
    endloop
  endfacet
  facet normal -9.438833e-001 0.000000e+000 3.302791e-001
    outer loop
      vertex   -1.351453e+001 5.000000e+000 6.508256e+000
      vertex   -1.462392e+001 5.000000e+000 3.337814e+000
      vertex   -1.462392e+001 -5.000000e+000 3.337814e+000
    endloop
  endfacet
  facet normal -1.000000e+000 0.000000e+000 0.000000e+000
    outer loop
      vertex   -1.500000e+001 -5.000000e+000 0.000000e+000
      vertex   -1.500000e+001 5.000000e+000 0.000000e+000
      vertex   -1.500000e+001 5.000000e+000 -3.192316e+001
    endloop
  endfacet
  facet normal -1.000000e+000 0.000000e+000 0.000000e+000
    outer loop
      vertex   -1.500000e+001 5.000000e+000 -3.192316e+001
      vertex   -1.500000e+001 -5.000000e+000 -3.192316e+001
      vertex   -1.500000e+001 -5.000000e+000 0.000000e+000
    endloop
  endfacet
  facet normal -9.659258e-001 -2.588190e-001 -0.000000e+000
    outer loop
      vertex   -1.500000e+001 -5.000000e+000 0.000000e+000
      vertex   -1.500000e+001 -5.000000e+000 -3.192316e+001
      vertex   -1.486603e+001 -5.500000e+000 -3.192316e+001
    endloop
  endfacet
  facet normal -7.071068e-001 -7.071068e-001 -1.729107e-016
    outer loop
      vertex   -1.486603e+001 -5.500000e+000 2.730845e-015
      vertex   -1.486603e+001 -5.500000e+000 -3.192316e+001
      vertex   -1.450000e+001 -5.866025e+000 -3.192316e+001
    endloop
  endfacet
  facet normal -2.588190e-001 -9.659258e-001 -8.250203e-017
    outer loop
      vertex   -1.450000e+001 -5.866025e+000 2.663607e-015
      vertex   -1.450000e+001 -5.866025e+000 -3.192316e+001
      vertex   -1.400000e+001 -6.000000e+000 -3.192316e+001
    endloop
  endfacet
  facet normal -2.588190e-001 -9.659258e-001 -2.812877e-017
    outer loop
      vertex   -1.400000e+001 -6.000000e+000 -3.192316e+001
      vertex   -1.400000e+001 -6.000000e+000 0.000000e+000
      vertex   -1.450000e+001 -5.866025e+000 2.663607e-015
    endloop
  endfacet
  facet normal -7.071068e-001 -7.071068e-001 -1.729107e-016
    outer loop
      vertex   -1.450000e+001 -5.866025e+000 -3.192316e+001
      vertex   -1.450000e+001 -5.866025e+000 2.663607e-015
      vertex   -1.486603e+001 -5.500000e+000 2.730845e-015
    endloop
  endfacet
  facet normal -9.659258e-001 -2.588190e-001 -2.169882e-016
    outer loop
      vertex   -1.486603e+001 -5.500000e+000 -3.192316e+001
      vertex   -1.486603e+001 -5.500000e+000 2.730845e-015
      vertex   -1.500000e+001 -5.000000e+000 0.000000e+000
    endloop
  endfacet
  facet normal 0.000000e+000 -1.000000e+000 0.000000e+000
    outer loop
      vertex   1.714506e-015 -6.000000e+000 1.400000e+001
      vertex   8.728857e+000 -6.000000e+000 1.094564e+001
      vertex   6.074372e+000 -6.000000e+000 1.261356e+001
    endloop
  endfacet
  facet normal 0.000000e+000 -1.000000e+000 0.000000e+000
    outer loop
      vertex   1.714506e-015 -6.000000e+000 1.400000e+001
      vertex   1.261356e+001 -6.000000e+000 6.074372e+000
      vertex   1.094564e+001 -6.000000e+000 8.728857e+000
    endloop
  endfacet
  facet normal 0.000000e+000 -1.000000e+000 0.000000e+000
    outer loop
      vertex   1.400000e+001 -6.000000e+000 0.000000e+000
      vertex   -3.115293e+000 -6.000000e+000 1.364899e+001
      vertex   -6.074372e+000 -6.000000e+000 1.261356e+001
    endloop
  endfacet
  facet normal 0.000000e+000 -1.000000e+000 0.000000e+000
    outer loop
      vertex   1.094564e+001 -6.000000e+000 8.728857e+000
      vertex   8.728857e+000 -6.000000e+000 1.094564e+001
      vertex   1.714506e-015 -6.000000e+000 1.400000e+001
    endloop
  endfacet
  facet normal 0.000000e+000 -1.000000e+000 0.000000e+000
    outer loop
      vertex   1.714506e-015 -6.000000e+000 1.400000e+001
      vertex   1.400000e+001 -6.000000e+000 0.000000e+000
      vertex   1.364899e+001 -6.000000e+000 3.115293e+000
    endloop
  endfacet
  facet normal 0.000000e+000 -1.000000e+000 0.000000e+000
    outer loop
      vertex   1.400000e+001 -6.000000e+000 0.000000e+000
      vertex   -1.261356e+001 -6.000000e+000 6.074372e+000
      vertex   -1.364899e+001 -6.000000e+000 3.115293e+000
    endloop
  endfacet
  facet normal 0.000000e+000 -1.000000e+000 0.000000e+000
    outer loop
      vertex   1.400000e+001 -6.000000e+000 0.000000e+000
      vertex   -8.728857e+000 -6.000000e+000 1.094564e+001
      vertex   -1.094564e+001 -6.000000e+000 8.728857e+000
    endloop
  endfacet
  facet normal 0.000000e+000 -1.000000e+000 0.000000e+000
    outer loop
      vertex   1.400000e+001 -6.000000e+000 0.000000e+000
      vertex   1.714506e-015 -6.000000e+000 1.400000e+001
      vertex   -3.115293e+000 -6.000000e+000 1.364899e+001
    endloop
  endfacet
  facet normal 0.000000e+000 -1.000000e+000 0.000000e+000
    outer loop
      vertex   1.364899e+001 -6.000000e+000 3.115293e+000
      vertex   1.261356e+001 -6.000000e+000 6.074372e+000
      vertex   1.714506e-015 -6.000000e+000 1.400000e+001
    endloop
  endfacet
  facet normal 0.000000e+000 -1.000000e+000 -0.000000e+000
    outer loop
      vertex   -1.094564e+001 -6.000000e+000 8.728857e+000
      vertex   -1.261356e+001 -6.000000e+000 6.074372e+000
      vertex   1.400000e+001 -6.000000e+000 0.000000e+000
    endloop
  endfacet
  facet normal 0.000000e+000 -1.000000e+000 0.000000e+000
    outer loop
      vertex   6.074372e+000 -6.000000e+000 1.261356e+001
      vertex   3.115293e+000 -6.000000e+000 1.364899e+001
      vertex   1.714506e-015 -6.000000e+000 1.400000e+001
    endloop
  endfacet
  facet normal 0.000000e+000 -1.000000e+000 0.000000e+000
    outer loop
      vertex   1.400000e+001 -6.000000e+000 -3.192316e+001
      vertex   1.400000e+001 -6.000000e+000 0.000000e+000
      vertex   -1.400000e+001 -6.000000e+000 0.000000e+000
    endloop
  endfacet
  facet normal 0.000000e+000 -1.000000e+000 -0.000000e+000
    outer loop
      vertex   -6.074372e+000 -6.000000e+000 1.261356e+001
      vertex   -8.728857e+000 -6.000000e+000 1.094564e+001
      vertex   1.400000e+001 -6.000000e+000 0.000000e+000
    endloop
  endfacet
  facet normal 0.000000e+000 -1.000000e+000 -0.000000e+000
    outer loop
      vertex   -1.364899e+001 -6.000000e+000 3.115293e+000
      vertex   -1.400000e+001 -6.000000e+000 0.000000e+000
      vertex   1.400000e+001 -6.000000e+000 0.000000e+000
    endloop
  endfacet
  facet normal 0.000000e+000 -1.000000e+000 0.000000e+000
    outer loop
      vertex   -1.400000e+001 -6.000000e+000 0.000000e+000
      vertex   -1.400000e+001 -6.000000e+000 -3.192316e+001
      vertex   1.400000e+001 -6.000000e+000 -3.192316e+001
    endloop
  endfacet
  facet normal 9.659258e-001 -2.588190e-001 3.516096e-017
    outer loop
      vertex   1.500000e+001 -5.000000e+000 -3.192316e+001
      vertex   1.500000e+001 -5.000000e+000 0.000000e+000
      vertex   1.486603e+001 -5.500000e+000 -9.102815e-016
    endloop
  endfacet
  facet normal 7.071068e-001 -7.071068e-001 -1.921230e-017
    outer loop
      vertex   1.486603e+001 -5.500000e+000 -3.192316e+001
      vertex   1.486603e+001 -5.500000e+000 -9.102815e-016
      vertex   1.450000e+001 -5.866025e+000 -8.878689e-016
    endloop
  endfacet
  facet normal 2.588190e-001 -9.659258e-001 -2.624450e-017
    outer loop
      vertex   1.450000e+001 -5.866025e+000 -3.192316e+001
      vertex   1.450000e+001 -5.866025e+000 -8.878689e-016
      vertex   1.400000e+001 -6.000000e+000 0.000000e+000
    endloop
  endfacet
  facet normal 2.588190e-001 -9.659258e-001 0.000000e+000
    outer loop
      vertex   1.400000e+001 -6.000000e+000 0.000000e+000
      vertex   1.400000e+001 -6.000000e+000 -3.192316e+001
      vertex   1.450000e+001 -5.866025e+000 -3.192316e+001
    endloop
  endfacet
  facet normal 7.071068e-001 -7.071068e-001 -1.921230e-017
    outer loop
      vertex   1.450000e+001 -5.866025e+000 -8.878689e-016
      vertex   1.450000e+001 -5.866025e+000 -3.192316e+001
      vertex   1.486603e+001 -5.500000e+000 -3.192316e+001
    endloop
  endfacet
  facet normal 9.659258e-001 -2.588190e-001 -7.032191e-018
    outer loop
      vertex   1.486603e+001 -5.500000e+000 -9.102815e-016
      vertex   1.486603e+001 -5.500000e+000 -3.192316e+001
      vertex   1.500000e+001 -5.000000e+000 -3.192316e+001
    endloop
  endfacet
  facet normal 9.602556e-001 -2.572997e-001 1.081948e-001
    outer loop
      vertex   1.486603e+001 -5.500000e+000 -9.102815e-016
      vertex   1.500000e+001 -5.000000e+000 0.000000e+000
      vertex   1.462392e+001 -5.000000e+000 3.337814e+000
    endloop
  endfacet
  facet normal 7.048732e-001 -7.048732e-001 7.942014e-002
    outer loop
      vertex   1.450000e+001 -5.866025e+000 -8.878689e-016
      vertex   1.486603e+001 -5.500000e+000 -9.102815e-016
      vertex   1.449330e+001 -5.500000e+000 3.308002e+000
    endloop
  endfacet
  facet normal 2.587091e-001 -9.655154e-001 2.914951e-002
    outer loop
      vertex   1.400000e+001 -6.000000e+000 0.000000e+000
      vertex   1.450000e+001 -5.866025e+000 -8.878689e-016
      vertex   1.413645e+001 -5.866025e+000 3.226554e+000
    endloop
  endfacet
  facet normal 9.121043e-001 -2.572997e-001 3.191591e-001
    outer loop
      vertex   1.449330e+001 -5.500000e+000 3.308002e+000
      vertex   1.462392e+001 -5.000000e+000 3.337814e+000
      vertex   1.351453e+001 -5.000000e+000 6.508256e+000
    endloop
  endfacet
  facet normal 6.695279e-001 -7.048732e-001 2.342779e-001
    outer loop
      vertex   1.413645e+001 -5.866025e+000 3.226554e+000
      vertex   1.449330e+001 -5.500000e+000 3.308002e+000
      vertex   1.339383e+001 -5.500000e+000 6.450127e+000
    endloop
  endfacet
  facet normal 2.457363e-001 -9.655154e-001 8.598685e-002
    outer loop
      vertex   1.364899e+001 -6.000000e+000 3.115293e+000
      vertex   1.413645e+001 -5.866025e+000 3.226554e+000
      vertex   1.306405e+001 -5.866025e+000 6.291314e+000
    endloop
  endfacet
  facet normal 8.182164e-001 -2.572997e-001 5.141194e-001
    outer loop
      vertex   1.339383e+001 -5.500000e+000 6.450127e+000
      vertex   1.351453e+001 -5.000000e+000 6.508256e+000
      vertex   1.172747e+001 -5.000000e+000 9.352347e+000
    endloop
  endfacet
  facet normal 6.006097e-001 -7.048732e-001 3.773881e-001
    outer loop
      vertex   1.306405e+001 -5.866025e+000 6.291314e+000
      vertex   1.339383e+001 -5.500000e+000 6.450127e+000
      vertex   1.162273e+001 -5.500000e+000 9.268815e+000
    endloop
  endfacet
  facet normal 2.204413e-001 -9.655154e-001 1.385125e-001
    outer loop
      vertex   1.261356e+001 -6.000000e+000 6.074372e+000
      vertex   1.306405e+001 -5.866025e+000 6.291314e+000
      vertex   1.133656e+001 -5.866025e+000 9.040602e+000
    endloop
  endfacet
  facet normal 6.832997e-001 -2.572997e-001 6.832997e-001
    outer loop
      vertex   1.162273e+001 -5.500000e+000 9.268815e+000
      vertex   1.172747e+001 -5.000000e+000 9.352347e+000
      vertex   9.352347e+000 -5.000000e+000 1.172747e+001
    endloop
  endfacet
  facet normal 5.015744e-001 -7.048732e-001 5.015744e-001
    outer loop
      vertex   1.133656e+001 -5.866025e+000 9.040602e+000
      vertex   1.162273e+001 -5.500000e+000 9.268815e+000
      vertex   9.268815e+000 -5.500000e+000 1.162273e+001
    endloop
  endfacet
  facet normal 1.840925e-001 -9.655154e-001 1.840925e-001
    outer loop
      vertex   1.094564e+001 -6.000000e+000 8.728857e+000
      vertex   1.133656e+001 -5.866025e+000 9.040602e+000
      vertex   9.040602e+000 -5.866025e+000 1.133656e+001
    endloop
  endfacet
  facet normal 5.141194e-001 -2.572997e-001 8.182164e-001
    outer loop
      vertex   9.268815e+000 -5.500000e+000 1.162273e+001
      vertex   9.352347e+000 -5.000000e+000 1.172747e+001
      vertex   6.508256e+000 -5.000000e+000 1.351453e+001
    endloop
  endfacet
  facet normal 3.773881e-001 -7.048732e-001 6.006097e-001
    outer loop
      vertex   9.040602e+000 -5.866025e+000 1.133656e+001
      vertex   9.268815e+000 -5.500000e+000 1.162273e+001
      vertex   6.450127e+000 -5.500000e+000 1.339383e+001
    endloop
  endfacet
  facet normal 1.385125e-001 -9.655154e-001 2.204413e-001
    outer loop
      vertex   8.728857e+000 -6.000000e+000 1.094564e+001
      vertex   9.040602e+000 -5.866025e+000 1.133656e+001
      vertex   6.291314e+000 -5.866025e+000 1.306405e+001
    endloop
  endfacet
  facet normal 3.191591e-001 -2.572997e-001 9.121043e-001
    outer loop
      vertex   6.450127e+000 -5.500000e+000 1.339383e+001
      vertex   6.508256e+000 -5.000000e+000 1.351453e+001
      vertex   3.337814e+000 -5.000000e+000 1.462392e+001
    endloop
  endfacet
  facet normal 2.342779e-001 -7.048732e-001 6.695279e-001
    outer loop
      vertex   6.291314e+000 -5.866025e+000 1.306405e+001
      vertex   6.450127e+000 -5.500000e+000 1.339383e+001
      vertex   3.308002e+000 -5.500000e+000 1.449330e+001
    endloop
  endfacet
  facet normal 8.598685e-002 -9.655154e-001 2.457363e-001
    outer loop
      vertex   6.074372e+000 -6.000000e+000 1.261356e+001
      vertex   6.291314e+000 -5.866025e+000 1.306405e+001
      vertex   3.226554e+000 -5.866025e+000 1.413645e+001
    endloop
  endfacet
  facet normal 1.081948e-001 -2.572997e-001 9.602556e-001
    outer loop
      vertex   3.308002e+000 -5.500000e+000 1.449330e+001
      vertex   3.337814e+000 -5.000000e+000 1.462392e+001
      vertex   1.836970e-015 -5.000000e+000 1.500000e+001
    endloop
  endfacet
  facet normal 7.942014e-002 -7.048732e-001 7.048732e-001
    outer loop
      vertex   3.226554e+000 -5.866025e+000 1.413645e+001
      vertex   3.308002e+000 -5.500000e+000 1.449330e+001
      vertex   1.820563e-015 -5.500000e+000 1.486603e+001
    endloop
  endfacet
  facet normal 2.914951e-002 -9.655154e-001 2.587091e-001
    outer loop
      vertex   3.115293e+000 -6.000000e+000 1.364899e+001
      vertex   3.226554e+000 -5.866025e+000 1.413645e+001
      vertex   1.775738e-015 -5.866025e+000 1.450000e+001
    endloop
  endfacet
  facet normal -1.081948e-001 -2.572997e-001 9.602556e-001
    outer loop
      vertex   1.820563e-015 -5.500000e+000 1.486603e+001
      vertex   1.836970e-015 -5.000000e+000 1.500000e+001
      vertex   -3.337814e+000 -5.000000e+000 1.462392e+001
    endloop
  endfacet
  facet normal -7.942014e-002 -7.048732e-001 7.048732e-001
    outer loop
      vertex   1.775738e-015 -5.866025e+000 1.450000e+001
      vertex   1.820563e-015 -5.500000e+000 1.486603e+001
      vertex   -3.308002e+000 -5.500000e+000 1.449330e+001
    endloop
  endfacet
  facet normal -2.914951e-002 -9.655154e-001 2.587091e-001
    outer loop
      vertex   1.714506e-015 -6.000000e+000 1.400000e+001
      vertex   1.775738e-015 -5.866025e+000 1.450000e+001
      vertex   -3.226554e+000 -5.866025e+000 1.413645e+001
    endloop
  endfacet
  facet normal -3.191591e-001 -2.572997e-001 9.121043e-001
    outer loop
      vertex   -3.308002e+000 -5.500000e+000 1.449330e+001
      vertex   -3.337814e+000 -5.000000e+000 1.462392e+001
      vertex   -6.508256e+000 -5.000000e+000 1.351453e+001
    endloop
  endfacet
  facet normal -2.342779e-001 -7.048732e-001 6.695279e-001
    outer loop
      vertex   -3.226554e+000 -5.866025e+000 1.413645e+001
      vertex   -3.308002e+000 -5.500000e+000 1.449330e+001
      vertex   -6.450127e+000 -5.500000e+000 1.339383e+001
    endloop
  endfacet
  facet normal -8.598685e-002 -9.655154e-001 2.457363e-001
    outer loop
      vertex   -3.115293e+000 -6.000000e+000 1.364899e+001
      vertex   -3.226554e+000 -5.866025e+000 1.413645e+001
      vertex   -6.291314e+000 -5.866025e+000 1.306405e+001
    endloop
  endfacet
  facet normal -5.141194e-001 -2.572997e-001 8.182164e-001
    outer loop
      vertex   -6.450127e+000 -5.500000e+000 1.339383e+001
      vertex   -6.508256e+000 -5.000000e+000 1.351453e+001
      vertex   -9.352347e+000 -5.000000e+000 1.172747e+001
    endloop
  endfacet
  facet normal -3.773881e-001 -7.048732e-001 6.006097e-001
    outer loop
      vertex   -6.291314e+000 -5.866025e+000 1.306405e+001
      vertex   -6.450127e+000 -5.500000e+000 1.339383e+001
      vertex   -9.268815e+000 -5.500000e+000 1.162273e+001
    endloop
  endfacet
  facet normal -1.385125e-001 -9.655154e-001 2.204413e-001
    outer loop
      vertex   -6.074372e+000 -6.000000e+000 1.261356e+001
      vertex   -6.291314e+000 -5.866025e+000 1.306405e+001
      vertex   -9.040602e+000 -5.866025e+000 1.133656e+001
    endloop
  endfacet
  facet normal -6.832997e-001 -2.572997e-001 6.832997e-001
    outer loop
      vertex   -9.268815e+000 -5.500000e+000 1.162273e+001
      vertex   -9.352347e+000 -5.000000e+000 1.172747e+001
      vertex   -1.172747e+001 -5.000000e+000 9.352347e+000
    endloop
  endfacet
  facet normal -5.015744e-001 -7.048732e-001 5.015744e-001
    outer loop
      vertex   -9.040602e+000 -5.866025e+000 1.133656e+001
      vertex   -9.268815e+000 -5.500000e+000 1.162273e+001
      vertex   -1.162273e+001 -5.500000e+000 9.268815e+000
    endloop
  endfacet
  facet normal -1.840925e-001 -9.655154e-001 1.840925e-001
    outer loop
      vertex   -8.728857e+000 -6.000000e+000 1.094564e+001
      vertex   -9.040602e+000 -5.866025e+000 1.133656e+001
      vertex   -1.133656e+001 -5.866025e+000 9.040602e+000
    endloop
  endfacet
  facet normal -8.182164e-001 -2.572997e-001 5.141194e-001
    outer loop
      vertex   -1.162273e+001 -5.500000e+000 9.268815e+000
      vertex   -1.172747e+001 -5.000000e+000 9.352347e+000
      vertex   -1.351453e+001 -5.000000e+000 6.508256e+000
    endloop
  endfacet
  facet normal -6.006097e-001 -7.048732e-001 3.773881e-001
    outer loop
      vertex   -1.133656e+001 -5.866025e+000 9.040602e+000
      vertex   -1.162273e+001 -5.500000e+000 9.268815e+000
      vertex   -1.339383e+001 -5.500000e+000 6.450127e+000
    endloop
  endfacet
  facet normal -2.204413e-001 -9.655154e-001 1.385125e-001
    outer loop
      vertex   -1.094564e+001 -6.000000e+000 8.728857e+000
      vertex   -1.133656e+001 -5.866025e+000 9.040602e+000
      vertex   -1.306405e+001 -5.866025e+000 6.291314e+000
    endloop
  endfacet
  facet normal -9.121043e-001 -2.572997e-001 3.191591e-001
    outer loop
      vertex   -1.339383e+001 -5.500000e+000 6.450127e+000
      vertex   -1.351453e+001 -5.000000e+000 6.508256e+000
      vertex   -1.462392e+001 -5.000000e+000 3.337814e+000
    endloop
  endfacet
  facet normal -6.695279e-001 -7.048732e-001 2.342779e-001
    outer loop
      vertex   -1.306405e+001 -5.866025e+000 6.291314e+000
      vertex   -1.339383e+001 -5.500000e+000 6.450127e+000
      vertex   -1.449330e+001 -5.500000e+000 3.308002e+000
    endloop
  endfacet
  facet normal -2.457363e-001 -9.655154e-001 8.598685e-002
    outer loop
      vertex   -1.261356e+001 -6.000000e+000 6.074372e+000
      vertex   -1.306405e+001 -5.866025e+000 6.291314e+000
      vertex   -1.413645e+001 -5.866025e+000 3.226554e+000
    endloop
  endfacet
  facet normal -9.602556e-001 -2.572997e-001 1.081948e-001
    outer loop
      vertex   -1.449330e+001 -5.500000e+000 3.308002e+000
      vertex   -1.462392e+001 -5.000000e+000 3.337814e+000
      vertex   -1.500000e+001 -5.000000e+000 0.000000e+000
    endloop
  endfacet
  facet normal -7.048732e-001 -7.048732e-001 7.942014e-002
    outer loop
      vertex   -1.413645e+001 -5.866025e+000 3.226554e+000
      vertex   -1.449330e+001 -5.500000e+000 3.308002e+000
      vertex   -1.486603e+001 -5.500000e+000 2.730845e-015
    endloop
  endfacet
  facet normal -2.587091e-001 -9.655154e-001 2.914951e-002
    outer loop
      vertex   -1.364899e+001 -6.000000e+000 3.115293e+000
      vertex   -1.413645e+001 -5.866025e+000 3.226554e+000
      vertex   -1.450000e+001 -5.866025e+000 2.663607e-015
    endloop
  endfacet
  facet normal -2.587091e-001 -9.655154e-001 2.914951e-002
    outer loop
      vertex   -1.450000e+001 -5.866025e+000 2.663607e-015
      vertex   -1.400000e+001 -6.000000e+000 0.000000e+000
      vertex   -1.364899e+001 -6.000000e+000 3.115293e+000
    endloop
  endfacet
  facet normal -7.048732e-001 -7.048732e-001 7.942014e-002
    outer loop
      vertex   -1.486603e+001 -5.500000e+000 2.730845e-015
      vertex   -1.450000e+001 -5.866025e+000 2.663607e-015
      vertex   -1.413645e+001 -5.866025e+000 3.226554e+000
    endloop
  endfacet
  facet normal -9.602556e-001 -2.572997e-001 1.081948e-001
    outer loop
      vertex   -1.500000e+001 -5.000000e+000 0.000000e+000
      vertex   -1.486603e+001 -5.500000e+000 2.730845e-015
      vertex   -1.449330e+001 -5.500000e+000 3.308002e+000
    endloop
  endfacet
  facet normal -2.457363e-001 -9.655154e-001 8.598685e-002
    outer loop
      vertex   -1.413645e+001 -5.866025e+000 3.226554e+000
      vertex   -1.364899e+001 -6.000000e+000 3.115293e+000
      vertex   -1.261356e+001 -6.000000e+000 6.074372e+000
    endloop
  endfacet
  facet normal -6.695279e-001 -7.048732e-001 2.342779e-001
    outer loop
      vertex   -1.449330e+001 -5.500000e+000 3.308002e+000
      vertex   -1.413645e+001 -5.866025e+000 3.226554e+000
      vertex   -1.306405e+001 -5.866025e+000 6.291314e+000
    endloop
  endfacet
  facet normal -9.121043e-001 -2.572997e-001 3.191591e-001
    outer loop
      vertex   -1.462392e+001 -5.000000e+000 3.337814e+000
      vertex   -1.449330e+001 -5.500000e+000 3.308002e+000
      vertex   -1.339383e+001 -5.500000e+000 6.450127e+000
    endloop
  endfacet
  facet normal -2.204413e-001 -9.655154e-001 1.385125e-001
    outer loop
      vertex   -1.306405e+001 -5.866025e+000 6.291314e+000
      vertex   -1.261356e+001 -6.000000e+000 6.074372e+000
      vertex   -1.094564e+001 -6.000000e+000 8.728857e+000
    endloop
  endfacet
  facet normal -6.006097e-001 -7.048732e-001 3.773881e-001
    outer loop
      vertex   -1.339383e+001 -5.500000e+000 6.450127e+000
      vertex   -1.306405e+001 -5.866025e+000 6.291314e+000
      vertex   -1.133656e+001 -5.866025e+000 9.040602e+000
    endloop
  endfacet
  facet normal -8.182164e-001 -2.572997e-001 5.141194e-001
    outer loop
      vertex   -1.351453e+001 -5.000000e+000 6.508256e+000
      vertex   -1.339383e+001 -5.500000e+000 6.450127e+000
      vertex   -1.162273e+001 -5.500000e+000 9.268815e+000
    endloop
  endfacet
  facet normal -1.840925e-001 -9.655154e-001 1.840925e-001
    outer loop
      vertex   -1.133656e+001 -5.866025e+000 9.040602e+000
      vertex   -1.094564e+001 -6.000000e+000 8.728857e+000
      vertex   -8.728857e+000 -6.000000e+000 1.094564e+001
    endloop
  endfacet
  facet normal -5.015744e-001 -7.048732e-001 5.015744e-001
    outer loop
      vertex   -1.162273e+001 -5.500000e+000 9.268815e+000
      vertex   -1.133656e+001 -5.866025e+000 9.040602e+000
      vertex   -9.040602e+000 -5.866025e+000 1.133656e+001
    endloop
  endfacet
  facet normal -6.832997e-001 -2.572997e-001 6.832997e-001
    outer loop
      vertex   -1.172747e+001 -5.000000e+000 9.352347e+000
      vertex   -1.162273e+001 -5.500000e+000 9.268815e+000
      vertex   -9.268815e+000 -5.500000e+000 1.162273e+001
    endloop
  endfacet
  facet normal -1.385125e-001 -9.655154e-001 2.204413e-001
    outer loop
      vertex   -9.040602e+000 -5.866025e+000 1.133656e+001
      vertex   -8.728857e+000 -6.000000e+000 1.094564e+001
      vertex   -6.074372e+000 -6.000000e+000 1.261356e+001
    endloop
  endfacet
  facet normal -3.773881e-001 -7.048732e-001 6.006097e-001
    outer loop
      vertex   -9.268815e+000 -5.500000e+000 1.162273e+001
      vertex   -9.040602e+000 -5.866025e+000 1.133656e+001
      vertex   -6.291314e+000 -5.866025e+000 1.306405e+001
    endloop
  endfacet
  facet normal -5.141194e-001 -2.572997e-001 8.182164e-001
    outer loop
      vertex   -9.352347e+000 -5.000000e+000 1.172747e+001
      vertex   -9.268815e+000 -5.500000e+000 1.162273e+001
      vertex   -6.450127e+000 -5.500000e+000 1.339383e+001
    endloop
  endfacet
  facet normal -8.598685e-002 -9.655154e-001 2.457363e-001
    outer loop
      vertex   -6.291314e+000 -5.866025e+000 1.306405e+001
      vertex   -6.074372e+000 -6.000000e+000 1.261356e+001
      vertex   -3.115293e+000 -6.000000e+000 1.364899e+001
    endloop
  endfacet
  facet normal -2.342779e-001 -7.048732e-001 6.695279e-001
    outer loop
      vertex   -6.450127e+000 -5.500000e+000 1.339383e+001
      vertex   -6.291314e+000 -5.866025e+000 1.306405e+001
      vertex   -3.226554e+000 -5.866025e+000 1.413645e+001
    endloop
  endfacet
  facet normal -3.191591e-001 -2.572997e-001 9.121043e-001
    outer loop
      vertex   -6.508256e+000 -5.000000e+000 1.351453e+001
      vertex   -6.450127e+000 -5.500000e+000 1.339383e+001
      vertex   -3.308002e+000 -5.500000e+000 1.449330e+001
    endloop
  endfacet
  facet normal -2.914951e-002 -9.655154e-001 2.587091e-001
    outer loop
      vertex   -3.226554e+000 -5.866025e+000 1.413645e+001
      vertex   -3.115293e+000 -6.000000e+000 1.364899e+001
      vertex   1.714506e-015 -6.000000e+000 1.400000e+001
    endloop
  endfacet
  facet normal -7.942014e-002 -7.048732e-001 7.048732e-001
    outer loop
      vertex   -3.308002e+000 -5.500000e+000 1.449330e+001
      vertex   -3.226554e+000 -5.866025e+000 1.413645e+001
      vertex   1.775738e-015 -5.866025e+000 1.450000e+001
    endloop
  endfacet
  facet normal -1.081948e-001 -2.572997e-001 9.602556e-001
    outer loop
      vertex   -3.337814e+000 -5.000000e+000 1.462392e+001
      vertex   -3.308002e+000 -5.500000e+000 1.449330e+001
      vertex   1.820563e-015 -5.500000e+000 1.486603e+001
    endloop
  endfacet
  facet normal 2.914951e-002 -9.655154e-001 2.587091e-001
    outer loop
      vertex   1.775738e-015 -5.866025e+000 1.450000e+001
      vertex   1.714506e-015 -6.000000e+000 1.400000e+001
      vertex   3.115293e+000 -6.000000e+000 1.364899e+001
    endloop
  endfacet
  facet normal 7.942014e-002 -7.048732e-001 7.048732e-001
    outer loop
      vertex   1.820563e-015 -5.500000e+000 1.486603e+001
      vertex   1.775738e-015 -5.866025e+000 1.450000e+001
      vertex   3.226554e+000 -5.866025e+000 1.413645e+001
    endloop
  endfacet
  facet normal 1.081948e-001 -2.572997e-001 9.602556e-001
    outer loop
      vertex   1.836970e-015 -5.000000e+000 1.500000e+001
      vertex   1.820563e-015 -5.500000e+000 1.486603e+001
      vertex   3.308002e+000 -5.500000e+000 1.449330e+001
    endloop
  endfacet
  facet normal 8.598685e-002 -9.655154e-001 2.457363e-001
    outer loop
      vertex   3.226554e+000 -5.866025e+000 1.413645e+001
      vertex   3.115293e+000 -6.000000e+000 1.364899e+001
      vertex   6.074372e+000 -6.000000e+000 1.261356e+001
    endloop
  endfacet
  facet normal 2.342779e-001 -7.048732e-001 6.695279e-001
    outer loop
      vertex   3.308002e+000 -5.500000e+000 1.449330e+001
      vertex   3.226554e+000 -5.866025e+000 1.413645e+001
      vertex   6.291314e+000 -5.866025e+000 1.306405e+001
    endloop
  endfacet
  facet normal 3.191591e-001 -2.572997e-001 9.121043e-001
    outer loop
      vertex   3.337814e+000 -5.000000e+000 1.462392e+001
      vertex   3.308002e+000 -5.500000e+000 1.449330e+001
      vertex   6.450127e+000 -5.500000e+000 1.339383e+001
    endloop
  endfacet
  facet normal 1.385125e-001 -9.655154e-001 2.204413e-001
    outer loop
      vertex   6.291314e+000 -5.866025e+000 1.306405e+001
      vertex   6.074372e+000 -6.000000e+000 1.261356e+001
      vertex   8.728857e+000 -6.000000e+000 1.094564e+001
    endloop
  endfacet
  facet normal 3.773881e-001 -7.048732e-001 6.006097e-001
    outer loop
      vertex   6.450127e+000 -5.500000e+000 1.339383e+001
      vertex   6.291314e+000 -5.866025e+000 1.306405e+001
      vertex   9.040602e+000 -5.866025e+000 1.133656e+001
    endloop
  endfacet
  facet normal 5.141194e-001 -2.572997e-001 8.182164e-001
    outer loop
      vertex   6.508256e+000 -5.000000e+000 1.351453e+001
      vertex   6.450127e+000 -5.500000e+000 1.339383e+001
      vertex   9.268815e+000 -5.500000e+000 1.162273e+001
    endloop
  endfacet
  facet normal 1.840925e-001 -9.655154e-001 1.840925e-001
    outer loop
      vertex   9.040602e+000 -5.866025e+000 1.133656e+001
      vertex   8.728857e+000 -6.000000e+000 1.094564e+001
      vertex   1.094564e+001 -6.000000e+000 8.728857e+000
    endloop
  endfacet
  facet normal 5.015744e-001 -7.048732e-001 5.015744e-001
    outer loop
      vertex   9.268815e+000 -5.500000e+000 1.162273e+001
      vertex   9.040602e+000 -5.866025e+000 1.133656e+001
      vertex   1.133656e+001 -5.866025e+000 9.040602e+000
    endloop
  endfacet
  facet normal 6.832997e-001 -2.572997e-001 6.832997e-001
    outer loop
      vertex   9.352347e+000 -5.000000e+000 1.172747e+001
      vertex   9.268815e+000 -5.500000e+000 1.162273e+001
      vertex   1.162273e+001 -5.500000e+000 9.268815e+000
    endloop
  endfacet
  facet normal 2.204413e-001 -9.655154e-001 1.385125e-001
    outer loop
      vertex   1.133656e+001 -5.866025e+000 9.040602e+000
      vertex   1.094564e+001 -6.000000e+000 8.728857e+000
      vertex   1.261356e+001 -6.000000e+000 6.074372e+000
    endloop
  endfacet
  facet normal 6.006097e-001 -7.048732e-001 3.773881e-001
    outer loop
      vertex   1.162273e+001 -5.500000e+000 9.268815e+000
      vertex   1.133656e+001 -5.866025e+000 9.040602e+000
      vertex   1.306405e+001 -5.866025e+000 6.291314e+000
    endloop
  endfacet
  facet normal 8.182164e-001 -2.572997e-001 5.141194e-001
    outer loop
      vertex   1.172747e+001 -5.000000e+000 9.352347e+000
      vertex   1.162273e+001 -5.500000e+000 9.268815e+000
      vertex   1.339383e+001 -5.500000e+000 6.450127e+000
    endloop
  endfacet
  facet normal 2.457363e-001 -9.655154e-001 8.598685e-002
    outer loop
      vertex   1.306405e+001 -5.866025e+000 6.291314e+000
      vertex   1.261356e+001 -6.000000e+000 6.074372e+000
      vertex   1.364899e+001 -6.000000e+000 3.115293e+000
    endloop
  endfacet
  facet normal 6.695279e-001 -7.048732e-001 2.342779e-001
    outer loop
      vertex   1.339383e+001 -5.500000e+000 6.450127e+000
      vertex   1.306405e+001 -5.866025e+000 6.291314e+000
      vertex   1.413645e+001 -5.866025e+000 3.226554e+000
    endloop
  endfacet
  facet normal 9.121043e-001 -2.572997e-001 3.191591e-001
    outer loop
      vertex   1.351453e+001 -5.000000e+000 6.508256e+000
      vertex   1.339383e+001 -5.500000e+000 6.450127e+000
      vertex   1.449330e+001 -5.500000e+000 3.308002e+000
    endloop
  endfacet
  facet normal 2.587091e-001 -9.655154e-001 2.914951e-002
    outer loop
      vertex   1.413645e+001 -5.866025e+000 3.226554e+000
      vertex   1.364899e+001 -6.000000e+000 3.115293e+000
      vertex   1.400000e+001 -6.000000e+000 0.000000e+000
    endloop
  endfacet
  facet normal 7.048732e-001 -7.048732e-001 7.942014e-002
    outer loop
      vertex   1.449330e+001 -5.500000e+000 3.308002e+000
      vertex   1.413645e+001 -5.866025e+000 3.226554e+000
      vertex   1.450000e+001 -5.866025e+000 -8.878689e-016
    endloop
  endfacet
  facet normal 9.602556e-001 -2.572997e-001 1.081948e-001
    outer loop
      vertex   1.462392e+001 -5.000000e+000 3.337814e+000
      vertex   1.449330e+001 -5.500000e+000 3.308002e+000
      vertex   1.486603e+001 -5.500000e+000 -9.102815e-016
    endloop
  endfacet
  facet normal 1.000000e+000 0.000000e+000 0.000000e+000
    outer loop
      vertex   1.500000e+001 5.000000e+000 -3.192316e+001
      vertex   1.500000e+001 5.000000e+000 0.000000e+000
      vertex   1.500000e+001 -5.000000e+000 0.000000e+000
    endloop
  endfacet
  facet normal 1.000000e+000 0.000000e+000 0.000000e+000
    outer loop
      vertex   1.500000e+001 -5.000000e+000 0.000000e+000
      vertex   1.500000e+001 -5.000000e+000 -3.192316e+001
      vertex   1.500000e+001 5.000000e+000 -3.192316e+001
    endloop
  endfacet
  facet normal 0.000000e+000 0.000000e+000 -1.000000e+000
    outer loop
      vertex   -1.400000e+001 6.000000e+000 -3.192316e+001
      vertex   -1.500000e+001 5.000000e+000 -3.192316e+001
      vertex   -1.486603e+001 5.500000e+000 -3.192316e+001
    endloop
  endfacet
  facet normal 0.000000e+000 -0.000000e+000 -1.000000e+000
    outer loop
      vertex   -1.400000e+001 6.000000e+000 -3.192316e+001
      vertex   -1.400000e+001 -6.000000e+000 -3.192316e+001
      vertex   -1.500000e+001 -5.000000e+000 -3.192316e+001
    endloop
  endfacet
  facet normal 0.000000e+000 0.000000e+000 -1.000000e+000
    outer loop
      vertex   -1.500000e+001 -5.000000e+000 -3.192316e+001
      vertex   -1.500000e+001 5.000000e+000 -3.192316e+001
      vertex   -1.400000e+001 6.000000e+000 -3.192316e+001
    endloop
  endfacet
  facet normal 0.000000e+000 0.000000e+000 -1.000000e+000
    outer loop
      vertex   -1.500000e+001 -5.000000e+000 -3.192316e+001
      vertex   -1.400000e+001 -6.000000e+000 -3.192316e+001
      vertex   -1.450000e+001 -5.866025e+000 -3.192316e+001
    endloop
  endfacet
  facet normal 0.000000e+000 0.000000e+000 -1.000000e+000
    outer loop
      vertex   1.400000e+001 -6.000000e+000 -3.192316e+001
      vertex   1.500000e+001 -5.000000e+000 -3.192316e+001
      vertex   1.486603e+001 -5.500000e+000 -3.192316e+001
    endloop
  endfacet
  facet normal 0.000000e+000 0.000000e+000 -1.000000e+000
    outer loop
      vertex   1.400000e+001 -6.000000e+000 -3.192316e+001
      vertex   1.400000e+001 6.000000e+000 -3.192316e+001
      vertex   1.500000e+001 5.000000e+000 -3.192316e+001
    endloop
  endfacet
  facet normal 0.000000e+000 0.000000e+000 -1.000000e+000
    outer loop
      vertex   -1.450000e+001 -5.866025e+000 -3.192316e+001
      vertex   -1.486603e+001 -5.500000e+000 -3.192316e+001
      vertex   -1.500000e+001 -5.000000e+000 -3.192316e+001
    endloop
  endfacet
  facet normal 0.000000e+000 0.000000e+000 -1.000000e+000
    outer loop
      vertex   1.400000e+001 -6.000000e+000 -3.192316e+001
      vertex   -1.400000e+001 -6.000000e+000 -3.192316e+001
      vertex   -1.400000e+001 6.000000e+000 -3.192316e+001
    endloop
  endfacet
  facet normal 0.000000e+000 -0.000000e+000 -1.000000e+000
    outer loop
      vertex   1.500000e+001 5.000000e+000 -3.192316e+001
      vertex   1.500000e+001 -5.000000e+000 -3.192316e+001
      vertex   1.400000e+001 -6.000000e+000 -3.192316e+001
    endloop
  endfacet
  facet normal 0.000000e+000 0.000000e+000 -1.000000e+000
    outer loop
      vertex   1.400000e+001 6.000000e+000 -3.192316e+001
      vertex   1.450000e+001 5.866025e+000 -3.192316e+001
      vertex   1.486603e+001 5.500000e+000 -3.192316e+001
    endloop
  endfacet
  facet normal 0.000000e+000 0.000000e+000 -1.000000e+000
    outer loop
      vertex   -1.400000e+001 6.000000e+000 -3.192316e+001
      vertex   1.400000e+001 6.000000e+000 -3.192316e+001
      vertex   1.400000e+001 -6.000000e+000 -3.192316e+001
    endloop
  endfacet
  facet normal -0.000000e+000 -0.000000e+000 -1.000000e+000
    outer loop
      vertex   1.486603e+001 5.500000e+000 -3.192316e+001
      vertex   1.500000e+001 5.000000e+000 -3.192316e+001
      vertex   1.400000e+001 6.000000e+000 -3.192316e+001
    endloop
  endfacet
  facet normal 0.000000e+000 0.000000e+000 -1.000000e+000
    outer loop
      vertex   1.486603e+001 -5.500000e+000 -3.192316e+001
      vertex   1.450000e+001 -5.866025e+000 -3.192316e+001
      vertex   1.400000e+001 -6.000000e+000 -3.192316e+001
    endloop
  endfacet
  facet normal 0.000000e+000 0.000000e+000 -1.000000e+000
    outer loop
      vertex   -1.486603e+001 5.500000e+000 -3.192316e+001
      vertex   -1.450000e+001 5.866025e+000 -3.192316e+001
      vertex   -1.400000e+001 6.000000e+000 -3.192316e+001
    endloop
  endfacet
  facet normal 0.000000e+000 1.000000e+000 0.000000e+000
    outer loop
      vertex   8.728857e+000 6.000000e+000 1.094564e+001
      vertex   1.261356e+001 6.000000e+000 6.074372e+000
      vertex   1.364899e+001 6.000000e+000 3.115293e+000
    endloop
  endfacet
  facet normal 0.000000e+000 1.000000e+000 0.000000e+000
    outer loop
      vertex   8.728857e+000 6.000000e+000 1.094564e+001
      vertex   1.094564e+001 6.000000e+000 8.728857e+000
      vertex   1.261356e+001 6.000000e+000 6.074372e+000
    endloop
  endfacet
  facet normal 7.139517e-017 1.000000e+000 1.136248e-016
    outer loop
      vertex   1.400000e+001 6.000000e+000 0.000000e+000
      vertex   6.074372e+000 6.000000e+000 1.261356e+001
      vertex   8.728857e+000 6.000000e+000 1.094564e+001
    endloop
  endfacet
  facet normal 7.866981e-018 1.000000e+000 6.982139e-017
    outer loop
      vertex   1.400000e+001 6.000000e+000 0.000000e+000
      vertex   1.714506e-015 6.000000e+000 1.400000e+001
      vertex   3.115293e+000 6.000000e+000 1.364899e+001
    endloop
  endfacet
  facet normal -2.160371e-017 1.000000e+000 3.438210e-017
    outer loop
      vertex   1.400000e+001 6.000000e+000 0.000000e+000
      vertex   -8.728857e+000 6.000000e+000 1.094564e+001
      vertex   -6.074372e+000 6.000000e+000 1.261356e+001
    endloop
  endfacet
  facet normal 3.084296e-017 1.000000e+000 8.814413e-017
    outer loop
      vertex   3.115293e+000 6.000000e+000 1.364899e+001
      vertex   6.074372e+000 6.000000e+000 1.261356e+001
      vertex   1.400000e+001 6.000000e+000 0.000000e+000
    endloop
  endfacet
  facet normal -1.545497e-017 1.000000e+000 4.416776e-017
    outer loop
      vertex   -6.074372e+000 6.000000e+000 1.261356e+001
      vertex   -3.115293e+000 6.000000e+000 1.364899e+001
      vertex   1.400000e+001 6.000000e+000 0.000000e+000
    endloop
  endfacet
  facet normal -2.850318e-017 1.000000e+000 1.790974e-017
    outer loop
      vertex   1.400000e+001 6.000000e+000 0.000000e+000
      vertex   -1.261356e+001 6.000000e+000 6.074372e+000
      vertex   -1.094564e+001 6.000000e+000 8.728857e+000
    endloop
  endfacet
  facet normal 0.000000e+000 1.000000e+000 2.784206e-016
    outer loop
      vertex   1.400000e+001 6.000000e+000 0.000000e+000
      vertex   -1.400000e+001 6.000000e+000 0.000000e+000
      vertex   -1.364899e+001 6.000000e+000 3.115293e+000
    endloop
  endfacet
  facet normal -6.273708e-018 1.000000e+000 5.568070e-017
    outer loop
      vertex   -3.115293e+000 6.000000e+000 1.364899e+001
      vertex   1.714506e-015 6.000000e+000 1.400000e+001
      vertex   1.400000e+001 6.000000e+000 0.000000e+000
    endloop
  endfacet
  facet normal -3.018057e-017 1.000000e+000 1.056064e-017
    outer loop
      vertex   -1.364899e+001 6.000000e+000 3.115293e+000
      vertex   -1.261356e+001 6.000000e+000 6.074372e+000
      vertex   1.400000e+001 6.000000e+000 0.000000e+000
    endloop
  endfacet
  facet normal 0.000000e+000 1.000000e+000 -2.717030e-017
    outer loop
      vertex   -1.400000e+001 6.000000e+000 -3.192316e+001
      vertex   -1.400000e+001 6.000000e+000 0.000000e+000
      vertex   1.400000e+001 6.000000e+000 0.000000e+000
    endloop
  endfacet
  facet normal -2.575723e-017 1.000000e+000 2.575723e-017
    outer loop
      vertex   -1.094564e+001 6.000000e+000 8.728857e+000
      vertex   -8.728857e+000 6.000000e+000 1.094564e+001
      vertex   1.400000e+001 6.000000e+000 0.000000e+000
    endloop
  endfacet
  facet normal 5.399214e-016 1.000000e+000 3.392551e-016
    outer loop
      vertex   1.364899e+001 6.000000e+000 3.115293e+000
      vertex   1.400000e+001 6.000000e+000 0.000000e+000
      vertex   8.728857e+000 6.000000e+000 1.094564e+001
    endloop
  endfacet
  facet normal -3.097720e-017 1.000000e+000 0.000000e+000
    outer loop
      vertex   1.400000e+001 6.000000e+000 0.000000e+000
      vertex   1.400000e+001 6.000000e+000 -3.192316e+001
      vertex   -1.400000e+001 6.000000e+000 -3.192316e+001
    endloop
  endfacet
  facet normal 9.659258e-001 2.588190e-001 4.219315e-017
    outer loop
      vertex   1.500000e+001 5.000000e+000 0.000000e+000
      vertex   1.500000e+001 5.000000e+000 -3.192316e+001
      vertex   1.486603e+001 5.500000e+000 -3.192316e+001
    endloop
  endfacet
  facet normal 7.071068e-001 7.071068e-001 -1.921230e-017
    outer loop
      vertex   1.486603e+001 5.500000e+000 -9.102815e-016
      vertex   1.486603e+001 5.500000e+000 -3.192316e+001
      vertex   1.450000e+001 5.866025e+000 -3.192316e+001
    endloop
  endfacet
  facet normal 2.588190e-001 9.659258e-001 0.000000e+000
    outer loop
      vertex   1.450000e+001 5.866025e+000 -8.878689e-016
      vertex   1.450000e+001 5.866025e+000 -3.192316e+001
      vertex   1.400000e+001 6.000000e+000 -3.192316e+001
    endloop
  endfacet
  facet normal 2.588190e-001 9.659258e-001 -0.000000e+000
    outer loop
      vertex   1.400000e+001 6.000000e+000 -3.192316e+001
      vertex   1.400000e+001 6.000000e+000 0.000000e+000
      vertex   1.450000e+001 5.866025e+000 -8.878689e-016
    endloop
  endfacet
  facet normal 7.071068e-001 7.071068e-001 -0.000000e+000
    outer loop
      vertex   1.450000e+001 5.866025e+000 -3.192316e+001
      vertex   1.450000e+001 5.866025e+000 -8.878689e-016
      vertex   1.486603e+001 5.500000e+000 -9.102815e-016
    endloop
  endfacet
  facet normal 9.659258e-001 2.588190e-001 -7.032191e-018
    outer loop
      vertex   1.486603e+001 5.500000e+000 -3.192316e+001
      vertex   1.486603e+001 5.500000e+000 -9.102815e-016
      vertex   1.500000e+001 5.000000e+000 0.000000e+000
    endloop
  endfacet
  facet normal 2.587091e-001 9.655154e-001 2.914951e-002
    outer loop
      vertex   1.450000e+001 5.866025e+000 -8.878689e-016
      vertex   1.400000e+001 6.000000e+000 0.000000e+000
      vertex   1.364899e+001 6.000000e+000 3.115293e+000
    endloop
  endfacet
  facet normal 7.048732e-001 7.048732e-001 7.942014e-002
    outer loop
      vertex   1.486603e+001 5.500000e+000 -9.102815e-016
      vertex   1.450000e+001 5.866025e+000 -8.878689e-016
      vertex   1.413645e+001 5.866025e+000 3.226554e+000
    endloop
  endfacet
  facet normal 9.602556e-001 2.572997e-001 1.081948e-001
    outer loop
      vertex   1.500000e+001 5.000000e+000 0.000000e+000
      vertex   1.486603e+001 5.500000e+000 -9.102815e-016
      vertex   1.449330e+001 5.500000e+000 3.308002e+000
    endloop
  endfacet
  facet normal 2.457363e-001 9.655154e-001 8.598685e-002
    outer loop
      vertex   1.413645e+001 5.866025e+000 3.226554e+000
      vertex   1.364899e+001 6.000000e+000 3.115293e+000
      vertex   1.261356e+001 6.000000e+000 6.074372e+000
    endloop
  endfacet
  facet normal 6.695279e-001 7.048732e-001 2.342779e-001
    outer loop
      vertex   1.449330e+001 5.500000e+000 3.308002e+000
      vertex   1.413645e+001 5.866025e+000 3.226554e+000
      vertex   1.306405e+001 5.866025e+000 6.291314e+000
    endloop
  endfacet
  facet normal 9.121043e-001 2.572997e-001 3.191591e-001
    outer loop
      vertex   1.462392e+001 5.000000e+000 3.337814e+000
      vertex   1.449330e+001 5.500000e+000 3.308002e+000
      vertex   1.339383e+001 5.500000e+000 6.450127e+000
    endloop
  endfacet
  facet normal 2.204413e-001 9.655154e-001 1.385125e-001
    outer loop
      vertex   1.306405e+001 5.866025e+000 6.291314e+000
      vertex   1.261356e+001 6.000000e+000 6.074372e+000
      vertex   1.094564e+001 6.000000e+000 8.728857e+000
    endloop
  endfacet
  facet normal 6.006097e-001 7.048732e-001 3.773881e-001
    outer loop
      vertex   1.339383e+001 5.500000e+000 6.450127e+000
      vertex   1.306405e+001 5.866025e+000 6.291314e+000
      vertex   1.133656e+001 5.866025e+000 9.040602e+000
    endloop
  endfacet
  facet normal 8.182164e-001 2.572997e-001 5.141194e-001
    outer loop
      vertex   1.351453e+001 5.000000e+000 6.508256e+000
      vertex   1.339383e+001 5.500000e+000 6.450127e+000
      vertex   1.162273e+001 5.500000e+000 9.268815e+000
    endloop
  endfacet
  facet normal 1.840925e-001 9.655154e-001 1.840925e-001
    outer loop
      vertex   1.133656e+001 5.866025e+000 9.040602e+000
      vertex   1.094564e+001 6.000000e+000 8.728857e+000
      vertex   8.728857e+000 6.000000e+000 1.094564e+001
    endloop
  endfacet
  facet normal 5.015744e-001 7.048732e-001 5.015744e-001
    outer loop
      vertex   1.162273e+001 5.500000e+000 9.268815e+000
      vertex   1.133656e+001 5.866025e+000 9.040602e+000
      vertex   9.040602e+000 5.866025e+000 1.133656e+001
    endloop
  endfacet
  facet normal 6.832997e-001 2.572997e-001 6.832997e-001
    outer loop
      vertex   1.172747e+001 5.000000e+000 9.352347e+000
      vertex   1.162273e+001 5.500000e+000 9.268815e+000
      vertex   9.268815e+000 5.500000e+000 1.162273e+001
    endloop
  endfacet
  facet normal 1.385125e-001 9.655154e-001 2.204413e-001
    outer loop
      vertex   9.040602e+000 5.866025e+000 1.133656e+001
      vertex   8.728857e+000 6.000000e+000 1.094564e+001
      vertex   6.074372e+000 6.000000e+000 1.261356e+001
    endloop
  endfacet
  facet normal 3.773881e-001 7.048732e-001 6.006097e-001
    outer loop
      vertex   9.268815e+000 5.500000e+000 1.162273e+001
      vertex   9.040602e+000 5.866025e+000 1.133656e+001
      vertex   6.291314e+000 5.866025e+000 1.306405e+001
    endloop
  endfacet
  facet normal 5.141194e-001 2.572997e-001 8.182164e-001
    outer loop
      vertex   9.352347e+000 5.000000e+000 1.172747e+001
      vertex   9.268815e+000 5.500000e+000 1.162273e+001
      vertex   6.450127e+000 5.500000e+000 1.339383e+001
    endloop
  endfacet
  facet normal 8.598685e-002 9.655154e-001 2.457363e-001
    outer loop
      vertex   6.291314e+000 5.866025e+000 1.306405e+001
      vertex   6.074372e+000 6.000000e+000 1.261356e+001
      vertex   3.115293e+000 6.000000e+000 1.364899e+001
    endloop
  endfacet
  facet normal 2.342779e-001 7.048732e-001 6.695279e-001
    outer loop
      vertex   6.450127e+000 5.500000e+000 1.339383e+001
      vertex   6.291314e+000 5.866025e+000 1.306405e+001
      vertex   3.226554e+000 5.866025e+000 1.413645e+001
    endloop
  endfacet
  facet normal 3.191591e-001 2.572997e-001 9.121043e-001
    outer loop
      vertex   6.508256e+000 5.000000e+000 1.351453e+001
      vertex   6.450127e+000 5.500000e+000 1.339383e+001
      vertex   3.308002e+000 5.500000e+000 1.449330e+001
    endloop
  endfacet
  facet normal 2.914951e-002 9.655154e-001 2.587091e-001
    outer loop
      vertex   3.226554e+000 5.866025e+000 1.413645e+001
      vertex   3.115293e+000 6.000000e+000 1.364899e+001
      vertex   1.714506e-015 6.000000e+000 1.400000e+001
    endloop
  endfacet
  facet normal 7.942014e-002 7.048732e-001 7.048732e-001
    outer loop
      vertex   3.308002e+000 5.500000e+000 1.449330e+001
      vertex   3.226554e+000 5.866025e+000 1.413645e+001
      vertex   1.775738e-015 5.866025e+000 1.450000e+001
    endloop
  endfacet
  facet normal 1.081948e-001 2.572997e-001 9.602556e-001
    outer loop
      vertex   3.337814e+000 5.000000e+000 1.462392e+001
      vertex   3.308002e+000 5.500000e+000 1.449330e+001
      vertex   1.820563e-015 5.500000e+000 1.486603e+001
    endloop
  endfacet
  facet normal -2.914951e-002 9.655154e-001 2.587091e-001
    outer loop
      vertex   1.775738e-015 5.866025e+000 1.450000e+001
      vertex   1.714506e-015 6.000000e+000 1.400000e+001
      vertex   -3.115293e+000 6.000000e+000 1.364899e+001
    endloop
  endfacet
  facet normal -7.942014e-002 7.048732e-001 7.048732e-001
    outer loop
      vertex   1.820563e-015 5.500000e+000 1.486603e+001
      vertex   1.775738e-015 5.866025e+000 1.450000e+001
      vertex   -3.226554e+000 5.866025e+000 1.413645e+001
    endloop
  endfacet
  facet normal -1.081948e-001 2.572997e-001 9.602556e-001
    outer loop
      vertex   1.836970e-015 5.000000e+000 1.500000e+001
      vertex   1.820563e-015 5.500000e+000 1.486603e+001
      vertex   -3.308002e+000 5.500000e+000 1.449330e+001
    endloop
  endfacet
  facet normal -8.598685e-002 9.655154e-001 2.457363e-001
    outer loop
      vertex   -3.226554e+000 5.866025e+000 1.413645e+001
      vertex   -3.115293e+000 6.000000e+000 1.364899e+001
      vertex   -6.074372e+000 6.000000e+000 1.261356e+001
    endloop
  endfacet
  facet normal -2.342779e-001 7.048732e-001 6.695279e-001
    outer loop
      vertex   -3.308002e+000 5.500000e+000 1.449330e+001
      vertex   -3.226554e+000 5.866025e+000 1.413645e+001
      vertex   -6.291314e+000 5.866025e+000 1.306405e+001
    endloop
  endfacet
  facet normal -3.191591e-001 2.572997e-001 9.121043e-001
    outer loop
      vertex   -3.337814e+000 5.000000e+000 1.462392e+001
      vertex   -3.308002e+000 5.500000e+000 1.449330e+001
      vertex   -6.450127e+000 5.500000e+000 1.339383e+001
    endloop
  endfacet
  facet normal -1.385125e-001 9.655154e-001 2.204413e-001
    outer loop
      vertex   -6.291314e+000 5.866025e+000 1.306405e+001
      vertex   -6.074372e+000 6.000000e+000 1.261356e+001
      vertex   -8.728857e+000 6.000000e+000 1.094564e+001
    endloop
  endfacet
  facet normal -3.773881e-001 7.048732e-001 6.006097e-001
    outer loop
      vertex   -6.450127e+000 5.500000e+000 1.339383e+001
      vertex   -6.291314e+000 5.866025e+000 1.306405e+001
      vertex   -9.040602e+000 5.866025e+000 1.133656e+001
    endloop
  endfacet
  facet normal -5.141194e-001 2.572997e-001 8.182164e-001
    outer loop
      vertex   -6.508256e+000 5.000000e+000 1.351453e+001
      vertex   -6.450127e+000 5.500000e+000 1.339383e+001
      vertex   -9.268815e+000 5.500000e+000 1.162273e+001
    endloop
  endfacet
  facet normal -1.840925e-001 9.655154e-001 1.840925e-001
    outer loop
      vertex   -9.040602e+000 5.866025e+000 1.133656e+001
      vertex   -8.728857e+000 6.000000e+000 1.094564e+001
      vertex   -1.094564e+001 6.000000e+000 8.728857e+000
    endloop
  endfacet
  facet normal -5.015744e-001 7.048732e-001 5.015744e-001
    outer loop
      vertex   -9.268815e+000 5.500000e+000 1.162273e+001
      vertex   -9.040602e+000 5.866025e+000 1.133656e+001
      vertex   -1.133656e+001 5.866025e+000 9.040602e+000
    endloop
  endfacet
  facet normal -6.832997e-001 2.572997e-001 6.832997e-001
    outer loop
      vertex   -9.352347e+000 5.000000e+000 1.172747e+001
      vertex   -9.268815e+000 5.500000e+000 1.162273e+001
      vertex   -1.162273e+001 5.500000e+000 9.268815e+000
    endloop
  endfacet
  facet normal -2.204413e-001 9.655154e-001 1.385125e-001
    outer loop
      vertex   -1.133656e+001 5.866025e+000 9.040602e+000
      vertex   -1.094564e+001 6.000000e+000 8.728857e+000
      vertex   -1.261356e+001 6.000000e+000 6.074372e+000
    endloop
  endfacet
  facet normal -6.006097e-001 7.048732e-001 3.773881e-001
    outer loop
      vertex   -1.162273e+001 5.500000e+000 9.268815e+000
      vertex   -1.133656e+001 5.866025e+000 9.040602e+000
      vertex   -1.306405e+001 5.866025e+000 6.291314e+000
    endloop
  endfacet
  facet normal -8.182164e-001 2.572997e-001 5.141194e-001
    outer loop
      vertex   -1.172747e+001 5.000000e+000 9.352347e+000
      vertex   -1.162273e+001 5.500000e+000 9.268815e+000
      vertex   -1.339383e+001 5.500000e+000 6.450127e+000
    endloop
  endfacet
  facet normal -2.457363e-001 9.655154e-001 8.598685e-002
    outer loop
      vertex   -1.306405e+001 5.866025e+000 6.291314e+000
      vertex   -1.261356e+001 6.000000e+000 6.074372e+000
      vertex   -1.364899e+001 6.000000e+000 3.115293e+000
    endloop
  endfacet
  facet normal -6.695279e-001 7.048732e-001 2.342779e-001
    outer loop
      vertex   -1.339383e+001 5.500000e+000 6.450127e+000
      vertex   -1.306405e+001 5.866025e+000 6.291314e+000
      vertex   -1.413645e+001 5.866025e+000 3.226554e+000
    endloop
  endfacet
  facet normal -9.121043e-001 2.572997e-001 3.191591e-001
    outer loop
      vertex   -1.351453e+001 5.000000e+000 6.508256e+000
      vertex   -1.339383e+001 5.500000e+000 6.450127e+000
      vertex   -1.449330e+001 5.500000e+000 3.308002e+000
    endloop
  endfacet
  facet normal -2.587091e-001 9.655154e-001 2.914951e-002
    outer loop
      vertex   -1.413645e+001 5.866025e+000 3.226554e+000
      vertex   -1.364899e+001 6.000000e+000 3.115293e+000
      vertex   -1.400000e+001 6.000000e+000 0.000000e+000
    endloop
  endfacet
  facet normal -7.048732e-001 7.048732e-001 7.942014e-002
    outer loop
      vertex   -1.449330e+001 5.500000e+000 3.308002e+000
      vertex   -1.413645e+001 5.866025e+000 3.226554e+000
      vertex   -1.450000e+001 5.866025e+000 2.663607e-015
    endloop
  endfacet
  facet normal -9.602556e-001 2.572997e-001 1.081948e-001
    outer loop
      vertex   -1.462392e+001 5.000000e+000 3.337814e+000
      vertex   -1.449330e+001 5.500000e+000 3.308002e+000
      vertex   -1.486603e+001 5.500000e+000 2.730845e-015
    endloop
  endfacet
  facet normal -9.602556e-001 2.572997e-001 1.081948e-001
    outer loop
      vertex   -1.486603e+001 5.500000e+000 2.730845e-015
      vertex   -1.500000e+001 5.000000e+000 0.000000e+000
      vertex   -1.462392e+001 5.000000e+000 3.337814e+000
    endloop
  endfacet
  facet normal -7.048732e-001 7.048732e-001 7.942014e-002
    outer loop
      vertex   -1.450000e+001 5.866025e+000 2.663607e-015
      vertex   -1.486603e+001 5.500000e+000 2.730845e-015
      vertex   -1.449330e+001 5.500000e+000 3.308002e+000
    endloop
  endfacet
  facet normal -2.587091e-001 9.655154e-001 2.914951e-002
    outer loop
      vertex   -1.400000e+001 6.000000e+000 0.000000e+000
      vertex   -1.450000e+001 5.866025e+000 2.663607e-015
      vertex   -1.413645e+001 5.866025e+000 3.226554e+000
    endloop
  endfacet
  facet normal -9.121043e-001 2.572997e-001 3.191591e-001
    outer loop
      vertex   -1.449330e+001 5.500000e+000 3.308002e+000
      vertex   -1.462392e+001 5.000000e+000 3.337814e+000
      vertex   -1.351453e+001 5.000000e+000 6.508256e+000
    endloop
  endfacet
  facet normal -6.695279e-001 7.048732e-001 2.342779e-001
    outer loop
      vertex   -1.413645e+001 5.866025e+000 3.226554e+000
      vertex   -1.449330e+001 5.500000e+000 3.308002e+000
      vertex   -1.339383e+001 5.500000e+000 6.450127e+000
    endloop
  endfacet
  facet normal -2.457363e-001 9.655154e-001 8.598685e-002
    outer loop
      vertex   -1.364899e+001 6.000000e+000 3.115293e+000
      vertex   -1.413645e+001 5.866025e+000 3.226554e+000
      vertex   -1.306405e+001 5.866025e+000 6.291314e+000
    endloop
  endfacet
  facet normal -8.182164e-001 2.572997e-001 5.141194e-001
    outer loop
      vertex   -1.339383e+001 5.500000e+000 6.450127e+000
      vertex   -1.351453e+001 5.000000e+000 6.508256e+000
      vertex   -1.172747e+001 5.000000e+000 9.352347e+000
    endloop
  endfacet
  facet normal -6.006097e-001 7.048732e-001 3.773881e-001
    outer loop
      vertex   -1.306405e+001 5.866025e+000 6.291314e+000
      vertex   -1.339383e+001 5.500000e+000 6.450127e+000
      vertex   -1.162273e+001 5.500000e+000 9.268815e+000
    endloop
  endfacet
  facet normal -2.204413e-001 9.655154e-001 1.385125e-001
    outer loop
      vertex   -1.261356e+001 6.000000e+000 6.074372e+000
      vertex   -1.306405e+001 5.866025e+000 6.291314e+000
      vertex   -1.133656e+001 5.866025e+000 9.040602e+000
    endloop
  endfacet
  facet normal -6.832997e-001 2.572997e-001 6.832997e-001
    outer loop
      vertex   -1.162273e+001 5.500000e+000 9.268815e+000
      vertex   -1.172747e+001 5.000000e+000 9.352347e+000
      vertex   -9.352347e+000 5.000000e+000 1.172747e+001
    endloop
  endfacet
  facet normal -5.015744e-001 7.048732e-001 5.015744e-001
    outer loop
      vertex   -1.133656e+001 5.866025e+000 9.040602e+000
      vertex   -1.162273e+001 5.500000e+000 9.268815e+000
      vertex   -9.268815e+000 5.500000e+000 1.162273e+001
    endloop
  endfacet
  facet normal -1.840925e-001 9.655154e-001 1.840925e-001
    outer loop
      vertex   -1.094564e+001 6.000000e+000 8.728857e+000
      vertex   -1.133656e+001 5.866025e+000 9.040602e+000
      vertex   -9.040602e+000 5.866025e+000 1.133656e+001
    endloop
  endfacet
  facet normal -5.141194e-001 2.572997e-001 8.182164e-001
    outer loop
      vertex   -9.268815e+000 5.500000e+000 1.162273e+001
      vertex   -9.352347e+000 5.000000e+000 1.172747e+001
      vertex   -6.508256e+000 5.000000e+000 1.351453e+001
    endloop
  endfacet
  facet normal -3.773881e-001 7.048732e-001 6.006097e-001
    outer loop
      vertex   -9.040602e+000 5.866025e+000 1.133656e+001
      vertex   -9.268815e+000 5.500000e+000 1.162273e+001
      vertex   -6.450127e+000 5.500000e+000 1.339383e+001
    endloop
  endfacet
  facet normal -1.385125e-001 9.655154e-001 2.204413e-001
    outer loop
      vertex   -8.728857e+000 6.000000e+000 1.094564e+001
      vertex   -9.040602e+000 5.866025e+000 1.133656e+001
      vertex   -6.291314e+000 5.866025e+000 1.306405e+001
    endloop
  endfacet
  facet normal -3.191591e-001 2.572997e-001 9.121043e-001
    outer loop
      vertex   -6.450127e+000 5.500000e+000 1.339383e+001
      vertex   -6.508256e+000 5.000000e+000 1.351453e+001
      vertex   -3.337814e+000 5.000000e+000 1.462392e+001
    endloop
  endfacet
  facet normal -2.342779e-001 7.048732e-001 6.695279e-001
    outer loop
      vertex   -6.291314e+000 5.866025e+000 1.306405e+001
      vertex   -6.450127e+000 5.500000e+000 1.339383e+001
      vertex   -3.308002e+000 5.500000e+000 1.449330e+001
    endloop
  endfacet
  facet normal -8.598685e-002 9.655154e-001 2.457363e-001
    outer loop
      vertex   -6.074372e+000 6.000000e+000 1.261356e+001
      vertex   -6.291314e+000 5.866025e+000 1.306405e+001
      vertex   -3.226554e+000 5.866025e+000 1.413645e+001
    endloop
  endfacet
  facet normal -1.081948e-001 2.572997e-001 9.602556e-001
    outer loop
      vertex   -3.308002e+000 5.500000e+000 1.449330e+001
      vertex   -3.337814e+000 5.000000e+000 1.462392e+001
      vertex   1.836970e-015 5.000000e+000 1.500000e+001
    endloop
  endfacet
  facet normal -7.942014e-002 7.048732e-001 7.048732e-001
    outer loop
      vertex   -3.226554e+000 5.866025e+000 1.413645e+001
      vertex   -3.308002e+000 5.500000e+000 1.449330e+001
      vertex   1.820563e-015 5.500000e+000 1.486603e+001
    endloop
  endfacet
  facet normal -2.914951e-002 9.655154e-001 2.587091e-001
    outer loop
      vertex   -3.115293e+000 6.000000e+000 1.364899e+001
      vertex   -3.226554e+000 5.866025e+000 1.413645e+001
      vertex   1.775738e-015 5.866025e+000 1.450000e+001
    endloop
  endfacet
  facet normal 1.081948e-001 2.572997e-001 9.602556e-001
    outer loop
      vertex   1.820563e-015 5.500000e+000 1.486603e+001
      vertex   1.836970e-015 5.000000e+000 1.500000e+001
      vertex   3.337814e+000 5.000000e+000 1.462392e+001
    endloop
  endfacet
  facet normal 7.942014e-002 7.048732e-001 7.048732e-001
    outer loop
      vertex   1.775738e-015 5.866025e+000 1.450000e+001
      vertex   1.820563e-015 5.500000e+000 1.486603e+001
      vertex   3.308002e+000 5.500000e+000 1.449330e+001
    endloop
  endfacet
  facet normal 2.914951e-002 9.655154e-001 2.587091e-001
    outer loop
      vertex   1.714506e-015 6.000000e+000 1.400000e+001
      vertex   1.775738e-015 5.866025e+000 1.450000e+001
      vertex   3.226554e+000 5.866025e+000 1.413645e+001
    endloop
  endfacet
  facet normal 3.191591e-001 2.572997e-001 9.121043e-001
    outer loop
      vertex   3.308002e+000 5.500000e+000 1.449330e+001
      vertex   3.337814e+000 5.000000e+000 1.462392e+001
      vertex   6.508256e+000 5.000000e+000 1.351453e+001
    endloop
  endfacet
  facet normal 2.342779e-001 7.048732e-001 6.695279e-001
    outer loop
      vertex   3.226554e+000 5.866025e+000 1.413645e+001
      vertex   3.308002e+000 5.500000e+000 1.449330e+001
      vertex   6.450127e+000 5.500000e+000 1.339383e+001
    endloop
  endfacet
  facet normal 8.598685e-002 9.655154e-001 2.457363e-001
    outer loop
      vertex   3.115293e+000 6.000000e+000 1.364899e+001
      vertex   3.226554e+000 5.866025e+000 1.413645e+001
      vertex   6.291314e+000 5.866025e+000 1.306405e+001
    endloop
  endfacet
  facet normal 5.141194e-001 2.572997e-001 8.182164e-001
    outer loop
      vertex   6.450127e+000 5.500000e+000 1.339383e+001
      vertex   6.508256e+000 5.000000e+000 1.351453e+001
      vertex   9.352347e+000 5.000000e+000 1.172747e+001
    endloop
  endfacet
  facet normal 3.773881e-001 7.048732e-001 6.006097e-001
    outer loop
      vertex   6.291314e+000 5.866025e+000 1.306405e+001
      vertex   6.450127e+000 5.500000e+000 1.339383e+001
      vertex   9.268815e+000 5.500000e+000 1.162273e+001
    endloop
  endfacet
  facet normal 1.385125e-001 9.655154e-001 2.204413e-001
    outer loop
      vertex   6.074372e+000 6.000000e+000 1.261356e+001
      vertex   6.291314e+000 5.866025e+000 1.306405e+001
      vertex   9.040602e+000 5.866025e+000 1.133656e+001
    endloop
  endfacet
  facet normal 6.832997e-001 2.572997e-001 6.832997e-001
    outer loop
      vertex   9.268815e+000 5.500000e+000 1.162273e+001
      vertex   9.352347e+000 5.000000e+000 1.172747e+001
      vertex   1.172747e+001 5.000000e+000 9.352347e+000
    endloop
  endfacet
  facet normal 5.015744e-001 7.048732e-001 5.015744e-001
    outer loop
      vertex   9.040602e+000 5.866025e+000 1.133656e+001
      vertex   9.268815e+000 5.500000e+000 1.162273e+001
      vertex   1.162273e+001 5.500000e+000 9.268815e+000
    endloop
  endfacet
  facet normal 1.840925e-001 9.655154e-001 1.840925e-001
    outer loop
      vertex   8.728857e+000 6.000000e+000 1.094564e+001
      vertex   9.040602e+000 5.866025e+000 1.133656e+001
      vertex   1.133656e+001 5.866025e+000 9.040602e+000
    endloop
  endfacet
  facet normal 8.182164e-001 2.572997e-001 5.141194e-001
    outer loop
      vertex   1.162273e+001 5.500000e+000 9.268815e+000
      vertex   1.172747e+001 5.000000e+000 9.352347e+000
      vertex   1.351453e+001 5.000000e+000 6.508256e+000
    endloop
  endfacet
  facet normal 6.006097e-001 7.048732e-001 3.773881e-001
    outer loop
      vertex   1.133656e+001 5.866025e+000 9.040602e+000
      vertex   1.162273e+001 5.500000e+000 9.268815e+000
      vertex   1.339383e+001 5.500000e+000 6.450127e+000
    endloop
  endfacet
  facet normal 2.204413e-001 9.655154e-001 1.385125e-001
    outer loop
      vertex   1.094564e+001 6.000000e+000 8.728857e+000
      vertex   1.133656e+001 5.866025e+000 9.040602e+000
      vertex   1.306405e+001 5.866025e+000 6.291314e+000
    endloop
  endfacet
  facet normal 9.121043e-001 2.572997e-001 3.191591e-001
    outer loop
      vertex   1.339383e+001 5.500000e+000 6.450127e+000
      vertex   1.351453e+001 5.000000e+000 6.508256e+000
      vertex   1.462392e+001 5.000000e+000 3.337814e+000
    endloop
  endfacet
  facet normal 6.695279e-001 7.048732e-001 2.342779e-001
    outer loop
      vertex   1.306405e+001 5.866025e+000 6.291314e+000
      vertex   1.339383e+001 5.500000e+000 6.450127e+000
      vertex   1.449330e+001 5.500000e+000 3.308002e+000
    endloop
  endfacet
  facet normal 2.457363e-001 9.655154e-001 8.598685e-002
    outer loop
      vertex   1.261356e+001 6.000000e+000 6.074372e+000
      vertex   1.306405e+001 5.866025e+000 6.291314e+000
      vertex   1.413645e+001 5.866025e+000 3.226554e+000
    endloop
  endfacet
  facet normal 9.602556e-001 2.572997e-001 1.081948e-001
    outer loop
      vertex   1.449330e+001 5.500000e+000 3.308002e+000
      vertex   1.462392e+001 5.000000e+000 3.337814e+000
      vertex   1.500000e+001 5.000000e+000 0.000000e+000
    endloop
  endfacet
  facet normal 7.048732e-001 7.048732e-001 7.942014e-002
    outer loop
      vertex   1.413645e+001 5.866025e+000 3.226554e+000
      vertex   1.449330e+001 5.500000e+000 3.308002e+000
      vertex   1.486603e+001 5.500000e+000 -9.102815e-016
    endloop
  endfacet
  facet normal 2.587091e-001 9.655154e-001 2.914951e-002
    outer loop
      vertex   1.364899e+001 6.000000e+000 3.115293e+000
      vertex   1.413645e+001 5.866025e+000 3.226554e+000
      vertex   1.450000e+001 5.866025e+000 -8.878689e-016
    endloop
  endfacet
  facet normal -9.659258e-001 2.588190e-001 0.000000e+000
    outer loop
      vertex   -1.500000e+001 5.000000e+000 -3.192316e+001
      vertex   -1.500000e+001 5.000000e+000 0.000000e+000
      vertex   -1.486603e+001 5.500000e+000 2.730845e-015
    endloop
  endfacet
  facet normal -7.071068e-001 7.071068e-001 -1.729107e-016
    outer loop
      vertex   -1.486603e+001 5.500000e+000 -3.192316e+001
      vertex   -1.486603e+001 5.500000e+000 2.730845e-015
      vertex   -1.450000e+001 5.866025e+000 2.663607e-015
    endloop
  endfacet
  facet normal -2.588190e-001 9.659258e-001 -5.625753e-017
    outer loop
      vertex   -1.450000e+001 5.866025e+000 -3.192316e+001
      vertex   -1.450000e+001 5.866025e+000 2.663607e-015
      vertex   -1.400000e+001 6.000000e+000 0.000000e+000
    endloop
  endfacet
  facet normal -2.588190e-001 9.659258e-001 -5.437326e-017
    outer loop
      vertex   -1.400000e+001 6.000000e+000 0.000000e+000
      vertex   -1.400000e+001 6.000000e+000 -3.192316e+001
      vertex   -1.450000e+001 5.866025e+000 -3.192316e+001
    endloop
  endfacet
  facet normal -7.071068e-001 7.071068e-001 -1.536984e-016
    outer loop
      vertex   -1.450000e+001 5.866025e+000 2.663607e-015
      vertex   -1.450000e+001 5.866025e+000 -3.192316e+001
      vertex   -1.486603e+001 5.500000e+000 -3.192316e+001
    endloop
  endfacet
  facet normal -9.659258e-001 2.588190e-001 -2.169882e-016
    outer loop
      vertex   -1.486603e+001 5.500000e+000 2.730845e-015
      vertex   -1.486603e+001 5.500000e+000 -3.192316e+001
      vertex   -1.500000e+001 5.000000e+000 -3.192316e+001
    endloop
  endfacet
endsolid
