solid Chumacera
  facet normal 0.000000e+000 0.000000e+000 -1.000000e+000
    outer loop
      vertex   5.892362e+001 2.031871e+001 3.640607e+001
      vertex   7.433758e+001 2.031871e+001 3.640607e+001
      vertex   7.433758e+001 -2.045860e+001 3.640607e+001
    endloop
  endfacet
  facet normal -0.000000e+000 0.000000e+000 -1.000000e+000
    outer loop
      vertex   7.433758e+001 -2.045860e+001 3.640607e+001
      vertex   5.892362e+001 -2.048755e+001 3.640607e+001
      vertex   5.892362e+001 2.031871e+001 3.640607e+001
    endloop
  endfacet
  facet normal -1.000000e+000 0.000000e+000 0.000000e+000
    outer loop
      vertex   7.433758e+001 -2.045860e+001 3.640607e+001
      vertex   7.433758e+001 2.031871e+001 3.640607e+001
      vertex   7.433758e+001 2.031871e+001 5.323173e+000
    endloop
  endfacet
  facet normal -1.000000e+000 3.403311e-016 4.464766e-016
    outer loop
      vertex   7.433758e+001 2.031871e+001 5.323173e+000
      vertex   7.433758e+001 -2.045860e+001 5.323173e+000
      vertex   7.433758e+001 -2.045860e+001 3.640607e+001
    endloop
  endfacet
  facet normal 0.000000e+000 0.000000e+000 -1.000000e+000
    outer loop
      vertex   9.000000e+001 -2.045860e+001 5.323173e+000
      vertex   7.433758e+001 -2.045860e+001 5.323173e+000
      vertex   7.433758e+001 2.031871e+001 5.323173e+000
    endloop
  endfacet
  facet normal 0.000000e+000 0.000000e+000 -1.000000e+000
    outer loop
      vertex   7.433758e+001 2.031871e+001 5.323173e+000
      vertex   9.000000e+001 2.031871e+001 5.323173e+000
      vertex   9.000000e+001 -2.045860e+001 5.323173e+000
    endloop
  endfacet
  facet normal -0.000000e+000 1.000000e+000 0.000000e+000
    outer loop
      vertex   7.433758e+001 -2.045860e+001 5.323173e+000
      vertex   9.000000e+001 -2.045860e+001 5.323173e+000
      vertex   9.000000e+001 -2.045860e+001 -5.010672e+001
    endloop
  endfacet
  facet normal 0.000000e+000 1.000000e+000 0.000000e+000
    outer loop
      vertex   9.000000e+001 -2.045860e+001 -5.010672e+001
      vertex   7.433758e+001 -2.045860e+001 -5.010672e+001
      vertex   7.433758e+001 -2.045860e+001 5.323173e+000
    endloop
  endfacet
  facet normal -4.430282e-016 -1.701656e-016 1.000000e+000
    outer loop
      vertex   7.433758e+001 2.031871e+001 -5.010672e+001
      vertex   7.433758e+001 -2.045860e+001 -5.010672e+001
      vertex   9.000000e+001 -2.045860e+001 -5.010672e+001
    endloop
  endfacet
  facet normal 0.000000e+000 -0.000000e+000 1.000000e+000
    outer loop
      vertex   9.000000e+001 -2.045860e+001 -5.010672e+001
      vertex   9.000000e+001 2.031871e+001 -5.010672e+001
      vertex   7.433758e+001 2.031871e+001 -5.010672e+001
    endloop
  endfacet
  facet normal -1.000000e+000 0.000000e+000 0.000000e+000
    outer loop
      vertex   7.433758e+001 2.031871e+001 -5.500000e+001
      vertex   7.433758e+001 -2.045860e+001 -5.500000e+001
      vertex   7.433758e+001 -2.045860e+001 -5.010672e+001
    endloop
  endfacet
  facet normal -1.000000e+000 0.000000e+000 0.000000e+000
    outer loop
      vertex   7.433758e+001 -2.045860e+001 -5.010672e+001
      vertex   7.433758e+001 2.031871e+001 -5.010672e+001
      vertex   7.433758e+001 2.031871e+001 -5.500000e+001
    endloop
  endfacet
  facet normal -1.000000e+000 -3.805893e-011 -0.000000e+000
    outer loop
      vertex   5.892362e+001 2.031871e+001 6.200816e+001
      vertex   5.892362e+001 2.031871e+001 3.640607e+001
      vertex   5.892362e+001 -2.048755e+001 3.640607e+001
    endloop
  endfacet
  facet normal -1.000000e+000 0.000000e+000 -6.066078e-011
    outer loop
      vertex   5.892362e+001 -2.048755e+001 3.640607e+001
      vertex   5.892362e+001 -2.048755e+001 6.200816e+001
      vertex   5.892362e+001 2.031871e+001 6.200816e+001
    endloop
  endfacet
  facet normal 0.000000e+000 0.000000e+000 -1.000000e+000
    outer loop
      vertex   -5.892362e+001 2.031871e+001 6.200816e+001
      vertex   5.892362e+001 2.031871e+001 6.200816e+001
      vertex   5.892362e+001 -2.048755e+001 6.200816e+001
    endloop
  endfacet
  facet normal 0.000000e+000 0.000000e+000 -1.000000e+000
    outer loop
      vertex   5.892362e+001 -2.048755e+001 6.200816e+001
      vertex   -5.892362e+001 -2.048755e+001 6.200816e+001
      vertex   -5.892362e+001 2.031871e+001 6.200816e+001
    endloop
  endfacet
  facet normal 1.000000e+000 0.000000e+000 0.000000e+000
    outer loop
      vertex   -5.892362e+001 -2.048755e+001 6.200816e+001
      vertex   -5.892362e+001 -2.048755e+001 3.640607e+001
      vertex   -5.892362e+001 2.031871e+001 3.640607e+001
    endloop
  endfacet
  facet normal 1.000000e+000 0.000000e+000 -0.000000e+000
    outer loop
      vertex   -5.892362e+001 2.031871e+001 3.640607e+001
      vertex   -5.892362e+001 2.031871e+001 6.200816e+001
      vertex   -5.892362e+001 -2.048755e+001 6.200816e+001
    endloop
  endfacet
  facet normal 0.000000e+000 1.000000e+000 0.000000e+000
    outer loop
      vertex   -5.892362e+001 -2.048755e+001 3.640607e+001
      vertex   -5.892362e+001 -2.048755e+001 6.200816e+001
      vertex   5.892362e+001 -2.048755e+001 6.200816e+001
    endloop
  endfacet
  facet normal -1.239433e-014 1.000000e+000 5.705149e-014
    outer loop
      vertex   5.892362e+001 -2.048755e+001 6.200816e+001
      vertex   5.892362e+001 -2.048755e+001 3.640607e+001
      vertex   -5.892362e+001 -2.048755e+001 3.640607e+001
    endloop
  endfacet
  facet normal 0.000000e+000 0.000000e+000 -1.000000e+000
    outer loop
      vertex   -7.559899e+001 2.031871e+001 3.640607e+001
      vertex   -5.892362e+001 2.031871e+001 3.640607e+001
      vertex   -5.892362e+001 -2.048755e+001 3.640607e+001
    endloop
  endfacet
  facet normal -0.000000e+000 0.000000e+000 -1.000000e+000
    outer loop
      vertex   -5.892362e+001 -2.048755e+001 3.640607e+001
      vertex   -7.559899e+001 -2.074018e+001 3.640607e+001
      vertex   -7.559899e+001 2.031871e+001 3.640607e+001
    endloop
  endfacet
  facet normal 0.000000e+000 -0.000000e+000 -1.000000e+000
    outer loop
      vertex   -5.892362e+001 -2.048755e+001 3.640607e+001
      vertex   5.892362e+001 -2.048755e+001 3.640607e+001
      vertex   -7.559899e+001 -2.074018e+001 3.640607e+001
    endloop
  endfacet
  facet normal 1.000000e+000 0.000000e+000 0.000000e+000
    outer loop
      vertex   -7.559899e+001 -2.074018e+001 3.640607e+001
      vertex   -7.559899e+001 -2.074018e+001 -5.500000e+001
      vertex   -7.559899e+001 2.031871e+001 -5.500000e+001
    endloop
  endfacet
  facet normal 1.000000e+000 0.000000e+000 -0.000000e+000
    outer loop
      vertex   -7.559899e+001 2.031871e+001 -5.500000e+001
      vertex   -7.559899e+001 2.031871e+001 3.640607e+001
      vertex   -7.559899e+001 -2.074018e+001 3.640607e+001
    endloop
  endfacet
  facet normal -0.000000e+000 -1.000000e+000 -1.215746e-016
    outer loop
      vertex   5.892362e+001 2.031871e+001 6.200816e+001
      vertex   -5.892362e+001 2.031871e+001 6.200816e+001
      vertex   -3.534773e+000 2.031871e+001 3.347057e+001
    endloop
  endfacet
  facet normal 6.605578e-017 -1.000000e+000 -2.146282e-017
    outer loop
      vertex   -5.892362e+001 2.031871e+001 3.640607e+001
      vertex   -1.044460e+001 2.031871e+001 2.396000e+001
      vertex   -8.534773e+000 2.031871e+001 2.983785e+001
    endloop
  endfacet
  facet normal 3.664878e-017 -1.000000e+000 -5.044271e-017
    outer loop
      vertex   -5.892362e+001 2.031871e+001 6.200816e+001
      vertex   -8.534773e+000 2.031871e+001 2.983785e+001
      vertex   -3.534773e+000 2.031871e+001 3.347057e+001
    endloop
  endfacet
  facet normal 8.284653e-017 -1.000000e+000 4.393930e-017
    outer loop
      vertex   -5.892362e+001 2.031871e+001 3.640607e+001
      vertex   -1.044460e+001 2.031871e+001 -5.500000e+001
      vertex   -1.044460e+001 2.031871e+001 2.396000e+001
    endloop
  endfacet
  facet normal 0.000000e+000 -1.000000e+000 0.000000e+000
    outer loop
      vertex   -7.559899e+001 2.031871e+001 -5.500000e+001
      vertex   -1.044460e+001 2.031871e+001 -5.500000e+001
      vertex   -5.892362e+001 2.031871e+001 3.640607e+001
    endloop
  endfacet
  facet normal 6.885347e-017 -1.000000e+000 0.000000e+000
    outer loop
      vertex   -8.534773e+000 2.031871e+001 2.983785e+001
      vertex   -5.892362e+001 2.031871e+001 6.200816e+001
      vertex   -5.892362e+001 2.031871e+001 3.640607e+001
    endloop
  endfacet
  facet normal 0.000000e+000 -1.000000e+000 0.000000e+000
    outer loop
      vertex   7.433758e+001 2.031871e+001 5.323173e+000
      vertex   7.433758e+001 2.031871e+001 3.640607e+001
      vertex   5.892362e+001 2.031871e+001 3.640607e+001
    endloop
  endfacet
  facet normal -5.554813e-017 -1.000000e+000 0.000000e+000
    outer loop
      vertex   -3.534773e+000 2.031871e+001 3.347057e+001
      vertex   5.892362e+001 2.031871e+001 3.640607e+001
      vertex   5.892362e+001 2.031871e+001 6.200816e+001
    endloop
  endfacet
  facet normal 0.000000e+000 -1.000000e+000 -1.181890e-015
    outer loop
      vertex   5.892362e+001 2.031871e+001 3.640607e+001
      vertex   -3.534773e+000 2.031871e+001 3.347057e+001
      vertex   2.645567e+000 2.031871e+001 3.347057e+001
    endloop
  endfacet
  facet normal -1.052928e-016 -1.000000e+000 -1.449232e-016
    outer loop
      vertex   7.433758e+001 2.031871e+001 5.323173e+000
      vertex   2.645567e+000 2.031871e+001 3.347057e+001
      vertex   7.645567e+000 2.031871e+001 2.983785e+001
    endloop
  endfacet
  facet normal 0.000000e+000 -1.000000e+000 0.000000e+000
    outer loop
      vertex   7.433758e+001 2.031871e+001 -5.010672e+001
      vertex   9.000000e+001 2.031871e+001 -5.010672e+001
      vertex   9.000000e+001 2.031871e+001 5.323173e+000
    endloop
  endfacet
  facet normal -6.009390e-017 -1.000000e+000 -2.980046e-017
    outer loop
      vertex   5.892362e+001 2.031871e+001 3.640607e+001
      vertex   2.645567e+000 2.031871e+001 3.347057e+001
      vertex   7.433758e+001 2.031871e+001 5.323173e+000
    endloop
  endfacet
  facet normal -0.000000e+000 -1.000000e+000 0.000000e+000
    outer loop
      vertex   9.000000e+001 2.031871e+001 5.323173e+000
      vertex   7.433758e+001 2.031871e+001 5.323173e+000
      vertex   7.433758e+001 2.031871e+001 -5.010672e+001
    endloop
  endfacet
  facet normal 0.000000e+000 -1.000000e+000 0.000000e+000
    outer loop
      vertex   9.555397e+000 2.031871e+001 -5.500000e+001
      vertex   7.433758e+001 2.031871e+001 -5.500000e+001
      vertex   7.433758e+001 2.031871e+001 -5.010672e+001
    endloop
  endfacet
  facet normal -5.202193e-017 -1.000000e+000 0.000000e+000
    outer loop
      vertex   7.645567e+000 2.031871e+001 2.983785e+001
      vertex   7.433758e+001 2.031871e+001 -5.010672e+001
      vertex   7.433758e+001 2.031871e+001 5.323173e+000
    endloop
  endfacet
  facet normal -8.520996e-017 -1.000000e+000 -2.768639e-017
    outer loop
      vertex   7.433758e+001 2.031871e+001 -5.010672e+001
      vertex   7.645567e+000 2.031871e+001 2.983785e+001
      vertex   9.555397e+000 2.031871e+001 2.396000e+001
    endloop
  endfacet
  facet normal -3.318929e-018 -1.000000e+000 4.393930e-017
    outer loop
      vertex   7.433758e+001 2.031871e+001 -5.010672e+001
      vertex   9.555397e+000 2.031871e+001 2.396000e+001
      vertex   9.555397e+000 2.031871e+001 -5.500000e+001
    endloop
  endfacet
  facet normal -0.000000e+000 -1.000000e+000 0.000000e+000
    outer loop
      vertex   -5.892362e+001 2.031871e+001 3.640607e+001
      vertex   -7.559899e+001 2.031871e+001 3.640607e+001
      vertex   -7.559899e+001 2.031871e+001 -5.500000e+001
    endloop
  endfacet
  facet normal -1.000000e+000 0.000000e+000 6.590895e-017
    outer loop
      vertex   9.555397e+000 2.250000e+001 2.396000e+001
      vertex   9.555397e+000 2.250000e+001 -5.500000e+001
      vertex   9.555397e+000 2.031871e+001 -5.500000e+001
    endloop
  endfacet
  facet normal -1.000000e+000 0.000000e+000 6.590895e-017
    outer loop
      vertex   9.555397e+000 2.031871e+001 -5.500000e+001
      vertex   9.555397e+000 2.031871e+001 2.396000e+001
      vertex   9.555397e+000 2.250000e+001 2.396000e+001
    endloop
  endfacet
  facet normal 9.510565e-001 0.000000e+000 -3.090170e-001
    outer loop
      vertex   -8.534773e+000 2.031871e+001 2.983785e+001
      vertex   -1.044460e+001 2.031871e+001 2.396000e+001
      vertex   -1.044460e+001 2.250000e+001 2.396000e+001
    endloop
  endfacet
  facet normal 5.877853e-001 0.000000e+000 -8.090170e-001
    outer loop
      vertex   -3.534773e+000 2.031871e+001 3.347057e+001
      vertex   -8.534773e+000 2.031871e+001 2.983785e+001
      vertex   -8.534773e+000 2.250000e+001 2.983785e+001
    endloop
  endfacet
  facet normal 0.000000e+000 0.000000e+000 -1.000000e+000
    outer loop
      vertex   2.645567e+000 2.031871e+001 3.347057e+001
      vertex   -3.534773e+000 2.031871e+001 3.347057e+001
      vertex   -3.534773e+000 2.250000e+001 3.347057e+001
    endloop
  endfacet
  facet normal -5.877853e-001 0.000000e+000 -8.090170e-001
    outer loop
      vertex   7.645567e+000 2.031871e+001 2.983785e+001
      vertex   2.645567e+000 2.031871e+001 3.347057e+001
      vertex   2.645567e+000 2.250000e+001 3.347057e+001
    endloop
  endfacet
  facet normal -9.510565e-001 0.000000e+000 -3.090170e-001
    outer loop
      vertex   9.555397e+000 2.031871e+001 2.396000e+001
      vertex   7.645567e+000 2.031871e+001 2.983785e+001
      vertex   7.645567e+000 2.250000e+001 2.983785e+001
    endloop
  endfacet
  facet normal -9.510565e-001 0.000000e+000 -3.090170e-001
    outer loop
      vertex   7.645567e+000 2.250000e+001 2.983785e+001
      vertex   9.555397e+000 2.250000e+001 2.396000e+001
      vertex   9.555397e+000 2.031871e+001 2.396000e+001
    endloop
  endfacet
  facet normal -5.877853e-001 0.000000e+000 -8.090170e-001
    outer loop
      vertex   2.645567e+000 2.250000e+001 3.347057e+001
      vertex   7.645567e+000 2.250000e+001 2.983785e+001
      vertex   7.645567e+000 2.031871e+001 2.983785e+001
    endloop
  endfacet
  facet normal 0.000000e+000 0.000000e+000 -1.000000e+000
    outer loop
      vertex   -3.534773e+000 2.250000e+001 3.347057e+001
      vertex   2.645567e+000 2.250000e+001 3.347057e+001
      vertex   2.645567e+000 2.031871e+001 3.347057e+001
    endloop
  endfacet
  facet normal 5.877853e-001 0.000000e+000 -8.090170e-001
    outer loop
      vertex   -8.534773e+000 2.250000e+001 2.983785e+001
      vertex   -3.534773e+000 2.250000e+001 3.347057e+001
      vertex   -3.534773e+000 2.031871e+001 3.347057e+001
    endloop
  endfacet
  facet normal 9.510565e-001 0.000000e+000 -3.090170e-001
    outer loop
      vertex   -1.044460e+001 2.250000e+001 2.396000e+001
      vertex   -8.534773e+000 2.250000e+001 2.983785e+001
      vertex   -8.534773e+000 2.031871e+001 2.983785e+001
    endloop
  endfacet
  facet normal 1.000000e+000 0.000000e+000 6.590895e-017
    outer loop
      vertex   -1.044460e+001 2.250000e+001 -5.500000e+001
      vertex   -1.044460e+001 2.250000e+001 2.396000e+001
      vertex   -1.044460e+001 2.031871e+001 2.396000e+001
    endloop
  endfacet
  facet normal 1.000000e+000 0.000000e+000 6.590895e-017
    outer loop
      vertex   -1.044460e+001 2.031871e+001 2.396000e+001
      vertex   -1.044460e+001 2.031871e+001 -5.500000e+001
      vertex   -1.044460e+001 2.250000e+001 -5.500000e+001
    endloop
  endfacet
  facet normal 1.000000e+000 -6.759439e-015 2.503665e-016
    outer loop
      vertex   9.000000e+001 2.250000e+001 8.784077e+000
      vertex   9.000000e+001 2.031871e+001 5.323173e+000
      vertex   9.000000e+001 2.031871e+001 -5.010672e+001
    endloop
  endfacet
  facet normal 1.000000e+000 0.000000e+000 -4.009875e-015
    outer loop
      vertex   9.000000e+001 -2.250000e+001 8.784077e+000
      vertex   9.000000e+001 -2.045860e+001 5.323173e+000
      vertex   9.000000e+001 2.031871e+001 5.323173e+000
    endloop
  endfacet
  facet normal 1.000000e+000 0.000000e+000 -4.009875e-015
    outer loop
      vertex   9.000000e+001 2.031871e+001 5.323173e+000
      vertex   9.000000e+001 2.250000e+001 8.784077e+000
      vertex   9.000000e+001 -2.250000e+001 8.784077e+000
    endloop
  endfacet
  facet normal 1.000000e+000 6.798168e-015 0.000000e+000
    outer loop
      vertex   9.000000e+001 -2.250000e+001 8.784077e+000
      vertex   9.000000e+001 -2.250000e+001 -5.500000e+001
      vertex   9.000000e+001 -2.045860e+001 -5.010672e+001
    endloop
  endfacet
  facet normal 1.000000e+000 6.798168e-015 -0.000000e+000
    outer loop
      vertex   9.000000e+001 -2.045860e+001 -5.010672e+001
      vertex   9.000000e+001 -2.045860e+001 5.323173e+000
      vertex   9.000000e+001 -2.250000e+001 8.784077e+000
    endloop
  endfacet
  facet normal 1.000000e+000 0.000000e+000 0.000000e+000
    outer loop
      vertex   9.000000e+001 -2.250000e+001 -5.500000e+001
      vertex   9.000000e+001 2.250000e+001 -5.500000e+001
      vertex   9.000000e+001 2.031871e+001 -5.010672e+001
    endloop
  endfacet
  facet normal 1.000000e+000 -3.403311e-016 2.978070e-015
    outer loop
      vertex   9.000000e+001 2.031871e+001 -5.010672e+001
      vertex   9.000000e+001 -2.045860e+001 -5.010672e+001
      vertex   9.000000e+001 -2.250000e+001 -5.500000e+001
    endloop
  endfacet
  facet normal 1.000000e+000 -0.000000e+000 0.000000e+000
    outer loop
      vertex   9.000000e+001 2.031871e+001 -5.010672e+001
      vertex   9.000000e+001 2.250000e+001 -5.500000e+001
      vertex   9.000000e+001 2.250000e+001 8.784077e+000
    endloop
  endfacet
  facet normal 9.702238e-001 -0.000000e+000 2.422100e-001
    outer loop
      vertex   9.000000e+001 -2.250000e+001 8.784077e+000
      vertex   9.000000e+001 2.250000e+001 8.784077e+000
      vertex   8.356865e+001 2.250000e+001 3.454620e+001
    endloop
  endfacet
  facet normal 8.580459e-001 -0.000000e+000 5.135730e-001
    outer loop
      vertex   8.356865e+001 -2.250000e+001 3.454620e+001
      vertex   8.356865e+001 2.250000e+001 3.454620e+001
      vertex   6.993187e+001 2.250000e+001 5.732969e+001
    endloop
  endfacet
  facet normal 6.718857e-001 -0.000000e+000 7.406549e-001
    outer loop
      vertex   6.993187e+001 -2.250000e+001 5.732969e+001
      vertex   6.993187e+001 2.250000e+001 5.732969e+001
      vertex   5.026544e+001 2.250000e+001 7.517011e+001
    endloop
  endfacet
  facet normal 4.277943e-001 -0.000000e+000 9.038761e-001
    outer loop
      vertex   5.026544e+001 -2.250000e+001 7.517011e+001
      vertex   5.026544e+001 2.250000e+001 7.517011e+001
      vertex   2.626503e+001 2.250000e+001 8.652923e+001
    endloop
  endfacet
  facet normal 1.468177e-001 -0.000000e+000 9.891636e-001
    outer loop
      vertex   2.626503e+001 -2.250000e+001 8.652923e+001
      vertex   2.626503e+001 2.250000e+001 8.652923e+001
      vertex   1.107419e-014 2.250000e+001 9.042765e+001
    endloop
  endfacet
  facet normal -1.468177e-001 0.000000e+000 9.891636e-001
    outer loop
      vertex   1.107419e-014 -2.250000e+001 9.042765e+001
      vertex   1.107419e-014 2.250000e+001 9.042765e+001
      vertex   -2.626503e+001 2.250000e+001 8.652923e+001
    endloop
  endfacet
  facet normal -4.277943e-001 0.000000e+000 9.038761e-001
    outer loop
      vertex   -2.626503e+001 -2.250000e+001 8.652923e+001
      vertex   -2.626503e+001 2.250000e+001 8.652923e+001
      vertex   -5.026544e+001 2.250000e+001 7.517011e+001
    endloop
  endfacet
  facet normal -6.718857e-001 0.000000e+000 7.406549e-001
    outer loop
      vertex   -5.026544e+001 -2.250000e+001 7.517011e+001
      vertex   -5.026544e+001 2.250000e+001 7.517011e+001
      vertex   -6.993187e+001 2.250000e+001 5.732969e+001
    endloop
  endfacet
  facet normal -8.580459e-001 0.000000e+000 5.135730e-001
    outer loop
      vertex   -6.993187e+001 -2.250000e+001 5.732969e+001
      vertex   -6.993187e+001 2.250000e+001 5.732969e+001
      vertex   -8.356865e+001 2.250000e+001 3.454620e+001
    endloop
  endfacet
  facet normal -9.702238e-001 0.000000e+000 2.422100e-001
    outer loop
      vertex   -8.356865e+001 -2.250000e+001 3.454620e+001
      vertex   -8.356865e+001 2.250000e+001 3.454620e+001
      vertex   -9.000000e+001 2.250000e+001 8.784077e+000
    endloop
  endfacet
  facet normal -9.702238e-001 0.000000e+000 2.422100e-001
    outer loop
      vertex   -9.000000e+001 2.250000e+001 8.784077e+000
      vertex   -9.000000e+001 -2.250000e+001 8.784077e+000
      vertex   -8.356865e+001 -2.250000e+001 3.454620e+001
    endloop
  endfacet
  facet normal -8.580459e-001 0.000000e+000 5.135730e-001
    outer loop
      vertex   -8.356865e+001 2.250000e+001 3.454620e+001
      vertex   -8.356865e+001 -2.250000e+001 3.454620e+001
      vertex   -6.993187e+001 -2.250000e+001 5.732969e+001
    endloop
  endfacet
  facet normal -6.718857e-001 0.000000e+000 7.406549e-001
    outer loop
      vertex   -6.993187e+001 2.250000e+001 5.732969e+001
      vertex   -6.993187e+001 -2.250000e+001 5.732969e+001
      vertex   -5.026544e+001 -2.250000e+001 7.517011e+001
    endloop
  endfacet
  facet normal -4.277943e-001 0.000000e+000 9.038761e-001
    outer loop
      vertex   -5.026544e+001 2.250000e+001 7.517011e+001
      vertex   -5.026544e+001 -2.250000e+001 7.517011e+001
      vertex   -2.626503e+001 -2.250000e+001 8.652923e+001
    endloop
  endfacet
  facet normal -1.468177e-001 0.000000e+000 9.891636e-001
    outer loop
      vertex   -2.626503e+001 2.250000e+001 8.652923e+001
      vertex   -2.626503e+001 -2.250000e+001 8.652923e+001
      vertex   1.107419e-014 -2.250000e+001 9.042765e+001
    endloop
  endfacet
  facet normal 1.468177e-001 0.000000e+000 9.891636e-001
    outer loop
      vertex   1.107419e-014 2.250000e+001 9.042765e+001
      vertex   1.107419e-014 -2.250000e+001 9.042765e+001
      vertex   2.626503e+001 -2.250000e+001 8.652923e+001
    endloop
  endfacet
  facet normal 4.277943e-001 0.000000e+000 9.038761e-001
    outer loop
      vertex   2.626503e+001 2.250000e+001 8.652923e+001
      vertex   2.626503e+001 -2.250000e+001 8.652923e+001
      vertex   5.026544e+001 -2.250000e+001 7.517011e+001
    endloop
  endfacet
  facet normal 6.718857e-001 0.000000e+000 7.406549e-001
    outer loop
      vertex   5.026544e+001 2.250000e+001 7.517011e+001
      vertex   5.026544e+001 -2.250000e+001 7.517011e+001
      vertex   6.993187e+001 -2.250000e+001 5.732969e+001
    endloop
  endfacet
  facet normal 8.580459e-001 0.000000e+000 5.135730e-001
    outer loop
      vertex   6.993187e+001 2.250000e+001 5.732969e+001
      vertex   6.993187e+001 -2.250000e+001 5.732969e+001
      vertex   8.356865e+001 -2.250000e+001 3.454620e+001
    endloop
  endfacet
  facet normal 9.702238e-001 0.000000e+000 2.422100e-001
    outer loop
      vertex   8.356865e+001 2.250000e+001 3.454620e+001
      vertex   8.356865e+001 -2.250000e+001 3.454620e+001
      vertex   9.000000e+001 -2.250000e+001 8.784077e+000
    endloop
  endfacet
  facet normal -1.000000e+000 0.000000e+000 0.000000e+000
    outer loop
      vertex   -9.000000e+001 -2.250000e+001 -5.500000e+001
      vertex   -9.000000e+001 -2.250000e+001 8.784077e+000
      vertex   -9.000000e+001 2.250000e+001 8.784077e+000
    endloop
  endfacet
  facet normal -1.000000e+000 0.000000e+000 -0.000000e+000
    outer loop
      vertex   -9.000000e+001 2.250000e+001 8.784077e+000
      vertex   -9.000000e+001 2.250000e+001 -5.500000e+001
      vertex   -9.000000e+001 -2.250000e+001 -5.500000e+001
    endloop
  endfacet
  facet normal -1.878013e-003 9.999982e-001 4.413405e-013
    outer loop
      vertex   5.892362e+001 -2.048755e+001 3.640607e+001
      vertex   2.645567e+000 -2.059324e+001 3.347057e+001
      vertex   -3.534773e+000 -2.060484e+001 3.347057e+001
    endloop
  endfacet
  facet normal -1.878013e-003 9.999982e-001 -8.775466e-017
    outer loop
      vertex   9.555397e+000 -2.058026e+001 -5.500000e+001
      vertex   9.555397e+000 -2.058026e+001 2.396000e+001
      vertex   7.433758e+001 -2.045860e+001 5.323173e+000
    endloop
  endfacet
  facet normal -1.878013e-003 9.999982e-001 0.000000e+000
    outer loop
      vertex   -7.559899e+001 -2.074018e+001 -5.500000e+001
      vertex   -7.559899e+001 -2.074018e+001 3.640607e+001
      vertex   -1.044460e+001 -2.061782e+001 2.396000e+001
    endloop
  endfacet
  facet normal -1.878013e-003 9.999982e-001 2.751911e-013
    outer loop
      vertex   -3.534773e+000 -2.060484e+001 3.347057e+001
      vertex   -7.559899e+001 -2.074018e+001 3.640607e+001
      vertex   5.892362e+001 -2.048755e+001 3.640607e+001
    endloop
  endfacet
  facet normal -1.878013e-003 9.999982e-001 -4.701915e-019
    outer loop
      vertex   7.433758e+001 -2.045860e+001 5.323173e+000
      vertex   7.433758e+001 -2.045860e+001 -5.010672e+001
      vertex   9.555397e+000 -2.058026e+001 -5.500000e+001
    endloop
  endfacet
  facet normal -1.878013e-003 9.999982e-001 -9.329601e-016
    outer loop
      vertex   -7.559899e+001 -2.074018e+001 3.640607e+001
      vertex   -8.534773e+000 -2.061423e+001 2.983785e+001
      vertex   -1.044460e+001 -2.061782e+001 2.396000e+001
    endloop
  endfacet
  facet normal -1.878013e-003 9.999982e-001 3.271855e-014
    outer loop
      vertex   5.892362e+001 -2.048755e+001 3.640607e+001
      vertex   7.645567e+000 -2.058385e+001 2.983785e+001
      vertex   2.645567e+000 -2.059324e+001 3.347057e+001
    endloop
  endfacet
  facet normal -1.878013e-003 9.999982e-001 9.961655e-015
    outer loop
      vertex   9.555397e+000 -2.058026e+001 2.396000e+001
      vertex   7.645567e+000 -2.058385e+001 2.983785e+001
      vertex   5.892362e+001 -2.048755e+001 3.640607e+001
    endloop
  endfacet
  facet normal -1.878013e-003 9.999982e-001 8.413030e-019
    outer loop
      vertex   9.555397e+000 -2.058026e+001 2.396000e+001
      vertex   7.433758e+001 -2.045860e+001 3.640607e+001
      vertex   7.433758e+001 -2.045860e+001 5.323173e+000
    endloop
  endfacet
  facet normal -1.878013e-003 9.999982e-001 1.231257e-015
    outer loop
      vertex   -3.534773e+000 -2.060484e+001 3.347057e+001
      vertex   -8.534773e+000 -2.061423e+001 2.983785e+001
      vertex   -7.559899e+001 -2.074018e+001 3.640607e+001
    endloop
  endfacet
  facet normal -1.878013e-003 9.999982e-001 0.000000e+000
    outer loop
      vertex   7.433758e+001 -2.045860e+001 -5.010672e+001
      vertex   7.433758e+001 -2.045860e+001 -5.500000e+001
      vertex   9.555397e+000 -2.058026e+001 -5.500000e+001
    endloop
  endfacet
  facet normal -1.878013e-003 9.999982e-001 4.916896e-013
    outer loop
      vertex   5.892362e+001 -2.048755e+001 3.640607e+001
      vertex   7.433758e+001 -2.045860e+001 3.640607e+001
      vertex   9.555397e+000 -2.058026e+001 2.396000e+001
    endloop
  endfacet
  facet normal -1.878013e-003 9.999982e-001 -3.516788e-016
    outer loop
      vertex   -1.044460e+001 -2.061782e+001 2.396000e+001
      vertex   -1.044460e+001 -2.061782e+001 -5.500000e+001
      vertex   -7.559899e+001 -2.074018e+001 -5.500000e+001
    endloop
  endfacet
  facet normal -1.000000e+000 0.000000e+000 6.590895e-017
    outer loop
      vertex   9.555397e+000 -2.250000e+001 -5.500000e+001
      vertex   9.555397e+000 -2.250000e+001 2.396000e+001
      vertex   9.555397e+000 -2.058026e+001 2.396000e+001
    endloop
  endfacet
  facet normal -1.000000e+000 0.000000e+000 6.590895e-017
    outer loop
      vertex   9.555397e+000 -2.058026e+001 2.396000e+001
      vertex   9.555397e+000 -2.058026e+001 -5.500000e+001
      vertex   9.555397e+000 -2.250000e+001 -5.500000e+001
    endloop
  endfacet
  facet normal 9.510565e-001 0.000000e+000 -3.090170e-001
    outer loop
      vertex   -8.534773e+000 -2.250000e+001 2.983785e+001
      vertex   -1.044460e+001 -2.250000e+001 2.396000e+001
      vertex   -1.044460e+001 -2.061782e+001 2.396000e+001
    endloop
  endfacet
  facet normal 5.877853e-001 0.000000e+000 -8.090170e-001
    outer loop
      vertex   -3.534773e+000 -2.250000e+001 3.347057e+001
      vertex   -8.534773e+000 -2.250000e+001 2.983785e+001
      vertex   -8.534773e+000 -2.061423e+001 2.983785e+001
    endloop
  endfacet
  facet normal 0.000000e+000 0.000000e+000 -1.000000e+000
    outer loop
      vertex   2.645567e+000 -2.250000e+001 3.347057e+001
      vertex   -3.534773e+000 -2.250000e+001 3.347057e+001
      vertex   -3.534773e+000 -2.060484e+001 3.347057e+001
    endloop
  endfacet
  facet normal -5.877853e-001 0.000000e+000 -8.090170e-001
    outer loop
      vertex   7.645567e+000 -2.250000e+001 2.983785e+001
      vertex   2.645567e+000 -2.250000e+001 3.347057e+001
      vertex   2.645567e+000 -2.059324e+001 3.347057e+001
    endloop
  endfacet
  facet normal -9.510565e-001 -4.291500e-016 -3.090170e-001
    outer loop
      vertex   9.555397e+000 -2.250000e+001 2.396000e+001
      vertex   7.645567e+000 -2.250000e+001 2.983785e+001
      vertex   7.645567e+000 -2.058385e+001 2.983785e+001
    endloop
  endfacet
  facet normal -9.510565e-001 0.000000e+000 -3.090170e-001
    outer loop
      vertex   7.645567e+000 -2.058385e+001 2.983785e+001
      vertex   9.555397e+000 -2.058026e+001 2.396000e+001
      vertex   9.555397e+000 -2.250000e+001 2.396000e+001
    endloop
  endfacet
  facet normal -5.877853e-001 1.144400e-015 -8.090170e-001
    outer loop
      vertex   2.645567e+000 -2.059324e+001 3.347057e+001
      vertex   7.645567e+000 -2.058385e+001 2.983785e+001
      vertex   7.645567e+000 -2.250000e+001 2.983785e+001
    endloop
  endfacet
  facet normal 0.000000e+000 0.000000e+000 -1.000000e+000
    outer loop
      vertex   -3.534773e+000 -2.060484e+001 3.347057e+001
      vertex   2.645567e+000 -2.059324e+001 3.347057e+001
      vertex   2.645567e+000 -2.250000e+001 3.347057e+001
    endloop
  endfacet
  facet normal 5.877853e-001 0.000000e+000 -8.090170e-001
    outer loop
      vertex   -8.534773e+000 -2.061423e+001 2.983785e+001
      vertex   -3.534773e+000 -2.060484e+001 3.347057e+001
      vertex   -3.534773e+000 -2.250000e+001 3.347057e+001
    endloop
  endfacet
  facet normal 9.510565e-001 0.000000e+000 -3.090170e-001
    outer loop
      vertex   -1.044460e+001 -2.061782e+001 2.396000e+001
      vertex   -8.534773e+000 -2.061423e+001 2.983785e+001
      vertex   -8.534773e+000 -2.250000e+001 2.983785e+001
    endloop
  endfacet
  facet normal 1.000000e+000 0.000000e+000 8.787860e-017
    outer loop
      vertex   -1.044460e+001 -2.061782e+001 -5.500000e+001
      vertex   -1.044460e+001 -2.061782e+001 2.396000e+001
      vertex   -1.044460e+001 -2.250000e+001 2.396000e+001
    endloop
  endfacet
  facet normal 1.000000e+000 -9.216570e-016 6.590895e-017
    outer loop
      vertex   -1.044460e+001 -2.250000e+001 2.396000e+001
      vertex   -1.044460e+001 -2.250000e+001 -5.500000e+001
      vertex   -1.044460e+001 -2.061782e+001 -5.500000e+001
    endloop
  endfacet
  facet normal 0.000000e+000 1.982541e-016 -1.000000e+000
    outer loop
      vertex   8.169002e+001 1.750000e+001 -5.500000e+001
      vertex   8.669002e+001 1.750000e+001 -5.500000e+001
      vertex   8.669002e+001 -1.750000e+001 -5.500000e+001
    endloop
  endfacet
  facet normal -0.000000e+000 -1.387779e-015 -1.000000e+000
    outer loop
      vertex   9.000000e+001 -2.250000e+001 -5.500000e+001
      vertex   8.669002e+001 -2.250000e+001 -5.500000e+001
      vertex   8.669002e+001 -1.750000e+001 -5.500000e+001
    endloop
  endfacet
  facet normal 0.000000e+000 -0.000000e+000 -1.000000e+000
    outer loop
      vertex   9.000000e+001 2.250000e+001 -5.500000e+001
      vertex   9.000000e+001 -2.250000e+001 -5.500000e+001
      vertex   8.669002e+001 1.750000e+001 -5.500000e+001
    endloop
  endfacet
  facet normal 2.395834e-015 1.982541e-016 -1.000000e+000
    outer loop
      vertex   8.669002e+001 -1.750000e+001 -5.500000e+001
      vertex   8.669002e+001 1.750000e+001 -5.500000e+001
      vertex   9.000000e+001 -2.250000e+001 -5.500000e+001
    endloop
  endfacet
  facet normal 0.000000e+000 0.000000e+000 -1.000000e+000
    outer loop
      vertex   9.555397e+000 2.250000e+001 -5.500000e+001
      vertex   8.169002e+001 2.250000e+001 -5.500000e+001
      vertex   7.433758e+001 2.031871e+001 -5.500000e+001
    endloop
  endfacet
  facet normal 0.000000e+000 0.000000e+000 -1.000000e+000
    outer loop
      vertex   7.433758e+001 2.031871e+001 -5.500000e+001
      vertex   8.169002e+001 2.250000e+001 -5.500000e+001
      vertex   8.169002e+001 1.750000e+001 -5.500000e+001
    endloop
  endfacet
  facet normal -9.437539e-016 0.000000e+000 -1.000000e+000
    outer loop
      vertex   7.433758e+001 -2.045860e+001 -5.500000e+001
      vertex   7.433758e+001 2.031871e+001 -5.500000e+001
      vertex   8.169002e+001 -1.750000e+001 -5.500000e+001
    endloop
  endfacet
  facet normal 1.071111e-016 0.000000e+000 -1.000000e+000
    outer loop
      vertex   9.555397e+000 -2.250000e+001 -5.500000e+001
      vertex   9.555397e+000 -2.058026e+001 -5.500000e+001
      vertex   7.433758e+001 -2.045860e+001 -5.500000e+001
    endloop
  endfacet
  facet normal 0.000000e+000 1.982541e-016 -1.000000e+000
    outer loop
      vertex   8.669002e+001 -1.750000e+001 -5.500000e+001
      vertex   8.169002e+001 -1.750000e+001 -5.500000e+001
      vertex   8.169002e+001 1.750000e+001 -5.500000e+001
    endloop
  endfacet
  facet normal 7.600487e-017 1.982541e-016 -1.000000e+000
    outer loop
      vertex   8.169002e+001 1.750000e+001 -5.500000e+001
      vertex   8.169002e+001 -1.750000e+001 -5.500000e+001
      vertex   7.433758e+001 2.031871e+001 -5.500000e+001
    endloop
  endfacet
  facet normal 9.619367e-017 3.464572e-016 -1.000000e+000
    outer loop
      vertex   7.433758e+001 -2.045860e+001 -5.500000e+001
      vertex   8.169002e+001 -2.250000e+001 -5.500000e+001
      vertex   9.555397e+000 -2.250000e+001 -5.500000e+001
    endloop
  endfacet
  facet normal 0.000000e+000 0.000000e+000 -1.000000e+000
    outer loop
      vertex   7.433758e+001 2.031871e+001 -5.500000e+001
      vertex   9.555397e+000 2.031871e+001 -5.500000e+001
      vertex   9.555397e+000 2.250000e+001 -5.500000e+001
    endloop
  endfacet
  facet normal 0.000000e+000 0.000000e+000 -1.000000e+000
    outer loop
      vertex   8.669002e+001 1.750000e+001 -5.500000e+001
      vertex   8.669002e+001 2.250000e+001 -5.500000e+001
      vertex   9.000000e+001 2.250000e+001 -5.500000e+001
    endloop
  endfacet
  facet normal -3.853161e-016 -1.387779e-015 -1.000000e+000
    outer loop
      vertex   8.169002e+001 -1.750000e+001 -5.500000e+001
      vertex   8.169002e+001 -2.250000e+001 -5.500000e+001
      vertex   7.433758e+001 -2.045860e+001 -5.500000e+001
    endloop
  endfacet
  facet normal -1.000000e+000 -3.885781e-014 4.163336e-014
    outer loop
      vertex   8.169002e+001 -2.250000e+001 -6.000000e+001
      vertex   8.169002e+001 -2.250000e+001 -5.500000e+001
      vertex   8.169002e+001 -1.750000e+001 -5.500000e+001
    endloop
  endfacet
  facet normal -1.000000e+000 0.000000e+000 2.775558e-015
    outer loop
      vertex   8.169002e+001 -1.750000e+001 -5.500000e+001
      vertex   8.169002e+001 -1.750000e+001 -6.000000e+001
      vertex   8.169002e+001 -2.250000e+001 -6.000000e+001
    endloop
  endfacet
  facet normal 0.000000e+000 0.000000e+000 1.000000e+000
    outer loop
      vertex   7.669002e+001 -1.750000e+001 -6.000000e+001
      vertex   7.669002e+001 -2.250000e+001 -6.000000e+001
      vertex   8.169002e+001 -2.250000e+001 -6.000000e+001
    endloop
  endfacet
  facet normal 0.000000e+000 -0.000000e+000 1.000000e+000
    outer loop
      vertex   8.169002e+001 -2.250000e+001 -6.000000e+001
      vertex   8.169002e+001 -1.750000e+001 -6.000000e+001
      vertex   7.669002e+001 -1.750000e+001 -6.000000e+001
    endloop
  endfacet
  facet normal 0.000000e+000 1.000000e+000 0.000000e+000
    outer loop
      vertex   8.669002e+001 -1.750000e+001 -5.500000e+001
      vertex   8.669002e+001 -1.750000e+001 -6.500000e+001
      vertex   8.169002e+001 -1.750000e+001 -6.000000e+001
    endloop
  endfacet
  facet normal 0.000000e+000 1.000000e+000 0.000000e+000
    outer loop
      vertex   7.669002e+001 -1.750000e+001 -6.500000e+001
      vertex   7.669002e+001 -1.750000e+001 -6.000000e+001
      vertex   8.169002e+001 -1.750000e+001 -6.000000e+001
    endloop
  endfacet
  facet normal 0.000000e+000 1.000000e+000 0.000000e+000
    outer loop
      vertex   8.169002e+001 -1.750000e+001 -6.000000e+001
      vertex   8.669002e+001 -1.750000e+001 -6.500000e+001
      vertex   7.669002e+001 -1.750000e+001 -6.500000e+001
    endloop
  endfacet
  facet normal 0.000000e+000 1.000000e+000 0.000000e+000
    outer loop
      vertex   8.169002e+001 -1.750000e+001 -6.000000e+001
      vertex   8.169002e+001 -1.750000e+001 -5.500000e+001
      vertex   8.669002e+001 -1.750000e+001 -5.500000e+001
    endloop
  endfacet
  facet normal -1.000000e+000 0.000000e+000 0.000000e+000
    outer loop
      vertex   7.669002e+001 -1.750000e+001 -6.500000e+001
      vertex   7.669002e+001 -2.250000e+001 -6.500000e+001
      vertex   7.669002e+001 -2.250000e+001 -6.000000e+001
    endloop
  endfacet
  facet normal -1.000000e+000 0.000000e+000 0.000000e+000
    outer loop
      vertex   7.669002e+001 -2.250000e+001 -6.000000e+001
      vertex   7.669002e+001 -1.750000e+001 -6.000000e+001
      vertex   7.669002e+001 -1.750000e+001 -6.500000e+001
    endloop
  endfacet
  facet normal 0.000000e+000 -0.000000e+000 -1.000000e+000
    outer loop
      vertex   8.669002e+001 -1.750000e+001 -6.500000e+001
      vertex   8.669002e+001 -2.250000e+001 -6.500000e+001
      vertex   7.669002e+001 -2.250000e+001 -6.500000e+001
    endloop
  endfacet
  facet normal 0.000000e+000 0.000000e+000 -1.000000e+000
    outer loop
      vertex   7.669002e+001 -2.250000e+001 -6.500000e+001
      vertex   7.669002e+001 -1.750000e+001 -6.500000e+001
      vertex   8.669002e+001 -1.750000e+001 -6.500000e+001
    endloop
  endfacet
  facet normal 1.000000e+000 0.000000e+000 0.000000e+000
    outer loop
      vertex   8.669002e+001 -2.250000e+001 -6.500000e+001
      vertex   8.669002e+001 -1.750000e+001 -6.500000e+001
      vertex   8.669002e+001 -1.750000e+001 -5.500000e+001
    endloop
  endfacet
  facet normal 1.000000e+000 0.000000e+000 0.000000e+000
    outer loop
      vertex   8.669002e+001 -1.750000e+001 -5.500000e+001
      vertex   8.669002e+001 -2.250000e+001 -5.500000e+001
      vertex   8.669002e+001 -2.250000e+001 -6.500000e+001
    endloop
  endfacet
  facet normal -1.000000e+000 0.000000e+000 2.775558e-015
    outer loop
      vertex   8.169002e+001 1.750000e+001 -5.500000e+001
      vertex   8.169002e+001 2.250000e+001 -5.500000e+001
      vertex   8.169002e+001 2.250000e+001 -6.000000e+001
    endloop
  endfacet
  facet normal -1.000000e+000 0.000000e+000 2.775558e-015
    outer loop
      vertex   8.169002e+001 2.250000e+001 -6.000000e+001
      vertex   8.169002e+001 1.750000e+001 -6.000000e+001
      vertex   8.169002e+001 1.750000e+001 -5.500000e+001
    endloop
  endfacet
  facet normal 0.000000e+000 -0.000000e+000 1.000000e+000
    outer loop
      vertex   8.169002e+001 1.750000e+001 -6.000000e+001
      vertex   8.169002e+001 2.250000e+001 -6.000000e+001
      vertex   7.669002e+001 2.250000e+001 -6.000000e+001
    endloop
  endfacet
  facet normal 0.000000e+000 0.000000e+000 1.000000e+000
    outer loop
      vertex   7.669002e+001 2.250000e+001 -6.000000e+001
      vertex   7.669002e+001 1.750000e+001 -6.000000e+001
      vertex   8.169002e+001 1.750000e+001 -6.000000e+001
    endloop
  endfacet
  facet normal 0.000000e+000 -1.000000e+000 0.000000e+000
    outer loop
      vertex   7.669002e+001 1.750000e+001 -6.500000e+001
      vertex   8.669002e+001 1.750000e+001 -6.500000e+001
      vertex   8.169002e+001 1.750000e+001 -6.000000e+001
    endloop
  endfacet
  facet normal -0.000000e+000 -1.000000e+000 0.000000e+000
    outer loop
      vertex   8.669002e+001 1.750000e+001 -5.500000e+001
      vertex   8.169002e+001 1.750000e+001 -5.500000e+001
      vertex   8.169002e+001 1.750000e+001 -6.000000e+001
    endloop
  endfacet
  facet normal 0.000000e+000 -1.000000e+000 0.000000e+000
    outer loop
      vertex   8.169002e+001 1.750000e+001 -6.000000e+001
      vertex   8.669002e+001 1.750000e+001 -6.500000e+001
      vertex   8.669002e+001 1.750000e+001 -5.500000e+001
    endloop
  endfacet
  facet normal -0.000000e+000 -1.000000e+000 0.000000e+000
    outer loop
      vertex   8.169002e+001 1.750000e+001 -6.000000e+001
      vertex   7.669002e+001 1.750000e+001 -6.000000e+001
      vertex   7.669002e+001 1.750000e+001 -6.500000e+001
    endloop
  endfacet
  facet normal -1.000000e+000 0.000000e+000 0.000000e+000
    outer loop
      vertex   7.669002e+001 1.750000e+001 -6.000000e+001
      vertex   7.669002e+001 2.250000e+001 -6.000000e+001
      vertex   7.669002e+001 2.250000e+001 -6.500000e+001
    endloop
  endfacet
  facet normal -1.000000e+000 0.000000e+000 0.000000e+000
    outer loop
      vertex   7.669002e+001 2.250000e+001 -6.500000e+001
      vertex   7.669002e+001 1.750000e+001 -6.500000e+001
      vertex   7.669002e+001 1.750000e+001 -6.000000e+001
    endloop
  endfacet
  facet normal 0.000000e+000 0.000000e+000 -1.000000e+000
    outer loop
      vertex   7.669002e+001 1.750000e+001 -6.500000e+001
      vertex   7.669002e+001 2.250000e+001 -6.500000e+001
      vertex   8.669002e+001 2.250000e+001 -6.500000e+001
    endloop
  endfacet
  facet normal 0.000000e+000 -0.000000e+000 -1.000000e+000
    outer loop
      vertex   8.669002e+001 2.250000e+001 -6.500000e+001
      vertex   8.669002e+001 1.750000e+001 -6.500000e+001
      vertex   7.669002e+001 1.750000e+001 -6.500000e+001
    endloop
  endfacet
  facet normal 1.000000e+000 0.000000e+000 0.000000e+000
    outer loop
      vertex   8.669002e+001 1.750000e+001 -5.500000e+001
      vertex   8.669002e+001 1.750000e+001 -6.500000e+001
      vertex   8.669002e+001 2.250000e+001 -6.500000e+001
    endloop
  endfacet
  facet normal 1.000000e+000 0.000000e+000 -0.000000e+000
    outer loop
      vertex   8.669002e+001 2.250000e+001 -6.500000e+001
      vertex   8.669002e+001 2.250000e+001 -5.500000e+001
      vertex   8.669002e+001 1.750000e+001 -5.500000e+001
    endloop
  endfacet
  facet normal 0.000000e+000 1.000000e+000 -1.218267e-016
    outer loop
      vertex   1.107419e-014 2.250000e+001 9.042765e+001
      vertex   2.645567e+000 2.250000e+001 3.347057e+001
      vertex   -3.534773e+000 2.250000e+001 3.347057e+001
    endloop
  endfacet
  facet normal 5.146149e-017 1.000000e+000 -1.087317e-016
    outer loop
      vertex   -5.026544e+001 2.250000e+001 7.517011e+001
      vertex   -2.626503e+001 2.250000e+001 8.652923e+001
      vertex   -3.534773e+000 2.250000e+001 3.347057e+001
    endloop
  endfacet
  facet normal 1.825038e-017 1.000000e+000 -1.229593e-016
    outer loop
      vertex   -3.534773e+000 2.250000e+001 3.347057e+001
      vertex   -2.626503e+001 2.250000e+001 8.652923e+001
      vertex   1.107419e-014 2.250000e+001 9.042765e+001
    endloop
  endfacet
  facet normal -9.743045e-017 1.000000e+000 -3.165707e-017
    outer loop
      vertex   6.993187e+001 2.250000e+001 5.732969e+001
      vertex   9.555397e+000 2.250000e+001 2.396000e+001
      vertex   7.645567e+000 2.250000e+001 2.983785e+001
    endloop
  endfacet
  facet normal -8.418764e-017 1.000000e+000 1.096822e-017
    outer loop
      vertex   9.555397e+000 2.250000e+001 2.396000e+001
      vertex   9.000000e+001 2.250000e+001 8.784077e+000
      vertex   8.169002e+001 2.250000e+001 -5.500000e+001
    endloop
  endfacet
  facet normal 9.619367e-017 1.000000e+000 6.340023e-033
    outer loop
      vertex   -1.044460e+001 2.250000e+001 2.396000e+001
      vertex   -1.044460e+001 2.250000e+001 -5.500000e+001
      vertex   -8.257923e+001 2.250000e+001 -5.500000e+001
    endloop
  endfacet
  facet normal 7.566720e-017 1.000000e+000 -8.341193e-017
    outer loop
      vertex   -6.993187e+001 2.250000e+001 5.732969e+001
      vertex   -5.026544e+001 2.250000e+001 7.517011e+001
      vertex   -8.534773e+000 2.250000e+001 2.983785e+001
    endloop
  endfacet
  facet normal -1.820779e-017 1.000000e+000 -1.226724e-016
    outer loop
      vertex   1.107419e-014 2.250000e+001 9.042765e+001
      vertex   2.626503e+001 2.250000e+001 8.652923e+001
      vertex   2.645567e+000 2.250000e+001 3.347057e+001
    endloop
  endfacet
  facet normal -6.607566e-017 1.000000e+000 -9.094534e-017
    outer loop
      vertex   5.026544e+001 2.250000e+001 7.517011e+001
      vertex   7.645567e+000 2.250000e+001 2.983785e+001
      vertex   2.645567e+000 2.250000e+001 3.347057e+001
    endloop
  endfacet
  facet normal -7.494053e-017 1.000000e+000 -8.261089e-017
    outer loop
      vertex   7.645567e+000 2.250000e+001 2.983785e+001
      vertex   5.026544e+001 2.250000e+001 7.517011e+001
      vertex   6.993187e+001 2.250000e+001 5.732969e+001
    endloop
  endfacet
  facet normal -9.051987e-017 1.000000e+000 -2.259769e-017
    outer loop
      vertex   9.555397e+000 2.250000e+001 2.396000e+001
      vertex   8.356865e+001 2.250000e+001 3.454620e+001
      vertex   9.000000e+001 2.250000e+001 8.784077e+000
    endloop
  endfacet
  facet normal 8.532721e-017 1.000000e+000 9.927148e-018
    outer loop
      vertex   -8.257923e+001 2.250000e+001 -5.500000e+001
      vertex   -9.000000e+001 2.250000e+001 8.784077e+000
      vertex   -1.044460e+001 2.250000e+001 2.396000e+001
    endloop
  endfacet
  facet normal 8.732530e-017 1.000000e+000 -5.226751e-017
    outer loop
      vertex   -1.044460e+001 2.250000e+001 2.396000e+001
      vertex   -8.356865e+001 2.250000e+001 3.454620e+001
      vertex   -6.993187e+001 2.250000e+001 5.732969e+001
    endloop
  endfacet
  facet normal -5.112434e-017 1.000000e+000 -1.080194e-016
    outer loop
      vertex   2.645567e+000 2.250000e+001 3.347057e+001
      vertex   2.626503e+001 2.250000e+001 8.652923e+001
      vertex   5.026544e+001 2.250000e+001 7.517011e+001
    endloop
  endfacet
  facet normal 0.000000e+000 1.000000e+000 8.787860e-017
    outer loop
      vertex   8.169002e+001 2.250000e+001 -5.500000e+001
      vertex   9.555397e+000 2.250000e+001 -5.500000e+001
      vertex   9.555397e+000 2.250000e+001 2.396000e+001
    endloop
  endfacet
  facet normal -3.469447e-016 1.000000e+000 -3.469447e-016
    outer loop
      vertex   8.669002e+001 2.250000e+001 -5.500000e+001
      vertex   8.669002e+001 2.250000e+001 -6.500000e+001
      vertex   8.169002e+001 2.250000e+001 -6.000000e+001
    endloop
  endfacet
  facet normal 0.000000e+000 1.000000e+000 0.000000e+000
    outer loop
      vertex   7.669002e+001 2.250000e+001 -6.500000e+001
      vertex   7.669002e+001 2.250000e+001 -6.000000e+001
      vertex   8.169002e+001 2.250000e+001 -6.000000e+001
    endloop
  endfacet
  facet normal 0.000000e+000 1.000000e+000 0.000000e+000
    outer loop
      vertex   -7.757923e+001 2.250000e+001 -6.500000e+001
      vertex   -8.757923e+001 2.250000e+001 -6.500000e+001
      vertex   -8.257923e+001 2.250000e+001 -6.000000e+001
    endloop
  endfacet
  facet normal 0.000000e+000 1.000000e+000 -6.938894e-016
    outer loop
      vertex   -8.757923e+001 2.250000e+001 -5.500000e+001
      vertex   -8.257923e+001 2.250000e+001 -5.500000e+001
      vertex   -8.257923e+001 2.250000e+001 -6.000000e+001
    endloop
  endfacet
  facet normal 9.866230e-017 1.000000e+000 -3.205733e-017
    outer loop
      vertex   -8.534773e+000 2.250000e+001 2.983785e+001
      vertex   -1.044460e+001 2.250000e+001 2.396000e+001
      vertex   -6.993187e+001 2.250000e+001 5.732969e+001
    endloop
  endfacet
  facet normal -8.635889e-017 1.000000e+000 -5.168908e-017
    outer loop
      vertex   6.993187e+001 2.250000e+001 5.732969e+001
      vertex   8.356865e+001 2.250000e+001 3.454620e+001
      vertex   9.555397e+000 2.250000e+001 2.396000e+001
    endloop
  endfacet
  facet normal 0.000000e+000 1.000000e+000 0.000000e+000
    outer loop
      vertex   8.169002e+001 2.250000e+001 -6.000000e+001
      vertex   8.669002e+001 2.250000e+001 -6.500000e+001
      vertex   7.669002e+001 2.250000e+001 -6.500000e+001
    endloop
  endfacet
  facet normal 0.000000e+000 1.000000e+000 0.000000e+000
    outer loop
      vertex   9.000000e+001 2.250000e+001 8.784077e+000
      vertex   9.000000e+001 2.250000e+001 -5.500000e+001
      vertex   8.669002e+001 2.250000e+001 -5.500000e+001
    endloop
  endfacet
  facet normal 0.000000e+000 1.000000e+000 0.000000e+000
    outer loop
      vertex   -9.000000e+001 2.250000e+001 8.784077e+000
      vertex   -8.257923e+001 2.250000e+001 -5.500000e+001
      vertex   -8.757923e+001 2.250000e+001 -5.500000e+001
    endloop
  endfacet
  facet normal 3.469447e-016 1.000000e+000 -3.469447e-016
    outer loop
      vertex   -8.257923e+001 2.250000e+001 -6.000000e+001
      vertex   -8.757923e+001 2.250000e+001 -6.500000e+001
      vertex   -8.757923e+001 2.250000e+001 -5.500000e+001
    endloop
  endfacet
  facet normal 6.663993e-017 1.000000e+000 -9.172200e-017
    outer loop
      vertex   -3.534773e+000 2.250000e+001 3.347057e+001
      vertex   -8.534773e+000 2.250000e+001 2.983785e+001
      vertex   -5.026544e+001 2.250000e+001 7.517011e+001
    endloop
  endfacet
  facet normal 0.000000e+000 1.000000e+000 -0.000000e+000
    outer loop
      vertex   8.669002e+001 2.250000e+001 -5.500000e+001
      vertex   8.169002e+001 2.250000e+001 -5.500000e+001
      vertex   9.000000e+001 2.250000e+001 8.784077e+000
    endloop
  endfacet
  facet normal -0.000000e+000 1.000000e+000 0.000000e+000
    outer loop
      vertex   -8.257923e+001 2.250000e+001 -6.000000e+001
      vertex   -7.757923e+001 2.250000e+001 -6.000000e+001
      vertex   -7.757923e+001 2.250000e+001 -6.500000e+001
    endloop
  endfacet
  facet normal 0.000000e+000 1.000000e+000 -6.938894e-016
    outer loop
      vertex   8.169002e+001 2.250000e+001 -6.000000e+001
      vertex   8.169002e+001 2.250000e+001 -5.500000e+001
      vertex   8.669002e+001 2.250000e+001 -5.500000e+001
    endloop
  endfacet
  facet normal 9.158222e-017 1.000000e+000 -2.286290e-017
    outer loop
      vertex   -9.000000e+001 2.250000e+001 8.784077e+000
      vertex   -8.356865e+001 2.250000e+001 3.454620e+001
      vertex   -1.044460e+001 2.250000e+001 2.396000e+001
    endloop
  endfacet
  facet normal 0.000000e+000 1.000000e+000 0.000000e+000
    outer loop
      vertex   -8.757923e+001 2.250000e+001 -5.500000e+001
      vertex   -9.000000e+001 2.250000e+001 -5.500000e+001
      vertex   -9.000000e+001 2.250000e+001 8.784077e+000
    endloop
  endfacet
  facet normal -1.000000e+000 -5.551115e-015 -1.387779e-015
    outer loop
      vertex   -8.757923e+001 1.750000e+001 -5.500000e+001
      vertex   -8.757923e+001 2.250000e+001 -5.500000e+001
      vertex   -8.757923e+001 2.250000e+001 -6.500000e+001
    endloop
  endfacet
  facet normal -1.000000e+000 0.000000e+000 1.387779e-015
    outer loop
      vertex   -8.757923e+001 2.250000e+001 -6.500000e+001
      vertex   -8.757923e+001 1.750000e+001 -6.500000e+001
      vertex   -8.757923e+001 1.750000e+001 -5.500000e+001
    endloop
  endfacet
  facet normal 0.000000e+000 -1.000000e+000 -0.000000e+000
    outer loop
      vertex   -8.757923e+001 1.750000e+001 -5.500000e+001
      vertex   -8.757923e+001 1.750000e+001 -6.500000e+001
      vertex   -8.257923e+001 1.750000e+001 -6.000000e+001
    endloop
  endfacet
  facet normal 0.000000e+000 -1.000000e+000 0.000000e+000
    outer loop
      vertex   -7.757923e+001 1.750000e+001 -6.500000e+001
      vertex   -7.757923e+001 1.750000e+001 -6.000000e+001
      vertex   -8.257923e+001 1.750000e+001 -6.000000e+001
    endloop
  endfacet
  facet normal 0.000000e+000 -1.000000e+000 -0.000000e+000
    outer loop
      vertex   -8.257923e+001 1.750000e+001 -6.000000e+001
      vertex   -8.757923e+001 1.750000e+001 -6.500000e+001
      vertex   -7.757923e+001 1.750000e+001 -6.500000e+001
    endloop
  endfacet
  facet normal 0.000000e+000 -1.000000e+000 0.000000e+000
    outer loop
      vertex   -8.257923e+001 1.750000e+001 -6.000000e+001
      vertex   -8.257923e+001 1.750000e+001 -5.500000e+001
      vertex   -8.757923e+001 1.750000e+001 -5.500000e+001
    endloop
  endfacet
  facet normal 0.000000e+000 0.000000e+000 -1.000000e+000
    outer loop
      vertex   -8.757923e+001 1.750000e+001 -6.500000e+001
      vertex   -8.757923e+001 2.250000e+001 -6.500000e+001
      vertex   -7.757923e+001 2.250000e+001 -6.500000e+001
    endloop
  endfacet
  facet normal 0.000000e+000 -0.000000e+000 -1.000000e+000
    outer loop
      vertex   -7.757923e+001 2.250000e+001 -6.500000e+001
      vertex   -7.757923e+001 1.750000e+001 -6.500000e+001
      vertex   -8.757923e+001 1.750000e+001 -6.500000e+001
    endloop
  endfacet
  facet normal 1.000000e+000 0.000000e+000 -2.775558e-015
    outer loop
      vertex   -7.757923e+001 1.750000e+001 -6.500000e+001
      vertex   -7.757923e+001 2.250000e+001 -6.500000e+001
      vertex   -7.757923e+001 2.250000e+001 -6.000000e+001
    endloop
  endfacet
  facet normal 1.000000e+000 0.000000e+000 -2.775558e-015
    outer loop
      vertex   -7.757923e+001 2.250000e+001 -6.000000e+001
      vertex   -7.757923e+001 1.750000e+001 -6.000000e+001
      vertex   -7.757923e+001 1.750000e+001 -6.500000e+001
    endloop
  endfacet
  facet normal 0.000000e+000 -0.000000e+000 1.000000e+000
    outer loop
      vertex   -7.757923e+001 1.750000e+001 -6.000000e+001
      vertex   -7.757923e+001 2.250000e+001 -6.000000e+001
      vertex   -8.257923e+001 2.250000e+001 -6.000000e+001
    endloop
  endfacet
  facet normal 0.000000e+000 0.000000e+000 1.000000e+000
    outer loop
      vertex   -8.257923e+001 2.250000e+001 -6.000000e+001
      vertex   -8.257923e+001 1.750000e+001 -6.000000e+001
      vertex   -7.757923e+001 1.750000e+001 -6.000000e+001
    endloop
  endfacet
  facet normal 1.000000e+000 0.000000e+000 2.775558e-015
    outer loop
      vertex   -8.257923e+001 1.750000e+001 -5.500000e+001
      vertex   -8.257923e+001 1.750000e+001 -6.000000e+001
      vertex   -8.257923e+001 2.250000e+001 -6.000000e+001
    endloop
  endfacet
  facet normal 1.000000e+000 0.000000e+000 2.775558e-015
    outer loop
      vertex   -8.257923e+001 2.250000e+001 -6.000000e+001
      vertex   -8.257923e+001 2.250000e+001 -5.500000e+001
      vertex   -8.257923e+001 1.750000e+001 -5.500000e+001
    endloop
  endfacet
  facet normal -1.601153e-016 3.965082e-016 -1.000000e+000
    outer loop
      vertex   -7.559899e+001 2.031871e+001 -5.500000e+001
      vertex   -8.257923e+001 -1.750000e+001 -5.500000e+001
      vertex   -8.257923e+001 1.750000e+001 -5.500000e+001
    endloop
  endfacet
  facet normal 0.000000e+000 -0.000000e+000 -1.000000e+000
    outer loop
      vertex   -1.044460e+001 2.250000e+001 -5.500000e+001
      vertex   -1.044460e+001 2.031871e+001 -5.500000e+001
      vertex   -7.559899e+001 2.031871e+001 -5.500000e+001
    endloop
  endfacet
  facet normal -2.775558e-015 1.100531e-030 -1.000000e+000
    outer loop
      vertex   -8.257923e+001 -1.750000e+001 -5.500000e+001
      vertex   -8.757923e+001 -1.750000e+001 -5.500000e+001
      vertex   -8.757923e+001 1.750000e+001 -5.500000e+001
    endloop
  endfacet
  facet normal 0.000000e+000 0.000000e+000 -1.000000e+000
    outer loop
      vertex   -9.000000e+001 2.250000e+001 -5.500000e+001
      vertex   -8.757923e+001 2.250000e+001 -5.500000e+001
      vertex   -8.757923e+001 1.750000e+001 -5.500000e+001
    endloop
  endfacet
  facet normal 0.000000e+000 0.000000e+000 -1.000000e+000
    outer loop
      vertex   -7.559899e+001 2.031871e+001 -5.500000e+001
      vertex   -8.257923e+001 2.250000e+001 -5.500000e+001
      vertex   -1.044460e+001 2.250000e+001 -5.500000e+001
    endloop
  endfacet
  facet normal -0.000000e+000 0.000000e+000 -1.000000e+000
    outer loop
      vertex   -8.757923e+001 1.750000e+001 -5.500000e+001
      vertex   -8.757923e+001 -1.750000e+001 -5.500000e+001
      vertex   -9.000000e+001 2.250000e+001 -5.500000e+001
    endloop
  endfacet
  facet normal 0.000000e+000 0.000000e+000 -1.000000e+000
    outer loop
      vertex   -9.000000e+001 -2.250000e+001 -5.500000e+001
      vertex   -9.000000e+001 2.250000e+001 -5.500000e+001
      vertex   -8.757923e+001 -1.750000e+001 -5.500000e+001
    endloop
  endfacet
  facet normal 0.000000e+000 3.965082e-016 -1.000000e+000
    outer loop
      vertex   -8.757923e+001 1.750000e+001 -5.500000e+001
      vertex   -8.257923e+001 1.750000e+001 -5.500000e+001
      vertex   -8.257923e+001 -1.750000e+001 -5.500000e+001
    endloop
  endfacet
  facet normal 0.000000e+000 0.000000e+000 -1.000000e+000
    outer loop
      vertex   -8.257923e+001 1.750000e+001 -5.500000e+001
      vertex   -8.257923e+001 2.250000e+001 -5.500000e+001
      vertex   -7.559899e+001 2.031871e+001 -5.500000e+001
    endloop
  endfacet
  facet normal 6.997579e-016 -2.775558e-015 -1.000000e+000
    outer loop
      vertex   -7.559899e+001 -2.074018e+001 -5.500000e+001
      vertex   -8.257923e+001 -2.250000e+001 -5.500000e+001
      vertex   -8.257923e+001 -1.750000e+001 -5.500000e+001
    endloop
  endfacet
  facet normal -0.000000e+000 0.000000e+000 -1.000000e+000
    outer loop
      vertex   -1.044460e+001 -2.250000e+001 -5.500000e+001
      vertex   -8.257923e+001 -2.250000e+001 -5.500000e+001
      vertex   -7.559899e+001 -2.074018e+001 -5.500000e+001
    endloop
  endfacet
  facet normal 1.988154e-015 0.000000e+000 -1.000000e+000
    outer loop
      vertex   -8.257923e+001 -1.750000e+001 -5.500000e+001
      vertex   -7.559899e+001 2.031871e+001 -5.500000e+001
      vertex   -7.559899e+001 -2.074018e+001 -5.500000e+001
    endloop
  endfacet
  facet normal 0.000000e+000 -0.000000e+000 -1.000000e+000
    outer loop
      vertex   -8.757923e+001 -1.750000e+001 -5.500000e+001
      vertex   -8.757923e+001 -2.250000e+001 -5.500000e+001
      vertex   -9.000000e+001 -2.250000e+001 -5.500000e+001
    endloop
  endfacet
  facet normal 0.000000e+000 0.000000e+000 -1.000000e+000
    outer loop
      vertex   -7.559899e+001 -2.074018e+001 -5.500000e+001
      vertex   -1.044460e+001 -2.061782e+001 -5.500000e+001
      vertex   -1.044460e+001 -2.250000e+001 -5.500000e+001
    endloop
  endfacet
  facet normal -1.000000e+000 0.000000e+000 0.000000e+000
    outer loop
      vertex   -8.757923e+001 -1.750000e+001 -6.500000e+001
      vertex   -8.757923e+001 -2.250000e+001 -6.500000e+001
      vertex   -8.757923e+001 -2.250000e+001 -5.500000e+001
    endloop
  endfacet
  facet normal -1.000000e+000 0.000000e+000 0.000000e+000
    outer loop
      vertex   -8.757923e+001 -2.250000e+001 -5.500000e+001
      vertex   -8.757923e+001 -1.750000e+001 -5.500000e+001
      vertex   -8.757923e+001 -1.750000e+001 -6.500000e+001
    endloop
  endfacet
  facet normal 1.000000e+000 0.000000e+000 0.000000e+000
    outer loop
      vertex   -8.257923e+001 -2.250000e+001 -6.000000e+001
      vertex   -8.257923e+001 -1.750000e+001 -6.000000e+001
      vertex   -8.257923e+001 -1.750000e+001 -5.500000e+001
    endloop
  endfacet
  facet normal 1.000000e+000 -2.775558e-015 2.775558e-015
    outer loop
      vertex   -8.257923e+001 -1.750000e+001 -5.500000e+001
      vertex   -8.257923e+001 -2.250000e+001 -5.500000e+001
      vertex   -8.257923e+001 -2.250000e+001 -6.000000e+001
    endloop
  endfacet
  facet normal -4.809683e-017 -1.000000e+000 3.170012e-033
    outer loop
      vertex   9.555397e+000 -2.250000e+001 2.396000e+001
      vertex   9.555397e+000 -2.250000e+001 -5.500000e+001
      vertex   8.169002e+001 -2.250000e+001 -5.500000e+001
    endloop
  endfacet
  facet normal 7.494053e-017 -1.000000e+000 8.261089e-017
    outer loop
      vertex   6.993187e+001 -2.250000e+001 5.732969e+001
      vertex   5.026544e+001 -2.250000e+001 7.517011e+001
      vertex   7.645567e+000 -2.250000e+001 2.983785e+001
    endloop
  endfacet
  facet normal -4.209382e-017 -1.000000e+000 5.484109e-018
    outer loop
      vertex   8.169002e+001 -2.250000e+001 -5.500000e+001
      vertex   9.000000e+001 -2.250000e+001 8.784077e+000
      vertex   9.555397e+000 -2.250000e+001 2.396000e+001
    endloop
  endfacet
  facet normal 1.295383e-016 -1.000000e+000 7.753361e-017
    outer loop
      vertex   9.555397e+000 -2.250000e+001 2.396000e+001
      vertex   8.356865e+001 -2.250000e+001 3.454620e+001
      vertex   6.993187e+001 -2.250000e+001 5.732969e+001
    endloop
  endfacet
  facet normal -1.825038e-017 -1.000000e+000 1.229593e-016
    outer loop
      vertex   1.107419e-014 -2.250000e+001 9.042765e+001
      vertex   -2.626503e+001 -2.250000e+001 8.652923e+001
      vertex   -3.534773e+000 -2.250000e+001 3.347057e+001
    endloop
  endfacet
  facet normal -1.304200e-016 -1.000000e+000 5.478816e-016
    outer loop
      vertex   7.645567e+000 -2.250000e+001 2.983785e+001
      vertex   9.555397e+000 -2.250000e+001 2.396000e+001
      vertex   6.993187e+001 -2.250000e+001 5.732969e+001
    endloop
  endfacet
  facet normal 5.112434e-017 -1.000000e+000 1.080194e-016
    outer loop
      vertex   5.026544e+001 -2.250000e+001 7.517011e+001
      vertex   2.626503e+001 -2.250000e+001 8.652923e+001
      vertex   2.645567e+000 -2.250000e+001 3.347057e+001
    endloop
  endfacet
  facet normal 1.820779e-017 -1.000000e+000 1.226724e-016
    outer loop
      vertex   2.645567e+000 -2.250000e+001 3.347057e+001
      vertex   2.626503e+001 -2.250000e+001 8.652923e+001
      vertex   1.107419e-014 -2.250000e+001 9.042765e+001
    endloop
  endfacet
  facet normal -6.663993e-017 -1.000000e+000 9.172200e-017
    outer loop
      vertex   -5.026544e+001 -2.250000e+001 7.517011e+001
      vertex   -8.534773e+000 -2.250000e+001 2.983785e+001
      vertex   -3.534773e+000 -2.250000e+001 3.347057e+001
    endloop
  endfacet
  facet normal 1.320689e-016 -1.000000e+000 5.473458e-016
    outer loop
      vertex   -6.993187e+001 -2.250000e+001 5.732969e+001
      vertex   -1.044460e+001 -2.250000e+001 2.396000e+001
      vertex   -8.534773e+000 -2.250000e+001 2.983785e+001
    endloop
  endfacet
  facet normal 4.266361e-017 -1.000000e+000 4.963574e-018
    outer loop
      vertex   -1.044460e+001 -2.250000e+001 2.396000e+001
      vertex   -9.000000e+001 -2.250000e+001 8.784077e+000
      vertex   -8.257923e+001 -2.250000e+001 -5.500000e+001
    endloop
  endfacet
  facet normal 6.607566e-017 -1.000000e+000 9.094534e-017
    outer loop
      vertex   2.645567e+000 -2.250000e+001 3.347057e+001
      vertex   7.645567e+000 -2.250000e+001 2.983785e+001
      vertex   5.026544e+001 -2.250000e+001 7.517011e+001
    endloop
  endfacet
  facet normal -5.146149e-017 -1.000000e+000 1.087317e-016
    outer loop
      vertex   -3.534773e+000 -2.250000e+001 3.347057e+001
      vertex   -2.626503e+001 -2.250000e+001 8.652923e+001
      vertex   -5.026544e+001 -2.250000e+001 7.517011e+001
    endloop
  endfacet
  facet normal -7.566720e-017 -1.000000e+000 8.341193e-017
    outer loop
      vertex   -8.534773e+000 -2.250000e+001 2.983785e+001
      vertex   -5.026544e+001 -2.250000e+001 7.517011e+001
      vertex   -6.993187e+001 -2.250000e+001 5.732969e+001
    endloop
  endfacet
  facet normal -6.210719e-017 -1.000000e+000 5.541942e-016
    outer loop
      vertex   -1.044460e+001 -2.250000e+001 2.396000e+001
      vertex   -8.356865e+001 -2.250000e+001 3.454620e+001
      vertex   -9.000000e+001 -2.250000e+001 8.784077e+000
    endloop
  endfacet
  facet normal 0.000000e+000 -1.000000e+000 0.000000e+000
    outer loop
      vertex   -8.757923e+001 -2.250000e+001 -5.500000e+001
      vertex   -8.757923e+001 -2.250000e+001 -6.500000e+001
      vertex   -8.257923e+001 -2.250000e+001 -6.000000e+001
    endloop
  endfacet
  facet normal 0.000000e+000 -1.000000e+000 0.000000e+000
    outer loop
      vertex   -7.757923e+001 -2.250000e+001 -6.500000e+001
      vertex   -7.757923e+001 -2.250000e+001 -6.000000e+001
      vertex   -8.257923e+001 -2.250000e+001 -6.000000e+001
    endloop
  endfacet
  facet normal 0.000000e+000 -1.000000e+000 0.000000e+000
    outer loop
      vertex   7.669002e+001 -2.250000e+001 -6.500000e+001
      vertex   8.669002e+001 -2.250000e+001 -6.500000e+001
      vertex   8.169002e+001 -2.250000e+001 -6.000000e+001
    endloop
  endfacet
  facet normal -0.000000e+000 -1.000000e+000 -6.938894e-016
    outer loop
      vertex   8.669002e+001 -2.250000e+001 -5.500000e+001
      vertex   8.169002e+001 -2.250000e+001 -5.500000e+001
      vertex   8.169002e+001 -2.250000e+001 -6.000000e+001
    endloop
  endfacet
  facet normal 0.000000e+000 -1.000000e+000 1.218267e-016
    outer loop
      vertex   -3.534773e+000 -2.250000e+001 3.347057e+001
      vertex   2.645567e+000 -2.250000e+001 3.347057e+001
      vertex   1.107419e-014 -2.250000e+001 9.042765e+001
    endloop
  endfacet
  facet normal 4.809683e-017 -1.000000e+000 0.000000e+000
    outer loop
      vertex   -8.257923e+001 -2.250000e+001 -5.500000e+001
      vertex   -1.044460e+001 -2.250000e+001 -5.500000e+001
      vertex   -1.044460e+001 -2.250000e+001 2.396000e+001
    endloop
  endfacet
  facet normal 0.000000e+000 -1.000000e+000 -0.000000e+000
    outer loop
      vertex   -8.257923e+001 -2.250000e+001 -6.000000e+001
      vertex   -8.757923e+001 -2.250000e+001 -6.500000e+001
      vertex   -7.757923e+001 -2.250000e+001 -6.500000e+001
    endloop
  endfacet
  facet normal 1.433197e-015 -1.000000e+000 0.000000e+000
    outer loop
      vertex   -9.000000e+001 -2.250000e+001 8.784077e+000
      vertex   -9.000000e+001 -2.250000e+001 -5.500000e+001
      vertex   -8.757923e+001 -2.250000e+001 -5.500000e+001
    endloop
  endfacet
  facet normal 0.000000e+000 -1.000000e+000 0.000000e+000
    outer loop
      vertex   9.000000e+001 -2.250000e+001 8.784077e+000
      vertex   8.169002e+001 -2.250000e+001 -5.500000e+001
      vertex   8.669002e+001 -2.250000e+001 -5.500000e+001
    endloop
  endfacet
  facet normal -3.469447e-016 -1.000000e+000 -3.469447e-016
    outer loop
      vertex   8.169002e+001 -2.250000e+001 -6.000000e+001
      vertex   8.669002e+001 -2.250000e+001 -6.500000e+001
      vertex   8.669002e+001 -2.250000e+001 -5.500000e+001
    endloop
  endfacet
  facet normal -1.309879e-016 -1.000000e+000 7.840126e-017
    outer loop
      vertex   -6.993187e+001 -2.250000e+001 5.732969e+001
      vertex   -8.356865e+001 -2.250000e+001 3.454620e+001
      vertex   -1.044460e+001 -2.250000e+001 2.396000e+001
    endloop
  endfacet
  facet normal -6.938894e-016 -1.000000e+000 -8.072856e-017
    outer loop
      vertex   -8.757923e+001 -2.250000e+001 -5.500000e+001
      vertex   -8.257923e+001 -2.250000e+001 -5.500000e+001
      vertex   -9.000000e+001 -2.250000e+001 8.784077e+000
    endloop
  endfacet
  facet normal -0.000000e+000 -1.000000e+000 0.000000e+000
    outer loop
      vertex   8.169002e+001 -2.250000e+001 -6.000000e+001
      vertex   7.669002e+001 -2.250000e+001 -6.000000e+001
      vertex   7.669002e+001 -2.250000e+001 -6.500000e+001
    endloop
  endfacet
  facet normal -6.938894e-016 -1.000000e+000 -6.938894e-016
    outer loop
      vertex   -8.257923e+001 -2.250000e+001 -6.000000e+001
      vertex   -8.257923e+001 -2.250000e+001 -5.500000e+001
      vertex   -8.757923e+001 -2.250000e+001 -5.500000e+001
    endloop
  endfacet
  facet normal 6.138675e-017 -1.000000e+000 5.540144e-016
    outer loop
      vertex   9.000000e+001 -2.250000e+001 8.784077e+000
      vertex   8.356865e+001 -2.250000e+001 3.454620e+001
      vertex   9.555397e+000 -2.250000e+001 2.396000e+001
    endloop
  endfacet
  facet normal 0.000000e+000 -1.000000e+000 0.000000e+000
    outer loop
      vertex   8.669002e+001 -2.250000e+001 -5.500000e+001
      vertex   9.000000e+001 -2.250000e+001 -5.500000e+001
      vertex   9.000000e+001 -2.250000e+001 8.784077e+000
    endloop
  endfacet
  facet normal 0.000000e+000 1.000000e+000 0.000000e+000
    outer loop
      vertex   -7.757923e+001 -1.750000e+001 -6.500000e+001
      vertex   -8.757923e+001 -1.750000e+001 -6.500000e+001
      vertex   -8.257923e+001 -1.750000e+001 -6.000000e+001
    endloop
  endfacet
  facet normal 0.000000e+000 1.000000e+000 0.000000e+000
    outer loop
      vertex   -8.757923e+001 -1.750000e+001 -5.500000e+001
      vertex   -8.257923e+001 -1.750000e+001 -5.500000e+001
      vertex   -8.257923e+001 -1.750000e+001 -6.000000e+001
    endloop
  endfacet
  facet normal 0.000000e+000 1.000000e+000 0.000000e+000
    outer loop
      vertex   -8.257923e+001 -1.750000e+001 -6.000000e+001
      vertex   -8.757923e+001 -1.750000e+001 -6.500000e+001
      vertex   -8.757923e+001 -1.750000e+001 -5.500000e+001
    endloop
  endfacet
  facet normal -0.000000e+000 1.000000e+000 0.000000e+000
    outer loop
      vertex   -8.257923e+001 -1.750000e+001 -6.000000e+001
      vertex   -7.757923e+001 -1.750000e+001 -6.000000e+001
      vertex   -7.757923e+001 -1.750000e+001 -6.500000e+001
    endloop
  endfacet
  facet normal 0.000000e+000 0.000000e+000 1.000000e+000
    outer loop
      vertex   -8.257923e+001 -1.750000e+001 -6.000000e+001
      vertex   -8.257923e+001 -2.250000e+001 -6.000000e+001
      vertex   -7.757923e+001 -2.250000e+001 -6.000000e+001
    endloop
  endfacet
  facet normal 0.000000e+000 -0.000000e+000 1.000000e+000
    outer loop
      vertex   -7.757923e+001 -2.250000e+001 -6.000000e+001
      vertex   -7.757923e+001 -1.750000e+001 -6.000000e+001
      vertex   -8.257923e+001 -1.750000e+001 -6.000000e+001
    endloop
  endfacet
  facet normal 1.000000e+000 0.000000e+000 -2.775558e-015
    outer loop
      vertex   -7.757923e+001 -1.750000e+001 -6.000000e+001
      vertex   -7.757923e+001 -2.250000e+001 -6.000000e+001
      vertex   -7.757923e+001 -2.250000e+001 -6.500000e+001
    endloop
  endfacet
  facet normal 1.000000e+000 0.000000e+000 -2.775558e-015
    outer loop
      vertex   -7.757923e+001 -2.250000e+001 -6.500000e+001
      vertex   -7.757923e+001 -1.750000e+001 -6.500000e+001
      vertex   -7.757923e+001 -1.750000e+001 -6.000000e+001
    endloop
  endfacet
  facet normal 0.000000e+000 -0.000000e+000 -1.000000e+000
    outer loop
      vertex   -7.757923e+001 -1.750000e+001 -6.500000e+001
      vertex   -7.757923e+001 -2.250000e+001 -6.500000e+001
      vertex   -8.757923e+001 -2.250000e+001 -6.500000e+001
    endloop
  endfacet
  facet normal 0.000000e+000 0.000000e+000 -1.000000e+000
    outer loop
      vertex   -8.757923e+001 -2.250000e+001 -6.500000e+001
      vertex   -8.757923e+001 -1.750000e+001 -6.500000e+001
      vertex   -7.757923e+001 -1.750000e+001 -6.500000e+001
    endloop
  endfacet
endsolid
