solid Rotor2
  facet normal 4.570023e-016 0.000000e+000 -1.000000e+000
    outer loop
      vertex   -4.850000e+002 -3.250000e+002 -5.939537e-014
      vertex   -4.850000e+002 3.250000e+002 -5.939537e-014
      vertex   -2.800000e+002 3.250000e+002 3.429011e-014
    endloop
  endfacet
  facet normal 4.570023e-016 0.000000e+000 -1.000000e+000
    outer loop
      vertex   -2.800000e+002 3.250000e+002 3.429011e-014
      vertex   -2.800000e+002 -3.250000e+002 3.429011e-014
      vertex   -4.850000e+002 -3.250000e+002 -5.939537e-014
    endloop
  endfacet
  facet normal -9.961947e-001 0.000000e+000 8.715574e-002
    outer loop
      vertex   -4.850000e+002 3.250000e+002 -5.939537e-014
      vertex   -4.850000e+002 -3.250000e+002 -5.939537e-014
      vertex   -4.776318e+002 -3.250000e+002 8.421937e+001
    endloop
  endfacet
  facet normal -9.659258e-001 0.000000e+000 2.588190e-001
    outer loop
      vertex   -4.776318e+002 3.250000e+002 8.421937e+001
      vertex   -4.776318e+002 -3.250000e+002 8.421937e+001
      vertex   -4.557509e+002 -3.250000e+002 1.658798e+002
    endloop
  endfacet
  facet normal -9.659258e-001 0.000000e+000 2.588190e-001
    outer loop
      vertex   -4.557509e+002 -3.250000e+002 1.658798e+002
      vertex   -4.557509e+002 3.250000e+002 1.658798e+002
      vertex   -4.776318e+002 3.250000e+002 8.421937e+001
    endloop
  endfacet
  facet normal -9.961947e-001 0.000000e+000 8.715574e-002
    outer loop
      vertex   -4.776318e+002 -3.250000e+002 8.421937e+001
      vertex   -4.776318e+002 3.250000e+002 8.421937e+001
      vertex   -4.850000e+002 3.250000e+002 -5.939537e-014
    endloop
  endfacet
  facet normal 3.420201e-001 -0.000000e+000 9.396926e-001
    outer loop
      vertex   -2.631139e+002 -3.250000e+002 9.576564e+001
      vertex   -2.631139e+002 3.250000e+002 9.576564e+001
      vertex   -4.557509e+002 3.250000e+002 1.658798e+002
    endloop
  endfacet
  facet normal 3.420201e-001 0.000000e+000 9.396926e-001
    outer loop
      vertex   -4.557509e+002 3.250000e+002 1.658798e+002
      vertex   -4.557509e+002 -3.250000e+002 1.658798e+002
      vertex   -2.631139e+002 -3.250000e+002 9.576564e+001
    endloop
  endfacet
  facet normal 9.848078e-001 0.000000e+000 -1.736482e-001
    outer loop
      vertex   -2.800000e+002 3.250000e+002 3.429011e-014
      vertex   -2.631139e+002 3.250000e+002 9.576564e+001
      vertex   -2.631139e+002 -3.250000e+002 9.576564e+001
    endloop
  endfacet
  facet normal 9.848078e-001 0.000000e+000 -1.736482e-001
    outer loop
      vertex   -2.631139e+002 -3.250000e+002 9.576564e+001
      vertex   -2.800000e+002 -3.250000e+002 3.429011e-014
      vertex   -2.800000e+002 3.250000e+002 3.429011e-014
    endloop
  endfacet
  facet normal 0.000000e+000 -1.000000e+000 0.000000e+000
    outer loop
      vertex   -4.776318e+002 -3.250000e+002 8.421937e+001
      vertex   -2.800000e+002 -3.250000e+002 3.429011e-014
      vertex   -2.631139e+002 -3.250000e+002 9.576564e+001
    endloop
  endfacet
  facet normal -0.000000e+000 -1.000000e+000 0.000000e+000
    outer loop
      vertex   -2.631139e+002 -3.250000e+002 9.576564e+001
      vertex   -4.557509e+002 -3.250000e+002 1.658798e+002
      vertex   -4.776318e+002 -3.250000e+002 8.421937e+001
    endloop
  endfacet
  facet normal 0.000000e+000 -1.000000e+000 -0.000000e+000
    outer loop
      vertex   -4.776318e+002 -3.250000e+002 8.421937e+001
      vertex   -4.850000e+002 -3.250000e+002 -5.939537e-014
      vertex   -2.800000e+002 -3.250000e+002 3.429011e-014
    endloop
  endfacet
  facet normal 0.000000e+000 1.000000e+000 0.000000e+000
    outer loop
      vertex   -4.776318e+002 3.250000e+002 8.421937e+001
      vertex   -4.557509e+002 3.250000e+002 1.658798e+002
      vertex   -2.631139e+002 3.250000e+002 9.576564e+001
    endloop
  endfacet
  facet normal 0.000000e+000 1.000000e+000 0.000000e+000
    outer loop
      vertex   -2.800000e+002 3.250000e+002 3.429011e-014
      vertex   -4.850000e+002 3.250000e+002 -5.939537e-014
      vertex   -4.776318e+002 3.250000e+002 8.421937e+001
    endloop
  endfacet
  facet normal 0.000000e+000 1.000000e+000 0.000000e+000
    outer loop
      vertex   -2.631139e+002 3.250000e+002 9.576564e+001
      vertex   -2.800000e+002 3.250000e+002 3.429011e-014
      vertex   -4.776318e+002 3.250000e+002 8.421937e+001
    endloop
  endfacet
  facet normal -2.588190e-001 -0.000000e+000 -9.659258e-001
    outer loop
      vertex   -8.421937e+001 3.250000e+002 -4.776318e+002
      vertex   -8.421937e+001 -3.250000e+002 -4.776318e+002
      vertex   -1.658798e+002 -3.250000e+002 -4.557509e+002
    endloop
  endfacet
  facet normal -4.226183e-001 -0.000000e+000 -9.063078e-001
    outer loop
      vertex   -1.658798e+002 3.250000e+002 -4.557509e+002
      vertex   -1.658798e+002 -3.250000e+002 -4.557509e+002
      vertex   -2.425000e+002 -3.250000e+002 -4.200223e+002
    endloop
  endfacet
  facet normal -4.226183e-001 0.000000e+000 -9.063078e-001
    outer loop
      vertex   -2.425000e+002 -3.250000e+002 -4.200223e+002
      vertex   -2.425000e+002 3.250000e+002 -4.200223e+002
      vertex   -1.658798e+002 3.250000e+002 -4.557509e+002
    endloop
  endfacet
  facet normal -2.588190e-001 0.000000e+000 -9.659258e-001
    outer loop
      vertex   -1.658798e+002 -3.250000e+002 -4.557509e+002
      vertex   -1.658798e+002 3.250000e+002 -4.557509e+002
      vertex   -8.421937e+001 3.250000e+002 -4.776318e+002
    endloop
  endfacet
  facet normal 9.848078e-001 0.000000e+000 -1.736482e-001
    outer loop
      vertex   -8.421937e+001 3.250000e+002 -4.776318e+002
      vertex   -4.862149e+001 3.250000e+002 -2.757462e+002
      vertex   -4.862149e+001 -3.250000e+002 -2.757462e+002
    endloop
  endfacet
  facet normal 9.848078e-001 0.000000e+000 -1.736482e-001
    outer loop
      vertex   -4.862149e+001 -3.250000e+002 -2.757462e+002
      vertex   -8.421937e+001 -3.250000e+002 -4.776318e+002
      vertex   -8.421937e+001 3.250000e+002 -4.776318e+002
    endloop
  endfacet
  facet normal 3.420201e-001 0.000000e+000 9.396926e-001
    outer loop
      vertex   -4.862149e+001 3.250000e+002 -2.757462e+002
      vertex   -1.400000e+002 3.250000e+002 -2.424871e+002
      vertex   -1.400000e+002 -3.250000e+002 -2.424871e+002
    endloop
  endfacet
  facet normal 3.420201e-001 0.000000e+000 9.396926e-001
    outer loop
      vertex   -1.400000e+002 -3.250000e+002 -2.424871e+002
      vertex   -4.862149e+001 -3.250000e+002 -2.757462e+002
      vertex   -4.862149e+001 3.250000e+002 -2.757462e+002
    endloop
  endfacet
  facet normal -8.660254e-001 0.000000e+000 5.000000e-001
    outer loop
      vertex   -1.400000e+002 -3.250000e+002 -2.424871e+002
      vertex   -1.400000e+002 3.250000e+002 -2.424871e+002
      vertex   -2.425000e+002 3.250000e+002 -4.200223e+002
    endloop
  endfacet
  facet normal -8.660254e-001 0.000000e+000 5.000000e-001
    outer loop
      vertex   -2.425000e+002 3.250000e+002 -4.200223e+002
      vertex   -2.425000e+002 -3.250000e+002 -4.200223e+002
      vertex   -1.400000e+002 -3.250000e+002 -2.424871e+002
    endloop
  endfacet
  facet normal 0.000000e+000 -1.000000e+000 0.000000e+000
    outer loop
      vertex   -1.658798e+002 -3.250000e+002 -4.557509e+002
      vertex   -4.862149e+001 -3.250000e+002 -2.757462e+002
      vertex   -1.400000e+002 -3.250000e+002 -2.424871e+002
    endloop
  endfacet
  facet normal 0.000000e+000 -1.000000e+000 0.000000e+000
    outer loop
      vertex   -1.400000e+002 -3.250000e+002 -2.424871e+002
      vertex   -2.425000e+002 -3.250000e+002 -4.200223e+002
      vertex   -1.658798e+002 -3.250000e+002 -4.557509e+002
    endloop
  endfacet
  facet normal 0.000000e+000 -1.000000e+000 0.000000e+000
    outer loop
      vertex   -1.658798e+002 -3.250000e+002 -4.557509e+002
      vertex   -8.421937e+001 -3.250000e+002 -4.776318e+002
      vertex   -4.862149e+001 -3.250000e+002 -2.757462e+002
    endloop
  endfacet
  facet normal 5.708196e-016 1.000000e+000 -3.295629e-016
    outer loop
      vertex   -1.658798e+002 3.250000e+002 -4.557509e+002
      vertex   -2.425000e+002 3.250000e+002 -4.200223e+002
      vertex   -1.400000e+002 3.250000e+002 -2.424871e+002
    endloop
  endfacet
  facet normal -6.491121e-016 1.000000e+000 1.144560e-016
    outer loop
      vertex   -4.862149e+001 3.250000e+002 -2.757462e+002
      vertex   -8.421937e+001 3.250000e+002 -4.776318e+002
      vertex   -1.658798e+002 3.250000e+002 -4.557509e+002
    endloop
  endfacet
  facet normal -9.073159e-017 1.000000e+000 -2.492830e-016
    outer loop
      vertex   -1.400000e+002 3.250000e+002 -2.424871e+002
      vertex   -4.862149e+001 3.250000e+002 -2.757462e+002
      vertex   -1.658798e+002 3.250000e+002 -4.557509e+002
    endloop
  endfacet
  facet normal -6.427876e-001 0.000000e+000 -7.660444e-001
    outer loop
      vertex   -3.715316e+002 3.250000e+002 3.117520e+002
      vertex   -2.144924e+002 3.250000e+002 1.799805e+002
      vertex   -2.144924e+002 -3.250000e+002 1.799805e+002
    endloop
  endfacet
  facet normal -6.427876e-001 0.000000e+000 -7.660444e-001
    outer loop
      vertex   -2.144924e+002 -3.250000e+002 1.799805e+002
      vertex   -3.715316e+002 -3.250000e+002 3.117520e+002
      vertex   -3.715316e+002 3.250000e+002 3.117520e+002
    endloop
  endfacet
  facet normal -7.071068e-001 0.000000e+000 7.071068e-001
    outer loop
      vertex   -3.715316e+002 3.250000e+002 3.117520e+002
      vertex   -3.715316e+002 -3.250000e+002 3.117520e+002
      vertex   -3.117520e+002 -3.250000e+002 3.715316e+002
    endloop
  endfacet
  facet normal -5.735764e-001 0.000000e+000 8.191520e-001
    outer loop
      vertex   -3.117520e+002 3.250000e+002 3.715316e+002
      vertex   -3.117520e+002 -3.250000e+002 3.715316e+002
      vertex   -2.425000e+002 -3.250000e+002 4.200223e+002
    endloop
  endfacet
  facet normal -5.735764e-001 0.000000e+000 8.191520e-001
    outer loop
      vertex   -2.425000e+002 -3.250000e+002 4.200223e+002
      vertex   -2.425000e+002 3.250000e+002 4.200223e+002
      vertex   -3.117520e+002 3.250000e+002 3.715316e+002
    endloop
  endfacet
  facet normal -7.071068e-001 0.000000e+000 7.071068e-001
    outer loop
      vertex   -3.117520e+002 -3.250000e+002 3.715316e+002
      vertex   -3.117520e+002 3.250000e+002 3.715316e+002
      vertex   -3.715316e+002 3.250000e+002 3.117520e+002
    endloop
  endfacet
  facet normal 8.660254e-001 -0.000000e+000 5.000000e-001
    outer loop
      vertex   -1.400000e+002 -3.250000e+002 2.424871e+002
      vertex   -1.400000e+002 3.250000e+002 2.424871e+002
      vertex   -2.425000e+002 3.250000e+002 4.200223e+002
    endloop
  endfacet
  facet normal 8.660254e-001 0.000000e+000 5.000000e-001
    outer loop
      vertex   -2.425000e+002 3.250000e+002 4.200223e+002
      vertex   -2.425000e+002 -3.250000e+002 4.200223e+002
      vertex   -1.400000e+002 -3.250000e+002 2.424871e+002
    endloop
  endfacet
  facet normal 6.427876e-001 0.000000e+000 -7.660444e-001
    outer loop
      vertex   -2.144924e+002 3.250000e+002 1.799805e+002
      vertex   -1.400000e+002 3.250000e+002 2.424871e+002
      vertex   -1.400000e+002 -3.250000e+002 2.424871e+002
    endloop
  endfacet
  facet normal 6.427876e-001 0.000000e+000 -7.660444e-001
    outer loop
      vertex   -1.400000e+002 -3.250000e+002 2.424871e+002
      vertex   -2.144924e+002 -3.250000e+002 1.799805e+002
      vertex   -2.144924e+002 3.250000e+002 1.799805e+002
    endloop
  endfacet
  facet normal 0.000000e+000 -1.000000e+000 0.000000e+000
    outer loop
      vertex   -3.117520e+002 -3.250000e+002 3.715316e+002
      vertex   -2.144924e+002 -3.250000e+002 1.799805e+002
      vertex   -1.400000e+002 -3.250000e+002 2.424871e+002
    endloop
  endfacet
  facet normal 0.000000e+000 -1.000000e+000 0.000000e+000
    outer loop
      vertex   -1.400000e+002 -3.250000e+002 2.424871e+002
      vertex   -2.425000e+002 -3.250000e+002 4.200223e+002
      vertex   -3.117520e+002 -3.250000e+002 3.715316e+002
    endloop
  endfacet
  facet normal 0.000000e+000 -1.000000e+000 -0.000000e+000
    outer loop
      vertex   -3.117520e+002 -3.250000e+002 3.715316e+002
      vertex   -3.715316e+002 -3.250000e+002 3.117520e+002
      vertex   -2.144924e+002 -3.250000e+002 1.799805e+002
    endloop
  endfacet
  facet normal -0.000000e+000 1.000000e+000 0.000000e+000
    outer loop
      vertex   -3.117520e+002 3.250000e+002 3.715316e+002
      vertex   -2.425000e+002 3.250000e+002 4.200223e+002
      vertex   -1.400000e+002 3.250000e+002 2.424871e+002
    endloop
  endfacet
  facet normal 0.000000e+000 1.000000e+000 0.000000e+000
    outer loop
      vertex   -2.144924e+002 3.250000e+002 1.799805e+002
      vertex   -3.715316e+002 3.250000e+002 3.117520e+002
      vertex   -3.117520e+002 3.250000e+002 3.715316e+002
    endloop
  endfacet
  facet normal 0.000000e+000 1.000000e+000 0.000000e+000
    outer loop
      vertex   -1.400000e+002 3.250000e+002 2.424871e+002
      vertex   -2.144924e+002 3.250000e+002 1.799805e+002
      vertex   -3.117520e+002 3.250000e+002 3.715316e+002
    endloop
  endfacet
  facet normal -9.848078e-001 0.000000e+000 -1.736482e-001
    outer loop
      vertex   -8.421937e+001 -3.250000e+002 4.776318e+002
      vertex   -8.421937e+001 3.250000e+002 4.776318e+002
      vertex   -4.862149e+001 3.250000e+002 2.757462e+002
    endloop
  endfacet
  facet normal -9.848078e-001 -0.000000e+000 -1.736482e-001
    outer loop
      vertex   -4.862149e+001 3.250000e+002 2.757462e+002
      vertex   -4.862149e+001 -3.250000e+002 2.757462e+002
      vertex   -8.421937e+001 -3.250000e+002 4.776318e+002
    endloop
  endfacet
  facet normal -8.715574e-002 0.000000e+000 9.961947e-001
    outer loop
      vertex   -8.421937e+001 3.250000e+002 4.776318e+002
      vertex   -8.421937e+001 -3.250000e+002 4.776318e+002
      vertex   -1.187907e-013 -3.250000e+002 4.850000e+002
    endloop
  endfacet
  facet normal 8.715574e-002 0.000000e+000 9.961947e-001
    outer loop
      vertex   -1.187907e-013 3.250000e+002 4.850000e+002
      vertex   -1.187907e-013 -3.250000e+002 4.850000e+002
      vertex   8.421937e+001 -3.250000e+002 4.776318e+002
    endloop
  endfacet
  facet normal 8.715574e-002 -0.000000e+000 9.961947e-001
    outer loop
      vertex   8.421937e+001 -3.250000e+002 4.776318e+002
      vertex   8.421937e+001 3.250000e+002 4.776318e+002
      vertex   -1.187907e-013 3.250000e+002 4.850000e+002
    endloop
  endfacet
  facet normal -8.715574e-002 0.000000e+000 9.961947e-001
    outer loop
      vertex   -1.187907e-013 -3.250000e+002 4.850000e+002
      vertex   -1.187907e-013 3.250000e+002 4.850000e+002
      vertex   -8.421937e+001 3.250000e+002 4.776318e+002
    endloop
  endfacet
  facet normal 9.848078e-001 0.000000e+000 -1.736482e-001
    outer loop
      vertex   4.862149e+001 -3.250000e+002 2.757462e+002
      vertex   4.862149e+001 3.250000e+002 2.757462e+002
      vertex   8.421937e+001 3.250000e+002 4.776318e+002
    endloop
  endfacet
  facet normal 9.848078e-001 0.000000e+000 -1.736482e-001
    outer loop
      vertex   8.421937e+001 3.250000e+002 4.776318e+002
      vertex   8.421937e+001 -3.250000e+002 4.776318e+002
      vertex   4.862149e+001 -3.250000e+002 2.757462e+002
    endloop
  endfacet
  facet normal 3.425100e-015 0.000000e+000 -1.000000e+000
    outer loop
      vertex   -4.862149e+001 3.250000e+002 2.757462e+002
      vertex   4.862149e+001 3.250000e+002 2.757462e+002
      vertex   4.862149e+001 -3.250000e+002 2.757462e+002
    endloop
  endfacet
  facet normal 3.425100e-015 0.000000e+000 -1.000000e+000
    outer loop
      vertex   4.862149e+001 -3.250000e+002 2.757462e+002
      vertex   -4.862149e+001 -3.250000e+002 2.757462e+002
      vertex   -4.862149e+001 3.250000e+002 2.757462e+002
    endloop
  endfacet
  facet normal 0.000000e+000 -1.000000e+000 -0.000000e+000
    outer loop
      vertex   -1.187907e-013 -3.250000e+002 4.850000e+002
      vertex   -4.862149e+001 -3.250000e+002 2.757462e+002
      vertex   4.862149e+001 -3.250000e+002 2.757462e+002
    endloop
  endfacet
  facet normal 0.000000e+000 -1.000000e+000 0.000000e+000
    outer loop
      vertex   4.862149e+001 -3.250000e+002 2.757462e+002
      vertex   8.421937e+001 -3.250000e+002 4.776318e+002
      vertex   -1.187907e-013 -3.250000e+002 4.850000e+002
    endloop
  endfacet
  facet normal 0.000000e+000 -1.000000e+000 0.000000e+000
    outer loop
      vertex   -1.187907e-013 -3.250000e+002 4.850000e+002
      vertex   -8.421937e+001 -3.250000e+002 4.776318e+002
      vertex   -4.862149e+001 -3.250000e+002 2.757462e+002
    endloop
  endfacet
  facet normal 0.000000e+000 1.000000e+000 0.000000e+000
    outer loop
      vertex   -1.187907e-013 3.250000e+002 4.850000e+002
      vertex   4.862149e+001 3.250000e+002 2.757462e+002
      vertex   -4.862149e+001 3.250000e+002 2.757462e+002
    endloop
  endfacet
  facet normal 0.000000e+000 1.000000e+000 -0.000000e+000
    outer loop
      vertex   -4.862149e+001 3.250000e+002 2.757462e+002
      vertex   -8.421937e+001 3.250000e+002 4.776318e+002
      vertex   -1.187907e-013 3.250000e+002 4.850000e+002
    endloop
  endfacet
  facet normal 0.000000e+000 1.000000e+000 0.000000e+000
    outer loop
      vertex   -1.187907e-013 3.250000e+002 4.850000e+002
      vertex   8.421937e+001 3.250000e+002 4.776318e+002
      vertex   4.862149e+001 3.250000e+002 2.757462e+002
    endloop
  endfacet
  facet normal -8.660254e-001 0.000000e+000 5.000000e-001
    outer loop
      vertex   2.425000e+002 -3.250000e+002 4.200223e+002
      vertex   2.425000e+002 3.250000e+002 4.200223e+002
      vertex   1.400000e+002 3.250000e+002 2.424871e+002
    endloop
  endfacet
  facet normal -8.660254e-001 0.000000e+000 5.000000e-001
    outer loop
      vertex   1.400000e+002 3.250000e+002 2.424871e+002
      vertex   1.400000e+002 -3.250000e+002 2.424871e+002
      vertex   2.425000e+002 -3.250000e+002 4.200223e+002
    endloop
  endfacet
  facet normal -6.427876e-001 0.000000e+000 -7.660444e-001
    outer loop
      vertex   1.400000e+002 3.250000e+002 2.424871e+002
      vertex   2.144924e+002 3.250000e+002 1.799805e+002
      vertex   2.144924e+002 -3.250000e+002 1.799805e+002
    endloop
  endfacet
  facet normal -6.427876e-001 0.000000e+000 -7.660444e-001
    outer loop
      vertex   2.144924e+002 -3.250000e+002 1.799805e+002
      vertex   1.400000e+002 -3.250000e+002 2.424871e+002
      vertex   1.400000e+002 3.250000e+002 2.424871e+002
    endloop
  endfacet
  facet normal 6.427876e-001 0.000000e+000 -7.660444e-001
    outer loop
      vertex   2.144924e+002 -3.250000e+002 1.799805e+002
      vertex   2.144924e+002 3.250000e+002 1.799805e+002
      vertex   3.715316e+002 3.250000e+002 3.117520e+002
    endloop
  endfacet
  facet normal 6.427876e-001 0.000000e+000 -7.660444e-001
    outer loop
      vertex   3.715316e+002 3.250000e+002 3.117520e+002
      vertex   3.715316e+002 -3.250000e+002 3.117520e+002
      vertex   2.144924e+002 -3.250000e+002 1.799805e+002
    endloop
  endfacet
  facet normal 5.735764e-001 0.000000e+000 8.191520e-001
    outer loop
      vertex   2.425000e+002 3.250000e+002 4.200223e+002
      vertex   2.425000e+002 -3.250000e+002 4.200223e+002
      vertex   3.117520e+002 -3.250000e+002 3.715316e+002
    endloop
  endfacet
  facet normal 7.071068e-001 0.000000e+000 7.071068e-001
    outer loop
      vertex   3.117520e+002 3.250000e+002 3.715316e+002
      vertex   3.117520e+002 -3.250000e+002 3.715316e+002
      vertex   3.715316e+002 -3.250000e+002 3.117520e+002
    endloop
  endfacet
  facet normal 7.071068e-001 -0.000000e+000 7.071068e-001
    outer loop
      vertex   3.715316e+002 -3.250000e+002 3.117520e+002
      vertex   3.715316e+002 3.250000e+002 3.117520e+002
      vertex   3.117520e+002 3.250000e+002 3.715316e+002
    endloop
  endfacet
  facet normal 5.735764e-001 -0.000000e+000 8.191520e-001
    outer loop
      vertex   3.117520e+002 -3.250000e+002 3.715316e+002
      vertex   3.117520e+002 3.250000e+002 3.715316e+002
      vertex   2.425000e+002 3.250000e+002 4.200223e+002
    endloop
  endfacet
  facet normal -0.000000e+000 -1.000000e+000 0.000000e+000
    outer loop
      vertex   3.117520e+002 -3.250000e+002 3.715316e+002
      vertex   2.425000e+002 -3.250000e+002 4.200223e+002
      vertex   1.400000e+002 -3.250000e+002 2.424871e+002
    endloop
  endfacet
  facet normal 0.000000e+000 -1.000000e+000 0.000000e+000
    outer loop
      vertex   2.144924e+002 -3.250000e+002 1.799805e+002
      vertex   3.715316e+002 -3.250000e+002 3.117520e+002
      vertex   3.117520e+002 -3.250000e+002 3.715316e+002
    endloop
  endfacet
  facet normal 0.000000e+000 -1.000000e+000 0.000000e+000
    outer loop
      vertex   1.400000e+002 -3.250000e+002 2.424871e+002
      vertex   2.144924e+002 -3.250000e+002 1.799805e+002
      vertex   3.117520e+002 -3.250000e+002 3.715316e+002
    endloop
  endfacet
  facet normal 1.705196e-016 1.000000e+000 2.032174e-016
    outer loop
      vertex   3.117520e+002 3.250000e+002 3.715316e+002
      vertex   2.144924e+002 3.250000e+002 1.799805e+002
      vertex   1.400000e+002 3.250000e+002 2.424871e+002
    endloop
  endfacet
  facet normal 5.708196e-016 1.000000e+000 -3.295629e-016
    outer loop
      vertex   1.400000e+002 3.250000e+002 2.424871e+002
      vertex   2.425000e+002 3.250000e+002 4.200223e+002
      vertex   3.117520e+002 3.250000e+002 3.715316e+002
    endloop
  endfacet
  facet normal -4.236779e-016 1.000000e+000 5.049196e-016
    outer loop
      vertex   3.117520e+002 3.250000e+002 3.715316e+002
      vertex   3.715316e+002 3.250000e+002 3.117520e+002
      vertex   2.144924e+002 3.250000e+002 1.799805e+002
    endloop
  endfacet
  facet normal -3.420201e-001 0.000000e+000 9.396926e-001
    outer loop
      vertex   4.557509e+002 -3.250000e+002 1.658798e+002
      vertex   4.557509e+002 3.250000e+002 1.658798e+002
      vertex   2.631139e+002 3.250000e+002 9.576564e+001
    endloop
  endfacet
  facet normal -3.420201e-001 0.000000e+000 9.396926e-001
    outer loop
      vertex   2.631139e+002 3.250000e+002 9.576564e+001
      vertex   2.631139e+002 -3.250000e+002 9.576564e+001
      vertex   4.557509e+002 -3.250000e+002 1.658798e+002
    endloop
  endfacet
  facet normal -9.848078e-001 0.000000e+000 -1.736482e-001
    outer loop
      vertex   2.631139e+002 3.250000e+002 9.576564e+001
      vertex   2.800000e+002 3.250000e+002 3.429011e-014
      vertex   2.800000e+002 -3.250000e+002 3.429011e-014
    endloop
  endfacet
  facet normal -9.848078e-001 0.000000e+000 -1.736482e-001
    outer loop
      vertex   2.800000e+002 -3.250000e+002 3.429011e-014
      vertex   2.631139e+002 -3.250000e+002 9.576564e+001
      vertex   2.631139e+002 3.250000e+002 9.576564e+001
    endloop
  endfacet
  facet normal 1.224647e-016 0.000000e+000 -1.000000e+000
    outer loop
      vertex   2.800000e+002 -3.250000e+002 3.429011e-014
      vertex   2.800000e+002 3.250000e+002 3.429011e-014
      vertex   4.850000e+002 3.250000e+002 5.939537e-014
    endloop
  endfacet
  facet normal 1.224647e-016 0.000000e+000 -1.000000e+000
    outer loop
      vertex   4.850000e+002 3.250000e+002 5.939537e-014
      vertex   4.850000e+002 -3.250000e+002 5.939537e-014
      vertex   2.800000e+002 -3.250000e+002 3.429011e-014
    endloop
  endfacet
  facet normal 9.659258e-001 0.000000e+000 2.588190e-001
    outer loop
      vertex   4.557509e+002 3.250000e+002 1.658798e+002
      vertex   4.557509e+002 -3.250000e+002 1.658798e+002
      vertex   4.776318e+002 -3.250000e+002 8.421937e+001
    endloop
  endfacet
  facet normal 9.961947e-001 0.000000e+000 8.715574e-002
    outer loop
      vertex   4.776318e+002 3.250000e+002 8.421937e+001
      vertex   4.776318e+002 -3.250000e+002 8.421937e+001
      vertex   4.850000e+002 -3.250000e+002 5.939537e-014
    endloop
  endfacet
  facet normal 9.961947e-001 -0.000000e+000 8.715574e-002
    outer loop
      vertex   4.850000e+002 -3.250000e+002 5.939537e-014
      vertex   4.850000e+002 3.250000e+002 5.939537e-014
      vertex   4.776318e+002 3.250000e+002 8.421937e+001
    endloop
  endfacet
  facet normal 9.659258e-001 -0.000000e+000 2.588190e-001
    outer loop
      vertex   4.776318e+002 -3.250000e+002 8.421937e+001
      vertex   4.776318e+002 3.250000e+002 8.421937e+001
      vertex   4.557509e+002 3.250000e+002 1.658798e+002
    endloop
  endfacet
  facet normal 0.000000e+000 -1.000000e+000 0.000000e+000
    outer loop
      vertex   4.776318e+002 -3.250000e+002 8.421937e+001
      vertex   4.557509e+002 -3.250000e+002 1.658798e+002
      vertex   2.631139e+002 -3.250000e+002 9.576564e+001
    endloop
  endfacet
  facet normal 0.000000e+000 -1.000000e+000 0.000000e+000
    outer loop
      vertex   2.800000e+002 -3.250000e+002 3.429011e-014
      vertex   4.850000e+002 -3.250000e+002 5.939537e-014
      vertex   4.776318e+002 -3.250000e+002 8.421937e+001
    endloop
  endfacet
  facet normal 0.000000e+000 -1.000000e+000 0.000000e+000
    outer loop
      vertex   2.631139e+002 -3.250000e+002 9.576564e+001
      vertex   2.800000e+002 -3.250000e+002 3.429011e-014
      vertex   4.776318e+002 -3.250000e+002 8.421937e+001
    endloop
  endfacet
  facet normal 2.612512e-016 1.000000e+000 4.606563e-017
    outer loop
      vertex   4.776318e+002 3.250000e+002 8.421937e+001
      vertex   2.800000e+002 3.250000e+002 3.429011e-014
      vertex   2.631139e+002 3.250000e+002 9.576564e+001
    endloop
  endfacet
  facet normal 2.254343e-016 1.000000e+000 -6.193756e-016
    outer loop
      vertex   2.631139e+002 3.250000e+002 9.576564e+001
      vertex   4.557509e+002 3.250000e+002 1.658798e+002
      vertex   4.776318e+002 3.250000e+002 8.421937e+001
    endloop
  endfacet
  facet normal -8.924104e-032 1.000000e+000 6.591257e-016
    outer loop
      vertex   4.776318e+002 3.250000e+002 8.421937e+001
      vertex   4.850000e+002 3.250000e+002 5.939537e-014
      vertex   2.800000e+002 3.250000e+002 3.429011e-014
    endloop
  endfacet
  facet normal 9.063078e-001 0.000000e+000 -4.226183e-001
    outer loop
      vertex   4.557509e+002 3.250000e+002 -1.658798e+002
      vertex   4.557509e+002 -3.250000e+002 -1.658798e+002
      vertex   4.200223e+002 -3.250000e+002 -2.425000e+002
    endloop
  endfacet
  facet normal 8.191520e-001 0.000000e+000 -5.735764e-001
    outer loop
      vertex   4.200223e+002 3.250000e+002 -2.425000e+002
      vertex   4.200223e+002 -3.250000e+002 -2.425000e+002
      vertex   3.715316e+002 -3.250000e+002 -3.117520e+002
    endloop
  endfacet
  facet normal 8.191520e-001 0.000000e+000 -5.735764e-001
    outer loop
      vertex   3.715316e+002 -3.250000e+002 -3.117520e+002
      vertex   3.715316e+002 3.250000e+002 -3.117520e+002
      vertex   4.200223e+002 3.250000e+002 -2.425000e+002
    endloop
  endfacet
  facet normal 9.063078e-001 0.000000e+000 -4.226183e-001
    outer loop
      vertex   4.200223e+002 -3.250000e+002 -2.425000e+002
      vertex   4.200223e+002 3.250000e+002 -2.425000e+002
      vertex   4.557509e+002 3.250000e+002 -1.658798e+002
    endloop
  endfacet
  facet normal 3.420201e-001 -0.000000e+000 9.396926e-001
    outer loop
      vertex   4.557509e+002 -3.250000e+002 -1.658798e+002
      vertex   4.557509e+002 3.250000e+002 -1.658798e+002
      vertex   2.631139e+002 3.250000e+002 -9.576564e+001
    endloop
  endfacet
  facet normal 3.420201e-001 0.000000e+000 9.396926e-001
    outer loop
      vertex   2.631139e+002 3.250000e+002 -9.576564e+001
      vertex   2.631139e+002 -3.250000e+002 -9.576564e+001
      vertex   4.557509e+002 -3.250000e+002 -1.658798e+002
    endloop
  endfacet
  facet normal -8.660254e-001 0.000000e+000 5.000000e-001
    outer loop
      vertex   2.631139e+002 3.250000e+002 -9.576564e+001
      vertex   2.144924e+002 3.250000e+002 -1.799805e+002
      vertex   2.144924e+002 -3.250000e+002 -1.799805e+002
    endloop
  endfacet
  facet normal -8.660254e-001 0.000000e+000 5.000000e-001
    outer loop
      vertex   2.144924e+002 -3.250000e+002 -1.799805e+002
      vertex   2.631139e+002 -3.250000e+002 -9.576564e+001
      vertex   2.631139e+002 3.250000e+002 -9.576564e+001
    endloop
  endfacet
  facet normal -6.427876e-001 0.000000e+000 -7.660444e-001
    outer loop
      vertex   2.144924e+002 -3.250000e+002 -1.799805e+002
      vertex   2.144924e+002 3.250000e+002 -1.799805e+002
      vertex   3.715316e+002 3.250000e+002 -3.117520e+002
    endloop
  endfacet
  facet normal -6.427876e-001 -0.000000e+000 -7.660444e-001
    outer loop
      vertex   3.715316e+002 3.250000e+002 -3.117520e+002
      vertex   3.715316e+002 -3.250000e+002 -3.117520e+002
      vertex   2.144924e+002 -3.250000e+002 -1.799805e+002
    endloop
  endfacet
  facet normal 0.000000e+000 -1.000000e+000 0.000000e+000
    outer loop
      vertex   4.200223e+002 -3.250000e+002 -2.425000e+002
      vertex   2.631139e+002 -3.250000e+002 -9.576564e+001
      vertex   2.144924e+002 -3.250000e+002 -1.799805e+002
    endloop
  endfacet
  facet normal 0.000000e+000 -1.000000e+000 0.000000e+000
    outer loop
      vertex   2.144924e+002 -3.250000e+002 -1.799805e+002
      vertex   3.715316e+002 -3.250000e+002 -3.117520e+002
      vertex   4.200223e+002 -3.250000e+002 -2.425000e+002
    endloop
  endfacet
  facet normal 0.000000e+000 -1.000000e+000 0.000000e+000
    outer loop
      vertex   4.200223e+002 -3.250000e+002 -2.425000e+002
      vertex   4.557509e+002 -3.250000e+002 -1.658798e+002
      vertex   2.631139e+002 -3.250000e+002 -9.576564e+001
    endloop
  endfacet
  facet normal 4.236779e-016 1.000000e+000 5.049196e-016
    outer loop
      vertex   4.200223e+002 3.250000e+002 -2.425000e+002
      vertex   3.715316e+002 3.250000e+002 -3.117520e+002
      vertex   2.144924e+002 3.250000e+002 -1.799805e+002
    endloop
  endfacet
  facet normal -2.254343e-016 1.000000e+000 -6.193756e-016
    outer loop
      vertex   2.631139e+002 3.250000e+002 -9.576564e+001
      vertex   4.557509e+002 3.250000e+002 -1.658798e+002
      vertex   4.200223e+002 3.250000e+002 -2.425000e+002
    endloop
  endfacet
  facet normal 2.297404e-016 1.000000e+000 -1.326407e-016
    outer loop
      vertex   2.144924e+002 3.250000e+002 -1.799805e+002
      vertex   2.631139e+002 3.250000e+002 -9.576564e+001
      vertex   4.200223e+002 3.250000e+002 -2.425000e+002
    endloop
  endfacet
  facet normal 4.226183e-001 0.000000e+000 -9.063078e-001
    outer loop
      vertex   2.425000e+002 3.250000e+002 -4.200223e+002
      vertex   2.425000e+002 -3.250000e+002 -4.200223e+002
      vertex   1.658798e+002 -3.250000e+002 -4.557509e+002
    endloop
  endfacet
  facet normal 2.588190e-001 0.000000e+000 -9.659258e-001
    outer loop
      vertex   1.658798e+002 3.250000e+002 -4.557509e+002
      vertex   1.658798e+002 -3.250000e+002 -4.557509e+002
      vertex   8.421937e+001 -3.250000e+002 -4.776318e+002
    endloop
  endfacet
  facet normal 2.588190e-001 0.000000e+000 -9.659258e-001
    outer loop
      vertex   8.421937e+001 -3.250000e+002 -4.776318e+002
      vertex   8.421937e+001 3.250000e+002 -4.776318e+002
      vertex   1.658798e+002 3.250000e+002 -4.557509e+002
    endloop
  endfacet
  facet normal 4.226183e-001 0.000000e+000 -9.063078e-001
    outer loop
      vertex   1.658798e+002 -3.250000e+002 -4.557509e+002
      vertex   1.658798e+002 3.250000e+002 -4.557509e+002
      vertex   2.425000e+002 3.250000e+002 -4.200223e+002
    endloop
  endfacet
  facet normal 8.660254e-001 -0.000000e+000 5.000000e-001
    outer loop
      vertex   2.425000e+002 -3.250000e+002 -4.200223e+002
      vertex   2.425000e+002 3.250000e+002 -4.200223e+002
      vertex   1.400000e+002 3.250000e+002 -2.424871e+002
    endloop
  endfacet
  facet normal 8.660254e-001 0.000000e+000 5.000000e-001
    outer loop
      vertex   1.400000e+002 3.250000e+002 -2.424871e+002
      vertex   1.400000e+002 -3.250000e+002 -2.424871e+002
      vertex   2.425000e+002 -3.250000e+002 -4.200223e+002
    endloop
  endfacet
  facet normal -3.420201e-001 0.000000e+000 9.396926e-001
    outer loop
      vertex   1.400000e+002 3.250000e+002 -2.424871e+002
      vertex   4.862149e+001 3.250000e+002 -2.757462e+002
      vertex   4.862149e+001 -3.250000e+002 -2.757462e+002
    endloop
  endfacet
  facet normal -3.420201e-001 0.000000e+000 9.396926e-001
    outer loop
      vertex   4.862149e+001 -3.250000e+002 -2.757462e+002
      vertex   1.400000e+002 -3.250000e+002 -2.424871e+002
      vertex   1.400000e+002 3.250000e+002 -2.424871e+002
    endloop
  endfacet
  facet normal -9.848078e-001 0.000000e+000 -1.736482e-001
    outer loop
      vertex   4.862149e+001 -3.250000e+002 -2.757462e+002
      vertex   4.862149e+001 3.250000e+002 -2.757462e+002
      vertex   8.421937e+001 3.250000e+002 -4.776318e+002
    endloop
  endfacet
  facet normal -9.848078e-001 -0.000000e+000 -1.736482e-001
    outer loop
      vertex   8.421937e+001 3.250000e+002 -4.776318e+002
      vertex   8.421937e+001 -3.250000e+002 -4.776318e+002
      vertex   4.862149e+001 -3.250000e+002 -2.757462e+002
    endloop
  endfacet
  facet normal 0.000000e+000 -1.000000e+000 0.000000e+000
    outer loop
      vertex   1.658798e+002 -3.250000e+002 -4.557509e+002
      vertex   2.425000e+002 -3.250000e+002 -4.200223e+002
      vertex   1.400000e+002 -3.250000e+002 -2.424871e+002
    endloop
  endfacet
  facet normal 0.000000e+000 -1.000000e+000 0.000000e+000
    outer loop
      vertex   4.862149e+001 -3.250000e+002 -2.757462e+002
      vertex   8.421937e+001 -3.250000e+002 -4.776318e+002
      vertex   1.658798e+002 -3.250000e+002 -4.557509e+002
    endloop
  endfacet
  facet normal 0.000000e+000 -1.000000e+000 -0.000000e+000
    outer loop
      vertex   1.400000e+002 -3.250000e+002 -2.424871e+002
      vertex   4.862149e+001 -3.250000e+002 -2.757462e+002
      vertex   1.658798e+002 -3.250000e+002 -4.557509e+002
    endloop
  endfacet
  facet normal 6.491121e-016 1.000000e+000 1.144560e-016
    outer loop
      vertex   1.658798e+002 3.250000e+002 -4.557509e+002
      vertex   8.421937e+001 3.250000e+002 -4.776318e+002
      vertex   4.862149e+001 3.250000e+002 -2.757462e+002
    endloop
  endfacet
  facet normal -5.708196e-016 1.000000e+000 -3.295629e-016
    outer loop
      vertex   1.400000e+002 3.250000e+002 -2.424871e+002
      vertex   2.425000e+002 3.250000e+002 -4.200223e+002
      vertex   1.658798e+002 3.250000e+002 -4.557509e+002
    endloop
  endfacet
  facet normal 9.073159e-017 1.000000e+000 -2.492830e-016
    outer loop
      vertex   4.862149e+001 3.250000e+002 -2.757462e+002
      vertex   1.400000e+002 3.250000e+002 -2.424871e+002
      vertex   1.658798e+002 3.250000e+002 -4.557509e+002
    endloop
  endfacet
  facet normal -8.191520e-001 -0.000000e+000 -5.735764e-001
    outer loop
      vertex   -3.715316e+002 3.250000e+002 -3.117520e+002
      vertex   -3.715316e+002 -3.250000e+002 -3.117520e+002
      vertex   -4.200223e+002 -3.250000e+002 -2.425000e+002
    endloop
  endfacet
  facet normal -9.063078e-001 -0.000000e+000 -4.226183e-001
    outer loop
      vertex   -4.200223e+002 3.250000e+002 -2.425000e+002
      vertex   -4.200223e+002 -3.250000e+002 -2.425000e+002
      vertex   -4.557509e+002 -3.250000e+002 -1.658798e+002
    endloop
  endfacet
  facet normal -9.063078e-001 0.000000e+000 -4.226183e-001
    outer loop
      vertex   -4.557509e+002 -3.250000e+002 -1.658798e+002
      vertex   -4.557509e+002 3.250000e+002 -1.658798e+002
      vertex   -4.200223e+002 3.250000e+002 -2.425000e+002
    endloop
  endfacet
  facet normal -8.191520e-001 0.000000e+000 -5.735764e-001
    outer loop
      vertex   -4.200223e+002 -3.250000e+002 -2.425000e+002
      vertex   -4.200223e+002 3.250000e+002 -2.425000e+002
      vertex   -3.715316e+002 3.250000e+002 -3.117520e+002
    endloop
  endfacet
  facet normal -3.420201e-001 0.000000e+000 9.396926e-001
    outer loop
      vertex   -2.631139e+002 -3.250000e+002 -9.576564e+001
      vertex   -2.631139e+002 3.250000e+002 -9.576564e+001
      vertex   -4.557509e+002 3.250000e+002 -1.658798e+002
    endloop
  endfacet
  facet normal -3.420201e-001 0.000000e+000 9.396926e-001
    outer loop
      vertex   -4.557509e+002 3.250000e+002 -1.658798e+002
      vertex   -4.557509e+002 -3.250000e+002 -1.658798e+002
      vertex   -2.631139e+002 -3.250000e+002 -9.576564e+001
    endloop
  endfacet
  facet normal 8.660254e-001 0.000000e+000 5.000000e-001
    outer loop
      vertex   -2.144924e+002 3.250000e+002 -1.799805e+002
      vertex   -2.631139e+002 3.250000e+002 -9.576564e+001
      vertex   -2.631139e+002 -3.250000e+002 -9.576564e+001
    endloop
  endfacet
  facet normal 8.660254e-001 0.000000e+000 5.000000e-001
    outer loop
      vertex   -2.631139e+002 -3.250000e+002 -9.576564e+001
      vertex   -2.144924e+002 -3.250000e+002 -1.799805e+002
      vertex   -2.144924e+002 3.250000e+002 -1.799805e+002
    endloop
  endfacet
  facet normal 6.427876e-001 0.000000e+000 -7.660444e-001
    outer loop
      vertex   -3.715316e+002 -3.250000e+002 -3.117520e+002
      vertex   -3.715316e+002 3.250000e+002 -3.117520e+002
      vertex   -2.144924e+002 3.250000e+002 -1.799805e+002
    endloop
  endfacet
  facet normal 6.427876e-001 0.000000e+000 -7.660444e-001
    outer loop
      vertex   -2.144924e+002 3.250000e+002 -1.799805e+002
      vertex   -2.144924e+002 -3.250000e+002 -1.799805e+002
      vertex   -3.715316e+002 -3.250000e+002 -3.117520e+002
    endloop
  endfacet
  facet normal 0.000000e+000 -1.000000e+000 0.000000e+000
    outer loop
      vertex   -4.200223e+002 -3.250000e+002 -2.425000e+002
      vertex   -2.144924e+002 -3.250000e+002 -1.799805e+002
      vertex   -2.631139e+002 -3.250000e+002 -9.576564e+001
    endloop
  endfacet
  facet normal 0.000000e+000 -1.000000e+000 0.000000e+000
    outer loop
      vertex   -2.631139e+002 -3.250000e+002 -9.576564e+001
      vertex   -4.557509e+002 -3.250000e+002 -1.658798e+002
      vertex   -4.200223e+002 -3.250000e+002 -2.425000e+002
    endloop
  endfacet
  facet normal 0.000000e+000 -1.000000e+000 0.000000e+000
    outer loop
      vertex   -4.200223e+002 -3.250000e+002 -2.425000e+002
      vertex   -3.715316e+002 -3.250000e+002 -3.117520e+002
      vertex   -2.144924e+002 -3.250000e+002 -1.799805e+002
    endloop
  endfacet
  facet normal 0.000000e+000 1.000000e+000 -0.000000e+000
    outer loop
      vertex   -4.200223e+002 3.250000e+002 -2.425000e+002
      vertex   -4.557509e+002 3.250000e+002 -1.658798e+002
      vertex   -2.631139e+002 3.250000e+002 -9.576564e+001
    endloop
  endfacet
  facet normal 0.000000e+000 1.000000e+000 0.000000e+000
    outer loop
      vertex   -2.144924e+002 3.250000e+002 -1.799805e+002
      vertex   -3.715316e+002 3.250000e+002 -3.117520e+002
      vertex   -4.200223e+002 3.250000e+002 -2.425000e+002
    endloop
  endfacet
  facet normal 0.000000e+000 1.000000e+000 0.000000e+000
    outer loop
      vertex   -2.631139e+002 3.250000e+002 -9.576564e+001
      vertex   -2.144924e+002 3.250000e+002 -1.799805e+002
      vertex   -4.200223e+002 3.250000e+002 -2.425000e+002
    endloop
  endfacet
endsolid
