solid PasadoresAcople
  facet normal 0.000000e+000 1.000000e+000 0.000000e+000
    outer loop
      vertex   -1.649988e+002 -1.625000e+002 6.659692e-001
      vertex   -1.574988e+002 -1.625000e+002 1.365625e+001
      vertex   -1.509035e+002 -1.625000e+002 5.796233e+000
    endloop
  endfacet
  facet normal 0.000000e+000 1.000000e+000 0.000000e+000
    outer loop
      vertex   -1.509035e+002 -1.625000e+002 5.796233e+000
      vertex   -1.509035e+002 -1.625000e+002 -4.464295e+000
      vertex   -1.649988e+002 -1.625000e+002 6.659692e-001
    endloop
  endfacet
  facet normal 0.000000e+000 1.000000e+000 0.000000e+000
    outer loop
      vertex   -1.509035e+002 -1.625000e+002 -4.464295e+000
      vertex   -1.574988e+002 -1.625000e+002 -1.232431e+001
      vertex   -1.649988e+002 -1.625000e+002 6.659692e-001
    endloop
  endfacet
  facet normal 0.000000e+000 1.000000e+000 0.000000e+000
    outer loop
      vertex   -1.574988e+002 -1.625000e+002 -1.232431e+001
      vertex   -1.676035e+002 -1.625000e+002 -1.410604e+001
      vertex   -1.649988e+002 -1.625000e+002 6.659692e-001
    endloop
  endfacet
  facet normal 0.000000e+000 1.000000e+000 -0.000000e+000
    outer loop
      vertex   -1.676035e+002 -1.625000e+002 -1.410604e+001
      vertex   -1.764893e+002 -1.625000e+002 -8.975773e+000
      vertex   -1.649988e+002 -1.625000e+002 6.659692e-001
    endloop
  endfacet
  facet normal 0.000000e+000 1.000000e+000 -0.000000e+000
    outer loop
      vertex   -1.764893e+002 -1.625000e+002 -8.975773e+000
      vertex   -1.799987e+002 -1.625000e+002 6.659692e-001
      vertex   -1.649988e+002 -1.625000e+002 6.659692e-001
    endloop
  endfacet
  facet normal 0.000000e+000 1.000000e+000 0.000000e+000
    outer loop
      vertex   -1.799987e+002 -1.625000e+002 6.659692e-001
      vertex   -1.764893e+002 -1.625000e+002 1.030771e+001
      vertex   -1.649988e+002 -1.625000e+002 6.659692e-001
    endloop
  endfacet
  facet normal -0.000000e+000 1.000000e+000 0.000000e+000
    outer loop
      vertex   -1.764893e+002 -1.625000e+002 1.030771e+001
      vertex   -1.676035e+002 -1.625000e+002 1.543798e+001
      vertex   -1.649988e+002 -1.625000e+002 6.659692e-001
    endloop
  endfacet
  facet normal -0.000000e+000 1.000000e+000 0.000000e+000
    outer loop
      vertex   -1.676035e+002 -1.625000e+002 1.543798e+001
      vertex   -1.649988e+002 -1.625000e+002 1.566586e+001
      vertex   -1.649988e+002 -1.625000e+002 6.659692e-001
    endloop
  endfacet
  facet normal 0.000000e+000 1.000000e+000 0.000000e+000
    outer loop
      vertex   -1.649988e+002 -1.625000e+002 1.566586e+001
      vertex   -1.574988e+002 -1.625000e+002 1.365625e+001
      vertex   -1.649988e+002 -1.625000e+002 6.659692e-001
    endloop
  endfacet
  facet normal -9.396926e-001 0.000000e+000 3.420201e-001
    outer loop
      vertex   -1.799987e+002 -1.625000e+002 6.659692e-001
      vertex   -1.799987e+002 -2.225000e+002 6.659692e-001
      vertex   -1.764893e+002 -2.225000e+002 1.030771e+001
    endloop
  endfacet
  facet normal -5.000000e-001 0.000000e+000 8.660254e-001
    outer loop
      vertex   -1.764893e+002 -1.625000e+002 1.030771e+001
      vertex   -1.764893e+002 -2.225000e+002 1.030771e+001
      vertex   -1.676035e+002 -2.225000e+002 1.543798e+001
    endloop
  endfacet
  facet normal 2.588190e-001 0.000000e+000 9.659258e-001
    outer loop
      vertex   -1.574988e+002 -1.625000e+002 1.365625e+001
      vertex   -1.649988e+002 -1.625000e+002 1.566586e+001
      vertex   -1.649988e+002 -2.225000e+002 1.566586e+001
    endloop
  endfacet
  facet normal -8.715574e-002 0.000000e+000 9.961947e-001
    outer loop
      vertex   -1.676035e+002 -2.225000e+002 1.543798e+001
      vertex   -1.649988e+002 -2.225000e+002 1.566586e+001
      vertex   -1.649988e+002 -1.625000e+002 1.566586e+001
    endloop
  endfacet
  facet normal -8.715574e-002 0.000000e+000 9.961947e-001
    outer loop
      vertex   -1.649988e+002 -1.625000e+002 1.566586e+001
      vertex   -1.676035e+002 -1.625000e+002 1.543798e+001
      vertex   -1.676035e+002 -2.225000e+002 1.543798e+001
    endloop
  endfacet
  facet normal 7.660444e-001 0.000000e+000 6.427876e-001
    outer loop
      vertex   -1.574988e+002 -1.625000e+002 1.365625e+001
      vertex   -1.574988e+002 -2.225000e+002 1.365625e+001
      vertex   -1.509035e+002 -2.225000e+002 5.796233e+000
    endloop
  endfacet
  facet normal 1.000000e+000 0.000000e+000 0.000000e+000
    outer loop
      vertex   -1.509035e+002 -1.625000e+002 5.796233e+000
      vertex   -1.509035e+002 -2.225000e+002 5.796233e+000
      vertex   -1.509035e+002 -2.225000e+002 -4.464295e+000
    endloop
  endfacet
  facet normal 7.660444e-001 0.000000e+000 -6.427876e-001
    outer loop
      vertex   -1.509035e+002 -1.625000e+002 -4.464295e+000
      vertex   -1.509035e+002 -2.225000e+002 -4.464295e+000
      vertex   -1.574988e+002 -2.225000e+002 -1.232431e+001
    endloop
  endfacet
  facet normal 1.736482e-001 0.000000e+000 -9.848078e-001
    outer loop
      vertex   -1.574988e+002 -1.625000e+002 -1.232431e+001
      vertex   -1.574988e+002 -2.225000e+002 -1.232431e+001
      vertex   -1.676035e+002 -2.225000e+002 -1.410604e+001
    endloop
  endfacet
  facet normal -5.000000e-001 -0.000000e+000 -8.660254e-001
    outer loop
      vertex   -1.676035e+002 -1.625000e+002 -1.410604e+001
      vertex   -1.676035e+002 -2.225000e+002 -1.410604e+001
      vertex   -1.764893e+002 -2.225000e+002 -8.975773e+000
    endloop
  endfacet
  facet normal -9.396926e-001 -0.000000e+000 -3.420201e-001
    outer loop
      vertex   -1.764893e+002 -1.625000e+002 -8.975773e+000
      vertex   -1.764893e+002 -2.225000e+002 -8.975773e+000
      vertex   -1.799987e+002 -2.225000e+002 6.659692e-001
    endloop
  endfacet
  facet normal -9.396926e-001 0.000000e+000 -3.420201e-001
    outer loop
      vertex   -1.799987e+002 -2.225000e+002 6.659692e-001
      vertex   -1.799987e+002 -1.625000e+002 6.659692e-001
      vertex   -1.764893e+002 -1.625000e+002 -8.975773e+000
    endloop
  endfacet
  facet normal -5.000000e-001 0.000000e+000 -8.660254e-001
    outer loop
      vertex   -1.764893e+002 -2.225000e+002 -8.975773e+000
      vertex   -1.764893e+002 -1.625000e+002 -8.975773e+000
      vertex   -1.676035e+002 -1.625000e+002 -1.410604e+001
    endloop
  endfacet
  facet normal 1.736482e-001 0.000000e+000 -9.848078e-001
    outer loop
      vertex   -1.676035e+002 -2.225000e+002 -1.410604e+001
      vertex   -1.676035e+002 -1.625000e+002 -1.410604e+001
      vertex   -1.574988e+002 -1.625000e+002 -1.232431e+001
    endloop
  endfacet
  facet normal 7.660444e-001 0.000000e+000 -6.427876e-001
    outer loop
      vertex   -1.574988e+002 -2.225000e+002 -1.232431e+001
      vertex   -1.574988e+002 -1.625000e+002 -1.232431e+001
      vertex   -1.509035e+002 -1.625000e+002 -4.464295e+000
    endloop
  endfacet
  facet normal 1.000000e+000 0.000000e+000 0.000000e+000
    outer loop
      vertex   -1.509035e+002 -2.225000e+002 -4.464295e+000
      vertex   -1.509035e+002 -1.625000e+002 -4.464295e+000
      vertex   -1.509035e+002 -1.625000e+002 5.796233e+000
    endloop
  endfacet
  facet normal 7.660444e-001 -0.000000e+000 6.427876e-001
    outer loop
      vertex   -1.509035e+002 -2.225000e+002 5.796233e+000
      vertex   -1.509035e+002 -1.625000e+002 5.796233e+000
      vertex   -1.574988e+002 -1.625000e+002 1.365625e+001
    endloop
  endfacet
  facet normal 2.588190e-001 0.000000e+000 9.659258e-001
    outer loop
      vertex   -1.649988e+002 -2.225000e+002 1.566586e+001
      vertex   -1.574988e+002 -2.225000e+002 1.365625e+001
      vertex   -1.574988e+002 -1.625000e+002 1.365625e+001
    endloop
  endfacet
  facet normal -5.000000e-001 0.000000e+000 8.660254e-001
    outer loop
      vertex   -1.676035e+002 -2.225000e+002 1.543798e+001
      vertex   -1.676035e+002 -1.625000e+002 1.543798e+001
      vertex   -1.764893e+002 -1.625000e+002 1.030771e+001
    endloop
  endfacet
  facet normal -9.396926e-001 0.000000e+000 3.420201e-001
    outer loop
      vertex   -1.764893e+002 -2.225000e+002 1.030771e+001
      vertex   -1.764893e+002 -1.625000e+002 1.030771e+001
      vertex   -1.799987e+002 -1.625000e+002 6.659692e-001
    endloop
  endfacet
  facet normal 0.000000e+000 -1.000000e+000 0.000000e+000
    outer loop
      vertex   -1.649988e+002 -2.225000e+002 6.659692e-001
      vertex   -1.676035e+002 -2.225000e+002 1.543798e+001
      vertex   -1.764893e+002 -2.225000e+002 1.030771e+001
    endloop
  endfacet
  facet normal 0.000000e+000 -1.000000e+000 -0.000000e+000
    outer loop
      vertex   -1.764893e+002 -2.225000e+002 1.030771e+001
      vertex   -1.799987e+002 -2.225000e+002 6.659692e-001
      vertex   -1.649988e+002 -2.225000e+002 6.659692e-001
    endloop
  endfacet
  facet normal 0.000000e+000 -1.000000e+000 0.000000e+000
    outer loop
      vertex   -1.799987e+002 -2.225000e+002 6.659692e-001
      vertex   -1.764893e+002 -2.225000e+002 -8.975773e+000
      vertex   -1.649988e+002 -2.225000e+002 6.659692e-001
    endloop
  endfacet
  facet normal 0.000000e+000 -1.000000e+000 0.000000e+000
    outer loop
      vertex   -1.764893e+002 -2.225000e+002 -8.975773e+000
      vertex   -1.676035e+002 -2.225000e+002 -1.410604e+001
      vertex   -1.649988e+002 -2.225000e+002 6.659692e-001
    endloop
  endfacet
  facet normal 0.000000e+000 -1.000000e+000 0.000000e+000
    outer loop
      vertex   -1.676035e+002 -2.225000e+002 -1.410604e+001
      vertex   -1.574988e+002 -2.225000e+002 -1.232431e+001
      vertex   -1.649988e+002 -2.225000e+002 6.659692e-001
    endloop
  endfacet
  facet normal 0.000000e+000 -1.000000e+000 0.000000e+000
    outer loop
      vertex   -1.574988e+002 -2.225000e+002 -1.232431e+001
      vertex   -1.509035e+002 -2.225000e+002 -4.464295e+000
      vertex   -1.649988e+002 -2.225000e+002 6.659692e-001
    endloop
  endfacet
  facet normal 0.000000e+000 -1.000000e+000 0.000000e+000
    outer loop
      vertex   -1.509035e+002 -2.225000e+002 -4.464295e+000
      vertex   -1.509035e+002 -2.225000e+002 5.796233e+000
      vertex   -1.649988e+002 -2.225000e+002 6.659692e-001
    endloop
  endfacet
  facet normal -0.000000e+000 -1.000000e+000 0.000000e+000
    outer loop
      vertex   -1.509035e+002 -2.225000e+002 5.796233e+000
      vertex   -1.574988e+002 -2.225000e+002 1.365625e+001
      vertex   -1.649988e+002 -2.225000e+002 6.659692e-001
    endloop
  endfacet
  facet normal -0.000000e+000 -1.000000e+000 0.000000e+000
    outer loop
      vertex   -1.574988e+002 -2.225000e+002 1.365625e+001
      vertex   -1.649988e+002 -2.225000e+002 1.566586e+001
      vertex   -1.649988e+002 -2.225000e+002 6.659692e-001
    endloop
  endfacet
  facet normal 0.000000e+000 -1.000000e+000 -0.000000e+000
    outer loop
      vertex   -1.649988e+002 -2.225000e+002 1.566586e+001
      vertex   -1.676035e+002 -2.225000e+002 1.543798e+001
      vertex   -1.649988e+002 -2.225000e+002 6.659692e-001
    endloop
  endfacet
  facet normal 0.000000e+000 1.000000e+000 0.000000e+000
    outer loop
      vertex   -6.659692e-001 -1.625000e+002 -1.649988e+002
      vertex   -1.365625e+001 -1.625000e+002 -1.574988e+002
      vertex   -5.796233e+000 -1.625000e+002 -1.509035e+002
    endloop
  endfacet
  facet normal -0.000000e+000 1.000000e+000 0.000000e+000
    outer loop
      vertex   -5.796233e+000 -1.625000e+002 -1.509035e+002
      vertex   4.464295e+000 -1.625000e+002 -1.509035e+002
      vertex   -6.659692e-001 -1.625000e+002 -1.649988e+002
    endloop
  endfacet
  facet normal 0.000000e+000 1.000000e+000 0.000000e+000
    outer loop
      vertex   4.464295e+000 -1.625000e+002 -1.509035e+002
      vertex   1.232431e+001 -1.625000e+002 -1.574988e+002
      vertex   -6.659692e-001 -1.625000e+002 -1.649988e+002
    endloop
  endfacet
  facet normal 0.000000e+000 1.000000e+000 0.000000e+000
    outer loop
      vertex   1.232431e+001 -1.625000e+002 -1.574988e+002
      vertex   1.410604e+001 -1.625000e+002 -1.676035e+002
      vertex   -6.659692e-001 -1.625000e+002 -1.649988e+002
    endloop
  endfacet
  facet normal 0.000000e+000 1.000000e+000 0.000000e+000
    outer loop
      vertex   1.410604e+001 -1.625000e+002 -1.676035e+002
      vertex   8.975773e+000 -1.625000e+002 -1.764893e+002
      vertex   -6.659692e-001 -1.625000e+002 -1.649988e+002
    endloop
  endfacet
  facet normal 0.000000e+000 1.000000e+000 0.000000e+000
    outer loop
      vertex   8.975773e+000 -1.625000e+002 -1.764893e+002
      vertex   -6.659692e-001 -1.625000e+002 -1.799987e+002
      vertex   -6.659692e-001 -1.625000e+002 -1.649988e+002
    endloop
  endfacet
  facet normal 0.000000e+000 1.000000e+000 0.000000e+000
    outer loop
      vertex   -6.659692e-001 -1.625000e+002 -1.799987e+002
      vertex   -1.030771e+001 -1.625000e+002 -1.764893e+002
      vertex   -6.659692e-001 -1.625000e+002 -1.649988e+002
    endloop
  endfacet
  facet normal 0.000000e+000 1.000000e+000 -0.000000e+000
    outer loop
      vertex   -1.030771e+001 -1.625000e+002 -1.764893e+002
      vertex   -1.543798e+001 -1.625000e+002 -1.676035e+002
      vertex   -6.659692e-001 -1.625000e+002 -1.649988e+002
    endloop
  endfacet
  facet normal 0.000000e+000 1.000000e+000 -0.000000e+000
    outer loop
      vertex   -1.543798e+001 -1.625000e+002 -1.676035e+002
      vertex   -1.566586e+001 -1.625000e+002 -1.649988e+002
      vertex   -6.659692e-001 -1.625000e+002 -1.649988e+002
    endloop
  endfacet
  facet normal 0.000000e+000 1.000000e+000 0.000000e+000
    outer loop
      vertex   -1.566586e+001 -1.625000e+002 -1.649988e+002
      vertex   -1.365625e+001 -1.625000e+002 -1.574988e+002
      vertex   -6.659692e-001 -1.625000e+002 -1.649988e+002
    endloop
  endfacet
  facet normal -3.420201e-001 -0.000000e+000 -9.396926e-001
    outer loop
      vertex   -6.659692e-001 -1.625000e+002 -1.799987e+002
      vertex   -6.659692e-001 -2.225000e+002 -1.799987e+002
      vertex   -1.030771e+001 -2.225000e+002 -1.764893e+002
    endloop
  endfacet
  facet normal -8.660254e-001 -0.000000e+000 -5.000000e-001
    outer loop
      vertex   -1.030771e+001 -1.625000e+002 -1.764893e+002
      vertex   -1.030771e+001 -2.225000e+002 -1.764893e+002
      vertex   -1.543798e+001 -2.225000e+002 -1.676035e+002
    endloop
  endfacet
  facet normal -9.659258e-001 0.000000e+000 2.588190e-001
    outer loop
      vertex   -1.365625e+001 -1.625000e+002 -1.574988e+002
      vertex   -1.566586e+001 -1.625000e+002 -1.649988e+002
      vertex   -1.566586e+001 -2.225000e+002 -1.649988e+002
    endloop
  endfacet
  facet normal -9.961947e-001 0.000000e+000 -8.715574e-002
    outer loop
      vertex   -1.543798e+001 -2.225000e+002 -1.676035e+002
      vertex   -1.566586e+001 -2.225000e+002 -1.649988e+002
      vertex   -1.566586e+001 -1.625000e+002 -1.649988e+002
    endloop
  endfacet
  facet normal -9.961947e-001 0.000000e+000 -8.715574e-002
    outer loop
      vertex   -1.566586e+001 -1.625000e+002 -1.649988e+002
      vertex   -1.543798e+001 -1.625000e+002 -1.676035e+002
      vertex   -1.543798e+001 -2.225000e+002 -1.676035e+002
    endloop
  endfacet
  facet normal -6.427876e-001 0.000000e+000 7.660444e-001
    outer loop
      vertex   -1.365625e+001 -1.625000e+002 -1.574988e+002
      vertex   -1.365625e+001 -2.225000e+002 -1.574988e+002
      vertex   -5.796233e+000 -2.225000e+002 -1.509035e+002
    endloop
  endfacet
  facet normal 0.000000e+000 0.000000e+000 1.000000e+000
    outer loop
      vertex   -5.796233e+000 -1.625000e+002 -1.509035e+002
      vertex   -5.796233e+000 -2.225000e+002 -1.509035e+002
      vertex   4.464295e+000 -2.225000e+002 -1.509035e+002
    endloop
  endfacet
  facet normal 6.427876e-001 0.000000e+000 7.660444e-001
    outer loop
      vertex   4.464295e+000 -1.625000e+002 -1.509035e+002
      vertex   4.464295e+000 -2.225000e+002 -1.509035e+002
      vertex   1.232431e+001 -2.225000e+002 -1.574988e+002
    endloop
  endfacet
  facet normal 9.848078e-001 0.000000e+000 1.736482e-001
    outer loop
      vertex   1.232431e+001 -1.625000e+002 -1.574988e+002
      vertex   1.232431e+001 -2.225000e+002 -1.574988e+002
      vertex   1.410604e+001 -2.225000e+002 -1.676035e+002
    endloop
  endfacet
  facet normal 8.660254e-001 0.000000e+000 -5.000000e-001
    outer loop
      vertex   1.410604e+001 -1.625000e+002 -1.676035e+002
      vertex   1.410604e+001 -2.225000e+002 -1.676035e+002
      vertex   8.975773e+000 -2.225000e+002 -1.764893e+002
    endloop
  endfacet
  facet normal 3.420201e-001 0.000000e+000 -9.396926e-001
    outer loop
      vertex   8.975773e+000 -1.625000e+002 -1.764893e+002
      vertex   8.975773e+000 -2.225000e+002 -1.764893e+002
      vertex   -6.659692e-001 -2.225000e+002 -1.799987e+002
    endloop
  endfacet
  facet normal 3.420201e-001 0.000000e+000 -9.396926e-001
    outer loop
      vertex   -6.659692e-001 -2.225000e+002 -1.799987e+002
      vertex   -6.659692e-001 -1.625000e+002 -1.799987e+002
      vertex   8.975773e+000 -1.625000e+002 -1.764893e+002
    endloop
  endfacet
  facet normal 8.660254e-001 0.000000e+000 -5.000000e-001
    outer loop
      vertex   8.975773e+000 -2.225000e+002 -1.764893e+002
      vertex   8.975773e+000 -1.625000e+002 -1.764893e+002
      vertex   1.410604e+001 -1.625000e+002 -1.676035e+002
    endloop
  endfacet
  facet normal 9.848078e-001 -0.000000e+000 1.736482e-001
    outer loop
      vertex   1.410604e+001 -2.225000e+002 -1.676035e+002
      vertex   1.410604e+001 -1.625000e+002 -1.676035e+002
      vertex   1.232431e+001 -1.625000e+002 -1.574988e+002
    endloop
  endfacet
  facet normal 6.427876e-001 -0.000000e+000 7.660444e-001
    outer loop
      vertex   1.232431e+001 -2.225000e+002 -1.574988e+002
      vertex   1.232431e+001 -1.625000e+002 -1.574988e+002
      vertex   4.464295e+000 -1.625000e+002 -1.509035e+002
    endloop
  endfacet
  facet normal 0.000000e+000 -0.000000e+000 1.000000e+000
    outer loop
      vertex   4.464295e+000 -2.225000e+002 -1.509035e+002
      vertex   4.464295e+000 -1.625000e+002 -1.509035e+002
      vertex   -5.796233e+000 -1.625000e+002 -1.509035e+002
    endloop
  endfacet
  facet normal -6.427876e-001 0.000000e+000 7.660444e-001
    outer loop
      vertex   -5.796233e+000 -2.225000e+002 -1.509035e+002
      vertex   -5.796233e+000 -1.625000e+002 -1.509035e+002
      vertex   -1.365625e+001 -1.625000e+002 -1.574988e+002
    endloop
  endfacet
  facet normal -9.659258e-001 0.000000e+000 2.588190e-001
    outer loop
      vertex   -1.566586e+001 -2.225000e+002 -1.649988e+002
      vertex   -1.365625e+001 -2.225000e+002 -1.574988e+002
      vertex   -1.365625e+001 -1.625000e+002 -1.574988e+002
    endloop
  endfacet
  facet normal -8.660254e-001 0.000000e+000 -5.000000e-001
    outer loop
      vertex   -1.543798e+001 -2.225000e+002 -1.676035e+002
      vertex   -1.543798e+001 -1.625000e+002 -1.676035e+002
      vertex   -1.030771e+001 -1.625000e+002 -1.764893e+002
    endloop
  endfacet
  facet normal -3.420201e-001 0.000000e+000 -9.396926e-001
    outer loop
      vertex   -1.030771e+001 -2.225000e+002 -1.764893e+002
      vertex   -1.030771e+001 -1.625000e+002 -1.764893e+002
      vertex   -6.659692e-001 -1.625000e+002 -1.799987e+002
    endloop
  endfacet
  facet normal 0.000000e+000 -1.000000e+000 0.000000e+000
    outer loop
      vertex   -6.659692e-001 -2.225000e+002 -1.649988e+002
      vertex   -1.543798e+001 -2.225000e+002 -1.676035e+002
      vertex   -1.030771e+001 -2.225000e+002 -1.764893e+002
    endloop
  endfacet
  facet normal 0.000000e+000 -1.000000e+000 0.000000e+000
    outer loop
      vertex   -1.030771e+001 -2.225000e+002 -1.764893e+002
      vertex   -6.659692e-001 -2.225000e+002 -1.799987e+002
      vertex   -6.659692e-001 -2.225000e+002 -1.649988e+002
    endloop
  endfacet
  facet normal 0.000000e+000 -1.000000e+000 0.000000e+000
    outer loop
      vertex   -6.659692e-001 -2.225000e+002 -1.799987e+002
      vertex   8.975773e+000 -2.225000e+002 -1.764893e+002
      vertex   -6.659692e-001 -2.225000e+002 -1.649988e+002
    endloop
  endfacet
  facet normal 0.000000e+000 -1.000000e+000 0.000000e+000
    outer loop
      vertex   8.975773e+000 -2.225000e+002 -1.764893e+002
      vertex   1.410604e+001 -2.225000e+002 -1.676035e+002
      vertex   -6.659692e-001 -2.225000e+002 -1.649988e+002
    endloop
  endfacet
  facet normal 0.000000e+000 -1.000000e+000 0.000000e+000
    outer loop
      vertex   1.410604e+001 -2.225000e+002 -1.676035e+002
      vertex   1.232431e+001 -2.225000e+002 -1.574988e+002
      vertex   -6.659692e-001 -2.225000e+002 -1.649988e+002
    endloop
  endfacet
  facet normal -0.000000e+000 -1.000000e+000 0.000000e+000
    outer loop
      vertex   1.232431e+001 -2.225000e+002 -1.574988e+002
      vertex   4.464295e+000 -2.225000e+002 -1.509035e+002
      vertex   -6.659692e-001 -2.225000e+002 -1.649988e+002
    endloop
  endfacet
  facet normal -0.000000e+000 -1.000000e+000 0.000000e+000
    outer loop
      vertex   4.464295e+000 -2.225000e+002 -1.509035e+002
      vertex   -5.796233e+000 -2.225000e+002 -1.509035e+002
      vertex   -6.659692e-001 -2.225000e+002 -1.649988e+002
    endloop
  endfacet
  facet normal 0.000000e+000 -1.000000e+000 -0.000000e+000
    outer loop
      vertex   -5.796233e+000 -2.225000e+002 -1.509035e+002
      vertex   -1.365625e+001 -2.225000e+002 -1.574988e+002
      vertex   -6.659692e-001 -2.225000e+002 -1.649988e+002
    endloop
  endfacet
  facet normal 0.000000e+000 -1.000000e+000 -0.000000e+000
    outer loop
      vertex   -1.365625e+001 -2.225000e+002 -1.574988e+002
      vertex   -1.566586e+001 -2.225000e+002 -1.649988e+002
      vertex   -6.659692e-001 -2.225000e+002 -1.649988e+002
    endloop
  endfacet
  facet normal 0.000000e+000 -1.000000e+000 0.000000e+000
    outer loop
      vertex   -1.566586e+001 -2.225000e+002 -1.649988e+002
      vertex   -1.543798e+001 -2.225000e+002 -1.676035e+002
      vertex   -6.659692e-001 -2.225000e+002 -1.649988e+002
    endloop
  endfacet
  facet normal 0.000000e+000 1.000000e+000 0.000000e+000
    outer loop
      vertex   1.649988e+002 -1.625000e+002 -6.659692e-001
      vertex   1.574988e+002 -1.625000e+002 -1.365625e+001
      vertex   1.509035e+002 -1.625000e+002 -5.796233e+000
    endloop
  endfacet
  facet normal 0.000000e+000 1.000000e+000 0.000000e+000
    outer loop
      vertex   1.509035e+002 -1.625000e+002 -5.796233e+000
      vertex   1.509035e+002 -1.625000e+002 4.464295e+000
      vertex   1.649988e+002 -1.625000e+002 -6.659692e-001
    endloop
  endfacet
  facet normal -0.000000e+000 1.000000e+000 0.000000e+000
    outer loop
      vertex   1.509035e+002 -1.625000e+002 4.464295e+000
      vertex   1.574988e+002 -1.625000e+002 1.232431e+001
      vertex   1.649988e+002 -1.625000e+002 -6.659692e-001
    endloop
  endfacet
  facet normal -0.000000e+000 1.000000e+000 0.000000e+000
    outer loop
      vertex   1.574988e+002 -1.625000e+002 1.232431e+001
      vertex   1.676035e+002 -1.625000e+002 1.410604e+001
      vertex   1.649988e+002 -1.625000e+002 -6.659692e-001
    endloop
  endfacet
  facet normal 0.000000e+000 1.000000e+000 0.000000e+000
    outer loop
      vertex   1.676035e+002 -1.625000e+002 1.410604e+001
      vertex   1.764893e+002 -1.625000e+002 8.975773e+000
      vertex   1.649988e+002 -1.625000e+002 -6.659692e-001
    endloop
  endfacet
  facet normal 0.000000e+000 1.000000e+000 0.000000e+000
    outer loop
      vertex   1.764893e+002 -1.625000e+002 8.975773e+000
      vertex   1.799987e+002 -1.625000e+002 -6.659692e-001
      vertex   1.649988e+002 -1.625000e+002 -6.659692e-001
    endloop
  endfacet
  facet normal 0.000000e+000 1.000000e+000 0.000000e+000
    outer loop
      vertex   1.799987e+002 -1.625000e+002 -6.659692e-001
      vertex   1.764893e+002 -1.625000e+002 -1.030771e+001
      vertex   1.649988e+002 -1.625000e+002 -6.659692e-001
    endloop
  endfacet
  facet normal 0.000000e+000 1.000000e+000 0.000000e+000
    outer loop
      vertex   1.764893e+002 -1.625000e+002 -1.030771e+001
      vertex   1.676035e+002 -1.625000e+002 -1.543798e+001
      vertex   1.649988e+002 -1.625000e+002 -6.659692e-001
    endloop
  endfacet
  facet normal 0.000000e+000 1.000000e+000 0.000000e+000
    outer loop
      vertex   1.676035e+002 -1.625000e+002 -1.543798e+001
      vertex   1.649988e+002 -1.625000e+002 -1.566586e+001
      vertex   1.649988e+002 -1.625000e+002 -6.659692e-001
    endloop
  endfacet
  facet normal 0.000000e+000 1.000000e+000 -0.000000e+000
    outer loop
      vertex   1.649988e+002 -1.625000e+002 -1.566586e+001
      vertex   1.574988e+002 -1.625000e+002 -1.365625e+001
      vertex   1.649988e+002 -1.625000e+002 -6.659692e-001
    endloop
  endfacet
  facet normal 9.396926e-001 0.000000e+000 -3.420201e-001
    outer loop
      vertex   1.799987e+002 -1.625000e+002 -6.659692e-001
      vertex   1.799987e+002 -2.225000e+002 -6.659692e-001
      vertex   1.764893e+002 -2.225000e+002 -1.030771e+001
    endloop
  endfacet
  facet normal 5.000000e-001 0.000000e+000 -8.660254e-001
    outer loop
      vertex   1.764893e+002 -1.625000e+002 -1.030771e+001
      vertex   1.764893e+002 -2.225000e+002 -1.030771e+001
      vertex   1.676035e+002 -2.225000e+002 -1.543798e+001
    endloop
  endfacet
  facet normal -2.588190e-001 0.000000e+000 -9.659258e-001
    outer loop
      vertex   1.574988e+002 -1.625000e+002 -1.365625e+001
      vertex   1.649988e+002 -1.625000e+002 -1.566586e+001
      vertex   1.649988e+002 -2.225000e+002 -1.566586e+001
    endloop
  endfacet
  facet normal 8.715574e-002 0.000000e+000 -9.961947e-001
    outer loop
      vertex   1.676035e+002 -2.225000e+002 -1.543798e+001
      vertex   1.649988e+002 -2.225000e+002 -1.566586e+001
      vertex   1.649988e+002 -1.625000e+002 -1.566586e+001
    endloop
  endfacet
  facet normal 8.715574e-002 0.000000e+000 -9.961947e-001
    outer loop
      vertex   1.649988e+002 -1.625000e+002 -1.566586e+001
      vertex   1.676035e+002 -1.625000e+002 -1.543798e+001
      vertex   1.676035e+002 -2.225000e+002 -1.543798e+001
    endloop
  endfacet
  facet normal -7.660444e-001 -0.000000e+000 -6.427876e-001
    outer loop
      vertex   1.574988e+002 -1.625000e+002 -1.365625e+001
      vertex   1.574988e+002 -2.225000e+002 -1.365625e+001
      vertex   1.509035e+002 -2.225000e+002 -5.796233e+000
    endloop
  endfacet
  facet normal -1.000000e+000 0.000000e+000 0.000000e+000
    outer loop
      vertex   1.509035e+002 -1.625000e+002 -5.796233e+000
      vertex   1.509035e+002 -2.225000e+002 -5.796233e+000
      vertex   1.509035e+002 -2.225000e+002 4.464295e+000
    endloop
  endfacet
  facet normal -7.660444e-001 0.000000e+000 6.427876e-001
    outer loop
      vertex   1.509035e+002 -1.625000e+002 4.464295e+000
      vertex   1.509035e+002 -2.225000e+002 4.464295e+000
      vertex   1.574988e+002 -2.225000e+002 1.232431e+001
    endloop
  endfacet
  facet normal -1.736482e-001 0.000000e+000 9.848078e-001
    outer loop
      vertex   1.574988e+002 -1.625000e+002 1.232431e+001
      vertex   1.574988e+002 -2.225000e+002 1.232431e+001
      vertex   1.676035e+002 -2.225000e+002 1.410604e+001
    endloop
  endfacet
  facet normal 5.000000e-001 0.000000e+000 8.660254e-001
    outer loop
      vertex   1.676035e+002 -1.625000e+002 1.410604e+001
      vertex   1.676035e+002 -2.225000e+002 1.410604e+001
      vertex   1.764893e+002 -2.225000e+002 8.975773e+000
    endloop
  endfacet
  facet normal 9.396926e-001 0.000000e+000 3.420201e-001
    outer loop
      vertex   1.764893e+002 -1.625000e+002 8.975773e+000
      vertex   1.764893e+002 -2.225000e+002 8.975773e+000
      vertex   1.799987e+002 -2.225000e+002 -6.659692e-001
    endloop
  endfacet
  facet normal 9.396926e-001 -0.000000e+000 3.420201e-001
    outer loop
      vertex   1.799987e+002 -2.225000e+002 -6.659692e-001
      vertex   1.799987e+002 -1.625000e+002 -6.659692e-001
      vertex   1.764893e+002 -1.625000e+002 8.975773e+000
    endloop
  endfacet
  facet normal 5.000000e-001 -0.000000e+000 8.660254e-001
    outer loop
      vertex   1.764893e+002 -2.225000e+002 8.975773e+000
      vertex   1.764893e+002 -1.625000e+002 8.975773e+000
      vertex   1.676035e+002 -1.625000e+002 1.410604e+001
    endloop
  endfacet
  facet normal -1.736482e-001 0.000000e+000 9.848078e-001
    outer loop
      vertex   1.676035e+002 -2.225000e+002 1.410604e+001
      vertex   1.676035e+002 -1.625000e+002 1.410604e+001
      vertex   1.574988e+002 -1.625000e+002 1.232431e+001
    endloop
  endfacet
  facet normal -7.660444e-001 0.000000e+000 6.427876e-001
    outer loop
      vertex   1.574988e+002 -2.225000e+002 1.232431e+001
      vertex   1.574988e+002 -1.625000e+002 1.232431e+001
      vertex   1.509035e+002 -1.625000e+002 4.464295e+000
    endloop
  endfacet
  facet normal -1.000000e+000 0.000000e+000 0.000000e+000
    outer loop
      vertex   1.509035e+002 -2.225000e+002 4.464295e+000
      vertex   1.509035e+002 -1.625000e+002 4.464295e+000
      vertex   1.509035e+002 -1.625000e+002 -5.796233e+000
    endloop
  endfacet
  facet normal -7.660444e-001 0.000000e+000 -6.427876e-001
    outer loop
      vertex   1.509035e+002 -2.225000e+002 -5.796233e+000
      vertex   1.509035e+002 -1.625000e+002 -5.796233e+000
      vertex   1.574988e+002 -1.625000e+002 -1.365625e+001
    endloop
  endfacet
  facet normal -2.588190e-001 0.000000e+000 -9.659258e-001
    outer loop
      vertex   1.649988e+002 -2.225000e+002 -1.566586e+001
      vertex   1.574988e+002 -2.225000e+002 -1.365625e+001
      vertex   1.574988e+002 -1.625000e+002 -1.365625e+001
    endloop
  endfacet
  facet normal 5.000000e-001 0.000000e+000 -8.660254e-001
    outer loop
      vertex   1.676035e+002 -2.225000e+002 -1.543798e+001
      vertex   1.676035e+002 -1.625000e+002 -1.543798e+001
      vertex   1.764893e+002 -1.625000e+002 -1.030771e+001
    endloop
  endfacet
  facet normal 9.396926e-001 0.000000e+000 -3.420201e-001
    outer loop
      vertex   1.764893e+002 -2.225000e+002 -1.030771e+001
      vertex   1.764893e+002 -1.625000e+002 -1.030771e+001
      vertex   1.799987e+002 -1.625000e+002 -6.659692e-001
    endloop
  endfacet
  facet normal 0.000000e+000 -1.000000e+000 0.000000e+000
    outer loop
      vertex   1.649988e+002 -2.225000e+002 -6.659692e-001
      vertex   1.676035e+002 -2.225000e+002 -1.543798e+001
      vertex   1.764893e+002 -2.225000e+002 -1.030771e+001
    endloop
  endfacet
  facet normal 0.000000e+000 -1.000000e+000 0.000000e+000
    outer loop
      vertex   1.764893e+002 -2.225000e+002 -1.030771e+001
      vertex   1.799987e+002 -2.225000e+002 -6.659692e-001
      vertex   1.649988e+002 -2.225000e+002 -6.659692e-001
    endloop
  endfacet
  facet normal -0.000000e+000 -1.000000e+000 0.000000e+000
    outer loop
      vertex   1.799987e+002 -2.225000e+002 -6.659692e-001
      vertex   1.764893e+002 -2.225000e+002 8.975773e+000
      vertex   1.649988e+002 -2.225000e+002 -6.659692e-001
    endloop
  endfacet
  facet normal -0.000000e+000 -1.000000e+000 0.000000e+000
    outer loop
      vertex   1.764893e+002 -2.225000e+002 8.975773e+000
      vertex   1.676035e+002 -2.225000e+002 1.410604e+001
      vertex   1.649988e+002 -2.225000e+002 -6.659692e-001
    endloop
  endfacet
  facet normal 0.000000e+000 -1.000000e+000 0.000000e+000
    outer loop
      vertex   1.676035e+002 -2.225000e+002 1.410604e+001
      vertex   1.574988e+002 -2.225000e+002 1.232431e+001
      vertex   1.649988e+002 -2.225000e+002 -6.659692e-001
    endloop
  endfacet
  facet normal 0.000000e+000 -1.000000e+000 -0.000000e+000
    outer loop
      vertex   1.574988e+002 -2.225000e+002 1.232431e+001
      vertex   1.509035e+002 -2.225000e+002 4.464295e+000
      vertex   1.649988e+002 -2.225000e+002 -6.659692e-001
    endloop
  endfacet
  facet normal 0.000000e+000 -1.000000e+000 0.000000e+000
    outer loop
      vertex   1.509035e+002 -2.225000e+002 4.464295e+000
      vertex   1.509035e+002 -2.225000e+002 -5.796233e+000
      vertex   1.649988e+002 -2.225000e+002 -6.659692e-001
    endloop
  endfacet
  facet normal 0.000000e+000 -1.000000e+000 0.000000e+000
    outer loop
      vertex   1.509035e+002 -2.225000e+002 -5.796233e+000
      vertex   1.574988e+002 -2.225000e+002 -1.365625e+001
      vertex   1.649988e+002 -2.225000e+002 -6.659692e-001
    endloop
  endfacet
  facet normal 0.000000e+000 -1.000000e+000 0.000000e+000
    outer loop
      vertex   1.574988e+002 -2.225000e+002 -1.365625e+001
      vertex   1.649988e+002 -2.225000e+002 -1.566586e+001
      vertex   1.649988e+002 -2.225000e+002 -6.659692e-001
    endloop
  endfacet
  facet normal 0.000000e+000 -1.000000e+000 0.000000e+000
    outer loop
      vertex   1.649988e+002 -2.225000e+002 -1.566586e+001
      vertex   1.676035e+002 -2.225000e+002 -1.543798e+001
      vertex   1.649988e+002 -2.225000e+002 -6.659692e-001
    endloop
  endfacet
  facet normal 0.000000e+000 1.000000e+000 0.000000e+000
    outer loop
      vertex   6.659692e-001 -1.625000e+002 1.649988e+002
      vertex   1.365625e+001 -1.625000e+002 1.574988e+002
      vertex   5.796233e+000 -1.625000e+002 1.509035e+002
    endloop
  endfacet
  facet normal 0.000000e+000 1.000000e+000 0.000000e+000
    outer loop
      vertex   5.796233e+000 -1.625000e+002 1.509035e+002
      vertex   -4.464295e+000 -1.625000e+002 1.509035e+002
      vertex   6.659692e-001 -1.625000e+002 1.649988e+002
    endloop
  endfacet
  facet normal 0.000000e+000 1.000000e+000 -0.000000e+000
    outer loop
      vertex   -4.464295e+000 -1.625000e+002 1.509035e+002
      vertex   -1.232431e+001 -1.625000e+002 1.574988e+002
      vertex   6.659692e-001 -1.625000e+002 1.649988e+002
    endloop
  endfacet
  facet normal 0.000000e+000 1.000000e+000 -0.000000e+000
    outer loop
      vertex   -1.232431e+001 -1.625000e+002 1.574988e+002
      vertex   -1.410604e+001 -1.625000e+002 1.676035e+002
      vertex   6.659692e-001 -1.625000e+002 1.649988e+002
    endloop
  endfacet
  facet normal -0.000000e+000 1.000000e+000 0.000000e+000
    outer loop
      vertex   -1.410604e+001 -1.625000e+002 1.676035e+002
      vertex   -8.975773e+000 -1.625000e+002 1.764893e+002
      vertex   6.659692e-001 -1.625000e+002 1.649988e+002
    endloop
  endfacet
  facet normal -0.000000e+000 1.000000e+000 0.000000e+000
    outer loop
      vertex   -8.975773e+000 -1.625000e+002 1.764893e+002
      vertex   6.659692e-001 -1.625000e+002 1.799987e+002
      vertex   6.659692e-001 -1.625000e+002 1.649988e+002
    endloop
  endfacet
  facet normal 0.000000e+000 1.000000e+000 0.000000e+000
    outer loop
      vertex   6.659692e-001 -1.625000e+002 1.799987e+002
      vertex   1.030771e+001 -1.625000e+002 1.764893e+002
      vertex   6.659692e-001 -1.625000e+002 1.649988e+002
    endloop
  endfacet
  facet normal 0.000000e+000 1.000000e+000 0.000000e+000
    outer loop
      vertex   1.030771e+001 -1.625000e+002 1.764893e+002
      vertex   1.543798e+001 -1.625000e+002 1.676035e+002
      vertex   6.659692e-001 -1.625000e+002 1.649988e+002
    endloop
  endfacet
  facet normal 0.000000e+000 1.000000e+000 0.000000e+000
    outer loop
      vertex   1.543798e+001 -1.625000e+002 1.676035e+002
      vertex   1.566586e+001 -1.625000e+002 1.649988e+002
      vertex   6.659692e-001 -1.625000e+002 1.649988e+002
    endloop
  endfacet
  facet normal 0.000000e+000 1.000000e+000 0.000000e+000
    outer loop
      vertex   1.566586e+001 -1.625000e+002 1.649988e+002
      vertex   1.365625e+001 -1.625000e+002 1.574988e+002
      vertex   6.659692e-001 -1.625000e+002 1.649988e+002
    endloop
  endfacet
  facet normal 3.420201e-001 0.000000e+000 9.396926e-001
    outer loop
      vertex   6.659692e-001 -1.625000e+002 1.799987e+002
      vertex   6.659692e-001 -2.225000e+002 1.799987e+002
      vertex   1.030771e+001 -2.225000e+002 1.764893e+002
    endloop
  endfacet
  facet normal 8.660254e-001 0.000000e+000 5.000000e-001
    outer loop
      vertex   1.030771e+001 -1.625000e+002 1.764893e+002
      vertex   1.030771e+001 -2.225000e+002 1.764893e+002
      vertex   1.543798e+001 -2.225000e+002 1.676035e+002
    endloop
  endfacet
  facet normal 9.659258e-001 0.000000e+000 -2.588190e-001
    outer loop
      vertex   1.365625e+001 -1.625000e+002 1.574988e+002
      vertex   1.566586e+001 -1.625000e+002 1.649988e+002
      vertex   1.566586e+001 -2.225000e+002 1.649988e+002
    endloop
  endfacet
  facet normal 9.961947e-001 0.000000e+000 8.715574e-002
    outer loop
      vertex   1.543798e+001 -2.225000e+002 1.676035e+002
      vertex   1.566586e+001 -2.225000e+002 1.649988e+002
      vertex   1.566586e+001 -1.625000e+002 1.649988e+002
    endloop
  endfacet
  facet normal 9.961947e-001 0.000000e+000 8.715574e-002
    outer loop
      vertex   1.566586e+001 -1.625000e+002 1.649988e+002
      vertex   1.543798e+001 -1.625000e+002 1.676035e+002
      vertex   1.543798e+001 -2.225000e+002 1.676035e+002
    endloop
  endfacet
  facet normal 6.427876e-001 0.000000e+000 -7.660444e-001
    outer loop
      vertex   1.365625e+001 -1.625000e+002 1.574988e+002
      vertex   1.365625e+001 -2.225000e+002 1.574988e+002
      vertex   5.796233e+000 -2.225000e+002 1.509035e+002
    endloop
  endfacet
  facet normal 0.000000e+000 -0.000000e+000 -1.000000e+000
    outer loop
      vertex   5.796233e+000 -1.625000e+002 1.509035e+002
      vertex   5.796233e+000 -2.225000e+002 1.509035e+002
      vertex   -4.464295e+000 -2.225000e+002 1.509035e+002
    endloop
  endfacet
  facet normal -6.427876e-001 -0.000000e+000 -7.660444e-001
    outer loop
      vertex   -4.464295e+000 -1.625000e+002 1.509035e+002
      vertex   -4.464295e+000 -2.225000e+002 1.509035e+002
      vertex   -1.232431e+001 -2.225000e+002 1.574988e+002
    endloop
  endfacet
  facet normal -9.848078e-001 -0.000000e+000 -1.736482e-001
    outer loop
      vertex   -1.232431e+001 -1.625000e+002 1.574988e+002
      vertex   -1.232431e+001 -2.225000e+002 1.574988e+002
      vertex   -1.410604e+001 -2.225000e+002 1.676035e+002
    endloop
  endfacet
  facet normal -8.660254e-001 0.000000e+000 5.000000e-001
    outer loop
      vertex   -1.410604e+001 -1.625000e+002 1.676035e+002
      vertex   -1.410604e+001 -2.225000e+002 1.676035e+002
      vertex   -8.975773e+000 -2.225000e+002 1.764893e+002
    endloop
  endfacet
  facet normal -3.420201e-001 0.000000e+000 9.396926e-001
    outer loop
      vertex   -8.975773e+000 -1.625000e+002 1.764893e+002
      vertex   -8.975773e+000 -2.225000e+002 1.764893e+002
      vertex   6.659692e-001 -2.225000e+002 1.799987e+002
    endloop
  endfacet
  facet normal -3.420201e-001 0.000000e+000 9.396926e-001
    outer loop
      vertex   6.659692e-001 -2.225000e+002 1.799987e+002
      vertex   6.659692e-001 -1.625000e+002 1.799987e+002
      vertex   -8.975773e+000 -1.625000e+002 1.764893e+002
    endloop
  endfacet
  facet normal -8.660254e-001 0.000000e+000 5.000000e-001
    outer loop
      vertex   -8.975773e+000 -2.225000e+002 1.764893e+002
      vertex   -8.975773e+000 -1.625000e+002 1.764893e+002
      vertex   -1.410604e+001 -1.625000e+002 1.676035e+002
    endloop
  endfacet
  facet normal -9.848078e-001 0.000000e+000 -1.736482e-001
    outer loop
      vertex   -1.410604e+001 -2.225000e+002 1.676035e+002
      vertex   -1.410604e+001 -1.625000e+002 1.676035e+002
      vertex   -1.232431e+001 -1.625000e+002 1.574988e+002
    endloop
  endfacet
  facet normal -6.427876e-001 0.000000e+000 -7.660444e-001
    outer loop
      vertex   -1.232431e+001 -2.225000e+002 1.574988e+002
      vertex   -1.232431e+001 -1.625000e+002 1.574988e+002
      vertex   -4.464295e+000 -1.625000e+002 1.509035e+002
    endloop
  endfacet
  facet normal 0.000000e+000 0.000000e+000 -1.000000e+000
    outer loop
      vertex   -4.464295e+000 -2.225000e+002 1.509035e+002
      vertex   -4.464295e+000 -1.625000e+002 1.509035e+002
      vertex   5.796233e+000 -1.625000e+002 1.509035e+002
    endloop
  endfacet
  facet normal 6.427876e-001 0.000000e+000 -7.660444e-001
    outer loop
      vertex   5.796233e+000 -2.225000e+002 1.509035e+002
      vertex   5.796233e+000 -1.625000e+002 1.509035e+002
      vertex   1.365625e+001 -1.625000e+002 1.574988e+002
    endloop
  endfacet
  facet normal 9.659258e-001 0.000000e+000 -2.588190e-001
    outer loop
      vertex   1.566586e+001 -2.225000e+002 1.649988e+002
      vertex   1.365625e+001 -2.225000e+002 1.574988e+002
      vertex   1.365625e+001 -1.625000e+002 1.574988e+002
    endloop
  endfacet
  facet normal 8.660254e-001 -0.000000e+000 5.000000e-001
    outer loop
      vertex   1.543798e+001 -2.225000e+002 1.676035e+002
      vertex   1.543798e+001 -1.625000e+002 1.676035e+002
      vertex   1.030771e+001 -1.625000e+002 1.764893e+002
    endloop
  endfacet
  facet normal 3.420201e-001 -0.000000e+000 9.396926e-001
    outer loop
      vertex   1.030771e+001 -2.225000e+002 1.764893e+002
      vertex   1.030771e+001 -1.625000e+002 1.764893e+002
      vertex   6.659692e-001 -1.625000e+002 1.799987e+002
    endloop
  endfacet
  facet normal 0.000000e+000 -1.000000e+000 0.000000e+000
    outer loop
      vertex   6.659692e-001 -2.225000e+002 1.649988e+002
      vertex   1.543798e+001 -2.225000e+002 1.676035e+002
      vertex   1.030771e+001 -2.225000e+002 1.764893e+002
    endloop
  endfacet
  facet normal -0.000000e+000 -1.000000e+000 0.000000e+000
    outer loop
      vertex   1.030771e+001 -2.225000e+002 1.764893e+002
      vertex   6.659692e-001 -2.225000e+002 1.799987e+002
      vertex   6.659692e-001 -2.225000e+002 1.649988e+002
    endloop
  endfacet
  facet normal 0.000000e+000 -1.000000e+000 -0.000000e+000
    outer loop
      vertex   6.659692e-001 -2.225000e+002 1.799987e+002
      vertex   -8.975773e+000 -2.225000e+002 1.764893e+002
      vertex   6.659692e-001 -2.225000e+002 1.649988e+002
    endloop
  endfacet
  facet normal 0.000000e+000 -1.000000e+000 -0.000000e+000
    outer loop
      vertex   -8.975773e+000 -2.225000e+002 1.764893e+002
      vertex   -1.410604e+001 -2.225000e+002 1.676035e+002
      vertex   6.659692e-001 -2.225000e+002 1.649988e+002
    endloop
  endfacet
  facet normal 0.000000e+000 -1.000000e+000 0.000000e+000
    outer loop
      vertex   -1.410604e+001 -2.225000e+002 1.676035e+002
      vertex   -1.232431e+001 -2.225000e+002 1.574988e+002
      vertex   6.659692e-001 -2.225000e+002 1.649988e+002
    endloop
  endfacet
  facet normal 0.000000e+000 -1.000000e+000 0.000000e+000
    outer loop
      vertex   -1.232431e+001 -2.225000e+002 1.574988e+002
      vertex   -4.464295e+000 -2.225000e+002 1.509035e+002
      vertex   6.659692e-001 -2.225000e+002 1.649988e+002
    endloop
  endfacet
  facet normal 0.000000e+000 -1.000000e+000 0.000000e+000
    outer loop
      vertex   -4.464295e+000 -2.225000e+002 1.509035e+002
      vertex   5.796233e+000 -2.225000e+002 1.509035e+002
      vertex   6.659692e-001 -2.225000e+002 1.649988e+002
    endloop
  endfacet
  facet normal 0.000000e+000 -1.000000e+000 0.000000e+000
    outer loop
      vertex   5.796233e+000 -2.225000e+002 1.509035e+002
      vertex   1.365625e+001 -2.225000e+002 1.574988e+002
      vertex   6.659692e-001 -2.225000e+002 1.649988e+002
    endloop
  endfacet
  facet normal 0.000000e+000 -1.000000e+000 0.000000e+000
    outer loop
      vertex   1.365625e+001 -2.225000e+002 1.574988e+002
      vertex   1.566586e+001 -2.225000e+002 1.649988e+002
      vertex   6.659692e-001 -2.225000e+002 1.649988e+002
    endloop
  endfacet
  facet normal 0.000000e+000 -1.000000e+000 0.000000e+000
    outer loop
      vertex   1.566586e+001 -2.225000e+002 1.649988e+002
      vertex   1.543798e+001 -2.225000e+002 1.676035e+002
      vertex   6.659692e-001 -2.225000e+002 1.649988e+002
    endloop
  endfacet
endsolid
