solid PasadoresAcople
  facet normal 0.000000e+000 -1.000000e+000 0.000000e+000
    outer loop
      vertex   1.850934e+002 -1.800000e+002 -3.209654e+000
      vertex   1.887095e+002 -1.800000e+002 -3.299092e+001
      vertex   2.021353e+002 -1.800000e+002 -2.789917e+001
    endloop
  endfacet
  facet normal 0.000000e+000 -1.000000e+000 0.000000e+000
    outer loop
      vertex   2.021353e+002 -1.800000e+002 -2.789917e+001
      vertex   2.116571e+002 -1.800000e+002 -1.715135e+001
      vertex   1.850934e+002 -1.800000e+002 -3.209654e+000
    endloop
  endfacet
  facet normal 0.000000e+000 -1.000000e+000 0.000000e+000
    outer loop
      vertex   2.116571e+002 -1.800000e+002 -1.715135e+001
      vertex   2.150934e+002 -1.800000e+002 -3.209654e+000
      vertex   1.850934e+002 -1.800000e+002 -3.209654e+000
    endloop
  endfacet
  facet normal -0.000000e+000 -1.000000e+000 0.000000e+000
    outer loop
      vertex   2.150934e+002 -1.800000e+002 -3.209654e+000
      vertex   2.116571e+002 -1.800000e+002 1.073204e+001
      vertex   1.850934e+002 -1.800000e+002 -3.209654e+000
    endloop
  endfacet
  facet normal -0.000000e+000 -1.000000e+000 0.000000e+000
    outer loop
      vertex   2.116571e+002 -1.800000e+002 1.073204e+001
      vertex   2.021353e+002 -1.800000e+002 2.147986e+001
      vertex   1.850934e+002 -1.800000e+002 -3.209654e+000
    endloop
  endfacet
  facet normal -0.000000e+000 -1.000000e+000 0.000000e+000
    outer loop
      vertex   2.021353e+002 -1.800000e+002 2.147986e+001
      vertex   1.887095e+002 -1.800000e+002 2.657161e+001
      vertex   1.850934e+002 -1.800000e+002 -3.209654e+000
    endloop
  endfacet
  facet normal 0.000000e+000 -1.000000e+000 0.000000e+000
    outer loop
      vertex   1.887095e+002 -1.800000e+002 2.657161e+001
      vertex   1.744552e+002 -1.800000e+002 2.484083e+001
      vertex   1.850934e+002 -1.800000e+002 -3.209654e+000
    endloop
  endfacet
  facet normal 0.000000e+000 -1.000000e+000 -0.000000e+000
    outer loop
      vertex   1.744552e+002 -1.800000e+002 2.484083e+001
      vertex   1.626380e+002 -1.800000e+002 1.668403e+001
      vertex   1.850934e+002 -1.800000e+002 -3.209654e+000
    endloop
  endfacet
  facet normal 0.000000e+000 -1.000000e+000 -0.000000e+000
    outer loop
      vertex   1.626380e+002 -1.800000e+002 1.668403e+001
      vertex   1.559651e+002 -1.800000e+002 3.969816e+000
      vertex   1.850934e+002 -1.800000e+002 -3.209654e+000
    endloop
  endfacet
  facet normal 0.000000e+000 -1.000000e+000 0.000000e+000
    outer loop
      vertex   1.559651e+002 -1.800000e+002 3.969816e+000
      vertex   1.559651e+002 -1.800000e+002 -1.038912e+001
      vertex   1.850934e+002 -1.800000e+002 -3.209654e+000
    endloop
  endfacet
  facet normal 0.000000e+000 -1.000000e+000 0.000000e+000
    outer loop
      vertex   1.559651e+002 -1.800000e+002 -1.038912e+001
      vertex   1.626380e+002 -1.800000e+002 -2.310333e+001
      vertex   1.850934e+002 -1.800000e+002 -3.209654e+000
    endloop
  endfacet
  facet normal 0.000000e+000 -1.000000e+000 0.000000e+000
    outer loop
      vertex   1.626380e+002 -1.800000e+002 -2.310333e+001
      vertex   1.744552e+002 -1.800000e+002 -3.126014e+001
      vertex   1.850934e+002 -1.800000e+002 -3.209654e+000
    endloop
  endfacet
  facet normal 0.000000e+000 -1.000000e+000 0.000000e+000
    outer loop
      vertex   1.744552e+002 -1.800000e+002 -3.126014e+001
      vertex   1.850934e+002 -1.800000e+002 -3.320965e+001
      vertex   1.850934e+002 -1.800000e+002 -3.209654e+000
    endloop
  endfacet
  facet normal 0.000000e+000 -1.000000e+000 0.000000e+000
    outer loop
      vertex   1.850934e+002 -1.800000e+002 -3.320965e+001
      vertex   1.887095e+002 -1.800000e+002 -3.299092e+001
      vertex   1.850934e+002 -1.800000e+002 -3.209654e+000
    endloop
  endfacet
  facet normal 9.709418e-001 0.000000e+000 -2.393157e-001
    outer loop
      vertex   2.150934e+002 -5.551115e-014 -3.209654e+000
      vertex   2.150934e+002 -1.800000e+002 -3.209654e+000
      vertex   2.116571e+002 -1.800000e+002 -1.715135e+001
    endloop
  endfacet
  facet normal 7.485107e-001 0.000000e+000 -6.631227e-001
    outer loop
      vertex   2.116571e+002 -5.551115e-014 -1.715135e+001
      vertex   2.116571e+002 -1.800000e+002 -1.715135e+001
      vertex   2.021353e+002 -1.800000e+002 -2.789917e+001
    endloop
  endfacet
  facet normal 3.546049e-001 0.000000e+000 -9.350162e-001
    outer loop
      vertex   2.021353e+002 -5.551115e-014 -2.789917e+001
      vertex   2.021353e+002 -1.800000e+002 -2.789917e+001
      vertex   1.887095e+002 -1.800000e+002 -3.299092e+001
    endloop
  endfacet
  facet normal -1.802550e-001 0.000000e+000 -9.836199e-001
    outer loop
      vertex   1.744552e+002 -5.551115e-014 -3.126014e+001
      vertex   1.850934e+002 -5.551115e-014 -3.320965e+001
      vertex   1.850934e+002 -1.800000e+002 -3.320965e+001
    endloop
  endfacet
  facet normal 6.037850e-002 0.000000e+000 -9.981756e-001
    outer loop
      vertex   1.887095e+002 -1.800000e+002 -3.299092e+001
      vertex   1.850934e+002 -1.800000e+002 -3.320965e+001
      vertex   1.850934e+002 -5.551115e-014 -3.320965e+001
    endloop
  endfacet
  facet normal 6.037850e-002 0.000000e+000 -9.981756e-001
    outer loop
      vertex   1.850934e+002 -5.551115e-014 -3.320965e+001
      vertex   1.887095e+002 -5.551115e-014 -3.299092e+001
      vertex   1.887095e+002 -1.800000e+002 -3.299092e+001
    endloop
  endfacet
  facet normal -5.680647e-001 -0.000000e+000 -8.229839e-001
    outer loop
      vertex   1.744552e+002 -5.551115e-014 -3.126014e+001
      vertex   1.744552e+002 -1.800000e+002 -3.126014e+001
      vertex   1.626380e+002 -1.800000e+002 -2.310333e+001
    endloop
  endfacet
  facet normal -8.854560e-001 -0.000000e+000 -4.647232e-001
    outer loop
      vertex   1.626380e+002 -5.551115e-014 -2.310333e+001
      vertex   1.626380e+002 -1.800000e+002 -2.310333e+001
      vertex   1.559651e+002 -1.800000e+002 -1.038912e+001
    endloop
  endfacet
  facet normal -1.000000e+000 0.000000e+000 0.000000e+000
    outer loop
      vertex   1.559651e+002 -5.551115e-014 -1.038912e+001
      vertex   1.559651e+002 -1.800000e+002 -1.038912e+001
      vertex   1.559651e+002 -1.800000e+002 3.969816e+000
    endloop
  endfacet
  facet normal -8.854560e-001 0.000000e+000 4.647232e-001
    outer loop
      vertex   1.559651e+002 -5.551115e-014 3.969816e+000
      vertex   1.559651e+002 -1.800000e+002 3.969816e+000
      vertex   1.626380e+002 -1.800000e+002 1.668403e+001
    endloop
  endfacet
  facet normal -5.680647e-001 0.000000e+000 8.229839e-001
    outer loop
      vertex   1.626380e+002 -5.551115e-014 1.668403e+001
      vertex   1.626380e+002 -1.800000e+002 1.668403e+001
      vertex   1.744552e+002 -1.800000e+002 2.484083e+001
    endloop
  endfacet
  facet normal -1.205367e-001 0.000000e+000 9.927089e-001
    outer loop
      vertex   1.744552e+002 -5.551115e-014 2.484083e+001
      vertex   1.744552e+002 -1.800000e+002 2.484083e+001
      vertex   1.887095e+002 -1.800000e+002 2.657161e+001
    endloop
  endfacet
  facet normal 3.546049e-001 0.000000e+000 9.350162e-001
    outer loop
      vertex   1.887095e+002 -5.551115e-014 2.657161e+001
      vertex   1.887095e+002 -1.800000e+002 2.657161e+001
      vertex   2.021353e+002 -1.800000e+002 2.147986e+001
    endloop
  endfacet
  facet normal 7.485107e-001 0.000000e+000 6.631227e-001
    outer loop
      vertex   2.021353e+002 -5.551115e-014 2.147986e+001
      vertex   2.021353e+002 -1.800000e+002 2.147986e+001
      vertex   2.116571e+002 -1.800000e+002 1.073204e+001
    endloop
  endfacet
  facet normal 9.709418e-001 0.000000e+000 2.393157e-001
    outer loop
      vertex   2.116571e+002 -5.551115e-014 1.073204e+001
      vertex   2.116571e+002 -1.800000e+002 1.073204e+001
      vertex   2.150934e+002 -1.800000e+002 -3.209654e+000
    endloop
  endfacet
  facet normal 9.709418e-001 -0.000000e+000 2.393157e-001
    outer loop
      vertex   2.150934e+002 -1.800000e+002 -3.209654e+000
      vertex   2.150934e+002 -5.551115e-014 -3.209654e+000
      vertex   2.116571e+002 -5.551115e-014 1.073204e+001
    endloop
  endfacet
  facet normal 7.485107e-001 -0.000000e+000 6.631227e-001
    outer loop
      vertex   2.116571e+002 -1.800000e+002 1.073204e+001
      vertex   2.116571e+002 -5.551115e-014 1.073204e+001
      vertex   2.021353e+002 -5.551115e-014 2.147986e+001
    endloop
  endfacet
  facet normal 3.546049e-001 -0.000000e+000 9.350162e-001
    outer loop
      vertex   2.021353e+002 -1.800000e+002 2.147986e+001
      vertex   2.021353e+002 -5.551115e-014 2.147986e+001
      vertex   1.887095e+002 -5.551115e-014 2.657161e+001
    endloop
  endfacet
  facet normal -1.205367e-001 0.000000e+000 9.927089e-001
    outer loop
      vertex   1.887095e+002 -1.800000e+002 2.657161e+001
      vertex   1.887095e+002 -5.551115e-014 2.657161e+001
      vertex   1.744552e+002 -5.551115e-014 2.484083e+001
    endloop
  endfacet
  facet normal -5.680647e-001 0.000000e+000 8.229839e-001
    outer loop
      vertex   1.744552e+002 -1.800000e+002 2.484083e+001
      vertex   1.744552e+002 -5.551115e-014 2.484083e+001
      vertex   1.626380e+002 -5.551115e-014 1.668403e+001
    endloop
  endfacet
  facet normal -8.854560e-001 0.000000e+000 4.647232e-001
    outer loop
      vertex   1.626380e+002 -1.800000e+002 1.668403e+001
      vertex   1.626380e+002 -5.551115e-014 1.668403e+001
      vertex   1.559651e+002 -5.551115e-014 3.969816e+000
    endloop
  endfacet
  facet normal -1.000000e+000 0.000000e+000 0.000000e+000
    outer loop
      vertex   1.559651e+002 -1.800000e+002 3.969816e+000
      vertex   1.559651e+002 -5.551115e-014 3.969816e+000
      vertex   1.559651e+002 -5.551115e-014 -1.038912e+001
    endloop
  endfacet
  facet normal -8.854560e-001 0.000000e+000 -4.647232e-001
    outer loop
      vertex   1.559651e+002 -1.800000e+002 -1.038912e+001
      vertex   1.559651e+002 -5.551115e-014 -1.038912e+001
      vertex   1.626380e+002 -5.551115e-014 -2.310333e+001
    endloop
  endfacet
  facet normal -5.680647e-001 0.000000e+000 -8.229839e-001
    outer loop
      vertex   1.626380e+002 -1.800000e+002 -2.310333e+001
      vertex   1.626380e+002 -5.551115e-014 -2.310333e+001
      vertex   1.744552e+002 -5.551115e-014 -3.126014e+001
    endloop
  endfacet
  facet normal -1.802550e-001 0.000000e+000 -9.836199e-001
    outer loop
      vertex   1.850934e+002 -1.800000e+002 -3.320965e+001
      vertex   1.744552e+002 -1.800000e+002 -3.126014e+001
      vertex   1.744552e+002 -5.551115e-014 -3.126014e+001
    endloop
  endfacet
  facet normal 3.546049e-001 0.000000e+000 -9.350162e-001
    outer loop
      vertex   1.887095e+002 -1.800000e+002 -3.299092e+001
      vertex   1.887095e+002 -5.551115e-014 -3.299092e+001
      vertex   2.021353e+002 -5.551115e-014 -2.789917e+001
    endloop
  endfacet
  facet normal 7.485107e-001 0.000000e+000 -6.631227e-001
    outer loop
      vertex   2.021353e+002 -1.800000e+002 -2.789917e+001
      vertex   2.021353e+002 -5.551115e-014 -2.789917e+001
      vertex   2.116571e+002 -5.551115e-014 -1.715135e+001
    endloop
  endfacet
  facet normal 9.709418e-001 0.000000e+000 -2.393157e-001
    outer loop
      vertex   2.116571e+002 -1.800000e+002 -1.715135e+001
      vertex   2.116571e+002 -5.551115e-014 -1.715135e+001
      vertex   2.150934e+002 -5.551115e-014 -3.209654e+000
    endloop
  endfacet
  facet normal -1.082589e-015 1.000000e+000 -1.568401e-015
    outer loop
      vertex   1.850934e+002 0.000000e+000 -3.209654e+000
      vertex   1.744552e+002 -5.551115e-014 -3.126014e+001
      vertex   1.626380e+002 -5.551115e-014 -2.310333e+001
    endloop
  endfacet
  facet normal -1.687457e-015 1.000000e+000 -8.856459e-016
    outer loop
      vertex   1.626380e+002 -5.551115e-014 -2.310333e+001
      vertex   1.559651e+002 -5.551115e-014 -1.038912e+001
      vertex   1.850934e+002 0.000000e+000 -3.209654e+000
    endloop
  endfacet
  facet normal -1.905749e-015 1.000000e+000 0.000000e+000
    outer loop
      vertex   1.559651e+002 -5.551115e-014 -1.038912e+001
      vertex   1.559651e+002 -5.551115e-014 3.969816e+000
      vertex   1.850934e+002 0.000000e+000 -3.209654e+000
    endloop
  endfacet
  facet normal -1.687457e-015 1.000000e+000 8.856459e-016
    outer loop
      vertex   1.559651e+002 -5.551115e-014 3.969816e+000
      vertex   1.626380e+002 -5.551115e-014 1.668403e+001
      vertex   1.850934e+002 0.000000e+000 -3.209654e+000
    endloop
  endfacet
  facet normal -1.082589e-015 1.000000e+000 1.568401e-015
    outer loop
      vertex   1.626380e+002 -5.551115e-014 1.668403e+001
      vertex   1.744552e+002 -5.551115e-014 2.484083e+001
      vertex   1.850934e+002 0.000000e+000 -3.209654e+000
    endloop
  endfacet
  facet normal -2.297127e-016 1.000000e+000 1.891854e-015
    outer loop
      vertex   1.744552e+002 -5.551115e-014 2.484083e+001
      vertex   1.887095e+002 -5.551115e-014 2.657161e+001
      vertex   1.850934e+002 0.000000e+000 -3.209654e+000
    endloop
  endfacet
  facet normal 6.757880e-016 1.000000e+000 1.781907e-015
    outer loop
      vertex   1.887095e+002 -5.551115e-014 2.657161e+001
      vertex   2.021353e+002 -5.551115e-014 2.147986e+001
      vertex   1.850934e+002 0.000000e+000 -3.209654e+000
    endloop
  endfacet
  facet normal 1.426474e-015 1.000000e+000 1.263746e-015
    outer loop
      vertex   2.021353e+002 -5.551115e-014 2.147986e+001
      vertex   2.116571e+002 -5.551115e-014 1.073204e+001
      vertex   1.850934e+002 0.000000e+000 -3.209654e+000
    endloop
  endfacet
  facet normal 1.850372e-015 1.000000e+000 4.560757e-016
    outer loop
      vertex   2.116571e+002 -5.551115e-014 1.073204e+001
      vertex   2.150934e+002 -5.551115e-014 -3.209654e+000
      vertex   1.850934e+002 0.000000e+000 -3.209654e+000
    endloop
  endfacet
  facet normal 1.850372e-015 1.000000e+000 -4.560757e-016
    outer loop
      vertex   2.150934e+002 -5.551115e-014 -3.209654e+000
      vertex   2.116571e+002 -5.551115e-014 -1.715135e+001
      vertex   1.850934e+002 0.000000e+000 -3.209654e+000
    endloop
  endfacet
  facet normal 1.426474e-015 1.000000e+000 -1.263746e-015
    outer loop
      vertex   2.116571e+002 -5.551115e-014 -1.715135e+001
      vertex   2.021353e+002 -5.551115e-014 -2.789917e+001
      vertex   1.850934e+002 0.000000e+000 -3.209654e+000
    endloop
  endfacet
  facet normal 6.757880e-016 1.000000e+000 -1.781907e-015
    outer loop
      vertex   2.021353e+002 -5.551115e-014 -2.789917e+001
      vertex   1.887095e+002 -5.551115e-014 -3.299092e+001
      vertex   1.850934e+002 0.000000e+000 -3.209654e+000
    endloop
  endfacet
  facet normal 1.119269e-016 1.000000e+000 -1.850372e-015
    outer loop
      vertex   1.887095e+002 -5.551115e-014 -3.299092e+001
      vertex   1.850934e+002 -5.551115e-014 -3.320965e+001
      vertex   1.850934e+002 0.000000e+000 -3.209654e+000
    endloop
  endfacet
  facet normal -3.390932e-016 1.000000e+000 -1.850372e-015
    outer loop
      vertex   1.850934e+002 -5.551115e-014 -3.320965e+001
      vertex   1.744552e+002 -5.551115e-014 -3.126014e+001
      vertex   1.850934e+002 0.000000e+000 -3.209654e+000
    endloop
  endfacet
  facet normal 0.000000e+000 -1.000000e+000 0.000000e+000
    outer loop
      vertex   -3.566282e+000 -1.800000e+002 -1.883030e+002
      vertex   -3.334755e+001 -1.800000e+002 -1.919191e+002
      vertex   -2.825580e+001 -1.800000e+002 -2.053450e+002
    endloop
  endfacet
  facet normal 0.000000e+000 -1.000000e+000 0.000000e+000
    outer loop
      vertex   -2.825580e+001 -1.800000e+002 -2.053450e+002
      vertex   -1.750798e+001 -1.800000e+002 -2.148667e+002
      vertex   -3.566282e+000 -1.800000e+002 -1.883030e+002
    endloop
  endfacet
  facet normal 0.000000e+000 -1.000000e+000 0.000000e+000
    outer loop
      vertex   -1.750798e+001 -1.800000e+002 -2.148667e+002
      vertex   -3.566282e+000 -1.800000e+002 -2.183030e+002
      vertex   -3.566282e+000 -1.800000e+002 -1.883030e+002
    endloop
  endfacet
  facet normal 0.000000e+000 -1.000000e+000 0.000000e+000
    outer loop
      vertex   -3.566282e+000 -1.800000e+002 -2.183030e+002
      vertex   1.037541e+001 -1.800000e+002 -2.148667e+002
      vertex   -3.566282e+000 -1.800000e+002 -1.883030e+002
    endloop
  endfacet
  facet normal 0.000000e+000 -1.000000e+000 0.000000e+000
    outer loop
      vertex   1.037541e+001 -1.800000e+002 -2.148667e+002
      vertex   2.112323e+001 -1.800000e+002 -2.053450e+002
      vertex   -3.566282e+000 -1.800000e+002 -1.883030e+002
    endloop
  endfacet
  facet normal 0.000000e+000 -1.000000e+000 0.000000e+000
    outer loop
      vertex   2.112323e+001 -1.800000e+002 -2.053450e+002
      vertex   2.621498e+001 -1.800000e+002 -1.919191e+002
      vertex   -3.566282e+000 -1.800000e+002 -1.883030e+002
    endloop
  endfacet
  facet normal 0.000000e+000 -1.000000e+000 0.000000e+000
    outer loop
      vertex   2.621498e+001 -1.800000e+002 -1.919191e+002
      vertex   2.448420e+001 -1.800000e+002 -1.776649e+002
      vertex   -3.566282e+000 -1.800000e+002 -1.883030e+002
    endloop
  endfacet
  facet normal -0.000000e+000 -1.000000e+000 0.000000e+000
    outer loop
      vertex   2.448420e+001 -1.800000e+002 -1.776649e+002
      vertex   1.632740e+001 -1.800000e+002 -1.658477e+002
      vertex   -3.566282e+000 -1.800000e+002 -1.883030e+002
    endloop
  endfacet
  facet normal -0.000000e+000 -1.000000e+000 0.000000e+000
    outer loop
      vertex   1.632740e+001 -1.800000e+002 -1.658477e+002
      vertex   3.613188e+000 -1.800000e+002 -1.591748e+002
      vertex   -3.566282e+000 -1.800000e+002 -1.883030e+002
    endloop
  endfacet
  facet normal -0.000000e+000 -1.000000e+000 0.000000e+000
    outer loop
      vertex   3.613188e+000 -1.800000e+002 -1.591748e+002
      vertex   -1.074575e+001 -1.800000e+002 -1.591748e+002
      vertex   -3.566282e+000 -1.800000e+002 -1.883030e+002
    endloop
  endfacet
  facet normal 0.000000e+000 -1.000000e+000 -0.000000e+000
    outer loop
      vertex   -1.074575e+001 -1.800000e+002 -1.591748e+002
      vertex   -2.345996e+001 -1.800000e+002 -1.658477e+002
      vertex   -3.566282e+000 -1.800000e+002 -1.883030e+002
    endloop
  endfacet
  facet normal 0.000000e+000 -1.000000e+000 -0.000000e+000
    outer loop
      vertex   -2.345996e+001 -1.800000e+002 -1.658477e+002
      vertex   -3.161677e+001 -1.800000e+002 -1.776649e+002
      vertex   -3.566282e+000 -1.800000e+002 -1.883030e+002
    endloop
  endfacet
  facet normal 0.000000e+000 -1.000000e+000 -0.000000e+000
    outer loop
      vertex   -3.161677e+001 -1.800000e+002 -1.776649e+002
      vertex   -3.356628e+001 -1.800000e+002 -1.883030e+002
      vertex   -3.566282e+000 -1.800000e+002 -1.883030e+002
    endloop
  endfacet
  facet normal 0.000000e+000 -1.000000e+000 0.000000e+000
    outer loop
      vertex   -3.356628e+001 -1.800000e+002 -1.883030e+002
      vertex   -3.334755e+001 -1.800000e+002 -1.919191e+002
      vertex   -3.566282e+000 -1.800000e+002 -1.883030e+002
    endloop
  endfacet
  facet normal -2.393157e-001 -0.000000e+000 -9.709418e-001
    outer loop
      vertex   -3.566282e+000 -5.551115e-014 -2.183030e+002
      vertex   -3.566282e+000 -1.800000e+002 -2.183030e+002
      vertex   -1.750798e+001 -1.800000e+002 -2.148667e+002
    endloop
  endfacet
  facet normal -6.631227e-001 -0.000000e+000 -7.485107e-001
    outer loop
      vertex   -1.750798e+001 -5.551115e-014 -2.148667e+002
      vertex   -1.750798e+001 -1.800000e+002 -2.148667e+002
      vertex   -2.825580e+001 -1.800000e+002 -2.053450e+002
    endloop
  endfacet
  facet normal -9.350162e-001 -0.000000e+000 -3.546049e-001
    outer loop
      vertex   -2.825580e+001 -5.551115e-014 -2.053450e+002
      vertex   -2.825580e+001 -1.800000e+002 -2.053450e+002
      vertex   -3.334755e+001 -1.800000e+002 -1.919191e+002
    endloop
  endfacet
  facet normal -9.836199e-001 0.000000e+000 1.802550e-001
    outer loop
      vertex   -3.161677e+001 -5.551115e-014 -1.776649e+002
      vertex   -3.356628e+001 -5.551115e-014 -1.883030e+002
      vertex   -3.356628e+001 -1.800000e+002 -1.883030e+002
    endloop
  endfacet
  facet normal -9.981756e-001 0.000000e+000 -6.037850e-002
    outer loop
      vertex   -3.334755e+001 -1.800000e+002 -1.919191e+002
      vertex   -3.356628e+001 -1.800000e+002 -1.883030e+002
      vertex   -3.356628e+001 -5.551115e-014 -1.883030e+002
    endloop
  endfacet
  facet normal -9.981756e-001 0.000000e+000 -6.037850e-002
    outer loop
      vertex   -3.356628e+001 -5.551115e-014 -1.883030e+002
      vertex   -3.334755e+001 -5.551115e-014 -1.919191e+002
      vertex   -3.334755e+001 -1.800000e+002 -1.919191e+002
    endloop
  endfacet
  facet normal -8.229839e-001 0.000000e+000 5.680647e-001
    outer loop
      vertex   -3.161677e+001 -5.551115e-014 -1.776649e+002
      vertex   -3.161677e+001 -1.800000e+002 -1.776649e+002
      vertex   -2.345996e+001 -1.800000e+002 -1.658477e+002
    endloop
  endfacet
  facet normal -4.647232e-001 0.000000e+000 8.854560e-001
    outer loop
      vertex   -2.345996e+001 -5.551115e-014 -1.658477e+002
      vertex   -2.345996e+001 -1.800000e+002 -1.658477e+002
      vertex   -1.074575e+001 -1.800000e+002 -1.591748e+002
    endloop
  endfacet
  facet normal 0.000000e+000 0.000000e+000 1.000000e+000
    outer loop
      vertex   -1.074575e+001 -5.551115e-014 -1.591748e+002
      vertex   -1.074575e+001 -1.800000e+002 -1.591748e+002
      vertex   3.613188e+000 -1.800000e+002 -1.591748e+002
    endloop
  endfacet
  facet normal 4.647232e-001 0.000000e+000 8.854560e-001
    outer loop
      vertex   3.613188e+000 -5.551115e-014 -1.591748e+002
      vertex   3.613188e+000 -1.800000e+002 -1.591748e+002
      vertex   1.632740e+001 -1.800000e+002 -1.658477e+002
    endloop
  endfacet
  facet normal 8.229839e-001 0.000000e+000 5.680647e-001
    outer loop
      vertex   1.632740e+001 -5.551115e-014 -1.658477e+002
      vertex   1.632740e+001 -1.800000e+002 -1.658477e+002
      vertex   2.448420e+001 -1.800000e+002 -1.776649e+002
    endloop
  endfacet
  facet normal 9.927089e-001 0.000000e+000 1.205367e-001
    outer loop
      vertex   2.448420e+001 -5.551115e-014 -1.776649e+002
      vertex   2.448420e+001 -1.800000e+002 -1.776649e+002
      vertex   2.621498e+001 -1.800000e+002 -1.919191e+002
    endloop
  endfacet
  facet normal 9.350162e-001 0.000000e+000 -3.546049e-001
    outer loop
      vertex   2.621498e+001 -5.551115e-014 -1.919191e+002
      vertex   2.621498e+001 -1.800000e+002 -1.919191e+002
      vertex   2.112323e+001 -1.800000e+002 -2.053450e+002
    endloop
  endfacet
  facet normal 6.631227e-001 0.000000e+000 -7.485107e-001
    outer loop
      vertex   2.112323e+001 -5.551115e-014 -2.053450e+002
      vertex   2.112323e+001 -1.800000e+002 -2.053450e+002
      vertex   1.037541e+001 -1.800000e+002 -2.148667e+002
    endloop
  endfacet
  facet normal 2.393157e-001 0.000000e+000 -9.709418e-001
    outer loop
      vertex   1.037541e+001 -5.551115e-014 -2.148667e+002
      vertex   1.037541e+001 -1.800000e+002 -2.148667e+002
      vertex   -3.566282e+000 -1.800000e+002 -2.183030e+002
    endloop
  endfacet
  facet normal 2.393157e-001 0.000000e+000 -9.709418e-001
    outer loop
      vertex   -3.566282e+000 -1.800000e+002 -2.183030e+002
      vertex   -3.566282e+000 -5.551115e-014 -2.183030e+002
      vertex   1.037541e+001 -5.551115e-014 -2.148667e+002
    endloop
  endfacet
  facet normal 6.631227e-001 0.000000e+000 -7.485107e-001
    outer loop
      vertex   1.037541e+001 -1.800000e+002 -2.148667e+002
      vertex   1.037541e+001 -5.551115e-014 -2.148667e+002
      vertex   2.112323e+001 -5.551115e-014 -2.053450e+002
    endloop
  endfacet
  facet normal 9.350162e-001 0.000000e+000 -3.546049e-001
    outer loop
      vertex   2.112323e+001 -1.800000e+002 -2.053450e+002
      vertex   2.112323e+001 -5.551115e-014 -2.053450e+002
      vertex   2.621498e+001 -5.551115e-014 -1.919191e+002
    endloop
  endfacet
  facet normal 9.927089e-001 -0.000000e+000 1.205367e-001
    outer loop
      vertex   2.621498e+001 -1.800000e+002 -1.919191e+002
      vertex   2.621498e+001 -5.551115e-014 -1.919191e+002
      vertex   2.448420e+001 -5.551115e-014 -1.776649e+002
    endloop
  endfacet
  facet normal 8.229839e-001 -0.000000e+000 5.680647e-001
    outer loop
      vertex   2.448420e+001 -1.800000e+002 -1.776649e+002
      vertex   2.448420e+001 -5.551115e-014 -1.776649e+002
      vertex   1.632740e+001 -5.551115e-014 -1.658477e+002
    endloop
  endfacet
  facet normal 4.647232e-001 -0.000000e+000 8.854560e-001
    outer loop
      vertex   1.632740e+001 -1.800000e+002 -1.658477e+002
      vertex   1.632740e+001 -5.551115e-014 -1.658477e+002
      vertex   3.613188e+000 -5.551115e-014 -1.591748e+002
    endloop
  endfacet
  facet normal 0.000000e+000 -0.000000e+000 1.000000e+000
    outer loop
      vertex   3.613188e+000 -1.800000e+002 -1.591748e+002
      vertex   3.613188e+000 -5.551115e-014 -1.591748e+002
      vertex   -1.074575e+001 -5.551115e-014 -1.591748e+002
    endloop
  endfacet
  facet normal -4.647232e-001 0.000000e+000 8.854560e-001
    outer loop
      vertex   -1.074575e+001 -1.800000e+002 -1.591748e+002
      vertex   -1.074575e+001 -5.551115e-014 -1.591748e+002
      vertex   -2.345996e+001 -5.551115e-014 -1.658477e+002
    endloop
  endfacet
  facet normal -8.229839e-001 0.000000e+000 5.680647e-001
    outer loop
      vertex   -2.345996e+001 -1.800000e+002 -1.658477e+002
      vertex   -2.345996e+001 -5.551115e-014 -1.658477e+002
      vertex   -3.161677e+001 -5.551115e-014 -1.776649e+002
    endloop
  endfacet
  facet normal -9.836199e-001 0.000000e+000 1.802550e-001
    outer loop
      vertex   -3.356628e+001 -1.800000e+002 -1.883030e+002
      vertex   -3.161677e+001 -1.800000e+002 -1.776649e+002
      vertex   -3.161677e+001 -5.551115e-014 -1.776649e+002
    endloop
  endfacet
  facet normal -9.350162e-001 0.000000e+000 -3.546049e-001
    outer loop
      vertex   -3.334755e+001 -1.800000e+002 -1.919191e+002
      vertex   -3.334755e+001 -5.551115e-014 -1.919191e+002
      vertex   -2.825580e+001 -5.551115e-014 -2.053450e+002
    endloop
  endfacet
  facet normal -6.631227e-001 0.000000e+000 -7.485107e-001
    outer loop
      vertex   -2.825580e+001 -1.800000e+002 -2.053450e+002
      vertex   -2.825580e+001 -5.551115e-014 -2.053450e+002
      vertex   -1.750798e+001 -5.551115e-014 -2.148667e+002
    endloop
  endfacet
  facet normal -2.393157e-001 0.000000e+000 -9.709418e-001
    outer loop
      vertex   -1.750798e+001 -1.800000e+002 -2.148667e+002
      vertex   -1.750798e+001 -5.551115e-014 -2.148667e+002
      vertex   -3.566282e+000 -5.551115e-014 -2.183030e+002
    endloop
  endfacet
  facet normal -1.568401e-015 1.000000e+000 1.082589e-015
    outer loop
      vertex   -3.566282e+000 0.000000e+000 -1.883030e+002
      vertex   -3.161677e+001 -5.551115e-014 -1.776649e+002
      vertex   -2.345996e+001 -5.551115e-014 -1.658477e+002
    endloop
  endfacet
  facet normal -8.856459e-016 1.000000e+000 1.687457e-015
    outer loop
      vertex   -2.345996e+001 -5.551115e-014 -1.658477e+002
      vertex   -1.074575e+001 -5.551115e-014 -1.591748e+002
      vertex   -3.566282e+000 0.000000e+000 -1.883030e+002
    endloop
  endfacet
  facet normal -0.000000e+000 1.000000e+000 1.905749e-015
    outer loop
      vertex   -1.074575e+001 -5.551115e-014 -1.591748e+002
      vertex   3.613188e+000 -5.551115e-014 -1.591748e+002
      vertex   -3.566282e+000 0.000000e+000 -1.883030e+002
    endloop
  endfacet
  facet normal 8.856459e-016 1.000000e+000 1.687457e-015
    outer loop
      vertex   3.613188e+000 -5.551115e-014 -1.591748e+002
      vertex   1.632740e+001 -5.551115e-014 -1.658477e+002
      vertex   -3.566282e+000 0.000000e+000 -1.883030e+002
    endloop
  endfacet
  facet normal 1.568401e-015 1.000000e+000 1.082589e-015
    outer loop
      vertex   1.632740e+001 -5.551115e-014 -1.658477e+002
      vertex   2.448420e+001 -5.551115e-014 -1.776649e+002
      vertex   -3.566282e+000 0.000000e+000 -1.883030e+002
    endloop
  endfacet
  facet normal 1.891854e-015 1.000000e+000 2.297127e-016
    outer loop
      vertex   2.448420e+001 -5.551115e-014 -1.776649e+002
      vertex   2.621498e+001 -5.551115e-014 -1.919191e+002
      vertex   -3.566282e+000 0.000000e+000 -1.883030e+002
    endloop
  endfacet
  facet normal 1.781907e-015 1.000000e+000 -6.757880e-016
    outer loop
      vertex   2.621498e+001 -5.551115e-014 -1.919191e+002
      vertex   2.112323e+001 -5.551115e-014 -2.053450e+002
      vertex   -3.566282e+000 0.000000e+000 -1.883030e+002
    endloop
  endfacet
  facet normal 1.263746e-015 1.000000e+000 -1.426474e-015
    outer loop
      vertex   2.112323e+001 -5.551115e-014 -2.053450e+002
      vertex   1.037541e+001 -5.551115e-014 -2.148667e+002
      vertex   -3.566282e+000 0.000000e+000 -1.883030e+002
    endloop
  endfacet
  facet normal 4.560757e-016 1.000000e+000 -1.850372e-015
    outer loop
      vertex   1.037541e+001 -5.551115e-014 -2.148667e+002
      vertex   -3.566282e+000 -5.551115e-014 -2.183030e+002
      vertex   -3.566282e+000 0.000000e+000 -1.883030e+002
    endloop
  endfacet
  facet normal -4.560757e-016 1.000000e+000 -1.850372e-015
    outer loop
      vertex   -3.566282e+000 -5.551115e-014 -2.183030e+002
      vertex   -1.750798e+001 -5.551115e-014 -2.148667e+002
      vertex   -3.566282e+000 0.000000e+000 -1.883030e+002
    endloop
  endfacet
  facet normal -1.263746e-015 1.000000e+000 -1.426474e-015
    outer loop
      vertex   -1.750798e+001 -5.551115e-014 -2.148667e+002
      vertex   -2.825580e+001 -5.551115e-014 -2.053450e+002
      vertex   -3.566282e+000 0.000000e+000 -1.883030e+002
    endloop
  endfacet
  facet normal -1.781907e-015 1.000000e+000 -6.757880e-016
    outer loop
      vertex   -2.825580e+001 -5.551115e-014 -2.053450e+002
      vertex   -3.334755e+001 -5.551115e-014 -1.919191e+002
      vertex   -3.566282e+000 0.000000e+000 -1.883030e+002
    endloop
  endfacet
  facet normal -1.850372e-015 1.000000e+000 -1.119269e-016
    outer loop
      vertex   -3.334755e+001 -5.551115e-014 -1.919191e+002
      vertex   -3.356628e+001 -5.551115e-014 -1.883030e+002
      vertex   -3.566282e+000 0.000000e+000 -1.883030e+002
    endloop
  endfacet
  facet normal -1.850372e-015 1.000000e+000 3.390932e-016
    outer loop
      vertex   -3.356628e+001 -5.551115e-014 -1.883030e+002
      vertex   -3.161677e+001 -5.551115e-014 -1.776649e+002
      vertex   -3.566282e+000 0.000000e+000 -1.883030e+002
    endloop
  endfacet
  facet normal 0.000000e+000 -1.000000e+000 0.000000e+000
    outer loop
      vertex   -1.886597e+002 -1.800000e+002 3.566282e-001
      vertex   -1.922758e+002 -1.800000e+002 3.013789e+001
      vertex   -2.057016e+002 -1.800000e+002 2.504614e+001
    endloop
  endfacet
  facet normal 0.000000e+000 -1.000000e+000 -0.000000e+000
    outer loop
      vertex   -2.057016e+002 -1.800000e+002 2.504614e+001
      vertex   -2.152233e+002 -1.800000e+002 1.429832e+001
      vertex   -1.886597e+002 -1.800000e+002 3.566282e-001
    endloop
  endfacet
  facet normal 0.000000e+000 -1.000000e+000 -0.000000e+000
    outer loop
      vertex   -2.152233e+002 -1.800000e+002 1.429832e+001
      vertex   -2.186597e+002 -1.800000e+002 3.566282e-001
      vertex   -1.886597e+002 -1.800000e+002 3.566282e-001
    endloop
  endfacet
  facet normal 0.000000e+000 -1.000000e+000 0.000000e+000
    outer loop
      vertex   -2.186597e+002 -1.800000e+002 3.566282e-001
      vertex   -2.152233e+002 -1.800000e+002 -1.358507e+001
      vertex   -1.886597e+002 -1.800000e+002 3.566282e-001
    endloop
  endfacet
  facet normal 0.000000e+000 -1.000000e+000 0.000000e+000
    outer loop
      vertex   -2.152233e+002 -1.800000e+002 -1.358507e+001
      vertex   -2.057016e+002 -1.800000e+002 -2.433289e+001
      vertex   -1.886597e+002 -1.800000e+002 3.566282e-001
    endloop
  endfacet
  facet normal 0.000000e+000 -1.000000e+000 0.000000e+000
    outer loop
      vertex   -2.057016e+002 -1.800000e+002 -2.433289e+001
      vertex   -1.922758e+002 -1.800000e+002 -2.942464e+001
      vertex   -1.886597e+002 -1.800000e+002 3.566282e-001
    endloop
  endfacet
  facet normal 0.000000e+000 -1.000000e+000 0.000000e+000
    outer loop
      vertex   -1.922758e+002 -1.800000e+002 -2.942464e+001
      vertex   -1.780215e+002 -1.800000e+002 -2.769386e+001
      vertex   -1.886597e+002 -1.800000e+002 3.566282e-001
    endloop
  endfacet
  facet normal 0.000000e+000 -1.000000e+000 0.000000e+000
    outer loop
      vertex   -1.780215e+002 -1.800000e+002 -2.769386e+001
      vertex   -1.662043e+002 -1.800000e+002 -1.953705e+001
      vertex   -1.886597e+002 -1.800000e+002 3.566282e-001
    endloop
  endfacet
  facet normal 0.000000e+000 -1.000000e+000 0.000000e+000
    outer loop
      vertex   -1.662043e+002 -1.800000e+002 -1.953705e+001
      vertex   -1.595314e+002 -1.800000e+002 -6.822842e+000
      vertex   -1.886597e+002 -1.800000e+002 3.566282e-001
    endloop
  endfacet
  facet normal 0.000000e+000 -1.000000e+000 0.000000e+000
    outer loop
      vertex   -1.595314e+002 -1.800000e+002 -6.822842e+000
      vertex   -1.595314e+002 -1.800000e+002 7.536098e+000
      vertex   -1.886597e+002 -1.800000e+002 3.566282e-001
    endloop
  endfacet
  facet normal -0.000000e+000 -1.000000e+000 0.000000e+000
    outer loop
      vertex   -1.595314e+002 -1.800000e+002 7.536098e+000
      vertex   -1.662043e+002 -1.800000e+002 2.025031e+001
      vertex   -1.886597e+002 -1.800000e+002 3.566282e-001
    endloop
  endfacet
  facet normal -0.000000e+000 -1.000000e+000 0.000000e+000
    outer loop
      vertex   -1.662043e+002 -1.800000e+002 2.025031e+001
      vertex   -1.780215e+002 -1.800000e+002 2.840712e+001
      vertex   -1.886597e+002 -1.800000e+002 3.566282e-001
    endloop
  endfacet
  facet normal -0.000000e+000 -1.000000e+000 0.000000e+000
    outer loop
      vertex   -1.780215e+002 -1.800000e+002 2.840712e+001
      vertex   -1.886597e+002 -1.800000e+002 3.035663e+001
      vertex   -1.886597e+002 -1.800000e+002 3.566282e-001
    endloop
  endfacet
  facet normal 0.000000e+000 -1.000000e+000 -0.000000e+000
    outer loop
      vertex   -1.886597e+002 -1.800000e+002 3.035663e+001
      vertex   -1.922758e+002 -1.800000e+002 3.013789e+001
      vertex   -1.886597e+002 -1.800000e+002 3.566282e-001
    endloop
  endfacet
  facet normal -9.709418e-001 0.000000e+000 2.393157e-001
    outer loop
      vertex   -2.186597e+002 -5.551115e-014 3.566282e-001
      vertex   -2.186597e+002 -1.800000e+002 3.566282e-001
      vertex   -2.152233e+002 -1.800000e+002 1.429832e+001
    endloop
  endfacet
  facet normal -7.485107e-001 0.000000e+000 6.631227e-001
    outer loop
      vertex   -2.152233e+002 -5.551115e-014 1.429832e+001
      vertex   -2.152233e+002 -1.800000e+002 1.429832e+001
      vertex   -2.057016e+002 -1.800000e+002 2.504614e+001
    endloop
  endfacet
  facet normal -3.546049e-001 0.000000e+000 9.350162e-001
    outer loop
      vertex   -2.057016e+002 -5.551115e-014 2.504614e+001
      vertex   -2.057016e+002 -1.800000e+002 2.504614e+001
      vertex   -1.922758e+002 -1.800000e+002 3.013789e+001
    endloop
  endfacet
  facet normal 1.802550e-001 0.000000e+000 9.836199e-001
    outer loop
      vertex   -1.780215e+002 -5.551115e-014 2.840712e+001
      vertex   -1.886597e+002 -5.551115e-014 3.035663e+001
      vertex   -1.886597e+002 -1.800000e+002 3.035663e+001
    endloop
  endfacet
  facet normal -6.037850e-002 0.000000e+000 9.981756e-001
    outer loop
      vertex   -1.922758e+002 -1.800000e+002 3.013789e+001
      vertex   -1.886597e+002 -1.800000e+002 3.035663e+001
      vertex   -1.886597e+002 -5.551115e-014 3.035663e+001
    endloop
  endfacet
  facet normal -6.037850e-002 0.000000e+000 9.981756e-001
    outer loop
      vertex   -1.886597e+002 -5.551115e-014 3.035663e+001
      vertex   -1.922758e+002 -5.551115e-014 3.013789e+001
      vertex   -1.922758e+002 -1.800000e+002 3.013789e+001
    endloop
  endfacet
  facet normal 5.680647e-001 0.000000e+000 8.229839e-001
    outer loop
      vertex   -1.780215e+002 -5.551115e-014 2.840712e+001
      vertex   -1.780215e+002 -1.800000e+002 2.840712e+001
      vertex   -1.662043e+002 -1.800000e+002 2.025031e+001
    endloop
  endfacet
  facet normal 8.854560e-001 0.000000e+000 4.647232e-001
    outer loop
      vertex   -1.662043e+002 -5.551115e-014 2.025031e+001
      vertex   -1.662043e+002 -1.800000e+002 2.025031e+001
      vertex   -1.595314e+002 -1.800000e+002 7.536098e+000
    endloop
  endfacet
  facet normal 1.000000e+000 0.000000e+000 0.000000e+000
    outer loop
      vertex   -1.595314e+002 -5.551115e-014 7.536098e+000
      vertex   -1.595314e+002 -1.800000e+002 7.536098e+000
      vertex   -1.595314e+002 -1.800000e+002 -6.822842e+000
    endloop
  endfacet
  facet normal 8.854560e-001 0.000000e+000 -4.647232e-001
    outer loop
      vertex   -1.595314e+002 -5.551115e-014 -6.822842e+000
      vertex   -1.595314e+002 -1.800000e+002 -6.822842e+000
      vertex   -1.662043e+002 -1.800000e+002 -1.953705e+001
    endloop
  endfacet
  facet normal 5.680647e-001 0.000000e+000 -8.229839e-001
    outer loop
      vertex   -1.662043e+002 -5.551115e-014 -1.953705e+001
      vertex   -1.662043e+002 -1.800000e+002 -1.953705e+001
      vertex   -1.780215e+002 -1.800000e+002 -2.769386e+001
    endloop
  endfacet
  facet normal 1.205367e-001 0.000000e+000 -9.927089e-001
    outer loop
      vertex   -1.780215e+002 -5.551115e-014 -2.769386e+001
      vertex   -1.780215e+002 -1.800000e+002 -2.769386e+001
      vertex   -1.922758e+002 -1.800000e+002 -2.942464e+001
    endloop
  endfacet
  facet normal -3.546049e-001 -0.000000e+000 -9.350162e-001
    outer loop
      vertex   -1.922758e+002 -5.551115e-014 -2.942464e+001
      vertex   -1.922758e+002 -1.800000e+002 -2.942464e+001
      vertex   -2.057016e+002 -1.800000e+002 -2.433289e+001
    endloop
  endfacet
  facet normal -7.485107e-001 -0.000000e+000 -6.631227e-001
    outer loop
      vertex   -2.057016e+002 -5.551115e-014 -2.433289e+001
      vertex   -2.057016e+002 -1.800000e+002 -2.433289e+001
      vertex   -2.152233e+002 -1.800000e+002 -1.358507e+001
    endloop
  endfacet
  facet normal -9.709418e-001 -0.000000e+000 -2.393157e-001
    outer loop
      vertex   -2.152233e+002 -5.551115e-014 -1.358507e+001
      vertex   -2.152233e+002 -1.800000e+002 -1.358507e+001
      vertex   -2.186597e+002 -1.800000e+002 3.566282e-001
    endloop
  endfacet
  facet normal -9.709418e-001 0.000000e+000 -2.393157e-001
    outer loop
      vertex   -2.186597e+002 -1.800000e+002 3.566282e-001
      vertex   -2.186597e+002 -5.551115e-014 3.566282e-001
      vertex   -2.152233e+002 -5.551115e-014 -1.358507e+001
    endloop
  endfacet
  facet normal -7.485107e-001 0.000000e+000 -6.631227e-001
    outer loop
      vertex   -2.152233e+002 -1.800000e+002 -1.358507e+001
      vertex   -2.152233e+002 -5.551115e-014 -1.358507e+001
      vertex   -2.057016e+002 -5.551115e-014 -2.433289e+001
    endloop
  endfacet
  facet normal -3.546049e-001 0.000000e+000 -9.350162e-001
    outer loop
      vertex   -2.057016e+002 -1.800000e+002 -2.433289e+001
      vertex   -2.057016e+002 -5.551115e-014 -2.433289e+001
      vertex   -1.922758e+002 -5.551115e-014 -2.942464e+001
    endloop
  endfacet
  facet normal 1.205367e-001 0.000000e+000 -9.927089e-001
    outer loop
      vertex   -1.922758e+002 -1.800000e+002 -2.942464e+001
      vertex   -1.922758e+002 -5.551115e-014 -2.942464e+001
      vertex   -1.780215e+002 -5.551115e-014 -2.769386e+001
    endloop
  endfacet
  facet normal 5.680647e-001 0.000000e+000 -8.229839e-001
    outer loop
      vertex   -1.780215e+002 -1.800000e+002 -2.769386e+001
      vertex   -1.780215e+002 -5.551115e-014 -2.769386e+001
      vertex   -1.662043e+002 -5.551115e-014 -1.953705e+001
    endloop
  endfacet
  facet normal 8.854560e-001 0.000000e+000 -4.647232e-001
    outer loop
      vertex   -1.662043e+002 -1.800000e+002 -1.953705e+001
      vertex   -1.662043e+002 -5.551115e-014 -1.953705e+001
      vertex   -1.595314e+002 -5.551115e-014 -6.822842e+000
    endloop
  endfacet
  facet normal 1.000000e+000 0.000000e+000 0.000000e+000
    outer loop
      vertex   -1.595314e+002 -1.800000e+002 -6.822842e+000
      vertex   -1.595314e+002 -5.551115e-014 -6.822842e+000
      vertex   -1.595314e+002 -5.551115e-014 7.536098e+000
    endloop
  endfacet
  facet normal 8.854560e-001 -0.000000e+000 4.647232e-001
    outer loop
      vertex   -1.595314e+002 -1.800000e+002 7.536098e+000
      vertex   -1.595314e+002 -5.551115e-014 7.536098e+000
      vertex   -1.662043e+002 -5.551115e-014 2.025031e+001
    endloop
  endfacet
  facet normal 5.680647e-001 -0.000000e+000 8.229839e-001
    outer loop
      vertex   -1.662043e+002 -1.800000e+002 2.025031e+001
      vertex   -1.662043e+002 -5.551115e-014 2.025031e+001
      vertex   -1.780215e+002 -5.551115e-014 2.840712e+001
    endloop
  endfacet
  facet normal 1.802550e-001 0.000000e+000 9.836199e-001
    outer loop
      vertex   -1.886597e+002 -1.800000e+002 3.035663e+001
      vertex   -1.780215e+002 -1.800000e+002 2.840712e+001
      vertex   -1.780215e+002 -5.551115e-014 2.840712e+001
    endloop
  endfacet
  facet normal -3.546049e-001 0.000000e+000 9.350162e-001
    outer loop
      vertex   -1.922758e+002 -1.800000e+002 3.013789e+001
      vertex   -1.922758e+002 -5.551115e-014 3.013789e+001
      vertex   -2.057016e+002 -5.551115e-014 2.504614e+001
    endloop
  endfacet
  facet normal -7.485107e-001 0.000000e+000 6.631227e-001
    outer loop
      vertex   -2.057016e+002 -1.800000e+002 2.504614e+001
      vertex   -2.057016e+002 -5.551115e-014 2.504614e+001
      vertex   -2.152233e+002 -5.551115e-014 1.429832e+001
    endloop
  endfacet
  facet normal -9.709418e-001 0.000000e+000 2.393157e-001
    outer loop
      vertex   -2.152233e+002 -1.800000e+002 1.429832e+001
      vertex   -2.152233e+002 -5.551115e-014 1.429832e+001
      vertex   -2.186597e+002 -5.551115e-014 3.566282e-001
    endloop
  endfacet
  facet normal 1.082589e-015 1.000000e+000 1.568401e-015
    outer loop
      vertex   -1.886597e+002 0.000000e+000 3.566282e-001
      vertex   -1.780215e+002 -5.551115e-014 2.840712e+001
      vertex   -1.662043e+002 -5.551115e-014 2.025031e+001
    endloop
  endfacet
  facet normal 1.687457e-015 1.000000e+000 8.856459e-016
    outer loop
      vertex   -1.662043e+002 -5.551115e-014 2.025031e+001
      vertex   -1.595314e+002 -5.551115e-014 7.536098e+000
      vertex   -1.886597e+002 0.000000e+000 3.566282e-001
    endloop
  endfacet
  facet normal 1.905749e-015 1.000000e+000 0.000000e+000
    outer loop
      vertex   -1.595314e+002 -5.551115e-014 7.536098e+000
      vertex   -1.595314e+002 -5.551115e-014 -6.822842e+000
      vertex   -1.886597e+002 0.000000e+000 3.566282e-001
    endloop
  endfacet
  facet normal 1.687457e-015 1.000000e+000 -8.856459e-016
    outer loop
      vertex   -1.595314e+002 -5.551115e-014 -6.822842e+000
      vertex   -1.662043e+002 -5.551115e-014 -1.953705e+001
      vertex   -1.886597e+002 0.000000e+000 3.566282e-001
    endloop
  endfacet
  facet normal 1.082589e-015 1.000000e+000 -1.568401e-015
    outer loop
      vertex   -1.662043e+002 -5.551115e-014 -1.953705e+001
      vertex   -1.780215e+002 -5.551115e-014 -2.769386e+001
      vertex   -1.886597e+002 0.000000e+000 3.566282e-001
    endloop
  endfacet
  facet normal 2.297127e-016 1.000000e+000 -1.891854e-015
    outer loop
      vertex   -1.780215e+002 -5.551115e-014 -2.769386e+001
      vertex   -1.922758e+002 -5.551115e-014 -2.942464e+001
      vertex   -1.886597e+002 0.000000e+000 3.566282e-001
    endloop
  endfacet
  facet normal -6.757880e-016 1.000000e+000 -1.781907e-015
    outer loop
      vertex   -1.922758e+002 -5.551115e-014 -2.942464e+001
      vertex   -2.057016e+002 -5.551115e-014 -2.433289e+001
      vertex   -1.886597e+002 0.000000e+000 3.566282e-001
    endloop
  endfacet
  facet normal -1.426474e-015 1.000000e+000 -1.263746e-015
    outer loop
      vertex   -2.057016e+002 -5.551115e-014 -2.433289e+001
      vertex   -2.152233e+002 -5.551115e-014 -1.358507e+001
      vertex   -1.886597e+002 0.000000e+000 3.566282e-001
    endloop
  endfacet
  facet normal -1.850372e-015 1.000000e+000 -4.560757e-016
    outer loop
      vertex   -2.152233e+002 -5.551115e-014 -1.358507e+001
      vertex   -2.186597e+002 -5.551115e-014 3.566282e-001
      vertex   -1.886597e+002 0.000000e+000 3.566282e-001
    endloop
  endfacet
  facet normal -1.850372e-015 1.000000e+000 4.560757e-016
    outer loop
      vertex   -2.186597e+002 -5.551115e-014 3.566282e-001
      vertex   -2.152233e+002 -5.551115e-014 1.429832e+001
      vertex   -1.886597e+002 0.000000e+000 3.566282e-001
    endloop
  endfacet
  facet normal -1.426474e-015 1.000000e+000 1.263746e-015
    outer loop
      vertex   -2.152233e+002 -5.551115e-014 1.429832e+001
      vertex   -2.057016e+002 -5.551115e-014 2.504614e+001
      vertex   -1.886597e+002 0.000000e+000 3.566282e-001
    endloop
  endfacet
  facet normal -6.757880e-016 1.000000e+000 1.781907e-015
    outer loop
      vertex   -2.057016e+002 -5.551115e-014 2.504614e+001
      vertex   -1.922758e+002 -5.551115e-014 3.013789e+001
      vertex   -1.886597e+002 0.000000e+000 3.566282e-001
    endloop
  endfacet
  facet normal -1.119269e-016 1.000000e+000 1.850372e-015
    outer loop
      vertex   -1.922758e+002 -5.551115e-014 3.013789e+001
      vertex   -1.886597e+002 -5.551115e-014 3.035663e+001
      vertex   -1.886597e+002 0.000000e+000 3.566282e-001
    endloop
  endfacet
  facet normal 3.390932e-016 1.000000e+000 1.850372e-015
    outer loop
      vertex   -1.886597e+002 -5.551115e-014 3.035663e+001
      vertex   -1.780215e+002 -5.551115e-014 2.840712e+001
      vertex   -1.886597e+002 0.000000e+000 3.566282e-001
    endloop
  endfacet
  facet normal 0.000000e+000 -1.000000e+000 0.000000e+000
    outer loop
      vertex   0.000000e+000 -1.800000e+002 1.854500e+002
      vertex   2.978127e+001 -1.800000e+002 1.890661e+002
      vertex   2.468952e+001 -1.800000e+002 2.024919e+002
    endloop
  endfacet
  facet normal -0.000000e+000 -1.000000e+000 0.000000e+000
    outer loop
      vertex   2.468952e+001 -1.800000e+002 2.024919e+002
      vertex   1.394170e+001 -1.800000e+002 2.120137e+002
      vertex   0.000000e+000 -1.800000e+002 1.854500e+002
    endloop
  endfacet
  facet normal -0.000000e+000 -1.000000e+000 0.000000e+000
    outer loop
      vertex   1.394170e+001 -1.800000e+002 2.120137e+002
      vertex   -7.347881e-015 -1.800000e+002 2.154500e+002
      vertex   0.000000e+000 -1.800000e+002 1.854500e+002
    endloop
  endfacet
  facet normal 0.000000e+000 -1.000000e+000 -0.000000e+000
    outer loop
      vertex   -7.347881e-015 -1.800000e+002 2.154500e+002
      vertex   -1.394170e+001 -1.800000e+002 2.120137e+002
      vertex   0.000000e+000 -1.800000e+002 1.854500e+002
    endloop
  endfacet
  facet normal 0.000000e+000 -1.000000e+000 -0.000000e+000
    outer loop
      vertex   -1.394170e+001 -1.800000e+002 2.120137e+002
      vertex   -2.468952e+001 -1.800000e+002 2.024919e+002
      vertex   0.000000e+000 -1.800000e+002 1.854500e+002
    endloop
  endfacet
  facet normal 0.000000e+000 -1.000000e+000 -0.000000e+000
    outer loop
      vertex   -2.468952e+001 -1.800000e+002 2.024919e+002
      vertex   -2.978127e+001 -1.800000e+002 1.890661e+002
      vertex   0.000000e+000 -1.800000e+002 1.854500e+002
    endloop
  endfacet
  facet normal 0.000000e+000 -1.000000e+000 0.000000e+000
    outer loop
      vertex   -2.978127e+001 -1.800000e+002 1.890661e+002
      vertex   -2.805049e+001 -1.800000e+002 1.748119e+002
      vertex   0.000000e+000 -1.800000e+002 1.854500e+002
    endloop
  endfacet
  facet normal 0.000000e+000 -1.000000e+000 0.000000e+000
    outer loop
      vertex   -2.805049e+001 -1.800000e+002 1.748119e+002
      vertex   -1.989368e+001 -1.800000e+002 1.629947e+002
      vertex   0.000000e+000 -1.800000e+002 1.854500e+002
    endloop
  endfacet
  facet normal 0.000000e+000 -1.000000e+000 0.000000e+000
    outer loop
      vertex   -1.989368e+001 -1.800000e+002 1.629947e+002
      vertex   -7.179470e+000 -1.800000e+002 1.563217e+002
      vertex   0.000000e+000 -1.800000e+002 1.854500e+002
    endloop
  endfacet
  facet normal 0.000000e+000 -1.000000e+000 0.000000e+000
    outer loop
      vertex   -7.179470e+000 -1.800000e+002 1.563217e+002
      vertex   7.179470e+000 -1.800000e+002 1.563217e+002
      vertex   0.000000e+000 -1.800000e+002 1.854500e+002
    endloop
  endfacet
  facet normal 0.000000e+000 -1.000000e+000 0.000000e+000
    outer loop
      vertex   7.179470e+000 -1.800000e+002 1.563217e+002
      vertex   1.989368e+001 -1.800000e+002 1.629947e+002
      vertex   0.000000e+000 -1.800000e+002 1.854500e+002
    endloop
  endfacet
  facet normal 0.000000e+000 -1.000000e+000 0.000000e+000
    outer loop
      vertex   1.989368e+001 -1.800000e+002 1.629947e+002
      vertex   2.805049e+001 -1.800000e+002 1.748119e+002
      vertex   0.000000e+000 -1.800000e+002 1.854500e+002
    endloop
  endfacet
  facet normal 0.000000e+000 -1.000000e+000 0.000000e+000
    outer loop
      vertex   2.805049e+001 -1.800000e+002 1.748119e+002
      vertex   3.000000e+001 -1.800000e+002 1.854500e+002
      vertex   0.000000e+000 -1.800000e+002 1.854500e+002
    endloop
  endfacet
  facet normal 0.000000e+000 -1.000000e+000 0.000000e+000
    outer loop
      vertex   3.000000e+001 -1.800000e+002 1.854500e+002
      vertex   2.978127e+001 -1.800000e+002 1.890661e+002
      vertex   0.000000e+000 -1.800000e+002 1.854500e+002
    endloop
  endfacet
  facet normal 2.393157e-001 0.000000e+000 9.709418e-001
    outer loop
      vertex   -7.347881e-015 -5.551115e-014 2.154500e+002
      vertex   -7.347881e-015 -1.800000e+002 2.154500e+002
      vertex   1.394170e+001 -1.800000e+002 2.120137e+002
    endloop
  endfacet
  facet normal 6.631227e-001 0.000000e+000 7.485107e-001
    outer loop
      vertex   1.394170e+001 -5.551115e-014 2.120137e+002
      vertex   1.394170e+001 -1.800000e+002 2.120137e+002
      vertex   2.468952e+001 -1.800000e+002 2.024919e+002
    endloop
  endfacet
  facet normal 9.350162e-001 0.000000e+000 3.546049e-001
    outer loop
      vertex   2.468952e+001 -5.551115e-014 2.024919e+002
      vertex   2.468952e+001 -1.800000e+002 2.024919e+002
      vertex   2.978127e+001 -1.800000e+002 1.890661e+002
    endloop
  endfacet
  facet normal 9.836199e-001 0.000000e+000 -1.802550e-001
    outer loop
      vertex   2.805049e+001 -5.551115e-014 1.748119e+002
      vertex   3.000000e+001 -5.551115e-014 1.854500e+002
      vertex   3.000000e+001 -1.800000e+002 1.854500e+002
    endloop
  endfacet
  facet normal 9.981756e-001 0.000000e+000 6.037850e-002
    outer loop
      vertex   2.978127e+001 -1.800000e+002 1.890661e+002
      vertex   3.000000e+001 -1.800000e+002 1.854500e+002
      vertex   3.000000e+001 -5.551115e-014 1.854500e+002
    endloop
  endfacet
  facet normal 9.981756e-001 0.000000e+000 6.037850e-002
    outer loop
      vertex   3.000000e+001 -5.551115e-014 1.854500e+002
      vertex   2.978127e+001 -5.551115e-014 1.890661e+002
      vertex   2.978127e+001 -1.800000e+002 1.890661e+002
    endloop
  endfacet
  facet normal 8.229839e-001 0.000000e+000 -5.680647e-001
    outer loop
      vertex   2.805049e+001 -5.551115e-014 1.748119e+002
      vertex   2.805049e+001 -1.800000e+002 1.748119e+002
      vertex   1.989368e+001 -1.800000e+002 1.629947e+002
    endloop
  endfacet
  facet normal 4.647232e-001 0.000000e+000 -8.854560e-001
    outer loop
      vertex   1.989368e+001 -5.551115e-014 1.629947e+002
      vertex   1.989368e+001 -1.800000e+002 1.629947e+002
      vertex   7.179470e+000 -1.800000e+002 1.563217e+002
    endloop
  endfacet
  facet normal 0.000000e+000 -0.000000e+000 -1.000000e+000
    outer loop
      vertex   7.179470e+000 -5.551115e-014 1.563217e+002
      vertex   7.179470e+000 -1.800000e+002 1.563217e+002
      vertex   -7.179470e+000 -1.800000e+002 1.563217e+002
    endloop
  endfacet
  facet normal -4.647232e-001 -0.000000e+000 -8.854560e-001
    outer loop
      vertex   -7.179470e+000 -5.551115e-014 1.563217e+002
      vertex   -7.179470e+000 -1.800000e+002 1.563217e+002
      vertex   -1.989368e+001 -1.800000e+002 1.629947e+002
    endloop
  endfacet
  facet normal -8.229839e-001 -0.000000e+000 -5.680647e-001
    outer loop
      vertex   -1.989368e+001 -5.551115e-014 1.629947e+002
      vertex   -1.989368e+001 -1.800000e+002 1.629947e+002
      vertex   -2.805049e+001 -1.800000e+002 1.748119e+002
    endloop
  endfacet
  facet normal -9.927089e-001 -0.000000e+000 -1.205367e-001
    outer loop
      vertex   -2.805049e+001 -5.551115e-014 1.748119e+002
      vertex   -2.805049e+001 -1.800000e+002 1.748119e+002
      vertex   -2.978127e+001 -1.800000e+002 1.890661e+002
    endloop
  endfacet
  facet normal -9.350162e-001 0.000000e+000 3.546049e-001
    outer loop
      vertex   -2.978127e+001 -5.551115e-014 1.890661e+002
      vertex   -2.978127e+001 -1.800000e+002 1.890661e+002
      vertex   -2.468952e+001 -1.800000e+002 2.024919e+002
    endloop
  endfacet
  facet normal -6.631227e-001 0.000000e+000 7.485107e-001
    outer loop
      vertex   -2.468952e+001 -5.551115e-014 2.024919e+002
      vertex   -2.468952e+001 -1.800000e+002 2.024919e+002
      vertex   -1.394170e+001 -1.800000e+002 2.120137e+002
    endloop
  endfacet
  facet normal -2.393157e-001 0.000000e+000 9.709418e-001
    outer loop
      vertex   -1.394170e+001 -5.551115e-014 2.120137e+002
      vertex   -1.394170e+001 -1.800000e+002 2.120137e+002
      vertex   -7.347881e-015 -1.800000e+002 2.154500e+002
    endloop
  endfacet
  facet normal -2.393157e-001 0.000000e+000 9.709418e-001
    outer loop
      vertex   -7.347881e-015 -1.800000e+002 2.154500e+002
      vertex   -7.347881e-015 -5.551115e-014 2.154500e+002
      vertex   -1.394170e+001 -5.551115e-014 2.120137e+002
    endloop
  endfacet
  facet normal -6.631227e-001 0.000000e+000 7.485107e-001
    outer loop
      vertex   -1.394170e+001 -1.800000e+002 2.120137e+002
      vertex   -1.394170e+001 -5.551115e-014 2.120137e+002
      vertex   -2.468952e+001 -5.551115e-014 2.024919e+002
    endloop
  endfacet
  facet normal -9.350162e-001 0.000000e+000 3.546049e-001
    outer loop
      vertex   -2.468952e+001 -1.800000e+002 2.024919e+002
      vertex   -2.468952e+001 -5.551115e-014 2.024919e+002
      vertex   -2.978127e+001 -5.551115e-014 1.890661e+002
    endloop
  endfacet
  facet normal -9.927089e-001 0.000000e+000 -1.205367e-001
    outer loop
      vertex   -2.978127e+001 -1.800000e+002 1.890661e+002
      vertex   -2.978127e+001 -5.551115e-014 1.890661e+002
      vertex   -2.805049e+001 -5.551115e-014 1.748119e+002
    endloop
  endfacet
  facet normal -8.229839e-001 0.000000e+000 -5.680647e-001
    outer loop
      vertex   -2.805049e+001 -1.800000e+002 1.748119e+002
      vertex   -2.805049e+001 -5.551115e-014 1.748119e+002
      vertex   -1.989368e+001 -5.551115e-014 1.629947e+002
    endloop
  endfacet
  facet normal -4.647232e-001 0.000000e+000 -8.854560e-001
    outer loop
      vertex   -1.989368e+001 -1.800000e+002 1.629947e+002
      vertex   -1.989368e+001 -5.551115e-014 1.629947e+002
      vertex   -7.179470e+000 -5.551115e-014 1.563217e+002
    endloop
  endfacet
  facet normal 0.000000e+000 0.000000e+000 -1.000000e+000
    outer loop
      vertex   -7.179470e+000 -1.800000e+002 1.563217e+002
      vertex   -7.179470e+000 -5.551115e-014 1.563217e+002
      vertex   7.179470e+000 -5.551115e-014 1.563217e+002
    endloop
  endfacet
  facet normal 4.647232e-001 0.000000e+000 -8.854560e-001
    outer loop
      vertex   7.179470e+000 -1.800000e+002 1.563217e+002
      vertex   7.179470e+000 -5.551115e-014 1.563217e+002
      vertex   1.989368e+001 -5.551115e-014 1.629947e+002
    endloop
  endfacet
  facet normal 8.229839e-001 0.000000e+000 -5.680647e-001
    outer loop
      vertex   1.989368e+001 -1.800000e+002 1.629947e+002
      vertex   1.989368e+001 -5.551115e-014 1.629947e+002
      vertex   2.805049e+001 -5.551115e-014 1.748119e+002
    endloop
  endfacet
  facet normal 9.836199e-001 0.000000e+000 -1.802550e-001
    outer loop
      vertex   3.000000e+001 -1.800000e+002 1.854500e+002
      vertex   2.805049e+001 -1.800000e+002 1.748119e+002
      vertex   2.805049e+001 -5.551115e-014 1.748119e+002
    endloop
  endfacet
  facet normal 9.350162e-001 -0.000000e+000 3.546049e-001
    outer loop
      vertex   2.978127e+001 -1.800000e+002 1.890661e+002
      vertex   2.978127e+001 -5.551115e-014 1.890661e+002
      vertex   2.468952e+001 -5.551115e-014 2.024919e+002
    endloop
  endfacet
  facet normal 6.631227e-001 -0.000000e+000 7.485107e-001
    outer loop
      vertex   2.468952e+001 -1.800000e+002 2.024919e+002
      vertex   2.468952e+001 -5.551115e-014 2.024919e+002
      vertex   1.394170e+001 -5.551115e-014 2.120137e+002
    endloop
  endfacet
  facet normal 2.393157e-001 -0.000000e+000 9.709418e-001
    outer loop
      vertex   1.394170e+001 -1.800000e+002 2.120137e+002
      vertex   1.394170e+001 -5.551115e-014 2.120137e+002
      vertex   -7.347881e-015 -5.551115e-014 2.154500e+002
    endloop
  endfacet
  facet normal 1.568401e-015 1.000000e+000 -1.082589e-015
    outer loop
      vertex   0.000000e+000 0.000000e+000 1.854500e+002
      vertex   2.805049e+001 -5.551115e-014 1.748119e+002
      vertex   1.989368e+001 -5.551115e-014 1.629947e+002
    endloop
  endfacet
  facet normal 8.856459e-016 1.000000e+000 -1.687457e-015
    outer loop
      vertex   1.989368e+001 -5.551115e-014 1.629947e+002
      vertex   7.179470e+000 -5.551115e-014 1.563217e+002
      vertex   0.000000e+000 0.000000e+000 1.854500e+002
    endloop
  endfacet
  facet normal 0.000000e+000 1.000000e+000 -1.905749e-015
    outer loop
      vertex   7.179470e+000 -5.551115e-014 1.563217e+002
      vertex   -7.179470e+000 -5.551115e-014 1.563217e+002
      vertex   0.000000e+000 0.000000e+000 1.854500e+002
    endloop
  endfacet
  facet normal -8.856459e-016 1.000000e+000 -1.687457e-015
    outer loop
      vertex   -7.179470e+000 -5.551115e-014 1.563217e+002
      vertex   -1.989368e+001 -5.551115e-014 1.629947e+002
      vertex   0.000000e+000 0.000000e+000 1.854500e+002
    endloop
  endfacet
  facet normal -1.568401e-015 1.000000e+000 -1.082589e-015
    outer loop
      vertex   -1.989368e+001 -5.551115e-014 1.629947e+002
      vertex   -2.805049e+001 -5.551115e-014 1.748119e+002
      vertex   0.000000e+000 0.000000e+000 1.854500e+002
    endloop
  endfacet
  facet normal -1.891854e-015 1.000000e+000 -2.297127e-016
    outer loop
      vertex   -2.805049e+001 -5.551115e-014 1.748119e+002
      vertex   -2.978127e+001 -5.551115e-014 1.890661e+002
      vertex   0.000000e+000 0.000000e+000 1.854500e+002
    endloop
  endfacet
  facet normal -1.781907e-015 1.000000e+000 6.757880e-016
    outer loop
      vertex   -2.978127e+001 -5.551115e-014 1.890661e+002
      vertex   -2.468952e+001 -5.551115e-014 2.024919e+002
      vertex   0.000000e+000 0.000000e+000 1.854500e+002
    endloop
  endfacet
  facet normal -1.263746e-015 1.000000e+000 1.426474e-015
    outer loop
      vertex   -2.468952e+001 -5.551115e-014 2.024919e+002
      vertex   -1.394170e+001 -5.551115e-014 2.120137e+002
      vertex   0.000000e+000 0.000000e+000 1.854500e+002
    endloop
  endfacet
  facet normal -4.560757e-016 1.000000e+000 1.850372e-015
    outer loop
      vertex   -1.394170e+001 -5.551115e-014 2.120137e+002
      vertex   -7.347881e-015 -5.551115e-014 2.154500e+002
      vertex   0.000000e+000 0.000000e+000 1.854500e+002
    endloop
  endfacet
  facet normal 4.560757e-016 1.000000e+000 1.850372e-015
    outer loop
      vertex   -7.347881e-015 -5.551115e-014 2.154500e+002
      vertex   1.394170e+001 -5.551115e-014 2.120137e+002
      vertex   0.000000e+000 0.000000e+000 1.854500e+002
    endloop
  endfacet
  facet normal 1.263746e-015 1.000000e+000 1.426474e-015
    outer loop
      vertex   1.394170e+001 -5.551115e-014 2.120137e+002
      vertex   2.468952e+001 -5.551115e-014 2.024919e+002
      vertex   0.000000e+000 0.000000e+000 1.854500e+002
    endloop
  endfacet
  facet normal 1.781907e-015 1.000000e+000 6.757880e-016
    outer loop
      vertex   2.468952e+001 -5.551115e-014 2.024919e+002
      vertex   2.978127e+001 -5.551115e-014 1.890661e+002
      vertex   0.000000e+000 0.000000e+000 1.854500e+002
    endloop
  endfacet
  facet normal 1.850372e-015 1.000000e+000 1.119269e-016
    outer loop
      vertex   2.978127e+001 -5.551115e-014 1.890661e+002
      vertex   3.000000e+001 -5.551115e-014 1.854500e+002
      vertex   0.000000e+000 0.000000e+000 1.854500e+002
    endloop
  endfacet
  facet normal 1.850372e-015 1.000000e+000 -3.390932e-016
    outer loop
      vertex   3.000000e+001 -5.551115e-014 1.854500e+002
      vertex   2.805049e+001 -5.551115e-014 1.748119e+002
      vertex   0.000000e+000 0.000000e+000 1.854500e+002
    endloop
  endfacet
endsolid
