solid Eje
  facet normal 0.000000e+000 1.000000e+000 0.000000e+000
    outer loop
      vertex   0.000000e+000 7.500000e+002 0.000000e+000
      vertex   1.395218e+002 7.500000e+002 -1.156111e+001
      vertex   1.357160e+002 7.500000e+002 -3.436797e+001
    endloop
  endfacet
  facet normal 0.000000e+000 1.000000e+000 0.000000e+000
    outer loop
      vertex   1.357160e+002 7.500000e+002 -3.436797e+001
      vertex   1.282083e+002 7.500000e+002 -5.623736e+001
      vertex   0.000000e+000 7.500000e+002 0.000000e+000
    endloop
  endfacet
  facet normal 0.000000e+000 1.000000e+000 0.000000e+000
    outer loop
      vertex   1.282083e+002 7.500000e+002 -5.623736e+001
      vertex   1.172033e+002 7.500000e+002 -7.657274e+001
      vertex   0.000000e+000 7.500000e+002 0.000000e+000
    endloop
  endfacet
  facet normal 0.000000e+000 1.000000e+000 0.000000e+000
    outer loop
      vertex   1.172033e+002 7.500000e+002 -7.657274e+001
      vertex   1.030013e+002 7.500000e+002 -9.481942e+001
      vertex   0.000000e+000 7.500000e+002 0.000000e+000
    endloop
  endfacet
  facet normal 0.000000e+000 1.000000e+000 0.000000e+000
    outer loop
      vertex   1.030013e+002 7.500000e+002 -9.481942e+001
      vertex   8.598978e+001 7.500000e+002 -1.104797e+002
      vertex   0.000000e+000 7.500000e+002 0.000000e+000
    endloop
  endfacet
  facet normal 0.000000e+000 1.000000e+000 0.000000e+000
    outer loop
      vertex   8.598978e+001 7.500000e+002 -1.104797e+002
      vertex   6.663264e+001 7.500000e+002 -1.231263e+002
      vertex   0.000000e+000 7.500000e+002 0.000000e+000
    endloop
  endfacet
  facet normal 0.000000e+000 1.000000e+000 0.000000e+000
    outer loop
      vertex   6.663264e+001 7.500000e+002 -1.231263e+002
      vertex   4.545793e+001 7.500000e+002 -1.324144e+002
      vertex   0.000000e+000 7.500000e+002 0.000000e+000
    endloop
  endfacet
  facet normal 0.000000e+000 1.000000e+000 0.000000e+000
    outer loop
      vertex   4.545793e+001 7.500000e+002 -1.324144e+002
      vertex   2.304324e+001 7.500000e+002 -1.380906e+002
      vertex   0.000000e+000 7.500000e+002 0.000000e+000
    endloop
  endfacet
  facet normal 0.000000e+000 1.000000e+000 0.000000e+000
    outer loop
      vertex   2.304324e+001 7.500000e+002 -1.380906e+002
      vertex   -3.429011e-014 7.500000e+002 -1.400000e+002
      vertex   0.000000e+000 7.500000e+002 0.000000e+000
    endloop
  endfacet
  facet normal 0.000000e+000 1.000000e+000 -0.000000e+000
    outer loop
      vertex   -3.429011e-014 7.500000e+002 -1.400000e+002
      vertex   -2.304324e+001 7.500000e+002 -1.380906e+002
      vertex   0.000000e+000 7.500000e+002 0.000000e+000
    endloop
  endfacet
  facet normal 0.000000e+000 1.000000e+000 -0.000000e+000
    outer loop
      vertex   -2.304324e+001 7.500000e+002 -1.380906e+002
      vertex   -4.545793e+001 7.500000e+002 -1.324144e+002
      vertex   0.000000e+000 7.500000e+002 0.000000e+000
    endloop
  endfacet
  facet normal 0.000000e+000 1.000000e+000 -0.000000e+000
    outer loop
      vertex   -4.545793e+001 7.500000e+002 -1.324144e+002
      vertex   -6.663264e+001 7.500000e+002 -1.231263e+002
      vertex   0.000000e+000 7.500000e+002 0.000000e+000
    endloop
  endfacet
  facet normal 0.000000e+000 1.000000e+000 -0.000000e+000
    outer loop
      vertex   -6.663264e+001 7.500000e+002 -1.231263e+002
      vertex   -8.598978e+001 7.500000e+002 -1.104797e+002
      vertex   0.000000e+000 7.500000e+002 0.000000e+000
    endloop
  endfacet
  facet normal 0.000000e+000 1.000000e+000 -0.000000e+000
    outer loop
      vertex   -8.598978e+001 7.500000e+002 -1.104797e+002
      vertex   -1.030013e+002 7.500000e+002 -9.481942e+001
      vertex   0.000000e+000 7.500000e+002 0.000000e+000
    endloop
  endfacet
  facet normal 0.000000e+000 1.000000e+000 -0.000000e+000
    outer loop
      vertex   -1.030013e+002 7.500000e+002 -9.481942e+001
      vertex   -1.172033e+002 7.500000e+002 -7.657274e+001
      vertex   0.000000e+000 7.500000e+002 0.000000e+000
    endloop
  endfacet
  facet normal 0.000000e+000 1.000000e+000 -0.000000e+000
    outer loop
      vertex   -1.172033e+002 7.500000e+002 -7.657274e+001
      vertex   -1.282083e+002 7.500000e+002 -5.623736e+001
      vertex   0.000000e+000 7.500000e+002 0.000000e+000
    endloop
  endfacet
  facet normal 0.000000e+000 1.000000e+000 -0.000000e+000
    outer loop
      vertex   -1.282083e+002 7.500000e+002 -5.623736e+001
      vertex   -1.357160e+002 7.500000e+002 -3.436797e+001
      vertex   0.000000e+000 7.500000e+002 0.000000e+000
    endloop
  endfacet
  facet normal 0.000000e+000 1.000000e+000 -0.000000e+000
    outer loop
      vertex   -1.357160e+002 7.500000e+002 -3.436797e+001
      vertex   -1.395218e+002 7.500000e+002 -1.156111e+001
      vertex   0.000000e+000 7.500000e+002 0.000000e+000
    endloop
  endfacet
  facet normal 0.000000e+000 1.000000e+000 0.000000e+000
    outer loop
      vertex   -1.395218e+002 7.500000e+002 -1.156111e+001
      vertex   -1.395218e+002 7.500000e+002 1.156111e+001
      vertex   0.000000e+000 7.500000e+002 0.000000e+000
    endloop
  endfacet
  facet normal -0.000000e+000 1.000000e+000 0.000000e+000
    outer loop
      vertex   -1.395218e+002 7.500000e+002 1.156111e+001
      vertex   -1.357160e+002 7.500000e+002 3.436797e+001
      vertex   0.000000e+000 7.500000e+002 0.000000e+000
    endloop
  endfacet
  facet normal -0.000000e+000 1.000000e+000 0.000000e+000
    outer loop
      vertex   -1.357160e+002 7.500000e+002 3.436797e+001
      vertex   -1.282083e+002 7.500000e+002 5.623736e+001
      vertex   0.000000e+000 7.500000e+002 0.000000e+000
    endloop
  endfacet
  facet normal -0.000000e+000 1.000000e+000 0.000000e+000
    outer loop
      vertex   -1.282083e+002 7.500000e+002 5.623736e+001
      vertex   -1.172033e+002 7.500000e+002 7.657274e+001
      vertex   0.000000e+000 7.500000e+002 0.000000e+000
    endloop
  endfacet
  facet normal -0.000000e+000 1.000000e+000 0.000000e+000
    outer loop
      vertex   -1.172033e+002 7.500000e+002 7.657274e+001
      vertex   -1.030013e+002 7.500000e+002 9.481942e+001
      vertex   0.000000e+000 7.500000e+002 0.000000e+000
    endloop
  endfacet
  facet normal -0.000000e+000 1.000000e+000 0.000000e+000
    outer loop
      vertex   -1.030013e+002 7.500000e+002 9.481942e+001
      vertex   -8.598978e+001 7.500000e+002 1.104797e+002
      vertex   0.000000e+000 7.500000e+002 0.000000e+000
    endloop
  endfacet
  facet normal -0.000000e+000 1.000000e+000 0.000000e+000
    outer loop
      vertex   -8.598978e+001 7.500000e+002 1.104797e+002
      vertex   -6.663264e+001 7.500000e+002 1.231263e+002
      vertex   0.000000e+000 7.500000e+002 0.000000e+000
    endloop
  endfacet
  facet normal -0.000000e+000 1.000000e+000 0.000000e+000
    outer loop
      vertex   -6.663264e+001 7.500000e+002 1.231263e+002
      vertex   -4.545793e+001 7.500000e+002 1.324144e+002
      vertex   0.000000e+000 7.500000e+002 0.000000e+000
    endloop
  endfacet
  facet normal -0.000000e+000 1.000000e+000 0.000000e+000
    outer loop
      vertex   -4.545793e+001 7.500000e+002 1.324144e+002
      vertex   -2.304324e+001 7.500000e+002 1.380906e+002
      vertex   0.000000e+000 7.500000e+002 0.000000e+000
    endloop
  endfacet
  facet normal -0.000000e+000 1.000000e+000 0.000000e+000
    outer loop
      vertex   -2.304324e+001 7.500000e+002 1.380906e+002
      vertex   1.714506e-014 7.500000e+002 1.400000e+002
      vertex   0.000000e+000 7.500000e+002 0.000000e+000
    endloop
  endfacet
  facet normal 0.000000e+000 1.000000e+000 0.000000e+000
    outer loop
      vertex   1.714506e-014 7.500000e+002 1.400000e+002
      vertex   2.304324e+001 7.500000e+002 1.380906e+002
      vertex   0.000000e+000 7.500000e+002 0.000000e+000
    endloop
  endfacet
  facet normal 0.000000e+000 1.000000e+000 0.000000e+000
    outer loop
      vertex   2.304324e+001 7.500000e+002 1.380906e+002
      vertex   4.545793e+001 7.500000e+002 1.324144e+002
      vertex   0.000000e+000 7.500000e+002 0.000000e+000
    endloop
  endfacet
  facet normal 0.000000e+000 1.000000e+000 0.000000e+000
    outer loop
      vertex   4.545793e+001 7.500000e+002 1.324144e+002
      vertex   6.663264e+001 7.500000e+002 1.231263e+002
      vertex   0.000000e+000 7.500000e+002 0.000000e+000
    endloop
  endfacet
  facet normal 0.000000e+000 1.000000e+000 0.000000e+000
    outer loop
      vertex   6.663264e+001 7.500000e+002 1.231263e+002
      vertex   8.598978e+001 7.500000e+002 1.104797e+002
      vertex   0.000000e+000 7.500000e+002 0.000000e+000
    endloop
  endfacet
  facet normal 0.000000e+000 1.000000e+000 0.000000e+000
    outer loop
      vertex   8.598978e+001 7.500000e+002 1.104797e+002
      vertex   1.030013e+002 7.500000e+002 9.481942e+001
      vertex   0.000000e+000 7.500000e+002 0.000000e+000
    endloop
  endfacet
  facet normal 0.000000e+000 1.000000e+000 0.000000e+000
    outer loop
      vertex   1.030013e+002 7.500000e+002 9.481942e+001
      vertex   1.172033e+002 7.500000e+002 7.657274e+001
      vertex   0.000000e+000 7.500000e+002 0.000000e+000
    endloop
  endfacet
  facet normal 0.000000e+000 1.000000e+000 0.000000e+000
    outer loop
      vertex   1.172033e+002 7.500000e+002 7.657274e+001
      vertex   1.282083e+002 7.500000e+002 5.623736e+001
      vertex   0.000000e+000 7.500000e+002 0.000000e+000
    endloop
  endfacet
  facet normal 0.000000e+000 1.000000e+000 0.000000e+000
    outer loop
      vertex   1.282083e+002 7.500000e+002 5.623736e+001
      vertex   1.357160e+002 7.500000e+002 3.436797e+001
      vertex   0.000000e+000 7.500000e+002 0.000000e+000
    endloop
  endfacet
  facet normal 0.000000e+000 1.000000e+000 0.000000e+000
    outer loop
      vertex   1.357160e+002 7.500000e+002 3.436797e+001
      vertex   1.395218e+002 7.500000e+002 1.156111e+001
      vertex   0.000000e+000 7.500000e+002 0.000000e+000
    endloop
  endfacet
  facet normal 0.000000e+000 1.000000e+000 0.000000e+000
    outer loop
      vertex   1.395218e+002 7.500000e+002 1.156111e+001
      vertex   1.400000e+002 7.500000e+002 -4.286264e-014
      vertex   0.000000e+000 7.500000e+002 0.000000e+000
    endloop
  endfacet
  facet normal 0.000000e+000 1.000000e+000 0.000000e+000
    outer loop
      vertex   1.400000e+002 7.500000e+002 -4.286264e-014
      vertex   1.395218e+002 7.500000e+002 -1.156111e+001
      vertex   0.000000e+000 7.500000e+002 0.000000e+000
    endloop
  endfacet
  facet normal 8.257935e-002 0.000000e+000 -9.965845e-001
    outer loop
      vertex   -3.429011e-014 -7.500000e+002 -1.400000e+002
      vertex   -3.429011e-014 7.500000e+002 -1.400000e+002
      vertex   2.304324e+001 7.500000e+002 -1.380906e+002
    endloop
  endfacet
  facet normal 2.454855e-001 0.000000e+000 -9.694003e-001
    outer loop
      vertex   2.304324e+001 -7.500000e+002 -1.380906e+002
      vertex   2.304324e+001 7.500000e+002 -1.380906e+002
      vertex   4.545793e+001 7.500000e+002 -1.324144e+002
    endloop
  endfacet
  facet normal 4.016954e-001 0.000000e+000 -9.157733e-001
    outer loop
      vertex   4.545793e+001 -7.500000e+002 -1.324144e+002
      vertex   4.545793e+001 7.500000e+002 -1.324144e+002
      vertex   6.663264e+001 7.500000e+002 -1.231263e+002
    endloop
  endfacet
  facet normal 5.469482e-001 0.000000e+000 -8.371665e-001
    outer loop
      vertex   6.663264e+001 -7.500000e+002 -1.231263e+002
      vertex   6.663264e+001 7.500000e+002 -1.231263e+002
      vertex   8.598978e+001 7.500000e+002 -1.104797e+002
    endloop
  endfacet
  facet normal 6.772816e-001 0.000000e+000 -7.357239e-001
    outer loop
      vertex   8.598978e+001 -7.500000e+002 -1.104797e+002
      vertex   8.598978e+001 7.500000e+002 -1.104797e+002
      vertex   1.030013e+002 7.500000e+002 -9.481942e+001
    endloop
  endfacet
  facet normal 7.891405e-001 0.000000e+000 -6.142127e-001
    outer loop
      vertex   1.030013e+002 -7.500000e+002 -9.481942e+001
      vertex   1.030013e+002 7.500000e+002 -9.481942e+001
      vertex   1.172033e+002 7.500000e+002 -7.657274e+001
    endloop
  endfacet
  facet normal 8.794738e-001 0.000000e+000 -4.759474e-001
    outer loop
      vertex   1.172033e+002 -7.500000e+002 -7.657274e+001
      vertex   1.172033e+002 7.500000e+002 -7.657274e+001
      vertex   1.282083e+002 7.500000e+002 -5.623736e+001
    endloop
  endfacet
  facet normal 9.458172e-001 0.000000e+000 -3.246995e-001
    outer loop
      vertex   1.282083e+002 -7.500000e+002 -5.623736e+001
      vertex   1.282083e+002 7.500000e+002 -5.623736e+001
      vertex   1.357160e+002 7.500000e+002 -3.436797e+001
    endloop
  endfacet
  facet normal 9.863613e-001 0.000000e+000 -1.645946e-001
    outer loop
      vertex   1.357160e+002 -7.500000e+002 -3.436797e+001
      vertex   1.357160e+002 7.500000e+002 -3.436797e+001
      vertex   1.395218e+002 7.500000e+002 -1.156111e+001
    endloop
  endfacet
  facet normal 9.991458e-001 9.760418e-019 4.132497e-002
    outer loop
      vertex   1.395218e+002 -7.500000e+002 1.156111e+001
      vertex   1.400000e+002 -7.500000e+002 -8.572528e-015
      vertex   1.400000e+002 7.500000e+002 -4.286264e-014
    endloop
  endfacet
  facet normal 9.991458e-001 -9.272397e-019 -4.132497e-002
    outer loop
      vertex   1.395218e+002 7.500000e+002 -1.156111e+001
      vertex   1.400000e+002 7.500000e+002 -4.286264e-014
      vertex   1.400000e+002 -7.500000e+002 -8.572528e-015
    endloop
  endfacet
  facet normal 9.991458e-001 0.000000e+000 -4.132497e-002
    outer loop
      vertex   1.400000e+002 -7.500000e+002 -8.572528e-015
      vertex   1.395218e+002 -7.500000e+002 -1.156111e+001
      vertex   1.395218e+002 7.500000e+002 -1.156111e+001
    endloop
  endfacet
  facet normal 9.863613e-001 -0.000000e+000 1.645946e-001
    outer loop
      vertex   1.395218e+002 -7.500000e+002 1.156111e+001
      vertex   1.395218e+002 7.500000e+002 1.156111e+001
      vertex   1.357160e+002 7.500000e+002 3.436797e+001
    endloop
  endfacet
  facet normal 9.458172e-001 -0.000000e+000 3.246995e-001
    outer loop
      vertex   1.357160e+002 -7.500000e+002 3.436797e+001
      vertex   1.357160e+002 7.500000e+002 3.436797e+001
      vertex   1.282083e+002 7.500000e+002 5.623736e+001
    endloop
  endfacet
  facet normal 8.794738e-001 -0.000000e+000 4.759474e-001
    outer loop
      vertex   1.282083e+002 -7.500000e+002 5.623736e+001
      vertex   1.282083e+002 7.500000e+002 5.623736e+001
      vertex   1.172033e+002 7.500000e+002 7.657274e+001
    endloop
  endfacet
  facet normal 7.891405e-001 -0.000000e+000 6.142127e-001
    outer loop
      vertex   1.172033e+002 -7.500000e+002 7.657274e+001
      vertex   1.172033e+002 7.500000e+002 7.657274e+001
      vertex   1.030013e+002 7.500000e+002 9.481942e+001
    endloop
  endfacet
  facet normal 6.772816e-001 -0.000000e+000 7.357239e-001
    outer loop
      vertex   1.030013e+002 -7.500000e+002 9.481942e+001
      vertex   1.030013e+002 7.500000e+002 9.481942e+001
      vertex   8.598978e+001 7.500000e+002 1.104797e+002
    endloop
  endfacet
  facet normal 5.469482e-001 -0.000000e+000 8.371665e-001
    outer loop
      vertex   8.598978e+001 -7.500000e+002 1.104797e+002
      vertex   8.598978e+001 7.500000e+002 1.104797e+002
      vertex   6.663264e+001 7.500000e+002 1.231263e+002
    endloop
  endfacet
  facet normal 4.016954e-001 -0.000000e+000 9.157733e-001
    outer loop
      vertex   6.663264e+001 -7.500000e+002 1.231263e+002
      vertex   6.663264e+001 7.500000e+002 1.231263e+002
      vertex   4.545793e+001 7.500000e+002 1.324144e+002
    endloop
  endfacet
  facet normal 2.454855e-001 -0.000000e+000 9.694003e-001
    outer loop
      vertex   4.545793e+001 -7.500000e+002 1.324144e+002
      vertex   4.545793e+001 7.500000e+002 1.324144e+002
      vertex   2.304324e+001 7.500000e+002 1.380906e+002
    endloop
  endfacet
  facet normal 8.257935e-002 -0.000000e+000 9.965845e-001
    outer loop
      vertex   2.304324e+001 -7.500000e+002 1.380906e+002
      vertex   2.304324e+001 7.500000e+002 1.380906e+002
      vertex   1.714506e-014 7.500000e+002 1.400000e+002
    endloop
  endfacet
  facet normal -8.257935e-002 0.000000e+000 9.965845e-001
    outer loop
      vertex   1.714506e-014 -7.500000e+002 1.400000e+002
      vertex   1.714506e-014 7.500000e+002 1.400000e+002
      vertex   -2.304324e+001 7.500000e+002 1.380906e+002
    endloop
  endfacet
  facet normal -2.454855e-001 0.000000e+000 9.694003e-001
    outer loop
      vertex   -2.304324e+001 -7.500000e+002 1.380906e+002
      vertex   -2.304324e+001 7.500000e+002 1.380906e+002
      vertex   -4.545793e+001 7.500000e+002 1.324144e+002
    endloop
  endfacet
  facet normal -4.016954e-001 0.000000e+000 9.157733e-001
    outer loop
      vertex   -4.545793e+001 -7.500000e+002 1.324144e+002
      vertex   -4.545793e+001 7.500000e+002 1.324144e+002
      vertex   -6.663264e+001 7.500000e+002 1.231263e+002
    endloop
  endfacet
  facet normal -5.469482e-001 0.000000e+000 8.371665e-001
    outer loop
      vertex   -6.663264e+001 -7.500000e+002 1.231263e+002
      vertex   -6.663264e+001 7.500000e+002 1.231263e+002
      vertex   -8.598978e+001 7.500000e+002 1.104797e+002
    endloop
  endfacet
  facet normal -6.772816e-001 0.000000e+000 7.357239e-001
    outer loop
      vertex   -8.598978e+001 -7.500000e+002 1.104797e+002
      vertex   -8.598978e+001 7.500000e+002 1.104797e+002
      vertex   -1.030013e+002 7.500000e+002 9.481942e+001
    endloop
  endfacet
  facet normal -7.891405e-001 0.000000e+000 6.142127e-001
    outer loop
      vertex   -1.030013e+002 -7.500000e+002 9.481942e+001
      vertex   -1.030013e+002 7.500000e+002 9.481942e+001
      vertex   -1.172033e+002 7.500000e+002 7.657274e+001
    endloop
  endfacet
  facet normal -8.794738e-001 0.000000e+000 4.759474e-001
    outer loop
      vertex   -1.172033e+002 -7.500000e+002 7.657274e+001
      vertex   -1.172033e+002 7.500000e+002 7.657274e+001
      vertex   -1.282083e+002 7.500000e+002 5.623736e+001
    endloop
  endfacet
  facet normal -9.458172e-001 0.000000e+000 3.246995e-001
    outer loop
      vertex   -1.282083e+002 -7.500000e+002 5.623736e+001
      vertex   -1.282083e+002 7.500000e+002 5.623736e+001
      vertex   -1.357160e+002 7.500000e+002 3.436797e+001
    endloop
  endfacet
  facet normal -9.863613e-001 0.000000e+000 1.645946e-001
    outer loop
      vertex   -1.357160e+002 -7.500000e+002 3.436797e+001
      vertex   -1.357160e+002 7.500000e+002 3.436797e+001
      vertex   -1.395218e+002 7.500000e+002 1.156111e+001
    endloop
  endfacet
  facet normal -1.000000e+000 0.000000e+000 0.000000e+000
    outer loop
      vertex   -1.395218e+002 -7.500000e+002 1.156111e+001
      vertex   -1.395218e+002 7.500000e+002 1.156111e+001
      vertex   -1.395218e+002 7.500000e+002 -1.156111e+001
    endloop
  endfacet
  facet normal -9.863613e-001 0.000000e+000 -1.645946e-001
    outer loop
      vertex   -1.395218e+002 -7.500000e+002 -1.156111e+001
      vertex   -1.395218e+002 7.500000e+002 -1.156111e+001
      vertex   -1.357160e+002 7.500000e+002 -3.436797e+001
    endloop
  endfacet
  facet normal -9.458172e-001 0.000000e+000 -3.246995e-001
    outer loop
      vertex   -1.357160e+002 -7.500000e+002 -3.436797e+001
      vertex   -1.357160e+002 7.500000e+002 -3.436797e+001
      vertex   -1.282083e+002 7.500000e+002 -5.623736e+001
    endloop
  endfacet
  facet normal -8.794738e-001 0.000000e+000 -4.759474e-001
    outer loop
      vertex   -1.282083e+002 -7.500000e+002 -5.623736e+001
      vertex   -1.282083e+002 7.500000e+002 -5.623736e+001
      vertex   -1.172033e+002 7.500000e+002 -7.657274e+001
    endloop
  endfacet
  facet normal -7.891405e-001 0.000000e+000 -6.142127e-001
    outer loop
      vertex   -1.172033e+002 -7.500000e+002 -7.657274e+001
      vertex   -1.172033e+002 7.500000e+002 -7.657274e+001
      vertex   -1.030013e+002 7.500000e+002 -9.481942e+001
    endloop
  endfacet
  facet normal -6.772816e-001 0.000000e+000 -7.357239e-001
    outer loop
      vertex   -1.030013e+002 -7.500000e+002 -9.481942e+001
      vertex   -1.030013e+002 7.500000e+002 -9.481942e+001
      vertex   -8.598978e+001 7.500000e+002 -1.104797e+002
    endloop
  endfacet
  facet normal -5.469482e-001 0.000000e+000 -8.371665e-001
    outer loop
      vertex   -8.598978e+001 -7.500000e+002 -1.104797e+002
      vertex   -8.598978e+001 7.500000e+002 -1.104797e+002
      vertex   -6.663264e+001 7.500000e+002 -1.231263e+002
    endloop
  endfacet
  facet normal -4.016954e-001 0.000000e+000 -9.157733e-001
    outer loop
      vertex   -6.663264e+001 -7.500000e+002 -1.231263e+002
      vertex   -6.663264e+001 7.500000e+002 -1.231263e+002
      vertex   -4.545793e+001 7.500000e+002 -1.324144e+002
    endloop
  endfacet
  facet normal -2.454855e-001 0.000000e+000 -9.694003e-001
    outer loop
      vertex   -4.545793e+001 -7.500000e+002 -1.324144e+002
      vertex   -4.545793e+001 7.500000e+002 -1.324144e+002
      vertex   -2.304324e+001 7.500000e+002 -1.380906e+002
    endloop
  endfacet
  facet normal -8.257935e-002 0.000000e+000 -9.965845e-001
    outer loop
      vertex   -2.304324e+001 -7.500000e+002 -1.380906e+002
      vertex   -2.304324e+001 7.500000e+002 -1.380906e+002
      vertex   -3.429011e-014 7.500000e+002 -1.400000e+002
    endloop
  endfacet
  facet normal -8.257935e-002 -0.000000e+000 -9.965845e-001
    outer loop
      vertex   -3.429011e-014 7.500000e+002 -1.400000e+002
      vertex   -3.429011e-014 -7.500000e+002 -1.400000e+002
      vertex   -2.304324e+001 -7.500000e+002 -1.380906e+002
    endloop
  endfacet
  facet normal -2.454855e-001 -0.000000e+000 -9.694003e-001
    outer loop
      vertex   -2.304324e+001 7.500000e+002 -1.380906e+002
      vertex   -2.304324e+001 -7.500000e+002 -1.380906e+002
      vertex   -4.545793e+001 -7.500000e+002 -1.324144e+002
    endloop
  endfacet
  facet normal -4.016954e-001 -0.000000e+000 -9.157733e-001
    outer loop
      vertex   -4.545793e+001 7.500000e+002 -1.324144e+002
      vertex   -4.545793e+001 -7.500000e+002 -1.324144e+002
      vertex   -6.663264e+001 -7.500000e+002 -1.231263e+002
    endloop
  endfacet
  facet normal -5.469482e-001 -0.000000e+000 -8.371665e-001
    outer loop
      vertex   -6.663264e+001 7.500000e+002 -1.231263e+002
      vertex   -6.663264e+001 -7.500000e+002 -1.231263e+002
      vertex   -8.598978e+001 -7.500000e+002 -1.104797e+002
    endloop
  endfacet
  facet normal -6.772816e-001 -0.000000e+000 -7.357239e-001
    outer loop
      vertex   -8.598978e+001 7.500000e+002 -1.104797e+002
      vertex   -8.598978e+001 -7.500000e+002 -1.104797e+002
      vertex   -1.030013e+002 -7.500000e+002 -9.481942e+001
    endloop
  endfacet
  facet normal -7.891405e-001 -0.000000e+000 -6.142127e-001
    outer loop
      vertex   -1.030013e+002 7.500000e+002 -9.481942e+001
      vertex   -1.030013e+002 -7.500000e+002 -9.481942e+001
      vertex   -1.172033e+002 -7.500000e+002 -7.657274e+001
    endloop
  endfacet
  facet normal -8.794738e-001 -0.000000e+000 -4.759474e-001
    outer loop
      vertex   -1.172033e+002 7.500000e+002 -7.657274e+001
      vertex   -1.172033e+002 -7.500000e+002 -7.657274e+001
      vertex   -1.282083e+002 -7.500000e+002 -5.623736e+001
    endloop
  endfacet
  facet normal -9.458172e-001 -0.000000e+000 -3.246995e-001
    outer loop
      vertex   -1.282083e+002 7.500000e+002 -5.623736e+001
      vertex   -1.282083e+002 -7.500000e+002 -5.623736e+001
      vertex   -1.357160e+002 -7.500000e+002 -3.436797e+001
    endloop
  endfacet
  facet normal -9.863613e-001 -0.000000e+000 -1.645946e-001
    outer loop
      vertex   -1.357160e+002 7.500000e+002 -3.436797e+001
      vertex   -1.357160e+002 -7.500000e+002 -3.436797e+001
      vertex   -1.395218e+002 -7.500000e+002 -1.156111e+001
    endloop
  endfacet
  facet normal -1.000000e+000 0.000000e+000 0.000000e+000
    outer loop
      vertex   -1.395218e+002 7.500000e+002 -1.156111e+001
      vertex   -1.395218e+002 -7.500000e+002 -1.156111e+001
      vertex   -1.395218e+002 -7.500000e+002 1.156111e+001
    endloop
  endfacet
  facet normal -9.863613e-001 0.000000e+000 1.645946e-001
    outer loop
      vertex   -1.395218e+002 7.500000e+002 1.156111e+001
      vertex   -1.395218e+002 -7.500000e+002 1.156111e+001
      vertex   -1.357160e+002 -7.500000e+002 3.436797e+001
    endloop
  endfacet
  facet normal -9.458172e-001 0.000000e+000 3.246995e-001
    outer loop
      vertex   -1.357160e+002 7.500000e+002 3.436797e+001
      vertex   -1.357160e+002 -7.500000e+002 3.436797e+001
      vertex   -1.282083e+002 -7.500000e+002 5.623736e+001
    endloop
  endfacet
  facet normal -8.794738e-001 0.000000e+000 4.759474e-001
    outer loop
      vertex   -1.282083e+002 7.500000e+002 5.623736e+001
      vertex   -1.282083e+002 -7.500000e+002 5.623736e+001
      vertex   -1.172033e+002 -7.500000e+002 7.657274e+001
    endloop
  endfacet
  facet normal -7.891405e-001 0.000000e+000 6.142127e-001
    outer loop
      vertex   -1.172033e+002 7.500000e+002 7.657274e+001
      vertex   -1.172033e+002 -7.500000e+002 7.657274e+001
      vertex   -1.030013e+002 -7.500000e+002 9.481942e+001
    endloop
  endfacet
  facet normal -6.772816e-001 0.000000e+000 7.357239e-001
    outer loop
      vertex   -1.030013e+002 7.500000e+002 9.481942e+001
      vertex   -1.030013e+002 -7.500000e+002 9.481942e+001
      vertex   -8.598978e+001 -7.500000e+002 1.104797e+002
    endloop
  endfacet
  facet normal -5.469482e-001 0.000000e+000 8.371665e-001
    outer loop
      vertex   -8.598978e+001 7.500000e+002 1.104797e+002
      vertex   -8.598978e+001 -7.500000e+002 1.104797e+002
      vertex   -6.663264e+001 -7.500000e+002 1.231263e+002
    endloop
  endfacet
  facet normal -4.016954e-001 0.000000e+000 9.157733e-001
    outer loop
      vertex   -6.663264e+001 7.500000e+002 1.231263e+002
      vertex   -6.663264e+001 -7.500000e+002 1.231263e+002
      vertex   -4.545793e+001 -7.500000e+002 1.324144e+002
    endloop
  endfacet
  facet normal -2.454855e-001 0.000000e+000 9.694003e-001
    outer loop
      vertex   -4.545793e+001 7.500000e+002 1.324144e+002
      vertex   -4.545793e+001 -7.500000e+002 1.324144e+002
      vertex   -2.304324e+001 -7.500000e+002 1.380906e+002
    endloop
  endfacet
  facet normal -8.257935e-002 0.000000e+000 9.965845e-001
    outer loop
      vertex   -2.304324e+001 7.500000e+002 1.380906e+002
      vertex   -2.304324e+001 -7.500000e+002 1.380906e+002
      vertex   1.714506e-014 -7.500000e+002 1.400000e+002
    endloop
  endfacet
  facet normal 8.257935e-002 0.000000e+000 9.965845e-001
    outer loop
      vertex   1.714506e-014 7.500000e+002 1.400000e+002
      vertex   1.714506e-014 -7.500000e+002 1.400000e+002
      vertex   2.304324e+001 -7.500000e+002 1.380906e+002
    endloop
  endfacet
  facet normal 2.454855e-001 0.000000e+000 9.694003e-001
    outer loop
      vertex   2.304324e+001 7.500000e+002 1.380906e+002
      vertex   2.304324e+001 -7.500000e+002 1.380906e+002
      vertex   4.545793e+001 -7.500000e+002 1.324144e+002
    endloop
  endfacet
  facet normal 4.016954e-001 0.000000e+000 9.157733e-001
    outer loop
      vertex   4.545793e+001 7.500000e+002 1.324144e+002
      vertex   4.545793e+001 -7.500000e+002 1.324144e+002
      vertex   6.663264e+001 -7.500000e+002 1.231263e+002
    endloop
  endfacet
  facet normal 5.469482e-001 0.000000e+000 8.371665e-001
    outer loop
      vertex   6.663264e+001 7.500000e+002 1.231263e+002
      vertex   6.663264e+001 -7.500000e+002 1.231263e+002
      vertex   8.598978e+001 -7.500000e+002 1.104797e+002
    endloop
  endfacet
  facet normal 6.772816e-001 0.000000e+000 7.357239e-001
    outer loop
      vertex   8.598978e+001 7.500000e+002 1.104797e+002
      vertex   8.598978e+001 -7.500000e+002 1.104797e+002
      vertex   1.030013e+002 -7.500000e+002 9.481942e+001
    endloop
  endfacet
  facet normal 7.891405e-001 0.000000e+000 6.142127e-001
    outer loop
      vertex   1.030013e+002 7.500000e+002 9.481942e+001
      vertex   1.030013e+002 -7.500000e+002 9.481942e+001
      vertex   1.172033e+002 -7.500000e+002 7.657274e+001
    endloop
  endfacet
  facet normal 8.794738e-001 0.000000e+000 4.759474e-001
    outer loop
      vertex   1.172033e+002 7.500000e+002 7.657274e+001
      vertex   1.172033e+002 -7.500000e+002 7.657274e+001
      vertex   1.282083e+002 -7.500000e+002 5.623736e+001
    endloop
  endfacet
  facet normal 9.458172e-001 0.000000e+000 3.246995e-001
    outer loop
      vertex   1.282083e+002 7.500000e+002 5.623736e+001
      vertex   1.282083e+002 -7.500000e+002 5.623736e+001
      vertex   1.357160e+002 -7.500000e+002 3.436797e+001
    endloop
  endfacet
  facet normal 9.863613e-001 0.000000e+000 1.645946e-001
    outer loop
      vertex   1.357160e+002 7.500000e+002 3.436797e+001
      vertex   1.357160e+002 -7.500000e+002 3.436797e+001
      vertex   1.395218e+002 -7.500000e+002 1.156111e+001
    endloop
  endfacet
  facet normal 9.991458e-001 0.000000e+000 4.132497e-002
    outer loop
      vertex   1.400000e+002 7.500000e+002 -4.286264e-014
      vertex   1.395218e+002 7.500000e+002 1.156111e+001
      vertex   1.395218e+002 -7.500000e+002 1.156111e+001
    endloop
  endfacet
  facet normal 9.863613e-001 0.000000e+000 -1.645946e-001
    outer loop
      vertex   1.395218e+002 7.500000e+002 -1.156111e+001
      vertex   1.395218e+002 -7.500000e+002 -1.156111e+001
      vertex   1.357160e+002 -7.500000e+002 -3.436797e+001
    endloop
  endfacet
  facet normal 9.458172e-001 0.000000e+000 -3.246995e-001
    outer loop
      vertex   1.357160e+002 7.500000e+002 -3.436797e+001
      vertex   1.357160e+002 -7.500000e+002 -3.436797e+001
      vertex   1.282083e+002 -7.500000e+002 -5.623736e+001
    endloop
  endfacet
  facet normal 8.794738e-001 0.000000e+000 -4.759474e-001
    outer loop
      vertex   1.282083e+002 7.500000e+002 -5.623736e+001
      vertex   1.282083e+002 -7.500000e+002 -5.623736e+001
      vertex   1.172033e+002 -7.500000e+002 -7.657274e+001
    endloop
  endfacet
  facet normal 7.891405e-001 0.000000e+000 -6.142127e-001
    outer loop
      vertex   1.172033e+002 7.500000e+002 -7.657274e+001
      vertex   1.172033e+002 -7.500000e+002 -7.657274e+001
      vertex   1.030013e+002 -7.500000e+002 -9.481942e+001
    endloop
  endfacet
  facet normal 6.772816e-001 0.000000e+000 -7.357239e-001
    outer loop
      vertex   1.030013e+002 7.500000e+002 -9.481942e+001
      vertex   1.030013e+002 -7.500000e+002 -9.481942e+001
      vertex   8.598978e+001 -7.500000e+002 -1.104797e+002
    endloop
  endfacet
  facet normal 5.469482e-001 0.000000e+000 -8.371665e-001
    outer loop
      vertex   8.598978e+001 7.500000e+002 -1.104797e+002
      vertex   8.598978e+001 -7.500000e+002 -1.104797e+002
      vertex   6.663264e+001 -7.500000e+002 -1.231263e+002
    endloop
  endfacet
  facet normal 4.016954e-001 0.000000e+000 -9.157733e-001
    outer loop
      vertex   6.663264e+001 7.500000e+002 -1.231263e+002
      vertex   6.663264e+001 -7.500000e+002 -1.231263e+002
      vertex   4.545793e+001 -7.500000e+002 -1.324144e+002
    endloop
  endfacet
  facet normal 2.454855e-001 0.000000e+000 -9.694003e-001
    outer loop
      vertex   4.545793e+001 7.500000e+002 -1.324144e+002
      vertex   4.545793e+001 -7.500000e+002 -1.324144e+002
      vertex   2.304324e+001 -7.500000e+002 -1.380906e+002
    endloop
  endfacet
  facet normal 8.257935e-002 0.000000e+000 -9.965845e-001
    outer loop
      vertex   2.304324e+001 7.500000e+002 -1.380906e+002
      vertex   2.304324e+001 -7.500000e+002 -1.380906e+002
      vertex   -3.429011e-014 -7.500000e+002 -1.400000e+002
    endloop
  endfacet
  facet normal 0.000000e+000 -1.000000e+000 0.000000e+000
    outer loop
      vertex   0.000000e+000 -7.500000e+002 0.000000e+000
      vertex   1.395218e+002 -7.500000e+002 1.156111e+001
      vertex   1.357160e+002 -7.500000e+002 3.436797e+001
    endloop
  endfacet
  facet normal -0.000000e+000 -1.000000e+000 0.000000e+000
    outer loop
      vertex   1.357160e+002 -7.500000e+002 3.436797e+001
      vertex   1.282083e+002 -7.500000e+002 5.623736e+001
      vertex   0.000000e+000 -7.500000e+002 0.000000e+000
    endloop
  endfacet
  facet normal -0.000000e+000 -1.000000e+000 0.000000e+000
    outer loop
      vertex   1.282083e+002 -7.500000e+002 5.623736e+001
      vertex   1.172033e+002 -7.500000e+002 7.657274e+001
      vertex   0.000000e+000 -7.500000e+002 0.000000e+000
    endloop
  endfacet
  facet normal -0.000000e+000 -1.000000e+000 0.000000e+000
    outer loop
      vertex   1.172033e+002 -7.500000e+002 7.657274e+001
      vertex   1.030013e+002 -7.500000e+002 9.481942e+001
      vertex   0.000000e+000 -7.500000e+002 0.000000e+000
    endloop
  endfacet
  facet normal -0.000000e+000 -1.000000e+000 0.000000e+000
    outer loop
      vertex   1.030013e+002 -7.500000e+002 9.481942e+001
      vertex   8.598978e+001 -7.500000e+002 1.104797e+002
      vertex   0.000000e+000 -7.500000e+002 0.000000e+000
    endloop
  endfacet
  facet normal -0.000000e+000 -1.000000e+000 0.000000e+000
    outer loop
      vertex   8.598978e+001 -7.500000e+002 1.104797e+002
      vertex   6.663264e+001 -7.500000e+002 1.231263e+002
      vertex   0.000000e+000 -7.500000e+002 0.000000e+000
    endloop
  endfacet
  facet normal -0.000000e+000 -1.000000e+000 0.000000e+000
    outer loop
      vertex   6.663264e+001 -7.500000e+002 1.231263e+002
      vertex   4.545793e+001 -7.500000e+002 1.324144e+002
      vertex   0.000000e+000 -7.500000e+002 0.000000e+000
    endloop
  endfacet
  facet normal -0.000000e+000 -1.000000e+000 0.000000e+000
    outer loop
      vertex   4.545793e+001 -7.500000e+002 1.324144e+002
      vertex   2.304324e+001 -7.500000e+002 1.380906e+002
      vertex   0.000000e+000 -7.500000e+002 0.000000e+000
    endloop
  endfacet
  facet normal -0.000000e+000 -1.000000e+000 0.000000e+000
    outer loop
      vertex   2.304324e+001 -7.500000e+002 1.380906e+002
      vertex   1.714506e-014 -7.500000e+002 1.400000e+002
      vertex   0.000000e+000 -7.500000e+002 0.000000e+000
    endloop
  endfacet
  facet normal 0.000000e+000 -1.000000e+000 0.000000e+000
    outer loop
      vertex   1.714506e-014 -7.500000e+002 1.400000e+002
      vertex   -2.304324e+001 -7.500000e+002 1.380906e+002
      vertex   0.000000e+000 -7.500000e+002 0.000000e+000
    endloop
  endfacet
  facet normal 0.000000e+000 -1.000000e+000 -0.000000e+000
    outer loop
      vertex   -2.304324e+001 -7.500000e+002 1.380906e+002
      vertex   -4.545793e+001 -7.500000e+002 1.324144e+002
      vertex   0.000000e+000 -7.500000e+002 0.000000e+000
    endloop
  endfacet
  facet normal 0.000000e+000 -1.000000e+000 -0.000000e+000
    outer loop
      vertex   -4.545793e+001 -7.500000e+002 1.324144e+002
      vertex   -6.663264e+001 -7.500000e+002 1.231263e+002
      vertex   0.000000e+000 -7.500000e+002 0.000000e+000
    endloop
  endfacet
  facet normal 0.000000e+000 -1.000000e+000 -0.000000e+000
    outer loop
      vertex   -6.663264e+001 -7.500000e+002 1.231263e+002
      vertex   -8.598978e+001 -7.500000e+002 1.104797e+002
      vertex   0.000000e+000 -7.500000e+002 0.000000e+000
    endloop
  endfacet
  facet normal 0.000000e+000 -1.000000e+000 -0.000000e+000
    outer loop
      vertex   -8.598978e+001 -7.500000e+002 1.104797e+002
      vertex   -1.030013e+002 -7.500000e+002 9.481942e+001
      vertex   0.000000e+000 -7.500000e+002 0.000000e+000
    endloop
  endfacet
  facet normal 0.000000e+000 -1.000000e+000 -0.000000e+000
    outer loop
      vertex   -1.030013e+002 -7.500000e+002 9.481942e+001
      vertex   -1.172033e+002 -7.500000e+002 7.657274e+001
      vertex   0.000000e+000 -7.500000e+002 0.000000e+000
    endloop
  endfacet
  facet normal 0.000000e+000 -1.000000e+000 -0.000000e+000
    outer loop
      vertex   -1.172033e+002 -7.500000e+002 7.657274e+001
      vertex   -1.282083e+002 -7.500000e+002 5.623736e+001
      vertex   0.000000e+000 -7.500000e+002 0.000000e+000
    endloop
  endfacet
  facet normal 0.000000e+000 -1.000000e+000 -0.000000e+000
    outer loop
      vertex   -1.282083e+002 -7.500000e+002 5.623736e+001
      vertex   -1.357160e+002 -7.500000e+002 3.436797e+001
      vertex   0.000000e+000 -7.500000e+002 0.000000e+000
    endloop
  endfacet
  facet normal 0.000000e+000 -1.000000e+000 -0.000000e+000
    outer loop
      vertex   -1.357160e+002 -7.500000e+002 3.436797e+001
      vertex   -1.395218e+002 -7.500000e+002 1.156111e+001
      vertex   0.000000e+000 -7.500000e+002 0.000000e+000
    endloop
  endfacet
  facet normal 0.000000e+000 -1.000000e+000 0.000000e+000
    outer loop
      vertex   -1.395218e+002 -7.500000e+002 1.156111e+001
      vertex   -1.395218e+002 -7.500000e+002 -1.156111e+001
      vertex   0.000000e+000 -7.500000e+002 0.000000e+000
    endloop
  endfacet
  facet normal 0.000000e+000 -1.000000e+000 0.000000e+000
    outer loop
      vertex   -1.395218e+002 -7.500000e+002 -1.156111e+001
      vertex   -1.357160e+002 -7.500000e+002 -3.436797e+001
      vertex   0.000000e+000 -7.500000e+002 0.000000e+000
    endloop
  endfacet
  facet normal 0.000000e+000 -1.000000e+000 0.000000e+000
    outer loop
      vertex   -1.357160e+002 -7.500000e+002 -3.436797e+001
      vertex   -1.282083e+002 -7.500000e+002 -5.623736e+001
      vertex   0.000000e+000 -7.500000e+002 0.000000e+000
    endloop
  endfacet
  facet normal 0.000000e+000 -1.000000e+000 0.000000e+000
    outer loop
      vertex   -1.282083e+002 -7.500000e+002 -5.623736e+001
      vertex   -1.172033e+002 -7.500000e+002 -7.657274e+001
      vertex   0.000000e+000 -7.500000e+002 0.000000e+000
    endloop
  endfacet
  facet normal 0.000000e+000 -1.000000e+000 0.000000e+000
    outer loop
      vertex   -1.172033e+002 -7.500000e+002 -7.657274e+001
      vertex   -1.030013e+002 -7.500000e+002 -9.481942e+001
      vertex   0.000000e+000 -7.500000e+002 0.000000e+000
    endloop
  endfacet
  facet normal 0.000000e+000 -1.000000e+000 0.000000e+000
    outer loop
      vertex   -1.030013e+002 -7.500000e+002 -9.481942e+001
      vertex   -8.598978e+001 -7.500000e+002 -1.104797e+002
      vertex   0.000000e+000 -7.500000e+002 0.000000e+000
    endloop
  endfacet
  facet normal 0.000000e+000 -1.000000e+000 0.000000e+000
    outer loop
      vertex   -8.598978e+001 -7.500000e+002 -1.104797e+002
      vertex   -6.663264e+001 -7.500000e+002 -1.231263e+002
      vertex   0.000000e+000 -7.500000e+002 0.000000e+000
    endloop
  endfacet
  facet normal 0.000000e+000 -1.000000e+000 0.000000e+000
    outer loop
      vertex   -6.663264e+001 -7.500000e+002 -1.231263e+002
      vertex   -4.545793e+001 -7.500000e+002 -1.324144e+002
      vertex   0.000000e+000 -7.500000e+002 0.000000e+000
    endloop
  endfacet
  facet normal 0.000000e+000 -1.000000e+000 0.000000e+000
    outer loop
      vertex   -4.545793e+001 -7.500000e+002 -1.324144e+002
      vertex   -2.304324e+001 -7.500000e+002 -1.380906e+002
      vertex   0.000000e+000 -7.500000e+002 0.000000e+000
    endloop
  endfacet
  facet normal 0.000000e+000 -1.000000e+000 0.000000e+000
    outer loop
      vertex   -2.304324e+001 -7.500000e+002 -1.380906e+002
      vertex   -3.429011e-014 -7.500000e+002 -1.400000e+002
      vertex   0.000000e+000 -7.500000e+002 0.000000e+000
    endloop
  endfacet
  facet normal 0.000000e+000 -1.000000e+000 0.000000e+000
    outer loop
      vertex   -3.429011e-014 -7.500000e+002 -1.400000e+002
      vertex   2.304324e+001 -7.500000e+002 -1.380906e+002
      vertex   0.000000e+000 -7.500000e+002 0.000000e+000
    endloop
  endfacet
  facet normal 0.000000e+000 -1.000000e+000 0.000000e+000
    outer loop
      vertex   2.304324e+001 -7.500000e+002 -1.380906e+002
      vertex   4.545793e+001 -7.500000e+002 -1.324144e+002
      vertex   0.000000e+000 -7.500000e+002 0.000000e+000
    endloop
  endfacet
  facet normal 0.000000e+000 -1.000000e+000 0.000000e+000
    outer loop
      vertex   4.545793e+001 -7.500000e+002 -1.324144e+002
      vertex   6.663264e+001 -7.500000e+002 -1.231263e+002
      vertex   0.000000e+000 -7.500000e+002 0.000000e+000
    endloop
  endfacet
  facet normal 0.000000e+000 -1.000000e+000 0.000000e+000
    outer loop
      vertex   6.663264e+001 -7.500000e+002 -1.231263e+002
      vertex   8.598978e+001 -7.500000e+002 -1.104797e+002
      vertex   0.000000e+000 -7.500000e+002 0.000000e+000
    endloop
  endfacet
  facet normal 0.000000e+000 -1.000000e+000 0.000000e+000
    outer loop
      vertex   8.598978e+001 -7.500000e+002 -1.104797e+002
      vertex   1.030013e+002 -7.500000e+002 -9.481942e+001
      vertex   0.000000e+000 -7.500000e+002 0.000000e+000
    endloop
  endfacet
  facet normal 0.000000e+000 -1.000000e+000 0.000000e+000
    outer loop
      vertex   1.030013e+002 -7.500000e+002 -9.481942e+001
      vertex   1.172033e+002 -7.500000e+002 -7.657274e+001
      vertex   0.000000e+000 -7.500000e+002 0.000000e+000
    endloop
  endfacet
  facet normal 0.000000e+000 -1.000000e+000 0.000000e+000
    outer loop
      vertex   1.172033e+002 -7.500000e+002 -7.657274e+001
      vertex   1.282083e+002 -7.500000e+002 -5.623736e+001
      vertex   0.000000e+000 -7.500000e+002 0.000000e+000
    endloop
  endfacet
  facet normal 0.000000e+000 -1.000000e+000 0.000000e+000
    outer loop
      vertex   1.282083e+002 -7.500000e+002 -5.623736e+001
      vertex   1.357160e+002 -7.500000e+002 -3.436797e+001
      vertex   0.000000e+000 -7.500000e+002 0.000000e+000
    endloop
  endfacet
  facet normal 0.000000e+000 -1.000000e+000 0.000000e+000
    outer loop
      vertex   1.357160e+002 -7.500000e+002 -3.436797e+001
      vertex   1.395218e+002 -7.500000e+002 -1.156111e+001
      vertex   0.000000e+000 -7.500000e+002 0.000000e+000
    endloop
  endfacet
  facet normal 0.000000e+000 -1.000000e+000 0.000000e+000
    outer loop
      vertex   1.395218e+002 -7.500000e+002 -1.156111e+001
      vertex   1.400000e+002 -7.500000e+002 -8.572528e-015
      vertex   0.000000e+000 -7.500000e+002 0.000000e+000
    endloop
  endfacet
  facet normal 0.000000e+000 -1.000000e+000 0.000000e+000
    outer loop
      vertex   1.400000e+002 -7.500000e+002 -8.572528e-015
      vertex   1.395218e+002 -7.500000e+002 1.156111e+001
      vertex   0.000000e+000 -7.500000e+002 0.000000e+000
    endloop
  endfacet
endsolid
