solid BaseChumacera
  facet normal -2.407811e-016 0.000000e+000 1.000000e+000
    outer loop
      vertex   2.305461e+002 -8.500000e+001 3.857700e+002
      vertex   2.305461e+002 8.500000e+001 3.857700e+002
      vertex   -2.305461e+002 8.500000e+001 3.857700e+002
    endloop
  endfacet
  facet normal -2.407811e-016 0.000000e+000 1.000000e+000
    outer loop
      vertex   -2.305461e+002 8.500000e+001 3.857700e+002
      vertex   -2.305461e+002 -8.500000e+001 3.857700e+002
      vertex   2.305461e+002 -8.500000e+001 3.857700e+002
    endloop
  endfacet
  facet normal 1.140356e-032 -1.000000e+000 -4.736069e-017
    outer loop
      vertex   2.984935e+002 -8.500000e+001 9.274668e+001
      vertex   2.305461e+002 -8.500000e+001 3.857700e+002
      vertex   -2.305461e+002 -8.500000e+001 3.857700e+002
    endloop
  endfacet
  facet normal 8.807718e-033 -1.000000e+000 -4.736069e-017
    outer loop
      vertex   -2.305461e+002 -8.500000e+001 3.857700e+002
      vertex   -2.984935e+002 -8.500000e+001 9.274668e+001
      vertex   2.984935e+002 -8.500000e+001 9.274668e+001
    endloop
  endfacet
  facet normal -5.504824e-033 1.000000e+000 4.736069e-017
    outer loop
      vertex   2.984935e+002 8.500000e+001 9.274668e+001
      vertex   -2.984935e+002 8.500000e+001 9.274668e+001
      vertex   -2.305461e+002 8.500000e+001 3.857700e+002
    endloop
  endfacet
  facet normal -1.140356e-032 1.000000e+000 4.736069e-017
    outer loop
      vertex   -2.305461e+002 8.500000e+001 3.857700e+002
      vertex   2.305461e+002 8.500000e+001 3.857700e+002
      vertex   2.984935e+002 8.500000e+001 9.274668e+001
    endloop
  endfacet
  facet normal 9.741527e-001 -3.969901e-015 2.258905e-001
    outer loop
      vertex   2.984935e+002 8.500000e+001 9.274668e+001
      vertex   2.305461e+002 8.500000e+001 3.857700e+002
      vertex   2.420865e+002 7.628381e+001 3.360022e+002
    endloop
  endfacet
  facet normal 9.741527e-001 0.000000e+000 2.258905e-001
    outer loop
      vertex   2.305461e+002 -8.500000e+001 3.857700e+002
      vertex   2.420865e+002 -7.682961e+001 3.360022e+002
      vertex   2.420865e+002 7.628381e+001 3.360022e+002
    endloop
  endfacet
  facet normal 9.741527e-001 0.000000e+000 2.258905e-001
    outer loop
      vertex   2.420865e+002 7.628381e+001 3.360022e+002
      vertex   2.305461e+002 8.500000e+001 3.857700e+002
      vertex   2.305461e+002 -8.500000e+001 3.857700e+002
    endloop
  endfacet
  facet normal 9.741527e-001 -0.000000e+000 2.258905e-001
    outer loop
      vertex   2.984935e+002 -8.500000e+001 9.274668e+001
      vertex   2.984935e+002 -7.682961e+001 9.274668e+001
      vertex   2.420865e+002 -7.682961e+001 3.360022e+002
    endloop
  endfacet
  facet normal 9.741527e-001 5.293875e-015 2.258905e-001
    outer loop
      vertex   2.420865e+002 -7.682961e+001 3.360022e+002
      vertex   2.305461e+002 -8.500000e+001 3.857700e+002
      vertex   2.984935e+002 -8.500000e+001 9.274668e+001
    endloop
  endfacet
  facet normal 9.741527e-001 0.000000e+000 2.258905e-001
    outer loop
      vertex   2.420865e+002 7.628381e+001 3.360022e+002
      vertex   2.984935e+002 7.628381e+001 9.274668e+001
      vertex   2.984935e+002 8.500000e+001 9.274668e+001
    endloop
  endfacet
  facet normal 1.151242e-016 -1.000000e+000 -4.964733e-016
    outer loop
      vertex   2.420865e+002 7.628381e+001 3.360022e+002
      vertex   2.226034e+002 7.628381e+001 3.314844e+002
      vertex   2.779629e+002 7.628381e+001 9.274668e+001
    endloop
  endfacet
  facet normal -4.731680e-015 -1.000000e+000 -1.211302e-015
    outer loop
      vertex   2.779629e+002 7.628381e+001 9.274668e+001
      vertex   2.984935e+002 7.628381e+001 9.274668e+001
      vertex   2.420865e+002 7.628381e+001 3.360022e+002
    endloop
  endfacet
  facet normal 2.258905e-001 0.000000e+000 -9.741527e-001
    outer loop
      vertex   2.226034e+002 7.628381e+001 3.314844e+002
      vertex   2.420865e+002 7.628381e+001 3.360022e+002
      vertex   2.420865e+002 -7.682961e+001 3.360022e+002
    endloop
  endfacet
  facet normal 2.258905e-001 0.000000e+000 -9.741527e-001
    outer loop
      vertex   2.420865e+002 -7.682961e+001 3.360022e+002
      vertex   2.226034e+002 -7.682961e+001 3.314844e+002
      vertex   2.226034e+002 7.628381e+001 3.314844e+002
    endloop
  endfacet
  facet normal 0.000000e+000 1.000000e+000 0.000000e+000
    outer loop
      vertex   2.420865e+002 -7.682961e+001 3.360022e+002
      vertex   2.984935e+002 -7.682961e+001 9.274668e+001
      vertex   2.779629e+002 -7.682961e+001 9.274668e+001
    endloop
  endfacet
  facet normal 0.000000e+000 1.000000e+000 0.000000e+000
    outer loop
      vertex   2.779629e+002 -7.682961e+001 9.274668e+001
      vertex   2.226034e+002 -7.682961e+001 3.314844e+002
      vertex   2.420865e+002 -7.682961e+001 3.360022e+002
    endloop
  endfacet
  facet normal 9.741527e-001 -0.000000e+000 2.258905e-001
    outer loop
      vertex   2.779629e+002 -7.682961e+001 9.274668e+001
      vertex   2.779629e+002 7.628381e+001 9.274668e+001
      vertex   2.226034e+002 7.628381e+001 3.314844e+002
    endloop
  endfacet
  facet normal 9.741527e-001 0.000000e+000 2.258905e-001
    outer loop
      vertex   2.226034e+002 7.628381e+001 3.314844e+002
      vertex   2.226034e+002 -7.682961e+001 3.314844e+002
      vertex   2.779629e+002 -7.682961e+001 9.274668e+001
    endloop
  endfacet
  facet normal 1.747437e-016 0.000000e+000 -1.000000e+000
    outer loop
      vertex   2.779629e+002 7.628381e+001 9.274668e+001
      vertex   2.779629e+002 -7.682961e+001 9.274668e+001
      vertex   -2.779629e+002 -7.628381e+001 9.274668e+001
    endloop
  endfacet
  facet normal -1.351908e-015 0.000000e+000 -1.000000e+000
    outer loop
      vertex   -2.984935e+002 -8.500000e+001 9.274668e+001
      vertex   -2.984935e+002 -7.628381e+001 9.274668e+001
      vertex   -2.779629e+002 -7.628381e+001 9.274668e+001
    endloop
  endfacet
  facet normal 1.162319e-016 2.920691e-016 -1.000000e+000
    outer loop
      vertex   2.984935e+002 -8.500000e+001 9.274668e+001
      vertex   -2.984935e+002 -8.500000e+001 9.274668e+001
      vertex   2.779629e+002 -7.682961e+001 9.274668e+001
    endloop
  endfacet
  facet normal 1.712214e-016 -3.587676e-015 -1.000000e+000
    outer loop
      vertex   -2.779629e+002 -7.628381e+001 9.274668e+001
      vertex   2.779629e+002 -7.682961e+001 9.274668e+001
      vertex   -2.984935e+002 -8.500000e+001 9.274668e+001
    endloop
  endfacet
  facet normal 1.248687e-016 1.817343e-016 -1.000000e+000
    outer loop
      vertex   -2.779629e+002 -7.628381e+001 9.274668e+001
      vertex   -2.779629e+002 7.644232e+001 9.274668e+001
      vertex   2.779629e+002 7.628381e+001 9.274668e+001
    endloop
  endfacet
  facet normal 0.000000e+000 -0.000000e+000 -1.000000e+000
    outer loop
      vertex   2.984935e+002 8.500000e+001 9.274668e+001
      vertex   2.984935e+002 7.628381e+001 9.274668e+001
      vertex   2.779629e+002 7.628381e+001 9.274668e+001
    endloop
  endfacet
  facet normal 1.162319e-016 2.788511e-016 -1.000000e+000
    outer loop
      vertex   -2.984935e+002 8.500000e+001 9.274668e+001
      vertex   2.984935e+002 8.500000e+001 9.274668e+001
      vertex   -2.779629e+002 7.644232e+001 9.274668e+001
    endloop
  endfacet
  facet normal 1.247332e-016 -2.938043e-016 -1.000000e+000
    outer loop
      vertex   2.779629e+002 7.628381e+001 9.274668e+001
      vertex   -2.779629e+002 7.644232e+001 9.274668e+001
      vertex   2.984935e+002 8.500000e+001 9.274668e+001
    endloop
  endfacet
  facet normal 0.000000e+000 0.000000e+000 -1.000000e+000
    outer loop
      vertex   2.779629e+002 -7.682961e+001 9.274668e+001
      vertex   2.984935e+002 -7.682961e+001 9.274668e+001
      vertex   2.984935e+002 -8.500000e+001 9.274668e+001
    endloop
  endfacet
  facet normal 6.753732e-016 1.620283e-015 -1.000000e+000
    outer loop
      vertex   -2.779629e+002 7.644232e+001 9.274668e+001
      vertex   -2.984935e+002 7.643496e+001 9.274668e+001
      vertex   -2.984935e+002 8.500000e+001 9.274668e+001
    endloop
  endfacet
  facet normal -9.741527e-001 -1.323300e-015 2.258905e-001
    outer loop
      vertex   -2.984935e+002 -8.500000e+001 9.274668e+001
      vertex   -2.305461e+002 -8.500000e+001 3.857700e+002
      vertex   -2.423401e+002 -7.628381e+001 3.349085e+002
    endloop
  endfacet
  facet normal -9.741527e-001 0.000000e+000 2.258905e-001
    outer loop
      vertex   -2.305461e+002 8.500000e+001 3.857700e+002
      vertex   -2.423401e+002 7.682961e+001 3.349085e+002
      vertex   -2.423401e+002 -7.628381e+001 3.349085e+002
    endloop
  endfacet
  facet normal -9.741527e-001 0.000000e+000 2.258905e-001
    outer loop
      vertex   -2.423401e+002 -7.628381e+001 3.349085e+002
      vertex   -2.305461e+002 -8.500000e+001 3.857700e+002
      vertex   -2.305461e+002 8.500000e+001 3.857700e+002
    endloop
  endfacet
  facet normal -9.741527e-001 -3.660065e-016 2.258905e-001
    outer loop
      vertex   -2.984935e+002 8.500000e+001 9.274668e+001
      vertex   -2.984935e+002 7.643496e+001 9.274668e+001
      vertex   -2.423401e+002 7.682961e+001 3.349085e+002
    endloop
  endfacet
  facet normal -9.741527e-001 1.058775e-015 2.258905e-001
    outer loop
      vertex   -2.423401e+002 7.682961e+001 3.349085e+002
      vertex   -2.305461e+002 8.500000e+001 3.857700e+002
      vertex   -2.984935e+002 8.500000e+001 9.274668e+001
    endloop
  endfacet
  facet normal -9.741527e-001 0.000000e+000 2.258905e-001
    outer loop
      vertex   -2.423401e+002 -7.628381e+001 3.349085e+002
      vertex   -2.984935e+002 -7.628381e+001 9.274668e+001
      vertex   -2.984935e+002 -8.500000e+001 9.274668e+001
    endloop
  endfacet
  facet normal 0.000000e+000 1.000000e+000 0.000000e+000
    outer loop
      vertex   -2.423401e+002 -7.628381e+001 3.349085e+002
      vertex   -2.228570e+002 -7.628381e+001 3.303907e+002
      vertex   -2.779629e+002 -7.628381e+001 9.274668e+001
    endloop
  endfacet
  facet normal -1.351908e-015 1.000000e+000 1.988702e-016
    outer loop
      vertex   -2.779629e+002 -7.628381e+001 9.274668e+001
      vertex   -2.984935e+002 -7.628381e+001 9.274668e+001
      vertex   -2.423401e+002 -7.628381e+001 3.349085e+002
    endloop
  endfacet
  facet normal -2.258905e-001 0.000000e+000 -9.741527e-001
    outer loop
      vertex   -2.228570e+002 -7.628381e+001 3.303907e+002
      vertex   -2.423401e+002 -7.628381e+001 3.349085e+002
      vertex   -2.423401e+002 7.682961e+001 3.349085e+002
    endloop
  endfacet
  facet normal -2.258905e-001 0.000000e+000 -9.741527e-001
    outer loop
      vertex   -2.423401e+002 7.682961e+001 3.349085e+002
      vertex   -2.228570e+002 7.682961e+001 3.303907e+002
      vertex   -2.228570e+002 -7.628381e+001 3.303907e+002
    endloop
  endfacet
  facet normal 3.586184e-004 -9.999987e-001 1.546542e-003
    outer loop
      vertex   -2.423401e+002 7.682961e+001 3.349085e+002
      vertex   -2.984935e+002 7.643496e+001 9.274668e+001
      vertex   -2.779629e+002 7.644232e+001 9.274668e+001
    endloop
  endfacet
  facet normal 3.586184e-004 -9.999987e-001 1.546542e-003
    outer loop
      vertex   -2.779629e+002 7.644232e+001 9.274668e+001
      vertex   -2.228570e+002 7.682961e+001 3.303907e+002
      vertex   -2.423401e+002 7.682961e+001 3.349085e+002
    endloop
  endfacet
  facet normal -9.741527e-001 0.000000e+000 2.258905e-001
    outer loop
      vertex   -2.228570e+002 -7.628381e+001 3.303907e+002
      vertex   -2.228570e+002 7.682961e+001 3.303907e+002
      vertex   -2.779629e+002 7.644232e+001 9.274668e+001
    endloop
  endfacet
  facet normal -9.741527e-001 -4.105205e-017 2.258905e-001
    outer loop
      vertex   -2.779629e+002 7.644232e+001 9.274668e+001
      vertex   -2.779629e+002 -7.628381e+001 9.274668e+001
      vertex   -2.228570e+002 -7.628381e+001 3.303907e+002
    endloop
  endfacet
endsolid
