solid Eje
  facet normal -1.000000e+000 0.000000e+000 1.797715e-015
    outer loop
      vertex   1.400000e+001 -3.210000e+003 4.900000e+001
      vertex   1.400000e+001 -3.210000e+003 6.347440e+001
      vertex   1.400000e+001 3.210000e+003 6.347440e+001
    endloop
  endfacet
  facet normal -1.000000e+000 0.000000e+000 1.797715e-015
    outer loop
      vertex   1.400000e+001 3.210000e+003 6.347440e+001
      vertex   1.400000e+001 3.210000e+003 4.900000e+001
      vertex   1.400000e+001 -3.210000e+003 4.900000e+001
    endloop
  endfacet
  facet normal 3.793702e-001 0.000000e+000 9.252450e-001
    outer loop
      vertex   1.400000e+001 3.210000e+003 6.347440e+001
      vertex   1.400000e+001 -3.210000e+003 6.347440e+001
      vertex   3.459015e+001 -3.210000e+003 5.503200e+001
    endloop
  endfacet
  facet normal 6.692323e-001 0.000000e+000 7.430532e-001
    outer loop
      vertex   3.459015e+001 3.210000e+003 5.503200e+001
      vertex   3.459015e+001 -3.210000e+003 5.503200e+001
      vertex   5.112586e+001 -3.210000e+003 4.013908e+001
    endloop
  endfacet
  facet normal 8.806511e-001 0.000000e+000 4.737654e-001
    outer loop
      vertex   5.112586e+001 3.210000e+003 4.013908e+001
      vertex   5.112586e+001 -3.210000e+003 4.013908e+001
      vertex   6.166891e+001 -3.210000e+003 2.054131e+001
    endloop
  endfacet
  facet normal 9.888454e-001 0.000000e+000 1.489456e-001
    outer loop
      vertex   6.166891e+001 3.210000e+003 2.054131e+001
      vertex   6.166891e+001 -3.210000e+003 2.054131e+001
      vertex   6.498351e+001 -3.210000e+003 -1.464191e+000
    endloop
  endfacet
  facet normal 9.811333e-001 0.000000e+000 -1.933326e-001
    outer loop
      vertex   6.498351e+001 3.210000e+003 -1.464191e+000
      vertex   6.498351e+001 -3.210000e+003 -1.464191e+000
      vertex   6.068113e+001 -3.210000e+003 -2.329807e+001
    endloop
  endfacet
  facet normal 8.584187e-001 0.000000e+000 -5.129496e-001
    outer loop
      vertex   6.068113e+001 3.210000e+003 -2.329807e+001
      vertex   6.068113e+001 -3.210000e+003 -2.329807e+001
      vertex   4.926609e+001 -3.210000e+003 -4.240109e+001
    endloop
  endfacet
  facet normal 6.350856e-001 0.000000e+000 -7.724418e-001
    outer loop
      vertex   4.926609e+001 3.210000e+003 -4.240109e+001
      vertex   4.926609e+001 -3.210000e+003 -4.240109e+001
      vertex   3.207638e+001 -3.210000e+003 -5.653411e+001
    endloop
  endfacet
  facet normal 3.373116e-001 0.000000e+000 -9.413931e-001
    outer loop
      vertex   3.207638e+001 3.210000e+003 -5.653411e+001
      vertex   3.207638e+001 -3.210000e+003 -5.653411e+001
      vertex   1.112687e+001 -3.210000e+003 -6.404056e+001
    endloop
  endfacet
  facet normal 0.000000e+000 -0.000000e+000 -1.000000e+000
    outer loop
      vertex   1.112687e+001 3.210000e+003 -6.404056e+001
      vertex   1.112687e+001 -3.210000e+003 -6.404056e+001
      vertex   -1.112687e+001 -3.210000e+003 -6.404056e+001
    endloop
  endfacet
  facet normal -3.373116e-001 -0.000000e+000 -9.413931e-001
    outer loop
      vertex   -1.112687e+001 3.210000e+003 -6.404056e+001
      vertex   -1.112687e+001 -3.210000e+003 -6.404056e+001
      vertex   -3.207638e+001 -3.210000e+003 -5.653411e+001
    endloop
  endfacet
  facet normal -6.350856e-001 -0.000000e+000 -7.724418e-001
    outer loop
      vertex   -3.207638e+001 3.210000e+003 -5.653411e+001
      vertex   -3.207638e+001 -3.210000e+003 -5.653411e+001
      vertex   -4.926609e+001 -3.210000e+003 -4.240109e+001
    endloop
  endfacet
  facet normal -8.584187e-001 -0.000000e+000 -5.129496e-001
    outer loop
      vertex   -4.926609e+001 3.210000e+003 -4.240109e+001
      vertex   -4.926609e+001 -3.210000e+003 -4.240109e+001
      vertex   -6.068113e+001 -3.210000e+003 -2.329807e+001
    endloop
  endfacet
  facet normal -9.811333e-001 -0.000000e+000 -1.933326e-001
    outer loop
      vertex   -6.068113e+001 3.210000e+003 -2.329807e+001
      vertex   -6.068113e+001 -3.210000e+003 -2.329807e+001
      vertex   -6.498351e+001 -3.210000e+003 -1.464191e+000
    endloop
  endfacet
  facet normal -9.888454e-001 0.000000e+000 1.489456e-001
    outer loop
      vertex   -6.498351e+001 3.210000e+003 -1.464191e+000
      vertex   -6.498351e+001 -3.210000e+003 -1.464191e+000
      vertex   -6.166891e+001 -3.210000e+003 2.054131e+001
    endloop
  endfacet
  facet normal -8.806511e-001 0.000000e+000 4.737654e-001
    outer loop
      vertex   -6.166891e+001 3.210000e+003 2.054131e+001
      vertex   -6.166891e+001 -3.210000e+003 2.054131e+001
      vertex   -5.112586e+001 -3.210000e+003 4.013908e+001
    endloop
  endfacet
  facet normal -6.692323e-001 0.000000e+000 7.430532e-001
    outer loop
      vertex   -5.112586e+001 3.210000e+003 4.013908e+001
      vertex   -5.112586e+001 -3.210000e+003 4.013908e+001
      vertex   -3.459015e+001 -3.210000e+003 5.503200e+001
    endloop
  endfacet
  facet normal -3.793702e-001 0.000000e+000 9.252450e-001
    outer loop
      vertex   -3.459015e+001 3.210000e+003 5.503200e+001
      vertex   -3.459015e+001 -3.210000e+003 5.503200e+001
      vertex   -1.400000e+001 -3.210000e+003 6.347440e+001
    endloop
  endfacet
  facet normal -3.793702e-001 0.000000e+000 9.252450e-001
    outer loop
      vertex   -1.400000e+001 -3.210000e+003 6.347440e+001
      vertex   -1.400000e+001 3.210000e+003 6.347440e+001
      vertex   -3.459015e+001 3.210000e+003 5.503200e+001
    endloop
  endfacet
  facet normal -6.692323e-001 0.000000e+000 7.430532e-001
    outer loop
      vertex   -3.459015e+001 -3.210000e+003 5.503200e+001
      vertex   -3.459015e+001 3.210000e+003 5.503200e+001
      vertex   -5.112586e+001 3.210000e+003 4.013908e+001
    endloop
  endfacet
  facet normal -8.806511e-001 0.000000e+000 4.737654e-001
    outer loop
      vertex   -5.112586e+001 -3.210000e+003 4.013908e+001
      vertex   -5.112586e+001 3.210000e+003 4.013908e+001
      vertex   -6.166891e+001 3.210000e+003 2.054131e+001
    endloop
  endfacet
  facet normal -9.888454e-001 0.000000e+000 1.489456e-001
    outer loop
      vertex   -6.166891e+001 -3.210000e+003 2.054131e+001
      vertex   -6.166891e+001 3.210000e+003 2.054131e+001
      vertex   -6.498351e+001 3.210000e+003 -1.464191e+000
    endloop
  endfacet
  facet normal -9.811333e-001 0.000000e+000 -1.933326e-001
    outer loop
      vertex   -6.498351e+001 -3.210000e+003 -1.464191e+000
      vertex   -6.498351e+001 3.210000e+003 -1.464191e+000
      vertex   -6.068113e+001 3.210000e+003 -2.329807e+001
    endloop
  endfacet
  facet normal -8.584187e-001 0.000000e+000 -5.129496e-001
    outer loop
      vertex   -6.068113e+001 -3.210000e+003 -2.329807e+001
      vertex   -6.068113e+001 3.210000e+003 -2.329807e+001
      vertex   -4.926609e+001 3.210000e+003 -4.240109e+001
    endloop
  endfacet
  facet normal -6.350856e-001 0.000000e+000 -7.724418e-001
    outer loop
      vertex   -4.926609e+001 -3.210000e+003 -4.240109e+001
      vertex   -4.926609e+001 3.210000e+003 -4.240109e+001
      vertex   -3.207638e+001 3.210000e+003 -5.653411e+001
    endloop
  endfacet
  facet normal -3.373116e-001 0.000000e+000 -9.413931e-001
    outer loop
      vertex   -3.207638e+001 -3.210000e+003 -5.653411e+001
      vertex   -3.207638e+001 3.210000e+003 -5.653411e+001
      vertex   -1.112687e+001 3.210000e+003 -6.404056e+001
    endloop
  endfacet
  facet normal 0.000000e+000 0.000000e+000 -1.000000e+000
    outer loop
      vertex   -1.112687e+001 -3.210000e+003 -6.404056e+001
      vertex   -1.112687e+001 3.210000e+003 -6.404056e+001
      vertex   1.112687e+001 3.210000e+003 -6.404056e+001
    endloop
  endfacet
  facet normal 3.373116e-001 0.000000e+000 -9.413931e-001
    outer loop
      vertex   1.112687e+001 -3.210000e+003 -6.404056e+001
      vertex   1.112687e+001 3.210000e+003 -6.404056e+001
      vertex   3.207638e+001 3.210000e+003 -5.653411e+001
    endloop
  endfacet
  facet normal 6.350856e-001 0.000000e+000 -7.724418e-001
    outer loop
      vertex   3.207638e+001 -3.210000e+003 -5.653411e+001
      vertex   3.207638e+001 3.210000e+003 -5.653411e+001
      vertex   4.926609e+001 3.210000e+003 -4.240109e+001
    endloop
  endfacet
  facet normal 8.584187e-001 0.000000e+000 -5.129496e-001
    outer loop
      vertex   4.926609e+001 -3.210000e+003 -4.240109e+001
      vertex   4.926609e+001 3.210000e+003 -4.240109e+001
      vertex   6.068113e+001 3.210000e+003 -2.329807e+001
    endloop
  endfacet
  facet normal 9.811333e-001 0.000000e+000 -1.933326e-001
    outer loop
      vertex   6.068113e+001 -3.210000e+003 -2.329807e+001
      vertex   6.068113e+001 3.210000e+003 -2.329807e+001
      vertex   6.498351e+001 3.210000e+003 -1.464191e+000
    endloop
  endfacet
  facet normal 9.888454e-001 -0.000000e+000 1.489456e-001
    outer loop
      vertex   6.498351e+001 -3.210000e+003 -1.464191e+000
      vertex   6.498351e+001 3.210000e+003 -1.464191e+000
      vertex   6.166891e+001 3.210000e+003 2.054131e+001
    endloop
  endfacet
  facet normal 8.806511e-001 -0.000000e+000 4.737654e-001
    outer loop
      vertex   6.166891e+001 -3.210000e+003 2.054131e+001
      vertex   6.166891e+001 3.210000e+003 2.054131e+001
      vertex   5.112586e+001 3.210000e+003 4.013908e+001
    endloop
  endfacet
  facet normal 6.692323e-001 -0.000000e+000 7.430532e-001
    outer loop
      vertex   5.112586e+001 -3.210000e+003 4.013908e+001
      vertex   5.112586e+001 3.210000e+003 4.013908e+001
      vertex   3.459015e+001 3.210000e+003 5.503200e+001
    endloop
  endfacet
  facet normal 3.793702e-001 -0.000000e+000 9.252450e-001
    outer loop
      vertex   3.459015e+001 -3.210000e+003 5.503200e+001
      vertex   3.459015e+001 3.210000e+003 5.503200e+001
      vertex   1.400000e+001 3.210000e+003 6.347440e+001
    endloop
  endfacet
  facet normal 1.000000e+000 -0.000000e+000 2.516801e-015
    outer loop
      vertex   -1.400000e+001 -3.210000e+003 4.900000e+001
      vertex   -1.400000e+001 3.210000e+003 4.900000e+001
      vertex   -1.400000e+001 3.210000e+003 6.347440e+001
    endloop
  endfacet
  facet normal 1.000000e+000 0.000000e+000 2.516801e-015
    outer loop
      vertex   -1.400000e+001 3.210000e+003 6.347440e+001
      vertex   -1.400000e+001 -3.210000e+003 6.347440e+001
      vertex   -1.400000e+001 -3.210000e+003 4.900000e+001
    endloop
  endfacet
  facet normal 0.000000e+000 -0.000000e+000 1.000000e+000
    outer loop
      vertex   1.400000e+001 -3.210000e+003 4.900000e+001
      vertex   1.400000e+001 3.210000e+003 4.900000e+001
      vertex   -1.400000e+001 3.210000e+003 4.900000e+001
    endloop
  endfacet
  facet normal 0.000000e+000 0.000000e+000 1.000000e+000
    outer loop
      vertex   -1.400000e+001 3.210000e+003 4.900000e+001
      vertex   -1.400000e+001 -3.210000e+003 4.900000e+001
      vertex   1.400000e+001 -3.210000e+003 4.900000e+001
    endloop
  endfacet
  facet normal 0.000000e+000 -1.000000e+000 0.000000e+000
    outer loop
      vertex   -1.400000e+001 -3.210000e+003 4.900000e+001
      vertex   1.112687e+001 -3.210000e+003 -6.404056e+001
      vertex   3.207638e+001 -3.210000e+003 -5.653411e+001
    endloop
  endfacet
  facet normal 0.000000e+000 -1.000000e+000 0.000000e+000
    outer loop
      vertex   -1.400000e+001 -3.210000e+003 4.900000e+001
      vertex   -1.112687e+001 -3.210000e+003 -6.404056e+001
      vertex   1.112687e+001 -3.210000e+003 -6.404056e+001
    endloop
  endfacet
  facet normal 0.000000e+000 -1.000000e+000 -0.000000e+000
    outer loop
      vertex   -1.400000e+001 -3.210000e+003 4.900000e+001
      vertex   -3.207638e+001 -3.210000e+003 -5.653411e+001
      vertex   -1.112687e+001 -3.210000e+003 -6.404056e+001
    endloop
  endfacet
  facet normal 0.000000e+000 -1.000000e+000 0.000000e+000
    outer loop
      vertex   6.068113e+001 -3.210000e+003 -2.329807e+001
      vertex   6.498351e+001 -3.210000e+003 -1.464191e+000
      vertex   1.400000e+001 -3.210000e+003 4.900000e+001
    endloop
  endfacet
  facet normal 0.000000e+000 -1.000000e+000 0.000000e+000
    outer loop
      vertex   -1.400000e+001 -3.210000e+003 4.900000e+001
      vertex   -4.926609e+001 -3.210000e+003 -4.240109e+001
      vertex   -3.207638e+001 -3.210000e+003 -5.653411e+001
    endloop
  endfacet
  facet normal 0.000000e+000 -1.000000e+000 0.000000e+000
    outer loop
      vertex   -1.400000e+001 -3.210000e+003 4.900000e+001
      vertex   -6.498351e+001 -3.210000e+003 -1.464191e+000
      vertex   -6.068113e+001 -3.210000e+003 -2.329807e+001
    endloop
  endfacet
  facet normal 0.000000e+000 -1.000000e+000 0.000000e+000
    outer loop
      vertex   -1.400000e+001 -3.210000e+003 4.900000e+001
      vertex   -5.112586e+001 -3.210000e+003 4.013908e+001
      vertex   -6.166891e+001 -3.210000e+003 2.054131e+001
    endloop
  endfacet
  facet normal 0.000000e+000 -1.000000e+000 0.000000e+000
    outer loop
      vertex   -1.400000e+001 -3.210000e+003 4.900000e+001
      vertex   -1.400000e+001 -3.210000e+003 6.347440e+001
      vertex   -3.459015e+001 -3.210000e+003 5.503200e+001
    endloop
  endfacet
  facet normal 0.000000e+000 -1.000000e+000 0.000000e+000
    outer loop
      vertex   -1.400000e+001 -3.210000e+003 4.900000e+001
      vertex   4.926609e+001 -3.210000e+003 -4.240109e+001
      vertex   6.068113e+001 -3.210000e+003 -2.329807e+001
    endloop
  endfacet
  facet normal 0.000000e+000 -1.000000e+000 0.000000e+000
    outer loop
      vertex   -6.068113e+001 -3.210000e+003 -2.329807e+001
      vertex   -4.926609e+001 -3.210000e+003 -4.240109e+001
      vertex   -1.400000e+001 -3.210000e+003 4.900000e+001
    endloop
  endfacet
  facet normal 0.000000e+000 -1.000000e+000 -0.000000e+000
    outer loop
      vertex   -3.459015e+001 -3.210000e+003 5.503200e+001
      vertex   -5.112586e+001 -3.210000e+003 4.013908e+001
      vertex   -1.400000e+001 -3.210000e+003 4.900000e+001
    endloop
  endfacet
  facet normal 0.000000e+000 -1.000000e+000 0.000000e+000
    outer loop
      vertex   3.207638e+001 -3.210000e+003 -5.653411e+001
      vertex   4.926609e+001 -3.210000e+003 -4.240109e+001
      vertex   -1.400000e+001 -3.210000e+003 4.900000e+001
    endloop
  endfacet
  facet normal 0.000000e+000 -1.000000e+000 0.000000e+000
    outer loop
      vertex   1.400000e+001 -3.210000e+003 4.900000e+001
      vertex   5.112586e+001 -3.210000e+003 4.013908e+001
      vertex   3.459015e+001 -3.210000e+003 5.503200e+001
    endloop
  endfacet
  facet normal 0.000000e+000 -1.000000e+000 0.000000e+000
    outer loop
      vertex   1.400000e+001 -3.210000e+003 4.900000e+001
      vertex   6.498351e+001 -3.210000e+003 -1.464191e+000
      vertex   6.166891e+001 -3.210000e+003 2.054131e+001
    endloop
  endfacet
  facet normal -0.000000e+000 -1.000000e+000 -0.000000e+000
    outer loop
      vertex   1.400000e+001 -3.210000e+003 4.900000e+001
      vertex   -1.400000e+001 -3.210000e+003 4.900000e+001
      vertex   6.068113e+001 -3.210000e+003 -2.329807e+001
    endloop
  endfacet
  facet normal 0.000000e+000 -1.000000e+000 0.000000e+000
    outer loop
      vertex   6.166891e+001 -3.210000e+003 2.054131e+001
      vertex   5.112586e+001 -3.210000e+003 4.013908e+001
      vertex   1.400000e+001 -3.210000e+003 4.900000e+001
    endloop
  endfacet
  facet normal -0.000000e+000 -1.000000e+000 0.000000e+000
    outer loop
      vertex   3.459015e+001 -3.210000e+003 5.503200e+001
      vertex   1.400000e+001 -3.210000e+003 6.347440e+001
      vertex   1.400000e+001 -3.210000e+003 4.900000e+001
    endloop
  endfacet
  facet normal 0.000000e+000 -1.000000e+000 -0.000000e+000
    outer loop
      vertex   -6.166891e+001 -3.210000e+003 2.054131e+001
      vertex   -6.498351e+001 -3.210000e+003 -1.464191e+000
      vertex   -1.400000e+001 -3.210000e+003 4.900000e+001
    endloop
  endfacet
  facet normal -5.682370e-015 1.000000e+000 -1.585876e-014
    outer loop
      vertex   -1.400000e+001 3.210000e+003 4.900000e+001
      vertex   -1.112687e+001 3.210000e+003 -6.404056e+001
      vertex   -3.207638e+001 3.210000e+003 -5.653411e+001
    endloop
  endfacet
  facet normal 0.000000e+000 1.000000e+000 -1.571433e-014
    outer loop
      vertex   -1.400000e+001 3.210000e+003 4.900000e+001
      vertex   1.112687e+001 3.210000e+003 -6.404056e+001
      vertex   -1.112687e+001 3.210000e+003 -6.404056e+001
    endloop
  endfacet
  facet normal 1.018347e-014 1.000000e+000 -1.238594e-014
    outer loop
      vertex   -1.400000e+001 3.210000e+003 4.900000e+001
      vertex   4.926609e+001 3.210000e+003 -4.240109e+001
      vertex   3.207638e+001 3.210000e+003 -5.653411e+001
    endloop
  endfacet
  facet normal -1.976300e-014 1.000000e+000 -1.180941e-014
    outer loop
      vertex   -1.400000e+001 3.210000e+003 4.900000e+001
      vertex   -4.926609e+001 3.210000e+003 -4.240109e+001
      vertex   -6.068113e+001 3.210000e+003 -2.329807e+001
    endloop
  endfacet
  facet normal 5.215246e-015 1.000000e+000 -1.455508e-014
    outer loop
      vertex   3.207638e+001 3.210000e+003 -5.653411e+001
      vertex   1.112687e+001 3.210000e+003 -6.404056e+001
      vertex   -1.400000e+001 3.210000e+003 4.900000e+001
    endloop
  endfacet
  facet normal 0.000000e+000 1.000000e+000 -2.456991e-014
    outer loop
      vertex   6.068113e+001 3.210000e+003 -2.329807e+001
      vertex   -1.400000e+001 3.210000e+003 4.900000e+001
      vertex   1.400000e+001 3.210000e+003 4.900000e+001
    endloop
  endfacet
  facet normal -1.213065e-014 1.000000e+000 -1.475427e-014
    outer loop
      vertex   -3.207638e+001 3.210000e+003 -5.653411e+001
      vertex   -4.926609e+001 3.210000e+003 -4.240109e+001
      vertex   -1.400000e+001 3.210000e+003 4.900000e+001
    endloop
  endfacet
  facet normal 2.915526e-014 1.000000e+000 -5.745054e-015
    outer loop
      vertex   1.400000e+001 3.210000e+003 4.900000e+001
      vertex   6.498351e+001 3.210000e+003 -1.464191e+000
      vertex   6.068113e+001 3.210000e+003 -2.329807e+001
    endloop
  endfacet
  facet normal -6.509776e-014 1.000000e+000 7.227849e-014
    outer loop
      vertex   -1.400000e+001 3.210000e+003 4.900000e+001
      vertex   -5.112586e+001 3.210000e+003 4.013908e+001
      vertex   -3.459015e+001 3.210000e+003 5.503200e+001
    endloop
  endfacet
  facet normal -4.094658e-014 1.000000e+000 6.167611e-015
    outer loop
      vertex   -1.400000e+001 3.210000e+003 4.900000e+001
      vertex   -6.498351e+001 3.210000e+003 -1.464191e+000
      vertex   -6.166891e+001 3.210000e+003 2.054131e+001
    endloop
  endfacet
  facet normal 5.489539e-014 1.000000e+000 2.953217e-014
    outer loop
      vertex   1.400000e+001 3.210000e+003 4.900000e+001
      vertex   5.112586e+001 3.210000e+003 4.013908e+001
      vertex   6.166891e+001 3.210000e+003 2.054131e+001
    endloop
  endfacet
  facet normal 8.627215e-014 1.000000e+000 -1.550927e-028
    outer loop
      vertex   1.400000e+001 3.210000e+003 4.900000e+001
      vertex   1.400000e+001 3.210000e+003 6.347440e+001
      vertex   3.459015e+001 3.210000e+003 5.503200e+001
    endloop
  endfacet
  facet normal 1.506882e-014 1.000000e+000 -9.004398e-015
    outer loop
      vertex   6.068113e+001 3.210000e+003 -2.329807e+001
      vertex   4.926609e+001 3.210000e+003 -4.240109e+001
      vertex   -1.400000e+001 3.210000e+003 4.900000e+001
    endloop
  endfacet
  facet normal -5.489539e-014 1.000000e+000 2.953217e-014
    outer loop
      vertex   -6.166891e+001 3.210000e+003 2.054131e+001
      vertex   -5.112586e+001 3.210000e+003 4.013908e+001
      vertex   -1.400000e+001 3.210000e+003 4.900000e+001
    endloop
  endfacet
  facet normal 6.509776e-014 1.000000e+000 7.227849e-014
    outer loop
      vertex   3.459015e+001 3.210000e+003 5.503200e+001
      vertex   5.112586e+001 3.210000e+003 4.013908e+001
      vertex   1.400000e+001 3.210000e+003 4.900000e+001
    endloop
  endfacet
  facet normal -8.627215e-014 1.000000e+000 -2.067903e-028
    outer loop
      vertex   -3.459015e+001 3.210000e+003 5.503200e+001
      vertex   -1.400000e+001 3.210000e+003 6.347440e+001
      vertex   -1.400000e+001 3.210000e+003 4.900000e+001
    endloop
  endfacet
  facet normal -2.915526e-014 1.000000e+000 -5.745054e-015
    outer loop
      vertex   -6.068113e+001 3.210000e+003 -2.329807e+001
      vertex   -6.498351e+001 3.210000e+003 -1.464191e+000
      vertex   -1.400000e+001 3.210000e+003 4.900000e+001
    endloop
  endfacet
  facet normal 4.094658e-014 1.000000e+000 6.167611e-015
    outer loop
      vertex   6.166891e+001 3.210000e+003 2.054131e+001
      vertex   6.498351e+001 3.210000e+003 -1.464191e+000
      vertex   1.400000e+001 3.210000e+003 4.900000e+001
    endloop
  endfacet
endsolid
