solid EjeT
  facet normal -1.000000e+000 0.000000e+000 1.797715e-015
    outer loop
      vertex   1.400000e+001 5.000000e+002 6.347440e+001
      vertex   1.400000e+001 5.000000e+002 4.900000e+001
      vertex   1.400000e+001 -5.000000e+002 4.900000e+001
    endloop
  endfacet
  facet normal -1.000000e+000 0.000000e+000 1.797715e-015
    outer loop
      vertex   1.400000e+001 -5.000000e+002 4.900000e+001
      vertex   1.400000e+001 -5.000000e+002 6.347440e+001
      vertex   1.400000e+001 5.000000e+002 6.347440e+001
    endloop
  endfacet
  facet normal 3.793702e-001 0.000000e+000 9.252450e-001
    outer loop
      vertex   1.400000e+001 5.000000e+002 6.347440e+001
      vertex   1.400000e+001 -5.000000e+002 6.347440e+001
      vertex   3.459015e+001 -5.000000e+002 5.503200e+001
    endloop
  endfacet
  facet normal 6.692323e-001 0.000000e+000 7.430532e-001
    outer loop
      vertex   3.459015e+001 5.000000e+002 5.503200e+001
      vertex   3.459015e+001 -5.000000e+002 5.503200e+001
      vertex   5.112586e+001 -5.000000e+002 4.013908e+001
    endloop
  endfacet
  facet normal 8.806511e-001 0.000000e+000 4.737654e-001
    outer loop
      vertex   5.112586e+001 5.000000e+002 4.013908e+001
      vertex   5.112586e+001 -5.000000e+002 4.013908e+001
      vertex   6.166891e+001 -5.000000e+002 2.054131e+001
    endloop
  endfacet
  facet normal 9.888454e-001 0.000000e+000 1.489456e-001
    outer loop
      vertex   6.166891e+001 5.000000e+002 2.054131e+001
      vertex   6.166891e+001 -5.000000e+002 2.054131e+001
      vertex   6.498351e+001 -5.000000e+002 -1.464191e+000
    endloop
  endfacet
  facet normal 9.811333e-001 0.000000e+000 -1.933326e-001
    outer loop
      vertex   6.498351e+001 5.000000e+002 -1.464191e+000
      vertex   6.498351e+001 -5.000000e+002 -1.464191e+000
      vertex   6.068113e+001 -5.000000e+002 -2.329807e+001
    endloop
  endfacet
  facet normal 8.584187e-001 0.000000e+000 -5.129496e-001
    outer loop
      vertex   6.068113e+001 5.000000e+002 -2.329807e+001
      vertex   6.068113e+001 -5.000000e+002 -2.329807e+001
      vertex   4.926609e+001 -5.000000e+002 -4.240109e+001
    endloop
  endfacet
  facet normal 6.350856e-001 0.000000e+000 -7.724418e-001
    outer loop
      vertex   4.926609e+001 5.000000e+002 -4.240109e+001
      vertex   4.926609e+001 -5.000000e+002 -4.240109e+001
      vertex   3.207638e+001 -5.000000e+002 -5.653411e+001
    endloop
  endfacet
  facet normal 3.373116e-001 0.000000e+000 -9.413931e-001
    outer loop
      vertex   3.207638e+001 5.000000e+002 -5.653411e+001
      vertex   3.207638e+001 -5.000000e+002 -5.653411e+001
      vertex   1.112687e+001 -5.000000e+002 -6.404056e+001
    endloop
  endfacet
  facet normal 0.000000e+000 -0.000000e+000 -1.000000e+000
    outer loop
      vertex   1.112687e+001 5.000000e+002 -6.404056e+001
      vertex   1.112687e+001 -5.000000e+002 -6.404056e+001
      vertex   -1.112687e+001 -5.000000e+002 -6.404056e+001
    endloop
  endfacet
  facet normal -3.373116e-001 -0.000000e+000 -9.413931e-001
    outer loop
      vertex   -1.112687e+001 5.000000e+002 -6.404056e+001
      vertex   -1.112687e+001 -5.000000e+002 -6.404056e+001
      vertex   -3.207638e+001 -5.000000e+002 -5.653411e+001
    endloop
  endfacet
  facet normal -6.350856e-001 -0.000000e+000 -7.724418e-001
    outer loop
      vertex   -3.207638e+001 5.000000e+002 -5.653411e+001
      vertex   -3.207638e+001 -5.000000e+002 -5.653411e+001
      vertex   -4.926609e+001 -5.000000e+002 -4.240109e+001
    endloop
  endfacet
  facet normal -8.584187e-001 -0.000000e+000 -5.129496e-001
    outer loop
      vertex   -4.926609e+001 5.000000e+002 -4.240109e+001
      vertex   -4.926609e+001 -5.000000e+002 -4.240109e+001
      vertex   -6.068113e+001 -5.000000e+002 -2.329807e+001
    endloop
  endfacet
  facet normal -9.811333e-001 -0.000000e+000 -1.933326e-001
    outer loop
      vertex   -6.068113e+001 5.000000e+002 -2.329807e+001
      vertex   -6.068113e+001 -5.000000e+002 -2.329807e+001
      vertex   -6.498351e+001 -5.000000e+002 -1.464191e+000
    endloop
  endfacet
  facet normal -9.888454e-001 0.000000e+000 1.489456e-001
    outer loop
      vertex   -6.498351e+001 5.000000e+002 -1.464191e+000
      vertex   -6.498351e+001 -5.000000e+002 -1.464191e+000
      vertex   -6.166891e+001 -5.000000e+002 2.054131e+001
    endloop
  endfacet
  facet normal -8.806511e-001 0.000000e+000 4.737654e-001
    outer loop
      vertex   -6.166891e+001 5.000000e+002 2.054131e+001
      vertex   -6.166891e+001 -5.000000e+002 2.054131e+001
      vertex   -5.112586e+001 -5.000000e+002 4.013908e+001
    endloop
  endfacet
  facet normal -6.692323e-001 0.000000e+000 7.430532e-001
    outer loop
      vertex   -5.112586e+001 5.000000e+002 4.013908e+001
      vertex   -5.112586e+001 -5.000000e+002 4.013908e+001
      vertex   -3.459015e+001 -5.000000e+002 5.503200e+001
    endloop
  endfacet
  facet normal -3.793702e-001 0.000000e+000 9.252450e-001
    outer loop
      vertex   -3.459015e+001 5.000000e+002 5.503200e+001
      vertex   -3.459015e+001 -5.000000e+002 5.503200e+001
      vertex   -1.400000e+001 -5.000000e+002 6.347440e+001
    endloop
  endfacet
  facet normal -3.793702e-001 0.000000e+000 9.252450e-001
    outer loop
      vertex   -1.400000e+001 -5.000000e+002 6.347440e+001
      vertex   -1.400000e+001 5.000000e+002 6.347440e+001
      vertex   -3.459015e+001 5.000000e+002 5.503200e+001
    endloop
  endfacet
  facet normal -6.692323e-001 0.000000e+000 7.430532e-001
    outer loop
      vertex   -3.459015e+001 -5.000000e+002 5.503200e+001
      vertex   -3.459015e+001 5.000000e+002 5.503200e+001
      vertex   -5.112586e+001 5.000000e+002 4.013908e+001
    endloop
  endfacet
  facet normal -8.806511e-001 0.000000e+000 4.737654e-001
    outer loop
      vertex   -5.112586e+001 -5.000000e+002 4.013908e+001
      vertex   -5.112586e+001 5.000000e+002 4.013908e+001
      vertex   -6.166891e+001 5.000000e+002 2.054131e+001
    endloop
  endfacet
  facet normal -9.888454e-001 0.000000e+000 1.489456e-001
    outer loop
      vertex   -6.166891e+001 -5.000000e+002 2.054131e+001
      vertex   -6.166891e+001 5.000000e+002 2.054131e+001
      vertex   -6.498351e+001 5.000000e+002 -1.464191e+000
    endloop
  endfacet
  facet normal -9.811333e-001 0.000000e+000 -1.933326e-001
    outer loop
      vertex   -6.498351e+001 -5.000000e+002 -1.464191e+000
      vertex   -6.498351e+001 5.000000e+002 -1.464191e+000
      vertex   -6.068113e+001 5.000000e+002 -2.329807e+001
    endloop
  endfacet
  facet normal -8.584187e-001 0.000000e+000 -5.129496e-001
    outer loop
      vertex   -6.068113e+001 -5.000000e+002 -2.329807e+001
      vertex   -6.068113e+001 5.000000e+002 -2.329807e+001
      vertex   -4.926609e+001 5.000000e+002 -4.240109e+001
    endloop
  endfacet
  facet normal -6.350856e-001 0.000000e+000 -7.724418e-001
    outer loop
      vertex   -4.926609e+001 -5.000000e+002 -4.240109e+001
      vertex   -4.926609e+001 5.000000e+002 -4.240109e+001
      vertex   -3.207638e+001 5.000000e+002 -5.653411e+001
    endloop
  endfacet
  facet normal -3.373116e-001 0.000000e+000 -9.413931e-001
    outer loop
      vertex   -3.207638e+001 -5.000000e+002 -5.653411e+001
      vertex   -3.207638e+001 5.000000e+002 -5.653411e+001
      vertex   -1.112687e+001 5.000000e+002 -6.404056e+001
    endloop
  endfacet
  facet normal 0.000000e+000 0.000000e+000 -1.000000e+000
    outer loop
      vertex   -1.112687e+001 -5.000000e+002 -6.404056e+001
      vertex   -1.112687e+001 5.000000e+002 -6.404056e+001
      vertex   1.112687e+001 5.000000e+002 -6.404056e+001
    endloop
  endfacet
  facet normal 3.373116e-001 0.000000e+000 -9.413931e-001
    outer loop
      vertex   1.112687e+001 -5.000000e+002 -6.404056e+001
      vertex   1.112687e+001 5.000000e+002 -6.404056e+001
      vertex   3.207638e+001 5.000000e+002 -5.653411e+001
    endloop
  endfacet
  facet normal 6.350856e-001 0.000000e+000 -7.724418e-001
    outer loop
      vertex   3.207638e+001 -5.000000e+002 -5.653411e+001
      vertex   3.207638e+001 5.000000e+002 -5.653411e+001
      vertex   4.926609e+001 5.000000e+002 -4.240109e+001
    endloop
  endfacet
  facet normal 8.584187e-001 0.000000e+000 -5.129496e-001
    outer loop
      vertex   4.926609e+001 -5.000000e+002 -4.240109e+001
      vertex   4.926609e+001 5.000000e+002 -4.240109e+001
      vertex   6.068113e+001 5.000000e+002 -2.329807e+001
    endloop
  endfacet
  facet normal 9.811333e-001 0.000000e+000 -1.933326e-001
    outer loop
      vertex   6.068113e+001 -5.000000e+002 -2.329807e+001
      vertex   6.068113e+001 5.000000e+002 -2.329807e+001
      vertex   6.498351e+001 5.000000e+002 -1.464191e+000
    endloop
  endfacet
  facet normal 9.888454e-001 -0.000000e+000 1.489456e-001
    outer loop
      vertex   6.498351e+001 -5.000000e+002 -1.464191e+000
      vertex   6.498351e+001 5.000000e+002 -1.464191e+000
      vertex   6.166891e+001 5.000000e+002 2.054131e+001
    endloop
  endfacet
  facet normal 8.806511e-001 -0.000000e+000 4.737654e-001
    outer loop
      vertex   6.166891e+001 -5.000000e+002 2.054131e+001
      vertex   6.166891e+001 5.000000e+002 2.054131e+001
      vertex   5.112586e+001 5.000000e+002 4.013908e+001
    endloop
  endfacet
  facet normal 6.692323e-001 -0.000000e+000 7.430532e-001
    outer loop
      vertex   5.112586e+001 -5.000000e+002 4.013908e+001
      vertex   5.112586e+001 5.000000e+002 4.013908e+001
      vertex   3.459015e+001 5.000000e+002 5.503200e+001
    endloop
  endfacet
  facet normal 3.793702e-001 -0.000000e+000 9.252450e-001
    outer loop
      vertex   3.459015e+001 -5.000000e+002 5.503200e+001
      vertex   3.459015e+001 5.000000e+002 5.503200e+001
      vertex   1.400000e+001 5.000000e+002 6.347440e+001
    endloop
  endfacet
  facet normal 1.000000e+000 -0.000000e+000 2.516801e-015
    outer loop
      vertex   -1.400000e+001 -5.000000e+002 4.900000e+001
      vertex   -1.400000e+001 5.000000e+002 4.900000e+001
      vertex   -1.400000e+001 5.000000e+002 6.347440e+001
    endloop
  endfacet
  facet normal 1.000000e+000 0.000000e+000 2.516801e-015
    outer loop
      vertex   -1.400000e+001 5.000000e+002 6.347440e+001
      vertex   -1.400000e+001 -5.000000e+002 6.347440e+001
      vertex   -1.400000e+001 -5.000000e+002 4.900000e+001
    endloop
  endfacet
  facet normal 0.000000e+000 -0.000000e+000 1.000000e+000
    outer loop
      vertex   1.400000e+001 -5.000000e+002 4.900000e+001
      vertex   1.400000e+001 5.000000e+002 4.900000e+001
      vertex   -1.400000e+001 5.000000e+002 4.900000e+001
    endloop
  endfacet
  facet normal 0.000000e+000 0.000000e+000 1.000000e+000
    outer loop
      vertex   -1.400000e+001 5.000000e+002 4.900000e+001
      vertex   -1.400000e+001 -5.000000e+002 4.900000e+001
      vertex   1.400000e+001 -5.000000e+002 4.900000e+001
    endloop
  endfacet
  facet normal -2.607623e-015 -1.000000e+000 7.277539e-015
    outer loop
      vertex   -1.400000e+001 -5.000000e+002 4.900000e+001
      vertex   1.112687e+001 -5.000000e+002 -6.404056e+001
      vertex   3.207638e+001 -5.000000e+002 -5.653411e+001
    endloop
  endfacet
  facet normal 0.000000e+000 -1.000000e+000 7.857166e-015
    outer loop
      vertex   -1.400000e+001 -5.000000e+002 4.900000e+001
      vertex   -1.112687e+001 -5.000000e+002 -6.404056e+001
      vertex   1.112687e+001 -5.000000e+002 -6.404056e+001
    endloop
  endfacet
  facet normal 2.841185e-015 -1.000000e+000 7.929380e-015
    outer loop
      vertex   -1.400000e+001 -5.000000e+002 4.900000e+001
      vertex   -3.207638e+001 -5.000000e+002 -5.653411e+001
      vertex   -1.112687e+001 -5.000000e+002 -6.404056e+001
    endloop
  endfacet
  facet normal -1.457763e-014 -1.000000e+000 2.872527e-015
    outer loop
      vertex   6.068113e+001 -5.000000e+002 -2.329807e+001
      vertex   6.498351e+001 -5.000000e+002 -1.464191e+000
      vertex   1.400000e+001 -5.000000e+002 4.900000e+001
    endloop
  endfacet
  facet normal 6.065326e-015 -1.000000e+000 7.377134e-015
    outer loop
      vertex   -1.400000e+001 -5.000000e+002 4.900000e+001
      vertex   -4.926609e+001 -5.000000e+002 -4.240109e+001
      vertex   -3.207638e+001 -5.000000e+002 -5.653411e+001
    endloop
  endfacet
  facet normal 1.457763e-014 -1.000000e+000 2.872527e-015
    outer loop
      vertex   -1.400000e+001 -5.000000e+002 4.900000e+001
      vertex   -6.498351e+001 -5.000000e+002 -1.464191e+000
      vertex   -6.068113e+001 -5.000000e+002 -2.329807e+001
    endloop
  endfacet
  facet normal 2.744770e-014 -1.000000e+000 -1.476608e-014
    outer loop
      vertex   -1.400000e+001 -5.000000e+002 4.900000e+001
      vertex   -5.112586e+001 -5.000000e+002 4.013908e+001
      vertex   -6.166891e+001 -5.000000e+002 2.054131e+001
    endloop
  endfacet
  facet normal 4.313607e-014 -1.000000e+000 1.085649e-028
    outer loop
      vertex   -1.400000e+001 -5.000000e+002 4.900000e+001
      vertex   -1.400000e+001 -5.000000e+002 6.347440e+001
      vertex   -3.459015e+001 -5.000000e+002 5.503200e+001
    endloop
  endfacet
  facet normal -7.534408e-015 -1.000000e+000 4.502199e-015
    outer loop
      vertex   -1.400000e+001 -5.000000e+002 4.900000e+001
      vertex   4.926609e+001 -5.000000e+002 -4.240109e+001
      vertex   6.068113e+001 -5.000000e+002 -2.329807e+001
    endloop
  endfacet
  facet normal 9.881498e-015 -1.000000e+000 5.904707e-015
    outer loop
      vertex   -6.068113e+001 -5.000000e+002 -2.329807e+001
      vertex   -4.926609e+001 -5.000000e+002 -4.240109e+001
      vertex   -1.400000e+001 -5.000000e+002 4.900000e+001
    endloop
  endfacet
  facet normal 3.254888e-014 -1.000000e+000 -3.613924e-014
    outer loop
      vertex   -3.459015e+001 -5.000000e+002 5.503200e+001
      vertex   -5.112586e+001 -5.000000e+002 4.013908e+001
      vertex   -1.400000e+001 -5.000000e+002 4.900000e+001
    endloop
  endfacet
  facet normal -5.091733e-015 -1.000000e+000 6.192972e-015
    outer loop
      vertex   3.207638e+001 -5.000000e+002 -5.653411e+001
      vertex   4.926609e+001 -5.000000e+002 -4.240109e+001
      vertex   -1.400000e+001 -5.000000e+002 4.900000e+001
    endloop
  endfacet
  facet normal -3.254888e-014 -1.000000e+000 -3.613924e-014
    outer loop
      vertex   1.400000e+001 -5.000000e+002 4.900000e+001
      vertex   5.112586e+001 -5.000000e+002 4.013908e+001
      vertex   3.459015e+001 -5.000000e+002 5.503200e+001
    endloop
  endfacet
  facet normal -2.047329e-014 -1.000000e+000 -3.083805e-015
    outer loop
      vertex   1.400000e+001 -5.000000e+002 4.900000e+001
      vertex   6.498351e+001 -5.000000e+002 -1.464191e+000
      vertex   6.166891e+001 -5.000000e+002 2.054131e+001
    endloop
  endfacet
  facet normal 0.000000e+000 -1.000000e+000 1.228495e-014
    outer loop
      vertex   1.400000e+001 -5.000000e+002 4.900000e+001
      vertex   -1.400000e+001 -5.000000e+002 4.900000e+001
      vertex   6.068113e+001 -5.000000e+002 -2.329807e+001
    endloop
  endfacet
  facet normal -2.744770e-014 -1.000000e+000 -1.476608e-014
    outer loop
      vertex   6.166891e+001 -5.000000e+002 2.054131e+001
      vertex   5.112586e+001 -5.000000e+002 4.013908e+001
      vertex   1.400000e+001 -5.000000e+002 4.900000e+001
    endloop
  endfacet
  facet normal -4.313607e-014 -1.000000e+000 7.237660e-029
    outer loop
      vertex   3.459015e+001 -5.000000e+002 5.503200e+001
      vertex   1.400000e+001 -5.000000e+002 6.347440e+001
      vertex   1.400000e+001 -5.000000e+002 4.900000e+001
    endloop
  endfacet
  facet normal 2.047329e-014 -1.000000e+000 -3.083805e-015
    outer loop
      vertex   -6.166891e+001 -5.000000e+002 2.054131e+001
      vertex   -6.498351e+001 -5.000000e+002 -1.464191e+000
      vertex   -1.400000e+001 -5.000000e+002 4.900000e+001
    endloop
  endfacet
  facet normal -2.841185e-015 1.000000e+000 -7.929380e-015
    outer loop
      vertex   -1.400000e+001 5.000000e+002 4.900000e+001
      vertex   -1.112687e+001 5.000000e+002 -6.404056e+001
      vertex   -3.207638e+001 5.000000e+002 -5.653411e+001
    endloop
  endfacet
  facet normal 0.000000e+000 1.000000e+000 -7.857166e-015
    outer loop
      vertex   -1.400000e+001 5.000000e+002 4.900000e+001
      vertex   1.112687e+001 5.000000e+002 -6.404056e+001
      vertex   -1.112687e+001 5.000000e+002 -6.404056e+001
    endloop
  endfacet
  facet normal 5.091733e-015 1.000000e+000 -6.192972e-015
    outer loop
      vertex   -1.400000e+001 5.000000e+002 4.900000e+001
      vertex   4.926609e+001 5.000000e+002 -4.240109e+001
      vertex   3.207638e+001 5.000000e+002 -5.653411e+001
    endloop
  endfacet
  facet normal -9.881498e-015 1.000000e+000 -5.904707e-015
    outer loop
      vertex   -1.400000e+001 5.000000e+002 4.900000e+001
      vertex   -4.926609e+001 5.000000e+002 -4.240109e+001
      vertex   -6.068113e+001 5.000000e+002 -2.329807e+001
    endloop
  endfacet
  facet normal 2.607623e-015 1.000000e+000 -7.277539e-015
    outer loop
      vertex   3.207638e+001 5.000000e+002 -5.653411e+001
      vertex   1.112687e+001 5.000000e+002 -6.404056e+001
      vertex   -1.400000e+001 5.000000e+002 4.900000e+001
    endloop
  endfacet
  facet normal 0.000000e+000 1.000000e+000 -1.228495e-014
    outer loop
      vertex   6.068113e+001 5.000000e+002 -2.329807e+001
      vertex   -1.400000e+001 5.000000e+002 4.900000e+001
      vertex   1.400000e+001 5.000000e+002 4.900000e+001
    endloop
  endfacet
  facet normal -6.065326e-015 1.000000e+000 -7.377134e-015
    outer loop
      vertex   -3.207638e+001 5.000000e+002 -5.653411e+001
      vertex   -4.926609e+001 5.000000e+002 -4.240109e+001
      vertex   -1.400000e+001 5.000000e+002 4.900000e+001
    endloop
  endfacet
  facet normal 1.457763e-014 1.000000e+000 -2.872527e-015
    outer loop
      vertex   1.400000e+001 5.000000e+002 4.900000e+001
      vertex   6.498351e+001 5.000000e+002 -1.464191e+000
      vertex   6.068113e+001 5.000000e+002 -2.329807e+001
    endloop
  endfacet
  facet normal -3.254888e-014 1.000000e+000 3.613924e-014
    outer loop
      vertex   -1.400000e+001 5.000000e+002 4.900000e+001
      vertex   -5.112586e+001 5.000000e+002 4.013908e+001
      vertex   -3.459015e+001 5.000000e+002 5.503200e+001
    endloop
  endfacet
  facet normal -2.047329e-014 1.000000e+000 3.083805e-015
    outer loop
      vertex   -1.400000e+001 5.000000e+002 4.900000e+001
      vertex   -6.498351e+001 5.000000e+002 -1.464191e+000
      vertex   -6.166891e+001 5.000000e+002 2.054131e+001
    endloop
  endfacet
  facet normal 2.744770e-014 1.000000e+000 1.476608e-014
    outer loop
      vertex   1.400000e+001 5.000000e+002 4.900000e+001
      vertex   5.112586e+001 5.000000e+002 4.013908e+001
      vertex   6.166891e+001 5.000000e+002 2.054131e+001
    endloop
  endfacet
  facet normal 4.313607e-014 1.000000e+000 -7.754636e-029
    outer loop
      vertex   1.400000e+001 5.000000e+002 4.900000e+001
      vertex   1.400000e+001 5.000000e+002 6.347440e+001
      vertex   3.459015e+001 5.000000e+002 5.503200e+001
    endloop
  endfacet
  facet normal 7.534408e-015 1.000000e+000 -4.502199e-015
    outer loop
      vertex   6.068113e+001 5.000000e+002 -2.329807e+001
      vertex   4.926609e+001 5.000000e+002 -4.240109e+001
      vertex   -1.400000e+001 5.000000e+002 4.900000e+001
    endloop
  endfacet
  facet normal -2.744770e-014 1.000000e+000 1.476608e-014
    outer loop
      vertex   -6.166891e+001 5.000000e+002 2.054131e+001
      vertex   -5.112586e+001 5.000000e+002 4.013908e+001
      vertex   -1.400000e+001 5.000000e+002 4.900000e+001
    endloop
  endfacet
  facet normal 3.254888e-014 1.000000e+000 3.613924e-014
    outer loop
      vertex   3.459015e+001 5.000000e+002 5.503200e+001
      vertex   5.112586e+001 5.000000e+002 4.013908e+001
      vertex   1.400000e+001 5.000000e+002 4.900000e+001
    endloop
  endfacet
  facet normal -4.313607e-014 1.000000e+000 -1.033951e-028
    outer loop
      vertex   -3.459015e+001 5.000000e+002 5.503200e+001
      vertex   -1.400000e+001 5.000000e+002 6.347440e+001
      vertex   -1.400000e+001 5.000000e+002 4.900000e+001
    endloop
  endfacet
  facet normal -1.457763e-014 1.000000e+000 -2.872527e-015
    outer loop
      vertex   -6.068113e+001 5.000000e+002 -2.329807e+001
      vertex   -6.498351e+001 5.000000e+002 -1.464191e+000
      vertex   -1.400000e+001 5.000000e+002 4.900000e+001
    endloop
  endfacet
  facet normal 2.047329e-014 1.000000e+000 3.083805e-015
    outer loop
      vertex   6.166891e+001 5.000000e+002 2.054131e+001
      vertex   6.498351e+001 5.000000e+002 -1.464191e+000
      vertex   1.400000e+001 5.000000e+002 4.900000e+001
    endloop
  endfacet
endsolid
