solid CarcazaExcitador
  facet normal -1.000000e+000 -0.000000e+000 -1.086812e-016
    outer loop
      vertex   -2.100000e+001 9.000000e+000 -3.192316e+001
      vertex   -2.100000e+001 -9.000000e+000 -3.192316e+001
      vertex   -2.100000e+001 -9.000000e+000 -2.571673e-015
    endloop
  endfacet
  facet normal -1.000000e+000 0.000000e+000 -1.086812e-016
    outer loop
      vertex   -2.100000e+001 -9.000000e+000 -2.571673e-015
      vertex   -2.100000e+001 9.000000e+000 -2.571673e-015
      vertex   -2.100000e+001 9.000000e+000 -3.192316e+001
    endloop
  endfacet
  facet normal -9.238775e-001 -3.826826e-001 -2.116494e-003
    outer loop
      vertex   -2.100000e+001 -9.000000e+000 -3.192316e+001
      vertex   -2.070711e+001 -9.707107e+000 -3.192316e+001
      vertex   -2.086603e+001 -9.500000e+000 3.833027e-015
    endloop
  endfacet
  facet normal -7.071064e-001 -7.071064e-001 1.067381e-003
    outer loop
      vertex   -2.070711e+001 -9.707107e+000 -3.192316e+001
      vertex   -2.068301e+001 -9.683013e+000 3.799408e-015
      vertex   -2.086603e+001 -9.500000e+000 3.833027e-015
    endloop
  endfacet
  facet normal -2.588190e-001 -9.659258e-001 2.436023e-017
    outer loop
      vertex   -2.000000e+001 -1.000000e+001 -3.192316e+001
      vertex   -2.000000e+001 -1.000000e+001 -2.487414e-015
      vertex   -2.050000e+001 -9.866025e+000 3.765789e-015
    endloop
  endfacet
  facet normal -3.826826e-001 -9.238775e-001 -2.116494e-003
    outer loop
      vertex   -2.050000e+001 -9.866025e+000 3.765789e-015
      vertex   -2.070711e+001 -9.707107e+000 -3.192316e+001
      vertex   -2.000000e+001 -1.000000e+001 -3.192316e+001
    endloop
  endfacet
  facet normal -7.071064e-001 -7.071064e-001 1.067381e-003
    outer loop
      vertex   -2.050000e+001 -9.866025e+000 3.765789e-015
      vertex   -2.068301e+001 -9.683013e+000 3.799408e-015
      vertex   -2.070711e+001 -9.707107e+000 -3.192316e+001
    endloop
  endfacet
  facet normal -9.659258e-001 -2.588190e-001 -1.049203e-016
    outer loop
      vertex   -2.086603e+001 -9.500000e+000 3.833027e-015
      vertex   -2.100000e+001 -9.000000e+000 -2.571673e-015
      vertex   -2.100000e+001 -9.000000e+000 -3.192316e+001
    endloop
  endfacet
  facet normal 0.000000e+000 -1.000000e+000 0.000000e+000
    outer loop
      vertex   -1.414214e+001 -1.000000e+001 1.414214e+001
      vertex   -1.662939e+001 -1.000000e+001 1.111140e+001
      vertex   -1.847759e+001 -1.000000e+001 7.653669e+000
    endloop
  endfacet
  facet normal 0.000000e+000 -1.000000e+000 0.000000e+000
    outer loop
      vertex   -1.961571e+001 -1.000000e+001 3.901806e+000
      vertex   -7.653669e+000 -1.000000e+001 1.847759e+001
      vertex   -1.111140e+001 -1.000000e+001 1.662939e+001
    endloop
  endfacet
  facet normal 0.000000e+000 -1.000000e+000 0.000000e+000
    outer loop
      vertex   -1.111140e+001 -1.000000e+001 1.662939e+001
      vertex   -1.414214e+001 -1.000000e+001 1.414214e+001
      vertex   -1.961571e+001 -1.000000e+001 3.901806e+000
    endloop
  endfacet
  facet normal 0.000000e+000 -1.000000e+000 0.000000e+000
    outer loop
      vertex   -1.961571e+001 -1.000000e+001 3.901806e+000
      vertex   -3.901806e+000 -1.000000e+001 1.961571e+001
      vertex   -7.653669e+000 -1.000000e+001 1.847759e+001
    endloop
  endfacet
  facet normal -1.958676e-017 -1.000000e+000 -6.456890e-017
    outer loop
      vertex   -2.000000e+001 -1.000000e+001 -2.487414e-015
      vertex   7.653669e+000 -1.000000e+001 1.847759e+001
      vertex   3.901806e+000 -1.000000e+001 1.961571e+001
    endloop
  endfacet
  facet normal -3.376632e-017 -1.000000e+000 -4.114438e-017
    outer loop
      vertex   -2.000000e+001 -1.000000e+001 -2.487414e-015
      vertex   1.414214e+001 -1.000000e+001 1.414214e+001
      vertex   1.111140e+001 -1.000000e+001 1.662939e+001
    endloop
  endfacet
  facet normal -4.251846e-017 -1.000000e+000 -1.289783e-017
    outer loop
      vertex   -2.000000e+001 -1.000000e+001 -2.487414e-015
      vertex   1.961571e+001 -1.000000e+001 3.901806e+000
      vertex   1.847759e+001 -1.000000e+001 7.653669e+000
    endloop
  endfacet
  facet normal 0.000000e+000 -1.000000e+000 -0.000000e+000
    outer loop
      vertex   -1.847759e+001 -1.000000e+001 7.653669e+000
      vertex   -1.961571e+001 -1.000000e+001 3.901806e+000
      vertex   -1.414214e+001 -1.000000e+001 1.414214e+001
    endloop
  endfacet
  facet normal -7.776818e-018 -1.000000e+000 -7.895936e-017
    outer loop
      vertex   3.901806e+000 -1.000000e+001 1.961571e+001
      vertex   2.449294e-015 -1.000000e+001 2.000000e+001
      vertex   -2.000000e+001 -1.000000e+001 -2.487414e-015
    endloop
  endfacet
  facet normal -3.791887e-017 -1.000000e+000 -3.111922e-017
    outer loop
      vertex   -2.000000e+001 -1.000000e+001 -2.487414e-015
      vertex   1.662939e+001 -1.000000e+001 1.111140e+001
      vertex   1.414214e+001 -1.000000e+001 1.414214e+001
    endloop
  endfacet
  facet normal 1.057088e-031 -1.000000e+000 -4.445950e-016
    outer loop
      vertex   -2.000000e+001 -1.000000e+001 -2.487414e-015
      vertex   2.000000e+001 -1.000000e+001 7.023153e-015
      vertex   1.961571e+001 -1.000000e+001 3.901806e+000
    endloop
  endfacet
  facet normal 9.476080e-018 -1.000000e+000 -9.621225e-017
    outer loop
      vertex   2.449294e-015 -1.000000e+001 2.000000e+001
      vertex   -3.901806e+000 -1.000000e+001 1.961571e+001
      vertex   -2.000000e+001 -1.000000e+001 -2.487414e-015
    endloop
  endfacet
  facet normal -4.075128e-017 -1.000000e+000 -2.178201e-017
    outer loop
      vertex   1.847759e+001 -1.000000e+001 7.653669e+000
      vertex   1.662939e+001 -1.000000e+001 1.111140e+001
      vertex   -2.000000e+001 -1.000000e+001 -2.487414e-015
    endloop
  endfacet
  facet normal -1.292025e-032 -1.000000e+000 5.434060e-017
    outer loop
      vertex   2.000000e+001 -1.000000e+001 7.023153e-015
      vertex   -2.000000e+001 -1.000000e+001 -2.487414e-015
      vertex   -2.000000e+001 -1.000000e+001 -3.192316e+001
    endloop
  endfacet
  facet normal -2.787922e-017 -1.000000e+000 -5.215835e-017
    outer loop
      vertex   1.111140e+001 -1.000000e+001 1.662939e+001
      vertex   7.653669e+000 -1.000000e+001 1.847759e+001
      vertex   -2.000000e+001 -1.000000e+001 -2.487414e-015
    endloop
  endfacet
  facet normal 4.931677e-016 -1.000000e+000 -4.931677e-016
    outer loop
      vertex   -1.961571e+001 -1.000000e+001 3.901806e+000
      vertex   -2.000000e+001 -1.000000e+001 -2.487414e-015
      vertex   -3.901806e+000 -1.000000e+001 1.961571e+001
    endloop
  endfacet
  facet normal 4.336809e-017 -1.000000e+000 0.000000e+000
    outer loop
      vertex   -2.000000e+001 -1.000000e+001 -3.192316e+001
      vertex   2.000000e+001 -1.000000e+001 -3.192316e+001
      vertex   2.000000e+001 -1.000000e+001 7.023153e-015
    endloop
  endfacet
  facet normal 9.615841e-001 -2.576557e-001 9.470777e-002
    outer loop
      vertex   2.086603e+001 -9.500000e+000 7.988701e-015
      vertex   2.100000e+001 -9.000000e+000 6.938894e-015
      vertex   2.059649e+001 -9.000000e+000 4.096897e+000
    endloop
  endfacet
  facet normal 7.053982e-001 -7.053982e-001 6.947565e-002
    outer loop
      vertex   2.068301e+001 -9.683013e+000 7.918634e-015
      vertex   2.046509e+001 -9.500000e+000 4.070760e+000
      vertex   2.010610e+001 -9.866025e+000 3.999352e+000
    endloop
  endfacet
  facet normal 7.053982e-001 -7.053982e-001 6.947565e-002
    outer loop
      vertex   2.010610e+001 -9.866025e+000 3.999352e+000
      vertex   2.050000e+001 -9.866025e+000 7.848566e-015
      vertex   2.068301e+001 -9.683013e+000 7.918634e-015
    endloop
  endfacet
  facet normal 2.587350e-001 -9.656121e-001 2.548317e-002
    outer loop
      vertex   2.000000e+001 -1.000000e+001 7.023153e-015
      vertex   2.050000e+001 -9.866025e+000 7.848566e-015
      vertex   2.010610e+001 -9.866025e+000 3.999352e+000
    endloop
  endfacet
  facet normal 9.246310e-001 -2.576557e-001 2.804837e-001
    outer loop
      vertex   2.046509e+001 -9.500000e+000 4.070760e+000
      vertex   2.059649e+001 -9.000000e+000 4.096897e+000
      vertex   1.940147e+001 -9.000000e+000 8.036352e+000
    endloop
  endfacet
  facet normal 6.782901e-001 -7.053982e-001 2.057571e-001
    outer loop
      vertex   2.010610e+001 -9.866025e+000 3.999352e+000
      vertex   2.046509e+001 -9.500000e+000 4.070760e+000
      vertex   1.927769e+001 -9.500000e+000 7.985082e+000
    endloop
  endfacet
  facet normal 2.487920e-001 -9.656121e-001 7.547021e-002
    outer loop
      vertex   1.961571e+001 -1.000000e+001 3.901806e+000
      vertex   2.010610e+001 -9.866025e+000 3.999352e+000
      vertex   1.893953e+001 -9.866025e+000 7.845010e+000
    endloop
  endfacet
  facet normal 8.521448e-001 -2.576557e-001 4.554809e-001
    outer loop
      vertex   1.927769e+001 -9.500000e+000 7.985082e+000
      vertex   1.940147e+001 -9.000000e+000 8.036352e+000
      vertex   1.746086e+001 -9.000000e+000 1.166697e+001
    endloop
  endfacet
  facet normal 6.251157e-001 -7.053982e-001 3.341313e-001
    outer loop
      vertex   1.893953e+001 -9.866025e+000 7.845010e+000
      vertex   1.927769e+001 -9.500000e+000 7.985082e+000
      vertex   1.734947e+001 -9.500000e+000 1.159254e+001
    endloop
  endfacet
  facet normal 2.292880e-001 -9.656121e-001 1.225570e-001
    outer loop
      vertex   1.847759e+001 -1.000000e+001 7.653669e+000
      vertex   1.893953e+001 -9.866025e+000 7.845010e+000
      vertex   1.704513e+001 -9.866025e+000 1.138919e+001
    endloop
  endfacet
  facet normal 7.469111e-001 -2.576557e-001 6.129741e-001
    outer loop
      vertex   1.734947e+001 -9.500000e+000 1.159254e+001
      vertex   1.746086e+001 -9.000000e+000 1.166697e+001
      vertex   1.484924e+001 -9.000000e+000 1.484924e+001
    endloop
  endfacet
  facet normal 5.479185e-001 -7.053982e-001 4.496651e-001
    outer loop
      vertex   1.704513e+001 -9.866025e+000 1.138919e+001
      vertex   1.734947e+001 -9.500000e+000 1.159254e+001
      vertex   1.475451e+001 -9.500000e+000 1.475451e+001
    endloop
  endfacet
  facet normal 2.009726e-001 -9.656121e-001 1.649339e-001
    outer loop
      vertex   1.662939e+001 -1.000000e+001 1.111140e+001
      vertex   1.704513e+001 -9.866025e+000 1.138919e+001
      vertex   1.449569e+001 -9.866025e+000 1.449569e+001
    endloop
  endfacet
  facet normal 6.129741e-001 -2.576557e-001 7.469111e-001
    outer loop
      vertex   1.475451e+001 -9.500000e+000 1.475451e+001
      vertex   1.484924e+001 -9.000000e+000 1.484924e+001
      vertex   1.166697e+001 -9.000000e+000 1.746086e+001
    endloop
  endfacet
  facet normal 4.496651e-001 -7.053982e-001 5.479185e-001
    outer loop
      vertex   1.449569e+001 -9.866025e+000 1.449569e+001
      vertex   1.475451e+001 -9.500000e+000 1.475451e+001
      vertex   1.159254e+001 -9.500000e+000 1.734947e+001
    endloop
  endfacet
  facet normal 1.649339e-001 -9.656121e-001 2.009726e-001
    outer loop
      vertex   1.414214e+001 -1.000000e+001 1.414214e+001
      vertex   1.449569e+001 -9.866025e+000 1.449569e+001
      vertex   1.138919e+001 -9.866025e+000 1.704513e+001
    endloop
  endfacet
  facet normal 4.554809e-001 -2.576557e-001 8.521448e-001
    outer loop
      vertex   1.159254e+001 -9.500000e+000 1.734947e+001
      vertex   1.166697e+001 -9.000000e+000 1.746086e+001
      vertex   8.036352e+000 -9.000000e+000 1.940147e+001
    endloop
  endfacet
  facet normal 3.341313e-001 -7.053982e-001 6.251157e-001
    outer loop
      vertex   1.138919e+001 -9.866025e+000 1.704513e+001
      vertex   1.159254e+001 -9.500000e+000 1.734947e+001
      vertex   7.985082e+000 -9.500000e+000 1.927769e+001
    endloop
  endfacet
  facet normal 1.225570e-001 -9.656121e-001 2.292880e-001
    outer loop
      vertex   1.111140e+001 -1.000000e+001 1.662939e+001
      vertex   1.138919e+001 -9.866025e+000 1.704513e+001
      vertex   7.845010e+000 -9.866025e+000 1.893953e+001
    endloop
  endfacet
  facet normal 2.804837e-001 -2.576557e-001 9.246310e-001
    outer loop
      vertex   7.985082e+000 -9.500000e+000 1.927769e+001
      vertex   8.036352e+000 -9.000000e+000 1.940147e+001
      vertex   4.096897e+000 -9.000000e+000 2.059649e+001
    endloop
  endfacet
  facet normal 2.057571e-001 -7.053982e-001 6.782901e-001
    outer loop
      vertex   7.845010e+000 -9.866025e+000 1.893953e+001
      vertex   7.985082e+000 -9.500000e+000 1.927769e+001
      vertex   4.070760e+000 -9.500000e+000 2.046509e+001
    endloop
  endfacet
  facet normal 7.547021e-002 -9.656121e-001 2.487920e-001
    outer loop
      vertex   7.653669e+000 -1.000000e+001 1.847759e+001
      vertex   7.845010e+000 -9.866025e+000 1.893953e+001
      vertex   3.999352e+000 -9.866025e+000 2.010610e+001
    endloop
  endfacet
  facet normal 9.470777e-002 -2.576557e-001 9.615841e-001
    outer loop
      vertex   4.070760e+000 -9.500000e+000 2.046509e+001
      vertex   4.096897e+000 -9.000000e+000 2.059649e+001
      vertex   2.571758e-015 -9.000000e+000 2.100000e+001
    endloop
  endfacet
  facet normal 6.947565e-002 -7.053982e-001 7.053982e-001
    outer loop
      vertex   3.999352e+000 -9.866025e+000 2.010610e+001
      vertex   4.070760e+000 -9.500000e+000 2.046509e+001
      vertex   2.555351e-015 -9.500000e+000 2.086603e+001
    endloop
  endfacet
  facet normal 2.548317e-002 -9.656121e-001 2.587350e-001
    outer loop
      vertex   3.901806e+000 -1.000000e+001 1.961571e+001
      vertex   3.999352e+000 -9.866025e+000 2.010610e+001
      vertex   2.510526e-015 -9.866025e+000 2.050000e+001
    endloop
  endfacet
  facet normal -9.470777e-002 -2.576557e-001 9.615841e-001
    outer loop
      vertex   2.555351e-015 -9.500000e+000 2.086603e+001
      vertex   2.571758e-015 -9.000000e+000 2.100000e+001
      vertex   -4.096897e+000 -9.000000e+000 2.059649e+001
    endloop
  endfacet
  facet normal -6.947565e-002 -7.053982e-001 7.053982e-001
    outer loop
      vertex   2.510526e-015 -9.866025e+000 2.050000e+001
      vertex   2.555351e-015 -9.500000e+000 2.086603e+001
      vertex   -4.070760e+000 -9.500000e+000 2.046509e+001
    endloop
  endfacet
  facet normal -2.548317e-002 -9.656121e-001 2.587350e-001
    outer loop
      vertex   2.449294e-015 -1.000000e+001 2.000000e+001
      vertex   2.510526e-015 -9.866025e+000 2.050000e+001
      vertex   -3.999352e+000 -9.866025e+000 2.010610e+001
    endloop
  endfacet
  facet normal -2.804837e-001 -2.576557e-001 9.246310e-001
    outer loop
      vertex   -4.070760e+000 -9.500000e+000 2.046509e+001
      vertex   -4.096897e+000 -9.000000e+000 2.059649e+001
      vertex   -8.036352e+000 -9.000000e+000 1.940147e+001
    endloop
  endfacet
  facet normal -2.057571e-001 -7.053982e-001 6.782901e-001
    outer loop
      vertex   -3.999352e+000 -9.866025e+000 2.010610e+001
      vertex   -4.070760e+000 -9.500000e+000 2.046509e+001
      vertex   -7.985082e+000 -9.500000e+000 1.927769e+001
    endloop
  endfacet
  facet normal -7.547021e-002 -9.656121e-001 2.487920e-001
    outer loop
      vertex   -3.901806e+000 -1.000000e+001 1.961571e+001
      vertex   -3.999352e+000 -9.866025e+000 2.010610e+001
      vertex   -7.845010e+000 -9.866025e+000 1.893953e+001
    endloop
  endfacet
  facet normal -4.554809e-001 -2.576557e-001 8.521448e-001
    outer loop
      vertex   -7.985082e+000 -9.500000e+000 1.927769e+001
      vertex   -8.036352e+000 -9.000000e+000 1.940147e+001
      vertex   -1.166697e+001 -9.000000e+000 1.746086e+001
    endloop
  endfacet
  facet normal -3.341313e-001 -7.053982e-001 6.251157e-001
    outer loop
      vertex   -7.845010e+000 -9.866025e+000 1.893953e+001
      vertex   -7.985082e+000 -9.500000e+000 1.927769e+001
      vertex   -1.159254e+001 -9.500000e+000 1.734947e+001
    endloop
  endfacet
  facet normal -1.225570e-001 -9.656121e-001 2.292880e-001
    outer loop
      vertex   -7.653669e+000 -1.000000e+001 1.847759e+001
      vertex   -7.845010e+000 -9.866025e+000 1.893953e+001
      vertex   -1.138919e+001 -9.866025e+000 1.704513e+001
    endloop
  endfacet
  facet normal -6.129741e-001 -2.576557e-001 7.469111e-001
    outer loop
      vertex   -1.159254e+001 -9.500000e+000 1.734947e+001
      vertex   -1.166697e+001 -9.000000e+000 1.746086e+001
      vertex   -1.484924e+001 -9.000000e+000 1.484924e+001
    endloop
  endfacet
  facet normal -4.496651e-001 -7.053982e-001 5.479185e-001
    outer loop
      vertex   -1.138919e+001 -9.866025e+000 1.704513e+001
      vertex   -1.159254e+001 -9.500000e+000 1.734947e+001
      vertex   -1.475451e+001 -9.500000e+000 1.475451e+001
    endloop
  endfacet
  facet normal -1.649339e-001 -9.656121e-001 2.009726e-001
    outer loop
      vertex   -1.111140e+001 -1.000000e+001 1.662939e+001
      vertex   -1.138919e+001 -9.866025e+000 1.704513e+001
      vertex   -1.449569e+001 -9.866025e+000 1.449569e+001
    endloop
  endfacet
  facet normal -7.469111e-001 -2.576557e-001 6.129741e-001
    outer loop
      vertex   -1.475451e+001 -9.500000e+000 1.475451e+001
      vertex   -1.484924e+001 -9.000000e+000 1.484924e+001
      vertex   -1.746086e+001 -9.000000e+000 1.166697e+001
    endloop
  endfacet
  facet normal -5.479185e-001 -7.053982e-001 4.496651e-001
    outer loop
      vertex   -1.449569e+001 -9.866025e+000 1.449569e+001
      vertex   -1.475451e+001 -9.500000e+000 1.475451e+001
      vertex   -1.734947e+001 -9.500000e+000 1.159254e+001
    endloop
  endfacet
  facet normal -2.009726e-001 -9.656121e-001 1.649339e-001
    outer loop
      vertex   -1.414214e+001 -1.000000e+001 1.414214e+001
      vertex   -1.449569e+001 -9.866025e+000 1.449569e+001
      vertex   -1.704513e+001 -9.866025e+000 1.138919e+001
    endloop
  endfacet
  facet normal -8.521448e-001 -2.576557e-001 4.554809e-001
    outer loop
      vertex   -1.734947e+001 -9.500000e+000 1.159254e+001
      vertex   -1.746086e+001 -9.000000e+000 1.166697e+001
      vertex   -1.940147e+001 -9.000000e+000 8.036352e+000
    endloop
  endfacet
  facet normal -6.251157e-001 -7.053982e-001 3.341313e-001
    outer loop
      vertex   -1.704513e+001 -9.866025e+000 1.138919e+001
      vertex   -1.734947e+001 -9.500000e+000 1.159254e+001
      vertex   -1.927769e+001 -9.500000e+000 7.985082e+000
    endloop
  endfacet
  facet normal -2.292880e-001 -9.656121e-001 1.225570e-001
    outer loop
      vertex   -1.662939e+001 -1.000000e+001 1.111140e+001
      vertex   -1.704513e+001 -9.866025e+000 1.138919e+001
      vertex   -1.893953e+001 -9.866025e+000 7.845010e+000
    endloop
  endfacet
  facet normal -9.246310e-001 -2.576557e-001 2.804837e-001
    outer loop
      vertex   -1.927769e+001 -9.500000e+000 7.985082e+000
      vertex   -1.940147e+001 -9.000000e+000 8.036352e+000
      vertex   -2.059649e+001 -9.000000e+000 4.096897e+000
    endloop
  endfacet
  facet normal -6.782901e-001 -7.053982e-001 2.057571e-001
    outer loop
      vertex   -1.893953e+001 -9.866025e+000 7.845010e+000
      vertex   -1.927769e+001 -9.500000e+000 7.985082e+000
      vertex   -2.046509e+001 -9.500000e+000 4.070760e+000
    endloop
  endfacet
  facet normal -2.487920e-001 -9.656121e-001 7.547021e-002
    outer loop
      vertex   -1.847759e+001 -1.000000e+001 7.653669e+000
      vertex   -1.893953e+001 -9.866025e+000 7.845010e+000
      vertex   -2.010610e+001 -9.866025e+000 3.999352e+000
    endloop
  endfacet
  facet normal -9.615841e-001 -2.576557e-001 9.470777e-002
    outer loop
      vertex   -2.046509e+001 -9.500000e+000 4.070760e+000
      vertex   -2.059649e+001 -9.000000e+000 4.096897e+000
      vertex   -2.100000e+001 -9.000000e+000 -2.571673e-015
    endloop
  endfacet
  facet normal -7.053982e-001 -7.053982e-001 6.947565e-002
    outer loop
      vertex   -2.068301e+001 -9.683013e+000 3.799408e-015
      vertex   -2.050000e+001 -9.866025e+000 3.765789e-015
      vertex   -2.010610e+001 -9.866025e+000 3.999352e+000
    endloop
  endfacet
  facet normal -7.053982e-001 -7.053982e-001 6.947565e-002
    outer loop
      vertex   -2.046509e+001 -9.500000e+000 4.070760e+000
      vertex   -2.086603e+001 -9.500000e+000 3.833027e-015
      vertex   -2.068301e+001 -9.683013e+000 3.799408e-015
    endloop
  endfacet
  facet normal -2.587350e-001 -9.656121e-001 2.548317e-002
    outer loop
      vertex   -1.961571e+001 -1.000000e+001 3.901806e+000
      vertex   -2.010610e+001 -9.866025e+000 3.999352e+000
      vertex   -2.050000e+001 -9.866025e+000 3.765789e-015
    endloop
  endfacet
  facet normal -2.587350e-001 -9.656121e-001 2.548317e-002
    outer loop
      vertex   -2.050000e+001 -9.866025e+000 3.765789e-015
      vertex   -2.000000e+001 -1.000000e+001 -2.487414e-015
      vertex   -1.961571e+001 -1.000000e+001 3.901806e+000
    endloop
  endfacet
  facet normal -7.053982e-001 -7.053982e-001 6.947565e-002
    outer loop
      vertex   -2.010610e+001 -9.866025e+000 3.999352e+000
      vertex   -2.046509e+001 -9.500000e+000 4.070760e+000
      vertex   -2.068301e+001 -9.683013e+000 3.799408e-015
    endloop
  endfacet
  facet normal -9.615841e-001 -2.576557e-001 9.470777e-002
    outer loop
      vertex   -2.100000e+001 -9.000000e+000 -2.571673e-015
      vertex   -2.086603e+001 -9.500000e+000 3.833027e-015
      vertex   -2.046509e+001 -9.500000e+000 4.070760e+000
    endloop
  endfacet
  facet normal -2.487920e-001 -9.656121e-001 7.547021e-002
    outer loop
      vertex   -2.010610e+001 -9.866025e+000 3.999352e+000
      vertex   -1.961571e+001 -1.000000e+001 3.901806e+000
      vertex   -1.847759e+001 -1.000000e+001 7.653669e+000
    endloop
  endfacet
  facet normal -6.782901e-001 -7.053982e-001 2.057571e-001
    outer loop
      vertex   -2.046509e+001 -9.500000e+000 4.070760e+000
      vertex   -2.010610e+001 -9.866025e+000 3.999352e+000
      vertex   -1.893953e+001 -9.866025e+000 7.845010e+000
    endloop
  endfacet
  facet normal -9.246310e-001 -2.576557e-001 2.804837e-001
    outer loop
      vertex   -2.059649e+001 -9.000000e+000 4.096897e+000
      vertex   -2.046509e+001 -9.500000e+000 4.070760e+000
      vertex   -1.927769e+001 -9.500000e+000 7.985082e+000
    endloop
  endfacet
  facet normal -2.292880e-001 -9.656121e-001 1.225570e-001
    outer loop
      vertex   -1.893953e+001 -9.866025e+000 7.845010e+000
      vertex   -1.847759e+001 -1.000000e+001 7.653669e+000
      vertex   -1.662939e+001 -1.000000e+001 1.111140e+001
    endloop
  endfacet
  facet normal -6.251157e-001 -7.053982e-001 3.341313e-001
    outer loop
      vertex   -1.927769e+001 -9.500000e+000 7.985082e+000
      vertex   -1.893953e+001 -9.866025e+000 7.845010e+000
      vertex   -1.704513e+001 -9.866025e+000 1.138919e+001
    endloop
  endfacet
  facet normal -8.521448e-001 -2.576557e-001 4.554809e-001
    outer loop
      vertex   -1.940147e+001 -9.000000e+000 8.036352e+000
      vertex   -1.927769e+001 -9.500000e+000 7.985082e+000
      vertex   -1.734947e+001 -9.500000e+000 1.159254e+001
    endloop
  endfacet
  facet normal -2.009726e-001 -9.656121e-001 1.649339e-001
    outer loop
      vertex   -1.704513e+001 -9.866025e+000 1.138919e+001
      vertex   -1.662939e+001 -1.000000e+001 1.111140e+001
      vertex   -1.414214e+001 -1.000000e+001 1.414214e+001
    endloop
  endfacet
  facet normal -5.479185e-001 -7.053982e-001 4.496651e-001
    outer loop
      vertex   -1.734947e+001 -9.500000e+000 1.159254e+001
      vertex   -1.704513e+001 -9.866025e+000 1.138919e+001
      vertex   -1.449569e+001 -9.866025e+000 1.449569e+001
    endloop
  endfacet
  facet normal -7.469111e-001 -2.576557e-001 6.129741e-001
    outer loop
      vertex   -1.746086e+001 -9.000000e+000 1.166697e+001
      vertex   -1.734947e+001 -9.500000e+000 1.159254e+001
      vertex   -1.475451e+001 -9.500000e+000 1.475451e+001
    endloop
  endfacet
  facet normal -1.649339e-001 -9.656121e-001 2.009726e-001
    outer loop
      vertex   -1.449569e+001 -9.866025e+000 1.449569e+001
      vertex   -1.414214e+001 -1.000000e+001 1.414214e+001
      vertex   -1.111140e+001 -1.000000e+001 1.662939e+001
    endloop
  endfacet
  facet normal -4.496651e-001 -7.053982e-001 5.479185e-001
    outer loop
      vertex   -1.475451e+001 -9.500000e+000 1.475451e+001
      vertex   -1.449569e+001 -9.866025e+000 1.449569e+001
      vertex   -1.138919e+001 -9.866025e+000 1.704513e+001
    endloop
  endfacet
  facet normal -6.129741e-001 -2.576557e-001 7.469111e-001
    outer loop
      vertex   -1.484924e+001 -9.000000e+000 1.484924e+001
      vertex   -1.475451e+001 -9.500000e+000 1.475451e+001
      vertex   -1.159254e+001 -9.500000e+000 1.734947e+001
    endloop
  endfacet
  facet normal -1.225570e-001 -9.656121e-001 2.292880e-001
    outer loop
      vertex   -1.138919e+001 -9.866025e+000 1.704513e+001
      vertex   -1.111140e+001 -1.000000e+001 1.662939e+001
      vertex   -7.653669e+000 -1.000000e+001 1.847759e+001
    endloop
  endfacet
  facet normal -3.341313e-001 -7.053982e-001 6.251157e-001
    outer loop
      vertex   -1.159254e+001 -9.500000e+000 1.734947e+001
      vertex   -1.138919e+001 -9.866025e+000 1.704513e+001
      vertex   -7.845010e+000 -9.866025e+000 1.893953e+001
    endloop
  endfacet
  facet normal -4.554809e-001 -2.576557e-001 8.521448e-001
    outer loop
      vertex   -1.166697e+001 -9.000000e+000 1.746086e+001
      vertex   -1.159254e+001 -9.500000e+000 1.734947e+001
      vertex   -7.985082e+000 -9.500000e+000 1.927769e+001
    endloop
  endfacet
  facet normal -7.547021e-002 -9.656121e-001 2.487920e-001
    outer loop
      vertex   -7.845010e+000 -9.866025e+000 1.893953e+001
      vertex   -7.653669e+000 -1.000000e+001 1.847759e+001
      vertex   -3.901806e+000 -1.000000e+001 1.961571e+001
    endloop
  endfacet
  facet normal -2.057571e-001 -7.053982e-001 6.782901e-001
    outer loop
      vertex   -7.985082e+000 -9.500000e+000 1.927769e+001
      vertex   -7.845010e+000 -9.866025e+000 1.893953e+001
      vertex   -3.999352e+000 -9.866025e+000 2.010610e+001
    endloop
  endfacet
  facet normal -2.804837e-001 -2.576557e-001 9.246310e-001
    outer loop
      vertex   -8.036352e+000 -9.000000e+000 1.940147e+001
      vertex   -7.985082e+000 -9.500000e+000 1.927769e+001
      vertex   -4.070760e+000 -9.500000e+000 2.046509e+001
    endloop
  endfacet
  facet normal -2.548317e-002 -9.656121e-001 2.587350e-001
    outer loop
      vertex   -3.999352e+000 -9.866025e+000 2.010610e+001
      vertex   -3.901806e+000 -1.000000e+001 1.961571e+001
      vertex   2.449294e-015 -1.000000e+001 2.000000e+001
    endloop
  endfacet
  facet normal -6.947565e-002 -7.053982e-001 7.053982e-001
    outer loop
      vertex   -4.070760e+000 -9.500000e+000 2.046509e+001
      vertex   -3.999352e+000 -9.866025e+000 2.010610e+001
      vertex   2.510526e-015 -9.866025e+000 2.050000e+001
    endloop
  endfacet
  facet normal -9.470777e-002 -2.576557e-001 9.615841e-001
    outer loop
      vertex   -4.096897e+000 -9.000000e+000 2.059649e+001
      vertex   -4.070760e+000 -9.500000e+000 2.046509e+001
      vertex   2.555351e-015 -9.500000e+000 2.086603e+001
    endloop
  endfacet
  facet normal 2.548317e-002 -9.656121e-001 2.587350e-001
    outer loop
      vertex   2.510526e-015 -9.866025e+000 2.050000e+001
      vertex   2.449294e-015 -1.000000e+001 2.000000e+001
      vertex   3.901806e+000 -1.000000e+001 1.961571e+001
    endloop
  endfacet
  facet normal 6.947565e-002 -7.053982e-001 7.053982e-001
    outer loop
      vertex   2.555351e-015 -9.500000e+000 2.086603e+001
      vertex   2.510526e-015 -9.866025e+000 2.050000e+001
      vertex   3.999352e+000 -9.866025e+000 2.010610e+001
    endloop
  endfacet
  facet normal 9.470777e-002 -2.576557e-001 9.615841e-001
    outer loop
      vertex   2.571758e-015 -9.000000e+000 2.100000e+001
      vertex   2.555351e-015 -9.500000e+000 2.086603e+001
      vertex   4.070760e+000 -9.500000e+000 2.046509e+001
    endloop
  endfacet
  facet normal 7.547021e-002 -9.656121e-001 2.487920e-001
    outer loop
      vertex   3.999352e+000 -9.866025e+000 2.010610e+001
      vertex   3.901806e+000 -1.000000e+001 1.961571e+001
      vertex   7.653669e+000 -1.000000e+001 1.847759e+001
    endloop
  endfacet
  facet normal 2.057571e-001 -7.053982e-001 6.782901e-001
    outer loop
      vertex   4.070760e+000 -9.500000e+000 2.046509e+001
      vertex   3.999352e+000 -9.866025e+000 2.010610e+001
      vertex   7.845010e+000 -9.866025e+000 1.893953e+001
    endloop
  endfacet
  facet normal 2.804837e-001 -2.576557e-001 9.246310e-001
    outer loop
      vertex   4.096897e+000 -9.000000e+000 2.059649e+001
      vertex   4.070760e+000 -9.500000e+000 2.046509e+001
      vertex   7.985082e+000 -9.500000e+000 1.927769e+001
    endloop
  endfacet
  facet normal 1.225570e-001 -9.656121e-001 2.292880e-001
    outer loop
      vertex   7.845010e+000 -9.866025e+000 1.893953e+001
      vertex   7.653669e+000 -1.000000e+001 1.847759e+001
      vertex   1.111140e+001 -1.000000e+001 1.662939e+001
    endloop
  endfacet
  facet normal 3.341313e-001 -7.053982e-001 6.251157e-001
    outer loop
      vertex   7.985082e+000 -9.500000e+000 1.927769e+001
      vertex   7.845010e+000 -9.866025e+000 1.893953e+001
      vertex   1.138919e+001 -9.866025e+000 1.704513e+001
    endloop
  endfacet
  facet normal 4.554809e-001 -2.576557e-001 8.521448e-001
    outer loop
      vertex   8.036352e+000 -9.000000e+000 1.940147e+001
      vertex   7.985082e+000 -9.500000e+000 1.927769e+001
      vertex   1.159254e+001 -9.500000e+000 1.734947e+001
    endloop
  endfacet
  facet normal 1.649339e-001 -9.656121e-001 2.009726e-001
    outer loop
      vertex   1.138919e+001 -9.866025e+000 1.704513e+001
      vertex   1.111140e+001 -1.000000e+001 1.662939e+001
      vertex   1.414214e+001 -1.000000e+001 1.414214e+001
    endloop
  endfacet
  facet normal 4.496651e-001 -7.053982e-001 5.479185e-001
    outer loop
      vertex   1.159254e+001 -9.500000e+000 1.734947e+001
      vertex   1.138919e+001 -9.866025e+000 1.704513e+001
      vertex   1.449569e+001 -9.866025e+000 1.449569e+001
    endloop
  endfacet
  facet normal 6.129741e-001 -2.576557e-001 7.469111e-001
    outer loop
      vertex   1.166697e+001 -9.000000e+000 1.746086e+001
      vertex   1.159254e+001 -9.500000e+000 1.734947e+001
      vertex   1.475451e+001 -9.500000e+000 1.475451e+001
    endloop
  endfacet
  facet normal 2.009726e-001 -9.656121e-001 1.649339e-001
    outer loop
      vertex   1.449569e+001 -9.866025e+000 1.449569e+001
      vertex   1.414214e+001 -1.000000e+001 1.414214e+001
      vertex   1.662939e+001 -1.000000e+001 1.111140e+001
    endloop
  endfacet
  facet normal 5.479185e-001 -7.053982e-001 4.496651e-001
    outer loop
      vertex   1.475451e+001 -9.500000e+000 1.475451e+001
      vertex   1.449569e+001 -9.866025e+000 1.449569e+001
      vertex   1.704513e+001 -9.866025e+000 1.138919e+001
    endloop
  endfacet
  facet normal 7.469111e-001 -2.576557e-001 6.129741e-001
    outer loop
      vertex   1.484924e+001 -9.000000e+000 1.484924e+001
      vertex   1.475451e+001 -9.500000e+000 1.475451e+001
      vertex   1.734947e+001 -9.500000e+000 1.159254e+001
    endloop
  endfacet
  facet normal 2.292880e-001 -9.656121e-001 1.225570e-001
    outer loop
      vertex   1.704513e+001 -9.866025e+000 1.138919e+001
      vertex   1.662939e+001 -1.000000e+001 1.111140e+001
      vertex   1.847759e+001 -1.000000e+001 7.653669e+000
    endloop
  endfacet
  facet normal 6.251157e-001 -7.053982e-001 3.341313e-001
    outer loop
      vertex   1.734947e+001 -9.500000e+000 1.159254e+001
      vertex   1.704513e+001 -9.866025e+000 1.138919e+001
      vertex   1.893953e+001 -9.866025e+000 7.845010e+000
    endloop
  endfacet
  facet normal 8.521448e-001 -2.576557e-001 4.554809e-001
    outer loop
      vertex   1.746086e+001 -9.000000e+000 1.166697e+001
      vertex   1.734947e+001 -9.500000e+000 1.159254e+001
      vertex   1.927769e+001 -9.500000e+000 7.985082e+000
    endloop
  endfacet
  facet normal 2.487920e-001 -9.656121e-001 7.547021e-002
    outer loop
      vertex   1.893953e+001 -9.866025e+000 7.845010e+000
      vertex   1.847759e+001 -1.000000e+001 7.653669e+000
      vertex   1.961571e+001 -1.000000e+001 3.901806e+000
    endloop
  endfacet
  facet normal 6.782901e-001 -7.053982e-001 2.057571e-001
    outer loop
      vertex   1.927769e+001 -9.500000e+000 7.985082e+000
      vertex   1.893953e+001 -9.866025e+000 7.845010e+000
      vertex   2.010610e+001 -9.866025e+000 3.999352e+000
    endloop
  endfacet
  facet normal 9.246310e-001 -2.576557e-001 2.804837e-001
    outer loop
      vertex   1.940147e+001 -9.000000e+000 8.036352e+000
      vertex   1.927769e+001 -9.500000e+000 7.985082e+000
      vertex   2.046509e+001 -9.500000e+000 4.070760e+000
    endloop
  endfacet
  facet normal 2.587350e-001 -9.656121e-001 2.548317e-002
    outer loop
      vertex   2.010610e+001 -9.866025e+000 3.999352e+000
      vertex   1.961571e+001 -1.000000e+001 3.901806e+000
      vertex   2.000000e+001 -1.000000e+001 7.023153e-015
    endloop
  endfacet
  facet normal 7.053982e-001 -7.053982e-001 6.947565e-002
    outer loop
      vertex   2.068301e+001 -9.683013e+000 7.918634e-015
      vertex   2.086603e+001 -9.500000e+000 7.988701e-015
      vertex   2.046509e+001 -9.500000e+000 4.070760e+000
    endloop
  endfacet
  facet normal 9.615841e-001 -2.576557e-001 9.470777e-002
    outer loop
      vertex   2.059649e+001 -9.000000e+000 4.096897e+000
      vertex   2.046509e+001 -9.500000e+000 4.070760e+000
      vertex   2.086603e+001 -9.500000e+000 7.988701e-015
    endloop
  endfacet
  facet normal 9.659258e-001 -2.588190e-001 -1.049780e-016
    outer loop
      vertex   2.100000e+001 -9.000000e+000 -3.192316e+001
      vertex   2.100000e+001 -9.000000e+000 6.938894e-015
      vertex   2.086603e+001 -9.500000e+000 7.988701e-015
    endloop
  endfacet
  facet normal 9.238775e-001 -3.826826e-001 -2.116494e-003
    outer loop
      vertex   2.086603e+001 -9.500000e+000 7.988701e-015
      vertex   2.070711e+001 -9.707107e+000 -3.192316e+001
      vertex   2.100000e+001 -9.000000e+000 -3.192316e+001
    endloop
  endfacet
  facet normal 3.826826e-001 -9.238775e-001 -2.116494e-003
    outer loop
      vertex   2.000000e+001 -1.000000e+001 -3.192316e+001
      vertex   2.070711e+001 -9.707107e+000 -3.192316e+001
      vertex   2.050000e+001 -9.866025e+000 7.848566e-015
    endloop
  endfacet
  facet normal 7.071064e-001 -7.071064e-001 1.067381e-003
    outer loop
      vertex   2.070711e+001 -9.707107e+000 -3.192316e+001
      vertex   2.068301e+001 -9.683013e+000 7.918634e-015
      vertex   2.050000e+001 -9.866025e+000 7.848566e-015
    endloop
  endfacet
  facet normal 2.588190e-001 -9.659258e-001 0.000000e+000
    outer loop
      vertex   2.050000e+001 -9.866025e+000 7.848566e-015
      vertex   2.000000e+001 -1.000000e+001 7.023153e-015
      vertex   2.000000e+001 -1.000000e+001 -3.192316e+001
    endloop
  endfacet
  facet normal 7.071064e-001 -7.071064e-001 1.067381e-003
    outer loop
      vertex   2.086603e+001 -9.500000e+000 7.988701e-015
      vertex   2.068301e+001 -9.683013e+000 7.918634e-015
      vertex   2.070711e+001 -9.707107e+000 -3.192316e+001
    endloop
  endfacet
  facet normal 1.000000e+000 0.000000e+000 -1.086812e-016
    outer loop
      vertex   2.100000e+001 -9.000000e+000 6.938894e-015
      vertex   2.100000e+001 -9.000000e+000 -3.192316e+001
      vertex   2.100000e+001 9.000000e+000 -3.192316e+001
    endloop
  endfacet
  facet normal 1.000000e+000 0.000000e+000 -1.086812e-016
    outer loop
      vertex   2.100000e+001 9.000000e+000 -3.192316e+001
      vertex   2.100000e+001 9.000000e+000 6.938894e-015
      vertex   2.100000e+001 -9.000000e+000 6.938894e-015
    endloop
  endfacet
  facet normal 0.000000e+000 0.000000e+000 -1.000000e+000
    outer loop
      vertex   -2.100000e+001 -9.000000e+000 -3.192316e+001
      vertex   2.100000e+001 -9.000000e+000 -3.192316e+001
      vertex   2.000000e+001 -1.000000e+001 -3.192316e+001
    endloop
  endfacet
  facet normal 0.000000e+000 0.000000e+000 -1.000000e+000
    outer loop
      vertex   2.100000e+001 9.000000e+000 -3.192316e+001
      vertex   2.000000e+001 1.000000e+001 -3.192316e+001
      vertex   2.050000e+001 9.866025e+000 -3.192316e+001
    endloop
  endfacet
  facet normal 0.000000e+000 0.000000e+000 -1.000000e+000
    outer loop
      vertex   2.100000e+001 9.000000e+000 -3.192316e+001
      vertex   -2.100000e+001 9.000000e+000 -3.192316e+001
      vertex   -2.000000e+001 1.000000e+001 -3.192316e+001
    endloop
  endfacet
  facet normal -0.000000e+000 0.000000e+000 -1.000000e+000
    outer loop
      vertex   2.000000e+001 -1.000000e+001 -3.192316e+001
      vertex   -2.000000e+001 -1.000000e+001 -3.192316e+001
      vertex   -2.100000e+001 -9.000000e+000 -3.192316e+001
    endloop
  endfacet
  facet normal 0.000000e+000 0.000000e+000 -1.000000e+000
    outer loop
      vertex   -2.000000e+001 1.000000e+001 -3.192316e+001
      vertex   2.000000e+001 1.000000e+001 -3.192316e+001
      vertex   2.100000e+001 9.000000e+000 -3.192316e+001
    endloop
  endfacet
  facet normal 0.000000e+000 0.000000e+000 -1.000000e+000
    outer loop
      vertex   -2.100000e+001 9.000000e+000 -3.192316e+001
      vertex   -2.086603e+001 9.500000e+000 -3.192316e+001
      vertex   -2.050000e+001 9.866025e+000 -3.192316e+001
    endloop
  endfacet
  facet normal 0.000000e+000 0.000000e+000 -1.000000e+000
    outer loop
      vertex   2.100000e+001 -9.000000e+000 -3.192316e+001
      vertex   2.070711e+001 -9.707107e+000 -3.192316e+001
      vertex   2.000000e+001 -1.000000e+001 -3.192316e+001
    endloop
  endfacet
  facet normal 0.000000e+000 -0.000000e+000 -1.000000e+000
    outer loop
      vertex   2.100000e+001 9.000000e+000 -3.192316e+001
      vertex   2.100000e+001 -9.000000e+000 -3.192316e+001
      vertex   -2.100000e+001 -9.000000e+000 -3.192316e+001
    endloop
  endfacet
  facet normal 0.000000e+000 -0.000000e+000 -1.000000e+000
    outer loop
      vertex   -2.050000e+001 9.866025e+000 -3.192316e+001
      vertex   -2.000000e+001 1.000000e+001 -3.192316e+001
      vertex   -2.100000e+001 9.000000e+000 -3.192316e+001
    endloop
  endfacet
  facet normal 0.000000e+000 0.000000e+000 -1.000000e+000
    outer loop
      vertex   -2.100000e+001 -9.000000e+000 -3.192316e+001
      vertex   -2.100000e+001 9.000000e+000 -3.192316e+001
      vertex   2.100000e+001 9.000000e+000 -3.192316e+001
    endloop
  endfacet
  facet normal 0.000000e+000 0.000000e+000 -1.000000e+000
    outer loop
      vertex   -2.000000e+001 -1.000000e+001 -3.192316e+001
      vertex   -2.070711e+001 -9.707107e+000 -3.192316e+001
      vertex   -2.100000e+001 -9.000000e+000 -3.192316e+001
    endloop
  endfacet
  facet normal 0.000000e+000 0.000000e+000 -1.000000e+000
    outer loop
      vertex   2.050000e+001 9.866025e+000 -3.192316e+001
      vertex   2.086603e+001 9.500000e+000 -3.192316e+001
      vertex   2.100000e+001 9.000000e+000 -3.192316e+001
    endloop
  endfacet
  facet normal 0.000000e+000 1.000000e+000 0.000000e+000
    outer loop
      vertex   -1.961571e+001 1.000000e+001 3.901806e+000
      vertex   -1.414214e+001 1.000000e+001 1.414214e+001
      vertex   -1.111140e+001 1.000000e+001 1.662939e+001
    endloop
  endfacet
  facet normal 0.000000e+000 1.000000e+000 0.000000e+000
    outer loop
      vertex   -1.961571e+001 1.000000e+001 3.901806e+000
      vertex   2.449294e-015 1.000000e+001 2.000000e+001
      vertex   3.901806e+000 1.000000e+001 1.961571e+001
    endloop
  endfacet
  facet normal -0.000000e+000 1.000000e+000 0.000000e+000
    outer loop
      vertex   -1.111140e+001 1.000000e+001 1.662939e+001
      vertex   -7.653669e+000 1.000000e+001 1.847759e+001
      vertex   -1.961571e+001 1.000000e+001 3.901806e+000
    endloop
  endfacet
  facet normal 0.000000e+000 1.000000e+000 0.000000e+000
    outer loop
      vertex   -1.414214e+001 1.000000e+001 1.414214e+001
      vertex   -1.961571e+001 1.000000e+001 3.901806e+000
      vertex   -1.847759e+001 1.000000e+001 7.653669e+000
    endloop
  endfacet
  facet normal -4.251846e-017 1.000000e+000 -1.289783e-017
    outer loop
      vertex   -2.000000e+001 1.000000e+001 -2.487414e-015
      vertex   1.847759e+001 1.000000e+001 7.653669e+000
      vertex   1.961571e+001 1.000000e+001 3.901806e+000
    endloop
  endfacet
  facet normal -2.787922e-017 1.000000e+000 -5.215835e-017
    outer loop
      vertex   -2.000000e+001 1.000000e+001 -2.487414e-015
      vertex   7.653669e+000 1.000000e+001 1.847759e+001
      vertex   1.111140e+001 1.000000e+001 1.662939e+001
    endloop
  endfacet
  facet normal 0.000000e+000 1.000000e+000 0.000000e+000
    outer loop
      vertex   -1.961571e+001 1.000000e+001 3.901806e+000
      vertex   -3.901806e+000 1.000000e+001 1.961571e+001
      vertex   2.449294e-015 1.000000e+001 2.000000e+001
    endloop
  endfacet
  facet normal 0.000000e+000 1.000000e+000 0.000000e+000
    outer loop
      vertex   -1.847759e+001 1.000000e+001 7.653669e+000
      vertex   -1.662939e+001 1.000000e+001 1.111140e+001
      vertex   -1.414214e+001 1.000000e+001 1.414214e+001
    endloop
  endfacet
  facet normal -4.075128e-017 1.000000e+000 -2.178201e-017
    outer loop
      vertex   -2.000000e+001 1.000000e+001 -2.487414e-015
      vertex   1.662939e+001 1.000000e+001 1.111140e+001
      vertex   1.847759e+001 1.000000e+001 7.653669e+000
    endloop
  endfacet
  facet normal -3.376632e-017 1.000000e+000 -4.114438e-017
    outer loop
      vertex   1.111140e+001 1.000000e+001 1.662939e+001
      vertex   1.414214e+001 1.000000e+001 1.414214e+001
      vertex   -2.000000e+001 1.000000e+001 -2.487414e-015
    endloop
  endfacet
  facet normal -0.000000e+000 1.000000e+000 0.000000e+000
    outer loop
      vertex   -7.653669e+000 1.000000e+001 1.847759e+001
      vertex   -3.901806e+000 1.000000e+001 1.961571e+001
      vertex   -1.961571e+001 1.000000e+001 3.901806e+000
    endloop
  endfacet
  facet normal -3.791887e-017 1.000000e+000 -3.111922e-017
    outer loop
      vertex   1.414214e+001 1.000000e+001 1.414214e+001
      vertex   1.662939e+001 1.000000e+001 1.111140e+001
      vertex   -2.000000e+001 1.000000e+001 -2.487414e-015
    endloop
  endfacet
  facet normal 2.508467e-016 1.000000e+000 -4.693012e-016
    outer loop
      vertex   7.653669e+000 1.000000e+001 1.847759e+001
      vertex   -2.000000e+001 1.000000e+001 -2.487414e-015
      vertex   -1.961571e+001 1.000000e+001 3.901806e+000
    endloop
  endfacet
  facet normal 0.000000e+000 1.000000e+000 0.000000e+000
    outer loop
      vertex   3.901806e+000 1.000000e+001 1.961571e+001
      vertex   7.653669e+000 1.000000e+001 1.847759e+001
      vertex   -1.961571e+001 1.000000e+001 3.901806e+000
    endloop
  endfacet
  facet normal -0.000000e+000 1.000000e+000 0.000000e+000
    outer loop
      vertex   -2.000000e+001 1.000000e+001 -2.487414e-015
      vertex   2.000000e+001 1.000000e+001 6.608470e-015
      vertex   2.000000e+001 1.000000e+001 -3.192316e+001
    endloop
  endfacet
  facet normal 4.336809e-017 1.000000e+000 5.434060e-017
    outer loop
      vertex   2.000000e+001 1.000000e+001 -3.192316e+001
      vertex   -2.000000e+001 1.000000e+001 -3.192316e+001
      vertex   -2.000000e+001 1.000000e+001 -2.487414e-015
    endloop
  endfacet
  facet normal 1.012265e-031 1.000000e+000 -4.445950e-016
    outer loop
      vertex   1.961571e+001 1.000000e+001 3.901806e+000
      vertex   2.000000e+001 1.000000e+001 6.608470e-015
      vertex   -2.000000e+001 1.000000e+001 -2.487414e-015
    endloop
  endfacet
  facet normal 9.659258e-001 2.588190e-001 -1.049780e-016
    outer loop
      vertex   2.100000e+001 9.000000e+000 6.938894e-015
      vertex   2.100000e+001 9.000000e+000 -3.192316e+001
      vertex   2.086603e+001 9.500000e+000 -3.192316e+001
    endloop
  endfacet
  facet normal 7.071068e-001 7.071068e-001 -7.684922e-017
    outer loop
      vertex   2.086603e+001 9.500000e+000 7.988701e-015
      vertex   2.086603e+001 9.500000e+000 -3.192316e+001
      vertex   2.050000e+001 9.866025e+000 -3.192316e+001
    endloop
  endfacet
  facet normal 2.588190e-001 9.659258e-001 -2.812877e-017
    outer loop
      vertex   2.050000e+001 9.866025e+000 7.848566e-015
      vertex   2.050000e+001 9.866025e+000 -3.192316e+001
      vertex   2.000000e+001 1.000000e+001 -3.192316e+001
    endloop
  endfacet
  facet normal 2.588190e-001 9.659258e-001 -0.000000e+000
    outer loop
      vertex   2.000000e+001 1.000000e+001 -3.192316e+001
      vertex   2.000000e+001 1.000000e+001 6.608470e-015
      vertex   2.050000e+001 9.866025e+000 7.848566e-015
    endloop
  endfacet
  facet normal 7.071068e-001 7.071068e-001 -7.684922e-017
    outer loop
      vertex   2.050000e+001 9.866025e+000 -3.192316e+001
      vertex   2.050000e+001 9.866025e+000 7.848566e-015
      vertex   2.086603e+001 9.500000e+000 7.988701e-015
    endloop
  endfacet
  facet normal 9.659258e-001 2.588190e-001 -1.049780e-016
    outer loop
      vertex   2.086603e+001 9.500000e+000 -3.192316e+001
      vertex   2.086603e+001 9.500000e+000 7.988701e-015
      vertex   2.100000e+001 9.000000e+000 6.938894e-015
    endloop
  endfacet
  facet normal -9.659258e-001 2.588190e-001 -1.049780e-016
    outer loop
      vertex   -2.100000e+001 9.000000e+000 -3.192316e+001
      vertex   -2.100000e+001 9.000000e+000 -2.571673e-015
      vertex   -2.086603e+001 9.500000e+000 3.833027e-015
    endloop
  endfacet
  facet normal -7.071068e-001 7.071068e-001 -7.684922e-017
    outer loop
      vertex   -2.086603e+001 9.500000e+000 -3.192316e+001
      vertex   -2.086603e+001 9.500000e+000 3.833027e-015
      vertex   -2.050000e+001 9.866025e+000 3.765789e-015
    endloop
  endfacet
  facet normal -2.588190e-001 9.659258e-001 -2.812877e-017
    outer loop
      vertex   -2.050000e+001 9.866025e+000 -3.192316e+001
      vertex   -2.050000e+001 9.866025e+000 3.765789e-015
      vertex   -2.000000e+001 1.000000e+001 -2.487414e-015
    endloop
  endfacet
  facet normal -2.588190e-001 9.659258e-001 2.436023e-017
    outer loop
      vertex   -2.000000e+001 1.000000e+001 -2.487414e-015
      vertex   -2.000000e+001 1.000000e+001 -3.192316e+001
      vertex   -2.050000e+001 9.866025e+000 -3.192316e+001
    endloop
  endfacet
  facet normal -7.071068e-001 7.071068e-001 -7.684922e-017
    outer loop
      vertex   -2.050000e+001 9.866025e+000 3.765789e-015
      vertex   -2.050000e+001 9.866025e+000 -3.192316e+001
      vertex   -2.086603e+001 9.500000e+000 -3.192316e+001
    endloop
  endfacet
  facet normal -9.659258e-001 2.588190e-001 -1.049780e-016
    outer loop
      vertex   -2.086603e+001 9.500000e+000 3.833027e-015
      vertex   -2.086603e+001 9.500000e+000 -3.192316e+001
      vertex   -2.100000e+001 9.000000e+000 -3.192316e+001
    endloop
  endfacet
  facet normal -9.569403e-001 0.000000e+000 2.902847e-001
    outer loop
      vertex   -2.059649e+001 -9.000000e+000 4.096897e+000
      vertex   -1.940147e+001 -9.000000e+000 8.036352e+000
      vertex   -1.940147e+001 9.000000e+000 8.036352e+000
    endloop
  endfacet
  facet normal -9.951847e-001 0.000000e+000 9.801714e-002
    outer loop
      vertex   -2.059649e+001 -9.000000e+000 4.096897e+000
      vertex   -2.059649e+001 9.000000e+000 4.096897e+000
      vertex   -2.100000e+001 9.000000e+000 -2.571673e-015
    endloop
  endfacet
  facet normal -9.951847e-001 0.000000e+000 9.801714e-002
    outer loop
      vertex   -2.100000e+001 9.000000e+000 -2.571673e-015
      vertex   -2.100000e+001 -9.000000e+000 -2.571673e-015
      vertex   -2.059649e+001 -9.000000e+000 4.096897e+000
    endloop
  endfacet
  facet normal -7.730105e-001 0.000000e+000 6.343933e-001
    outer loop
      vertex   -1.746086e+001 -9.000000e+000 1.166697e+001
      vertex   -1.484924e+001 -9.000000e+000 1.484924e+001
      vertex   -1.484924e+001 9.000000e+000 1.484924e+001
    endloop
  endfacet
  facet normal -8.819213e-001 0.000000e+000 4.713967e-001
    outer loop
      vertex   -1.746086e+001 -9.000000e+000 1.166697e+001
      vertex   -1.746086e+001 9.000000e+000 1.166697e+001
      vertex   -1.940147e+001 9.000000e+000 8.036352e+000
    endloop
  endfacet
  facet normal -8.819213e-001 0.000000e+000 4.713967e-001
    outer loop
      vertex   -1.940147e+001 9.000000e+000 8.036352e+000
      vertex   -1.940147e+001 -9.000000e+000 8.036352e+000
      vertex   -1.746086e+001 -9.000000e+000 1.166697e+001
    endloop
  endfacet
  facet normal -4.713967e-001 0.000000e+000 8.819213e-001
    outer loop
      vertex   -1.166697e+001 -9.000000e+000 1.746086e+001
      vertex   -8.036352e+000 -9.000000e+000 1.940147e+001
      vertex   -8.036352e+000 9.000000e+000 1.940147e+001
    endloop
  endfacet
  facet normal -6.343933e-001 0.000000e+000 7.730105e-001
    outer loop
      vertex   -1.166697e+001 -9.000000e+000 1.746086e+001
      vertex   -1.166697e+001 9.000000e+000 1.746086e+001
      vertex   -1.484924e+001 9.000000e+000 1.484924e+001
    endloop
  endfacet
  facet normal -6.343933e-001 0.000000e+000 7.730105e-001
    outer loop
      vertex   -1.484924e+001 9.000000e+000 1.484924e+001
      vertex   -1.484924e+001 -9.000000e+000 1.484924e+001
      vertex   -1.166697e+001 -9.000000e+000 1.746086e+001
    endloop
  endfacet
  facet normal -9.801714e-002 0.000000e+000 9.951847e-001
    outer loop
      vertex   -4.096897e+000 -9.000000e+000 2.059649e+001
      vertex   2.571758e-015 -9.000000e+000 2.100000e+001
      vertex   2.571758e-015 9.000000e+000 2.100000e+001
    endloop
  endfacet
  facet normal -2.902847e-001 0.000000e+000 9.569403e-001
    outer loop
      vertex   -4.096897e+000 -9.000000e+000 2.059649e+001
      vertex   -4.096897e+000 9.000000e+000 2.059649e+001
      vertex   -8.036352e+000 9.000000e+000 1.940147e+001
    endloop
  endfacet
  facet normal -2.902847e-001 0.000000e+000 9.569403e-001
    outer loop
      vertex   -8.036352e+000 9.000000e+000 1.940147e+001
      vertex   -8.036352e+000 -9.000000e+000 1.940147e+001
      vertex   -4.096897e+000 -9.000000e+000 2.059649e+001
    endloop
  endfacet
  facet normal 2.902847e-001 0.000000e+000 9.569403e-001
    outer loop
      vertex   4.096897e+000 -9.000000e+000 2.059649e+001
      vertex   8.036352e+000 -9.000000e+000 1.940147e+001
      vertex   8.036352e+000 9.000000e+000 1.940147e+001
    endloop
  endfacet
  facet normal 9.801714e-002 -0.000000e+000 9.951847e-001
    outer loop
      vertex   4.096897e+000 -9.000000e+000 2.059649e+001
      vertex   4.096897e+000 9.000000e+000 2.059649e+001
      vertex   2.571758e-015 9.000000e+000 2.100000e+001
    endloop
  endfacet
  facet normal 9.801714e-002 0.000000e+000 9.951847e-001
    outer loop
      vertex   2.571758e-015 9.000000e+000 2.100000e+001
      vertex   2.571758e-015 -9.000000e+000 2.100000e+001
      vertex   4.096897e+000 -9.000000e+000 2.059649e+001
    endloop
  endfacet
  facet normal 6.343933e-001 0.000000e+000 7.730105e-001
    outer loop
      vertex   1.166697e+001 -9.000000e+000 1.746086e+001
      vertex   1.484924e+001 -9.000000e+000 1.484924e+001
      vertex   1.484924e+001 9.000000e+000 1.484924e+001
    endloop
  endfacet
  facet normal 4.713967e-001 -0.000000e+000 8.819213e-001
    outer loop
      vertex   1.166697e+001 -9.000000e+000 1.746086e+001
      vertex   1.166697e+001 9.000000e+000 1.746086e+001
      vertex   8.036352e+000 9.000000e+000 1.940147e+001
    endloop
  endfacet
  facet normal 4.713967e-001 0.000000e+000 8.819213e-001
    outer loop
      vertex   8.036352e+000 9.000000e+000 1.940147e+001
      vertex   8.036352e+000 -9.000000e+000 1.940147e+001
      vertex   1.166697e+001 -9.000000e+000 1.746086e+001
    endloop
  endfacet
  facet normal 8.819213e-001 0.000000e+000 4.713967e-001
    outer loop
      vertex   1.746086e+001 -9.000000e+000 1.166697e+001
      vertex   1.940147e+001 -9.000000e+000 8.036352e+000
      vertex   1.940147e+001 9.000000e+000 8.036352e+000
    endloop
  endfacet
  facet normal 7.730105e-001 -0.000000e+000 6.343933e-001
    outer loop
      vertex   1.746086e+001 -9.000000e+000 1.166697e+001
      vertex   1.746086e+001 9.000000e+000 1.166697e+001
      vertex   1.484924e+001 9.000000e+000 1.484924e+001
    endloop
  endfacet
  facet normal 7.730105e-001 0.000000e+000 6.343933e-001
    outer loop
      vertex   1.484924e+001 9.000000e+000 1.484924e+001
      vertex   1.484924e+001 -9.000000e+000 1.484924e+001
      vertex   1.746086e+001 -9.000000e+000 1.166697e+001
    endloop
  endfacet
  facet normal 9.951847e-001 0.000000e+000 9.801714e-002
    outer loop
      vertex   2.059649e+001 -9.000000e+000 4.096897e+000
      vertex   2.100000e+001 -9.000000e+000 6.938894e-015
      vertex   2.100000e+001 9.000000e+000 6.938894e-015
    endloop
  endfacet
  facet normal 9.569403e-001 -0.000000e+000 2.902847e-001
    outer loop
      vertex   2.059649e+001 -9.000000e+000 4.096897e+000
      vertex   2.059649e+001 9.000000e+000 4.096897e+000
      vertex   1.940147e+001 9.000000e+000 8.036352e+000
    endloop
  endfacet
  facet normal 9.569403e-001 0.000000e+000 2.902847e-001
    outer loop
      vertex   1.940147e+001 9.000000e+000 8.036352e+000
      vertex   1.940147e+001 -9.000000e+000 8.036352e+000
      vertex   2.059649e+001 -9.000000e+000 4.096897e+000
    endloop
  endfacet
  facet normal 9.951847e-001 0.000000e+000 9.801714e-002
    outer loop
      vertex   2.100000e+001 9.000000e+000 6.938894e-015
      vertex   2.059649e+001 9.000000e+000 4.096897e+000
      vertex   2.059649e+001 -9.000000e+000 4.096897e+000
    endloop
  endfacet
  facet normal 8.819213e-001 0.000000e+000 4.713967e-001
    outer loop
      vertex   1.940147e+001 9.000000e+000 8.036352e+000
      vertex   1.746086e+001 9.000000e+000 1.166697e+001
      vertex   1.746086e+001 -9.000000e+000 1.166697e+001
    endloop
  endfacet
  facet normal 6.343933e-001 0.000000e+000 7.730105e-001
    outer loop
      vertex   1.484924e+001 9.000000e+000 1.484924e+001
      vertex   1.166697e+001 9.000000e+000 1.746086e+001
      vertex   1.166697e+001 -9.000000e+000 1.746086e+001
    endloop
  endfacet
  facet normal 2.902847e-001 0.000000e+000 9.569403e-001
    outer loop
      vertex   8.036352e+000 9.000000e+000 1.940147e+001
      vertex   4.096897e+000 9.000000e+000 2.059649e+001
      vertex   4.096897e+000 -9.000000e+000 2.059649e+001
    endloop
  endfacet
  facet normal -9.801714e-002 0.000000e+000 9.951847e-001
    outer loop
      vertex   2.571758e-015 9.000000e+000 2.100000e+001
      vertex   -4.096897e+000 9.000000e+000 2.059649e+001
      vertex   -4.096897e+000 -9.000000e+000 2.059649e+001
    endloop
  endfacet
  facet normal -4.713967e-001 0.000000e+000 8.819213e-001
    outer loop
      vertex   -8.036352e+000 9.000000e+000 1.940147e+001
      vertex   -1.166697e+001 9.000000e+000 1.746086e+001
      vertex   -1.166697e+001 -9.000000e+000 1.746086e+001
    endloop
  endfacet
  facet normal -7.730105e-001 0.000000e+000 6.343933e-001
    outer loop
      vertex   -1.484924e+001 9.000000e+000 1.484924e+001
      vertex   -1.746086e+001 9.000000e+000 1.166697e+001
      vertex   -1.746086e+001 -9.000000e+000 1.166697e+001
    endloop
  endfacet
  facet normal -9.569403e-001 0.000000e+000 2.902847e-001
    outer loop
      vertex   -1.940147e+001 9.000000e+000 8.036352e+000
      vertex   -2.059649e+001 9.000000e+000 4.096897e+000
      vertex   -2.059649e+001 -9.000000e+000 4.096897e+000
    endloop
  endfacet
  facet normal 2.587350e-001 9.656121e-001 2.548317e-002
    outer loop
      vertex   2.050000e+001 9.866025e+000 7.848566e-015
      vertex   2.000000e+001 1.000000e+001 6.608470e-015
      vertex   1.961571e+001 1.000000e+001 3.901806e+000
    endloop
  endfacet
  facet normal 7.053982e-001 7.053982e-001 6.947565e-002
    outer loop
      vertex   2.086603e+001 9.500000e+000 7.988701e-015
      vertex   2.050000e+001 9.866025e+000 7.848566e-015
      vertex   2.010610e+001 9.866025e+000 3.999352e+000
    endloop
  endfacet
  facet normal 9.615841e-001 2.576557e-001 9.470777e-002
    outer loop
      vertex   2.100000e+001 9.000000e+000 6.938894e-015
      vertex   2.086603e+001 9.500000e+000 7.988701e-015
      vertex   2.046509e+001 9.500000e+000 4.070760e+000
    endloop
  endfacet
  facet normal 2.487920e-001 9.656121e-001 7.547021e-002
    outer loop
      vertex   2.010610e+001 9.866025e+000 3.999352e+000
      vertex   1.961571e+001 1.000000e+001 3.901806e+000
      vertex   1.847759e+001 1.000000e+001 7.653669e+000
    endloop
  endfacet
  facet normal 6.782901e-001 7.053982e-001 2.057571e-001
    outer loop
      vertex   2.046509e+001 9.500000e+000 4.070760e+000
      vertex   2.010610e+001 9.866025e+000 3.999352e+000
      vertex   1.893953e+001 9.866025e+000 7.845010e+000
    endloop
  endfacet
  facet normal 9.246310e-001 2.576557e-001 2.804837e-001
    outer loop
      vertex   2.059649e+001 9.000000e+000 4.096897e+000
      vertex   2.046509e+001 9.500000e+000 4.070760e+000
      vertex   1.927769e+001 9.500000e+000 7.985082e+000
    endloop
  endfacet
  facet normal 2.292880e-001 9.656121e-001 1.225570e-001
    outer loop
      vertex   1.893953e+001 9.866025e+000 7.845010e+000
      vertex   1.847759e+001 1.000000e+001 7.653669e+000
      vertex   1.662939e+001 1.000000e+001 1.111140e+001
    endloop
  endfacet
  facet normal 6.251157e-001 7.053982e-001 3.341313e-001
    outer loop
      vertex   1.927769e+001 9.500000e+000 7.985082e+000
      vertex   1.893953e+001 9.866025e+000 7.845010e+000
      vertex   1.704513e+001 9.866025e+000 1.138919e+001
    endloop
  endfacet
  facet normal 8.521448e-001 2.576557e-001 4.554809e-001
    outer loop
      vertex   1.940147e+001 9.000000e+000 8.036352e+000
      vertex   1.927769e+001 9.500000e+000 7.985082e+000
      vertex   1.734947e+001 9.500000e+000 1.159254e+001
    endloop
  endfacet
  facet normal 2.009726e-001 9.656121e-001 1.649339e-001
    outer loop
      vertex   1.704513e+001 9.866025e+000 1.138919e+001
      vertex   1.662939e+001 1.000000e+001 1.111140e+001
      vertex   1.414214e+001 1.000000e+001 1.414214e+001
    endloop
  endfacet
  facet normal 5.479185e-001 7.053982e-001 4.496651e-001
    outer loop
      vertex   1.734947e+001 9.500000e+000 1.159254e+001
      vertex   1.704513e+001 9.866025e+000 1.138919e+001
      vertex   1.449569e+001 9.866025e+000 1.449569e+001
    endloop
  endfacet
  facet normal 7.469111e-001 2.576557e-001 6.129741e-001
    outer loop
      vertex   1.746086e+001 9.000000e+000 1.166697e+001
      vertex   1.734947e+001 9.500000e+000 1.159254e+001
      vertex   1.475451e+001 9.500000e+000 1.475451e+001
    endloop
  endfacet
  facet normal 1.649339e-001 9.656121e-001 2.009726e-001
    outer loop
      vertex   1.449569e+001 9.866025e+000 1.449569e+001
      vertex   1.414214e+001 1.000000e+001 1.414214e+001
      vertex   1.111140e+001 1.000000e+001 1.662939e+001
    endloop
  endfacet
  facet normal 4.496651e-001 7.053982e-001 5.479185e-001
    outer loop
      vertex   1.475451e+001 9.500000e+000 1.475451e+001
      vertex   1.449569e+001 9.866025e+000 1.449569e+001
      vertex   1.138919e+001 9.866025e+000 1.704513e+001
    endloop
  endfacet
  facet normal 6.129741e-001 2.576557e-001 7.469111e-001
    outer loop
      vertex   1.484924e+001 9.000000e+000 1.484924e+001
      vertex   1.475451e+001 9.500000e+000 1.475451e+001
      vertex   1.159254e+001 9.500000e+000 1.734947e+001
    endloop
  endfacet
  facet normal 1.225570e-001 9.656121e-001 2.292880e-001
    outer loop
      vertex   1.138919e+001 9.866025e+000 1.704513e+001
      vertex   1.111140e+001 1.000000e+001 1.662939e+001
      vertex   7.653669e+000 1.000000e+001 1.847759e+001
    endloop
  endfacet
  facet normal 3.341313e-001 7.053982e-001 6.251157e-001
    outer loop
      vertex   1.159254e+001 9.500000e+000 1.734947e+001
      vertex   1.138919e+001 9.866025e+000 1.704513e+001
      vertex   7.845010e+000 9.866025e+000 1.893953e+001
    endloop
  endfacet
  facet normal 4.554809e-001 2.576557e-001 8.521448e-001
    outer loop
      vertex   1.166697e+001 9.000000e+000 1.746086e+001
      vertex   1.159254e+001 9.500000e+000 1.734947e+001
      vertex   7.985082e+000 9.500000e+000 1.927769e+001
    endloop
  endfacet
  facet normal 7.547021e-002 9.656121e-001 2.487920e-001
    outer loop
      vertex   7.845010e+000 9.866025e+000 1.893953e+001
      vertex   7.653669e+000 1.000000e+001 1.847759e+001
      vertex   3.901806e+000 1.000000e+001 1.961571e+001
    endloop
  endfacet
  facet normal 2.057571e-001 7.053982e-001 6.782901e-001
    outer loop
      vertex   7.985082e+000 9.500000e+000 1.927769e+001
      vertex   7.845010e+000 9.866025e+000 1.893953e+001
      vertex   3.999352e+000 9.866025e+000 2.010610e+001
    endloop
  endfacet
  facet normal 2.804837e-001 2.576557e-001 9.246310e-001
    outer loop
      vertex   8.036352e+000 9.000000e+000 1.940147e+001
      vertex   7.985082e+000 9.500000e+000 1.927769e+001
      vertex   4.070760e+000 9.500000e+000 2.046509e+001
    endloop
  endfacet
  facet normal 2.548317e-002 9.656121e-001 2.587350e-001
    outer loop
      vertex   3.999352e+000 9.866025e+000 2.010610e+001
      vertex   3.901806e+000 1.000000e+001 1.961571e+001
      vertex   2.449294e-015 1.000000e+001 2.000000e+001
    endloop
  endfacet
  facet normal 6.947565e-002 7.053982e-001 7.053982e-001
    outer loop
      vertex   4.070760e+000 9.500000e+000 2.046509e+001
      vertex   3.999352e+000 9.866025e+000 2.010610e+001
      vertex   2.510526e-015 9.866025e+000 2.050000e+001
    endloop
  endfacet
  facet normal 9.470777e-002 2.576557e-001 9.615841e-001
    outer loop
      vertex   4.096897e+000 9.000000e+000 2.059649e+001
      vertex   4.070760e+000 9.500000e+000 2.046509e+001
      vertex   2.555351e-015 9.500000e+000 2.086603e+001
    endloop
  endfacet
  facet normal -2.548317e-002 9.656121e-001 2.587350e-001
    outer loop
      vertex   2.510526e-015 9.866025e+000 2.050000e+001
      vertex   2.449294e-015 1.000000e+001 2.000000e+001
      vertex   -3.901806e+000 1.000000e+001 1.961571e+001
    endloop
  endfacet
  facet normal -6.947565e-002 7.053982e-001 7.053982e-001
    outer loop
      vertex   2.555351e-015 9.500000e+000 2.086603e+001
      vertex   2.510526e-015 9.866025e+000 2.050000e+001
      vertex   -3.999352e+000 9.866025e+000 2.010610e+001
    endloop
  endfacet
  facet normal -9.470777e-002 2.576557e-001 9.615841e-001
    outer loop
      vertex   2.571758e-015 9.000000e+000 2.100000e+001
      vertex   2.555351e-015 9.500000e+000 2.086603e+001
      vertex   -4.070760e+000 9.500000e+000 2.046509e+001
    endloop
  endfacet
  facet normal -7.547021e-002 9.656121e-001 2.487920e-001
    outer loop
      vertex   -3.999352e+000 9.866025e+000 2.010610e+001
      vertex   -3.901806e+000 1.000000e+001 1.961571e+001
      vertex   -7.653669e+000 1.000000e+001 1.847759e+001
    endloop
  endfacet
  facet normal -2.057571e-001 7.053982e-001 6.782901e-001
    outer loop
      vertex   -4.070760e+000 9.500000e+000 2.046509e+001
      vertex   -3.999352e+000 9.866025e+000 2.010610e+001
      vertex   -7.845010e+000 9.866025e+000 1.893953e+001
    endloop
  endfacet
  facet normal -2.804837e-001 2.576557e-001 9.246310e-001
    outer loop
      vertex   -4.096897e+000 9.000000e+000 2.059649e+001
      vertex   -4.070760e+000 9.500000e+000 2.046509e+001
      vertex   -7.985082e+000 9.500000e+000 1.927769e+001
    endloop
  endfacet
  facet normal -1.225570e-001 9.656121e-001 2.292880e-001
    outer loop
      vertex   -7.845010e+000 9.866025e+000 1.893953e+001
      vertex   -7.653669e+000 1.000000e+001 1.847759e+001
      vertex   -1.111140e+001 1.000000e+001 1.662939e+001
    endloop
  endfacet
  facet normal -3.341313e-001 7.053982e-001 6.251157e-001
    outer loop
      vertex   -7.985082e+000 9.500000e+000 1.927769e+001
      vertex   -7.845010e+000 9.866025e+000 1.893953e+001
      vertex   -1.138919e+001 9.866025e+000 1.704513e+001
    endloop
  endfacet
  facet normal -4.554809e-001 2.576557e-001 8.521448e-001
    outer loop
      vertex   -8.036352e+000 9.000000e+000 1.940147e+001
      vertex   -7.985082e+000 9.500000e+000 1.927769e+001
      vertex   -1.159254e+001 9.500000e+000 1.734947e+001
    endloop
  endfacet
  facet normal -1.649339e-001 9.656121e-001 2.009726e-001
    outer loop
      vertex   -1.138919e+001 9.866025e+000 1.704513e+001
      vertex   -1.111140e+001 1.000000e+001 1.662939e+001
      vertex   -1.414214e+001 1.000000e+001 1.414214e+001
    endloop
  endfacet
  facet normal -4.496651e-001 7.053982e-001 5.479185e-001
    outer loop
      vertex   -1.159254e+001 9.500000e+000 1.734947e+001
      vertex   -1.138919e+001 9.866025e+000 1.704513e+001
      vertex   -1.449569e+001 9.866025e+000 1.449569e+001
    endloop
  endfacet
  facet normal -6.129741e-001 2.576557e-001 7.469111e-001
    outer loop
      vertex   -1.166697e+001 9.000000e+000 1.746086e+001
      vertex   -1.159254e+001 9.500000e+000 1.734947e+001
      vertex   -1.475451e+001 9.500000e+000 1.475451e+001
    endloop
  endfacet
  facet normal -2.009726e-001 9.656121e-001 1.649339e-001
    outer loop
      vertex   -1.449569e+001 9.866025e+000 1.449569e+001
      vertex   -1.414214e+001 1.000000e+001 1.414214e+001
      vertex   -1.662939e+001 1.000000e+001 1.111140e+001
    endloop
  endfacet
  facet normal -5.479185e-001 7.053982e-001 4.496651e-001
    outer loop
      vertex   -1.475451e+001 9.500000e+000 1.475451e+001
      vertex   -1.449569e+001 9.866025e+000 1.449569e+001
      vertex   -1.704513e+001 9.866025e+000 1.138919e+001
    endloop
  endfacet
  facet normal -7.469111e-001 2.576557e-001 6.129741e-001
    outer loop
      vertex   -1.484924e+001 9.000000e+000 1.484924e+001
      vertex   -1.475451e+001 9.500000e+000 1.475451e+001
      vertex   -1.734947e+001 9.500000e+000 1.159254e+001
    endloop
  endfacet
  facet normal -2.292880e-001 9.656121e-001 1.225570e-001
    outer loop
      vertex   -1.704513e+001 9.866025e+000 1.138919e+001
      vertex   -1.662939e+001 1.000000e+001 1.111140e+001
      vertex   -1.847759e+001 1.000000e+001 7.653669e+000
    endloop
  endfacet
  facet normal -6.251157e-001 7.053982e-001 3.341313e-001
    outer loop
      vertex   -1.734947e+001 9.500000e+000 1.159254e+001
      vertex   -1.704513e+001 9.866025e+000 1.138919e+001
      vertex   -1.893953e+001 9.866025e+000 7.845010e+000
    endloop
  endfacet
  facet normal -8.521448e-001 2.576557e-001 4.554809e-001
    outer loop
      vertex   -1.746086e+001 9.000000e+000 1.166697e+001
      vertex   -1.734947e+001 9.500000e+000 1.159254e+001
      vertex   -1.927769e+001 9.500000e+000 7.985082e+000
    endloop
  endfacet
  facet normal -2.487920e-001 9.656121e-001 7.547021e-002
    outer loop
      vertex   -1.893953e+001 9.866025e+000 7.845010e+000
      vertex   -1.847759e+001 1.000000e+001 7.653669e+000
      vertex   -1.961571e+001 1.000000e+001 3.901806e+000
    endloop
  endfacet
  facet normal -6.782901e-001 7.053982e-001 2.057571e-001
    outer loop
      vertex   -1.927769e+001 9.500000e+000 7.985082e+000
      vertex   -1.893953e+001 9.866025e+000 7.845010e+000
      vertex   -2.010610e+001 9.866025e+000 3.999352e+000
    endloop
  endfacet
  facet normal -9.246310e-001 2.576557e-001 2.804837e-001
    outer loop
      vertex   -1.940147e+001 9.000000e+000 8.036352e+000
      vertex   -1.927769e+001 9.500000e+000 7.985082e+000
      vertex   -2.046509e+001 9.500000e+000 4.070760e+000
    endloop
  endfacet
  facet normal -2.587350e-001 9.656121e-001 2.548317e-002
    outer loop
      vertex   -2.010610e+001 9.866025e+000 3.999352e+000
      vertex   -1.961571e+001 1.000000e+001 3.901806e+000
      vertex   -2.000000e+001 1.000000e+001 -2.487414e-015
    endloop
  endfacet
  facet normal -7.053982e-001 7.053982e-001 6.947565e-002
    outer loop
      vertex   -2.046509e+001 9.500000e+000 4.070760e+000
      vertex   -2.010610e+001 9.866025e+000 3.999352e+000
      vertex   -2.050000e+001 9.866025e+000 3.765789e-015
    endloop
  endfacet
  facet normal -9.615841e-001 2.576557e-001 9.470777e-002
    outer loop
      vertex   -2.059649e+001 9.000000e+000 4.096897e+000
      vertex   -2.046509e+001 9.500000e+000 4.070760e+000
      vertex   -2.086603e+001 9.500000e+000 3.833027e-015
    endloop
  endfacet
  facet normal -9.615841e-001 2.576557e-001 9.470777e-002
    outer loop
      vertex   -2.086603e+001 9.500000e+000 3.833027e-015
      vertex   -2.100000e+001 9.000000e+000 -2.571673e-015
      vertex   -2.059649e+001 9.000000e+000 4.096897e+000
    endloop
  endfacet
  facet normal -7.053982e-001 7.053982e-001 6.947565e-002
    outer loop
      vertex   -2.050000e+001 9.866025e+000 3.765789e-015
      vertex   -2.086603e+001 9.500000e+000 3.833027e-015
      vertex   -2.046509e+001 9.500000e+000 4.070760e+000
    endloop
  endfacet
  facet normal -2.587350e-001 9.656121e-001 2.548317e-002
    outer loop
      vertex   -2.000000e+001 1.000000e+001 -2.487414e-015
      vertex   -2.050000e+001 9.866025e+000 3.765789e-015
      vertex   -2.010610e+001 9.866025e+000 3.999352e+000
    endloop
  endfacet
  facet normal -9.246310e-001 2.576557e-001 2.804837e-001
    outer loop
      vertex   -2.046509e+001 9.500000e+000 4.070760e+000
      vertex   -2.059649e+001 9.000000e+000 4.096897e+000
      vertex   -1.940147e+001 9.000000e+000 8.036352e+000
    endloop
  endfacet
  facet normal -6.782901e-001 7.053982e-001 2.057571e-001
    outer loop
      vertex   -2.010610e+001 9.866025e+000 3.999352e+000
      vertex   -2.046509e+001 9.500000e+000 4.070760e+000
      vertex   -1.927769e+001 9.500000e+000 7.985082e+000
    endloop
  endfacet
  facet normal -2.487920e-001 9.656121e-001 7.547021e-002
    outer loop
      vertex   -1.961571e+001 1.000000e+001 3.901806e+000
      vertex   -2.010610e+001 9.866025e+000 3.999352e+000
      vertex   -1.893953e+001 9.866025e+000 7.845010e+000
    endloop
  endfacet
  facet normal -8.521448e-001 2.576557e-001 4.554809e-001
    outer loop
      vertex   -1.927769e+001 9.500000e+000 7.985082e+000
      vertex   -1.940147e+001 9.000000e+000 8.036352e+000
      vertex   -1.746086e+001 9.000000e+000 1.166697e+001
    endloop
  endfacet
  facet normal -6.251157e-001 7.053982e-001 3.341313e-001
    outer loop
      vertex   -1.893953e+001 9.866025e+000 7.845010e+000
      vertex   -1.927769e+001 9.500000e+000 7.985082e+000
      vertex   -1.734947e+001 9.500000e+000 1.159254e+001
    endloop
  endfacet
  facet normal -2.292880e-001 9.656121e-001 1.225570e-001
    outer loop
      vertex   -1.847759e+001 1.000000e+001 7.653669e+000
      vertex   -1.893953e+001 9.866025e+000 7.845010e+000
      vertex   -1.704513e+001 9.866025e+000 1.138919e+001
    endloop
  endfacet
  facet normal -7.469111e-001 2.576557e-001 6.129741e-001
    outer loop
      vertex   -1.734947e+001 9.500000e+000 1.159254e+001
      vertex   -1.746086e+001 9.000000e+000 1.166697e+001
      vertex   -1.484924e+001 9.000000e+000 1.484924e+001
    endloop
  endfacet
  facet normal -5.479185e-001 7.053982e-001 4.496651e-001
    outer loop
      vertex   -1.704513e+001 9.866025e+000 1.138919e+001
      vertex   -1.734947e+001 9.500000e+000 1.159254e+001
      vertex   -1.475451e+001 9.500000e+000 1.475451e+001
    endloop
  endfacet
  facet normal -2.009726e-001 9.656121e-001 1.649339e-001
    outer loop
      vertex   -1.662939e+001 1.000000e+001 1.111140e+001
      vertex   -1.704513e+001 9.866025e+000 1.138919e+001
      vertex   -1.449569e+001 9.866025e+000 1.449569e+001
    endloop
  endfacet
  facet normal -6.129741e-001 2.576557e-001 7.469111e-001
    outer loop
      vertex   -1.475451e+001 9.500000e+000 1.475451e+001
      vertex   -1.484924e+001 9.000000e+000 1.484924e+001
      vertex   -1.166697e+001 9.000000e+000 1.746086e+001
    endloop
  endfacet
  facet normal -4.496651e-001 7.053982e-001 5.479185e-001
    outer loop
      vertex   -1.449569e+001 9.866025e+000 1.449569e+001
      vertex   -1.475451e+001 9.500000e+000 1.475451e+001
      vertex   -1.159254e+001 9.500000e+000 1.734947e+001
    endloop
  endfacet
  facet normal -1.649339e-001 9.656121e-001 2.009726e-001
    outer loop
      vertex   -1.414214e+001 1.000000e+001 1.414214e+001
      vertex   -1.449569e+001 9.866025e+000 1.449569e+001
      vertex   -1.138919e+001 9.866025e+000 1.704513e+001
    endloop
  endfacet
  facet normal -4.554809e-001 2.576557e-001 8.521448e-001
    outer loop
      vertex   -1.159254e+001 9.500000e+000 1.734947e+001
      vertex   -1.166697e+001 9.000000e+000 1.746086e+001
      vertex   -8.036352e+000 9.000000e+000 1.940147e+001
    endloop
  endfacet
  facet normal -3.341313e-001 7.053982e-001 6.251157e-001
    outer loop
      vertex   -1.138919e+001 9.866025e+000 1.704513e+001
      vertex   -1.159254e+001 9.500000e+000 1.734947e+001
      vertex   -7.985082e+000 9.500000e+000 1.927769e+001
    endloop
  endfacet
  facet normal -1.225570e-001 9.656121e-001 2.292880e-001
    outer loop
      vertex   -1.111140e+001 1.000000e+001 1.662939e+001
      vertex   -1.138919e+001 9.866025e+000 1.704513e+001
      vertex   -7.845010e+000 9.866025e+000 1.893953e+001
    endloop
  endfacet
  facet normal -2.804837e-001 2.576557e-001 9.246310e-001
    outer loop
      vertex   -7.985082e+000 9.500000e+000 1.927769e+001
      vertex   -8.036352e+000 9.000000e+000 1.940147e+001
      vertex   -4.096897e+000 9.000000e+000 2.059649e+001
    endloop
  endfacet
  facet normal -2.057571e-001 7.053982e-001 6.782901e-001
    outer loop
      vertex   -7.845010e+000 9.866025e+000 1.893953e+001
      vertex   -7.985082e+000 9.500000e+000 1.927769e+001
      vertex   -4.070760e+000 9.500000e+000 2.046509e+001
    endloop
  endfacet
  facet normal -7.547021e-002 9.656121e-001 2.487920e-001
    outer loop
      vertex   -7.653669e+000 1.000000e+001 1.847759e+001
      vertex   -7.845010e+000 9.866025e+000 1.893953e+001
      vertex   -3.999352e+000 9.866025e+000 2.010610e+001
    endloop
  endfacet
  facet normal -9.470777e-002 2.576557e-001 9.615841e-001
    outer loop
      vertex   -4.070760e+000 9.500000e+000 2.046509e+001
      vertex   -4.096897e+000 9.000000e+000 2.059649e+001
      vertex   2.571758e-015 9.000000e+000 2.100000e+001
    endloop
  endfacet
  facet normal -6.947565e-002 7.053982e-001 7.053982e-001
    outer loop
      vertex   -3.999352e+000 9.866025e+000 2.010610e+001
      vertex   -4.070760e+000 9.500000e+000 2.046509e+001
      vertex   2.555351e-015 9.500000e+000 2.086603e+001
    endloop
  endfacet
  facet normal -2.548317e-002 9.656121e-001 2.587350e-001
    outer loop
      vertex   -3.901806e+000 1.000000e+001 1.961571e+001
      vertex   -3.999352e+000 9.866025e+000 2.010610e+001
      vertex   2.510526e-015 9.866025e+000 2.050000e+001
    endloop
  endfacet
  facet normal 9.470777e-002 2.576557e-001 9.615841e-001
    outer loop
      vertex   2.555351e-015 9.500000e+000 2.086603e+001
      vertex   2.571758e-015 9.000000e+000 2.100000e+001
      vertex   4.096897e+000 9.000000e+000 2.059649e+001
    endloop
  endfacet
  facet normal 6.947565e-002 7.053982e-001 7.053982e-001
    outer loop
      vertex   2.510526e-015 9.866025e+000 2.050000e+001
      vertex   2.555351e-015 9.500000e+000 2.086603e+001
      vertex   4.070760e+000 9.500000e+000 2.046509e+001
    endloop
  endfacet
  facet normal 2.548317e-002 9.656121e-001 2.587350e-001
    outer loop
      vertex   2.449294e-015 1.000000e+001 2.000000e+001
      vertex   2.510526e-015 9.866025e+000 2.050000e+001
      vertex   3.999352e+000 9.866025e+000 2.010610e+001
    endloop
  endfacet
  facet normal 2.804837e-001 2.576557e-001 9.246310e-001
    outer loop
      vertex   4.070760e+000 9.500000e+000 2.046509e+001
      vertex   4.096897e+000 9.000000e+000 2.059649e+001
      vertex   8.036352e+000 9.000000e+000 1.940147e+001
    endloop
  endfacet
  facet normal 2.057571e-001 7.053982e-001 6.782901e-001
    outer loop
      vertex   3.999352e+000 9.866025e+000 2.010610e+001
      vertex   4.070760e+000 9.500000e+000 2.046509e+001
      vertex   7.985082e+000 9.500000e+000 1.927769e+001
    endloop
  endfacet
  facet normal 7.547021e-002 9.656121e-001 2.487920e-001
    outer loop
      vertex   3.901806e+000 1.000000e+001 1.961571e+001
      vertex   3.999352e+000 9.866025e+000 2.010610e+001
      vertex   7.845010e+000 9.866025e+000 1.893953e+001
    endloop
  endfacet
  facet normal 4.554809e-001 2.576557e-001 8.521448e-001
    outer loop
      vertex   7.985082e+000 9.500000e+000 1.927769e+001
      vertex   8.036352e+000 9.000000e+000 1.940147e+001
      vertex   1.166697e+001 9.000000e+000 1.746086e+001
    endloop
  endfacet
  facet normal 3.341313e-001 7.053982e-001 6.251157e-001
    outer loop
      vertex   7.845010e+000 9.866025e+000 1.893953e+001
      vertex   7.985082e+000 9.500000e+000 1.927769e+001
      vertex   1.159254e+001 9.500000e+000 1.734947e+001
    endloop
  endfacet
  facet normal 1.225570e-001 9.656121e-001 2.292880e-001
    outer loop
      vertex   7.653669e+000 1.000000e+001 1.847759e+001
      vertex   7.845010e+000 9.866025e+000 1.893953e+001
      vertex   1.138919e+001 9.866025e+000 1.704513e+001
    endloop
  endfacet
  facet normal 6.129741e-001 2.576557e-001 7.469111e-001
    outer loop
      vertex   1.159254e+001 9.500000e+000 1.734947e+001
      vertex   1.166697e+001 9.000000e+000 1.746086e+001
      vertex   1.484924e+001 9.000000e+000 1.484924e+001
    endloop
  endfacet
  facet normal 4.496651e-001 7.053982e-001 5.479185e-001
    outer loop
      vertex   1.138919e+001 9.866025e+000 1.704513e+001
      vertex   1.159254e+001 9.500000e+000 1.734947e+001
      vertex   1.475451e+001 9.500000e+000 1.475451e+001
    endloop
  endfacet
  facet normal 1.649339e-001 9.656121e-001 2.009726e-001
    outer loop
      vertex   1.111140e+001 1.000000e+001 1.662939e+001
      vertex   1.138919e+001 9.866025e+000 1.704513e+001
      vertex   1.449569e+001 9.866025e+000 1.449569e+001
    endloop
  endfacet
  facet normal 7.469111e-001 2.576557e-001 6.129741e-001
    outer loop
      vertex   1.475451e+001 9.500000e+000 1.475451e+001
      vertex   1.484924e+001 9.000000e+000 1.484924e+001
      vertex   1.746086e+001 9.000000e+000 1.166697e+001
    endloop
  endfacet
  facet normal 5.479185e-001 7.053982e-001 4.496651e-001
    outer loop
      vertex   1.449569e+001 9.866025e+000 1.449569e+001
      vertex   1.475451e+001 9.500000e+000 1.475451e+001
      vertex   1.734947e+001 9.500000e+000 1.159254e+001
    endloop
  endfacet
  facet normal 2.009726e-001 9.656121e-001 1.649339e-001
    outer loop
      vertex   1.414214e+001 1.000000e+001 1.414214e+001
      vertex   1.449569e+001 9.866025e+000 1.449569e+001
      vertex   1.704513e+001 9.866025e+000 1.138919e+001
    endloop
  endfacet
  facet normal 8.521448e-001 2.576557e-001 4.554809e-001
    outer loop
      vertex   1.734947e+001 9.500000e+000 1.159254e+001
      vertex   1.746086e+001 9.000000e+000 1.166697e+001
      vertex   1.940147e+001 9.000000e+000 8.036352e+000
    endloop
  endfacet
  facet normal 6.251157e-001 7.053982e-001 3.341313e-001
    outer loop
      vertex   1.704513e+001 9.866025e+000 1.138919e+001
      vertex   1.734947e+001 9.500000e+000 1.159254e+001
      vertex   1.927769e+001 9.500000e+000 7.985082e+000
    endloop
  endfacet
  facet normal 2.292880e-001 9.656121e-001 1.225570e-001
    outer loop
      vertex   1.662939e+001 1.000000e+001 1.111140e+001
      vertex   1.704513e+001 9.866025e+000 1.138919e+001
      vertex   1.893953e+001 9.866025e+000 7.845010e+000
    endloop
  endfacet
  facet normal 9.246310e-001 2.576557e-001 2.804837e-001
    outer loop
      vertex   1.927769e+001 9.500000e+000 7.985082e+000
      vertex   1.940147e+001 9.000000e+000 8.036352e+000
      vertex   2.059649e+001 9.000000e+000 4.096897e+000
    endloop
  endfacet
  facet normal 6.782901e-001 7.053982e-001 2.057571e-001
    outer loop
      vertex   1.893953e+001 9.866025e+000 7.845010e+000
      vertex   1.927769e+001 9.500000e+000 7.985082e+000
      vertex   2.046509e+001 9.500000e+000 4.070760e+000
    endloop
  endfacet
  facet normal 2.487920e-001 9.656121e-001 7.547021e-002
    outer loop
      vertex   1.847759e+001 1.000000e+001 7.653669e+000
      vertex   1.893953e+001 9.866025e+000 7.845010e+000
      vertex   2.010610e+001 9.866025e+000 3.999352e+000
    endloop
  endfacet
  facet normal 9.615841e-001 2.576557e-001 9.470777e-002
    outer loop
      vertex   2.046509e+001 9.500000e+000 4.070760e+000
      vertex   2.059649e+001 9.000000e+000 4.096897e+000
      vertex   2.100000e+001 9.000000e+000 6.938894e-015
    endloop
  endfacet
  facet normal 7.053982e-001 7.053982e-001 6.947565e-002
    outer loop
      vertex   2.010610e+001 9.866025e+000 3.999352e+000
      vertex   2.046509e+001 9.500000e+000 4.070760e+000
      vertex   2.086603e+001 9.500000e+000 7.988701e-015
    endloop
  endfacet
  facet normal 2.587350e-001 9.656121e-001 2.548317e-002
    outer loop
      vertex   1.961571e+001 1.000000e+001 3.901806e+000
      vertex   2.010610e+001 9.866025e+000 3.999352e+000
      vertex   2.050000e+001 9.866025e+000 7.848566e-015
    endloop
  endfacet
endsolid
