solid Cojinete
  facet normal 0.000000e+000 -1.000000e+000 0.000000e+000
    outer loop
      vertex   0.000000e+000 -4.000000e+000 0.000000e+000
      vertex   -2.781153e+000 -4.000000e+000 8.559509e+000
      vertex   -5.290067e+000 -4.000000e+000 7.281153e+000
    endloop
  endfacet
  facet normal 0.000000e+000 -1.000000e+000 -0.000000e+000
    outer loop
      vertex   -5.290067e+000 -4.000000e+000 7.281153e+000
      vertex   -7.281153e+000 -4.000000e+000 5.290067e+000
      vertex   0.000000e+000 -4.000000e+000 0.000000e+000
    endloop
  endfacet
  facet normal 0.000000e+000 -1.000000e+000 -0.000000e+000
    outer loop
      vertex   -7.281153e+000 -4.000000e+000 5.290067e+000
      vertex   -8.559509e+000 -4.000000e+000 2.781153e+000
      vertex   0.000000e+000 -4.000000e+000 0.000000e+000
    endloop
  endfacet
  facet normal 0.000000e+000 -1.000000e+000 -0.000000e+000
    outer loop
      vertex   -8.559509e+000 -4.000000e+000 2.781153e+000
      vertex   -9.000000e+000 -4.000000e+000 -1.653273e-015
      vertex   0.000000e+000 -4.000000e+000 0.000000e+000
    endloop
  endfacet
  facet normal 0.000000e+000 -1.000000e+000 0.000000e+000
    outer loop
      vertex   -9.000000e+000 -4.000000e+000 -1.653273e-015
      vertex   -8.559509e+000 -4.000000e+000 -2.781153e+000
      vertex   0.000000e+000 -4.000000e+000 0.000000e+000
    endloop
  endfacet
  facet normal 0.000000e+000 -1.000000e+000 0.000000e+000
    outer loop
      vertex   -8.559509e+000 -4.000000e+000 -2.781153e+000
      vertex   -7.281153e+000 -4.000000e+000 -5.290067e+000
      vertex   0.000000e+000 -4.000000e+000 0.000000e+000
    endloop
  endfacet
  facet normal 0.000000e+000 -1.000000e+000 0.000000e+000
    outer loop
      vertex   -7.281153e+000 -4.000000e+000 -5.290067e+000
      vertex   -5.290067e+000 -4.000000e+000 -7.281153e+000
      vertex   0.000000e+000 -4.000000e+000 0.000000e+000
    endloop
  endfacet
  facet normal 0.000000e+000 -1.000000e+000 0.000000e+000
    outer loop
      vertex   -5.290067e+000 -4.000000e+000 -7.281153e+000
      vertex   -2.781153e+000 -4.000000e+000 -8.559509e+000
      vertex   0.000000e+000 -4.000000e+000 0.000000e+000
    endloop
  endfacet
  facet normal 0.000000e+000 -1.000000e+000 0.000000e+000
    outer loop
      vertex   -2.781153e+000 -4.000000e+000 -8.559509e+000
      vertex   1.102182e-015 -4.000000e+000 -9.000000e+000
      vertex   0.000000e+000 -4.000000e+000 0.000000e+000
    endloop
  endfacet
  facet normal 0.000000e+000 -1.000000e+000 0.000000e+000
    outer loop
      vertex   1.102182e-015 -4.000000e+000 -9.000000e+000
      vertex   2.781153e+000 -4.000000e+000 -8.559509e+000
      vertex   0.000000e+000 -4.000000e+000 0.000000e+000
    endloop
  endfacet
  facet normal 0.000000e+000 -1.000000e+000 0.000000e+000
    outer loop
      vertex   2.781153e+000 -4.000000e+000 -8.559509e+000
      vertex   5.290067e+000 -4.000000e+000 -7.281153e+000
      vertex   0.000000e+000 -4.000000e+000 0.000000e+000
    endloop
  endfacet
  facet normal 0.000000e+000 -1.000000e+000 0.000000e+000
    outer loop
      vertex   5.290067e+000 -4.000000e+000 -7.281153e+000
      vertex   7.281153e+000 -4.000000e+000 -5.290067e+000
      vertex   0.000000e+000 -4.000000e+000 0.000000e+000
    endloop
  endfacet
  facet normal 0.000000e+000 -1.000000e+000 0.000000e+000
    outer loop
      vertex   7.281153e+000 -4.000000e+000 -5.290067e+000
      vertex   8.559509e+000 -4.000000e+000 -2.781153e+000
      vertex   0.000000e+000 -4.000000e+000 0.000000e+000
    endloop
  endfacet
  facet normal 0.000000e+000 -1.000000e+000 0.000000e+000
    outer loop
      vertex   8.559509e+000 -4.000000e+000 -2.781153e+000
      vertex   9.000000e+000 -4.000000e+000 5.510911e-016
      vertex   0.000000e+000 -4.000000e+000 0.000000e+000
    endloop
  endfacet
  facet normal -0.000000e+000 -1.000000e+000 0.000000e+000
    outer loop
      vertex   9.000000e+000 -4.000000e+000 5.510911e-016
      vertex   8.559509e+000 -4.000000e+000 2.781153e+000
      vertex   0.000000e+000 -4.000000e+000 0.000000e+000
    endloop
  endfacet
  facet normal -0.000000e+000 -1.000000e+000 0.000000e+000
    outer loop
      vertex   8.559509e+000 -4.000000e+000 2.781153e+000
      vertex   7.281153e+000 -4.000000e+000 5.290067e+000
      vertex   0.000000e+000 -4.000000e+000 0.000000e+000
    endloop
  endfacet
  facet normal -0.000000e+000 -1.000000e+000 0.000000e+000
    outer loop
      vertex   7.281153e+000 -4.000000e+000 5.290067e+000
      vertex   5.290067e+000 -4.000000e+000 7.281153e+000
      vertex   0.000000e+000 -4.000000e+000 0.000000e+000
    endloop
  endfacet
  facet normal -0.000000e+000 -1.000000e+000 0.000000e+000
    outer loop
      vertex   5.290067e+000 -4.000000e+000 7.281153e+000
      vertex   2.781153e+000 -4.000000e+000 8.559509e+000
      vertex   0.000000e+000 -4.000000e+000 0.000000e+000
    endloop
  endfacet
  facet normal -0.000000e+000 -1.000000e+000 0.000000e+000
    outer loop
      vertex   2.781153e+000 -4.000000e+000 8.559509e+000
      vertex   -2.204364e-015 -4.000000e+000 9.000000e+000
      vertex   0.000000e+000 -4.000000e+000 0.000000e+000
    endloop
  endfacet
  facet normal 0.000000e+000 -1.000000e+000 -0.000000e+000
    outer loop
      vertex   -2.204364e-015 -4.000000e+000 9.000000e+000
      vertex   -2.781153e+000 -4.000000e+000 8.559509e+000
      vertex   0.000000e+000 -4.000000e+000 0.000000e+000
    endloop
  endfacet
  facet normal 4.095851e-002 -9.651153e-001 2.586019e-001
    outer loop
      vertex   0.000000e+000 -3.866025e+000 9.500000e+000
      vertex   -2.204364e-015 -4.000000e+000 9.000000e+000
      vertex   2.781153e+000 -4.000000e+000 8.559509e+000
    endloop
  endfacet
  facet normal 1.112989e-001 -7.027135e-001 7.027135e-001
    outer loop
      vertex   0.000000e+000 -3.500000e+000 9.866025e+000
      vertex   0.000000e+000 -3.866025e+000 9.500000e+000
      vertex   2.935661e+000 -3.866025e+000 9.035037e+000
    endloop
  endfacet
  facet normal 1.512281e-001 -2.558423e-001 9.548166e-001
    outer loop
      vertex   0.000000e+000 -3.000000e+000 1.000000e+001
      vertex   0.000000e+000 -3.500000e+000 9.866025e+000
      vertex   3.048770e+000 -3.500000e+000 9.383148e+000
    endloop
  endfacet
  facet normal 1.188662e-001 -9.651153e-001 2.332881e-001
    outer loop
      vertex   2.935661e+000 -3.866025e+000 9.035037e+000
      vertex   2.781153e+000 -4.000000e+000 8.559509e+000
      vertex   5.290067e+000 -4.000000e+000 7.281153e+000
    endloop
  endfacet
  facet normal 3.230019e-001 -7.027135e-001 6.339270e-001
    outer loop
      vertex   3.048770e+000 -3.500000e+000 9.383148e+000
      vertex   2.935661e+000 -3.866025e+000 9.035037e+000
      vertex   5.583960e+000 -3.866025e+000 7.685661e+000
    endloop
  endfacet
  facet normal 4.388810e-001 -2.558423e-001 8.613525e-001
    outer loop
      vertex   3.090170e+000 -3.000000e+000 9.510565e+000
      vertex   3.048770e+000 -3.500000e+000 9.383148e+000
      vertex   5.799104e+000 -3.500000e+000 7.981782e+000
    endloop
  endfacet
  facet normal 1.851385e-001 -9.651153e-001 1.851385e-001
    outer loop
      vertex   5.583960e+000 -3.866025e+000 7.685661e+000
      vertex   5.290067e+000 -4.000000e+000 7.281153e+000
      vertex   7.281153e+000 -4.000000e+000 5.290067e+000
    endloop
  endfacet
  facet normal 5.030873e-001 -7.027135e-001 5.030873e-001
    outer loop
      vertex   5.799104e+000 -3.500000e+000 7.981782e+000
      vertex   5.583960e+000 -3.866025e+000 7.685661e+000
      vertex   7.685661e+000 -3.866025e+000 5.583960e+000
    endloop
  endfacet
  facet normal 6.835732e-001 -2.558423e-001 6.835732e-001
    outer loop
      vertex   5.877853e+000 -3.000000e+000 8.090170e+000
      vertex   5.799104e+000 -3.500000e+000 7.981782e+000
      vertex   7.981782e+000 -3.500000e+000 5.799104e+000
    endloop
  endfacet
  facet normal 2.332881e-001 -9.651153e-001 1.188662e-001
    outer loop
      vertex   7.685661e+000 -3.866025e+000 5.583960e+000
      vertex   7.281153e+000 -4.000000e+000 5.290067e+000
      vertex   8.559509e+000 -4.000000e+000 2.781153e+000
    endloop
  endfacet
  facet normal 6.339270e-001 -7.027135e-001 3.230019e-001
    outer loop
      vertex   7.981782e+000 -3.500000e+000 5.799104e+000
      vertex   7.685661e+000 -3.866025e+000 5.583960e+000
      vertex   9.035037e+000 -3.866025e+000 2.935661e+000
    endloop
  endfacet
  facet normal 8.613525e-001 -2.558423e-001 4.388810e-001
    outer loop
      vertex   8.090170e+000 -3.000000e+000 5.877853e+000
      vertex   7.981782e+000 -3.500000e+000 5.799104e+000
      vertex   9.383148e+000 -3.500000e+000 3.048770e+000
    endloop
  endfacet
  facet normal 2.586019e-001 -9.651153e-001 4.095851e-002
    outer loop
      vertex   9.035037e+000 -3.866025e+000 2.935661e+000
      vertex   8.559509e+000 -4.000000e+000 2.781153e+000
      vertex   9.000000e+000 -4.000000e+000 5.510911e-016
    endloop
  endfacet
  facet normal 7.027135e-001 -7.027135e-001 1.112989e-001
    outer loop
      vertex   9.383148e+000 -3.500000e+000 3.048770e+000
      vertex   9.035037e+000 -3.866025e+000 2.935661e+000
      vertex   9.500000e+000 -3.866025e+000 5.817072e-016
    endloop
  endfacet
  facet normal 9.548166e-001 -2.558423e-001 1.512281e-001
    outer loop
      vertex   9.510565e+000 -3.000000e+000 3.090170e+000
      vertex   9.383148e+000 -3.500000e+000 3.048770e+000
      vertex   9.866025e+000 -3.500000e+000 6.041198e-016
    endloop
  endfacet
  facet normal 2.586019e-001 -9.651153e-001 -4.095851e-002
    outer loop
      vertex   9.500000e+000 -3.866025e+000 5.817072e-016
      vertex   9.000000e+000 -4.000000e+000 5.510911e-016
      vertex   8.559509e+000 -4.000000e+000 -2.781153e+000
    endloop
  endfacet
  facet normal 7.027135e-001 -7.027135e-001 -1.112989e-001
    outer loop
      vertex   9.866025e+000 -3.500000e+000 6.041198e-016
      vertex   9.500000e+000 -3.866025e+000 5.817072e-016
      vertex   9.035037e+000 -3.866025e+000 -2.935661e+000
    endloop
  endfacet
  facet normal 9.548166e-001 -2.558423e-001 -1.512281e-001
    outer loop
      vertex   1.000000e+001 -3.000000e+000 6.123234e-016
      vertex   9.866025e+000 -3.500000e+000 6.041198e-016
      vertex   9.383148e+000 -3.500000e+000 -3.048770e+000
    endloop
  endfacet
  facet normal 2.332881e-001 -9.651153e-001 -1.188662e-001
    outer loop
      vertex   9.035037e+000 -3.866025e+000 -2.935661e+000
      vertex   8.559509e+000 -4.000000e+000 -2.781153e+000
      vertex   7.281153e+000 -4.000000e+000 -5.290067e+000
    endloop
  endfacet
  facet normal 6.339270e-001 -7.027135e-001 -3.230019e-001
    outer loop
      vertex   9.383148e+000 -3.500000e+000 -3.048770e+000
      vertex   9.035037e+000 -3.866025e+000 -2.935661e+000
      vertex   7.685661e+000 -3.866025e+000 -5.583960e+000
    endloop
  endfacet
  facet normal 8.613525e-001 -2.558423e-001 -4.388810e-001
    outer loop
      vertex   9.510565e+000 -3.000000e+000 -3.090170e+000
      vertex   9.383148e+000 -3.500000e+000 -3.048770e+000
      vertex   7.981782e+000 -3.500000e+000 -5.799104e+000
    endloop
  endfacet
  facet normal 1.851385e-001 -9.651153e-001 -1.851385e-001
    outer loop
      vertex   7.685661e+000 -3.866025e+000 -5.583960e+000
      vertex   7.281153e+000 -4.000000e+000 -5.290067e+000
      vertex   5.290067e+000 -4.000000e+000 -7.281153e+000
    endloop
  endfacet
  facet normal 5.030873e-001 -7.027135e-001 -5.030873e-001
    outer loop
      vertex   7.981782e+000 -3.500000e+000 -5.799104e+000
      vertex   7.685661e+000 -3.866025e+000 -5.583960e+000
      vertex   5.583960e+000 -3.866025e+000 -7.685661e+000
    endloop
  endfacet
  facet normal 6.835732e-001 -2.558423e-001 -6.835732e-001
    outer loop
      vertex   8.090170e+000 -3.000000e+000 -5.877853e+000
      vertex   7.981782e+000 -3.500000e+000 -5.799104e+000
      vertex   5.799104e+000 -3.500000e+000 -7.981782e+000
    endloop
  endfacet
  facet normal 1.188662e-001 -9.651153e-001 -2.332881e-001
    outer loop
      vertex   5.583960e+000 -3.866025e+000 -7.685661e+000
      vertex   5.290067e+000 -4.000000e+000 -7.281153e+000
      vertex   2.781153e+000 -4.000000e+000 -8.559509e+000
    endloop
  endfacet
  facet normal 3.230019e-001 -7.027135e-001 -6.339270e-001
    outer loop
      vertex   5.799104e+000 -3.500000e+000 -7.981782e+000
      vertex   5.583960e+000 -3.866025e+000 -7.685661e+000
      vertex   2.935661e+000 -3.866025e+000 -9.035037e+000
    endloop
  endfacet
  facet normal 4.388810e-001 -2.558423e-001 -8.613525e-001
    outer loop
      vertex   5.877853e+000 -3.000000e+000 -8.090170e+000
      vertex   5.799104e+000 -3.500000e+000 -7.981782e+000
      vertex   3.048770e+000 -3.500000e+000 -9.383148e+000
    endloop
  endfacet
  facet normal 4.095851e-002 -9.651153e-001 -2.586019e-001
    outer loop
      vertex   2.935661e+000 -3.866025e+000 -9.035037e+000
      vertex   2.781153e+000 -4.000000e+000 -8.559509e+000
      vertex   1.102182e-015 -4.000000e+000 -9.000000e+000
    endloop
  endfacet
  facet normal 1.112989e-001 -7.027135e-001 -7.027135e-001
    outer loop
      vertex   3.048770e+000 -3.500000e+000 -9.383148e+000
      vertex   2.935661e+000 -3.866025e+000 -9.035037e+000
      vertex   1.163414e-015 -3.866025e+000 -9.500000e+000
    endloop
  endfacet
  facet normal 1.512281e-001 -2.558423e-001 -9.548166e-001
    outer loop
      vertex   3.090170e+000 -3.000000e+000 -9.510565e+000
      vertex   3.048770e+000 -3.500000e+000 -9.383148e+000
      vertex   1.208240e-015 -3.500000e+000 -9.866025e+000
    endloop
  endfacet
  facet normal -4.095851e-002 -9.651153e-001 -2.586019e-001
    outer loop
      vertex   1.163414e-015 -3.866025e+000 -9.500000e+000
      vertex   1.102182e-015 -4.000000e+000 -9.000000e+000
      vertex   -2.781153e+000 -4.000000e+000 -8.559509e+000
    endloop
  endfacet
  facet normal -1.112989e-001 -7.027135e-001 -7.027135e-001
    outer loop
      vertex   1.208240e-015 -3.500000e+000 -9.866025e+000
      vertex   1.163414e-015 -3.866025e+000 -9.500000e+000
      vertex   -2.935661e+000 -3.866025e+000 -9.035037e+000
    endloop
  endfacet
  facet normal -1.512281e-001 -2.558423e-001 -9.548166e-001
    outer loop
      vertex   1.224647e-015 -3.000000e+000 -1.000000e+001
      vertex   1.208240e-015 -3.500000e+000 -9.866025e+000
      vertex   -3.048770e+000 -3.500000e+000 -9.383148e+000
    endloop
  endfacet
  facet normal -1.188662e-001 -9.651153e-001 -2.332881e-001
    outer loop
      vertex   -2.935661e+000 -3.866025e+000 -9.035037e+000
      vertex   -2.781153e+000 -4.000000e+000 -8.559509e+000
      vertex   -5.290067e+000 -4.000000e+000 -7.281153e+000
    endloop
  endfacet
  facet normal -3.230019e-001 -7.027135e-001 -6.339270e-001
    outer loop
      vertex   -3.048770e+000 -3.500000e+000 -9.383148e+000
      vertex   -2.935661e+000 -3.866025e+000 -9.035037e+000
      vertex   -5.583960e+000 -3.866025e+000 -7.685661e+000
    endloop
  endfacet
  facet normal -4.388810e-001 -2.558423e-001 -8.613525e-001
    outer loop
      vertex   -3.090170e+000 -3.000000e+000 -9.510565e+000
      vertex   -3.048770e+000 -3.500000e+000 -9.383148e+000
      vertex   -5.799104e+000 -3.500000e+000 -7.981782e+000
    endloop
  endfacet
  facet normal -1.851385e-001 -9.651153e-001 -1.851385e-001
    outer loop
      vertex   -5.583960e+000 -3.866025e+000 -7.685661e+000
      vertex   -5.290067e+000 -4.000000e+000 -7.281153e+000
      vertex   -7.281153e+000 -4.000000e+000 -5.290067e+000
    endloop
  endfacet
  facet normal -5.030873e-001 -7.027135e-001 -5.030873e-001
    outer loop
      vertex   -5.799104e+000 -3.500000e+000 -7.981782e+000
      vertex   -5.583960e+000 -3.866025e+000 -7.685661e+000
      vertex   -7.685661e+000 -3.866025e+000 -5.583960e+000
    endloop
  endfacet
  facet normal -6.835732e-001 -2.558423e-001 -6.835732e-001
    outer loop
      vertex   -5.877853e+000 -3.000000e+000 -8.090170e+000
      vertex   -5.799104e+000 -3.500000e+000 -7.981782e+000
      vertex   -7.981782e+000 -3.500000e+000 -5.799104e+000
    endloop
  endfacet
  facet normal -2.332881e-001 -9.651153e-001 -1.188662e-001
    outer loop
      vertex   -7.685661e+000 -3.866025e+000 -5.583960e+000
      vertex   -7.281153e+000 -4.000000e+000 -5.290067e+000
      vertex   -8.559509e+000 -4.000000e+000 -2.781153e+000
    endloop
  endfacet
  facet normal -6.339270e-001 -7.027135e-001 -3.230019e-001
    outer loop
      vertex   -7.981782e+000 -3.500000e+000 -5.799104e+000
      vertex   -7.685661e+000 -3.866025e+000 -5.583960e+000
      vertex   -9.035037e+000 -3.866025e+000 -2.935661e+000
    endloop
  endfacet
  facet normal -8.613525e-001 -2.558423e-001 -4.388810e-001
    outer loop
      vertex   -8.090170e+000 -3.000000e+000 -5.877853e+000
      vertex   -7.981782e+000 -3.500000e+000 -5.799104e+000
      vertex   -9.383148e+000 -3.500000e+000 -3.048770e+000
    endloop
  endfacet
  facet normal -2.586019e-001 -9.651153e-001 -4.095851e-002
    outer loop
      vertex   -9.035037e+000 -3.866025e+000 -2.935661e+000
      vertex   -8.559509e+000 -4.000000e+000 -2.781153e+000
      vertex   -9.000000e+000 -4.000000e+000 -1.653273e-015
    endloop
  endfacet
  facet normal -7.027135e-001 -7.027135e-001 -1.112989e-001
    outer loop
      vertex   -9.383148e+000 -3.500000e+000 -3.048770e+000
      vertex   -9.035037e+000 -3.866025e+000 -2.935661e+000
      vertex   -9.500000e+000 -3.866025e+000 -1.745122e-015
    endloop
  endfacet
  facet normal -9.548166e-001 -2.558423e-001 -1.512281e-001
    outer loop
      vertex   -9.510565e+000 -3.000000e+000 -3.090170e+000
      vertex   -9.383148e+000 -3.500000e+000 -3.048770e+000
      vertex   -9.866025e+000 -3.500000e+000 -1.812359e-015
    endloop
  endfacet
  facet normal -2.586019e-001 -9.651153e-001 4.095851e-002
    outer loop
      vertex   -9.500000e+000 -3.866025e+000 -1.745122e-015
      vertex   -9.000000e+000 -4.000000e+000 -1.653273e-015
      vertex   -8.559509e+000 -4.000000e+000 2.781153e+000
    endloop
  endfacet
  facet normal -7.027135e-001 -7.027135e-001 1.112989e-001
    outer loop
      vertex   -9.866025e+000 -3.500000e+000 -1.812359e-015
      vertex   -9.500000e+000 -3.866025e+000 -1.745122e-015
      vertex   -9.035037e+000 -3.866025e+000 2.935661e+000
    endloop
  endfacet
  facet normal -9.548166e-001 -2.558423e-001 1.512281e-001
    outer loop
      vertex   -1.000000e+001 -3.000000e+000 -1.836970e-015
      vertex   -9.866025e+000 -3.500000e+000 -1.812359e-015
      vertex   -9.383148e+000 -3.500000e+000 3.048770e+000
    endloop
  endfacet
  facet normal -2.332881e-001 -9.651153e-001 1.188662e-001
    outer loop
      vertex   -9.035037e+000 -3.866025e+000 2.935661e+000
      vertex   -8.559509e+000 -4.000000e+000 2.781153e+000
      vertex   -7.281153e+000 -4.000000e+000 5.290067e+000
    endloop
  endfacet
  facet normal -6.339270e-001 -7.027135e-001 3.230019e-001
    outer loop
      vertex   -9.383148e+000 -3.500000e+000 3.048770e+000
      vertex   -9.035037e+000 -3.866025e+000 2.935661e+000
      vertex   -7.685661e+000 -3.866025e+000 5.583960e+000
    endloop
  endfacet
  facet normal -8.613525e-001 -2.558423e-001 4.388810e-001
    outer loop
      vertex   -9.510565e+000 -3.000000e+000 3.090170e+000
      vertex   -9.383148e+000 -3.500000e+000 3.048770e+000
      vertex   -7.981782e+000 -3.500000e+000 5.799104e+000
    endloop
  endfacet
  facet normal -1.851385e-001 -9.651153e-001 1.851385e-001
    outer loop
      vertex   -7.685661e+000 -3.866025e+000 5.583960e+000
      vertex   -7.281153e+000 -4.000000e+000 5.290067e+000
      vertex   -5.290067e+000 -4.000000e+000 7.281153e+000
    endloop
  endfacet
  facet normal -5.030873e-001 -7.027135e-001 5.030873e-001
    outer loop
      vertex   -7.981782e+000 -3.500000e+000 5.799104e+000
      vertex   -7.685661e+000 -3.866025e+000 5.583960e+000
      vertex   -5.583960e+000 -3.866025e+000 7.685661e+000
    endloop
  endfacet
  facet normal -6.835732e-001 -2.558423e-001 6.835732e-001
    outer loop
      vertex   -8.090170e+000 -3.000000e+000 5.877853e+000
      vertex   -7.981782e+000 -3.500000e+000 5.799104e+000
      vertex   -5.799104e+000 -3.500000e+000 7.981782e+000
    endloop
  endfacet
  facet normal -1.188662e-001 -9.651153e-001 2.332881e-001
    outer loop
      vertex   -5.583960e+000 -3.866025e+000 7.685661e+000
      vertex   -5.290067e+000 -4.000000e+000 7.281153e+000
      vertex   -2.781153e+000 -4.000000e+000 8.559509e+000
    endloop
  endfacet
  facet normal -3.230019e-001 -7.027135e-001 6.339270e-001
    outer loop
      vertex   -5.799104e+000 -3.500000e+000 7.981782e+000
      vertex   -5.583960e+000 -3.866025e+000 7.685661e+000
      vertex   -2.935661e+000 -3.866025e+000 9.035037e+000
    endloop
  endfacet
  facet normal -4.388810e-001 -2.558423e-001 8.613525e-001
    outer loop
      vertex   -5.877853e+000 -3.000000e+000 8.090170e+000
      vertex   -5.799104e+000 -3.500000e+000 7.981782e+000
      vertex   -3.048770e+000 -3.500000e+000 9.383148e+000
    endloop
  endfacet
  facet normal -4.095851e-002 -9.651153e-001 2.586019e-001
    outer loop
      vertex   -2.935661e+000 -3.866025e+000 9.035037e+000
      vertex   -2.781153e+000 -4.000000e+000 8.559509e+000
      vertex   -2.204364e-015 -4.000000e+000 9.000000e+000
    endloop
  endfacet
  facet normal -1.112989e-001 -7.027135e-001 7.027135e-001
    outer loop
      vertex   -3.048770e+000 -3.500000e+000 9.383148e+000
      vertex   -2.935661e+000 -3.866025e+000 9.035037e+000
      vertex   0.000000e+000 -3.866025e+000 9.500000e+000
    endloop
  endfacet
  facet normal -1.512281e-001 -2.558423e-001 9.548166e-001
    outer loop
      vertex   -3.090170e+000 -3.000000e+000 9.510565e+000
      vertex   -3.048770e+000 -3.500000e+000 9.383148e+000
      vertex   0.000000e+000 -3.500000e+000 9.866025e+000
    endloop
  endfacet
  facet normal -1.512281e-001 -2.558423e-001 9.548166e-001
    outer loop
      vertex   0.000000e+000 -3.500000e+000 9.866025e+000
      vertex   0.000000e+000 -3.000000e+000 1.000000e+001
      vertex   -3.090170e+000 -3.000000e+000 9.510565e+000
    endloop
  endfacet
  facet normal -1.112989e-001 -7.027135e-001 7.027135e-001
    outer loop
      vertex   0.000000e+000 -3.866025e+000 9.500000e+000
      vertex   0.000000e+000 -3.500000e+000 9.866025e+000
      vertex   -3.048770e+000 -3.500000e+000 9.383148e+000
    endloop
  endfacet
  facet normal -4.095851e-002 -9.651153e-001 2.586019e-001
    outer loop
      vertex   -2.204364e-015 -4.000000e+000 9.000000e+000
      vertex   0.000000e+000 -3.866025e+000 9.500000e+000
      vertex   -2.935661e+000 -3.866025e+000 9.035037e+000
    endloop
  endfacet
  facet normal -4.388810e-001 -2.558423e-001 8.613525e-001
    outer loop
      vertex   -3.048770e+000 -3.500000e+000 9.383148e+000
      vertex   -3.090170e+000 -3.000000e+000 9.510565e+000
      vertex   -5.877853e+000 -3.000000e+000 8.090170e+000
    endloop
  endfacet
  facet normal -3.230019e-001 -7.027135e-001 6.339270e-001
    outer loop
      vertex   -2.935661e+000 -3.866025e+000 9.035037e+000
      vertex   -3.048770e+000 -3.500000e+000 9.383148e+000
      vertex   -5.799104e+000 -3.500000e+000 7.981782e+000
    endloop
  endfacet
  facet normal -1.188662e-001 -9.651153e-001 2.332881e-001
    outer loop
      vertex   -2.781153e+000 -4.000000e+000 8.559509e+000
      vertex   -2.935661e+000 -3.866025e+000 9.035037e+000
      vertex   -5.583960e+000 -3.866025e+000 7.685661e+000
    endloop
  endfacet
  facet normal -6.835732e-001 -2.558423e-001 6.835732e-001
    outer loop
      vertex   -5.799104e+000 -3.500000e+000 7.981782e+000
      vertex   -5.877853e+000 -3.000000e+000 8.090170e+000
      vertex   -8.090170e+000 -3.000000e+000 5.877853e+000
    endloop
  endfacet
  facet normal -5.030873e-001 -7.027135e-001 5.030873e-001
    outer loop
      vertex   -5.583960e+000 -3.866025e+000 7.685661e+000
      vertex   -5.799104e+000 -3.500000e+000 7.981782e+000
      vertex   -7.981782e+000 -3.500000e+000 5.799104e+000
    endloop
  endfacet
  facet normal -1.851385e-001 -9.651153e-001 1.851385e-001
    outer loop
      vertex   -5.290067e+000 -4.000000e+000 7.281153e+000
      vertex   -5.583960e+000 -3.866025e+000 7.685661e+000
      vertex   -7.685661e+000 -3.866025e+000 5.583960e+000
    endloop
  endfacet
  facet normal -8.613525e-001 -2.558423e-001 4.388810e-001
    outer loop
      vertex   -7.981782e+000 -3.500000e+000 5.799104e+000
      vertex   -8.090170e+000 -3.000000e+000 5.877853e+000
      vertex   -9.510565e+000 -3.000000e+000 3.090170e+000
    endloop
  endfacet
  facet normal -6.339270e-001 -7.027135e-001 3.230019e-001
    outer loop
      vertex   -7.685661e+000 -3.866025e+000 5.583960e+000
      vertex   -7.981782e+000 -3.500000e+000 5.799104e+000
      vertex   -9.383148e+000 -3.500000e+000 3.048770e+000
    endloop
  endfacet
  facet normal -2.332881e-001 -9.651153e-001 1.188662e-001
    outer loop
      vertex   -7.281153e+000 -4.000000e+000 5.290067e+000
      vertex   -7.685661e+000 -3.866025e+000 5.583960e+000
      vertex   -9.035037e+000 -3.866025e+000 2.935661e+000
    endloop
  endfacet
  facet normal -9.548166e-001 -2.558423e-001 1.512281e-001
    outer loop
      vertex   -9.383148e+000 -3.500000e+000 3.048770e+000
      vertex   -9.510565e+000 -3.000000e+000 3.090170e+000
      vertex   -1.000000e+001 -3.000000e+000 -1.836970e-015
    endloop
  endfacet
  facet normal -7.027135e-001 -7.027135e-001 1.112989e-001
    outer loop
      vertex   -9.035037e+000 -3.866025e+000 2.935661e+000
      vertex   -9.383148e+000 -3.500000e+000 3.048770e+000
      vertex   -9.866025e+000 -3.500000e+000 -1.812359e-015
    endloop
  endfacet
  facet normal -2.586019e-001 -9.651153e-001 4.095851e-002
    outer loop
      vertex   -8.559509e+000 -4.000000e+000 2.781153e+000
      vertex   -9.035037e+000 -3.866025e+000 2.935661e+000
      vertex   -9.500000e+000 -3.866025e+000 -1.745122e-015
    endloop
  endfacet
  facet normal -9.548166e-001 -2.558423e-001 -1.512281e-001
    outer loop
      vertex   -9.866025e+000 -3.500000e+000 -1.812359e-015
      vertex   -1.000000e+001 -3.000000e+000 -1.836970e-015
      vertex   -9.510565e+000 -3.000000e+000 -3.090170e+000
    endloop
  endfacet
  facet normal -7.027135e-001 -7.027135e-001 -1.112989e-001
    outer loop
      vertex   -9.500000e+000 -3.866025e+000 -1.745122e-015
      vertex   -9.866025e+000 -3.500000e+000 -1.812359e-015
      vertex   -9.383148e+000 -3.500000e+000 -3.048770e+000
    endloop
  endfacet
  facet normal -2.586019e-001 -9.651153e-001 -4.095851e-002
    outer loop
      vertex   -9.000000e+000 -4.000000e+000 -1.653273e-015
      vertex   -9.500000e+000 -3.866025e+000 -1.745122e-015
      vertex   -9.035037e+000 -3.866025e+000 -2.935661e+000
    endloop
  endfacet
  facet normal -8.613525e-001 -2.558423e-001 -4.388810e-001
    outer loop
      vertex   -9.383148e+000 -3.500000e+000 -3.048770e+000
      vertex   -9.510565e+000 -3.000000e+000 -3.090170e+000
      vertex   -8.090170e+000 -3.000000e+000 -5.877853e+000
    endloop
  endfacet
  facet normal -6.339270e-001 -7.027135e-001 -3.230019e-001
    outer loop
      vertex   -9.035037e+000 -3.866025e+000 -2.935661e+000
      vertex   -9.383148e+000 -3.500000e+000 -3.048770e+000
      vertex   -7.981782e+000 -3.500000e+000 -5.799104e+000
    endloop
  endfacet
  facet normal -2.332881e-001 -9.651153e-001 -1.188662e-001
    outer loop
      vertex   -8.559509e+000 -4.000000e+000 -2.781153e+000
      vertex   -9.035037e+000 -3.866025e+000 -2.935661e+000
      vertex   -7.685661e+000 -3.866025e+000 -5.583960e+000
    endloop
  endfacet
  facet normal -6.835732e-001 -2.558423e-001 -6.835732e-001
    outer loop
      vertex   -7.981782e+000 -3.500000e+000 -5.799104e+000
      vertex   -8.090170e+000 -3.000000e+000 -5.877853e+000
      vertex   -5.877853e+000 -3.000000e+000 -8.090170e+000
    endloop
  endfacet
  facet normal -5.030873e-001 -7.027135e-001 -5.030873e-001
    outer loop
      vertex   -7.685661e+000 -3.866025e+000 -5.583960e+000
      vertex   -7.981782e+000 -3.500000e+000 -5.799104e+000
      vertex   -5.799104e+000 -3.500000e+000 -7.981782e+000
    endloop
  endfacet
  facet normal -1.851385e-001 -9.651153e-001 -1.851385e-001
    outer loop
      vertex   -7.281153e+000 -4.000000e+000 -5.290067e+000
      vertex   -7.685661e+000 -3.866025e+000 -5.583960e+000
      vertex   -5.583960e+000 -3.866025e+000 -7.685661e+000
    endloop
  endfacet
  facet normal -4.388810e-001 -2.558423e-001 -8.613525e-001
    outer loop
      vertex   -5.799104e+000 -3.500000e+000 -7.981782e+000
      vertex   -5.877853e+000 -3.000000e+000 -8.090170e+000
      vertex   -3.090170e+000 -3.000000e+000 -9.510565e+000
    endloop
  endfacet
  facet normal -3.230019e-001 -7.027135e-001 -6.339270e-001
    outer loop
      vertex   -5.583960e+000 -3.866025e+000 -7.685661e+000
      vertex   -5.799104e+000 -3.500000e+000 -7.981782e+000
      vertex   -3.048770e+000 -3.500000e+000 -9.383148e+000
    endloop
  endfacet
  facet normal -1.188662e-001 -9.651153e-001 -2.332881e-001
    outer loop
      vertex   -5.290067e+000 -4.000000e+000 -7.281153e+000
      vertex   -5.583960e+000 -3.866025e+000 -7.685661e+000
      vertex   -2.935661e+000 -3.866025e+000 -9.035037e+000
    endloop
  endfacet
  facet normal -1.512281e-001 -2.558423e-001 -9.548166e-001
    outer loop
      vertex   -3.048770e+000 -3.500000e+000 -9.383148e+000
      vertex   -3.090170e+000 -3.000000e+000 -9.510565e+000
      vertex   1.224647e-015 -3.000000e+000 -1.000000e+001
    endloop
  endfacet
  facet normal -1.112989e-001 -7.027135e-001 -7.027135e-001
    outer loop
      vertex   -2.935661e+000 -3.866025e+000 -9.035037e+000
      vertex   -3.048770e+000 -3.500000e+000 -9.383148e+000
      vertex   1.208240e-015 -3.500000e+000 -9.866025e+000
    endloop
  endfacet
  facet normal -4.095851e-002 -9.651153e-001 -2.586019e-001
    outer loop
      vertex   -2.781153e+000 -4.000000e+000 -8.559509e+000
      vertex   -2.935661e+000 -3.866025e+000 -9.035037e+000
      vertex   1.163414e-015 -3.866025e+000 -9.500000e+000
    endloop
  endfacet
  facet normal 1.512281e-001 -2.558423e-001 -9.548166e-001
    outer loop
      vertex   1.208240e-015 -3.500000e+000 -9.866025e+000
      vertex   1.224647e-015 -3.000000e+000 -1.000000e+001
      vertex   3.090170e+000 -3.000000e+000 -9.510565e+000
    endloop
  endfacet
  facet normal 1.112989e-001 -7.027135e-001 -7.027135e-001
    outer loop
      vertex   1.163414e-015 -3.866025e+000 -9.500000e+000
      vertex   1.208240e-015 -3.500000e+000 -9.866025e+000
      vertex   3.048770e+000 -3.500000e+000 -9.383148e+000
    endloop
  endfacet
  facet normal 4.095851e-002 -9.651153e-001 -2.586019e-001
    outer loop
      vertex   1.102182e-015 -4.000000e+000 -9.000000e+000
      vertex   1.163414e-015 -3.866025e+000 -9.500000e+000
      vertex   2.935661e+000 -3.866025e+000 -9.035037e+000
    endloop
  endfacet
  facet normal 4.388810e-001 -2.558423e-001 -8.613525e-001
    outer loop
      vertex   3.048770e+000 -3.500000e+000 -9.383148e+000
      vertex   3.090170e+000 -3.000000e+000 -9.510565e+000
      vertex   5.877853e+000 -3.000000e+000 -8.090170e+000
    endloop
  endfacet
  facet normal 3.230019e-001 -7.027135e-001 -6.339270e-001
    outer loop
      vertex   2.935661e+000 -3.866025e+000 -9.035037e+000
      vertex   3.048770e+000 -3.500000e+000 -9.383148e+000
      vertex   5.799104e+000 -3.500000e+000 -7.981782e+000
    endloop
  endfacet
  facet normal 1.188662e-001 -9.651153e-001 -2.332881e-001
    outer loop
      vertex   2.781153e+000 -4.000000e+000 -8.559509e+000
      vertex   2.935661e+000 -3.866025e+000 -9.035037e+000
      vertex   5.583960e+000 -3.866025e+000 -7.685661e+000
    endloop
  endfacet
  facet normal 6.835732e-001 -2.558423e-001 -6.835732e-001
    outer loop
      vertex   5.799104e+000 -3.500000e+000 -7.981782e+000
      vertex   5.877853e+000 -3.000000e+000 -8.090170e+000
      vertex   8.090170e+000 -3.000000e+000 -5.877853e+000
    endloop
  endfacet
  facet normal 5.030873e-001 -7.027135e-001 -5.030873e-001
    outer loop
      vertex   5.583960e+000 -3.866025e+000 -7.685661e+000
      vertex   5.799104e+000 -3.500000e+000 -7.981782e+000
      vertex   7.981782e+000 -3.500000e+000 -5.799104e+000
    endloop
  endfacet
  facet normal 1.851385e-001 -9.651153e-001 -1.851385e-001
    outer loop
      vertex   5.290067e+000 -4.000000e+000 -7.281153e+000
      vertex   5.583960e+000 -3.866025e+000 -7.685661e+000
      vertex   7.685661e+000 -3.866025e+000 -5.583960e+000
    endloop
  endfacet
  facet normal 8.613525e-001 -2.558423e-001 -4.388810e-001
    outer loop
      vertex   7.981782e+000 -3.500000e+000 -5.799104e+000
      vertex   8.090170e+000 -3.000000e+000 -5.877853e+000
      vertex   9.510565e+000 -3.000000e+000 -3.090170e+000
    endloop
  endfacet
  facet normal 6.339270e-001 -7.027135e-001 -3.230019e-001
    outer loop
      vertex   7.685661e+000 -3.866025e+000 -5.583960e+000
      vertex   7.981782e+000 -3.500000e+000 -5.799104e+000
      vertex   9.383148e+000 -3.500000e+000 -3.048770e+000
    endloop
  endfacet
  facet normal 2.332881e-001 -9.651153e-001 -1.188662e-001
    outer loop
      vertex   7.281153e+000 -4.000000e+000 -5.290067e+000
      vertex   7.685661e+000 -3.866025e+000 -5.583960e+000
      vertex   9.035037e+000 -3.866025e+000 -2.935661e+000
    endloop
  endfacet
  facet normal 9.548166e-001 -2.558423e-001 -1.512281e-001
    outer loop
      vertex   9.383148e+000 -3.500000e+000 -3.048770e+000
      vertex   9.510565e+000 -3.000000e+000 -3.090170e+000
      vertex   1.000000e+001 -3.000000e+000 6.123234e-016
    endloop
  endfacet
  facet normal 7.027135e-001 -7.027135e-001 -1.112989e-001
    outer loop
      vertex   9.035037e+000 -3.866025e+000 -2.935661e+000
      vertex   9.383148e+000 -3.500000e+000 -3.048770e+000
      vertex   9.866025e+000 -3.500000e+000 6.041198e-016
    endloop
  endfacet
  facet normal 2.586019e-001 -9.651153e-001 -4.095851e-002
    outer loop
      vertex   8.559509e+000 -4.000000e+000 -2.781153e+000
      vertex   9.035037e+000 -3.866025e+000 -2.935661e+000
      vertex   9.500000e+000 -3.866025e+000 5.817072e-016
    endloop
  endfacet
  facet normal 9.548166e-001 -2.558423e-001 1.512281e-001
    outer loop
      vertex   9.866025e+000 -3.500000e+000 6.041198e-016
      vertex   1.000000e+001 -3.000000e+000 6.123234e-016
      vertex   9.510565e+000 -3.000000e+000 3.090170e+000
    endloop
  endfacet
  facet normal 7.027135e-001 -7.027135e-001 1.112989e-001
    outer loop
      vertex   9.500000e+000 -3.866025e+000 5.817072e-016
      vertex   9.866025e+000 -3.500000e+000 6.041198e-016
      vertex   9.383148e+000 -3.500000e+000 3.048770e+000
    endloop
  endfacet
  facet normal 2.586019e-001 -9.651153e-001 4.095851e-002
    outer loop
      vertex   9.000000e+000 -4.000000e+000 5.510911e-016
      vertex   9.500000e+000 -3.866025e+000 5.817072e-016
      vertex   9.035037e+000 -3.866025e+000 2.935661e+000
    endloop
  endfacet
  facet normal 8.613525e-001 -2.558423e-001 4.388810e-001
    outer loop
      vertex   9.383148e+000 -3.500000e+000 3.048770e+000
      vertex   9.510565e+000 -3.000000e+000 3.090170e+000
      vertex   8.090170e+000 -3.000000e+000 5.877853e+000
    endloop
  endfacet
  facet normal 6.339270e-001 -7.027135e-001 3.230019e-001
    outer loop
      vertex   9.035037e+000 -3.866025e+000 2.935661e+000
      vertex   9.383148e+000 -3.500000e+000 3.048770e+000
      vertex   7.981782e+000 -3.500000e+000 5.799104e+000
    endloop
  endfacet
  facet normal 2.332881e-001 -9.651153e-001 1.188662e-001
    outer loop
      vertex   8.559509e+000 -4.000000e+000 2.781153e+000
      vertex   9.035037e+000 -3.866025e+000 2.935661e+000
      vertex   7.685661e+000 -3.866025e+000 5.583960e+000
    endloop
  endfacet
  facet normal 6.835732e-001 -2.558423e-001 6.835732e-001
    outer loop
      vertex   7.981782e+000 -3.500000e+000 5.799104e+000
      vertex   8.090170e+000 -3.000000e+000 5.877853e+000
      vertex   5.877853e+000 -3.000000e+000 8.090170e+000
    endloop
  endfacet
  facet normal 5.030873e-001 -7.027135e-001 5.030873e-001
    outer loop
      vertex   7.685661e+000 -3.866025e+000 5.583960e+000
      vertex   7.981782e+000 -3.500000e+000 5.799104e+000
      vertex   5.799104e+000 -3.500000e+000 7.981782e+000
    endloop
  endfacet
  facet normal 1.851385e-001 -9.651153e-001 1.851385e-001
    outer loop
      vertex   7.281153e+000 -4.000000e+000 5.290067e+000
      vertex   7.685661e+000 -3.866025e+000 5.583960e+000
      vertex   5.583960e+000 -3.866025e+000 7.685661e+000
    endloop
  endfacet
  facet normal 4.388810e-001 -2.558423e-001 8.613525e-001
    outer loop
      vertex   5.799104e+000 -3.500000e+000 7.981782e+000
      vertex   5.877853e+000 -3.000000e+000 8.090170e+000
      vertex   3.090170e+000 -3.000000e+000 9.510565e+000
    endloop
  endfacet
  facet normal 3.230019e-001 -7.027135e-001 6.339270e-001
    outer loop
      vertex   5.583960e+000 -3.866025e+000 7.685661e+000
      vertex   5.799104e+000 -3.500000e+000 7.981782e+000
      vertex   3.048770e+000 -3.500000e+000 9.383148e+000
    endloop
  endfacet
  facet normal 1.188662e-001 -9.651153e-001 2.332881e-001
    outer loop
      vertex   5.290067e+000 -4.000000e+000 7.281153e+000
      vertex   5.583960e+000 -3.866025e+000 7.685661e+000
      vertex   2.935661e+000 -3.866025e+000 9.035037e+000
    endloop
  endfacet
  facet normal 1.512281e-001 -2.558423e-001 9.548166e-001
    outer loop
      vertex   3.048770e+000 -3.500000e+000 9.383148e+000
      vertex   3.090170e+000 -3.000000e+000 9.510565e+000
      vertex   0.000000e+000 -3.000000e+000 1.000000e+001
    endloop
  endfacet
  facet normal 1.112989e-001 -7.027135e-001 7.027135e-001
    outer loop
      vertex   2.935661e+000 -3.866025e+000 9.035037e+000
      vertex   3.048770e+000 -3.500000e+000 9.383148e+000
      vertex   0.000000e+000 -3.500000e+000 9.866025e+000
    endloop
  endfacet
  facet normal 4.095851e-002 -9.651153e-001 2.586019e-001
    outer loop
      vertex   2.781153e+000 -4.000000e+000 8.559509e+000
      vertex   2.935661e+000 -3.866025e+000 9.035037e+000
      vertex   0.000000e+000 -3.866025e+000 9.500000e+000
    endloop
  endfacet
  facet normal 4.539905e-001 0.000000e+000 8.910065e-001
    outer loop
      vertex   5.877853e+000 3.000000e+000 8.090170e+000
      vertex   3.090170e+000 3.000000e+000 9.510565e+000
      vertex   3.090170e+000 -3.000000e+000 9.510565e+000
    endloop
  endfacet
  facet normal 1.564345e-001 0.000000e+000 9.876883e-001
    outer loop
      vertex   0.000000e+000 -3.000000e+000 1.000000e+001
      vertex   3.090170e+000 -3.000000e+000 9.510565e+000
      vertex   3.090170e+000 3.000000e+000 9.510565e+000
    endloop
  endfacet
  facet normal 1.564345e-001 6.768273e-017 9.876883e-001
    outer loop
      vertex   3.090170e+000 3.000000e+000 9.510565e+000
      vertex   -2.449294e-015 3.000000e+000 1.000000e+001
      vertex   0.000000e+000 -3.000000e+000 1.000000e+001
    endloop
  endfacet
  facet normal 8.910065e-001 0.000000e+000 4.539905e-001
    outer loop
      vertex   9.510565e+000 3.000000e+000 3.090170e+000
      vertex   8.090170e+000 3.000000e+000 5.877853e+000
      vertex   8.090170e+000 -3.000000e+000 5.877853e+000
    endloop
  endfacet
  facet normal 7.071068e-001 0.000000e+000 7.071068e-001
    outer loop
      vertex   5.877853e+000 -3.000000e+000 8.090170e+000
      vertex   8.090170e+000 -3.000000e+000 5.877853e+000
      vertex   8.090170e+000 3.000000e+000 5.877853e+000
    endloop
  endfacet
  facet normal 7.071068e-001 0.000000e+000 7.071068e-001
    outer loop
      vertex   8.090170e+000 3.000000e+000 5.877853e+000
      vertex   5.877853e+000 3.000000e+000 8.090170e+000
      vertex   5.877853e+000 -3.000000e+000 8.090170e+000
    endloop
  endfacet
  facet normal 9.876883e-001 0.000000e+000 -1.564345e-001
    outer loop
      vertex   9.510565e+000 3.000000e+000 -3.090170e+000
      vertex   1.000000e+001 3.000000e+000 6.123234e-016
      vertex   1.000000e+001 -3.000000e+000 6.123234e-016
    endloop
  endfacet
  facet normal 9.876883e-001 0.000000e+000 1.564345e-001
    outer loop
      vertex   9.510565e+000 -3.000000e+000 3.090170e+000
      vertex   1.000000e+001 -3.000000e+000 6.123234e-016
      vertex   1.000000e+001 3.000000e+000 6.123234e-016
    endloop
  endfacet
  facet normal 9.876883e-001 0.000000e+000 1.564345e-001
    outer loop
      vertex   1.000000e+001 3.000000e+000 6.123234e-016
      vertex   9.510565e+000 3.000000e+000 3.090170e+000
      vertex   9.510565e+000 -3.000000e+000 3.090170e+000
    endloop
  endfacet
  facet normal 7.071068e-001 0.000000e+000 -7.071068e-001
    outer loop
      vertex   5.877853e+000 3.000000e+000 -8.090170e+000
      vertex   8.090170e+000 3.000000e+000 -5.877853e+000
      vertex   8.090170e+000 -3.000000e+000 -5.877853e+000
    endloop
  endfacet
  facet normal 8.910065e-001 0.000000e+000 -4.539905e-001
    outer loop
      vertex   9.510565e+000 -3.000000e+000 -3.090170e+000
      vertex   8.090170e+000 -3.000000e+000 -5.877853e+000
      vertex   8.090170e+000 3.000000e+000 -5.877853e+000
    endloop
  endfacet
  facet normal 8.910065e-001 0.000000e+000 -4.539905e-001
    outer loop
      vertex   8.090170e+000 3.000000e+000 -5.877853e+000
      vertex   9.510565e+000 3.000000e+000 -3.090170e+000
      vertex   9.510565e+000 -3.000000e+000 -3.090170e+000
    endloop
  endfacet
  facet normal 1.564345e-001 0.000000e+000 -9.876883e-001
    outer loop
      vertex   1.224647e-015 3.000000e+000 -1.000000e+001
      vertex   3.090170e+000 3.000000e+000 -9.510565e+000
      vertex   3.090170e+000 -3.000000e+000 -9.510565e+000
    endloop
  endfacet
  facet normal 4.539905e-001 0.000000e+000 -8.910065e-001
    outer loop
      vertex   5.877853e+000 -3.000000e+000 -8.090170e+000
      vertex   3.090170e+000 -3.000000e+000 -9.510565e+000
      vertex   3.090170e+000 3.000000e+000 -9.510565e+000
    endloop
  endfacet
  facet normal 4.539905e-001 0.000000e+000 -8.910065e-001
    outer loop
      vertex   3.090170e+000 3.000000e+000 -9.510565e+000
      vertex   5.877853e+000 3.000000e+000 -8.090170e+000
      vertex   5.877853e+000 -3.000000e+000 -8.090170e+000
    endloop
  endfacet
  facet normal -4.539905e-001 0.000000e+000 -8.910065e-001
    outer loop
      vertex   -5.877853e+000 3.000000e+000 -8.090170e+000
      vertex   -3.090170e+000 3.000000e+000 -9.510565e+000
      vertex   -3.090170e+000 -3.000000e+000 -9.510565e+000
    endloop
  endfacet
  facet normal -1.564345e-001 0.000000e+000 -9.876883e-001
    outer loop
      vertex   1.224647e-015 -3.000000e+000 -1.000000e+001
      vertex   -3.090170e+000 -3.000000e+000 -9.510565e+000
      vertex   -3.090170e+000 3.000000e+000 -9.510565e+000
    endloop
  endfacet
  facet normal -1.564345e-001 0.000000e+000 -9.876883e-001
    outer loop
      vertex   -3.090170e+000 3.000000e+000 -9.510565e+000
      vertex   1.224647e-015 3.000000e+000 -1.000000e+001
      vertex   1.224647e-015 -3.000000e+000 -1.000000e+001
    endloop
  endfacet
  facet normal -8.910065e-001 0.000000e+000 -4.539905e-001
    outer loop
      vertex   -9.510565e+000 3.000000e+000 -3.090170e+000
      vertex   -8.090170e+000 3.000000e+000 -5.877853e+000
      vertex   -8.090170e+000 -3.000000e+000 -5.877853e+000
    endloop
  endfacet
  facet normal -7.071068e-001 0.000000e+000 -7.071068e-001
    outer loop
      vertex   -5.877853e+000 -3.000000e+000 -8.090170e+000
      vertex   -8.090170e+000 -3.000000e+000 -5.877853e+000
      vertex   -8.090170e+000 3.000000e+000 -5.877853e+000
    endloop
  endfacet
  facet normal -7.071068e-001 0.000000e+000 -7.071068e-001
    outer loop
      vertex   -8.090170e+000 3.000000e+000 -5.877853e+000
      vertex   -5.877853e+000 3.000000e+000 -8.090170e+000
      vertex   -5.877853e+000 -3.000000e+000 -8.090170e+000
    endloop
  endfacet
  facet normal -9.876883e-001 0.000000e+000 1.564345e-001
    outer loop
      vertex   -9.510565e+000 3.000000e+000 3.090170e+000
      vertex   -1.000000e+001 3.000000e+000 -1.836970e-015
      vertex   -1.000000e+001 -3.000000e+000 -1.836970e-015
    endloop
  endfacet
  facet normal -9.876883e-001 0.000000e+000 -1.564345e-001
    outer loop
      vertex   -9.510565e+000 -3.000000e+000 -3.090170e+000
      vertex   -1.000000e+001 -3.000000e+000 -1.836970e-015
      vertex   -1.000000e+001 3.000000e+000 -1.836970e-015
    endloop
  endfacet
  facet normal -9.876883e-001 0.000000e+000 -1.564345e-001
    outer loop
      vertex   -1.000000e+001 3.000000e+000 -1.836970e-015
      vertex   -9.510565e+000 3.000000e+000 -3.090170e+000
      vertex   -9.510565e+000 -3.000000e+000 -3.090170e+000
    endloop
  endfacet
  facet normal -7.071068e-001 0.000000e+000 7.071068e-001
    outer loop
      vertex   -5.877853e+000 3.000000e+000 8.090170e+000
      vertex   -8.090170e+000 3.000000e+000 5.877853e+000
      vertex   -8.090170e+000 -3.000000e+000 5.877853e+000
    endloop
  endfacet
  facet normal -8.910065e-001 0.000000e+000 4.539905e-001
    outer loop
      vertex   -9.510565e+000 -3.000000e+000 3.090170e+000
      vertex   -8.090170e+000 -3.000000e+000 5.877853e+000
      vertex   -8.090170e+000 3.000000e+000 5.877853e+000
    endloop
  endfacet
  facet normal -8.910065e-001 0.000000e+000 4.539905e-001
    outer loop
      vertex   -8.090170e+000 3.000000e+000 5.877853e+000
      vertex   -9.510565e+000 3.000000e+000 3.090170e+000
      vertex   -9.510565e+000 -3.000000e+000 3.090170e+000
    endloop
  endfacet
  facet normal -1.564345e-001 0.000000e+000 9.876883e-001
    outer loop
      vertex   -2.449294e-015 3.000000e+000 1.000000e+001
      vertex   -3.090170e+000 3.000000e+000 9.510565e+000
      vertex   -3.090170e+000 -3.000000e+000 9.510565e+000
    endloop
  endfacet
  facet normal -4.539905e-001 0.000000e+000 8.910065e-001
    outer loop
      vertex   -5.877853e+000 -3.000000e+000 8.090170e+000
      vertex   -3.090170e+000 -3.000000e+000 9.510565e+000
      vertex   -3.090170e+000 3.000000e+000 9.510565e+000
    endloop
  endfacet
  facet normal -4.539905e-001 0.000000e+000 8.910065e-001
    outer loop
      vertex   -3.090170e+000 3.000000e+000 9.510565e+000
      vertex   -5.877853e+000 3.000000e+000 8.090170e+000
      vertex   -5.877853e+000 -3.000000e+000 8.090170e+000
    endloop
  endfacet
  facet normal -1.564345e-001 -6.768273e-017 9.876883e-001
    outer loop
      vertex   -3.090170e+000 -3.000000e+000 9.510565e+000
      vertex   0.000000e+000 -3.000000e+000 1.000000e+001
      vertex   -2.449294e-015 3.000000e+000 1.000000e+001
    endloop
  endfacet
  facet normal -7.071068e-001 0.000000e+000 7.071068e-001
    outer loop
      vertex   -8.090170e+000 -3.000000e+000 5.877853e+000
      vertex   -5.877853e+000 -3.000000e+000 8.090170e+000
      vertex   -5.877853e+000 3.000000e+000 8.090170e+000
    endloop
  endfacet
  facet normal -9.876883e-001 0.000000e+000 1.564345e-001
    outer loop
      vertex   -1.000000e+001 -3.000000e+000 -1.836970e-015
      vertex   -9.510565e+000 -3.000000e+000 3.090170e+000
      vertex   -9.510565e+000 3.000000e+000 3.090170e+000
    endloop
  endfacet
  facet normal -8.910065e-001 0.000000e+000 -4.539905e-001
    outer loop
      vertex   -8.090170e+000 -3.000000e+000 -5.877853e+000
      vertex   -9.510565e+000 -3.000000e+000 -3.090170e+000
      vertex   -9.510565e+000 3.000000e+000 -3.090170e+000
    endloop
  endfacet
  facet normal -4.539905e-001 0.000000e+000 -8.910065e-001
    outer loop
      vertex   -3.090170e+000 -3.000000e+000 -9.510565e+000
      vertex   -5.877853e+000 -3.000000e+000 -8.090170e+000
      vertex   -5.877853e+000 3.000000e+000 -8.090170e+000
    endloop
  endfacet
  facet normal 1.564345e-001 0.000000e+000 -9.876883e-001
    outer loop
      vertex   3.090170e+000 -3.000000e+000 -9.510565e+000
      vertex   1.224647e-015 -3.000000e+000 -1.000000e+001
      vertex   1.224647e-015 3.000000e+000 -1.000000e+001
    endloop
  endfacet
  facet normal 7.071068e-001 0.000000e+000 -7.071068e-001
    outer loop
      vertex   8.090170e+000 -3.000000e+000 -5.877853e+000
      vertex   5.877853e+000 -3.000000e+000 -8.090170e+000
      vertex   5.877853e+000 3.000000e+000 -8.090170e+000
    endloop
  endfacet
  facet normal 9.876883e-001 0.000000e+000 -1.564345e-001
    outer loop
      vertex   1.000000e+001 -3.000000e+000 6.123234e-016
      vertex   9.510565e+000 -3.000000e+000 -3.090170e+000
      vertex   9.510565e+000 3.000000e+000 -3.090170e+000
    endloop
  endfacet
  facet normal 8.910065e-001 0.000000e+000 4.539905e-001
    outer loop
      vertex   8.090170e+000 -3.000000e+000 5.877853e+000
      vertex   9.510565e+000 -3.000000e+000 3.090170e+000
      vertex   9.510565e+000 3.000000e+000 3.090170e+000
    endloop
  endfacet
  facet normal 4.539905e-001 0.000000e+000 8.910065e-001
    outer loop
      vertex   3.090170e+000 -3.000000e+000 9.510565e+000
      vertex   5.877853e+000 -3.000000e+000 8.090170e+000
      vertex   5.877853e+000 3.000000e+000 8.090170e+000
    endloop
  endfacet
  facet normal 1.512281e-001 2.558423e-001 9.548166e-001
    outer loop
      vertex   0.000000e+000 3.500000e+000 9.866025e+000
      vertex   -2.449294e-015 3.000000e+000 1.000000e+001
      vertex   3.090170e+000 3.000000e+000 9.510565e+000
    endloop
  endfacet
  facet normal 1.112989e-001 7.027135e-001 7.027135e-001
    outer loop
      vertex   0.000000e+000 3.866025e+000 9.500000e+000
      vertex   0.000000e+000 3.500000e+000 9.866025e+000
      vertex   3.048770e+000 3.500000e+000 9.383148e+000
    endloop
  endfacet
  facet normal 4.095851e-002 9.651153e-001 2.586019e-001
    outer loop
      vertex   0.000000e+000 4.000000e+000 9.000000e+000
      vertex   0.000000e+000 3.866025e+000 9.500000e+000
      vertex   2.935661e+000 3.866025e+000 9.035037e+000
    endloop
  endfacet
  facet normal 4.388810e-001 2.558423e-001 8.613525e-001
    outer loop
      vertex   3.048770e+000 3.500000e+000 9.383148e+000
      vertex   3.090170e+000 3.000000e+000 9.510565e+000
      vertex   5.877853e+000 3.000000e+000 8.090170e+000
    endloop
  endfacet
  facet normal 3.230019e-001 7.027135e-001 6.339270e-001
    outer loop
      vertex   2.935661e+000 3.866025e+000 9.035037e+000
      vertex   3.048770e+000 3.500000e+000 9.383148e+000
      vertex   5.799104e+000 3.500000e+000 7.981782e+000
    endloop
  endfacet
  facet normal 1.188662e-001 9.651153e-001 2.332881e-001
    outer loop
      vertex   2.781153e+000 4.000000e+000 8.559509e+000
      vertex   2.935661e+000 3.866025e+000 9.035037e+000
      vertex   5.583960e+000 3.866025e+000 7.685661e+000
    endloop
  endfacet
  facet normal 6.835732e-001 2.558423e-001 6.835732e-001
    outer loop
      vertex   5.799104e+000 3.500000e+000 7.981782e+000
      vertex   5.877853e+000 3.000000e+000 8.090170e+000
      vertex   8.090170e+000 3.000000e+000 5.877853e+000
    endloop
  endfacet
  facet normal 5.030873e-001 7.027135e-001 5.030873e-001
    outer loop
      vertex   5.583960e+000 3.866025e+000 7.685661e+000
      vertex   5.799104e+000 3.500000e+000 7.981782e+000
      vertex   7.981782e+000 3.500000e+000 5.799104e+000
    endloop
  endfacet
  facet normal 1.851385e-001 9.651153e-001 1.851385e-001
    outer loop
      vertex   5.290067e+000 4.000000e+000 7.281153e+000
      vertex   5.583960e+000 3.866025e+000 7.685661e+000
      vertex   7.685661e+000 3.866025e+000 5.583960e+000
    endloop
  endfacet
  facet normal 8.613525e-001 2.558423e-001 4.388810e-001
    outer loop
      vertex   7.981782e+000 3.500000e+000 5.799104e+000
      vertex   8.090170e+000 3.000000e+000 5.877853e+000
      vertex   9.510565e+000 3.000000e+000 3.090170e+000
    endloop
  endfacet
  facet normal 6.339270e-001 7.027135e-001 3.230019e-001
    outer loop
      vertex   7.685661e+000 3.866025e+000 5.583960e+000
      vertex   7.981782e+000 3.500000e+000 5.799104e+000
      vertex   9.383148e+000 3.500000e+000 3.048770e+000
    endloop
  endfacet
  facet normal 2.332881e-001 9.651153e-001 1.188662e-001
    outer loop
      vertex   7.281153e+000 4.000000e+000 5.290067e+000
      vertex   7.685661e+000 3.866025e+000 5.583960e+000
      vertex   9.035037e+000 3.866025e+000 2.935661e+000
    endloop
  endfacet
  facet normal 9.548166e-001 2.558423e-001 1.512281e-001
    outer loop
      vertex   9.383148e+000 3.500000e+000 3.048770e+000
      vertex   9.510565e+000 3.000000e+000 3.090170e+000
      vertex   1.000000e+001 3.000000e+000 6.123234e-016
    endloop
  endfacet
  facet normal 7.027135e-001 7.027135e-001 1.112989e-001
    outer loop
      vertex   9.035037e+000 3.866025e+000 2.935661e+000
      vertex   9.383148e+000 3.500000e+000 3.048770e+000
      vertex   9.866025e+000 3.500000e+000 6.041198e-016
    endloop
  endfacet
  facet normal 2.586019e-001 9.651153e-001 4.095851e-002
    outer loop
      vertex   8.559509e+000 4.000000e+000 2.781153e+000
      vertex   9.035037e+000 3.866025e+000 2.935661e+000
      vertex   9.500000e+000 3.866025e+000 5.817072e-016
    endloop
  endfacet
  facet normal 9.548166e-001 2.558423e-001 -1.512281e-001
    outer loop
      vertex   9.866025e+000 3.500000e+000 6.041198e-016
      vertex   1.000000e+001 3.000000e+000 6.123234e-016
      vertex   9.510565e+000 3.000000e+000 -3.090170e+000
    endloop
  endfacet
  facet normal 7.027135e-001 7.027135e-001 -1.112989e-001
    outer loop
      vertex   9.500000e+000 3.866025e+000 5.817072e-016
      vertex   9.866025e+000 3.500000e+000 6.041198e-016
      vertex   9.383148e+000 3.500000e+000 -3.048770e+000
    endloop
  endfacet
  facet normal 2.586019e-001 9.651153e-001 -4.095851e-002
    outer loop
      vertex   9.000000e+000 4.000000e+000 5.510911e-016
      vertex   9.500000e+000 3.866025e+000 5.817072e-016
      vertex   9.035037e+000 3.866025e+000 -2.935661e+000
    endloop
  endfacet
  facet normal 8.613525e-001 2.558423e-001 -4.388810e-001
    outer loop
      vertex   9.383148e+000 3.500000e+000 -3.048770e+000
      vertex   9.510565e+000 3.000000e+000 -3.090170e+000
      vertex   8.090170e+000 3.000000e+000 -5.877853e+000
    endloop
  endfacet
  facet normal 6.339270e-001 7.027135e-001 -3.230019e-001
    outer loop
      vertex   9.035037e+000 3.866025e+000 -2.935661e+000
      vertex   9.383148e+000 3.500000e+000 -3.048770e+000
      vertex   7.981782e+000 3.500000e+000 -5.799104e+000
    endloop
  endfacet
  facet normal 2.332881e-001 9.651153e-001 -1.188662e-001
    outer loop
      vertex   8.559509e+000 4.000000e+000 -2.781153e+000
      vertex   9.035037e+000 3.866025e+000 -2.935661e+000
      vertex   7.685661e+000 3.866025e+000 -5.583960e+000
    endloop
  endfacet
  facet normal 6.835732e-001 2.558423e-001 -6.835732e-001
    outer loop
      vertex   7.981782e+000 3.500000e+000 -5.799104e+000
      vertex   8.090170e+000 3.000000e+000 -5.877853e+000
      vertex   5.877853e+000 3.000000e+000 -8.090170e+000
    endloop
  endfacet
  facet normal 5.030873e-001 7.027135e-001 -5.030873e-001
    outer loop
      vertex   7.685661e+000 3.866025e+000 -5.583960e+000
      vertex   7.981782e+000 3.500000e+000 -5.799104e+000
      vertex   5.799104e+000 3.500000e+000 -7.981782e+000
    endloop
  endfacet
  facet normal 1.851385e-001 9.651153e-001 -1.851385e-001
    outer loop
      vertex   7.281153e+000 4.000000e+000 -5.290067e+000
      vertex   7.685661e+000 3.866025e+000 -5.583960e+000
      vertex   5.583960e+000 3.866025e+000 -7.685661e+000
    endloop
  endfacet
  facet normal 4.388810e-001 2.558423e-001 -8.613525e-001
    outer loop
      vertex   5.799104e+000 3.500000e+000 -7.981782e+000
      vertex   5.877853e+000 3.000000e+000 -8.090170e+000
      vertex   3.090170e+000 3.000000e+000 -9.510565e+000
    endloop
  endfacet
  facet normal 3.230019e-001 7.027135e-001 -6.339270e-001
    outer loop
      vertex   5.583960e+000 3.866025e+000 -7.685661e+000
      vertex   5.799104e+000 3.500000e+000 -7.981782e+000
      vertex   3.048770e+000 3.500000e+000 -9.383148e+000
    endloop
  endfacet
  facet normal 1.188662e-001 9.651153e-001 -2.332881e-001
    outer loop
      vertex   5.290067e+000 4.000000e+000 -7.281153e+000
      vertex   5.583960e+000 3.866025e+000 -7.685661e+000
      vertex   2.935661e+000 3.866025e+000 -9.035037e+000
    endloop
  endfacet
  facet normal 1.512281e-001 2.558423e-001 -9.548166e-001
    outer loop
      vertex   3.048770e+000 3.500000e+000 -9.383148e+000
      vertex   3.090170e+000 3.000000e+000 -9.510565e+000
      vertex   1.224647e-015 3.000000e+000 -1.000000e+001
    endloop
  endfacet
  facet normal 1.112989e-001 7.027135e-001 -7.027135e-001
    outer loop
      vertex   2.935661e+000 3.866025e+000 -9.035037e+000
      vertex   3.048770e+000 3.500000e+000 -9.383148e+000
      vertex   1.208240e-015 3.500000e+000 -9.866025e+000
    endloop
  endfacet
  facet normal 4.095851e-002 9.651153e-001 -2.586019e-001
    outer loop
      vertex   2.781153e+000 4.000000e+000 -8.559509e+000
      vertex   2.935661e+000 3.866025e+000 -9.035037e+000
      vertex   1.163414e-015 3.866025e+000 -9.500000e+000
    endloop
  endfacet
  facet normal -1.512281e-001 2.558423e-001 -9.548166e-001
    outer loop
      vertex   1.208240e-015 3.500000e+000 -9.866025e+000
      vertex   1.224647e-015 3.000000e+000 -1.000000e+001
      vertex   -3.090170e+000 3.000000e+000 -9.510565e+000
    endloop
  endfacet
  facet normal -1.112989e-001 7.027135e-001 -7.027135e-001
    outer loop
      vertex   1.163414e-015 3.866025e+000 -9.500000e+000
      vertex   1.208240e-015 3.500000e+000 -9.866025e+000
      vertex   -3.048770e+000 3.500000e+000 -9.383148e+000
    endloop
  endfacet
  facet normal -4.095851e-002 9.651153e-001 -2.586019e-001
    outer loop
      vertex   1.102182e-015 4.000000e+000 -9.000000e+000
      vertex   1.163414e-015 3.866025e+000 -9.500000e+000
      vertex   -2.935661e+000 3.866025e+000 -9.035037e+000
    endloop
  endfacet
  facet normal -4.388810e-001 2.558423e-001 -8.613525e-001
    outer loop
      vertex   -3.048770e+000 3.500000e+000 -9.383148e+000
      vertex   -3.090170e+000 3.000000e+000 -9.510565e+000
      vertex   -5.877853e+000 3.000000e+000 -8.090170e+000
    endloop
  endfacet
  facet normal -3.230019e-001 7.027135e-001 -6.339270e-001
    outer loop
      vertex   -2.935661e+000 3.866025e+000 -9.035037e+000
      vertex   -3.048770e+000 3.500000e+000 -9.383148e+000
      vertex   -5.799104e+000 3.500000e+000 -7.981782e+000
    endloop
  endfacet
  facet normal -1.188662e-001 9.651153e-001 -2.332881e-001
    outer loop
      vertex   -2.781153e+000 4.000000e+000 -8.559509e+000
      vertex   -2.935661e+000 3.866025e+000 -9.035037e+000
      vertex   -5.583960e+000 3.866025e+000 -7.685661e+000
    endloop
  endfacet
  facet normal -6.835732e-001 2.558423e-001 -6.835732e-001
    outer loop
      vertex   -5.799104e+000 3.500000e+000 -7.981782e+000
      vertex   -5.877853e+000 3.000000e+000 -8.090170e+000
      vertex   -8.090170e+000 3.000000e+000 -5.877853e+000
    endloop
  endfacet
  facet normal -5.030873e-001 7.027135e-001 -5.030873e-001
    outer loop
      vertex   -5.583960e+000 3.866025e+000 -7.685661e+000
      vertex   -5.799104e+000 3.500000e+000 -7.981782e+000
      vertex   -7.981782e+000 3.500000e+000 -5.799104e+000
    endloop
  endfacet
  facet normal -1.851385e-001 9.651153e-001 -1.851385e-001
    outer loop
      vertex   -5.290067e+000 4.000000e+000 -7.281153e+000
      vertex   -5.583960e+000 3.866025e+000 -7.685661e+000
      vertex   -7.685661e+000 3.866025e+000 -5.583960e+000
    endloop
  endfacet
  facet normal -8.613525e-001 2.558423e-001 -4.388810e-001
    outer loop
      vertex   -7.981782e+000 3.500000e+000 -5.799104e+000
      vertex   -8.090170e+000 3.000000e+000 -5.877853e+000
      vertex   -9.510565e+000 3.000000e+000 -3.090170e+000
    endloop
  endfacet
  facet normal -6.339270e-001 7.027135e-001 -3.230019e-001
    outer loop
      vertex   -7.685661e+000 3.866025e+000 -5.583960e+000
      vertex   -7.981782e+000 3.500000e+000 -5.799104e+000
      vertex   -9.383148e+000 3.500000e+000 -3.048770e+000
    endloop
  endfacet
  facet normal -2.332881e-001 9.651153e-001 -1.188662e-001
    outer loop
      vertex   -7.281153e+000 4.000000e+000 -5.290067e+000
      vertex   -7.685661e+000 3.866025e+000 -5.583960e+000
      vertex   -9.035037e+000 3.866025e+000 -2.935661e+000
    endloop
  endfacet
  facet normal -9.548166e-001 2.558423e-001 -1.512281e-001
    outer loop
      vertex   -9.383148e+000 3.500000e+000 -3.048770e+000
      vertex   -9.510565e+000 3.000000e+000 -3.090170e+000
      vertex   -1.000000e+001 3.000000e+000 -1.836970e-015
    endloop
  endfacet
  facet normal -7.027135e-001 7.027135e-001 -1.112989e-001
    outer loop
      vertex   -9.035037e+000 3.866025e+000 -2.935661e+000
      vertex   -9.383148e+000 3.500000e+000 -3.048770e+000
      vertex   -9.866025e+000 3.500000e+000 -1.812359e-015
    endloop
  endfacet
  facet normal -2.586019e-001 9.651153e-001 -4.095851e-002
    outer loop
      vertex   -8.559509e+000 4.000000e+000 -2.781153e+000
      vertex   -9.035037e+000 3.866025e+000 -2.935661e+000
      vertex   -9.500000e+000 3.866025e+000 -1.745122e-015
    endloop
  endfacet
  facet normal -9.548166e-001 2.558423e-001 1.512281e-001
    outer loop
      vertex   -9.866025e+000 3.500000e+000 -1.812359e-015
      vertex   -1.000000e+001 3.000000e+000 -1.836970e-015
      vertex   -9.510565e+000 3.000000e+000 3.090170e+000
    endloop
  endfacet
  facet normal -7.027135e-001 7.027135e-001 1.112989e-001
    outer loop
      vertex   -9.500000e+000 3.866025e+000 -1.745122e-015
      vertex   -9.866025e+000 3.500000e+000 -1.812359e-015
      vertex   -9.383148e+000 3.500000e+000 3.048770e+000
    endloop
  endfacet
  facet normal -2.586019e-001 9.651153e-001 4.095851e-002
    outer loop
      vertex   -9.000000e+000 4.000000e+000 -1.653273e-015
      vertex   -9.500000e+000 3.866025e+000 -1.745122e-015
      vertex   -9.035037e+000 3.866025e+000 2.935661e+000
    endloop
  endfacet
  facet normal -8.613525e-001 2.558423e-001 4.388810e-001
    outer loop
      vertex   -9.383148e+000 3.500000e+000 3.048770e+000
      vertex   -9.510565e+000 3.000000e+000 3.090170e+000
      vertex   -8.090170e+000 3.000000e+000 5.877853e+000
    endloop
  endfacet
  facet normal -6.339270e-001 7.027135e-001 3.230019e-001
    outer loop
      vertex   -9.035037e+000 3.866025e+000 2.935661e+000
      vertex   -9.383148e+000 3.500000e+000 3.048770e+000
      vertex   -7.981782e+000 3.500000e+000 5.799104e+000
    endloop
  endfacet
  facet normal -2.332881e-001 9.651153e-001 1.188662e-001
    outer loop
      vertex   -8.559509e+000 4.000000e+000 2.781153e+000
      vertex   -9.035037e+000 3.866025e+000 2.935661e+000
      vertex   -7.685661e+000 3.866025e+000 5.583960e+000
    endloop
  endfacet
  facet normal -6.835732e-001 2.558423e-001 6.835732e-001
    outer loop
      vertex   -7.981782e+000 3.500000e+000 5.799104e+000
      vertex   -8.090170e+000 3.000000e+000 5.877853e+000
      vertex   -5.877853e+000 3.000000e+000 8.090170e+000
    endloop
  endfacet
  facet normal -5.030873e-001 7.027135e-001 5.030873e-001
    outer loop
      vertex   -7.685661e+000 3.866025e+000 5.583960e+000
      vertex   -7.981782e+000 3.500000e+000 5.799104e+000
      vertex   -5.799104e+000 3.500000e+000 7.981782e+000
    endloop
  endfacet
  facet normal -1.851385e-001 9.651153e-001 1.851385e-001
    outer loop
      vertex   -7.281153e+000 4.000000e+000 5.290067e+000
      vertex   -7.685661e+000 3.866025e+000 5.583960e+000
      vertex   -5.583960e+000 3.866025e+000 7.685661e+000
    endloop
  endfacet
  facet normal -4.388810e-001 2.558423e-001 8.613525e-001
    outer loop
      vertex   -5.799104e+000 3.500000e+000 7.981782e+000
      vertex   -5.877853e+000 3.000000e+000 8.090170e+000
      vertex   -3.090170e+000 3.000000e+000 9.510565e+000
    endloop
  endfacet
  facet normal -3.230019e-001 7.027135e-001 6.339270e-001
    outer loop
      vertex   -5.583960e+000 3.866025e+000 7.685661e+000
      vertex   -5.799104e+000 3.500000e+000 7.981782e+000
      vertex   -3.048770e+000 3.500000e+000 9.383148e+000
    endloop
  endfacet
  facet normal -1.188662e-001 9.651153e-001 2.332881e-001
    outer loop
      vertex   -5.290067e+000 4.000000e+000 7.281153e+000
      vertex   -5.583960e+000 3.866025e+000 7.685661e+000
      vertex   -2.935661e+000 3.866025e+000 9.035037e+000
    endloop
  endfacet
  facet normal -1.512281e-001 2.558423e-001 9.548166e-001
    outer loop
      vertex   -3.048770e+000 3.500000e+000 9.383148e+000
      vertex   -3.090170e+000 3.000000e+000 9.510565e+000
      vertex   -2.449294e-015 3.000000e+000 1.000000e+001
    endloop
  endfacet
  facet normal -1.112989e-001 7.027135e-001 7.027135e-001
    outer loop
      vertex   -2.935661e+000 3.866025e+000 9.035037e+000
      vertex   -3.048770e+000 3.500000e+000 9.383148e+000
      vertex   0.000000e+000 3.500000e+000 9.866025e+000
    endloop
  endfacet
  facet normal -4.095851e-002 9.651153e-001 2.586019e-001
    outer loop
      vertex   -2.781153e+000 4.000000e+000 8.559509e+000
      vertex   -2.935661e+000 3.866025e+000 9.035037e+000
      vertex   0.000000e+000 3.866025e+000 9.500000e+000
    endloop
  endfacet
  facet normal -4.095851e-002 9.651153e-001 2.586019e-001
    outer loop
      vertex   0.000000e+000 3.866025e+000 9.500000e+000
      vertex   0.000000e+000 4.000000e+000 9.000000e+000
      vertex   -2.781153e+000 4.000000e+000 8.559509e+000
    endloop
  endfacet
  facet normal -1.112989e-001 7.027135e-001 7.027135e-001
    outer loop
      vertex   0.000000e+000 3.500000e+000 9.866025e+000
      vertex   0.000000e+000 3.866025e+000 9.500000e+000
      vertex   -2.935661e+000 3.866025e+000 9.035037e+000
    endloop
  endfacet
  facet normal -1.512281e-001 2.558423e-001 9.548166e-001
    outer loop
      vertex   -2.449294e-015 3.000000e+000 1.000000e+001
      vertex   0.000000e+000 3.500000e+000 9.866025e+000
      vertex   -3.048770e+000 3.500000e+000 9.383148e+000
    endloop
  endfacet
  facet normal -1.188662e-001 9.651153e-001 2.332881e-001
    outer loop
      vertex   -2.935661e+000 3.866025e+000 9.035037e+000
      vertex   -2.781153e+000 4.000000e+000 8.559509e+000
      vertex   -5.290067e+000 4.000000e+000 7.281153e+000
    endloop
  endfacet
  facet normal -3.230019e-001 7.027135e-001 6.339270e-001
    outer loop
      vertex   -3.048770e+000 3.500000e+000 9.383148e+000
      vertex   -2.935661e+000 3.866025e+000 9.035037e+000
      vertex   -5.583960e+000 3.866025e+000 7.685661e+000
    endloop
  endfacet
  facet normal -4.388810e-001 2.558423e-001 8.613525e-001
    outer loop
      vertex   -3.090170e+000 3.000000e+000 9.510565e+000
      vertex   -3.048770e+000 3.500000e+000 9.383148e+000
      vertex   -5.799104e+000 3.500000e+000 7.981782e+000
    endloop
  endfacet
  facet normal -1.851385e-001 9.651153e-001 1.851385e-001
    outer loop
      vertex   -5.583960e+000 3.866025e+000 7.685661e+000
      vertex   -5.290067e+000 4.000000e+000 7.281153e+000
      vertex   -7.281153e+000 4.000000e+000 5.290067e+000
    endloop
  endfacet
  facet normal -5.030873e-001 7.027135e-001 5.030873e-001
    outer loop
      vertex   -5.799104e+000 3.500000e+000 7.981782e+000
      vertex   -5.583960e+000 3.866025e+000 7.685661e+000
      vertex   -7.685661e+000 3.866025e+000 5.583960e+000
    endloop
  endfacet
  facet normal -6.835732e-001 2.558423e-001 6.835732e-001
    outer loop
      vertex   -5.877853e+000 3.000000e+000 8.090170e+000
      vertex   -5.799104e+000 3.500000e+000 7.981782e+000
      vertex   -7.981782e+000 3.500000e+000 5.799104e+000
    endloop
  endfacet
  facet normal -2.332881e-001 9.651153e-001 1.188662e-001
    outer loop
      vertex   -7.685661e+000 3.866025e+000 5.583960e+000
      vertex   -7.281153e+000 4.000000e+000 5.290067e+000
      vertex   -8.559509e+000 4.000000e+000 2.781153e+000
    endloop
  endfacet
  facet normal -6.339270e-001 7.027135e-001 3.230019e-001
    outer loop
      vertex   -7.981782e+000 3.500000e+000 5.799104e+000
      vertex   -7.685661e+000 3.866025e+000 5.583960e+000
      vertex   -9.035037e+000 3.866025e+000 2.935661e+000
    endloop
  endfacet
  facet normal -8.613525e-001 2.558423e-001 4.388810e-001
    outer loop
      vertex   -8.090170e+000 3.000000e+000 5.877853e+000
      vertex   -7.981782e+000 3.500000e+000 5.799104e+000
      vertex   -9.383148e+000 3.500000e+000 3.048770e+000
    endloop
  endfacet
  facet normal -2.586019e-001 9.651153e-001 4.095851e-002
    outer loop
      vertex   -9.035037e+000 3.866025e+000 2.935661e+000
      vertex   -8.559509e+000 4.000000e+000 2.781153e+000
      vertex   -9.000000e+000 4.000000e+000 -1.653273e-015
    endloop
  endfacet
  facet normal -7.027135e-001 7.027135e-001 1.112989e-001
    outer loop
      vertex   -9.383148e+000 3.500000e+000 3.048770e+000
      vertex   -9.035037e+000 3.866025e+000 2.935661e+000
      vertex   -9.500000e+000 3.866025e+000 -1.745122e-015
    endloop
  endfacet
  facet normal -9.548166e-001 2.558423e-001 1.512281e-001
    outer loop
      vertex   -9.510565e+000 3.000000e+000 3.090170e+000
      vertex   -9.383148e+000 3.500000e+000 3.048770e+000
      vertex   -9.866025e+000 3.500000e+000 -1.812359e-015
    endloop
  endfacet
  facet normal -2.586019e-001 9.651153e-001 -4.095851e-002
    outer loop
      vertex   -9.500000e+000 3.866025e+000 -1.745122e-015
      vertex   -9.000000e+000 4.000000e+000 -1.653273e-015
      vertex   -8.559509e+000 4.000000e+000 -2.781153e+000
    endloop
  endfacet
  facet normal -7.027135e-001 7.027135e-001 -1.112989e-001
    outer loop
      vertex   -9.866025e+000 3.500000e+000 -1.812359e-015
      vertex   -9.500000e+000 3.866025e+000 -1.745122e-015
      vertex   -9.035037e+000 3.866025e+000 -2.935661e+000
    endloop
  endfacet
  facet normal -9.548166e-001 2.558423e-001 -1.512281e-001
    outer loop
      vertex   -1.000000e+001 3.000000e+000 -1.836970e-015
      vertex   -9.866025e+000 3.500000e+000 -1.812359e-015
      vertex   -9.383148e+000 3.500000e+000 -3.048770e+000
    endloop
  endfacet
  facet normal -2.332881e-001 9.651153e-001 -1.188662e-001
    outer loop
      vertex   -9.035037e+000 3.866025e+000 -2.935661e+000
      vertex   -8.559509e+000 4.000000e+000 -2.781153e+000
      vertex   -7.281153e+000 4.000000e+000 -5.290067e+000
    endloop
  endfacet
  facet normal -6.339270e-001 7.027135e-001 -3.230019e-001
    outer loop
      vertex   -9.383148e+000 3.500000e+000 -3.048770e+000
      vertex   -9.035037e+000 3.866025e+000 -2.935661e+000
      vertex   -7.685661e+000 3.866025e+000 -5.583960e+000
    endloop
  endfacet
  facet normal -8.613525e-001 2.558423e-001 -4.388810e-001
    outer loop
      vertex   -9.510565e+000 3.000000e+000 -3.090170e+000
      vertex   -9.383148e+000 3.500000e+000 -3.048770e+000
      vertex   -7.981782e+000 3.500000e+000 -5.799104e+000
    endloop
  endfacet
  facet normal -1.851385e-001 9.651153e-001 -1.851385e-001
    outer loop
      vertex   -7.685661e+000 3.866025e+000 -5.583960e+000
      vertex   -7.281153e+000 4.000000e+000 -5.290067e+000
      vertex   -5.290067e+000 4.000000e+000 -7.281153e+000
    endloop
  endfacet
  facet normal -5.030873e-001 7.027135e-001 -5.030873e-001
    outer loop
      vertex   -7.981782e+000 3.500000e+000 -5.799104e+000
      vertex   -7.685661e+000 3.866025e+000 -5.583960e+000
      vertex   -5.583960e+000 3.866025e+000 -7.685661e+000
    endloop
  endfacet
  facet normal -6.835732e-001 2.558423e-001 -6.835732e-001
    outer loop
      vertex   -8.090170e+000 3.000000e+000 -5.877853e+000
      vertex   -7.981782e+000 3.500000e+000 -5.799104e+000
      vertex   -5.799104e+000 3.500000e+000 -7.981782e+000
    endloop
  endfacet
  facet normal -1.188662e-001 9.651153e-001 -2.332881e-001
    outer loop
      vertex   -5.583960e+000 3.866025e+000 -7.685661e+000
      vertex   -5.290067e+000 4.000000e+000 -7.281153e+000
      vertex   -2.781153e+000 4.000000e+000 -8.559509e+000
    endloop
  endfacet
  facet normal -3.230019e-001 7.027135e-001 -6.339270e-001
    outer loop
      vertex   -5.799104e+000 3.500000e+000 -7.981782e+000
      vertex   -5.583960e+000 3.866025e+000 -7.685661e+000
      vertex   -2.935661e+000 3.866025e+000 -9.035037e+000
    endloop
  endfacet
  facet normal -4.388810e-001 2.558423e-001 -8.613525e-001
    outer loop
      vertex   -5.877853e+000 3.000000e+000 -8.090170e+000
      vertex   -5.799104e+000 3.500000e+000 -7.981782e+000
      vertex   -3.048770e+000 3.500000e+000 -9.383148e+000
    endloop
  endfacet
  facet normal -4.095851e-002 9.651153e-001 -2.586019e-001
    outer loop
      vertex   -2.935661e+000 3.866025e+000 -9.035037e+000
      vertex   -2.781153e+000 4.000000e+000 -8.559509e+000
      vertex   1.102182e-015 4.000000e+000 -9.000000e+000
    endloop
  endfacet
  facet normal -1.112989e-001 7.027135e-001 -7.027135e-001
    outer loop
      vertex   -3.048770e+000 3.500000e+000 -9.383148e+000
      vertex   -2.935661e+000 3.866025e+000 -9.035037e+000
      vertex   1.163414e-015 3.866025e+000 -9.500000e+000
    endloop
  endfacet
  facet normal -1.512281e-001 2.558423e-001 -9.548166e-001
    outer loop
      vertex   -3.090170e+000 3.000000e+000 -9.510565e+000
      vertex   -3.048770e+000 3.500000e+000 -9.383148e+000
      vertex   1.208240e-015 3.500000e+000 -9.866025e+000
    endloop
  endfacet
  facet normal 4.095851e-002 9.651153e-001 -2.586019e-001
    outer loop
      vertex   1.163414e-015 3.866025e+000 -9.500000e+000
      vertex   1.102182e-015 4.000000e+000 -9.000000e+000
      vertex   2.781153e+000 4.000000e+000 -8.559509e+000
    endloop
  endfacet
  facet normal 1.112989e-001 7.027135e-001 -7.027135e-001
    outer loop
      vertex   1.208240e-015 3.500000e+000 -9.866025e+000
      vertex   1.163414e-015 3.866025e+000 -9.500000e+000
      vertex   2.935661e+000 3.866025e+000 -9.035037e+000
    endloop
  endfacet
  facet normal 1.512281e-001 2.558423e-001 -9.548166e-001
    outer loop
      vertex   1.224647e-015 3.000000e+000 -1.000000e+001
      vertex   1.208240e-015 3.500000e+000 -9.866025e+000
      vertex   3.048770e+000 3.500000e+000 -9.383148e+000
    endloop
  endfacet
  facet normal 1.188662e-001 9.651153e-001 -2.332881e-001
    outer loop
      vertex   2.935661e+000 3.866025e+000 -9.035037e+000
      vertex   2.781153e+000 4.000000e+000 -8.559509e+000
      vertex   5.290067e+000 4.000000e+000 -7.281153e+000
    endloop
  endfacet
  facet normal 3.230019e-001 7.027135e-001 -6.339270e-001
    outer loop
      vertex   3.048770e+000 3.500000e+000 -9.383148e+000
      vertex   2.935661e+000 3.866025e+000 -9.035037e+000
      vertex   5.583960e+000 3.866025e+000 -7.685661e+000
    endloop
  endfacet
  facet normal 4.388810e-001 2.558423e-001 -8.613525e-001
    outer loop
      vertex   3.090170e+000 3.000000e+000 -9.510565e+000
      vertex   3.048770e+000 3.500000e+000 -9.383148e+000
      vertex   5.799104e+000 3.500000e+000 -7.981782e+000
    endloop
  endfacet
  facet normal 1.851385e-001 9.651153e-001 -1.851385e-001
    outer loop
      vertex   5.583960e+000 3.866025e+000 -7.685661e+000
      vertex   5.290067e+000 4.000000e+000 -7.281153e+000
      vertex   7.281153e+000 4.000000e+000 -5.290067e+000
    endloop
  endfacet
  facet normal 5.030873e-001 7.027135e-001 -5.030873e-001
    outer loop
      vertex   5.799104e+000 3.500000e+000 -7.981782e+000
      vertex   5.583960e+000 3.866025e+000 -7.685661e+000
      vertex   7.685661e+000 3.866025e+000 -5.583960e+000
    endloop
  endfacet
  facet normal 6.835732e-001 2.558423e-001 -6.835732e-001
    outer loop
      vertex   5.877853e+000 3.000000e+000 -8.090170e+000
      vertex   5.799104e+000 3.500000e+000 -7.981782e+000
      vertex   7.981782e+000 3.500000e+000 -5.799104e+000
    endloop
  endfacet
  facet normal 2.332881e-001 9.651153e-001 -1.188662e-001
    outer loop
      vertex   7.685661e+000 3.866025e+000 -5.583960e+000
      vertex   7.281153e+000 4.000000e+000 -5.290067e+000
      vertex   8.559509e+000 4.000000e+000 -2.781153e+000
    endloop
  endfacet
  facet normal 6.339270e-001 7.027135e-001 -3.230019e-001
    outer loop
      vertex   7.981782e+000 3.500000e+000 -5.799104e+000
      vertex   7.685661e+000 3.866025e+000 -5.583960e+000
      vertex   9.035037e+000 3.866025e+000 -2.935661e+000
    endloop
  endfacet
  facet normal 8.613525e-001 2.558423e-001 -4.388810e-001
    outer loop
      vertex   8.090170e+000 3.000000e+000 -5.877853e+000
      vertex   7.981782e+000 3.500000e+000 -5.799104e+000
      vertex   9.383148e+000 3.500000e+000 -3.048770e+000
    endloop
  endfacet
  facet normal 2.586019e-001 9.651153e-001 -4.095851e-002
    outer loop
      vertex   9.035037e+000 3.866025e+000 -2.935661e+000
      vertex   8.559509e+000 4.000000e+000 -2.781153e+000
      vertex   9.000000e+000 4.000000e+000 5.510911e-016
    endloop
  endfacet
  facet normal 7.027135e-001 7.027135e-001 -1.112989e-001
    outer loop
      vertex   9.383148e+000 3.500000e+000 -3.048770e+000
      vertex   9.035037e+000 3.866025e+000 -2.935661e+000
      vertex   9.500000e+000 3.866025e+000 5.817072e-016
    endloop
  endfacet
  facet normal 9.548166e-001 2.558423e-001 -1.512281e-001
    outer loop
      vertex   9.510565e+000 3.000000e+000 -3.090170e+000
      vertex   9.383148e+000 3.500000e+000 -3.048770e+000
      vertex   9.866025e+000 3.500000e+000 6.041198e-016
    endloop
  endfacet
  facet normal 2.586019e-001 9.651153e-001 4.095851e-002
    outer loop
      vertex   9.500000e+000 3.866025e+000 5.817072e-016
      vertex   9.000000e+000 4.000000e+000 5.510911e-016
      vertex   8.559509e+000 4.000000e+000 2.781153e+000
    endloop
  endfacet
  facet normal 7.027135e-001 7.027135e-001 1.112989e-001
    outer loop
      vertex   9.866025e+000 3.500000e+000 6.041198e-016
      vertex   9.500000e+000 3.866025e+000 5.817072e-016
      vertex   9.035037e+000 3.866025e+000 2.935661e+000
    endloop
  endfacet
  facet normal 9.548166e-001 2.558423e-001 1.512281e-001
    outer loop
      vertex   1.000000e+001 3.000000e+000 6.123234e-016
      vertex   9.866025e+000 3.500000e+000 6.041198e-016
      vertex   9.383148e+000 3.500000e+000 3.048770e+000
    endloop
  endfacet
  facet normal 2.332881e-001 9.651153e-001 1.188662e-001
    outer loop
      vertex   9.035037e+000 3.866025e+000 2.935661e+000
      vertex   8.559509e+000 4.000000e+000 2.781153e+000
      vertex   7.281153e+000 4.000000e+000 5.290067e+000
    endloop
  endfacet
  facet normal 6.339270e-001 7.027135e-001 3.230019e-001
    outer loop
      vertex   9.383148e+000 3.500000e+000 3.048770e+000
      vertex   9.035037e+000 3.866025e+000 2.935661e+000
      vertex   7.685661e+000 3.866025e+000 5.583960e+000
    endloop
  endfacet
  facet normal 8.613525e-001 2.558423e-001 4.388810e-001
    outer loop
      vertex   9.510565e+000 3.000000e+000 3.090170e+000
      vertex   9.383148e+000 3.500000e+000 3.048770e+000
      vertex   7.981782e+000 3.500000e+000 5.799104e+000
    endloop
  endfacet
  facet normal 1.851385e-001 9.651153e-001 1.851385e-001
    outer loop
      vertex   7.685661e+000 3.866025e+000 5.583960e+000
      vertex   7.281153e+000 4.000000e+000 5.290067e+000
      vertex   5.290067e+000 4.000000e+000 7.281153e+000
    endloop
  endfacet
  facet normal 5.030873e-001 7.027135e-001 5.030873e-001
    outer loop
      vertex   7.981782e+000 3.500000e+000 5.799104e+000
      vertex   7.685661e+000 3.866025e+000 5.583960e+000
      vertex   5.583960e+000 3.866025e+000 7.685661e+000
    endloop
  endfacet
  facet normal 6.835732e-001 2.558423e-001 6.835732e-001
    outer loop
      vertex   8.090170e+000 3.000000e+000 5.877853e+000
      vertex   7.981782e+000 3.500000e+000 5.799104e+000
      vertex   5.799104e+000 3.500000e+000 7.981782e+000
    endloop
  endfacet
  facet normal 1.188662e-001 9.651153e-001 2.332881e-001
    outer loop
      vertex   5.583960e+000 3.866025e+000 7.685661e+000
      vertex   5.290067e+000 4.000000e+000 7.281153e+000
      vertex   2.781153e+000 4.000000e+000 8.559509e+000
    endloop
  endfacet
  facet normal 3.230019e-001 7.027135e-001 6.339270e-001
    outer loop
      vertex   5.799104e+000 3.500000e+000 7.981782e+000
      vertex   5.583960e+000 3.866025e+000 7.685661e+000
      vertex   2.935661e+000 3.866025e+000 9.035037e+000
    endloop
  endfacet
  facet normal 4.388810e-001 2.558423e-001 8.613525e-001
    outer loop
      vertex   5.877853e+000 3.000000e+000 8.090170e+000
      vertex   5.799104e+000 3.500000e+000 7.981782e+000
      vertex   3.048770e+000 3.500000e+000 9.383148e+000
    endloop
  endfacet
  facet normal 4.095851e-002 9.651153e-001 2.586019e-001
    outer loop
      vertex   2.935661e+000 3.866025e+000 9.035037e+000
      vertex   2.781153e+000 4.000000e+000 8.559509e+000
      vertex   0.000000e+000 4.000000e+000 9.000000e+000
    endloop
  endfacet
  facet normal 1.112989e-001 7.027135e-001 7.027135e-001
    outer loop
      vertex   3.048770e+000 3.500000e+000 9.383148e+000
      vertex   2.935661e+000 3.866025e+000 9.035037e+000
      vertex   0.000000e+000 3.866025e+000 9.500000e+000
    endloop
  endfacet
  facet normal 1.512281e-001 2.558423e-001 9.548166e-001
    outer loop
      vertex   3.090170e+000 3.000000e+000 9.510565e+000
      vertex   3.048770e+000 3.500000e+000 9.383148e+000
      vertex   0.000000e+000 3.500000e+000 9.866025e+000
    endloop
  endfacet
  facet normal 0.000000e+000 1.000000e+000 0.000000e+000
    outer loop
      vertex   0.000000e+000 4.000000e+000 0.000000e+000
      vertex   2.781153e+000 4.000000e+000 8.559509e+000
      vertex   5.290067e+000 4.000000e+000 7.281153e+000
    endloop
  endfacet
  facet normal 0.000000e+000 1.000000e+000 0.000000e+000
    outer loop
      vertex   5.290067e+000 4.000000e+000 7.281153e+000
      vertex   7.281153e+000 4.000000e+000 5.290067e+000
      vertex   0.000000e+000 4.000000e+000 0.000000e+000
    endloop
  endfacet
  facet normal 0.000000e+000 1.000000e+000 0.000000e+000
    outer loop
      vertex   7.281153e+000 4.000000e+000 5.290067e+000
      vertex   8.559509e+000 4.000000e+000 2.781153e+000
      vertex   0.000000e+000 4.000000e+000 0.000000e+000
    endloop
  endfacet
  facet normal 0.000000e+000 1.000000e+000 0.000000e+000
    outer loop
      vertex   8.559509e+000 4.000000e+000 2.781153e+000
      vertex   9.000000e+000 4.000000e+000 5.510911e-016
      vertex   0.000000e+000 4.000000e+000 0.000000e+000
    endloop
  endfacet
  facet normal 0.000000e+000 1.000000e+000 0.000000e+000
    outer loop
      vertex   9.000000e+000 4.000000e+000 5.510911e-016
      vertex   8.559509e+000 4.000000e+000 -2.781153e+000
      vertex   0.000000e+000 4.000000e+000 0.000000e+000
    endloop
  endfacet
  facet normal 0.000000e+000 1.000000e+000 0.000000e+000
    outer loop
      vertex   8.559509e+000 4.000000e+000 -2.781153e+000
      vertex   7.281153e+000 4.000000e+000 -5.290067e+000
      vertex   0.000000e+000 4.000000e+000 0.000000e+000
    endloop
  endfacet
  facet normal 0.000000e+000 1.000000e+000 0.000000e+000
    outer loop
      vertex   7.281153e+000 4.000000e+000 -5.290067e+000
      vertex   5.290067e+000 4.000000e+000 -7.281153e+000
      vertex   0.000000e+000 4.000000e+000 0.000000e+000
    endloop
  endfacet
  facet normal 0.000000e+000 1.000000e+000 0.000000e+000
    outer loop
      vertex   5.290067e+000 4.000000e+000 -7.281153e+000
      vertex   2.781153e+000 4.000000e+000 -8.559509e+000
      vertex   0.000000e+000 4.000000e+000 0.000000e+000
    endloop
  endfacet
  facet normal 0.000000e+000 1.000000e+000 0.000000e+000
    outer loop
      vertex   2.781153e+000 4.000000e+000 -8.559509e+000
      vertex   1.102182e-015 4.000000e+000 -9.000000e+000
      vertex   0.000000e+000 4.000000e+000 0.000000e+000
    endloop
  endfacet
  facet normal 0.000000e+000 1.000000e+000 0.000000e+000
    outer loop
      vertex   1.102182e-015 4.000000e+000 -9.000000e+000
      vertex   -2.781153e+000 4.000000e+000 -8.559509e+000
      vertex   0.000000e+000 4.000000e+000 0.000000e+000
    endloop
  endfacet
  facet normal 0.000000e+000 1.000000e+000 -0.000000e+000
    outer loop
      vertex   -2.781153e+000 4.000000e+000 -8.559509e+000
      vertex   -5.290067e+000 4.000000e+000 -7.281153e+000
      vertex   0.000000e+000 4.000000e+000 0.000000e+000
    endloop
  endfacet
  facet normal 0.000000e+000 1.000000e+000 -0.000000e+000
    outer loop
      vertex   -5.290067e+000 4.000000e+000 -7.281153e+000
      vertex   -7.281153e+000 4.000000e+000 -5.290067e+000
      vertex   0.000000e+000 4.000000e+000 0.000000e+000
    endloop
  endfacet
  facet normal 0.000000e+000 1.000000e+000 -0.000000e+000
    outer loop
      vertex   -7.281153e+000 4.000000e+000 -5.290067e+000
      vertex   -8.559509e+000 4.000000e+000 -2.781153e+000
      vertex   0.000000e+000 4.000000e+000 0.000000e+000
    endloop
  endfacet
  facet normal 0.000000e+000 1.000000e+000 -0.000000e+000
    outer loop
      vertex   -8.559509e+000 4.000000e+000 -2.781153e+000
      vertex   -9.000000e+000 4.000000e+000 -1.653273e-015
      vertex   0.000000e+000 4.000000e+000 0.000000e+000
    endloop
  endfacet
  facet normal 0.000000e+000 1.000000e+000 0.000000e+000
    outer loop
      vertex   -9.000000e+000 4.000000e+000 -1.653273e-015
      vertex   -8.559509e+000 4.000000e+000 2.781153e+000
      vertex   0.000000e+000 4.000000e+000 0.000000e+000
    endloop
  endfacet
  facet normal -0.000000e+000 1.000000e+000 0.000000e+000
    outer loop
      vertex   -8.559509e+000 4.000000e+000 2.781153e+000
      vertex   -7.281153e+000 4.000000e+000 5.290067e+000
      vertex   0.000000e+000 4.000000e+000 0.000000e+000
    endloop
  endfacet
  facet normal -0.000000e+000 1.000000e+000 0.000000e+000
    outer loop
      vertex   -7.281153e+000 4.000000e+000 5.290067e+000
      vertex   -5.290067e+000 4.000000e+000 7.281153e+000
      vertex   0.000000e+000 4.000000e+000 0.000000e+000
    endloop
  endfacet
  facet normal -0.000000e+000 1.000000e+000 0.000000e+000
    outer loop
      vertex   -5.290067e+000 4.000000e+000 7.281153e+000
      vertex   -2.781153e+000 4.000000e+000 8.559509e+000
      vertex   0.000000e+000 4.000000e+000 0.000000e+000
    endloop
  endfacet
  facet normal -0.000000e+000 1.000000e+000 0.000000e+000
    outer loop
      vertex   -2.781153e+000 4.000000e+000 8.559509e+000
      vertex   0.000000e+000 4.000000e+000 9.000000e+000
      vertex   0.000000e+000 4.000000e+000 0.000000e+000
    endloop
  endfacet
  facet normal 0.000000e+000 1.000000e+000 0.000000e+000
    outer loop
      vertex   0.000000e+000 4.000000e+000 9.000000e+000
      vertex   2.781153e+000 4.000000e+000 8.559509e+000
      vertex   0.000000e+000 4.000000e+000 0.000000e+000
    endloop
  endfacet
endsolid
