solid Eje
  facet normal 0.000000e+000 -1.000000e+000 0.000000e+000
    outer loop
      vertex   0.000000e+000 -1.500000e+002 0.000000e+000
      vertex   -1.368081e+000 -1.500000e+002 3.758770e+000
      vertex   -2.571150e+000 -1.500000e+002 3.064178e+000
    endloop
  endfacet
  facet normal 0.000000e+000 -1.000000e+000 -0.000000e+000
    outer loop
      vertex   -2.571150e+000 -1.500000e+002 3.064178e+000
      vertex   -3.464102e+000 -1.500000e+002 2.000000e+000
      vertex   0.000000e+000 -1.500000e+002 0.000000e+000
    endloop
  endfacet
  facet normal 0.000000e+000 -1.000000e+000 -0.000000e+000
    outer loop
      vertex   -3.464102e+000 -1.500000e+002 2.000000e+000
      vertex   -3.939231e+000 -1.500000e+002 6.945927e-001
      vertex   0.000000e+000 -1.500000e+002 0.000000e+000
    endloop
  endfacet
  facet normal 0.000000e+000 -1.000000e+000 0.000000e+000
    outer loop
      vertex   -3.939231e+000 -1.500000e+002 6.945927e-001
      vertex   -3.939231e+000 -1.500000e+002 -6.945927e-001
      vertex   0.000000e+000 -1.500000e+002 0.000000e+000
    endloop
  endfacet
  facet normal 0.000000e+000 -1.000000e+000 0.000000e+000
    outer loop
      vertex   -3.939231e+000 -1.500000e+002 -6.945927e-001
      vertex   -3.464102e+000 -1.500000e+002 -2.000000e+000
      vertex   0.000000e+000 -1.500000e+002 0.000000e+000
    endloop
  endfacet
  facet normal 0.000000e+000 -1.000000e+000 0.000000e+000
    outer loop
      vertex   -3.464102e+000 -1.500000e+002 -2.000000e+000
      vertex   -2.571150e+000 -1.500000e+002 -3.064178e+000
      vertex   0.000000e+000 -1.500000e+002 0.000000e+000
    endloop
  endfacet
  facet normal 0.000000e+000 -1.000000e+000 0.000000e+000
    outer loop
      vertex   -2.571150e+000 -1.500000e+002 -3.064178e+000
      vertex   -1.368081e+000 -1.500000e+002 -3.758770e+000
      vertex   0.000000e+000 -1.500000e+002 0.000000e+000
    endloop
  endfacet
  facet normal 0.000000e+000 -1.000000e+000 0.000000e+000
    outer loop
      vertex   -1.368081e+000 -1.500000e+002 -3.758770e+000
      vertex   2.266216e-015 -1.500000e+002 -4.000000e+000
      vertex   0.000000e+000 -1.500000e+002 0.000000e+000
    endloop
  endfacet
  facet normal 0.000000e+000 -1.000000e+000 0.000000e+000
    outer loop
      vertex   2.266216e-015 -1.500000e+002 -4.000000e+000
      vertex   1.368081e+000 -1.500000e+002 -3.758770e+000
      vertex   0.000000e+000 -1.500000e+002 0.000000e+000
    endloop
  endfacet
  facet normal 0.000000e+000 -1.000000e+000 0.000000e+000
    outer loop
      vertex   1.368081e+000 -1.500000e+002 -3.758770e+000
      vertex   2.571150e+000 -1.500000e+002 -3.064178e+000
      vertex   0.000000e+000 -1.500000e+002 0.000000e+000
    endloop
  endfacet
  facet normal 0.000000e+000 -1.000000e+000 0.000000e+000
    outer loop
      vertex   2.571150e+000 -1.500000e+002 -3.064178e+000
      vertex   3.464102e+000 -1.500000e+002 -2.000000e+000
      vertex   0.000000e+000 -1.500000e+002 0.000000e+000
    endloop
  endfacet
  facet normal 0.000000e+000 -1.000000e+000 0.000000e+000
    outer loop
      vertex   3.464102e+000 -1.500000e+002 -2.000000e+000
      vertex   3.939231e+000 -1.500000e+002 -6.945927e-001
      vertex   0.000000e+000 -1.500000e+002 0.000000e+000
    endloop
  endfacet
  facet normal 0.000000e+000 -1.000000e+000 0.000000e+000
    outer loop
      vertex   3.939231e+000 -1.500000e+002 -6.945927e-001
      vertex   3.939231e+000 -1.500000e+002 6.945927e-001
      vertex   0.000000e+000 -1.500000e+002 0.000000e+000
    endloop
  endfacet
  facet normal -0.000000e+000 -1.000000e+000 0.000000e+000
    outer loop
      vertex   3.939231e+000 -1.500000e+002 6.945927e-001
      vertex   3.464102e+000 -1.500000e+002 2.000000e+000
      vertex   0.000000e+000 -1.500000e+002 0.000000e+000
    endloop
  endfacet
  facet normal -0.000000e+000 -1.000000e+000 0.000000e+000
    outer loop
      vertex   3.464102e+000 -1.500000e+002 2.000000e+000
      vertex   2.571150e+000 -1.500000e+002 3.064178e+000
      vertex   0.000000e+000 -1.500000e+002 0.000000e+000
    endloop
  endfacet
  facet normal -0.000000e+000 -1.000000e+000 0.000000e+000
    outer loop
      vertex   2.571150e+000 -1.500000e+002 3.064178e+000
      vertex   1.368081e+000 -1.500000e+002 3.758770e+000
      vertex   0.000000e+000 -1.500000e+002 0.000000e+000
    endloop
  endfacet
  facet normal -0.000000e+000 -1.000000e+000 0.000000e+000
    outer loop
      vertex   1.368081e+000 -1.500000e+002 3.758770e+000
      vertex   -9.797174e-016 -1.500000e+002 4.000000e+000
      vertex   0.000000e+000 -1.500000e+002 0.000000e+000
    endloop
  endfacet
  facet normal 0.000000e+000 -1.000000e+000 -0.000000e+000
    outer loop
      vertex   -9.797174e-016 -1.500000e+002 4.000000e+000
      vertex   -1.368081e+000 -1.500000e+002 3.758770e+000
      vertex   0.000000e+000 -1.500000e+002 0.000000e+000
    endloop
  endfacet
  facet normal 4.558933e-002 -9.649215e-001 2.585499e-001
    outer loop
      vertex   0.000000e+000 -1.498660e+002 4.500000e+000
      vertex   -9.797174e-016 -1.500000e+002 4.000000e+000
      vertex   1.368081e+000 -1.500000e+002 3.758770e+000
    endloop
  endfacet
  facet normal 1.237240e-001 -7.016738e-001 7.016738e-001
    outer loop
      vertex   0.000000e+000 -1.495000e+002 4.866025e+000
      vertex   0.000000e+000 -1.498660e+002 4.500000e+000
      vertex   1.539091e+000 -1.498660e+002 4.228617e+000
    endloop
  endfacet
  facet normal 1.679009e-001 -2.551448e-001 9.522134e-001
    outer loop
      vertex   0.000000e+000 -1.490000e+002 5.000000e+000
      vertex   0.000000e+000 -1.495000e+002 4.866025e+000
      vertex   1.664279e+000 -1.495000e+002 4.572568e+000
    endloop
  endfacet
  facet normal 1.312692e-001 -9.649215e-001 2.273650e-001
    outer loop
      vertex   1.539091e+000 -1.498660e+002 4.228617e+000
      vertex   1.368081e+000 -1.500000e+002 3.758770e+000
      vertex   2.571150e+000 -1.500000e+002 3.064178e+000
    endloop
  endfacet
  facet normal 3.562491e-001 -7.016738e-001 6.170416e-001
    outer loop
      vertex   1.664279e+000 -1.495000e+002 4.572568e+000
      vertex   1.539091e+000 -1.498660e+002 4.228617e+000
      vertex   2.892544e+000 -1.498660e+002 3.447200e+000
    endloop
  endfacet
  facet normal 4.834514e-001 -2.551448e-001 8.373624e-001
    outer loop
      vertex   1.710101e+000 -1.490000e+002 4.698463e+000
      vertex   1.664279e+000 -1.495000e+002 4.572568e+000
      vertex   3.127821e+000 -1.495000e+002 3.727592e+000
    endloop
  endfacet
  facet normal 2.011162e-001 -9.649215e-001 1.687565e-001
    outer loop
      vertex   2.892544e+000 -1.498660e+002 3.447200e+000
      vertex   2.571150e+000 -1.500000e+002 3.064178e+000
      vertex   3.464102e+000 -1.500000e+002 2.000000e+000
    endloop
  endfacet
  facet normal 5.458054e-001 -7.016738e-001 4.579851e-001
    outer loop
      vertex   3.127821e+000 -1.495000e+002 3.727592e+000
      vertex   2.892544e+000 -1.498660e+002 3.447200e+000
      vertex   3.897114e+000 -1.498660e+002 2.250000e+000
    endloop
  endfacet
  facet normal 7.406906e-001 -2.551448e-001 6.215132e-001
    outer loop
      vertex   3.213938e+000 -1.490000e+002 3.830222e+000
      vertex   3.127821e+000 -1.495000e+002 3.727592e+000
      vertex   4.214102e+000 -1.495000e+002 2.433013e+000
    endloop
  endfacet
  facet normal 2.467055e-001 -9.649215e-001 8.979345e-002
    outer loop
      vertex   3.897114e+000 -1.498660e+002 2.250000e+000
      vertex   3.464102e+000 -1.500000e+002 2.000000e+000
      vertex   3.939231e+000 -1.500000e+002 6.945927e-001
    endloop
  endfacet
  facet normal 6.695294e-001 -7.016738e-001 2.436888e-001
    outer loop
      vertex   4.214102e+000 -1.495000e+002 2.433013e+000
      vertex   3.897114e+000 -1.498660e+002 2.250000e+000
      vertex   4.431635e+000 -1.498660e+002 7.814168e-001
    endloop
  endfacet
  facet normal 9.085915e-001 -2.551448e-001 3.307003e-001
    outer loop
      vertex   4.330127e+000 -1.490000e+002 2.500000e+000
      vertex   4.214102e+000 -1.495000e+002 2.433013e+000
      vertex   4.792100e+000 -1.495000e+002 8.449764e-001
    endloop
  endfacet
  facet normal 2.625385e-001 -9.649215e-001 1.680247e-016
    outer loop
      vertex   4.431635e+000 -1.498660e+002 7.814168e-001
      vertex   3.939231e+000 -1.500000e+002 6.945927e-001
      vertex   3.939231e+000 -1.500000e+002 -6.945927e-001
    endloop
  endfacet
  facet normal 7.124983e-001 -7.016738e-001 3.956320e-016
    outer loop
      vertex   4.792100e+000 -1.495000e+002 8.449764e-001
      vertex   4.431635e+000 -1.498660e+002 7.814168e-001
      vertex   4.431635e+000 -1.498660e+002 -7.814168e-001
    endloop
  endfacet
  facet normal 9.669029e-001 -2.551448e-001 4.997727e-016
    outer loop
      vertex   4.924039e+000 -1.490000e+002 8.682409e-001
      vertex   4.792100e+000 -1.495000e+002 8.449764e-001
      vertex   4.792100e+000 -1.495000e+002 -8.449764e-001
    endloop
  endfacet
  facet normal 2.467055e-001 -9.649215e-001 -8.979345e-002
    outer loop
      vertex   4.431635e+000 -1.498660e+002 -7.814168e-001
      vertex   3.939231e+000 -1.500000e+002 -6.945927e-001
      vertex   3.464102e+000 -1.500000e+002 -2.000000e+000
    endloop
  endfacet
  facet normal 6.695294e-001 -7.016738e-001 -2.436888e-001
    outer loop
      vertex   4.792100e+000 -1.495000e+002 -8.449764e-001
      vertex   4.431635e+000 -1.498660e+002 -7.814168e-001
      vertex   3.897114e+000 -1.498660e+002 -2.250000e+000
    endloop
  endfacet
  facet normal 9.085915e-001 -2.551448e-001 -3.307003e-001
    outer loop
      vertex   4.924039e+000 -1.490000e+002 -8.682409e-001
      vertex   4.792100e+000 -1.495000e+002 -8.449764e-001
      vertex   4.214102e+000 -1.495000e+002 -2.433013e+000
    endloop
  endfacet
  facet normal 2.011162e-001 -9.649215e-001 -1.687565e-001
    outer loop
      vertex   3.897114e+000 -1.498660e+002 -2.250000e+000
      vertex   3.464102e+000 -1.500000e+002 -2.000000e+000
      vertex   2.571150e+000 -1.500000e+002 -3.064178e+000
    endloop
  endfacet
  facet normal 5.458054e-001 -7.016738e-001 -4.579851e-001
    outer loop
      vertex   4.214102e+000 -1.495000e+002 -2.433013e+000
      vertex   3.897114e+000 -1.498660e+002 -2.250000e+000
      vertex   2.892544e+000 -1.498660e+002 -3.447200e+000
    endloop
  endfacet
  facet normal 7.406906e-001 -2.551448e-001 -6.215132e-001
    outer loop
      vertex   4.330127e+000 -1.490000e+002 -2.500000e+000
      vertex   4.214102e+000 -1.495000e+002 -2.433013e+000
      vertex   3.127821e+000 -1.495000e+002 -3.727592e+000
    endloop
  endfacet
  facet normal 1.312692e-001 -9.649215e-001 -2.273650e-001
    outer loop
      vertex   2.892544e+000 -1.498660e+002 -3.447200e+000
      vertex   2.571150e+000 -1.500000e+002 -3.064178e+000
      vertex   1.368081e+000 -1.500000e+002 -3.758770e+000
    endloop
  endfacet
  facet normal 3.562491e-001 -7.016738e-001 -6.170416e-001
    outer loop
      vertex   3.127821e+000 -1.495000e+002 -3.727592e+000
      vertex   2.892544e+000 -1.498660e+002 -3.447200e+000
      vertex   1.539091e+000 -1.498660e+002 -4.228617e+000
    endloop
  endfacet
  facet normal 4.834514e-001 -2.551448e-001 -8.373624e-001
    outer loop
      vertex   3.213938e+000 -1.490000e+002 -3.830222e+000
      vertex   3.127821e+000 -1.495000e+002 -3.727592e+000
      vertex   1.664279e+000 -1.495000e+002 -4.572568e+000
    endloop
  endfacet
  facet normal 4.558933e-002 -9.649215e-001 -2.585499e-001
    outer loop
      vertex   1.539091e+000 -1.498660e+002 -4.228617e+000
      vertex   1.368081e+000 -1.500000e+002 -3.758770e+000
      vertex   2.266216e-015 -1.500000e+002 -4.000000e+000
    endloop
  endfacet
  facet normal 1.237240e-001 -7.016738e-001 -7.016738e-001
    outer loop
      vertex   1.664279e+000 -1.495000e+002 -4.572568e+000
      vertex   1.539091e+000 -1.498660e+002 -4.228617e+000
      vertex   2.549493e-015 -1.498660e+002 -4.500000e+000
    endloop
  endfacet
  facet normal 1.679009e-001 -2.551448e-001 -9.522134e-001
    outer loop
      vertex   1.710101e+000 -1.490000e+002 -4.698463e+000
      vertex   1.664279e+000 -1.495000e+002 -4.572568e+000
      vertex   2.756866e-015 -1.495000e+002 -4.866025e+000
    endloop
  endfacet
  facet normal -4.558933e-002 -9.649215e-001 -2.585499e-001
    outer loop
      vertex   2.549493e-015 -1.498660e+002 -4.500000e+000
      vertex   2.266216e-015 -1.500000e+002 -4.000000e+000
      vertex   -1.368081e+000 -1.500000e+002 -3.758770e+000
    endloop
  endfacet
  facet normal -1.237240e-001 -7.016738e-001 -7.016738e-001
    outer loop
      vertex   2.756866e-015 -1.495000e+002 -4.866025e+000
      vertex   2.549493e-015 -1.498660e+002 -4.500000e+000
      vertex   -1.539091e+000 -1.498660e+002 -4.228617e+000
    endloop
  endfacet
  facet normal -1.679009e-001 -2.551448e-001 -9.522134e-001
    outer loop
      vertex   2.832769e-015 -1.490000e+002 -5.000000e+000
      vertex   2.756866e-015 -1.495000e+002 -4.866025e+000
      vertex   -1.664279e+000 -1.495000e+002 -4.572568e+000
    endloop
  endfacet
  facet normal -1.312692e-001 -9.649215e-001 -2.273650e-001
    outer loop
      vertex   -1.539091e+000 -1.498660e+002 -4.228617e+000
      vertex   -1.368081e+000 -1.500000e+002 -3.758770e+000
      vertex   -2.571150e+000 -1.500000e+002 -3.064178e+000
    endloop
  endfacet
  facet normal -3.562491e-001 -7.016738e-001 -6.170416e-001
    outer loop
      vertex   -1.664279e+000 -1.495000e+002 -4.572568e+000
      vertex   -1.539091e+000 -1.498660e+002 -4.228617e+000
      vertex   -2.892544e+000 -1.498660e+002 -3.447200e+000
    endloop
  endfacet
  facet normal -4.834514e-001 -2.551448e-001 -8.373624e-001
    outer loop
      vertex   -1.710101e+000 -1.490000e+002 -4.698463e+000
      vertex   -1.664279e+000 -1.495000e+002 -4.572568e+000
      vertex   -3.127821e+000 -1.495000e+002 -3.727592e+000
    endloop
  endfacet
  facet normal -2.011162e-001 -9.649215e-001 -1.687565e-001
    outer loop
      vertex   -2.892544e+000 -1.498660e+002 -3.447200e+000
      vertex   -2.571150e+000 -1.500000e+002 -3.064178e+000
      vertex   -3.464102e+000 -1.500000e+002 -2.000000e+000
    endloop
  endfacet
  facet normal -5.458054e-001 -7.016738e-001 -4.579851e-001
    outer loop
      vertex   -3.127821e+000 -1.495000e+002 -3.727592e+000
      vertex   -2.892544e+000 -1.498660e+002 -3.447200e+000
      vertex   -3.897114e+000 -1.498660e+002 -2.250000e+000
    endloop
  endfacet
  facet normal -7.406906e-001 -2.551448e-001 -6.215132e-001
    outer loop
      vertex   -3.213938e+000 -1.490000e+002 -3.830222e+000
      vertex   -3.127821e+000 -1.495000e+002 -3.727592e+000
      vertex   -4.214102e+000 -1.495000e+002 -2.433013e+000
    endloop
  endfacet
  facet normal -2.467055e-001 -9.649215e-001 -8.979345e-002
    outer loop
      vertex   -3.897114e+000 -1.498660e+002 -2.250000e+000
      vertex   -3.464102e+000 -1.500000e+002 -2.000000e+000
      vertex   -3.939231e+000 -1.500000e+002 -6.945927e-001
    endloop
  endfacet
  facet normal -6.695294e-001 -7.016738e-001 -2.436888e-001
    outer loop
      vertex   -4.214102e+000 -1.495000e+002 -2.433013e+000
      vertex   -3.897114e+000 -1.498660e+002 -2.250000e+000
      vertex   -4.431635e+000 -1.498660e+002 -7.814168e-001
    endloop
  endfacet
  facet normal -9.085915e-001 -2.551448e-001 -3.307003e-001
    outer loop
      vertex   -4.330127e+000 -1.490000e+002 -2.500000e+000
      vertex   -4.214102e+000 -1.495000e+002 -2.433013e+000
      vertex   -4.792100e+000 -1.495000e+002 -8.449764e-001
    endloop
  endfacet
  facet normal -2.625385e-001 -9.649215e-001 -1.680247e-016
    outer loop
      vertex   -4.431635e+000 -1.498660e+002 -7.814168e-001
      vertex   -3.939231e+000 -1.500000e+002 -6.945927e-001
      vertex   -3.939231e+000 -1.500000e+002 6.945927e-001
    endloop
  endfacet
  facet normal -7.124983e-001 -7.016738e-001 -3.956320e-016
    outer loop
      vertex   -4.792100e+000 -1.495000e+002 -8.449764e-001
      vertex   -4.431635e+000 -1.498660e+002 -7.814168e-001
      vertex   -4.431635e+000 -1.498660e+002 7.814168e-001
    endloop
  endfacet
  facet normal -9.669029e-001 -2.551448e-001 -4.997727e-016
    outer loop
      vertex   -4.924039e+000 -1.490000e+002 -8.682409e-001
      vertex   -4.792100e+000 -1.495000e+002 -8.449764e-001
      vertex   -4.792100e+000 -1.495000e+002 8.449764e-001
    endloop
  endfacet
  facet normal -2.467055e-001 -9.649215e-001 8.979345e-002
    outer loop
      vertex   -4.431635e+000 -1.498660e+002 7.814168e-001
      vertex   -3.939231e+000 -1.500000e+002 6.945927e-001
      vertex   -3.464102e+000 -1.500000e+002 2.000000e+000
    endloop
  endfacet
  facet normal -6.695294e-001 -7.016738e-001 2.436888e-001
    outer loop
      vertex   -4.792100e+000 -1.495000e+002 8.449764e-001
      vertex   -4.431635e+000 -1.498660e+002 7.814168e-001
      vertex   -3.897114e+000 -1.498660e+002 2.250000e+000
    endloop
  endfacet
  facet normal -9.085915e-001 -2.551448e-001 3.307003e-001
    outer loop
      vertex   -4.924039e+000 -1.490000e+002 8.682409e-001
      vertex   -4.792100e+000 -1.495000e+002 8.449764e-001
      vertex   -4.214102e+000 -1.495000e+002 2.433013e+000
    endloop
  endfacet
  facet normal -2.011162e-001 -9.649215e-001 1.687565e-001
    outer loop
      vertex   -3.897114e+000 -1.498660e+002 2.250000e+000
      vertex   -3.464102e+000 -1.500000e+002 2.000000e+000
      vertex   -2.571150e+000 -1.500000e+002 3.064178e+000
    endloop
  endfacet
  facet normal -5.458054e-001 -7.016738e-001 4.579851e-001
    outer loop
      vertex   -4.214102e+000 -1.495000e+002 2.433013e+000
      vertex   -3.897114e+000 -1.498660e+002 2.250000e+000
      vertex   -2.892544e+000 -1.498660e+002 3.447200e+000
    endloop
  endfacet
  facet normal -7.406906e-001 -2.551448e-001 6.215132e-001
    outer loop
      vertex   -4.330127e+000 -1.490000e+002 2.500000e+000
      vertex   -4.214102e+000 -1.495000e+002 2.433013e+000
      vertex   -3.127821e+000 -1.495000e+002 3.727592e+000
    endloop
  endfacet
  facet normal -1.312692e-001 -9.649215e-001 2.273650e-001
    outer loop
      vertex   -2.892544e+000 -1.498660e+002 3.447200e+000
      vertex   -2.571150e+000 -1.500000e+002 3.064178e+000
      vertex   -1.368081e+000 -1.500000e+002 3.758770e+000
    endloop
  endfacet
  facet normal -3.562491e-001 -7.016738e-001 6.170416e-001
    outer loop
      vertex   -3.127821e+000 -1.495000e+002 3.727592e+000
      vertex   -2.892544e+000 -1.498660e+002 3.447200e+000
      vertex   -1.539091e+000 -1.498660e+002 4.228617e+000
    endloop
  endfacet
  facet normal -4.834514e-001 -2.551448e-001 8.373624e-001
    outer loop
      vertex   -3.213938e+000 -1.490000e+002 3.830222e+000
      vertex   -3.127821e+000 -1.495000e+002 3.727592e+000
      vertex   -1.664279e+000 -1.495000e+002 4.572568e+000
    endloop
  endfacet
  facet normal -4.558933e-002 -9.649215e-001 2.585499e-001
    outer loop
      vertex   -1.539091e+000 -1.498660e+002 4.228617e+000
      vertex   -1.368081e+000 -1.500000e+002 3.758770e+000
      vertex   -9.797174e-016 -1.500000e+002 4.000000e+000
    endloop
  endfacet
  facet normal -1.237240e-001 -7.016738e-001 7.016738e-001
    outer loop
      vertex   -1.664279e+000 -1.495000e+002 4.572568e+000
      vertex   -1.539091e+000 -1.498660e+002 4.228617e+000
      vertex   0.000000e+000 -1.498660e+002 4.500000e+000
    endloop
  endfacet
  facet normal -1.679009e-001 -2.551448e-001 9.522134e-001
    outer loop
      vertex   -1.710101e+000 -1.490000e+002 4.698463e+000
      vertex   -1.664279e+000 -1.495000e+002 4.572568e+000
      vertex   0.000000e+000 -1.495000e+002 4.866025e+000
    endloop
  endfacet
  facet normal -1.679009e-001 -2.551448e-001 9.522134e-001
    outer loop
      vertex   0.000000e+000 -1.495000e+002 4.866025e+000
      vertex   0.000000e+000 -1.490000e+002 5.000000e+000
      vertex   -1.710101e+000 -1.490000e+002 4.698463e+000
    endloop
  endfacet
  facet normal -1.237240e-001 -7.016738e-001 7.016738e-001
    outer loop
      vertex   0.000000e+000 -1.498660e+002 4.500000e+000
      vertex   0.000000e+000 -1.495000e+002 4.866025e+000
      vertex   -1.664279e+000 -1.495000e+002 4.572568e+000
    endloop
  endfacet
  facet normal -4.558933e-002 -9.649215e-001 2.585499e-001
    outer loop
      vertex   -9.797174e-016 -1.500000e+002 4.000000e+000
      vertex   0.000000e+000 -1.498660e+002 4.500000e+000
      vertex   -1.539091e+000 -1.498660e+002 4.228617e+000
    endloop
  endfacet
  facet normal -4.834514e-001 -2.551448e-001 8.373624e-001
    outer loop
      vertex   -1.664279e+000 -1.495000e+002 4.572568e+000
      vertex   -1.710101e+000 -1.490000e+002 4.698463e+000
      vertex   -3.213938e+000 -1.490000e+002 3.830222e+000
    endloop
  endfacet
  facet normal -3.562491e-001 -7.016738e-001 6.170416e-001
    outer loop
      vertex   -1.539091e+000 -1.498660e+002 4.228617e+000
      vertex   -1.664279e+000 -1.495000e+002 4.572568e+000
      vertex   -3.127821e+000 -1.495000e+002 3.727592e+000
    endloop
  endfacet
  facet normal -1.312692e-001 -9.649215e-001 2.273650e-001
    outer loop
      vertex   -1.368081e+000 -1.500000e+002 3.758770e+000
      vertex   -1.539091e+000 -1.498660e+002 4.228617e+000
      vertex   -2.892544e+000 -1.498660e+002 3.447200e+000
    endloop
  endfacet
  facet normal -7.406906e-001 -2.551448e-001 6.215132e-001
    outer loop
      vertex   -3.127821e+000 -1.495000e+002 3.727592e+000
      vertex   -3.213938e+000 -1.490000e+002 3.830222e+000
      vertex   -4.330127e+000 -1.490000e+002 2.500000e+000
    endloop
  endfacet
  facet normal -5.458054e-001 -7.016738e-001 4.579851e-001
    outer loop
      vertex   -2.892544e+000 -1.498660e+002 3.447200e+000
      vertex   -3.127821e+000 -1.495000e+002 3.727592e+000
      vertex   -4.214102e+000 -1.495000e+002 2.433013e+000
    endloop
  endfacet
  facet normal -2.011162e-001 -9.649215e-001 1.687565e-001
    outer loop
      vertex   -2.571150e+000 -1.500000e+002 3.064178e+000
      vertex   -2.892544e+000 -1.498660e+002 3.447200e+000
      vertex   -3.897114e+000 -1.498660e+002 2.250000e+000
    endloop
  endfacet
  facet normal -9.085915e-001 -2.551448e-001 3.307003e-001
    outer loop
      vertex   -4.214102e+000 -1.495000e+002 2.433013e+000
      vertex   -4.330127e+000 -1.490000e+002 2.500000e+000
      vertex   -4.924039e+000 -1.490000e+002 8.682409e-001
    endloop
  endfacet
  facet normal -6.695294e-001 -7.016738e-001 2.436888e-001
    outer loop
      vertex   -3.897114e+000 -1.498660e+002 2.250000e+000
      vertex   -4.214102e+000 -1.495000e+002 2.433013e+000
      vertex   -4.792100e+000 -1.495000e+002 8.449764e-001
    endloop
  endfacet
  facet normal -2.467055e-001 -9.649215e-001 8.979345e-002
    outer loop
      vertex   -3.464102e+000 -1.500000e+002 2.000000e+000
      vertex   -3.897114e+000 -1.498660e+002 2.250000e+000
      vertex   -4.431635e+000 -1.498660e+002 7.814168e-001
    endloop
  endfacet
  facet normal -9.669029e-001 -2.551448e-001 -4.863813e-016
    outer loop
      vertex   -4.792100e+000 -1.495000e+002 8.449764e-001
      vertex   -4.924039e+000 -1.490000e+002 8.682409e-001
      vertex   -4.924039e+000 -1.490000e+002 -8.682409e-001
    endloop
  endfacet
  facet normal -7.124983e-001 -7.016738e-001 -3.658723e-016
    outer loop
      vertex   -4.431635e+000 -1.498660e+002 7.814168e-001
      vertex   -4.792100e+000 -1.495000e+002 8.449764e-001
      vertex   -4.792100e+000 -1.495000e+002 -8.449764e-001
    endloop
  endfacet
  facet normal -2.625385e-001 -9.649215e-001 -1.493553e-016
    outer loop
      vertex   -3.939231e+000 -1.500000e+002 6.945927e-001
      vertex   -4.431635e+000 -1.498660e+002 7.814168e-001
      vertex   -4.431635e+000 -1.498660e+002 -7.814168e-001
    endloop
  endfacet
  facet normal -9.085915e-001 -2.551448e-001 -3.307003e-001
    outer loop
      vertex   -4.792100e+000 -1.495000e+002 -8.449764e-001
      vertex   -4.924039e+000 -1.490000e+002 -8.682409e-001
      vertex   -4.330127e+000 -1.490000e+002 -2.500000e+000
    endloop
  endfacet
  facet normal -6.695294e-001 -7.016738e-001 -2.436888e-001
    outer loop
      vertex   -4.431635e+000 -1.498660e+002 -7.814168e-001
      vertex   -4.792100e+000 -1.495000e+002 -8.449764e-001
      vertex   -4.214102e+000 -1.495000e+002 -2.433013e+000
    endloop
  endfacet
  facet normal -2.467055e-001 -9.649215e-001 -8.979345e-002
    outer loop
      vertex   -3.939231e+000 -1.500000e+002 -6.945927e-001
      vertex   -4.431635e+000 -1.498660e+002 -7.814168e-001
      vertex   -3.897114e+000 -1.498660e+002 -2.250000e+000
    endloop
  endfacet
  facet normal -7.406906e-001 -2.551448e-001 -6.215132e-001
    outer loop
      vertex   -4.214102e+000 -1.495000e+002 -2.433013e+000
      vertex   -4.330127e+000 -1.490000e+002 -2.500000e+000
      vertex   -3.213938e+000 -1.490000e+002 -3.830222e+000
    endloop
  endfacet
  facet normal -5.458054e-001 -7.016738e-001 -4.579851e-001
    outer loop
      vertex   -3.897114e+000 -1.498660e+002 -2.250000e+000
      vertex   -4.214102e+000 -1.495000e+002 -2.433013e+000
      vertex   -3.127821e+000 -1.495000e+002 -3.727592e+000
    endloop
  endfacet
  facet normal -2.011162e-001 -9.649215e-001 -1.687565e-001
    outer loop
      vertex   -3.464102e+000 -1.500000e+002 -2.000000e+000
      vertex   -3.897114e+000 -1.498660e+002 -2.250000e+000
      vertex   -2.892544e+000 -1.498660e+002 -3.447200e+000
    endloop
  endfacet
  facet normal -4.834514e-001 -2.551448e-001 -8.373624e-001
    outer loop
      vertex   -3.127821e+000 -1.495000e+002 -3.727592e+000
      vertex   -3.213938e+000 -1.490000e+002 -3.830222e+000
      vertex   -1.710101e+000 -1.490000e+002 -4.698463e+000
    endloop
  endfacet
  facet normal -3.562491e-001 -7.016738e-001 -6.170416e-001
    outer loop
      vertex   -2.892544e+000 -1.498660e+002 -3.447200e+000
      vertex   -3.127821e+000 -1.495000e+002 -3.727592e+000
      vertex   -1.664279e+000 -1.495000e+002 -4.572568e+000
    endloop
  endfacet
  facet normal -1.312692e-001 -9.649215e-001 -2.273650e-001
    outer loop
      vertex   -2.571150e+000 -1.500000e+002 -3.064178e+000
      vertex   -2.892544e+000 -1.498660e+002 -3.447200e+000
      vertex   -1.539091e+000 -1.498660e+002 -4.228617e+000
    endloop
  endfacet
  facet normal -1.679009e-001 -2.551448e-001 -9.522134e-001
    outer loop
      vertex   -1.664279e+000 -1.495000e+002 -4.572568e+000
      vertex   -1.710101e+000 -1.490000e+002 -4.698463e+000
      vertex   2.832769e-015 -1.490000e+002 -5.000000e+000
    endloop
  endfacet
  facet normal -1.237240e-001 -7.016738e-001 -7.016738e-001
    outer loop
      vertex   -1.539091e+000 -1.498660e+002 -4.228617e+000
      vertex   -1.664279e+000 -1.495000e+002 -4.572568e+000
      vertex   2.756866e-015 -1.495000e+002 -4.866025e+000
    endloop
  endfacet
  facet normal -4.558933e-002 -9.649215e-001 -2.585499e-001
    outer loop
      vertex   -1.368081e+000 -1.500000e+002 -3.758770e+000
      vertex   -1.539091e+000 -1.498660e+002 -4.228617e+000
      vertex   2.549493e-015 -1.498660e+002 -4.500000e+000
    endloop
  endfacet
  facet normal 1.679009e-001 -2.551448e-001 -9.522134e-001
    outer loop
      vertex   2.756866e-015 -1.495000e+002 -4.866025e+000
      vertex   2.832769e-015 -1.490000e+002 -5.000000e+000
      vertex   1.710101e+000 -1.490000e+002 -4.698463e+000
    endloop
  endfacet
  facet normal 1.237240e-001 -7.016738e-001 -7.016738e-001
    outer loop
      vertex   2.549493e-015 -1.498660e+002 -4.500000e+000
      vertex   2.756866e-015 -1.495000e+002 -4.866025e+000
      vertex   1.664279e+000 -1.495000e+002 -4.572568e+000
    endloop
  endfacet
  facet normal 4.558933e-002 -9.649215e-001 -2.585499e-001
    outer loop
      vertex   2.266216e-015 -1.500000e+002 -4.000000e+000
      vertex   2.549493e-015 -1.498660e+002 -4.500000e+000
      vertex   1.539091e+000 -1.498660e+002 -4.228617e+000
    endloop
  endfacet
  facet normal 4.834514e-001 -2.551448e-001 -8.373624e-001
    outer loop
      vertex   1.664279e+000 -1.495000e+002 -4.572568e+000
      vertex   1.710101e+000 -1.490000e+002 -4.698463e+000
      vertex   3.213938e+000 -1.490000e+002 -3.830222e+000
    endloop
  endfacet
  facet normal 3.562491e-001 -7.016738e-001 -6.170416e-001
    outer loop
      vertex   1.539091e+000 -1.498660e+002 -4.228617e+000
      vertex   1.664279e+000 -1.495000e+002 -4.572568e+000
      vertex   3.127821e+000 -1.495000e+002 -3.727592e+000
    endloop
  endfacet
  facet normal 1.312692e-001 -9.649215e-001 -2.273650e-001
    outer loop
      vertex   1.368081e+000 -1.500000e+002 -3.758770e+000
      vertex   1.539091e+000 -1.498660e+002 -4.228617e+000
      vertex   2.892544e+000 -1.498660e+002 -3.447200e+000
    endloop
  endfacet
  facet normal 7.406906e-001 -2.551448e-001 -6.215132e-001
    outer loop
      vertex   3.127821e+000 -1.495000e+002 -3.727592e+000
      vertex   3.213938e+000 -1.490000e+002 -3.830222e+000
      vertex   4.330127e+000 -1.490000e+002 -2.500000e+000
    endloop
  endfacet
  facet normal 5.458054e-001 -7.016738e-001 -4.579851e-001
    outer loop
      vertex   2.892544e+000 -1.498660e+002 -3.447200e+000
      vertex   3.127821e+000 -1.495000e+002 -3.727592e+000
      vertex   4.214102e+000 -1.495000e+002 -2.433013e+000
    endloop
  endfacet
  facet normal 2.011162e-001 -9.649215e-001 -1.687565e-001
    outer loop
      vertex   2.571150e+000 -1.500000e+002 -3.064178e+000
      vertex   2.892544e+000 -1.498660e+002 -3.447200e+000
      vertex   3.897114e+000 -1.498660e+002 -2.250000e+000
    endloop
  endfacet
  facet normal 9.085915e-001 -2.551448e-001 -3.307003e-001
    outer loop
      vertex   4.214102e+000 -1.495000e+002 -2.433013e+000
      vertex   4.330127e+000 -1.490000e+002 -2.500000e+000
      vertex   4.924039e+000 -1.490000e+002 -8.682409e-001
    endloop
  endfacet
  facet normal 6.695294e-001 -7.016738e-001 -2.436888e-001
    outer loop
      vertex   3.897114e+000 -1.498660e+002 -2.250000e+000
      vertex   4.214102e+000 -1.495000e+002 -2.433013e+000
      vertex   4.792100e+000 -1.495000e+002 -8.449764e-001
    endloop
  endfacet
  facet normal 2.467055e-001 -9.649215e-001 -8.979345e-002
    outer loop
      vertex   3.464102e+000 -1.500000e+002 -2.000000e+000
      vertex   3.897114e+000 -1.498660e+002 -2.250000e+000
      vertex   4.431635e+000 -1.498660e+002 -7.814168e-001
    endloop
  endfacet
  facet normal 9.669029e-001 -2.551448e-001 4.863813e-016
    outer loop
      vertex   4.792100e+000 -1.495000e+002 -8.449764e-001
      vertex   4.924039e+000 -1.490000e+002 -8.682409e-001
      vertex   4.924039e+000 -1.490000e+002 8.682409e-001
    endloop
  endfacet
  facet normal 7.124983e-001 -7.016738e-001 3.658723e-016
    outer loop
      vertex   4.431635e+000 -1.498660e+002 -7.814168e-001
      vertex   4.792100e+000 -1.495000e+002 -8.449764e-001
      vertex   4.792100e+000 -1.495000e+002 8.449764e-001
    endloop
  endfacet
  facet normal 2.625385e-001 -9.649215e-001 1.493553e-016
    outer loop
      vertex   3.939231e+000 -1.500000e+002 -6.945927e-001
      vertex   4.431635e+000 -1.498660e+002 -7.814168e-001
      vertex   4.431635e+000 -1.498660e+002 7.814168e-001
    endloop
  endfacet
  facet normal 9.085915e-001 -2.551448e-001 3.307003e-001
    outer loop
      vertex   4.792100e+000 -1.495000e+002 8.449764e-001
      vertex   4.924039e+000 -1.490000e+002 8.682409e-001
      vertex   4.330127e+000 -1.490000e+002 2.500000e+000
    endloop
  endfacet
  facet normal 6.695294e-001 -7.016738e-001 2.436888e-001
    outer loop
      vertex   4.431635e+000 -1.498660e+002 7.814168e-001
      vertex   4.792100e+000 -1.495000e+002 8.449764e-001
      vertex   4.214102e+000 -1.495000e+002 2.433013e+000
    endloop
  endfacet
  facet normal 2.467055e-001 -9.649215e-001 8.979345e-002
    outer loop
      vertex   3.939231e+000 -1.500000e+002 6.945927e-001
      vertex   4.431635e+000 -1.498660e+002 7.814168e-001
      vertex   3.897114e+000 -1.498660e+002 2.250000e+000
    endloop
  endfacet
  facet normal 7.406906e-001 -2.551448e-001 6.215132e-001
    outer loop
      vertex   4.214102e+000 -1.495000e+002 2.433013e+000
      vertex   4.330127e+000 -1.490000e+002 2.500000e+000
      vertex   3.213938e+000 -1.490000e+002 3.830222e+000
    endloop
  endfacet
  facet normal 5.458054e-001 -7.016738e-001 4.579851e-001
    outer loop
      vertex   3.897114e+000 -1.498660e+002 2.250000e+000
      vertex   4.214102e+000 -1.495000e+002 2.433013e+000
      vertex   3.127821e+000 -1.495000e+002 3.727592e+000
    endloop
  endfacet
  facet normal 2.011162e-001 -9.649215e-001 1.687565e-001
    outer loop
      vertex   3.464102e+000 -1.500000e+002 2.000000e+000
      vertex   3.897114e+000 -1.498660e+002 2.250000e+000
      vertex   2.892544e+000 -1.498660e+002 3.447200e+000
    endloop
  endfacet
  facet normal 4.834514e-001 -2.551448e-001 8.373624e-001
    outer loop
      vertex   3.127821e+000 -1.495000e+002 3.727592e+000
      vertex   3.213938e+000 -1.490000e+002 3.830222e+000
      vertex   1.710101e+000 -1.490000e+002 4.698463e+000
    endloop
  endfacet
  facet normal 3.562491e-001 -7.016738e-001 6.170416e-001
    outer loop
      vertex   2.892544e+000 -1.498660e+002 3.447200e+000
      vertex   3.127821e+000 -1.495000e+002 3.727592e+000
      vertex   1.664279e+000 -1.495000e+002 4.572568e+000
    endloop
  endfacet
  facet normal 1.312692e-001 -9.649215e-001 2.273650e-001
    outer loop
      vertex   2.571150e+000 -1.500000e+002 3.064178e+000
      vertex   2.892544e+000 -1.498660e+002 3.447200e+000
      vertex   1.539091e+000 -1.498660e+002 4.228617e+000
    endloop
  endfacet
  facet normal 1.679009e-001 -2.551448e-001 9.522134e-001
    outer loop
      vertex   1.664279e+000 -1.495000e+002 4.572568e+000
      vertex   1.710101e+000 -1.490000e+002 4.698463e+000
      vertex   0.000000e+000 -1.490000e+002 5.000000e+000
    endloop
  endfacet
  facet normal 1.237240e-001 -7.016738e-001 7.016738e-001
    outer loop
      vertex   1.539091e+000 -1.498660e+002 4.228617e+000
      vertex   1.664279e+000 -1.495000e+002 4.572568e+000
      vertex   0.000000e+000 -1.495000e+002 4.866025e+000
    endloop
  endfacet
  facet normal 4.558933e-002 -9.649215e-001 2.585499e-001
    outer loop
      vertex   1.368081e+000 -1.500000e+002 3.758770e+000
      vertex   1.539091e+000 -1.498660e+002 4.228617e+000
      vertex   0.000000e+000 -1.498660e+002 4.500000e+000
    endloop
  endfacet
  facet normal 5.000000e-001 0.000000e+000 8.660254e-001
    outer loop
      vertex   3.213938e+000 1.490000e+002 3.830222e+000
      vertex   1.710101e+000 1.490000e+002 4.698463e+000
      vertex   1.710101e+000 -1.490000e+002 4.698463e+000
    endloop
  endfacet
  facet normal 1.736482e-001 0.000000e+000 9.848078e-001
    outer loop
      vertex   0.000000e+000 -1.490000e+002 5.000000e+000
      vertex   1.710101e+000 -1.490000e+002 4.698463e+000
      vertex   1.710101e+000 1.490000e+002 4.698463e+000
    endloop
  endfacet
  facet normal 1.736482e-001 8.184343e-019 9.848078e-001
    outer loop
      vertex   1.710101e+000 1.490000e+002 4.698463e+000
      vertex   -1.224647e-015 1.490000e+002 5.000000e+000
      vertex   0.000000e+000 -1.490000e+002 5.000000e+000
    endloop
  endfacet
  facet normal 9.396926e-001 0.000000e+000 3.420201e-001
    outer loop
      vertex   4.924039e+000 1.490000e+002 8.682409e-001
      vertex   4.330127e+000 1.490000e+002 2.500000e+000
      vertex   4.330127e+000 -1.490000e+002 2.500000e+000
    endloop
  endfacet
  facet normal 7.660444e-001 0.000000e+000 6.427876e-001
    outer loop
      vertex   3.213938e+000 -1.490000e+002 3.830222e+000
      vertex   4.330127e+000 -1.490000e+002 2.500000e+000
      vertex   4.330127e+000 1.490000e+002 2.500000e+000
    endloop
  endfacet
  facet normal 7.660444e-001 0.000000e+000 6.427876e-001
    outer loop
      vertex   4.330127e+000 1.490000e+002 2.500000e+000
      vertex   3.213938e+000 1.490000e+002 3.830222e+000
      vertex   3.213938e+000 -1.490000e+002 3.830222e+000
    endloop
  endfacet
  facet normal 9.396926e-001 0.000000e+000 -3.420201e-001
    outer loop
      vertex   4.330127e+000 1.490000e+002 -2.500000e+000
      vertex   4.924039e+000 1.490000e+002 -8.682409e-001
      vertex   4.924039e+000 -1.490000e+002 -8.682409e-001
    endloop
  endfacet
  facet normal 1.000000e+000 0.000000e+000 4.994937e-016
    outer loop
      vertex   4.924039e+000 -1.490000e+002 8.682409e-001
      vertex   4.924039e+000 -1.490000e+002 -8.682409e-001
      vertex   4.924039e+000 1.490000e+002 -8.682409e-001
    endloop
  endfacet
  facet normal 1.000000e+000 0.000000e+000 4.994937e-016
    outer loop
      vertex   4.924039e+000 1.490000e+002 -8.682409e-001
      vertex   4.924039e+000 1.490000e+002 8.682409e-001
      vertex   4.924039e+000 -1.490000e+002 8.682409e-001
    endloop
  endfacet
  facet normal 5.000000e-001 0.000000e+000 -8.660254e-001
    outer loop
      vertex   1.710101e+000 1.490000e+002 -4.698463e+000
      vertex   3.213938e+000 1.490000e+002 -3.830222e+000
      vertex   3.213938e+000 -1.490000e+002 -3.830222e+000
    endloop
  endfacet
  facet normal 7.660444e-001 0.000000e+000 -6.427876e-001
    outer loop
      vertex   4.330127e+000 -1.490000e+002 -2.500000e+000
      vertex   3.213938e+000 -1.490000e+002 -3.830222e+000
      vertex   3.213938e+000 1.490000e+002 -3.830222e+000
    endloop
  endfacet
  facet normal 7.660444e-001 0.000000e+000 -6.427876e-001
    outer loop
      vertex   3.213938e+000 1.490000e+002 -3.830222e+000
      vertex   4.330127e+000 1.490000e+002 -2.500000e+000
      vertex   4.330127e+000 -1.490000e+002 -2.500000e+000
    endloop
  endfacet
  facet normal -1.736482e-001 0.000000e+000 -9.848078e-001
    outer loop
      vertex   -1.710101e+000 1.490000e+002 -4.698463e+000
      vertex   2.832769e-015 1.490000e+002 -5.000000e+000
      vertex   2.832769e-015 -1.490000e+002 -5.000000e+000
    endloop
  endfacet
  facet normal 1.736482e-001 0.000000e+000 -9.848078e-001
    outer loop
      vertex   1.710101e+000 -1.490000e+002 -4.698463e+000
      vertex   2.832769e-015 -1.490000e+002 -5.000000e+000
      vertex   2.832769e-015 1.490000e+002 -5.000000e+000
    endloop
  endfacet
  facet normal 1.736482e-001 0.000000e+000 -9.848078e-001
    outer loop
      vertex   2.832769e-015 1.490000e+002 -5.000000e+000
      vertex   1.710101e+000 1.490000e+002 -4.698463e+000
      vertex   1.710101e+000 -1.490000e+002 -4.698463e+000
    endloop
  endfacet
  facet normal -7.660444e-001 0.000000e+000 -6.427876e-001
    outer loop
      vertex   -4.330127e+000 1.490000e+002 -2.500000e+000
      vertex   -3.213938e+000 1.490000e+002 -3.830222e+000
      vertex   -3.213938e+000 -1.490000e+002 -3.830222e+000
    endloop
  endfacet
  facet normal -5.000000e-001 0.000000e+000 -8.660254e-001
    outer loop
      vertex   -1.710101e+000 -1.490000e+002 -4.698463e+000
      vertex   -3.213938e+000 -1.490000e+002 -3.830222e+000
      vertex   -3.213938e+000 1.490000e+002 -3.830222e+000
    endloop
  endfacet
  facet normal -5.000000e-001 0.000000e+000 -8.660254e-001
    outer loop
      vertex   -3.213938e+000 1.490000e+002 -3.830222e+000
      vertex   -1.710101e+000 1.490000e+002 -4.698463e+000
      vertex   -1.710101e+000 -1.490000e+002 -4.698463e+000
    endloop
  endfacet
  facet normal -1.000000e+000 0.000000e+000 -4.994937e-016
    outer loop
      vertex   -4.924039e+000 1.490000e+002 8.682409e-001
      vertex   -4.924039e+000 1.490000e+002 -8.682409e-001
      vertex   -4.924039e+000 -1.490000e+002 -8.682409e-001
    endloop
  endfacet
  facet normal -9.396926e-001 0.000000e+000 -3.420201e-001
    outer loop
      vertex   -4.330127e+000 -1.490000e+002 -2.500000e+000
      vertex   -4.924039e+000 -1.490000e+002 -8.682409e-001
      vertex   -4.924039e+000 1.490000e+002 -8.682409e-001
    endloop
  endfacet
  facet normal -9.396926e-001 0.000000e+000 -3.420201e-001
    outer loop
      vertex   -4.924039e+000 1.490000e+002 -8.682409e-001
      vertex   -4.330127e+000 1.490000e+002 -2.500000e+000
      vertex   -4.330127e+000 -1.490000e+002 -2.500000e+000
    endloop
  endfacet
  facet normal -7.660444e-001 0.000000e+000 6.427876e-001
    outer loop
      vertex   -3.213938e+000 1.490000e+002 3.830222e+000
      vertex   -4.330127e+000 1.490000e+002 2.500000e+000
      vertex   -4.330127e+000 -1.490000e+002 2.500000e+000
    endloop
  endfacet
  facet normal -9.396926e-001 0.000000e+000 3.420201e-001
    outer loop
      vertex   -4.924039e+000 -1.490000e+002 8.682409e-001
      vertex   -4.330127e+000 -1.490000e+002 2.500000e+000
      vertex   -4.330127e+000 1.490000e+002 2.500000e+000
    endloop
  endfacet
  facet normal -9.396926e-001 0.000000e+000 3.420201e-001
    outer loop
      vertex   -4.330127e+000 1.490000e+002 2.500000e+000
      vertex   -4.924039e+000 1.490000e+002 8.682409e-001
      vertex   -4.924039e+000 -1.490000e+002 8.682409e-001
    endloop
  endfacet
  facet normal -1.736482e-001 0.000000e+000 9.848078e-001
    outer loop
      vertex   -1.224647e-015 1.490000e+002 5.000000e+000
      vertex   -1.710101e+000 1.490000e+002 4.698463e+000
      vertex   -1.710101e+000 -1.490000e+002 4.698463e+000
    endloop
  endfacet
  facet normal -5.000000e-001 0.000000e+000 8.660254e-001
    outer loop
      vertex   -3.213938e+000 -1.490000e+002 3.830222e+000
      vertex   -1.710101e+000 -1.490000e+002 4.698463e+000
      vertex   -1.710101e+000 1.490000e+002 4.698463e+000
    endloop
  endfacet
  facet normal -5.000000e-001 0.000000e+000 8.660254e-001
    outer loop
      vertex   -1.710101e+000 1.490000e+002 4.698463e+000
      vertex   -3.213938e+000 1.490000e+002 3.830222e+000
      vertex   -3.213938e+000 -1.490000e+002 3.830222e+000
    endloop
  endfacet
  facet normal -1.736482e-001 -6.138257e-019 9.848078e-001
    outer loop
      vertex   -1.710101e+000 -1.490000e+002 4.698463e+000
      vertex   0.000000e+000 -1.490000e+002 5.000000e+000
      vertex   -1.224647e-015 1.490000e+002 5.000000e+000
    endloop
  endfacet
  facet normal -7.660444e-001 0.000000e+000 6.427876e-001
    outer loop
      vertex   -4.330127e+000 -1.490000e+002 2.500000e+000
      vertex   -3.213938e+000 -1.490000e+002 3.830222e+000
      vertex   -3.213938e+000 1.490000e+002 3.830222e+000
    endloop
  endfacet
  facet normal -1.000000e+000 0.000000e+000 -4.994937e-016
    outer loop
      vertex   -4.924039e+000 -1.490000e+002 -8.682409e-001
      vertex   -4.924039e+000 -1.490000e+002 8.682409e-001
      vertex   -4.924039e+000 1.490000e+002 8.682409e-001
    endloop
  endfacet
  facet normal -7.660444e-001 0.000000e+000 -6.427876e-001
    outer loop
      vertex   -3.213938e+000 -1.490000e+002 -3.830222e+000
      vertex   -4.330127e+000 -1.490000e+002 -2.500000e+000
      vertex   -4.330127e+000 1.490000e+002 -2.500000e+000
    endloop
  endfacet
  facet normal -1.736482e-001 0.000000e+000 -9.848078e-001
    outer loop
      vertex   2.832769e-015 -1.490000e+002 -5.000000e+000
      vertex   -1.710101e+000 -1.490000e+002 -4.698463e+000
      vertex   -1.710101e+000 1.490000e+002 -4.698463e+000
    endloop
  endfacet
  facet normal 5.000000e-001 0.000000e+000 -8.660254e-001
    outer loop
      vertex   3.213938e+000 -1.490000e+002 -3.830222e+000
      vertex   1.710101e+000 -1.490000e+002 -4.698463e+000
      vertex   1.710101e+000 1.490000e+002 -4.698463e+000
    endloop
  endfacet
  facet normal 9.396926e-001 0.000000e+000 -3.420201e-001
    outer loop
      vertex   4.924039e+000 -1.490000e+002 -8.682409e-001
      vertex   4.330127e+000 -1.490000e+002 -2.500000e+000
      vertex   4.330127e+000 1.490000e+002 -2.500000e+000
    endloop
  endfacet
  facet normal 9.396926e-001 0.000000e+000 3.420201e-001
    outer loop
      vertex   4.330127e+000 -1.490000e+002 2.500000e+000
      vertex   4.924039e+000 -1.490000e+002 8.682409e-001
      vertex   4.924039e+000 1.490000e+002 8.682409e-001
    endloop
  endfacet
  facet normal 5.000000e-001 0.000000e+000 8.660254e-001
    outer loop
      vertex   1.710101e+000 -1.490000e+002 4.698463e+000
      vertex   3.213938e+000 -1.490000e+002 3.830222e+000
      vertex   3.213938e+000 1.490000e+002 3.830222e+000
    endloop
  endfacet
  facet normal 1.679009e-001 2.551448e-001 9.522134e-001
    outer loop
      vertex   0.000000e+000 1.495000e+002 4.866025e+000
      vertex   -1.224647e-015 1.490000e+002 5.000000e+000
      vertex   1.710101e+000 1.490000e+002 4.698463e+000
    endloop
  endfacet
  facet normal 1.237240e-001 7.016738e-001 7.016738e-001
    outer loop
      vertex   0.000000e+000 1.498660e+002 4.500000e+000
      vertex   0.000000e+000 1.495000e+002 4.866025e+000
      vertex   1.664279e+000 1.495000e+002 4.572568e+000
    endloop
  endfacet
  facet normal 4.558933e-002 9.649215e-001 2.585499e-001
    outer loop
      vertex   0.000000e+000 1.500000e+002 4.000000e+000
      vertex   0.000000e+000 1.498660e+002 4.500000e+000
      vertex   1.539091e+000 1.498660e+002 4.228617e+000
    endloop
  endfacet
  facet normal 4.834514e-001 2.551448e-001 8.373624e-001
    outer loop
      vertex   1.664279e+000 1.495000e+002 4.572568e+000
      vertex   1.710101e+000 1.490000e+002 4.698463e+000
      vertex   3.213938e+000 1.490000e+002 3.830222e+000
    endloop
  endfacet
  facet normal 3.562491e-001 7.016738e-001 6.170416e-001
    outer loop
      vertex   1.539091e+000 1.498660e+002 4.228617e+000
      vertex   1.664279e+000 1.495000e+002 4.572568e+000
      vertex   3.127821e+000 1.495000e+002 3.727592e+000
    endloop
  endfacet
  facet normal 1.312692e-001 9.649215e-001 2.273650e-001
    outer loop
      vertex   1.368081e+000 1.500000e+002 3.758770e+000
      vertex   1.539091e+000 1.498660e+002 4.228617e+000
      vertex   2.892544e+000 1.498660e+002 3.447200e+000
    endloop
  endfacet
  facet normal 7.406906e-001 2.551448e-001 6.215132e-001
    outer loop
      vertex   3.127821e+000 1.495000e+002 3.727592e+000
      vertex   3.213938e+000 1.490000e+002 3.830222e+000
      vertex   4.330127e+000 1.490000e+002 2.500000e+000
    endloop
  endfacet
  facet normal 5.458054e-001 7.016738e-001 4.579851e-001
    outer loop
      vertex   2.892544e+000 1.498660e+002 3.447200e+000
      vertex   3.127821e+000 1.495000e+002 3.727592e+000
      vertex   4.214102e+000 1.495000e+002 2.433013e+000
    endloop
  endfacet
  facet normal 2.011162e-001 9.649215e-001 1.687565e-001
    outer loop
      vertex   2.571150e+000 1.500000e+002 3.064178e+000
      vertex   2.892544e+000 1.498660e+002 3.447200e+000
      vertex   3.897114e+000 1.498660e+002 2.250000e+000
    endloop
  endfacet
  facet normal 9.085915e-001 2.551448e-001 3.307003e-001
    outer loop
      vertex   4.214102e+000 1.495000e+002 2.433013e+000
      vertex   4.330127e+000 1.490000e+002 2.500000e+000
      vertex   4.924039e+000 1.490000e+002 8.682409e-001
    endloop
  endfacet
  facet normal 6.695294e-001 7.016738e-001 2.436888e-001
    outer loop
      vertex   3.897114e+000 1.498660e+002 2.250000e+000
      vertex   4.214102e+000 1.495000e+002 2.433013e+000
      vertex   4.792100e+000 1.495000e+002 8.449764e-001
    endloop
  endfacet
  facet normal 2.467055e-001 9.649215e-001 8.979345e-002
    outer loop
      vertex   3.464102e+000 1.500000e+002 2.000000e+000
      vertex   3.897114e+000 1.498660e+002 2.250000e+000
      vertex   4.431635e+000 1.498660e+002 7.814168e-001
    endloop
  endfacet
  facet normal 9.669029e-001 2.551448e-001 4.863813e-016
    outer loop
      vertex   4.792100e+000 1.495000e+002 8.449764e-001
      vertex   4.924039e+000 1.490000e+002 8.682409e-001
      vertex   4.924039e+000 1.490000e+002 -8.682409e-001
    endloop
  endfacet
  facet normal 7.124983e-001 7.016738e-001 3.658723e-016
    outer loop
      vertex   4.431635e+000 1.498660e+002 7.814168e-001
      vertex   4.792100e+000 1.495000e+002 8.449764e-001
      vertex   4.792100e+000 1.495000e+002 -8.449764e-001
    endloop
  endfacet
  facet normal 2.625385e-001 9.649215e-001 1.493553e-016
    outer loop
      vertex   3.939231e+000 1.500000e+002 6.945927e-001
      vertex   4.431635e+000 1.498660e+002 7.814168e-001
      vertex   4.431635e+000 1.498660e+002 -7.814168e-001
    endloop
  endfacet
  facet normal 9.085915e-001 2.551448e-001 -3.307003e-001
    outer loop
      vertex   4.792100e+000 1.495000e+002 -8.449764e-001
      vertex   4.924039e+000 1.490000e+002 -8.682409e-001
      vertex   4.330127e+000 1.490000e+002 -2.500000e+000
    endloop
  endfacet
  facet normal 6.695294e-001 7.016738e-001 -2.436888e-001
    outer loop
      vertex   4.431635e+000 1.498660e+002 -7.814168e-001
      vertex   4.792100e+000 1.495000e+002 -8.449764e-001
      vertex   4.214102e+000 1.495000e+002 -2.433013e+000
    endloop
  endfacet
  facet normal 2.467055e-001 9.649215e-001 -8.979345e-002
    outer loop
      vertex   3.939231e+000 1.500000e+002 -6.945927e-001
      vertex   4.431635e+000 1.498660e+002 -7.814168e-001
      vertex   3.897114e+000 1.498660e+002 -2.250000e+000
    endloop
  endfacet
  facet normal 7.406906e-001 2.551448e-001 -6.215132e-001
    outer loop
      vertex   4.214102e+000 1.495000e+002 -2.433013e+000
      vertex   4.330127e+000 1.490000e+002 -2.500000e+000
      vertex   3.213938e+000 1.490000e+002 -3.830222e+000
    endloop
  endfacet
  facet normal 5.458054e-001 7.016738e-001 -4.579851e-001
    outer loop
      vertex   3.897114e+000 1.498660e+002 -2.250000e+000
      vertex   4.214102e+000 1.495000e+002 -2.433013e+000
      vertex   3.127821e+000 1.495000e+002 -3.727592e+000
    endloop
  endfacet
  facet normal 2.011162e-001 9.649215e-001 -1.687565e-001
    outer loop
      vertex   3.464102e+000 1.500000e+002 -2.000000e+000
      vertex   3.897114e+000 1.498660e+002 -2.250000e+000
      vertex   2.892544e+000 1.498660e+002 -3.447200e+000
    endloop
  endfacet
  facet normal 4.834514e-001 2.551448e-001 -8.373624e-001
    outer loop
      vertex   3.127821e+000 1.495000e+002 -3.727592e+000
      vertex   3.213938e+000 1.490000e+002 -3.830222e+000
      vertex   1.710101e+000 1.490000e+002 -4.698463e+000
    endloop
  endfacet
  facet normal 3.562491e-001 7.016738e-001 -6.170416e-001
    outer loop
      vertex   2.892544e+000 1.498660e+002 -3.447200e+000
      vertex   3.127821e+000 1.495000e+002 -3.727592e+000
      vertex   1.664279e+000 1.495000e+002 -4.572568e+000
    endloop
  endfacet
  facet normal 1.312692e-001 9.649215e-001 -2.273650e-001
    outer loop
      vertex   2.571150e+000 1.500000e+002 -3.064178e+000
      vertex   2.892544e+000 1.498660e+002 -3.447200e+000
      vertex   1.539091e+000 1.498660e+002 -4.228617e+000
    endloop
  endfacet
  facet normal 1.679009e-001 2.551448e-001 -9.522134e-001
    outer loop
      vertex   1.664279e+000 1.495000e+002 -4.572568e+000
      vertex   1.710101e+000 1.490000e+002 -4.698463e+000
      vertex   2.832769e-015 1.490000e+002 -5.000000e+000
    endloop
  endfacet
  facet normal 1.237240e-001 7.016738e-001 -7.016738e-001
    outer loop
      vertex   1.539091e+000 1.498660e+002 -4.228617e+000
      vertex   1.664279e+000 1.495000e+002 -4.572568e+000
      vertex   2.756866e-015 1.495000e+002 -4.866025e+000
    endloop
  endfacet
  facet normal 4.558933e-002 9.649215e-001 -2.585499e-001
    outer loop
      vertex   1.368081e+000 1.500000e+002 -3.758770e+000
      vertex   1.539091e+000 1.498660e+002 -4.228617e+000
      vertex   2.549493e-015 1.498660e+002 -4.500000e+000
    endloop
  endfacet
  facet normal -1.679009e-001 2.551448e-001 -9.522134e-001
    outer loop
      vertex   2.756866e-015 1.495000e+002 -4.866025e+000
      vertex   2.832769e-015 1.490000e+002 -5.000000e+000
      vertex   -1.710101e+000 1.490000e+002 -4.698463e+000
    endloop
  endfacet
  facet normal -1.237240e-001 7.016738e-001 -7.016738e-001
    outer loop
      vertex   2.549493e-015 1.498660e+002 -4.500000e+000
      vertex   2.756866e-015 1.495000e+002 -4.866025e+000
      vertex   -1.664279e+000 1.495000e+002 -4.572568e+000
    endloop
  endfacet
  facet normal -4.558933e-002 9.649215e-001 -2.585499e-001
    outer loop
      vertex   2.266216e-015 1.500000e+002 -4.000000e+000
      vertex   2.549493e-015 1.498660e+002 -4.500000e+000
      vertex   -1.539091e+000 1.498660e+002 -4.228617e+000
    endloop
  endfacet
  facet normal -4.834514e-001 2.551448e-001 -8.373624e-001
    outer loop
      vertex   -1.664279e+000 1.495000e+002 -4.572568e+000
      vertex   -1.710101e+000 1.490000e+002 -4.698463e+000
      vertex   -3.213938e+000 1.490000e+002 -3.830222e+000
    endloop
  endfacet
  facet normal -3.562491e-001 7.016738e-001 -6.170416e-001
    outer loop
      vertex   -1.539091e+000 1.498660e+002 -4.228617e+000
      vertex   -1.664279e+000 1.495000e+002 -4.572568e+000
      vertex   -3.127821e+000 1.495000e+002 -3.727592e+000
    endloop
  endfacet
  facet normal -1.312692e-001 9.649215e-001 -2.273650e-001
    outer loop
      vertex   -1.368081e+000 1.500000e+002 -3.758770e+000
      vertex   -1.539091e+000 1.498660e+002 -4.228617e+000
      vertex   -2.892544e+000 1.498660e+002 -3.447200e+000
    endloop
  endfacet
  facet normal -7.406906e-001 2.551448e-001 -6.215132e-001
    outer loop
      vertex   -3.127821e+000 1.495000e+002 -3.727592e+000
      vertex   -3.213938e+000 1.490000e+002 -3.830222e+000
      vertex   -4.330127e+000 1.490000e+002 -2.500000e+000
    endloop
  endfacet
  facet normal -5.458054e-001 7.016738e-001 -4.579851e-001
    outer loop
      vertex   -2.892544e+000 1.498660e+002 -3.447200e+000
      vertex   -3.127821e+000 1.495000e+002 -3.727592e+000
      vertex   -4.214102e+000 1.495000e+002 -2.433013e+000
    endloop
  endfacet
  facet normal -2.011162e-001 9.649215e-001 -1.687565e-001
    outer loop
      vertex   -2.571150e+000 1.500000e+002 -3.064178e+000
      vertex   -2.892544e+000 1.498660e+002 -3.447200e+000
      vertex   -3.897114e+000 1.498660e+002 -2.250000e+000
    endloop
  endfacet
  facet normal -9.085915e-001 2.551448e-001 -3.307003e-001
    outer loop
      vertex   -4.214102e+000 1.495000e+002 -2.433013e+000
      vertex   -4.330127e+000 1.490000e+002 -2.500000e+000
      vertex   -4.924039e+000 1.490000e+002 -8.682409e-001
    endloop
  endfacet
  facet normal -6.695294e-001 7.016738e-001 -2.436888e-001
    outer loop
      vertex   -3.897114e+000 1.498660e+002 -2.250000e+000
      vertex   -4.214102e+000 1.495000e+002 -2.433013e+000
      vertex   -4.792100e+000 1.495000e+002 -8.449764e-001
    endloop
  endfacet
  facet normal -2.467055e-001 9.649215e-001 -8.979345e-002
    outer loop
      vertex   -3.464102e+000 1.500000e+002 -2.000000e+000
      vertex   -3.897114e+000 1.498660e+002 -2.250000e+000
      vertex   -4.431635e+000 1.498660e+002 -7.814168e-001
    endloop
  endfacet
  facet normal -9.669029e-001 2.551448e-001 -4.863813e-016
    outer loop
      vertex   -4.792100e+000 1.495000e+002 -8.449764e-001
      vertex   -4.924039e+000 1.490000e+002 -8.682409e-001
      vertex   -4.924039e+000 1.490000e+002 8.682409e-001
    endloop
  endfacet
  facet normal -7.124983e-001 7.016738e-001 -3.658723e-016
    outer loop
      vertex   -4.431635e+000 1.498660e+002 -7.814168e-001
      vertex   -4.792100e+000 1.495000e+002 -8.449764e-001
      vertex   -4.792100e+000 1.495000e+002 8.449764e-001
    endloop
  endfacet
  facet normal -2.625385e-001 9.649215e-001 -1.493553e-016
    outer loop
      vertex   -3.939231e+000 1.500000e+002 -6.945927e-001
      vertex   -4.431635e+000 1.498660e+002 -7.814168e-001
      vertex   -4.431635e+000 1.498660e+002 7.814168e-001
    endloop
  endfacet
  facet normal -9.085915e-001 2.551448e-001 3.307003e-001
    outer loop
      vertex   -4.792100e+000 1.495000e+002 8.449764e-001
      vertex   -4.924039e+000 1.490000e+002 8.682409e-001
      vertex   -4.330127e+000 1.490000e+002 2.500000e+000
    endloop
  endfacet
  facet normal -6.695294e-001 7.016738e-001 2.436888e-001
    outer loop
      vertex   -4.431635e+000 1.498660e+002 7.814168e-001
      vertex   -4.792100e+000 1.495000e+002 8.449764e-001
      vertex   -4.214102e+000 1.495000e+002 2.433013e+000
    endloop
  endfacet
  facet normal -2.467055e-001 9.649215e-001 8.979345e-002
    outer loop
      vertex   -3.939231e+000 1.500000e+002 6.945927e-001
      vertex   -4.431635e+000 1.498660e+002 7.814168e-001
      vertex   -3.897114e+000 1.498660e+002 2.250000e+000
    endloop
  endfacet
  facet normal -7.406906e-001 2.551448e-001 6.215132e-001
    outer loop
      vertex   -4.214102e+000 1.495000e+002 2.433013e+000
      vertex   -4.330127e+000 1.490000e+002 2.500000e+000
      vertex   -3.213938e+000 1.490000e+002 3.830222e+000
    endloop
  endfacet
  facet normal -5.458054e-001 7.016738e-001 4.579851e-001
    outer loop
      vertex   -3.897114e+000 1.498660e+002 2.250000e+000
      vertex   -4.214102e+000 1.495000e+002 2.433013e+000
      vertex   -3.127821e+000 1.495000e+002 3.727592e+000
    endloop
  endfacet
  facet normal -2.011162e-001 9.649215e-001 1.687565e-001
    outer loop
      vertex   -3.464102e+000 1.500000e+002 2.000000e+000
      vertex   -3.897114e+000 1.498660e+002 2.250000e+000
      vertex   -2.892544e+000 1.498660e+002 3.447200e+000
    endloop
  endfacet
  facet normal -4.834514e-001 2.551448e-001 8.373624e-001
    outer loop
      vertex   -3.127821e+000 1.495000e+002 3.727592e+000
      vertex   -3.213938e+000 1.490000e+002 3.830222e+000
      vertex   -1.710101e+000 1.490000e+002 4.698463e+000
    endloop
  endfacet
  facet normal -3.562491e-001 7.016738e-001 6.170416e-001
    outer loop
      vertex   -2.892544e+000 1.498660e+002 3.447200e+000
      vertex   -3.127821e+000 1.495000e+002 3.727592e+000
      vertex   -1.664279e+000 1.495000e+002 4.572568e+000
    endloop
  endfacet
  facet normal -1.312692e-001 9.649215e-001 2.273650e-001
    outer loop
      vertex   -2.571150e+000 1.500000e+002 3.064178e+000
      vertex   -2.892544e+000 1.498660e+002 3.447200e+000
      vertex   -1.539091e+000 1.498660e+002 4.228617e+000
    endloop
  endfacet
  facet normal -1.679009e-001 2.551448e-001 9.522134e-001
    outer loop
      vertex   -1.664279e+000 1.495000e+002 4.572568e+000
      vertex   -1.710101e+000 1.490000e+002 4.698463e+000
      vertex   -1.224647e-015 1.490000e+002 5.000000e+000
    endloop
  endfacet
  facet normal -1.237240e-001 7.016738e-001 7.016738e-001
    outer loop
      vertex   -1.539091e+000 1.498660e+002 4.228617e+000
      vertex   -1.664279e+000 1.495000e+002 4.572568e+000
      vertex   0.000000e+000 1.495000e+002 4.866025e+000
    endloop
  endfacet
  facet normal -4.558933e-002 9.649215e-001 2.585499e-001
    outer loop
      vertex   -1.368081e+000 1.500000e+002 3.758770e+000
      vertex   -1.539091e+000 1.498660e+002 4.228617e+000
      vertex   0.000000e+000 1.498660e+002 4.500000e+000
    endloop
  endfacet
  facet normal -4.558933e-002 9.649215e-001 2.585499e-001
    outer loop
      vertex   0.000000e+000 1.498660e+002 4.500000e+000
      vertex   0.000000e+000 1.500000e+002 4.000000e+000
      vertex   -1.368081e+000 1.500000e+002 3.758770e+000
    endloop
  endfacet
  facet normal -1.237240e-001 7.016738e-001 7.016738e-001
    outer loop
      vertex   0.000000e+000 1.495000e+002 4.866025e+000
      vertex   0.000000e+000 1.498660e+002 4.500000e+000
      vertex   -1.539091e+000 1.498660e+002 4.228617e+000
    endloop
  endfacet
  facet normal -1.679009e-001 2.551448e-001 9.522134e-001
    outer loop
      vertex   -1.224647e-015 1.490000e+002 5.000000e+000
      vertex   0.000000e+000 1.495000e+002 4.866025e+000
      vertex   -1.664279e+000 1.495000e+002 4.572568e+000
    endloop
  endfacet
  facet normal -1.312692e-001 9.649215e-001 2.273650e-001
    outer loop
      vertex   -1.539091e+000 1.498660e+002 4.228617e+000
      vertex   -1.368081e+000 1.500000e+002 3.758770e+000
      vertex   -2.571150e+000 1.500000e+002 3.064178e+000
    endloop
  endfacet
  facet normal -3.562491e-001 7.016738e-001 6.170416e-001
    outer loop
      vertex   -1.664279e+000 1.495000e+002 4.572568e+000
      vertex   -1.539091e+000 1.498660e+002 4.228617e+000
      vertex   -2.892544e+000 1.498660e+002 3.447200e+000
    endloop
  endfacet
  facet normal -4.834514e-001 2.551448e-001 8.373624e-001
    outer loop
      vertex   -1.710101e+000 1.490000e+002 4.698463e+000
      vertex   -1.664279e+000 1.495000e+002 4.572568e+000
      vertex   -3.127821e+000 1.495000e+002 3.727592e+000
    endloop
  endfacet
  facet normal -2.011162e-001 9.649215e-001 1.687565e-001
    outer loop
      vertex   -2.892544e+000 1.498660e+002 3.447200e+000
      vertex   -2.571150e+000 1.500000e+002 3.064178e+000
      vertex   -3.464102e+000 1.500000e+002 2.000000e+000
    endloop
  endfacet
  facet normal -5.458054e-001 7.016738e-001 4.579851e-001
    outer loop
      vertex   -3.127821e+000 1.495000e+002 3.727592e+000
      vertex   -2.892544e+000 1.498660e+002 3.447200e+000
      vertex   -3.897114e+000 1.498660e+002 2.250000e+000
    endloop
  endfacet
  facet normal -7.406906e-001 2.551448e-001 6.215132e-001
    outer loop
      vertex   -3.213938e+000 1.490000e+002 3.830222e+000
      vertex   -3.127821e+000 1.495000e+002 3.727592e+000
      vertex   -4.214102e+000 1.495000e+002 2.433013e+000
    endloop
  endfacet
  facet normal -2.467055e-001 9.649215e-001 8.979345e-002
    outer loop
      vertex   -3.897114e+000 1.498660e+002 2.250000e+000
      vertex   -3.464102e+000 1.500000e+002 2.000000e+000
      vertex   -3.939231e+000 1.500000e+002 6.945927e-001
    endloop
  endfacet
  facet normal -6.695294e-001 7.016738e-001 2.436888e-001
    outer loop
      vertex   -4.214102e+000 1.495000e+002 2.433013e+000
      vertex   -3.897114e+000 1.498660e+002 2.250000e+000
      vertex   -4.431635e+000 1.498660e+002 7.814168e-001
    endloop
  endfacet
  facet normal -9.085915e-001 2.551448e-001 3.307003e-001
    outer loop
      vertex   -4.330127e+000 1.490000e+002 2.500000e+000
      vertex   -4.214102e+000 1.495000e+002 2.433013e+000
      vertex   -4.792100e+000 1.495000e+002 8.449764e-001
    endloop
  endfacet
  facet normal -2.625385e-001 9.649215e-001 -1.680247e-016
    outer loop
      vertex   -4.431635e+000 1.498660e+002 7.814168e-001
      vertex   -3.939231e+000 1.500000e+002 6.945927e-001
      vertex   -3.939231e+000 1.500000e+002 -6.945927e-001
    endloop
  endfacet
  facet normal -7.124983e-001 7.016738e-001 -3.956320e-016
    outer loop
      vertex   -4.792100e+000 1.495000e+002 8.449764e-001
      vertex   -4.431635e+000 1.498660e+002 7.814168e-001
      vertex   -4.431635e+000 1.498660e+002 -7.814168e-001
    endloop
  endfacet
  facet normal -9.669029e-001 2.551448e-001 -4.997727e-016
    outer loop
      vertex   -4.924039e+000 1.490000e+002 8.682409e-001
      vertex   -4.792100e+000 1.495000e+002 8.449764e-001
      vertex   -4.792100e+000 1.495000e+002 -8.449764e-001
    endloop
  endfacet
  facet normal -2.467055e-001 9.649215e-001 -8.979345e-002
    outer loop
      vertex   -4.431635e+000 1.498660e+002 -7.814168e-001
      vertex   -3.939231e+000 1.500000e+002 -6.945927e-001
      vertex   -3.464102e+000 1.500000e+002 -2.000000e+000
    endloop
  endfacet
  facet normal -6.695294e-001 7.016738e-001 -2.436888e-001
    outer loop
      vertex   -4.792100e+000 1.495000e+002 -8.449764e-001
      vertex   -4.431635e+000 1.498660e+002 -7.814168e-001
      vertex   -3.897114e+000 1.498660e+002 -2.250000e+000
    endloop
  endfacet
  facet normal -9.085915e-001 2.551448e-001 -3.307003e-001
    outer loop
      vertex   -4.924039e+000 1.490000e+002 -8.682409e-001
      vertex   -4.792100e+000 1.495000e+002 -8.449764e-001
      vertex   -4.214102e+000 1.495000e+002 -2.433013e+000
    endloop
  endfacet
  facet normal -2.011162e-001 9.649215e-001 -1.687565e-001
    outer loop
      vertex   -3.897114e+000 1.498660e+002 -2.250000e+000
      vertex   -3.464102e+000 1.500000e+002 -2.000000e+000
      vertex   -2.571150e+000 1.500000e+002 -3.064178e+000
    endloop
  endfacet
  facet normal -5.458054e-001 7.016738e-001 -4.579851e-001
    outer loop
      vertex   -4.214102e+000 1.495000e+002 -2.433013e+000
      vertex   -3.897114e+000 1.498660e+002 -2.250000e+000
      vertex   -2.892544e+000 1.498660e+002 -3.447200e+000
    endloop
  endfacet
  facet normal -7.406906e-001 2.551448e-001 -6.215132e-001
    outer loop
      vertex   -4.330127e+000 1.490000e+002 -2.500000e+000
      vertex   -4.214102e+000 1.495000e+002 -2.433013e+000
      vertex   -3.127821e+000 1.495000e+002 -3.727592e+000
    endloop
  endfacet
  facet normal -1.312692e-001 9.649215e-001 -2.273650e-001
    outer loop
      vertex   -2.892544e+000 1.498660e+002 -3.447200e+000
      vertex   -2.571150e+000 1.500000e+002 -3.064178e+000
      vertex   -1.368081e+000 1.500000e+002 -3.758770e+000
    endloop
  endfacet
  facet normal -3.562491e-001 7.016738e-001 -6.170416e-001
    outer loop
      vertex   -3.127821e+000 1.495000e+002 -3.727592e+000
      vertex   -2.892544e+000 1.498660e+002 -3.447200e+000
      vertex   -1.539091e+000 1.498660e+002 -4.228617e+000
    endloop
  endfacet
  facet normal -4.834514e-001 2.551448e-001 -8.373624e-001
    outer loop
      vertex   -3.213938e+000 1.490000e+002 -3.830222e+000
      vertex   -3.127821e+000 1.495000e+002 -3.727592e+000
      vertex   -1.664279e+000 1.495000e+002 -4.572568e+000
    endloop
  endfacet
  facet normal -4.558933e-002 9.649215e-001 -2.585499e-001
    outer loop
      vertex   -1.539091e+000 1.498660e+002 -4.228617e+000
      vertex   -1.368081e+000 1.500000e+002 -3.758770e+000
      vertex   2.266216e-015 1.500000e+002 -4.000000e+000
    endloop
  endfacet
  facet normal -1.237240e-001 7.016738e-001 -7.016738e-001
    outer loop
      vertex   -1.664279e+000 1.495000e+002 -4.572568e+000
      vertex   -1.539091e+000 1.498660e+002 -4.228617e+000
      vertex   2.549493e-015 1.498660e+002 -4.500000e+000
    endloop
  endfacet
  facet normal -1.679009e-001 2.551448e-001 -9.522134e-001
    outer loop
      vertex   -1.710101e+000 1.490000e+002 -4.698463e+000
      vertex   -1.664279e+000 1.495000e+002 -4.572568e+000
      vertex   2.756866e-015 1.495000e+002 -4.866025e+000
    endloop
  endfacet
  facet normal 4.558933e-002 9.649215e-001 -2.585499e-001
    outer loop
      vertex   2.549493e-015 1.498660e+002 -4.500000e+000
      vertex   2.266216e-015 1.500000e+002 -4.000000e+000
      vertex   1.368081e+000 1.500000e+002 -3.758770e+000
    endloop
  endfacet
  facet normal 1.237240e-001 7.016738e-001 -7.016738e-001
    outer loop
      vertex   2.756866e-015 1.495000e+002 -4.866025e+000
      vertex   2.549493e-015 1.498660e+002 -4.500000e+000
      vertex   1.539091e+000 1.498660e+002 -4.228617e+000
    endloop
  endfacet
  facet normal 1.679009e-001 2.551448e-001 -9.522134e-001
    outer loop
      vertex   2.832769e-015 1.490000e+002 -5.000000e+000
      vertex   2.756866e-015 1.495000e+002 -4.866025e+000
      vertex   1.664279e+000 1.495000e+002 -4.572568e+000
    endloop
  endfacet
  facet normal 1.312692e-001 9.649215e-001 -2.273650e-001
    outer loop
      vertex   1.539091e+000 1.498660e+002 -4.228617e+000
      vertex   1.368081e+000 1.500000e+002 -3.758770e+000
      vertex   2.571150e+000 1.500000e+002 -3.064178e+000
    endloop
  endfacet
  facet normal 3.562491e-001 7.016738e-001 -6.170416e-001
    outer loop
      vertex   1.664279e+000 1.495000e+002 -4.572568e+000
      vertex   1.539091e+000 1.498660e+002 -4.228617e+000
      vertex   2.892544e+000 1.498660e+002 -3.447200e+000
    endloop
  endfacet
  facet normal 4.834514e-001 2.551448e-001 -8.373624e-001
    outer loop
      vertex   1.710101e+000 1.490000e+002 -4.698463e+000
      vertex   1.664279e+000 1.495000e+002 -4.572568e+000
      vertex   3.127821e+000 1.495000e+002 -3.727592e+000
    endloop
  endfacet
  facet normal 2.011162e-001 9.649215e-001 -1.687565e-001
    outer loop
      vertex   2.892544e+000 1.498660e+002 -3.447200e+000
      vertex   2.571150e+000 1.500000e+002 -3.064178e+000
      vertex   3.464102e+000 1.500000e+002 -2.000000e+000
    endloop
  endfacet
  facet normal 5.458054e-001 7.016738e-001 -4.579851e-001
    outer loop
      vertex   3.127821e+000 1.495000e+002 -3.727592e+000
      vertex   2.892544e+000 1.498660e+002 -3.447200e+000
      vertex   3.897114e+000 1.498660e+002 -2.250000e+000
    endloop
  endfacet
  facet normal 7.406906e-001 2.551448e-001 -6.215132e-001
    outer loop
      vertex   3.213938e+000 1.490000e+002 -3.830222e+000
      vertex   3.127821e+000 1.495000e+002 -3.727592e+000
      vertex   4.214102e+000 1.495000e+002 -2.433013e+000
    endloop
  endfacet
  facet normal 2.467055e-001 9.649215e-001 -8.979345e-002
    outer loop
      vertex   3.897114e+000 1.498660e+002 -2.250000e+000
      vertex   3.464102e+000 1.500000e+002 -2.000000e+000
      vertex   3.939231e+000 1.500000e+002 -6.945927e-001
    endloop
  endfacet
  facet normal 6.695294e-001 7.016738e-001 -2.436888e-001
    outer loop
      vertex   4.214102e+000 1.495000e+002 -2.433013e+000
      vertex   3.897114e+000 1.498660e+002 -2.250000e+000
      vertex   4.431635e+000 1.498660e+002 -7.814168e-001
    endloop
  endfacet
  facet normal 9.085915e-001 2.551448e-001 -3.307003e-001
    outer loop
      vertex   4.330127e+000 1.490000e+002 -2.500000e+000
      vertex   4.214102e+000 1.495000e+002 -2.433013e+000
      vertex   4.792100e+000 1.495000e+002 -8.449764e-001
    endloop
  endfacet
  facet normal 2.625385e-001 9.649215e-001 1.680247e-016
    outer loop
      vertex   4.431635e+000 1.498660e+002 -7.814168e-001
      vertex   3.939231e+000 1.500000e+002 -6.945927e-001
      vertex   3.939231e+000 1.500000e+002 6.945927e-001
    endloop
  endfacet
  facet normal 7.124983e-001 7.016738e-001 3.956320e-016
    outer loop
      vertex   4.792100e+000 1.495000e+002 -8.449764e-001
      vertex   4.431635e+000 1.498660e+002 -7.814168e-001
      vertex   4.431635e+000 1.498660e+002 7.814168e-001
    endloop
  endfacet
  facet normal 9.669029e-001 2.551448e-001 4.997727e-016
    outer loop
      vertex   4.924039e+000 1.490000e+002 -8.682409e-001
      vertex   4.792100e+000 1.495000e+002 -8.449764e-001
      vertex   4.792100e+000 1.495000e+002 8.449764e-001
    endloop
  endfacet
  facet normal 2.467055e-001 9.649215e-001 8.979345e-002
    outer loop
      vertex   4.431635e+000 1.498660e+002 7.814168e-001
      vertex   3.939231e+000 1.500000e+002 6.945927e-001
      vertex   3.464102e+000 1.500000e+002 2.000000e+000
    endloop
  endfacet
  facet normal 6.695294e-001 7.016738e-001 2.436888e-001
    outer loop
      vertex   4.792100e+000 1.495000e+002 8.449764e-001
      vertex   4.431635e+000 1.498660e+002 7.814168e-001
      vertex   3.897114e+000 1.498660e+002 2.250000e+000
    endloop
  endfacet
  facet normal 9.085915e-001 2.551448e-001 3.307003e-001
    outer loop
      vertex   4.924039e+000 1.490000e+002 8.682409e-001
      vertex   4.792100e+000 1.495000e+002 8.449764e-001
      vertex   4.214102e+000 1.495000e+002 2.433013e+000
    endloop
  endfacet
  facet normal 2.011162e-001 9.649215e-001 1.687565e-001
    outer loop
      vertex   3.897114e+000 1.498660e+002 2.250000e+000
      vertex   3.464102e+000 1.500000e+002 2.000000e+000
      vertex   2.571150e+000 1.500000e+002 3.064178e+000
    endloop
  endfacet
  facet normal 5.458054e-001 7.016738e-001 4.579851e-001
    outer loop
      vertex   4.214102e+000 1.495000e+002 2.433013e+000
      vertex   3.897114e+000 1.498660e+002 2.250000e+000
      vertex   2.892544e+000 1.498660e+002 3.447200e+000
    endloop
  endfacet
  facet normal 7.406906e-001 2.551448e-001 6.215132e-001
    outer loop
      vertex   4.330127e+000 1.490000e+002 2.500000e+000
      vertex   4.214102e+000 1.495000e+002 2.433013e+000
      vertex   3.127821e+000 1.495000e+002 3.727592e+000
    endloop
  endfacet
  facet normal 1.312692e-001 9.649215e-001 2.273650e-001
    outer loop
      vertex   2.892544e+000 1.498660e+002 3.447200e+000
      vertex   2.571150e+000 1.500000e+002 3.064178e+000
      vertex   1.368081e+000 1.500000e+002 3.758770e+000
    endloop
  endfacet
  facet normal 3.562491e-001 7.016738e-001 6.170416e-001
    outer loop
      vertex   3.127821e+000 1.495000e+002 3.727592e+000
      vertex   2.892544e+000 1.498660e+002 3.447200e+000
      vertex   1.539091e+000 1.498660e+002 4.228617e+000
    endloop
  endfacet
  facet normal 4.834514e-001 2.551448e-001 8.373624e-001
    outer loop
      vertex   3.213938e+000 1.490000e+002 3.830222e+000
      vertex   3.127821e+000 1.495000e+002 3.727592e+000
      vertex   1.664279e+000 1.495000e+002 4.572568e+000
    endloop
  endfacet
  facet normal 4.558933e-002 9.649215e-001 2.585499e-001
    outer loop
      vertex   1.539091e+000 1.498660e+002 4.228617e+000
      vertex   1.368081e+000 1.500000e+002 3.758770e+000
      vertex   0.000000e+000 1.500000e+002 4.000000e+000
    endloop
  endfacet
  facet normal 1.237240e-001 7.016738e-001 7.016738e-001
    outer loop
      vertex   1.664279e+000 1.495000e+002 4.572568e+000
      vertex   1.539091e+000 1.498660e+002 4.228617e+000
      vertex   0.000000e+000 1.498660e+002 4.500000e+000
    endloop
  endfacet
  facet normal 1.679009e-001 2.551448e-001 9.522134e-001
    outer loop
      vertex   1.710101e+000 1.490000e+002 4.698463e+000
      vertex   1.664279e+000 1.495000e+002 4.572568e+000
      vertex   0.000000e+000 1.495000e+002 4.866025e+000
    endloop
  endfacet
  facet normal 0.000000e+000 1.000000e+000 0.000000e+000
    outer loop
      vertex   0.000000e+000 1.500000e+002 0.000000e+000
      vertex   1.368081e+000 1.500000e+002 3.758770e+000
      vertex   2.571150e+000 1.500000e+002 3.064178e+000
    endloop
  endfacet
  facet normal 0.000000e+000 1.000000e+000 0.000000e+000
    outer loop
      vertex   2.571150e+000 1.500000e+002 3.064178e+000
      vertex   3.464102e+000 1.500000e+002 2.000000e+000
      vertex   0.000000e+000 1.500000e+002 0.000000e+000
    endloop
  endfacet
  facet normal 0.000000e+000 1.000000e+000 0.000000e+000
    outer loop
      vertex   3.464102e+000 1.500000e+002 2.000000e+000
      vertex   3.939231e+000 1.500000e+002 6.945927e-001
      vertex   0.000000e+000 1.500000e+002 0.000000e+000
    endloop
  endfacet
  facet normal 0.000000e+000 1.000000e+000 0.000000e+000
    outer loop
      vertex   3.939231e+000 1.500000e+002 6.945927e-001
      vertex   3.939231e+000 1.500000e+002 -6.945927e-001
      vertex   0.000000e+000 1.500000e+002 0.000000e+000
    endloop
  endfacet
  facet normal 0.000000e+000 1.000000e+000 0.000000e+000
    outer loop
      vertex   3.939231e+000 1.500000e+002 -6.945927e-001
      vertex   3.464102e+000 1.500000e+002 -2.000000e+000
      vertex   0.000000e+000 1.500000e+002 0.000000e+000
    endloop
  endfacet
  facet normal 0.000000e+000 1.000000e+000 0.000000e+000
    outer loop
      vertex   3.464102e+000 1.500000e+002 -2.000000e+000
      vertex   2.571150e+000 1.500000e+002 -3.064178e+000
      vertex   0.000000e+000 1.500000e+002 0.000000e+000
    endloop
  endfacet
  facet normal 0.000000e+000 1.000000e+000 0.000000e+000
    outer loop
      vertex   2.571150e+000 1.500000e+002 -3.064178e+000
      vertex   1.368081e+000 1.500000e+002 -3.758770e+000
      vertex   0.000000e+000 1.500000e+002 0.000000e+000
    endloop
  endfacet
  facet normal 0.000000e+000 1.000000e+000 0.000000e+000
    outer loop
      vertex   1.368081e+000 1.500000e+002 -3.758770e+000
      vertex   2.266216e-015 1.500000e+002 -4.000000e+000
      vertex   0.000000e+000 1.500000e+002 0.000000e+000
    endloop
  endfacet
  facet normal 0.000000e+000 1.000000e+000 0.000000e+000
    outer loop
      vertex   2.266216e-015 1.500000e+002 -4.000000e+000
      vertex   -1.368081e+000 1.500000e+002 -3.758770e+000
      vertex   0.000000e+000 1.500000e+002 0.000000e+000
    endloop
  endfacet
  facet normal 0.000000e+000 1.000000e+000 -0.000000e+000
    outer loop
      vertex   -1.368081e+000 1.500000e+002 -3.758770e+000
      vertex   -2.571150e+000 1.500000e+002 -3.064178e+000
      vertex   0.000000e+000 1.500000e+002 0.000000e+000
    endloop
  endfacet
  facet normal 0.000000e+000 1.000000e+000 -0.000000e+000
    outer loop
      vertex   -2.571150e+000 1.500000e+002 -3.064178e+000
      vertex   -3.464102e+000 1.500000e+002 -2.000000e+000
      vertex   0.000000e+000 1.500000e+002 0.000000e+000
    endloop
  endfacet
  facet normal 0.000000e+000 1.000000e+000 -0.000000e+000
    outer loop
      vertex   -3.464102e+000 1.500000e+002 -2.000000e+000
      vertex   -3.939231e+000 1.500000e+002 -6.945927e-001
      vertex   0.000000e+000 1.500000e+002 0.000000e+000
    endloop
  endfacet
  facet normal 0.000000e+000 1.000000e+000 -0.000000e+000
    outer loop
      vertex   -3.939231e+000 1.500000e+002 -6.945927e-001
      vertex   -3.939231e+000 1.500000e+002 6.945927e-001
      vertex   0.000000e+000 1.500000e+002 0.000000e+000
    endloop
  endfacet
  facet normal -0.000000e+000 1.000000e+000 0.000000e+000
    outer loop
      vertex   -3.939231e+000 1.500000e+002 6.945927e-001
      vertex   -3.464102e+000 1.500000e+002 2.000000e+000
      vertex   0.000000e+000 1.500000e+002 0.000000e+000
    endloop
  endfacet
  facet normal -0.000000e+000 1.000000e+000 0.000000e+000
    outer loop
      vertex   -3.464102e+000 1.500000e+002 2.000000e+000
      vertex   -2.571150e+000 1.500000e+002 3.064178e+000
      vertex   0.000000e+000 1.500000e+002 0.000000e+000
    endloop
  endfacet
  facet normal -0.000000e+000 1.000000e+000 0.000000e+000
    outer loop
      vertex   -2.571150e+000 1.500000e+002 3.064178e+000
      vertex   -1.368081e+000 1.500000e+002 3.758770e+000
      vertex   0.000000e+000 1.500000e+002 0.000000e+000
    endloop
  endfacet
  facet normal -0.000000e+000 1.000000e+000 0.000000e+000
    outer loop
      vertex   -1.368081e+000 1.500000e+002 3.758770e+000
      vertex   0.000000e+000 1.500000e+002 4.000000e+000
      vertex   0.000000e+000 1.500000e+002 0.000000e+000
    endloop
  endfacet
  facet normal 0.000000e+000 1.000000e+000 0.000000e+000
    outer loop
      vertex   0.000000e+000 1.500000e+002 4.000000e+000
      vertex   1.368081e+000 1.500000e+002 3.758770e+000
      vertex   0.000000e+000 1.500000e+002 0.000000e+000
    endloop
  endfacet
endsolid
