solid Base
  facet normal 7.071068e-001 7.071068e-001 0.000000e+000
    outer loop
      vertex   7.500000e+002 7.015748e+002 5.000000e+001
      vertex   7.500000e+002 7.015748e+002 0.000000e+000
      vertex   7.015748e+002 7.500000e+002 0.000000e+000
    endloop
  endfacet
  facet normal 7.071068e-001 7.071068e-001 -0.000000e+000
    outer loop
      vertex   7.015748e+002 7.500000e+002 0.000000e+000
      vertex   7.015748e+002 7.500000e+002 5.000000e+001
      vertex   7.500000e+002 7.015748e+002 5.000000e+001
    endloop
  endfacet
  facet normal 0.000000e+000 1.000000e+000 0.000000e+000
    outer loop
      vertex   7.015748e+002 7.500000e+002 5.000000e+001
      vertex   7.015748e+002 7.500000e+002 0.000000e+000
      vertex   -7.015748e+002 7.500000e+002 0.000000e+000
    endloop
  endfacet
  facet normal 0.000000e+000 1.000000e+000 0.000000e+000
    outer loop
      vertex   -7.015748e+002 7.500000e+002 0.000000e+000
      vertex   -7.015748e+002 7.500000e+002 5.000000e+001
      vertex   7.015748e+002 7.500000e+002 5.000000e+001
    endloop
  endfacet
  facet normal -7.685410e-001 6.398006e-001 0.000000e+000
    outer loop
      vertex   -7.015748e+002 7.500000e+002 5.000000e+001
      vertex   -7.015748e+002 7.500000e+002 0.000000e+000
      vertex   -7.500000e+002 6.918307e+002 0.000000e+000
    endloop
  endfacet
  facet normal -7.685410e-001 6.398006e-001 0.000000e+000
    outer loop
      vertex   -7.500000e+002 6.918307e+002 0.000000e+000
      vertex   -7.500000e+002 6.918307e+002 5.000000e+001
      vertex   -7.015748e+002 7.500000e+002 5.000000e+001
    endloop
  endfacet
  facet normal -1.000000e+000 0.000000e+000 -0.000000e+000
    outer loop
      vertex   -7.500000e+002 6.918307e+002 5.000000e+001
      vertex   -7.500000e+002 6.918307e+002 0.000000e+000
      vertex   -7.500000e+002 -7.015748e+002 0.000000e+000
    endloop
  endfacet
  facet normal -1.000000e+000 0.000000e+000 0.000000e+000
    outer loop
      vertex   -7.500000e+002 -7.015748e+002 0.000000e+000
      vertex   -7.500000e+002 -7.015748e+002 5.000000e+001
      vertex   -7.500000e+002 6.918307e+002 5.000000e+001
    endloop
  endfacet
  facet normal -7.312035e-001 -6.821594e-001 -0.000000e+000
    outer loop
      vertex   -7.500000e+002 -7.015748e+002 5.000000e+001
      vertex   -7.500000e+002 -7.015748e+002 0.000000e+000
      vertex   -7.048228e+002 -7.500000e+002 0.000000e+000
    endloop
  endfacet
  facet normal -7.312035e-001 -6.821594e-001 0.000000e+000
    outer loop
      vertex   -7.048228e+002 -7.500000e+002 0.000000e+000
      vertex   -7.048228e+002 -7.500000e+002 5.000000e+001
      vertex   -7.500000e+002 -7.015748e+002 5.000000e+001
    endloop
  endfacet
  facet normal 0.000000e+000 0.000000e+000 -1.000000e+000
    outer loop
      vertex   -7.500000e+002 6.918307e+002 0.000000e+000
      vertex   -7.015748e+002 7.500000e+002 0.000000e+000
      vertex   7.015748e+002 7.500000e+002 0.000000e+000
    endloop
  endfacet
  facet normal -0.000000e+000 0.000000e+000 -1.000000e+000
    outer loop
      vertex   7.500000e+002 -6.983268e+002 0.000000e+000
      vertex   -7.500000e+002 -7.015748e+002 0.000000e+000
      vertex   -7.500000e+002 6.918307e+002 0.000000e+000
    endloop
  endfacet
  facet normal 0.000000e+000 0.000000e+000 -1.000000e+000
    outer loop
      vertex   7.500000e+002 -6.983268e+002 0.000000e+000
      vertex   7.080709e+002 -7.500000e+002 0.000000e+000
      vertex   -7.048228e+002 -7.500000e+002 0.000000e+000
    endloop
  endfacet
  facet normal 0.000000e+000 0.000000e+000 -1.000000e+000
    outer loop
      vertex   -7.500000e+002 6.918307e+002 0.000000e+000
      vertex   7.500000e+002 7.015748e+002 0.000000e+000
      vertex   7.500000e+002 -6.983268e+002 0.000000e+000
    endloop
  endfacet
  facet normal 0.000000e+000 -0.000000e+000 -1.000000e+000
    outer loop
      vertex   7.015748e+002 7.500000e+002 0.000000e+000
      vertex   7.500000e+002 7.015748e+002 0.000000e+000
      vertex   -7.500000e+002 6.918307e+002 0.000000e+000
    endloop
  endfacet
  facet normal 0.000000e+000 0.000000e+000 -1.000000e+000
    outer loop
      vertex   -7.048228e+002 -7.500000e+002 0.000000e+000
      vertex   -7.500000e+002 -7.015748e+002 0.000000e+000
      vertex   7.500000e+002 -6.983268e+002 0.000000e+000
    endloop
  endfacet
  facet normal 0.000000e+000 -1.000000e+000 0.000000e+000
    outer loop
      vertex   -7.048228e+002 -7.500000e+002 5.000000e+001
      vertex   -7.048228e+002 -7.500000e+002 0.000000e+000
      vertex   7.080709e+002 -7.500000e+002 0.000000e+000
    endloop
  endfacet
  facet normal 0.000000e+000 -1.000000e+000 0.000000e+000
    outer loop
      vertex   7.080709e+002 -7.500000e+002 0.000000e+000
      vertex   7.080709e+002 -7.500000e+002 5.000000e+001
      vertex   -7.048228e+002 -7.500000e+002 5.000000e+001
    endloop
  endfacet
  facet normal 7.765210e-001 -6.300913e-001 0.000000e+000
    outer loop
      vertex   7.080709e+002 -7.500000e+002 5.000000e+001
      vertex   7.080709e+002 -7.500000e+002 0.000000e+000
      vertex   7.500000e+002 -6.983268e+002 0.000000e+000
    endloop
  endfacet
  facet normal 7.765210e-001 -6.300913e-001 0.000000e+000
    outer loop
      vertex   7.500000e+002 -6.983268e+002 0.000000e+000
      vertex   7.500000e+002 -6.983268e+002 5.000000e+001
      vertex   7.080709e+002 -7.500000e+002 5.000000e+001
    endloop
  endfacet
  facet normal 1.000000e+000 0.000000e+000 0.000000e+000
    outer loop
      vertex   7.500000e+002 -6.983268e+002 5.000000e+001
      vertex   7.500000e+002 -6.983268e+002 0.000000e+000
      vertex   7.500000e+002 7.015748e+002 0.000000e+000
    endloop
  endfacet
  facet normal 1.000000e+000 0.000000e+000 -0.000000e+000
    outer loop
      vertex   7.500000e+002 7.015748e+002 0.000000e+000
      vertex   7.500000e+002 7.015748e+002 5.000000e+001
      vertex   7.500000e+002 -6.983268e+002 5.000000e+001
    endloop
  endfacet
  facet normal 6.437876e-018 -6.261459e-018 1.000000e+000
    outer loop
      vertex   7.500000e+002 7.015748e+002 5.000000e+001
      vertex   -5.758594e+002 -6.616406e+002 5.000000e+001
      vertex   5.578125e+002 -6.042188e+002 5.000000e+001
    endloop
  endfacet
  facet normal 0.000000e+000 -5.313929e-018 1.000000e+000
    outer loop
      vertex   5.578125e+002 -6.042188e+002 5.000000e+001
      vertex   6.178125e+002 -6.042188e+002 5.000000e+001
      vertex   7.500000e+002 7.015748e+002 5.000000e+001
    endloop
  endfacet
  facet normal 2.394133e-019 -8.412548e-017 1.000000e+000
    outer loop
      vertex   5.569988e+002 6.710991e+002 5.000000e+001
      vertex   -7.015748e+002 7.500000e+002 5.000000e+001
      vertex   -5.753840e+002 6.678765e+002 5.000000e+001
    endloop
  endfacet
  facet normal 6.079250e-017 0.000000e+000 1.000000e+000
    outer loop
      vertex   -7.500000e+002 -7.015748e+002 5.000000e+001
      vertex   -6.358594e+002 -6.616406e+002 5.000000e+001
      vertex   -6.358594e+002 -6.016406e+002 5.000000e+001
    endloop
  endfacet
  facet normal 7.855890e-018 -3.425711e-017 1.000000e+000
    outer loop
      vertex   -5.758594e+002 -6.616406e+002 5.000000e+001
      vertex   -7.500000e+002 -7.015748e+002 5.000000e+001
      vertex   5.578125e+002 -6.042188e+002 5.000000e+001
    endloop
  endfacet
  facet normal 0.000000e+000 0.000000e+000 1.000000e+000
    outer loop
      vertex   -5.758594e+002 -6.616406e+002 5.000000e+001
      vertex   7.500000e+002 7.015748e+002 5.000000e+001
      vertex   6.169988e+002 6.110991e+002 5.000000e+001
    endloop
  endfacet
  facet normal -4.244571e-017 -4.244571e-017 1.000000e+000
    outer loop
      vertex   7.500000e+002 7.015748e+002 5.000000e+001
      vertex   7.015748e+002 7.500000e+002 5.000000e+001
      vertex   6.169988e+002 6.710991e+002 5.000000e+001
    endloop
  endfacet
  facet normal 0.000000e+000 -8.794444e-017 1.000000e+000
    outer loop
      vertex   7.015748e+002 7.500000e+002 5.000000e+001
      vertex   -7.015748e+002 7.500000e+002 5.000000e+001
      vertex   5.569988e+002 6.710991e+002 5.000000e+001
    endloop
  endfacet
  facet normal 0.000000e+000 -8.449337e-017 1.000000e+000
    outer loop
      vertex   -7.015748e+002 7.500000e+002 5.000000e+001
      vertex   -6.353840e+002 6.678765e+002 5.000000e+001
      vertex   -5.753840e+002 6.678765e+002 5.000000e+001
    endloop
  endfacet
  facet normal 6.054038e-017 0.000000e+000 1.000000e+000
    outer loop
      vertex   -7.500000e+002 6.918307e+002 5.000000e+001
      vertex   -6.353840e+002 6.078765e+002 5.000000e+001
      vertex   -6.353840e+002 6.678765e+002 5.000000e+001
    endloop
  endfacet
  facet normal -1.156482e-016 5.043062e-016 1.000000e+000
    outer loop
      vertex   -5.758594e+002 -6.616406e+002 5.000000e+001
      vertex   -6.358594e+002 -6.616406e+002 5.000000e+001
      vertex   -7.500000e+002 -7.015748e+002 5.000000e+001
    endloop
  endfacet
  facet normal -7.867110e-017 1.156482e-016 1.000000e+000
    outer loop
      vertex   6.169988e+002 6.710991e+002 5.000000e+001
      vertex   6.169988e+002 6.110991e+002 5.000000e+001
      vertex   7.500000e+002 7.015748e+002 5.000000e+001
    endloop
  endfacet
  facet normal -0.000000e+000 0.000000e+000 1.000000e+000
    outer loop
      vertex   -5.753840e+002 6.678765e+002 5.000000e+001
      vertex   5.569988e+002 6.110991e+002 5.000000e+001
      vertex   5.569988e+002 6.710991e+002 5.000000e+001
    endloop
  endfacet
  facet normal 6.052296e-017 -2.378560e-020 1.000000e+000
    outer loop
      vertex   -7.500000e+002 6.918307e+002 5.000000e+001
      vertex   -6.358594e+002 -6.016406e+002 5.000000e+001
      vertex   -6.353840e+002 6.078765e+002 5.000000e+001
    endloop
  endfacet
  facet normal -1.233928e-016 1.156482e-016 1.000000e+000
    outer loop
      vertex   6.169988e+002 6.110991e+002 5.000000e+001
      vertex   -5.758594e+002 -6.016406e+002 5.000000e+001
      vertex   -5.758594e+002 -6.616406e+002 5.000000e+001
    endloop
  endfacet
  facet normal 4.961177e-018 4.628415e-018 1.000000e+000
    outer loop
      vertex   5.578125e+002 -6.042188e+002 5.000000e+001
      vertex   -7.500000e+002 -7.015748e+002 5.000000e+001
      vertex   -7.048228e+002 -7.500000e+002 5.000000e+001
    endloop
  endfacet
  facet normal 5.156822e-017 -4.292989e-017 1.000000e+000
    outer loop
      vertex   -6.353840e+002 6.678765e+002 5.000000e+001
      vertex   -7.015748e+002 7.500000e+002 5.000000e+001
      vertex   -7.500000e+002 6.918307e+002 5.000000e+001
    endloop
  endfacet
  facet normal 0.000000e+000 0.000000e+000 1.000000e+000
    outer loop
      vertex   -6.353840e+002 6.078765e+002 5.000000e+001
      vertex   -6.358594e+002 -6.016406e+002 5.000000e+001
      vertex   -5.758594e+002 -6.016406e+002 5.000000e+001
    endloop
  endfacet
  facet normal 5.798569e-018 1.156482e-016 1.000000e+000
    outer loop
      vertex   5.569988e+002 6.110991e+002 5.000000e+001
      vertex   -5.753840e+002 6.678765e+002 5.000000e+001
      vertex   -5.753840e+002 6.078765e+002 5.000000e+001
    endloop
  endfacet
  facet normal 5.495564e-018 0.000000e+000 1.000000e+000
    outer loop
      vertex   -7.048228e+002 -7.500000e+002 5.000000e+001
      vertex   5.578125e+002 -6.642188e+002 5.000000e+001
      vertex   5.578125e+002 -6.042188e+002 5.000000e+001
    endloop
  endfacet
  facet normal -1.156482e-016 -1.216842e-016 1.000000e+000
    outer loop
      vertex   7.080709e+002 -7.500000e+002 5.000000e+001
      vertex   6.178125e+002 -6.642188e+002 5.000000e+001
      vertex   5.578125e+002 -6.642188e+002 5.000000e+001
    endloop
  endfacet
  facet normal 2.984043e-017 1.156482e-016 1.000000e+000
    outer loop
      vertex   7.500000e+002 -6.983268e+002 5.000000e+001
      vertex   6.178125e+002 -6.042188e+002 5.000000e+001
      vertex   6.178125e+002 -6.642188e+002 5.000000e+001
    endloop
  endfacet
  facet normal -1.156482e-016 -5.691463e-018 1.000000e+000
    outer loop
      vertex   -5.758594e+002 -6.016406e+002 5.000000e+001
      vertex   -5.753840e+002 6.078765e+002 5.000000e+001
      vertex   -6.353840e+002 6.078765e+002 5.000000e+001
    endloop
  endfacet
  facet normal -1.156482e-016 1.080306e-016 1.000000e+000
    outer loop
      vertex   -5.758594e+002 -6.016406e+002 5.000000e+001
      vertex   6.169988e+002 6.110991e+002 5.000000e+001
      vertex   5.569988e+002 6.110991e+002 5.000000e+001
    endloop
  endfacet
  facet normal 0.000000e+000 8.089057e-017 1.000000e+000
    outer loop
      vertex   5.578125e+002 -6.642188e+002 5.000000e+001
      vertex   -7.048228e+002 -7.500000e+002 5.000000e+001
      vertex   7.080709e+002 -7.500000e+002 5.000000e+001
    endloop
  endfacet
  facet normal -5.249281e-017 0.000000e+000 1.000000e+000
    outer loop
      vertex   7.500000e+002 -6.983268e+002 5.000000e+001
      vertex   7.500000e+002 7.015748e+002 5.000000e+001
      vertex   6.178125e+002 -6.042188e+002 5.000000e+001
    endloop
  endfacet
  facet normal 6.144026e-018 -5.739327e-018 1.000000e+000
    outer loop
      vertex   -5.753840e+002 6.078765e+002 5.000000e+001
      vertex   -5.758594e+002 -6.016406e+002 5.000000e+001
      vertex   5.569988e+002 6.110991e+002 5.000000e+001
    endloop
  endfacet
  facet normal 0.000000e+000 0.000000e+000 1.000000e+000
    outer loop
      vertex   6.178125e+002 -6.642188e+002 5.000000e+001
      vertex   7.080709e+002 -7.500000e+002 5.000000e+001
      vertex   7.500000e+002 -6.983268e+002 5.000000e+001
    endloop
  endfacet
  facet normal 6.079250e-017 0.000000e+000 1.000000e+000
    outer loop
      vertex   -6.358594e+002 -6.016406e+002 5.000000e+001
      vertex   -7.500000e+002 6.918307e+002 5.000000e+001
      vertex   -7.500000e+002 -7.015748e+002 5.000000e+001
    endloop
  endfacet
  facet normal 0.000000e+000 -8.794444e-017 1.000000e+000
    outer loop
      vertex   5.569988e+002 6.710991e+002 5.000000e+001
      vertex   6.169988e+002 6.710991e+002 5.000000e+001
      vertex   7.015748e+002 7.500000e+002 5.000000e+001
    endloop
  endfacet
  facet normal 0.000000e+000 1.000000e+000 0.000000e+000
    outer loop
      vertex   -5.753840e+002 6.678765e+002 5.500000e+001
      vertex   -5.753840e+002 6.678765e+002 5.000000e+001
      vertex   -6.353840e+002 6.678765e+002 5.000000e+001
    endloop
  endfacet
  facet normal 0.000000e+000 1.000000e+000 0.000000e+000
    outer loop
      vertex   -6.353840e+002 6.678765e+002 5.000000e+001
      vertex   -6.353840e+002 6.678765e+002 5.500000e+001
      vertex   -5.753840e+002 6.678765e+002 5.500000e+001
    endloop
  endfacet
  facet normal -1.000000e+000 0.000000e+000 -0.000000e+000
    outer loop
      vertex   -6.353840e+002 6.678765e+002 5.500000e+001
      vertex   -6.353840e+002 6.678765e+002 5.000000e+001
      vertex   -6.353840e+002 6.078765e+002 5.000000e+001
    endloop
  endfacet
  facet normal -1.000000e+000 0.000000e+000 0.000000e+000
    outer loop
      vertex   -6.353840e+002 6.078765e+002 5.000000e+001
      vertex   -6.353840e+002 6.078765e+002 5.500000e+001
      vertex   -6.353840e+002 6.678765e+002 5.500000e+001
    endloop
  endfacet
  facet normal 0.000000e+000 -1.000000e+000 0.000000e+000
    outer loop
      vertex   -6.353840e+002 6.078765e+002 5.500000e+001
      vertex   -6.353840e+002 6.078765e+002 5.000000e+001
      vertex   -5.753840e+002 6.078765e+002 5.000000e+001
    endloop
  endfacet
  facet normal 0.000000e+000 -1.000000e+000 0.000000e+000
    outer loop
      vertex   -5.753840e+002 6.078765e+002 5.000000e+001
      vertex   -5.753840e+002 6.078765e+002 5.500000e+001
      vertex   -6.353840e+002 6.078765e+002 5.500000e+001
    endloop
  endfacet
  facet normal 1.000000e+000 0.000000e+000 0.000000e+000
    outer loop
      vertex   -5.753840e+002 6.678765e+002 5.500000e+001
      vertex   -5.753840e+002 6.078765e+002 5.500000e+001
      vertex   -5.753840e+002 6.078765e+002 5.000000e+001
    endloop
  endfacet
  facet normal 1.000000e+000 -0.000000e+000 0.000000e+000
    outer loop
      vertex   -5.753840e+002 6.078765e+002 5.000000e+001
      vertex   -5.753840e+002 6.678765e+002 5.000000e+001
      vertex   -5.753840e+002 6.678765e+002 5.500000e+001
    endloop
  endfacet
  facet normal 0.000000e+000 -0.000000e+000 1.000000e+000
    outer loop
      vertex   -5.753840e+002 6.078765e+002 5.500000e+001
      vertex   -5.753840e+002 6.678765e+002 5.500000e+001
      vertex   -6.353840e+002 6.678765e+002 5.500000e+001
    endloop
  endfacet
  facet normal 0.000000e+000 0.000000e+000 1.000000e+000
    outer loop
      vertex   -6.353840e+002 6.678765e+002 5.500000e+001
      vertex   -6.353840e+002 6.078765e+002 5.500000e+001
      vertex   -5.753840e+002 6.078765e+002 5.500000e+001
    endloop
  endfacet
  facet normal 0.000000e+000 1.000000e+000 0.000000e+000
    outer loop
      vertex   6.169988e+002 6.710991e+002 5.500000e+001
      vertex   6.169988e+002 6.710991e+002 5.000000e+001
      vertex   5.569988e+002 6.710991e+002 5.000000e+001
    endloop
  endfacet
  facet normal 0.000000e+000 1.000000e+000 0.000000e+000
    outer loop
      vertex   5.569988e+002 6.710991e+002 5.000000e+001
      vertex   5.569988e+002 6.710991e+002 5.500000e+001
      vertex   6.169988e+002 6.710991e+002 5.500000e+001
    endloop
  endfacet
  facet normal -1.000000e+000 0.000000e+000 -0.000000e+000
    outer loop
      vertex   5.569988e+002 6.710991e+002 5.500000e+001
      vertex   5.569988e+002 6.710991e+002 5.000000e+001
      vertex   5.569988e+002 6.110991e+002 5.000000e+001
    endloop
  endfacet
  facet normal -1.000000e+000 0.000000e+000 0.000000e+000
    outer loop
      vertex   5.569988e+002 6.110991e+002 5.000000e+001
      vertex   5.569988e+002 6.110991e+002 5.500000e+001
      vertex   5.569988e+002 6.710991e+002 5.500000e+001
    endloop
  endfacet
  facet normal 0.000000e+000 -1.000000e+000 0.000000e+000
    outer loop
      vertex   5.569988e+002 6.110991e+002 5.500000e+001
      vertex   5.569988e+002 6.110991e+002 5.000000e+001
      vertex   6.169988e+002 6.110991e+002 5.000000e+001
    endloop
  endfacet
  facet normal 0.000000e+000 -1.000000e+000 0.000000e+000
    outer loop
      vertex   6.169988e+002 6.110991e+002 5.000000e+001
      vertex   6.169988e+002 6.110991e+002 5.500000e+001
      vertex   5.569988e+002 6.110991e+002 5.500000e+001
    endloop
  endfacet
  facet normal 1.000000e+000 0.000000e+000 0.000000e+000
    outer loop
      vertex   6.169988e+002 6.710991e+002 5.500000e+001
      vertex   6.169988e+002 6.110991e+002 5.500000e+001
      vertex   6.169988e+002 6.110991e+002 5.000000e+001
    endloop
  endfacet
  facet normal 1.000000e+000 -0.000000e+000 0.000000e+000
    outer loop
      vertex   6.169988e+002 6.110991e+002 5.000000e+001
      vertex   6.169988e+002 6.710991e+002 5.000000e+001
      vertex   6.169988e+002 6.710991e+002 5.500000e+001
    endloop
  endfacet
  facet normal 0.000000e+000 -0.000000e+000 1.000000e+000
    outer loop
      vertex   6.169988e+002 6.110991e+002 5.500000e+001
      vertex   6.169988e+002 6.710991e+002 5.500000e+001
      vertex   5.569988e+002 6.710991e+002 5.500000e+001
    endloop
  endfacet
  facet normal 0.000000e+000 0.000000e+000 1.000000e+000
    outer loop
      vertex   5.569988e+002 6.710991e+002 5.500000e+001
      vertex   5.569988e+002 6.110991e+002 5.500000e+001
      vertex   6.169988e+002 6.110991e+002 5.500000e+001
    endloop
  endfacet
  facet normal 0.000000e+000 1.000000e+000 0.000000e+000
    outer loop
      vertex   6.178125e+002 -6.042188e+002 5.500000e+001
      vertex   6.178125e+002 -6.042188e+002 5.000000e+001
      vertex   5.578125e+002 -6.042188e+002 5.000000e+001
    endloop
  endfacet
  facet normal 0.000000e+000 1.000000e+000 0.000000e+000
    outer loop
      vertex   5.578125e+002 -6.042188e+002 5.000000e+001
      vertex   5.578125e+002 -6.042188e+002 5.500000e+001
      vertex   6.178125e+002 -6.042188e+002 5.500000e+001
    endloop
  endfacet
  facet normal -1.000000e+000 0.000000e+000 -0.000000e+000
    outer loop
      vertex   5.578125e+002 -6.042188e+002 5.500000e+001
      vertex   5.578125e+002 -6.042188e+002 5.000000e+001
      vertex   5.578125e+002 -6.642188e+002 5.000000e+001
    endloop
  endfacet
  facet normal -1.000000e+000 0.000000e+000 0.000000e+000
    outer loop
      vertex   5.578125e+002 -6.642188e+002 5.000000e+001
      vertex   5.578125e+002 -6.642188e+002 5.500000e+001
      vertex   5.578125e+002 -6.042188e+002 5.500000e+001
    endloop
  endfacet
  facet normal 0.000000e+000 -1.000000e+000 0.000000e+000
    outer loop
      vertex   5.578125e+002 -6.642188e+002 5.500000e+001
      vertex   5.578125e+002 -6.642188e+002 5.000000e+001
      vertex   6.178125e+002 -6.642188e+002 5.000000e+001
    endloop
  endfacet
  facet normal 0.000000e+000 -1.000000e+000 0.000000e+000
    outer loop
      vertex   6.178125e+002 -6.642188e+002 5.000000e+001
      vertex   6.178125e+002 -6.642188e+002 5.500000e+001
      vertex   5.578125e+002 -6.642188e+002 5.500000e+001
    endloop
  endfacet
  facet normal 1.000000e+000 0.000000e+000 0.000000e+000
    outer loop
      vertex   6.178125e+002 -6.042188e+002 5.500000e+001
      vertex   6.178125e+002 -6.642188e+002 5.500000e+001
      vertex   6.178125e+002 -6.642188e+002 5.000000e+001
    endloop
  endfacet
  facet normal 1.000000e+000 -0.000000e+000 0.000000e+000
    outer loop
      vertex   6.178125e+002 -6.642188e+002 5.000000e+001
      vertex   6.178125e+002 -6.042188e+002 5.000000e+001
      vertex   6.178125e+002 -6.042188e+002 5.500000e+001
    endloop
  endfacet
  facet normal 0.000000e+000 -0.000000e+000 1.000000e+000
    outer loop
      vertex   6.178125e+002 -6.642188e+002 5.500000e+001
      vertex   6.178125e+002 -6.042188e+002 5.500000e+001
      vertex   5.578125e+002 -6.042188e+002 5.500000e+001
    endloop
  endfacet
  facet normal 0.000000e+000 0.000000e+000 1.000000e+000
    outer loop
      vertex   5.578125e+002 -6.042188e+002 5.500000e+001
      vertex   5.578125e+002 -6.642188e+002 5.500000e+001
      vertex   6.178125e+002 -6.642188e+002 5.500000e+001
    endloop
  endfacet
  facet normal 0.000000e+000 1.000000e+000 0.000000e+000
    outer loop
      vertex   -5.758594e+002 -6.016406e+002 5.500000e+001
      vertex   -5.758594e+002 -6.016406e+002 5.000000e+001
      vertex   -6.358594e+002 -6.016406e+002 5.000000e+001
    endloop
  endfacet
  facet normal 0.000000e+000 1.000000e+000 0.000000e+000
    outer loop
      vertex   -6.358594e+002 -6.016406e+002 5.000000e+001
      vertex   -6.358594e+002 -6.016406e+002 5.500000e+001
      vertex   -5.758594e+002 -6.016406e+002 5.500000e+001
    endloop
  endfacet
  facet normal -1.000000e+000 0.000000e+000 -0.000000e+000
    outer loop
      vertex   -6.358594e+002 -6.016406e+002 5.500000e+001
      vertex   -6.358594e+002 -6.016406e+002 5.000000e+001
      vertex   -6.358594e+002 -6.616406e+002 5.000000e+001
    endloop
  endfacet
  facet normal -1.000000e+000 0.000000e+000 0.000000e+000
    outer loop
      vertex   -6.358594e+002 -6.616406e+002 5.000000e+001
      vertex   -6.358594e+002 -6.616406e+002 5.500000e+001
      vertex   -6.358594e+002 -6.016406e+002 5.500000e+001
    endloop
  endfacet
  facet normal 0.000000e+000 -1.000000e+000 0.000000e+000
    outer loop
      vertex   -6.358594e+002 -6.616406e+002 5.500000e+001
      vertex   -6.358594e+002 -6.616406e+002 5.000000e+001
      vertex   -5.758594e+002 -6.616406e+002 5.000000e+001
    endloop
  endfacet
  facet normal 0.000000e+000 -1.000000e+000 0.000000e+000
    outer loop
      vertex   -5.758594e+002 -6.616406e+002 5.000000e+001
      vertex   -5.758594e+002 -6.616406e+002 5.500000e+001
      vertex   -6.358594e+002 -6.616406e+002 5.500000e+001
    endloop
  endfacet
  facet normal 1.000000e+000 0.000000e+000 0.000000e+000
    outer loop
      vertex   -5.758594e+002 -6.016406e+002 5.500000e+001
      vertex   -5.758594e+002 -6.616406e+002 5.500000e+001
      vertex   -5.758594e+002 -6.616406e+002 5.000000e+001
    endloop
  endfacet
  facet normal 1.000000e+000 -0.000000e+000 0.000000e+000
    outer loop
      vertex   -5.758594e+002 -6.616406e+002 5.000000e+001
      vertex   -5.758594e+002 -6.016406e+002 5.000000e+001
      vertex   -5.758594e+002 -6.016406e+002 5.500000e+001
    endloop
  endfacet
  facet normal 0.000000e+000 -0.000000e+000 1.000000e+000
    outer loop
      vertex   -5.758594e+002 -6.616406e+002 5.500000e+001
      vertex   -5.758594e+002 -6.016406e+002 5.500000e+001
      vertex   -6.358594e+002 -6.016406e+002 5.500000e+001
    endloop
  endfacet
  facet normal 0.000000e+000 0.000000e+000 1.000000e+000
    outer loop
      vertex   -6.358594e+002 -6.016406e+002 5.500000e+001
      vertex   -6.358594e+002 -6.616406e+002 5.500000e+001
      vertex   -5.758594e+002 -6.616406e+002 5.500000e+001
    endloop
  endfacet
endsolid
