solid Mortero
   facet normal 1.000000e+000 0.000000e+000 -2.362177e-016
      outer loop
         vertex 1.950000e+003 3.600000e+002 0.000000e+000
         vertex 1.950000e+003 3.600000e+002 9.400000e+002
         vertex 1.950000e+003 0.000000e+000 0.000000e+000
      endloop
   endfacet
   facet normal 1.000000e+000 0.000000e+000 -2.362177e-016
      outer loop
         vertex 1.950000e+003 0.000000e+000 0.000000e+000
         vertex 1.950000e+003 3.600000e+002 9.400000e+002
         vertex 1.950000e+003 0.000000e+000 9.400000e+002
      endloop
   endfacet
   facet normal 0.000000e+000 0.000000e+000 -1.000000e+000
      outer loop
         vertex 0.000000e+000 3.600000e+002 0.000000e+000
         vertex 1.950000e+003 3.600000e+002 0.000000e+000
         vertex 0.000000e+000 0.000000e+000 0.000000e+000
      endloop
   endfacet
   facet normal 0.000000e+000 0.000000e+000 -1.000000e+000
      outer loop
         vertex 0.000000e+000 0.000000e+000 0.000000e+000
         vertex 1.950000e+003 3.600000e+002 0.000000e+000
         vertex 1.950000e+003 0.000000e+000 0.000000e+000
      endloop
   endfacet
   facet normal -1.000000e+000 0.000000e+000 1.181088e-016
      outer loop
         vertex 0.000000e+000 3.600000e+002 9.400000e+002
         vertex 0.000000e+000 3.600000e+002 0.000000e+000
         vertex 0.000000e+000 0.000000e+000 9.400000e+002
      endloop
   endfacet
   facet normal -1.000000e+000 0.000000e+000 1.181088e-016
      outer loop
         vertex 0.000000e+000 0.000000e+000 9.400000e+002
         vertex 0.000000e+000 3.600000e+002 0.000000e+000
         vertex 0.000000e+000 0.000000e+000 0.000000e+000
      endloop
   endfacet
   facet normal 0.000000e+000 0.000000e+000 1.000000e+000
      outer loop
         vertex 1.950000e+003 3.600000e+002 9.400000e+002
         vertex 0.000000e+000 3.600000e+002 9.400000e+002
         vertex 1.950000e+003 0.000000e+000 9.400000e+002
      endloop
   endfacet
   facet normal 0.000000e+000 0.000000e+000 1.000000e+000
      outer loop
         vertex 1.950000e+003 0.000000e+000 9.400000e+002
         vertex 0.000000e+000 3.600000e+002 9.400000e+002
         vertex 0.000000e+000 0.000000e+000 9.400000e+002
      endloop
   endfacet
   facet normal 0.000000e+000 1.000000e+000 0.000000e+000
      outer loop
         vertex 0.000000e+000 3.600000e+002 0.000000e+000
         vertex 0.000000e+000 3.600000e+002 9.400000e+002
         vertex 1.950000e+003 3.600000e+002 0.000000e+000
      endloop
   endfacet
   facet normal 0.000000e+000 1.000000e+000 0.000000e+000
      outer loop
         vertex 1.950000e+003 3.600000e+002 0.000000e+000
         vertex 0.000000e+000 3.600000e+002 9.400000e+002
         vertex 1.950000e+003 3.600000e+002 9.400000e+002
      endloop
   endfacet
   facet normal 0.000000e+000 -1.000000e+000 0.000000e+000
      outer loop
         vertex 0.000000e+000 0.000000e+000 9.400000e+002
         vertex 0.000000e+000 0.000000e+000 0.000000e+000
         vertex 1.950000e+003 0.000000e+000 9.400000e+002
      endloop
   endfacet
   facet normal 0.000000e+000 -1.000000e+000 0.000000e+000
      outer loop
         vertex 1.950000e+003 0.000000e+000 9.400000e+002
         vertex 0.000000e+000 0.000000e+000 0.000000e+000
         vertex 1.950000e+003 0.000000e+000 0.000000e+000
      endloop
   endfacet
endsolid