solid MorteroMotor
  facet normal 0.000000e+000 -1.000000e+000 0.000000e+000
    outer loop
      vertex   1.296632e+001 -7.750000e+002 2.407054e+001
      vertex   5.544207e+002 -7.750000e+002 2.407054e+001
      vertex   5.544207e+002 -7.750000e+002 7.346111e+001
    endloop
  endfacet
  facet normal -0.000000e+000 -1.000000e+000 0.000000e+000
    outer loop
      vertex   5.544207e+002 -7.750000e+002 7.346111e+001
      vertex   1.296632e+001 -7.750000e+002 7.403304e+001
      vertex   1.296632e+001 -7.750000e+002 2.407054e+001
    endloop
  endfacet
  facet normal 0.000000e+000 0.000000e+000 1.000000e+000
    outer loop
      vertex   5.544207e+002 -7.750000e+002 2.407054e+001
      vertex   1.296632e+001 -7.750000e+002 2.407054e+001
      vertex   1.296632e+001 -8.000000e+002 2.407054e+001
    endloop
  endfacet
  facet normal 0.000000e+000 0.000000e+000 1.000000e+000
    outer loop
      vertex   1.296632e+001 -8.000000e+002 2.407054e+001
      vertex   5.544207e+002 -8.000000e+002 2.407054e+001
      vertex   5.544207e+002 -7.750000e+002 2.407054e+001
    endloop
  endfacet
  facet normal -1.056273e-003 1.201433e-017 -9.999994e-001
    outer loop
      vertex   5.544207e+002 -8.000000e+002 7.346111e+001
      vertex   1.296632e+001 -8.000000e+002 7.403304e+001
      vertex   1.296632e+001 -7.750000e+002 7.403304e+001
    endloop
  endfacet
  facet normal -1.056273e-003 0.000000e+000 -9.999994e-001
    outer loop
      vertex   1.296632e+001 -7.750000e+002 7.403304e+001
      vertex   5.544207e+002 -7.750000e+002 7.346111e+001
      vertex   5.544207e+002 -8.000000e+002 7.346111e+001
    endloop
  endfacet
  facet normal -1.000000e+000 0.000000e+000 0.000000e+000
    outer loop
      vertex   5.544207e+002 -7.750000e+002 2.407054e+001
      vertex   5.544207e+002 -8.000000e+002 2.407054e+001
      vertex   5.544207e+002 -8.000000e+002 7.346111e+001
    endloop
  endfacet
  facet normal -1.000000e+000 0.000000e+000 0.000000e+000
    outer loop
      vertex   5.544207e+002 -8.000000e+002 7.346111e+001
      vertex   5.544207e+002 -7.750000e+002 7.346111e+001
      vertex   5.544207e+002 -7.750000e+002 2.407054e+001
    endloop
  endfacet
  facet normal 1.000000e+000 -8.881784e-015 6.666338e-015
    outer loop
      vertex   1.296632e+001 -7.750000e+002 7.403304e+001
      vertex   1.296632e+001 -8.000000e+002 7.403304e+001
      vertex   1.296632e+001 -8.000000e+002 2.407054e+001
    endloop
  endfacet
  facet normal 1.000000e+000 5.828671e-015 -6.944102e-016
    outer loop
      vertex   1.296632e+001 -8.000000e+002 2.407054e+001
      vertex   1.296632e+001 -7.750000e+002 2.407054e+001
      vertex   1.296632e+001 -7.750000e+002 7.403304e+001
    endloop
  endfacet
  facet normal 0.000000e+000 -1.000000e+000 0.000000e+000
    outer loop
      vertex   -2.253662e+001 -8.000000e+002 2.407054e+001
      vertex   1.296632e+001 -8.000000e+002 2.407054e+001
      vertex   1.296632e+001 -8.000000e+002 7.403304e+001
    endloop
  endfacet
  facet normal -2.109779e-016 -1.000000e+000 -4.698594e-015
    outer loop
      vertex   -6.000000e+002 -8.000000e+002 1.000000e+002
      vertex   -5.614409e+002 -8.000000e+002 7.463977e+001
      vertex   -2.253662e+001 -8.000000e+002 7.407054e+001
    endloop
  endfacet
  facet normal -2.435807e-015 -1.000000e+000 0.000000e+000
    outer loop
      vertex   6.000000e+002 -8.000000e+002 0.000000e+000
      vertex   6.000000e+002 -8.000000e+002 1.000000e+002
      vertex   5.544207e+002 -8.000000e+002 7.346111e+001
    endloop
  endfacet
  facet normal -0.000000e+000 -1.000000e+000 -4.275521e-015
    outer loop
      vertex   6.000000e+002 -8.000000e+002 1.000000e+002
      vertex   -6.000000e+002 -8.000000e+002 1.000000e+002
      vertex   1.296632e+001 -8.000000e+002 7.403304e+001
    endloop
  endfacet
  facet normal 3.202464e-015 -1.000000e+000 7.132063e-014
    outer loop
      vertex   -2.253662e+001 -8.000000e+002 7.407054e+001
      vertex   1.296632e+001 -8.000000e+002 7.403304e+001
      vertex   -6.000000e+002 -8.000000e+002 1.000000e+002
    endloop
  endfacet
  facet normal 0.000000e+000 -1.000000e+000 4.612373e-015
    outer loop
      vertex   6.000000e+002 -8.000000e+002 0.000000e+000
      vertex   5.544207e+002 -8.000000e+002 2.407054e+001
      vertex   1.296632e+001 -8.000000e+002 2.407054e+001
    endloop
  endfacet
  facet normal -4.410795e-018 -1.000000e+000 -4.175807e-015
    outer loop
      vertex   1.296632e+001 -8.000000e+002 7.403304e+001
      vertex   5.544207e+002 -8.000000e+002 7.346111e+001
      vertex   6.000000e+002 -8.000000e+002 1.000000e+002
    endloop
  endfacet
  facet normal 0.000000e+000 -1.000000e+000 4.612373e-015
    outer loop
      vertex   1.296632e+001 -8.000000e+002 2.407054e+001
      vertex   -2.253662e+001 -8.000000e+002 2.407054e+001
      vertex   6.000000e+002 -8.000000e+002 0.000000e+000
    endloop
  endfacet
  facet normal 2.879278e-015 -1.000000e+000 3.160658e-029
    outer loop
      vertex   -6.000000e+002 -8.000000e+002 -3.469447e-015
      vertex   -5.614409e+002 -8.000000e+002 2.407054e+001
      vertex   -5.614409e+002 -8.000000e+002 7.463977e+001
    endloop
  endfacet
  facet normal -1.333532e-032 -1.000000e+000 4.612373e-015
    outer loop
      vertex   -6.000000e+002 -8.000000e+002 -3.469447e-015
      vertex   6.000000e+002 -8.000000e+002 0.000000e+000
      vertex   -2.253662e+001 -8.000000e+002 2.407054e+001
    endloop
  endfacet
  facet normal 3.124784e-015 -1.000000e+000 -2.220446e-015
    outer loop
      vertex   1.296632e+001 -8.000000e+002 7.403304e+001
      vertex   -2.253662e+001 -8.000000e+002 7.407054e+001
      vertex   -2.253662e+001 -8.000000e+002 2.407054e+001
    endloop
  endfacet
  facet normal 0.000000e+000 -1.000000e+000 4.612373e-015
    outer loop
      vertex   -2.253662e+001 -8.000000e+002 2.407054e+001
      vertex   -5.614409e+002 -8.000000e+002 2.407054e+001
      vertex   -6.000000e+002 -8.000000e+002 -3.469447e-015
    endloop
  endfacet
  facet normal 2.879278e-015 -1.000000e+000 0.000000e+000
    outer loop
      vertex   -5.614409e+002 -8.000000e+002 7.463977e+001
      vertex   -6.000000e+002 -8.000000e+002 1.000000e+002
      vertex   -6.000000e+002 -8.000000e+002 -3.469447e-015
    endloop
  endfacet
  facet normal -2.435807e-015 -1.000000e+000 -0.000000e+000
    outer loop
      vertex   5.544207e+002 -8.000000e+002 7.346111e+001
      vertex   5.544207e+002 -8.000000e+002 2.407054e+001
      vertex   6.000000e+002 -8.000000e+002 0.000000e+000
    endloop
  endfacet
  facet normal 1.000000e+000 0.000000e+000 1.097726e-014
    outer loop
      vertex   -5.614409e+002 -7.750000e+002 7.463977e+001
      vertex   -5.614409e+002 -8.000000e+002 7.463977e+001
      vertex   -5.614409e+002 -8.000000e+002 2.407054e+001
    endloop
  endfacet
  facet normal 1.000000e+000 -4.440892e-015 1.317271e-014
    outer loop
      vertex   -5.614409e+002 -8.000000e+002 2.407054e+001
      vertex   -5.614409e+002 -7.750000e+002 2.407054e+001
      vertex   -5.614409e+002 -7.750000e+002 7.463977e+001
    endloop
  endfacet
  facet normal 0.000000e+000 -1.000000e+000 0.000000e+000
    outer loop
      vertex   -5.614409e+002 -7.750000e+002 2.407054e+001
      vertex   -2.253662e+001 -7.750000e+002 2.407054e+001
      vertex   -2.253662e+001 -7.750000e+002 7.407054e+001
    endloop
  endfacet
  facet normal -0.000000e+000 -1.000000e+000 0.000000e+000
    outer loop
      vertex   -2.253662e+001 -7.750000e+002 7.407054e+001
      vertex   -5.614409e+002 -7.750000e+002 7.463977e+001
      vertex   -5.614409e+002 -7.750000e+002 2.407054e+001
    endloop
  endfacet
  facet normal 0.000000e+000 0.000000e+000 1.000000e+000
    outer loop
      vertex   -5.614409e+002 -8.000000e+002 2.407054e+001
      vertex   -2.253662e+001 -8.000000e+002 2.407054e+001
      vertex   -2.253662e+001 -7.750000e+002 2.407054e+001
    endloop
  endfacet
  facet normal 0.000000e+000 0.000000e+000 1.000000e+000
    outer loop
      vertex   -2.253662e+001 -7.750000e+002 2.407054e+001
      vertex   -5.614409e+002 -7.750000e+002 2.407054e+001
      vertex   -5.614409e+002 -8.000000e+002 2.407054e+001
    endloop
  endfacet
  facet normal -1.056273e-003 0.000000e+000 -9.999994e-001
    outer loop
      vertex   -5.614409e+002 -8.000000e+002 7.463977e+001
      vertex   -5.614409e+002 -7.750000e+002 7.463977e+001
      vertex   -2.253662e+001 -7.750000e+002 7.407054e+001
    endloop
  endfacet
  facet normal -1.056273e-003 -1.260651e-017 -9.999994e-001
    outer loop
      vertex   -2.253662e+001 -7.750000e+002 7.407054e+001
      vertex   -2.253662e+001 -8.000000e+002 7.407054e+001
      vertex   -5.614409e+002 -8.000000e+002 7.463977e+001
    endloop
  endfacet
  facet normal -1.000000e+000 -8.881784e-015 -4.440892e-015
    outer loop
      vertex   -2.253662e+001 -7.750000e+002 7.407054e+001
      vertex   -2.253662e+001 -7.750000e+002 2.407054e+001
      vertex   -2.253662e+001 -8.000000e+002 2.407054e+001
    endloop
  endfacet
  facet normal -1.000000e+000 -1.193490e-014 -2.914335e-015
    outer loop
      vertex   -2.253662e+001 -8.000000e+002 2.407054e+001
      vertex   -2.253662e+001 -8.000000e+002 7.407054e+001
      vertex   -2.253662e+001 -7.750000e+002 7.407054e+001
    endloop
  endfacet
  facet normal 2.891206e-018 0.000000e+000 -1.000000e+000
    outer loop
      vertex   6.000000e+002 -8.000000e+002 0.000000e+000
      vertex   -6.000000e+002 -8.000000e+002 -3.469447e-015
      vertex   -6.000000e+002 8.000000e+002 -3.469447e-015
    endloop
  endfacet
  facet normal 0.000000e+000 -2.168404e-018 -1.000000e+000
    outer loop
      vertex   -6.000000e+002 8.000000e+002 -3.469447e-015
      vertex   6.000000e+002 8.000000e+002 -3.469447e-015
      vertex   6.000000e+002 -8.000000e+002 0.000000e+000
    endloop
  endfacet
  facet normal 0.000000e+000 -2.775558e-016 1.000000e+000
    outer loop
      vertex   6.000000e+002 8.000000e+002 1.000000e+002
      vertex   -6.000000e+002 8.000000e+002 1.000000e+002
      vertex   -5.500000e+002 7.500000e+002 1.000000e+002
    endloop
  endfacet
  facet normal 2.775558e-016 0.000000e+000 1.000000e+000
    outer loop
      vertex   -6.000000e+002 8.000000e+002 1.000000e+002
      vertex   -6.000000e+002 -8.000000e+002 1.000000e+002
      vertex   -5.500000e+002 -7.500000e+002 1.000000e+002
    endloop
  endfacet
  facet normal 2.775558e-016 -0.000000e+000 1.000000e+000
    outer loop
      vertex   -5.500000e+002 -7.500000e+002 1.000000e+002
      vertex   -5.500000e+002 7.500000e+002 1.000000e+002
      vertex   -6.000000e+002 8.000000e+002 1.000000e+002
    endloop
  endfacet
  facet normal 0.000000e+000 0.000000e+000 1.000000e+000
    outer loop
      vertex   -6.000000e+002 -8.000000e+002 1.000000e+002
      vertex   6.000000e+002 -8.000000e+002 1.000000e+002
      vertex   5.500000e+002 -7.500000e+002 1.000000e+002
    endloop
  endfacet
  facet normal -1.261617e-017 2.901719e-016 1.000000e+000
    outer loop
      vertex   5.500000e+002 -7.500000e+002 1.000000e+002
      vertex   -5.500000e+002 -7.500000e+002 1.000000e+002
      vertex   -6.000000e+002 -8.000000e+002 1.000000e+002
    endloop
  endfacet
  facet normal -2.775558e-016 0.000000e+000 1.000000e+000
    outer loop
      vertex   6.000000e+002 -8.000000e+002 1.000000e+002
      vertex   6.000000e+002 8.000000e+002 1.000000e+002
      vertex   5.500000e+002 7.500000e+002 1.000000e+002
    endloop
  endfacet
  facet normal 9.251859e-018 9.251859e-018 1.000000e+000
    outer loop
      vertex   5.500000e+002 7.500000e+002 1.000000e+002
      vertex   5.500000e+002 -7.500000e+002 1.000000e+002
      vertex   6.000000e+002 -8.000000e+002 1.000000e+002
    endloop
  endfacet
  facet normal 0.000000e+000 -2.775558e-016 1.000000e+000
    outer loop
      vertex   -5.500000e+002 7.500000e+002 1.000000e+002
      vertex   5.500000e+002 7.500000e+002 1.000000e+002
      vertex   6.000000e+002 8.000000e+002 1.000000e+002
    endloop
  endfacet
  facet normal 0.000000e+000 -1.000000e+000 0.000000e+000
    outer loop
      vertex   5.500000e+002 7.500000e+002 8.000000e+001
      vertex   5.500000e+002 7.500000e+002 1.000000e+002
      vertex   -5.500000e+002 7.500000e+002 1.000000e+002
    endloop
  endfacet
  facet normal 0.000000e+000 -1.000000e+000 0.000000e+000
    outer loop
      vertex   -5.500000e+002 7.500000e+002 1.000000e+002
      vertex   -5.500000e+002 7.500000e+002 8.000000e+001
      vertex   5.500000e+002 7.500000e+002 8.000000e+001
    endloop
  endfacet
  facet normal 1.000000e+000 0.000000e+000 -0.000000e+000
    outer loop
      vertex   -5.500000e+002 7.500000e+002 8.000000e+001
      vertex   -5.500000e+002 7.500000e+002 1.000000e+002
      vertex   -5.500000e+002 -7.500000e+002 1.000000e+002
    endloop
  endfacet
  facet normal 1.000000e+000 0.000000e+000 0.000000e+000
    outer loop
      vertex   -5.500000e+002 -7.500000e+002 1.000000e+002
      vertex   -5.500000e+002 -7.500000e+002 8.000000e+001
      vertex   -5.500000e+002 7.500000e+002 8.000000e+001
    endloop
  endfacet
  facet normal 0.000000e+000 1.000000e+000 0.000000e+000
    outer loop
      vertex   -5.500000e+002 -7.500000e+002 8.000000e+001
      vertex   -5.500000e+002 -7.500000e+002 1.000000e+002
      vertex   5.500000e+002 -7.500000e+002 1.000000e+002
    endloop
  endfacet
  facet normal 0.000000e+000 1.000000e+000 0.000000e+000
    outer loop
      vertex   5.500000e+002 -7.500000e+002 1.000000e+002
      vertex   5.500000e+002 -7.500000e+002 8.000000e+001
      vertex   -5.500000e+002 -7.500000e+002 8.000000e+001
    endloop
  endfacet
  facet normal -1.000000e+000 0.000000e+000 0.000000e+000
    outer loop
      vertex   5.500000e+002 -7.500000e+002 8.000000e+001
      vertex   5.500000e+002 -7.500000e+002 1.000000e+002
      vertex   5.500000e+002 7.500000e+002 1.000000e+002
    endloop
  endfacet
  facet normal -1.000000e+000 0.000000e+000 -0.000000e+000
    outer loop
      vertex   5.500000e+002 7.500000e+002 1.000000e+002
      vertex   5.500000e+002 7.500000e+002 8.000000e+001
      vertex   5.500000e+002 -7.500000e+002 8.000000e+001
    endloop
  endfacet
  facet normal 0.000000e+000 -0.000000e+000 1.000000e+000
    outer loop
      vertex   5.500000e+002 -7.500000e+002 8.000000e+001
      vertex   5.500000e+002 7.500000e+002 8.000000e+001
      vertex   -5.500000e+002 7.500000e+002 8.000000e+001
    endloop
  endfacet
  facet normal 0.000000e+000 0.000000e+000 1.000000e+000
    outer loop
      vertex   -5.500000e+002 7.500000e+002 8.000000e+001
      vertex   -5.500000e+002 -7.500000e+002 8.000000e+001
      vertex   5.500000e+002 -7.500000e+002 8.000000e+001
    endloop
  endfacet
  facet normal 2.892439e-015 1.000000e+000 6.441620e-014
    outer loop
      vertex   -6.000000e+002 8.000000e+002 1.000000e+002
      vertex   1.677169e+001 8.000000e+002 7.402902e+001
      vertex   -2.253662e+001 8.000000e+002 7.407054e+001
    endloop
  endfacet
  facet normal 2.822052e-015 1.000000e+000 -2.220446e-015
    outer loop
      vertex   -2.253662e+001 8.000000e+002 2.407054e+001
      vertex   -2.253662e+001 8.000000e+002 7.407054e+001
      vertex   1.677169e+001 8.000000e+002 7.402902e+001
    endloop
  endfacet
  facet normal -2.061219e-016 1.000000e+000 3.540046e-016
    outer loop
      vertex   6.000000e+002 8.000000e+002 1.000000e+002
      vertex   5.544207e+002 8.000000e+002 7.346111e+001
      vertex   1.677169e+001 8.000000e+002 7.402902e+001
    endloop
  endfacet
  facet normal 0.000000e+000 1.000000e+000 0.000000e+000
    outer loop
      vertex   6.000000e+002 8.000000e+002 -3.469447e-015
      vertex   5.544207e+002 8.000000e+002 2.407054e+001
      vertex   5.544207e+002 8.000000e+002 7.346111e+001
    endloop
  endfacet
  facet normal 0.000000e+000 1.000000e+000 4.612373e-015
    outer loop
      vertex   6.000000e+002 8.000000e+002 -3.469447e-015
      vertex   -2.253662e+001 8.000000e+002 2.407054e+001
      vertex   1.677169e+001 8.000000e+002 2.407054e+001
    endloop
  endfacet
  facet normal 0.000000e+000 1.000000e+000 0.000000e+000
    outer loop
      vertex   1.677169e+001 8.000000e+002 7.402902e+001
      vertex   1.677169e+001 8.000000e+002 2.407054e+001
      vertex   -2.253662e+001 8.000000e+002 2.407054e+001
    endloop
  endfacet
  facet normal -0.000000e+000 1.000000e+000 0.000000e+000
    outer loop
      vertex   5.544207e+002 8.000000e+002 7.346111e+001
      vertex   6.000000e+002 8.000000e+002 1.000000e+002
      vertex   6.000000e+002 8.000000e+002 -3.469447e-015
    endloop
  endfacet
  facet normal 0.000000e+000 1.000000e+000 0.000000e+000
    outer loop
      vertex   -2.253662e+001 8.000000e+002 7.407054e+001
      vertex   -5.614409e+002 8.000000e+002 7.463977e+001
      vertex   -6.000000e+002 8.000000e+002 1.000000e+002
    endloop
  endfacet
  facet normal 2.060149e-016 1.000000e+000 -3.300194e-016
    outer loop
      vertex   -6.000000e+002 8.000000e+002 -3.469447e-015
      vertex   -5.614409e+002 8.000000e+002 2.407054e+001
      vertex   -2.253662e+001 8.000000e+002 2.407054e+001
    endloop
  endfacet
  facet normal 0.000000e+000 1.000000e+000 0.000000e+000
    outer loop
      vertex   -6.000000e+002 8.000000e+002 -3.469447e-015
      vertex   -6.000000e+002 8.000000e+002 1.000000e+002
      vertex   -5.614409e+002 8.000000e+002 7.463977e+001
    endloop
  endfacet
  facet normal -2.064959e-016 1.000000e+000 -3.910146e-016
    outer loop
      vertex   1.677169e+001 8.000000e+002 2.407054e+001
      vertex   5.544207e+002 8.000000e+002 2.407054e+001
      vertex   6.000000e+002 8.000000e+002 -3.469447e-015
    endloop
  endfacet
  facet normal 0.000000e+000 1.000000e+000 0.000000e+000
    outer loop
      vertex   -5.614409e+002 8.000000e+002 7.463977e+001
      vertex   -5.614409e+002 8.000000e+002 2.407054e+001
      vertex   -6.000000e+002 8.000000e+002 -3.469447e-015
    endloop
  endfacet
  facet normal 0.000000e+000 1.000000e+000 4.612373e-015
    outer loop
      vertex   -2.253662e+001 8.000000e+002 2.407054e+001
      vertex   6.000000e+002 8.000000e+002 -3.469447e-015
      vertex   -6.000000e+002 8.000000e+002 -3.469447e-015
    endloop
  endfacet
  facet normal 0.000000e+000 1.000000e+000 -4.274860e-015
    outer loop
      vertex   1.677169e+001 8.000000e+002 7.402902e+001
      vertex   -6.000000e+002 8.000000e+002 1.000000e+002
      vertex   6.000000e+002 8.000000e+002 1.000000e+002
    endloop
  endfacet
  facet normal -1.000000e+000 0.000000e+000 0.000000e+000
    outer loop
      vertex   5.544207e+002 7.737544e+002 7.346111e+001
      vertex   5.544207e+002 8.000000e+002 7.346111e+001
      vertex   5.544207e+002 8.000000e+002 2.407054e+001
    endloop
  endfacet
  facet normal -1.000000e+000 0.000000e+000 0.000000e+000
    outer loop
      vertex   5.544207e+002 8.000000e+002 2.407054e+001
      vertex   5.544207e+002 7.737544e+002 2.407054e+001
      vertex   5.544207e+002 7.737544e+002 7.346111e+001
    endloop
  endfacet
  facet normal 0.000000e+000 1.000000e+000 -0.000000e+000
    outer loop
      vertex   -5.614409e+002 7.737544e+002 2.407054e+001
      vertex   -5.614409e+002 7.737544e+002 7.463977e+001
      vertex   5.544207e+002 7.737544e+002 7.346111e+001
    endloop
  endfacet
  facet normal 0.000000e+000 1.000000e+000 0.000000e+000
    outer loop
      vertex   5.544207e+002 7.737544e+002 7.346111e+001
      vertex   5.544207e+002 7.737544e+002 2.407054e+001
      vertex   -5.614409e+002 7.737544e+002 2.407054e+001
    endloop
  endfacet
  facet normal 1.000000e+000 -9.287054e-030 1.317271e-014
    outer loop
      vertex   -5.614409e+002 7.737544e+002 7.463977e+001
      vertex   -5.614409e+002 7.737544e+002 2.407054e+001
      vertex   -5.614409e+002 8.000000e+002 2.407054e+001
    endloop
  endfacet
  facet normal 1.000000e+000 -1.692054e-014 4.390903e-015
    outer loop
      vertex   -5.614409e+002 8.000000e+002 2.407054e+001
      vertex   -5.614409e+002 8.000000e+002 7.463977e+001
      vertex   -5.614409e+002 7.737544e+002 7.463977e+001
    endloop
  endfacet
  facet normal -1.056273e-003 7.566602e-015 -9.999994e-001
    outer loop
      vertex   5.544207e+002 7.737544e+002 7.346111e+001
      vertex   -5.614409e+002 7.737544e+002 7.463977e+001
      vertex   -2.253662e+001 7.750000e+002 7.407054e+001
    endloop
  endfacet
  facet normal -1.056273e-003 -2.325115e-014 -9.999994e-001
    outer loop
      vertex   -2.253662e+001 7.750000e+002 7.407054e+001
      vertex   1.677169e+001 7.750000e+002 7.402902e+001
      vertex   5.544207e+002 7.737544e+002 7.346111e+001
    endloop
  endfacet
  facet normal -1.056273e-003 0.000000e+000 -9.999994e-001
    outer loop
      vertex   1.677169e+001 7.750000e+002 7.402902e+001
      vertex   5.544207e+002 8.000000e+002 7.346111e+001
      vertex   5.544207e+002 7.737544e+002 7.346111e+001
    endloop
  endfacet
  facet normal -1.056273e-003 0.000000e+000 -9.999994e-001
    outer loop
      vertex   1.677169e+001 7.750000e+002 7.402902e+001
      vertex   1.677169e+001 8.000000e+002 7.402902e+001
      vertex   5.544207e+002 8.000000e+002 7.346111e+001
    endloop
  endfacet
  facet normal -1.056273e-003 0.000000e+000 -9.999994e-001
    outer loop
      vertex   -5.614409e+002 8.000000e+002 7.463977e+001
      vertex   -2.253662e+001 8.000000e+002 7.407054e+001
      vertex   -2.253662e+001 7.750000e+002 7.407054e+001
    endloop
  endfacet
  facet normal -1.056273e-003 1.533106e-017 -9.999994e-001
    outer loop
      vertex   -2.253662e+001 7.750000e+002 7.407054e+001
      vertex   -5.614409e+002 7.737544e+002 7.463977e+001
      vertex   -5.614409e+002 8.000000e+002 7.463977e+001
    endloop
  endfacet
  facet normal 0.000000e+000 0.000000e+000 1.000000e+000
    outer loop
      vertex   5.544207e+002 7.737544e+002 2.407054e+001
      vertex   1.677169e+001 7.750000e+002 2.407054e+001
      vertex   -2.253662e+001 7.750000e+002 2.407054e+001
    endloop
  endfacet
  facet normal 0.000000e+000 0.000000e+000 1.000000e+000
    outer loop
      vertex   -2.253662e+001 7.750000e+002 2.407054e+001
      vertex   -5.614409e+002 7.737544e+002 2.407054e+001
      vertex   5.544207e+002 7.737544e+002 2.407054e+001
    endloop
  endfacet
  facet normal 1.222146e-018 -5.287667e-016 1.000000e+000
    outer loop
      vertex   -2.253662e+001 7.750000e+002 2.407054e+001
      vertex   -5.614409e+002 8.000000e+002 2.407054e+001
      vertex   -5.614409e+002 7.737544e+002 2.407054e+001
    endloop
  endfacet
  facet normal 2.575186e-017 -0.000000e+000 1.000000e+000
    outer loop
      vertex   -2.253662e+001 7.750000e+002 2.407054e+001
      vertex   -2.253662e+001 8.000000e+002 2.407054e+001
      vertex   -5.614409e+002 8.000000e+002 2.407054e+001
    endloop
  endfacet
  facet normal 0.000000e+000 0.000000e+000 1.000000e+000
    outer loop
      vertex   5.544207e+002 8.000000e+002 2.407054e+001
      vertex   1.677169e+001 8.000000e+002 2.407054e+001
      vertex   1.677169e+001 7.750000e+002 2.407054e+001
    endloop
  endfacet
  facet normal -0.000000e+000 0.000000e+000 1.000000e+000
    outer loop
      vertex   1.677169e+001 7.750000e+002 2.407054e+001
      vertex   5.544207e+002 7.737544e+002 2.407054e+001
      vertex   5.544207e+002 8.000000e+002 2.407054e+001
    endloop
  endfacet
  facet normal 1.000000e+000 1.165734e-014 3.055651e-015
    outer loop
      vertex   1.677169e+001 7.750000e+002 2.407054e+001
      vertex   1.677169e+001 8.000000e+002 2.407054e+001
      vertex   1.677169e+001 8.000000e+002 7.402902e+001
    endloop
  endfacet
  facet normal 1.000000e+000 0.000000e+000 8.889166e-015
    outer loop
      vertex   1.677169e+001 8.000000e+002 7.402902e+001
      vertex   1.677169e+001 7.750000e+002 7.402902e+001
      vertex   1.677169e+001 7.750000e+002 2.407054e+001
    endloop
  endfacet
  facet normal -1.000000e+000 1.665335e-015 -2.220446e-015
    outer loop
      vertex   -2.253662e+001 7.750000e+002 7.407054e+001
      vertex   -2.253662e+001 8.000000e+002 7.407054e+001
      vertex   -2.253662e+001 8.000000e+002 2.407054e+001
    endloop
  endfacet
  facet normal -1.000000e+000 -0.000000e+000 -3.053113e-015
    outer loop
      vertex   -2.253662e+001 8.000000e+002 2.407054e+001
      vertex   -2.253662e+001 7.750000e+002 2.407054e+001
      vertex   -2.253662e+001 7.750000e+002 7.407054e+001
    endloop
  endfacet
  facet normal 0.000000e+000 -1.000000e+000 0.000000e+000
    outer loop
      vertex   -2.253662e+001 7.750000e+002 2.407054e+001
      vertex   1.677169e+001 7.750000e+002 2.407054e+001
      vertex   1.677169e+001 7.750000e+002 7.402902e+001
    endloop
  endfacet
  facet normal -0.000000e+000 -1.000000e+000 0.000000e+000
    outer loop
      vertex   1.677169e+001 7.750000e+002 7.402902e+001
      vertex   -2.253662e+001 7.750000e+002 7.407054e+001
      vertex   -2.253662e+001 7.750000e+002 2.407054e+001
    endloop
  endfacet
  facet normal 1.000000e+000 0.000000e+000 0.000000e+000
    outer loop
      vertex   6.000000e+002 -8.000000e+002 1.000000e+002
      vertex   6.000000e+002 -7.749292e+002 7.633404e+001
      vertex   6.000000e+002 -2.500103e+001 7.633404e+001
    endloop
  endfacet
  facet normal 1.000000e+000 0.000000e+000 0.000000e+000
    outer loop
      vertex   6.000000e+002 -8.000000e+002 1.000000e+002
      vertex   6.000000e+002 -8.000000e+002 0.000000e+000
      vertex   6.000000e+002 -7.749292e+002 2.633404e+001
    endloop
  endfacet
  facet normal 1.000000e+000 0.000000e+000 0.000000e+000
    outer loop
      vertex   6.000000e+002 -2.500103e+001 7.633404e+001
      vertex   6.000000e+002 -2.500103e+001 2.633404e+001
      vertex   6.000000e+002 2.375545e+001 2.633404e+001
    endloop
  endfacet
  facet normal 1.000000e+000 0.000000e+000 0.000000e+000
    outer loop
      vertex   6.000000e+002 8.000000e+002 -3.469447e-015
      vertex   6.000000e+002 7.736837e+002 2.633404e+001
      vertex   6.000000e+002 2.375545e+001 2.633404e+001
    endloop
  endfacet
  facet normal 1.000000e+000 0.000000e+000 -0.000000e+000
    outer loop
      vertex   6.000000e+002 -7.749292e+002 2.633404e+001
      vertex   6.000000e+002 -7.749292e+002 7.633404e+001
      vertex   6.000000e+002 -8.000000e+002 1.000000e+002
    endloop
  endfacet
  facet normal 1.000000e+000 -0.000000e+000 0.000000e+000
    outer loop
      vertex   6.000000e+002 -8.000000e+002 0.000000e+000
      vertex   6.000000e+002 8.000000e+002 -3.469447e-015
      vertex   6.000000e+002 -2.500103e+001 2.633404e+001
    endloop
  endfacet
  facet normal 1.000000e+000 0.000000e+000 0.000000e+000
    outer loop
      vertex   6.000000e+002 8.000000e+002 1.000000e+002
      vertex   6.000000e+002 7.736837e+002 7.633404e+001
      vertex   6.000000e+002 7.736837e+002 2.633404e+001
    endloop
  endfacet
  facet normal 1.000000e+000 0.000000e+000 0.000000e+000
    outer loop
      vertex   6.000000e+002 8.000000e+002 1.000000e+002
      vertex   6.000000e+002 -8.000000e+002 1.000000e+002
      vertex   6.000000e+002 2.375545e+001 7.633404e+001
    endloop
  endfacet
  facet normal 1.000000e+000 0.000000e+000 0.000000e+000
    outer loop
      vertex   6.000000e+002 2.375545e+001 2.633404e+001
      vertex   6.000000e+002 -2.500103e+001 2.633404e+001
      vertex   6.000000e+002 8.000000e+002 -3.469447e-015
    endloop
  endfacet
  facet normal 1.000000e+000 0.000000e+000 0.000000e+000
    outer loop
      vertex   6.000000e+002 -2.500103e+001 2.633404e+001
      vertex   6.000000e+002 -7.749292e+002 2.633404e+001
      vertex   6.000000e+002 -8.000000e+002 0.000000e+000
    endloop
  endfacet
  facet normal 1.000000e+000 -0.000000e+000 0.000000e+000
    outer loop
      vertex   6.000000e+002 2.375545e+001 7.633404e+001
      vertex   6.000000e+002 7.736837e+002 7.633404e+001
      vertex   6.000000e+002 8.000000e+002 1.000000e+002
    endloop
  endfacet
  facet normal 1.000000e+000 0.000000e+000 -0.000000e+000
    outer loop
      vertex   6.000000e+002 -2.500103e+001 7.633404e+001
      vertex   6.000000e+002 2.375545e+001 7.633404e+001
      vertex   6.000000e+002 -8.000000e+002 1.000000e+002
    endloop
  endfacet
  facet normal 1.000000e+000 0.000000e+000 -0.000000e+000
    outer loop
      vertex   6.000000e+002 2.375545e+001 2.633404e+001
      vertex   6.000000e+002 2.375545e+001 7.633404e+001
      vertex   6.000000e+002 -2.500103e+001 7.633404e+001
    endloop
  endfacet
  facet normal 1.000000e+000 -0.000000e+000 0.000000e+000
    outer loop
      vertex   6.000000e+002 7.736837e+002 2.633404e+001
      vertex   6.000000e+002 8.000000e+002 -3.469447e-015
      vertex   6.000000e+002 8.000000e+002 1.000000e+002
    endloop
  endfacet
  facet normal 0.000000e+000 -0.000000e+000 1.000000e+000
    outer loop
      vertex   6.000000e+002 2.375545e+001 2.633404e+001
      vertex   6.000000e+002 7.736837e+002 2.633404e+001
      vertex   5.750000e+002 7.736837e+002 2.633404e+001
    endloop
  endfacet
  facet normal 0.000000e+000 0.000000e+000 1.000000e+000
    outer loop
      vertex   5.750000e+002 7.736837e+002 2.633404e+001
      vertex   5.750000e+002 2.375545e+001 2.633404e+001
      vertex   6.000000e+002 2.375545e+001 2.633404e+001
    endloop
  endfacet
  facet normal 1.000000e+000 0.000000e+000 0.000000e+000
    outer loop
      vertex   5.750000e+002 2.375545e+001 2.633404e+001
      vertex   5.750000e+002 7.736837e+002 2.633404e+001
      vertex   5.750000e+002 7.736837e+002 7.633404e+001
    endloop
  endfacet
  facet normal 1.000000e+000 0.000000e+000 0.000000e+000
    outer loop
      vertex   5.750000e+002 7.736837e+002 7.633404e+001
      vertex   5.750000e+002 2.375545e+001 7.633404e+001
      vertex   5.750000e+002 2.375545e+001 2.633404e+001
    endloop
  endfacet
  facet normal 4.440892e-015 -1.000000e+000 0.000000e+000
    outer loop
      vertex   5.750000e+002 7.736837e+002 2.633404e+001
      vertex   6.000000e+002 7.736837e+002 2.633404e+001
      vertex   6.000000e+002 7.736837e+002 7.633404e+001
    endloop
  endfacet
  facet normal 4.440892e-015 -1.000000e+000 0.000000e+000
    outer loop
      vertex   6.000000e+002 7.736837e+002 7.633404e+001
      vertex   5.750000e+002 7.736837e+002 7.633404e+001
      vertex   5.750000e+002 7.736837e+002 2.633404e+001
    endloop
  endfacet
  facet normal -0.000000e+000 -7.691917e-010 -1.000000e+000
    outer loop
      vertex   6.000000e+002 2.375545e+001 7.633404e+001
      vertex   5.750000e+002 2.375545e+001 7.633404e+001
      vertex   5.750000e+002 7.736837e+002 7.633404e+001
    endloop
  endfacet
  facet normal 3.415897e-024 -7.691917e-010 -1.000000e+000
    outer loop
      vertex   5.750000e+002 7.736837e+002 7.633404e+001
      vertex   6.000000e+002 7.736837e+002 7.633404e+001
      vertex   6.000000e+002 2.375545e+001 7.633404e+001
    endloop
  endfacet
  facet normal -0.000000e+000 1.000000e+000 0.000000e+000
    outer loop
      vertex   5.750000e+002 2.375545e+001 7.633404e+001
      vertex   6.000000e+002 2.375545e+001 7.633404e+001
      vertex   6.000000e+002 2.375545e+001 2.633404e+001
    endloop
  endfacet
  facet normal 0.000000e+000 1.000000e+000 0.000000e+000
    outer loop
      vertex   6.000000e+002 2.375545e+001 2.633404e+001
      vertex   5.750000e+002 2.375545e+001 2.633404e+001
      vertex   5.750000e+002 2.375545e+001 7.633404e+001
    endloop
  endfacet
  facet normal 0.000000e+000 7.691917e-010 -1.000000e+000
    outer loop
      vertex   5.750000e+002 -2.500103e+001 7.633404e+001
      vertex   6.000000e+002 -2.500103e+001 7.633404e+001
      vertex   6.000000e+002 -7.749292e+002 7.633404e+001
    endloop
  endfacet
  facet normal 0.000000e+000 7.691917e-010 -1.000000e+000
    outer loop
      vertex   6.000000e+002 -7.749292e+002 7.633404e+001
      vertex   5.750000e+002 -7.749292e+002 7.633404e+001
      vertex   5.750000e+002 -2.500103e+001 7.633404e+001
    endloop
  endfacet
  facet normal 1.000000e+000 0.000000e+000 -0.000000e+000
    outer loop
      vertex   5.750000e+002 -2.500103e+001 2.633404e+001
      vertex   5.750000e+002 -2.500103e+001 7.633404e+001
      vertex   5.750000e+002 -7.749292e+002 7.633404e+001
    endloop
  endfacet
  facet normal 1.000000e+000 0.000000e+000 0.000000e+000
    outer loop
      vertex   5.750000e+002 -7.749292e+002 7.633404e+001
      vertex   5.750000e+002 -7.749292e+002 2.633404e+001
      vertex   5.750000e+002 -2.500103e+001 2.633404e+001
    endloop
  endfacet
  facet normal -0.000000e+000 1.000000e+000 0.000000e+000
    outer loop
      vertex   5.750000e+002 -7.749292e+002 7.633404e+001
      vertex   6.000000e+002 -7.749292e+002 7.633404e+001
      vertex   6.000000e+002 -7.749292e+002 2.633404e+001
    endloop
  endfacet
  facet normal 0.000000e+000 1.000000e+000 0.000000e+000
    outer loop
      vertex   6.000000e+002 -7.749292e+002 2.633404e+001
      vertex   5.750000e+002 -7.749292e+002 2.633404e+001
      vertex   5.750000e+002 -7.749292e+002 7.633404e+001
    endloop
  endfacet
  facet normal 0.000000e+000 0.000000e+000 1.000000e+000
    outer loop
      vertex   5.750000e+002 -7.749292e+002 2.633404e+001
      vertex   6.000000e+002 -7.749292e+002 2.633404e+001
      vertex   6.000000e+002 -2.500103e+001 2.633404e+001
    endloop
  endfacet
  facet normal 0.000000e+000 0.000000e+000 1.000000e+000
    outer loop
      vertex   6.000000e+002 -2.500103e+001 2.633404e+001
      vertex   5.750000e+002 -2.500103e+001 2.633404e+001
      vertex   5.750000e+002 -7.749292e+002 2.633404e+001
    endloop
  endfacet
  facet normal 0.000000e+000 -1.000000e+000 0.000000e+000
    outer loop
      vertex   5.750000e+002 -2.500103e+001 2.633404e+001
      vertex   6.000000e+002 -2.500103e+001 2.633404e+001
      vertex   6.000000e+002 -2.500103e+001 7.633404e+001
    endloop
  endfacet
  facet normal -0.000000e+000 -1.000000e+000 0.000000e+000
    outer loop
      vertex   6.000000e+002 -2.500103e+001 7.633404e+001
      vertex   5.750000e+002 -2.500103e+001 7.633404e+001
      vertex   5.750000e+002 -2.500103e+001 2.633404e+001
    endloop
  endfacet
  facet normal -1.000000e+000 0.000000e+000 0.000000e+000
    outer loop
      vertex   -6.000000e+002 -8.000000e+002 -3.469447e-015
      vertex   -6.000000e+002 -7.749292e+002 2.633404e+001
      vertex   -6.000000e+002 -2.500103e+001 2.633404e+001
    endloop
  endfacet
  facet normal -1.000000e+000 0.000000e+000 0.000000e+000
    outer loop
      vertex   -6.000000e+002 -8.000000e+002 1.000000e+002
      vertex   -6.000000e+002 -7.749292e+002 7.633404e+001
      vertex   -6.000000e+002 -7.749292e+002 2.633404e+001
    endloop
  endfacet
  facet normal -1.000000e+000 0.000000e+000 0.000000e+000
    outer loop
      vertex   -6.000000e+002 -8.000000e+002 1.000000e+002
      vertex   -6.000000e+002 8.000000e+002 1.000000e+002
      vertex   -6.000000e+002 -2.500103e+001 7.633404e+001
    endloop
  endfacet
  facet normal -1.000000e+000 0.000000e+000 -0.000000e+000
    outer loop
      vertex   -6.000000e+002 8.000000e+002 1.000000e+002
      vertex   -6.000000e+002 8.000000e+002 -3.469447e-015
      vertex   -6.000000e+002 7.736837e+002 2.633404e+001
    endloop
  endfacet
  facet normal -1.000000e+000 0.000000e+000 0.000000e+000
    outer loop
      vertex   -6.000000e+002 8.000000e+002 -3.469447e-015
      vertex   -6.000000e+002 -8.000000e+002 -3.469447e-015
      vertex   -6.000000e+002 2.375545e+001 2.633404e+001
    endloop
  endfacet
  facet normal -1.000000e+000 0.000000e+000 -0.000000e+000
    outer loop
      vertex   -6.000000e+002 -2.500103e+001 2.633404e+001
      vertex   -6.000000e+002 2.375545e+001 2.633404e+001
      vertex   -6.000000e+002 -8.000000e+002 -3.469447e-015
    endloop
  endfacet
  facet normal -1.000000e+000 -0.000000e+000 0.000000e+000
    outer loop
      vertex   -6.000000e+002 -2.500103e+001 7.633404e+001
      vertex   -6.000000e+002 -7.749292e+002 7.633404e+001
      vertex   -6.000000e+002 -8.000000e+002 1.000000e+002
    endloop
  endfacet
  facet normal -1.000000e+000 0.000000e+000 0.000000e+000
    outer loop
      vertex   -6.000000e+002 2.375545e+001 2.633404e+001
      vertex   -6.000000e+002 7.736837e+002 2.633404e+001
      vertex   -6.000000e+002 8.000000e+002 -3.469447e-015
    endloop
  endfacet
  facet normal -1.000000e+000 -0.000000e+000 0.000000e+000
    outer loop
      vertex   -6.000000e+002 -7.749292e+002 2.633404e+001
      vertex   -6.000000e+002 -8.000000e+002 -3.469447e-015
      vertex   -6.000000e+002 -8.000000e+002 1.000000e+002
    endloop
  endfacet
  facet normal -1.000000e+000 0.000000e+000 0.000000e+000
    outer loop
      vertex   -6.000000e+002 8.000000e+002 1.000000e+002
      vertex   -6.000000e+002 7.736837e+002 7.633404e+001
      vertex   -6.000000e+002 2.375545e+001 7.633404e+001
    endloop
  endfacet
  facet normal -1.000000e+000 0.000000e+000 0.000000e+000
    outer loop
      vertex   -6.000000e+002 -2.500103e+001 2.633404e+001
      vertex   -6.000000e+002 2.375545e+001 7.633404e+001
      vertex   -6.000000e+002 2.375545e+001 2.633404e+001
    endloop
  endfacet
  facet normal -1.000000e+000 -0.000000e+000 0.000000e+000
    outer loop
      vertex   -6.000000e+002 2.375545e+001 7.633404e+001
      vertex   -6.000000e+002 -2.500103e+001 7.633404e+001
      vertex   -6.000000e+002 8.000000e+002 1.000000e+002
    endloop
  endfacet
  facet normal -1.000000e+000 0.000000e+000 0.000000e+000
    outer loop
      vertex   -6.000000e+002 2.375545e+001 7.633404e+001
      vertex   -6.000000e+002 -2.500103e+001 2.633404e+001
      vertex   -6.000000e+002 -2.500103e+001 7.633404e+001
    endloop
  endfacet
  facet normal -1.000000e+000 0.000000e+000 0.000000e+000
    outer loop
      vertex   -6.000000e+002 7.736837e+002 2.633404e+001
      vertex   -6.000000e+002 7.736837e+002 7.633404e+001
      vertex   -6.000000e+002 8.000000e+002 1.000000e+002
    endloop
  endfacet
  facet normal 0.000000e+000 0.000000e+000 1.000000e+000
    outer loop
      vertex   -6.000000e+002 -2.500103e+001 2.633404e+001
      vertex   -6.000000e+002 -7.749292e+002 2.633404e+001
      vertex   -5.769597e+002 -7.749292e+002 2.633404e+001
    endloop
  endfacet
  facet normal 0.000000e+000 -0.000000e+000 1.000000e+000
    outer loop
      vertex   -5.769597e+002 -7.749292e+002 2.633404e+001
      vertex   -5.769597e+002 -2.500103e+001 2.633404e+001
      vertex   -6.000000e+002 -2.500103e+001 2.633404e+001
    endloop
  endfacet
  facet normal -1.000000e+000 0.000000e+000 0.000000e+000
    outer loop
      vertex   -5.769597e+002 -2.500103e+001 2.633404e+001
      vertex   -5.769597e+002 -7.749292e+002 2.633404e+001
      vertex   -5.769597e+002 -7.749292e+002 7.633404e+001
    endloop
  endfacet
  facet normal -1.000000e+000 0.000000e+000 0.000000e+000
    outer loop
      vertex   -5.769597e+002 -7.749292e+002 7.633404e+001
      vertex   -5.769597e+002 -2.500103e+001 7.633404e+001
      vertex   -5.769597e+002 -2.500103e+001 2.633404e+001
    endloop
  endfacet
  facet normal -4.818604e-015 1.000000e+000 0.000000e+000
    outer loop
      vertex   -5.769597e+002 -7.749292e+002 7.633404e+001
      vertex   -5.769597e+002 -7.749292e+002 2.633404e+001
      vertex   -6.000000e+002 -7.749292e+002 2.633404e+001
    endloop
  endfacet
  facet normal -4.818604e-015 1.000000e+000 0.000000e+000
    outer loop
      vertex   -6.000000e+002 -7.749292e+002 2.633404e+001
      vertex   -6.000000e+002 -7.749292e+002 7.633404e+001
      vertex   -5.769597e+002 -7.749292e+002 7.633404e+001
    endloop
  endfacet
  facet normal 0.000000e+000 7.691917e-010 -1.000000e+000
    outer loop
      vertex   -6.000000e+002 -2.500103e+001 7.633404e+001
      vertex   -5.769597e+002 -2.500103e+001 7.633404e+001
      vertex   -5.769597e+002 -7.749292e+002 7.633404e+001
    endloop
  endfacet
  facet normal -3.706430e-024 7.691917e-010 -1.000000e+000
    outer loop
      vertex   -5.769597e+002 -7.749292e+002 7.633404e+001
      vertex   -6.000000e+002 -7.749292e+002 7.633404e+001
      vertex   -6.000000e+002 -2.500103e+001 7.633404e+001
    endloop
  endfacet
  facet normal 0.000000e+000 -1.000000e+000 0.000000e+000
    outer loop
      vertex   -5.769597e+002 -2.500103e+001 2.633404e+001
      vertex   -5.769597e+002 -2.500103e+001 7.633404e+001
      vertex   -6.000000e+002 -2.500103e+001 7.633404e+001
    endloop
  endfacet
  facet normal 0.000000e+000 -1.000000e+000 0.000000e+000
    outer loop
      vertex   -6.000000e+002 -2.500103e+001 7.633404e+001
      vertex   -6.000000e+002 -2.500103e+001 2.633404e+001
      vertex   -5.769597e+002 -2.500103e+001 2.633404e+001
    endloop
  endfacet
  facet normal 0.000000e+000 1.000000e+000 0.000000e+000
    outer loop
      vertex   -5.769597e+002 2.375545e+001 7.633404e+001
      vertex   -5.769597e+002 2.375545e+001 2.633404e+001
      vertex   -6.000000e+002 2.375545e+001 2.633404e+001
    endloop
  endfacet
  facet normal 0.000000e+000 1.000000e+000 0.000000e+000
    outer loop
      vertex   -6.000000e+002 2.375545e+001 2.633404e+001
      vertex   -6.000000e+002 2.375545e+001 7.633404e+001
      vertex   -5.769597e+002 2.375545e+001 7.633404e+001
    endloop
  endfacet
  facet normal -1.000000e+000 0.000000e+000 0.000000e+000
    outer loop
      vertex   -5.769597e+002 2.375545e+001 2.633404e+001
      vertex   -5.769597e+002 2.375545e+001 7.633404e+001
      vertex   -5.769597e+002 7.736837e+002 7.633404e+001
    endloop
  endfacet
  facet normal -1.000000e+000 0.000000e+000 -0.000000e+000
    outer loop
      vertex   -5.769597e+002 7.736837e+002 7.633404e+001
      vertex   -5.769597e+002 7.736837e+002 2.633404e+001
      vertex   -5.769597e+002 2.375545e+001 2.633404e+001
    endloop
  endfacet
  facet normal -6.023255e-016 -7.691917e-010 -1.000000e+000
    outer loop
      vertex   -6.000000e+002 2.375545e+001 7.633404e+001
      vertex   -6.000000e+002 7.736837e+002 7.633404e+001
      vertex   -5.769597e+002 7.736837e+002 7.633404e+001
    endloop
  endfacet
  facet normal -6.023255e-016 -7.691917e-010 -1.000000e+000
    outer loop
      vertex   -5.769597e+002 7.736837e+002 7.633404e+001
      vertex   -5.769597e+002 2.375545e+001 7.633404e+001
      vertex   -6.000000e+002 2.375545e+001 7.633404e+001
    endloop
  endfacet
  facet normal 0.000000e+000 -1.000000e+000 0.000000e+000
    outer loop
      vertex   -6.000000e+002 7.736837e+002 2.633404e+001
      vertex   -5.769597e+002 7.736837e+002 2.633404e+001
      vertex   -5.769597e+002 7.736837e+002 7.633404e+001
    endloop
  endfacet
  facet normal -4.818604e-015 -1.000000e+000 2.220446e-015
    outer loop
      vertex   -5.769597e+002 7.736837e+002 7.633404e+001
      vertex   -6.000000e+002 7.736837e+002 7.633404e+001
      vertex   -6.000000e+002 7.736837e+002 2.633404e+001
    endloop
  endfacet
  facet normal 0.000000e+000 -0.000000e+000 1.000000e+000
    outer loop
      vertex   -5.769597e+002 2.375545e+001 2.633404e+001
      vertex   -5.769597e+002 7.736837e+002 2.633404e+001
      vertex   -6.000000e+002 7.736837e+002 2.633404e+001
    endloop
  endfacet
  facet normal 0.000000e+000 0.000000e+000 1.000000e+000
    outer loop
      vertex   -6.000000e+002 7.736837e+002 2.633404e+001
      vertex   -6.000000e+002 2.375545e+001 2.633404e+001
      vertex   -5.769597e+002 2.375545e+001 2.633404e+001
    endloop
  endfacet
endsolid
