solid Mortero
  facet normal 0.000000e+000 1.000000e+000 0.000000e+000
    outer loop
      vertex   -8.120000e+002 2.180000e+003 -6.000000e+001
      vertex   -8.120000e+002 2.180000e+003 4.000000e+001
      vertex   8.120000e+002 2.180000e+003 4.000000e+001
    endloop
  endfacet
  facet normal 0.000000e+000 1.000000e+000 0.000000e+000
    outer loop
      vertex   8.120000e+002 2.180000e+003 4.000000e+001
      vertex   8.120000e+002 2.180000e+003 -6.000000e+001
      vertex   -8.120000e+002 2.180000e+003 -6.000000e+001
    endloop
  endfacet
  facet normal -1.000000e+000 0.000000e+000 0.000000e+000
    outer loop
      vertex   -8.120000e+002 -2.180000e+003 -6.000000e+001
      vertex   -8.120000e+002 -2.180000e+003 4.000000e+001
      vertex   -8.120000e+002 2.180000e+003 4.000000e+001
    endloop
  endfacet
  facet normal -1.000000e+000 0.000000e+000 -0.000000e+000
    outer loop
      vertex   -8.120000e+002 2.180000e+003 4.000000e+001
      vertex   -8.120000e+002 2.180000e+003 -6.000000e+001
      vertex   -8.120000e+002 -2.180000e+003 -6.000000e+001
    endloop
  endfacet
  facet normal 0.000000e+000 -1.000000e+000 0.000000e+000
    outer loop
      vertex   8.120000e+002 -2.180000e+003 -6.000000e+001
      vertex   8.120000e+002 -2.180000e+003 4.000000e+001
      vertex   -8.120000e+002 -2.180000e+003 4.000000e+001
    endloop
  endfacet
  facet normal 0.000000e+000 -1.000000e+000 0.000000e+000
    outer loop
      vertex   -8.120000e+002 -2.180000e+003 4.000000e+001
      vertex   -8.120000e+002 -2.180000e+003 -6.000000e+001
      vertex   8.120000e+002 -2.180000e+003 -6.000000e+001
    endloop
  endfacet
  facet normal 1.000000e+000 0.000000e+000 -0.000000e+000
    outer loop
      vertex   8.120000e+002 2.180000e+003 -6.000000e+001
      vertex   8.120000e+002 2.180000e+003 4.000000e+001
      vertex   8.120000e+002 -2.180000e+003 4.000000e+001
    endloop
  endfacet
  facet normal 1.000000e+000 0.000000e+000 0.000000e+000
    outer loop
      vertex   8.120000e+002 -2.180000e+003 4.000000e+001
      vertex   8.120000e+002 -2.180000e+003 -6.000000e+001
      vertex   8.120000e+002 2.180000e+003 -6.000000e+001
    endloop
  endfacet
  facet normal 0.000000e+000 0.000000e+000 -1.000000e+000
    outer loop
      vertex   -8.120000e+002 -2.180000e+003 -6.000000e+001
      vertex   -8.120000e+002 2.180000e+003 -6.000000e+001
      vertex   8.120000e+002 2.180000e+003 -6.000000e+001
    endloop
  endfacet
  facet normal 0.000000e+000 -0.000000e+000 -1.000000e+000
    outer loop
      vertex   8.120000e+002 2.180000e+003 -6.000000e+001
      vertex   8.120000e+002 -2.180000e+003 -6.000000e+001
      vertex   -8.120000e+002 -2.180000e+003 -6.000000e+001
    endloop
  endfacet
  facet normal 0.000000e+000 -0.000000e+000 1.000000e+000
    outer loop
      vertex   8.120000e+002 -2.180000e+003 4.000000e+001
      vertex   8.120000e+002 2.180000e+003 4.000000e+001
      vertex   -8.120000e+002 2.180000e+003 4.000000e+001
    endloop
  endfacet
  facet normal 0.000000e+000 0.000000e+000 1.000000e+000
    outer loop
      vertex   -8.120000e+002 2.180000e+003 4.000000e+001
      vertex   -8.120000e+002 -2.180000e+003 4.000000e+001
      vertex   8.120000e+002 -2.180000e+003 4.000000e+001
    endloop
  endfacet
endsolid
