solid Rotor2
  facet normal -1.649871e-016 0.000000e+000 -1.000000e+000
    outer loop
      vertex   -1.000000e+003 -3.250000e+002 1.530808e-013
      vertex   -1.000000e+003 3.250000e+002 1.530808e-013
      vertex   -2.800000e+002 3.250000e+002 3.429011e-014
    endloop
  endfacet
  facet normal -1.649871e-016 -0.000000e+000 -1.000000e+000
    outer loop
      vertex   -2.800000e+002 3.250000e+002 3.429011e-014
      vertex   -2.800000e+002 -3.250000e+002 3.429011e-014
      vertex   -1.000000e+003 -3.250000e+002 1.530808e-013
    endloop
  endfacet
  facet normal -9.961947e-001 0.000000e+000 8.715574e-002
    outer loop
      vertex   -1.000000e+003 3.250000e+002 1.530808e-013
      vertex   -1.000000e+003 -3.250000e+002 1.530808e-013
      vertex   -9.848078e+002 -3.250000e+002 1.736482e+002
    endloop
  endfacet
  facet normal -9.659258e-001 0.000000e+000 2.588190e-001
    outer loop
      vertex   -9.848078e+002 3.250000e+002 1.736482e+002
      vertex   -9.848078e+002 -3.250000e+002 1.736482e+002
      vertex   -9.396926e+002 -3.250000e+002 3.420201e+002
    endloop
  endfacet
  facet normal -9.659258e-001 0.000000e+000 2.588190e-001
    outer loop
      vertex   -9.396926e+002 -3.250000e+002 3.420201e+002
      vertex   -9.396926e+002 3.250000e+002 3.420201e+002
      vertex   -9.848078e+002 3.250000e+002 1.736482e+002
    endloop
  endfacet
  facet normal -9.961947e-001 0.000000e+000 8.715574e-002
    outer loop
      vertex   -9.848078e+002 -3.250000e+002 1.736482e+002
      vertex   -9.848078e+002 3.250000e+002 1.736482e+002
      vertex   -1.000000e+003 3.250000e+002 1.530808e-013
    endloop
  endfacet
  facet normal 3.420201e-001 -0.000000e+000 9.396926e-001
    outer loop
      vertex   -2.631139e+002 -3.250000e+002 9.576564e+001
      vertex   -2.631139e+002 3.250000e+002 9.576564e+001
      vertex   -9.396926e+002 3.250000e+002 3.420201e+002
    endloop
  endfacet
  facet normal 3.420201e-001 0.000000e+000 9.396926e-001
    outer loop
      vertex   -9.396926e+002 3.250000e+002 3.420201e+002
      vertex   -9.396926e+002 -3.250000e+002 3.420201e+002
      vertex   -2.631139e+002 -3.250000e+002 9.576564e+001
    endloop
  endfacet
  facet normal 9.848078e-001 0.000000e+000 -1.736482e-001
    outer loop
      vertex   -2.800000e+002 3.250000e+002 3.429011e-014
      vertex   -2.631139e+002 3.250000e+002 9.576564e+001
      vertex   -2.631139e+002 -3.250000e+002 9.576564e+001
    endloop
  endfacet
  facet normal 9.848078e-001 0.000000e+000 -1.736482e-001
    outer loop
      vertex   -2.631139e+002 -3.250000e+002 9.576564e+001
      vertex   -2.800000e+002 -3.250000e+002 3.429011e-014
      vertex   -2.800000e+002 3.250000e+002 3.429011e-014
    endloop
  endfacet
  facet normal 0.000000e+000 -1.000000e+000 0.000000e+000
    outer loop
      vertex   -9.848078e+002 -3.250000e+002 1.736482e+002
      vertex   -2.800000e+002 -3.250000e+002 3.429011e-014
      vertex   -2.631139e+002 -3.250000e+002 9.576564e+001
    endloop
  endfacet
  facet normal 0.000000e+000 -1.000000e+000 0.000000e+000
    outer loop
      vertex   -2.631139e+002 -3.250000e+002 9.576564e+001
      vertex   -9.396926e+002 -3.250000e+002 3.420201e+002
      vertex   -9.848078e+002 -3.250000e+002 1.736482e+002
    endloop
  endfacet
  facet normal 0.000000e+000 -1.000000e+000 -0.000000e+000
    outer loop
      vertex   -9.848078e+002 -3.250000e+002 1.736482e+002
      vertex   -1.000000e+003 -3.250000e+002 1.530808e-013
      vertex   -2.800000e+002 -3.250000e+002 3.429011e-014
    endloop
  endfacet
  facet normal -3.457941e-017 1.000000e+000 -3.204280e-016
    outer loop
      vertex   -9.848078e+002 3.250000e+002 1.736482e+002
      vertex   -9.396926e+002 3.250000e+002 3.420201e+002
      vertex   -2.631139e+002 3.250000e+002 9.576564e+001
    endloop
  endfacet
  facet normal 7.709882e-017 1.000000e+000 3.129307e-016
    outer loop
      vertex   -2.800000e+002 3.250000e+002 3.429011e-014
      vertex   -1.000000e+003 3.250000e+002 1.530808e-013
      vertex   -9.848078e+002 3.250000e+002 1.736482e+002
    endloop
  endfacet
  facet normal 0.000000e+000 1.000000e+000 0.000000e+000
    outer loop
      vertex   -2.631139e+002 3.250000e+002 9.576564e+001
      vertex   -2.800000e+002 3.250000e+002 3.429011e-014
      vertex   -9.848078e+002 3.250000e+002 1.736482e+002
    endloop
  endfacet
  facet normal -2.588190e-001 -0.000000e+000 -9.659258e-001
    outer loop
      vertex   -1.736482e+002 3.250000e+002 -9.848078e+002
      vertex   -1.736482e+002 -3.250000e+002 -9.848078e+002
      vertex   -3.420201e+002 -3.250000e+002 -9.396926e+002
    endloop
  endfacet
  facet normal -4.226183e-001 -0.000000e+000 -9.063078e-001
    outer loop
      vertex   -3.420201e+002 3.250000e+002 -9.396926e+002
      vertex   -3.420201e+002 -3.250000e+002 -9.396926e+002
      vertex   -5.000000e+002 -3.250000e+002 -8.660254e+002
    endloop
  endfacet
  facet normal -4.226183e-001 0.000000e+000 -9.063078e-001
    outer loop
      vertex   -5.000000e+002 -3.250000e+002 -8.660254e+002
      vertex   -5.000000e+002 3.250000e+002 -8.660254e+002
      vertex   -3.420201e+002 3.250000e+002 -9.396926e+002
    endloop
  endfacet
  facet normal -2.588190e-001 0.000000e+000 -9.659258e-001
    outer loop
      vertex   -3.420201e+002 -3.250000e+002 -9.396926e+002
      vertex   -3.420201e+002 3.250000e+002 -9.396926e+002
      vertex   -1.736482e+002 3.250000e+002 -9.848078e+002
    endloop
  endfacet
  facet normal 9.848078e-001 0.000000e+000 -1.736482e-001
    outer loop
      vertex   -1.736482e+002 3.250000e+002 -9.848078e+002
      vertex   -4.862149e+001 3.250000e+002 -2.757462e+002
      vertex   -4.862149e+001 -3.250000e+002 -2.757462e+002
    endloop
  endfacet
  facet normal 9.848078e-001 0.000000e+000 -1.736482e-001
    outer loop
      vertex   -4.862149e+001 -3.250000e+002 -2.757462e+002
      vertex   -1.736482e+002 -3.250000e+002 -9.848078e+002
      vertex   -1.736482e+002 3.250000e+002 -9.848078e+002
    endloop
  endfacet
  facet normal 3.420201e-001 0.000000e+000 9.396926e-001
    outer loop
      vertex   -4.862149e+001 3.250000e+002 -2.757462e+002
      vertex   -1.400000e+002 3.250000e+002 -2.424871e+002
      vertex   -1.400000e+002 -3.250000e+002 -2.424871e+002
    endloop
  endfacet
  facet normal 3.420201e-001 0.000000e+000 9.396926e-001
    outer loop
      vertex   -1.400000e+002 -3.250000e+002 -2.424871e+002
      vertex   -4.862149e+001 -3.250000e+002 -2.757462e+002
      vertex   -4.862149e+001 3.250000e+002 -2.757462e+002
    endloop
  endfacet
  facet normal -8.660254e-001 0.000000e+000 5.000000e-001
    outer loop
      vertex   -1.400000e+002 3.250000e+002 -2.424871e+002
      vertex   -5.000000e+002 3.250000e+002 -8.660254e+002
      vertex   -5.000000e+002 -3.250000e+002 -8.660254e+002
    endloop
  endfacet
  facet normal -8.660254e-001 0.000000e+000 5.000000e-001
    outer loop
      vertex   -5.000000e+002 -3.250000e+002 -8.660254e+002
      vertex   -1.400000e+002 -3.250000e+002 -2.424871e+002
      vertex   -1.400000e+002 3.250000e+002 -2.424871e+002
    endloop
  endfacet
  facet normal 0.000000e+000 -1.000000e+000 0.000000e+000
    outer loop
      vertex   -3.420201e+002 -3.250000e+002 -9.396926e+002
      vertex   -4.862149e+001 -3.250000e+002 -2.757462e+002
      vertex   -1.400000e+002 -3.250000e+002 -2.424871e+002
    endloop
  endfacet
  facet normal 0.000000e+000 -1.000000e+000 0.000000e+000
    outer loop
      vertex   -1.400000e+002 -3.250000e+002 -2.424871e+002
      vertex   -5.000000e+002 -3.250000e+002 -8.660254e+002
      vertex   -3.420201e+002 -3.250000e+002 -9.396926e+002
    endloop
  endfacet
  facet normal 0.000000e+000 -1.000000e+000 0.000000e+000
    outer loop
      vertex   -3.420201e+002 -3.250000e+002 -9.396926e+002
      vertex   -1.736482e+002 -3.250000e+002 -9.848078e+002
      vertex   -4.862149e+001 -3.250000e+002 -2.757462e+002
    endloop
  endfacet
  facet normal 2.768475e-016 1.000000e+000 -1.598380e-016
    outer loop
      vertex   -3.420201e+002 3.250000e+002 -9.396926e+002
      vertex   -5.000000e+002 3.250000e+002 -8.660254e+002
      vertex   -1.400000e+002 3.250000e+002 -2.424871e+002
    endloop
  endfacet
  facet normal -3.148194e-016 1.000000e+000 5.551115e-017
    outer loop
      vertex   -4.862149e+001 3.250000e+002 -2.757462e+002
      vertex   -1.736482e+002 3.250000e+002 -9.848078e+002
      vertex   -3.420201e+002 3.250000e+002 -9.396926e+002
    endloop
  endfacet
  facet normal -2.621447e-017 1.000000e+000 -7.202367e-017
    outer loop
      vertex   -1.400000e+002 3.250000e+002 -2.424871e+002
      vertex   -4.862149e+001 3.250000e+002 -2.757462e+002
      vertex   -3.420201e+002 3.250000e+002 -9.396926e+002
    endloop
  endfacet
  facet normal -6.427876e-001 0.000000e+000 -7.660444e-001
    outer loop
      vertex   -7.660444e+002 3.250000e+002 6.427876e+002
      vertex   -2.144924e+002 3.250000e+002 1.799805e+002
      vertex   -2.144924e+002 -3.250000e+002 1.799805e+002
    endloop
  endfacet
  facet normal -6.427876e-001 0.000000e+000 -7.660444e-001
    outer loop
      vertex   -2.144924e+002 -3.250000e+002 1.799805e+002
      vertex   -7.660444e+002 -3.250000e+002 6.427876e+002
      vertex   -7.660444e+002 3.250000e+002 6.427876e+002
    endloop
  endfacet
  facet normal -7.071068e-001 0.000000e+000 7.071068e-001
    outer loop
      vertex   -7.660444e+002 3.250000e+002 6.427876e+002
      vertex   -7.660444e+002 -3.250000e+002 6.427876e+002
      vertex   -6.427876e+002 -3.250000e+002 7.660444e+002
    endloop
  endfacet
  facet normal -5.735764e-001 0.000000e+000 8.191520e-001
    outer loop
      vertex   -6.427876e+002 3.250000e+002 7.660444e+002
      vertex   -6.427876e+002 -3.250000e+002 7.660444e+002
      vertex   -5.000000e+002 -3.250000e+002 8.660254e+002
    endloop
  endfacet
  facet normal -5.735764e-001 0.000000e+000 8.191520e-001
    outer loop
      vertex   -5.000000e+002 -3.250000e+002 8.660254e+002
      vertex   -5.000000e+002 3.250000e+002 8.660254e+002
      vertex   -6.427876e+002 3.250000e+002 7.660444e+002
    endloop
  endfacet
  facet normal -7.071068e-001 0.000000e+000 7.071068e-001
    outer loop
      vertex   -6.427876e+002 -3.250000e+002 7.660444e+002
      vertex   -6.427876e+002 3.250000e+002 7.660444e+002
      vertex   -7.660444e+002 3.250000e+002 6.427876e+002
    endloop
  endfacet
  facet normal 8.660254e-001 -0.000000e+000 5.000000e-001
    outer loop
      vertex   -1.400000e+002 -3.250000e+002 2.424871e+002
      vertex   -1.400000e+002 3.250000e+002 2.424871e+002
      vertex   -5.000000e+002 3.250000e+002 8.660254e+002
    endloop
  endfacet
  facet normal 8.660254e-001 0.000000e+000 5.000000e-001
    outer loop
      vertex   -5.000000e+002 3.250000e+002 8.660254e+002
      vertex   -5.000000e+002 -3.250000e+002 8.660254e+002
      vertex   -1.400000e+002 -3.250000e+002 2.424871e+002
    endloop
  endfacet
  facet normal 6.427876e-001 0.000000e+000 -7.660444e-001
    outer loop
      vertex   -2.144924e+002 3.250000e+002 1.799805e+002
      vertex   -1.400000e+002 3.250000e+002 2.424871e+002
      vertex   -1.400000e+002 -3.250000e+002 2.424871e+002
    endloop
  endfacet
  facet normal 6.427876e-001 0.000000e+000 -7.660444e-001
    outer loop
      vertex   -1.400000e+002 -3.250000e+002 2.424871e+002
      vertex   -2.144924e+002 -3.250000e+002 1.799805e+002
      vertex   -2.144924e+002 3.250000e+002 1.799805e+002
    endloop
  endfacet
  facet normal 0.000000e+000 -1.000000e+000 0.000000e+000
    outer loop
      vertex   -6.427876e+002 -3.250000e+002 7.660444e+002
      vertex   -2.144924e+002 -3.250000e+002 1.799805e+002
      vertex   -1.400000e+002 -3.250000e+002 2.424871e+002
    endloop
  endfacet
  facet normal 0.000000e+000 -1.000000e+000 0.000000e+000
    outer loop
      vertex   -1.400000e+002 -3.250000e+002 2.424871e+002
      vertex   -5.000000e+002 -3.250000e+002 8.660254e+002
      vertex   -6.427876e+002 -3.250000e+002 7.660444e+002
    endloop
  endfacet
  facet normal 0.000000e+000 -1.000000e+000 -0.000000e+000
    outer loop
      vertex   -6.427876e+002 -3.250000e+002 7.660444e+002
      vertex   -7.660444e+002 -3.250000e+002 6.427876e+002
      vertex   -2.144924e+002 -3.250000e+002 1.799805e+002
    endloop
  endfacet
  facet normal 0.000000e+000 1.000000e+000 0.000000e+000
    outer loop
      vertex   -6.427876e+002 3.250000e+002 7.660444e+002
      vertex   -1.400000e+002 3.250000e+002 2.424871e+002
      vertex   -2.144924e+002 3.250000e+002 1.799805e+002
    endloop
  endfacet
  facet normal 2.602091e-016 1.000000e+000 1.901607e-016
    outer loop
      vertex   -2.144924e+002 3.250000e+002 1.799805e+002
      vertex   -7.660444e+002 3.250000e+002 6.427876e+002
      vertex   -6.427876e+002 3.250000e+002 7.660444e+002
    endloop
  endfacet
  facet normal -2.324565e-016 1.000000e+000 -2.232349e-016
    outer loop
      vertex   -6.427876e+002 3.250000e+002 7.660444e+002
      vertex   -5.000000e+002 3.250000e+002 8.660254e+002
      vertex   -1.400000e+002 3.250000e+002 2.424871e+002
    endloop
  endfacet
  facet normal -9.848078e-001 0.000000e+000 -1.736482e-001
    outer loop
      vertex   -1.736482e+002 -3.250000e+002 9.848078e+002
      vertex   -1.736482e+002 3.250000e+002 9.848078e+002
      vertex   -4.862149e+001 3.250000e+002 2.757462e+002
    endloop
  endfacet
  facet normal -9.848078e-001 -0.000000e+000 -1.736482e-001
    outer loop
      vertex   -4.862149e+001 3.250000e+002 2.757462e+002
      vertex   -4.862149e+001 -3.250000e+002 2.757462e+002
      vertex   -1.736482e+002 -3.250000e+002 9.848078e+002
    endloop
  endfacet
  facet normal -8.715574e-002 0.000000e+000 9.961947e-001
    outer loop
      vertex   -1.736482e+002 3.250000e+002 9.848078e+002
      vertex   -1.736482e+002 -3.250000e+002 9.848078e+002
      vertex   -2.449294e-013 -3.250000e+002 1.000000e+003
    endloop
  endfacet
  facet normal 8.715574e-002 0.000000e+000 9.961947e-001
    outer loop
      vertex   -2.449294e-013 3.250000e+002 1.000000e+003
      vertex   -2.449294e-013 -3.250000e+002 1.000000e+003
      vertex   1.736482e+002 -3.250000e+002 9.848078e+002
    endloop
  endfacet
  facet normal 8.715574e-002 -0.000000e+000 9.961947e-001
    outer loop
      vertex   1.736482e+002 -3.250000e+002 9.848078e+002
      vertex   1.736482e+002 3.250000e+002 9.848078e+002
      vertex   -2.449294e-013 3.250000e+002 1.000000e+003
    endloop
  endfacet
  facet normal -8.715574e-002 0.000000e+000 9.961947e-001
    outer loop
      vertex   -2.449294e-013 -3.250000e+002 1.000000e+003
      vertex   -2.449294e-013 3.250000e+002 1.000000e+003
      vertex   -1.736482e+002 3.250000e+002 9.848078e+002
    endloop
  endfacet
  facet normal 9.848078e-001 0.000000e+000 -1.736482e-001
    outer loop
      vertex   4.862149e+001 -3.250000e+002 2.757462e+002
      vertex   4.862149e+001 3.250000e+002 2.757462e+002
      vertex   1.736482e+002 3.250000e+002 9.848078e+002
    endloop
  endfacet
  facet normal 9.848078e-001 0.000000e+000 -1.736482e-001
    outer loop
      vertex   1.736482e+002 3.250000e+002 9.848078e+002
      vertex   1.736482e+002 -3.250000e+002 9.848078e+002
      vertex   4.862149e+001 -3.250000e+002 2.757462e+002
    endloop
  endfacet
  facet normal 3.425100e-015 0.000000e+000 -1.000000e+000
    outer loop
      vertex   -4.862149e+001 3.250000e+002 2.757462e+002
      vertex   4.862149e+001 3.250000e+002 2.757462e+002
      vertex   4.862149e+001 -3.250000e+002 2.757462e+002
    endloop
  endfacet
  facet normal 3.425100e-015 0.000000e+000 -1.000000e+000
    outer loop
      vertex   4.862149e+001 -3.250000e+002 2.757462e+002
      vertex   -4.862149e+001 -3.250000e+002 2.757462e+002
      vertex   -4.862149e+001 3.250000e+002 2.757462e+002
    endloop
  endfacet
  facet normal 0.000000e+000 -1.000000e+000 -0.000000e+000
    outer loop
      vertex   -2.449294e-013 -3.250000e+002 1.000000e+003
      vertex   -4.862149e+001 -3.250000e+002 2.757462e+002
      vertex   4.862149e+001 -3.250000e+002 2.757462e+002
    endloop
  endfacet
  facet normal 0.000000e+000 -1.000000e+000 0.000000e+000
    outer loop
      vertex   4.862149e+001 -3.250000e+002 2.757462e+002
      vertex   1.736482e+002 -3.250000e+002 9.848078e+002
      vertex   -2.449294e-013 -3.250000e+002 1.000000e+003
    endloop
  endfacet
  facet normal 0.000000e+000 -1.000000e+000 0.000000e+000
    outer loop
      vertex   -2.449294e-013 -3.250000e+002 1.000000e+003
      vertex   -1.736482e+002 -3.250000e+002 9.848078e+002
      vertex   -4.862149e+001 -3.250000e+002 2.757462e+002
    endloop
  endfacet
  facet normal -3.215647e-016 1.000000e+000 -2.158767e-017
    outer loop
      vertex   -2.449294e-013 3.250000e+002 1.000000e+003
      vertex   1.736482e+002 3.250000e+002 9.848078e+002
      vertex   4.862149e+001 3.250000e+002 2.757462e+002
    endloop
  endfacet
  facet normal 3.215647e-016 1.000000e+000 -2.158767e-017
    outer loop
      vertex   -4.862149e+001 3.250000e+002 2.757462e+002
      vertex   -1.736482e+002 3.250000e+002 9.848078e+002
      vertex   -2.449294e-013 3.250000e+002 1.000000e+003
    endloop
  endfacet
  facet normal 0.000000e+000 1.000000e+000 0.000000e+000
    outer loop
      vertex   4.862149e+001 3.250000e+002 2.757462e+002
      vertex   -4.862149e+001 3.250000e+002 2.757462e+002
      vertex   -2.449294e-013 3.250000e+002 1.000000e+003
    endloop
  endfacet
  facet normal -8.660254e-001 0.000000e+000 5.000000e-001
    outer loop
      vertex   5.000000e+002 -3.250000e+002 8.660254e+002
      vertex   5.000000e+002 3.250000e+002 8.660254e+002
      vertex   1.400000e+002 3.250000e+002 2.424871e+002
    endloop
  endfacet
  facet normal -8.660254e-001 0.000000e+000 5.000000e-001
    outer loop
      vertex   1.400000e+002 3.250000e+002 2.424871e+002
      vertex   1.400000e+002 -3.250000e+002 2.424871e+002
      vertex   5.000000e+002 -3.250000e+002 8.660254e+002
    endloop
  endfacet
  facet normal -6.427876e-001 0.000000e+000 -7.660444e-001
    outer loop
      vertex   1.400000e+002 3.250000e+002 2.424871e+002
      vertex   2.144924e+002 3.250000e+002 1.799805e+002
      vertex   2.144924e+002 -3.250000e+002 1.799805e+002
    endloop
  endfacet
  facet normal -6.427876e-001 0.000000e+000 -7.660444e-001
    outer loop
      vertex   2.144924e+002 -3.250000e+002 1.799805e+002
      vertex   1.400000e+002 -3.250000e+002 2.424871e+002
      vertex   1.400000e+002 3.250000e+002 2.424871e+002
    endloop
  endfacet
  facet normal 6.427876e-001 0.000000e+000 -7.660444e-001
    outer loop
      vertex   2.144924e+002 -3.250000e+002 1.799805e+002
      vertex   2.144924e+002 3.250000e+002 1.799805e+002
      vertex   7.660444e+002 3.250000e+002 6.427876e+002
    endloop
  endfacet
  facet normal 6.427876e-001 0.000000e+000 -7.660444e-001
    outer loop
      vertex   7.660444e+002 3.250000e+002 6.427876e+002
      vertex   7.660444e+002 -3.250000e+002 6.427876e+002
      vertex   2.144924e+002 -3.250000e+002 1.799805e+002
    endloop
  endfacet
  facet normal 5.735764e-001 0.000000e+000 8.191520e-001
    outer loop
      vertex   5.000000e+002 3.250000e+002 8.660254e+002
      vertex   5.000000e+002 -3.250000e+002 8.660254e+002
      vertex   6.427876e+002 -3.250000e+002 7.660444e+002
    endloop
  endfacet
  facet normal 7.071068e-001 0.000000e+000 7.071068e-001
    outer loop
      vertex   6.427876e+002 3.250000e+002 7.660444e+002
      vertex   6.427876e+002 -3.250000e+002 7.660444e+002
      vertex   7.660444e+002 -3.250000e+002 6.427876e+002
    endloop
  endfacet
  facet normal 7.071068e-001 -0.000000e+000 7.071068e-001
    outer loop
      vertex   7.660444e+002 -3.250000e+002 6.427876e+002
      vertex   7.660444e+002 3.250000e+002 6.427876e+002
      vertex   6.427876e+002 3.250000e+002 7.660444e+002
    endloop
  endfacet
  facet normal 5.735764e-001 -0.000000e+000 8.191520e-001
    outer loop
      vertex   6.427876e+002 -3.250000e+002 7.660444e+002
      vertex   6.427876e+002 3.250000e+002 7.660444e+002
      vertex   5.000000e+002 3.250000e+002 8.660254e+002
    endloop
  endfacet
  facet normal -0.000000e+000 -1.000000e+000 0.000000e+000
    outer loop
      vertex   6.427876e+002 -3.250000e+002 7.660444e+002
      vertex   5.000000e+002 -3.250000e+002 8.660254e+002
      vertex   1.400000e+002 -3.250000e+002 2.424871e+002
    endloop
  endfacet
  facet normal 0.000000e+000 -1.000000e+000 0.000000e+000
    outer loop
      vertex   2.144924e+002 -3.250000e+002 1.799805e+002
      vertex   7.660444e+002 -3.250000e+002 6.427876e+002
      vertex   6.427876e+002 -3.250000e+002 7.660444e+002
    endloop
  endfacet
  facet normal 0.000000e+000 -1.000000e+000 0.000000e+000
    outer loop
      vertex   1.400000e+002 -3.250000e+002 2.424871e+002
      vertex   2.144924e+002 -3.250000e+002 1.799805e+002
      vertex   6.427876e+002 -3.250000e+002 7.660444e+002
    endloop
  endfacet
  facet normal 4.926709e-017 1.000000e+000 5.871423e-017
    outer loop
      vertex   6.427876e+002 3.250000e+002 7.660444e+002
      vertex   2.144924e+002 3.250000e+002 1.799805e+002
      vertex   1.400000e+002 3.250000e+002 2.424871e+002
    endloop
  endfacet
  facet normal 2.768475e-016 1.000000e+000 -1.598380e-016
    outer loop
      vertex   1.400000e+002 3.250000e+002 2.424871e+002
      vertex   5.000000e+002 3.250000e+002 8.660254e+002
      vertex   6.427876e+002 3.250000e+002 7.660444e+002
    endloop
  endfacet
  facet normal -2.054838e-016 1.000000e+000 2.448860e-016
    outer loop
      vertex   6.427876e+002 3.250000e+002 7.660444e+002
      vertex   7.660444e+002 3.250000e+002 6.427876e+002
      vertex   2.144924e+002 3.250000e+002 1.799805e+002
    endloop
  endfacet
  facet normal -3.420201e-001 0.000000e+000 9.396926e-001
    outer loop
      vertex   9.396926e+002 -3.250000e+002 3.420201e+002
      vertex   9.396926e+002 3.250000e+002 3.420201e+002
      vertex   2.631139e+002 3.250000e+002 9.576564e+001
    endloop
  endfacet
  facet normal -3.420201e-001 0.000000e+000 9.396926e-001
    outer loop
      vertex   2.631139e+002 3.250000e+002 9.576564e+001
      vertex   2.631139e+002 -3.250000e+002 9.576564e+001
      vertex   9.396926e+002 -3.250000e+002 3.420201e+002
    endloop
  endfacet
  facet normal -9.848078e-001 0.000000e+000 -1.736482e-001
    outer loop
      vertex   2.631139e+002 3.250000e+002 9.576564e+001
      vertex   2.800000e+002 3.250000e+002 3.429011e-014
      vertex   2.800000e+002 -3.250000e+002 3.429011e-014
    endloop
  endfacet
  facet normal -9.848078e-001 0.000000e+000 -1.736482e-001
    outer loop
      vertex   2.800000e+002 -3.250000e+002 3.429011e-014
      vertex   2.631139e+002 -3.250000e+002 9.576564e+001
      vertex   2.631139e+002 3.250000e+002 9.576564e+001
    endloop
  endfacet
  facet normal 2.421084e-016 0.000000e+000 -1.000000e+000
    outer loop
      vertex   2.800000e+002 -3.250000e+002 3.429011e-014
      vertex   2.800000e+002 3.250000e+002 3.429011e-014
      vertex   1.000000e+003 3.250000e+002 2.086081e-013
    endloop
  endfacet
  facet normal 2.421084e-016 0.000000e+000 -1.000000e+000
    outer loop
      vertex   1.000000e+003 3.250000e+002 2.086081e-013
      vertex   1.000000e+003 -3.250000e+002 2.086081e-013
      vertex   2.800000e+002 -3.250000e+002 3.429011e-014
    endloop
  endfacet
  facet normal 9.659258e-001 0.000000e+000 2.588190e-001
    outer loop
      vertex   9.396926e+002 3.250000e+002 3.420201e+002
      vertex   9.396926e+002 -3.250000e+002 3.420201e+002
      vertex   9.848078e+002 -3.250000e+002 1.736482e+002
    endloop
  endfacet
  facet normal 9.961947e-001 0.000000e+000 8.715574e-002
    outer loop
      vertex   9.848078e+002 3.250000e+002 1.736482e+002
      vertex   9.848078e+002 -3.250000e+002 1.736482e+002
      vertex   1.000000e+003 -3.250000e+002 2.086081e-013
    endloop
  endfacet
  facet normal 9.961947e-001 -0.000000e+000 8.715574e-002
    outer loop
      vertex   1.000000e+003 -3.250000e+002 2.086081e-013
      vertex   1.000000e+003 3.250000e+002 2.086081e-013
      vertex   9.848078e+002 3.250000e+002 1.736482e+002
    endloop
  endfacet
  facet normal 9.659258e-001 -0.000000e+000 2.588190e-001
    outer loop
      vertex   9.848078e+002 -3.250000e+002 1.736482e+002
      vertex   9.848078e+002 3.250000e+002 1.736482e+002
      vertex   9.396926e+002 3.250000e+002 3.420201e+002
    endloop
  endfacet
  facet normal -0.000000e+000 -1.000000e+000 0.000000e+000
    outer loop
      vertex   9.848078e+002 -3.250000e+002 1.736482e+002
      vertex   9.396926e+002 -3.250000e+002 3.420201e+002
      vertex   2.631139e+002 -3.250000e+002 9.576564e+001
    endloop
  endfacet
  facet normal 0.000000e+000 -1.000000e+000 0.000000e+000
    outer loop
      vertex   2.800000e+002 -3.250000e+002 3.429011e-014
      vertex   1.000000e+003 -3.250000e+002 2.086081e-013
      vertex   9.848078e+002 -3.250000e+002 1.736482e+002
    endloop
  endfacet
  facet normal 0.000000e+000 -1.000000e+000 0.000000e+000
    outer loop
      vertex   2.631139e+002 -3.250000e+002 9.576564e+001
      vertex   2.800000e+002 -3.250000e+002 3.429011e-014
      vertex   9.848078e+002 -3.250000e+002 1.736482e+002
    endloop
  endfacet
  facet normal 7.548156e-017 1.000000e+000 1.330944e-017
    outer loop
      vertex   9.848078e+002 3.250000e+002 1.736482e+002
      vertex   2.800000e+002 3.250000e+002 3.429011e-014
      vertex   2.631139e+002 3.250000e+002 9.576564e+001
    endloop
  endfacet
  facet normal 1.093356e-016 1.000000e+000 -3.003972e-016
    outer loop
      vertex   2.631139e+002 3.250000e+002 9.576564e+001
      vertex   9.396926e+002 3.250000e+002 3.420201e+002
      vertex   9.848078e+002 3.250000e+002 1.736482e+002
    endloop
  endfacet
  facet normal -8.626324e-032 1.000000e+000 3.196760e-016
    outer loop
      vertex   9.848078e+002 3.250000e+002 1.736482e+002
      vertex   1.000000e+003 3.250000e+002 2.086081e-013
      vertex   2.800000e+002 3.250000e+002 3.429011e-014
    endloop
  endfacet
  facet normal 9.063078e-001 0.000000e+000 -4.226183e-001
    outer loop
      vertex   9.396926e+002 3.250000e+002 -3.420201e+002
      vertex   9.396926e+002 -3.250000e+002 -3.420201e+002
      vertex   8.660254e+002 -3.250000e+002 -5.000000e+002
    endloop
  endfacet
  facet normal 8.191520e-001 0.000000e+000 -5.735764e-001
    outer loop
      vertex   8.660254e+002 3.250000e+002 -5.000000e+002
      vertex   8.660254e+002 -3.250000e+002 -5.000000e+002
      vertex   7.660444e+002 -3.250000e+002 -6.427876e+002
    endloop
  endfacet
  facet normal 8.191520e-001 0.000000e+000 -5.735764e-001
    outer loop
      vertex   7.660444e+002 -3.250000e+002 -6.427876e+002
      vertex   7.660444e+002 3.250000e+002 -6.427876e+002
      vertex   8.660254e+002 3.250000e+002 -5.000000e+002
    endloop
  endfacet
  facet normal 9.063078e-001 0.000000e+000 -4.226183e-001
    outer loop
      vertex   8.660254e+002 -3.250000e+002 -5.000000e+002
      vertex   8.660254e+002 3.250000e+002 -5.000000e+002
      vertex   9.396926e+002 3.250000e+002 -3.420201e+002
    endloop
  endfacet
  facet normal 3.420201e-001 -0.000000e+000 9.396926e-001
    outer loop
      vertex   9.396926e+002 -3.250000e+002 -3.420201e+002
      vertex   9.396926e+002 3.250000e+002 -3.420201e+002
      vertex   2.631139e+002 3.250000e+002 -9.576564e+001
    endloop
  endfacet
  facet normal 3.420201e-001 0.000000e+000 9.396926e-001
    outer loop
      vertex   2.631139e+002 3.250000e+002 -9.576564e+001
      vertex   2.631139e+002 -3.250000e+002 -9.576564e+001
      vertex   9.396926e+002 -3.250000e+002 -3.420201e+002
    endloop
  endfacet
  facet normal -8.660254e-001 0.000000e+000 5.000000e-001
    outer loop
      vertex   2.631139e+002 3.250000e+002 -9.576564e+001
      vertex   2.144924e+002 3.250000e+002 -1.799805e+002
      vertex   2.144924e+002 -3.250000e+002 -1.799805e+002
    endloop
  endfacet
  facet normal -8.660254e-001 0.000000e+000 5.000000e-001
    outer loop
      vertex   2.144924e+002 -3.250000e+002 -1.799805e+002
      vertex   2.631139e+002 -3.250000e+002 -9.576564e+001
      vertex   2.631139e+002 3.250000e+002 -9.576564e+001
    endloop
  endfacet
  facet normal -6.427876e-001 0.000000e+000 -7.660444e-001
    outer loop
      vertex   2.144924e+002 -3.250000e+002 -1.799805e+002
      vertex   2.144924e+002 3.250000e+002 -1.799805e+002
      vertex   7.660444e+002 3.250000e+002 -6.427876e+002
    endloop
  endfacet
  facet normal -6.427876e-001 -0.000000e+000 -7.660444e-001
    outer loop
      vertex   7.660444e+002 3.250000e+002 -6.427876e+002
      vertex   7.660444e+002 -3.250000e+002 -6.427876e+002
      vertex   2.144924e+002 -3.250000e+002 -1.799805e+002
    endloop
  endfacet
  facet normal 0.000000e+000 -1.000000e+000 0.000000e+000
    outer loop
      vertex   8.660254e+002 -3.250000e+002 -5.000000e+002
      vertex   2.631139e+002 -3.250000e+002 -9.576564e+001
      vertex   2.144924e+002 -3.250000e+002 -1.799805e+002
    endloop
  endfacet
  facet normal 0.000000e+000 -1.000000e+000 0.000000e+000
    outer loop
      vertex   2.144924e+002 -3.250000e+002 -1.799805e+002
      vertex   7.660444e+002 -3.250000e+002 -6.427876e+002
      vertex   8.660254e+002 -3.250000e+002 -5.000000e+002
    endloop
  endfacet
  facet normal 0.000000e+000 -1.000000e+000 0.000000e+000
    outer loop
      vertex   8.660254e+002 -3.250000e+002 -5.000000e+002
      vertex   9.396926e+002 -3.250000e+002 -3.420201e+002
      vertex   2.631139e+002 -3.250000e+002 -9.576564e+001
    endloop
  endfacet
  facet normal 2.054838e-016 1.000000e+000 2.448860e-016
    outer loop
      vertex   8.660254e+002 3.250000e+002 -5.000000e+002
      vertex   7.660444e+002 3.250000e+002 -6.427876e+002
      vertex   2.144924e+002 3.250000e+002 -1.799805e+002
    endloop
  endfacet
  facet normal -1.093356e-016 1.000000e+000 -3.003972e-016
    outer loop
      vertex   2.631139e+002 3.250000e+002 -9.576564e+001
      vertex   9.396926e+002 3.250000e+002 -3.420201e+002
      vertex   8.660254e+002 3.250000e+002 -5.000000e+002
    endloop
  endfacet
  facet normal 6.637737e-017 1.000000e+000 -3.832299e-017
    outer loop
      vertex   2.144924e+002 3.250000e+002 -1.799805e+002
      vertex   2.631139e+002 3.250000e+002 -9.576564e+001
      vertex   8.660254e+002 3.250000e+002 -5.000000e+002
    endloop
  endfacet
  facet normal 4.226183e-001 0.000000e+000 -9.063078e-001
    outer loop
      vertex   5.000000e+002 3.250000e+002 -8.660254e+002
      vertex   5.000000e+002 -3.250000e+002 -8.660254e+002
      vertex   3.420201e+002 -3.250000e+002 -9.396926e+002
    endloop
  endfacet
  facet normal 2.588190e-001 0.000000e+000 -9.659258e-001
    outer loop
      vertex   3.420201e+002 3.250000e+002 -9.396926e+002
      vertex   3.420201e+002 -3.250000e+002 -9.396926e+002
      vertex   1.736482e+002 -3.250000e+002 -9.848078e+002
    endloop
  endfacet
  facet normal 2.588190e-001 0.000000e+000 -9.659258e-001
    outer loop
      vertex   1.736482e+002 -3.250000e+002 -9.848078e+002
      vertex   1.736482e+002 3.250000e+002 -9.848078e+002
      vertex   3.420201e+002 3.250000e+002 -9.396926e+002
    endloop
  endfacet
  facet normal 4.226183e-001 0.000000e+000 -9.063078e-001
    outer loop
      vertex   3.420201e+002 -3.250000e+002 -9.396926e+002
      vertex   3.420201e+002 3.250000e+002 -9.396926e+002
      vertex   5.000000e+002 3.250000e+002 -8.660254e+002
    endloop
  endfacet
  facet normal 8.660254e-001 -0.000000e+000 5.000000e-001
    outer loop
      vertex   5.000000e+002 -3.250000e+002 -8.660254e+002
      vertex   5.000000e+002 3.250000e+002 -8.660254e+002
      vertex   1.400000e+002 3.250000e+002 -2.424871e+002
    endloop
  endfacet
  facet normal 8.660254e-001 0.000000e+000 5.000000e-001
    outer loop
      vertex   1.400000e+002 3.250000e+002 -2.424871e+002
      vertex   1.400000e+002 -3.250000e+002 -2.424871e+002
      vertex   5.000000e+002 -3.250000e+002 -8.660254e+002
    endloop
  endfacet
  facet normal -3.420201e-001 0.000000e+000 9.396926e-001
    outer loop
      vertex   1.400000e+002 3.250000e+002 -2.424871e+002
      vertex   4.862149e+001 3.250000e+002 -2.757462e+002
      vertex   4.862149e+001 -3.250000e+002 -2.757462e+002
    endloop
  endfacet
  facet normal -3.420201e-001 0.000000e+000 9.396926e-001
    outer loop
      vertex   4.862149e+001 -3.250000e+002 -2.757462e+002
      vertex   1.400000e+002 -3.250000e+002 -2.424871e+002
      vertex   1.400000e+002 3.250000e+002 -2.424871e+002
    endloop
  endfacet
  facet normal -9.848078e-001 0.000000e+000 -1.736482e-001
    outer loop
      vertex   4.862149e+001 -3.250000e+002 -2.757462e+002
      vertex   4.862149e+001 3.250000e+002 -2.757462e+002
      vertex   1.736482e+002 3.250000e+002 -9.848078e+002
    endloop
  endfacet
  facet normal -9.848078e-001 -0.000000e+000 -1.736482e-001
    outer loop
      vertex   1.736482e+002 3.250000e+002 -9.848078e+002
      vertex   1.736482e+002 -3.250000e+002 -9.848078e+002
      vertex   4.862149e+001 -3.250000e+002 -2.757462e+002
    endloop
  endfacet
  facet normal 0.000000e+000 -1.000000e+000 0.000000e+000
    outer loop
      vertex   3.420201e+002 -3.250000e+002 -9.396926e+002
      vertex   1.400000e+002 -3.250000e+002 -2.424871e+002
      vertex   4.862149e+001 -3.250000e+002 -2.757462e+002
    endloop
  endfacet
  facet normal 0.000000e+000 -1.000000e+000 0.000000e+000
    outer loop
      vertex   4.862149e+001 -3.250000e+002 -2.757462e+002
      vertex   1.736482e+002 -3.250000e+002 -9.848078e+002
      vertex   3.420201e+002 -3.250000e+002 -9.396926e+002
    endloop
  endfacet
  facet normal 0.000000e+000 -1.000000e+000 0.000000e+000
    outer loop
      vertex   3.420201e+002 -3.250000e+002 -9.396926e+002
      vertex   5.000000e+002 -3.250000e+002 -8.660254e+002
      vertex   1.400000e+002 -3.250000e+002 -2.424871e+002
    endloop
  endfacet
  facet normal 3.148194e-016 1.000000e+000 5.551115e-017
    outer loop
      vertex   3.420201e+002 3.250000e+002 -9.396926e+002
      vertex   1.736482e+002 3.250000e+002 -9.848078e+002
      vertex   4.862149e+001 3.250000e+002 -2.757462e+002
    endloop
  endfacet
  facet normal -2.768475e-016 1.000000e+000 -1.598380e-016
    outer loop
      vertex   1.400000e+002 3.250000e+002 -2.424871e+002
      vertex   5.000000e+002 3.250000e+002 -8.660254e+002
      vertex   3.420201e+002 3.250000e+002 -9.396926e+002
    endloop
  endfacet
  facet normal 2.621447e-017 1.000000e+000 -7.202367e-017
    outer loop
      vertex   4.862149e+001 3.250000e+002 -2.757462e+002
      vertex   1.400000e+002 3.250000e+002 -2.424871e+002
      vertex   3.420201e+002 3.250000e+002 -9.396926e+002
    endloop
  endfacet
  facet normal -8.191520e-001 -0.000000e+000 -5.735764e-001
    outer loop
      vertex   -7.660444e+002 3.250000e+002 -6.427876e+002
      vertex   -7.660444e+002 -3.250000e+002 -6.427876e+002
      vertex   -8.660254e+002 -3.250000e+002 -5.000000e+002
    endloop
  endfacet
  facet normal -9.063078e-001 -0.000000e+000 -4.226183e-001
    outer loop
      vertex   -8.660254e+002 3.250000e+002 -5.000000e+002
      vertex   -8.660254e+002 -3.250000e+002 -5.000000e+002
      vertex   -9.396926e+002 -3.250000e+002 -3.420201e+002
    endloop
  endfacet
  facet normal -9.063078e-001 0.000000e+000 -4.226183e-001
    outer loop
      vertex   -9.396926e+002 -3.250000e+002 -3.420201e+002
      vertex   -9.396926e+002 3.250000e+002 -3.420201e+002
      vertex   -8.660254e+002 3.250000e+002 -5.000000e+002
    endloop
  endfacet
  facet normal -8.191520e-001 0.000000e+000 -5.735764e-001
    outer loop
      vertex   -8.660254e+002 -3.250000e+002 -5.000000e+002
      vertex   -8.660254e+002 3.250000e+002 -5.000000e+002
      vertex   -7.660444e+002 3.250000e+002 -6.427876e+002
    endloop
  endfacet
  facet normal -3.420201e-001 0.000000e+000 9.396926e-001
    outer loop
      vertex   -2.631139e+002 -3.250000e+002 -9.576564e+001
      vertex   -2.631139e+002 3.250000e+002 -9.576564e+001
      vertex   -9.396926e+002 3.250000e+002 -3.420201e+002
    endloop
  endfacet
  facet normal -3.420201e-001 0.000000e+000 9.396926e-001
    outer loop
      vertex   -9.396926e+002 3.250000e+002 -3.420201e+002
      vertex   -9.396926e+002 -3.250000e+002 -3.420201e+002
      vertex   -2.631139e+002 -3.250000e+002 -9.576564e+001
    endloop
  endfacet
  facet normal 8.660254e-001 0.000000e+000 5.000000e-001
    outer loop
      vertex   -2.144924e+002 3.250000e+002 -1.799805e+002
      vertex   -2.631139e+002 3.250000e+002 -9.576564e+001
      vertex   -2.631139e+002 -3.250000e+002 -9.576564e+001
    endloop
  endfacet
  facet normal 8.660254e-001 0.000000e+000 5.000000e-001
    outer loop
      vertex   -2.631139e+002 -3.250000e+002 -9.576564e+001
      vertex   -2.144924e+002 -3.250000e+002 -1.799805e+002
      vertex   -2.144924e+002 3.250000e+002 -1.799805e+002
    endloop
  endfacet
  facet normal 6.427876e-001 0.000000e+000 -7.660444e-001
    outer loop
      vertex   -7.660444e+002 -3.250000e+002 -6.427876e+002
      vertex   -7.660444e+002 3.250000e+002 -6.427876e+002
      vertex   -2.144924e+002 3.250000e+002 -1.799805e+002
    endloop
  endfacet
  facet normal 6.427876e-001 0.000000e+000 -7.660444e-001
    outer loop
      vertex   -2.144924e+002 3.250000e+002 -1.799805e+002
      vertex   -2.144924e+002 -3.250000e+002 -1.799805e+002
      vertex   -7.660444e+002 -3.250000e+002 -6.427876e+002
    endloop
  endfacet
  facet normal 0.000000e+000 -1.000000e+000 0.000000e+000
    outer loop
      vertex   -8.660254e+002 -3.250000e+002 -5.000000e+002
      vertex   -7.660444e+002 -3.250000e+002 -6.427876e+002
      vertex   -2.144924e+002 -3.250000e+002 -1.799805e+002
    endloop
  endfacet
  facet normal 0.000000e+000 -1.000000e+000 0.000000e+000
    outer loop
      vertex   -2.631139e+002 -3.250000e+002 -9.576564e+001
      vertex   -9.396926e+002 -3.250000e+002 -3.420201e+002
      vertex   -8.660254e+002 -3.250000e+002 -5.000000e+002
    endloop
  endfacet
  facet normal -0.000000e+000 -1.000000e+000 0.000000e+000
    outer loop
      vertex   -2.144924e+002 -3.250000e+002 -1.799805e+002
      vertex   -2.631139e+002 -3.250000e+002 -9.576564e+001
      vertex   -8.660254e+002 -3.250000e+002 -5.000000e+002
    endloop
  endfacet
  facet normal 0.000000e+000 1.000000e+000 0.000000e+000
    outer loop
      vertex   -8.660254e+002 3.250000e+002 -5.000000e+002
      vertex   -2.631139e+002 3.250000e+002 -9.576564e+001
      vertex   -2.144924e+002 3.250000e+002 -1.799805e+002
    endloop
  endfacet
  facet normal -1.420869e-016 1.000000e+000 2.892770e-016
    outer loop
      vertex   -2.144924e+002 3.250000e+002 -1.799805e+002
      vertex   -7.660444e+002 3.250000e+002 -6.427876e+002
      vertex   -8.660254e+002 3.250000e+002 -5.000000e+002
    endloop
  endfacet
  facet normal 1.794778e-016 1.000000e+000 -2.676893e-016
    outer loop
      vertex   -8.660254e+002 3.250000e+002 -5.000000e+002
      vertex   -9.396926e+002 3.250000e+002 -3.420201e+002
      vertex   -2.631139e+002 3.250000e+002 -9.576564e+001
    endloop
  endfacet
endsolid
