solid PART3
  facet normal -8.257320e-001 -5.517365e-001 -1.172752e-001
    outer loop
      vertex   1.790708e+001 1.604071e+002 0.000000e+000
      vertex   1.343344e+001 1.671024e+002 0.000000e+000
      vertex   1.343344e+001 1.677852e+002 -3.212255e+000
    endloop
  endfacet
  facet normal -8.257320e-001 -4.563362e-001 -3.315477e-001
    outer loop
      vertex   1.790708e+001 1.616687e+002 -5.935474e+000
      vertex   1.343344e+001 1.677852e+002 -3.212255e+000
      vertex   1.343344e+001 1.697155e+002 -5.869082e+000
    endloop
  endfacet
  facet normal -8.257320e-001 -2.820313e-001 -4.884926e-001
    outer loop
      vertex   1.790708e+001 1.652354e+002 -1.084465e+001
      vertex   1.343344e+001 1.697155e+002 -5.869082e+000
      vertex   1.343344e+001 1.725595e+002 -7.511092e+000
    endloop
  endfacet
  facet normal -8.257320e-001 -5.896060e-002 -5.609726e-001
    outer loop
      vertex   1.790708e+001 1.704905e+002 -1.387869e+001
      vertex   1.343344e+001 1.725595e+002 -7.511092e+000
      vertex   1.343344e+001 1.758255e+002 -7.854365e+000
    endloop
  endfacet
  facet normal -8.257320e-001 1.743049e-001 -5.364554e-001
    outer loop
      vertex   1.790708e+001 1.765254e+002 -1.451297e+001
      vertex   1.343344e+001 1.758255e+002 -7.854365e+000
      vertex   1.343344e+001 1.789488e+002 -6.839548e+000
    endloop
  endfacet
  facet normal -8.257320e-001 3.774316e-001 -4.191802e-001
    outer loop
      vertex   1.790708e+001 1.822965e+002 -1.263784e+001
      vertex   1.343344e+001 1.789488e+002 -6.839548e+000
      vertex   1.343344e+001 1.813893e+002 -4.642110e+000
    endloop
  endfacet
  facet normal -8.257320e-001 5.152968e-001 -2.294249e-001
    outer loop
      vertex   1.790708e+001 1.868059e+002 -8.577501e+000
      vertex   1.343344e+001 1.813893e+002 -4.642110e+000
      vertex   1.343344e+001 1.827250e+002 -1.642009e+000
    endloop
  endfacet
  facet normal -8.257320e-001 5.640626e-001 0.000000e+000
    outer loop
      vertex   1.790708e+001 1.892740e+002 -3.034038e+000
      vertex   1.343344e+001 1.827250e+002 -1.642009e+000
      vertex   1.343344e+001 1.827250e+002 1.642009e+000
    endloop
  endfacet
  facet normal -8.257320e-001 5.152968e-001 2.294249e-001
    outer loop
      vertex   1.790708e+001 1.892740e+002 3.034038e+000
      vertex   1.343344e+001 1.827250e+002 1.642009e+000
      vertex   1.343344e+001 1.813893e+002 4.642110e+000
    endloop
  endfacet
  facet normal -8.257320e-001 3.774316e-001 4.191802e-001
    outer loop
      vertex   1.790708e+001 1.868059e+002 8.577501e+000
      vertex   1.343344e+001 1.813893e+002 4.642110e+000
      vertex   1.343344e+001 1.789488e+002 6.839548e+000
    endloop
  endfacet
  facet normal -8.257320e-001 1.743049e-001 5.364554e-001
    outer loop
      vertex   1.790708e+001 1.822965e+002 1.263784e+001
      vertex   1.343344e+001 1.789488e+002 6.839548e+000
      vertex   1.343344e+001 1.758255e+002 7.854365e+000
    endloop
  endfacet
  facet normal -8.257320e-001 -5.896060e-002 5.609726e-001
    outer loop
      vertex   1.790708e+001 1.765254e+002 1.451297e+001
      vertex   1.343344e+001 1.758255e+002 7.854365e+000
      vertex   1.343344e+001 1.725595e+002 7.511092e+000
    endloop
  endfacet
  facet normal -8.257320e-001 -2.820313e-001 4.884926e-001
    outer loop
      vertex   1.790708e+001 1.704905e+002 1.387869e+001
      vertex   1.343344e+001 1.725595e+002 7.511092e+000
      vertex   1.343344e+001 1.697155e+002 5.869082e+000
    endloop
  endfacet
  facet normal -8.257320e-001 -4.563362e-001 3.315477e-001
    outer loop
      vertex   1.790708e+001 1.652354e+002 1.084465e+001
      vertex   1.343344e+001 1.697155e+002 5.869082e+000
      vertex   1.343344e+001 1.677852e+002 3.212255e+000
    endloop
  endfacet
  facet normal -8.257320e-001 -5.517365e-001 1.172752e-001
    outer loop
      vertex   1.790708e+001 1.616687e+002 5.935474e+000
      vertex   1.343344e+001 1.677852e+002 3.212255e+000
      vertex   1.343344e+001 1.671024e+002 0.000000e+000
    endloop
  endfacet
  facet normal -5.470917e-001 -8.187806e-001 -1.740372e-001
    outer loop
      vertex   2.460237e+001 1.559334e+002 0.000000e+000
      vertex   1.790708e+001 1.604071e+002 0.000000e+000
      vertex   1.790708e+001 1.616687e+002 -5.935474e+000
    endloop
  endfacet
  facet normal -5.470917e-001 -6.772060e-001 -4.920190e-001
    outer loop
      vertex   2.460237e+001 1.575818e+002 -7.755070e+000
      vertex   1.790708e+001 1.616687e+002 -5.935474e+000
      vertex   1.790708e+001 1.652354e+002 -1.084465e+001
    endloop
  endfacet
  facet normal -5.470917e-001 -4.185363e-001 -7.249262e-001
    outer loop
      vertex   2.460237e+001 1.622420e+002 -1.416922e+001
      vertex   1.790708e+001 1.652354e+002 -1.084465e+001
      vertex   1.790708e+001 1.704905e+002 -1.387869e+001
    endloop
  endfacet
  facet normal -5.470917e-001 -8.749792e-002 -8.324871e-001
    outer loop
      vertex   2.460237e+001 1.691081e+002 -1.813338e+001
      vertex   1.790708e+001 1.704905e+002 -1.387869e+001
      vertex   1.790708e+001 1.765254e+002 -1.451297e+001
    endloop
  endfacet
  facet normal -5.470917e-001 2.586697e-001 -7.961034e-001
    outer loop
      vertex   2.460237e+001 1.769930e+002 -1.896212e+001
      vertex   1.790708e+001 1.765254e+002 -1.451297e+001
      vertex   1.790708e+001 1.822965e+002 -1.263784e+001
    endloop
  endfacet
  facet normal -5.470917e-001 5.601109e-001 -6.220662e-001
    outer loop
      vertex   2.460237e+001 1.845333e+002 -1.651213e+001
      vertex   1.790708e+001 1.822965e+002 -1.263784e+001
      vertex   1.790708e+001 1.868059e+002 -8.577501e+000
    endloop
  endfacet
  facet normal -5.470917e-001 7.647039e-001 -3.404681e-001
    outer loop
      vertex   2.460237e+001 1.904252e+002 -1.120705e+001
      vertex   1.790708e+001 1.868059e+002 -8.577501e+000
      vertex   1.790708e+001 1.892740e+002 -3.034038e+000
    endloop
  endfacet
  facet normal -5.470917e-001 8.370727e-001 0.000000e+000
    outer loop
      vertex   2.460237e+001 1.936499e+002 -3.964162e+000
      vertex   1.790708e+001 1.892740e+002 -3.034038e+000
      vertex   1.790708e+001 1.892740e+002 3.034038e+000
    endloop
  endfacet
  facet normal -5.470917e-001 7.647039e-001 3.404681e-001
    outer loop
      vertex   2.460237e+001 1.936499e+002 3.964162e+000
      vertex   1.790708e+001 1.892740e+002 3.034038e+000
      vertex   1.790708e+001 1.868059e+002 8.577501e+000
    endloop
  endfacet
  facet normal -5.470917e-001 5.601109e-001 6.220662e-001
    outer loop
      vertex   2.460237e+001 1.904252e+002 1.120705e+001
      vertex   1.790708e+001 1.868059e+002 8.577501e+000
      vertex   1.790708e+001 1.822965e+002 1.263784e+001
    endloop
  endfacet
  facet normal -5.470917e-001 2.586697e-001 7.961034e-001
    outer loop
      vertex   2.460237e+001 1.845333e+002 1.651213e+001
      vertex   1.790708e+001 1.822965e+002 1.263784e+001
      vertex   1.790708e+001 1.765254e+002 1.451297e+001
    endloop
  endfacet
  facet normal -5.470917e-001 -8.749792e-002 8.324871e-001
    outer loop
      vertex   2.460237e+001 1.769930e+002 1.896212e+001
      vertex   1.790708e+001 1.765254e+002 1.451297e+001
      vertex   1.790708e+001 1.704905e+002 1.387869e+001
    endloop
  endfacet
  facet normal -5.470917e-001 -4.185363e-001 7.249262e-001
    outer loop
      vertex   2.460237e+001 1.691081e+002 1.813338e+001
      vertex   1.790708e+001 1.704905e+002 1.387869e+001
      vertex   1.790708e+001 1.652354e+002 1.084465e+001
    endloop
  endfacet
  facet normal -5.470917e-001 -6.772060e-001 4.920190e-001
    outer loop
      vertex   2.460237e+001 1.622420e+002 1.416922e+001
      vertex   1.790708e+001 1.652354e+002 1.084465e+001
      vertex   1.790708e+001 1.616687e+002 5.935474e+000
    endloop
  endfacet
  facet normal -5.470917e-001 -8.187806e-001 1.740372e-001
    outer loop
      vertex   2.460237e+001 1.575818e+002 7.755070e+000
      vertex   1.790708e+001 1.616687e+002 5.935474e+000
      vertex   1.790708e+001 1.604071e+002 0.000000e+000
    endloop
  endfacet
  facet normal -1.909843e-001 -9.601429e-001 -2.040847e-001
    outer loop
      vertex   3.250000e+001 1.543625e+002 0.000000e+000
      vertex   2.460237e+001 1.559334e+002 0.000000e+000
      vertex   2.460237e+001 1.575818e+002 -7.755070e+000
    endloop
  endfacet
  facet normal -1.909843e-001 -7.941255e-001 -5.769659e-001
    outer loop
      vertex   3.250000e+001 1.561467e+002 -8.394027e+000
      vertex   2.460237e+001 1.575818e+002 -7.755070e+000
      vertex   2.460237e+001 1.622420e+002 -1.416922e+001
    endloop
  endfacet
  facet normal -1.909843e-001 -4.907965e-001 -8.500846e-001
    outer loop
      vertex   3.250000e+001 1.611908e+002 -1.533665e+001
      vertex   2.460237e+001 1.622420e+002 -1.416922e+001
      vertex   2.460237e+001 1.691081e+002 -1.813338e+001
    endloop
  endfacet
  facet normal -1.909843e-001 -1.026044e-001 -9.762158e-001
    outer loop
      vertex   3.250000e+001 1.686227e+002 -1.962743e+001
      vertex   2.460237e+001 1.691081e+002 -1.813338e+001
      vertex   2.460237e+001 1.769930e+002 -1.896212e+001
    endloop
  endfacet
  facet normal -1.909843e-001 3.033289e-001 -9.335505e-001
    outer loop
      vertex   3.250000e+001 1.771572e+002 -2.052445e+001
      vertex   2.460237e+001 1.769930e+002 -1.896212e+001
      vertex   2.460237e+001 1.845333e+002 -1.651213e+001
    endloop
  endfacet
  facet normal -1.909843e-001 6.568140e-001 -7.294658e-001
    outer loop
      vertex   3.250000e+001 1.853187e+002 -1.787260e+001
      vertex   2.460237e+001 1.845333e+002 -1.651213e+001
      vertex   2.460237e+001 1.904252e+002 -1.120705e+001
    endloop
  endfacet
  facet normal -1.909843e-001 8.967299e-001 -3.992499e-001
    outer loop
      vertex   3.250000e+001 1.916961e+002 -1.213042e+001
      vertex   2.460237e+001 1.904252e+002 -1.120705e+001
      vertex   2.460237e+001 1.936499e+002 -3.964162e+000
    endloop
  endfacet
  facet normal -1.909843e-001 9.815931e-001 0.000000e+000
    outer loop
      vertex   3.250000e+001 1.951865e+002 -4.290778e+000
      vertex   2.460237e+001 1.936499e+002 -3.964162e+000
      vertex   2.460237e+001 1.936499e+002 3.964162e+000
    endloop
  endfacet
  facet normal -1.909843e-001 8.967299e-001 3.992499e-001
    outer loop
      vertex   3.250000e+001 1.951865e+002 4.290778e+000
      vertex   2.460237e+001 1.936499e+002 3.964162e+000
      vertex   2.460237e+001 1.904252e+002 1.120705e+001
    endloop
  endfacet
  facet normal -1.909843e-001 6.568140e-001 7.294658e-001
    outer loop
      vertex   3.250000e+001 1.916961e+002 1.213042e+001
      vertex   2.460237e+001 1.904252e+002 1.120705e+001
      vertex   2.460237e+001 1.845333e+002 1.651213e+001
    endloop
  endfacet
  facet normal -1.909843e-001 3.033289e-001 9.335505e-001
    outer loop
      vertex   3.250000e+001 1.853188e+002 1.787260e+001
      vertex   2.460237e+001 1.845333e+002 1.651213e+001
      vertex   2.460237e+001 1.769930e+002 1.896212e+001
    endloop
  endfacet
  facet normal -1.909843e-001 -1.026044e-001 9.762158e-001
    outer loop
      vertex   3.250000e+001 1.771572e+002 2.052445e+001
      vertex   2.460237e+001 1.769930e+002 1.896212e+001
      vertex   2.460237e+001 1.691081e+002 1.813338e+001
    endloop
  endfacet
  facet normal -1.909843e-001 -4.907965e-001 8.500846e-001
    outer loop
      vertex   3.250000e+001 1.686227e+002 1.962743e+001
      vertex   2.460237e+001 1.691081e+002 1.813338e+001
      vertex   2.460237e+001 1.622420e+002 1.416922e+001
    endloop
  endfacet
  facet normal -1.909843e-001 -7.941255e-001 5.769659e-001
    outer loop
      vertex   3.250000e+001 1.611908e+002 1.533665e+001
      vertex   2.460237e+001 1.622420e+002 1.416922e+001
      vertex   2.460237e+001 1.575818e+002 7.755070e+000
    endloop
  endfacet
  facet normal -1.909843e-001 -9.601429e-001 2.040847e-001
    outer loop
      vertex   3.250000e+001 1.561467e+002 8.394027e+000
      vertex   2.460237e+001 1.575818e+002 7.755070e+000
      vertex   2.460237e+001 1.559334e+002 0.000000e+000
    endloop
  endfacet
  facet normal 1.909843e-001 -9.601429e-001 -2.040847e-001
    outer loop
      vertex   4.039763e+001 1.559334e+002 0.000000e+000
      vertex   3.250000e+001 1.543625e+002 0.000000e+000
      vertex   3.250000e+001 1.561467e+002 -8.394027e+000
    endloop
  endfacet
  facet normal 1.909843e-001 -7.941255e-001 -5.769659e-001
    outer loop
      vertex   4.039763e+001 1.575818e+002 -7.755070e+000
      vertex   3.250000e+001 1.561467e+002 -8.394027e+000
      vertex   3.250000e+001 1.611908e+002 -1.533665e+001
    endloop
  endfacet
  facet normal 1.909843e-001 -4.907965e-001 -8.500846e-001
    outer loop
      vertex   4.039763e+001 1.622420e+002 -1.416922e+001
      vertex   3.250000e+001 1.611908e+002 -1.533665e+001
      vertex   3.250000e+001 1.686227e+002 -1.962743e+001
    endloop
  endfacet
  facet normal 1.909843e-001 -1.026044e-001 -9.762158e-001
    outer loop
      vertex   4.039763e+001 1.691081e+002 -1.813338e+001
      vertex   3.250000e+001 1.686227e+002 -1.962743e+001
      vertex   3.250000e+001 1.771572e+002 -2.052445e+001
    endloop
  endfacet
  facet normal 1.909843e-001 3.033289e-001 -9.335505e-001
    outer loop
      vertex   4.039763e+001 1.769930e+002 -1.896212e+001
      vertex   3.250000e+001 1.771572e+002 -2.052445e+001
      vertex   3.250000e+001 1.853187e+002 -1.787260e+001
    endloop
  endfacet
  facet normal 1.909843e-001 6.568140e-001 -7.294658e-001
    outer loop
      vertex   4.039763e+001 1.845333e+002 -1.651213e+001
      vertex   3.250000e+001 1.853187e+002 -1.787260e+001
      vertex   3.250000e+001 1.916961e+002 -1.213042e+001
    endloop
  endfacet
  facet normal 1.909843e-001 8.967299e-001 -3.992499e-001
    outer loop
      vertex   4.039763e+001 1.904252e+002 -1.120705e+001
      vertex   3.250000e+001 1.916961e+002 -1.213042e+001
      vertex   3.250000e+001 1.951865e+002 -4.290778e+000
    endloop
  endfacet
  facet normal 1.909843e-001 9.815931e-001 0.000000e+000
    outer loop
      vertex   4.039763e+001 1.936499e+002 -3.964162e+000
      vertex   3.250000e+001 1.951865e+002 -4.290778e+000
      vertex   3.250000e+001 1.951865e+002 4.290778e+000
    endloop
  endfacet
  facet normal 1.909843e-001 8.967299e-001 3.992499e-001
    outer loop
      vertex   4.039763e+001 1.936499e+002 3.964162e+000
      vertex   3.250000e+001 1.951865e+002 4.290778e+000
      vertex   3.250000e+001 1.916961e+002 1.213042e+001
    endloop
  endfacet
  facet normal 1.909843e-001 6.568140e-001 7.294658e-001
    outer loop
      vertex   4.039763e+001 1.904252e+002 1.120705e+001
      vertex   3.250000e+001 1.916961e+002 1.213042e+001
      vertex   3.250000e+001 1.853188e+002 1.787260e+001
    endloop
  endfacet
  facet normal 1.909843e-001 3.033289e-001 9.335505e-001
    outer loop
      vertex   4.039763e+001 1.845333e+002 1.651213e+001
      vertex   3.250000e+001 1.853188e+002 1.787260e+001
      vertex   3.250000e+001 1.771572e+002 2.052445e+001
    endloop
  endfacet
  facet normal 1.909843e-001 -1.026044e-001 9.762158e-001
    outer loop
      vertex   4.039763e+001 1.769930e+002 1.896212e+001
      vertex   3.250000e+001 1.771572e+002 2.052445e+001
      vertex   3.250000e+001 1.686227e+002 1.962743e+001
    endloop
  endfacet
  facet normal 1.909843e-001 -4.907965e-001 8.500846e-001
    outer loop
      vertex   4.039763e+001 1.691081e+002 1.813338e+001
      vertex   3.250000e+001 1.686227e+002 1.962743e+001
      vertex   3.250000e+001 1.611908e+002 1.533665e+001
    endloop
  endfacet
  facet normal 1.909843e-001 -7.941255e-001 5.769659e-001
    outer loop
      vertex   4.039763e+001 1.622420e+002 1.416922e+001
      vertex   3.250000e+001 1.611908e+002 1.533665e+001
      vertex   3.250000e+001 1.561467e+002 8.394027e+000
    endloop
  endfacet
  facet normal 1.909843e-001 -9.601429e-001 2.040847e-001
    outer loop
      vertex   4.039763e+001 1.575818e+002 7.755070e+000
      vertex   3.250000e+001 1.561467e+002 8.394027e+000
      vertex   3.250000e+001 1.543625e+002 0.000000e+000
    endloop
  endfacet
  facet normal 5.470917e-001 -8.187806e-001 -1.740372e-001
    outer loop
      vertex   4.709292e+001 1.604071e+002 0.000000e+000
      vertex   4.039763e+001 1.559334e+002 0.000000e+000
      vertex   4.039763e+001 1.575818e+002 -7.755070e+000
    endloop
  endfacet
  facet normal 5.470917e-001 -6.772060e-001 -4.920190e-001
    outer loop
      vertex   4.709292e+001 1.616687e+002 -5.935474e+000
      vertex   4.039763e+001 1.575818e+002 -7.755070e+000
      vertex   4.039763e+001 1.622420e+002 -1.416922e+001
    endloop
  endfacet
  facet normal 5.470917e-001 -4.185363e-001 -7.249262e-001
    outer loop
      vertex   4.709292e+001 1.652354e+002 -1.084465e+001
      vertex   4.039763e+001 1.622420e+002 -1.416922e+001
      vertex   4.039763e+001 1.691081e+002 -1.813338e+001
    endloop
  endfacet
  facet normal 5.470917e-001 -8.749792e-002 -8.324871e-001
    outer loop
      vertex   4.709292e+001 1.704905e+002 -1.387869e+001
      vertex   4.039763e+001 1.691081e+002 -1.813338e+001
      vertex   4.039763e+001 1.769930e+002 -1.896212e+001
    endloop
  endfacet
  facet normal 5.470917e-001 2.586697e-001 -7.961034e-001
    outer loop
      vertex   4.709292e+001 1.765254e+002 -1.451297e+001
      vertex   4.039763e+001 1.769930e+002 -1.896212e+001
      vertex   4.039763e+001 1.845333e+002 -1.651213e+001
    endloop
  endfacet
  facet normal 5.470917e-001 5.601109e-001 -6.220662e-001
    outer loop
      vertex   4.709292e+001 1.822965e+002 -1.263784e+001
      vertex   4.039763e+001 1.845333e+002 -1.651213e+001
      vertex   4.039763e+001 1.904252e+002 -1.120705e+001
    endloop
  endfacet
  facet normal 5.470917e-001 7.647039e-001 -3.404681e-001
    outer loop
      vertex   4.709292e+001 1.868059e+002 -8.577501e+000
      vertex   4.039763e+001 1.904252e+002 -1.120705e+001
      vertex   4.039763e+001 1.936499e+002 -3.964162e+000
    endloop
  endfacet
  facet normal 5.470917e-001 8.370727e-001 0.000000e+000
    outer loop
      vertex   4.709292e+001 1.892740e+002 -3.034038e+000
      vertex   4.039763e+001 1.936499e+002 -3.964162e+000
      vertex   4.039763e+001 1.936499e+002 3.964162e+000
    endloop
  endfacet
  facet normal 5.470917e-001 7.647039e-001 3.404681e-001
    outer loop
      vertex   4.709292e+001 1.892740e+002 3.034038e+000
      vertex   4.039763e+001 1.936499e+002 3.964162e+000
      vertex   4.039763e+001 1.904252e+002 1.120705e+001
    endloop
  endfacet
  facet normal 5.470917e-001 5.601109e-001 6.220662e-001
    outer loop
      vertex   4.709292e+001 1.868059e+002 8.577501e+000
      vertex   4.039763e+001 1.904252e+002 1.120705e+001
      vertex   4.039763e+001 1.845333e+002 1.651213e+001
    endloop
  endfacet
  facet normal 5.470917e-001 2.586697e-001 7.961034e-001
    outer loop
      vertex   4.709292e+001 1.822965e+002 1.263784e+001
      vertex   4.039763e+001 1.845333e+002 1.651213e+001
      vertex   4.039763e+001 1.769930e+002 1.896212e+001
    endloop
  endfacet
  facet normal 5.470917e-001 -8.749792e-002 8.324871e-001
    outer loop
      vertex   4.709292e+001 1.765254e+002 1.451297e+001
      vertex   4.039763e+001 1.769930e+002 1.896212e+001
      vertex   4.039763e+001 1.691081e+002 1.813338e+001
    endloop
  endfacet
  facet normal 5.470917e-001 -4.185363e-001 7.249262e-001
    outer loop
      vertex   4.709292e+001 1.704905e+002 1.387869e+001
      vertex   4.039763e+001 1.691081e+002 1.813338e+001
      vertex   4.039763e+001 1.622420e+002 1.416922e+001
    endloop
  endfacet
  facet normal 5.470917e-001 -6.772060e-001 4.920190e-001
    outer loop
      vertex   4.709292e+001 1.652354e+002 1.084465e+001
      vertex   4.039763e+001 1.622420e+002 1.416922e+001
      vertex   4.039763e+001 1.575818e+002 7.755070e+000
    endloop
  endfacet
  facet normal 5.470917e-001 -8.187806e-001 1.740372e-001
    outer loop
      vertex   4.709292e+001 1.616687e+002 5.935474e+000
      vertex   4.039763e+001 1.575818e+002 7.755070e+000
      vertex   4.039763e+001 1.559334e+002 0.000000e+000
    endloop
  endfacet
  facet normal 8.257320e-001 -5.517365e-001 -1.172752e-001
    outer loop
      vertex   5.156656e+001 1.671024e+002 0.000000e+000
      vertex   4.709292e+001 1.604071e+002 0.000000e+000
      vertex   4.709292e+001 1.616687e+002 -5.935474e+000
    endloop
  endfacet
  facet normal 8.257320e-001 -4.563362e-001 -3.315477e-001
    outer loop
      vertex   5.156656e+001 1.677852e+002 -3.212255e+000
      vertex   4.709292e+001 1.616687e+002 -5.935474e+000
      vertex   4.709292e+001 1.652354e+002 -1.084465e+001
    endloop
  endfacet
  facet normal 8.257320e-001 -2.820313e-001 -4.884926e-001
    outer loop
      vertex   5.156656e+001 1.697155e+002 -5.869082e+000
      vertex   4.709292e+001 1.652354e+002 -1.084465e+001
      vertex   4.709292e+001 1.704905e+002 -1.387869e+001
    endloop
  endfacet
  facet normal 8.257320e-001 -5.896060e-002 -5.609726e-001
    outer loop
      vertex   5.156656e+001 1.725595e+002 -7.511092e+000
      vertex   4.709292e+001 1.704905e+002 -1.387869e+001
      vertex   4.709292e+001 1.765254e+002 -1.451297e+001
    endloop
  endfacet
  facet normal 8.257320e-001 1.743049e-001 -5.364554e-001
    outer loop
      vertex   5.156656e+001 1.758255e+002 -7.854365e+000
      vertex   4.709292e+001 1.765254e+002 -1.451297e+001
      vertex   4.709292e+001 1.822965e+002 -1.263784e+001
    endloop
  endfacet
  facet normal 8.257320e-001 3.774316e-001 -4.191802e-001
    outer loop
      vertex   5.156656e+001 1.789488e+002 -6.839548e+000
      vertex   4.709292e+001 1.822965e+002 -1.263784e+001
      vertex   4.709292e+001 1.868059e+002 -8.577501e+000
    endloop
  endfacet
  facet normal 8.257320e-001 5.152968e-001 -2.294249e-001
    outer loop
      vertex   5.156656e+001 1.813893e+002 -4.642110e+000
      vertex   4.709292e+001 1.868059e+002 -8.577501e+000
      vertex   4.709292e+001 1.892740e+002 -3.034038e+000
    endloop
  endfacet
  facet normal 8.257320e-001 5.640626e-001 0.000000e+000
    outer loop
      vertex   5.156656e+001 1.827250e+002 -1.642009e+000
      vertex   4.709292e+001 1.892740e+002 -3.034038e+000
      vertex   4.709292e+001 1.892740e+002 3.034038e+000
    endloop
  endfacet
  facet normal 8.257320e-001 5.152968e-001 2.294249e-001
    outer loop
      vertex   5.156656e+001 1.827250e+002 1.642009e+000
      vertex   4.709292e+001 1.892740e+002 3.034038e+000
      vertex   4.709292e+001 1.868059e+002 8.577501e+000
    endloop
  endfacet
  facet normal 8.257320e-001 3.774316e-001 4.191802e-001
    outer loop
      vertex   5.156656e+001 1.813893e+002 4.642110e+000
      vertex   4.709292e+001 1.868059e+002 8.577501e+000
      vertex   4.709292e+001 1.822965e+002 1.263784e+001
    endloop
  endfacet
  facet normal 8.257320e-001 1.743049e-001 5.364554e-001
    outer loop
      vertex   5.156656e+001 1.789488e+002 6.839548e+000
      vertex   4.709292e+001 1.822965e+002 1.263784e+001
      vertex   4.709292e+001 1.765254e+002 1.451297e+001
    endloop
  endfacet
  facet normal 8.257320e-001 -5.896060e-002 5.609726e-001
    outer loop
      vertex   5.156656e+001 1.758255e+002 7.854365e+000
      vertex   4.709292e+001 1.765254e+002 1.451297e+001
      vertex   4.709292e+001 1.704905e+002 1.387869e+001
    endloop
  endfacet
  facet normal 8.257320e-001 -2.820313e-001 4.884926e-001
    outer loop
      vertex   5.156656e+001 1.725595e+002 7.511092e+000
      vertex   4.709292e+001 1.704905e+002 1.387869e+001
      vertex   4.709292e+001 1.652354e+002 1.084465e+001
    endloop
  endfacet
  facet normal 8.257320e-001 -4.563362e-001 3.315477e-001
    outer loop
      vertex   5.156656e+001 1.697155e+002 5.869082e+000
      vertex   4.709292e+001 1.652354e+002 1.084465e+001
      vertex   4.709292e+001 1.616687e+002 5.935474e+000
    endloop
  endfacet
  facet normal 8.257320e-001 -5.517365e-001 1.172752e-001
    outer loop
      vertex   5.156656e+001 1.677852e+002 3.212255e+000
      vertex   4.709292e+001 1.616687e+002 5.935474e+000
      vertex   4.709292e+001 1.604071e+002 0.000000e+000
    endloop
  endfacet
  facet normal 9.799431e-001 -1.949228e-001 4.143212e-002
    outer loop
      vertex   5.313750e+001 1.750000e+002 0.000000e+000
      vertex   5.156656e+001 1.677852e+002 3.212255e+000
      vertex   5.156656e+001 1.671024e+002 0.000000e+000
    endloop
  endfacet
  facet normal 9.799431e-001 -1.612189e-001 1.171324e-001
    outer loop
      vertex   5.313750e+001 1.750000e+002 0.000000e+000
      vertex   5.156656e+001 1.697155e+002 5.869082e+000
      vertex   5.156656e+001 1.677852e+002 3.212255e+000
    endloop
  endfacet
  facet normal 9.799431e-001 -9.963875e-002 1.725794e-001
    outer loop
      vertex   5.313750e+001 1.750000e+002 0.000000e+000
      vertex   5.156656e+001 1.725595e+002 7.511092e+000
      vertex   5.156656e+001 1.697155e+002 5.869082e+000
    endloop
  endfacet
  facet normal 9.799431e-001 -2.083017e-002 1.981858e-001
    outer loop
      vertex   5.313750e+001 1.750000e+002 0.000000e+000
      vertex   5.156656e+001 1.758255e+002 7.854365e+000
      vertex   5.156656e+001 1.725595e+002 7.511092e+000
    endloop
  endfacet
  facet normal 9.799431e-001 6.158013e-002 1.895242e-001
    outer loop
      vertex   5.313750e+001 1.750000e+002 0.000000e+000
      vertex   5.156656e+001 1.789488e+002 6.839548e+000
      vertex   5.156656e+001 1.758255e+002 7.854365e+000
    endloop
  endfacet
  facet normal 9.799431e-001 1.333427e-001 1.480920e-001
    outer loop
      vertex   5.313750e+001 1.750000e+002 0.000000e+000
      vertex   5.156656e+001 1.813893e+002 4.642110e+000
      vertex   5.156656e+001 1.789488e+002 6.839548e+000
    endloop
  endfacet
  facet normal 9.799431e-001 1.820490e-001 8.105346e-002
    outer loop
      vertex   5.313750e+001 1.750000e+002 0.000000e+000
      vertex   5.156656e+001 1.827250e+002 1.642009e+000
      vertex   5.156656e+001 1.813893e+002 4.642110e+000
    endloop
  endfacet
  facet normal 9.799431e-001 1.992775e-001 0.000000e+000
    outer loop
      vertex   5.313750e+001 1.750000e+002 0.000000e+000
      vertex   5.156656e+001 1.827250e+002 -1.642009e+000
      vertex   5.156656e+001 1.827250e+002 1.642009e+000
    endloop
  endfacet
  facet normal 9.799431e-001 1.820490e-001 -8.105346e-002
    outer loop
      vertex   5.313750e+001 1.750000e+002 0.000000e+000
      vertex   5.156656e+001 1.813893e+002 -4.642110e+000
      vertex   5.156656e+001 1.827250e+002 -1.642009e+000
    endloop
  endfacet
  facet normal 9.799431e-001 1.333427e-001 -1.480920e-001
    outer loop
      vertex   5.313750e+001 1.750000e+002 0.000000e+000
      vertex   5.156656e+001 1.789488e+002 -6.839548e+000
      vertex   5.156656e+001 1.813893e+002 -4.642110e+000
    endloop
  endfacet
  facet normal 9.799431e-001 6.158013e-002 -1.895242e-001
    outer loop
      vertex   5.313750e+001 1.750000e+002 0.000000e+000
      vertex   5.156656e+001 1.758255e+002 -7.854365e+000
      vertex   5.156656e+001 1.789488e+002 -6.839548e+000
    endloop
  endfacet
  facet normal 9.799431e-001 -2.083017e-002 -1.981858e-001
    outer loop
      vertex   5.313750e+001 1.750000e+002 0.000000e+000
      vertex   5.156656e+001 1.725595e+002 -7.511092e+000
      vertex   5.156656e+001 1.758255e+002 -7.854365e+000
    endloop
  endfacet
  facet normal 9.799431e-001 -9.963875e-002 -1.725794e-001
    outer loop
      vertex   5.313750e+001 1.750000e+002 0.000000e+000
      vertex   5.156656e+001 1.697155e+002 -5.869082e+000
      vertex   5.156656e+001 1.725595e+002 -7.511092e+000
    endloop
  endfacet
  facet normal 9.799431e-001 -1.612189e-001 -1.171324e-001
    outer loop
      vertex   5.313750e+001 1.750000e+002 0.000000e+000
      vertex   5.156656e+001 1.677852e+002 -3.212255e+000
      vertex   5.156656e+001 1.697155e+002 -5.869082e+000
    endloop
  endfacet
  facet normal 9.799431e-001 -1.949228e-001 -4.143212e-002
    outer loop
      vertex   5.313750e+001 1.750000e+002 0.000000e+000
      vertex   5.156656e+001 1.671024e+002 0.000000e+000
      vertex   5.156656e+001 1.677852e+002 -3.212255e+000
    endloop
  endfacet
  facet normal 8.257320e-001 -5.517365e-001 1.172752e-001
    outer loop
      vertex   4.709292e+001 1.604071e+002 0.000000e+000
      vertex   5.156656e+001 1.671024e+002 0.000000e+000
      vertex   5.156656e+001 1.677852e+002 3.212255e+000
    endloop
  endfacet
  facet normal 8.257320e-001 -4.563362e-001 3.315477e-001
    outer loop
      vertex   4.709292e+001 1.616687e+002 5.935474e+000
      vertex   5.156656e+001 1.677852e+002 3.212255e+000
      vertex   5.156656e+001 1.697155e+002 5.869082e+000
    endloop
  endfacet
  facet normal 8.257320e-001 -2.820313e-001 4.884926e-001
    outer loop
      vertex   4.709292e+001 1.652354e+002 1.084465e+001
      vertex   5.156656e+001 1.697155e+002 5.869082e+000
      vertex   5.156656e+001 1.725595e+002 7.511092e+000
    endloop
  endfacet
  facet normal 8.257320e-001 -5.896060e-002 5.609726e-001
    outer loop
      vertex   4.709292e+001 1.704905e+002 1.387869e+001
      vertex   5.156656e+001 1.725595e+002 7.511092e+000
      vertex   5.156656e+001 1.758255e+002 7.854365e+000
    endloop
  endfacet
  facet normal 8.257320e-001 1.743049e-001 5.364554e-001
    outer loop
      vertex   4.709292e+001 1.765254e+002 1.451297e+001
      vertex   5.156656e+001 1.758255e+002 7.854365e+000
      vertex   5.156656e+001 1.789488e+002 6.839548e+000
    endloop
  endfacet
  facet normal 8.257320e-001 3.774316e-001 4.191802e-001
    outer loop
      vertex   4.709292e+001 1.822965e+002 1.263784e+001
      vertex   5.156656e+001 1.789488e+002 6.839548e+000
      vertex   5.156656e+001 1.813893e+002 4.642110e+000
    endloop
  endfacet
  facet normal 8.257320e-001 5.152968e-001 2.294249e-001
    outer loop
      vertex   4.709292e+001 1.868059e+002 8.577501e+000
      vertex   5.156656e+001 1.813893e+002 4.642110e+000
      vertex   5.156656e+001 1.827250e+002 1.642009e+000
    endloop
  endfacet
  facet normal 8.257320e-001 5.640626e-001 0.000000e+000
    outer loop
      vertex   4.709292e+001 1.892740e+002 3.034038e+000
      vertex   5.156656e+001 1.827250e+002 1.642009e+000
      vertex   5.156656e+001 1.827250e+002 -1.642009e+000
    endloop
  endfacet
  facet normal 8.257320e-001 5.152968e-001 -2.294249e-001
    outer loop
      vertex   4.709292e+001 1.892740e+002 -3.034038e+000
      vertex   5.156656e+001 1.827250e+002 -1.642009e+000
      vertex   5.156656e+001 1.813893e+002 -4.642110e+000
    endloop
  endfacet
  facet normal 8.257320e-001 3.774316e-001 -4.191802e-001
    outer loop
      vertex   4.709292e+001 1.868059e+002 -8.577501e+000
      vertex   5.156656e+001 1.813893e+002 -4.642110e+000
      vertex   5.156656e+001 1.789488e+002 -6.839548e+000
    endloop
  endfacet
  facet normal 8.257320e-001 1.743049e-001 -5.364554e-001
    outer loop
      vertex   4.709292e+001 1.822965e+002 -1.263784e+001
      vertex   5.156656e+001 1.789488e+002 -6.839548e+000
      vertex   5.156656e+001 1.758255e+002 -7.854365e+000
    endloop
  endfacet
  facet normal 8.257320e-001 -5.896060e-002 -5.609726e-001
    outer loop
      vertex   4.709292e+001 1.765254e+002 -1.451297e+001
      vertex   5.156656e+001 1.758255e+002 -7.854365e+000
      vertex   5.156656e+001 1.725595e+002 -7.511092e+000
    endloop
  endfacet
  facet normal 8.257320e-001 -2.820313e-001 -4.884926e-001
    outer loop
      vertex   4.709292e+001 1.704905e+002 -1.387869e+001
      vertex   5.156656e+001 1.725595e+002 -7.511092e+000
      vertex   5.156656e+001 1.697155e+002 -5.869082e+000
    endloop
  endfacet
  facet normal 8.257320e-001 -4.563362e-001 -3.315477e-001
    outer loop
      vertex   4.709292e+001 1.652354e+002 -1.084465e+001
      vertex   5.156656e+001 1.697155e+002 -5.869082e+000
      vertex   5.156656e+001 1.677852e+002 -3.212255e+000
    endloop
  endfacet
  facet normal 8.257320e-001 -5.517365e-001 -1.172752e-001
    outer loop
      vertex   4.709292e+001 1.616687e+002 -5.935474e+000
      vertex   5.156656e+001 1.677852e+002 -3.212255e+000
      vertex   5.156656e+001 1.671024e+002 0.000000e+000
    endloop
  endfacet
  facet normal 5.470917e-001 -8.187806e-001 1.740372e-001
    outer loop
      vertex   4.039763e+001 1.559334e+002 0.000000e+000
      vertex   4.709292e+001 1.604071e+002 0.000000e+000
      vertex   4.709292e+001 1.616687e+002 5.935474e+000
    endloop
  endfacet
  facet normal 5.470917e-001 -6.772060e-001 4.920190e-001
    outer loop
      vertex   4.039763e+001 1.575818e+002 7.755070e+000
      vertex   4.709292e+001 1.616687e+002 5.935474e+000
      vertex   4.709292e+001 1.652354e+002 1.084465e+001
    endloop
  endfacet
  facet normal 5.470917e-001 -4.185363e-001 7.249262e-001
    outer loop
      vertex   4.039763e+001 1.622420e+002 1.416922e+001
      vertex   4.709292e+001 1.652354e+002 1.084465e+001
      vertex   4.709292e+001 1.704905e+002 1.387869e+001
    endloop
  endfacet
  facet normal 5.470917e-001 -8.749792e-002 8.324871e-001
    outer loop
      vertex   4.039763e+001 1.691081e+002 1.813338e+001
      vertex   4.709292e+001 1.704905e+002 1.387869e+001
      vertex   4.709292e+001 1.765254e+002 1.451297e+001
    endloop
  endfacet
  facet normal 5.470917e-001 2.586697e-001 7.961034e-001
    outer loop
      vertex   4.039763e+001 1.769930e+002 1.896212e+001
      vertex   4.709292e+001 1.765254e+002 1.451297e+001
      vertex   4.709292e+001 1.822965e+002 1.263784e+001
    endloop
  endfacet
  facet normal 5.470917e-001 5.601109e-001 6.220662e-001
    outer loop
      vertex   4.039763e+001 1.845333e+002 1.651213e+001
      vertex   4.709292e+001 1.822965e+002 1.263784e+001
      vertex   4.709292e+001 1.868059e+002 8.577501e+000
    endloop
  endfacet
  facet normal 5.470917e-001 7.647039e-001 3.404681e-001
    outer loop
      vertex   4.039763e+001 1.904252e+002 1.120705e+001
      vertex   4.709292e+001 1.868059e+002 8.577501e+000
      vertex   4.709292e+001 1.892740e+002 3.034038e+000
    endloop
  endfacet
  facet normal 5.470917e-001 8.370727e-001 0.000000e+000
    outer loop
      vertex   4.039763e+001 1.936499e+002 3.964162e+000
      vertex   4.709292e+001 1.892740e+002 3.034038e+000
      vertex   4.709292e+001 1.892740e+002 -3.034038e+000
    endloop
  endfacet
  facet normal 5.470917e-001 7.647039e-001 -3.404681e-001
    outer loop
      vertex   4.039763e+001 1.936499e+002 -3.964162e+000
      vertex   4.709292e+001 1.892740e+002 -3.034038e+000
      vertex   4.709292e+001 1.868059e+002 -8.577501e+000
    endloop
  endfacet
  facet normal 5.470917e-001 5.601109e-001 -6.220662e-001
    outer loop
      vertex   4.039763e+001 1.904252e+002 -1.120705e+001
      vertex   4.709292e+001 1.868059e+002 -8.577501e+000
      vertex   4.709292e+001 1.822965e+002 -1.263784e+001
    endloop
  endfacet
  facet normal 5.470917e-001 2.586697e-001 -7.961034e-001
    outer loop
      vertex   4.039763e+001 1.845333e+002 -1.651213e+001
      vertex   4.709292e+001 1.822965e+002 -1.263784e+001
      vertex   4.709292e+001 1.765254e+002 -1.451297e+001
    endloop
  endfacet
  facet normal 5.470917e-001 -8.749792e-002 -8.324871e-001
    outer loop
      vertex   4.039763e+001 1.769930e+002 -1.896212e+001
      vertex   4.709292e+001 1.765254e+002 -1.451297e+001
      vertex   4.709292e+001 1.704905e+002 -1.387869e+001
    endloop
  endfacet
  facet normal 5.470917e-001 -4.185363e-001 -7.249262e-001
    outer loop
      vertex   4.039763e+001 1.691081e+002 -1.813338e+001
      vertex   4.709292e+001 1.704905e+002 -1.387869e+001
      vertex   4.709292e+001 1.652354e+002 -1.084465e+001
    endloop
  endfacet
  facet normal 5.470917e-001 -6.772060e-001 -4.920190e-001
    outer loop
      vertex   4.039763e+001 1.622420e+002 -1.416922e+001
      vertex   4.709292e+001 1.652354e+002 -1.084465e+001
      vertex   4.709292e+001 1.616687e+002 -5.935474e+000
    endloop
  endfacet
  facet normal 5.470917e-001 -8.187806e-001 -1.740372e-001
    outer loop
      vertex   4.039763e+001 1.575818e+002 -7.755070e+000
      vertex   4.709292e+001 1.616687e+002 -5.935474e+000
      vertex   4.709292e+001 1.604071e+002 0.000000e+000
    endloop
  endfacet
  facet normal 1.909843e-001 -9.601429e-001 2.040847e-001
    outer loop
      vertex   3.250000e+001 1.543625e+002 0.000000e+000
      vertex   4.039763e+001 1.559334e+002 0.000000e+000
      vertex   4.039763e+001 1.575818e+002 7.755070e+000
    endloop
  endfacet
  facet normal 1.909843e-001 -7.941255e-001 5.769659e-001
    outer loop
      vertex   3.250000e+001 1.561467e+002 8.394027e+000
      vertex   4.039763e+001 1.575818e+002 7.755070e+000
      vertex   4.039763e+001 1.622420e+002 1.416922e+001
    endloop
  endfacet
  facet normal 1.909843e-001 -4.907965e-001 8.500846e-001
    outer loop
      vertex   3.250000e+001 1.611908e+002 1.533665e+001
      vertex   4.039763e+001 1.622420e+002 1.416922e+001
      vertex   4.039763e+001 1.691081e+002 1.813338e+001
    endloop
  endfacet
  facet normal 1.909843e-001 -1.026044e-001 9.762158e-001
    outer loop
      vertex   3.250000e+001 1.686227e+002 1.962743e+001
      vertex   4.039763e+001 1.691081e+002 1.813338e+001
      vertex   4.039763e+001 1.769930e+002 1.896212e+001
    endloop
  endfacet
  facet normal 1.909843e-001 3.033289e-001 9.335505e-001
    outer loop
      vertex   3.250000e+001 1.771572e+002 2.052445e+001
      vertex   4.039763e+001 1.769930e+002 1.896212e+001
      vertex   4.039763e+001 1.845333e+002 1.651213e+001
    endloop
  endfacet
  facet normal 1.909843e-001 6.568140e-001 7.294658e-001
    outer loop
      vertex   3.250000e+001 1.853188e+002 1.787260e+001
      vertex   4.039763e+001 1.845333e+002 1.651213e+001
      vertex   4.039763e+001 1.904252e+002 1.120705e+001
    endloop
  endfacet
  facet normal 1.909843e-001 8.967299e-001 3.992499e-001
    outer loop
      vertex   3.250000e+001 1.916961e+002 1.213042e+001
      vertex   4.039763e+001 1.904252e+002 1.120705e+001
      vertex   4.039763e+001 1.936499e+002 3.964162e+000
    endloop
  endfacet
  facet normal 1.909843e-001 9.815931e-001 0.000000e+000
    outer loop
      vertex   3.250000e+001 1.951865e+002 4.290778e+000
      vertex   4.039763e+001 1.936499e+002 3.964162e+000
      vertex   4.039763e+001 1.936499e+002 -3.964162e+000
    endloop
  endfacet
  facet normal 1.909843e-001 8.967299e-001 -3.992499e-001
    outer loop
      vertex   3.250000e+001 1.951865e+002 -4.290778e+000
      vertex   4.039763e+001 1.936499e+002 -3.964162e+000
      vertex   4.039763e+001 1.904252e+002 -1.120705e+001
    endloop
  endfacet
  facet normal 1.909843e-001 6.568140e-001 -7.294658e-001
    outer loop
      vertex   3.250000e+001 1.916961e+002 -1.213042e+001
      vertex   4.039763e+001 1.904252e+002 -1.120705e+001
      vertex   4.039763e+001 1.845333e+002 -1.651213e+001
    endloop
  endfacet
  facet normal 1.909843e-001 3.033289e-001 -9.335505e-001
    outer loop
      vertex   3.250000e+001 1.853187e+002 -1.787260e+001
      vertex   4.039763e+001 1.845333e+002 -1.651213e+001
      vertex   4.039763e+001 1.769930e+002 -1.896212e+001
    endloop
  endfacet
  facet normal 1.909843e-001 -1.026044e-001 -9.762158e-001
    outer loop
      vertex   3.250000e+001 1.771572e+002 -2.052445e+001
      vertex   4.039763e+001 1.769930e+002 -1.896212e+001
      vertex   4.039763e+001 1.691081e+002 -1.813338e+001
    endloop
  endfacet
  facet normal 1.909843e-001 -4.907965e-001 -8.500846e-001
    outer loop
      vertex   3.250000e+001 1.686227e+002 -1.962743e+001
      vertex   4.039763e+001 1.691081e+002 -1.813338e+001
      vertex   4.039763e+001 1.622420e+002 -1.416922e+001
    endloop
  endfacet
  facet normal 1.909843e-001 -7.941255e-001 -5.769659e-001
    outer loop
      vertex   3.250000e+001 1.611908e+002 -1.533665e+001
      vertex   4.039763e+001 1.622420e+002 -1.416922e+001
      vertex   4.039763e+001 1.575818e+002 -7.755070e+000
    endloop
  endfacet
  facet normal 1.909843e-001 -9.601429e-001 -2.040847e-001
    outer loop
      vertex   3.250000e+001 1.561467e+002 -8.394027e+000
      vertex   4.039763e+001 1.575818e+002 -7.755070e+000
      vertex   4.039763e+001 1.559334e+002 0.000000e+000
    endloop
  endfacet
  facet normal -1.909843e-001 -9.601429e-001 2.040847e-001
    outer loop
      vertex   2.460237e+001 1.559334e+002 0.000000e+000
      vertex   3.250000e+001 1.543625e+002 0.000000e+000
      vertex   3.250000e+001 1.561467e+002 8.394027e+000
    endloop
  endfacet
  facet normal -1.909843e-001 -7.941255e-001 5.769659e-001
    outer loop
      vertex   2.460237e+001 1.575818e+002 7.755070e+000
      vertex   3.250000e+001 1.561467e+002 8.394027e+000
      vertex   3.250000e+001 1.611908e+002 1.533665e+001
    endloop
  endfacet
  facet normal -1.909843e-001 -4.907965e-001 8.500846e-001
    outer loop
      vertex   2.460237e+001 1.622420e+002 1.416922e+001
      vertex   3.250000e+001 1.611908e+002 1.533665e+001
      vertex   3.250000e+001 1.686227e+002 1.962743e+001
    endloop
  endfacet
  facet normal -1.909843e-001 -1.026044e-001 9.762158e-001
    outer loop
      vertex   2.460237e+001 1.691081e+002 1.813338e+001
      vertex   3.250000e+001 1.686227e+002 1.962743e+001
      vertex   3.250000e+001 1.771572e+002 2.052445e+001
    endloop
  endfacet
  facet normal -1.909843e-001 3.033289e-001 9.335505e-001
    outer loop
      vertex   2.460237e+001 1.769930e+002 1.896212e+001
      vertex   3.250000e+001 1.771572e+002 2.052445e+001
      vertex   3.250000e+001 1.853188e+002 1.787260e+001
    endloop
  endfacet
  facet normal -1.909843e-001 6.568140e-001 7.294658e-001
    outer loop
      vertex   2.460237e+001 1.845333e+002 1.651213e+001
      vertex   3.250000e+001 1.853188e+002 1.787260e+001
      vertex   3.250000e+001 1.916961e+002 1.213042e+001
    endloop
  endfacet
  facet normal -1.909843e-001 8.967299e-001 3.992499e-001
    outer loop
      vertex   2.460237e+001 1.904252e+002 1.120705e+001
      vertex   3.250000e+001 1.916961e+002 1.213042e+001
      vertex   3.250000e+001 1.951865e+002 4.290778e+000
    endloop
  endfacet
  facet normal -1.909843e-001 9.815931e-001 0.000000e+000
    outer loop
      vertex   2.460237e+001 1.936499e+002 3.964162e+000
      vertex   3.250000e+001 1.951865e+002 4.290778e+000
      vertex   3.250000e+001 1.951865e+002 -4.290778e+000
    endloop
  endfacet
  facet normal -1.909843e-001 8.967299e-001 -3.992499e-001
    outer loop
      vertex   2.460237e+001 1.936499e+002 -3.964162e+000
      vertex   3.250000e+001 1.951865e+002 -4.290778e+000
      vertex   3.250000e+001 1.916961e+002 -1.213042e+001
    endloop
  endfacet
  facet normal -1.909843e-001 6.568140e-001 -7.294658e-001
    outer loop
      vertex   2.460237e+001 1.904252e+002 -1.120705e+001
      vertex   3.250000e+001 1.916961e+002 -1.213042e+001
      vertex   3.250000e+001 1.853187e+002 -1.787260e+001
    endloop
  endfacet
  facet normal -1.909843e-001 3.033289e-001 -9.335505e-001
    outer loop
      vertex   2.460237e+001 1.845333e+002 -1.651213e+001
      vertex   3.250000e+001 1.853187e+002 -1.787260e+001
      vertex   3.250000e+001 1.771572e+002 -2.052445e+001
    endloop
  endfacet
  facet normal -1.909843e-001 -1.026044e-001 -9.762158e-001
    outer loop
      vertex   2.460237e+001 1.769930e+002 -1.896212e+001
      vertex   3.250000e+001 1.771572e+002 -2.052445e+001
      vertex   3.250000e+001 1.686227e+002 -1.962743e+001
    endloop
  endfacet
  facet normal -1.909843e-001 -4.907965e-001 -8.500846e-001
    outer loop
      vertex   2.460237e+001 1.691081e+002 -1.813338e+001
      vertex   3.250000e+001 1.686227e+002 -1.962743e+001
      vertex   3.250000e+001 1.611908e+002 -1.533665e+001
    endloop
  endfacet
  facet normal -1.909843e-001 -7.941255e-001 -5.769659e-001
    outer loop
      vertex   2.460237e+001 1.622420e+002 -1.416922e+001
      vertex   3.250000e+001 1.611908e+002 -1.533665e+001
      vertex   3.250000e+001 1.561467e+002 -8.394027e+000
    endloop
  endfacet
  facet normal -1.909843e-001 -9.601429e-001 -2.040847e-001
    outer loop
      vertex   2.460237e+001 1.575818e+002 -7.755070e+000
      vertex   3.250000e+001 1.561467e+002 -8.394027e+000
      vertex   3.250000e+001 1.543625e+002 0.000000e+000
    endloop
  endfacet
  facet normal -5.470917e-001 -8.187806e-001 1.740372e-001
    outer loop
      vertex   1.790708e+001 1.604071e+002 0.000000e+000
      vertex   2.460237e+001 1.559334e+002 0.000000e+000
      vertex   2.460237e+001 1.575818e+002 7.755070e+000
    endloop
  endfacet
  facet normal -5.470917e-001 -6.772060e-001 4.920190e-001
    outer loop
      vertex   1.790708e+001 1.616687e+002 5.935474e+000
      vertex   2.460237e+001 1.575818e+002 7.755070e+000
      vertex   2.460237e+001 1.622420e+002 1.416922e+001
    endloop
  endfacet
  facet normal -5.470917e-001 -4.185363e-001 7.249262e-001
    outer loop
      vertex   1.790708e+001 1.652354e+002 1.084465e+001
      vertex   2.460237e+001 1.622420e+002 1.416922e+001
      vertex   2.460237e+001 1.691081e+002 1.813338e+001
    endloop
  endfacet
  facet normal -5.470917e-001 -8.749792e-002 8.324871e-001
    outer loop
      vertex   1.790708e+001 1.704905e+002 1.387869e+001
      vertex   2.460237e+001 1.691081e+002 1.813338e+001
      vertex   2.460237e+001 1.769930e+002 1.896212e+001
    endloop
  endfacet
  facet normal -5.470917e-001 2.586697e-001 7.961034e-001
    outer loop
      vertex   1.790708e+001 1.765254e+002 1.451297e+001
      vertex   2.460237e+001 1.769930e+002 1.896212e+001
      vertex   2.460237e+001 1.845333e+002 1.651213e+001
    endloop
  endfacet
  facet normal -5.470917e-001 5.601109e-001 6.220662e-001
    outer loop
      vertex   1.790708e+001 1.822965e+002 1.263784e+001
      vertex   2.460237e+001 1.845333e+002 1.651213e+001
      vertex   2.460237e+001 1.904252e+002 1.120705e+001
    endloop
  endfacet
  facet normal -5.470917e-001 7.647039e-001 3.404681e-001
    outer loop
      vertex   1.790708e+001 1.868059e+002 8.577501e+000
      vertex   2.460237e+001 1.904252e+002 1.120705e+001
      vertex   2.460237e+001 1.936499e+002 3.964162e+000
    endloop
  endfacet
  facet normal -5.470917e-001 8.370727e-001 0.000000e+000
    outer loop
      vertex   1.790708e+001 1.892740e+002 3.034038e+000
      vertex   2.460237e+001 1.936499e+002 3.964162e+000
      vertex   2.460237e+001 1.936499e+002 -3.964162e+000
    endloop
  endfacet
  facet normal -5.470917e-001 7.647039e-001 -3.404681e-001
    outer loop
      vertex   1.790708e+001 1.892740e+002 -3.034038e+000
      vertex   2.460237e+001 1.936499e+002 -3.964162e+000
      vertex   2.460237e+001 1.904252e+002 -1.120705e+001
    endloop
  endfacet
  facet normal -5.470917e-001 5.601109e-001 -6.220662e-001
    outer loop
      vertex   1.790708e+001 1.868059e+002 -8.577501e+000
      vertex   2.460237e+001 1.904252e+002 -1.120705e+001
      vertex   2.460237e+001 1.845333e+002 -1.651213e+001
    endloop
  endfacet
  facet normal -5.470917e-001 2.586697e-001 -7.961034e-001
    outer loop
      vertex   1.790708e+001 1.822965e+002 -1.263784e+001
      vertex   2.460237e+001 1.845333e+002 -1.651213e+001
      vertex   2.460237e+001 1.769930e+002 -1.896212e+001
    endloop
  endfacet
  facet normal -5.470917e-001 -8.749792e-002 -8.324871e-001
    outer loop
      vertex   1.790708e+001 1.765254e+002 -1.451297e+001
      vertex   2.460237e+001 1.769930e+002 -1.896212e+001
      vertex   2.460237e+001 1.691081e+002 -1.813338e+001
    endloop
  endfacet
  facet normal -5.470917e-001 -4.185363e-001 -7.249262e-001
    outer loop
      vertex   1.790708e+001 1.704905e+002 -1.387869e+001
      vertex   2.460237e+001 1.691081e+002 -1.813338e+001
      vertex   2.460237e+001 1.622420e+002 -1.416922e+001
    endloop
  endfacet
  facet normal -5.470917e-001 -6.772060e-001 -4.920190e-001
    outer loop
      vertex   1.790708e+001 1.652354e+002 -1.084465e+001
      vertex   2.460237e+001 1.622420e+002 -1.416922e+001
      vertex   2.460237e+001 1.575818e+002 -7.755070e+000
    endloop
  endfacet
  facet normal -5.470917e-001 -8.187806e-001 -1.740372e-001
    outer loop
      vertex   1.790708e+001 1.616687e+002 -5.935474e+000
      vertex   2.460237e+001 1.575818e+002 -7.755070e+000
      vertex   2.460237e+001 1.559334e+002 0.000000e+000
    endloop
  endfacet
  facet normal -8.257320e-001 -5.517365e-001 1.172752e-001
    outer loop
      vertex   1.343344e+001 1.671024e+002 0.000000e+000
      vertex   1.790708e+001 1.604071e+002 0.000000e+000
      vertex   1.790708e+001 1.616687e+002 5.935474e+000
    endloop
  endfacet
  facet normal -8.257320e-001 -4.563362e-001 3.315477e-001
    outer loop
      vertex   1.343344e+001 1.677852e+002 3.212255e+000
      vertex   1.790708e+001 1.616687e+002 5.935474e+000
      vertex   1.790708e+001 1.652354e+002 1.084465e+001
    endloop
  endfacet
  facet normal -8.257320e-001 -2.820313e-001 4.884926e-001
    outer loop
      vertex   1.343344e+001 1.697155e+002 5.869082e+000
      vertex   1.790708e+001 1.652354e+002 1.084465e+001
      vertex   1.790708e+001 1.704905e+002 1.387869e+001
    endloop
  endfacet
  facet normal -8.257320e-001 -5.896060e-002 5.609726e-001
    outer loop
      vertex   1.343344e+001 1.725595e+002 7.511092e+000
      vertex   1.790708e+001 1.704905e+002 1.387869e+001
      vertex   1.790708e+001 1.765254e+002 1.451297e+001
    endloop
  endfacet
  facet normal -8.257320e-001 1.743049e-001 5.364554e-001
    outer loop
      vertex   1.343344e+001 1.758255e+002 7.854365e+000
      vertex   1.790708e+001 1.765254e+002 1.451297e+001
      vertex   1.790708e+001 1.822965e+002 1.263784e+001
    endloop
  endfacet
  facet normal -8.257320e-001 3.774316e-001 4.191802e-001
    outer loop
      vertex   1.343344e+001 1.789488e+002 6.839548e+000
      vertex   1.790708e+001 1.822965e+002 1.263784e+001
      vertex   1.790708e+001 1.868059e+002 8.577501e+000
    endloop
  endfacet
  facet normal -8.257320e-001 5.152968e-001 2.294249e-001
    outer loop
      vertex   1.343344e+001 1.813893e+002 4.642110e+000
      vertex   1.790708e+001 1.868059e+002 8.577501e+000
      vertex   1.790708e+001 1.892740e+002 3.034038e+000
    endloop
  endfacet
  facet normal -8.257320e-001 5.640626e-001 0.000000e+000
    outer loop
      vertex   1.343344e+001 1.827250e+002 1.642009e+000
      vertex   1.790708e+001 1.892740e+002 3.034038e+000
      vertex   1.790708e+001 1.892740e+002 -3.034038e+000
    endloop
  endfacet
  facet normal -8.257320e-001 5.152968e-001 -2.294249e-001
    outer loop
      vertex   1.343344e+001 1.827250e+002 -1.642009e+000
      vertex   1.790708e+001 1.892740e+002 -3.034038e+000
      vertex   1.790708e+001 1.868059e+002 -8.577501e+000
    endloop
  endfacet
  facet normal -8.257320e-001 3.774316e-001 -4.191802e-001
    outer loop
      vertex   1.343344e+001 1.813893e+002 -4.642110e+000
      vertex   1.790708e+001 1.868059e+002 -8.577501e+000
      vertex   1.790708e+001 1.822965e+002 -1.263784e+001
    endloop
  endfacet
  facet normal -8.257320e-001 1.743049e-001 -5.364554e-001
    outer loop
      vertex   1.343344e+001 1.789488e+002 -6.839548e+000
      vertex   1.790708e+001 1.822965e+002 -1.263784e+001
      vertex   1.790708e+001 1.765254e+002 -1.451297e+001
    endloop
  endfacet
  facet normal -8.257320e-001 -5.896060e-002 -5.609726e-001
    outer loop
      vertex   1.343344e+001 1.758255e+002 -7.854365e+000
      vertex   1.790708e+001 1.765254e+002 -1.451297e+001
      vertex   1.790708e+001 1.704905e+002 -1.387869e+001
    endloop
  endfacet
  facet normal -8.257320e-001 -2.820313e-001 -4.884926e-001
    outer loop
      vertex   1.343344e+001 1.725595e+002 -7.511092e+000
      vertex   1.790708e+001 1.704905e+002 -1.387869e+001
      vertex   1.790708e+001 1.652354e+002 -1.084465e+001
    endloop
  endfacet
  facet normal -8.257320e-001 -4.563362e-001 -3.315477e-001
    outer loop
      vertex   1.343344e+001 1.697155e+002 -5.869082e+000
      vertex   1.790708e+001 1.652354e+002 -1.084465e+001
      vertex   1.790708e+001 1.616687e+002 -5.935474e+000
    endloop
  endfacet
  facet normal -8.257320e-001 -5.517365e-001 -1.172752e-001
    outer loop
      vertex   1.343344e+001 1.677852e+002 -3.212255e+000
      vertex   1.790708e+001 1.616687e+002 -5.935474e+000
      vertex   1.790708e+001 1.604071e+002 0.000000e+000
    endloop
  endfacet
  facet normal -9.799431e-001 -1.949228e-001 4.143212e-002
    outer loop
      vertex   1.343344e+001 1.671024e+002 0.000000e+000
      vertex   1.343344e+001 1.677852e+002 3.212255e+000
      vertex   1.186250e+001 1.750000e+002 0.000000e+000
    endloop
  endfacet
  facet normal -9.799431e-001 -1.612189e-001 1.171324e-001
    outer loop
      vertex   1.343344e+001 1.677852e+002 3.212255e+000
      vertex   1.343344e+001 1.697155e+002 5.869082e+000
      vertex   1.186250e+001 1.750000e+002 0.000000e+000
    endloop
  endfacet
  facet normal -9.799431e-001 -9.963875e-002 1.725794e-001
    outer loop
      vertex   1.343344e+001 1.697155e+002 5.869082e+000
      vertex   1.343344e+001 1.725595e+002 7.511092e+000
      vertex   1.186250e+001 1.750000e+002 0.000000e+000
    endloop
  endfacet
  facet normal -9.799431e-001 -2.083017e-002 1.981858e-001
    outer loop
      vertex   1.343344e+001 1.725595e+002 7.511092e+000
      vertex   1.343344e+001 1.758255e+002 7.854365e+000
      vertex   1.186250e+001 1.750000e+002 0.000000e+000
    endloop
  endfacet
  facet normal -9.799431e-001 6.158013e-002 1.895242e-001
    outer loop
      vertex   1.343344e+001 1.758255e+002 7.854365e+000
      vertex   1.343344e+001 1.789488e+002 6.839548e+000
      vertex   1.186250e+001 1.750000e+002 0.000000e+000
    endloop
  endfacet
  facet normal -9.799431e-001 1.333427e-001 1.480920e-001
    outer loop
      vertex   1.343344e+001 1.789488e+002 6.839548e+000
      vertex   1.343344e+001 1.813893e+002 4.642110e+000
      vertex   1.186250e+001 1.750000e+002 0.000000e+000
    endloop
  endfacet
  facet normal -9.799431e-001 1.820490e-001 8.105346e-002
    outer loop
      vertex   1.343344e+001 1.813893e+002 4.642110e+000
      vertex   1.343344e+001 1.827250e+002 1.642009e+000
      vertex   1.186250e+001 1.750000e+002 0.000000e+000
    endloop
  endfacet
  facet normal -9.799431e-001 1.992775e-001 0.000000e+000
    outer loop
      vertex   1.343344e+001 1.827250e+002 1.642009e+000
      vertex   1.343344e+001 1.827250e+002 -1.642009e+000
      vertex   1.186250e+001 1.750000e+002 0.000000e+000
    endloop
  endfacet
  facet normal -9.799431e-001 1.820490e-001 -8.105346e-002
    outer loop
      vertex   1.343344e+001 1.827250e+002 -1.642009e+000
      vertex   1.343344e+001 1.813893e+002 -4.642110e+000
      vertex   1.186250e+001 1.750000e+002 0.000000e+000
    endloop
  endfacet
  facet normal -9.799431e-001 1.333427e-001 -1.480920e-001
    outer loop
      vertex   1.343344e+001 1.813893e+002 -4.642110e+000
      vertex   1.343344e+001 1.789488e+002 -6.839548e+000
      vertex   1.186250e+001 1.750000e+002 0.000000e+000
    endloop
  endfacet
  facet normal -9.799431e-001 6.158013e-002 -1.895242e-001
    outer loop
      vertex   1.343344e+001 1.789488e+002 -6.839548e+000
      vertex   1.343344e+001 1.758255e+002 -7.854365e+000
      vertex   1.186250e+001 1.750000e+002 0.000000e+000
    endloop
  endfacet
  facet normal -9.799431e-001 -2.083017e-002 -1.981858e-001
    outer loop
      vertex   1.343344e+001 1.758255e+002 -7.854365e+000
      vertex   1.343344e+001 1.725595e+002 -7.511092e+000
      vertex   1.186250e+001 1.750000e+002 0.000000e+000
    endloop
  endfacet
  facet normal -9.799431e-001 -9.963875e-002 -1.725794e-001
    outer loop
      vertex   1.343344e+001 1.725595e+002 -7.511092e+000
      vertex   1.343344e+001 1.697155e+002 -5.869082e+000
      vertex   1.186250e+001 1.750000e+002 0.000000e+000
    endloop
  endfacet
  facet normal -9.799431e-001 -1.612189e-001 -1.171324e-001
    outer loop
      vertex   1.343344e+001 1.697155e+002 -5.869082e+000
      vertex   1.343344e+001 1.677852e+002 -3.212255e+000
      vertex   1.186250e+001 1.750000e+002 0.000000e+000
    endloop
  endfacet
  facet normal -9.799431e-001 -1.949228e-001 -4.143212e-002
    outer loop
      vertex   1.343344e+001 1.677852e+002 -3.212255e+000
      vertex   1.343344e+001 1.671024e+002 0.000000e+000
      vertex   1.186250e+001 1.750000e+002 0.000000e+000
    endloop
  endfacet
endsolid
