solid Rotor1
  facet normal -3.420201e-001 0.000000e+000 -9.396926e-001
    outer loop
      vertex   4.862149e+001 3.250000e+002 2.757462e+002
      vertex   1.400000e+002 3.250000e+002 2.424871e+002
      vertex   1.400000e+002 -3.250000e+002 2.424871e+002
    endloop
  endfacet
  facet normal -3.420201e-001 0.000000e+000 -9.396926e-001
    outer loop
      vertex   1.400000e+002 -3.250000e+002 2.424871e+002
      vertex   4.862149e+001 -3.250000e+002 2.757462e+002
      vertex   4.862149e+001 3.250000e+002 2.757462e+002
    endloop
  endfacet
  facet normal 8.660254e-001 0.000000e+000 -5.000000e-001
    outer loop
      vertex   1.400000e+002 -3.250000e+002 2.424871e+002
      vertex   1.400000e+002 3.250000e+002 2.424871e+002
      vertex   2.500000e+002 3.250000e+002 4.330127e+002
    endloop
  endfacet
  facet normal 8.660254e-001 0.000000e+000 -5.000000e-001
    outer loop
      vertex   2.500000e+002 3.250000e+002 4.330127e+002
      vertex   2.500000e+002 -3.250000e+002 4.330127e+002
      vertex   1.400000e+002 -3.250000e+002 2.424871e+002
    endloop
  endfacet
  facet normal 2.588190e-001 0.000000e+000 9.659258e-001
    outer loop
      vertex   8.682409e+001 3.250000e+002 4.924039e+002
      vertex   8.682409e+001 -3.250000e+002 4.924039e+002
      vertex   1.710101e+002 -3.250000e+002 4.698463e+002
    endloop
  endfacet
  facet normal 4.226183e-001 0.000000e+000 9.063078e-001
    outer loop
      vertex   1.710101e+002 3.250000e+002 4.698463e+002
      vertex   1.710101e+002 -3.250000e+002 4.698463e+002
      vertex   2.500000e+002 -3.250000e+002 4.330127e+002
    endloop
  endfacet
  facet normal 4.226183e-001 -0.000000e+000 9.063078e-001
    outer loop
      vertex   2.500000e+002 -3.250000e+002 4.330127e+002
      vertex   2.500000e+002 3.250000e+002 4.330127e+002
      vertex   1.710101e+002 3.250000e+002 4.698463e+002
    endloop
  endfacet
  facet normal 2.588190e-001 -0.000000e+000 9.659258e-001
    outer loop
      vertex   1.710101e+002 -3.250000e+002 4.698463e+002
      vertex   1.710101e+002 3.250000e+002 4.698463e+002
      vertex   8.682409e+001 3.250000e+002 4.924039e+002
    endloop
  endfacet
  facet normal -9.848078e-001 0.000000e+000 1.736482e-001
    outer loop
      vertex   8.682409e+001 -3.250000e+002 4.924039e+002
      vertex   8.682409e+001 3.250000e+002 4.924039e+002
      vertex   4.862149e+001 3.250000e+002 2.757462e+002
    endloop
  endfacet
  facet normal -9.848078e-001 0.000000e+000 1.736482e-001
    outer loop
      vertex   4.862149e+001 3.250000e+002 2.757462e+002
      vertex   4.862149e+001 -3.250000e+002 2.757462e+002
      vertex   8.682409e+001 -3.250000e+002 4.924039e+002
    endloop
  endfacet
  facet normal -0.000000e+000 -1.000000e+000 0.000000e+000
    outer loop
      vertex   1.710101e+002 -3.250000e+002 4.698463e+002
      vertex   8.682409e+001 -3.250000e+002 4.924039e+002
      vertex   4.862149e+001 -3.250000e+002 2.757462e+002
    endloop
  endfacet
  facet normal 0.000000e+000 -1.000000e+000 0.000000e+000
    outer loop
      vertex   1.400000e+002 -3.250000e+002 2.424871e+002
      vertex   2.500000e+002 -3.250000e+002 4.330127e+002
      vertex   1.710101e+002 -3.250000e+002 4.698463e+002
    endloop
  endfacet
  facet normal 0.000000e+000 -1.000000e+000 0.000000e+000
    outer loop
      vertex   4.862149e+001 -3.250000e+002 2.757462e+002
      vertex   1.400000e+002 -3.250000e+002 2.424871e+002
      vertex   1.710101e+002 -3.250000e+002 4.698463e+002
    endloop
  endfacet
  facet normal 8.466269e-017 1.000000e+000 2.326088e-016
    outer loop
      vertex   1.710101e+002 3.250000e+002 4.698463e+002
      vertex   1.400000e+002 3.250000e+002 2.424871e+002
      vertex   4.862149e+001 3.250000e+002 2.757462e+002
    endloop
  endfacet
  facet normal 6.296388e-016 1.000000e+000 -1.110223e-016
    outer loop
      vertex   4.862149e+001 3.250000e+002 2.757462e+002
      vertex   8.682409e+001 3.250000e+002 4.924039e+002
      vertex   1.710101e+002 3.250000e+002 4.698463e+002
    endloop
  endfacet
  facet normal -5.536950e-016 1.000000e+000 3.196760e-016
    outer loop
      vertex   1.710101e+002 3.250000e+002 4.698463e+002
      vertex   2.500000e+002 3.250000e+002 4.330127e+002
      vertex   1.400000e+002 3.250000e+002 2.424871e+002
    endloop
  endfacet
  facet normal 8.660254e-001 0.000000e+000 -5.000000e-001
    outer loop
      vertex   -2.631139e+002 3.250000e+002 9.576564e+001
      vertex   -2.144924e+002 3.250000e+002 1.799805e+002
      vertex   -2.144924e+002 -3.250000e+002 1.799805e+002
    endloop
  endfacet
  facet normal 8.660254e-001 0.000000e+000 -5.000000e-001
    outer loop
      vertex   -2.144924e+002 -3.250000e+002 1.799805e+002
      vertex   -2.631139e+002 -3.250000e+002 9.576564e+001
      vertex   -2.631139e+002 3.250000e+002 9.576564e+001
    endloop
  endfacet
  facet normal -3.420201e-001 0.000000e+000 -9.396926e-001
    outer loop
      vertex   -4.698463e+002 -3.250000e+002 1.710101e+002
      vertex   -4.698463e+002 3.250000e+002 1.710101e+002
      vertex   -2.631139e+002 3.250000e+002 9.576564e+001
    endloop
  endfacet
  facet normal -3.420201e-001 -0.000000e+000 -9.396926e-001
    outer loop
      vertex   -2.631139e+002 3.250000e+002 9.576564e+001
      vertex   -2.631139e+002 -3.250000e+002 9.576564e+001
      vertex   -4.698463e+002 -3.250000e+002 1.710101e+002
    endloop
  endfacet
  facet normal -9.063078e-001 0.000000e+000 4.226183e-001
    outer loop
      vertex   -4.698463e+002 3.250000e+002 1.710101e+002
      vertex   -4.698463e+002 -3.250000e+002 1.710101e+002
      vertex   -4.330127e+002 -3.250000e+002 2.500000e+002
    endloop
  endfacet
  facet normal -8.191520e-001 0.000000e+000 5.735764e-001
    outer loop
      vertex   -4.330127e+002 3.250000e+002 2.500000e+002
      vertex   -4.330127e+002 -3.250000e+002 2.500000e+002
      vertex   -3.830222e+002 -3.250000e+002 3.213938e+002
    endloop
  endfacet
  facet normal -8.191520e-001 0.000000e+000 5.735764e-001
    outer loop
      vertex   -3.830222e+002 -3.250000e+002 3.213938e+002
      vertex   -3.830222e+002 3.250000e+002 3.213938e+002
      vertex   -4.330127e+002 3.250000e+002 2.500000e+002
    endloop
  endfacet
  facet normal -9.063078e-001 0.000000e+000 4.226183e-001
    outer loop
      vertex   -4.330127e+002 -3.250000e+002 2.500000e+002
      vertex   -4.330127e+002 3.250000e+002 2.500000e+002
      vertex   -4.698463e+002 3.250000e+002 1.710101e+002
    endloop
  endfacet
  facet normal 6.427876e-001 -0.000000e+000 7.660444e-001
    outer loop
      vertex   -2.144924e+002 -3.250000e+002 1.799805e+002
      vertex   -2.144924e+002 3.250000e+002 1.799805e+002
      vertex   -3.830222e+002 3.250000e+002 3.213938e+002
    endloop
  endfacet
  facet normal 6.427876e-001 0.000000e+000 7.660444e-001
    outer loop
      vertex   -3.830222e+002 3.250000e+002 3.213938e+002
      vertex   -3.830222e+002 -3.250000e+002 3.213938e+002
      vertex   -2.144924e+002 -3.250000e+002 1.799805e+002
    endloop
  endfacet
  facet normal 0.000000e+000 -1.000000e+000 0.000000e+000
    outer loop
      vertex   -4.330127e+002 -3.250000e+002 2.500000e+002
      vertex   -2.631139e+002 -3.250000e+002 9.576564e+001
      vertex   -2.144924e+002 -3.250000e+002 1.799805e+002
    endloop
  endfacet
  facet normal 0.000000e+000 -1.000000e+000 0.000000e+000
    outer loop
      vertex   -2.144924e+002 -3.250000e+002 1.799805e+002
      vertex   -3.830222e+002 -3.250000e+002 3.213938e+002
      vertex   -4.330127e+002 -3.250000e+002 2.500000e+002
    endloop
  endfacet
  facet normal 0.000000e+000 -1.000000e+000 -0.000000e+000
    outer loop
      vertex   -4.330127e+002 -3.250000e+002 2.500000e+002
      vertex   -4.698463e+002 -3.250000e+002 1.710101e+002
      vertex   -2.631139e+002 -3.250000e+002 9.576564e+001
    endloop
  endfacet
  facet normal -2.034867e-016 1.000000e+000 -6.350516e-016
    outer loop
      vertex   -4.330127e+002 3.250000e+002 2.500000e+002
      vertex   -3.830222e+002 3.250000e+002 3.213938e+002
      vertex   -2.144924e+002 3.250000e+002 1.799805e+002
    endloop
  endfacet
  facet normal -2.295562e-016 1.000000e+000 1.070438e-016
    outer loop
      vertex   -2.631139e+002 3.250000e+002 9.576564e+001
      vertex   -4.698463e+002 3.250000e+002 1.710101e+002
      vertex   -4.330127e+002 3.250000e+002 2.500000e+002
    endloop
  endfacet
  facet normal 1.782383e-016 1.000000e+000 5.562549e-016
    outer loop
      vertex   -2.144924e+002 3.250000e+002 1.799805e+002
      vertex   -2.631139e+002 3.250000e+002 9.576564e+001
      vertex   -4.330127e+002 3.250000e+002 2.500000e+002
    endloop
  endfacet
  facet normal -8.660254e-001 0.000000e+000 -5.000000e-001
    outer loop
      vertex   2.144924e+002 3.250000e+002 1.799805e+002
      vertex   2.631139e+002 3.250000e+002 9.576564e+001
      vertex   2.631139e+002 -3.250000e+002 9.576564e+001
    endloop
  endfacet
  facet normal -8.660254e-001 0.000000e+000 -5.000000e-001
    outer loop
      vertex   2.631139e+002 -3.250000e+002 9.576564e+001
      vertex   2.144924e+002 -3.250000e+002 1.799805e+002
      vertex   2.144924e+002 3.250000e+002 1.799805e+002
    endloop
  endfacet
  facet normal -6.427876e-001 0.000000e+000 7.660444e-001
    outer loop
      vertex   3.830222e+002 -3.250000e+002 3.213938e+002
      vertex   3.830222e+002 3.250000e+002 3.213938e+002
      vertex   2.144924e+002 3.250000e+002 1.799805e+002
    endloop
  endfacet
  facet normal -6.427876e-001 0.000000e+000 7.660444e-001
    outer loop
      vertex   2.144924e+002 3.250000e+002 1.799805e+002
      vertex   2.144924e+002 -3.250000e+002 1.799805e+002
      vertex   3.830222e+002 -3.250000e+002 3.213938e+002
    endloop
  endfacet
  facet normal 8.191520e-001 0.000000e+000 5.735764e-001
    outer loop
      vertex   3.830222e+002 3.250000e+002 3.213938e+002
      vertex   3.830222e+002 -3.250000e+002 3.213938e+002
      vertex   4.330127e+002 -3.250000e+002 2.500000e+002
    endloop
  endfacet
  facet normal 9.063078e-001 0.000000e+000 4.226183e-001
    outer loop
      vertex   4.330127e+002 3.250000e+002 2.500000e+002
      vertex   4.330127e+002 -3.250000e+002 2.500000e+002
      vertex   4.698463e+002 -3.250000e+002 1.710101e+002
    endloop
  endfacet
  facet normal 9.063078e-001 -0.000000e+000 4.226183e-001
    outer loop
      vertex   4.698463e+002 -3.250000e+002 1.710101e+002
      vertex   4.698463e+002 3.250000e+002 1.710101e+002
      vertex   4.330127e+002 3.250000e+002 2.500000e+002
    endloop
  endfacet
  facet normal 8.191520e-001 -0.000000e+000 5.735764e-001
    outer loop
      vertex   4.330127e+002 -3.250000e+002 2.500000e+002
      vertex   4.330127e+002 3.250000e+002 2.500000e+002
      vertex   3.830222e+002 3.250000e+002 3.213938e+002
    endloop
  endfacet
  facet normal 3.420201e-001 0.000000e+000 -9.396926e-001
    outer loop
      vertex   2.631139e+002 -3.250000e+002 9.576564e+001
      vertex   2.631139e+002 3.250000e+002 9.576564e+001
      vertex   4.698463e+002 3.250000e+002 1.710101e+002
    endloop
  endfacet
  facet normal 3.420201e-001 0.000000e+000 -9.396926e-001
    outer loop
      vertex   4.698463e+002 3.250000e+002 1.710101e+002
      vertex   4.698463e+002 -3.250000e+002 1.710101e+002
      vertex   2.631139e+002 -3.250000e+002 9.576564e+001
    endloop
  endfacet
  facet normal -0.000000e+000 -1.000000e+000 0.000000e+000
    outer loop
      vertex   4.330127e+002 -3.250000e+002 2.500000e+002
      vertex   3.830222e+002 -3.250000e+002 3.213938e+002
      vertex   2.144924e+002 -3.250000e+002 1.799805e+002
    endloop
  endfacet
  facet normal 0.000000e+000 -1.000000e+000 0.000000e+000
    outer loop
      vertex   2.631139e+002 -3.250000e+002 9.576564e+001
      vertex   4.698463e+002 -3.250000e+002 1.710101e+002
      vertex   4.330127e+002 -3.250000e+002 2.500000e+002
    endloop
  endfacet
  facet normal 0.000000e+000 -1.000000e+000 0.000000e+000
    outer loop
      vertex   2.144924e+002 -3.250000e+002 1.799805e+002
      vertex   2.631139e+002 -3.250000e+002 9.576564e+001
      vertex   4.330127e+002 -3.250000e+002 2.500000e+002
    endloop
  endfacet
  facet normal 3.926117e-016 1.000000e+000 -4.324863e-016
    outer loop
      vertex   4.330127e+002 3.250000e+002 2.500000e+002
      vertex   2.631139e+002 3.250000e+002 9.576564e+001
      vertex   2.144924e+002 3.250000e+002 1.799805e+002
    endloop
  endfacet
  facet normal 2.074808e-016 1.000000e+000 1.452796e-016
    outer loop
      vertex   2.144924e+002 3.250000e+002 1.799805e+002
      vertex   3.830222e+002 3.250000e+002 3.213938e+002
      vertex   4.330127e+002 3.250000e+002 2.500000e+002
    endloop
  endfacet
  facet normal -4.482275e-016 1.000000e+000 4.937505e-016
    outer loop
      vertex   4.330127e+002 3.250000e+002 2.500000e+002
      vertex   4.698463e+002 3.250000e+002 1.710101e+002
      vertex   2.631139e+002 3.250000e+002 9.576564e+001
    endloop
  endfacet
  facet normal -9.848078e-001 0.000000e+000 1.736482e-001
    outer loop
      vertex   2.800000e+002 3.250000e+002 0.000000e+000
      vertex   2.631139e+002 3.250000e+002 -9.576564e+001
      vertex   2.631139e+002 -3.250000e+002 -9.576564e+001
    endloop
  endfacet
  facet normal -9.848078e-001 0.000000e+000 1.736482e-001
    outer loop
      vertex   2.631139e+002 -3.250000e+002 -9.576564e+001
      vertex   2.800000e+002 -3.250000e+002 0.000000e+000
      vertex   2.800000e+002 3.250000e+002 0.000000e+000
    endloop
  endfacet
  facet normal 5.566576e-016 -0.000000e+000 1.000000e+000
    outer loop
      vertex   5.000000e+002 -3.250000e+002 -1.224647e-013
      vertex   5.000000e+002 3.250000e+002 -1.224647e-013
      vertex   2.800000e+002 3.250000e+002 0.000000e+000
    endloop
  endfacet
  facet normal 5.566576e-016 0.000000e+000 1.000000e+000
    outer loop
      vertex   2.800000e+002 3.250000e+002 0.000000e+000
      vertex   2.800000e+002 -3.250000e+002 0.000000e+000
      vertex   5.000000e+002 -3.250000e+002 -1.224647e-013
    endloop
  endfacet
  facet normal 9.961947e-001 0.000000e+000 -8.715574e-002
    outer loop
      vertex   5.000000e+002 3.250000e+002 -1.224647e-013
      vertex   5.000000e+002 -3.250000e+002 -1.224647e-013
      vertex   4.924039e+002 -3.250000e+002 -8.682409e+001
    endloop
  endfacet
  facet normal 9.659258e-001 0.000000e+000 -2.588190e-001
    outer loop
      vertex   4.924039e+002 3.250000e+002 -8.682409e+001
      vertex   4.924039e+002 -3.250000e+002 -8.682409e+001
      vertex   4.698463e+002 -3.250000e+002 -1.710101e+002
    endloop
  endfacet
  facet normal 9.659258e-001 0.000000e+000 -2.588190e-001
    outer loop
      vertex   4.698463e+002 -3.250000e+002 -1.710101e+002
      vertex   4.698463e+002 3.250000e+002 -1.710101e+002
      vertex   4.924039e+002 3.250000e+002 -8.682409e+001
    endloop
  endfacet
  facet normal 9.961947e-001 0.000000e+000 -8.715574e-002
    outer loop
      vertex   4.924039e+002 -3.250000e+002 -8.682409e+001
      vertex   4.924039e+002 3.250000e+002 -8.682409e+001
      vertex   5.000000e+002 3.250000e+002 -1.224647e-013
    endloop
  endfacet
  facet normal -3.420201e-001 0.000000e+000 -9.396926e-001
    outer loop
      vertex   2.631139e+002 -3.250000e+002 -9.576564e+001
      vertex   2.631139e+002 3.250000e+002 -9.576564e+001
      vertex   4.698463e+002 3.250000e+002 -1.710101e+002
    endloop
  endfacet
  facet normal -3.420201e-001 -0.000000e+000 -9.396926e-001
    outer loop
      vertex   4.698463e+002 3.250000e+002 -1.710101e+002
      vertex   4.698463e+002 -3.250000e+002 -1.710101e+002
      vertex   2.631139e+002 -3.250000e+002 -9.576564e+001
    endloop
  endfacet
  facet normal 0.000000e+000 -1.000000e+000 0.000000e+000
    outer loop
      vertex   4.924039e+002 -3.250000e+002 -8.682409e+001
      vertex   5.000000e+002 -3.250000e+002 -1.224647e-013
      vertex   2.800000e+002 -3.250000e+002 0.000000e+000
    endloop
  endfacet
  facet normal 0.000000e+000 -1.000000e+000 0.000000e+000
    outer loop
      vertex   2.631139e+002 -3.250000e+002 -9.576564e+001
      vertex   4.698463e+002 -3.250000e+002 -1.710101e+002
      vertex   4.924039e+002 -3.250000e+002 -8.682409e+001
    endloop
  endfacet
  facet normal 0.000000e+000 -1.000000e+000 -0.000000e+000
    outer loop
      vertex   2.800000e+002 -3.250000e+002 0.000000e+000
      vertex   2.631139e+002 -3.250000e+002 -9.576564e+001
      vertex   4.924039e+002 -3.250000e+002 -8.682409e+001
    endloop
  endfacet
  facet normal 2.276119e-017 1.000000e+000 -5.836697e-016
    outer loop
      vertex   4.924039e+002 3.250000e+002 -8.682409e+001
      vertex   2.631139e+002 3.250000e+002 -9.576564e+001
      vertex   2.800000e+002 3.250000e+002 0.000000e+000
    endloop
  endfacet
  facet normal 2.523234e-016 1.000000e+000 -2.207544e-017
    outer loop
      vertex   2.800000e+002 3.250000e+002 0.000000e+000
      vertex   5.000000e+002 3.250000e+002 -1.224647e-013
      vertex   4.924039e+002 3.250000e+002 -8.682409e+001
    endloop
  endfacet
  facet normal -2.598545e-017 1.000000e+000 6.663499e-016
    outer loop
      vertex   4.924039e+002 3.250000e+002 -8.682409e+001
      vertex   4.698463e+002 3.250000e+002 -1.710101e+002
      vertex   2.631139e+002 3.250000e+002 -9.576564e+001
    endloop
  endfacet
  facet normal -6.427876e-001 0.000000e+000 7.660444e-001
    outer loop
      vertex   2.144924e+002 3.250000e+002 -1.799805e+002
      vertex   1.400000e+002 3.250000e+002 -2.424871e+002
      vertex   1.400000e+002 -3.250000e+002 -2.424871e+002
    endloop
  endfacet
  facet normal -6.427876e-001 0.000000e+000 7.660444e-001
    outer loop
      vertex   1.400000e+002 -3.250000e+002 -2.424871e+002
      vertex   2.144924e+002 -3.250000e+002 -1.799805e+002
      vertex   2.144924e+002 3.250000e+002 -1.799805e+002
    endloop
  endfacet
  facet normal 6.427876e-001 0.000000e+000 7.660444e-001
    outer loop
      vertex   3.830222e+002 3.250000e+002 -3.213938e+002
      vertex   2.144924e+002 3.250000e+002 -1.799805e+002
      vertex   2.144924e+002 -3.250000e+002 -1.799805e+002
    endloop
  endfacet
  facet normal 6.427876e-001 0.000000e+000 7.660444e-001
    outer loop
      vertex   2.144924e+002 -3.250000e+002 -1.799805e+002
      vertex   3.830222e+002 -3.250000e+002 -3.213938e+002
      vertex   3.830222e+002 3.250000e+002 -3.213938e+002
    endloop
  endfacet
  facet normal 7.071068e-001 0.000000e+000 -7.071068e-001
    outer loop
      vertex   3.830222e+002 3.250000e+002 -3.213938e+002
      vertex   3.830222e+002 -3.250000e+002 -3.213938e+002
      vertex   3.213938e+002 -3.250000e+002 -3.830222e+002
    endloop
  endfacet
  facet normal 5.735764e-001 0.000000e+000 -8.191520e-001
    outer loop
      vertex   3.213938e+002 3.250000e+002 -3.830222e+002
      vertex   3.213938e+002 -3.250000e+002 -3.830222e+002
      vertex   2.500000e+002 -3.250000e+002 -4.330127e+002
    endloop
  endfacet
  facet normal 5.735764e-001 0.000000e+000 -8.191520e-001
    outer loop
      vertex   2.500000e+002 -3.250000e+002 -4.330127e+002
      vertex   2.500000e+002 3.250000e+002 -4.330127e+002
      vertex   3.213938e+002 3.250000e+002 -3.830222e+002
    endloop
  endfacet
  facet normal 7.071068e-001 0.000000e+000 -7.071068e-001
    outer loop
      vertex   3.213938e+002 -3.250000e+002 -3.830222e+002
      vertex   3.213938e+002 3.250000e+002 -3.830222e+002
      vertex   3.830222e+002 3.250000e+002 -3.213938e+002
    endloop
  endfacet
  facet normal -8.660254e-001 0.000000e+000 -5.000000e-001
    outer loop
      vertex   1.400000e+002 3.250000e+002 -2.424871e+002
      vertex   2.500000e+002 3.250000e+002 -4.330127e+002
      vertex   2.500000e+002 -3.250000e+002 -4.330127e+002
    endloop
  endfacet
  facet normal -8.660254e-001 0.000000e+000 -5.000000e-001
    outer loop
      vertex   2.500000e+002 -3.250000e+002 -4.330127e+002
      vertex   1.400000e+002 -3.250000e+002 -2.424871e+002
      vertex   1.400000e+002 3.250000e+002 -2.424871e+002
    endloop
  endfacet
  facet normal 0.000000e+000 -1.000000e+000 0.000000e+000
    outer loop
      vertex   3.213938e+002 -3.250000e+002 -3.830222e+002
      vertex   3.830222e+002 -3.250000e+002 -3.213938e+002
      vertex   2.144924e+002 -3.250000e+002 -1.799805e+002
    endloop
  endfacet
  facet normal 0.000000e+000 -1.000000e+000 0.000000e+000
    outer loop
      vertex   1.400000e+002 -3.250000e+002 -2.424871e+002
      vertex   2.500000e+002 -3.250000e+002 -4.330127e+002
      vertex   3.213938e+002 -3.250000e+002 -3.830222e+002
    endloop
  endfacet
  facet normal 0.000000e+000 -1.000000e+000 -0.000000e+000
    outer loop
      vertex   2.144924e+002 -3.250000e+002 -1.799805e+002
      vertex   1.400000e+002 -3.250000e+002 -2.424871e+002
      vertex   3.213938e+002 -3.250000e+002 -3.830222e+002
    endloop
  endfacet
  facet normal -3.577395e-016 1.000000e+000 -4.617475e-016
    outer loop
      vertex   3.213938e+002 3.250000e+002 -3.830222e+002
      vertex   1.400000e+002 3.250000e+002 -2.424871e+002
      vertex   2.144924e+002 3.250000e+002 -1.799805e+002
    endloop
  endfacet
  facet normal 1.791011e-016 1.000000e+000 -1.791011e-016
    outer loop
      vertex   2.144924e+002 3.250000e+002 -1.799805e+002
      vertex   3.830222e+002 3.250000e+002 -3.213938e+002
      vertex   3.213938e+002 3.250000e+002 -3.830222e+002
    endloop
  endfacet
  facet normal 4.084154e-016 1.000000e+000 5.271567e-016
    outer loop
      vertex   3.213938e+002 3.250000e+002 -3.830222e+002
      vertex   2.500000e+002 3.250000e+002 -4.330127e+002
      vertex   1.400000e+002 3.250000e+002 -2.424871e+002
    endloop
  endfacet
  facet normal 0.000000e+000 0.000000e+000 1.000000e+000
    outer loop
      vertex   4.862149e+001 3.250000e+002 -2.757462e+002
      vertex   -4.862149e+001 3.250000e+002 -2.757462e+002
      vertex   -4.862149e+001 -3.250000e+002 -2.757462e+002
    endloop
  endfacet
  facet normal 0.000000e+000 0.000000e+000 1.000000e+000
    outer loop
      vertex   -4.862149e+001 -3.250000e+002 -2.757462e+002
      vertex   4.862149e+001 -3.250000e+002 -2.757462e+002
      vertex   4.862149e+001 3.250000e+002 -2.757462e+002
    endloop
  endfacet
  facet normal 9.848078e-001 -0.000000e+000 1.736482e-001
    outer loop
      vertex   8.682409e+001 -3.250000e+002 -4.924039e+002
      vertex   8.682409e+001 3.250000e+002 -4.924039e+002
      vertex   4.862149e+001 3.250000e+002 -2.757462e+002
    endloop
  endfacet
  facet normal 9.848078e-001 0.000000e+000 1.736482e-001
    outer loop
      vertex   4.862149e+001 3.250000e+002 -2.757462e+002
      vertex   4.862149e+001 -3.250000e+002 -2.757462e+002
      vertex   8.682409e+001 -3.250000e+002 -4.924039e+002
    endloop
  endfacet
  facet normal 8.715574e-002 0.000000e+000 -9.961947e-001
    outer loop
      vertex   8.682409e+001 3.250000e+002 -4.924039e+002
      vertex   8.682409e+001 -3.250000e+002 -4.924039e+002
      vertex   6.123234e-014 -3.250000e+002 -5.000000e+002
    endloop
  endfacet
  facet normal -8.715574e-002 -0.000000e+000 -9.961947e-001
    outer loop
      vertex   6.123234e-014 3.250000e+002 -5.000000e+002
      vertex   6.123234e-014 -3.250000e+002 -5.000000e+002
      vertex   -8.682409e+001 -3.250000e+002 -4.924039e+002
    endloop
  endfacet
  facet normal -8.715574e-002 0.000000e+000 -9.961947e-001
    outer loop
      vertex   -8.682409e+001 -3.250000e+002 -4.924039e+002
      vertex   -8.682409e+001 3.250000e+002 -4.924039e+002
      vertex   6.123234e-014 3.250000e+002 -5.000000e+002
    endloop
  endfacet
  facet normal 8.715574e-002 0.000000e+000 -9.961947e-001
    outer loop
      vertex   6.123234e-014 -3.250000e+002 -5.000000e+002
      vertex   6.123234e-014 3.250000e+002 -5.000000e+002
      vertex   8.682409e+001 3.250000e+002 -4.924039e+002
    endloop
  endfacet
  facet normal -9.848078e-001 0.000000e+000 1.736482e-001
    outer loop
      vertex   -4.862149e+001 -3.250000e+002 -2.757462e+002
      vertex   -4.862149e+001 3.250000e+002 -2.757462e+002
      vertex   -8.682409e+001 3.250000e+002 -4.924039e+002
    endloop
  endfacet
  facet normal -9.848078e-001 0.000000e+000 1.736482e-001
    outer loop
      vertex   -8.682409e+001 3.250000e+002 -4.924039e+002
      vertex   -8.682409e+001 -3.250000e+002 -4.924039e+002
      vertex   -4.862149e+001 -3.250000e+002 -2.757462e+002
    endloop
  endfacet
  facet normal 0.000000e+000 -1.000000e+000 0.000000e+000
    outer loop
      vertex   6.123234e-014 -3.250000e+002 -5.000000e+002
      vertex   4.862149e+001 -3.250000e+002 -2.757462e+002
      vertex   -4.862149e+001 -3.250000e+002 -2.757462e+002
    endloop
  endfacet
  facet normal 0.000000e+000 -1.000000e+000 -0.000000e+000
    outer loop
      vertex   -4.862149e+001 -3.250000e+002 -2.757462e+002
      vertex   -8.682409e+001 -3.250000e+002 -4.924039e+002
      vertex   6.123234e-014 -3.250000e+002 -5.000000e+002
    endloop
  endfacet
  facet normal 0.000000e+000 -1.000000e+000 0.000000e+000
    outer loop
      vertex   6.123234e-014 -3.250000e+002 -5.000000e+002
      vertex   8.682409e+001 -3.250000e+002 -4.924039e+002
      vertex   4.862149e+001 -3.250000e+002 -2.757462e+002
    endloop
  endfacet
  facet normal 6.517142e-016 1.000000e+000 1.413011e-016
    outer loop
      vertex   6.123234e-014 3.250000e+002 -5.000000e+002
      vertex   -8.682409e+001 3.250000e+002 -4.924039e+002
      vertex   -4.862149e+001 3.250000e+002 -2.757462e+002
    endloop
  endfacet
  facet normal 2.207544e-017 1.000000e+000 -2.523234e-016
    outer loop
      vertex   4.862149e+001 3.250000e+002 -2.757462e+002
      vertex   8.682409e+001 3.250000e+002 -4.924039e+002
      vertex   6.123234e-014 3.250000e+002 -5.000000e+002
    endloop
  endfacet
  facet normal -5.708500e-016 1.000000e+000 -1.237686e-016
    outer loop
      vertex   -4.862149e+001 3.250000e+002 -2.757462e+002
      vertex   4.862149e+001 3.250000e+002 -2.757462e+002
      vertex   6.123234e-014 3.250000e+002 -5.000000e+002
    endloop
  endfacet
  facet normal 6.427876e-001 0.000000e+000 7.660444e-001
    outer loop
      vertex   -1.400000e+002 3.250000e+002 -2.424871e+002
      vertex   -2.144924e+002 3.250000e+002 -1.799805e+002
      vertex   -2.144924e+002 -3.250000e+002 -1.799805e+002
    endloop
  endfacet
  facet normal 6.427876e-001 -8.507860e-016 7.660444e-001
    outer loop
      vertex   -2.144924e+002 -3.250000e+002 -1.799805e+002
      vertex   -1.400000e+002 -3.250000e+002 -2.424871e+002
      vertex   -1.400000e+002 3.250000e+002 -2.424871e+002
    endloop
  endfacet
  facet normal 8.660254e-001 -3.125922e-017 -5.000000e-001
    outer loop
      vertex   -2.500000e+002 -3.250000e+002 -4.330127e+002
      vertex   -2.500000e+002 3.250000e+002 -4.330127e+002
      vertex   -1.400000e+002 3.250000e+002 -2.424871e+002
    endloop
  endfacet
  facet normal 8.660254e-001 -4.936331e-015 -5.000000e-001
    outer loop
      vertex   -1.400000e+002 3.250000e+002 -2.424871e+002
      vertex   -1.400000e+002 -3.250000e+002 -2.424871e+002
      vertex   -2.500000e+002 -3.250000e+002 -4.330127e+002
    endloop
  endfacet
  facet normal -5.735764e-001 1.189415e-016 -8.191520e-001
    outer loop
      vertex   -2.500000e+002 3.250000e+002 -4.330127e+002
      vertex   -2.500000e+002 -3.250000e+002 -4.330127e+002
      vertex   -3.213938e+002 -3.250000e+002 -3.830222e+002
    endloop
  endfacet
  facet normal -7.071068e-001 -0.000000e+000 -7.071068e-001
    outer loop
      vertex   -3.213938e+002 3.250000e+002 -3.830222e+002
      vertex   -3.213938e+002 -3.250000e+002 -3.830222e+002
      vertex   -3.830222e+002 -3.250000e+002 -3.213938e+002
    endloop
  endfacet
  facet normal -7.071068e-001 0.000000e+000 -7.071068e-001
    outer loop
      vertex   -3.830222e+002 -3.250000e+002 -3.213938e+002
      vertex   -3.830222e+002 3.250000e+002 -3.213938e+002
      vertex   -3.213938e+002 3.250000e+002 -3.830222e+002
    endloop
  endfacet
  facet normal -5.735764e-001 0.000000e+000 -8.191520e-001
    outer loop
      vertex   -3.213938e+002 -3.250000e+002 -3.830222e+002
      vertex   -3.213938e+002 3.250000e+002 -3.830222e+002
      vertex   -2.500000e+002 3.250000e+002 -4.330127e+002
    endloop
  endfacet
  facet normal -6.427876e-001 0.000000e+000 7.660444e-001
    outer loop
      vertex   -2.144924e+002 -3.250000e+002 -1.799805e+002
      vertex   -2.144924e+002 3.250000e+002 -1.799805e+002
      vertex   -3.830222e+002 3.250000e+002 -3.213938e+002
    endloop
  endfacet
  facet normal -6.427876e-001 0.000000e+000 7.660444e-001
    outer loop
      vertex   -3.830222e+002 3.250000e+002 -3.213938e+002
      vertex   -3.830222e+002 -3.250000e+002 -3.213938e+002
      vertex   -2.144924e+002 -3.250000e+002 -1.799805e+002
    endloop
  endfacet
  facet normal 0.000000e+000 -1.000000e+000 0.000000e+000
    outer loop
      vertex   -3.213938e+002 -3.250000e+002 -3.830222e+002
      vertex   -1.400000e+002 -3.250000e+002 -2.424871e+002
      vertex   -2.144924e+002 -3.250000e+002 -1.799805e+002
    endloop
  endfacet
  facet normal 0.000000e+000 -1.000000e+000 0.000000e+000
    outer loop
      vertex   -2.144924e+002 -3.250000e+002 -1.799805e+002
      vertex   -3.830222e+002 -3.250000e+002 -3.213938e+002
      vertex   -3.213938e+002 -3.250000e+002 -3.830222e+002
    endloop
  endfacet
  facet normal 0.000000e+000 -1.000000e+000 0.000000e+000
    outer loop
      vertex   -3.213938e+002 -3.250000e+002 -3.830222e+002
      vertex   -2.500000e+002 -3.250000e+002 -4.330127e+002
      vertex   -1.400000e+002 -3.250000e+002 -2.424871e+002
    endloop
  endfacet
  facet normal -5.168533e-016 1.000000e+000 2.721231e-016
    outer loop
      vertex   -3.213938e+002 3.250000e+002 -3.830222e+002
      vertex   -2.144924e+002 3.250000e+002 -1.799805e+002
      vertex   -1.400000e+002 3.250000e+002 -2.424871e+002
    endloop
  endfacet
  facet normal -1.452796e-016 1.000000e+000 -2.074808e-016
    outer loop
      vertex   -1.400000e+002 3.250000e+002 -2.424871e+002
      vertex   -2.500000e+002 3.250000e+002 -4.330127e+002
      vertex   -3.213938e+002 3.250000e+002 -3.830222e+002
    endloop
  endfacet
  facet normal 5.900686e-016 1.000000e+000 -3.106709e-016
    outer loop
      vertex   -3.213938e+002 3.250000e+002 -3.830222e+002
      vertex   -3.830222e+002 3.250000e+002 -3.213938e+002
      vertex   -2.144924e+002 3.250000e+002 -1.799805e+002
    endloop
  endfacet
  facet normal 9.848078e-001 0.000000e+000 1.736482e-001
    outer loop
      vertex   -2.631139e+002 3.250000e+002 -9.576564e+001
      vertex   -2.800000e+002 3.250000e+002 -6.217249e-014
      vertex   -2.800000e+002 -3.250000e+002 -6.217249e-014
    endloop
  endfacet
  facet normal 9.848078e-001 0.000000e+000 1.736482e-001
    outer loop
      vertex   -2.800000e+002 -3.250000e+002 -6.217249e-014
      vertex   -2.631139e+002 -3.250000e+002 -9.576564e+001
      vertex   -2.631139e+002 3.250000e+002 -9.576564e+001
    endloop
  endfacet
  facet normal 3.420201e-001 0.000000e+000 -9.396926e-001
    outer loop
      vertex   -4.698463e+002 -3.250000e+002 -1.710101e+002
      vertex   -4.698463e+002 3.250000e+002 -1.710101e+002
      vertex   -2.631139e+002 3.250000e+002 -9.576564e+001
    endloop
  endfacet
  facet normal 3.420201e-001 0.000000e+000 -9.396926e-001
    outer loop
      vertex   -2.631139e+002 3.250000e+002 -9.576564e+001
      vertex   -2.631139e+002 -3.250000e+002 -9.576564e+001
      vertex   -4.698463e+002 -3.250000e+002 -1.710101e+002
    endloop
  endfacet
  facet normal -9.659258e-001 -0.000000e+000 -2.588190e-001
    outer loop
      vertex   -4.698463e+002 3.250000e+002 -1.710101e+002
      vertex   -4.698463e+002 -3.250000e+002 -1.710101e+002
      vertex   -4.924039e+002 -3.250000e+002 -8.682409e+001
    endloop
  endfacet
  facet normal -9.961947e-001 -0.000000e+000 -8.715574e-002
    outer loop
      vertex   -4.924039e+002 3.250000e+002 -8.682409e+001
      vertex   -4.924039e+002 -3.250000e+002 -8.682409e+001
      vertex   -5.000000e+002 -3.250000e+002 -6.123234e-014
    endloop
  endfacet
  facet normal -9.961947e-001 0.000000e+000 -8.715574e-002
    outer loop
      vertex   -5.000000e+002 -3.250000e+002 -6.123234e-014
      vertex   -5.000000e+002 3.250000e+002 -6.123234e-014
      vertex   -4.924039e+002 3.250000e+002 -8.682409e+001
    endloop
  endfacet
  facet normal -9.659258e-001 0.000000e+000 -2.588190e-001
    outer loop
      vertex   -4.924039e+002 -3.250000e+002 -8.682409e+001
      vertex   -4.924039e+002 3.250000e+002 -8.682409e+001
      vertex   -4.698463e+002 3.250000e+002 -1.710101e+002
    endloop
  endfacet
  facet normal 4.273406e-018 -0.000000e+000 1.000000e+000
    outer loop
      vertex   -2.800000e+002 -3.250000e+002 -6.217249e-014
      vertex   -2.800000e+002 3.250000e+002 -6.217249e-014
      vertex   -5.000000e+002 3.250000e+002 -6.123234e-014
    endloop
  endfacet
  facet normal 4.273406e-018 0.000000e+000 1.000000e+000
    outer loop
      vertex   -5.000000e+002 3.250000e+002 -6.123234e-014
      vertex   -5.000000e+002 -3.250000e+002 -6.123234e-014
      vertex   -2.800000e+002 -3.250000e+002 -6.217249e-014
    endloop
  endfacet
  facet normal 0.000000e+000 -1.000000e+000 0.000000e+000
    outer loop
      vertex   -4.924039e+002 -3.250000e+002 -8.682409e+001
      vertex   -4.698463e+002 -3.250000e+002 -1.710101e+002
      vertex   -2.631139e+002 -3.250000e+002 -9.576564e+001
    endloop
  endfacet
  facet normal -0.000000e+000 -1.000000e+000 0.000000e+000
    outer loop
      vertex   -2.800000e+002 -3.250000e+002 -6.217249e-014
      vertex   -5.000000e+002 -3.250000e+002 -6.123234e-014
      vertex   -4.924039e+002 -3.250000e+002 -8.682409e+001
    endloop
  endfacet
  facet normal 0.000000e+000 -1.000000e+000 0.000000e+000
    outer loop
      vertex   -2.631139e+002 -3.250000e+002 -9.576564e+001
      vertex   -2.800000e+002 -3.250000e+002 -6.217249e-014
      vertex   -4.924039e+002 -3.250000e+002 -8.682409e+001
    endloop
  endfacet
  facet normal -2.210153e-016 1.000000e+000 5.406853e-016
    outer loop
      vertex   -4.924039e+002 3.250000e+002 -8.682409e+001
      vertex   -2.800000e+002 3.250000e+002 -6.217249e-014
      vertex   -2.631139e+002 3.250000e+002 -9.576564e+001
    endloop
  endfacet
  facet normal -2.446567e-016 1.000000e+000 -6.555556e-017
    outer loop
      vertex   -2.631139e+002 3.250000e+002 -9.576564e+001
      vertex   -4.698463e+002 3.250000e+002 -1.710101e+002
      vertex   -4.924039e+002 3.250000e+002 -8.682409e+001
    endloop
  endfacet
  facet normal 2.523234e-016 1.000000e+000 -6.172765e-016
    outer loop
      vertex   -4.924039e+002 3.250000e+002 -8.682409e+001
      vertex   -5.000000e+002 3.250000e+002 -6.123234e-014
      vertex   -2.800000e+002 3.250000e+002 -6.217249e-014
    endloop
  endfacet
  facet normal 3.420201e-001 0.000000e+000 -9.396926e-001
    outer loop
      vertex   -1.400000e+002 3.250000e+002 2.424871e+002
      vertex   -4.862149e+001 3.250000e+002 2.757462e+002
      vertex   -4.862149e+001 -3.250000e+002 2.757462e+002
    endloop
  endfacet
  facet normal 3.420201e-001 0.000000e+000 -9.396926e-001
    outer loop
      vertex   -4.862149e+001 -3.250000e+002 2.757462e+002
      vertex   -1.400000e+002 -3.250000e+002 2.424871e+002
      vertex   -1.400000e+002 3.250000e+002 2.424871e+002
    endloop
  endfacet
  facet normal 9.848078e-001 -0.000000e+000 1.736482e-001
    outer loop
      vertex   -4.862149e+001 -3.250000e+002 2.757462e+002
      vertex   -4.862149e+001 3.250000e+002 2.757462e+002
      vertex   -8.682409e+001 3.250000e+002 4.924039e+002
    endloop
  endfacet
  facet normal 9.848078e-001 0.000000e+000 1.736482e-001
    outer loop
      vertex   -8.682409e+001 3.250000e+002 4.924039e+002
      vertex   -8.682409e+001 -3.250000e+002 4.924039e+002
      vertex   -4.862149e+001 -3.250000e+002 2.757462e+002
    endloop
  endfacet
  facet normal -4.226183e-001 0.000000e+000 9.063078e-001
    outer loop
      vertex   -2.500000e+002 3.250000e+002 4.330127e+002
      vertex   -2.500000e+002 -3.250000e+002 4.330127e+002
      vertex   -1.710101e+002 -3.250000e+002 4.698463e+002
    endloop
  endfacet
  facet normal -2.588190e-001 0.000000e+000 9.659258e-001
    outer loop
      vertex   -1.710101e+002 3.250000e+002 4.698463e+002
      vertex   -1.710101e+002 -3.250000e+002 4.698463e+002
      vertex   -8.682409e+001 -3.250000e+002 4.924039e+002
    endloop
  endfacet
  facet normal -2.588190e-001 0.000000e+000 9.659258e-001
    outer loop
      vertex   -8.682409e+001 -3.250000e+002 4.924039e+002
      vertex   -8.682409e+001 3.250000e+002 4.924039e+002
      vertex   -1.710101e+002 3.250000e+002 4.698463e+002
    endloop
  endfacet
  facet normal -4.226183e-001 0.000000e+000 9.063078e-001
    outer loop
      vertex   -1.710101e+002 -3.250000e+002 4.698463e+002
      vertex   -1.710101e+002 3.250000e+002 4.698463e+002
      vertex   -2.500000e+002 3.250000e+002 4.330127e+002
    endloop
  endfacet
  facet normal -8.660254e-001 0.000000e+000 -5.000000e-001
    outer loop
      vertex   -2.500000e+002 -3.250000e+002 4.330127e+002
      vertex   -2.500000e+002 3.250000e+002 4.330127e+002
      vertex   -1.400000e+002 3.250000e+002 2.424871e+002
    endloop
  endfacet
  facet normal -8.660254e-001 -0.000000e+000 -5.000000e-001
    outer loop
      vertex   -1.400000e+002 3.250000e+002 2.424871e+002
      vertex   -1.400000e+002 -3.250000e+002 2.424871e+002
      vertex   -2.500000e+002 -3.250000e+002 4.330127e+002
    endloop
  endfacet
  facet normal 0.000000e+000 -1.000000e+000 0.000000e+000
    outer loop
      vertex   -1.710101e+002 -3.250000e+002 4.698463e+002
      vertex   -1.400000e+002 -3.250000e+002 2.424871e+002
      vertex   -4.862149e+001 -3.250000e+002 2.757462e+002
    endloop
  endfacet
  facet normal 0.000000e+000 -1.000000e+000 0.000000e+000
    outer loop
      vertex   -4.862149e+001 -3.250000e+002 2.757462e+002
      vertex   -8.682409e+001 -3.250000e+002 4.924039e+002
      vertex   -1.710101e+002 -3.250000e+002 4.698463e+002
    endloop
  endfacet
  facet normal 0.000000e+000 -1.000000e+000 -0.000000e+000
    outer loop
      vertex   -1.710101e+002 -3.250000e+002 4.698463e+002
      vertex   -2.500000e+002 -3.250000e+002 4.330127e+002
      vertex   -1.400000e+002 -3.250000e+002 2.424871e+002
    endloop
  endfacet
  facet normal -8.466269e-017 1.000000e+000 2.326088e-016
    outer loop
      vertex   -1.710101e+002 3.250000e+002 4.698463e+002
      vertex   -4.862149e+001 3.250000e+002 2.757462e+002
      vertex   -1.400000e+002 3.250000e+002 2.424871e+002
    endloop
  endfacet
  facet normal 5.536950e-016 1.000000e+000 3.196760e-016
    outer loop
      vertex   -1.400000e+002 3.250000e+002 2.424871e+002
      vertex   -2.500000e+002 3.250000e+002 4.330127e+002
      vertex   -1.710101e+002 3.250000e+002 4.698463e+002
    endloop
  endfacet
  facet normal -6.296388e-016 1.000000e+000 -1.110223e-016
    outer loop
      vertex   -1.710101e+002 3.250000e+002 4.698463e+002
      vertex   -8.682409e+001 3.250000e+002 4.924039e+002
      vertex   -4.862149e+001 3.250000e+002 2.757462e+002
    endloop
  endfacet
endsolid
