solid mortero1
   facet normal 1.000000e+000 0.000000e+000 0.000000e+000
      outer loop
         vertex 2.200000e+003 2.200000e+002 0.000000e+000
         vertex 2.200000e+003 2.200000e+002 1.200000e+003
         vertex 2.200000e+003 0.000000e+000 0.000000e+000
      endloop
   endfacet
   facet normal 1.000000e+000 0.000000e+000 0.000000e+000
      outer loop
         vertex 2.200000e+003 0.000000e+000 0.000000e+000
         vertex 2.200000e+003 2.200000e+002 1.200000e+003
         vertex 2.200000e+003 0.000000e+000 1.200000e+003
      endloop
   endfacet
   facet normal 0.000000e+000 0.000000e+000 -1.000000e+000
      outer loop
         vertex 0.000000e+000 2.200000e+002 0.000000e+000
         vertex 2.200000e+003 2.200000e+002 0.000000e+000
         vertex 0.000000e+000 0.000000e+000 0.000000e+000
      endloop
   endfacet
   facet normal 0.000000e+000 0.000000e+000 -1.000000e+000
      outer loop
         vertex 0.000000e+000 0.000000e+000 0.000000e+000
         vertex 2.200000e+003 2.200000e+002 0.000000e+000
         vertex 2.200000e+003 0.000000e+000 0.000000e+000
      endloop
   endfacet
   facet normal -1.000000e+000 0.000000e+000 0.000000e+000
      outer loop
         vertex 0.000000e+000 2.200000e+002 1.200000e+003
         vertex 0.000000e+000 2.200000e+002 0.000000e+000
         vertex 0.000000e+000 0.000000e+000 1.200000e+003
      endloop
   endfacet
   facet normal -1.000000e+000 0.000000e+000 0.000000e+000
      outer loop
         vertex 0.000000e+000 0.000000e+000 1.200000e+003
         vertex 0.000000e+000 2.200000e+002 0.000000e+000
         vertex 0.000000e+000 0.000000e+000 0.000000e+000
      endloop
   endfacet
   facet normal 0.000000e+000 0.000000e+000 1.000000e+000
      outer loop
         vertex 2.200000e+003 2.200000e+002 1.200000e+003
         vertex 0.000000e+000 2.200000e+002 1.200000e+003
         vertex 2.200000e+003 0.000000e+000 1.200000e+003
      endloop
   endfacet
   facet normal 0.000000e+000 0.000000e+000 1.000000e+000
      outer loop
         vertex 2.200000e+003 0.000000e+000 1.200000e+003
         vertex 0.000000e+000 2.200000e+002 1.200000e+003
         vertex 0.000000e+000 0.000000e+000 1.200000e+003
      endloop
   endfacet
   facet normal 0.000000e+000 1.000000e+000 0.000000e+000
      outer loop
         vertex 0.000000e+000 2.200000e+002 0.000000e+000
         vertex 0.000000e+000 2.200000e+002 1.200000e+003
         vertex 2.200000e+003 2.200000e+002 0.000000e+000
      endloop
   endfacet
   facet normal 0.000000e+000 1.000000e+000 0.000000e+000
      outer loop
         vertex 2.200000e+003 2.200000e+002 0.000000e+000
         vertex 0.000000e+000 2.200000e+002 1.200000e+003
         vertex 2.200000e+003 2.200000e+002 1.200000e+003
      endloop
   endfacet
   facet normal 0.000000e+000 -1.000000e+000 0.000000e+000
      outer loop
         vertex 0.000000e+000 0.000000e+000 1.200000e+003
         vertex 0.000000e+000 0.000000e+000 0.000000e+000
         vertex 2.200000e+003 0.000000e+000 1.200000e+003
      endloop
   endfacet
   facet normal 0.000000e+000 -1.000000e+000 0.000000e+000
      outer loop
         vertex 2.200000e+003 0.000000e+000 1.200000e+003
         vertex 0.000000e+000 0.000000e+000 0.000000e+000
         vertex 2.200000e+003 0.000000e+000 0.000000e+000
      endloop
   endfacet
endsolid