solid AcopleMotor
  facet normal 2.752197e-016 -1.000000e+000 -5.987039e-017
    outer loop
      vertex   1.625717e+002 -1.250000e+002 -1.506449e+001
      vertex   6.500000e+001 -1.250000e+002 -1.990051e-014
      vertex   5.912608e+001 -1.250000e+002 -2.700198e+001
    endloop
  endfacet
  facet normal 2.891802e-016 -1.000000e+000 2.679649e-017
    outer loop
      vertex   1.625717e+002 -1.250000e+002 -1.506449e+001
      vertex   1.570355e+002 -1.250000e+002 4.468046e+001
      vertex   6.433839e+001 -1.250000e+002 9.250465e+000
    endloop
  endfacet
  facet normal 2.876396e-016 -1.000000e+000 2.057239e-017
    outer loop
      vertex   6.433839e+001 -1.250000e+002 9.250465e+000
      vertex   6.500000e+001 -1.250000e+002 -1.990051e-014
      vertex   1.625717e+002 -1.250000e+002 -1.506449e+001
    endloop
  endfacet
  facet normal 2.547208e-016 -1.000000e+000 1.268359e-016
    outer loop
      vertex   1.570355e+002 -1.250000e+002 4.468046e+001
      vertex   1.302908e+002 -1.250000e+002 9.839106e+001
      vertex   4.912372e+001 -1.250000e+002 4.256595e+001
    endloop
  endfacet
  facet normal 2.282687e-016 -1.000000e+000 -1.723805e-016
    outer loop
      vertex   1.099931e+002 -1.250000e+002 -1.206566e+002
      vertex   1.461517e+002 -1.250000e+002 -7.277489e+001
      vertex   5.912608e+001 -1.250000e+002 -2.700198e+001
    endloop
  endfacet
  facet normal 2.549249e-016 -1.000000e+000 1.164203e-016
    outer loop
      vertex   4.912372e+001 -1.250000e+002 4.256595e+001
      vertex   6.433839e+001 -1.250000e+002 9.250465e+000
      vertex   1.570355e+002 -1.250000e+002 4.468046e+001
    endloop
  endfacet
  facet normal 1.487518e-016 -1.000000e+000 2.314623e-016
    outer loop
      vertex   8.594962e+001 -1.250000e+002 1.388134e+002
      vertex   1.831262e+001 -1.250000e+002 6.236704e+001
      vertex   4.912372e+001 -1.250000e+002 4.256595e+001
    endloop
  endfacet
  facet normal 2.774195e-016 -1.000000e+000 -7.893265e-017
    outer loop
      vertex   5.912608e+001 -1.250000e+002 -2.700198e+001
      vertex   1.461517e+002 -1.250000e+002 -7.277489e+001
      vertex   1.625717e+002 -1.250000e+002 -1.506449e+001
    endloop
  endfacet
  facet normal 1.949068e-016 -1.000000e+000 2.138026e-016
    outer loop
      vertex   4.912372e+001 -1.250000e+002 4.256595e+001
      vertex   1.302908e+002 -1.250000e+002 9.839106e+001
      vertex   8.594962e+001 -1.250000e+002 1.388134e+002
    endloop
  endfacet
  facet normal 1.047507e-016 -1.000000e+000 2.703928e-016
    outer loop
      vertex   8.594962e+001 -1.250000e+002 1.388134e+002
      vertex   3.000045e+001 -1.250000e+002 1.604882e+002
      vertex   1.831262e+001 -1.250000e+002 6.236704e+001
    endloop
  endfacet
  facet normal 2.143667e-031 -1.000000e+000 2.828704e-016
    outer loop
      vertex   -3.000045e+001 -1.250000e+002 1.604882e+002
      vertex   -1.831262e+001 -1.250000e+002 6.236704e+001
      vertex   1.831262e+001 -1.250000e+002 6.236704e+001
    endloop
  endfacet
  facet normal -1.949068e-016 -1.000000e+000 2.138026e-016
    outer loop
      vertex   -8.594962e+001 -1.250000e+002 1.388134e+002
      vertex   -1.302908e+002 -1.250000e+002 9.839106e+001
      vertex   -4.912372e+001 -1.250000e+002 4.256595e+001
    endloop
  endfacet
  facet normal 1.308519e-031 -1.000000e+000 2.828704e-016
    outer loop
      vertex   1.831262e+001 -1.250000e+002 6.236704e+001
      vertex   3.000045e+001 -1.250000e+002 1.604882e+002
      vertex   -3.000045e+001 -1.250000e+002 1.604882e+002
    endloop
  endfacet
  facet normal -1.047507e-016 -1.000000e+000 2.703928e-016
    outer loop
      vertex   -1.831262e+001 -1.250000e+002 6.236704e+001
      vertex   -3.000045e+001 -1.250000e+002 1.604882e+002
      vertex   -8.594962e+001 -1.250000e+002 1.388134e+002
    endloop
  endfacet
  facet normal -2.774195e-016 -1.000000e+000 -7.893265e-017
    outer loop
      vertex   -1.625717e+002 -1.250000e+002 -1.506449e+001
      vertex   -1.461517e+002 -1.250000e+002 -7.277489e+001
      vertex   -5.912608e+001 -1.250000e+002 -2.700198e+001
    endloop
  endfacet
  facet normal -1.487518e-016 -1.000000e+000 2.314623e-016
    outer loop
      vertex   -4.912372e+001 -1.250000e+002 4.256595e+001
      vertex   -1.831262e+001 -1.250000e+002 6.236704e+001
      vertex   -8.594962e+001 -1.250000e+002 1.388134e+002
    endloop
  endfacet
  facet normal -2.549249e-016 -1.000000e+000 1.164203e-016
    outer loop
      vertex   -1.570355e+002 -1.250000e+002 4.468046e+001
      vertex   -6.433839e+001 -1.250000e+002 9.250465e+000
      vertex   -4.912372e+001 -1.250000e+002 4.256595e+001
    endloop
  endfacet
  facet normal -2.891802e-016 -1.000000e+000 2.679649e-017
    outer loop
      vertex   -6.433839e+001 -1.250000e+002 9.250465e+000
      vertex   -1.570355e+002 -1.250000e+002 4.468046e+001
      vertex   -1.625717e+002 -1.250000e+002 -1.506449e+001
    endloop
  endfacet
  facet normal -2.102389e-016 -1.000000e+000 -1.821731e-016
    outer loop
      vertex   -1.099931e+002 -1.250000e+002 -1.206566e+002
      vertex   -3.514165e+001 -1.250000e+002 -5.468148e+001
      vertex   -5.912608e+001 -1.250000e+002 -2.700198e+001
    endloop
  endfacet
  facet normal -2.547208e-016 -1.000000e+000 1.268359e-016
    outer loop
      vertex   -4.912372e+001 -1.250000e+002 4.256595e+001
      vertex   -1.302908e+002 -1.250000e+002 9.839106e+001
      vertex   -1.570355e+002 -1.250000e+002 4.468046e+001
    endloop
  endfacet
  facet normal -2.282687e-016 -1.000000e+000 -1.723805e-016
    outer loop
      vertex   -5.912608e+001 -1.250000e+002 -2.700198e+001
      vertex   -1.461517e+002 -1.250000e+002 -7.277489e+001
      vertex   -1.099931e+002 -1.250000e+002 -1.206566e+002
    endloop
  endfacet
  facet normal -5.279854e-017 -1.000000e+000 -2.824472e-016
    outer loop
      vertex   -5.897927e+001 -1.250000e+002 -1.522430e+002
      vertex   9.997293e-015 -1.250000e+002 -1.632682e+002
      vertex   -1.592041e-014 -1.250000e+002 -6.500000e+001
    endloop
  endfacet
  facet normal 7.794281e-017 -1.000000e+000 -2.654488e-016
    outer loop
      vertex   5.897927e+001 -1.250000e+002 -1.522430e+002
      vertex   3.514165e+001 -1.250000e+002 -5.468148e+001
      vertex   -1.592041e-014 -1.250000e+002 -6.500000e+001
    endloop
  endfacet
  facet normal -2.728376e-016 -1.000000e+000 -3.922813e-017
    outer loop
      vertex   -5.912608e+001 -1.250000e+002 -2.700198e+001
      vertex   -6.433839e+001 -1.250000e+002 9.250465e+000
      vertex   -1.625717e+002 -1.250000e+002 -1.506449e+001
    endloop
  endfacet
  facet normal -1.530034e-016 -1.000000e+000 -2.471090e-016
    outer loop
      vertex   -3.514165e+001 -1.250000e+002 -5.468148e+001
      vertex   -1.099931e+002 -1.250000e+002 -1.206566e+002
      vertex   -5.897927e+001 -1.250000e+002 -1.522430e+002
    endloop
  endfacet
  facet normal 5.279854e-017 -1.000000e+000 -2.824472e-016
    outer loop
      vertex   -1.592041e-014 -1.250000e+002 -6.500000e+001
      vertex   9.997293e-015 -1.250000e+002 -1.632682e+002
      vertex   5.897927e+001 -1.250000e+002 -1.522430e+002
    endloop
  endfacet
  facet normal -7.794281e-017 -1.000000e+000 -2.654488e-016
    outer loop
      vertex   -1.592041e-014 -1.250000e+002 -6.500000e+001
      vertex   -3.514165e+001 -1.250000e+002 -5.468148e+001
      vertex   -5.897927e+001 -1.250000e+002 -1.522430e+002
    endloop
  endfacet
  facet normal 2.102389e-016 -1.000000e+000 -1.821731e-016
    outer loop
      vertex   5.912608e+001 -1.250000e+002 -2.700198e+001
      vertex   3.514165e+001 -1.250000e+002 -5.468148e+001
      vertex   1.099931e+002 -1.250000e+002 -1.206566e+002
    endloop
  endfacet
  facet normal 1.530034e-016 -1.000000e+000 -2.471090e-016
    outer loop
      vertex   5.897927e+001 -1.250000e+002 -1.522430e+002
      vertex   1.099931e+002 -1.250000e+002 -1.206566e+002
      vertex   3.514165e+001 -1.250000e+002 -5.468148e+001
    endloop
  endfacet
  facet normal 1.837495e-001 1.023138e-016 -9.829731e-001
    outer loop
      vertex   9.997293e-015 -1.250000e+002 -1.632682e+002
      vertex   -2.999188e-014 -5.318182e+001 -1.632682e+002
      vertex   5.897927e+001 -5.318182e+001 -1.522430e+002
    endloop
  endfacet
  facet normal 5.264322e-001 0.000000e+000 -8.502171e-001
    outer loop
      vertex   5.897927e+001 -1.250000e+002 -1.522430e+002
      vertex   5.897927e+001 -5.318182e+001 -1.522430e+002
      vertex   1.099931e+002 -5.318182e+001 -1.206566e+002
    endloop
  endfacet
  facet normal 7.980172e-001 0.000000e+000 -6.026346e-001
    outer loop
      vertex   1.099931e+002 -1.250000e+002 -1.206566e+002
      vertex   1.099931e+002 -5.318182e+001 -1.206566e+002
      vertex   1.461517e+002 -5.318182e+001 -7.277489e+001
    endloop
  endfacet
  facet normal 9.618256e-001 0.000000e+000 -2.736630e-001
    outer loop
      vertex   1.461517e+002 -1.250000e+002 -7.277489e+001
      vertex   1.461517e+002 -5.318182e+001 -7.277489e+001
      vertex   1.625717e+002 -5.318182e+001 -1.506449e+001
    endloop
  endfacet
  facet normal 9.957342e-001 -6.686054e-018 9.226836e-002
    outer loop
      vertex   1.625717e+002 -1.250000e+002 -1.506449e+001
      vertex   1.625717e+002 -5.318182e+001 -1.506449e+001
      vertex   1.570355e+002 -5.318182e+001 4.468046e+001
    endloop
  endfacet
  facet normal 8.951633e-001 -4.306613e-017 4.457384e-001
    outer loop
      vertex   1.570355e+002 -1.250000e+002 4.468046e+001
      vertex   1.570355e+002 -5.318182e+001 4.468046e+001
      vertex   1.302908e+002 -5.318182e+001 9.839106e+001
    endloop
  endfacet
  facet normal 6.736956e-001 -0.000000e+000 7.390089e-001
    outer loop
      vertex   1.302908e+002 -1.250000e+002 9.839106e+001
      vertex   1.302908e+002 -5.318182e+001 9.839106e+001
      vertex   8.594962e+001 -5.318182e+001 1.388134e+002
    endloop
  endfacet
  facet normal 3.612417e-001 -0.000000e+000 9.324722e-001
    outer loop
      vertex   8.594962e+001 -1.250000e+002 1.388134e+002
      vertex   8.594962e+001 -5.318182e+001 1.388134e+002
      vertex   3.000045e+001 -5.318182e+001 1.604882e+002
    endloop
  endfacet
  facet normal 4.625860e-016 -0.000000e+000 1.000000e+000
    outer loop
      vertex   3.000045e+001 -1.250000e+002 1.604882e+002
      vertex   3.000045e+001 -5.318182e+001 1.604882e+002
      vertex   -3.000045e+001 -5.318182e+001 1.604882e+002
    endloop
  endfacet
  facet normal -3.612417e-001 0.000000e+000 9.324722e-001
    outer loop
      vertex   -3.000045e+001 -1.250000e+002 1.604882e+002
      vertex   -3.000045e+001 -5.318182e+001 1.604882e+002
      vertex   -8.594962e+001 -5.318182e+001 1.388134e+002
    endloop
  endfacet
  facet normal -6.736956e-001 0.000000e+000 7.390089e-001
    outer loop
      vertex   -8.594962e+001 -1.250000e+002 1.388134e+002
      vertex   -8.594962e+001 -5.318182e+001 1.388134e+002
      vertex   -1.302908e+002 -5.318182e+001 9.839106e+001
    endloop
  endfacet
  facet normal -8.951633e-001 0.000000e+000 4.457384e-001
    outer loop
      vertex   -1.302908e+002 -1.250000e+002 9.839106e+001
      vertex   -1.302908e+002 -5.318182e+001 9.839106e+001
      vertex   -1.570355e+002 -5.318182e+001 4.468046e+001
    endloop
  endfacet
  facet normal -9.957342e-001 -8.914739e-018 9.226836e-002
    outer loop
      vertex   -1.570355e+002 -1.250000e+002 4.468046e+001
      vertex   -1.570355e+002 -5.318182e+001 4.468046e+001
      vertex   -1.625717e+002 -5.318182e+001 -1.506449e+001
    endloop
  endfacet
  facet normal -9.618256e-001 1.983048e-017 -2.736630e-001
    outer loop
      vertex   -1.625717e+002 -1.250000e+002 -1.506449e+001
      vertex   -1.625717e+002 -5.318182e+001 -1.506449e+001
      vertex   -1.461517e+002 -5.318182e+001 -7.277489e+001
    endloop
  endfacet
  facet normal -7.980172e-001 0.000000e+000 -6.026346e-001
    outer loop
      vertex   -1.461517e+002 -1.250000e+002 -7.277489e+001
      vertex   -1.461517e+002 -5.318182e+001 -7.277489e+001
      vertex   -1.099931e+002 -5.318182e+001 -1.206566e+002
    endloop
  endfacet
  facet normal -5.264322e-001 0.000000e+000 -8.502171e-001
    outer loop
      vertex   -1.099931e+002 -1.250000e+002 -1.206566e+002
      vertex   -1.099931e+002 -5.318182e+001 -1.206566e+002
      vertex   -5.897927e+001 -5.318182e+001 -1.522430e+002
    endloop
  endfacet
  facet normal -1.837495e-001 0.000000e+000 -9.829731e-001
    outer loop
      vertex   -5.897927e+001 -1.250000e+002 -1.522430e+002
      vertex   -5.897927e+001 -5.318182e+001 -1.522430e+002
      vertex   -2.999188e-014 -5.318182e+001 -1.632682e+002
    endloop
  endfacet
  facet normal -1.837495e-001 -1.023138e-016 -9.829731e-001
    outer loop
      vertex   -2.999188e-014 -5.318182e+001 -1.632682e+002
      vertex   9.997293e-015 -1.250000e+002 -1.632682e+002
      vertex   -5.897927e+001 -1.250000e+002 -1.522430e+002
    endloop
  endfacet
  facet normal -5.264322e-001 -0.000000e+000 -8.502171e-001
    outer loop
      vertex   -5.897927e+001 -5.318182e+001 -1.522430e+002
      vertex   -5.897927e+001 -1.250000e+002 -1.522430e+002
      vertex   -1.099931e+002 -1.250000e+002 -1.206566e+002
    endloop
  endfacet
  facet normal -7.980172e-001 -0.000000e+000 -6.026346e-001
    outer loop
      vertex   -1.099931e+002 -5.318182e+001 -1.206566e+002
      vertex   -1.099931e+002 -1.250000e+002 -1.206566e+002
      vertex   -1.461517e+002 -1.250000e+002 -7.277489e+001
    endloop
  endfacet
  facet normal -9.618256e-001 -0.000000e+000 -2.736630e-001
    outer loop
      vertex   -1.461517e+002 -5.318182e+001 -7.277489e+001
      vertex   -1.461517e+002 -1.250000e+002 -7.277489e+001
      vertex   -1.625717e+002 -1.250000e+002 -1.506449e+001
    endloop
  endfacet
  facet normal -9.957342e-001 -6.686054e-018 9.226836e-002
    outer loop
      vertex   -1.625717e+002 -5.318182e+001 -1.506449e+001
      vertex   -1.625717e+002 -1.250000e+002 -1.506449e+001
      vertex   -1.570355e+002 -1.250000e+002 4.468046e+001
    endloop
  endfacet
  facet normal -8.951633e-001 -4.306613e-017 4.457384e-001
    outer loop
      vertex   -1.570355e+002 -5.318182e+001 4.468046e+001
      vertex   -1.570355e+002 -1.250000e+002 4.468046e+001
      vertex   -1.302908e+002 -1.250000e+002 9.839106e+001
    endloop
  endfacet
  facet normal -6.736956e-001 0.000000e+000 7.390089e-001
    outer loop
      vertex   -1.302908e+002 -5.318182e+001 9.839106e+001
      vertex   -1.302908e+002 -1.250000e+002 9.839106e+001
      vertex   -8.594962e+001 -1.250000e+002 1.388134e+002
    endloop
  endfacet
  facet normal -3.612417e-001 0.000000e+000 9.324722e-001
    outer loop
      vertex   -8.594962e+001 -5.318182e+001 1.388134e+002
      vertex   -8.594962e+001 -1.250000e+002 1.388134e+002
      vertex   -3.000045e+001 -1.250000e+002 1.604882e+002
    endloop
  endfacet
  facet normal 4.625860e-016 0.000000e+000 1.000000e+000
    outer loop
      vertex   -3.000045e+001 -5.318182e+001 1.604882e+002
      vertex   -3.000045e+001 -1.250000e+002 1.604882e+002
      vertex   3.000045e+001 -1.250000e+002 1.604882e+002
    endloop
  endfacet
  facet normal 3.612417e-001 0.000000e+000 9.324722e-001
    outer loop
      vertex   3.000045e+001 -5.318182e+001 1.604882e+002
      vertex   3.000045e+001 -1.250000e+002 1.604882e+002
      vertex   8.594962e+001 -1.250000e+002 1.388134e+002
    endloop
  endfacet
  facet normal 6.736956e-001 0.000000e+000 7.390089e-001
    outer loop
      vertex   8.594962e+001 -5.318182e+001 1.388134e+002
      vertex   8.594962e+001 -1.250000e+002 1.388134e+002
      vertex   1.302908e+002 -1.250000e+002 9.839106e+001
    endloop
  endfacet
  facet normal 8.951633e-001 0.000000e+000 4.457384e-001
    outer loop
      vertex   1.302908e+002 -5.318182e+001 9.839106e+001
      vertex   1.302908e+002 -1.250000e+002 9.839106e+001
      vertex   1.570355e+002 -1.250000e+002 4.468046e+001
    endloop
  endfacet
  facet normal 9.957342e-001 -8.914739e-018 9.226836e-002
    outer loop
      vertex   1.570355e+002 -5.318182e+001 4.468046e+001
      vertex   1.570355e+002 -1.250000e+002 4.468046e+001
      vertex   1.625717e+002 -1.250000e+002 -1.506449e+001
    endloop
  endfacet
  facet normal 9.618256e-001 1.983048e-017 -2.736630e-001
    outer loop
      vertex   1.625717e+002 -5.318182e+001 -1.506449e+001
      vertex   1.625717e+002 -1.250000e+002 -1.506449e+001
      vertex   1.461517e+002 -1.250000e+002 -7.277489e+001
    endloop
  endfacet
  facet normal 7.980172e-001 0.000000e+000 -6.026346e-001
    outer loop
      vertex   1.461517e+002 -5.318182e+001 -7.277489e+001
      vertex   1.461517e+002 -1.250000e+002 -7.277489e+001
      vertex   1.099931e+002 -1.250000e+002 -1.206566e+002
    endloop
  endfacet
  facet normal 5.264322e-001 0.000000e+000 -8.502171e-001
    outer loop
      vertex   1.099931e+002 -5.318182e+001 -1.206566e+002
      vertex   1.099931e+002 -1.250000e+002 -1.206566e+002
      vertex   5.897927e+001 -1.250000e+002 -1.522430e+002
    endloop
  endfacet
  facet normal 1.837495e-001 0.000000e+000 -9.829731e-001
    outer loop
      vertex   5.897927e+001 -5.318182e+001 -1.522430e+002
      vertex   5.897927e+001 -1.250000e+002 -1.522430e+002
      vertex   9.997293e-015 -1.250000e+002 -1.632682e+002
    endloop
  endfacet
  facet normal -6.897737e-017 -1.000000e+000 -1.226098e-016
    outer loop
      vertex   2.061000e+002 -5.318182e+001 1.707793e+001
      vertex   1.893878e+002 -5.318182e+001 8.307317e+001
      vertex   1.570355e+002 -5.318182e+001 4.468046e+001
    endloop
  endfacet
  facet normal -8.931371e-017 -1.000000e+000 -9.482451e-017
    outer loop
      vertex   2.004781e+002 -5.318182e+001 -5.076796e+001
      vertex   1.625717e+002 -5.318182e+001 -1.506449e+001
      vertex   1.461517e+002 -5.318182e+001 -7.277489e+001
    endloop
  endfacet
  facet normal 0.000000e+000 -1.000000e+000 0.000000e+000
    outer loop
      vertex   1.625717e+002 -5.318182e+001 -1.506449e+001
      vertex   2.004781e+002 -5.318182e+001 -5.076796e+001
      vertex   2.061000e+002 -5.318182e+001 1.707793e+001
    endloop
  endfacet
  facet normal 0.000000e+000 -1.000000e+000 0.000000e+000
    outer loop
      vertex   1.570355e+002 -5.318182e+001 4.468046e+001
      vertex   1.625717e+002 -5.318182e+001 -1.506449e+001
      vertex   2.061000e+002 -5.318182e+001 1.707793e+001
    endloop
  endfacet
  facet normal 0.000000e+000 -1.000000e+000 0.000000e+000
    outer loop
      vertex   1.893878e+002 -5.318182e+001 8.307317e+001
      vertex   1.521524e+002 -5.318182e+001 1.400661e+002
      vertex   1.302908e+002 -5.318182e+001 9.839106e+001
    endloop
  endfacet
  facet normal -3.844847e-017 -1.000000e+000 -1.483355e-016
    outer loop
      vertex   1.302908e+002 -5.318182e+001 9.839106e+001
      vertex   1.570355e+002 -5.318182e+001 4.468046e+001
      vertex   1.893878e+002 -5.318182e+001 8.307317e+001
    endloop
  endfacet
  facet normal -0.000000e+000 -1.000000e+000 0.000000e+000
    outer loop
      vertex   1.521524e+002 -5.318182e+001 1.400661e+002
      vertex   9.842895e+001 -5.318182e+001 1.818808e+002
      vertex   8.594962e+001 -5.318182e+001 1.388134e+002
    endloop
  endfacet
  facet normal -0.000000e+000 -1.000000e+000 0.000000e+000
    outer loop
      vertex   9.842895e+001 -5.318182e+001 1.818808e+002
      vertex   3.403921e+001 -5.318182e+001 2.039858e+002
      vertex   3.000045e+001 -5.318182e+001 1.604882e+002
    endloop
  endfacet
  facet normal -0.000000e+000 -1.000000e+000 0.000000e+000
    outer loop
      vertex   3.403921e+001 -5.318182e+001 2.039858e+002
      vertex   -3.403921e+001 -5.318182e+001 2.039858e+002
      vertex   -3.000045e+001 -5.318182e+001 1.604882e+002
    endloop
  endfacet
  facet normal 0.000000e+000 -1.000000e+000 0.000000e+000
    outer loop
      vertex   6.714992e+001 -5.318182e+001 -1.956010e+002
      vertex   5.897927e+001 -5.318182e+001 -1.522430e+002
      vertex   -2.999188e-014 -5.318182e+001 -1.632682e+002
    endloop
  endfacet
  facet normal 0.000000e+000 -1.000000e+000 0.000000e+000
    outer loop
      vertex   1.270231e+002 -5.318182e+001 -1.631993e+002
      vertex   1.099931e+002 -5.318182e+001 -1.206566e+002
      vertex   5.897927e+001 -5.318182e+001 -1.522430e+002
    endloop
  endfacet
  facet normal 0.000000e+000 -1.000000e+000 0.000000e+000
    outer loop
      vertex   8.594962e+001 -5.318182e+001 1.388134e+002
      vertex   1.302908e+002 -5.318182e+001 9.839106e+001
      vertex   1.521524e+002 -5.318182e+001 1.400661e+002
    endloop
  endfacet
  facet normal 0.000000e+000 -1.000000e+000 0.000000e+000
    outer loop
      vertex   -3.000045e+001 -5.318182e+001 1.604882e+002
      vertex   3.000045e+001 -5.318182e+001 1.604882e+002
      vertex   3.403921e+001 -5.318182e+001 2.039858e+002
    endloop
  endfacet
  facet normal 0.000000e+000 -1.000000e+000 0.000000e+000
    outer loop
      vertex   -9.842895e+001 -5.318182e+001 1.818808e+002
      vertex   -8.594962e+001 -5.318182e+001 1.388134e+002
      vertex   -3.000045e+001 -5.318182e+001 1.604882e+002
    endloop
  endfacet
  facet normal 0.000000e+000 -1.000000e+000 0.000000e+000
    outer loop
      vertex   -1.521524e+002 -5.318182e+001 1.400661e+002
      vertex   -1.302908e+002 -5.318182e+001 9.839106e+001
      vertex   -8.594962e+001 -5.318182e+001 1.388134e+002
    endloop
  endfacet
  facet normal 0.000000e+000 -1.000000e+000 0.000000e+000
    outer loop
      vertex   5.897927e+001 -5.318182e+001 -1.522430e+002
      vertex   6.714992e+001 -5.318182e+001 -1.956010e+002
      vertex   1.270231e+002 -5.318182e+001 -1.631993e+002
    endloop
  endfacet
  facet normal -0.000000e+000 -1.000000e+000 0.000000e+000
    outer loop
      vertex   1.731314e+002 -5.318182e+001 -1.131124e+002
      vertex   1.461517e+002 -5.318182e+001 -7.277489e+001
      vertex   1.099931e+002 -5.318182e+001 -1.206566e+002
    endloop
  endfacet
  facet normal 0.000000e+000 -1.000000e+000 0.000000e+000
    outer loop
      vertex   3.000045e+001 -5.318182e+001 1.604882e+002
      vertex   8.594962e+001 -5.318182e+001 1.388134e+002
      vertex   9.842895e+001 -5.318182e+001 1.818808e+002
    endloop
  endfacet
  facet normal 0.000000e+000 -1.000000e+000 0.000000e+000
    outer loop
      vertex   -8.594962e+001 -5.318182e+001 1.388134e+002
      vertex   -9.842895e+001 -5.318182e+001 1.818808e+002
      vertex   -1.521524e+002 -5.318182e+001 1.400661e+002
    endloop
  endfacet
  facet normal 0.000000e+000 -1.000000e+000 0.000000e+000
    outer loop
      vertex   -2.061000e+002 -5.318182e+001 1.707793e+001
      vertex   -1.625717e+002 -5.318182e+001 -1.506449e+001
      vertex   -1.570355e+002 -5.318182e+001 4.468046e+001
    endloop
  endfacet
  facet normal 1.004970e-016 -1.000000e+000 -6.721732e-017
    outer loop
      vertex   -2.004781e+002 -5.318182e+001 -5.076796e+001
      vertex   -1.731314e+002 -5.318182e+001 -1.131124e+002
      vertex   -1.461517e+002 -5.318182e+001 -7.277489e+001
    endloop
  endfacet
  facet normal 0.000000e+000 -1.000000e+000 0.000000e+000
    outer loop
      vertex   -1.731314e+002 -5.318182e+001 -1.131124e+002
      vertex   -1.270231e+002 -5.318182e+001 -1.631993e+002
      vertex   -1.099931e+002 -5.318182e+001 -1.206566e+002
    endloop
  endfacet
  facet normal 0.000000e+000 -1.000000e+000 0.000000e+000
    outer loop
      vertex   1.099931e+002 -5.318182e+001 -1.206566e+002
      vertex   1.270231e+002 -5.318182e+001 -1.631993e+002
      vertex   1.731314e+002 -5.318182e+001 -1.131124e+002
    endloop
  endfacet
  facet normal 0.000000e+000 -1.000000e+000 0.000000e+000
    outer loop
      vertex   -3.000045e+001 -5.318182e+001 1.604882e+002
      vertex   -3.403921e+001 -5.318182e+001 2.039858e+002
      vertex   -9.842895e+001 -5.318182e+001 1.818808e+002
    endloop
  endfacet
  facet normal 6.897737e-017 -1.000000e+000 -1.226098e-016
    outer loop
      vertex   -1.570355e+002 -5.318182e+001 4.468046e+001
      vertex   -1.893878e+002 -5.318182e+001 8.307317e+001
      vertex   -2.061000e+002 -5.318182e+001 1.707793e+001
    endloop
  endfacet
  facet normal 0.000000e+000 -1.000000e+000 0.000000e+000
    outer loop
      vertex   -1.099931e+002 -5.318182e+001 -1.206566e+002
      vertex   -1.461517e+002 -5.318182e+001 -7.277489e+001
      vertex   -1.731314e+002 -5.318182e+001 -1.131124e+002
    endloop
  endfacet
  facet normal -1.004970e-016 -1.000000e+000 -6.721732e-017
    outer loop
      vertex   1.461517e+002 -5.318182e+001 -7.277489e+001
      vertex   1.731314e+002 -5.318182e+001 -1.131124e+002
      vertex   2.004781e+002 -5.318182e+001 -5.076796e+001
    endloop
  endfacet
  facet normal 3.844847e-017 -1.000000e+000 -1.483355e-016
    outer loop
      vertex   -1.893878e+002 -5.318182e+001 8.307317e+001
      vertex   -1.570355e+002 -5.318182e+001 4.468046e+001
      vertex   -1.302908e+002 -5.318182e+001 9.839106e+001
    endloop
  endfacet
  facet normal 8.931371e-017 -1.000000e+000 -9.482451e-017
    outer loop
      vertex   -1.461517e+002 -5.318182e+001 -7.277489e+001
      vertex   -1.625717e+002 -5.318182e+001 -1.506449e+001
      vertex   -2.004781e+002 -5.318182e+001 -5.076796e+001
    endloop
  endfacet
  facet normal 0.000000e+000 -1.000000e+000 0.000000e+000
    outer loop
      vertex   -1.270231e+002 -5.318182e+001 -1.631993e+002
      vertex   -6.714992e+001 -5.318182e+001 -1.956010e+002
      vertex   -5.897927e+001 -5.318182e+001 -1.522430e+002
    endloop
  endfacet
  facet normal -0.000000e+000 -1.000000e+000 0.000000e+000
    outer loop
      vertex   -1.302908e+002 -5.318182e+001 9.839106e+001
      vertex   -1.521524e+002 -5.318182e+001 1.400661e+002
      vertex   -1.893878e+002 -5.318182e+001 8.307317e+001
    endloop
  endfacet
  facet normal -0.000000e+000 -1.000000e+000 0.000000e+000
    outer loop
      vertex   -5.897927e+001 -5.318182e+001 -1.522430e+002
      vertex   -1.099931e+002 -5.318182e+001 -1.206566e+002
      vertex   -1.270231e+002 -5.318182e+001 -1.631993e+002
    endloop
  endfacet
  facet normal 0.000000e+000 -1.000000e+000 0.000000e+000
    outer loop
      vertex   -2.061000e+002 -5.318182e+001 1.707793e+001
      vertex   -2.004781e+002 -5.318182e+001 -5.076796e+001
      vertex   -1.625717e+002 -5.318182e+001 -1.506449e+001
    endloop
  endfacet
  facet normal 0.000000e+000 -1.000000e+000 0.000000e+000
    outer loop
      vertex   -6.714992e+001 -5.318182e+001 -1.956010e+002
      vertex   1.266324e-014 -5.318182e+001 -2.068064e+002
      vertex   -2.999188e-014 -5.318182e+001 -1.632682e+002
    endloop
  endfacet
  facet normal -0.000000e+000 -1.000000e+000 0.000000e+000
    outer loop
      vertex   -2.999188e-014 -5.318182e+001 -1.632682e+002
      vertex   -5.897927e+001 -5.318182e+001 -1.522430e+002
      vertex   -6.714992e+001 -5.318182e+001 -1.956010e+002
    endloop
  endfacet
  facet normal 0.000000e+000 -1.000000e+000 0.000000e+000
    outer loop
      vertex   -2.999188e-014 -5.318182e+001 -1.632682e+002
      vertex   1.266324e-014 -5.318182e+001 -2.068064e+002
      vertex   6.714992e+001 -5.318182e+001 -1.956010e+002
    endloop
  endfacet
  facet normal 1.645946e-001 8.299477e-017 -9.863613e-001
    outer loop
      vertex   1.266324e-014 -5.318182e+001 -2.068064e+002
      vertex   -3.798971e-014 4.727273e+001 -2.068064e+002
      vertex   6.714992e+001 4.727273e+001 -1.956010e+002
    endloop
  endfacet
  facet normal 4.759474e-001 0.000000e+000 -8.794738e-001
    outer loop
      vertex   6.714992e+001 -5.318182e+001 -1.956010e+002
      vertex   6.714992e+001 4.727273e+001 -1.956010e+002
      vertex   1.270231e+002 4.727273e+001 -1.631993e+002
    endloop
  endfacet
  facet normal 7.357239e-001 0.000000e+000 -6.772816e-001
    outer loop
      vertex   1.270231e+002 -5.318182e+001 -1.631993e+002
      vertex   1.270231e+002 4.727273e+001 -1.631993e+002
      vertex   1.731314e+002 4.727273e+001 -1.131124e+002
    endloop
  endfacet
  facet normal 9.157733e-001 5.549419e-017 -4.016954e-001
    outer loop
      vertex   1.731314e+002 -5.318182e+001 -1.131124e+002
      vertex   1.731314e+002 4.727273e+001 -1.131124e+002
      vertex   2.004781e+002 4.727273e+001 -5.076796e+001
    endloop
  endfacet
  facet normal 9.965845e-001 5.704165e-018 -8.257935e-002
    outer loop
      vertex   2.004781e+002 -5.318182e+001 -5.076796e+001
      vertex   2.004781e+002 4.727273e+001 -5.076796e+001
      vertex   2.061000e+002 4.727273e+001 1.707793e+001
    endloop
  endfacet
  facet normal 9.694003e-001 -8.478450e-018 2.454855e-001
    outer loop
      vertex   2.061000e+002 -5.318182e+001 1.707793e+001
      vertex   2.061000e+002 4.727273e+001 1.707793e+001
      vertex   1.893878e+002 4.727273e+001 8.307317e+001
    endloop
  endfacet
  facet normal 8.371665e-001 -7.556085e-017 5.469482e-001
    outer loop
      vertex   1.893878e+002 -5.318182e+001 8.307317e+001
      vertex   1.893878e+002 4.727273e+001 8.307317e+001
      vertex   1.521524e+002 4.727273e+001 1.400661e+002
    endloop
  endfacet
  facet normal 6.142127e-001 -0.000000e+000 7.891405e-001
    outer loop
      vertex   1.521524e+002 -5.318182e+001 1.400661e+002
      vertex   1.521524e+002 4.727273e+001 1.400661e+002
      vertex   9.842895e+001 4.727273e+001 1.818808e+002
    endloop
  endfacet
  facet normal 3.246995e-001 -0.000000e+000 9.458172e-001
    outer loop
      vertex   9.842895e+001 -5.318182e+001 1.818808e+002
      vertex   9.842895e+001 4.727273e+001 1.818808e+002
      vertex   3.403921e+001 4.727273e+001 2.039858e+002
    endloop
  endfacet
  facet normal 4.077001e-016 -0.000000e+000 1.000000e+000
    outer loop
      vertex   3.403921e+001 -5.318182e+001 2.039858e+002
      vertex   3.403921e+001 4.727273e+001 2.039858e+002
      vertex   -3.403921e+001 4.727273e+001 2.039858e+002
    endloop
  endfacet
  facet normal -3.246995e-001 0.000000e+000 9.458172e-001
    outer loop
      vertex   -3.403921e+001 -5.318182e+001 2.039858e+002
      vertex   -3.403921e+001 4.727273e+001 2.039858e+002
      vertex   -9.842895e+001 4.727273e+001 1.818808e+002
    endloop
  endfacet
  facet normal -6.142127e-001 0.000000e+000 7.891405e-001
    outer loop
      vertex   -9.842895e+001 -5.318182e+001 1.818808e+002
      vertex   -9.842895e+001 4.727273e+001 1.818808e+002
      vertex   -1.521524e+002 4.727273e+001 1.400661e+002
    endloop
  endfacet
  facet normal -8.371665e-001 0.000000e+000 5.469482e-001
    outer loop
      vertex   -1.521524e+002 -5.318182e+001 1.400661e+002
      vertex   -1.521524e+002 4.727273e+001 1.400661e+002
      vertex   -1.893878e+002 4.727273e+001 8.307317e+001
    endloop
  endfacet
  facet normal -9.694003e-001 -3.391380e-017 2.454855e-001
    outer loop
      vertex   -1.893878e+002 -5.318182e+001 8.307317e+001
      vertex   -1.893878e+002 4.727273e+001 8.307317e+001
      vertex   -2.061000e+002 4.727273e+001 1.707793e+001
    endloop
  endfacet
  facet normal -9.965845e-001 2.852083e-018 -8.257935e-002
    outer loop
      vertex   -2.061000e+002 -5.318182e+001 1.707793e+001
      vertex   -2.061000e+002 4.727273e+001 1.707793e+001
      vertex   -2.004781e+002 4.727273e+001 -5.076796e+001
    endloop
  endfacet
  facet normal -9.157733e-001 2.774710e-017 -4.016954e-001
    outer loop
      vertex   -2.004781e+002 -5.318182e+001 -5.076796e+001
      vertex   -2.004781e+002 4.727273e+001 -5.076796e+001
      vertex   -1.731314e+002 4.727273e+001 -1.131124e+002
    endloop
  endfacet
  facet normal -7.357239e-001 9.356640e-017 -6.772816e-001
    outer loop
      vertex   -1.731314e+002 -5.318182e+001 -1.131124e+002
      vertex   -1.731314e+002 4.727273e+001 -1.131124e+002
      vertex   -1.270231e+002 4.727273e+001 -1.631993e+002
    endloop
  endfacet
  facet normal -4.759474e-001 0.000000e+000 -8.794738e-001
    outer loop
      vertex   -1.270231e+002 -5.318182e+001 -1.631993e+002
      vertex   -1.270231e+002 4.727273e+001 -1.631993e+002
      vertex   -6.714992e+001 4.727273e+001 -1.956010e+002
    endloop
  endfacet
  facet normal -1.645946e-001 0.000000e+000 -9.863613e-001
    outer loop
      vertex   -6.714992e+001 -5.318182e+001 -1.956010e+002
      vertex   -6.714992e+001 4.727273e+001 -1.956010e+002
      vertex   -3.798971e-014 4.727273e+001 -2.068064e+002
    endloop
  endfacet
  facet normal -1.645946e-001 -8.299477e-017 -9.863613e-001
    outer loop
      vertex   -3.798971e-014 4.727273e+001 -2.068064e+002
      vertex   1.266324e-014 -5.318182e+001 -2.068064e+002
      vertex   -6.714992e+001 -5.318182e+001 -1.956010e+002
    endloop
  endfacet
  facet normal -4.759474e-001 -0.000000e+000 -8.794738e-001
    outer loop
      vertex   -6.714992e+001 4.727273e+001 -1.956010e+002
      vertex   -6.714992e+001 -5.318182e+001 -1.956010e+002
      vertex   -1.270231e+002 -5.318182e+001 -1.631993e+002
    endloop
  endfacet
  facet normal -7.357239e-001 -0.000000e+000 -6.772816e-001
    outer loop
      vertex   -1.270231e+002 4.727273e+001 -1.631993e+002
      vertex   -1.270231e+002 -5.318182e+001 -1.631993e+002
      vertex   -1.731314e+002 -5.318182e+001 -1.131124e+002
    endloop
  endfacet
  facet normal -9.157733e-001 5.549419e-017 -4.016954e-001
    outer loop
      vertex   -1.731314e+002 4.727273e+001 -1.131124e+002
      vertex   -1.731314e+002 -5.318182e+001 -1.131124e+002
      vertex   -2.004781e+002 -5.318182e+001 -5.076796e+001
    endloop
  endfacet
  facet normal -9.965845e-001 5.704165e-018 -8.257935e-002
    outer loop
      vertex   -2.004781e+002 4.727273e+001 -5.076796e+001
      vertex   -2.004781e+002 -5.318182e+001 -5.076796e+001
      vertex   -2.061000e+002 -5.318182e+001 1.707793e+001
    endloop
  endfacet
  facet normal -9.694003e-001 -8.478450e-018 2.454855e-001
    outer loop
      vertex   -2.061000e+002 4.727273e+001 1.707793e+001
      vertex   -2.061000e+002 -5.318182e+001 1.707793e+001
      vertex   -1.893878e+002 -5.318182e+001 8.307317e+001
    endloop
  endfacet
  facet normal -8.371665e-001 -7.556085e-017 5.469482e-001
    outer loop
      vertex   -1.893878e+002 4.727273e+001 8.307317e+001
      vertex   -1.893878e+002 -5.318182e+001 8.307317e+001
      vertex   -1.521524e+002 -5.318182e+001 1.400661e+002
    endloop
  endfacet
  facet normal -6.142127e-001 0.000000e+000 7.891405e-001
    outer loop
      vertex   -1.521524e+002 4.727273e+001 1.400661e+002
      vertex   -1.521524e+002 -5.318182e+001 1.400661e+002
      vertex   -9.842895e+001 -5.318182e+001 1.818808e+002
    endloop
  endfacet
  facet normal -3.246995e-001 0.000000e+000 9.458172e-001
    outer loop
      vertex   -9.842895e+001 4.727273e+001 1.818808e+002
      vertex   -9.842895e+001 -5.318182e+001 1.818808e+002
      vertex   -3.403921e+001 -5.318182e+001 2.039858e+002
    endloop
  endfacet
  facet normal 4.077001e-016 0.000000e+000 1.000000e+000
    outer loop
      vertex   -3.403921e+001 4.727273e+001 2.039858e+002
      vertex   -3.403921e+001 -5.318182e+001 2.039858e+002
      vertex   3.403921e+001 -5.318182e+001 2.039858e+002
    endloop
  endfacet
  facet normal 3.246995e-001 0.000000e+000 9.458172e-001
    outer loop
      vertex   3.403921e+001 4.727273e+001 2.039858e+002
      vertex   3.403921e+001 -5.318182e+001 2.039858e+002
      vertex   9.842895e+001 -5.318182e+001 1.818808e+002
    endloop
  endfacet
  facet normal 6.142127e-001 0.000000e+000 7.891405e-001
    outer loop
      vertex   9.842895e+001 4.727273e+001 1.818808e+002
      vertex   9.842895e+001 -5.318182e+001 1.818808e+002
      vertex   1.521524e+002 -5.318182e+001 1.400661e+002
    endloop
  endfacet
  facet normal 8.371665e-001 0.000000e+000 5.469482e-001
    outer loop
      vertex   1.521524e+002 4.727273e+001 1.400661e+002
      vertex   1.521524e+002 -5.318182e+001 1.400661e+002
      vertex   1.893878e+002 -5.318182e+001 8.307317e+001
    endloop
  endfacet
  facet normal 9.694003e-001 -3.391380e-017 2.454855e-001
    outer loop
      vertex   1.893878e+002 4.727273e+001 8.307317e+001
      vertex   1.893878e+002 -5.318182e+001 8.307317e+001
      vertex   2.061000e+002 -5.318182e+001 1.707793e+001
    endloop
  endfacet
  facet normal 9.965845e-001 2.852083e-018 -8.257935e-002
    outer loop
      vertex   2.061000e+002 4.727273e+001 1.707793e+001
      vertex   2.061000e+002 -5.318182e+001 1.707793e+001
      vertex   2.004781e+002 -5.318182e+001 -5.076796e+001
    endloop
  endfacet
  facet normal 9.157733e-001 2.774710e-017 -4.016954e-001
    outer loop
      vertex   2.004781e+002 4.727273e+001 -5.076796e+001
      vertex   2.004781e+002 -5.318182e+001 -5.076796e+001
      vertex   1.731314e+002 -5.318182e+001 -1.131124e+002
    endloop
  endfacet
  facet normal 7.357239e-001 9.356640e-017 -6.772816e-001
    outer loop
      vertex   1.731314e+002 4.727273e+001 -1.131124e+002
      vertex   1.731314e+002 -5.318182e+001 -1.131124e+002
      vertex   1.270231e+002 -5.318182e+001 -1.631993e+002
    endloop
  endfacet
  facet normal 4.759474e-001 0.000000e+000 -8.794738e-001
    outer loop
      vertex   1.270231e+002 4.727273e+001 -1.631993e+002
      vertex   1.270231e+002 -5.318182e+001 -1.631993e+002
      vertex   6.714992e+001 -5.318182e+001 -1.956010e+002
    endloop
  endfacet
  facet normal 1.645946e-001 0.000000e+000 -9.863613e-001
    outer loop
      vertex   6.714992e+001 4.727273e+001 -1.956010e+002
      vertex   6.714992e+001 -5.318182e+001 -1.956010e+002
      vertex   1.266324e-014 -5.318182e+001 -2.068064e+002
    endloop
  endfacet
  facet normal 1.193615e-015 1.000000e+000 1.106047e-016
    outer loop
      vertex   2.061000e+002 4.727273e+001 1.707793e+001
      vertex   1.625717e+002 4.727273e+001 -1.506449e+001
      vertex   1.570355e+002 4.727273e+001 4.468046e+001
    endloop
  endfacet
  facet normal -9.664010e-016 1.000000e+000 -7.297922e-016
    outer loop
      vertex   -1.731314e+002 4.727273e+001 -1.131124e+002
      vertex   -1.461517e+002 4.727273e+001 -7.277489e+001
      vertex   -1.099931e+002 4.727273e+001 -1.206566e+002
    endloop
  endfacet
  facet normal -1.244233e-015 1.000000e+000 -2.337784e-016
    outer loop
      vertex   -2.004781e+002 4.727273e+001 -5.076796e+001
      vertex   -1.625717e+002 4.727273e+001 -1.506449e+001
      vertex   -1.461517e+002 4.727273e+001 -7.277489e+001
    endloop
  endfacet
  facet normal -1.388329e-015 1.000000e+000 4.567149e-016
    outer loop
      vertex   -2.061000e+002 4.727273e+001 1.707793e+001
      vertex   -1.893878e+002 4.727273e+001 8.307317e+001
      vertex   -1.570355e+002 4.727273e+001 4.468046e+001
    endloop
  endfacet
  facet normal 1.388329e-015 1.000000e+000 4.567149e-016
    outer loop
      vertex   1.570355e+002 4.727273e+001 4.468046e+001
      vertex   1.893878e+002 4.727273e+001 8.307317e+001
      vertex   2.061000e+002 4.727273e+001 1.707793e+001
    endloop
  endfacet
  facet normal 1.343099e-015 1.000000e+000 -4.778383e-016
    outer loop
      vertex   2.004781e+002 4.727273e+001 -5.076796e+001
      vertex   1.731314e+002 4.727273e+001 -1.131124e+002
      vertex   1.461517e+002 4.727273e+001 -7.277489e+001
    endloop
  endfacet
  facet normal -2.311853e-016 1.000000e+000 -1.236732e-015
    outer loop
      vertex   -6.714992e+001 4.727273e+001 -1.956010e+002
      vertex   -5.897927e+001 4.727273e+001 -1.522430e+002
      vertex   9.997293e-015 4.727273e+001 -1.632682e+002
    endloop
  endfacet
  facet normal -6.474453e-016 1.000000e+000 -1.045660e-015
    outer loop
      vertex   -1.270231e+002 4.727273e+001 -1.631993e+002
      vertex   -1.099931e+002 4.727273e+001 -1.206566e+002
      vertex   -5.897927e+001 4.727273e+001 -1.522430e+002
    endloop
  endfacet
  facet normal -1.343099e-015 1.000000e+000 -4.778383e-016
    outer loop
      vertex   -1.461517e+002 4.727273e+001 -7.277489e+001
      vertex   -1.731314e+002 4.727273e+001 -1.131124e+002
      vertex   -2.004781e+002 4.727273e+001 -5.076796e+001
    endloop
  endfacet
  facet normal -1.358406e-015 1.000000e+000 -1.125608e-016
    outer loop
      vertex   -1.625717e+002 4.727273e+001 -1.506449e+001
      vertex   -2.004781e+002 4.727273e+001 -5.076796e+001
      vertex   -2.061000e+002 4.727273e+001 1.707793e+001
    endloop
  endfacet
  facet normal 4.489413e-016 1.000000e+000 1.158851e-015
    outer loop
      vertex   9.842895e+001 4.727273e+001 1.818808e+002
      vertex   8.594962e+001 4.727273e+001 1.388134e+002
      vertex   3.000045e+001 4.727273e+001 1.604882e+002
    endloop
  endfacet
  facet normal 8.214510e-016 1.000000e+000 9.010888e-016
    outer loop
      vertex   1.521524e+002 4.727273e+001 1.400661e+002
      vertex   1.302908e+002 4.727273e+001 9.839106e+001
      vertex   8.594962e+001 4.727273e+001 1.388134e+002
    endloop
  endfacet
  facet normal 1.116973e-015 1.000000e+000 6.853769e-016
    outer loop
      vertex   1.893878e+002 4.727273e+001 8.307317e+001
      vertex   1.570355e+002 4.727273e+001 4.468046e+001
      vertex   1.302908e+002 4.727273e+001 9.839106e+001
    endloop
  endfacet
  facet normal 1.244233e-015 1.000000e+000 -2.337784e-016
    outer loop
      vertex   1.461517e+002 4.727273e+001 -7.277489e+001
      vertex   1.625717e+002 4.727273e+001 -1.506449e+001
      vertex   2.004781e+002 4.727273e+001 -5.076796e+001
    endloop
  endfacet
  facet normal 9.878608e-016 1.000000e+000 -9.093899e-016
    outer loop
      vertex   1.731314e+002 4.727273e+001 -1.131124e+002
      vertex   1.270231e+002 4.727273e+001 -1.631993e+002
      vertex   1.099931e+002 4.727273e+001 -1.206566e+002
    endloop
  endfacet
  facet normal 6.287424e-016 1.000000e+000 -1.161814e-015
    outer loop
      vertex   1.270231e+002 4.727273e+001 -1.631993e+002
      vertex   6.714992e+001 4.727273e+001 -1.956010e+002
      vertex   5.897927e+001 4.727273e+001 -1.522430e+002
    endloop
  endfacet
  facet normal -6.287424e-016 1.000000e+000 -1.161814e-015
    outer loop
      vertex   -5.897927e+001 4.727273e+001 -1.522430e+002
      vertex   -6.714992e+001 4.727273e+001 -1.956010e+002
      vertex   -1.270231e+002 4.727273e+001 -1.631993e+002
    endloop
  endfacet
  facet normal -1.193615e-015 1.000000e+000 1.106047e-016
    outer loop
      vertex   -1.570355e+002 4.727273e+001 4.468046e+001
      vertex   -1.625717e+002 4.727273e+001 -1.506449e+001
      vertex   -2.061000e+002 4.727273e+001 1.707793e+001
    endloop
  endfacet
  facet normal -8.186003e-016 1.000000e+000 1.051738e-015
    outer loop
      vertex   -1.521524e+002 4.727273e+001 1.400661e+002
      vertex   -9.842895e+001 4.727273e+001 1.818808e+002
      vertex   -8.594962e+001 4.727273e+001 1.388134e+002
    endloop
  endfacet
  facet normal -4.245827e-016 1.000000e+000 1.236767e-015
    outer loop
      vertex   -9.842895e+001 4.727273e+001 1.818808e+002
      vertex   -3.403921e+001 4.727273e+001 2.039858e+002
      vertex   -3.000045e+001 4.727273e+001 1.604882e+002
    endloop
  endfacet
  facet normal 8.186003e-016 1.000000e+000 1.051738e-015
    outer loop
      vertex   8.594962e+001 4.727273e+001 1.388134e+002
      vertex   9.842895e+001 4.727273e+001 1.818808e+002
      vertex   1.521524e+002 4.727273e+001 1.400661e+002
    endloop
  endfacet
  facet normal 1.358406e-015 1.000000e+000 -1.125608e-016
    outer loop
      vertex   2.061000e+002 4.727273e+001 1.707793e+001
      vertex   2.004781e+002 4.727273e+001 -5.076796e+001
      vertex   1.625717e+002 4.727273e+001 -1.506449e+001
    endloop
  endfacet
  facet normal 6.474453e-016 1.000000e+000 -1.045660e-015
    outer loop
      vertex   5.897927e+001 4.727273e+001 -1.522430e+002
      vertex   1.099931e+002 4.727273e+001 -1.206566e+002
      vertex   1.270231e+002 4.727273e+001 -1.631993e+002
    endloop
  endfacet
  facet normal 2.127597e-016 1.000000e+000 -1.274999e-015
    outer loop
      vertex   6.714992e+001 4.727273e+001 -1.956010e+002
      vertex   -3.798971e-014 4.727273e+001 -2.068064e+002
      vertex   9.997293e-015 4.727273e+001 -1.632682e+002
    endloop
  endfacet
  facet normal -9.878608e-016 1.000000e+000 -9.093899e-016
    outer loop
      vertex   -1.099931e+002 4.727273e+001 -1.206566e+002
      vertex   -1.270231e+002 4.727273e+001 -1.631993e+002
      vertex   -1.731314e+002 4.727273e+001 -1.131124e+002
    endloop
  endfacet
  facet normal -1.130821e-015 1.000000e+000 7.388021e-016
    outer loop
      vertex   -1.893878e+002 4.727273e+001 8.307317e+001
      vertex   -1.521524e+002 4.727273e+001 1.400661e+002
      vertex   -1.302908e+002 4.727273e+001 9.839106e+001
    endloop
  endfacet
  facet normal -4.489413e-016 1.000000e+000 1.158851e-015
    outer loop
      vertex   -3.000045e+001 4.727273e+001 1.604882e+002
      vertex   -8.594962e+001 4.727273e+001 1.388134e+002
      vertex   -9.842895e+001 4.727273e+001 1.818808e+002
    endloop
  endfacet
  facet normal 5.203027e-031 1.000000e+000 1.276190e-015
    outer loop
      vertex   -3.403921e+001 4.727273e+001 2.039858e+002
      vertex   3.403921e+001 4.727273e+001 2.039858e+002
      vertex   3.000045e+001 4.727273e+001 1.604882e+002
    endloop
  endfacet
  facet normal 1.130821e-015 1.000000e+000 7.388021e-016
    outer loop
      vertex   1.302908e+002 4.727273e+001 9.839106e+001
      vertex   1.521524e+002 4.727273e+001 1.400661e+002
      vertex   1.893878e+002 4.727273e+001 8.307317e+001
    endloop
  endfacet
  facet normal 2.311853e-016 1.000000e+000 -1.236732e-015
    outer loop
      vertex   9.997293e-015 4.727273e+001 -1.632682e+002
      vertex   5.897927e+001 4.727273e+001 -1.522430e+002
      vertex   6.714992e+001 4.727273e+001 -1.956010e+002
    endloop
  endfacet
  facet normal -1.116973e-015 1.000000e+000 6.853769e-016
    outer loop
      vertex   -1.302908e+002 4.727273e+001 9.839106e+001
      vertex   -1.570355e+002 4.727273e+001 4.468046e+001
      vertex   -1.893878e+002 4.727273e+001 8.307317e+001
    endloop
  endfacet
  facet normal 5.903476e-031 1.000000e+000 1.276190e-015
    outer loop
      vertex   3.000045e+001 4.727273e+001 1.604882e+002
      vertex   -3.000045e+001 4.727273e+001 1.604882e+002
      vertex   -3.403921e+001 4.727273e+001 2.039858e+002
    endloop
  endfacet
  facet normal 9.664010e-016 1.000000e+000 -7.297922e-016
    outer loop
      vertex   1.099931e+002 4.727273e+001 -1.206566e+002
      vertex   1.461517e+002 4.727273e+001 -7.277489e+001
      vertex   1.731314e+002 4.727273e+001 -1.131124e+002
    endloop
  endfacet
  facet normal -8.214510e-016 1.000000e+000 9.010888e-016
    outer loop
      vertex   -8.594962e+001 4.727273e+001 1.388134e+002
      vertex   -1.302908e+002 4.727273e+001 9.839106e+001
      vertex   -1.521524e+002 4.727273e+001 1.400661e+002
    endloop
  endfacet
  facet normal -2.127597e-016 1.000000e+000 -1.274999e-015
    outer loop
      vertex   9.997293e-015 4.727273e+001 -1.632682e+002
      vertex   -3.798971e-014 4.727273e+001 -2.068064e+002
      vertex   -6.714992e+001 4.727273e+001 -1.956010e+002
    endloop
  endfacet
  facet normal 4.245827e-016 1.000000e+000 1.236767e-015
    outer loop
      vertex   3.000045e+001 4.727273e+001 1.604882e+002
      vertex   3.403921e+001 4.727273e+001 2.039858e+002
      vertex   9.842895e+001 4.727273e+001 1.818808e+002
    endloop
  endfacet
  facet normal 1.837495e-001 9.453556e-017 -9.829731e-001
    outer loop
      vertex   9.997293e-015 4.727273e+001 -1.632682e+002
      vertex   -2.999188e-014 1.250000e+002 -1.632682e+002
      vertex   5.897927e+001 1.250000e+002 -1.522430e+002
    endloop
  endfacet
  facet normal 5.264322e-001 0.000000e+000 -8.502171e-001
    outer loop
      vertex   5.897927e+001 4.727273e+001 -1.522430e+002
      vertex   5.897927e+001 1.250000e+002 -1.522430e+002
      vertex   1.099931e+002 1.250000e+002 -1.206566e+002
    endloop
  endfacet
  facet normal 7.980172e-001 1.075972e-016 -6.026346e-001
    outer loop
      vertex   1.099931e+002 4.727273e+001 -1.206566e+002
      vertex   1.099931e+002 1.250000e+002 -1.206566e+002
      vertex   1.461517e+002 1.250000e+002 -7.277489e+001
    endloop
  endfacet
  facet normal 9.618256e-001 4.886106e-017 -2.736630e-001
    outer loop
      vertex   1.461517e+002 4.727273e+001 -7.277489e+001
      vertex   1.461517e+002 1.250000e+002 -7.277489e+001
      vertex   1.625717e+002 1.250000e+002 -1.506449e+001
    endloop
  endfacet
  facet normal 9.957342e-001 -6.177758e-018 9.226836e-002
    outer loop
      vertex   1.625717e+002 4.727273e+001 -1.506449e+001
      vertex   1.625717e+002 1.250000e+002 -1.506449e+001
      vertex   1.570355e+002 1.250000e+002 4.468046e+001
    endloop
  endfacet
  facet normal 8.951633e-001 -0.000000e+000 4.457384e-001
    outer loop
      vertex   1.570355e+002 4.727273e+001 4.468046e+001
      vertex   1.570355e+002 1.250000e+002 4.468046e+001
      vertex   1.302908e+002 1.250000e+002 9.839106e+001
    endloop
  endfacet
  facet normal 6.736956e-001 -1.319461e-016 7.390089e-001
    outer loop
      vertex   1.302908e+002 4.727273e+001 9.839106e+001
      vertex   1.302908e+002 1.250000e+002 9.839106e+001
      vertex   8.594962e+001 1.250000e+002 1.388134e+002
    endloop
  endfacet
  facet normal 3.612417e-001 -0.000000e+000 9.324722e-001
    outer loop
      vertex   8.594962e+001 4.727273e+001 1.388134e+002
      vertex   8.594962e+001 1.250000e+002 1.388134e+002
      vertex   3.000045e+001 1.250000e+002 1.604882e+002
    endloop
  endfacet
  facet normal 4.625860e-016 -0.000000e+000 1.000000e+000
    outer loop
      vertex   3.000045e+001 4.727273e+001 1.604882e+002
      vertex   3.000045e+001 1.250000e+002 1.604882e+002
      vertex   -3.000045e+001 1.250000e+002 1.604882e+002
    endloop
  endfacet
  facet normal -3.612417e-001 0.000000e+000 9.324722e-001
    outer loop
      vertex   -3.000045e+001 4.727273e+001 1.604882e+002
      vertex   -3.000045e+001 1.250000e+002 1.604882e+002
      vertex   -8.594962e+001 1.250000e+002 1.388134e+002
    endloop
  endfacet
  facet normal -6.736956e-001 0.000000e+000 7.390089e-001
    outer loop
      vertex   -8.594962e+001 4.727273e+001 1.388134e+002
      vertex   -8.594962e+001 1.250000e+002 1.388134e+002
      vertex   -1.302908e+002 1.250000e+002 9.839106e+001
    endloop
  endfacet
  facet normal -8.951633e-001 -7.958419e-017 4.457384e-001
    outer loop
      vertex   -1.302908e+002 4.727273e+001 9.839106e+001
      vertex   -1.302908e+002 1.250000e+002 9.839106e+001
      vertex   -1.570355e+002 1.250000e+002 4.468046e+001
    endloop
  endfacet
  facet normal -9.957342e-001 0.000000e+000 9.226836e-002
    outer loop
      vertex   -1.570355e+002 4.727273e+001 4.468046e+001
      vertex   -1.570355e+002 1.250000e+002 4.468046e+001
      vertex   -1.625717e+002 1.250000e+002 -1.506449e+001
    endloop
  endfacet
  facet normal -9.618256e-001 1.832290e-017 -2.736630e-001
    outer loop
      vertex   -1.625717e+002 4.727273e+001 -1.506449e+001
      vertex   -1.625717e+002 1.250000e+002 -1.506449e+001
      vertex   -1.461517e+002 1.250000e+002 -7.277489e+001
    endloop
  endfacet
  facet normal -7.980172e-001 1.075972e-016 -6.026346e-001
    outer loop
      vertex   -1.461517e+002 4.727273e+001 -7.277489e+001
      vertex   -1.461517e+002 1.250000e+002 -7.277489e+001
      vertex   -1.099931e+002 1.250000e+002 -1.206566e+002
    endloop
  endfacet
  facet normal -5.264322e-001 1.518017e-016 -8.502171e-001
    outer loop
      vertex   -1.099931e+002 4.727273e+001 -1.206566e+002
      vertex   -1.099931e+002 1.250000e+002 -1.206566e+002
      vertex   -5.897927e+001 1.250000e+002 -1.522430e+002
    endloop
  endfacet
  facet normal -1.837495e-001 0.000000e+000 -9.829731e-001
    outer loop
      vertex   -5.897927e+001 4.727273e+001 -1.522430e+002
      vertex   -5.897927e+001 1.250000e+002 -1.522430e+002
      vertex   -2.999188e-014 1.250000e+002 -1.632682e+002
    endloop
  endfacet
  facet normal -1.837495e-001 -9.453556e-017 -9.829731e-001
    outer loop
      vertex   -2.999188e-014 1.250000e+002 -1.632682e+002
      vertex   9.997293e-015 4.727273e+001 -1.632682e+002
      vertex   -5.897927e+001 4.727273e+001 -1.522430e+002
    endloop
  endfacet
  facet normal -5.264322e-001 -0.000000e+000 -8.502171e-001
    outer loop
      vertex   -5.897927e+001 1.250000e+002 -1.522430e+002
      vertex   -5.897927e+001 4.727273e+001 -1.522430e+002
      vertex   -1.099931e+002 4.727273e+001 -1.206566e+002
    endloop
  endfacet
  facet normal -7.980172e-001 1.075972e-016 -6.026346e-001
    outer loop
      vertex   -1.099931e+002 1.250000e+002 -1.206566e+002
      vertex   -1.099931e+002 4.727273e+001 -1.206566e+002
      vertex   -1.461517e+002 4.727273e+001 -7.277489e+001
    endloop
  endfacet
  facet normal -9.618256e-001 4.886106e-017 -2.736630e-001
    outer loop
      vertex   -1.461517e+002 1.250000e+002 -7.277489e+001
      vertex   -1.461517e+002 4.727273e+001 -7.277489e+001
      vertex   -1.625717e+002 4.727273e+001 -1.506449e+001
    endloop
  endfacet
  facet normal -9.957342e-001 -6.177758e-018 9.226836e-002
    outer loop
      vertex   -1.625717e+002 1.250000e+002 -1.506449e+001
      vertex   -1.625717e+002 4.727273e+001 -1.506449e+001
      vertex   -1.570355e+002 4.727273e+001 4.468046e+001
    endloop
  endfacet
  facet normal -8.951633e-001 0.000000e+000 4.457384e-001
    outer loop
      vertex   -1.570355e+002 1.250000e+002 4.468046e+001
      vertex   -1.570355e+002 4.727273e+001 4.468046e+001
      vertex   -1.302908e+002 4.727273e+001 9.839106e+001
    endloop
  endfacet
  facet normal -6.736956e-001 -1.319461e-016 7.390089e-001
    outer loop
      vertex   -1.302908e+002 1.250000e+002 9.839106e+001
      vertex   -1.302908e+002 4.727273e+001 9.839106e+001
      vertex   -8.594962e+001 4.727273e+001 1.388134e+002
    endloop
  endfacet
  facet normal -3.612417e-001 0.000000e+000 9.324722e-001
    outer loop
      vertex   -8.594962e+001 1.250000e+002 1.388134e+002
      vertex   -8.594962e+001 4.727273e+001 1.388134e+002
      vertex   -3.000045e+001 4.727273e+001 1.604882e+002
    endloop
  endfacet
  facet normal 4.625860e-016 0.000000e+000 1.000000e+000
    outer loop
      vertex   -3.000045e+001 1.250000e+002 1.604882e+002
      vertex   -3.000045e+001 4.727273e+001 1.604882e+002
      vertex   3.000045e+001 4.727273e+001 1.604882e+002
    endloop
  endfacet
  facet normal 3.612417e-001 0.000000e+000 9.324722e-001
    outer loop
      vertex   3.000045e+001 1.250000e+002 1.604882e+002
      vertex   3.000045e+001 4.727273e+001 1.604882e+002
      vertex   8.594962e+001 4.727273e+001 1.388134e+002
    endloop
  endfacet
  facet normal 6.736956e-001 0.000000e+000 7.390089e-001
    outer loop
      vertex   8.594962e+001 1.250000e+002 1.388134e+002
      vertex   8.594962e+001 4.727273e+001 1.388134e+002
      vertex   1.302908e+002 4.727273e+001 9.839106e+001
    endloop
  endfacet
  facet normal 8.951633e-001 -7.958419e-017 4.457384e-001
    outer loop
      vertex   1.302908e+002 1.250000e+002 9.839106e+001
      vertex   1.302908e+002 4.727273e+001 9.839106e+001
      vertex   1.570355e+002 4.727273e+001 4.468046e+001
    endloop
  endfacet
  facet normal 9.957342e-001 0.000000e+000 9.226836e-002
    outer loop
      vertex   1.570355e+002 1.250000e+002 4.468046e+001
      vertex   1.570355e+002 4.727273e+001 4.468046e+001
      vertex   1.625717e+002 4.727273e+001 -1.506449e+001
    endloop
  endfacet
  facet normal 9.618256e-001 1.832290e-017 -2.736630e-001
    outer loop
      vertex   1.625717e+002 1.250000e+002 -1.506449e+001
      vertex   1.625717e+002 4.727273e+001 -1.506449e+001
      vertex   1.461517e+002 4.727273e+001 -7.277489e+001
    endloop
  endfacet
  facet normal 7.980172e-001 1.075972e-016 -6.026346e-001
    outer loop
      vertex   1.461517e+002 1.250000e+002 -7.277489e+001
      vertex   1.461517e+002 4.727273e+001 -7.277489e+001
      vertex   1.099931e+002 4.727273e+001 -1.206566e+002
    endloop
  endfacet
  facet normal 5.264322e-001 1.518017e-016 -8.502171e-001
    outer loop
      vertex   1.099931e+002 1.250000e+002 -1.206566e+002
      vertex   1.099931e+002 4.727273e+001 -1.206566e+002
      vertex   5.897927e+001 4.727273e+001 -1.522430e+002
    endloop
  endfacet
  facet normal 1.837495e-001 0.000000e+000 -9.829731e-001
    outer loop
      vertex   5.897927e+001 1.250000e+002 -1.522430e+002
      vertex   5.897927e+001 4.727273e+001 -1.522430e+002
      vertex   9.997293e-015 4.727273e+001 -1.632682e+002
    endloop
  endfacet
  facet normal 0.000000e+000 1.000000e+000 0.000000e+000
    outer loop
      vertex   5.897927e+001 1.250000e+002 -1.522430e+002
      vertex   -2.999188e-014 1.250000e+002 -1.632682e+002
      vertex   -1.592041e-014 1.250000e+002 -6.500000e+001
    endloop
  endfacet
  facet normal 0.000000e+000 1.000000e+000 0.000000e+000
    outer loop
      vertex   -5.897927e+001 1.250000e+002 -1.522430e+002
      vertex   -3.514165e+001 1.250000e+002 -5.468148e+001
      vertex   -1.592041e-014 1.250000e+002 -6.500000e+001
    endloop
  endfacet
  facet normal 0.000000e+000 1.000000e+000 0.000000e+000
    outer loop
      vertex   3.514165e+001 1.250000e+002 -5.468148e+001
      vertex   1.099931e+002 1.250000e+002 -1.206566e+002
      vertex   5.897927e+001 1.250000e+002 -1.522430e+002
    endloop
  endfacet
  facet normal 0.000000e+000 1.000000e+000 0.000000e+000
    outer loop
      vertex   -1.592041e-014 1.250000e+002 -6.500000e+001
      vertex   -2.999188e-014 1.250000e+002 -1.632682e+002
      vertex   -5.897927e+001 1.250000e+002 -1.522430e+002
    endloop
  endfacet
  facet normal 0.000000e+000 1.000000e+000 0.000000e+000
    outer loop
      vertex   1.625717e+002 1.250000e+002 -1.506449e+001
      vertex   6.500000e+001 1.250000e+002 -3.980102e-015
      vertex   6.433839e+001 1.250000e+002 9.250465e+000
    endloop
  endfacet
  facet normal 0.000000e+000 1.000000e+000 0.000000e+000
    outer loop
      vertex   1.625717e+002 1.250000e+002 -1.506449e+001
      vertex   1.461517e+002 1.250000e+002 -7.277489e+001
      vertex   5.912608e+001 1.250000e+002 -2.700198e+001
    endloop
  endfacet
  facet normal 0.000000e+000 1.000000e+000 -0.000000e+000
    outer loop
      vertex   -5.897927e+001 1.250000e+002 -1.522430e+002
      vertex   -1.099931e+002 1.250000e+002 -1.206566e+002
      vertex   -3.514165e+001 1.250000e+002 -5.468148e+001
    endloop
  endfacet
  facet normal 0.000000e+000 1.000000e+000 -0.000000e+000
    outer loop
      vertex   -1.099931e+002 1.250000e+002 -1.206566e+002
      vertex   -1.461517e+002 1.250000e+002 -7.277489e+001
      vertex   -5.912608e+001 1.250000e+002 -2.700198e+001
    endloop
  endfacet
  facet normal -0.000000e+000 1.000000e+000 0.000000e+000
    outer loop
      vertex   -1.625717e+002 1.250000e+002 -1.506449e+001
      vertex   -6.433839e+001 1.250000e+002 9.250465e+000
      vertex   -5.912608e+001 1.250000e+002 -2.700198e+001
    endloop
  endfacet
  facet normal 0.000000e+000 1.000000e+000 0.000000e+000
    outer loop
      vertex   -8.594962e+001 1.250000e+002 1.388134e+002
      vertex   -1.831262e+001 1.250000e+002 6.236704e+001
      vertex   -4.912372e+001 1.250000e+002 4.256595e+001
    endloop
  endfacet
  facet normal 0.000000e+000 1.000000e+000 0.000000e+000
    outer loop
      vertex   1.570355e+002 1.250000e+002 4.468046e+001
      vertex   6.433839e+001 1.250000e+002 9.250465e+000
      vertex   4.912372e+001 1.250000e+002 4.256595e+001
    endloop
  endfacet
  facet normal 0.000000e+000 1.000000e+000 0.000000e+000
    outer loop
      vertex   5.912608e+001 1.250000e+002 -2.700198e+001
      vertex   6.500000e+001 1.250000e+002 -3.980102e-015
      vertex   1.625717e+002 1.250000e+002 -1.506449e+001
    endloop
  endfacet
  facet normal 0.000000e+000 1.000000e+000 0.000000e+000
    outer loop
      vertex   -5.912608e+001 1.250000e+002 -2.700198e+001
      vertex   -3.514165e+001 1.250000e+002 -5.468148e+001
      vertex   -1.099931e+002 1.250000e+002 -1.206566e+002
    endloop
  endfacet
  facet normal 0.000000e+000 1.000000e+000 0.000000e+000
    outer loop
      vertex   -5.912608e+001 1.250000e+002 -2.700198e+001
      vertex   -1.461517e+002 1.250000e+002 -7.277489e+001
      vertex   -1.625717e+002 1.250000e+002 -1.506449e+001
    endloop
  endfacet
  facet normal -0.000000e+000 1.000000e+000 0.000000e+000
    outer loop
      vertex   -1.570355e+002 1.250000e+002 4.468046e+001
      vertex   -1.302908e+002 1.250000e+002 9.839106e+001
      vertex   -4.912372e+001 1.250000e+002 4.256595e+001
    endloop
  endfacet
  facet normal 0.000000e+000 1.000000e+000 0.000000e+000
    outer loop
      vertex   -4.912372e+001 1.250000e+002 4.256595e+001
      vertex   -1.302908e+002 1.250000e+002 9.839106e+001
      vertex   -8.594962e+001 1.250000e+002 1.388134e+002
    endloop
  endfacet
  facet normal 0.000000e+000 1.000000e+000 0.000000e+000
    outer loop
      vertex   8.594962e+001 1.250000e+002 1.388134e+002
      vertex   1.302908e+002 1.250000e+002 9.839106e+001
      vertex   4.912372e+001 1.250000e+002 4.256595e+001
    endloop
  endfacet
  facet normal -0.000000e+000 1.000000e+000 0.000000e+000
    outer loop
      vertex   6.433839e+001 1.250000e+002 9.250465e+000
      vertex   1.570355e+002 1.250000e+002 4.468046e+001
      vertex   1.625717e+002 1.250000e+002 -1.506449e+001
    endloop
  endfacet
  facet normal 0.000000e+000 1.000000e+000 0.000000e+000
    outer loop
      vertex   1.099931e+002 1.250000e+002 -1.206566e+002
      vertex   3.514165e+001 1.250000e+002 -5.468148e+001
      vertex   5.912608e+001 1.250000e+002 -2.700198e+001
    endloop
  endfacet
  facet normal 0.000000e+000 1.000000e+000 0.000000e+000
    outer loop
      vertex   -1.625717e+002 1.250000e+002 -1.506449e+001
      vertex   -1.570355e+002 1.250000e+002 4.468046e+001
      vertex   -6.433839e+001 1.250000e+002 9.250465e+000
    endloop
  endfacet
  facet normal -0.000000e+000 1.000000e+000 0.000000e+000
    outer loop
      vertex   -8.594962e+001 1.250000e+002 1.388134e+002
      vertex   -3.000045e+001 1.250000e+002 1.604882e+002
      vertex   -1.831262e+001 1.250000e+002 6.236704e+001
    endloop
  endfacet
  facet normal 0.000000e+000 1.000000e+000 0.000000e+000
    outer loop
      vertex   1.831262e+001 1.250000e+002 6.236704e+001
      vertex   3.000045e+001 1.250000e+002 1.604882e+002
      vertex   8.594962e+001 1.250000e+002 1.388134e+002
    endloop
  endfacet
  facet normal 0.000000e+000 1.000000e+000 0.000000e+000
    outer loop
      vertex   5.912608e+001 1.250000e+002 -2.700198e+001
      vertex   1.461517e+002 1.250000e+002 -7.277489e+001
      vertex   1.099931e+002 1.250000e+002 -1.206566e+002
    endloop
  endfacet
  facet normal 0.000000e+000 1.000000e+000 0.000000e+000
    outer loop
      vertex   -4.912372e+001 1.250000e+002 4.256595e+001
      vertex   -6.433839e+001 1.250000e+002 9.250465e+000
      vertex   -1.570355e+002 1.250000e+002 4.468046e+001
    endloop
  endfacet
  facet normal 0.000000e+000 1.000000e+000 0.000000e+000
    outer loop
      vertex   3.000045e+001 1.250000e+002 1.604882e+002
      vertex   1.831262e+001 1.250000e+002 6.236704e+001
      vertex   -1.831262e+001 1.250000e+002 6.236704e+001
    endloop
  endfacet
  facet normal 0.000000e+000 1.000000e+000 0.000000e+000
    outer loop
      vertex   4.912372e+001 1.250000e+002 4.256595e+001
      vertex   1.302908e+002 1.250000e+002 9.839106e+001
      vertex   1.570355e+002 1.250000e+002 4.468046e+001
    endloop
  endfacet
  facet normal 0.000000e+000 1.000000e+000 -0.000000e+000
    outer loop
      vertex   -1.831262e+001 1.250000e+002 6.236704e+001
      vertex   -3.000045e+001 1.250000e+002 1.604882e+002
      vertex   3.000045e+001 1.250000e+002 1.604882e+002
    endloop
  endfacet
  facet normal -0.000000e+000 1.000000e+000 0.000000e+000
    outer loop
      vertex   -1.592041e-014 1.250000e+002 -6.500000e+001
      vertex   3.514165e+001 1.250000e+002 -5.468148e+001
      vertex   5.897927e+001 1.250000e+002 -1.522430e+002
    endloop
  endfacet
  facet normal 0.000000e+000 1.000000e+000 -0.000000e+000
    outer loop
      vertex   4.912372e+001 1.250000e+002 4.256595e+001
      vertex   1.831262e+001 1.250000e+002 6.236704e+001
      vertex   8.594962e+001 1.250000e+002 1.388134e+002
    endloop
  endfacet
  facet normal 2.817326e-001 0.000000e+000 9.594930e-001
    outer loop
      vertex   -3.514165e+001 -1.250000e+002 -5.468148e+001
      vertex   -1.592041e-014 -1.250000e+002 -6.500000e+001
      vertex   -1.592041e-014 1.250000e+002 -6.500000e+001
    endloop
  endfacet
  facet normal 7.557496e-001 0.000000e+000 6.548607e-001
    outer loop
      vertex   -5.912608e+001 -1.250000e+002 -2.700198e+001
      vertex   -3.514165e+001 -1.250000e+002 -5.468148e+001
      vertex   -3.514165e+001 1.250000e+002 -5.468148e+001
    endloop
  endfacet
  facet normal 9.898214e-001 0.000000e+000 1.423148e-001
    outer loop
      vertex   -6.433839e+001 -1.250000e+002 9.250465e+000
      vertex   -5.912608e+001 -1.250000e+002 -2.700198e+001
      vertex   -5.912608e+001 1.250000e+002 -2.700198e+001
    endloop
  endfacet
  facet normal 9.096320e-001 0.000000e+000 -4.154150e-001
    outer loop
      vertex   -4.912372e+001 -1.250000e+002 4.256595e+001
      vertex   -6.433839e+001 -1.250000e+002 9.250465e+000
      vertex   -6.433839e+001 1.250000e+002 9.250465e+000
    endloop
  endfacet
  facet normal 5.406408e-001 0.000000e+000 -8.412535e-001
    outer loop
      vertex   -1.831262e+001 -1.250000e+002 6.236704e+001
      vertex   -4.912372e+001 -1.250000e+002 4.256595e+001
      vertex   -4.912372e+001 1.250000e+002 4.256595e+001
    endloop
  endfacet
  facet normal -3.789133e-016 0.000000e+000 -1.000000e+000
    outer loop
      vertex   1.831262e+001 -1.250000e+002 6.236704e+001
      vertex   -1.831262e+001 -1.250000e+002 6.236704e+001
      vertex   -1.831262e+001 1.250000e+002 6.236704e+001
    endloop
  endfacet
  facet normal -5.406408e-001 0.000000e+000 -8.412535e-001
    outer loop
      vertex   4.912372e+001 -1.250000e+002 4.256595e+001
      vertex   1.831262e+001 -1.250000e+002 6.236704e+001
      vertex   1.831262e+001 1.250000e+002 6.236704e+001
    endloop
  endfacet
  facet normal -9.096320e-001 0.000000e+000 -4.154150e-001
    outer loop
      vertex   6.433839e+001 -1.250000e+002 9.250465e+000
      vertex   4.912372e+001 -1.250000e+002 4.256595e+001
      vertex   4.912372e+001 1.250000e+002 4.256595e+001
    endloop
  endfacet
  facet normal -9.974521e-001 4.383995e-018 -7.133918e-002
    outer loop
      vertex   6.433839e+001 1.250000e+002 9.250465e+000
      vertex   6.500000e+001 1.250000e+002 -3.980102e-015
      vertex   6.500000e+001 -1.250000e+002 -1.990051e-014
    endloop
  endfacet
  facet normal -9.771469e-001 0.000000e+000 2.125653e-001
    outer loop
      vertex   5.912608e+001 1.250000e+002 -2.700198e+001
      vertex   5.912608e+001 -1.250000e+002 -2.700198e+001
      vertex   6.500000e+001 -1.250000e+002 -1.990051e-014
    endloop
  endfacet
  facet normal -9.771469e-001 -1.353650e-017 2.125653e-001
    outer loop
      vertex   6.500000e+001 -1.250000e+002 -1.990051e-014
      vertex   6.500000e+001 1.250000e+002 -3.980102e-015
      vertex   5.912608e+001 1.250000e+002 -2.700198e+001
    endloop
  endfacet
  facet normal -7.557496e-001 0.000000e+000 6.548607e-001
    outer loop
      vertex   3.514165e+001 -1.250000e+002 -5.468148e+001
      vertex   5.912608e+001 -1.250000e+002 -2.700198e+001
      vertex   5.912608e+001 1.250000e+002 -2.700198e+001
    endloop
  endfacet
  facet normal -2.817326e-001 0.000000e+000 9.594930e-001
    outer loop
      vertex   -1.592041e-014 -1.250000e+002 -6.500000e+001
      vertex   3.514165e+001 -1.250000e+002 -5.468148e+001
      vertex   3.514165e+001 1.250000e+002 -5.468148e+001
    endloop
  endfacet
  facet normal -2.817326e-001 0.000000e+000 9.594930e-001
    outer loop
      vertex   3.514165e+001 1.250000e+002 -5.468148e+001
      vertex   -1.592041e-014 1.250000e+002 -6.500000e+001
      vertex   -1.592041e-014 -1.250000e+002 -6.500000e+001
    endloop
  endfacet
  facet normal -7.557496e-001 0.000000e+000 6.548607e-001
    outer loop
      vertex   5.912608e+001 1.250000e+002 -2.700198e+001
      vertex   3.514165e+001 1.250000e+002 -5.468148e+001
      vertex   3.514165e+001 -1.250000e+002 -5.468148e+001
    endloop
  endfacet
  facet normal -9.974521e-001 0.000000e+000 -7.133918e-002
    outer loop
      vertex   6.500000e+001 -1.250000e+002 -1.990051e-014
      vertex   6.433839e+001 -1.250000e+002 9.250465e+000
      vertex   6.433839e+001 1.250000e+002 9.250465e+000
    endloop
  endfacet
  facet normal -9.096320e-001 0.000000e+000 -4.154150e-001
    outer loop
      vertex   4.912372e+001 1.250000e+002 4.256595e+001
      vertex   6.433839e+001 1.250000e+002 9.250465e+000
      vertex   6.433839e+001 -1.250000e+002 9.250465e+000
    endloop
  endfacet
  facet normal -5.406408e-001 0.000000e+000 -8.412535e-001
    outer loop
      vertex   1.831262e+001 1.250000e+002 6.236704e+001
      vertex   4.912372e+001 1.250000e+002 4.256595e+001
      vertex   4.912372e+001 -1.250000e+002 4.256595e+001
    endloop
  endfacet
  facet normal -3.789133e-016 0.000000e+000 -1.000000e+000
    outer loop
      vertex   -1.831262e+001 1.250000e+002 6.236704e+001
      vertex   1.831262e+001 1.250000e+002 6.236704e+001
      vertex   1.831262e+001 -1.250000e+002 6.236704e+001
    endloop
  endfacet
  facet normal 5.406408e-001 0.000000e+000 -8.412535e-001
    outer loop
      vertex   -4.912372e+001 1.250000e+002 4.256595e+001
      vertex   -1.831262e+001 1.250000e+002 6.236704e+001
      vertex   -1.831262e+001 -1.250000e+002 6.236704e+001
    endloop
  endfacet
  facet normal 9.096320e-001 0.000000e+000 -4.154150e-001
    outer loop
      vertex   -6.433839e+001 1.250000e+002 9.250465e+000
      vertex   -4.912372e+001 1.250000e+002 4.256595e+001
      vertex   -4.912372e+001 -1.250000e+002 4.256595e+001
    endloop
  endfacet
  facet normal 9.898214e-001 0.000000e+000 1.423148e-001
    outer loop
      vertex   -5.912608e+001 1.250000e+002 -2.700198e+001
      vertex   -6.433839e+001 1.250000e+002 9.250465e+000
      vertex   -6.433839e+001 -1.250000e+002 9.250465e+000
    endloop
  endfacet
  facet normal 7.557496e-001 0.000000e+000 6.548607e-001
    outer loop
      vertex   -3.514165e+001 1.250000e+002 -5.468148e+001
      vertex   -5.912608e+001 1.250000e+002 -2.700198e+001
      vertex   -5.912608e+001 -1.250000e+002 -2.700198e+001
    endloop
  endfacet
  facet normal 2.817326e-001 0.000000e+000 9.594930e-001
    outer loop
      vertex   -1.592041e-014 1.250000e+002 -6.500000e+001
      vertex   -3.514165e+001 1.250000e+002 -5.468148e+001
      vertex   -3.514165e+001 -1.250000e+002 -5.468148e+001
    endloop
  endfacet
endsolid
