solid Mortero
  facet normal 1.000000e+000 0.000000e+000 0.000000e+000
    outer loop
      vertex   2.113889e+003 -4.861944e+003 7.750926e+002
      vertex   2.113889e+003 -4.861944e+003 -7.750926e+002
      vertex   2.113889e+003 -1.056944e+003 -7.750926e+002
    endloop
  endfacet
  facet normal 1.000000e+000 0.000000e+000 -0.000000e+000
    outer loop
      vertex   2.113889e+003 -1.056944e+003 -7.750926e+002
      vertex   2.113889e+003 -1.056944e+003 7.750926e+002
      vertex   2.113889e+003 -4.861944e+003 7.750926e+002
    endloop
  endfacet
  facet normal 0.000000e+000 -8.753401e-017 1.000000e+000
    outer loop
      vertex   2.113889e+003 -1.056944e+003 7.750926e+002
      vertex   1.268333e+003 -1.056944e+003 7.750926e+002
      vertex   1.268333e+003 -4.861944e+003 7.750926e+002
    endloop
  endfacet
  facet normal 2.626020e-016 -1.458900e-016 1.000000e+000
    outer loop
      vertex   1.268333e+003 -4.861944e+003 7.750926e+002
      vertex   2.113889e+003 -4.861944e+003 7.750926e+002
      vertex   2.113889e+003 -1.056944e+003 7.750926e+002
    endloop
  endfacet
  facet normal 0.000000e+000 1.000000e+000 0.000000e+000
    outer loop
      vertex   2.113889e+003 -1.056944e+003 -7.750926e+002
      vertex   1.268333e+003 -1.056944e+003 -7.750926e+002
      vertex   1.268333e+003 -1.056944e+003 7.750926e+002
    endloop
  endfacet
  facet normal -0.000000e+000 1.000000e+000 0.000000e+000
    outer loop
      vertex   1.268333e+003 -1.056944e+003 7.750926e+002
      vertex   2.113889e+003 -1.056944e+003 7.750926e+002
      vertex   2.113889e+003 -1.056944e+003 -7.750926e+002
    endloop
  endfacet
  facet normal -1.313010e-016 5.835601e-017 -1.000000e+000
    outer loop
      vertex   2.113889e+003 -4.861944e+003 -7.750926e+002
      vertex   1.268333e+003 -4.861944e+003 -7.750926e+002
      vertex   1.268333e+003 -1.056944e+003 -7.750926e+002
    endloop
  endfacet
  facet normal 0.000000e+000 8.753401e-017 -1.000000e+000
    outer loop
      vertex   1.268333e+003 -1.056944e+003 -7.750926e+002
      vertex   2.113889e+003 -1.056944e+003 -7.750926e+002
      vertex   2.113889e+003 -4.861944e+003 -7.750926e+002
    endloop
  endfacet
  facet normal 1.000000e+000 0.000000e+000 0.000000e+000
    outer loop
      vertex   1.268333e+003 -4.861944e+003 -1.197870e+003
      vertex   1.268333e+003 6.341667e+002 -1.197870e+003
      vertex   1.268333e+003 -1.056944e+003 -7.750926e+002
    endloop
  endfacet
  facet normal 1.000000e+000 0.000000e+000 -0.000000e+000
    outer loop
      vertex   1.268333e+003 6.341667e+002 -1.197870e+003
      vertex   1.268333e+003 6.341667e+002 1.197870e+003
      vertex   1.268333e+003 -1.056944e+003 7.750926e+002
    endloop
  endfacet
  facet normal 1.000000e+000 0.000000e+000 0.000000e+000
    outer loop
      vertex   1.268333e+003 -1.056944e+003 7.750926e+002
      vertex   1.268333e+003 -1.056944e+003 -7.750926e+002
      vertex   1.268333e+003 6.341667e+002 -1.197870e+003
    endloop
  endfacet
  facet normal 1.000000e+000 0.000000e+000 0.000000e+000
    outer loop
      vertex   1.268333e+003 -4.861944e+003 1.197870e+003
      vertex   1.268333e+003 -4.861944e+003 7.750926e+002
      vertex   1.268333e+003 -1.056944e+003 7.750926e+002
    endloop
  endfacet
  facet normal 1.000000e+000 0.000000e+000 -0.000000e+000
    outer loop
      vertex   1.268333e+003 -1.056944e+003 7.750926e+002
      vertex   1.268333e+003 6.341667e+002 1.197870e+003
      vertex   1.268333e+003 -4.861944e+003 1.197870e+003
    endloop
  endfacet
  facet normal 1.000000e+000 0.000000e+000 0.000000e+000
    outer loop
      vertex   1.268333e+003 -1.056944e+003 -7.750926e+002
      vertex   1.268333e+003 -4.861944e+003 -7.750926e+002
      vertex   1.268333e+003 -4.861944e+003 -1.197870e+003
    endloop
  endfacet
  facet normal 0.000000e+000 -8.080062e-017 1.000000e+000
    outer loop
      vertex   1.268333e+003 6.341667e+002 1.197870e+003
      vertex   5.637037e+002 6.341667e+002 1.197870e+003
      vertex   5.637037e+002 -4.861944e+003 1.197870e+003
    endloop
  endfacet
  facet normal 3.151224e-016 -1.212009e-016 1.000000e+000
    outer loop
      vertex   5.637037e+002 -4.861944e+003 1.197870e+003
      vertex   1.268333e+003 -4.861944e+003 1.197870e+003
      vertex   1.268333e+003 6.341667e+002 1.197870e+003
    endloop
  endfacet
  facet normal 0.000000e+000 1.000000e+000 0.000000e+000
    outer loop
      vertex   1.268333e+003 6.341667e+002 -1.197870e+003
      vertex   5.637037e+002 6.341667e+002 -1.197870e+003
      vertex   5.637037e+002 6.341667e+002 1.197870e+003
    endloop
  endfacet
  facet normal -0.000000e+000 1.000000e+000 0.000000e+000
    outer loop
      vertex   5.637037e+002 6.341667e+002 1.197870e+003
      vertex   1.268333e+003 6.341667e+002 1.197870e+003
      vertex   1.268333e+003 6.341667e+002 -1.197870e+003
    endloop
  endfacet
  facet normal -3.151224e-016 1.212009e-016 -1.000000e+000
    outer loop
      vertex   1.268333e+003 -4.861944e+003 -1.197870e+003
      vertex   5.637037e+002 -4.861944e+003 -1.197870e+003
      vertex   5.637037e+002 6.341667e+002 -1.197870e+003
    endloop
  endfacet
  facet normal 0.000000e+000 1.616012e-016 -1.000000e+000
    outer loop
      vertex   5.637037e+002 6.341667e+002 -1.197870e+003
      vertex   1.268333e+003 6.341667e+002 -1.197870e+003
      vertex   1.268333e+003 -4.861944e+003 -1.197870e+003
    endloop
  endfacet
  facet normal 0.000000e+000 -1.000000e+000 0.000000e+000
    outer loop
      vertex   2.818519e+002 -4.861944e+003 1.761574e+003
      vertex   1.268333e+003 -4.861944e+003 -7.750926e+002
      vertex   5.637037e+002 -4.861944e+003 1.197870e+003
    endloop
  endfacet
  facet normal 0.000000e+000 -1.000000e+000 0.000000e+000
    outer loop
      vertex   5.637037e+002 -4.861944e+003 1.197870e+003
      vertex   1.268333e+003 -4.861944e+003 -7.750926e+002
      vertex   1.268333e+003 -4.861944e+003 7.750926e+002
    endloop
  endfacet
  facet normal 0.000000e+000 -1.000000e+000 0.000000e+000
    outer loop
      vertex   1.268333e+003 -4.861944e+003 7.750926e+002
      vertex   1.268333e+003 -4.861944e+003 1.197870e+003
      vertex   5.637037e+002 -4.861944e+003 1.197870e+003
    endloop
  endfacet
  facet normal -0.000000e+000 -1.000000e+000 0.000000e+000
    outer loop
      vertex   2.113889e+003 -4.861944e+003 7.750926e+002
      vertex   1.268333e+003 -4.861944e+003 7.750926e+002
      vertex   1.268333e+003 -4.861944e+003 -7.750926e+002
    endloop
  endfacet
  facet normal 0.000000e+000 -1.000000e+000 0.000000e+000
    outer loop
      vertex   1.268333e+003 -4.861944e+003 -7.750926e+002
      vertex   2.113889e+003 -4.861944e+003 -7.750926e+002
      vertex   2.113889e+003 -4.861944e+003 7.750926e+002
    endloop
  endfacet
  facet normal 0.000000e+000 -1.000000e+000 0.000000e+000
    outer loop
      vertex   5.637037e+002 -4.861944e+003 -1.197870e+003
      vertex   1.268333e+003 -4.861944e+003 -1.197870e+003
      vertex   1.268333e+003 -4.861944e+003 -7.750926e+002
    endloop
  endfacet
  facet normal -0.000000e+000 -1.000000e+000 0.000000e+000
    outer loop
      vertex   1.268333e+003 -4.861944e+003 -7.750926e+002
      vertex   2.818519e+002 -4.861944e+003 1.761574e+003
      vertex   5.637037e+002 -4.861944e+003 -1.197870e+003
    endloop
  endfacet
  facet normal 0.000000e+000 -1.000000e+000 0.000000e+000
    outer loop
      vertex   2.818519e+002 -4.861944e+003 -1.761574e+003
      vertex   5.637037e+002 -4.861944e+003 -1.761574e+003
      vertex   5.637037e+002 -4.861944e+003 -1.197870e+003
    endloop
  endfacet
  facet normal -0.000000e+000 -1.000000e+000 0.000000e+000
    outer loop
      vertex   5.637037e+002 -4.861944e+003 -1.197870e+003
      vertex   2.818519e+002 -4.861944e+003 1.761574e+003
      vertex   2.818519e+002 -4.861944e+003 -1.761574e+003
    endloop
  endfacet
  facet normal 0.000000e+000 -1.000000e+000 0.000000e+000
    outer loop
      vertex   5.637037e+002 -4.861944e+003 1.197870e+003
      vertex   5.637037e+002 -4.861944e+003 1.761574e+003
      vertex   2.818519e+002 -4.861944e+003 1.761574e+003
    endloop
  endfacet
  facet normal 1.000000e+000 0.000000e+000 0.000000e+000
    outer loop
      vertex   5.637037e+002 -4.861944e+003 -1.761574e+003
      vertex   5.637037e+002 4.298241e+003 -1.761574e+003
      vertex   5.637037e+002 6.341667e+002 -1.197870e+003
    endloop
  endfacet
  facet normal 1.000000e+000 0.000000e+000 -0.000000e+000
    outer loop
      vertex   5.637037e+002 4.298241e+003 -1.761574e+003
      vertex   5.637037e+002 4.298241e+003 1.761574e+003
      vertex   5.637037e+002 6.341667e+002 1.197870e+003
    endloop
  endfacet
  facet normal 1.000000e+000 0.000000e+000 0.000000e+000
    outer loop
      vertex   5.637037e+002 6.341667e+002 1.197870e+003
      vertex   5.637037e+002 6.341667e+002 -1.197870e+003
      vertex   5.637037e+002 4.298241e+003 -1.761574e+003
    endloop
  endfacet
  facet normal 1.000000e+000 0.000000e+000 0.000000e+000
    outer loop
      vertex   5.637037e+002 -4.861944e+003 1.761574e+003
      vertex   5.637037e+002 -4.861944e+003 1.197870e+003
      vertex   5.637037e+002 6.341667e+002 1.197870e+003
    endloop
  endfacet
  facet normal 1.000000e+000 0.000000e+000 -0.000000e+000
    outer loop
      vertex   5.637037e+002 6.341667e+002 1.197870e+003
      vertex   5.637037e+002 4.298241e+003 1.761574e+003
      vertex   5.637037e+002 -4.861944e+003 1.761574e+003
    endloop
  endfacet
  facet normal 1.000000e+000 0.000000e+000 0.000000e+000
    outer loop
      vertex   5.637037e+002 6.341667e+002 -1.197870e+003
      vertex   5.637037e+002 -4.861944e+003 -1.197870e+003
      vertex   5.637037e+002 -4.861944e+003 -1.761574e+003
    endloop
  endfacet
  facet normal 0.000000e+000 -1.212009e-016 1.000000e+000
    outer loop
      vertex   5.637037e+002 4.298241e+003 1.761574e+003
      vertex   2.818519e+002 4.298241e+003 1.761574e+003
      vertex   2.818519e+002 -4.861944e+003 1.761574e+003
    endloop
  endfacet
  facet normal 0.000000e+000 -1.212009e-016 1.000000e+000
    outer loop
      vertex   2.818519e+002 -4.861944e+003 1.761574e+003
      vertex   5.637037e+002 -4.861944e+003 1.761574e+003
      vertex   5.637037e+002 4.298241e+003 1.761574e+003
    endloop
  endfacet
  facet normal 0.000000e+000 1.000000e+000 0.000000e+000
    outer loop
      vertex   5.637037e+002 4.298241e+003 -1.761574e+003
      vertex   2.818519e+002 4.298241e+003 -1.761574e+003
      vertex   2.818519e+002 4.298241e+003 1.761574e+003
    endloop
  endfacet
  facet normal -0.000000e+000 1.000000e+000 0.000000e+000
    outer loop
      vertex   2.818519e+002 4.298241e+003 1.761574e+003
      vertex   5.637037e+002 4.298241e+003 1.761574e+003
      vertex   5.637037e+002 4.298241e+003 -1.761574e+003
    endloop
  endfacet
  facet normal 0.000000e+000 1.212009e-016 -1.000000e+000
    outer loop
      vertex   5.637037e+002 -4.861944e+003 -1.761574e+003
      vertex   2.818519e+002 -4.861944e+003 -1.761574e+003
      vertex   2.818519e+002 4.298241e+003 -1.761574e+003
    endloop
  endfacet
  facet normal 0.000000e+000 1.212009e-016 -1.000000e+000
    outer loop
      vertex   2.818519e+002 4.298241e+003 -1.761574e+003
      vertex   5.637037e+002 4.298241e+003 -1.761574e+003
      vertex   5.637037e+002 -4.861944e+003 -1.761574e+003
    endloop
  endfacet
  facet normal 1.000000e+000 0.000000e+000 -0.000000e+000
    outer loop
      vertex   2.818519e+002 5.284722e+003 -2.360509e+003
      vertex   2.818519e+002 5.284722e+003 2.360509e+003
      vertex   2.818519e+002 4.298241e+003 1.761574e+003
    endloop
  endfacet
  facet normal 1.000000e+000 0.000000e+000 0.000000e+000
    outer loop
      vertex   2.818519e+002 -5.284722e+003 2.360509e+003
      vertex   2.818519e+002 -4.861944e+003 1.761574e+003
      vertex   2.818519e+002 4.298241e+003 1.761574e+003
    endloop
  endfacet
  facet normal 1.000000e+000 0.000000e+000 -0.000000e+000
    outer loop
      vertex   2.818519e+002 4.298241e+003 1.761574e+003
      vertex   2.818519e+002 5.284722e+003 2.360509e+003
      vertex   2.818519e+002 -5.284722e+003 2.360509e+003
    endloop
  endfacet
  facet normal 1.000000e+000 0.000000e+000 0.000000e+000
    outer loop
      vertex   2.818519e+002 -5.284722e+003 -2.360509e+003
      vertex   2.818519e+002 -4.861944e+003 -1.761574e+003
      vertex   2.818519e+002 -4.861944e+003 1.761574e+003
    endloop
  endfacet
  facet normal 1.000000e+000 0.000000e+000 0.000000e+000
    outer loop
      vertex   2.818519e+002 -4.861944e+003 1.761574e+003
      vertex   2.818519e+002 -5.284722e+003 2.360509e+003
      vertex   2.818519e+002 -5.284722e+003 -2.360509e+003
    endloop
  endfacet
  facet normal 1.000000e+000 0.000000e+000 0.000000e+000
    outer loop
      vertex   2.818519e+002 -5.284722e+003 -2.360509e+003
      vertex   2.818519e+002 5.284722e+003 -2.360509e+003
      vertex   2.818519e+002 4.298241e+003 -1.761574e+003
    endloop
  endfacet
  facet normal 1.000000e+000 0.000000e+000 0.000000e+000
    outer loop
      vertex   2.818519e+002 4.298241e+003 -1.761574e+003
      vertex   2.818519e+002 -4.861944e+003 -1.761574e+003
      vertex   2.818519e+002 -5.284722e+003 -2.360509e+003
    endloop
  endfacet
  facet normal 1.000000e+000 0.000000e+000 0.000000e+000
    outer loop
      vertex   2.818519e+002 4.298241e+003 1.761574e+003
      vertex   2.818519e+002 4.298241e+003 -1.761574e+003
      vertex   2.818519e+002 5.284722e+003 -2.360509e+003
    endloop
  endfacet
  facet normal -0.000000e+000 -1.000000e+000 0.000000e+000
    outer loop
      vertex   2.818519e+002 -5.284722e+003 2.360509e+003
      vertex   0.000000e+000 -5.284722e+003 2.360509e+003
      vertex   0.000000e+000 -5.284722e+003 -2.360509e+003
    endloop
  endfacet
  facet normal 0.000000e+000 -1.000000e+000 0.000000e+000
    outer loop
      vertex   0.000000e+000 -5.284722e+003 -2.360509e+003
      vertex   2.818519e+002 -5.284722e+003 -2.360509e+003
      vertex   2.818519e+002 -5.284722e+003 2.360509e+003
    endloop
  endfacet
  facet normal -1.000000e+000 -0.000000e+000 0.000000e+000
    outer loop
      vertex   0.000000e+000 5.284722e+003 -2.360509e+003
      vertex   0.000000e+000 -5.284722e+003 -2.360509e+003
      vertex   0.000000e+000 -5.284722e+003 2.360509e+003
    endloop
  endfacet
  facet normal -1.000000e+000 0.000000e+000 0.000000e+000
    outer loop
      vertex   0.000000e+000 -5.284722e+003 2.360509e+003
      vertex   0.000000e+000 5.284722e+003 2.360509e+003
      vertex   0.000000e+000 5.284722e+003 -2.360509e+003
    endloop
  endfacet
  facet normal 0.000000e+000 -1.260490e-016 1.000000e+000
    outer loop
      vertex   2.818519e+002 5.284722e+003 2.360509e+003
      vertex   0.000000e+000 5.284722e+003 2.360509e+003
      vertex   0.000000e+000 -5.284722e+003 2.360509e+003
    endloop
  endfacet
  facet normal 0.000000e+000 -1.260490e-016 1.000000e+000
    outer loop
      vertex   0.000000e+000 -5.284722e+003 2.360509e+003
      vertex   2.818519e+002 -5.284722e+003 2.360509e+003
      vertex   2.818519e+002 5.284722e+003 2.360509e+003
    endloop
  endfacet
  facet normal 0.000000e+000 1.000000e+000 0.000000e+000
    outer loop
      vertex   2.818519e+002 5.284722e+003 -2.360509e+003
      vertex   0.000000e+000 5.284722e+003 -2.360509e+003
      vertex   0.000000e+000 5.284722e+003 2.360509e+003
    endloop
  endfacet
  facet normal -0.000000e+000 1.000000e+000 0.000000e+000
    outer loop
      vertex   0.000000e+000 5.284722e+003 2.360509e+003
      vertex   2.818519e+002 5.284722e+003 2.360509e+003
      vertex   2.818519e+002 5.284722e+003 -2.360509e+003
    endloop
  endfacet
  facet normal 0.000000e+000 1.260490e-016 -1.000000e+000
    outer loop
      vertex   2.818519e+002 -5.284722e+003 -2.360509e+003
      vertex   0.000000e+000 -5.284722e+003 -2.360509e+003
      vertex   0.000000e+000 5.284722e+003 -2.360509e+003
    endloop
  endfacet
  facet normal 0.000000e+000 1.260490e-016 -1.000000e+000
    outer loop
      vertex   0.000000e+000 5.284722e+003 -2.360509e+003
      vertex   2.818519e+002 5.284722e+003 -2.360509e+003
      vertex   2.818519e+002 -5.284722e+003 -2.360509e+003
    endloop
  endfacet
endsolid
