solid Tapa
  facet normal 0.000000e+000 1.000000e+000 0.000000e+000
    outer loop
      vertex   -2.233333e+002 2.500000e+002 -4.020000e+002
      vertex   -2.233333e+002 2.500000e+002 4.020000e+002
      vertex   -1.233358e+002 2.500000e+002 4.020000e+002
    endloop
  endfacet
  facet normal 0.000000e+000 1.000000e+000 0.000000e+000
    outer loop
      vertex   -1.233358e+002 2.500000e+002 4.020000e+002
      vertex   -1.233249e+002 2.500000e+002 -4.020000e+002
      vertex   -2.233333e+002 2.500000e+002 -4.020000e+002
    endloop
  endfacet
  facet normal -1.000000e+000 -1.512106e-015 -1.355106e-005
    outer loop
      vertex   -1.233273e+002 4.650000e+002 -2.233333e+002
      vertex   -1.233333e+002 4.650000e+002 2.233333e+002
      vertex   -1.233333e+002 4.900000e+002 2.233333e+002
    endloop
  endfacet
  facet normal -1.000000e+000 -4.626096e-016 -1.355106e-005
    outer loop
      vertex   -1.233358e+002 2.500000e+002 4.020000e+002
      vertex   -1.233358e+002 3.400000e+002 4.020000e+002
      vertex   -1.233333e+002 4.650000e+002 2.233333e+002
    endloop
  endfacet
  facet normal -1.000000e+000 -9.340834e-017 -1.355106e-005
    outer loop
      vertex   -1.233249e+002 2.500000e+002 -4.020000e+002
      vertex   -1.233358e+002 2.500000e+002 4.020000e+002
      vertex   -1.233273e+002 4.650000e+002 -2.233333e+002
    endloop
  endfacet
  facet normal -1.000000e+000 -3.748584e-017 -1.355106e-005
    outer loop
      vertex   -1.233333e+002 4.650000e+002 2.233333e+002
      vertex   -1.233273e+002 4.650000e+002 -2.233333e+002
      vertex   -1.233358e+002 2.500000e+002 4.020000e+002
    endloop
  endfacet
  facet normal -1.000000e+000 -5.553628e-016 -1.355106e-005
    outer loop
      vertex   -1.233333e+002 4.900000e+002 2.233333e+002
      vertex   -1.233273e+002 4.900000e+002 -2.233333e+002
      vertex   -1.233273e+002 4.650000e+002 -2.233333e+002
    endloop
  endfacet
  facet normal -1.000000e+000 -4.625759e-016 -1.355106e-005
    outer loop
      vertex   -1.233273e+002 4.650000e+002 -2.233333e+002
      vertex   -1.233249e+002 3.400000e+002 -4.020000e+002
      vertex   -1.233249e+002 2.500000e+002 -4.020000e+002
    endloop
  endfacet
  facet normal 5.805395e-016 8.193755e-001 5.732571e-001
    outer loop
      vertex   1.233358e+002 3.400000e+002 4.020000e+002
      vertex   1.233333e+002 4.650000e+002 2.233333e+002
      vertex   -1.233333e+002 4.650000e+002 2.233333e+002
    endloop
  endfacet
  facet normal -6.450312e-016 8.193755e-001 5.732571e-001
    outer loop
      vertex   -1.233333e+002 4.650000e+002 2.233333e+002
      vertex   -1.233358e+002 3.400000e+002 4.020000e+002
      vertex   1.233358e+002 3.400000e+002 4.020000e+002
    endloop
  endfacet
  facet normal 1.935265e-016 8.193755e-001 -5.732571e-001
    outer loop
      vertex   1.233273e+002 4.650000e+002 -2.233333e+002
      vertex   1.233249e+002 3.400000e+002 -4.020000e+002
      vertex   -1.233249e+002 3.400000e+002 -4.020000e+002
    endloop
  endfacet
  facet normal 1.290151e-016 8.193755e-001 -5.732571e-001
    outer loop
      vertex   -1.233249e+002 3.400000e+002 -4.020000e+002
      vertex   -1.233273e+002 4.650000e+002 -2.233333e+002
      vertex   1.233273e+002 4.650000e+002 -2.233333e+002
    endloop
  endfacet
  facet normal -4.501125e-016 4.440892e-015 -1.000000e+000
    outer loop
      vertex   1.233273e+002 4.900000e+002 -2.233333e+002
      vertex   1.233273e+002 4.650000e+002 -2.233333e+002
      vertex   -1.233273e+002 4.650000e+002 -2.233333e+002
    endloop
  endfacet
  facet normal 1.800450e-015 -1.776357e-014 -1.000000e+000
    outer loop
      vertex   -1.233273e+002 4.650000e+002 -2.233333e+002
      vertex   -1.233273e+002 4.900000e+002 -2.233333e+002
      vertex   1.233273e+002 4.900000e+002 -2.233333e+002
    endloop
  endfacet
  facet normal -0.000000e+000 1.000000e+000 0.000000e+000
    outer loop
      vertex   -1.233333e+002 4.900000e+002 2.233333e+002
      vertex   1.233333e+002 4.900000e+002 2.233333e+002
      vertex   1.233273e+002 4.900000e+002 -2.233333e+002
    endloop
  endfacet
  facet normal 0.000000e+000 1.000000e+000 0.000000e+000
    outer loop
      vertex   1.233273e+002 4.900000e+002 -2.233333e+002
      vertex   -1.233273e+002 4.900000e+002 -2.233333e+002
      vertex   -1.233333e+002 4.900000e+002 2.233333e+002
    endloop
  endfacet
  facet normal -6.546242e-009 -6.661338e-015 1.000000e+000
    outer loop
      vertex   1.233333e+002 4.650000e+002 2.233333e+002
      vertex   1.233333e+002 4.900000e+002 2.233333e+002
      vertex   -1.233333e+002 4.900000e+002 2.233333e+002
    endloop
  endfacet
  facet normal 6.751357e-016 6.458959e-008 1.000000e+000
    outer loop
      vertex   -1.233333e+002 4.900000e+002 2.233333e+002
      vertex   -1.233333e+002 4.650000e+002 2.233333e+002
      vertex   1.233333e+002 4.650000e+002 2.233333e+002
    endloop
  endfacet
  facet normal 1.000000e+000 3.497914e-016 -1.355106e-005
    outer loop
      vertex   1.233358e+002 2.500000e+002 4.020000e+002
      vertex   1.233273e+002 4.650000e+002 -2.233333e+002
      vertex   1.233333e+002 4.650000e+002 2.233333e+002
    endloop
  endfacet
  facet normal 1.000000e+000 -3.330584e-015 -1.355106e-005
    outer loop
      vertex   1.233273e+002 4.900000e+002 -2.233333e+002
      vertex   1.233333e+002 4.900000e+002 2.233333e+002
      vertex   1.233333e+002 4.650000e+002 2.233333e+002
    endloop
  endfacet
  facet normal 1.000000e+000 -5.550594e-016 -1.355106e-005
    outer loop
      vertex   1.233333e+002 4.650000e+002 2.233333e+002
      vertex   1.233273e+002 4.650000e+002 -2.233333e+002
      vertex   1.233273e+002 4.900000e+002 -2.233333e+002
    endloop
  endfacet
  facet normal 1.000000e+000 3.083284e-016 -1.355106e-005
    outer loop
      vertex   1.233249e+002 2.500000e+002 -4.020000e+002
      vertex   1.233249e+002 3.400000e+002 -4.020000e+002
      vertex   1.233273e+002 4.650000e+002 -2.233333e+002
    endloop
  endfacet
  facet normal 1.000000e+000 -1.579636e-016 -1.355106e-005
    outer loop
      vertex   1.233273e+002 4.650000e+002 -2.233333e+002
      vertex   1.233358e+002 2.500000e+002 4.020000e+002
      vertex   1.233249e+002 2.500000e+002 -4.020000e+002
    endloop
  endfacet
  facet normal 1.000000e+000 -4.625923e-016 -1.355106e-005
    outer loop
      vertex   1.233333e+002 4.650000e+002 2.233333e+002
      vertex   1.233358e+002 3.400000e+002 4.020000e+002
      vertex   1.233358e+002 2.500000e+002 4.020000e+002
    endloop
  endfacet
  facet normal -0.000000e+000 1.000000e+000 0.000000e+000
    outer loop
      vertex   1.233358e+002 2.500000e+002 4.020000e+002
      vertex   2.233358e+002 2.500000e+002 4.020000e+002
      vertex   2.233249e+002 2.500000e+002 -4.020000e+002
    endloop
  endfacet
  facet normal 0.000000e+000 1.000000e+000 0.000000e+000
    outer loop
      vertex   2.233249e+002 2.500000e+002 -4.020000e+002
      vertex   1.233249e+002 2.500000e+002 -4.020000e+002
      vertex   1.233358e+002 2.500000e+002 4.020000e+002
    endloop
  endfacet
  facet normal 0.000000e+000 1.233581e-015 1.000000e+000
    outer loop
      vertex   -1.233358e+002 3.400000e+002 4.020000e+002
      vertex   -1.233358e+002 2.500000e+002 4.020000e+002
      vertex   1.233358e+002 2.500000e+002 4.020000e+002
    endloop
  endfacet
  facet normal 0.000000e+000 -0.000000e+000 1.000000e+000
    outer loop
      vertex   2.233358e+002 0.000000e+000 4.020000e+002
      vertex   2.233358e+002 2.500000e+002 4.020000e+002
      vertex   1.233358e+002 2.500000e+002 4.020000e+002
    endloop
  endfacet
  facet normal 0.000000e+000 0.000000e+000 1.000000e+000
    outer loop
      vertex   -2.233333e+002 0.000000e+000 4.020000e+002
      vertex   2.233358e+002 0.000000e+000 4.020000e+002
      vertex   -1.233358e+002 2.500000e+002 4.020000e+002
    endloop
  endfacet
  facet normal 0.000000e+000 0.000000e+000 1.000000e+000
    outer loop
      vertex   1.233358e+002 2.500000e+002 4.020000e+002
      vertex   -1.233358e+002 2.500000e+002 4.020000e+002
      vertex   2.233358e+002 0.000000e+000 4.020000e+002
    endloop
  endfacet
  facet normal -4.500816e-016 2.082046e-031 1.000000e+000
    outer loop
      vertex   1.233358e+002 2.500000e+002 4.020000e+002
      vertex   1.233358e+002 3.400000e+002 4.020000e+002
      vertex   -1.233358e+002 3.400000e+002 4.020000e+002
    endloop
  endfacet
  facet normal -1.110250e-015 4.440892e-016 1.000000e+000
    outer loop
      vertex   -1.233358e+002 2.500000e+002 4.020000e+002
      vertex   -2.233333e+002 2.500000e+002 4.020000e+002
      vertex   -2.233333e+002 0.000000e+000 4.020000e+002
    endloop
  endfacet
  facet normal 0.000000e+000 3.552714e-015 -1.000000e+000
    outer loop
      vertex   2.233249e+002 0.000000e+000 -4.020000e+002
      vertex   -1.233249e+002 2.500000e+002 -4.020000e+002
      vertex   1.233249e+002 2.500000e+002 -4.020000e+002
    endloop
  endfacet
  facet normal -2.250607e-015 1.233581e-015 -1.000000e+000
    outer loop
      vertex   -1.233249e+002 2.500000e+002 -4.020000e+002
      vertex   -1.233249e+002 3.400000e+002 -4.020000e+002
      vertex   1.233249e+002 3.400000e+002 -4.020000e+002
    endloop
  endfacet
  facet normal 0.000000e+000 -4.934325e-015 -1.000000e+000
    outer loop
      vertex   1.233249e+002 3.400000e+002 -4.020000e+002
      vertex   1.233249e+002 2.500000e+002 -4.020000e+002
      vertex   -1.233249e+002 2.500000e+002 -4.020000e+002
    endloop
  endfacet
  facet normal 4.440516e-015 -2.220446e-015 -1.000000e+000
    outer loop
      vertex   -2.233333e+002 0.000000e+000 -4.020000e+002
      vertex   -2.233333e+002 2.500000e+002 -4.020000e+002
      vertex   -1.233249e+002 2.500000e+002 -4.020000e+002
    endloop
  endfacet
  facet normal -2.237059e-015 4.508102e-016 -1.000000e+000
    outer loop
      vertex   -1.233249e+002 2.500000e+002 -4.020000e+002
      vertex   2.233249e+002 0.000000e+000 -4.020000e+002
      vertex   -2.233333e+002 0.000000e+000 -4.020000e+002
    endloop
  endfacet
  facet normal 1.665335e-015 4.218847e-015 -1.000000e+000
    outer loop
      vertex   1.233249e+002 2.500000e+002 -4.020000e+002
      vertex   2.233249e+002 2.500000e+002 -4.020000e+002
      vertex   2.233249e+002 0.000000e+000 -4.020000e+002
    endloop
  endfacet
  facet normal 0.000000e+000 -1.000000e+000 0.000000e+000
    outer loop
      vertex   -2.680000e+002 0.000000e+000 1.800000e+002
      vertex   2.233333e+002 0.000000e+000 2.233333e+002
      vertex   -2.233333e+002 0.000000e+000 2.233333e+002
    endloop
  endfacet
  facet normal 0.000000e+000 -1.000000e+000 0.000000e+000
    outer loop
      vertex   -2.233333e+002 0.000000e+000 4.020000e+002
      vertex   -2.233333e+002 0.000000e+000 2.233333e+002
      vertex   2.233333e+002 0.000000e+000 2.233333e+002
    endloop
  endfacet
  facet normal 0.000000e+000 -1.000000e+000 0.000000e+000
    outer loop
      vertex   2.233333e+002 0.000000e+000 2.233333e+002
      vertex   2.233358e+002 0.000000e+000 4.020000e+002
      vertex   -2.233333e+002 0.000000e+000 4.020000e+002
    endloop
  endfacet
  facet normal 0.000000e+000 -1.000000e+000 0.000000e+000
    outer loop
      vertex   2.680000e+002 0.000000e+000 1.800000e+002
      vertex   2.680000e+002 0.000000e+000 2.233333e+002
      vertex   2.233333e+002 0.000000e+000 2.233333e+002
    endloop
  endfacet
  facet normal 0.000000e+000 -1.000000e+000 -0.000000e+000
    outer loop
      vertex   2.233333e+002 0.000000e+000 2.233333e+002
      vertex   -2.680000e+002 0.000000e+000 1.800000e+002
      vertex   2.680000e+002 0.000000e+000 1.800000e+002
    endloop
  endfacet
  facet normal 0.000000e+000 -1.000000e+000 0.000000e+000
    outer loop
      vertex   -2.233333e+002 0.000000e+000 2.233333e+002
      vertex   -2.680000e+002 0.000000e+000 2.233333e+002
      vertex   -2.680000e+002 0.000000e+000 1.800000e+002
    endloop
  endfacet
  facet normal -2.454677e-016 -3.090170e-001 -9.510565e-001
    outer loop
      vertex   2.680000e+002 2.351141e+001 1.723607e+002
      vertex   2.680000e+002 0.000000e+000 1.800000e+002
      vertex   -2.680000e+002 0.000000e+000 1.800000e+002
    endloop
  endfacet
  facet normal 0.000000e+000 -8.090170e-001 -5.877853e-001
    outer loop
      vertex   2.680000e+002 3.804226e+001 1.523607e+002
      vertex   2.680000e+002 2.351141e+001 1.723607e+002
      vertex   -2.680000e+002 2.351141e+001 1.723607e+002
    endloop
  endfacet
  facet normal 0.000000e+000 -1.000000e+000 0.000000e+000
    outer loop
      vertex   2.680000e+002 3.804226e+001 1.276393e+002
      vertex   2.680000e+002 3.804226e+001 1.523607e+002
      vertex   -2.680000e+002 3.804226e+001 1.523607e+002
    endloop
  endfacet
  facet normal 0.000000e+000 -8.090170e-001 5.877853e-001
    outer loop
      vertex   2.680000e+002 2.351141e+001 1.076393e+002
      vertex   2.680000e+002 3.804226e+001 1.276393e+002
      vertex   -2.680000e+002 3.804226e+001 1.276393e+002
    endloop
  endfacet
  facet normal 0.000000e+000 -3.090170e-001 9.510565e-001
    outer loop
      vertex   2.680000e+002 0.000000e+000 1.000000e+002
      vertex   2.680000e+002 2.351141e+001 1.076393e+002
      vertex   -2.680000e+002 2.351141e+001 1.076393e+002
    endloop
  endfacet
  facet normal 0.000000e+000 -3.090170e-001 9.510565e-001
    outer loop
      vertex   -2.680000e+002 2.351141e+001 1.076393e+002
      vertex   -2.680000e+002 0.000000e+000 1.000000e+002
      vertex   2.680000e+002 0.000000e+000 1.000000e+002
    endloop
  endfacet
  facet normal 0.000000e+000 -8.090170e-001 5.877853e-001
    outer loop
      vertex   -2.680000e+002 3.804226e+001 1.276393e+002
      vertex   -2.680000e+002 2.351141e+001 1.076393e+002
      vertex   2.680000e+002 2.351141e+001 1.076393e+002
    endloop
  endfacet
  facet normal 0.000000e+000 -1.000000e+000 0.000000e+000
    outer loop
      vertex   -2.680000e+002 3.804226e+001 1.523607e+002
      vertex   -2.680000e+002 3.804226e+001 1.276393e+002
      vertex   2.680000e+002 3.804226e+001 1.276393e+002
    endloop
  endfacet
  facet normal 0.000000e+000 -8.090170e-001 -5.877853e-001
    outer loop
      vertex   -2.680000e+002 2.351141e+001 1.723607e+002
      vertex   -2.680000e+002 3.804226e+001 1.523607e+002
      vertex   2.680000e+002 3.804226e+001 1.523607e+002
    endloop
  endfacet
  facet normal 0.000000e+000 -3.090170e-001 -9.510565e-001
    outer loop
      vertex   -2.680000e+002 0.000000e+000 1.800000e+002
      vertex   -2.680000e+002 2.351141e+001 1.723607e+002
      vertex   2.680000e+002 2.351141e+001 1.723607e+002
    endloop
  endfacet
  facet normal 0.000000e+000 -0.000000e+000 1.000000e+000
    outer loop
      vertex   2.680000e+002 0.000000e+000 2.233333e+002
      vertex   2.680000e+002 1.000000e+002 2.233333e+002
      vertex   2.233333e+002 1.000000e+002 2.233333e+002
    endloop
  endfacet
  facet normal 0.000000e+000 0.000000e+000 1.000000e+000
    outer loop
      vertex   2.233333e+002 1.000000e+002 2.233333e+002
      vertex   2.233333e+002 0.000000e+000 2.233333e+002
      vertex   2.680000e+002 0.000000e+000 2.233333e+002
    endloop
  endfacet
  facet normal -8.787724e-016 7.071068e-001 7.071068e-001
    outer loop
      vertex   2.680000e+002 1.400000e+002 1.833333e+002
      vertex   2.233328e+002 1.400000e+002 1.833333e+002
      vertex   2.233333e+002 1.000000e+002 2.233333e+002
    endloop
  endfacet
  facet normal -1.537870e-015 7.071068e-001 7.071068e-001
    outer loop
      vertex   2.233333e+002 1.000000e+002 2.233333e+002
      vertex   2.680000e+002 1.000000e+002 2.233333e+002
      vertex   2.680000e+002 1.400000e+002 1.833333e+002
    endloop
  endfacet
  facet normal -6.213935e-016 -1.153386e-008 1.000000e+000
    outer loop
      vertex   -2.680000e+002 0.000000e+000 2.233333e+002
      vertex   -2.233333e+002 0.000000e+000 2.233333e+002
      vertex   -2.233333e+002 1.000000e+002 2.233333e+002
    endloop
  endfacet
  facet normal -6.213935e-016 -1.153386e-008 1.000000e+000
    outer loop
      vertex   -2.233333e+002 1.000000e+002 2.233333e+002
      vertex   -2.680000e+002 1.000000e+002 2.233333e+002
      vertex   -2.680000e+002 0.000000e+000 2.233333e+002
    endloop
  endfacet
  facet normal -4.290933e-016 7.071068e-001 7.071068e-001
    outer loop
      vertex   -2.233333e+002 1.000000e+002 2.233333e+002
      vertex   -2.233333e+002 1.400000e+002 1.833333e+002
      vertex   -2.680000e+002 1.400000e+002 1.833333e+002
    endloop
  endfacet
  facet normal -5.149120e-016 7.071068e-001 7.071068e-001
    outer loop
      vertex   -2.680000e+002 1.400000e+002 1.833333e+002
      vertex   -2.680000e+002 1.000000e+002 2.233333e+002
      vertex   -2.233333e+002 1.000000e+002 2.233333e+002
    endloop
  endfacet
  facet normal -6.213935e-016 1.000000e+000 -3.330669e-016
    outer loop
      vertex   -2.680000e+002 1.400000e+002 1.833333e+002
      vertex   -2.233333e+002 1.400000e+002 1.833333e+002
      vertex   -2.233333e+002 1.400000e+002 1.000000e+002
    endloop
  endfacet
  facet normal 6.213935e-016 1.000000e+000 3.330669e-016
    outer loop
      vertex   -2.233333e+002 1.400000e+002 1.000000e+002
      vertex   -2.680000e+002 1.400000e+002 1.000000e+002
      vertex   -2.680000e+002 1.400000e+002 1.833333e+002
    endloop
  endfacet
  facet normal -1.000000e+000 0.000000e+000 -0.000000e+000
    outer loop
      vertex   -2.680000e+002 1.000000e+002 2.233333e+002
      vertex   -2.680000e+002 1.400000e+002 1.833333e+002
      vertex   -2.680000e+002 3.804226e+001 1.523607e+002
    endloop
  endfacet
  facet normal -1.000000e+000 5.444526e-016 0.000000e+000
    outer loop
      vertex   -2.680000e+002 1.400000e+002 1.000000e+002
      vertex   -2.680000e+002 3.804226e+001 1.276393e+002
      vertex   -2.680000e+002 3.804226e+001 1.523607e+002
    endloop
  endfacet
  facet normal -1.000000e+000 0.000000e+000 0.000000e+000
    outer loop
      vertex   -2.680000e+002 0.000000e+000 2.233333e+002
      vertex   -2.680000e+002 1.000000e+002 2.233333e+002
      vertex   -2.680000e+002 2.351141e+001 1.723607e+002
    endloop
  endfacet
  facet normal -1.000000e+000 2.023577e-016 -6.661338e-016
    outer loop
      vertex   -2.680000e+002 3.804226e+001 1.523607e+002
      vertex   -2.680000e+002 1.400000e+002 1.833333e+002
      vertex   -2.680000e+002 1.400000e+002 1.000000e+002
    endloop
  endfacet
  facet normal -1.000000e+000 4.996477e-016 -3.630153e-016
    outer loop
      vertex   -2.680000e+002 1.000000e+002 6.000000e+001
      vertex   -2.680000e+002 2.351141e+001 1.076393e+002
      vertex   -2.680000e+002 3.804226e+001 1.276393e+002
    endloop
  endfacet
  facet normal -1.000000e+000 4.509167e-016 -1.387779e-015
    outer loop
      vertex   -2.680000e+002 -4.286264e-015 6.000000e+001
      vertex   -2.680000e+002 0.000000e+000 1.000000e+002
      vertex   -2.680000e+002 2.351141e+001 1.076393e+002
    endloop
  endfacet
  facet normal -1.000000e+000 0.000000e+000 0.000000e+000
    outer loop
      vertex   -2.680000e+002 3.804226e+001 1.523607e+002
      vertex   -2.680000e+002 2.351141e+001 1.723607e+002
      vertex   -2.680000e+002 1.000000e+002 2.233333e+002
    endloop
  endfacet
  facet normal -1.000000e+000 8.085464e-032 -1.165238e-015
    outer loop
      vertex   -2.680000e+002 2.351141e+001 1.076393e+002
      vertex   -2.680000e+002 1.000000e+002 6.000000e+001
      vertex   -2.680000e+002 -4.286264e-015 6.000000e+001
    endloop
  endfacet
  facet normal -1.000000e+000 4.283365e-016 -4.283365e-016
    outer loop
      vertex   -2.680000e+002 3.804226e+001 1.276393e+002
      vertex   -2.680000e+002 1.400000e+002 1.000000e+002
      vertex   -2.680000e+002 1.000000e+002 6.000000e+001
    endloop
  endfacet
  facet normal -1.000000e+000 0.000000e+000 0.000000e+000
    outer loop
      vertex   -2.680000e+002 2.351141e+001 1.723607e+002
      vertex   -2.680000e+002 0.000000e+000 1.800000e+002
      vertex   -2.680000e+002 0.000000e+000 2.233333e+002
    endloop
  endfacet
  facet normal 1.553484e-016 6.938894e-017 -1.000000e+000
    outer loop
      vertex   -2.680000e+002 1.000000e+002 6.000000e+001
      vertex   -2.233333e+002 1.000000e+002 6.000000e+001
      vertex   -2.233333e+002 -4.286264e-015 6.000000e+001
    endloop
  endfacet
  facet normal 1.553484e-016 6.938894e-017 -1.000000e+000
    outer loop
      vertex   -2.233333e+002 -4.286264e-015 6.000000e+001
      vertex   -2.680000e+002 -4.286264e-015 6.000000e+001
      vertex   -2.680000e+002 1.000000e+002 6.000000e+001
    endloop
  endfacet
  facet normal 1.098479e-016 7.071068e-001 -7.071068e-001
    outer loop
      vertex   -2.233333e+002 1.000000e+002 6.000000e+001
      vertex   -2.680000e+002 1.000000e+002 6.000000e+001
      vertex   -2.680000e+002 1.400000e+002 1.000000e+002
    endloop
  endfacet
  facet normal 1.537870e-015 7.071068e-001 -7.071068e-001
    outer loop
      vertex   -2.680000e+002 1.400000e+002 1.000000e+002
      vertex   -2.233333e+002 1.400000e+002 1.000000e+002
      vertex   -2.233333e+002 1.000000e+002 6.000000e+001
    endloop
  endfacet
  facet normal 0.000000e+000 1.000000e+000 0.000000e+000
    outer loop
      vertex   2.680000e+002 1.400000e+002 1.000000e+002
      vertex   2.233317e+002 1.400000e+002 1.000000e+002
      vertex   2.233328e+002 1.400000e+002 1.833333e+002
    endloop
  endfacet
  facet normal -0.000000e+000 1.000000e+000 0.000000e+000
    outer loop
      vertex   2.233328e+002 1.400000e+002 1.833333e+002
      vertex   2.680000e+002 1.400000e+002 1.833333e+002
      vertex   2.680000e+002 1.400000e+002 1.000000e+002
    endloop
  endfacet
  facet normal 1.000000e+000 4.851278e-031 -6.991429e-015
    outer loop
      vertex   2.680000e+002 0.000000e+000 6.000000e+001
      vertex   2.680000e+002 1.000000e+002 6.000000e+001
      vertex   2.680000e+002 2.351141e+001 1.076393e+002
    endloop
  endfacet
  facet normal 1.000000e+000 4.018639e-015 -1.243081e-015
    outer loop
      vertex   2.680000e+002 1.000000e+002 6.000000e+001
      vertex   2.680000e+002 1.400000e+002 1.000000e+002
      vertex   2.680000e+002 3.804226e+001 1.276393e+002
    endloop
  endfacet
  facet normal 1.000000e+000 4.697715e-015 6.661338e-016
    outer loop
      vertex   2.680000e+002 1.400000e+002 1.000000e+002
      vertex   2.680000e+002 1.400000e+002 1.833333e+002
      vertex   2.680000e+002 3.804226e+001 1.523607e+002
    endloop
  endfacet
  facet normal 1.000000e+000 4.889886e-015 3.552710e-015
    outer loop
      vertex   2.680000e+002 1.000000e+002 2.233333e+002
      vertex   2.680000e+002 2.351141e+001 1.723607e+002
      vertex   2.680000e+002 3.804226e+001 1.523607e+002
    endloop
  endfacet
  facet normal 1.000000e+000 2.997886e-015 -2.178092e-015
    outer loop
      vertex   2.680000e+002 3.804226e+001 1.276393e+002
      vertex   2.680000e+002 2.351141e+001 1.076393e+002
      vertex   2.680000e+002 1.000000e+002 6.000000e+001
    endloop
  endfacet
  facet normal 1.000000e+000 3.435010e-015 4.822788e-015
    outer loop
      vertex   2.680000e+002 3.804226e+001 1.523607e+002
      vertex   2.680000e+002 1.400000e+002 1.833333e+002
      vertex   2.680000e+002 1.000000e+002 2.233333e+002
    endloop
  endfacet
  facet normal 1.000000e+000 4.355620e-015 0.000000e+000
    outer loop
      vertex   2.680000e+002 3.804226e+001 1.523607e+002
      vertex   2.680000e+002 3.804226e+001 1.276393e+002
      vertex   2.680000e+002 1.400000e+002 1.000000e+002
    endloop
  endfacet
  facet normal 1.000000e+000 -2.083304e-014 1.281027e-015
    outer loop
      vertex   2.680000e+002 0.000000e+000 2.233333e+002
      vertex   2.680000e+002 0.000000e+000 1.800000e+002
      vertex   2.680000e+002 2.351141e+001 1.723607e+002
    endloop
  endfacet
  facet normal 1.000000e+000 0.000000e+000 1.089038e-014
    outer loop
      vertex   2.680000e+002 2.351141e+001 1.723607e+002
      vertex   2.680000e+002 1.000000e+002 2.233333e+002
      vertex   2.680000e+002 0.000000e+000 2.233333e+002
    endloop
  endfacet
  facet normal 1.000000e+000 2.705500e-015 -8.326673e-015
    outer loop
      vertex   2.680000e+002 2.351141e+001 1.076393e+002
      vertex   2.680000e+002 0.000000e+000 1.000000e+002
      vertex   2.680000e+002 0.000000e+000 6.000000e+001
    endloop
  endfacet
  facet normal 9.885820e-016 7.071068e-001 -7.071068e-001
    outer loop
      vertex   2.680000e+002 1.000000e+002 6.000000e+001
      vertex   2.233311e+002 1.000000e+002 6.000000e+001
      vertex   2.233317e+002 1.400000e+002 1.000000e+002
    endloop
  endfacet
  facet normal 1.318125e-015 7.071068e-001 -7.071068e-001
    outer loop
      vertex   2.233317e+002 1.400000e+002 1.000000e+002
      vertex   2.680000e+002 1.400000e+002 1.000000e+002
      vertex   2.680000e+002 1.000000e+002 6.000000e+001
    endloop
  endfacet
  facet normal 1.398066e-015 6.938894e-017 -1.000000e+000
    outer loop
      vertex   2.233311e+002 0.000000e+000 6.000000e+001
      vertex   2.233311e+002 1.000000e+002 6.000000e+001
      vertex   2.680000e+002 1.000000e+002 6.000000e+001
    endloop
  endfacet
  facet normal 1.398066e-015 6.938894e-017 -1.000000e+000
    outer loop
      vertex   2.680000e+002 1.000000e+002 6.000000e+001
      vertex   2.680000e+002 0.000000e+000 6.000000e+001
      vertex   2.233311e+002 0.000000e+000 6.000000e+001
    endloop
  endfacet
  facet normal 1.000000e+000 -3.848234e-016 -1.355106e-005
    outer loop
      vertex   2.233249e+002 2.500000e+002 -4.020000e+002
      vertex   2.233358e+002 2.500000e+002 4.020000e+002
      vertex   2.233290e+002 1.400000e+002 -9.700000e+001
    endloop
  endfacet
  facet normal 1.000000e+000 -8.505751e-017 -1.355106e-005
    outer loop
      vertex   2.233358e+002 2.500000e+002 4.020000e+002
      vertex   2.233328e+002 1.400000e+002 1.833333e+002
      vertex   2.233317e+002 1.400000e+002 1.000000e+002
    endloop
  endfacet
  facet normal 1.000000e+000 -5.560479e-016 -1.355106e-005
    outer loop
      vertex   2.233358e+002 2.500000e+002 4.020000e+002
      vertex   2.233295e+002 1.000000e+002 -5.700000e+001
      vertex   2.233290e+002 1.400000e+002 -9.700000e+001
    endloop
  endfacet
  facet normal 1.000000e+000 5.618170e-016 -1.355106e-005
    outer loop
      vertex   2.233358e+002 2.500000e+002 4.020000e+002
      vertex   2.233333e+002 1.000000e+002 2.233333e+002
      vertex   2.233328e+002 1.400000e+002 1.833333e+002
    endloop
  endfacet
  facet normal 1.000000e+000 -7.770989e-016 -1.355106e-005
    outer loop
      vertex   2.233249e+002 0.000000e+000 -4.020000e+002
      vertex   2.233249e+002 2.500000e+002 -4.020000e+002
      vertex   2.233273e+002 1.000000e+002 -2.233333e+002
    endloop
  endfacet
  facet normal 1.000000e+000 -3.402293e-015 -1.355106e-005
    outer loop
      vertex   2.233290e+002 1.400000e+002 -9.700000e+001
      vertex   2.233278e+002 1.400000e+002 -1.833333e+002
      vertex   2.233249e+002 2.500000e+002 -4.020000e+002
    endloop
  endfacet
  facet normal 1.000000e+000 4.298511e-020 -1.355106e-005
    outer loop
      vertex   2.233311e+002 0.000000e+000 6.000000e+001
      vertex   2.233295e+002 0.000000e+000 -5.700000e+001
      vertex   2.233295e+002 1.000000e+002 -5.700000e+001
    endloop
  endfacet
  facet normal 1.000000e+000 -6.316148e-015 -1.355106e-005
    outer loop
      vertex   2.233317e+002 1.400000e+002 1.000000e+002
      vertex   2.233295e+002 1.000000e+002 -5.700000e+001
      vertex   2.233358e+002 2.500000e+002 4.020000e+002
    endloop
  endfacet
  facet normal 1.000000e+000 4.421896e-016 -1.355106e-005
    outer loop
      vertex   2.233278e+002 1.400000e+002 -1.833333e+002
      vertex   2.233273e+002 1.000000e+002 -2.233333e+002
      vertex   2.233249e+002 2.500000e+002 -4.020000e+002
    endloop
  endfacet
  facet normal 1.000000e+000 1.310692e-015 -1.355106e-005
    outer loop
      vertex   2.233317e+002 1.400000e+002 1.000000e+002
      vertex   2.233311e+002 1.000000e+002 6.000000e+001
      vertex   2.233295e+002 1.000000e+002 -5.700000e+001
    endloop
  endfacet
  facet normal 1.000000e+000 2.262374e-021 -1.355106e-005
    outer loop
      vertex   2.233295e+002 1.000000e+002 -5.700000e+001
      vertex   2.233311e+002 1.000000e+002 6.000000e+001
      vertex   2.233311e+002 0.000000e+000 6.000000e+001
    endloop
  endfacet
  facet normal 1.000000e+000 2.775564e-016 -1.355106e-005
    outer loop
      vertex   2.233358e+002 0.000000e+000 4.020000e+002
      vertex   2.233333e+002 0.000000e+000 2.233333e+002
      vertex   2.233333e+002 1.000000e+002 2.233333e+002
    endloop
  endfacet
  facet normal 1.000000e+000 -1.110226e-016 -1.355106e-005
    outer loop
      vertex   2.233333e+002 1.000000e+002 2.233333e+002
      vertex   2.233358e+002 2.500000e+002 4.020000e+002
      vertex   2.233358e+002 0.000000e+000 4.020000e+002
    endloop
  endfacet
  facet normal 1.000000e+000 -1.110231e-015 -1.355106e-005
    outer loop
      vertex   2.233273e+002 1.000000e+002 -2.233333e+002
      vertex   2.233273e+002 0.000000e+000 -2.233333e+002
      vertex   2.233249e+002 0.000000e+000 -4.020000e+002
    endloop
  endfacet
  facet normal 1.317996e-015 7.071068e-001 -7.071068e-001
    outer loop
      vertex   2.680000e+002 1.000000e+002 -2.233333e+002
      vertex   2.233273e+002 1.000000e+002 -2.233333e+002
      vertex   2.233278e+002 1.400000e+002 -1.833333e+002
    endloop
  endfacet
  facet normal 2.636024e-015 7.071068e-001 -7.071068e-001
    outer loop
      vertex   2.233278e+002 1.400000e+002 -1.833333e+002
      vertex   2.680000e+002 1.400000e+002 -1.833333e+002
      vertex   2.680000e+002 1.000000e+002 -2.233333e+002
    endloop
  endfacet
  facet normal -8.786977e-016 7.071068e-001 7.071068e-001
    outer loop
      vertex   2.680000e+002 1.400000e+002 -9.700000e+001
      vertex   2.233290e+002 1.400000e+002 -9.700000e+001
      vertex   2.233295e+002 1.000000e+002 -5.700000e+001
    endloop
  endfacet
  facet normal -7.688698e-016 7.071068e-001 7.071068e-001
    outer loop
      vertex   2.233295e+002 1.000000e+002 -5.700000e+001
      vertex   2.680000e+002 1.000000e+002 -5.700000e+001
      vertex   2.680000e+002 1.400000e+002 -9.700000e+001
    endloop
  endfacet
  facet normal -8.077428e-015 -3.053113e-015 1.000000e+000
    outer loop
      vertex   2.233295e+002 1.000000e+002 -5.700000e+001
      vertex   2.233295e+002 0.000000e+000 -5.700000e+001
      vertex   2.680000e+002 0.000000e+000 -5.700000e+001
    endloop
  endfacet
  facet normal -1.087346e-015 6.938894e-017 1.000000e+000
    outer loop
      vertex   2.680000e+002 0.000000e+000 -5.700000e+001
      vertex   2.680000e+002 1.000000e+002 -5.700000e+001
      vertex   2.233295e+002 1.000000e+002 -5.700000e+001
    endloop
  endfacet
  facet normal 0.000000e+000 1.000000e+000 0.000000e+000
    outer loop
      vertex   2.680000e+002 1.400000e+002 -1.833333e+002
      vertex   2.233278e+002 1.400000e+002 -1.833333e+002
      vertex   2.233290e+002 1.400000e+002 -9.700000e+001
    endloop
  endfacet
  facet normal -0.000000e+000 1.000000e+000 0.000000e+000
    outer loop
      vertex   2.233290e+002 1.400000e+002 -9.700000e+001
      vertex   2.680000e+002 1.400000e+002 -9.700000e+001
      vertex   2.680000e+002 1.400000e+002 -1.833333e+002
    endloop
  endfacet
  facet normal 1.242619e-015 -5.551115e-016 -1.000000e+000
    outer loop
      vertex   2.680000e+002 0.000000e+000 -2.233333e+002
      vertex   2.233273e+002 0.000000e+000 -2.233333e+002
      vertex   2.233273e+002 1.000000e+002 -2.233333e+002
    endloop
  endfacet
  facet normal 1.863928e-015 -2.775558e-016 -1.000000e+000
    outer loop
      vertex   2.233273e+002 1.000000e+002 -2.233333e+002
      vertex   2.680000e+002 1.000000e+002 -2.233333e+002
      vertex   2.680000e+002 0.000000e+000 -2.233333e+002
    endloop
  endfacet
  facet normal 1.000000e+000 -0.000000e+000 0.000000e+000
    outer loop
      vertex   2.680000e+002 0.000000e+000 -2.233333e+002
      vertex   2.680000e+002 1.000000e+002 -2.233333e+002
      vertex   2.680000e+002 2.820244e+001 -1.985630e+002
    endloop
  endfacet
  facet normal 1.000000e+000 0.000000e+000 0.000000e+000
    outer loop
      vertex   2.680000e+002 1.000000e+002 -2.233333e+002
      vertex   2.680000e+002 5.081905e+001 -1.805268e+002
      vertex   2.680000e+002 2.820244e+001 -1.985630e+002
    endloop
  endfacet
  facet normal 1.000000e+000 6.131628e-016 -2.952836e-016
    outer loop
      vertex   2.680000e+002 1.400000e+002 -1.833333e+002
      vertex   2.680000e+002 6.337031e+001 -1.544639e+002
      vertex   2.680000e+002 5.081905e+001 -1.805268e+002
    endloop
  endfacet
  facet normal 1.000000e+000 1.173871e-015 2.561650e-015
    outer loop
      vertex   2.680000e+002 1.400000e+002 -9.700000e+001
      vertex   2.680000e+002 1.000000e+002 -5.700000e+001
      vertex   2.680000e+002 5.081905e+001 -9.947316e+001
    endloop
  endfacet
  facet normal 1.000000e+000 6.458049e-016 7.419739e-016
    outer loop
      vertex   2.680000e+002 5.081905e+001 -1.805268e+002
      vertex   2.680000e+002 1.000000e+002 -2.233333e+002
      vertex   2.680000e+002 1.400000e+002 -1.833333e+002
    endloop
  endfacet
  facet normal 1.000000e+000 1.448816e-015 0.000000e+000
    outer loop
      vertex   2.680000e+002 1.400000e+002 -9.700000e+001
      vertex   2.680000e+002 6.337031e+001 -1.255361e+002
      vertex   2.680000e+002 6.337031e+001 -1.544639e+002
    endloop
  endfacet
  facet normal 1.000000e+000 1.625658e-015 2.038511e-015
    outer loop
      vertex   2.680000e+002 1.000000e+002 -5.700000e+001
      vertex   2.680000e+002 2.820244e+001 -8.143702e+001
      vertex   2.680000e+002 5.081905e+001 -9.947316e+001
    endloop
  endfacet
  facet normal 1.000000e+000 2.815568e-015 1.233581e-014
    outer loop
      vertex   2.680000e+002 0.000000e+000 -5.700000e+001
      vertex   2.680000e+002 0.000000e+000 -7.500000e+001
      vertex   2.680000e+002 2.820244e+001 -8.143702e+001
    endloop
  endfacet
  facet normal 1.000000e+000 9.666466e-016 6.429863e-016
    outer loop
      vertex   2.680000e+002 6.337031e+001 -1.544639e+002
      vertex   2.680000e+002 1.400000e+002 -1.833333e+002
      vertex   2.680000e+002 1.400000e+002 -9.700000e+001
    endloop
  endfacet
  facet normal 1.000000e+000 -5.551115e-016 8.445755e-015
    outer loop
      vertex   2.680000e+002 2.820244e+001 -8.143702e+001
      vertex   2.680000e+002 1.000000e+002 -5.700000e+001
      vertex   2.680000e+002 0.000000e+000 -5.700000e+001
    endloop
  endfacet
  facet normal 1.000000e+000 1.228504e-015 5.916162e-016
    outer loop
      vertex   2.680000e+002 5.081905e+001 -9.947316e+001
      vertex   2.680000e+002 6.337031e+001 -1.255361e+002
      vertex   2.680000e+002 1.400000e+002 -9.700000e+001
    endloop
  endfacet
  facet normal 1.000000e+000 0.000000e+000 0.000000e+000
    outer loop
      vertex   2.680000e+002 2.820244e+001 -1.985630e+002
      vertex   2.680000e+002 0.000000e+000 -2.050000e+002
      vertex   2.680000e+002 0.000000e+000 -2.233333e+002
    endloop
  endfacet
  facet normal 0.000000e+000 -2.225209e-001 -9.749279e-001
    outer loop
      vertex   2.680000e+002 2.820244e+001 -8.143702e+001
      vertex   2.680000e+002 0.000000e+000 -7.500000e+001
      vertex   -2.680000e+002 0.000000e+000 -7.500000e+001
    endloop
  endfacet
  facet normal 0.000000e+000 -6.234898e-001 -7.818315e-001
    outer loop
      vertex   2.680000e+002 5.081905e+001 -9.947316e+001
      vertex   2.680000e+002 2.820244e+001 -8.143702e+001
      vertex   -2.680000e+002 2.820244e+001 -8.143702e+001
    endloop
  endfacet
  facet normal 0.000000e+000 -9.009689e-001 -4.338837e-001
    outer loop
      vertex   2.680000e+002 6.337031e+001 -1.255361e+002
      vertex   2.680000e+002 5.081905e+001 -9.947316e+001
      vertex   -2.680000e+002 5.081905e+001 -9.947316e+001
    endloop
  endfacet
  facet normal 0.000000e+000 -1.000000e+000 0.000000e+000
    outer loop
      vertex   2.680000e+002 6.337031e+001 -1.544639e+002
      vertex   2.680000e+002 6.337031e+001 -1.255361e+002
      vertex   -2.680000e+002 6.337031e+001 -1.255361e+002
    endloop
  endfacet
  facet normal 0.000000e+000 -9.009689e-001 4.338837e-001
    outer loop
      vertex   2.680000e+002 5.081905e+001 -1.805268e+002
      vertex   2.680000e+002 6.337031e+001 -1.544639e+002
      vertex   -2.680000e+002 6.337031e+001 -1.544639e+002
    endloop
  endfacet
  facet normal 0.000000e+000 -6.234898e-001 7.818315e-001
    outer loop
      vertex   2.680000e+002 2.820244e+001 -1.985630e+002
      vertex   2.680000e+002 5.081905e+001 -1.805268e+002
      vertex   -2.680000e+002 5.081905e+001 -1.805268e+002
    endloop
  endfacet
  facet normal 0.000000e+000 -2.225209e-001 9.749279e-001
    outer loop
      vertex   2.680000e+002 0.000000e+000 -2.050000e+002
      vertex   2.680000e+002 2.820244e+001 -1.985630e+002
      vertex   -2.680000e+002 2.820244e+001 -1.985630e+002
    endloop
  endfacet
  facet normal 0.000000e+000 -2.225209e-001 9.749279e-001
    outer loop
      vertex   -2.680000e+002 2.820244e+001 -1.985630e+002
      vertex   -2.680000e+002 0.000000e+000 -2.050000e+002
      vertex   2.680000e+002 0.000000e+000 -2.050000e+002
    endloop
  endfacet
  facet normal 0.000000e+000 -6.234898e-001 7.818315e-001
    outer loop
      vertex   -2.680000e+002 5.081905e+001 -1.805268e+002
      vertex   -2.680000e+002 2.820244e+001 -1.985630e+002
      vertex   2.680000e+002 2.820244e+001 -1.985630e+002
    endloop
  endfacet
  facet normal 0.000000e+000 -9.009689e-001 4.338837e-001
    outer loop
      vertex   -2.680000e+002 6.337031e+001 -1.544639e+002
      vertex   -2.680000e+002 5.081905e+001 -1.805268e+002
      vertex   2.680000e+002 5.081905e+001 -1.805268e+002
    endloop
  endfacet
  facet normal 0.000000e+000 -1.000000e+000 0.000000e+000
    outer loop
      vertex   -2.680000e+002 6.337031e+001 -1.255361e+002
      vertex   -2.680000e+002 6.337031e+001 -1.544639e+002
      vertex   2.680000e+002 6.337031e+001 -1.544639e+002
    endloop
  endfacet
  facet normal 0.000000e+000 -9.009689e-001 -4.338837e-001
    outer loop
      vertex   -2.680000e+002 5.081905e+001 -9.947316e+001
      vertex   -2.680000e+002 6.337031e+001 -1.255361e+002
      vertex   2.680000e+002 6.337031e+001 -1.255361e+002
    endloop
  endfacet
  facet normal 0.000000e+000 -6.234898e-001 -7.818315e-001
    outer loop
      vertex   -2.680000e+002 2.820244e+001 -8.143702e+001
      vertex   -2.680000e+002 5.081905e+001 -9.947316e+001
      vertex   2.680000e+002 5.081905e+001 -9.947316e+001
    endloop
  endfacet
  facet normal 0.000000e+000 -2.225209e-001 -9.749279e-001
    outer loop
      vertex   -2.680000e+002 0.000000e+000 -7.500000e+001
      vertex   -2.680000e+002 2.820244e+001 -8.143702e+001
      vertex   2.680000e+002 2.820244e+001 -8.143702e+001
    endloop
  endfacet
  facet normal 9.596161e-018 -1.000000e+000 -1.071624e-017
    outer loop
      vertex   2.680000e+002 0.000000e+000 1.000000e+002
      vertex   -2.233333e+002 -4.286264e-015 6.000000e+001
      vertex   2.233311e+002 0.000000e+000 6.000000e+001
    endloop
  endfacet
  facet normal 3.869582e-032 -1.000000e+000 -3.663473e-017
    outer loop
      vertex   -2.233333e+002 -4.286264e-015 6.000000e+001
      vertex   -2.233333e+002 -8.336559e-030 -5.700000e+001
      vertex   2.233295e+002 0.000000e+000 -5.700000e+001
    endloop
  endfacet
  facet normal 1.866410e-032 -1.000000e+000 -5.094568e-031
    outer loop
      vertex   -2.680000e+002 0.000000e+000 -7.500000e+001
      vertex   2.233295e+002 0.000000e+000 -5.700000e+001
      vertex   -2.233333e+002 -8.336559e-030 -5.700000e+001
    endloop
  endfacet
  facet normal 9.596161e-018 -1.000000e+000 -1.300382e-022
    outer loop
      vertex   2.233295e+002 0.000000e+000 -5.700000e+001
      vertex   2.233311e+002 0.000000e+000 6.000000e+001
      vertex   -2.233333e+002 -4.286264e-015 6.000000e+001
    endloop
  endfacet
  facet normal 0.000000e+000 -1.000000e+000 0.000000e+000
    outer loop
      vertex   2.233311e+002 0.000000e+000 6.000000e+001
      vertex   2.680000e+002 0.000000e+000 6.000000e+001
      vertex   2.680000e+002 0.000000e+000 1.000000e+002
    endloop
  endfacet
  facet normal 6.737162e-032 -1.000000e+000 1.071566e-016
    outer loop
      vertex   -2.680000e+002 0.000000e+000 1.000000e+002
      vertex   -2.680000e+002 -4.286264e-015 6.000000e+001
      vertex   -2.233333e+002 -4.286264e-015 6.000000e+001
    endloop
  endfacet
  facet normal 0.000000e+000 -1.000000e+000 1.071566e-016
    outer loop
      vertex   -2.233333e+002 -4.286264e-015 6.000000e+001
      vertex   2.680000e+002 0.000000e+000 1.000000e+002
      vertex   -2.680000e+002 0.000000e+000 1.000000e+002
    endloop
  endfacet
  facet normal 0.000000e+000 -1.000000e+000 0.000000e+000
    outer loop
      vertex   2.680000e+002 0.000000e+000 -7.500000e+001
      vertex   2.680000e+002 0.000000e+000 -5.700000e+001
      vertex   2.233295e+002 0.000000e+000 -5.700000e+001
    endloop
  endfacet
  facet normal 0.000000e+000 -1.000000e+000 -0.000000e+000
    outer loop
      vertex   2.233295e+002 0.000000e+000 -5.700000e+001
      vertex   -2.680000e+002 0.000000e+000 -7.500000e+001
      vertex   2.680000e+002 0.000000e+000 -7.500000e+001
    endloop
  endfacet
  facet normal -1.866394e-031 -1.000000e+000 -5.850828e-046
    outer loop
      vertex   -2.233333e+002 -8.336559e-030 -5.700000e+001
      vertex   -2.680000e+002 0.000000e+000 -5.700000e+001
      vertex   -2.680000e+002 0.000000e+000 -7.500000e+001
    endloop
  endfacet
  facet normal 0.000000e+000 -1.000000e+000 0.000000e+000
    outer loop
      vertex   2.680000e+002 0.000000e+000 -2.050000e+002
      vertex   -2.233333e+002 0.000000e+000 -2.233333e+002
      vertex   2.233273e+002 0.000000e+000 -2.233333e+002
    endloop
  endfacet
  facet normal 0.000000e+000 -1.000000e+000 0.000000e+000
    outer loop
      vertex   -2.233333e+002 0.000000e+000 -2.233333e+002
      vertex   -2.233333e+002 0.000000e+000 -4.020000e+002
      vertex   2.233249e+002 0.000000e+000 -4.020000e+002
    endloop
  endfacet
  facet normal 0.000000e+000 -1.000000e+000 0.000000e+000
    outer loop
      vertex   2.233249e+002 0.000000e+000 -4.020000e+002
      vertex   2.233273e+002 0.000000e+000 -2.233333e+002
      vertex   -2.233333e+002 0.000000e+000 -2.233333e+002
    endloop
  endfacet
  facet normal 0.000000e+000 -1.000000e+000 0.000000e+000
    outer loop
      vertex   -2.680000e+002 0.000000e+000 -2.050000e+002
      vertex   -2.680000e+002 0.000000e+000 -2.233333e+002
      vertex   -2.233333e+002 0.000000e+000 -2.233333e+002
    endloop
  endfacet
  facet normal 0.000000e+000 -1.000000e+000 0.000000e+000
    outer loop
      vertex   -2.233333e+002 0.000000e+000 -2.233333e+002
      vertex   2.680000e+002 0.000000e+000 -2.050000e+002
      vertex   -2.680000e+002 0.000000e+000 -2.050000e+002
    endloop
  endfacet
  facet normal 0.000000e+000 -1.000000e+000 0.000000e+000
    outer loop
      vertex   2.233273e+002 0.000000e+000 -2.233333e+002
      vertex   2.680000e+002 0.000000e+000 -2.233333e+002
      vertex   2.680000e+002 0.000000e+000 -2.050000e+002
    endloop
  endfacet
  facet normal -1.553484e-016 0.000000e+000 1.000000e+000
    outer loop
      vertex   -2.680000e+002 0.000000e+000 -5.700000e+001
      vertex   -2.233333e+002 -8.336559e-030 -5.700000e+001
      vertex   -2.233333e+002 1.000000e+002 -5.700000e+001
    endloop
  endfacet
  facet normal -4.660451e-016 1.387779e-016 1.000000e+000
    outer loop
      vertex   -2.233333e+002 1.000000e+002 -5.700000e+001
      vertex   -2.680000e+002 1.000000e+002 -5.700000e+001
      vertex   -2.680000e+002 0.000000e+000 -5.700000e+001
    endloop
  endfacet
  facet normal -2.196958e-016 7.071068e-001 7.071068e-001
    outer loop
      vertex   -2.233333e+002 1.400000e+002 -9.700000e+001
      vertex   -2.680000e+002 1.400000e+002 -9.700000e+001
      vertex   -2.680000e+002 1.000000e+002 -5.700000e+001
    endloop
  endfacet
  facet normal -3.295437e-016 7.071068e-001 7.071068e-001
    outer loop
      vertex   -2.680000e+002 1.000000e+002 -5.700000e+001
      vertex   -2.233333e+002 1.000000e+002 -5.700000e+001
      vertex   -2.233333e+002 1.400000e+002 -9.700000e+001
    endloop
  endfacet
  facet normal -1.000000e+000 0.000000e+000 0.000000e+000
    outer loop
      vertex   -2.233333e+002 2.500000e+002 -4.020000e+002
      vertex   -2.233333e+002 1.400000e+002 -1.833333e+002
      vertex   -2.233333e+002 1.400000e+002 -9.700000e+001
    endloop
  endfacet
  facet normal -1.000000e+000 0.000000e+000 -0.000000e+000
    outer loop
      vertex   -2.233333e+002 2.500000e+002 4.020000e+002
      vertex   -2.233333e+002 2.500000e+002 -4.020000e+002
      vertex   -2.233333e+002 1.400000e+002 1.000000e+002
    endloop
  endfacet
  facet normal -1.000000e+000 0.000000e+000 0.000000e+000
    outer loop
      vertex   -2.233333e+002 -4.286264e-015 6.000000e+001
      vertex   -2.233333e+002 1.000000e+002 6.000000e+001
      vertex   -2.233333e+002 1.000000e+002 -5.700000e+001
    endloop
  endfacet
  facet normal -1.000000e+000 0.000000e+000 0.000000e+000
    outer loop
      vertex   -2.233333e+002 1.400000e+002 -9.700000e+001
      vertex   -2.233333e+002 1.000000e+002 6.000000e+001
      vertex   -2.233333e+002 2.500000e+002 -4.020000e+002
    endloop
  endfacet
  facet normal -1.000000e+000 0.000000e+000 0.000000e+000
    outer loop
      vertex   -2.233333e+002 0.000000e+000 -4.020000e+002
      vertex   -2.233333e+002 0.000000e+000 -2.233333e+002
      vertex   -2.233333e+002 1.000000e+002 -2.233333e+002
    endloop
  endfacet
  facet normal -1.000000e+000 0.000000e+000 0.000000e+000
    outer loop
      vertex   -2.233333e+002 1.400000e+002 1.000000e+002
      vertex   -2.233333e+002 1.400000e+002 1.833333e+002
      vertex   -2.233333e+002 2.500000e+002 4.020000e+002
    endloop
  endfacet
  facet normal -1.000000e+000 0.000000e+000 0.000000e+000
    outer loop
      vertex   -2.233333e+002 1.400000e+002 -9.700000e+001
      vertex   -2.233333e+002 1.000000e+002 -5.700000e+001
      vertex   -2.233333e+002 1.000000e+002 6.000000e+001
    endloop
  endfacet
  facet normal -1.000000e+000 0.000000e+000 -0.000000e+000
    outer loop
      vertex   -2.233333e+002 1.000000e+002 -2.233333e+002
      vertex   -2.233333e+002 2.500000e+002 -4.020000e+002
      vertex   -2.233333e+002 0.000000e+000 -4.020000e+002
    endloop
  endfacet
  facet normal -1.000000e+000 0.000000e+000 0.000000e+000
    outer loop
      vertex   -2.233333e+002 2.500000e+002 -4.020000e+002
      vertex   -2.233333e+002 1.000000e+002 6.000000e+001
      vertex   -2.233333e+002 1.400000e+002 1.000000e+002
    endloop
  endfacet
  facet normal -1.000000e+000 0.000000e+000 0.000000e+000
    outer loop
      vertex   -2.233333e+002 1.000000e+002 -2.233333e+002
      vertex   -2.233333e+002 1.400000e+002 -1.833333e+002
      vertex   -2.233333e+002 2.500000e+002 -4.020000e+002
    endloop
  endfacet
  facet normal -1.000000e+000 0.000000e+000 0.000000e+000
    outer loop
      vertex   -2.233333e+002 0.000000e+000 4.020000e+002
      vertex   -2.233333e+002 2.500000e+002 4.020000e+002
      vertex   -2.233333e+002 1.000000e+002 2.233333e+002
    endloop
  endfacet
  facet normal -1.000000e+000 0.000000e+000 0.000000e+000
    outer loop
      vertex   -2.233333e+002 1.000000e+002 -5.700000e+001
      vertex   -2.233333e+002 -8.336559e-030 -5.700000e+001
      vertex   -2.233333e+002 -4.286264e-015 6.000000e+001
    endloop
  endfacet
  facet normal -1.000000e+000 0.000000e+000 0.000000e+000
    outer loop
      vertex   -2.233333e+002 1.400000e+002 1.833333e+002
      vertex   -2.233333e+002 1.000000e+002 2.233333e+002
      vertex   -2.233333e+002 2.500000e+002 4.020000e+002
    endloop
  endfacet
  facet normal -1.000000e+000 -0.000000e+000 0.000000e+000
    outer loop
      vertex   -2.233333e+002 1.000000e+002 2.233333e+002
      vertex   -2.233333e+002 0.000000e+000 2.233333e+002
      vertex   -2.233333e+002 0.000000e+000 4.020000e+002
    endloop
  endfacet
  facet normal -1.000000e+000 3.152479e-031 2.271600e-015
    outer loop
      vertex   -2.680000e+002 0.000000e+000 -5.700000e+001
      vertex   -2.680000e+002 1.000000e+002 -5.700000e+001
      vertex   -2.680000e+002 2.820244e+001 -8.143702e+001
    endloop
  endfacet
  facet normal -1.000000e+000 6.142519e-016 2.958081e-016
    outer loop
      vertex   -2.680000e+002 1.400000e+002 -9.700000e+001
      vertex   -2.680000e+002 6.337031e+001 -1.255361e+002
      vertex   -2.680000e+002 5.081905e+001 -9.947316e+001
    endloop
  endfacet
  facet normal -1.000000e+000 1.206577e-015 -6.429863e-016
    outer loop
      vertex   -2.680000e+002 1.400000e+002 -9.700000e+001
      vertex   -2.680000e+002 1.400000e+002 -1.833333e+002
      vertex   -2.680000e+002 6.337031e+001 -1.544639e+002
    endloop
  endfacet
  facet normal -1.000000e+000 1.206929e-015 -1.206929e-015
    outer loop
      vertex   -2.680000e+002 1.400000e+002 -1.833333e+002
      vertex   -2.680000e+002 1.000000e+002 -2.233333e+002
      vertex   -2.680000e+002 5.081905e+001 -1.805268e+002
    endloop
  endfacet
  facet normal -1.000000e+000 5.418862e-016 6.795037e-016
    outer loop
      vertex   -2.680000e+002 1.000000e+002 -5.700000e+001
      vertex   -2.680000e+002 5.081905e+001 -9.947316e+001
      vertex   -2.680000e+002 2.820244e+001 -8.143702e+001
    endloop
  endfacet
  facet normal -1.000000e+000 7.244079e-016 0.000000e+000
    outer loop
      vertex   -2.680000e+002 6.337031e+001 -1.544639e+002
      vertex   -2.680000e+002 6.337031e+001 -1.255361e+002
      vertex   -2.680000e+002 1.400000e+002 -9.700000e+001
    endloop
  endfacet
  facet normal -1.000000e+000 1.079368e-015 -1.353485e-015
    outer loop
      vertex   -2.680000e+002 1.000000e+002 -2.233333e+002
      vertex   -2.680000e+002 2.820244e+001 -1.985630e+002
      vertex   -2.680000e+002 5.081905e+001 -1.805268e+002
    endloop
  endfacet
  facet normal -1.000000e+000 1.382188e-015 -6.055763e-015
    outer loop
      vertex   -2.680000e+002 0.000000e+000 -2.233333e+002
      vertex   -2.680000e+002 0.000000e+000 -2.050000e+002
      vertex   -2.680000e+002 2.820244e+001 -1.985630e+002
    endloop
  endfacet
  facet normal -1.000000e+000 6.056591e-016 6.056591e-016
    outer loop
      vertex   -2.680000e+002 5.081905e+001 -9.947316e+001
      vertex   -2.680000e+002 1.000000e+002 -5.700000e+001
      vertex   -2.680000e+002 1.400000e+002 -9.700000e+001
    endloop
  endfacet
  facet normal -1.000000e+000 0.000000e+000 -4.482064e-015
    outer loop
      vertex   -2.680000e+002 2.820244e+001 -1.985630e+002
      vertex   -2.680000e+002 1.000000e+002 -2.233333e+002
      vertex   -2.680000e+002 0.000000e+000 -2.233333e+002
    endloop
  endfacet
  facet normal -1.000000e+000 1.226326e-015 -5.905672e-016
    outer loop
      vertex   -2.680000e+002 5.081905e+001 -1.805268e+002
      vertex   -2.680000e+002 6.337031e+001 -1.544639e+002
      vertex   -2.680000e+002 1.400000e+002 -1.833333e+002
    endloop
  endfacet
  facet normal -1.000000e+000 -4.640512e-015 -3.083953e-015
    outer loop
      vertex   -2.680000e+002 2.820244e+001 -8.143702e+001
      vertex   -2.680000e+002 0.000000e+000 -7.500000e+001
      vertex   -2.680000e+002 0.000000e+000 -5.700000e+001
    endloop
  endfacet
  facet normal 4.393916e-016 7.071068e-001 -7.071068e-001
    outer loop
      vertex   -2.680000e+002 1.400000e+002 -1.833333e+002
      vertex   -2.233333e+002 1.400000e+002 -1.833333e+002
      vertex   -2.233333e+002 1.000000e+002 -2.233333e+002
    endloop
  endfacet
  facet normal 4.393916e-016 7.071068e-001 -7.071068e-001
    outer loop
      vertex   -2.233333e+002 1.000000e+002 -2.233333e+002
      vertex   -2.680000e+002 1.000000e+002 -2.233333e+002
      vertex   -2.680000e+002 1.400000e+002 -1.833333e+002
    endloop
  endfacet
  facet normal 6.213935e-016 0.000000e+000 -1.000000e+000
    outer loop
      vertex   -2.680000e+002 0.000000e+000 -2.233333e+002
      vertex   -2.680000e+002 1.000000e+002 -2.233333e+002
      vertex   -2.233333e+002 1.000000e+002 -2.233333e+002
    endloop
  endfacet
  facet normal 0.000000e+000 2.775558e-016 -1.000000e+000
    outer loop
      vertex   -2.233333e+002 1.000000e+002 -2.233333e+002
      vertex   -2.233333e+002 0.000000e+000 -2.233333e+002
      vertex   -2.680000e+002 0.000000e+000 -2.233333e+002
    endloop
  endfacet
  facet normal -9.988688e-032 1.000000e+000 3.214932e-016
    outer loop
      vertex   -2.680000e+002 1.400000e+002 -9.700000e+001
      vertex   -2.233333e+002 1.400000e+002 -9.700000e+001
      vertex   -2.233333e+002 1.400000e+002 -1.833333e+002
    endloop
  endfacet
  facet normal -1.997738e-031 1.000000e+000 3.214932e-016
    outer loop
      vertex   -2.233333e+002 1.400000e+002 -1.833333e+002
      vertex   -2.680000e+002 1.400000e+002 -1.833333e+002
      vertex   -2.680000e+002 1.400000e+002 -9.700000e+001
    endloop
  endfacet
endsolid
