solid CorazaPpal
  facet normal -1.000000e+000 0.000000e+000 0.000000e+000
    outer loop
      vertex   8.334123e+001 0.000000e+000 0.000000e+000
      vertex   8.334123e+001 3.328698e+001 -1.081559e+001
      vertex   8.334123e+001 2.057248e+001 -2.831559e+001
    endloop
  endfacet
  facet normal -1.000000e+000 -0.000000e+000 0.000000e+000
    outer loop
      vertex   8.334123e+001 2.057248e+001 -2.831559e+001
      vertex   8.334123e+001 4.286264e-015 -3.500000e+001
      vertex   8.334123e+001 0.000000e+000 0.000000e+000
    endloop
  endfacet
  facet normal -1.000000e+000 0.000000e+000 0.000000e+000
    outer loop
      vertex   8.334123e+001 4.286264e-015 -3.500000e+001
      vertex   8.334123e+001 -2.057248e+001 -2.831559e+001
      vertex   8.334123e+001 0.000000e+000 0.000000e+000
    endloop
  endfacet
  facet normal -1.000000e+000 0.000000e+000 0.000000e+000
    outer loop
      vertex   8.334123e+001 -2.057248e+001 -2.831559e+001
      vertex   8.334123e+001 -3.328698e+001 -1.081559e+001
      vertex   8.334123e+001 0.000000e+000 0.000000e+000
    endloop
  endfacet
  facet normal -1.000000e+000 0.000000e+000 0.000000e+000
    outer loop
      vertex   8.334123e+001 -3.328698e+001 -1.081559e+001
      vertex   8.334123e+001 -3.328698e+001 1.081559e+001
      vertex   8.334123e+001 0.000000e+000 0.000000e+000
    endloop
  endfacet
  facet normal -1.000000e+000 0.000000e+000 0.000000e+000
    outer loop
      vertex   8.334123e+001 -3.328698e+001 1.081559e+001
      vertex   8.334123e+001 -2.057248e+001 2.831559e+001
      vertex   8.334123e+001 0.000000e+000 0.000000e+000
    endloop
  endfacet
  facet normal -1.000000e+000 0.000000e+000 0.000000e+000
    outer loop
      vertex   8.334123e+001 -2.057248e+001 2.831559e+001
      vertex   8.334123e+001 0.000000e+000 3.500000e+001
      vertex   8.334123e+001 0.000000e+000 0.000000e+000
    endloop
  endfacet
  facet normal -1.000000e+000 0.000000e+000 0.000000e+000
    outer loop
      vertex   8.334123e+001 0.000000e+000 3.500000e+001
      vertex   8.334123e+001 2.057248e+001 2.831559e+001
      vertex   8.334123e+001 0.000000e+000 0.000000e+000
    endloop
  endfacet
  facet normal -1.000000e+000 0.000000e+000 -0.000000e+000
    outer loop
      vertex   8.334123e+001 2.057248e+001 2.831559e+001
      vertex   8.334123e+001 3.328698e+001 1.081559e+001
      vertex   8.334123e+001 0.000000e+000 0.000000e+000
    endloop
  endfacet
  facet normal -1.000000e+000 0.000000e+000 -0.000000e+000
    outer loop
      vertex   8.334123e+001 3.328698e+001 1.081559e+001
      vertex   8.334123e+001 3.500000e+001 2.143132e-015
      vertex   8.334123e+001 0.000000e+000 0.000000e+000
    endloop
  endfacet
  facet normal -1.000000e+000 0.000000e+000 0.000000e+000
    outer loop
      vertex   8.334123e+001 3.500000e+001 2.143132e-015
      vertex   8.334123e+001 3.328698e+001 -1.081559e+001
      vertex   8.334123e+001 0.000000e+000 0.000000e+000
    endloop
  endfacet
  facet normal 0.000000e+000 3.090170e-001 -9.510565e-001
    outer loop
      vertex   4.334123e+001 -2.057248e+001 2.831559e+001
      vertex   4.334123e+001 0.000000e+000 3.500000e+001
      vertex   8.334123e+001 0.000000e+000 3.500000e+001
    endloop
  endfacet
  facet normal 0.000000e+000 8.090170e-001 -5.877853e-001
    outer loop
      vertex   4.334123e+001 -3.328698e+001 1.081559e+001
      vertex   4.334123e+001 -2.057248e+001 2.831559e+001
      vertex   8.334123e+001 -2.057248e+001 2.831559e+001
    endloop
  endfacet
  facet normal 0.000000e+000 1.000000e+000 3.207819e-016
    outer loop
      vertex   4.334123e+001 -3.328698e+001 -1.081559e+001
      vertex   4.334123e+001 -3.328698e+001 1.081559e+001
      vertex   8.334123e+001 -3.328698e+001 1.081559e+001
    endloop
  endfacet
  facet normal 0.000000e+000 8.090170e-001 5.877853e-001
    outer loop
      vertex   4.334123e+001 -2.057248e+001 -2.831559e+001
      vertex   4.334123e+001 -3.328698e+001 -1.081559e+001
      vertex   8.334123e+001 -3.328698e+001 -1.081559e+001
    endloop
  endfacet
  facet normal 0.000000e+000 3.090170e-001 9.510565e-001
    outer loop
      vertex   4.334123e+001 4.286264e-015 -3.500000e+001
      vertex   4.334123e+001 -2.057248e+001 -2.831559e+001
      vertex   8.334123e+001 -2.057248e+001 -2.831559e+001
    endloop
  endfacet
  facet normal 0.000000e+000 -3.090170e-001 9.510565e-001
    outer loop
      vertex   4.334123e+001 2.057248e+001 -2.831559e+001
      vertex   4.334123e+001 4.286264e-015 -3.500000e+001
      vertex   8.334123e+001 4.286264e-015 -3.500000e+001
    endloop
  endfacet
  facet normal 0.000000e+000 -8.090170e-001 5.877853e-001
    outer loop
      vertex   4.334123e+001 3.328698e+001 -1.081559e+001
      vertex   4.334123e+001 2.057248e+001 -2.831559e+001
      vertex   8.334123e+001 2.057248e+001 -2.831559e+001
    endloop
  endfacet
  facet normal -0.000000e+000 -9.876883e-001 -1.564345e-001
    outer loop
      vertex   8.334123e+001 3.328698e+001 1.081559e+001
      vertex   4.334123e+001 3.328698e+001 1.081559e+001
      vertex   4.334123e+001 3.500000e+001 1.071566e-014
    endloop
  endfacet
  facet normal 0.000000e+000 -9.876883e-001 1.564345e-001
    outer loop
      vertex   4.334123e+001 3.328698e+001 -1.081559e+001
      vertex   8.334123e+001 3.328698e+001 -1.081559e+001
      vertex   8.334123e+001 3.500000e+001 2.143132e-015
    endloop
  endfacet
  facet normal 3.352597e-017 -9.876883e-001 1.564345e-001
    outer loop
      vertex   8.334123e+001 3.500000e+001 2.143132e-015
      vertex   4.334123e+001 3.500000e+001 1.071566e-014
      vertex   4.334123e+001 3.328698e+001 -1.081559e+001
    endloop
  endfacet
  facet normal 0.000000e+000 -8.090170e-001 -5.877853e-001
    outer loop
      vertex   4.334123e+001 2.057248e+001 2.831559e+001
      vertex   4.334123e+001 3.328698e+001 1.081559e+001
      vertex   8.334123e+001 3.328698e+001 1.081559e+001
    endloop
  endfacet
  facet normal 0.000000e+000 -3.090170e-001 -9.510565e-001
    outer loop
      vertex   4.334123e+001 0.000000e+000 3.500000e+001
      vertex   4.334123e+001 2.057248e+001 2.831559e+001
      vertex   8.334123e+001 2.057248e+001 2.831559e+001
    endloop
  endfacet
  facet normal 0.000000e+000 -3.090170e-001 -9.510565e-001
    outer loop
      vertex   8.334123e+001 2.057248e+001 2.831559e+001
      vertex   8.334123e+001 0.000000e+000 3.500000e+001
      vertex   4.334123e+001 0.000000e+000 3.500000e+001
    endloop
  endfacet
  facet normal 0.000000e+000 -8.090170e-001 -5.877853e-001
    outer loop
      vertex   8.334123e+001 3.328698e+001 1.081559e+001
      vertex   8.334123e+001 2.057248e+001 2.831559e+001
      vertex   4.334123e+001 2.057248e+001 2.831559e+001
    endloop
  endfacet
  facet normal -3.352597e-017 -9.876883e-001 -1.564345e-001
    outer loop
      vertex   4.334123e+001 3.500000e+001 1.071566e-014
      vertex   8.334123e+001 3.500000e+001 2.143132e-015
      vertex   8.334123e+001 3.328698e+001 1.081559e+001
    endloop
  endfacet
  facet normal 0.000000e+000 -8.090170e-001 5.877853e-001
    outer loop
      vertex   8.334123e+001 2.057248e+001 -2.831559e+001
      vertex   8.334123e+001 3.328698e+001 -1.081559e+001
      vertex   4.334123e+001 3.328698e+001 -1.081559e+001
    endloop
  endfacet
  facet normal 0.000000e+000 -3.090170e-001 9.510565e-001
    outer loop
      vertex   8.334123e+001 4.286264e-015 -3.500000e+001
      vertex   8.334123e+001 2.057248e+001 -2.831559e+001
      vertex   4.334123e+001 2.057248e+001 -2.831559e+001
    endloop
  endfacet
  facet normal 0.000000e+000 3.090170e-001 9.510565e-001
    outer loop
      vertex   8.334123e+001 -2.057248e+001 -2.831559e+001
      vertex   8.334123e+001 4.286264e-015 -3.500000e+001
      vertex   4.334123e+001 4.286264e-015 -3.500000e+001
    endloop
  endfacet
  facet normal 0.000000e+000 8.090170e-001 5.877853e-001
    outer loop
      vertex   8.334123e+001 -3.328698e+001 -1.081559e+001
      vertex   8.334123e+001 -2.057248e+001 -2.831559e+001
      vertex   4.334123e+001 -2.057248e+001 -2.831559e+001
    endloop
  endfacet
  facet normal 0.000000e+000 1.000000e+000 3.207819e-016
    outer loop
      vertex   8.334123e+001 -3.328698e+001 1.081559e+001
      vertex   8.334123e+001 -3.328698e+001 -1.081559e+001
      vertex   4.334123e+001 -3.328698e+001 -1.081559e+001
    endloop
  endfacet
  facet normal 0.000000e+000 8.090170e-001 -5.877853e-001
    outer loop
      vertex   8.334123e+001 -2.057248e+001 2.831559e+001
      vertex   8.334123e+001 -3.328698e+001 1.081559e+001
      vertex   4.334123e+001 -3.328698e+001 1.081559e+001
    endloop
  endfacet
  facet normal 0.000000e+000 3.090170e-001 -9.510565e-001
    outer loop
      vertex   8.334123e+001 0.000000e+000 3.500000e+001
      vertex   8.334123e+001 -2.057248e+001 2.831559e+001
      vertex   4.334123e+001 -2.057248e+001 2.831559e+001
    endloop
  endfacet
  facet normal -1.000000e+000 -1.540988e-015 -1.960999e-015
    outer loop
      vertex   4.334123e+001 3.390000e+002 -2.000000e+002
      vertex   4.334123e+001 2.187209e+002 -3.471356e+001
      vertex   4.334123e+001 2.300000e+002 -3.650000e+001
    endloop
  endfacet
  facet normal -1.000000e+000 -6.663920e-016 1.294277e-016
    outer loop
      vertex   4.334123e+001 4.286264e-015 -3.500000e+001
      vertex   4.334123e+001 2.004709e+002 -2.145416e+001
      vertex   4.334123e+001 2.187209e+002 -3.471356e+001
    endloop
  endfacet
  facet normal -1.000000e+000 -5.674544e-017 -1.746445e-016
    outer loop
      vertex   4.334123e+001 -1.952864e+002 -1.127912e+001
      vertex   4.334123e+001 -2.057248e+001 -2.831559e+001
      vertex   4.334123e+001 4.286264e-015 -3.500000e+001
    endloop
  endfacet
  facet normal -1.000000e+000 -7.880132e-016 1.248090e-016
    outer loop
      vertex   4.334123e+001 3.328698e+001 -1.081559e+001
      vertex   4.334123e+001 3.500000e+001 1.071566e-014
      vertex   4.334123e+001 1.935000e+002 -2.468933e-015
    endloop
  endfacet
  facet normal -1.000000e+000 -9.791308e-016 -1.586428e-015
    outer loop
      vertex   4.334123e+001 2.300000e+002 -3.650000e+001
      vertex   4.334123e+001 2.412791e+002 -3.471356e+001
      vertex   4.334123e+001 3.390000e+002 -2.000000e+002
    endloop
  endfacet
  facet normal -1.000000e+000 -4.054115e-017 -4.123973e-017
    outer loop
      vertex   4.334123e+001 4.286264e-015 -3.500000e+001
      vertex   4.334123e+001 3.390000e+002 -2.000000e+002
      vertex   4.334123e+001 -1.952864e+002 -1.127912e+001
    endloop
  endfacet
  facet normal -1.000000e+000 -7.537392e-016 5.476236e-016
    outer loop
      vertex   4.334123e+001 2.004709e+002 -2.145416e+001
      vertex   4.334123e+001 2.057248e+001 -2.831559e+001
      vertex   4.334123e+001 3.328698e+001 -1.081559e+001
    endloop
  endfacet
  facet normal -1.000000e+000 -6.644897e-016 -1.323170e-015
    outer loop
      vertex   4.334123e+001 2.187209e+002 -3.471356e+001
      vertex   4.334123e+001 3.390000e+002 -2.000000e+002
      vertex   4.334123e+001 4.286264e-015 -3.500000e+001
    endloop
  endfacet
  facet normal -1.000000e+000 -8.303193e-016 2.555460e-015
    outer loop
      vertex   4.334123e+001 2.004709e+002 -2.145416e+001
      vertex   4.334123e+001 4.286264e-015 -3.500000e+001
      vertex   4.334123e+001 2.057248e+001 -2.831559e+001
    endloop
  endfacet
  facet normal -1.000000e+000 -7.842200e-016 -6.862028e-017
    outer loop
      vertex   4.334123e+001 3.328698e+001 1.081559e+001
      vertex   4.334123e+001 2.004709e+002 2.145416e+001
      vertex   4.334123e+001 1.935000e+002 -2.468933e-015
    endloop
  endfacet
  facet normal -1.000000e+000 -7.842200e-016 6.862028e-017
    outer loop
      vertex   4.334123e+001 1.935000e+002 -2.468933e-015
      vertex   4.334123e+001 2.004709e+002 -2.145416e+001
      vertex   4.334123e+001 3.328698e+001 -1.081559e+001
    endloop
  endfacet
  facet normal -1.000000e+000 -7.880132e-016 -1.248090e-016
    outer loop
      vertex   4.334123e+001 1.935000e+002 -2.468933e-015
      vertex   4.334123e+001 3.500000e+001 1.071566e-014
      vertex   4.334123e+001 3.328698e+001 1.081559e+001
    endloop
  endfacet
  facet normal -1.000000e+000 -7.537392e-016 -5.476236e-016
    outer loop
      vertex   4.334123e+001 3.328698e+001 1.081559e+001
      vertex   4.334123e+001 2.057248e+001 2.831559e+001
      vertex   4.334123e+001 2.004709e+002 2.145416e+001
    endloop
  endfacet
  facet normal -1.000000e+000 -7.342278e-016 -3.605972e-017
    outer loop
      vertex   4.334123e+001 2.057248e+001 2.831559e+001
      vertex   4.334123e+001 2.187209e+002 3.471356e+001
      vertex   4.334123e+001 2.004709e+002 2.145416e+001
    endloop
  endfacet
  facet normal -1.000000e+000 -1.230396e-015 4.392472e-015
    outer loop
      vertex   4.334123e+001 3.390000e+002 1.000000e+002
      vertex   4.334123e+001 2.412791e+002 3.471356e+001
      vertex   4.334123e+001 2.187209e+002 3.471356e+001
    endloop
  endfacet
  facet normal -1.000000e+000 -1.287246e-017 -3.961737e-017
    outer loop
      vertex   4.334123e+001 3.390000e+002 1.000000e+002
      vertex   4.334123e+001 2.057248e+001 2.831559e+001
      vertex   4.334123e+001 0.000000e+000 3.500000e+001
    endloop
  endfacet
  facet normal -1.000000e+000 -8.548816e-016 3.700650e-015
    outer loop
      vertex   4.334123e+001 2.187209e+002 3.471356e+001
      vertex   4.334123e+001 2.057248e+001 2.831559e+001
      vertex   4.334123e+001 3.390000e+002 1.000000e+002
    endloop
  endfacet
  facet normal -1.000000e+000 -1.986835e-017 -1.019291e-015
    outer loop
      vertex   4.334123e+001 2.412791e+002 -3.471356e+001
      vertex   4.334123e+001 2.595291e+002 -2.145416e+001
      vertex   4.334123e+001 3.390000e+002 -2.000000e+002
    endloop
  endfacet
  facet normal -1.000000e+000 -4.283282e-017 0.000000e+000
    outer loop
      vertex   4.334123e+001 -1.952864e+002 -1.127912e+001
      vertex   4.334123e+001 -3.328698e+001 1.081559e+001
      vertex   4.334123e+001 -3.328698e+001 -1.081559e+001
    endloop
  endfacet
  facet normal -1.000000e+000 8.922088e-016 -6.133250e-016
    outer loop
      vertex   4.334123e+001 3.390000e+002 -2.000000e+002
      vertex   4.334123e+001 2.595291e+002 -2.145416e+001
      vertex   4.334123e+001 2.665000e+002 -1.587882e-014
    endloop
  endfacet
  facet normal -1.000000e+000 -4.274396e-017 -3.105531e-017
    outer loop
      vertex   4.334123e+001 -3.328698e+001 -1.081559e+001
      vertex   4.334123e+001 -2.057248e+001 -2.831559e+001
      vertex   4.334123e+001 -1.952864e+002 -1.127912e+001
    endloop
  endfacet
  facet normal -1.000000e+000 2.584140e-015 0.000000e+000
    outer loop
      vertex   4.334123e+001 2.665000e+002 -1.587882e-014
      vertex   4.334123e+001 3.390000e+002 1.000000e+002
      vertex   4.334123e+001 3.390000e+002 -2.000000e+002
    endloop
  endfacet
  facet normal -1.000000e+000 -4.754402e-017 3.454276e-017
    outer loop
      vertex   4.334123e+001 -1.952864e+002 -1.127912e+001
      vertex   4.334123e+001 -2.057248e+001 2.831559e+001
      vertex   4.334123e+001 -3.328698e+001 1.081559e+001
    endloop
  endfacet
  facet normal -1.000000e+000 -5.674544e-017 1.746445e-016
    outer loop
      vertex   4.334123e+001 -1.952864e+002 1.127912e+001
      vertex   4.334123e+001 0.000000e+000 3.500000e+001
      vertex   4.334123e+001 -2.057248e+001 2.831559e+001
    endloop
  endfacet
  facet normal -1.000000e+000 -3.078706e-017 -9.475282e-017
    outer loop
      vertex   4.334123e+001 0.000000e+000 3.500000e+001
      vertex   4.334123e+001 -2.085458e+002 2.952912e+001
      vertex   4.334123e+001 -2.300000e+002 3.650000e+001
    endloop
  endfacet
  facet normal -1.000000e+000 1.476372e-015 8.031313e-016
    outer loop
      vertex   4.334123e+001 2.665000e+002 -1.587882e-014
      vertex   4.334123e+001 2.595291e+002 2.145416e+001
      vertex   4.334123e+001 3.390000e+002 1.000000e+002
    endloop
  endfacet
  facet normal -1.000000e+000 -3.971574e-017 0.000000e+000
    outer loop
      vertex   4.334123e+001 -2.057248e+001 2.831559e+001
      vertex   4.334123e+001 -1.952864e+002 -1.127912e+001
      vertex   4.334123e+001 -1.952864e+002 1.127912e+001
    endloop
  endfacet
  facet normal -1.000000e+000 -3.520483e-017 1.083493e-016
    outer loop
      vertex   4.334123e+001 -3.390000e+002 -2.000000e+002
      vertex   4.334123e+001 -2.300000e+002 -3.650000e+001
      vertex   4.334123e+001 -2.085458e+002 -2.952912e+001
    endloop
  endfacet
  facet normal -1.000000e+000 -3.265044e-017 -2.372194e-017
    outer loop
      vertex   4.334123e+001 0.000000e+000 3.500000e+001
      vertex   4.334123e+001 -1.952864e+002 1.127912e+001
      vertex   4.334123e+001 -2.085458e+002 2.952912e+001
    endloop
  endfacet
  facet normal -1.000000e+000 0.000000e+000 -1.067522e-016
    outer loop
      vertex   4.334123e+001 0.000000e+000 3.500000e+001
      vertex   4.334123e+001 -3.390000e+002 1.000000e+002
      vertex   4.334123e+001 3.390000e+002 1.000000e+002
    endloop
  endfacet
  facet normal -1.000000e+000 0.000000e+000 8.140855e-017
    outer loop
      vertex   4.334123e+001 -2.085458e+002 -2.952912e+001
      vertex   4.334123e+001 3.390000e+002 -2.000000e+002
      vertex   4.334123e+001 -3.390000e+002 -2.000000e+002
    endloop
  endfacet
  facet normal -1.000000e+000 1.868146e-016 0.000000e+000
    outer loop
      vertex   4.334123e+001 -3.390000e+002 1.000000e+002
      vertex   4.334123e+001 -2.647136e+002 1.127912e+001
      vertex   4.334123e+001 -2.647136e+002 -1.127912e+001
    endloop
  endfacet
  facet normal -1.000000e+000 5.235219e-016 1.767204e-015
    outer loop
      vertex   4.334123e+001 2.595291e+002 2.145416e+001
      vertex   4.334123e+001 2.412791e+002 3.471356e+001
      vertex   4.334123e+001 3.390000e+002 1.000000e+002
    endloop
  endfacet
  facet normal -1.000000e+000 2.266867e-017 6.976699e-017
    outer loop
      vertex   4.334123e+001 -3.390000e+002 -2.000000e+002
      vertex   4.334123e+001 -2.514542e+002 -2.952912e+001
      vertex   4.334123e+001 -2.300000e+002 -3.650000e+001
    endloop
  endfacet
  facet normal -1.000000e+000 1.868146e-016 0.000000e+000
    outer loop
      vertex   4.334123e+001 -2.647136e+002 -1.127912e+001
      vertex   4.334123e+001 -3.390000e+002 -2.000000e+002
      vertex   4.334123e+001 -3.390000e+002 1.000000e+002
    endloop
  endfacet
  facet normal -1.000000e+000 -2.066992e-017 1.501758e-017
    outer loop
      vertex   4.334123e+001 -2.085458e+002 -2.952912e+001
      vertex   4.334123e+001 -1.952864e+002 -1.127912e+001
      vertex   4.334123e+001 3.390000e+002 -2.000000e+002
    endloop
  endfacet
  facet normal -1.000000e+000 1.000230e-016 -7.267098e-017
    outer loop
      vertex   4.334123e+001 -3.390000e+002 1.000000e+002
      vertex   4.334123e+001 -2.514542e+002 2.952912e+001
      vertex   4.334123e+001 -2.647136e+002 1.127912e+001
    endloop
  endfacet
  facet normal -1.000000e+000 6.564700e-017 4.769534e-017
    outer loop
      vertex   4.334123e+001 -2.647136e+002 -1.127912e+001
      vertex   4.334123e+001 -2.514542e+002 -2.952912e+001
      vertex   4.334123e+001 -3.390000e+002 -2.000000e+002
    endloop
  endfacet
  facet normal -1.000000e+000 4.558570e-017 -1.402984e-016
    outer loop
      vertex   4.334123e+001 -3.390000e+002 1.000000e+002
      vertex   4.334123e+001 -2.300000e+002 3.650000e+001
      vertex   4.334123e+001 -2.514542e+002 2.952912e+001
    endloop
  endfacet
  facet normal -1.000000e+000 -3.195211e-017 -2.733948e-016
    outer loop
      vertex   4.334123e+001 -2.300000e+002 3.650000e+001
      vertex   4.334123e+001 -3.390000e+002 1.000000e+002
      vertex   4.334123e+001 0.000000e+000 3.500000e+001
    endloop
  endfacet
  facet normal -0.000000e+000 1.000000e+000 0.000000e+000
    outer loop
      vertex   -4.400000e+001 -3.390000e+002 1.000000e+002
      vertex   4.334123e+001 -3.390000e+002 1.000000e+002
      vertex   4.334123e+001 -3.390000e+002 -2.000000e+002
    endloop
  endfacet
  facet normal 0.000000e+000 1.000000e+000 0.000000e+000
    outer loop
      vertex   4.334123e+001 -3.390000e+002 -2.000000e+002
      vertex   -4.400000e+001 -3.390000e+002 -2.000000e+002
      vertex   -4.400000e+001 -3.390000e+002 1.000000e+002
    endloop
  endfacet
  facet normal -0.000000e+000 -1.000000e+000 0.000000e+000
    outer loop
      vertex   4.334123e+001 3.390000e+002 1.000000e+002
      vertex   -4.400000e+001 3.390000e+002 1.000000e+002
      vertex   -4.400000e+001 3.390000e+002 -2.000000e+002
    endloop
  endfacet
  facet normal 0.000000e+000 -1.000000e+000 0.000000e+000
    outer loop
      vertex   -4.400000e+001 3.390000e+002 -2.000000e+002
      vertex   4.334123e+001 3.390000e+002 -2.000000e+002
      vertex   4.334123e+001 3.390000e+002 1.000000e+002
    endloop
  endfacet
  facet normal 0.000000e+000 0.000000e+000 1.000000e+000
    outer loop
      vertex   -4.400000e+001 3.390000e+002 -2.000000e+002
      vertex   -4.400000e+001 -3.390000e+002 -2.000000e+002
      vertex   4.334123e+001 -3.390000e+002 -2.000000e+002
    endloop
  endfacet
  facet normal 0.000000e+000 -0.000000e+000 1.000000e+000
    outer loop
      vertex   4.334123e+001 -3.390000e+002 -2.000000e+002
      vertex   4.334123e+001 3.390000e+002 -2.000000e+002
      vertex   -4.400000e+001 3.390000e+002 -2.000000e+002
    endloop
  endfacet
  facet normal 2.130762e-015 -9.510565e-001 3.090170e-001
    outer loop
      vertex   9.296535e+001 2.595291e+002 -2.145416e+001
      vertex   9.296535e+001 2.665000e+002 -1.587882e-014
      vertex   4.334123e+001 2.665000e+002 -1.587882e-014
    endloop
  endfacet
  facet normal 6.537564e-016 -5.877853e-001 8.090170e-001
    outer loop
      vertex   9.296535e+001 2.412791e+002 -3.471356e+001
      vertex   9.296535e+001 2.595291e+002 -2.145416e+001
      vertex   4.334123e+001 2.595291e+002 -2.145416e+001
    endloop
  endfacet
  facet normal 1.749927e-016 -1.564345e-001 9.876883e-001
    outer loop
      vertex   9.296535e+001 2.412791e+002 -3.471356e+001
      vertex   4.334123e+001 2.412791e+002 -3.471356e+001
      vertex   4.334123e+001 2.300000e+002 -3.650000e+001
    endloop
  endfacet
  facet normal -3.597607e-002 -4.839505e-017 9.993527e-001
    outer loop
      vertex   4.334123e+001 2.300000e+002 -3.650000e+001
      vertex   9.296535e+001 2.187209e+002 -3.471356e+001
      vertex   9.296535e+001 2.412791e+002 -3.471356e+001
    endloop
  endfacet
  facet normal -6.537564e-016 5.877853e-001 8.090170e-001
    outer loop
      vertex   9.296535e+001 2.004709e+002 -2.145416e+001
      vertex   9.296535e+001 2.187209e+002 -3.471356e+001
      vertex   4.334123e+001 2.187209e+002 -3.471356e+001
    endloop
  endfacet
  facet normal -1.065381e-015 9.510565e-001 3.090170e-001
    outer loop
      vertex   9.296535e+001 1.935000e+002 6.470989e-015
      vertex   9.296535e+001 2.004709e+002 -2.145416e+001
      vertex   4.334123e+001 2.004709e+002 -2.145416e+001
    endloop
  endfacet
  facet normal -9.927413e-016 9.510565e-001 -3.090170e-001
    outer loop
      vertex   9.296535e+001 2.004709e+002 2.145416e+001
      vertex   9.296535e+001 1.935000e+002 6.470989e-015
      vertex   4.334123e+001 1.935000e+002 -2.468933e-015
    endloop
  endfacet
  facet normal -6.537564e-016 5.877853e-001 -8.090170e-001
    outer loop
      vertex   9.296535e+001 2.187209e+002 3.471356e+001
      vertex   9.296535e+001 2.004709e+002 2.145416e+001
      vertex   4.334123e+001 2.004709e+002 2.145416e+001
    endloop
  endfacet
  facet normal 0.000000e+000 -0.000000e+000 -1.000000e+000
    outer loop
      vertex   9.296535e+001 2.412791e+002 3.471356e+001
      vertex   9.296535e+001 2.187209e+002 3.471356e+001
      vertex   4.334123e+001 2.187209e+002 3.471356e+001
    endloop
  endfacet
  facet normal 6.537564e-016 -5.877853e-001 -8.090170e-001
    outer loop
      vertex   9.296535e+001 2.595291e+002 2.145416e+001
      vertex   9.296535e+001 2.412791e+002 3.471356e+001
      vertex   4.334123e+001 2.412791e+002 3.471356e+001
    endloop
  endfacet
  facet normal 1.065381e-015 -9.510565e-001 -3.090170e-001
    outer loop
      vertex   9.296535e+001 2.665000e+002 -1.587882e-014
      vertex   9.296535e+001 2.595291e+002 2.145416e+001
      vertex   4.334123e+001 2.595291e+002 2.145416e+001
    endloop
  endfacet
  facet normal 2.130762e-015 -9.510565e-001 -3.090170e-001
    outer loop
      vertex   4.334123e+001 2.595291e+002 2.145416e+001
      vertex   4.334123e+001 2.665000e+002 -1.587882e-014
      vertex   9.296535e+001 2.665000e+002 -1.587882e-014
    endloop
  endfacet
  facet normal 6.537564e-016 -5.877853e-001 -8.090170e-001
    outer loop
      vertex   4.334123e+001 2.412791e+002 3.471356e+001
      vertex   4.334123e+001 2.595291e+002 2.145416e+001
      vertex   9.296535e+001 2.595291e+002 2.145416e+001
    endloop
  endfacet
  facet normal 0.000000e+000 0.000000e+000 -1.000000e+000
    outer loop
      vertex   4.334123e+001 2.187209e+002 3.471356e+001
      vertex   4.334123e+001 2.412791e+002 3.471356e+001
      vertex   9.296535e+001 2.412791e+002 3.471356e+001
    endloop
  endfacet
  facet normal -6.537564e-016 5.877853e-001 -8.090170e-001
    outer loop
      vertex   4.334123e+001 2.004709e+002 2.145416e+001
      vertex   4.334123e+001 2.187209e+002 3.471356e+001
      vertex   9.296535e+001 2.187209e+002 3.471356e+001
    endloop
  endfacet
  facet normal -1.065381e-015 9.510565e-001 -3.090170e-001
    outer loop
      vertex   4.334123e+001 1.935000e+002 -2.468933e-015
      vertex   4.334123e+001 2.004709e+002 2.145416e+001
      vertex   9.296535e+001 2.004709e+002 2.145416e+001
    endloop
  endfacet
  facet normal -1.138020e-015 9.510565e-001 3.090170e-001
    outer loop
      vertex   4.334123e+001 2.004709e+002 -2.145416e+001
      vertex   4.334123e+001 1.935000e+002 -2.468933e-015
      vertex   9.296535e+001 1.935000e+002 6.470989e-015
    endloop
  endfacet
  facet normal -6.537564e-016 5.877853e-001 8.090170e-001
    outer loop
      vertex   4.334123e+001 2.187209e+002 -3.471356e+001
      vertex   4.334123e+001 2.004709e+002 -2.145416e+001
      vertex   9.296535e+001 2.004709e+002 -2.145416e+001
    endloop
  endfacet
  facet normal -1.733845e-016 1.564345e-001 9.876883e-001
    outer loop
      vertex   4.334123e+001 2.300000e+002 -3.650000e+001
      vertex   4.334123e+001 2.187209e+002 -3.471356e+001
      vertex   9.296535e+001 2.187209e+002 -3.471356e+001
    endloop
  endfacet
  facet normal 6.537564e-016 -5.877853e-001 8.090170e-001
    outer loop
      vertex   4.334123e+001 2.595291e+002 -2.145416e+001
      vertex   4.334123e+001 2.412791e+002 -3.471356e+001
      vertex   9.296535e+001 2.412791e+002 -3.471356e+001
    endloop
  endfacet
  facet normal 1.065381e-015 -9.510565e-001 3.090170e-001
    outer loop
      vertex   4.334123e+001 2.665000e+002 -1.587882e-014
      vertex   4.334123e+001 2.595291e+002 -2.145416e+001
      vertex   9.296535e+001 2.595291e+002 -2.145416e+001
    endloop
  endfacet
  facet normal 0.000000e+000 3.090170e-001 -9.510565e-001
    outer loop
      vertex   4.334123e+001 -2.514542e+002 2.952912e+001
      vertex   4.334123e+001 -2.300000e+002 3.650000e+001
      vertex   9.296535e+001 -2.300000e+002 3.650000e+001
    endloop
  endfacet
  facet normal 0.000000e+000 8.090170e-001 -5.877853e-001
    outer loop
      vertex   4.334123e+001 -2.647136e+002 1.127912e+001
      vertex   4.334123e+001 -2.514542e+002 2.952912e+001
      vertex   9.296535e+001 -2.514542e+002 2.952912e+001
    endloop
  endfacet
  facet normal 3.597607e-002 9.993527e-001 -0.000000e+000
    outer loop
      vertex   4.334123e+001 -2.647136e+002 -1.127912e+001
      vertex   4.334123e+001 -2.647136e+002 1.127912e+001
      vertex   9.296535e+001 -2.665000e+002 -1.364384e-014
    endloop
  endfacet
  facet normal 0.000000e+000 9.876883e-001 -1.564345e-001
    outer loop
      vertex   4.334123e+001 -2.647136e+002 1.127912e+001
      vertex   9.296535e+001 -2.647136e+002 1.127912e+001
      vertex   9.296535e+001 -2.665000e+002 -1.364384e-014
    endloop
  endfacet
  facet normal 0.000000e+000 8.090170e-001 5.877853e-001
    outer loop
      vertex   4.334123e+001 -2.514542e+002 -2.952912e+001
      vertex   4.334123e+001 -2.647136e+002 -1.127912e+001
      vertex   9.296535e+001 -2.647136e+002 -1.127912e+001
    endloop
  endfacet
  facet normal 0.000000e+000 3.090170e-001 9.510565e-001
    outer loop
      vertex   4.334123e+001 -2.300000e+002 -3.650000e+001
      vertex   4.334123e+001 -2.514542e+002 -2.952912e+001
      vertex   9.296535e+001 -2.514542e+002 -2.952912e+001
    endloop
  endfacet
  facet normal 0.000000e+000 -3.090170e-001 9.510565e-001
    outer loop
      vertex   4.334123e+001 -2.085458e+002 -2.952912e+001
      vertex   4.334123e+001 -2.300000e+002 -3.650000e+001
      vertex   9.296535e+001 -2.300000e+002 -3.650000e+001
    endloop
  endfacet
  facet normal 0.000000e+000 -8.090170e-001 5.877853e-001
    outer loop
      vertex   4.334123e+001 -1.952864e+002 -1.127912e+001
      vertex   4.334123e+001 -2.085458e+002 -2.952912e+001
      vertex   9.296535e+001 -2.085458e+002 -2.952912e+001
    endloop
  endfacet
  facet normal 0.000000e+000 -1.000000e+000 0.000000e+000
    outer loop
      vertex   4.334123e+001 -1.952864e+002 1.127912e+001
      vertex   4.334123e+001 -1.952864e+002 -1.127912e+001
      vertex   9.296535e+001 -1.952864e+002 -1.127912e+001
    endloop
  endfacet
  facet normal 0.000000e+000 -8.090170e-001 -5.877853e-001
    outer loop
      vertex   4.334123e+001 -2.085458e+002 2.952912e+001
      vertex   4.334123e+001 -1.952864e+002 1.127912e+001
      vertex   9.296535e+001 -1.952864e+002 1.127912e+001
    endloop
  endfacet
  facet normal 0.000000e+000 -3.090170e-001 -9.510565e-001
    outer loop
      vertex   4.334123e+001 -2.300000e+002 3.650000e+001
      vertex   4.334123e+001 -2.085458e+002 2.952912e+001
      vertex   9.296535e+001 -2.085458e+002 2.952912e+001
    endloop
  endfacet
  facet normal 0.000000e+000 -3.090170e-001 -9.510565e-001
    outer loop
      vertex   9.296535e+001 -2.085458e+002 2.952912e+001
      vertex   9.296535e+001 -2.300000e+002 3.650000e+001
      vertex   4.334123e+001 -2.300000e+002 3.650000e+001
    endloop
  endfacet
  facet normal 0.000000e+000 -8.090170e-001 -5.877853e-001
    outer loop
      vertex   9.296535e+001 -1.952864e+002 1.127912e+001
      vertex   9.296535e+001 -2.085458e+002 2.952912e+001
      vertex   4.334123e+001 -2.085458e+002 2.952912e+001
    endloop
  endfacet
  facet normal 0.000000e+000 -1.000000e+000 0.000000e+000
    outer loop
      vertex   9.296535e+001 -1.952864e+002 -1.127912e+001
      vertex   9.296535e+001 -1.952864e+002 1.127912e+001
      vertex   4.334123e+001 -1.952864e+002 1.127912e+001
    endloop
  endfacet
  facet normal 0.000000e+000 -8.090170e-001 5.877853e-001
    outer loop
      vertex   9.296535e+001 -2.085458e+002 -2.952912e+001
      vertex   9.296535e+001 -1.952864e+002 -1.127912e+001
      vertex   4.334123e+001 -1.952864e+002 -1.127912e+001
    endloop
  endfacet
  facet normal 0.000000e+000 -3.090170e-001 9.510565e-001
    outer loop
      vertex   9.296535e+001 -2.300000e+002 -3.650000e+001
      vertex   9.296535e+001 -2.085458e+002 -2.952912e+001
      vertex   4.334123e+001 -2.085458e+002 -2.952912e+001
    endloop
  endfacet
  facet normal 0.000000e+000 3.090170e-001 9.510565e-001
    outer loop
      vertex   9.296535e+001 -2.514542e+002 -2.952912e+001
      vertex   9.296535e+001 -2.300000e+002 -3.650000e+001
      vertex   4.334123e+001 -2.300000e+002 -3.650000e+001
    endloop
  endfacet
  facet normal 0.000000e+000 8.090170e-001 5.877853e-001
    outer loop
      vertex   9.296535e+001 -2.647136e+002 -1.127912e+001
      vertex   9.296535e+001 -2.514542e+002 -2.952912e+001
      vertex   4.334123e+001 -2.514542e+002 -2.952912e+001
    endloop
  endfacet
  facet normal 0.000000e+000 9.876883e-001 1.564345e-001
    outer loop
      vertex   9.296535e+001 -2.665000e+002 -1.364384e-014
      vertex   9.296535e+001 -2.647136e+002 -1.127912e+001
      vertex   4.334123e+001 -2.647136e+002 -1.127912e+001
    endloop
  endfacet
  facet normal 0.000000e+000 8.090170e-001 -5.877853e-001
    outer loop
      vertex   9.296535e+001 -2.514542e+002 2.952912e+001
      vertex   9.296535e+001 -2.647136e+002 1.127912e+001
      vertex   4.334123e+001 -2.647136e+002 1.127912e+001
    endloop
  endfacet
  facet normal 0.000000e+000 3.090170e-001 -9.510565e-001
    outer loop
      vertex   9.296535e+001 -2.300000e+002 3.650000e+001
      vertex   9.296535e+001 -2.514542e+002 2.952912e+001
      vertex   4.334123e+001 -2.514542e+002 2.952912e+001
    endloop
  endfacet
  facet normal 1.000000e+000 -4.928832e-016 6.214083e-016
    outer loop
      vertex   -4.400000e+001 -3.390000e+002 -2.000000e+002
      vertex   -4.400000e+001 -2.831559e+001 -2.057248e+001
      vertex   -4.400000e+001 -2.085458e+002 -2.952912e+001
    endloop
  endfacet
  facet normal 1.000000e+000 -5.269938e-016 -5.085207e-016
    outer loop
      vertex   -4.400000e+001 -1.952864e+002 -1.127912e+001
      vertex   -4.400000e+001 -2.831559e+001 -2.057248e+001
      vertex   -4.400000e+001 -3.500000e+001 4.286264e-015
    endloop
  endfacet
  facet normal 1.000000e+000 3.513424e-016 1.832386e-015
    outer loop
      vertex   -4.400000e+001 -3.390000e+002 1.000000e+002
      vertex   -4.400000e+001 -1.081559e+001 3.328698e+001
      vertex   -4.400000e+001 -2.885842e-014 3.500000e+001
    endloop
  endfacet
  facet normal 1.000000e+000 -4.793078e-016 3.482375e-016
    outer loop
      vertex   -4.400000e+001 -2.831559e+001 -2.057248e+001
      vertex   -4.400000e+001 -1.952864e+002 -1.127912e+001
      vertex   -4.400000e+001 -2.085458e+002 -2.952912e+001
    endloop
  endfacet
  facet normal 1.000000e+000 -5.627776e-016 0.000000e+000
    outer loop
      vertex   -4.400000e+001 -3.500000e+001 4.286264e-015
      vertex   -4.400000e+001 -1.952864e+002 1.127912e+001
      vertex   -4.400000e+001 -1.952864e+002 -1.127912e+001
    endloop
  endfacet
  facet normal 1.000000e+000 2.046871e-017 1.067522e-016
    outer loop
      vertex   -4.400000e+001 -2.885842e-014 3.500000e+001
      vertex   -4.400000e+001 3.390000e+002 1.000000e+002
      vertex   -4.400000e+001 -3.390000e+002 1.000000e+002
    endloop
  endfacet
  facet normal 1.000000e+000 -5.269938e-016 5.085207e-016
    outer loop
      vertex   -4.400000e+001 -3.500000e+001 4.286264e-015
      vertex   -4.400000e+001 -2.831559e+001 2.057248e+001
      vertex   -4.400000e+001 -1.952864e+002 1.127912e+001
    endloop
  endfacet
  facet normal 1.000000e+000 3.698611e-016 -1.715463e-015
    outer loop
      vertex   -4.400000e+001 -2.885842e-014 3.500000e+001
      vertex   -4.400000e+001 1.081559e+001 3.328698e+001
      vertex   -4.400000e+001 3.390000e+002 1.000000e+002
    endloop
  endfacet
  facet normal 1.000000e+000 -4.793078e-016 -3.482375e-016
    outer loop
      vertex   -4.400000e+001 -2.831559e+001 2.057248e+001
      vertex   -4.400000e+001 -2.085458e+002 2.952912e+001
      vertex   -4.400000e+001 -1.952864e+002 1.127912e+001
    endloop
  endfacet
  facet normal 1.000000e+000 -5.574627e-016 -1.831096e-015
    outer loop
      vertex   -4.400000e+001 -2.831559e+001 2.057248e+001
      vertex   -4.400000e+001 -3.390000e+002 1.000000e+002
      vertex   -4.400000e+001 -2.300000e+002 3.650000e+001
    endloop
  endfacet
  facet normal 1.000000e+000 -6.847593e-017 0.000000e+000
    outer loop
      vertex   -4.400000e+001 3.390000e+002 -2.000000e+002
      vertex   -4.400000e+001 3.390000e+002 1.000000e+002
      vertex   -4.400000e+001 3.500000e+001 0.000000e+000
    endloop
  endfacet
  facet normal 1.000000e+000 2.435349e-016 1.302043e-015
    outer loop
      vertex   -4.400000e+001 -3.390000e+002 1.000000e+002
      vertex   -4.400000e+001 -2.831559e+001 2.057248e+001
      vertex   -4.400000e+001 -1.081559e+001 3.328698e+001
    endloop
  endfacet
  facet normal 1.000000e+000 -5.454228e-016 -1.678639e-015
    outer loop
      vertex   -4.400000e+001 -2.300000e+002 3.650000e+001
      vertex   -4.400000e+001 -2.085458e+002 2.952912e+001
      vertex   -4.400000e+001 -2.831559e+001 2.057248e+001
    endloop
  endfacet
  facet normal 1.000000e+000 0.000000e+000 -4.162179e-017
    outer loop
      vertex   -4.400000e+001 -3.390000e+002 -2.000000e+002
      vertex   -4.400000e+001 3.390000e+002 -2.000000e+002
      vertex   -4.400000e+001 1.081559e+001 -3.328698e+001
    endloop
  endfacet
  facet normal 1.000000e+000 1.264048e-016 2.962186e-016
    outer loop
      vertex   -4.400000e+001 3.500000e+001 0.000000e+000
      vertex   -4.400000e+001 2.831559e+001 -2.057248e+001
      vertex   -4.400000e+001 3.390000e+002 -2.000000e+002
    endloop
  endfacet
  facet normal 1.000000e+000 2.765767e-016 -1.256565e-015
    outer loop
      vertex   -4.400000e+001 1.081559e+001 3.328698e+001
      vertex   -4.400000e+001 2.831559e+001 2.057248e+001
      vertex   -4.400000e+001 3.390000e+002 1.000000e+002
    endloop
  endfacet
  facet normal 1.000000e+000 1.823428e-016 -5.611935e-016
    outer loop
      vertex   -4.400000e+001 -3.390000e+002 1.000000e+002
      vertex   -4.400000e+001 -2.514542e+002 2.952912e+001
      vertex   -4.400000e+001 -2.300000e+002 3.650000e+001
    endloop
  endfacet
  facet normal 1.000000e+000 6.415638e-016 -1.387821e-015
    outer loop
      vertex   -4.400000e+001 1.081559e+001 -3.328698e+001
      vertex   -4.400000e+001 -1.081559e+001 -3.328698e+001
      vertex   -4.400000e+001 -3.390000e+002 -2.000000e+002
    endloop
  endfacet
  facet normal 1.000000e+000 6.779630e-016 -4.625929e-017
    outer loop
      vertex   -4.400000e+001 -3.390000e+002 1.000000e+002
      vertex   -4.400000e+001 -3.390000e+002 -2.000000e+002
      vertex   -4.400000e+001 -2.647136e+002 -1.127912e+001
    endloop
  endfacet
  facet normal 1.000000e+000 3.837334e-017 -3.248218e-016
    outer loop
      vertex   -4.400000e+001 2.831559e+001 2.057248e+001
      vertex   -4.400000e+001 3.500000e+001 0.000000e+000
      vertex   -4.400000e+001 3.390000e+002 1.000000e+002
    endloop
  endfacet
  facet normal 1.000000e+000 4.521380e-016 -1.014926e-015
    outer loop
      vertex   -4.400000e+001 -1.081559e+001 -3.328698e+001
      vertex   -4.400000e+001 -2.831559e+001 -2.057248e+001
      vertex   -4.400000e+001 -3.390000e+002 -2.000000e+002
    endloop
  endfacet
  facet normal 1.000000e+000 7.472582e-016 -0.000000e+000
    outer loop
      vertex   -4.400000e+001 -2.647136e+002 -1.127912e+001
      vertex   -4.400000e+001 -2.647136e+002 1.127912e+001
      vertex   -4.400000e+001 -3.390000e+002 1.000000e+002
    endloop
  endfacet
  facet normal 1.000000e+000 -1.056145e-016 3.250480e-016
    outer loop
      vertex   -4.400000e+001 -2.085458e+002 -2.952912e+001
      vertex   -4.400000e+001 -2.300000e+002 -3.650000e+001
      vertex   -4.400000e+001 -3.390000e+002 -2.000000e+002
    endloop
  endfacet
  facet normal 1.000000e+000 1.969410e-016 1.430860e-016
    outer loop
      vertex   -4.400000e+001 -3.390000e+002 -2.000000e+002
      vertex   -4.400000e+001 -2.514542e+002 -2.952912e+001
      vertex   -4.400000e+001 -2.647136e+002 -1.127912e+001
    endloop
  endfacet
  facet normal 1.000000e+000 4.000921e-016 -2.906839e-016
    outer loop
      vertex   -4.400000e+001 -2.647136e+002 1.127912e+001
      vertex   -4.400000e+001 -2.514542e+002 2.952912e+001
      vertex   -4.400000e+001 -3.390000e+002 1.000000e+002
    endloop
  endfacet
  facet normal 1.000000e+000 6.800601e-017 2.093010e-016
    outer loop
      vertex   -4.400000e+001 -3.390000e+002 -2.000000e+002
      vertex   -4.400000e+001 -2.300000e+002 -3.650000e+001
      vertex   -4.400000e+001 -2.514542e+002 -2.952912e+001
    endloop
  endfacet
  facet normal 1.000000e+000 5.019108e-016 9.464193e-016
    outer loop
      vertex   -4.400000e+001 2.831559e+001 -2.057248e+001
      vertex   -4.400000e+001 1.081559e+001 -3.328698e+001
      vertex   -4.400000e+001 3.390000e+002 -2.000000e+002
    endloop
  endfacet
  facet normal 0.000000e+000 3.090170e-001 -9.510565e-001
    outer loop
      vertex   -9.296535e+001 -2.514542e+002 2.952912e+001
      vertex   -9.296535e+001 -2.300000e+002 3.650000e+001
      vertex   -4.400000e+001 -2.300000e+002 3.650000e+001
    endloop
  endfacet
  facet normal 0.000000e+000 8.090170e-001 -5.877853e-001
    outer loop
      vertex   -9.296535e+001 -2.647136e+002 1.127912e+001
      vertex   -9.296535e+001 -2.514542e+002 2.952912e+001
      vertex   -4.400000e+001 -2.514542e+002 2.952912e+001
    endloop
  endfacet
  facet normal 0.000000e+000 1.000000e+000 0.000000e+000
    outer loop
      vertex   -9.296535e+001 -2.647136e+002 -1.127912e+001
      vertex   -9.296535e+001 -2.647136e+002 1.127912e+001
      vertex   -4.400000e+001 -2.647136e+002 1.127912e+001
    endloop
  endfacet
  facet normal 0.000000e+000 8.090170e-001 5.877853e-001
    outer loop
      vertex   -9.296535e+001 -2.514542e+002 -2.952912e+001
      vertex   -9.296535e+001 -2.647136e+002 -1.127912e+001
      vertex   -4.400000e+001 -2.647136e+002 -1.127912e+001
    endloop
  endfacet
  facet normal 0.000000e+000 3.090170e-001 9.510565e-001
    outer loop
      vertex   -9.296535e+001 -2.300000e+002 -3.650000e+001
      vertex   -9.296535e+001 -2.514542e+002 -2.952912e+001
      vertex   -4.400000e+001 -2.514542e+002 -2.952912e+001
    endloop
  endfacet
  facet normal 0.000000e+000 -3.090170e-001 9.510565e-001
    outer loop
      vertex   -9.296535e+001 -2.085458e+002 -2.952912e+001
      vertex   -9.296535e+001 -2.300000e+002 -3.650000e+001
      vertex   -4.400000e+001 -2.300000e+002 -3.650000e+001
    endloop
  endfacet
  facet normal 0.000000e+000 -8.090170e-001 5.877853e-001
    outer loop
      vertex   -9.296535e+001 -1.952864e+002 -1.127912e+001
      vertex   -9.296535e+001 -2.085458e+002 -2.952912e+001
      vertex   -4.400000e+001 -2.085458e+002 -2.952912e+001
    endloop
  endfacet
  facet normal 0.000000e+000 -1.000000e+000 0.000000e+000
    outer loop
      vertex   -9.296535e+001 -1.952864e+002 1.127912e+001
      vertex   -9.296535e+001 -1.952864e+002 -1.127912e+001
      vertex   -4.400000e+001 -1.952864e+002 -1.127912e+001
    endloop
  endfacet
  facet normal 0.000000e+000 -8.090170e-001 -5.877853e-001
    outer loop
      vertex   -9.296535e+001 -2.085458e+002 2.952912e+001
      vertex   -9.296535e+001 -1.952864e+002 1.127912e+001
      vertex   -4.400000e+001 -1.952864e+002 1.127912e+001
    endloop
  endfacet
  facet normal 0.000000e+000 -3.090170e-001 -9.510565e-001
    outer loop
      vertex   -9.296535e+001 -2.300000e+002 3.650000e+001
      vertex   -9.296535e+001 -2.085458e+002 2.952912e+001
      vertex   -4.400000e+001 -2.085458e+002 2.952912e+001
    endloop
  endfacet
  facet normal 0.000000e+000 -3.090170e-001 -9.510565e-001
    outer loop
      vertex   -4.400000e+001 -2.085458e+002 2.952912e+001
      vertex   -4.400000e+001 -2.300000e+002 3.650000e+001
      vertex   -9.296535e+001 -2.300000e+002 3.650000e+001
    endloop
  endfacet
  facet normal 0.000000e+000 -8.090170e-001 -5.877853e-001
    outer loop
      vertex   -4.400000e+001 -1.952864e+002 1.127912e+001
      vertex   -4.400000e+001 -2.085458e+002 2.952912e+001
      vertex   -9.296535e+001 -2.085458e+002 2.952912e+001
    endloop
  endfacet
  facet normal 0.000000e+000 -1.000000e+000 0.000000e+000
    outer loop
      vertex   -4.400000e+001 -1.952864e+002 -1.127912e+001
      vertex   -4.400000e+001 -1.952864e+002 1.127912e+001
      vertex   -9.296535e+001 -1.952864e+002 1.127912e+001
    endloop
  endfacet
  facet normal 0.000000e+000 -8.090170e-001 5.877853e-001
    outer loop
      vertex   -4.400000e+001 -2.085458e+002 -2.952912e+001
      vertex   -4.400000e+001 -1.952864e+002 -1.127912e+001
      vertex   -9.296535e+001 -1.952864e+002 -1.127912e+001
    endloop
  endfacet
  facet normal 0.000000e+000 -3.090170e-001 9.510565e-001
    outer loop
      vertex   -4.400000e+001 -2.300000e+002 -3.650000e+001
      vertex   -4.400000e+001 -2.085458e+002 -2.952912e+001
      vertex   -9.296535e+001 -2.085458e+002 -2.952912e+001
    endloop
  endfacet
  facet normal 0.000000e+000 3.090170e-001 9.510565e-001
    outer loop
      vertex   -4.400000e+001 -2.514542e+002 -2.952912e+001
      vertex   -4.400000e+001 -2.300000e+002 -3.650000e+001
      vertex   -9.296535e+001 -2.300000e+002 -3.650000e+001
    endloop
  endfacet
  facet normal 0.000000e+000 8.090170e-001 5.877853e-001
    outer loop
      vertex   -4.400000e+001 -2.647136e+002 -1.127912e+001
      vertex   -4.400000e+001 -2.514542e+002 -2.952912e+001
      vertex   -9.296535e+001 -2.514542e+002 -2.952912e+001
    endloop
  endfacet
  facet normal 0.000000e+000 1.000000e+000 0.000000e+000
    outer loop
      vertex   -4.400000e+001 -2.647136e+002 1.127912e+001
      vertex   -4.400000e+001 -2.647136e+002 -1.127912e+001
      vertex   -9.296535e+001 -2.647136e+002 -1.127912e+001
    endloop
  endfacet
  facet normal 0.000000e+000 8.090170e-001 -5.877853e-001
    outer loop
      vertex   -4.400000e+001 -2.514542e+002 2.952912e+001
      vertex   -4.400000e+001 -2.647136e+002 1.127912e+001
      vertex   -9.296535e+001 -2.647136e+002 1.127912e+001
    endloop
  endfacet
  facet normal 0.000000e+000 3.090170e-001 -9.510565e-001
    outer loop
      vertex   -4.400000e+001 -2.300000e+002 3.650000e+001
      vertex   -4.400000e+001 -2.514542e+002 2.952912e+001
      vertex   -9.296535e+001 -2.514542e+002 2.952912e+001
    endloop
  endfacet
  facet normal 8.738405e-016 -9.510565e-001 3.090170e-001
    outer loop
      vertex   -4.400000e+001 2.831559e+001 -2.057248e+001
      vertex   -4.400000e+001 3.500000e+001 0.000000e+000
      vertex   -1.200000e+002 3.500000e+001 0.000000e+000
    endloop
  endfacet
  facet normal 5.605769e-016 -5.877853e-001 8.090170e-001
    outer loop
      vertex   -4.400000e+001 1.081559e+001 -3.328698e+001
      vertex   -4.400000e+001 2.831559e+001 -2.057248e+001
      vertex   -1.200000e+002 2.831559e+001 -2.057248e+001
    endloop
  endfacet
  facet normal -2.928778e-031 3.207819e-016 1.000000e+000
    outer loop
      vertex   -4.400000e+001 -1.081559e+001 -3.328698e+001
      vertex   -4.400000e+001 1.081559e+001 -3.328698e+001
      vertex   -1.200000e+002 1.081559e+001 -3.328698e+001
    endloop
  endfacet
  facet normal -5.440894e-016 5.877853e-001 8.090170e-001
    outer loop
      vertex   -4.400000e+001 -2.831559e+001 -2.057248e+001
      vertex   -4.400000e+001 -1.081559e+001 -3.328698e+001
      vertex   -1.200000e+002 -1.081559e+001 -3.328698e+001
    endloop
  endfacet
  facet normal -9.233031e-016 9.510565e-001 3.090170e-001
    outer loop
      vertex   -4.400000e+001 -3.500000e+001 4.286264e-015
      vertex   -4.400000e+001 -2.831559e+001 -2.057248e+001
      vertex   -1.200000e+002 -2.831559e+001 -2.057248e+001
    endloop
  endfacet
  facet normal -8.738405e-016 9.510565e-001 -3.090170e-001
    outer loop
      vertex   -4.400000e+001 -2.831559e+001 2.057248e+001
      vertex   -4.400000e+001 -3.500000e+001 4.286264e-015
      vertex   -1.200000e+002 -3.500000e+001 4.286264e-015
    endloop
  endfacet
  facet normal -5.605769e-016 5.877853e-001 -8.090170e-001
    outer loop
      vertex   -4.400000e+001 -1.081559e+001 3.328698e+001
      vertex   -4.400000e+001 -2.831559e+001 2.057248e+001
      vertex   -1.200000e+002 -2.831559e+001 2.057248e+001
    endloop
  endfacet
  facet normal 1.463973e-016 -1.564345e-001 -9.876883e-001
    outer loop
      vertex   -1.200000e+002 1.081559e+001 3.328698e+001
      vertex   -4.400000e+001 1.081559e+001 3.328698e+001
      vertex   -4.400000e+001 -2.885842e-014 3.500000e+001
    endloop
  endfacet
  facet normal 2.253404e-002 -2.967007e-016 -9.997461e-001
    outer loop
      vertex   -4.400000e+001 -2.885842e-014 3.500000e+001
      vertex   -1.200000e+002 -1.081559e+001 3.328698e+001
      vertex   -1.200000e+002 1.081559e+001 3.328698e+001
    endloop
  endfacet
  facet normal 5.605769e-016 -5.877853e-001 -8.090170e-001
    outer loop
      vertex   -4.400000e+001 2.831559e+001 2.057248e+001
      vertex   -4.400000e+001 1.081559e+001 3.328698e+001
      vertex   -1.200000e+002 1.081559e+001 3.328698e+001
    endloop
  endfacet
  facet normal 9.233031e-016 -9.510565e-001 -3.090170e-001
    outer loop
      vertex   -4.400000e+001 3.500000e+001 0.000000e+000
      vertex   -4.400000e+001 2.831559e+001 2.057248e+001
      vertex   -1.200000e+002 2.831559e+001 2.057248e+001
    endloop
  endfacet
  facet normal 8.738405e-016 -9.510565e-001 -3.090170e-001
    outer loop
      vertex   -1.200000e+002 2.831559e+001 2.057248e+001
      vertex   -1.200000e+002 3.500000e+001 0.000000e+000
      vertex   -4.400000e+001 3.500000e+001 0.000000e+000
    endloop
  endfacet
  facet normal 5.770645e-016 -5.877853e-001 -8.090170e-001
    outer loop
      vertex   -1.200000e+002 1.081559e+001 3.328698e+001
      vertex   -1.200000e+002 2.831559e+001 2.057248e+001
      vertex   -4.400000e+001 2.831559e+001 2.057248e+001
    endloop
  endfacet
  facet normal -1.465611e-016 1.564345e-001 -9.876883e-001
    outer loop
      vertex   -4.400000e+001 -2.885842e-014 3.500000e+001
      vertex   -4.400000e+001 -1.081559e+001 3.328698e+001
      vertex   -1.200000e+002 -1.081559e+001 3.328698e+001
    endloop
  endfacet
  facet normal -5.605769e-016 5.877853e-001 -8.090170e-001
    outer loop
      vertex   -1.200000e+002 -2.831559e+001 2.057248e+001
      vertex   -1.200000e+002 -1.081559e+001 3.328698e+001
      vertex   -4.400000e+001 -1.081559e+001 3.328698e+001
    endloop
  endfacet
  facet normal -9.068156e-016 9.510565e-001 -3.090170e-001
    outer loop
      vertex   -1.200000e+002 -3.500000e+001 4.286264e-015
      vertex   -1.200000e+002 -2.831559e+001 2.057248e+001
      vertex   -4.400000e+001 -2.831559e+001 2.057248e+001
    endloop
  endfacet
  facet normal -8.738405e-016 9.510565e-001 3.090170e-001
    outer loop
      vertex   -1.200000e+002 -2.831559e+001 -2.057248e+001
      vertex   -1.200000e+002 -3.500000e+001 4.286264e-015
      vertex   -4.400000e+001 -3.500000e+001 4.286264e-015
    endloop
  endfacet
  facet normal -5.605769e-016 5.877853e-001 8.090170e-001
    outer loop
      vertex   -1.200000e+002 -1.081559e+001 -3.328698e+001
      vertex   -1.200000e+002 -2.831559e+001 -2.057248e+001
      vertex   -4.400000e+001 -2.831559e+001 -2.057248e+001
    endloop
  endfacet
  facet normal -2.928778e-031 3.207819e-016 1.000000e+000
    outer loop
      vertex   -1.200000e+002 1.081559e+001 -3.328698e+001
      vertex   -1.200000e+002 -1.081559e+001 -3.328698e+001
      vertex   -4.400000e+001 -1.081559e+001 -3.328698e+001
    endloop
  endfacet
  facet normal 5.605769e-016 -5.877853e-001 8.090170e-001
    outer loop
      vertex   -1.200000e+002 2.831559e+001 -2.057248e+001
      vertex   -1.200000e+002 1.081559e+001 -3.328698e+001
      vertex   -4.400000e+001 1.081559e+001 -3.328698e+001
    endloop
  endfacet
  facet normal 9.068156e-016 -9.510565e-001 3.090170e-001
    outer loop
      vertex   -1.200000e+002 3.500000e+001 0.000000e+000
      vertex   -1.200000e+002 2.831559e+001 -2.057248e+001
      vertex   -4.400000e+001 2.831559e+001 -2.057248e+001
    endloop
  endfacet
  facet normal -1.000000e+000 2.686580e-016 -8.729228e-017
    outer loop
      vertex   -1.200000e+002 6.000000e+001 -4.000000e+002
      vertex   -1.200000e+002 2.831559e+001 -2.057248e+001
      vertex   -1.200000e+002 3.500000e+001 0.000000e+000
    endloop
  endfacet
  facet normal -1.000000e+000 -1.283128e-015 5.856488e-017
    outer loop
      vertex   -1.200000e+002 -6.000000e+001 -4.000000e+002
      vertex   -1.200000e+002 -1.081559e+001 -3.328698e+001
      vertex   -1.200000e+002 1.081559e+001 -3.328698e+001
    endloop
  endfacet
  facet normal -1.000000e+000 -3.469447e-016 6.718305e-016
    outer loop
      vertex   -1.200000e+002 -6.000000e+001 1.000000e+002
      vertex   -1.200000e+002 6.000000e+001 1.000000e+002
      vertex   -1.200000e+002 1.081559e+001 3.328698e+001
    endloop
  endfacet
  facet normal -1.000000e+000 1.665335e-015 0.000000e+000
    outer loop
      vertex   -1.200000e+002 3.500000e+001 0.000000e+000
      vertex   -1.200000e+002 6.000000e+001 1.000000e+002
      vertex   -1.200000e+002 6.000000e+001 -4.000000e+002
    endloop
  endfacet
  facet normal -1.000000e+000 -7.977632e-016 -6.533326e-018
    outer loop
      vertex   -1.200000e+002 -6.000000e+001 -4.000000e+002
      vertex   -1.200000e+002 -2.831559e+001 -2.057248e+001
      vertex   -1.200000e+002 -1.081559e+001 -3.328698e+001
    endloop
  endfacet
  facet normal -1.000000e+000 -1.110223e-015 0.000000e+000
    outer loop
      vertex   -1.200000e+002 -6.000000e+001 -4.000000e+002
      vertex   -1.200000e+002 -6.000000e+001 1.000000e+002
      vertex   -1.200000e+002 -3.500000e+001 4.286264e-015
    endloop
  endfacet
  facet normal -1.000000e+000 -8.116632e-016 2.566504e-017
    outer loop
      vertex   -1.200000e+002 -6.000000e+001 1.000000e+002
      vertex   -1.200000e+002 -1.081559e+001 3.328698e+001
      vertex   -1.200000e+002 -2.831559e+001 2.057248e+001
    endloop
  endfacet
  facet normal -1.000000e+000 -3.195675e-016 6.516466e-016
    outer loop
      vertex   -1.200000e+002 6.000000e+001 1.000000e+002
      vertex   -1.200000e+002 2.831559e+001 2.057248e+001
      vertex   -1.200000e+002 1.081559e+001 3.328698e+001
    endloop
  endfacet
  facet normal -1.000000e+000 -6.724947e-016 -1.658840e-016
    outer loop
      vertex   -1.200000e+002 6.000000e+001 -4.000000e+002
      vertex   -1.200000e+002 1.081559e+001 -3.328698e+001
      vertex   -1.200000e+002 2.831559e+001 -2.057248e+001
    endloop
  endfacet
  facet normal -1.000000e+000 -1.791053e-016 -5.819485e-017
    outer loop
      vertex   -1.200000e+002 -3.500000e+001 4.286264e-015
      vertex   -1.200000e+002 -2.831559e+001 -2.057248e+001
      vertex   -1.200000e+002 -6.000000e+001 -4.000000e+002
    endloop
  endfacet
  facet normal -1.000000e+000 -1.283128e-015 -3.219237e-016
    outer loop
      vertex   -1.200000e+002 1.081559e+001 3.328698e+001
      vertex   -1.200000e+002 -1.081559e+001 3.328698e+001
      vertex   -1.200000e+002 -6.000000e+001 1.000000e+002
    endloop
  endfacet
  facet normal -1.000000e+000 -3.469447e-016 -1.222205e-016
    outer loop
      vertex   -1.200000e+002 1.081559e+001 -3.328698e+001
      vertex   -1.200000e+002 6.000000e+001 -4.000000e+002
      vertex   -1.200000e+002 -6.000000e+001 -4.000000e+002
    endloop
  endfacet
  facet normal -1.000000e+000 7.241596e-016 2.352937e-016
    outer loop
      vertex   -1.200000e+002 3.500000e+001 0.000000e+000
      vertex   -1.200000e+002 2.831559e+001 2.057248e+001
      vertex   -1.200000e+002 6.000000e+001 1.000000e+002
    endloop
  endfacet
  facet normal -1.000000e+000 -4.827731e-016 1.568625e-016
    outer loop
      vertex   -1.200000e+002 -2.831559e+001 2.057248e+001
      vertex   -1.200000e+002 -3.500000e+001 4.286264e-015
      vertex   -1.200000e+002 -6.000000e+001 1.000000e+002
    endloop
  endfacet
  facet normal 0.000000e+000 -1.000000e+000 0.000000e+000
    outer loop
      vertex   -1.200000e+002 -6.000000e+001 1.000000e+002
      vertex   -1.200000e+002 -6.000000e+001 -4.000000e+002
      vertex   -1.000000e+002 -6.000000e+001 -4.000000e+002
    endloop
  endfacet
  facet normal 0.000000e+000 -1.000000e+000 0.000000e+000
    outer loop
      vertex   -1.000000e+002 -6.000000e+001 -4.000000e+002
      vertex   -1.000000e+002 -6.000000e+001 1.000000e+002
      vertex   -1.200000e+002 -6.000000e+001 1.000000e+002
    endloop
  endfacet
  facet normal -1.000000e+000 0.000000e+000 -0.000000e+000
    outer loop
      vertex   -1.000000e+002 -6.000000e+001 1.000000e+002
      vertex   -1.000000e+002 -6.000000e+001 -4.000000e+002
      vertex   -1.000000e+002 -6.900000e+001 -4.000000e+002
    endloop
  endfacet
  facet normal -1.000000e+000 0.000000e+000 0.000000e+000
    outer loop
      vertex   -1.000000e+002 -6.900000e+001 -4.000000e+002
      vertex   -1.000000e+002 -6.900000e+001 1.000000e+002
      vertex   -1.000000e+002 -6.000000e+001 1.000000e+002
    endloop
  endfacet
  facet normal 0.000000e+000 -1.000000e+000 0.000000e+000
    outer loop
      vertex   -1.000000e+002 -6.900000e+001 1.000000e+002
      vertex   -1.000000e+002 -6.900000e+001 -4.000000e+002
      vertex   -8.800000e+001 -6.900000e+001 -4.000000e+002
    endloop
  endfacet
  facet normal 0.000000e+000 -1.000000e+000 0.000000e+000
    outer loop
      vertex   -8.800000e+001 -6.900000e+001 -4.000000e+002
      vertex   -8.800000e+001 -6.900000e+001 1.000000e+002
      vertex   -1.000000e+002 -6.900000e+001 1.000000e+002
    endloop
  endfacet
  facet normal -1.000000e+000 0.000000e+000 -0.000000e+000
    outer loop
      vertex   -8.800000e+001 -6.900000e+001 1.000000e+002
      vertex   -8.800000e+001 -6.900000e+001 -4.000000e+002
      vertex   -8.800000e+001 -9.400000e+001 -4.000000e+002
    endloop
  endfacet
  facet normal -1.000000e+000 0.000000e+000 0.000000e+000
    outer loop
      vertex   -8.800000e+001 -9.400000e+001 -4.000000e+002
      vertex   -8.800000e+001 -9.400000e+001 1.000000e+002
      vertex   -8.800000e+001 -6.900000e+001 1.000000e+002
    endloop
  endfacet
  facet normal 0.000000e+000 1.000000e+000 0.000000e+000
    outer loop
      vertex   -8.800000e+001 -9.400000e+001 1.000000e+002
      vertex   -8.800000e+001 -9.400000e+001 -4.000000e+002
      vertex   -9.296535e+001 -9.400000e+001 -4.000000e+002
    endloop
  endfacet
  facet normal 0.000000e+000 1.000000e+000 0.000000e+000
    outer loop
      vertex   -9.296535e+001 -9.400000e+001 -4.000000e+002
      vertex   -9.296535e+001 -9.400000e+001 1.000000e+002
      vertex   -8.800000e+001 -9.400000e+001 1.000000e+002
    endloop
  endfacet
  facet normal -1.000000e+000 0.000000e+000 -0.000000e+000
    outer loop
      vertex   -9.296535e+001 -9.400000e+001 1.000000e+002
      vertex   -9.296535e+001 -9.400000e+001 -4.000000e+002
      vertex   -9.296535e+001 -1.952864e+002 -1.127912e+001
    endloop
  endfacet
  facet normal -1.000000e+000 0.000000e+000 0.000000e+000
    outer loop
      vertex   -9.296535e+001 -9.400000e+001 -4.000000e+002
      vertex   -9.296535e+001 -2.085458e+002 -2.952912e+001
      vertex   -9.296535e+001 -1.952864e+002 -1.127912e+001
    endloop
  endfacet
  facet normal -1.000000e+000 0.000000e+000 0.000000e+000
    outer loop
      vertex   -9.296535e+001 -9.400000e+001 1.000000e+002
      vertex   -9.296535e+001 -1.952864e+002 1.127912e+001
      vertex   -9.296535e+001 -2.085458e+002 2.952912e+001
    endloop
  endfacet
  facet normal -1.000000e+000 0.000000e+000 0.000000e+000
    outer loop
      vertex   -9.296535e+001 -9.400000e+001 -4.000000e+002
      vertex   -9.296535e+001 -2.300000e+002 -3.650000e+001
      vertex   -9.296535e+001 -2.085458e+002 -2.952912e+001
    endloop
  endfacet
  facet normal -1.000000e+000 0.000000e+000 0.000000e+000
    outer loop
      vertex   -9.296535e+001 -4.240000e+002 1.000000e+002
      vertex   -9.296535e+001 -2.647136e+002 1.127912e+001
      vertex   -9.296535e+001 -2.647136e+002 -1.127912e+001
    endloop
  endfacet
  facet normal -1.000000e+000 0.000000e+000 0.000000e+000
    outer loop
      vertex   -9.296535e+001 -1.952864e+002 -1.127912e+001
      vertex   -9.296535e+001 -1.952864e+002 1.127912e+001
      vertex   -9.296535e+001 -9.400000e+001 1.000000e+002
    endloop
  endfacet
  facet normal -1.000000e+000 0.000000e+000 0.000000e+000
    outer loop
      vertex   -9.296535e+001 -4.240000e+002 -4.000000e+002
      vertex   -9.296535e+001 -2.514542e+002 -2.952912e+001
      vertex   -9.296535e+001 -2.300000e+002 -3.650000e+001
    endloop
  endfacet
  facet normal -1.000000e+000 -0.000000e+000 0.000000e+000
    outer loop
      vertex   -9.296535e+001 -2.647136e+002 -1.127912e+001
      vertex   -9.296535e+001 -4.240000e+002 -4.000000e+002
      vertex   -9.296535e+001 -4.240000e+002 1.000000e+002
    endloop
  endfacet
  facet normal -1.000000e+000 0.000000e+000 -0.000000e+000
    outer loop
      vertex   -9.296535e+001 -2.300000e+002 -3.650000e+001
      vertex   -9.296535e+001 -9.400000e+001 -4.000000e+002
      vertex   -9.296535e+001 -4.240000e+002 -4.000000e+002
    endloop
  endfacet
  facet normal -1.000000e+000 0.000000e+000 0.000000e+000
    outer loop
      vertex   -9.296535e+001 -4.240000e+002 1.000000e+002
      vertex   -9.296535e+001 -2.514542e+002 2.952912e+001
      vertex   -9.296535e+001 -2.647136e+002 1.127912e+001
    endloop
  endfacet
  facet normal -1.000000e+000 0.000000e+000 -0.000000e+000
    outer loop
      vertex   -9.296535e+001 -2.647136e+002 -1.127912e+001
      vertex   -9.296535e+001 -2.514542e+002 -2.952912e+001
      vertex   -9.296535e+001 -4.240000e+002 -4.000000e+002
    endloop
  endfacet
  facet normal -1.000000e+000 0.000000e+000 0.000000e+000
    outer loop
      vertex   -9.296535e+001 -4.240000e+002 1.000000e+002
      vertex   -9.296535e+001 -9.400000e+001 1.000000e+002
      vertex   -9.296535e+001 -2.300000e+002 3.650000e+001
    endloop
  endfacet
  facet normal -1.000000e+000 -0.000000e+000 0.000000e+000
    outer loop
      vertex   -9.296535e+001 -2.300000e+002 3.650000e+001
      vertex   -9.296535e+001 -2.514542e+002 2.952912e+001
      vertex   -9.296535e+001 -4.240000e+002 1.000000e+002
    endloop
  endfacet
  facet normal -1.000000e+000 0.000000e+000 0.000000e+000
    outer loop
      vertex   -9.296535e+001 -2.085458e+002 2.952912e+001
      vertex   -9.296535e+001 -2.300000e+002 3.650000e+001
      vertex   -9.296535e+001 -9.400000e+001 1.000000e+002
    endloop
  endfacet
  facet normal 0.000000e+000 -1.000000e+000 -1.110223e-016
    outer loop
      vertex   -9.296535e+001 -4.240000e+002 -4.000000e+002
      vertex   9.296535e+001 -4.240000e+002 -4.000000e+002
      vertex   9.296535e+001 -4.240000e+002 1.000000e+002
    endloop
  endfacet
  facet normal -2.985583e-016 -1.000000e+000 0.000000e+000
    outer loop
      vertex   9.296535e+001 -4.240000e+002 1.000000e+002
      vertex   -9.296535e+001 -4.240000e+002 1.000000e+002
      vertex   -9.296535e+001 -4.240000e+002 -4.000000e+002
    endloop
  endfacet
  facet normal 1.000000e+000 4.454506e-016 1.387779e-016
    outer loop
      vertex   9.296535e+001 -4.240000e+002 1.000000e+002
      vertex   9.296535e+001 -4.240000e+002 -4.000000e+002
      vertex   9.296535e+001 -2.647136e+002 -1.127912e+001
    endloop
  endfacet
  facet normal 1.000000e+000 3.918576e-016 6.206414e-017
    outer loop
      vertex   9.296535e+001 -2.647136e+002 -1.127912e+001
      vertex   9.296535e+001 -2.665000e+002 -1.364384e-014
      vertex   9.296535e+001 -4.240000e+002 1.000000e+002
    endloop
  endfacet
  facet normal 1.000000e+000 0.000000e+000 0.000000e+000
    outer loop
      vertex   9.296535e+001 -9.400000e+001 -4.000000e+002
      vertex   9.296535e+001 -1.952864e+002 -1.127912e+001
      vertex   9.296535e+001 -2.085458e+002 -2.952912e+001
    endloop
  endfacet
  facet normal 1.000000e+000 0.000000e+000 0.000000e+000
    outer loop
      vertex   9.296535e+001 -9.400000e+001 1.000000e+002
      vertex   9.296535e+001 -1.952864e+002 1.127912e+001
      vertex   9.296535e+001 -1.952864e+002 -1.127912e+001
    endloop
  endfacet
  facet normal 1.000000e+000 3.202472e-016 -5.072217e-017
    outer loop
      vertex   9.296535e+001 -2.665000e+002 -1.364384e-014
      vertex   9.296535e+001 -2.647136e+002 1.127912e+001
      vertex   9.296535e+001 -4.240000e+002 1.000000e+002
    endloop
  endfacet
  facet normal 1.000000e+000 3.784851e-016 1.416065e-016
    outer loop
      vertex   9.296535e+001 -4.240000e+002 -4.000000e+002
      vertex   9.296535e+001 -9.400000e+001 -4.000000e+002
      vertex   9.296535e+001 -2.300000e+002 -3.650000e+001
    endloop
  endfacet
  facet normal 1.000000e+000 -0.000000e+000 0.000000e+000
    outer loop
      vertex   9.296535e+001 -1.952864e+002 -1.127912e+001
      vertex   9.296535e+001 -9.400000e+001 -4.000000e+002
      vertex   9.296535e+001 -9.400000e+001 1.000000e+002
    endloop
  endfacet
  facet normal 1.000000e+000 0.000000e+000 0.000000e+000
    outer loop
      vertex   9.296535e+001 -9.400000e+001 1.000000e+002
      vertex   9.296535e+001 -2.300000e+002 3.650000e+001
      vertex   9.296535e+001 -2.085458e+002 2.952912e+001
    endloop
  endfacet
  facet normal 1.000000e+000 1.425436e-016 -4.387040e-016
    outer loop
      vertex   9.296535e+001 -4.240000e+002 1.000000e+002
      vertex   9.296535e+001 -2.514542e+002 2.952912e+001
      vertex   9.296535e+001 -2.300000e+002 3.650000e+001
    endloop
  endfacet
  facet normal 1.000000e+000 2.827658e-016 2.054413e-016
    outer loop
      vertex   9.296535e+001 -4.240000e+002 -4.000000e+002
      vertex   9.296535e+001 -2.514542e+002 -2.952912e+001
      vertex   9.296535e+001 -2.647136e+002 -1.127912e+001
    endloop
  endfacet
  facet normal 1.000000e+000 0.000000e+000 0.000000e+000
    outer loop
      vertex   9.296535e+001 -2.085458e+002 -2.952912e+001
      vertex   9.296535e+001 -2.300000e+002 -3.650000e+001
      vertex   9.296535e+001 -9.400000e+001 -4.000000e+002
    endloop
  endfacet
  facet normal 1.000000e+000 1.682156e-016 -3.602728e-016
    outer loop
      vertex   9.296535e+001 -2.300000e+002 3.650000e+001
      vertex   9.296535e+001 -9.400000e+001 1.000000e+002
      vertex   9.296535e+001 -4.240000e+002 1.000000e+002
    endloop
  endfacet
  facet normal 1.000000e+000 9.514472e-017 2.928253e-016
    outer loop
      vertex   9.296535e+001 -2.300000e+002 -3.650000e+001
      vertex   9.296535e+001 -2.514542e+002 -2.952912e+001
      vertex   9.296535e+001 -4.240000e+002 -4.000000e+002
    endloop
  endfacet
  facet normal 1.000000e+000 2.480990e-016 -1.802545e-016
    outer loop
      vertex   9.296535e+001 -2.647136e+002 1.127912e+001
      vertex   9.296535e+001 -2.514542e+002 2.952912e+001
      vertex   9.296535e+001 -4.240000e+002 1.000000e+002
    endloop
  endfacet
  facet normal 1.000000e+000 -0.000000e+000 0.000000e+000
    outer loop
      vertex   9.296535e+001 -2.085458e+002 2.952912e+001
      vertex   9.296535e+001 -1.952864e+002 1.127912e+001
      vertex   9.296535e+001 -9.400000e+001 1.000000e+002
    endloop
  endfacet
  facet normal -2.794926e-015 1.000000e+000 0.000000e+000
    outer loop
      vertex   9.296535e+001 -9.400000e+001 1.000000e+002
      vertex   9.296535e+001 -9.400000e+001 -4.000000e+002
      vertex   8.800000e+001 -9.400000e+001 -4.000000e+002
    endloop
  endfacet
  facet normal -2.794926e-015 1.000000e+000 0.000000e+000
    outer loop
      vertex   8.800000e+001 -9.400000e+001 -4.000000e+002
      vertex   8.800000e+001 -9.400000e+001 1.000000e+002
      vertex   9.296535e+001 -9.400000e+001 1.000000e+002
    endloop
  endfacet
  facet normal 1.000000e+000 5.551115e-016 0.000000e+000
    outer loop
      vertex   8.800000e+001 -9.400000e+001 1.000000e+002
      vertex   8.800000e+001 -9.400000e+001 -4.000000e+002
      vertex   8.800000e+001 -6.900000e+001 -4.000000e+002
    endloop
  endfacet
  facet normal 1.000000e+000 5.551115e-016 -0.000000e+000
    outer loop
      vertex   8.800000e+001 -6.900000e+001 -4.000000e+002
      vertex   8.800000e+001 -6.900000e+001 1.000000e+002
      vertex   8.800000e+001 -9.400000e+001 1.000000e+002
    endloop
  endfacet
  facet normal 6.308085e-016 -1.000000e+000 0.000000e+000
    outer loop
      vertex   8.800000e+001 -6.900000e+001 1.000000e+002
      vertex   8.800000e+001 -6.900000e+001 -4.000000e+002
      vertex   1.100000e+002 -6.900000e+001 -4.000000e+002
    endloop
  endfacet
  facet normal 1.261617e-015 -1.000000e+000 2.775558e-017
    outer loop
      vertex   1.100000e+002 -6.900000e+001 -4.000000e+002
      vertex   1.100000e+002 -6.900000e+001 1.000000e+002
      vertex   8.800000e+001 -6.900000e+001 1.000000e+002
    endloop
  endfacet
  facet normal 1.000000e+000 0.000000e+000 0.000000e+000
    outer loop
      vertex   1.100000e+002 -6.900000e+001 1.000000e+002
      vertex   1.100000e+002 -6.900000e+001 -4.000000e+002
      vertex   1.100000e+002 6.900000e+001 -4.000000e+002
    endloop
  endfacet
  facet normal 1.000000e+000 0.000000e+000 -0.000000e+000
    outer loop
      vertex   1.100000e+002 6.900000e+001 -4.000000e+002
      vertex   1.100000e+002 6.900000e+001 1.000000e+002
      vertex   1.100000e+002 -6.900000e+001 1.000000e+002
    endloop
  endfacet
  facet normal 0.000000e+000 1.000000e+000 0.000000e+000
    outer loop
      vertex   1.100000e+002 6.900000e+001 1.000000e+002
      vertex   1.100000e+002 6.900000e+001 -4.000000e+002
      vertex   8.800000e+001 6.900000e+001 -4.000000e+002
    endloop
  endfacet
  facet normal 0.000000e+000 1.000000e+000 0.000000e+000
    outer loop
      vertex   8.800000e+001 6.900000e+001 -4.000000e+002
      vertex   8.800000e+001 6.900000e+001 1.000000e+002
      vertex   1.100000e+002 6.900000e+001 1.000000e+002
    endloop
  endfacet
  facet normal 1.000000e+000 0.000000e+000 0.000000e+000
    outer loop
      vertex   8.800000e+001 6.900000e+001 1.000000e+002
      vertex   8.800000e+001 6.900000e+001 -4.000000e+002
      vertex   8.800000e+001 9.400000e+001 -4.000000e+002
    endloop
  endfacet
  facet normal 1.000000e+000 0.000000e+000 -0.000000e+000
    outer loop
      vertex   8.800000e+001 9.400000e+001 -4.000000e+002
      vertex   8.800000e+001 9.400000e+001 1.000000e+002
      vertex   8.800000e+001 6.900000e+001 1.000000e+002
    endloop
  endfacet
  facet normal 0.000000e+000 -1.000000e+000 0.000000e+000
    outer loop
      vertex   8.800000e+001 9.400000e+001 1.000000e+002
      vertex   8.800000e+001 9.400000e+001 -4.000000e+002
      vertex   9.296535e+001 9.400000e+001 -4.000000e+002
    endloop
  endfacet
  facet normal 0.000000e+000 -1.000000e+000 0.000000e+000
    outer loop
      vertex   9.296535e+001 9.400000e+001 -4.000000e+002
      vertex   9.296535e+001 9.400000e+001 1.000000e+002
      vertex   8.800000e+001 9.400000e+001 1.000000e+002
    endloop
  endfacet
  facet normal 1.000000e+000 8.466938e-016 2.751075e-016
    outer loop
      vertex   9.296535e+001 9.400000e+001 -4.000000e+002
      vertex   9.296535e+001 2.004709e+002 -2.145416e+001
      vertex   9.296535e+001 1.935000e+002 6.470989e-015
    endloop
  endfacet
  facet normal 1.000000e+000 1.230396e-015 -8.380103e-016
    outer loop
      vertex   9.296535e+001 9.400000e+001 1.000000e+002
      vertex   9.296535e+001 2.187209e+002 3.471356e+001
      vertex   9.296535e+001 2.412791e+002 3.471356e+001
    endloop
  endfacet
  facet normal 1.000000e+000 1.952654e-015 0.000000e+000
    outer loop
      vertex   9.296535e+001 1.935000e+002 6.470989e-015
      vertex   9.296535e+001 9.400000e+001 1.000000e+002
      vertex   9.296535e+001 9.400000e+001 -4.000000e+002
    endloop
  endfacet
  facet normal 1.000000e+000 1.288555e-015 -7.269061e-016
    outer loop
      vertex   9.296535e+001 9.400000e+001 1.000000e+002
      vertex   9.296535e+001 2.004709e+002 2.145416e+001
      vertex   9.296535e+001 2.187209e+002 3.471356e+001
    endloop
  endfacet
  facet normal 1.000000e+000 9.410271e-016 2.485750e-016
    outer loop
      vertex   9.296535e+001 9.400000e+001 -4.000000e+002
      vertex   9.296535e+001 2.187209e+002 -3.471356e+001
      vertex   9.296535e+001 2.004709e+002 -2.145416e+001
    endloop
  endfacet
  facet normal 1.000000e+000 -1.621278e-015 5.551115e-017
    outer loop
      vertex   9.296535e+001 4.240000e+002 -4.000000e+002
      vertex   9.296535e+001 4.240000e+002 1.000000e+002
      vertex   9.296535e+001 2.665000e+002 -1.587882e-014
    endloop
  endfacet
  facet normal 1.000000e+000 -6.148330e-016 -1.892883e-015
    outer loop
      vertex   9.296535e+001 4.240000e+002 1.000000e+002
      vertex   9.296535e+001 2.412791e+002 3.471356e+001
      vertex   9.296535e+001 2.595291e+002 2.145416e+001
    endloop
  endfacet
  facet normal 1.000000e+000 1.471976e-015 -4.782740e-016
    outer loop
      vertex   9.296535e+001 1.935000e+002 6.470989e-015
      vertex   9.296535e+001 2.004709e+002 2.145416e+001
      vertex   9.296535e+001 9.400000e+001 1.000000e+002
    endloop
  endfacet
  facet normal 1.000000e+000 -8.410780e-017 6.797671e-016
    outer loop
      vertex   9.296535e+001 9.400000e+001 -4.000000e+002
      vertex   9.296535e+001 4.240000e+002 -4.000000e+002
      vertex   9.296535e+001 2.412791e+002 -3.471356e+001
    endloop
  endfacet
  facet normal 1.000000e+000 -9.655192e-016 3.137162e-016
    outer loop
      vertex   9.296535e+001 2.665000e+002 -1.587882e-014
      vertex   9.296535e+001 2.595291e+002 -2.145416e+001
      vertex   9.296535e+001 4.240000e+002 -4.000000e+002
    endloop
  endfacet
  facet normal 1.000000e+000 0.000000e+000 -3.613651e-015
    outer loop
      vertex   9.296535e+001 2.412791e+002 3.471356e+001
      vertex   9.296535e+001 4.240000e+002 1.000000e+002
      vertex   9.296535e+001 9.400000e+001 1.000000e+002
    endloop
  endfacet
  facet normal 1.000000e+000 1.730788e-016 8.084151e-016
    outer loop
      vertex   9.296535e+001 2.595291e+002 -2.145416e+001
      vertex   9.296535e+001 2.412791e+002 -3.471356e+001
      vertex   9.296535e+001 4.240000e+002 -4.000000e+002
    endloop
  endfacet
  facet normal 1.000000e+000 1.230396e-015 1.497748e-016
    outer loop
      vertex   9.296535e+001 2.412791e+002 -3.471356e+001
      vertex   9.296535e+001 2.187209e+002 -3.471356e+001
      vertex   9.296535e+001 9.400000e+001 -4.000000e+002
    endloop
  endfacet
  facet normal 1.000000e+000 -1.314793e-015 -4.272023e-016
    outer loop
      vertex   9.296535e+001 2.595291e+002 2.145416e+001
      vertex   9.296535e+001 2.665000e+002 -1.587882e-014
      vertex   9.296535e+001 4.240000e+002 1.000000e+002
    endloop
  endfacet
  facet normal 0.000000e+000 1.000000e+000 -1.110223e-016
    outer loop
      vertex   -8.800000e+001 4.240000e+002 -4.000000e+002
      vertex   -8.800000e+001 4.240000e+002 1.000000e+002
      vertex   9.296535e+001 4.240000e+002 1.000000e+002
    endloop
  endfacet
  facet normal -3.067502e-016 1.000000e+000 -1.702805e-032
    outer loop
      vertex   9.296535e+001 4.240000e+002 1.000000e+002
      vertex   9.296535e+001 4.240000e+002 -4.000000e+002
      vertex   -8.800000e+001 4.240000e+002 -4.000000e+002
    endloop
  endfacet
  facet normal -1.000000e+000 7.840558e-017 2.775558e-017
    outer loop
      vertex   -8.800000e+001 7.000000e+001 1.000000e+002
      vertex   -8.800000e+001 4.240000e+002 1.000000e+002
      vertex   -8.800000e+001 4.240000e+002 -4.000000e+002
    endloop
  endfacet
  facet normal -1.000000e+000 3.920279e-017 0.000000e+000
    outer loop
      vertex   -8.800000e+001 4.240000e+002 -4.000000e+002
      vertex   -8.800000e+001 7.000000e+001 -4.000000e+002
      vertex   -8.800000e+001 7.000000e+001 1.000000e+002
    endloop
  endfacet
  facet normal 0.000000e+000 -0.000000e+000 1.000000e+000
    outer loop
      vertex   -8.800000e+001 -6.900000e+001 1.000000e+002
      vertex   -8.800000e+001 7.000000e+001 1.000000e+002
      vertex   -1.000000e+002 -6.000000e+001 1.000000e+002
    endloop
  endfacet
  facet normal 0.000000e+000 0.000000e+000 1.000000e+000
    outer loop
      vertex   -9.296535e+001 -9.400000e+001 1.000000e+002
      vertex   -9.296535e+001 -4.240000e+002 1.000000e+002
      vertex   -4.400000e+001 -3.390000e+002 1.000000e+002
    endloop
  endfacet
  facet normal -0.000000e+000 0.000000e+000 1.000000e+000
    outer loop
      vertex   -9.296535e+001 -4.240000e+002 1.000000e+002
      vertex   9.296535e+001 -4.240000e+002 1.000000e+002
      vertex   4.334123e+001 -3.390000e+002 1.000000e+002
    endloop
  endfacet
  facet normal 0.000000e+000 -0.000000e+000 1.000000e+000
    outer loop
      vertex   9.296535e+001 9.400000e+001 1.000000e+002
      vertex   9.296535e+001 4.240000e+002 1.000000e+002
      vertex   4.334123e+001 3.390000e+002 1.000000e+002
    endloop
  endfacet
  facet normal 0.000000e+000 0.000000e+000 1.000000e+000
    outer loop
      vertex   -8.800000e+001 4.240000e+002 1.000000e+002
      vertex   -4.400000e+001 3.390000e+002 1.000000e+002
      vertex   4.334123e+001 3.390000e+002 1.000000e+002
    endloop
  endfacet
  facet normal 0.000000e+000 0.000000e+000 1.000000e+000
    outer loop
      vertex   -8.800000e+001 -6.900000e+001 1.000000e+002
      vertex   -4.400000e+001 3.390000e+002 1.000000e+002
      vertex   -8.800000e+001 7.000000e+001 1.000000e+002
    endloop
  endfacet
  facet normal 0.000000e+000 0.000000e+000 1.000000e+000
    outer loop
      vertex   4.334123e+001 -3.390000e+002 1.000000e+002
      vertex   -4.400000e+001 -3.390000e+002 1.000000e+002
      vertex   -9.296535e+001 -4.240000e+002 1.000000e+002
    endloop
  endfacet
  facet normal 0.000000e+000 0.000000e+000 1.000000e+000
    outer loop
      vertex   -4.400000e+001 -3.390000e+002 1.000000e+002
      vertex   -4.400000e+001 3.390000e+002 1.000000e+002
      vertex   -8.800000e+001 -6.900000e+001 1.000000e+002
    endloop
  endfacet
  facet normal 0.000000e+000 -0.000000e+000 1.000000e+000
    outer loop
      vertex   4.334123e+001 3.390000e+002 1.000000e+002
      vertex   9.296535e+001 4.240000e+002 1.000000e+002
      vertex   -8.800000e+001 4.240000e+002 1.000000e+002
    endloop
  endfacet
  facet normal 0.000000e+000 0.000000e+000 1.000000e+000
    outer loop
      vertex   -4.400000e+001 3.390000e+002 1.000000e+002
      vertex   -8.800000e+001 4.240000e+002 1.000000e+002
      vertex   -8.800000e+001 7.000000e+001 1.000000e+002
    endloop
  endfacet
  facet normal 0.000000e+000 0.000000e+000 1.000000e+000
    outer loop
      vertex   -8.800000e+001 -6.900000e+001 1.000000e+002
      vertex   -8.800000e+001 -9.400000e+001 1.000000e+002
      vertex   -4.400000e+001 -3.390000e+002 1.000000e+002
    endloop
  endfacet
  facet normal 0.000000e+000 0.000000e+000 1.000000e+000
    outer loop
      vertex   -1.000000e+002 -6.000000e+001 1.000000e+002
      vertex   -1.000000e+002 -6.900000e+001 1.000000e+002
      vertex   -8.800000e+001 -6.900000e+001 1.000000e+002
    endloop
  endfacet
  facet normal 0.000000e+000 0.000000e+000 1.000000e+000
    outer loop
      vertex   -1.200000e+002 -6.000000e+001 1.000000e+002
      vertex   -1.000000e+002 -6.000000e+001 1.000000e+002
      vertex   -1.000000e+002 6.000000e+001 1.000000e+002
    endloop
  endfacet
  facet normal 0.000000e+000 0.000000e+000 1.000000e+000
    outer loop
      vertex   4.334123e+001 3.390000e+002 1.000000e+002
      vertex   8.800000e+001 9.400000e+001 1.000000e+002
      vertex   9.296535e+001 9.400000e+001 1.000000e+002
    endloop
  endfacet
  facet normal 0.000000e+000 -0.000000e+000 1.000000e+000
    outer loop
      vertex   -1.000000e+002 -6.000000e+001 1.000000e+002
      vertex   -8.800000e+001 7.000000e+001 1.000000e+002
      vertex   -1.000000e+002 6.000000e+001 1.000000e+002
    endloop
  endfacet
  facet normal 0.000000e+000 0.000000e+000 1.000000e+000
    outer loop
      vertex   4.334123e+001 3.390000e+002 1.000000e+002
      vertex   8.800000e+001 -6.900000e+001 1.000000e+002
      vertex   8.800000e+001 6.900000e+001 1.000000e+002
    endloop
  endfacet
  facet normal 0.000000e+000 0.000000e+000 1.000000e+000
    outer loop
      vertex   -1.000000e+002 6.000000e+001 1.000000e+002
      vertex   -1.200000e+002 6.000000e+001 1.000000e+002
      vertex   -1.200000e+002 -6.000000e+001 1.000000e+002
    endloop
  endfacet
  facet normal 0.000000e+000 0.000000e+000 1.000000e+000
    outer loop
      vertex   4.334123e+001 3.390000e+002 1.000000e+002
      vertex   8.800000e+001 -9.400000e+001 1.000000e+002
      vertex   8.800000e+001 -6.900000e+001 1.000000e+002
    endloop
  endfacet
  facet normal 0.000000e+000 -0.000000e+000 1.000000e+000
    outer loop
      vertex   8.800000e+001 6.900000e+001 1.000000e+002
      vertex   8.800000e+001 9.400000e+001 1.000000e+002
      vertex   4.334123e+001 3.390000e+002 1.000000e+002
    endloop
  endfacet
  facet normal 0.000000e+000 0.000000e+000 1.000000e+000
    outer loop
      vertex   8.800000e+001 6.900000e+001 1.000000e+002
      vertex   8.800000e+001 -6.900000e+001 1.000000e+002
      vertex   1.100000e+002 -6.900000e+001 1.000000e+002
    endloop
  endfacet
  facet normal 0.000000e+000 0.000000e+000 1.000000e+000
    outer loop
      vertex   9.296535e+001 -9.400000e+001 1.000000e+002
      vertex   8.800000e+001 -9.400000e+001 1.000000e+002
      vertex   4.334123e+001 -3.390000e+002 1.000000e+002
    endloop
  endfacet
  facet normal 0.000000e+000 -0.000000e+000 1.000000e+000
    outer loop
      vertex   1.100000e+002 -6.900000e+001 1.000000e+002
      vertex   1.100000e+002 6.900000e+001 1.000000e+002
      vertex   8.800000e+001 6.900000e+001 1.000000e+002
    endloop
  endfacet
  facet normal -0.000000e+000 0.000000e+000 1.000000e+000
    outer loop
      vertex   4.334123e+001 -3.390000e+002 1.000000e+002
      vertex   9.296535e+001 -4.240000e+002 1.000000e+002
      vertex   9.296535e+001 -9.400000e+001 1.000000e+002
    endloop
  endfacet
  facet normal 0.000000e+000 0.000000e+000 1.000000e+000
    outer loop
      vertex   8.800000e+001 -9.400000e+001 1.000000e+002
      vertex   4.334123e+001 3.390000e+002 1.000000e+002
      vertex   4.334123e+001 -3.390000e+002 1.000000e+002
    endloop
  endfacet
  facet normal 0.000000e+000 0.000000e+000 1.000000e+000
    outer loop
      vertex   -8.800000e+001 7.000000e+001 1.000000e+002
      vertex   -1.000000e+002 7.000000e+001 1.000000e+002
      vertex   -1.000000e+002 6.000000e+001 1.000000e+002
    endloop
  endfacet
  facet normal 0.000000e+000 0.000000e+000 1.000000e+000
    outer loop
      vertex   -4.400000e+001 -3.390000e+002 1.000000e+002
      vertex   -8.800000e+001 -9.400000e+001 1.000000e+002
      vertex   -9.296535e+001 -9.400000e+001 1.000000e+002
    endloop
  endfacet
  facet normal 0.000000e+000 0.000000e+000 -1.000000e+000
    outer loop
      vertex   -8.800000e+001 7.000000e+001 -4.000000e+002
      vertex   -8.800000e+001 4.240000e+002 -4.000000e+002
      vertex   8.800000e+001 9.400000e+001 -4.000000e+002
    endloop
  endfacet
  facet normal 0.000000e+000 -0.000000e+000 -1.000000e+000
    outer loop
      vertex   8.800000e+001 9.400000e+001 -4.000000e+002
      vertex   8.800000e+001 6.900000e+001 -4.000000e+002
      vertex   -8.800000e+001 7.000000e+001 -4.000000e+002
    endloop
  endfacet
  facet normal 0.000000e+000 0.000000e+000 -1.000000e+000
    outer loop
      vertex   8.800000e+001 6.900000e+001 -4.000000e+002
      vertex   1.100000e+002 6.900000e+001 -4.000000e+002
      vertex   1.100000e+002 -6.900000e+001 -4.000000e+002
    endloop
  endfacet
  facet normal -0.000000e+000 -0.000000e+000 -1.000000e+000
    outer loop
      vertex   8.800000e+001 6.900000e+001 -4.000000e+002
      vertex   8.800000e+001 -6.900000e+001 -4.000000e+002
      vertex   -8.800000e+001 7.000000e+001 -4.000000e+002
    endloop
  endfacet
  facet normal 0.000000e+000 0.000000e+000 -1.000000e+000
    outer loop
      vertex   -1.200000e+002 -6.000000e+001 -4.000000e+002
      vertex   -1.200000e+002 6.000000e+001 -4.000000e+002
      vertex   -1.000000e+002 6.000000e+001 -4.000000e+002
    endloop
  endfacet
  facet normal 0.000000e+000 0.000000e+000 -1.000000e+000
    outer loop
      vertex   -8.800000e+001 -6.900000e+001 -4.000000e+002
      vertex   -1.000000e+002 -6.900000e+001 -4.000000e+002
      vertex   -1.000000e+002 -6.000000e+001 -4.000000e+002
    endloop
  endfacet
  facet normal -0.000000e+000 -0.000000e+000 -1.000000e+000
    outer loop
      vertex   8.800000e+001 -6.900000e+001 -4.000000e+002
      vertex   8.800000e+001 -9.400000e+001 -4.000000e+002
      vertex   -8.800000e+001 7.000000e+001 -4.000000e+002
    endloop
  endfacet
  facet normal 0.000000e+000 0.000000e+000 -1.000000e+000
    outer loop
      vertex   9.296535e+001 4.240000e+002 -4.000000e+002
      vertex   9.296535e+001 9.400000e+001 -4.000000e+002
      vertex   8.800000e+001 9.400000e+001 -4.000000e+002
    endloop
  endfacet
  facet normal 0.000000e+000 0.000000e+000 -1.000000e+000
    outer loop
      vertex   -1.000000e+002 -6.000000e+001 -4.000000e+002
      vertex   -1.000000e+002 6.000000e+001 -4.000000e+002
      vertex   -8.800000e+001 -6.900000e+001 -4.000000e+002
    endloop
  endfacet
  facet normal -0.000000e+000 0.000000e+000 -1.000000e+000
    outer loop
      vertex   8.800000e+001 -9.400000e+001 -4.000000e+002
      vertex   -8.800000e+001 -9.400000e+001 -4.000000e+002
      vertex   -8.800000e+001 -6.900000e+001 -4.000000e+002
    endloop
  endfacet
  facet normal 0.000000e+000 0.000000e+000 -1.000000e+000
    outer loop
      vertex   8.800000e+001 9.400000e+001 -4.000000e+002
      vertex   -8.800000e+001 4.240000e+002 -4.000000e+002
      vertex   9.296535e+001 4.240000e+002 -4.000000e+002
    endloop
  endfacet
  facet normal 0.000000e+000 0.000000e+000 -1.000000e+000
    outer loop
      vertex   -1.000000e+002 6.000000e+001 -4.000000e+002
      vertex   -1.000000e+002 7.000000e+001 -4.000000e+002
      vertex   -8.800000e+001 7.000000e+001 -4.000000e+002
    endloop
  endfacet
  facet normal 0.000000e+000 0.000000e+000 -1.000000e+000
    outer loop
      vertex   -8.800000e+001 -6.900000e+001 -4.000000e+002
      vertex   -1.000000e+002 6.000000e+001 -4.000000e+002
      vertex   8.800000e+001 -9.400000e+001 -4.000000e+002
    endloop
  endfacet
  facet normal 0.000000e+000 0.000000e+000 -1.000000e+000
    outer loop
      vertex   -9.296535e+001 -4.240000e+002 -4.000000e+002
      vertex   -9.296535e+001 -9.400000e+001 -4.000000e+002
      vertex   -8.800000e+001 -9.400000e+001 -4.000000e+002
    endloop
  endfacet
  facet normal 0.000000e+000 -0.000000e+000 -1.000000e+000
    outer loop
      vertex   -8.800000e+001 7.000000e+001 -4.000000e+002
      vertex   8.800000e+001 -9.400000e+001 -4.000000e+002
      vertex   -1.000000e+002 6.000000e+001 -4.000000e+002
    endloop
  endfacet
  facet normal 0.000000e+000 -0.000000e+000 -1.000000e+000
    outer loop
      vertex   -8.800000e+001 -9.400000e+001 -4.000000e+002
      vertex   8.800000e+001 -9.400000e+001 -4.000000e+002
      vertex   -9.296535e+001 -4.240000e+002 -4.000000e+002
    endloop
  endfacet
  facet normal 0.000000e+000 0.000000e+000 -1.000000e+000
    outer loop
      vertex   9.296535e+001 -4.240000e+002 -4.000000e+002
      vertex   -9.296535e+001 -4.240000e+002 -4.000000e+002
      vertex   8.800000e+001 -9.400000e+001 -4.000000e+002
    endloop
  endfacet
  facet normal 0.000000e+000 -0.000000e+000 -1.000000e+000
    outer loop
      vertex   -1.000000e+002 6.000000e+001 -4.000000e+002
      vertex   -1.000000e+002 -6.000000e+001 -4.000000e+002
      vertex   -1.200000e+002 -6.000000e+001 -4.000000e+002
    endloop
  endfacet
  facet normal -0.000000e+000 0.000000e+000 -1.000000e+000
    outer loop
      vertex   1.100000e+002 -6.900000e+001 -4.000000e+002
      vertex   8.800000e+001 -6.900000e+001 -4.000000e+002
      vertex   8.800000e+001 6.900000e+001 -4.000000e+002
    endloop
  endfacet
  facet normal 0.000000e+000 0.000000e+000 -1.000000e+000
    outer loop
      vertex   8.800000e+001 -9.400000e+001 -4.000000e+002
      vertex   9.296535e+001 -9.400000e+001 -4.000000e+002
      vertex   9.296535e+001 -4.240000e+002 -4.000000e+002
    endloop
  endfacet
  facet normal -0.000000e+000 1.000000e+000 0.000000e+000
    outer loop
      vertex   -1.000000e+002 7.000000e+001 1.000000e+002
      vertex   -8.800000e+001 7.000000e+001 1.000000e+002
      vertex   -8.800000e+001 7.000000e+001 -4.000000e+002
    endloop
  endfacet
  facet normal 0.000000e+000 1.000000e+000 0.000000e+000
    outer loop
      vertex   -8.800000e+001 7.000000e+001 -4.000000e+002
      vertex   -1.000000e+002 7.000000e+001 -4.000000e+002
      vertex   -1.000000e+002 7.000000e+001 1.000000e+002
    endloop
  endfacet
  facet normal 6.938894e-016 1.000000e+000 0.000000e+000
    outer loop
      vertex   -1.200000e+002 6.000000e+001 1.000000e+002
      vertex   -1.000000e+002 6.000000e+001 1.000000e+002
      vertex   -1.000000e+002 6.000000e+001 -4.000000e+002
    endloop
  endfacet
  facet normal 6.938894e-016 1.000000e+000 0.000000e+000
    outer loop
      vertex   -1.000000e+002 6.000000e+001 -4.000000e+002
      vertex   -1.200000e+002 6.000000e+001 -4.000000e+002
      vertex   -1.200000e+002 6.000000e+001 1.000000e+002
    endloop
  endfacet
  facet normal -1.000000e+000 -1.387779e-015 0.000000e+000
    outer loop
      vertex   -1.000000e+002 6.000000e+001 1.000000e+002
      vertex   -1.000000e+002 7.000000e+001 1.000000e+002
      vertex   -1.000000e+002 7.000000e+001 -4.000000e+002
    endloop
  endfacet
  facet normal -1.000000e+000 -1.387779e-015 0.000000e+000
    outer loop
      vertex   -1.000000e+002 7.000000e+001 -4.000000e+002
      vertex   -1.000000e+002 6.000000e+001 -4.000000e+002
      vertex   -1.000000e+002 6.000000e+001 1.000000e+002
    endloop
  endfacet
endsolid
