solid ExitatrizAnillo
  facet normal 0.000000e+000 1.253332e-001 -9.921147e-001
    outer loop
      vertex   -6.119230e-001 -6.217247e+000 2.421458e+001
      vertex   -6.119230e-001 -6.123234e-015 2.500000e+001
      vertex   3.880770e-001 -6.123234e-015 2.500000e+001
    endloop
  endfacet
  facet normal 0.000000e+000 3.681246e-001 -9.297765e-001
    outer loop
      vertex   -6.119230e-001 -1.204384e+001 2.190767e+001
      vertex   -6.119230e-001 -6.217247e+000 2.421458e+001
      vertex   3.880770e-001 -6.217247e+000 2.421458e+001
    endloop
  endfacet
  facet normal 0.000000e+000 5.877853e-001 -8.090170e-001
    outer loop
      vertex   -6.119230e-001 -1.711368e+001 1.822422e+001
      vertex   -6.119230e-001 -1.204384e+001 2.190767e+001
      vertex   3.880770e-001 -1.204384e+001 2.190767e+001
    endloop
  endfacet
  facet normal 0.000000e+000 7.705132e-001 -6.374240e-001
    outer loop
      vertex   -6.119230e-001 -2.110820e+001 1.339567e+001
      vertex   -6.119230e-001 -1.711368e+001 1.822422e+001
      vertex   3.880770e-001 -1.711368e+001 1.822422e+001
    endloop
  endfacet
  facet normal 0.000000e+000 9.048271e-001 -4.257793e-001
    outer loop
      vertex   -6.119230e-001 -2.377641e+001 7.725425e+000
      vertex   -6.119230e-001 -2.110820e+001 1.339567e+001
      vertex   3.880770e-001 -2.110820e+001 1.339567e+001
    endloop
  endfacet
  facet normal 0.000000e+000 9.822873e-001 -1.873813e-001
    outer loop
      vertex   -6.119230e-001 -2.495067e+001 1.569763e+000
      vertex   -6.119230e-001 -2.377641e+001 7.725425e+000
      vertex   3.880770e-001 -2.377641e+001 7.725425e+000
    endloop
  endfacet
  facet normal 0.000000e+000 9.980267e-001 6.279052e-002
    outer loop
      vertex   -6.119230e-001 -2.455718e+001 -4.684533e+000
      vertex   -6.119230e-001 -2.495067e+001 1.569763e+000
      vertex   3.880770e-001 -2.495067e+001 1.569763e+000
    endloop
  endfacet
  facet normal 0.000000e+000 9.510565e-001 3.090170e-001
    outer loop
      vertex   -6.119230e-001 -2.262068e+001 -1.064448e+001
      vertex   -6.119230e-001 -2.455718e+001 -4.684533e+000
      vertex   3.880770e-001 -2.455718e+001 -4.684533e+000
    endloop
  endfacet
  facet normal 0.000000e+000 8.443279e-001 5.358268e-001
    outer loop
      vertex   -6.119230e-001 -1.926283e+001 -1.593560e+001
      vertex   -6.119230e-001 -2.262068e+001 -1.064448e+001
      vertex   3.880770e-001 -2.262068e+001 -1.064448e+001
    endloop
  endfacet
  facet normal 0.000000e+000 6.845471e-001 7.289686e-001
    outer loop
      vertex   -6.119230e-001 -1.469463e+001 -2.022542e+001
      vertex   -6.119230e-001 -1.926283e+001 -1.593560e+001
      vertex   3.880770e-001 -1.926283e+001 -1.593560e+001
    endloop
  endfacet
  facet normal 0.000000e+000 4.817537e-001 8.763067e-001
    outer loop
      vertex   -6.119230e-001 -9.203114e+000 -2.324441e+001
      vertex   -6.119230e-001 -1.469463e+001 -2.022542e+001
      vertex   3.880770e-001 -1.469463e+001 -2.022542e+001
    endloop
  endfacet
  facet normal 0.000000e+000 2.486899e-001 9.685832e-001
    outer loop
      vertex   -6.119230e-001 -3.133331e+000 -2.480287e+001
      vertex   -6.119230e-001 -9.203114e+000 -2.324441e+001
      vertex   3.880770e-001 -9.203114e+000 -2.324441e+001
    endloop
  endfacet
  facet normal 0.000000e+000 -6.279052e-002 9.980267e-001
    outer loop
      vertex   3.880770e-001 3.133331e+000 -2.480287e+001
      vertex   -6.119230e-001 3.133331e+000 -2.480287e+001
      vertex   -6.119230e-001 9.184851e-015 -2.500000e+001
    endloop
  endfacet
  facet normal -0.000000e+000 6.279052e-002 9.980267e-001
    outer loop
      vertex   -6.119230e-001 -3.133331e+000 -2.480287e+001
      vertex   3.880770e-001 -3.133331e+000 -2.480287e+001
      vertex   3.880770e-001 3.061617e-015 -2.500000e+001
    endloop
  endfacet
  facet normal 3.844810e-016 6.279052e-002 9.980267e-001
    outer loop
      vertex   3.880770e-001 3.061617e-015 -2.500000e+001
      vertex   -6.119230e-001 9.184851e-015 -2.500000e+001
      vertex   -6.119230e-001 -3.133331e+000 -2.480287e+001
    endloop
  endfacet
  facet normal 0.000000e+000 -2.486899e-001 9.685832e-001
    outer loop
      vertex   -6.119230e-001 9.203114e+000 -2.324441e+001
      vertex   -6.119230e-001 3.133331e+000 -2.480287e+001
      vertex   3.880770e-001 3.133331e+000 -2.480287e+001
    endloop
  endfacet
  facet normal 0.000000e+000 -4.817537e-001 8.763067e-001
    outer loop
      vertex   -6.119230e-001 1.469463e+001 -2.022542e+001
      vertex   -6.119230e-001 9.203114e+000 -2.324441e+001
      vertex   3.880770e-001 9.203114e+000 -2.324441e+001
    endloop
  endfacet
  facet normal 0.000000e+000 -6.845471e-001 7.289686e-001
    outer loop
      vertex   -6.119230e-001 1.926283e+001 -1.593560e+001
      vertex   -6.119230e-001 1.469463e+001 -2.022542e+001
      vertex   3.880770e-001 1.469463e+001 -2.022542e+001
    endloop
  endfacet
  facet normal 0.000000e+000 -8.443279e-001 5.358268e-001
    outer loop
      vertex   -6.119230e-001 2.262068e+001 -1.064448e+001
      vertex   -6.119230e-001 1.926283e+001 -1.593560e+001
      vertex   3.880770e-001 1.926283e+001 -1.593560e+001
    endloop
  endfacet
  facet normal 0.000000e+000 -9.510565e-001 3.090170e-001
    outer loop
      vertex   -6.119230e-001 2.455718e+001 -4.684533e+000
      vertex   -6.119230e-001 2.262068e+001 -1.064448e+001
      vertex   3.880770e-001 2.262068e+001 -1.064448e+001
    endloop
  endfacet
  facet normal 0.000000e+000 -9.980267e-001 6.279052e-002
    outer loop
      vertex   -6.119230e-001 2.495067e+001 1.569763e+000
      vertex   -6.119230e-001 2.455718e+001 -4.684533e+000
      vertex   3.880770e-001 2.455718e+001 -4.684533e+000
    endloop
  endfacet
  facet normal 0.000000e+000 -9.822873e-001 -1.873813e-001
    outer loop
      vertex   -6.119230e-001 2.377641e+001 7.725425e+000
      vertex   -6.119230e-001 2.495067e+001 1.569763e+000
      vertex   3.880770e-001 2.495067e+001 1.569763e+000
    endloop
  endfacet
  facet normal 0.000000e+000 -9.048271e-001 -4.257793e-001
    outer loop
      vertex   -6.119230e-001 2.110820e+001 1.339567e+001
      vertex   -6.119230e-001 2.377641e+001 7.725425e+000
      vertex   3.880770e-001 2.377641e+001 7.725425e+000
    endloop
  endfacet
  facet normal 0.000000e+000 -7.705132e-001 -6.374240e-001
    outer loop
      vertex   -6.119230e-001 1.711368e+001 1.822422e+001
      vertex   -6.119230e-001 2.110820e+001 1.339567e+001
      vertex   3.880770e-001 2.110820e+001 1.339567e+001
    endloop
  endfacet
  facet normal 0.000000e+000 -5.877853e-001 -8.090170e-001
    outer loop
      vertex   -6.119230e-001 1.204384e+001 2.190767e+001
      vertex   -6.119230e-001 1.711368e+001 1.822422e+001
      vertex   3.880770e-001 1.711368e+001 1.822422e+001
    endloop
  endfacet
  facet normal 0.000000e+000 -3.681246e-001 -9.297765e-001
    outer loop
      vertex   -6.119230e-001 6.217247e+000 2.421458e+001
      vertex   -6.119230e-001 1.204384e+001 2.190767e+001
      vertex   3.880770e-001 1.204384e+001 2.190767e+001
    endloop
  endfacet
  facet normal 0.000000e+000 -1.253332e-001 -9.921147e-001
    outer loop
      vertex   -6.119230e-001 -6.123234e-015 2.500000e+001
      vertex   -6.119230e-001 6.217247e+000 2.421458e+001
      vertex   3.880770e-001 6.217247e+000 2.421458e+001
    endloop
  endfacet
  facet normal 0.000000e+000 -1.253332e-001 -9.921147e-001
    outer loop
      vertex   3.880770e-001 6.217247e+000 2.421458e+001
      vertex   3.880770e-001 -6.123234e-015 2.500000e+001
      vertex   -6.119230e-001 -6.123234e-015 2.500000e+001
    endloop
  endfacet
  facet normal 0.000000e+000 -3.681246e-001 -9.297765e-001
    outer loop
      vertex   3.880770e-001 1.204384e+001 2.190767e+001
      vertex   3.880770e-001 6.217247e+000 2.421458e+001
      vertex   -6.119230e-001 6.217247e+000 2.421458e+001
    endloop
  endfacet
  facet normal 0.000000e+000 -5.877853e-001 -8.090170e-001
    outer loop
      vertex   3.880770e-001 1.711368e+001 1.822422e+001
      vertex   3.880770e-001 1.204384e+001 2.190767e+001
      vertex   -6.119230e-001 1.204384e+001 2.190767e+001
    endloop
  endfacet
  facet normal 0.000000e+000 -7.705132e-001 -6.374240e-001
    outer loop
      vertex   3.880770e-001 2.110820e+001 1.339567e+001
      vertex   3.880770e-001 1.711368e+001 1.822422e+001
      vertex   -6.119230e-001 1.711368e+001 1.822422e+001
    endloop
  endfacet
  facet normal 0.000000e+000 -9.048271e-001 -4.257793e-001
    outer loop
      vertex   3.880770e-001 2.377641e+001 7.725425e+000
      vertex   3.880770e-001 2.110820e+001 1.339567e+001
      vertex   -6.119230e-001 2.110820e+001 1.339567e+001
    endloop
  endfacet
  facet normal 0.000000e+000 -9.822873e-001 -1.873813e-001
    outer loop
      vertex   3.880770e-001 2.495067e+001 1.569763e+000
      vertex   3.880770e-001 2.377641e+001 7.725425e+000
      vertex   -6.119230e-001 2.377641e+001 7.725425e+000
    endloop
  endfacet
  facet normal 0.000000e+000 -9.980267e-001 6.279052e-002
    outer loop
      vertex   3.880770e-001 2.455718e+001 -4.684533e+000
      vertex   3.880770e-001 2.495067e+001 1.569763e+000
      vertex   -6.119230e-001 2.495067e+001 1.569763e+000
    endloop
  endfacet
  facet normal 0.000000e+000 -9.510565e-001 3.090170e-001
    outer loop
      vertex   3.880770e-001 2.262068e+001 -1.064448e+001
      vertex   3.880770e-001 2.455718e+001 -4.684533e+000
      vertex   -6.119230e-001 2.455718e+001 -4.684533e+000
    endloop
  endfacet
  facet normal 0.000000e+000 -8.443279e-001 5.358268e-001
    outer loop
      vertex   3.880770e-001 1.926283e+001 -1.593560e+001
      vertex   3.880770e-001 2.262068e+001 -1.064448e+001
      vertex   -6.119230e-001 2.262068e+001 -1.064448e+001
    endloop
  endfacet
  facet normal 0.000000e+000 -6.845471e-001 7.289686e-001
    outer loop
      vertex   3.880770e-001 1.469463e+001 -2.022542e+001
      vertex   3.880770e-001 1.926283e+001 -1.593560e+001
      vertex   -6.119230e-001 1.926283e+001 -1.593560e+001
    endloop
  endfacet
  facet normal 0.000000e+000 -4.817537e-001 8.763067e-001
    outer loop
      vertex   3.880770e-001 9.203114e+000 -2.324441e+001
      vertex   3.880770e-001 1.469463e+001 -2.022542e+001
      vertex   -6.119230e-001 1.469463e+001 -2.022542e+001
    endloop
  endfacet
  facet normal 0.000000e+000 -2.486899e-001 9.685832e-001
    outer loop
      vertex   3.880770e-001 3.133331e+000 -2.480287e+001
      vertex   3.880770e-001 9.203114e+000 -2.324441e+001
      vertex   -6.119230e-001 9.203114e+000 -2.324441e+001
    endloop
  endfacet
  facet normal -3.844810e-016 -6.279052e-002 9.980267e-001
    outer loop
      vertex   -6.119230e-001 9.184851e-015 -2.500000e+001
      vertex   3.880770e-001 3.061617e-015 -2.500000e+001
      vertex   3.880770e-001 3.133331e+000 -2.480287e+001
    endloop
  endfacet
  facet normal 0.000000e+000 2.486899e-001 9.685832e-001
    outer loop
      vertex   3.880770e-001 -9.203114e+000 -2.324441e+001
      vertex   3.880770e-001 -3.133331e+000 -2.480287e+001
      vertex   -6.119230e-001 -3.133331e+000 -2.480287e+001
    endloop
  endfacet
  facet normal 0.000000e+000 4.817537e-001 8.763067e-001
    outer loop
      vertex   3.880770e-001 -1.469463e+001 -2.022542e+001
      vertex   3.880770e-001 -9.203114e+000 -2.324441e+001
      vertex   -6.119230e-001 -9.203114e+000 -2.324441e+001
    endloop
  endfacet
  facet normal 0.000000e+000 6.845471e-001 7.289686e-001
    outer loop
      vertex   3.880770e-001 -1.926283e+001 -1.593560e+001
      vertex   3.880770e-001 -1.469463e+001 -2.022542e+001
      vertex   -6.119230e-001 -1.469463e+001 -2.022542e+001
    endloop
  endfacet
  facet normal 0.000000e+000 8.443279e-001 5.358268e-001
    outer loop
      vertex   3.880770e-001 -2.262068e+001 -1.064448e+001
      vertex   3.880770e-001 -1.926283e+001 -1.593560e+001
      vertex   -6.119230e-001 -1.926283e+001 -1.593560e+001
    endloop
  endfacet
  facet normal 0.000000e+000 9.510565e-001 3.090170e-001
    outer loop
      vertex   3.880770e-001 -2.455718e+001 -4.684533e+000
      vertex   3.880770e-001 -2.262068e+001 -1.064448e+001
      vertex   -6.119230e-001 -2.262068e+001 -1.064448e+001
    endloop
  endfacet
  facet normal 0.000000e+000 9.980267e-001 6.279052e-002
    outer loop
      vertex   3.880770e-001 -2.495067e+001 1.569763e+000
      vertex   3.880770e-001 -2.455718e+001 -4.684533e+000
      vertex   -6.119230e-001 -2.455718e+001 -4.684533e+000
    endloop
  endfacet
  facet normal 0.000000e+000 9.822873e-001 -1.873813e-001
    outer loop
      vertex   3.880770e-001 -2.377641e+001 7.725425e+000
      vertex   3.880770e-001 -2.495067e+001 1.569763e+000
      vertex   -6.119230e-001 -2.495067e+001 1.569763e+000
    endloop
  endfacet
  facet normal 0.000000e+000 9.048271e-001 -4.257793e-001
    outer loop
      vertex   3.880770e-001 -2.110820e+001 1.339567e+001
      vertex   3.880770e-001 -2.377641e+001 7.725425e+000
      vertex   -6.119230e-001 -2.377641e+001 7.725425e+000
    endloop
  endfacet
  facet normal 0.000000e+000 7.705132e-001 -6.374240e-001
    outer loop
      vertex   3.880770e-001 -1.711368e+001 1.822422e+001
      vertex   3.880770e-001 -2.110820e+001 1.339567e+001
      vertex   -6.119230e-001 -2.110820e+001 1.339567e+001
    endloop
  endfacet
  facet normal 0.000000e+000 5.877853e-001 -8.090170e-001
    outer loop
      vertex   3.880770e-001 -1.204384e+001 2.190767e+001
      vertex   3.880770e-001 -1.711368e+001 1.822422e+001
      vertex   -6.119230e-001 -1.711368e+001 1.822422e+001
    endloop
  endfacet
  facet normal 0.000000e+000 3.681246e-001 -9.297765e-001
    outer loop
      vertex   3.880770e-001 -6.217247e+000 2.421458e+001
      vertex   3.880770e-001 -1.204384e+001 2.190767e+001
      vertex   -6.119230e-001 -1.204384e+001 2.190767e+001
    endloop
  endfacet
  facet normal 0.000000e+000 1.253332e-001 -9.921147e-001
    outer loop
      vertex   3.880770e-001 -6.123234e-015 2.500000e+001
      vertex   3.880770e-001 -6.217247e+000 2.421458e+001
      vertex   -6.119230e-001 -6.217247e+000 2.421458e+001
    endloop
  endfacet
  facet normal 1.000000e+000 -3.348629e-018 9.933118e-017
    outer loop
      vertex   3.880770e-001 9.552245e-015 -2.600000e+001
      vertex   3.880770e-001 6.222207e+000 -2.524449e+001
      vertex   3.880770e-001 3.133331e+000 -2.480287e+001
    endloop
  endfacet
  facet normal 1.000000e+000 -4.734827e-018 6.126485e-017
    outer loop
      vertex   3.880770e-001 6.222207e+000 -2.524449e+001
      vertex   3.880770e-001 1.208280e+001 -2.302186e+001
      vertex   3.880770e-001 9.203114e+000 -2.324441e+001
    endloop
  endfacet
  facet normal 1.000000e+000 -8.078523e-018 6.624828e-017
    outer loop
      vertex   3.880770e-001 9.203114e+000 -2.324441e+001
      vertex   3.880770e-001 3.133331e+000 -2.480287e+001
      vertex   3.880770e-001 6.222207e+000 -2.524449e+001
    endloop
  endfacet
  facet normal 1.000000e+000 5.330578e-018 5.317768e-017
    outer loop
      vertex   3.880770e-001 1.208280e+001 -2.302186e+001
      vertex   3.880770e-001 1.724119e+001 -1.946128e+001
      vertex   3.880770e-001 1.469463e+001 -2.022542e+001
    endloop
  endfacet
  facet normal 1.000000e+000 2.645610e-017 4.472075e-017
    outer loop
      vertex   3.880770e-001 2.139758e+001 -1.476968e+001
      vertex   3.880770e-001 2.431042e+001 -9.219727e+000
      vertex   3.880770e-001 2.262068e+001 -1.064448e+001
    endloop
  endfacet
  facet normal 1.000000e+000 2.932942e-017 4.621701e-017
    outer loop
      vertex   3.880770e-001 2.431042e+001 -9.219727e+000
      vertex   3.880770e-001 2.581043e+001 -3.133954e+000
      vertex   3.880770e-001 2.455718e+001 -4.684533e+000
    endloop
  endfacet
  facet normal 1.000000e+000 -4.844262e-018 6.268084e-017
    outer loop
      vertex   3.880770e-001 1.469463e+001 -2.022542e+001
      vertex   3.880770e-001 9.203114e+000 -2.324441e+001
      vertex   3.880770e-001 1.208280e+001 -2.302186e+001
    endloop
  endfacet
  facet normal 1.000000e+000 -1.193380e-017 6.834606e-017
    outer loop
      vertex   3.880770e-001 1.724119e+001 -1.946128e+001
      vertex   3.880770e-001 2.139758e+001 -1.476968e+001
      vertex   3.880770e-001 1.926283e+001 -1.593560e+001
    endloop
  endfacet
  facet normal 1.000000e+000 2.499567e-017 4.645281e-017
    outer loop
      vertex   3.880770e-001 2.455718e+001 -4.684533e+000
      vertex   3.880770e-001 2.262068e+001 -1.064448e+001
      vertex   3.880770e-001 2.431042e+001 -9.219727e+000
    endloop
  endfacet
  facet normal 1.000000e+000 -3.135805e-017 5.189302e-017
    outer loop
      vertex   3.880770e-001 2.581043e+001 -3.133954e+000
      vertex   3.880770e-001 2.581043e+001 3.133954e+000
      vertex   3.880770e-001 2.495067e+001 1.569763e+000
    endloop
  endfacet
  facet normal 1.000000e+000 -2.843162e-017 4.643830e-017
    outer loop
      vertex   3.880770e-001 2.581043e+001 3.133954e+000
      vertex   3.880770e-001 2.431042e+001 9.219727e+000
      vertex   3.880770e-001 2.377641e+001 7.725425e+000
    endloop
  endfacet
  facet normal 1.000000e+000 -2.604134e-017 4.493843e-017
    outer loop
      vertex   3.880770e-001 2.431042e+001 9.219727e+000
      vertex   3.880770e-001 2.139758e+001 1.476968e+001
      vertex   3.880770e-001 2.110820e+001 1.339567e+001
    endloop
  endfacet
  facet normal 1.000000e+000 3.420972e-018 5.954156e-017
    outer loop
      vertex   3.880770e-001 1.926283e+001 -1.593560e+001
      vertex   3.880770e-001 1.469463e+001 -2.022542e+001
      vertex   3.880770e-001 1.724119e+001 -1.946128e+001
    endloop
  endfacet
  facet normal 1.000000e+000 1.240895e-017 5.989291e-017
    outer loop
      vertex   3.880770e-001 2.495067e+001 1.569763e+000
      vertex   3.880770e-001 2.455718e+001 -4.684533e+000
      vertex   3.880770e-001 2.581043e+001 -3.133954e+000
    endloop
  endfacet
  facet normal 1.000000e+000 -2.546700e-017 4.537886e-017
    outer loop
      vertex   3.880770e-001 2.110820e+001 1.339567e+001
      vertex   3.880770e-001 2.377641e+001 7.725425e+000
      vertex   3.880770e-001 2.431042e+001 9.219727e+000
    endloop
  endfacet
  facet normal 1.000000e+000 -1.410724e-017 4.527571e-017
    outer loop
      vertex   3.880770e-001 2.139758e+001 1.476968e+001
      vertex   3.880770e-001 1.724119e+001 1.946128e+001
      vertex   3.880770e-001 1.711368e+001 1.822422e+001
    endloop
  endfacet
  facet normal 1.000000e+000 1.459619e-018 5.262883e-017
    outer loop
      vertex   3.880770e-001 1.208280e+001 2.302186e+001
      vertex   3.880770e-001 6.222207e+000 2.524449e+001
      vertex   3.880770e-001 6.217247e+000 2.421458e+001
    endloop
  endfacet
  facet normal 1.000000e+000 -2.130061e-018 5.421011e-017
    outer loop
      vertex   3.880770e-001 6.222207e+000 2.524449e+001
      vertex   3.880770e-001 -6.368163e-015 2.600000e+001
      vertex   3.880770e-001 -6.123234e-015 2.500000e+001
    endloop
  endfacet
  facet normal 1.000000e+000 -3.955181e-018 5.373750e-017
    outer loop
      vertex   3.880770e-001 2.262068e+001 -1.064448e+001
      vertex   3.880770e-001 1.926283e+001 -1.593560e+001
      vertex   3.880770e-001 2.139758e+001 -1.476968e+001
    endloop
  endfacet
  facet normal 1.000000e+000 -1.607232e-017 4.283885e-017
    outer loop
      vertex   3.880770e-001 1.711368e+001 1.822422e+001
      vertex   3.880770e-001 2.110820e+001 1.339567e+001
      vertex   3.880770e-001 2.139758e+001 1.476968e+001
    endloop
  endfacet
  facet normal 1.000000e+000 2.453851e-017 9.645053e-017
    outer loop
      vertex   3.880770e-001 1.724119e+001 1.946128e+001
      vertex   3.880770e-001 1.208280e+001 2.302186e+001
      vertex   3.880770e-001 1.204384e+001 2.190767e+001
    endloop
  endfacet
  facet normal 1.000000e+000 -2.068596e-018 5.264583e-017
    outer loop
      vertex   3.880770e-001 -6.123234e-015 2.500000e+001
      vertex   3.880770e-001 6.217247e+000 2.421458e+001
      vertex   3.880770e-001 6.222207e+000 2.524449e+001
    endloop
  endfacet
  facet normal 1.000000e+000 -2.455695e-017 4.815478e-017
    outer loop
      vertex   3.880770e-001 2.377641e+001 7.725425e+000
      vertex   3.880770e-001 2.495067e+001 1.569763e+000
      vertex   3.880770e-001 2.581043e+001 3.133954e+000
    endloop
  endfacet
  facet normal 1.000000e+000 1.047050e-017 9.694245e-017
    outer loop
      vertex   3.880770e-001 6.217247e+000 2.421458e+001
      vertex   3.880770e-001 1.204384e+001 2.190767e+001
      vertex   3.880770e-001 1.208280e+001 2.302186e+001
    endloop
  endfacet
  facet normal 1.000000e+000 2.068596e-018 5.264583e-017
    outer loop
      vertex   3.880770e-001 -6.222207e+000 2.524449e+001
      vertex   3.880770e-001 -6.217247e+000 2.421458e+001
      vertex   3.880770e-001 -6.123234e-015 2.500000e+001
    endloop
  endfacet
  facet normal 1.000000e+000 -1.047050e-017 9.694245e-017
    outer loop
      vertex   3.880770e-001 -1.208280e+001 2.302186e+001
      vertex   3.880770e-001 -1.204384e+001 2.190767e+001
      vertex   3.880770e-001 -6.217247e+000 2.421458e+001
    endloop
  endfacet
  facet normal 1.000000e+000 -2.230678e-019 4.384459e-017
    outer loop
      vertex   3.880770e-001 1.204384e+001 2.190767e+001
      vertex   3.880770e-001 1.711368e+001 1.822422e+001
      vertex   3.880770e-001 1.724119e+001 1.946128e+001
    endloop
  endfacet
  facet normal 1.000000e+000 -1.459619e-018 5.262883e-017
    outer loop
      vertex   3.880770e-001 -6.217247e+000 2.421458e+001
      vertex   3.880770e-001 -6.222207e+000 2.524449e+001
      vertex   3.880770e-001 -1.208280e+001 2.302186e+001
    endloop
  endfacet
  facet normal 1.000000e+000 2.230678e-019 4.384459e-017
    outer loop
      vertex   3.880770e-001 -1.724119e+001 1.946128e+001
      vertex   3.880770e-001 -1.711368e+001 1.822422e+001
      vertex   3.880770e-001 -1.204384e+001 2.190767e+001
    endloop
  endfacet
  facet normal 1.000000e+000 1.607232e-017 4.283885e-017
    outer loop
      vertex   3.880770e-001 -2.139758e+001 1.476968e+001
      vertex   3.880770e-001 -2.110820e+001 1.339567e+001
      vertex   3.880770e-001 -1.711368e+001 1.822422e+001
    endloop
  endfacet
  facet normal 1.000000e+000 2.130061e-018 5.421011e-017
    outer loop
      vertex   3.880770e-001 -6.123234e-015 2.500000e+001
      vertex   3.880770e-001 -6.368163e-015 2.600000e+001
      vertex   3.880770e-001 -6.222207e+000 2.524449e+001
    endloop
  endfacet
  facet normal 1.000000e+000 1.410724e-017 4.527571e-017
    outer loop
      vertex   3.880770e-001 -1.711368e+001 1.822422e+001
      vertex   3.880770e-001 -1.724119e+001 1.946128e+001
      vertex   3.880770e-001 -2.139758e+001 1.476968e+001
    endloop
  endfacet
  facet normal 1.000000e+000 -2.453851e-017 9.645053e-017
    outer loop
      vertex   3.880770e-001 -1.204384e+001 2.190767e+001
      vertex   3.880770e-001 -1.208280e+001 2.302186e+001
      vertex   3.880770e-001 -1.724119e+001 1.946128e+001
    endloop
  endfacet
  facet normal 1.000000e+000 2.546700e-017 4.537886e-017
    outer loop
      vertex   3.880770e-001 -2.431042e+001 9.219727e+000
      vertex   3.880770e-001 -2.377641e+001 7.725425e+000
      vertex   3.880770e-001 -2.110820e+001 1.339567e+001
    endloop
  endfacet
  facet normal 1.000000e+000 2.455695e-017 4.815478e-017
    outer loop
      vertex   3.880770e-001 -2.581043e+001 3.133954e+000
      vertex   3.880770e-001 -2.495067e+001 1.569763e+000
      vertex   3.880770e-001 -2.377641e+001 7.725425e+000
    endloop
  endfacet
  facet normal 1.000000e+000 -1.240895e-017 5.989291e-017
    outer loop
      vertex   3.880770e-001 -2.581043e+001 -3.133954e+000
      vertex   3.880770e-001 -2.455718e+001 -4.684533e+000
      vertex   3.880770e-001 -2.495067e+001 1.569763e+000
    endloop
  endfacet
  facet normal 1.000000e+000 -2.499567e-017 4.645281e-017
    outer loop
      vertex   3.880770e-001 -2.431042e+001 -9.219727e+000
      vertex   3.880770e-001 -2.262068e+001 -1.064448e+001
      vertex   3.880770e-001 -2.455718e+001 -4.684533e+000
    endloop
  endfacet
  facet normal 1.000000e+000 3.955181e-018 5.373750e-017
    outer loop
      vertex   3.880770e-001 -2.139758e+001 -1.476968e+001
      vertex   3.880770e-001 -1.926283e+001 -1.593560e+001
      vertex   3.880770e-001 -2.262068e+001 -1.064448e+001
    endloop
  endfacet
  facet normal 1.000000e+000 2.604134e-017 4.493843e-017
    outer loop
      vertex   3.880770e-001 -2.110820e+001 1.339567e+001
      vertex   3.880770e-001 -2.139758e+001 1.476968e+001
      vertex   3.880770e-001 -2.431042e+001 9.219727e+000
    endloop
  endfacet
  facet normal 1.000000e+000 3.135805e-017 5.189302e-017
    outer loop
      vertex   3.880770e-001 -2.495067e+001 1.569763e+000
      vertex   3.880770e-001 -2.581043e+001 3.133954e+000
      vertex   3.880770e-001 -2.581043e+001 -3.133954e+000
    endloop
  endfacet
  facet normal 1.000000e+000 -2.645610e-017 4.472075e-017
    outer loop
      vertex   3.880770e-001 -2.262068e+001 -1.064448e+001
      vertex   3.880770e-001 -2.431042e+001 -9.219727e+000
      vertex   3.880770e-001 -2.139758e+001 -1.476968e+001
    endloop
  endfacet
  facet normal 1.000000e+000 -3.420972e-018 5.954156e-017
    outer loop
      vertex   3.880770e-001 -1.724119e+001 -1.946128e+001
      vertex   3.880770e-001 -1.469463e+001 -2.022542e+001
      vertex   3.880770e-001 -1.926283e+001 -1.593560e+001
    endloop
  endfacet
  facet normal 1.000000e+000 2.843162e-017 4.643830e-017
    outer loop
      vertex   3.880770e-001 -2.377641e+001 7.725425e+000
      vertex   3.880770e-001 -2.431042e+001 9.219727e+000
      vertex   3.880770e-001 -2.581043e+001 3.133954e+000
    endloop
  endfacet
  facet normal 1.000000e+000 1.193380e-017 6.834606e-017
    outer loop
      vertex   3.880770e-001 -1.926283e+001 -1.593560e+001
      vertex   3.880770e-001 -2.139758e+001 -1.476968e+001
      vertex   3.880770e-001 -1.724119e+001 -1.946128e+001
    endloop
  endfacet
  facet normal 1.000000e+000 -2.932942e-017 4.621701e-017
    outer loop
      vertex   3.880770e-001 -2.455718e+001 -4.684533e+000
      vertex   3.880770e-001 -2.581043e+001 -3.133954e+000
      vertex   3.880770e-001 -2.431042e+001 -9.219727e+000
    endloop
  endfacet
  facet normal 1.000000e+000 4.844262e-018 6.268084e-017
    outer loop
      vertex   3.880770e-001 -1.208280e+001 -2.302186e+001
      vertex   3.880770e-001 -9.203114e+000 -2.324441e+001
      vertex   3.880770e-001 -1.469463e+001 -2.022542e+001
    endloop
  endfacet
  facet normal 1.000000e+000 8.078523e-018 6.624828e-017
    outer loop
      vertex   3.880770e-001 -6.222207e+000 -2.524449e+001
      vertex   3.880770e-001 -3.133331e+000 -2.480287e+001
      vertex   3.880770e-001 -9.203114e+000 -2.324441e+001
    endloop
  endfacet
  facet normal 1.000000e+000 -1.389050e-017 5.421011e-017
    outer loop
      vertex   3.880770e-001 9.552245e-015 -2.600000e+001
      vertex   3.880770e-001 3.061617e-015 -2.500000e+001
      vertex   3.880770e-001 -3.133331e+000 -2.480287e+001
    endloop
  endfacet
  facet normal 1.000000e+000 -5.330578e-018 5.317768e-017
    outer loop
      vertex   3.880770e-001 -1.469463e+001 -2.022542e+001
      vertex   3.880770e-001 -1.724119e+001 -1.946128e+001
      vertex   3.880770e-001 -1.208280e+001 -2.302186e+001
    endloop
  endfacet
  facet normal 1.000000e+000 3.348629e-018 9.933118e-017
    outer loop
      vertex   3.880770e-001 -3.133331e+000 -2.480287e+001
      vertex   3.880770e-001 -6.222207e+000 -2.524449e+001
      vertex   3.880770e-001 9.552245e-015 -2.600000e+001
    endloop
  endfacet
  facet normal 1.000000e+000 4.734827e-018 6.126485e-017
    outer loop
      vertex   3.880770e-001 -9.203114e+000 -2.324441e+001
      vertex   3.880770e-001 -1.208280e+001 -2.302186e+001
      vertex   3.880770e-001 -6.222207e+000 -2.524449e+001
    endloop
  endfacet
  facet normal 1.000000e+000 1.389050e-017 5.421011e-017
    outer loop
      vertex   3.880770e-001 3.133331e+000 -2.480287e+001
      vertex   3.880770e-001 3.061617e-015 -2.500000e+001
      vertex   3.880770e-001 9.552245e-015 -2.600000e+001
    endloop
  endfacet
  facet normal -0.000000e+000 1.205367e-001 9.927089e-001
    outer loop
      vertex   -6.119230e-001 -6.368163e-015 2.600000e+001
      vertex   3.880770e-001 -6.368163e-015 2.600000e+001
      vertex   3.880770e-001 6.222207e+000 2.524449e+001
    endloop
  endfacet
  facet normal -0.000000e+000 3.546049e-001 9.350162e-001
    outer loop
      vertex   -6.119230e-001 6.222207e+000 2.524449e+001
      vertex   3.880770e-001 6.222207e+000 2.524449e+001
      vertex   3.880770e-001 1.208280e+001 2.302186e+001
    endloop
  endfacet
  facet normal -0.000000e+000 5.680647e-001 8.229839e-001
    outer loop
      vertex   -6.119230e-001 1.208280e+001 2.302186e+001
      vertex   3.880770e-001 1.208280e+001 2.302186e+001
      vertex   3.880770e-001 1.724119e+001 1.946128e+001
    endloop
  endfacet
  facet normal -0.000000e+000 7.485107e-001 6.631227e-001
    outer loop
      vertex   -6.119230e-001 1.724119e+001 1.946128e+001
      vertex   3.880770e-001 1.724119e+001 1.946128e+001
      vertex   3.880770e-001 2.139758e+001 1.476968e+001
    endloop
  endfacet
  facet normal -0.000000e+000 8.854560e-001 4.647232e-001
    outer loop
      vertex   -6.119230e-001 2.139758e+001 1.476968e+001
      vertex   3.880770e-001 2.139758e+001 1.476968e+001
      vertex   3.880770e-001 2.431042e+001 9.219727e+000
    endloop
  endfacet
  facet normal -0.000000e+000 9.709418e-001 2.393157e-001
    outer loop
      vertex   -6.119230e-001 2.431042e+001 9.219727e+000
      vertex   3.880770e-001 2.431042e+001 9.219727e+000
      vertex   3.880770e-001 2.581043e+001 3.133954e+000
    endloop
  endfacet
  facet normal -0.000000e+000 1.000000e+000 0.000000e+000
    outer loop
      vertex   -6.119230e-001 2.581043e+001 3.133954e+000
      vertex   3.880770e-001 2.581043e+001 3.133954e+000
      vertex   3.880770e-001 2.581043e+001 -3.133954e+000
    endloop
  endfacet
  facet normal 0.000000e+000 9.709418e-001 -2.393157e-001
    outer loop
      vertex   -6.119230e-001 2.581043e+001 -3.133954e+000
      vertex   3.880770e-001 2.581043e+001 -3.133954e+000
      vertex   3.880770e-001 2.431042e+001 -9.219727e+000
    endloop
  endfacet
  facet normal 0.000000e+000 8.854560e-001 -4.647232e-001
    outer loop
      vertex   -6.119230e-001 2.431042e+001 -9.219727e+000
      vertex   3.880770e-001 2.431042e+001 -9.219727e+000
      vertex   3.880770e-001 2.139758e+001 -1.476968e+001
    endloop
  endfacet
  facet normal 0.000000e+000 7.485107e-001 -6.631227e-001
    outer loop
      vertex   -6.119230e-001 2.139758e+001 -1.476968e+001
      vertex   3.880770e-001 2.139758e+001 -1.476968e+001
      vertex   3.880770e-001 1.724119e+001 -1.946128e+001
    endloop
  endfacet
  facet normal 0.000000e+000 5.680647e-001 -8.229839e-001
    outer loop
      vertex   -6.119230e-001 1.724119e+001 -1.946128e+001
      vertex   3.880770e-001 1.724119e+001 -1.946128e+001
      vertex   3.880770e-001 1.208280e+001 -2.302186e+001
    endloop
  endfacet
  facet normal 0.000000e+000 3.546049e-001 -9.350162e-001
    outer loop
      vertex   -6.119230e-001 1.208280e+001 -2.302186e+001
      vertex   3.880770e-001 1.208280e+001 -2.302186e+001
      vertex   3.880770e-001 6.222207e+000 -2.524449e+001
    endloop
  endfacet
  facet normal 0.000000e+000 1.205367e-001 -9.927089e-001
    outer loop
      vertex   -6.119230e-001 6.222207e+000 -2.524449e+001
      vertex   3.880770e-001 6.222207e+000 -2.524449e+001
      vertex   3.880770e-001 9.552245e-015 -2.600000e+001
    endloop
  endfacet
  facet normal 7.675973e-016 -1.205367e-001 -9.927089e-001
    outer loop
      vertex   -6.119230e-001 3.184082e-015 -2.600000e+001
      vertex   3.880770e-001 9.552245e-015 -2.600000e+001
      vertex   3.880770e-001 -6.222207e+000 -2.524449e+001
    endloop
  endfacet
  facet normal 0.000000e+000 -3.546049e-001 -9.350162e-001
    outer loop
      vertex   -6.119230e-001 -6.222207e+000 -2.524449e+001
      vertex   3.880770e-001 -6.222207e+000 -2.524449e+001
      vertex   3.880770e-001 -1.208280e+001 -2.302186e+001
    endloop
  endfacet
  facet normal 0.000000e+000 -5.680647e-001 -8.229839e-001
    outer loop
      vertex   -6.119230e-001 -1.208280e+001 -2.302186e+001
      vertex   3.880770e-001 -1.208280e+001 -2.302186e+001
      vertex   3.880770e-001 -1.724119e+001 -1.946128e+001
    endloop
  endfacet
  facet normal 0.000000e+000 -7.485107e-001 -6.631227e-001
    outer loop
      vertex   -6.119230e-001 -1.724119e+001 -1.946128e+001
      vertex   3.880770e-001 -1.724119e+001 -1.946128e+001
      vertex   3.880770e-001 -2.139758e+001 -1.476968e+001
    endloop
  endfacet
  facet normal 0.000000e+000 -8.854560e-001 -4.647232e-001
    outer loop
      vertex   -6.119230e-001 -2.139758e+001 -1.476968e+001
      vertex   3.880770e-001 -2.139758e+001 -1.476968e+001
      vertex   3.880770e-001 -2.431042e+001 -9.219727e+000
    endloop
  endfacet
  facet normal 0.000000e+000 -9.709418e-001 -2.393157e-001
    outer loop
      vertex   -6.119230e-001 -2.431042e+001 -9.219727e+000
      vertex   3.880770e-001 -2.431042e+001 -9.219727e+000
      vertex   3.880770e-001 -2.581043e+001 -3.133954e+000
    endloop
  endfacet
  facet normal 0.000000e+000 -1.000000e+000 -5.535256e-016
    outer loop
      vertex   -6.119230e-001 -2.581043e+001 -3.133954e+000
      vertex   3.880770e-001 -2.581043e+001 -3.133954e+000
      vertex   3.880770e-001 -2.581043e+001 3.133954e+000
    endloop
  endfacet
  facet normal 0.000000e+000 -9.709418e-001 2.393157e-001
    outer loop
      vertex   -6.119230e-001 -2.581043e+001 3.133954e+000
      vertex   3.880770e-001 -2.581043e+001 3.133954e+000
      vertex   3.880770e-001 -2.431042e+001 9.219727e+000
    endloop
  endfacet
  facet normal 0.000000e+000 -8.854560e-001 4.647232e-001
    outer loop
      vertex   -6.119230e-001 -2.431042e+001 9.219727e+000
      vertex   3.880770e-001 -2.431042e+001 9.219727e+000
      vertex   3.880770e-001 -2.139758e+001 1.476968e+001
    endloop
  endfacet
  facet normal 0.000000e+000 -7.485107e-001 6.631227e-001
    outer loop
      vertex   -6.119230e-001 -2.139758e+001 1.476968e+001
      vertex   3.880770e-001 -2.139758e+001 1.476968e+001
      vertex   3.880770e-001 -1.724119e+001 1.946128e+001
    endloop
  endfacet
  facet normal 0.000000e+000 -5.680647e-001 8.229839e-001
    outer loop
      vertex   -6.119230e-001 -1.724119e+001 1.946128e+001
      vertex   3.880770e-001 -1.724119e+001 1.946128e+001
      vertex   3.880770e-001 -1.208280e+001 2.302186e+001
    endloop
  endfacet
  facet normal 0.000000e+000 -3.546049e-001 9.350162e-001
    outer loop
      vertex   -6.119230e-001 -1.208280e+001 2.302186e+001
      vertex   3.880770e-001 -1.208280e+001 2.302186e+001
      vertex   3.880770e-001 -6.222207e+000 2.524449e+001
    endloop
  endfacet
  facet normal 0.000000e+000 -1.205367e-001 9.927089e-001
    outer loop
      vertex   -6.119230e-001 -6.222207e+000 2.524449e+001
      vertex   3.880770e-001 -6.222207e+000 2.524449e+001
      vertex   3.880770e-001 -6.368163e-015 2.600000e+001
    endloop
  endfacet
  facet normal 0.000000e+000 -1.205367e-001 9.927089e-001
    outer loop
      vertex   3.880770e-001 -6.368163e-015 2.600000e+001
      vertex   -6.119230e-001 -6.368163e-015 2.600000e+001
      vertex   -6.119230e-001 -6.222207e+000 2.524449e+001
    endloop
  endfacet
  facet normal 0.000000e+000 -3.546049e-001 9.350162e-001
    outer loop
      vertex   3.880770e-001 -6.222207e+000 2.524449e+001
      vertex   -6.119230e-001 -6.222207e+000 2.524449e+001
      vertex   -6.119230e-001 -1.208280e+001 2.302186e+001
    endloop
  endfacet
  facet normal 0.000000e+000 -5.680647e-001 8.229839e-001
    outer loop
      vertex   3.880770e-001 -1.208280e+001 2.302186e+001
      vertex   -6.119230e-001 -1.208280e+001 2.302186e+001
      vertex   -6.119230e-001 -1.724119e+001 1.946128e+001
    endloop
  endfacet
  facet normal 0.000000e+000 -7.485107e-001 6.631227e-001
    outer loop
      vertex   3.880770e-001 -1.724119e+001 1.946128e+001
      vertex   -6.119230e-001 -1.724119e+001 1.946128e+001
      vertex   -6.119230e-001 -2.139758e+001 1.476968e+001
    endloop
  endfacet
  facet normal 0.000000e+000 -8.854560e-001 4.647232e-001
    outer loop
      vertex   3.880770e-001 -2.139758e+001 1.476968e+001
      vertex   -6.119230e-001 -2.139758e+001 1.476968e+001
      vertex   -6.119230e-001 -2.431042e+001 9.219727e+000
    endloop
  endfacet
  facet normal 0.000000e+000 -9.709418e-001 2.393157e-001
    outer loop
      vertex   3.880770e-001 -2.431042e+001 9.219727e+000
      vertex   -6.119230e-001 -2.431042e+001 9.219727e+000
      vertex   -6.119230e-001 -2.581043e+001 3.133954e+000
    endloop
  endfacet
  facet normal -0.000000e+000 -1.000000e+000 -5.535256e-016
    outer loop
      vertex   3.880770e-001 -2.581043e+001 3.133954e+000
      vertex   -6.119230e-001 -2.581043e+001 3.133954e+000
      vertex   -6.119230e-001 -2.581043e+001 -3.133954e+000
    endloop
  endfacet
  facet normal -0.000000e+000 -9.709418e-001 -2.393157e-001
    outer loop
      vertex   3.880770e-001 -2.581043e+001 -3.133954e+000
      vertex   -6.119230e-001 -2.581043e+001 -3.133954e+000
      vertex   -6.119230e-001 -2.431042e+001 -9.219727e+000
    endloop
  endfacet
  facet normal -0.000000e+000 -8.854560e-001 -4.647232e-001
    outer loop
      vertex   3.880770e-001 -2.431042e+001 -9.219727e+000
      vertex   -6.119230e-001 -2.431042e+001 -9.219727e+000
      vertex   -6.119230e-001 -2.139758e+001 -1.476968e+001
    endloop
  endfacet
  facet normal -0.000000e+000 -7.485107e-001 -6.631227e-001
    outer loop
      vertex   3.880770e-001 -2.139758e+001 -1.476968e+001
      vertex   -6.119230e-001 -2.139758e+001 -1.476968e+001
      vertex   -6.119230e-001 -1.724119e+001 -1.946128e+001
    endloop
  endfacet
  facet normal -0.000000e+000 -5.680647e-001 -8.229839e-001
    outer loop
      vertex   3.880770e-001 -1.724119e+001 -1.946128e+001
      vertex   -6.119230e-001 -1.724119e+001 -1.946128e+001
      vertex   -6.119230e-001 -1.208280e+001 -2.302186e+001
    endloop
  endfacet
  facet normal -0.000000e+000 -3.546049e-001 -9.350162e-001
    outer loop
      vertex   3.880770e-001 -1.208280e+001 -2.302186e+001
      vertex   -6.119230e-001 -1.208280e+001 -2.302186e+001
      vertex   -6.119230e-001 -6.222207e+000 -2.524449e+001
    endloop
  endfacet
  facet normal -0.000000e+000 -1.205367e-001 -9.927089e-001
    outer loop
      vertex   3.880770e-001 -6.222207e+000 -2.524449e+001
      vertex   -6.119230e-001 -6.222207e+000 -2.524449e+001
      vertex   -6.119230e-001 3.184082e-015 -2.600000e+001
    endloop
  endfacet
  facet normal -7.675973e-016 1.205367e-001 -9.927089e-001
    outer loop
      vertex   3.880770e-001 9.552245e-015 -2.600000e+001
      vertex   -6.119230e-001 3.184082e-015 -2.600000e+001
      vertex   -6.119230e-001 6.222207e+000 -2.524449e+001
    endloop
  endfacet
  facet normal 0.000000e+000 3.546049e-001 -9.350162e-001
    outer loop
      vertex   3.880770e-001 6.222207e+000 -2.524449e+001
      vertex   -6.119230e-001 6.222207e+000 -2.524449e+001
      vertex   -6.119230e-001 1.208280e+001 -2.302186e+001
    endloop
  endfacet
  facet normal 0.000000e+000 5.680647e-001 -8.229839e-001
    outer loop
      vertex   3.880770e-001 1.208280e+001 -2.302186e+001
      vertex   -6.119230e-001 1.208280e+001 -2.302186e+001
      vertex   -6.119230e-001 1.724119e+001 -1.946128e+001
    endloop
  endfacet
  facet normal 0.000000e+000 7.485107e-001 -6.631227e-001
    outer loop
      vertex   3.880770e-001 1.724119e+001 -1.946128e+001
      vertex   -6.119230e-001 1.724119e+001 -1.946128e+001
      vertex   -6.119230e-001 2.139758e+001 -1.476968e+001
    endloop
  endfacet
  facet normal 0.000000e+000 8.854560e-001 -4.647232e-001
    outer loop
      vertex   3.880770e-001 2.139758e+001 -1.476968e+001
      vertex   -6.119230e-001 2.139758e+001 -1.476968e+001
      vertex   -6.119230e-001 2.431042e+001 -9.219727e+000
    endloop
  endfacet
  facet normal 0.000000e+000 9.709418e-001 -2.393157e-001
    outer loop
      vertex   3.880770e-001 2.431042e+001 -9.219727e+000
      vertex   -6.119230e-001 2.431042e+001 -9.219727e+000
      vertex   -6.119230e-001 2.581043e+001 -3.133954e+000
    endloop
  endfacet
  facet normal 0.000000e+000 1.000000e+000 0.000000e+000
    outer loop
      vertex   3.880770e-001 2.581043e+001 -3.133954e+000
      vertex   -6.119230e-001 2.581043e+001 -3.133954e+000
      vertex   -6.119230e-001 2.581043e+001 3.133954e+000
    endloop
  endfacet
  facet normal 0.000000e+000 9.709418e-001 2.393157e-001
    outer loop
      vertex   3.880770e-001 2.581043e+001 3.133954e+000
      vertex   -6.119230e-001 2.581043e+001 3.133954e+000
      vertex   -6.119230e-001 2.431042e+001 9.219727e+000
    endloop
  endfacet
  facet normal 0.000000e+000 8.854560e-001 4.647232e-001
    outer loop
      vertex   3.880770e-001 2.431042e+001 9.219727e+000
      vertex   -6.119230e-001 2.431042e+001 9.219727e+000
      vertex   -6.119230e-001 2.139758e+001 1.476968e+001
    endloop
  endfacet
  facet normal 0.000000e+000 7.485107e-001 6.631227e-001
    outer loop
      vertex   3.880770e-001 2.139758e+001 1.476968e+001
      vertex   -6.119230e-001 2.139758e+001 1.476968e+001
      vertex   -6.119230e-001 1.724119e+001 1.946128e+001
    endloop
  endfacet
  facet normal 0.000000e+000 5.680647e-001 8.229839e-001
    outer loop
      vertex   3.880770e-001 1.724119e+001 1.946128e+001
      vertex   -6.119230e-001 1.724119e+001 1.946128e+001
      vertex   -6.119230e-001 1.208280e+001 2.302186e+001
    endloop
  endfacet
  facet normal 0.000000e+000 3.546049e-001 9.350162e-001
    outer loop
      vertex   3.880770e-001 1.208280e+001 2.302186e+001
      vertex   -6.119230e-001 1.208280e+001 2.302186e+001
      vertex   -6.119230e-001 6.222207e+000 2.524449e+001
    endloop
  endfacet
  facet normal 0.000000e+000 1.205367e-001 9.927089e-001
    outer loop
      vertex   3.880770e-001 6.222207e+000 2.524449e+001
      vertex   -6.119230e-001 6.222207e+000 2.524449e+001
      vertex   -6.119230e-001 -6.368163e-015 2.600000e+001
    endloop
  endfacet
  facet normal -1.000000e+000 -1.364244e-017 2.168404e-016
    outer loop
      vertex   -6.119230e-001 3.184082e-015 -2.600000e+001
      vertex   -6.119230e-001 9.184851e-015 -2.500000e+001
      vertex   -6.119230e-001 3.133331e+000 -2.480287e+001
    endloop
  endfacet
  facet normal -1.000000e+000 3.223941e-017 2.655155e-016
    outer loop
      vertex   -6.119230e-001 3.184082e-015 -2.600000e+001
      vertex   -6.119230e-001 -6.222207e+000 -2.524449e+001
      vertex   -6.119230e-001 -3.133331e+000 -2.480287e+001
    endloop
  endfacet
  facet normal -1.000000e+000 1.364244e-017 2.168404e-016
    outer loop
      vertex   -6.119230e-001 -3.133331e+000 -2.480287e+001
      vertex   -6.119230e-001 9.184851e-015 -2.500000e+001
      vertex   -6.119230e-001 3.184082e-015 -2.600000e+001
    endloop
  endfacet
  facet normal -1.000000e+000 8.983729e-017 1.881013e-016
    outer loop
      vertex   -6.119230e-001 -6.222207e+000 -2.524449e+001
      vertex   -6.119230e-001 -1.208280e+001 -2.302186e+001
      vertex   -6.119230e-001 -9.203114e+000 -2.324441e+001
    endloop
  endfacet
  facet normal -1.000000e+000 -5.148058e-017 1.309346e-016
    outer loop
      vertex   -6.119230e-001 6.222207e+000 -2.524449e+001
      vertex   -6.119230e-001 3.133331e+000 -2.480287e+001
      vertex   -6.119230e-001 9.203114e+000 -2.324441e+001
    endloop
  endfacet
  facet normal -1.000000e+000 5.148058e-017 1.309346e-016
    outer loop
      vertex   -6.119230e-001 -9.203114e+000 -2.324441e+001
      vertex   -6.119230e-001 -3.133331e+000 -2.480287e+001
      vertex   -6.119230e-001 -6.222207e+000 -2.524449e+001
    endloop
  endfacet
  facet normal -1.000000e+000 -8.115818e-017 7.580062e-017
    outer loop
      vertex   -6.119230e-001 1.208280e+001 -2.302186e+001
      vertex   -6.119230e-001 9.203114e+000 -2.324441e+001
      vertex   -6.119230e-001 1.469463e+001 -2.022542e+001
    endloop
  endfacet
  facet normal -1.000000e+000 -3.223941e-017 2.655155e-016
    outer loop
      vertex   -6.119230e-001 3.133331e+000 -2.480287e+001
      vertex   -6.119230e-001 6.222207e+000 -2.524449e+001
      vertex   -6.119230e-001 3.184082e-015 -2.600000e+001
    endloop
  endfacet
  facet normal -1.000000e+000 -1.028463e-016 5.897257e-017
    outer loop
      vertex   -6.119230e-001 1.724119e+001 -1.946128e+001
      vertex   -6.119230e-001 1.469463e+001 -2.022542e+001
      vertex   -6.119230e-001 1.926283e+001 -1.593560e+001
    endloop
  endfacet
  facet normal -1.000000e+000 -8.983729e-017 1.881013e-016
    outer loop
      vertex   -6.119230e-001 9.203114e+000 -2.324441e+001
      vertex   -6.119230e-001 1.208280e+001 -2.302186e+001
      vertex   -6.119230e-001 6.222207e+000 -2.524449e+001
    endloop
  endfacet
  facet normal -1.000000e+000 1.478921e-016 8.480203e-017
    outer loop
      vertex   -6.119230e-001 -1.724119e+001 -1.946128e+001
      vertex   -6.119230e-001 -2.139758e+001 -1.476968e+001
      vertex   -6.119230e-001 -1.926283e+001 -1.593560e+001
    endloop
  endfacet
  facet normal -1.000000e+000 1.415547e-016 1.568766e-017
    outer loop
      vertex   -6.119230e-001 -2.139758e+001 -1.476968e+001
      vertex   -6.119230e-001 -2.431042e+001 -9.219727e+000
      vertex   -6.119230e-001 -2.262068e+001 -1.064448e+001
    endloop
  endfacet
  facet normal -1.000000e+000 -1.183074e-016 1.104975e-016
    outer loop
      vertex   -6.119230e-001 1.469463e+001 -2.022542e+001
      vertex   -6.119230e-001 1.724119e+001 -1.946128e+001
      vertex   -6.119230e-001 1.208280e+001 -2.302186e+001
    endloop
  endfacet
  facet normal -1.000000e+000 1.183074e-016 1.104975e-016
    outer loop
      vertex   -6.119230e-001 -1.208280e+001 -2.302186e+001
      vertex   -6.119230e-001 -1.724119e+001 -1.946128e+001
      vertex   -6.119230e-001 -1.469463e+001 -2.022542e+001
    endloop
  endfacet
  facet normal -1.000000e+000 1.040754e-016 4.575273e-018
    outer loop
      vertex   -6.119230e-001 -2.262068e+001 -1.064448e+001
      vertex   -6.119230e-001 -1.926283e+001 -1.593560e+001
      vertex   -6.119230e-001 -2.139758e+001 -1.476968e+001
    endloop
  endfacet
  facet normal -1.000000e+000 1.537978e-016 -1.553830e-017
    outer loop
      vertex   -6.119230e-001 -2.431042e+001 -9.219727e+000
      vertex   -6.119230e-001 -2.581043e+001 -3.133954e+000
      vertex   -6.119230e-001 -2.455718e+001 -4.684533e+000
    endloop
  endfacet
  facet normal -1.000000e+000 8.115818e-017 7.580062e-017
    outer loop
      vertex   -6.119230e-001 -1.469463e+001 -2.022542e+001
      vertex   -6.119230e-001 -9.203114e+000 -2.324441e+001
      vertex   -6.119230e-001 -1.208280e+001 -2.302186e+001
    endloop
  endfacet
  facet normal -1.000000e+000 1.133710e-016 -1.773792e-017
    outer loop
      vertex   -6.119230e-001 -2.455718e+001 -4.684533e+000
      vertex   -6.119230e-001 -2.262068e+001 -1.064448e+001
      vertex   -6.119230e-001 -2.431042e+001 -9.219727e+000
    endloop
  endfacet
  facet normal -1.000000e+000 2.524339e-016 -6.919070e-017
    outer loop
      vertex   -6.119230e-001 -2.581043e+001 -3.133954e+000
      vertex   -6.119230e-001 -2.581043e+001 3.133954e+000
      vertex   -6.119230e-001 -2.495067e+001 1.569763e+000
    endloop
  endfacet
  facet normal -1.000000e+000 2.719607e-016 -1.204784e-016
    outer loop
      vertex   -6.119230e-001 -2.581043e+001 3.133954e+000
      vertex   -6.119230e-001 -2.431042e+001 9.219727e+000
      vertex   -6.119230e-001 -2.377641e+001 7.725425e+000
    endloop
  endfacet
  facet normal -1.000000e+000 -2.244446e-017 -3.157071e-016
    outer loop
      vertex   -6.119230e-001 6.222207e+000 2.524449e+001
      vertex   -6.119230e-001 6.217247e+000 2.421458e+001
      vertex   -6.119230e-001 -6.123234e-015 2.500000e+001
    endloop
  endfacet
  facet normal -1.000000e+000 -9.564952e-017 -2.885811e-016
    outer loop
      vertex   -6.119230e-001 1.208280e+001 2.302186e+001
      vertex   -6.119230e-001 1.204384e+001 2.190767e+001
      vertex   -6.119230e-001 6.217247e+000 2.421458e+001
    endloop
  endfacet
  facet normal -1.000000e+000 -1.936213e-016 -1.484740e-016
    outer loop
      vertex   -6.119230e-001 2.431042e+001 9.219727e+000
      vertex   -6.119230e-001 2.377641e+001 7.725425e+000
      vertex   -6.119230e-001 2.110820e+001 1.339567e+001
    endloop
  endfacet
  facet normal -1.000000e+000 -2.094810e-016 -9.279990e-017
    outer loop
      vertex   -6.119230e-001 2.581043e+001 3.133954e+000
      vertex   -6.119230e-001 2.495067e+001 1.569763e+000
      vertex   -6.119230e-001 2.377641e+001 7.725425e+000
    endloop
  endfacet
  facet normal -1.000000e+000 1.028463e-016 5.897257e-017
    outer loop
      vertex   -6.119230e-001 -1.926283e+001 -1.593560e+001
      vertex   -6.119230e-001 -1.469463e+001 -2.022542e+001
      vertex   -6.119230e-001 -1.724119e+001 -1.946128e+001
    endloop
  endfacet
  facet normal -1.000000e+000 2.094810e-016 -9.279990e-017
    outer loop
      vertex   -6.119230e-001 -2.377641e+001 7.725425e+000
      vertex   -6.119230e-001 -2.495067e+001 1.569763e+000
      vertex   -6.119230e-001 -2.581043e+001 3.133954e+000
    endloop
  endfacet
  facet normal -1.000000e+000 -1.010884e-016 -3.153283e-016
    outer loop
      vertex   -6.119230e-001 6.217247e+000 2.421458e+001
      vertex   -6.119230e-001 6.222207e+000 2.524449e+001
      vertex   -6.119230e-001 1.208280e+001 2.302186e+001
    endloop
  endfacet
  facet normal -1.000000e+000 -1.379294e-016 -2.487124e-016
    outer loop
      vertex   -6.119230e-001 1.724119e+001 1.946128e+001
      vertex   -6.119230e-001 1.711368e+001 1.822422e+001
      vertex   -6.119230e-001 1.204384e+001 2.190767e+001
    endloop
  endfacet
  facet normal -1.000000e+000 -1.848137e-016 -1.977992e-016
    outer loop
      vertex   -6.119230e-001 2.139758e+001 1.476968e+001
      vertex   -6.119230e-001 2.110820e+001 1.339567e+001
      vertex   -6.119230e-001 1.711368e+001 1.822422e+001
    endloop
  endfacet
  facet normal -1.000000e+000 -2.719607e-016 -1.204784e-016
    outer loop
      vertex   -6.119230e-001 2.377641e+001 7.725425e+000
      vertex   -6.119230e-001 2.431042e+001 9.219727e+000
      vertex   -6.119230e-001 2.581043e+001 3.133954e+000
    endloop
  endfacet
  facet normal -1.000000e+000 -1.178521e-016 -4.459134e-017
    outer loop
      vertex   -6.119230e-001 2.581043e+001 -3.133954e+000
      vertex   -6.119230e-001 2.455718e+001 -4.684533e+000
      vertex   -6.119230e-001 2.495067e+001 1.569763e+000
    endloop
  endfacet
  facet normal -1.000000e+000 -1.133710e-016 -1.773792e-017
    outer loop
      vertex   -6.119230e-001 2.431042e+001 -9.219727e+000
      vertex   -6.119230e-001 2.262068e+001 -1.064448e+001
      vertex   -6.119230e-001 2.455718e+001 -4.684533e+000
    endloop
  endfacet
  facet normal -1.000000e+000 1.178521e-016 -4.459134e-017
    outer loop
      vertex   -6.119230e-001 -2.495067e+001 1.569763e+000
      vertex   -6.119230e-001 -2.455718e+001 -4.684533e+000
      vertex   -6.119230e-001 -2.581043e+001 -3.133954e+000
    endloop
  endfacet
  facet normal -1.000000e+000 2.421874e-016 -1.857157e-016
    outer loop
      vertex   -6.119230e-001 -2.431042e+001 9.219727e+000
      vertex   -6.119230e-001 -2.139758e+001 1.476968e+001
      vertex   -6.119230e-001 -2.110820e+001 1.339567e+001
    endloop
  endfacet
  facet normal -1.000000e+000 2.191213e-016 -2.403434e-016
    outer loop
      vertex   -6.119230e-001 -2.139758e+001 1.476968e+001
      vertex   -6.119230e-001 -1.724119e+001 1.946128e+001
      vertex   -6.119230e-001 -1.711368e+001 1.822422e+001
    endloop
  endfacet
  facet normal -1.000000e+000 1.557071e-016 -2.864810e-016
    outer loop
      vertex   -6.119230e-001 -1.724119e+001 1.946128e+001
      vertex   -6.119230e-001 -1.208280e+001 2.302186e+001
      vertex   -6.119230e-001 -1.204384e+001 2.190767e+001
    endloop
  endfacet
  facet normal -1.000000e+000 -1.557071e-016 -2.864810e-016
    outer loop
      vertex   -6.119230e-001 1.204384e+001 2.190767e+001
      vertex   -6.119230e-001 1.208280e+001 2.302186e+001
      vertex   -6.119230e-001 1.724119e+001 1.946128e+001
    endloop
  endfacet
  facet normal -1.000000e+000 -2.421874e-016 -1.857157e-016
    outer loop
      vertex   -6.119230e-001 2.110820e+001 1.339567e+001
      vertex   -6.119230e-001 2.139758e+001 1.476968e+001
      vertex   -6.119230e-001 2.431042e+001 9.219727e+000
    endloop
  endfacet
  facet normal -1.000000e+000 -1.537978e-016 -1.553830e-017
    outer loop
      vertex   -6.119230e-001 2.455718e+001 -4.684533e+000
      vertex   -6.119230e-001 2.581043e+001 -3.133954e+000
      vertex   -6.119230e-001 2.431042e+001 -9.219727e+000
    endloop
  endfacet
  facet normal -1.000000e+000 -1.040754e-016 4.575273e-018
    outer loop
      vertex   -6.119230e-001 2.139758e+001 -1.476968e+001
      vertex   -6.119230e-001 1.926283e+001 -1.593560e+001
      vertex   -6.119230e-001 2.262068e+001 -1.064448e+001
    endloop
  endfacet
  facet normal -1.000000e+000 1.936213e-016 -1.484740e-016
    outer loop
      vertex   -6.119230e-001 -2.110820e+001 1.339567e+001
      vertex   -6.119230e-001 -2.377641e+001 7.725425e+000
      vertex   -6.119230e-001 -2.431042e+001 9.219727e+000
    endloop
  endfacet
  facet normal -1.000000e+000 1.379294e-016 -2.487124e-016
    outer loop
      vertex   -6.119230e-001 -1.204384e+001 2.190767e+001
      vertex   -6.119230e-001 -1.711368e+001 1.822422e+001
      vertex   -6.119230e-001 -1.724119e+001 1.946128e+001
    endloop
  endfacet
  facet normal -1.000000e+000 1.010884e-016 -3.153283e-016
    outer loop
      vertex   -6.119230e-001 -1.208280e+001 2.302186e+001
      vertex   -6.119230e-001 -6.222207e+000 2.524449e+001
      vertex   -6.119230e-001 -6.217247e+000 2.421458e+001
    endloop
  endfacet
  facet normal -1.000000e+000 2.632920e-017 -2.168404e-016
    outer loop
      vertex   -6.119230e-001 -6.222207e+000 2.524449e+001
      vertex   -6.119230e-001 -6.368163e-015 2.600000e+001
      vertex   -6.119230e-001 -6.123234e-015 2.500000e+001
    endloop
  endfacet
  facet normal -1.000000e+000 -2.191213e-016 -2.403434e-016
    outer loop
      vertex   -6.119230e-001 1.711368e+001 1.822422e+001
      vertex   -6.119230e-001 1.724119e+001 1.946128e+001
      vertex   -6.119230e-001 2.139758e+001 1.476968e+001
    endloop
  endfacet
  facet normal -1.000000e+000 -1.415547e-016 1.568766e-017
    outer loop
      vertex   -6.119230e-001 2.262068e+001 -1.064448e+001
      vertex   -6.119230e-001 2.431042e+001 -9.219727e+000
      vertex   -6.119230e-001 2.139758e+001 -1.476968e+001
    endloop
  endfacet
  facet normal -1.000000e+000 1.848137e-016 -1.977992e-016
    outer loop
      vertex   -6.119230e-001 -1.711368e+001 1.822422e+001
      vertex   -6.119230e-001 -2.110820e+001 1.339567e+001
      vertex   -6.119230e-001 -2.139758e+001 1.476968e+001
    endloop
  endfacet
  facet normal -1.000000e+000 2.244446e-017 -3.157071e-016
    outer loop
      vertex   -6.119230e-001 -6.123234e-015 2.500000e+001
      vertex   -6.119230e-001 -6.217247e+000 2.421458e+001
      vertex   -6.119230e-001 -6.222207e+000 2.524449e+001
    endloop
  endfacet
  facet normal -1.000000e+000 -2.524339e-016 -6.919070e-017
    outer loop
      vertex   -6.119230e-001 2.495067e+001 1.569763e+000
      vertex   -6.119230e-001 2.581043e+001 3.133954e+000
      vertex   -6.119230e-001 2.581043e+001 -3.133954e+000
    endloop
  endfacet
  facet normal -1.000000e+000 9.564952e-017 -2.885811e-016
    outer loop
      vertex   -6.119230e-001 -6.217247e+000 2.421458e+001
      vertex   -6.119230e-001 -1.204384e+001 2.190767e+001
      vertex   -6.119230e-001 -1.208280e+001 2.302186e+001
    endloop
  endfacet
  facet normal -1.000000e+000 -1.478921e-016 8.480203e-017
    outer loop
      vertex   -6.119230e-001 1.926283e+001 -1.593560e+001
      vertex   -6.119230e-001 2.139758e+001 -1.476968e+001
      vertex   -6.119230e-001 1.724119e+001 -1.946128e+001
    endloop
  endfacet
  facet normal -1.000000e+000 -2.632920e-017 -2.168404e-016
    outer loop
      vertex   -6.119230e-001 -6.123234e-015 2.500000e+001
      vertex   -6.119230e-001 -6.368163e-015 2.600000e+001
      vertex   -6.119230e-001 6.222207e+000 2.524449e+001
    endloop
  endfacet
endsolid
