solid EjeMotorCaja
  facet normal 0.000000e+000 1.000000e+000 0.000000e+000
    outer loop
      vertex   0.000000e+000 3.400000e+003 0.000000e+000
      vertex   8.821327e+000 3.400000e+003 5.002823e+001
      vertex   1.737462e+001 3.400000e+003 4.773639e+001
    endloop
  endfacet
  facet normal 0.000000e+000 1.000000e+000 0.000000e+000
    outer loop
      vertex   1.737462e+001 3.400000e+003 4.773639e+001
      vertex   2.540000e+001 3.400000e+003 4.399409e+001
      vertex   0.000000e+000 3.400000e+003 0.000000e+000
    endloop
  endfacet
  facet normal 0.000000e+000 1.000000e+000 0.000000e+000
    outer loop
      vertex   2.540000e+001 3.400000e+003 4.399409e+001
      vertex   3.265361e+001 3.400000e+003 3.891506e+001
      vertex   0.000000e+000 3.400000e+003 0.000000e+000
    endloop
  endfacet
  facet normal 0.000000e+000 1.000000e+000 0.000000e+000
    outer loop
      vertex   3.265361e+001 3.400000e+003 3.891506e+001
      vertex   3.891506e+001 3.400000e+003 3.265361e+001
      vertex   0.000000e+000 3.400000e+003 0.000000e+000
    endloop
  endfacet
  facet normal 0.000000e+000 1.000000e+000 0.000000e+000
    outer loop
      vertex   3.891506e+001 3.400000e+003 3.265361e+001
      vertex   4.399409e+001 3.400000e+003 2.540000e+001
      vertex   0.000000e+000 3.400000e+003 0.000000e+000
    endloop
  endfacet
  facet normal 0.000000e+000 1.000000e+000 0.000000e+000
    outer loop
      vertex   4.399409e+001 3.400000e+003 2.540000e+001
      vertex   4.773639e+001 3.400000e+003 1.737462e+001
      vertex   0.000000e+000 3.400000e+003 0.000000e+000
    endloop
  endfacet
  facet normal 0.000000e+000 1.000000e+000 0.000000e+000
    outer loop
      vertex   4.773639e+001 3.400000e+003 1.737462e+001
      vertex   5.002823e+001 3.400000e+003 8.821327e+000
      vertex   0.000000e+000 3.400000e+003 0.000000e+000
    endloop
  endfacet
  facet normal 0.000000e+000 1.000000e+000 0.000000e+000
    outer loop
      vertex   5.002823e+001 3.400000e+003 8.821327e+000
      vertex   5.080000e+001 3.400000e+003 3.110603e-015
      vertex   0.000000e+000 3.400000e+003 0.000000e+000
    endloop
  endfacet
  facet normal 0.000000e+000 1.000000e+000 0.000000e+000
    outer loop
      vertex   5.080000e+001 3.400000e+003 3.110603e-015
      vertex   5.002823e+001 3.400000e+003 -8.821327e+000
      vertex   0.000000e+000 3.400000e+003 0.000000e+000
    endloop
  endfacet
  facet normal 0.000000e+000 1.000000e+000 0.000000e+000
    outer loop
      vertex   5.002823e+001 3.400000e+003 -8.821327e+000
      vertex   4.773639e+001 3.400000e+003 -1.737462e+001
      vertex   0.000000e+000 3.400000e+003 0.000000e+000
    endloop
  endfacet
  facet normal 0.000000e+000 1.000000e+000 0.000000e+000
    outer loop
      vertex   4.773639e+001 3.400000e+003 -1.737462e+001
      vertex   4.399409e+001 3.400000e+003 -2.540000e+001
      vertex   0.000000e+000 3.400000e+003 0.000000e+000
    endloop
  endfacet
  facet normal 0.000000e+000 1.000000e+000 0.000000e+000
    outer loop
      vertex   4.399409e+001 3.400000e+003 -2.540000e+001
      vertex   3.891506e+001 3.400000e+003 -3.265361e+001
      vertex   0.000000e+000 3.400000e+003 0.000000e+000
    endloop
  endfacet
  facet normal 0.000000e+000 1.000000e+000 0.000000e+000
    outer loop
      vertex   3.891506e+001 3.400000e+003 -3.265361e+001
      vertex   3.265361e+001 3.400000e+003 -3.891506e+001
      vertex   0.000000e+000 3.400000e+003 0.000000e+000
    endloop
  endfacet
  facet normal 0.000000e+000 1.000000e+000 0.000000e+000
    outer loop
      vertex   3.265361e+001 3.400000e+003 -3.891506e+001
      vertex   2.540000e+001 3.400000e+003 -4.399409e+001
      vertex   0.000000e+000 3.400000e+003 0.000000e+000
    endloop
  endfacet
  facet normal 0.000000e+000 1.000000e+000 0.000000e+000
    outer loop
      vertex   2.540000e+001 3.400000e+003 -4.399409e+001
      vertex   1.737462e+001 3.400000e+003 -4.773639e+001
      vertex   0.000000e+000 3.400000e+003 0.000000e+000
    endloop
  endfacet
  facet normal 0.000000e+000 1.000000e+000 0.000000e+000
    outer loop
      vertex   1.737462e+001 3.400000e+003 -4.773639e+001
      vertex   8.821327e+000 3.400000e+003 -5.002823e+001
      vertex   0.000000e+000 3.400000e+003 0.000000e+000
    endloop
  endfacet
  facet normal 0.000000e+000 1.000000e+000 0.000000e+000
    outer loop
      vertex   8.821327e+000 3.400000e+003 -5.002823e+001
      vertex   6.221206e-015 3.400000e+003 -5.080000e+001
      vertex   0.000000e+000 3.400000e+003 0.000000e+000
    endloop
  endfacet
  facet normal 0.000000e+000 1.000000e+000 0.000000e+000
    outer loop
      vertex   6.221206e-015 3.400000e+003 -5.080000e+001
      vertex   -8.821327e+000 3.400000e+003 -5.002823e+001
      vertex   0.000000e+000 3.400000e+003 0.000000e+000
    endloop
  endfacet
  facet normal 0.000000e+000 1.000000e+000 -0.000000e+000
    outer loop
      vertex   -8.821327e+000 3.400000e+003 -5.002823e+001
      vertex   -1.737462e+001 3.400000e+003 -4.773639e+001
      vertex   0.000000e+000 3.400000e+003 0.000000e+000
    endloop
  endfacet
  facet normal 0.000000e+000 1.000000e+000 -0.000000e+000
    outer loop
      vertex   -1.737462e+001 3.400000e+003 -4.773639e+001
      vertex   -2.540000e+001 3.400000e+003 -4.399409e+001
      vertex   0.000000e+000 3.400000e+003 0.000000e+000
    endloop
  endfacet
  facet normal 0.000000e+000 1.000000e+000 -0.000000e+000
    outer loop
      vertex   -2.540000e+001 3.400000e+003 -4.399409e+001
      vertex   -3.265361e+001 3.400000e+003 -3.891506e+001
      vertex   0.000000e+000 3.400000e+003 0.000000e+000
    endloop
  endfacet
  facet normal 0.000000e+000 1.000000e+000 -0.000000e+000
    outer loop
      vertex   -3.265361e+001 3.400000e+003 -3.891506e+001
      vertex   -3.891506e+001 3.400000e+003 -3.265361e+001
      vertex   0.000000e+000 3.400000e+003 0.000000e+000
    endloop
  endfacet
  facet normal 0.000000e+000 1.000000e+000 -0.000000e+000
    outer loop
      vertex   -3.891506e+001 3.400000e+003 -3.265361e+001
      vertex   -4.399409e+001 3.400000e+003 -2.540000e+001
      vertex   0.000000e+000 3.400000e+003 0.000000e+000
    endloop
  endfacet
  facet normal 0.000000e+000 1.000000e+000 -0.000000e+000
    outer loop
      vertex   -4.399409e+001 3.400000e+003 -2.540000e+001
      vertex   -4.773639e+001 3.400000e+003 -1.737462e+001
      vertex   0.000000e+000 3.400000e+003 0.000000e+000
    endloop
  endfacet
  facet normal 0.000000e+000 1.000000e+000 -0.000000e+000
    outer loop
      vertex   -4.773639e+001 3.400000e+003 -1.737462e+001
      vertex   -5.002823e+001 3.400000e+003 -8.821327e+000
      vertex   0.000000e+000 3.400000e+003 0.000000e+000
    endloop
  endfacet
  facet normal 0.000000e+000 1.000000e+000 -0.000000e+000
    outer loop
      vertex   -5.002823e+001 3.400000e+003 -8.821327e+000
      vertex   -5.080000e+001 3.400000e+003 -9.331809e-015
      vertex   0.000000e+000 3.400000e+003 0.000000e+000
    endloop
  endfacet
  facet normal 0.000000e+000 1.000000e+000 0.000000e+000
    outer loop
      vertex   -5.080000e+001 3.400000e+003 -9.331809e-015
      vertex   -5.002823e+001 3.400000e+003 8.821327e+000
      vertex   0.000000e+000 3.400000e+003 0.000000e+000
    endloop
  endfacet
  facet normal -0.000000e+000 1.000000e+000 0.000000e+000
    outer loop
      vertex   -5.002823e+001 3.400000e+003 8.821327e+000
      vertex   -4.773639e+001 3.400000e+003 1.737462e+001
      vertex   0.000000e+000 3.400000e+003 0.000000e+000
    endloop
  endfacet
  facet normal -0.000000e+000 1.000000e+000 0.000000e+000
    outer loop
      vertex   -4.773639e+001 3.400000e+003 1.737462e+001
      vertex   -4.399409e+001 3.400000e+003 2.540000e+001
      vertex   0.000000e+000 3.400000e+003 0.000000e+000
    endloop
  endfacet
  facet normal -0.000000e+000 1.000000e+000 0.000000e+000
    outer loop
      vertex   -4.399409e+001 3.400000e+003 2.540000e+001
      vertex   -3.891506e+001 3.400000e+003 3.265361e+001
      vertex   0.000000e+000 3.400000e+003 0.000000e+000
    endloop
  endfacet
  facet normal -0.000000e+000 1.000000e+000 0.000000e+000
    outer loop
      vertex   -3.891506e+001 3.400000e+003 3.265361e+001
      vertex   -3.265361e+001 3.400000e+003 3.891506e+001
      vertex   0.000000e+000 3.400000e+003 0.000000e+000
    endloop
  endfacet
  facet normal -0.000000e+000 1.000000e+000 0.000000e+000
    outer loop
      vertex   -3.265361e+001 3.400000e+003 3.891506e+001
      vertex   -2.540000e+001 3.400000e+003 4.399409e+001
      vertex   0.000000e+000 3.400000e+003 0.000000e+000
    endloop
  endfacet
  facet normal -0.000000e+000 1.000000e+000 0.000000e+000
    outer loop
      vertex   -2.540000e+001 3.400000e+003 4.399409e+001
      vertex   -1.737462e+001 3.400000e+003 4.773639e+001
      vertex   0.000000e+000 3.400000e+003 0.000000e+000
    endloop
  endfacet
  facet normal -0.000000e+000 1.000000e+000 0.000000e+000
    outer loop
      vertex   -1.737462e+001 3.400000e+003 4.773639e+001
      vertex   -8.821327e+000 3.400000e+003 5.002823e+001
      vertex   0.000000e+000 3.400000e+003 0.000000e+000
    endloop
  endfacet
  facet normal -0.000000e+000 1.000000e+000 0.000000e+000
    outer loop
      vertex   -8.821327e+000 3.400000e+003 5.002823e+001
      vertex   0.000000e+000 3.400000e+003 5.080000e+001
      vertex   0.000000e+000 3.400000e+003 0.000000e+000
    endloop
  endfacet
  facet normal 0.000000e+000 1.000000e+000 0.000000e+000
    outer loop
      vertex   0.000000e+000 3.400000e+003 5.080000e+001
      vertex   8.821327e+000 3.400000e+003 5.002823e+001
      vertex   0.000000e+000 3.400000e+003 0.000000e+000
    endloop
  endfacet
  facet normal 8.715574e-002 -7.229517e-018 9.961947e-001
    outer loop
      vertex   0.000000e+000 3.400000e+003 5.080000e+001
      vertex   -1.244241e-014 3.250000e+003 5.080000e+001
      vertex   8.821327e+000 3.250000e+003 5.002823e+001
    endloop
  endfacet
  facet normal 2.588190e-001 0.000000e+000 9.659258e-001
    outer loop
      vertex   8.821327e+000 3.400000e+003 5.002823e+001
      vertex   8.821327e+000 3.250000e+003 5.002823e+001
      vertex   1.737462e+001 3.250000e+003 4.773639e+001
    endloop
  endfacet
  facet normal 4.226183e-001 0.000000e+000 9.063078e-001
    outer loop
      vertex   1.737462e+001 3.400000e+003 4.773639e+001
      vertex   1.737462e+001 3.250000e+003 4.773639e+001
      vertex   2.540000e+001 3.250000e+003 4.399409e+001
    endloop
  endfacet
  facet normal 5.735764e-001 0.000000e+000 8.191520e-001
    outer loop
      vertex   2.540000e+001 3.400000e+003 4.399409e+001
      vertex   2.540000e+001 3.250000e+003 4.399409e+001
      vertex   3.265361e+001 3.250000e+003 3.891506e+001
    endloop
  endfacet
  facet normal 7.071068e-001 0.000000e+000 7.071068e-001
    outer loop
      vertex   3.265361e+001 3.400000e+003 3.891506e+001
      vertex   3.265361e+001 3.250000e+003 3.891506e+001
      vertex   3.891506e+001 3.250000e+003 3.265361e+001
    endloop
  endfacet
  facet normal 8.191520e-001 0.000000e+000 5.735764e-001
    outer loop
      vertex   3.891506e+001 3.400000e+003 3.265361e+001
      vertex   3.891506e+001 3.250000e+003 3.265361e+001
      vertex   4.399409e+001 3.250000e+003 2.540000e+001
    endloop
  endfacet
  facet normal 9.063078e-001 0.000000e+000 4.226183e-001
    outer loop
      vertex   4.399409e+001 3.400000e+003 2.540000e+001
      vertex   4.399409e+001 3.250000e+003 2.540000e+001
      vertex   4.773639e+001 3.250000e+003 1.737462e+001
    endloop
  endfacet
  facet normal 9.659258e-001 0.000000e+000 2.588190e-001
    outer loop
      vertex   4.773639e+001 3.400000e+003 1.737462e+001
      vertex   4.773639e+001 3.250000e+003 1.737462e+001
      vertex   5.002823e+001 3.250000e+003 8.821327e+000
    endloop
  endfacet
  facet normal 9.961947e-001 0.000000e+000 8.715574e-002
    outer loop
      vertex   5.002823e+001 3.400000e+003 8.821327e+000
      vertex   5.002823e+001 3.250000e+003 8.821327e+000
      vertex   5.080000e+001 3.250000e+003 3.110603e-015
    endloop
  endfacet
  facet normal 9.961947e-001 0.000000e+000 -8.715574e-002
    outer loop
      vertex   5.080000e+001 3.400000e+003 3.110603e-015
      vertex   5.080000e+001 3.250000e+003 3.110603e-015
      vertex   5.002823e+001 3.250000e+003 -8.821327e+000
    endloop
  endfacet
  facet normal 9.659258e-001 0.000000e+000 -2.588190e-001
    outer loop
      vertex   5.002823e+001 3.400000e+003 -8.821327e+000
      vertex   5.002823e+001 3.250000e+003 -8.821327e+000
      vertex   4.773639e+001 3.250000e+003 -1.737462e+001
    endloop
  endfacet
  facet normal 9.063078e-001 0.000000e+000 -4.226183e-001
    outer loop
      vertex   4.773639e+001 3.400000e+003 -1.737462e+001
      vertex   4.773639e+001 3.250000e+003 -1.737462e+001
      vertex   4.399409e+001 3.250000e+003 -2.540000e+001
    endloop
  endfacet
  facet normal 8.191520e-001 0.000000e+000 -5.735764e-001
    outer loop
      vertex   4.399409e+001 3.400000e+003 -2.540000e+001
      vertex   4.399409e+001 3.250000e+003 -2.540000e+001
      vertex   3.891506e+001 3.250000e+003 -3.265361e+001
    endloop
  endfacet
  facet normal 7.071068e-001 0.000000e+000 -7.071068e-001
    outer loop
      vertex   3.891506e+001 3.400000e+003 -3.265361e+001
      vertex   3.891506e+001 3.250000e+003 -3.265361e+001
      vertex   3.265361e+001 3.250000e+003 -3.891506e+001
    endloop
  endfacet
  facet normal 5.735764e-001 0.000000e+000 -8.191520e-001
    outer loop
      vertex   3.265361e+001 3.400000e+003 -3.891506e+001
      vertex   3.265361e+001 3.250000e+003 -3.891506e+001
      vertex   2.540000e+001 3.250000e+003 -4.399409e+001
    endloop
  endfacet
  facet normal 4.226183e-001 0.000000e+000 -9.063078e-001
    outer loop
      vertex   2.540000e+001 3.400000e+003 -4.399409e+001
      vertex   2.540000e+001 3.250000e+003 -4.399409e+001
      vertex   1.737462e+001 3.250000e+003 -4.773639e+001
    endloop
  endfacet
  facet normal 2.588190e-001 0.000000e+000 -9.659258e-001
    outer loop
      vertex   1.737462e+001 3.400000e+003 -4.773639e+001
      vertex   1.737462e+001 3.250000e+003 -4.773639e+001
      vertex   8.821327e+000 3.250000e+003 -5.002823e+001
    endloop
  endfacet
  facet normal 8.715574e-002 0.000000e+000 -9.961947e-001
    outer loop
      vertex   8.821327e+000 3.400000e+003 -5.002823e+001
      vertex   8.821327e+000 3.250000e+003 -5.002823e+001
      vertex   6.221206e-015 3.250000e+003 -5.080000e+001
    endloop
  endfacet
  facet normal -8.715574e-002 -0.000000e+000 -9.961947e-001
    outer loop
      vertex   6.221206e-015 3.400000e+003 -5.080000e+001
      vertex   6.221206e-015 3.250000e+003 -5.080000e+001
      vertex   -8.821327e+000 3.250000e+003 -5.002823e+001
    endloop
  endfacet
  facet normal -2.588190e-001 -0.000000e+000 -9.659258e-001
    outer loop
      vertex   -8.821327e+000 3.400000e+003 -5.002823e+001
      vertex   -8.821327e+000 3.250000e+003 -5.002823e+001
      vertex   -1.737462e+001 3.250000e+003 -4.773639e+001
    endloop
  endfacet
  facet normal -4.226183e-001 -0.000000e+000 -9.063078e-001
    outer loop
      vertex   -1.737462e+001 3.400000e+003 -4.773639e+001
      vertex   -1.737462e+001 3.250000e+003 -4.773639e+001
      vertex   -2.540000e+001 3.250000e+003 -4.399409e+001
    endloop
  endfacet
  facet normal -5.735764e-001 -0.000000e+000 -8.191520e-001
    outer loop
      vertex   -2.540000e+001 3.400000e+003 -4.399409e+001
      vertex   -2.540000e+001 3.250000e+003 -4.399409e+001
      vertex   -3.265361e+001 3.250000e+003 -3.891506e+001
    endloop
  endfacet
  facet normal -7.071068e-001 -0.000000e+000 -7.071068e-001
    outer loop
      vertex   -3.265361e+001 3.400000e+003 -3.891506e+001
      vertex   -3.265361e+001 3.250000e+003 -3.891506e+001
      vertex   -3.891506e+001 3.250000e+003 -3.265361e+001
    endloop
  endfacet
  facet normal -8.191520e-001 -0.000000e+000 -5.735764e-001
    outer loop
      vertex   -3.891506e+001 3.400000e+003 -3.265361e+001
      vertex   -3.891506e+001 3.250000e+003 -3.265361e+001
      vertex   -4.399409e+001 3.250000e+003 -2.540000e+001
    endloop
  endfacet
  facet normal -9.063078e-001 -0.000000e+000 -4.226183e-001
    outer loop
      vertex   -4.399409e+001 3.400000e+003 -2.540000e+001
      vertex   -4.399409e+001 3.250000e+003 -2.540000e+001
      vertex   -4.773639e+001 3.250000e+003 -1.737462e+001
    endloop
  endfacet
  facet normal -9.659258e-001 -0.000000e+000 -2.588190e-001
    outer loop
      vertex   -4.773639e+001 3.400000e+003 -1.737462e+001
      vertex   -4.773639e+001 3.250000e+003 -1.737462e+001
      vertex   -5.002823e+001 3.250000e+003 -8.821327e+000
    endloop
  endfacet
  facet normal -9.961947e-001 -0.000000e+000 -8.715574e-002
    outer loop
      vertex   -5.002823e+001 3.400000e+003 -8.821327e+000
      vertex   -5.002823e+001 3.250000e+003 -8.821327e+000
      vertex   -5.080000e+001 3.250000e+003 -9.331809e-015
    endloop
  endfacet
  facet normal -9.961947e-001 0.000000e+000 8.715574e-002
    outer loop
      vertex   -5.080000e+001 3.400000e+003 -9.331809e-015
      vertex   -5.080000e+001 3.250000e+003 -9.331809e-015
      vertex   -5.002823e+001 3.250000e+003 8.821327e+000
    endloop
  endfacet
  facet normal -9.659258e-001 0.000000e+000 2.588190e-001
    outer loop
      vertex   -5.002823e+001 3.400000e+003 8.821327e+000
      vertex   -5.002823e+001 3.250000e+003 8.821327e+000
      vertex   -4.773639e+001 3.250000e+003 1.737462e+001
    endloop
  endfacet
  facet normal -9.063078e-001 0.000000e+000 4.226183e-001
    outer loop
      vertex   -4.773639e+001 3.400000e+003 1.737462e+001
      vertex   -4.773639e+001 3.250000e+003 1.737462e+001
      vertex   -4.399409e+001 3.250000e+003 2.540000e+001
    endloop
  endfacet
  facet normal -8.191520e-001 0.000000e+000 5.735764e-001
    outer loop
      vertex   -4.399409e+001 3.400000e+003 2.540000e+001
      vertex   -4.399409e+001 3.250000e+003 2.540000e+001
      vertex   -3.891506e+001 3.250000e+003 3.265361e+001
    endloop
  endfacet
  facet normal -7.071068e-001 0.000000e+000 7.071068e-001
    outer loop
      vertex   -3.891506e+001 3.400000e+003 3.265361e+001
      vertex   -3.891506e+001 3.250000e+003 3.265361e+001
      vertex   -3.265361e+001 3.250000e+003 3.891506e+001
    endloop
  endfacet
  facet normal -5.735764e-001 0.000000e+000 8.191520e-001
    outer loop
      vertex   -3.265361e+001 3.400000e+003 3.891506e+001
      vertex   -3.265361e+001 3.250000e+003 3.891506e+001
      vertex   -2.540000e+001 3.250000e+003 4.399409e+001
    endloop
  endfacet
  facet normal -4.226183e-001 0.000000e+000 9.063078e-001
    outer loop
      vertex   -2.540000e+001 3.400000e+003 4.399409e+001
      vertex   -2.540000e+001 3.250000e+003 4.399409e+001
      vertex   -1.737462e+001 3.250000e+003 4.773639e+001
    endloop
  endfacet
  facet normal -2.588190e-001 0.000000e+000 9.659258e-001
    outer loop
      vertex   -1.737462e+001 3.400000e+003 4.773639e+001
      vertex   -1.737462e+001 3.250000e+003 4.773639e+001
      vertex   -8.821327e+000 3.250000e+003 5.002823e+001
    endloop
  endfacet
  facet normal -8.715574e-002 0.000000e+000 9.961947e-001
    outer loop
      vertex   -8.821327e+000 3.400000e+003 5.002823e+001
      vertex   -8.821327e+000 3.250000e+003 5.002823e+001
      vertex   -1.244241e-014 3.250000e+003 5.080000e+001
    endloop
  endfacet
  facet normal -8.715574e-002 7.229517e-018 9.961947e-001
    outer loop
      vertex   -1.244241e-014 3.250000e+003 5.080000e+001
      vertex   0.000000e+000 3.400000e+003 5.080000e+001
      vertex   -8.821327e+000 3.400000e+003 5.002823e+001
    endloop
  endfacet
  facet normal -2.588190e-001 0.000000e+000 9.659258e-001
    outer loop
      vertex   -8.821327e+000 3.250000e+003 5.002823e+001
      vertex   -8.821327e+000 3.400000e+003 5.002823e+001
      vertex   -1.737462e+001 3.400000e+003 4.773639e+001
    endloop
  endfacet
  facet normal -4.226183e-001 0.000000e+000 9.063078e-001
    outer loop
      vertex   -1.737462e+001 3.250000e+003 4.773639e+001
      vertex   -1.737462e+001 3.400000e+003 4.773639e+001
      vertex   -2.540000e+001 3.400000e+003 4.399409e+001
    endloop
  endfacet
  facet normal -5.735764e-001 0.000000e+000 8.191520e-001
    outer loop
      vertex   -2.540000e+001 3.250000e+003 4.399409e+001
      vertex   -2.540000e+001 3.400000e+003 4.399409e+001
      vertex   -3.265361e+001 3.400000e+003 3.891506e+001
    endloop
  endfacet
  facet normal -7.071068e-001 0.000000e+000 7.071068e-001
    outer loop
      vertex   -3.265361e+001 3.250000e+003 3.891506e+001
      vertex   -3.265361e+001 3.400000e+003 3.891506e+001
      vertex   -3.891506e+001 3.400000e+003 3.265361e+001
    endloop
  endfacet
  facet normal -8.191520e-001 0.000000e+000 5.735764e-001
    outer loop
      vertex   -3.891506e+001 3.250000e+003 3.265361e+001
      vertex   -3.891506e+001 3.400000e+003 3.265361e+001
      vertex   -4.399409e+001 3.400000e+003 2.540000e+001
    endloop
  endfacet
  facet normal -9.063078e-001 0.000000e+000 4.226183e-001
    outer loop
      vertex   -4.399409e+001 3.250000e+003 2.540000e+001
      vertex   -4.399409e+001 3.400000e+003 2.540000e+001
      vertex   -4.773639e+001 3.400000e+003 1.737462e+001
    endloop
  endfacet
  facet normal -9.659258e-001 0.000000e+000 2.588190e-001
    outer loop
      vertex   -4.773639e+001 3.250000e+003 1.737462e+001
      vertex   -4.773639e+001 3.400000e+003 1.737462e+001
      vertex   -5.002823e+001 3.400000e+003 8.821327e+000
    endloop
  endfacet
  facet normal -9.961947e-001 0.000000e+000 8.715574e-002
    outer loop
      vertex   -5.002823e+001 3.250000e+003 8.821327e+000
      vertex   -5.002823e+001 3.400000e+003 8.821327e+000
      vertex   -5.080000e+001 3.400000e+003 -9.331809e-015
    endloop
  endfacet
  facet normal -9.961947e-001 0.000000e+000 -8.715574e-002
    outer loop
      vertex   -5.080000e+001 3.250000e+003 -9.331809e-015
      vertex   -5.080000e+001 3.400000e+003 -9.331809e-015
      vertex   -5.002823e+001 3.400000e+003 -8.821327e+000
    endloop
  endfacet
  facet normal -9.659258e-001 0.000000e+000 -2.588190e-001
    outer loop
      vertex   -5.002823e+001 3.250000e+003 -8.821327e+000
      vertex   -5.002823e+001 3.400000e+003 -8.821327e+000
      vertex   -4.773639e+001 3.400000e+003 -1.737462e+001
    endloop
  endfacet
  facet normal -9.063078e-001 0.000000e+000 -4.226183e-001
    outer loop
      vertex   -4.773639e+001 3.250000e+003 -1.737462e+001
      vertex   -4.773639e+001 3.400000e+003 -1.737462e+001
      vertex   -4.399409e+001 3.400000e+003 -2.540000e+001
    endloop
  endfacet
  facet normal -8.191520e-001 0.000000e+000 -5.735764e-001
    outer loop
      vertex   -4.399409e+001 3.250000e+003 -2.540000e+001
      vertex   -4.399409e+001 3.400000e+003 -2.540000e+001
      vertex   -3.891506e+001 3.400000e+003 -3.265361e+001
    endloop
  endfacet
  facet normal -7.071068e-001 0.000000e+000 -7.071068e-001
    outer loop
      vertex   -3.891506e+001 3.250000e+003 -3.265361e+001
      vertex   -3.891506e+001 3.400000e+003 -3.265361e+001
      vertex   -3.265361e+001 3.400000e+003 -3.891506e+001
    endloop
  endfacet
  facet normal -5.735764e-001 0.000000e+000 -8.191520e-001
    outer loop
      vertex   -3.265361e+001 3.250000e+003 -3.891506e+001
      vertex   -3.265361e+001 3.400000e+003 -3.891506e+001
      vertex   -2.540000e+001 3.400000e+003 -4.399409e+001
    endloop
  endfacet
  facet normal -4.226183e-001 0.000000e+000 -9.063078e-001
    outer loop
      vertex   -2.540000e+001 3.250000e+003 -4.399409e+001
      vertex   -2.540000e+001 3.400000e+003 -4.399409e+001
      vertex   -1.737462e+001 3.400000e+003 -4.773639e+001
    endloop
  endfacet
  facet normal -2.588190e-001 0.000000e+000 -9.659258e-001
    outer loop
      vertex   -1.737462e+001 3.250000e+003 -4.773639e+001
      vertex   -1.737462e+001 3.400000e+003 -4.773639e+001
      vertex   -8.821327e+000 3.400000e+003 -5.002823e+001
    endloop
  endfacet
  facet normal -8.715574e-002 0.000000e+000 -9.961947e-001
    outer loop
      vertex   -8.821327e+000 3.250000e+003 -5.002823e+001
      vertex   -8.821327e+000 3.400000e+003 -5.002823e+001
      vertex   6.221206e-015 3.400000e+003 -5.080000e+001
    endloop
  endfacet
  facet normal 8.715574e-002 0.000000e+000 -9.961947e-001
    outer loop
      vertex   6.221206e-015 3.250000e+003 -5.080000e+001
      vertex   6.221206e-015 3.400000e+003 -5.080000e+001
      vertex   8.821327e+000 3.400000e+003 -5.002823e+001
    endloop
  endfacet
  facet normal 2.588190e-001 0.000000e+000 -9.659258e-001
    outer loop
      vertex   8.821327e+000 3.250000e+003 -5.002823e+001
      vertex   8.821327e+000 3.400000e+003 -5.002823e+001
      vertex   1.737462e+001 3.400000e+003 -4.773639e+001
    endloop
  endfacet
  facet normal 4.226183e-001 0.000000e+000 -9.063078e-001
    outer loop
      vertex   1.737462e+001 3.250000e+003 -4.773639e+001
      vertex   1.737462e+001 3.400000e+003 -4.773639e+001
      vertex   2.540000e+001 3.400000e+003 -4.399409e+001
    endloop
  endfacet
  facet normal 5.735764e-001 0.000000e+000 -8.191520e-001
    outer loop
      vertex   2.540000e+001 3.250000e+003 -4.399409e+001
      vertex   2.540000e+001 3.400000e+003 -4.399409e+001
      vertex   3.265361e+001 3.400000e+003 -3.891506e+001
    endloop
  endfacet
  facet normal 7.071068e-001 0.000000e+000 -7.071068e-001
    outer loop
      vertex   3.265361e+001 3.250000e+003 -3.891506e+001
      vertex   3.265361e+001 3.400000e+003 -3.891506e+001
      vertex   3.891506e+001 3.400000e+003 -3.265361e+001
    endloop
  endfacet
  facet normal 8.191520e-001 0.000000e+000 -5.735764e-001
    outer loop
      vertex   3.891506e+001 3.250000e+003 -3.265361e+001
      vertex   3.891506e+001 3.400000e+003 -3.265361e+001
      vertex   4.399409e+001 3.400000e+003 -2.540000e+001
    endloop
  endfacet
  facet normal 9.063078e-001 0.000000e+000 -4.226183e-001
    outer loop
      vertex   4.399409e+001 3.250000e+003 -2.540000e+001
      vertex   4.399409e+001 3.400000e+003 -2.540000e+001
      vertex   4.773639e+001 3.400000e+003 -1.737462e+001
    endloop
  endfacet
  facet normal 9.659258e-001 0.000000e+000 -2.588190e-001
    outer loop
      vertex   4.773639e+001 3.250000e+003 -1.737462e+001
      vertex   4.773639e+001 3.400000e+003 -1.737462e+001
      vertex   5.002823e+001 3.400000e+003 -8.821327e+000
    endloop
  endfacet
  facet normal 9.961947e-001 0.000000e+000 -8.715574e-002
    outer loop
      vertex   5.002823e+001 3.250000e+003 -8.821327e+000
      vertex   5.002823e+001 3.400000e+003 -8.821327e+000
      vertex   5.080000e+001 3.400000e+003 3.110603e-015
    endloop
  endfacet
  facet normal 9.961947e-001 -0.000000e+000 8.715574e-002
    outer loop
      vertex   5.080000e+001 3.250000e+003 3.110603e-015
      vertex   5.080000e+001 3.400000e+003 3.110603e-015
      vertex   5.002823e+001 3.400000e+003 8.821327e+000
    endloop
  endfacet
  facet normal 9.659258e-001 -0.000000e+000 2.588190e-001
    outer loop
      vertex   5.002823e+001 3.250000e+003 8.821327e+000
      vertex   5.002823e+001 3.400000e+003 8.821327e+000
      vertex   4.773639e+001 3.400000e+003 1.737462e+001
    endloop
  endfacet
  facet normal 9.063078e-001 -0.000000e+000 4.226183e-001
    outer loop
      vertex   4.773639e+001 3.250000e+003 1.737462e+001
      vertex   4.773639e+001 3.400000e+003 1.737462e+001
      vertex   4.399409e+001 3.400000e+003 2.540000e+001
    endloop
  endfacet
  facet normal 8.191520e-001 -0.000000e+000 5.735764e-001
    outer loop
      vertex   4.399409e+001 3.250000e+003 2.540000e+001
      vertex   4.399409e+001 3.400000e+003 2.540000e+001
      vertex   3.891506e+001 3.400000e+003 3.265361e+001
    endloop
  endfacet
  facet normal 7.071068e-001 -0.000000e+000 7.071068e-001
    outer loop
      vertex   3.891506e+001 3.250000e+003 3.265361e+001
      vertex   3.891506e+001 3.400000e+003 3.265361e+001
      vertex   3.265361e+001 3.400000e+003 3.891506e+001
    endloop
  endfacet
  facet normal 5.735764e-001 -0.000000e+000 8.191520e-001
    outer loop
      vertex   3.265361e+001 3.250000e+003 3.891506e+001
      vertex   3.265361e+001 3.400000e+003 3.891506e+001
      vertex   2.540000e+001 3.400000e+003 4.399409e+001
    endloop
  endfacet
  facet normal 4.226183e-001 -0.000000e+000 9.063078e-001
    outer loop
      vertex   2.540000e+001 3.250000e+003 4.399409e+001
      vertex   2.540000e+001 3.400000e+003 4.399409e+001
      vertex   1.737462e+001 3.400000e+003 4.773639e+001
    endloop
  endfacet
  facet normal 2.588190e-001 -0.000000e+000 9.659258e-001
    outer loop
      vertex   1.737462e+001 3.250000e+003 4.773639e+001
      vertex   1.737462e+001 3.400000e+003 4.773639e+001
      vertex   8.821327e+000 3.400000e+003 5.002823e+001
    endloop
  endfacet
  facet normal 8.715574e-002 -0.000000e+000 9.961947e-001
    outer loop
      vertex   8.821327e+000 3.250000e+003 5.002823e+001
      vertex   8.821327e+000 3.400000e+003 5.002823e+001
      vertex   0.000000e+000 3.400000e+003 5.080000e+001
    endloop
  endfacet
  facet normal 0.000000e+000 1.000000e+000 0.000000e+000
    outer loop
      vertex   1.009002e+001 3.250000e+003 6.370590e+001
      vertex   8.821327e+000 3.250000e+003 5.002823e+001
      vertex   -1.244241e-014 3.250000e+003 5.080000e+001
    endloop
  endfacet
  facet normal 0.000000e+000 1.000000e+000 0.000000e+000
    outer loop
      vertex   1.993160e+001 3.250000e+003 6.134315e+001
      vertex   1.737462e+001 3.250000e+003 4.773639e+001
      vertex   8.821327e+000 3.250000e+003 5.002823e+001
    endloop
  endfacet
  facet normal 0.000000e+000 1.000000e+000 0.000000e+000
    outer loop
      vertex   8.821327e+000 3.250000e+003 5.002823e+001
      vertex   1.009002e+001 3.250000e+003 6.370590e+001
      vertex   1.993160e+001 3.250000e+003 6.134315e+001
    endloop
  endfacet
  facet normal 0.000000e+000 1.000000e+000 0.000000e+000
    outer loop
      vertex   2.928239e+001 3.250000e+003 5.746992e+001
      vertex   2.540000e+001 3.250000e+003 4.399409e+001
      vertex   1.737462e+001 3.250000e+003 4.773639e+001
    endloop
  endfacet
  facet normal 0.000000e+000 1.000000e+000 0.000000e+000
    outer loop
      vertex   1.737462e+001 3.250000e+003 4.773639e+001
      vertex   1.993160e+001 3.250000e+003 6.134315e+001
      vertex   2.928239e+001 3.250000e+003 5.746992e+001
    endloop
  endfacet
  facet normal 0.000000e+000 1.000000e+000 0.000000e+000
    outer loop
      vertex   3.791215e+001 3.250000e+003 5.218160e+001
      vertex   3.265361e+001 3.250000e+003 3.891506e+001
      vertex   2.540000e+001 3.250000e+003 4.399409e+001
    endloop
  endfacet
  facet normal 0.000000e+000 1.000000e+000 0.000000e+000
    outer loop
      vertex   4.560839e+001 3.250000e+003 4.560839e+001
      vertex   3.891506e+001 3.250000e+003 3.265361e+001
      vertex   3.265361e+001 3.250000e+003 3.891506e+001
    endloop
  endfacet
  facet normal 0.000000e+000 1.000000e+000 0.000000e+000
    outer loop
      vertex   2.540000e+001 3.250000e+003 4.399409e+001
      vertex   2.928239e+001 3.250000e+003 5.746992e+001
      vertex   3.791215e+001 3.250000e+003 5.218160e+001
    endloop
  endfacet
  facet normal 0.000000e+000 1.000000e+000 0.000000e+000
    outer loop
      vertex   3.265361e+001 3.250000e+003 3.891506e+001
      vertex   3.791215e+001 3.250000e+003 5.218160e+001
      vertex   4.560839e+001 3.250000e+003 4.560839e+001
    endloop
  endfacet
  facet normal 0.000000e+000 1.000000e+000 0.000000e+000
    outer loop
      vertex   6.370590e+001 3.250000e+003 1.009002e+001
      vertex   6.450000e+001 3.250000e+003 -3.949486e-015
      vertex   5.080000e+001 3.250000e+003 3.110603e-015
    endloop
  endfacet
  facet normal 0.000000e+000 1.000000e+000 0.000000e+000
    outer loop
      vertex   6.370590e+001 3.250000e+003 -1.009002e+001
      vertex   5.002823e+001 3.250000e+003 -8.821327e+000
      vertex   5.080000e+001 3.250000e+003 3.110603e-015
    endloop
  endfacet
  facet normal 0.000000e+000 1.000000e+000 0.000000e+000
    outer loop
      vertex   6.134315e+001 3.250000e+003 -1.993160e+001
      vertex   4.773639e+001 3.250000e+003 -1.737462e+001
      vertex   5.002823e+001 3.250000e+003 -8.821327e+000
    endloop
  endfacet
  facet normal 0.000000e+000 1.000000e+000 0.000000e+000
    outer loop
      vertex   5.746992e+001 3.250000e+003 -2.928239e+001
      vertex   4.399409e+001 3.250000e+003 -2.540000e+001
      vertex   4.773639e+001 3.250000e+003 -1.737462e+001
    endloop
  endfacet
  facet normal 0.000000e+000 1.000000e+000 0.000000e+000
    outer loop
      vertex   4.560839e+001 3.250000e+003 4.560839e+001
      vertex   5.218160e+001 3.250000e+003 3.791215e+001
      vertex   3.891506e+001 3.250000e+003 3.265361e+001
    endloop
  endfacet
  facet normal 0.000000e+000 1.000000e+000 0.000000e+000
    outer loop
      vertex   5.218160e+001 3.250000e+003 3.791215e+001
      vertex   5.746992e+001 3.250000e+003 2.928239e+001
      vertex   4.399409e+001 3.250000e+003 2.540000e+001
    endloop
  endfacet
  facet normal 0.000000e+000 1.000000e+000 0.000000e+000
    outer loop
      vertex   5.746992e+001 3.250000e+003 2.928239e+001
      vertex   6.134315e+001 3.250000e+003 1.993160e+001
      vertex   4.773639e+001 3.250000e+003 1.737462e+001
    endloop
  endfacet
  facet normal 0.000000e+000 1.000000e+000 0.000000e+000
    outer loop
      vertex   6.134315e+001 3.250000e+003 1.993160e+001
      vertex   6.370590e+001 3.250000e+003 1.009002e+001
      vertex   5.002823e+001 3.250000e+003 8.821327e+000
    endloop
  endfacet
  facet normal 0.000000e+000 1.000000e+000 0.000000e+000
    outer loop
      vertex   5.080000e+001 3.250000e+003 3.110603e-015
      vertex   6.450000e+001 3.250000e+003 -3.949486e-015
      vertex   6.370590e+001 3.250000e+003 -1.009002e+001
    endloop
  endfacet
  facet normal 0.000000e+000 1.000000e+000 0.000000e+000
    outer loop
      vertex   4.773639e+001 3.250000e+003 -1.737462e+001
      vertex   6.134315e+001 3.250000e+003 -1.993160e+001
      vertex   5.746992e+001 3.250000e+003 -2.928239e+001
    endloop
  endfacet
  facet normal 0.000000e+000 1.000000e+000 -0.000000e+000
    outer loop
      vertex   4.399409e+001 3.250000e+003 2.540000e+001
      vertex   3.891506e+001 3.250000e+003 3.265361e+001
      vertex   5.218160e+001 3.250000e+003 3.791215e+001
    endloop
  endfacet
  facet normal 0.000000e+000 1.000000e+000 -0.000000e+000
    outer loop
      vertex   5.002823e+001 3.250000e+003 8.821327e+000
      vertex   4.773639e+001 3.250000e+003 1.737462e+001
      vertex   6.134315e+001 3.250000e+003 1.993160e+001
    endloop
  endfacet
  facet normal 0.000000e+000 1.000000e+000 0.000000e+000
    outer loop
      vertex   5.002823e+001 3.250000e+003 -8.821327e+000
      vertex   6.370590e+001 3.250000e+003 -1.009002e+001
      vertex   6.134315e+001 3.250000e+003 -1.993160e+001
    endloop
  endfacet
  facet normal 0.000000e+000 1.000000e+000 0.000000e+000
    outer loop
      vertex   5.218160e+001 3.250000e+003 -3.791215e+001
      vertex   3.891506e+001 3.250000e+003 -3.265361e+001
      vertex   4.399409e+001 3.250000e+003 -2.540000e+001
    endloop
  endfacet
  facet normal 0.000000e+000 1.000000e+000 0.000000e+000
    outer loop
      vertex   4.560839e+001 3.250000e+003 -4.560839e+001
      vertex   3.265361e+001 3.250000e+003 -3.891506e+001
      vertex   3.891506e+001 3.250000e+003 -3.265361e+001
    endloop
  endfacet
  facet normal 0.000000e+000 1.000000e+000 -0.000000e+000
    outer loop
      vertex   4.773639e+001 3.250000e+003 1.737462e+001
      vertex   4.399409e+001 3.250000e+003 2.540000e+001
      vertex   5.746992e+001 3.250000e+003 2.928239e+001
    endloop
  endfacet
  facet normal 0.000000e+000 1.000000e+000 0.000000e+000
    outer loop
      vertex   4.399409e+001 3.250000e+003 -2.540000e+001
      vertex   5.746992e+001 3.250000e+003 -2.928239e+001
      vertex   5.218160e+001 3.250000e+003 -3.791215e+001
    endloop
  endfacet
  facet normal 0.000000e+000 1.000000e+000 0.000000e+000
    outer loop
      vertex   3.891506e+001 3.250000e+003 -3.265361e+001
      vertex   5.218160e+001 3.250000e+003 -3.791215e+001
      vertex   4.560839e+001 3.250000e+003 -4.560839e+001
    endloop
  endfacet
  facet normal 0.000000e+000 1.000000e+000 0.000000e+000
    outer loop
      vertex   3.791215e+001 3.250000e+003 -5.218160e+001
      vertex   2.928239e+001 3.250000e+003 -5.746992e+001
      vertex   2.540000e+001 3.250000e+003 -4.399409e+001
    endloop
  endfacet
  facet normal 0.000000e+000 1.000000e+000 -0.000000e+000
    outer loop
      vertex   5.080000e+001 3.250000e+003 3.110603e-015
      vertex   5.002823e+001 3.250000e+003 8.821327e+000
      vertex   6.370590e+001 3.250000e+003 1.009002e+001
    endloop
  endfacet
  facet normal -0.000000e+000 1.000000e+000 0.000000e+000
    outer loop
      vertex   2.540000e+001 3.250000e+003 -4.399409e+001
      vertex   3.265361e+001 3.250000e+003 -3.891506e+001
      vertex   3.791215e+001 3.250000e+003 -5.218160e+001
    endloop
  endfacet
  facet normal 0.000000e+000 1.000000e+000 0.000000e+000
    outer loop
      vertex   2.928239e+001 3.250000e+003 -5.746992e+001
      vertex   1.993160e+001 3.250000e+003 -6.134315e+001
      vertex   1.737462e+001 3.250000e+003 -4.773639e+001
    endloop
  endfacet
  facet normal 0.000000e+000 1.000000e+000 0.000000e+000
    outer loop
      vertex   1.993160e+001 3.250000e+003 -6.134315e+001
      vertex   1.009002e+001 3.250000e+003 -6.370590e+001
      vertex   8.821327e+000 3.250000e+003 -5.002823e+001
    endloop
  endfacet
  facet normal 0.000000e+000 1.000000e+000 0.000000e+000
    outer loop
      vertex   4.560839e+001 3.250000e+003 -4.560839e+001
      vertex   3.791215e+001 3.250000e+003 -5.218160e+001
      vertex   3.265361e+001 3.250000e+003 -3.891506e+001
    endloop
  endfacet
  facet normal -0.000000e+000 1.000000e+000 0.000000e+000
    outer loop
      vertex   8.821327e+000 3.250000e+003 -5.002823e+001
      vertex   1.737462e+001 3.250000e+003 -4.773639e+001
      vertex   1.993160e+001 3.250000e+003 -6.134315e+001
    endloop
  endfacet
  facet normal 0.000000e+000 1.000000e+000 0.000000e+000
    outer loop
      vertex   1.009002e+001 3.250000e+003 -6.370590e+001
      vertex   0.000000e+000 3.250000e+003 -6.450000e+001
      vertex   6.221206e-015 3.250000e+003 -5.080000e+001
    endloop
  endfacet
  facet normal 0.000000e+000 1.000000e+000 0.000000e+000
    outer loop
      vertex   -1.009002e+001 3.250000e+003 -6.370590e+001
      vertex   -8.821327e+000 3.250000e+003 -5.002823e+001
      vertex   6.221206e-015 3.250000e+003 -5.080000e+001
    endloop
  endfacet
  facet normal 0.000000e+000 1.000000e+000 0.000000e+000
    outer loop
      vertex   -4.560839e+001 3.250000e+003 -4.560839e+001
      vertex   -3.891506e+001 3.250000e+003 -3.265361e+001
      vertex   -3.265361e+001 3.250000e+003 -3.891506e+001
    endloop
  endfacet
  facet normal -0.000000e+000 1.000000e+000 0.000000e+000
    outer loop
      vertex   1.737462e+001 3.250000e+003 -4.773639e+001
      vertex   2.540000e+001 3.250000e+003 -4.399409e+001
      vertex   2.928239e+001 3.250000e+003 -5.746992e+001
    endloop
  endfacet
  facet normal 0.000000e+000 1.000000e+000 0.000000e+000
    outer loop
      vertex   6.221206e-015 3.250000e+003 -5.080000e+001
      vertex   0.000000e+000 3.250000e+003 -6.450000e+001
      vertex   -1.009002e+001 3.250000e+003 -6.370590e+001
    endloop
  endfacet
  facet normal 0.000000e+000 1.000000e+000 0.000000e+000
    outer loop
      vertex   -1.993160e+001 3.250000e+003 -6.134315e+001
      vertex   -1.737462e+001 3.250000e+003 -4.773639e+001
      vertex   -8.821327e+000 3.250000e+003 -5.002823e+001
    endloop
  endfacet
  facet normal 0.000000e+000 1.000000e+000 0.000000e+000
    outer loop
      vertex   -2.928239e+001 3.250000e+003 -5.746992e+001
      vertex   -2.540000e+001 3.250000e+003 -4.399409e+001
      vertex   -1.737462e+001 3.250000e+003 -4.773639e+001
    endloop
  endfacet
  facet normal 0.000000e+000 1.000000e+000 0.000000e+000
    outer loop
      vertex   -3.791215e+001 3.250000e+003 -5.218160e+001
      vertex   -3.265361e+001 3.250000e+003 -3.891506e+001
      vertex   -2.540000e+001 3.250000e+003 -4.399409e+001
    endloop
  endfacet
  facet normal 0.000000e+000 1.000000e+000 0.000000e+000
    outer loop
      vertex   -3.265361e+001 3.250000e+003 -3.891506e+001
      vertex   -3.791215e+001 3.250000e+003 -5.218160e+001
      vertex   -4.560839e+001 3.250000e+003 -4.560839e+001
    endloop
  endfacet
  facet normal 0.000000e+000 1.000000e+000 -0.000000e+000
    outer loop
      vertex   -5.218160e+001 3.250000e+003 -3.791215e+001
      vertex   -5.746992e+001 3.250000e+003 -2.928239e+001
      vertex   -4.399409e+001 3.250000e+003 -2.540000e+001
    endloop
  endfacet
  facet normal 0.000000e+000 1.000000e+000 -0.000000e+000
    outer loop
      vertex   -5.746992e+001 3.250000e+003 -2.928239e+001
      vertex   -6.134315e+001 3.250000e+003 -1.993160e+001
      vertex   -4.773639e+001 3.250000e+003 -1.737462e+001
    endloop
  endfacet
  facet normal -0.000000e+000 1.000000e+000 0.000000e+000
    outer loop
      vertex   6.221206e-015 3.250000e+003 -5.080000e+001
      vertex   8.821327e+000 3.250000e+003 -5.002823e+001
      vertex   1.009002e+001 3.250000e+003 -6.370590e+001
    endloop
  endfacet
  facet normal 0.000000e+000 1.000000e+000 0.000000e+000
    outer loop
      vertex   -1.737462e+001 3.250000e+003 -4.773639e+001
      vertex   -1.993160e+001 3.250000e+003 -6.134315e+001
      vertex   -2.928239e+001 3.250000e+003 -5.746992e+001
    endloop
  endfacet
  facet normal 0.000000e+000 1.000000e+000 -0.000000e+000
    outer loop
      vertex   -4.560839e+001 3.250000e+003 -4.560839e+001
      vertex   -5.218160e+001 3.250000e+003 -3.791215e+001
      vertex   -3.891506e+001 3.250000e+003 -3.265361e+001
    endloop
  endfacet
  facet normal 0.000000e+000 1.000000e+000 0.000000e+000
    outer loop
      vertex   -4.773639e+001 3.250000e+003 -1.737462e+001
      vertex   -4.399409e+001 3.250000e+003 -2.540000e+001
      vertex   -5.746992e+001 3.250000e+003 -2.928239e+001
    endloop
  endfacet
  facet normal 0.000000e+000 1.000000e+000 -0.000000e+000
    outer loop
      vertex   -6.370590e+001 3.250000e+003 -1.009002e+001
      vertex   -6.450000e+001 3.250000e+003 1.184846e-014
      vertex   -5.080000e+001 3.250000e+003 -9.331809e-015
    endloop
  endfacet
  facet normal 0.000000e+000 1.000000e+000 0.000000e+000
    outer loop
      vertex   -6.370590e+001 3.250000e+003 1.009002e+001
      vertex   -5.002823e+001 3.250000e+003 8.821327e+000
      vertex   -5.080000e+001 3.250000e+003 -9.331809e-015
    endloop
  endfacet
  facet normal 0.000000e+000 1.000000e+000 0.000000e+000
    outer loop
      vertex   -4.560839e+001 3.250000e+003 4.560839e+001
      vertex   -3.265361e+001 3.250000e+003 3.891506e+001
      vertex   -3.891506e+001 3.250000e+003 3.265361e+001
    endloop
  endfacet
  facet normal 0.000000e+000 1.000000e+000 0.000000e+000
    outer loop
      vertex   -8.821327e+000 3.250000e+003 -5.002823e+001
      vertex   -1.009002e+001 3.250000e+003 -6.370590e+001
      vertex   -1.993160e+001 3.250000e+003 -6.134315e+001
    endloop
  endfacet
  facet normal 0.000000e+000 1.000000e+000 0.000000e+000
    outer loop
      vertex   -4.399409e+001 3.250000e+003 -2.540000e+001
      vertex   -3.891506e+001 3.250000e+003 -3.265361e+001
      vertex   -5.218160e+001 3.250000e+003 -3.791215e+001
    endloop
  endfacet
  facet normal 0.000000e+000 1.000000e+000 -0.000000e+000
    outer loop
      vertex   -6.134315e+001 3.250000e+003 -1.993160e+001
      vertex   -6.370590e+001 3.250000e+003 -1.009002e+001
      vertex   -5.002823e+001 3.250000e+003 -8.821327e+000
    endloop
  endfacet
  facet normal 0.000000e+000 1.000000e+000 0.000000e+000
    outer loop
      vertex   -5.080000e+001 3.250000e+003 -9.331809e-015
      vertex   -6.450000e+001 3.250000e+003 1.184846e-014
      vertex   -6.370590e+001 3.250000e+003 1.009002e+001
    endloop
  endfacet
  facet normal 0.000000e+000 1.000000e+000 0.000000e+000
    outer loop
      vertex   -6.134315e+001 3.250000e+003 1.993160e+001
      vertex   -4.773639e+001 3.250000e+003 1.737462e+001
      vertex   -5.002823e+001 3.250000e+003 8.821327e+000
    endloop
  endfacet
  facet normal 0.000000e+000 1.000000e+000 0.000000e+000
    outer loop
      vertex   -5.746992e+001 3.250000e+003 2.928239e+001
      vertex   -4.399409e+001 3.250000e+003 2.540000e+001
      vertex   -4.773639e+001 3.250000e+003 1.737462e+001
    endloop
  endfacet
  facet normal 0.000000e+000 1.000000e+000 0.000000e+000
    outer loop
      vertex   -3.891506e+001 3.250000e+003 3.265361e+001
      vertex   -5.218160e+001 3.250000e+003 3.791215e+001
      vertex   -4.560839e+001 3.250000e+003 4.560839e+001
    endloop
  endfacet
  facet normal -0.000000e+000 1.000000e+000 0.000000e+000
    outer loop
      vertex   -3.791215e+001 3.250000e+003 5.218160e+001
      vertex   -2.928239e+001 3.250000e+003 5.746992e+001
      vertex   -2.540000e+001 3.250000e+003 4.399409e+001
    endloop
  endfacet
  facet normal 0.000000e+000 1.000000e+000 0.000000e+000
    outer loop
      vertex   -2.540000e+001 3.250000e+003 -4.399409e+001
      vertex   -2.928239e+001 3.250000e+003 -5.746992e+001
      vertex   -3.791215e+001 3.250000e+003 -5.218160e+001
    endloop
  endfacet
  facet normal 0.000000e+000 1.000000e+000 0.000000e+000
    outer loop
      vertex   -5.080000e+001 3.250000e+003 -9.331809e-015
      vertex   -5.002823e+001 3.250000e+003 -8.821327e+000
      vertex   -6.370590e+001 3.250000e+003 -1.009002e+001
    endloop
  endfacet
  facet normal 0.000000e+000 1.000000e+000 0.000000e+000
    outer loop
      vertex   -4.773639e+001 3.250000e+003 1.737462e+001
      vertex   -6.134315e+001 3.250000e+003 1.993160e+001
      vertex   -5.746992e+001 3.250000e+003 2.928239e+001
    endloop
  endfacet
  facet normal 0.000000e+000 1.000000e+000 0.000000e+000
    outer loop
      vertex   -5.218160e+001 3.250000e+003 3.791215e+001
      vertex   -3.891506e+001 3.250000e+003 3.265361e+001
      vertex   -4.399409e+001 3.250000e+003 2.540000e+001
    endloop
  endfacet
  facet normal 0.000000e+000 1.000000e+000 0.000000e+000
    outer loop
      vertex   -2.540000e+001 3.250000e+003 4.399409e+001
      vertex   -3.265361e+001 3.250000e+003 3.891506e+001
      vertex   -3.791215e+001 3.250000e+003 5.218160e+001
    endloop
  endfacet
  facet normal -0.000000e+000 1.000000e+000 0.000000e+000
    outer loop
      vertex   -2.928239e+001 3.250000e+003 5.746992e+001
      vertex   -1.993160e+001 3.250000e+003 6.134315e+001
      vertex   -1.737462e+001 3.250000e+003 4.773639e+001
    endloop
  endfacet
  facet normal -0.000000e+000 1.000000e+000 0.000000e+000
    outer loop
      vertex   -1.993160e+001 3.250000e+003 6.134315e+001
      vertex   -1.009002e+001 3.250000e+003 6.370590e+001
      vertex   -8.821327e+000 3.250000e+003 5.002823e+001
    endloop
  endfacet
  facet normal -0.000000e+000 1.000000e+000 0.000000e+000
    outer loop
      vertex   -1.009002e+001 3.250000e+003 6.370590e+001
      vertex   2.369692e-014 3.250000e+003 6.450000e+001
      vertex   -1.244241e-014 3.250000e+003 5.080000e+001
    endloop
  endfacet
  facet normal 0.000000e+000 1.000000e+000 0.000000e+000
    outer loop
      vertex   -5.002823e+001 3.250000e+003 -8.821327e+000
      vertex   -4.773639e+001 3.250000e+003 -1.737462e+001
      vertex   -6.134315e+001 3.250000e+003 -1.993160e+001
    endloop
  endfacet
  facet normal 0.000000e+000 1.000000e+000 0.000000e+000
    outer loop
      vertex   -4.399409e+001 3.250000e+003 2.540000e+001
      vertex   -5.746992e+001 3.250000e+003 2.928239e+001
      vertex   -5.218160e+001 3.250000e+003 3.791215e+001
    endloop
  endfacet
  facet normal 0.000000e+000 1.000000e+000 0.000000e+000
    outer loop
      vertex   -1.737462e+001 3.250000e+003 4.773639e+001
      vertex   -2.540000e+001 3.250000e+003 4.399409e+001
      vertex   -2.928239e+001 3.250000e+003 5.746992e+001
    endloop
  endfacet
  facet normal 0.000000e+000 1.000000e+000 0.000000e+000
    outer loop
      vertex   -1.244241e-014 3.250000e+003 5.080000e+001
      vertex   -8.821327e+000 3.250000e+003 5.002823e+001
      vertex   -1.009002e+001 3.250000e+003 6.370590e+001
    endloop
  endfacet
  facet normal 0.000000e+000 1.000000e+000 0.000000e+000
    outer loop
      vertex   -5.002823e+001 3.250000e+003 8.821327e+000
      vertex   -6.370590e+001 3.250000e+003 1.009002e+001
      vertex   -6.134315e+001 3.250000e+003 1.993160e+001
    endloop
  endfacet
  facet normal 0.000000e+000 1.000000e+000 0.000000e+000
    outer loop
      vertex   -8.821327e+000 3.250000e+003 5.002823e+001
      vertex   -1.737462e+001 3.250000e+003 4.773639e+001
      vertex   -1.993160e+001 3.250000e+003 6.134315e+001
    endloop
  endfacet
  facet normal -0.000000e+000 1.000000e+000 0.000000e+000
    outer loop
      vertex   -4.560839e+001 3.250000e+003 4.560839e+001
      vertex   -3.791215e+001 3.250000e+003 5.218160e+001
      vertex   -3.265361e+001 3.250000e+003 3.891506e+001
    endloop
  endfacet
  facet normal 0.000000e+000 1.000000e+000 0.000000e+000
    outer loop
      vertex   -1.244241e-014 3.250000e+003 5.080000e+001
      vertex   2.369692e-014 3.250000e+003 6.450000e+001
      vertex   1.009002e+001 3.250000e+003 6.370590e+001
    endloop
  endfacet
  facet normal 7.845910e-002 0.000000e+000 -9.969173e-001
    outer loop
      vertex   0.000000e+000 0.000000e+000 -6.450000e+001
      vertex   0.000000e+000 3.250000e+003 -6.450000e+001
      vertex   1.009002e+001 3.250000e+003 -6.370590e+001
    endloop
  endfacet
  facet normal 2.334454e-001 0.000000e+000 -9.723699e-001
    outer loop
      vertex   1.009002e+001 0.000000e+000 -6.370590e+001
      vertex   1.009002e+001 3.250000e+003 -6.370590e+001
      vertex   1.993160e+001 3.250000e+003 -6.134315e+001
    endloop
  endfacet
  facet normal 3.826834e-001 0.000000e+000 -9.238795e-001
    outer loop
      vertex   1.993160e+001 0.000000e+000 -6.134315e+001
      vertex   1.993160e+001 3.250000e+003 -6.134315e+001
      vertex   2.928239e+001 3.250000e+003 -5.746992e+001
    endloop
  endfacet
  facet normal 5.224986e-001 0.000000e+000 -8.526402e-001
    outer loop
      vertex   2.928239e+001 0.000000e+000 -5.746992e+001
      vertex   2.928239e+001 3.250000e+003 -5.746992e+001
      vertex   3.791215e+001 3.250000e+003 -5.218160e+001
    endloop
  endfacet
  facet normal 6.494480e-001 0.000000e+000 -7.604060e-001
    outer loop
      vertex   3.791215e+001 0.000000e+000 -5.218160e+001
      vertex   3.791215e+001 3.250000e+003 -5.218160e+001
      vertex   4.560839e+001 3.250000e+003 -4.560839e+001
    endloop
  endfacet
  facet normal 7.604060e-001 0.000000e+000 -6.494480e-001
    outer loop
      vertex   4.560839e+001 0.000000e+000 -4.560839e+001
      vertex   4.560839e+001 3.250000e+003 -4.560839e+001
      vertex   5.218160e+001 3.250000e+003 -3.791215e+001
    endloop
  endfacet
  facet normal 8.526402e-001 0.000000e+000 -5.224986e-001
    outer loop
      vertex   5.218160e+001 0.000000e+000 -3.791215e+001
      vertex   5.218160e+001 3.250000e+003 -3.791215e+001
      vertex   5.746992e+001 3.250000e+003 -2.928239e+001
    endloop
  endfacet
  facet normal 9.238795e-001 0.000000e+000 -3.826834e-001
    outer loop
      vertex   5.746992e+001 0.000000e+000 -2.928239e+001
      vertex   5.746992e+001 3.250000e+003 -2.928239e+001
      vertex   6.134315e+001 3.250000e+003 -1.993160e+001
    endloop
  endfacet
  facet normal 9.723699e-001 0.000000e+000 -2.334454e-001
    outer loop
      vertex   6.134315e+001 0.000000e+000 -1.993160e+001
      vertex   6.134315e+001 3.250000e+003 -1.993160e+001
      vertex   6.370590e+001 3.250000e+003 -1.009002e+001
    endloop
  endfacet
  facet normal 9.969173e-001 0.000000e+000 -7.845910e-002
    outer loop
      vertex   6.370590e+001 0.000000e+000 -1.009002e+001
      vertex   6.370590e+001 3.250000e+003 -1.009002e+001
      vertex   6.450000e+001 3.250000e+003 -3.949486e-015
    endloop
  endfacet
  facet normal 9.969173e-001 -0.000000e+000 7.845910e-002
    outer loop
      vertex   6.450000e+001 0.000000e+000 -3.949486e-015
      vertex   6.450000e+001 3.250000e+003 -3.949486e-015
      vertex   6.370590e+001 3.250000e+003 1.009002e+001
    endloop
  endfacet
  facet normal 9.723699e-001 -0.000000e+000 2.334454e-001
    outer loop
      vertex   6.370590e+001 0.000000e+000 1.009002e+001
      vertex   6.370590e+001 3.250000e+003 1.009002e+001
      vertex   6.134315e+001 3.250000e+003 1.993160e+001
    endloop
  endfacet
  facet normal 9.238795e-001 -0.000000e+000 3.826834e-001
    outer loop
      vertex   6.134315e+001 0.000000e+000 1.993160e+001
      vertex   6.134315e+001 3.250000e+003 1.993160e+001
      vertex   5.746992e+001 3.250000e+003 2.928239e+001
    endloop
  endfacet
  facet normal 8.526402e-001 -0.000000e+000 5.224986e-001
    outer loop
      vertex   5.746992e+001 0.000000e+000 2.928239e+001
      vertex   5.746992e+001 3.250000e+003 2.928239e+001
      vertex   5.218160e+001 3.250000e+003 3.791215e+001
    endloop
  endfacet
  facet normal 7.604060e-001 -0.000000e+000 6.494480e-001
    outer loop
      vertex   5.218160e+001 0.000000e+000 3.791215e+001
      vertex   5.218160e+001 3.250000e+003 3.791215e+001
      vertex   4.560839e+001 3.250000e+003 4.560839e+001
    endloop
  endfacet
  facet normal 6.494480e-001 -0.000000e+000 7.604060e-001
    outer loop
      vertex   4.560839e+001 0.000000e+000 4.560839e+001
      vertex   4.560839e+001 3.250000e+003 4.560839e+001
      vertex   3.791215e+001 3.250000e+003 5.218160e+001
    endloop
  endfacet
  facet normal 5.224986e-001 -0.000000e+000 8.526402e-001
    outer loop
      vertex   3.791215e+001 0.000000e+000 5.218160e+001
      vertex   3.791215e+001 3.250000e+003 5.218160e+001
      vertex   2.928239e+001 3.250000e+003 5.746992e+001
    endloop
  endfacet
  facet normal 3.826834e-001 -0.000000e+000 9.238795e-001
    outer loop
      vertex   2.928239e+001 0.000000e+000 5.746992e+001
      vertex   2.928239e+001 3.250000e+003 5.746992e+001
      vertex   1.993160e+001 3.250000e+003 6.134315e+001
    endloop
  endfacet
  facet normal 2.334454e-001 -0.000000e+000 9.723699e-001
    outer loop
      vertex   1.993160e+001 0.000000e+000 6.134315e+001
      vertex   1.993160e+001 3.250000e+003 6.134315e+001
      vertex   1.009002e+001 3.250000e+003 6.370590e+001
    endloop
  endfacet
  facet normal 7.845910e-002 -0.000000e+000 9.969173e-001
    outer loop
      vertex   1.009002e+001 0.000000e+000 6.370590e+001
      vertex   1.009002e+001 3.250000e+003 6.370590e+001
      vertex   2.369692e-014 3.250000e+003 6.450000e+001
    endloop
  endfacet
  facet normal -7.845910e-002 3.813823e-019 9.969173e-001
    outer loop
      vertex   7.898972e-015 0.000000e+000 6.450000e+001
      vertex   2.369692e-014 3.250000e+003 6.450000e+001
      vertex   -1.009002e+001 3.250000e+003 6.370590e+001
    endloop
  endfacet
  facet normal -2.334454e-001 0.000000e+000 9.723699e-001
    outer loop
      vertex   -1.009002e+001 0.000000e+000 6.370590e+001
      vertex   -1.009002e+001 3.250000e+003 6.370590e+001
      vertex   -1.993160e+001 3.250000e+003 6.134315e+001
    endloop
  endfacet
  facet normal -3.826834e-001 0.000000e+000 9.238795e-001
    outer loop
      vertex   -1.993160e+001 0.000000e+000 6.134315e+001
      vertex   -1.993160e+001 3.250000e+003 6.134315e+001
      vertex   -2.928239e+001 3.250000e+003 5.746992e+001
    endloop
  endfacet
  facet normal -5.224986e-001 0.000000e+000 8.526402e-001
    outer loop
      vertex   -2.928239e+001 0.000000e+000 5.746992e+001
      vertex   -2.928239e+001 3.250000e+003 5.746992e+001
      vertex   -3.791215e+001 3.250000e+003 5.218160e+001
    endloop
  endfacet
  facet normal -6.494480e-001 0.000000e+000 7.604060e-001
    outer loop
      vertex   -3.791215e+001 0.000000e+000 5.218160e+001
      vertex   -3.791215e+001 3.250000e+003 5.218160e+001
      vertex   -4.560839e+001 3.250000e+003 4.560839e+001
    endloop
  endfacet
  facet normal -7.604060e-001 0.000000e+000 6.494480e-001
    outer loop
      vertex   -4.560839e+001 0.000000e+000 4.560839e+001
      vertex   -4.560839e+001 3.250000e+003 4.560839e+001
      vertex   -5.218160e+001 3.250000e+003 3.791215e+001
    endloop
  endfacet
  facet normal -8.526402e-001 0.000000e+000 5.224986e-001
    outer loop
      vertex   -5.218160e+001 0.000000e+000 3.791215e+001
      vertex   -5.218160e+001 3.250000e+003 3.791215e+001
      vertex   -5.746992e+001 3.250000e+003 2.928239e+001
    endloop
  endfacet
  facet normal -9.238795e-001 0.000000e+000 3.826834e-001
    outer loop
      vertex   -5.746992e+001 0.000000e+000 2.928239e+001
      vertex   -5.746992e+001 3.250000e+003 2.928239e+001
      vertex   -6.134315e+001 3.250000e+003 1.993160e+001
    endloop
  endfacet
  facet normal -9.723699e-001 0.000000e+000 2.334454e-001
    outer loop
      vertex   -6.134315e+001 0.000000e+000 1.993160e+001
      vertex   -6.134315e+001 3.250000e+003 1.993160e+001
      vertex   -6.370590e+001 3.250000e+003 1.009002e+001
    endloop
  endfacet
  facet normal -9.969173e-001 0.000000e+000 7.845910e-002
    outer loop
      vertex   -6.370590e+001 0.000000e+000 1.009002e+001
      vertex   -6.370590e+001 3.250000e+003 1.009002e+001
      vertex   -6.450000e+001 3.250000e+003 1.184846e-014
    endloop
  endfacet
  facet normal -9.969173e-001 0.000000e+000 -7.845910e-002
    outer loop
      vertex   -6.450000e+001 0.000000e+000 1.184846e-014
      vertex   -6.450000e+001 3.250000e+003 1.184846e-014
      vertex   -6.370590e+001 3.250000e+003 -1.009002e+001
    endloop
  endfacet
  facet normal -9.723699e-001 0.000000e+000 -2.334454e-001
    outer loop
      vertex   -6.370590e+001 0.000000e+000 -1.009002e+001
      vertex   -6.370590e+001 3.250000e+003 -1.009002e+001
      vertex   -6.134315e+001 3.250000e+003 -1.993160e+001
    endloop
  endfacet
  facet normal -9.238795e-001 0.000000e+000 -3.826834e-001
    outer loop
      vertex   -6.134315e+001 0.000000e+000 -1.993160e+001
      vertex   -6.134315e+001 3.250000e+003 -1.993160e+001
      vertex   -5.746992e+001 3.250000e+003 -2.928239e+001
    endloop
  endfacet
  facet normal -8.526402e-001 0.000000e+000 -5.224986e-001
    outer loop
      vertex   -5.746992e+001 0.000000e+000 -2.928239e+001
      vertex   -5.746992e+001 3.250000e+003 -2.928239e+001
      vertex   -5.218160e+001 3.250000e+003 -3.791215e+001
    endloop
  endfacet
  facet normal -7.604060e-001 0.000000e+000 -6.494480e-001
    outer loop
      vertex   -5.218160e+001 0.000000e+000 -3.791215e+001
      vertex   -5.218160e+001 3.250000e+003 -3.791215e+001
      vertex   -4.560839e+001 3.250000e+003 -4.560839e+001
    endloop
  endfacet
  facet normal -6.494480e-001 0.000000e+000 -7.604060e-001
    outer loop
      vertex   -4.560839e+001 0.000000e+000 -4.560839e+001
      vertex   -4.560839e+001 3.250000e+003 -4.560839e+001
      vertex   -3.791215e+001 3.250000e+003 -5.218160e+001
    endloop
  endfacet
  facet normal -5.224986e-001 0.000000e+000 -8.526402e-001
    outer loop
      vertex   -3.791215e+001 0.000000e+000 -5.218160e+001
      vertex   -3.791215e+001 3.250000e+003 -5.218160e+001
      vertex   -2.928239e+001 3.250000e+003 -5.746992e+001
    endloop
  endfacet
  facet normal -3.826834e-001 0.000000e+000 -9.238795e-001
    outer loop
      vertex   -2.928239e+001 0.000000e+000 -5.746992e+001
      vertex   -2.928239e+001 3.250000e+003 -5.746992e+001
      vertex   -1.993160e+001 3.250000e+003 -6.134315e+001
    endloop
  endfacet
  facet normal -2.334454e-001 0.000000e+000 -9.723699e-001
    outer loop
      vertex   -1.993160e+001 0.000000e+000 -6.134315e+001
      vertex   -1.993160e+001 3.250000e+003 -6.134315e+001
      vertex   -1.009002e+001 3.250000e+003 -6.370590e+001
    endloop
  endfacet
  facet normal -7.845910e-002 0.000000e+000 -9.969173e-001
    outer loop
      vertex   -1.009002e+001 0.000000e+000 -6.370590e+001
      vertex   -1.009002e+001 3.250000e+003 -6.370590e+001
      vertex   0.000000e+000 3.250000e+003 -6.450000e+001
    endloop
  endfacet
  facet normal -7.845910e-002 -0.000000e+000 -9.969173e-001
    outer loop
      vertex   0.000000e+000 3.250000e+003 -6.450000e+001
      vertex   0.000000e+000 0.000000e+000 -6.450000e+001
      vertex   -1.009002e+001 0.000000e+000 -6.370590e+001
    endloop
  endfacet
  facet normal -2.334454e-001 -0.000000e+000 -9.723699e-001
    outer loop
      vertex   -1.009002e+001 3.250000e+003 -6.370590e+001
      vertex   -1.009002e+001 0.000000e+000 -6.370590e+001
      vertex   -1.993160e+001 0.000000e+000 -6.134315e+001
    endloop
  endfacet
  facet normal -3.826834e-001 -0.000000e+000 -9.238795e-001
    outer loop
      vertex   -1.993160e+001 3.250000e+003 -6.134315e+001
      vertex   -1.993160e+001 0.000000e+000 -6.134315e+001
      vertex   -2.928239e+001 0.000000e+000 -5.746992e+001
    endloop
  endfacet
  facet normal -5.224986e-001 -0.000000e+000 -8.526402e-001
    outer loop
      vertex   -2.928239e+001 3.250000e+003 -5.746992e+001
      vertex   -2.928239e+001 0.000000e+000 -5.746992e+001
      vertex   -3.791215e+001 0.000000e+000 -5.218160e+001
    endloop
  endfacet
  facet normal -6.494480e-001 -0.000000e+000 -7.604060e-001
    outer loop
      vertex   -3.791215e+001 3.250000e+003 -5.218160e+001
      vertex   -3.791215e+001 0.000000e+000 -5.218160e+001
      vertex   -4.560839e+001 0.000000e+000 -4.560839e+001
    endloop
  endfacet
  facet normal -7.604060e-001 -0.000000e+000 -6.494480e-001
    outer loop
      vertex   -4.560839e+001 3.250000e+003 -4.560839e+001
      vertex   -4.560839e+001 0.000000e+000 -4.560839e+001
      vertex   -5.218160e+001 0.000000e+000 -3.791215e+001
    endloop
  endfacet
  facet normal -8.526402e-001 -0.000000e+000 -5.224986e-001
    outer loop
      vertex   -5.218160e+001 3.250000e+003 -3.791215e+001
      vertex   -5.218160e+001 0.000000e+000 -3.791215e+001
      vertex   -5.746992e+001 0.000000e+000 -2.928239e+001
    endloop
  endfacet
  facet normal -9.238795e-001 -0.000000e+000 -3.826834e-001
    outer loop
      vertex   -5.746992e+001 3.250000e+003 -2.928239e+001
      vertex   -5.746992e+001 0.000000e+000 -2.928239e+001
      vertex   -6.134315e+001 0.000000e+000 -1.993160e+001
    endloop
  endfacet
  facet normal -9.723699e-001 -0.000000e+000 -2.334454e-001
    outer loop
      vertex   -6.134315e+001 3.250000e+003 -1.993160e+001
      vertex   -6.134315e+001 0.000000e+000 -1.993160e+001
      vertex   -6.370590e+001 0.000000e+000 -1.009002e+001
    endloop
  endfacet
  facet normal -9.969173e-001 -0.000000e+000 -7.845910e-002
    outer loop
      vertex   -6.370590e+001 3.250000e+003 -1.009002e+001
      vertex   -6.370590e+001 0.000000e+000 -1.009002e+001
      vertex   -6.450000e+001 0.000000e+000 1.184846e-014
    endloop
  endfacet
  facet normal -9.969173e-001 0.000000e+000 7.845910e-002
    outer loop
      vertex   -6.450000e+001 3.250000e+003 1.184846e-014
      vertex   -6.450000e+001 0.000000e+000 1.184846e-014
      vertex   -6.370590e+001 0.000000e+000 1.009002e+001
    endloop
  endfacet
  facet normal -9.723699e-001 0.000000e+000 2.334454e-001
    outer loop
      vertex   -6.370590e+001 3.250000e+003 1.009002e+001
      vertex   -6.370590e+001 0.000000e+000 1.009002e+001
      vertex   -6.134315e+001 0.000000e+000 1.993160e+001
    endloop
  endfacet
  facet normal -9.238795e-001 0.000000e+000 3.826834e-001
    outer loop
      vertex   -6.134315e+001 3.250000e+003 1.993160e+001
      vertex   -6.134315e+001 0.000000e+000 1.993160e+001
      vertex   -5.746992e+001 0.000000e+000 2.928239e+001
    endloop
  endfacet
  facet normal -8.526402e-001 0.000000e+000 5.224986e-001
    outer loop
      vertex   -5.746992e+001 3.250000e+003 2.928239e+001
      vertex   -5.746992e+001 0.000000e+000 2.928239e+001
      vertex   -5.218160e+001 0.000000e+000 3.791215e+001
    endloop
  endfacet
  facet normal -7.604060e-001 0.000000e+000 6.494480e-001
    outer loop
      vertex   -5.218160e+001 3.250000e+003 3.791215e+001
      vertex   -5.218160e+001 0.000000e+000 3.791215e+001
      vertex   -4.560839e+001 0.000000e+000 4.560839e+001
    endloop
  endfacet
  facet normal -6.494480e-001 0.000000e+000 7.604060e-001
    outer loop
      vertex   -4.560839e+001 3.250000e+003 4.560839e+001
      vertex   -4.560839e+001 0.000000e+000 4.560839e+001
      vertex   -3.791215e+001 0.000000e+000 5.218160e+001
    endloop
  endfacet
  facet normal -5.224986e-001 0.000000e+000 8.526402e-001
    outer loop
      vertex   -3.791215e+001 3.250000e+003 5.218160e+001
      vertex   -3.791215e+001 0.000000e+000 5.218160e+001
      vertex   -2.928239e+001 0.000000e+000 5.746992e+001
    endloop
  endfacet
  facet normal -3.826834e-001 0.000000e+000 9.238795e-001
    outer loop
      vertex   -2.928239e+001 3.250000e+003 5.746992e+001
      vertex   -2.928239e+001 0.000000e+000 5.746992e+001
      vertex   -1.993160e+001 0.000000e+000 6.134315e+001
    endloop
  endfacet
  facet normal -2.334454e-001 0.000000e+000 9.723699e-001
    outer loop
      vertex   -1.993160e+001 3.250000e+003 6.134315e+001
      vertex   -1.993160e+001 0.000000e+000 6.134315e+001
      vertex   -1.009002e+001 0.000000e+000 6.370590e+001
    endloop
  endfacet
  facet normal -7.845910e-002 0.000000e+000 9.969173e-001
    outer loop
      vertex   -1.009002e+001 3.250000e+003 6.370590e+001
      vertex   -1.009002e+001 0.000000e+000 6.370590e+001
      vertex   7.898972e-015 0.000000e+000 6.450000e+001
    endloop
  endfacet
  facet normal 7.845910e-002 -3.813823e-019 9.969173e-001
    outer loop
      vertex   2.369692e-014 3.250000e+003 6.450000e+001
      vertex   7.898972e-015 0.000000e+000 6.450000e+001
      vertex   1.009002e+001 0.000000e+000 6.370590e+001
    endloop
  endfacet
  facet normal 2.334454e-001 0.000000e+000 9.723699e-001
    outer loop
      vertex   1.009002e+001 3.250000e+003 6.370590e+001
      vertex   1.009002e+001 0.000000e+000 6.370590e+001
      vertex   1.993160e+001 0.000000e+000 6.134315e+001
    endloop
  endfacet
  facet normal 3.826834e-001 0.000000e+000 9.238795e-001
    outer loop
      vertex   1.993160e+001 3.250000e+003 6.134315e+001
      vertex   1.993160e+001 0.000000e+000 6.134315e+001
      vertex   2.928239e+001 0.000000e+000 5.746992e+001
    endloop
  endfacet
  facet normal 5.224986e-001 0.000000e+000 8.526402e-001
    outer loop
      vertex   2.928239e+001 3.250000e+003 5.746992e+001
      vertex   2.928239e+001 0.000000e+000 5.746992e+001
      vertex   3.791215e+001 0.000000e+000 5.218160e+001
    endloop
  endfacet
  facet normal 6.494480e-001 0.000000e+000 7.604060e-001
    outer loop
      vertex   3.791215e+001 3.250000e+003 5.218160e+001
      vertex   3.791215e+001 0.000000e+000 5.218160e+001
      vertex   4.560839e+001 0.000000e+000 4.560839e+001
    endloop
  endfacet
  facet normal 7.604060e-001 0.000000e+000 6.494480e-001
    outer loop
      vertex   4.560839e+001 3.250000e+003 4.560839e+001
      vertex   4.560839e+001 0.000000e+000 4.560839e+001
      vertex   5.218160e+001 0.000000e+000 3.791215e+001
    endloop
  endfacet
  facet normal 8.526402e-001 0.000000e+000 5.224986e-001
    outer loop
      vertex   5.218160e+001 3.250000e+003 3.791215e+001
      vertex   5.218160e+001 0.000000e+000 3.791215e+001
      vertex   5.746992e+001 0.000000e+000 2.928239e+001
    endloop
  endfacet
  facet normal 9.238795e-001 0.000000e+000 3.826834e-001
    outer loop
      vertex   5.746992e+001 3.250000e+003 2.928239e+001
      vertex   5.746992e+001 0.000000e+000 2.928239e+001
      vertex   6.134315e+001 0.000000e+000 1.993160e+001
    endloop
  endfacet
  facet normal 9.723699e-001 0.000000e+000 2.334454e-001
    outer loop
      vertex   6.134315e+001 3.250000e+003 1.993160e+001
      vertex   6.134315e+001 0.000000e+000 1.993160e+001
      vertex   6.370590e+001 0.000000e+000 1.009002e+001
    endloop
  endfacet
  facet normal 9.969173e-001 0.000000e+000 7.845910e-002
    outer loop
      vertex   6.370590e+001 3.250000e+003 1.009002e+001
      vertex   6.370590e+001 0.000000e+000 1.009002e+001
      vertex   6.450000e+001 0.000000e+000 -3.949486e-015
    endloop
  endfacet
  facet normal 9.969173e-001 0.000000e+000 -7.845910e-002
    outer loop
      vertex   6.450000e+001 3.250000e+003 -3.949486e-015
      vertex   6.450000e+001 0.000000e+000 -3.949486e-015
      vertex   6.370590e+001 0.000000e+000 -1.009002e+001
    endloop
  endfacet
  facet normal 9.723699e-001 0.000000e+000 -2.334454e-001
    outer loop
      vertex   6.370590e+001 3.250000e+003 -1.009002e+001
      vertex   6.370590e+001 0.000000e+000 -1.009002e+001
      vertex   6.134315e+001 0.000000e+000 -1.993160e+001
    endloop
  endfacet
  facet normal 9.238795e-001 0.000000e+000 -3.826834e-001
    outer loop
      vertex   6.134315e+001 3.250000e+003 -1.993160e+001
      vertex   6.134315e+001 0.000000e+000 -1.993160e+001
      vertex   5.746992e+001 0.000000e+000 -2.928239e+001
    endloop
  endfacet
  facet normal 8.526402e-001 0.000000e+000 -5.224986e-001
    outer loop
      vertex   5.746992e+001 3.250000e+003 -2.928239e+001
      vertex   5.746992e+001 0.000000e+000 -2.928239e+001
      vertex   5.218160e+001 0.000000e+000 -3.791215e+001
    endloop
  endfacet
  facet normal 7.604060e-001 0.000000e+000 -6.494480e-001
    outer loop
      vertex   5.218160e+001 3.250000e+003 -3.791215e+001
      vertex   5.218160e+001 0.000000e+000 -3.791215e+001
      vertex   4.560839e+001 0.000000e+000 -4.560839e+001
    endloop
  endfacet
  facet normal 6.494480e-001 0.000000e+000 -7.604060e-001
    outer loop
      vertex   4.560839e+001 3.250000e+003 -4.560839e+001
      vertex   4.560839e+001 0.000000e+000 -4.560839e+001
      vertex   3.791215e+001 0.000000e+000 -5.218160e+001
    endloop
  endfacet
  facet normal 5.224986e-001 0.000000e+000 -8.526402e-001
    outer loop
      vertex   3.791215e+001 3.250000e+003 -5.218160e+001
      vertex   3.791215e+001 0.000000e+000 -5.218160e+001
      vertex   2.928239e+001 0.000000e+000 -5.746992e+001
    endloop
  endfacet
  facet normal 3.826834e-001 0.000000e+000 -9.238795e-001
    outer loop
      vertex   2.928239e+001 3.250000e+003 -5.746992e+001
      vertex   2.928239e+001 0.000000e+000 -5.746992e+001
      vertex   1.993160e+001 0.000000e+000 -6.134315e+001
    endloop
  endfacet
  facet normal 2.334454e-001 0.000000e+000 -9.723699e-001
    outer loop
      vertex   1.993160e+001 3.250000e+003 -6.134315e+001
      vertex   1.993160e+001 0.000000e+000 -6.134315e+001
      vertex   1.009002e+001 0.000000e+000 -6.370590e+001
    endloop
  endfacet
  facet normal 7.845910e-002 0.000000e+000 -9.969173e-001
    outer loop
      vertex   1.009002e+001 3.250000e+003 -6.370590e+001
      vertex   1.009002e+001 0.000000e+000 -6.370590e+001
      vertex   0.000000e+000 0.000000e+000 -6.450000e+001
    endloop
  endfacet
  facet normal 0.000000e+000 -1.000000e+000 0.000000e+000
    outer loop
      vertex   0.000000e+000 0.000000e+000 0.000000e+000
      vertex   -1.009002e+001 0.000000e+000 6.370590e+001
      vertex   -1.993160e+001 0.000000e+000 6.134315e+001
    endloop
  endfacet
  facet normal 0.000000e+000 -1.000000e+000 -0.000000e+000
    outer loop
      vertex   -1.993160e+001 0.000000e+000 6.134315e+001
      vertex   -2.928239e+001 0.000000e+000 5.746992e+001
      vertex   0.000000e+000 0.000000e+000 0.000000e+000
    endloop
  endfacet
  facet normal 0.000000e+000 -1.000000e+000 -0.000000e+000
    outer loop
      vertex   -2.928239e+001 0.000000e+000 5.746992e+001
      vertex   -3.791215e+001 0.000000e+000 5.218160e+001
      vertex   0.000000e+000 0.000000e+000 0.000000e+000
    endloop
  endfacet
  facet normal 0.000000e+000 -1.000000e+000 -0.000000e+000
    outer loop
      vertex   -3.791215e+001 0.000000e+000 5.218160e+001
      vertex   -4.560839e+001 0.000000e+000 4.560839e+001
      vertex   0.000000e+000 0.000000e+000 0.000000e+000
    endloop
  endfacet
  facet normal 0.000000e+000 -1.000000e+000 -0.000000e+000
    outer loop
      vertex   -4.560839e+001 0.000000e+000 4.560839e+001
      vertex   -5.218160e+001 0.000000e+000 3.791215e+001
      vertex   0.000000e+000 0.000000e+000 0.000000e+000
    endloop
  endfacet
  facet normal 0.000000e+000 -1.000000e+000 -0.000000e+000
    outer loop
      vertex   -5.218160e+001 0.000000e+000 3.791215e+001
      vertex   -5.746992e+001 0.000000e+000 2.928239e+001
      vertex   0.000000e+000 0.000000e+000 0.000000e+000
    endloop
  endfacet
  facet normal 0.000000e+000 -1.000000e+000 -0.000000e+000
    outer loop
      vertex   -5.746992e+001 0.000000e+000 2.928239e+001
      vertex   -6.134315e+001 0.000000e+000 1.993160e+001
      vertex   0.000000e+000 0.000000e+000 0.000000e+000
    endloop
  endfacet
  facet normal 0.000000e+000 -1.000000e+000 -0.000000e+000
    outer loop
      vertex   -6.134315e+001 0.000000e+000 1.993160e+001
      vertex   -6.370590e+001 0.000000e+000 1.009002e+001
      vertex   0.000000e+000 0.000000e+000 0.000000e+000
    endloop
  endfacet
  facet normal 0.000000e+000 -1.000000e+000 -0.000000e+000
    outer loop
      vertex   -6.370590e+001 0.000000e+000 1.009002e+001
      vertex   -6.450000e+001 0.000000e+000 1.184846e-014
      vertex   0.000000e+000 0.000000e+000 0.000000e+000
    endloop
  endfacet
  facet normal 0.000000e+000 -1.000000e+000 0.000000e+000
    outer loop
      vertex   -6.450000e+001 0.000000e+000 1.184846e-014
      vertex   -6.370590e+001 0.000000e+000 -1.009002e+001
      vertex   0.000000e+000 0.000000e+000 0.000000e+000
    endloop
  endfacet
  facet normal 0.000000e+000 -1.000000e+000 0.000000e+000
    outer loop
      vertex   -6.370590e+001 0.000000e+000 -1.009002e+001
      vertex   -6.134315e+001 0.000000e+000 -1.993160e+001
      vertex   0.000000e+000 0.000000e+000 0.000000e+000
    endloop
  endfacet
  facet normal 0.000000e+000 -1.000000e+000 0.000000e+000
    outer loop
      vertex   -6.134315e+001 0.000000e+000 -1.993160e+001
      vertex   -5.746992e+001 0.000000e+000 -2.928239e+001
      vertex   0.000000e+000 0.000000e+000 0.000000e+000
    endloop
  endfacet
  facet normal 0.000000e+000 -1.000000e+000 0.000000e+000
    outer loop
      vertex   -5.746992e+001 0.000000e+000 -2.928239e+001
      vertex   -5.218160e+001 0.000000e+000 -3.791215e+001
      vertex   0.000000e+000 0.000000e+000 0.000000e+000
    endloop
  endfacet
  facet normal 0.000000e+000 -1.000000e+000 0.000000e+000
    outer loop
      vertex   -5.218160e+001 0.000000e+000 -3.791215e+001
      vertex   -4.560839e+001 0.000000e+000 -4.560839e+001
      vertex   0.000000e+000 0.000000e+000 0.000000e+000
    endloop
  endfacet
  facet normal 0.000000e+000 -1.000000e+000 0.000000e+000
    outer loop
      vertex   -4.560839e+001 0.000000e+000 -4.560839e+001
      vertex   -3.791215e+001 0.000000e+000 -5.218160e+001
      vertex   0.000000e+000 0.000000e+000 0.000000e+000
    endloop
  endfacet
  facet normal 0.000000e+000 -1.000000e+000 0.000000e+000
    outer loop
      vertex   -3.791215e+001 0.000000e+000 -5.218160e+001
      vertex   -2.928239e+001 0.000000e+000 -5.746992e+001
      vertex   0.000000e+000 0.000000e+000 0.000000e+000
    endloop
  endfacet
  facet normal 0.000000e+000 -1.000000e+000 0.000000e+000
    outer loop
      vertex   -2.928239e+001 0.000000e+000 -5.746992e+001
      vertex   -1.993160e+001 0.000000e+000 -6.134315e+001
      vertex   0.000000e+000 0.000000e+000 0.000000e+000
    endloop
  endfacet
  facet normal 0.000000e+000 -1.000000e+000 0.000000e+000
    outer loop
      vertex   -1.993160e+001 0.000000e+000 -6.134315e+001
      vertex   -1.009002e+001 0.000000e+000 -6.370590e+001
      vertex   0.000000e+000 0.000000e+000 0.000000e+000
    endloop
  endfacet
  facet normal 0.000000e+000 -1.000000e+000 0.000000e+000
    outer loop
      vertex   -1.009002e+001 0.000000e+000 -6.370590e+001
      vertex   0.000000e+000 0.000000e+000 -6.450000e+001
      vertex   0.000000e+000 0.000000e+000 0.000000e+000
    endloop
  endfacet
  facet normal 0.000000e+000 -1.000000e+000 0.000000e+000
    outer loop
      vertex   0.000000e+000 0.000000e+000 -6.450000e+001
      vertex   1.009002e+001 0.000000e+000 -6.370590e+001
      vertex   0.000000e+000 0.000000e+000 0.000000e+000
    endloop
  endfacet
  facet normal 0.000000e+000 -1.000000e+000 0.000000e+000
    outer loop
      vertex   1.009002e+001 0.000000e+000 -6.370590e+001
      vertex   1.993160e+001 0.000000e+000 -6.134315e+001
      vertex   0.000000e+000 0.000000e+000 0.000000e+000
    endloop
  endfacet
  facet normal 0.000000e+000 -1.000000e+000 0.000000e+000
    outer loop
      vertex   1.993160e+001 0.000000e+000 -6.134315e+001
      vertex   2.928239e+001 0.000000e+000 -5.746992e+001
      vertex   0.000000e+000 0.000000e+000 0.000000e+000
    endloop
  endfacet
  facet normal 0.000000e+000 -1.000000e+000 0.000000e+000
    outer loop
      vertex   2.928239e+001 0.000000e+000 -5.746992e+001
      vertex   3.791215e+001 0.000000e+000 -5.218160e+001
      vertex   0.000000e+000 0.000000e+000 0.000000e+000
    endloop
  endfacet
  facet normal 0.000000e+000 -1.000000e+000 0.000000e+000
    outer loop
      vertex   3.791215e+001 0.000000e+000 -5.218160e+001
      vertex   4.560839e+001 0.000000e+000 -4.560839e+001
      vertex   0.000000e+000 0.000000e+000 0.000000e+000
    endloop
  endfacet
  facet normal 0.000000e+000 -1.000000e+000 0.000000e+000
    outer loop
      vertex   4.560839e+001 0.000000e+000 -4.560839e+001
      vertex   5.218160e+001 0.000000e+000 -3.791215e+001
      vertex   0.000000e+000 0.000000e+000 0.000000e+000
    endloop
  endfacet
  facet normal 0.000000e+000 -1.000000e+000 0.000000e+000
    outer loop
      vertex   5.218160e+001 0.000000e+000 -3.791215e+001
      vertex   5.746992e+001 0.000000e+000 -2.928239e+001
      vertex   0.000000e+000 0.000000e+000 0.000000e+000
    endloop
  endfacet
  facet normal 0.000000e+000 -1.000000e+000 0.000000e+000
    outer loop
      vertex   5.746992e+001 0.000000e+000 -2.928239e+001
      vertex   6.134315e+001 0.000000e+000 -1.993160e+001
      vertex   0.000000e+000 0.000000e+000 0.000000e+000
    endloop
  endfacet
  facet normal 0.000000e+000 -1.000000e+000 0.000000e+000
    outer loop
      vertex   6.134315e+001 0.000000e+000 -1.993160e+001
      vertex   6.370590e+001 0.000000e+000 -1.009002e+001
      vertex   0.000000e+000 0.000000e+000 0.000000e+000
    endloop
  endfacet
  facet normal 0.000000e+000 -1.000000e+000 0.000000e+000
    outer loop
      vertex   6.370590e+001 0.000000e+000 -1.009002e+001
      vertex   6.450000e+001 0.000000e+000 -3.949486e-015
      vertex   0.000000e+000 0.000000e+000 0.000000e+000
    endloop
  endfacet
  facet normal 0.000000e+000 -1.000000e+000 0.000000e+000
    outer loop
      vertex   6.450000e+001 0.000000e+000 -3.949486e-015
      vertex   6.370590e+001 0.000000e+000 1.009002e+001
      vertex   0.000000e+000 0.000000e+000 0.000000e+000
    endloop
  endfacet
  facet normal -0.000000e+000 -1.000000e+000 0.000000e+000
    outer loop
      vertex   6.370590e+001 0.000000e+000 1.009002e+001
      vertex   6.134315e+001 0.000000e+000 1.993160e+001
      vertex   0.000000e+000 0.000000e+000 0.000000e+000
    endloop
  endfacet
  facet normal -0.000000e+000 -1.000000e+000 0.000000e+000
    outer loop
      vertex   6.134315e+001 0.000000e+000 1.993160e+001
      vertex   5.746992e+001 0.000000e+000 2.928239e+001
      vertex   0.000000e+000 0.000000e+000 0.000000e+000
    endloop
  endfacet
  facet normal -0.000000e+000 -1.000000e+000 0.000000e+000
    outer loop
      vertex   5.746992e+001 0.000000e+000 2.928239e+001
      vertex   5.218160e+001 0.000000e+000 3.791215e+001
      vertex   0.000000e+000 0.000000e+000 0.000000e+000
    endloop
  endfacet
  facet normal -0.000000e+000 -1.000000e+000 0.000000e+000
    outer loop
      vertex   5.218160e+001 0.000000e+000 3.791215e+001
      vertex   4.560839e+001 0.000000e+000 4.560839e+001
      vertex   0.000000e+000 0.000000e+000 0.000000e+000
    endloop
  endfacet
  facet normal -0.000000e+000 -1.000000e+000 0.000000e+000
    outer loop
      vertex   4.560839e+001 0.000000e+000 4.560839e+001
      vertex   3.791215e+001 0.000000e+000 5.218160e+001
      vertex   0.000000e+000 0.000000e+000 0.000000e+000
    endloop
  endfacet
  facet normal -0.000000e+000 -1.000000e+000 0.000000e+000
    outer loop
      vertex   3.791215e+001 0.000000e+000 5.218160e+001
      vertex   2.928239e+001 0.000000e+000 5.746992e+001
      vertex   0.000000e+000 0.000000e+000 0.000000e+000
    endloop
  endfacet
  facet normal -0.000000e+000 -1.000000e+000 0.000000e+000
    outer loop
      vertex   2.928239e+001 0.000000e+000 5.746992e+001
      vertex   1.993160e+001 0.000000e+000 6.134315e+001
      vertex   0.000000e+000 0.000000e+000 0.000000e+000
    endloop
  endfacet
  facet normal -0.000000e+000 -1.000000e+000 0.000000e+000
    outer loop
      vertex   1.993160e+001 0.000000e+000 6.134315e+001
      vertex   1.009002e+001 0.000000e+000 6.370590e+001
      vertex   0.000000e+000 0.000000e+000 0.000000e+000
    endloop
  endfacet
  facet normal -0.000000e+000 -1.000000e+000 0.000000e+000
    outer loop
      vertex   1.009002e+001 0.000000e+000 6.370590e+001
      vertex   7.898972e-015 0.000000e+000 6.450000e+001
      vertex   0.000000e+000 0.000000e+000 0.000000e+000
    endloop
  endfacet
  facet normal 0.000000e+000 -1.000000e+000 0.000000e+000
    outer loop
      vertex   7.898972e-015 0.000000e+000 6.450000e+001
      vertex   -1.009002e+001 0.000000e+000 6.370590e+001
      vertex   0.000000e+000 0.000000e+000 0.000000e+000
    endloop
  endfacet
endsolid
