solid Mortero
  facet normal 0.000000e+000 -1.000000e+000 0.000000e+000
    outer loop
      vertex   1.000000e+002 -2.800000e+002 0.000000e+000
      vertex   1.000000e+002 -2.800000e+002 2.000000e+001
      vertex   -1.000000e+002 -2.800000e+002 2.000000e+001
    endloop
  endfacet
  facet normal 0.000000e+000 -1.000000e+000 0.000000e+000
    outer loop
      vertex   -1.000000e+002 -2.800000e+002 2.000000e+001
      vertex   -1.000000e+002 -2.800000e+002 0.000000e+000
      vertex   1.000000e+002 -2.800000e+002 0.000000e+000
    endloop
  endfacet
  facet normal 0.000000e+000 -1.239088e-016 1.000000e+000
    outer loop
      vertex   1.000000e+002 0.000000e+000 2.000000e+001
      vertex   -1.000000e+002 0.000000e+000 2.000000e+001
      vertex   -1.000000e+002 -2.800000e+002 2.000000e+001
    endloop
  endfacet
  facet normal 0.000000e+000 -1.239088e-016 1.000000e+000
    outer loop
      vertex   -1.000000e+002 -2.800000e+002 2.000000e+001
      vertex   1.000000e+002 -2.800000e+002 2.000000e+001
      vertex   1.000000e+002 0.000000e+000 2.000000e+001
    endloop
  endfacet
  facet normal 0.000000e+000 -1.000000e+000 0.000000e+000
    outer loop
      vertex   -1.000000e+002 0.000000e+000 3.000000e+001
      vertex   -1.000000e+002 0.000000e+000 2.000000e+001
      vertex   1.000000e+002 0.000000e+000 2.000000e+001
    endloop
  endfacet
  facet normal 0.000000e+000 -1.000000e+000 0.000000e+000
    outer loop
      vertex   1.000000e+002 0.000000e+000 2.000000e+001
      vertex   1.000000e+002 0.000000e+000 3.000000e+001
      vertex   -1.000000e+002 0.000000e+000 3.000000e+001
    endloop
  endfacet
  facet normal -1.000000e+000 0.000000e+000 -0.000000e+000
    outer loop
      vertex   -1.000000e+002 2.800000e+002 3.000000e+001
      vertex   -1.000000e+002 2.800000e+002 0.000000e+000
      vertex   -1.000000e+002 0.000000e+000 2.000000e+001
    endloop
  endfacet
  facet normal -1.000000e+000 0.000000e+000 0.000000e+000
    outer loop
      vertex   -1.000000e+002 -2.800000e+002 0.000000e+000
      vertex   -1.000000e+002 -2.800000e+002 2.000000e+001
      vertex   -1.000000e+002 0.000000e+000 2.000000e+001
    endloop
  endfacet
  facet normal -1.000000e+000 0.000000e+000 -0.000000e+000
    outer loop
      vertex   -1.000000e+002 0.000000e+000 2.000000e+001
      vertex   -1.000000e+002 2.800000e+002 0.000000e+000
      vertex   -1.000000e+002 -2.800000e+002 0.000000e+000
    endloop
  endfacet
  facet normal -1.000000e+000 0.000000e+000 0.000000e+000
    outer loop
      vertex   -1.000000e+002 0.000000e+000 2.000000e+001
      vertex   -1.000000e+002 0.000000e+000 3.000000e+001
      vertex   -1.000000e+002 2.800000e+002 3.000000e+001
    endloop
  endfacet
  facet normal 1.000000e+000 -0.000000e+000 6.938894e-016
    outer loop
      vertex   1.000000e+002 -2.800000e+002 0.000000e+000
      vertex   1.000000e+002 2.800000e+002 0.000000e+000
      vertex   1.000000e+002 0.000000e+000 2.000000e+001
    endloop
  endfacet
  facet normal 1.000000e+000 0.000000e+000 -1.387779e-015
    outer loop
      vertex   1.000000e+002 2.800000e+002 3.000000e+001
      vertex   1.000000e+002 0.000000e+000 3.000000e+001
      vertex   1.000000e+002 0.000000e+000 2.000000e+001
    endloop
  endfacet
  facet normal 1.000000e+000 -4.956353e-017 0.000000e+000
    outer loop
      vertex   1.000000e+002 0.000000e+000 2.000000e+001
      vertex   1.000000e+002 2.800000e+002 0.000000e+000
      vertex   1.000000e+002 2.800000e+002 3.000000e+001
    endloop
  endfacet
  facet normal 1.000000e+000 -8.597902e-032 6.938894e-016
    outer loop
      vertex   1.000000e+002 0.000000e+000 2.000000e+001
      vertex   1.000000e+002 -2.800000e+002 2.000000e+001
      vertex   1.000000e+002 -2.800000e+002 0.000000e+000
    endloop
  endfacet
  facet normal 0.000000e+000 0.000000e+000 1.000000e+000
    outer loop
      vertex   1.000000e+002 2.800000e+002 3.000000e+001
      vertex   -1.000000e+002 2.800000e+002 3.000000e+001
      vertex   -1.000000e+002 0.000000e+000 3.000000e+001
    endloop
  endfacet
  facet normal 0.000000e+000 0.000000e+000 1.000000e+000
    outer loop
      vertex   -1.000000e+002 0.000000e+000 3.000000e+001
      vertex   1.000000e+002 0.000000e+000 3.000000e+001
      vertex   1.000000e+002 2.800000e+002 3.000000e+001
    endloop
  endfacet
  facet normal 0.000000e+000 1.000000e+000 0.000000e+000
    outer loop
      vertex   1.000000e+002 2.800000e+002 3.000000e+001
      vertex   1.000000e+002 2.800000e+002 0.000000e+000
      vertex   -1.000000e+002 2.800000e+002 0.000000e+000
    endloop
  endfacet
  facet normal 0.000000e+000 1.000000e+000 0.000000e+000
    outer loop
      vertex   -1.000000e+002 2.800000e+002 0.000000e+000
      vertex   -1.000000e+002 2.800000e+002 3.000000e+001
      vertex   1.000000e+002 2.800000e+002 3.000000e+001
    endloop
  endfacet
  facet normal 0.000000e+000 0.000000e+000 1.000000e+000
    outer loop
      vertex   1.300000e+002 3.100000e+002 0.000000e+000
      vertex   -1.300000e+002 3.100000e+002 0.000000e+000
      vertex   -1.000000e+002 2.800000e+002 0.000000e+000
    endloop
  endfacet
  facet normal 0.000000e+000 0.000000e+000 1.000000e+000
    outer loop
      vertex   -1.300000e+002 3.100000e+002 0.000000e+000
      vertex   -1.300000e+002 -3.100000e+002 0.000000e+000
      vertex   -1.000000e+002 -2.800000e+002 0.000000e+000
    endloop
  endfacet
  facet normal 0.000000e+000 0.000000e+000 1.000000e+000
    outer loop
      vertex   -1.300000e+002 -3.100000e+002 0.000000e+000
      vertex   1.300000e+002 -3.100000e+002 0.000000e+000
      vertex   1.000000e+002 -2.800000e+002 0.000000e+000
    endloop
  endfacet
  facet normal 0.000000e+000 -0.000000e+000 1.000000e+000
    outer loop
      vertex   1.300000e+002 -3.100000e+002 0.000000e+000
      vertex   1.300000e+002 3.100000e+002 0.000000e+000
      vertex   1.000000e+002 2.800000e+002 0.000000e+000
    endloop
  endfacet
  facet normal 0.000000e+000 -0.000000e+000 1.000000e+000
    outer loop
      vertex   -1.000000e+002 -2.800000e+002 0.000000e+000
      vertex   -1.000000e+002 2.800000e+002 0.000000e+000
      vertex   -1.300000e+002 3.100000e+002 0.000000e+000
    endloop
  endfacet
  facet normal 0.000000e+000 0.000000e+000 1.000000e+000
    outer loop
      vertex   1.000000e+002 2.800000e+002 0.000000e+000
      vertex   1.000000e+002 -2.800000e+002 0.000000e+000
      vertex   1.300000e+002 -3.100000e+002 0.000000e+000
    endloop
  endfacet
  facet normal 0.000000e+000 0.000000e+000 1.000000e+000
    outer loop
      vertex   1.000000e+002 -2.800000e+002 0.000000e+000
      vertex   -1.000000e+002 -2.800000e+002 0.000000e+000
      vertex   -1.300000e+002 -3.100000e+002 0.000000e+000
    endloop
  endfacet
  facet normal 0.000000e+000 0.000000e+000 1.000000e+000
    outer loop
      vertex   -1.000000e+002 2.800000e+002 0.000000e+000
      vertex   1.000000e+002 2.800000e+002 0.000000e+000
      vertex   1.300000e+002 3.100000e+002 0.000000e+000
    endloop
  endfacet
  facet normal 1.000000e+000 0.000000e+000 -0.000000e+000
    outer loop
      vertex   1.300000e+002 3.100000e+002 -2.000000e+001
      vertex   1.300000e+002 3.100000e+002 0.000000e+000
      vertex   1.300000e+002 -3.100000e+002 0.000000e+000
    endloop
  endfacet
  facet normal 1.000000e+000 0.000000e+000 0.000000e+000
    outer loop
      vertex   1.300000e+002 -3.100000e+002 0.000000e+000
      vertex   1.300000e+002 -3.100000e+002 -2.000000e+001
      vertex   1.300000e+002 3.100000e+002 -2.000000e+001
    endloop
  endfacet
  facet normal 0.000000e+000 -1.000000e+000 0.000000e+000
    outer loop
      vertex   1.300000e+002 -3.100000e+002 -2.000000e+001
      vertex   1.300000e+002 -3.100000e+002 0.000000e+000
      vertex   -1.300000e+002 -3.100000e+002 0.000000e+000
    endloop
  endfacet
  facet normal 0.000000e+000 -1.000000e+000 0.000000e+000
    outer loop
      vertex   -1.300000e+002 -3.100000e+002 0.000000e+000
      vertex   -1.300000e+002 -3.100000e+002 -2.000000e+001
      vertex   1.300000e+002 -3.100000e+002 -2.000000e+001
    endloop
  endfacet
  facet normal -1.000000e+000 0.000000e+000 0.000000e+000
    outer loop
      vertex   -1.300000e+002 -3.100000e+002 -2.000000e+001
      vertex   -1.300000e+002 -3.100000e+002 0.000000e+000
      vertex   -1.300000e+002 3.100000e+002 0.000000e+000
    endloop
  endfacet
  facet normal -1.000000e+000 0.000000e+000 -0.000000e+000
    outer loop
      vertex   -1.300000e+002 3.100000e+002 0.000000e+000
      vertex   -1.300000e+002 3.100000e+002 -2.000000e+001
      vertex   -1.300000e+002 -3.100000e+002 -2.000000e+001
    endloop
  endfacet
  facet normal 0.000000e+000 1.000000e+000 0.000000e+000
    outer loop
      vertex   -1.300000e+002 3.100000e+002 -2.000000e+001
      vertex   -1.300000e+002 3.100000e+002 0.000000e+000
      vertex   1.300000e+002 3.100000e+002 0.000000e+000
    endloop
  endfacet
  facet normal 0.000000e+000 1.000000e+000 0.000000e+000
    outer loop
      vertex   1.300000e+002 3.100000e+002 0.000000e+000
      vertex   1.300000e+002 3.100000e+002 -2.000000e+001
      vertex   -1.300000e+002 3.100000e+002 -2.000000e+001
    endloop
  endfacet
  facet normal 0.000000e+000 0.000000e+000 -1.000000e+000
    outer loop
      vertex   -1.300000e+002 3.100000e+002 -2.000000e+001
      vertex   1.300000e+002 3.100000e+002 -2.000000e+001
      vertex   1.300000e+002 -3.100000e+002 -2.000000e+001
    endloop
  endfacet
  facet normal 0.000000e+000 0.000000e+000 -1.000000e+000
    outer loop
      vertex   1.300000e+002 -3.100000e+002 -2.000000e+001
      vertex   -1.300000e+002 -3.100000e+002 -2.000000e+001
      vertex   -1.300000e+002 3.100000e+002 -2.000000e+001
    endloop
  endfacet
endsolid
