solid Eje
  facet normal -1.935818e-003 9.999981e-001 2.225364e-014
    outer loop
      vertex   -2.671686e+000 2.347676e+002 6.974063e-001
      vertex   -4.303063e+000 2.347645e+002 -9.168626e+000
      vertex   -5.526739e+000 2.347621e+002 -8.886363e+000
    endloop
  endfacet
  facet normal -1.935818e-003 9.999981e-001 2.207538e-014
    outer loop
      vertex   -5.526739e+000 2.347621e+002 -8.886363e+000
      vertex   -6.705388e+000 2.347598e+002 -8.452959e+000
      vertex   -2.671686e+000 2.347676e+002 6.974063e-001
    endloop
  endfacet
  facet normal -1.935818e-003 9.999981e-001 1.918643e-014
    outer loop
      vertex   -6.705388e+000 2.347598e+002 -8.452959e+000
      vertex   -7.820424e+000 2.347576e+002 -7.875248e+000
      vertex   -2.671686e+000 2.347676e+002 6.974063e-001
    endloop
  endfacet
  facet normal -1.935818e-003 9.999981e-001 2.538685e-014
    outer loop
      vertex   -7.820424e+000 2.347576e+002 -7.875248e+000
      vertex   -8.854261e+000 2.347556e+002 -7.162340e+000
      vertex   -2.671686e+000 2.347676e+002 6.974063e-001
    endloop
  endfacet
  facet normal -1.935818e-003 9.999981e-001 1.254315e-014
    outer loop
      vertex   -8.854261e+000 2.347556e+002 -7.162340e+000
      vertex   -9.790595e+000 2.347538e+002 -6.325480e+000
      vertex   -2.671686e+000 2.347676e+002 6.974063e-001
    endloop
  endfacet
  facet normal -1.935818e-003 9.999981e-001 1.784692e-014
    outer loop
      vertex   -9.790595e+000 2.347538e+002 -6.325480e+000
      vertex   -1.061466e+001 2.347522e+002 -5.377865e+000
      vertex   -2.671686e+000 2.347676e+002 6.974063e-001
    endloop
  endfacet
  facet normal -1.935818e-003 9.999981e-001 4.417544e-015
    outer loop
      vertex   -1.061466e+001 2.347522e+002 -5.377865e+000
      vertex   -1.131346e+001 2.347509e+002 -4.334439e+000
      vertex   -2.671686e+000 2.347676e+002 6.974063e-001
    endloop
  endfacet
  facet normal -1.935818e-003 9.999981e-001 2.430210e-014
    outer loop
      vertex   -1.131346e+001 2.347509e+002 -4.334439e+000
      vertex   -1.187597e+001 2.347498e+002 -3.211658e+000
      vertex   -2.671686e+000 2.347676e+002 6.974063e-001
    endloop
  endfacet
  facet normal -1.935818e-003 9.999981e-001 -9.937593e-015
    outer loop
      vertex   -1.187597e+001 2.347498e+002 -3.211658e+000
      vertex   -1.229333e+001 2.347490e+002 -2.027229e+000
      vertex   -2.671686e+000 2.347676e+002 6.974063e-001
    endloop
  endfacet
  facet normal -1.935818e-003 9.999981e-001 2.130729e-014
    outer loop
      vertex   -1.229333e+001 2.347490e+002 -2.027229e+000
      vertex   -1.255895e+001 2.347485e+002 -7.998306e-001
      vertex   -2.671686e+000 2.347676e+002 6.974063e-001
    endloop
  endfacet
  facet normal -1.935818e-003 9.999981e-001 -1.186696e-014
    outer loop
      vertex   -1.255895e+001 2.347485e+002 -7.998306e-001
      vertex   -1.266864e+001 2.347483e+002 4.511802e-001
      vertex   -2.671686e+000 2.347676e+002 6.974063e-001
    endloop
  endfacet
  facet normal -1.935818e-003 9.999981e-001 2.384427e-015
    outer loop
      vertex   -1.266864e+001 2.347483e+002 4.511802e-001
      vertex   -1.262067e+001 2.347484e+002 1.706074e+000
      vertex   -2.671686e+000 2.347676e+002 6.974063e-001
    endloop
  endfacet
  facet normal -1.935818e-003 9.999981e-001 3.776434e-015
    outer loop
      vertex   -1.262067e+001 2.347484e+002 1.706074e+000
      vertex   -1.241580e+001 2.347487e+002 2.945061e+000
      vertex   -2.671686e+000 2.347676e+002 6.974063e-001
    endloop
  endfacet
  facet normal -1.935818e-003 9.999981e-001 -3.661729e-015
    outer loop
      vertex   -1.241580e+001 2.347487e+002 2.945061e+000
      vertex   -1.205726e+001 2.347494e+002 4.148601e+000
      vertex   -2.671686e+000 2.347676e+002 6.974063e-001
    endloop
  endfacet
  facet normal -1.935818e-003 9.999981e-001 -1.105673e-014
    outer loop
      vertex   -1.205726e+001 2.347494e+002 4.148601e+000
      vertex   -1.155070e+001 2.347504e+002 5.297713e+000
      vertex   -2.671686e+000 2.347676e+002 6.974063e-001
    endloop
  endfacet
  facet normal -1.935818e-003 9.999981e-001 -2.260119e-014
    outer loop
      vertex   -1.155070e+001 2.347504e+002 5.297713e+000
      vertex   -1.090412e+001 2.347517e+002 6.374276e+000
      vertex   -2.671686e+000 2.347676e+002 6.974063e-001
    endloop
  endfacet
  facet normal -1.935818e-003 9.999981e-001 -1.229579e-014
    outer loop
      vertex   -1.090412e+001 2.347517e+002 6.374276e+000
      vertex   -1.012770e+001 2.347532e+002 7.361311e+000
      vertex   -2.671686e+000 2.347676e+002 6.974063e-001
    endloop
  endfacet
  facet normal -1.935818e-003 9.999981e-001 -1.069994e-014
    outer loop
      vertex   -1.012770e+001 2.347532e+002 7.361311e+000
      vertex   -9.233701e+000 2.347549e+002 8.243252e+000
      vertex   -2.671686e+000 2.347676e+002 6.974063e-001
    endloop
  endfacet
  facet normal -1.935818e-003 9.999981e-001 -2.536613e-014
    outer loop
      vertex   -9.233701e+000 2.347549e+002 8.243252e+000
      vertex   -8.236214e+000 2.347568e+002 9.006191e+000
      vertex   -2.671686e+000 2.347676e+002 6.974063e-001
    endloop
  endfacet
  facet normal -1.935818e-003 9.999981e-001 -1.412553e-014
    outer loop
      vertex   -8.236214e+000 2.347568e+002 9.006191e+000
      vertex   -7.150972e+000 2.347589e+002 9.638096e+000
      vertex   -2.671686e+000 2.347676e+002 6.974063e-001
    endloop
  endfacet
  facet normal -1.935818e-003 9.999981e-001 -1.760101e-014
    outer loop
      vertex   -7.150972e+000 2.347589e+002 9.638096e+000
      vertex   -5.995088e+000 2.347612e+002 1.012900e+001
      vertex   -2.671686e+000 2.347676e+002 6.974063e-001
    endloop
  endfacet
  facet normal -1.935818e-003 9.999981e-001 -2.452320e-014
    outer loop
      vertex   -5.995088e+000 2.347612e+002 1.012900e+001
      vertex   -4.786792e+000 2.347635e+002 1.047116e+001
      vertex   -2.671686e+000 2.347676e+002 6.974063e-001
    endloop
  endfacet
  facet normal -1.935818e-003 9.999981e-001 -2.325893e-014
    outer loop
      vertex   -4.786792e+000 2.347635e+002 1.047116e+001
      vertex   -3.545139e+000 2.347659e+002 1.065919e+001
      vertex   -2.671686e+000 2.347676e+002 6.974063e-001
    endloop
  endfacet
  facet normal -1.935818e-003 9.999981e-001 -2.331694e-014
    outer loop
      vertex   -3.545139e+000 2.347659e+002 1.065919e+001
      vertex   -2.289712e+000 2.347684e+002 1.069011e+001
      vertex   -2.671686e+000 2.347676e+002 6.974063e-001
    endloop
  endfacet
  facet normal -1.935818e-003 9.999981e-001 -2.379196e-014
    outer loop
      vertex   -2.289712e+000 2.347684e+002 1.069011e+001
      vertex   -1.040309e+000 2.347708e+002 1.056344e+001
      vertex   -2.671686e+000 2.347676e+002 6.974063e-001
    endloop
  endfacet
  facet normal -1.935818e-003 9.999981e-001 -2.111616e-014
    outer loop
      vertex   -1.040309e+000 2.347708e+002 1.056344e+001
      vertex   1.833669e-001 2.347731e+002 1.028118e+001
      vertex   -2.671686e+000 2.347676e+002 6.974063e-001
    endloop
  endfacet
  facet normal -1.935818e-003 9.999981e-001 -1.969653e-014
    outer loop
      vertex   1.833669e-001 2.347731e+002 1.028118e+001
      vertex   1.362017e+000 2.347754e+002 9.847772e+000
      vertex   -2.671686e+000 2.347676e+002 6.974063e-001
    endloop
  endfacet
  facet normal -1.935818e-003 9.999981e-001 -2.033190e-014
    outer loop
      vertex   1.362017e+000 2.347754e+002 9.847772e+000
      vertex   2.477052e+000 2.347776e+002 9.270060e+000
      vertex   -2.671686e+000 2.347676e+002 6.974063e-001
    endloop
  endfacet
  facet normal -1.935818e-003 9.999981e-001 -1.125301e-014
    outer loop
      vertex   2.477052e+000 2.347776e+002 9.270060e+000
      vertex   3.510889e+000 2.347796e+002 8.557153e+000
      vertex   -2.671686e+000 2.347676e+002 6.974063e-001
    endloop
  endfacet
  facet normal -1.935818e-003 9.999981e-001 -2.063747e-014
    outer loop
      vertex   3.510889e+000 2.347796e+002 8.557153e+000
      vertex   4.447224e+000 2.347814e+002 7.720293e+000
      vertex   -2.671686e+000 2.347676e+002 6.974063e-001
    endloop
  endfacet
  facet normal -1.935818e-003 9.999981e-001 -1.136085e-014
    outer loop
      vertex   4.447224e+000 2.347814e+002 7.720293e+000
      vertex   5.271288e+000 2.347830e+002 6.772678e+000
      vertex   -2.671686e+000 2.347676e+002 6.974063e-001
    endloop
  endfacet
  facet normal -1.935818e-003 9.999981e-001 -2.034853e-014
    outer loop
      vertex   5.271288e+000 2.347830e+002 6.772678e+000
      vertex   5.970088e+000 2.347843e+002 5.729252e+000
      vertex   -2.671686e+000 2.347676e+002 6.974063e-001
    endloop
  endfacet
  facet normal -1.935818e-003 9.999981e-001 4.363689e-015
    outer loop
      vertex   5.970088e+000 2.347843e+002 5.729252e+000
      vertex   6.532601e+000 2.347854e+002 4.606471e+000
      vertex   -2.671686e+000 2.347676e+002 6.974063e-001
    endloop
  endfacet
  facet normal -1.935818e-003 9.999981e-001 -2.472898e-014
    outer loop
      vertex   6.532601e+000 2.347854e+002 4.606471e+000
      vertex   6.949957e+000 2.347862e+002 3.422042e+000
      vertex   -2.671686e+000 2.347676e+002 6.974063e-001
    endloop
  endfacet
  facet normal -1.935818e-003 9.999981e-001 1.189366e-014
    outer loop
      vertex   6.949957e+000 2.347862e+002 3.422042e+000
      vertex   7.215574e+000 2.347868e+002 2.194643e+000
      vertex   -2.671686e+000 2.347676e+002 6.974063e-001
    endloop
  endfacet
  facet normal -1.935818e-003 9.999981e-001 -1.575176e-014
    outer loop
      vertex   7.215574e+000 2.347868e+002 2.194643e+000
      vertex   7.325264e+000 2.347870e+002 9.436325e-001
      vertex   -2.671686e+000 2.347676e+002 6.974063e-001
    endloop
  endfacet
  facet normal -1.935818e-003 9.999981e-001 4.081810e-015
    outer loop
      vertex   7.325264e+000 2.347870e+002 9.436325e-001
      vertex   7.277295e+000 2.347869e+002 -3.112615e-001
      vertex   -2.671686e+000 2.347676e+002 6.974063e-001
    endloop
  endfacet
  facet normal -1.935818e-003 9.999981e-001 1.103713e-014
    outer loop
      vertex   7.277295e+000 2.347869e+002 -3.112615e-001
      vertex   7.072425e+000 2.347865e+002 -1.550248e+000
      vertex   -2.671686e+000 2.347676e+002 6.974063e-001
    endloop
  endfacet
  facet normal -1.935818e-003 9.999981e-001 9.045161e-015
    outer loop
      vertex   7.072425e+000 2.347865e+002 -1.550248e+000
      vertex   6.713884e+000 2.347858e+002 -2.753788e+000
      vertex   -2.671686e+000 2.347676e+002 6.974063e-001
    endloop
  endfacet
  facet normal -1.935818e-003 9.999981e-001 6.891036e-015
    outer loop
      vertex   6.713884e+000 2.347858e+002 -2.753788e+000
      vertex   6.207328e+000 2.347848e+002 -3.902900e+000
      vertex   -2.671686e+000 2.347676e+002 6.974063e-001
    endloop
  endfacet
  facet normal -1.935818e-003 9.999981e-001 3.163968e-016
    outer loop
      vertex   6.207328e+000 2.347848e+002 -3.902900e+000
      vertex   5.560744e+000 2.347835e+002 -4.979463e+000
      vertex   -2.671686e+000 2.347676e+002 6.974063e-001
    endloop
  endfacet
  facet normal -1.935818e-003 9.999981e-001 1.522295e-014
    outer loop
      vertex   5.560744e+000 2.347835e+002 -4.979463e+000
      vertex   4.784330e+000 2.347820e+002 -5.966498e+000
      vertex   -2.671686e+000 2.347676e+002 6.974063e-001
    endloop
  endfacet
  facet normal -1.935818e-003 9.999981e-001 2.098568e-014
    outer loop
      vertex   4.784330e+000 2.347820e+002 -5.966498e+000
      vertex   3.890330e+000 2.347803e+002 -6.848440e+000
      vertex   -2.671686e+000 2.347676e+002 6.974063e-001
    endloop
  endfacet
  facet normal -1.935818e-003 9.999981e-001 9.986762e-015
    outer loop
      vertex   3.890330e+000 2.347803e+002 -6.848440e+000
      vertex   2.892843e+000 2.347784e+002 -7.611379e+000
      vertex   -2.671686e+000 2.347676e+002 6.974063e-001
    endloop
  endfacet
  facet normal -1.935818e-003 9.999981e-001 2.433444e-014
    outer loop
      vertex   2.892843e+000 2.347784e+002 -7.611379e+000
      vertex   1.807600e+000 2.347763e+002 -8.243283e+000
      vertex   -2.671686e+000 2.347676e+002 6.974063e-001
    endloop
  endfacet
  facet normal -1.935818e-003 9.999981e-001 2.336545e-014
    outer loop
      vertex   1.807600e+000 2.347763e+002 -8.243283e+000
      vertex   6.517159e-001 2.347740e+002 -8.734187e+000
      vertex   -2.671686e+000 2.347676e+002 6.974063e-001
    endloop
  endfacet
  facet normal -1.935818e-003 9.999981e-001 1.829888e-014
    outer loop
      vertex   6.517159e-001 2.347740e+002 -8.734187e+000
      vertex   -5.565800e-001 2.347717e+002 -9.076350e+000
      vertex   -2.671686e+000 2.347676e+002 6.974063e-001
    endloop
  endfacet
  facet normal -1.935818e-003 9.999981e-001 2.074656e-014
    outer loop
      vertex   -5.565800e-001 2.347717e+002 -9.076350e+000
      vertex   -1.798232e+000 2.347693e+002 -9.264374e+000
      vertex   -2.671686e+000 2.347676e+002 6.974063e-001
    endloop
  endfacet
  facet normal -1.935818e-003 9.999981e-001 2.117196e-014
    outer loop
      vertex   -1.798232e+000 2.347693e+002 -9.264374e+000
      vertex   -3.053660e+000 2.347669e+002 -9.295296e+000
      vertex   -2.671686e+000 2.347676e+002 6.974063e-001
    endloop
  endfacet
  facet normal -1.935818e-003 9.999981e-001 2.047934e-014
    outer loop
      vertex   -3.053660e+000 2.347669e+002 -9.295296e+000
      vertex   -4.303063e+000 2.347645e+002 -9.168626e+000
      vertex   -2.671686e+000 2.347676e+002 6.974063e-001
    endloop
  endfacet
  facet normal -2.462257e-002 -4.766491e-005 9.996968e-001
    outer loop
      vertex   -1.437952e+000 -2.052308e+002 1.069011e+001
      vertex   -2.289712e+000 2.347684e+002 1.069011e+001
      vertex   -3.545139e+000 2.347659e+002 1.065919e+001
    endloop
  endfacet
  facet normal -1.497234e-001 -2.898379e-004 9.887279e-001
    outer loop
      vertex   -2.693379e+000 -2.052333e+002 1.065919e+001
      vertex   -3.545139e+000 2.347659e+002 1.065919e+001
      vertex   -4.786792e+000 2.347635e+002 1.047116e+001
    endloop
  endfacet
  facet normal -2.724630e-001 -5.274399e-004 9.621661e-001
    outer loop
      vertex   -3.935032e+000 -2.052357e+002 1.047116e+001
      vertex   -4.786792e+000 2.347635e+002 1.047116e+001
      vertex   -5.995088e+000 2.347612e+002 1.012900e+001
    endloop
  endfacet
  facet normal -3.909057e-001 -7.567240e-004 9.204304e-001
    outer loop
      vertex   -5.143327e+000 -2.052380e+002 1.012900e+001
      vertex   -5.995088e+000 2.347612e+002 1.012900e+001
      vertex   -7.150972e+000 2.347589e+002 9.638096e+000
    endloop
  endfacet
  facet normal -5.031836e-001 -9.740740e-004 8.641790e-001
    outer loop
      vertex   -6.299211e+000 -2.052402e+002 9.638096e+000
      vertex   -7.150972e+000 2.347589e+002 9.638096e+000
      vertex   -8.236214e+000 2.347568e+002 9.006191e+000
    endloop
  endfacet
  facet normal -6.075260e-001 -1.176062e-003 7.942989e-001
    outer loop
      vertex   -7.384454e+000 -2.052423e+002 9.006191e+000
      vertex   -8.236214e+000 2.347568e+002 9.006191e+000
      vertex   -9.233701e+000 2.347549e+002 8.243252e+000
    endloop
  endfacet
  facet normal -7.022874e-001 -1.359503e-003 7.118923e-001
    outer loop
      vertex   -8.381941e+000 -2.052443e+002 8.243252e+000
      vertex   -9.233701e+000 2.347549e+002 8.243252e+000
      vertex   -1.012770e+001 2.347532e+002 7.361311e+000
    endloop
  endfacet
  facet normal -7.859732e-001 -1.521504e-003 6.182587e-001
    outer loop
      vertex   -9.275941e+000 -2.052460e+002 7.361311e+000
      vertex   -1.012770e+001 2.347532e+002 7.361311e+000
      vertex   -1.090412e+001 2.347517e+002 6.374276e+000
    endloop
  endfacet
  facet normal -8.572638e-001 -1.659510e-003 5.148748e-001
    outer loop
      vertex   -1.005236e+001 -2.052475e+002 6.374276e+000
      vertex   -1.090412e+001 2.347517e+002 6.374276e+000
      vertex   -1.155070e+001 2.347504e+002 5.297713e+000
    endloop
  endfacet
  facet normal -9.150348e-001 -1.771345e-003 4.033710e-001
    outer loop
      vertex   -1.069894e+001 -2.052488e+002 5.297713e+000
      vertex   -1.155070e+001 2.347504e+002 5.297713e+000
      vertex   -1.205726e+001 2.347494e+002 4.148601e+000
    endloop
  endfacet
  facet normal -9.583752e-001 -1.855244e-003 2.855058e-001
    outer loop
      vertex   -1.120550e+001 -2.052497e+002 4.148601e+000
      vertex   -1.205726e+001 2.347494e+002 4.148601e+000
      vertex   -1.241580e+001 2.347487e+002 2.945061e+000
    endloop
  endfacet
  facet normal -9.866014e-001 -1.909885e-003 1.631380e-001
    outer loop
      vertex   -1.156404e+001 -2.052504e+002 2.945061e+000
      vertex   -1.241580e+001 2.347487e+002 2.945061e+000
      vertex   -1.262067e+001 2.347484e+002 1.706074e+000
    endloop
  endfacet
  facet normal -9.992683e-001 -1.934406e-003 3.819746e-002
    outer loop
      vertex   -1.176891e+001 -2.052508e+002 1.706074e+000
      vertex   -1.262067e+001 2.347484e+002 1.706074e+000
      vertex   -1.266864e+001 2.347483e+002 4.511802e-001
    endloop
  endfacet
  facet normal -9.961762e-001 -1.928420e-003 -8.734551e-002
    outer loop
      vertex   -1.181688e+001 -2.052509e+002 4.511802e-001
      vertex   -1.266864e+001 2.347483e+002 4.511802e-001
      vertex   -1.255895e+001 2.347485e+002 -7.998306e-001
    endloop
  endfacet
  facet normal -9.773738e-001 -1.892022e-003 -2.115110e-001
    outer loop
      vertex   -1.170719e+001 -2.052507e+002 -7.998306e-001
      vertex   -1.255895e+001 2.347485e+002 -7.998306e-001
      vertex   -1.229333e+001 2.347490e+002 -2.027229e+000
    endloop
  endfacet
  facet normal -9.431576e-001 -1.825785e-003 -3.323408e-001
    outer loop
      vertex   -1.144157e+001 -2.052502e+002 -2.027229e+000
      vertex   -1.229333e+001 2.347490e+002 -2.027229e+000
      vertex   -1.187597e+001 2.347498e+002 -3.211658e+000
    endloop
  endfacet
  facet normal -8.940673e-001 -1.730755e-003 -4.479294e-001
    outer loop
      vertex   -1.102421e+001 -2.052494e+002 -3.211658e+000
      vertex   -1.187597e+001 2.347498e+002 -3.211658e+000
      vertex   -1.131346e+001 2.347509e+002 -4.334439e+000
    endloop
  endfacet
  facet normal -8.308769e-001 -1.608430e-003 -5.564539e-001
    outer loop
      vertex   -1.046170e+001 -2.052483e+002 -4.334439e+000
      vertex   -1.131346e+001 2.347509e+002 -4.334439e+000
      vertex   -1.061466e+001 2.347522e+002 -5.377865e+000
    endloop
  endfacet
  facet normal -7.545832e-001 -1.460739e-003 -6.562028e-001
    outer loop
      vertex   -9.762900e+000 -2.052469e+002 -5.377865e+000
      vertex   -1.061466e+001 2.347522e+002 -5.377865e+000
      vertex   -9.790595e+000 2.347538e+002 -6.325480e+000
    endloop
  endfacet
  facet normal -6.663892e-001 -1.290011e-003 -7.456030e-001
    outer loop
      vertex   -8.938835e+000 -2.052453e+002 -6.325480e+000
      vertex   -9.790595e+000 2.347538e+002 -6.325480e+000
      vertex   -8.854261e+000 2.347556e+002 -7.162340e+000
    endloop
  endfacet
  facet normal -5.676859e-001 -1.098939e-003 -8.232445e-001
    outer loop
      vertex   -8.002501e+000 -2.052435e+002 -7.162340e+000
      vertex   -8.854261e+000 2.347556e+002 -7.162340e+000
      vertex   -7.820424e+000 2.347576e+002 -7.875248e+000
    endloop
  endfacet
  facet normal -4.600298e-001 -8.905358e-004 -8.879030e-001
    outer loop
      vertex   -6.968664e+000 -2.052415e+002 -7.875248e+000
      vertex   -7.820424e+000 2.347576e+002 -7.875248e+000
      vertex   -6.705388e+000 2.347598e+002 -8.452959e+000
    endloop
  endfacet
  facet normal -3.451188e-001 -6.680885e-004 -9.385588e-001
    outer loop
      vertex   -5.853628e+000 -2.052394e+002 -8.452959e+000
      vertex   -6.705388e+000 2.347598e+002 -8.452959e+000
      vertex   -5.526739e+000 2.347621e+002 -8.886363e+000
    endloop
  endfacet
  facet normal -2.247650e-001 -4.351051e-004 -9.744129e-001
    outer loop
      vertex   -4.674978e+000 -2.052371e+002 -8.886363e+000
      vertex   -5.526739e+000 2.347621e+002 -8.886363e+000
      vertex   -4.303063e+000 2.347645e+002 -9.168626e+000
    endloop
  endfacet
  facet normal -1.008666e-001 -1.952598e-004 -9.948999e-001
    outer loop
      vertex   -3.451303e+000 -2.052347e+002 -9.168626e+000
      vertex   -4.303063e+000 2.347645e+002 -9.168626e+000
      vertex   -3.053660e+000 2.347669e+002 -9.295296e+000
    endloop
  endfacet
  facet normal 2.462257e-002 4.766491e-005 -9.996968e-001
    outer loop
      vertex   -2.201900e+000 -2.052323e+002 -9.295296e+000
      vertex   -3.053660e+000 2.347669e+002 -9.295296e+000
      vertex   -1.798232e+000 2.347693e+002 -9.264374e+000
    endloop
  endfacet
  facet normal 1.497234e-001 2.898379e-004 -9.887279e-001
    outer loop
      vertex   -9.464723e-001 -2.052299e+002 -9.264374e+000
      vertex   -1.798232e+000 2.347693e+002 -9.264374e+000
      vertex   -5.565800e-001 2.347717e+002 -9.076350e+000
    endloop
  endfacet
  facet normal 2.724630e-001 5.274399e-004 -9.621661e-001
    outer loop
      vertex   2.951801e-001 -2.052275e+002 -9.076350e+000
      vertex   -5.565800e-001 2.347717e+002 -9.076350e+000
      vertex   6.517159e-001 2.347740e+002 -8.734187e+000
    endloop
  endfacet
  facet normal 3.909057e-001 7.567240e-004 -9.204304e-001
    outer loop
      vertex   1.503476e+000 -2.052251e+002 -8.734187e+000
      vertex   6.517159e-001 2.347740e+002 -8.734187e+000
      vertex   1.807600e+000 2.347763e+002 -8.243283e+000
    endloop
  endfacet
  facet normal 5.031836e-001 9.740740e-004 -8.641790e-001
    outer loop
      vertex   2.659360e+000 -2.052229e+002 -8.243283e+000
      vertex   1.807600e+000 2.347763e+002 -8.243283e+000
      vertex   2.892843e+000 2.347784e+002 -7.611379e+000
    endloop
  endfacet
  facet normal 6.075260e-001 1.176062e-003 -7.942989e-001
    outer loop
      vertex   3.744603e+000 -2.052208e+002 -7.611379e+000
      vertex   2.892843e+000 2.347784e+002 -7.611379e+000
      vertex   3.890330e+000 2.347803e+002 -6.848440e+000
    endloop
  endfacet
  facet normal 7.022874e-001 1.359503e-003 -7.118923e-001
    outer loop
      vertex   4.742090e+000 -2.052189e+002 -6.848440e+000
      vertex   3.890330e+000 2.347803e+002 -6.848440e+000
      vertex   4.784330e+000 2.347820e+002 -5.966498e+000
    endloop
  endfacet
  facet normal 7.859732e-001 1.521504e-003 -6.182587e-001
    outer loop
      vertex   5.636090e+000 -2.052171e+002 -5.966498e+000
      vertex   4.784330e+000 2.347820e+002 -5.966498e+000
      vertex   5.560744e+000 2.347835e+002 -4.979463e+000
    endloop
  endfacet
  facet normal 8.572638e-001 1.659510e-003 -5.148748e-001
    outer loop
      vertex   6.412504e+000 -2.052156e+002 -4.979463e+000
      vertex   5.560744e+000 2.347835e+002 -4.979463e+000
      vertex   6.207328e+000 2.347848e+002 -3.902900e+000
    endloop
  endfacet
  facet normal 9.150348e-001 1.771345e-003 -4.033710e-001
    outer loop
      vertex   7.059088e+000 -2.052144e+002 -3.902900e+000
      vertex   6.207328e+000 2.347848e+002 -3.902900e+000
      vertex   6.713884e+000 2.347858e+002 -2.753788e+000
    endloop
  endfacet
  facet normal 9.583752e-001 1.855244e-003 -2.855058e-001
    outer loop
      vertex   7.565645e+000 -2.052134e+002 -2.753788e+000
      vertex   6.713884e+000 2.347858e+002 -2.753788e+000
      vertex   7.072425e+000 2.347865e+002 -1.550248e+000
    endloop
  endfacet
  facet normal 9.866014e-001 1.909885e-003 -1.631380e-001
    outer loop
      vertex   7.924185e+000 -2.052127e+002 -1.550248e+000
      vertex   7.072425e+000 2.347865e+002 -1.550248e+000
      vertex   7.277295e+000 2.347869e+002 -3.112615e-001
    endloop
  endfacet
  facet normal 9.992683e-001 1.934406e-003 -3.819746e-002
    outer loop
      vertex   8.129055e+000 -2.052123e+002 -3.112615e-001
      vertex   7.277295e+000 2.347869e+002 -3.112615e-001
      vertex   7.325264e+000 2.347870e+002 9.436325e-001
    endloop
  endfacet
  facet normal 9.961762e-001 1.928420e-003 8.734551e-002
    outer loop
      vertex   8.177024e+000 -2.052122e+002 9.436325e-001
      vertex   7.325264e+000 2.347870e+002 9.436325e-001
      vertex   7.215574e+000 2.347868e+002 2.194643e+000
    endloop
  endfacet
  facet normal 9.773738e-001 1.892022e-003 2.115110e-001
    outer loop
      vertex   8.067335e+000 -2.052124e+002 2.194643e+000
      vertex   7.215574e+000 2.347868e+002 2.194643e+000
      vertex   6.949957e+000 2.347862e+002 3.422042e+000
    endloop
  endfacet
  facet normal 9.431576e-001 1.825785e-003 3.323408e-001
    outer loop
      vertex   7.801717e+000 -2.052129e+002 3.422042e+000
      vertex   6.949957e+000 2.347862e+002 3.422042e+000
      vertex   6.532601e+000 2.347854e+002 4.606471e+000
    endloop
  endfacet
  facet normal 8.940673e-001 1.730755e-003 4.479294e-001
    outer loop
      vertex   7.384361e+000 -2.052137e+002 4.606471e+000
      vertex   6.532601e+000 2.347854e+002 4.606471e+000
      vertex   5.970088e+000 2.347843e+002 5.729252e+000
    endloop
  endfacet
  facet normal 8.308769e-001 1.608430e-003 5.564539e-001
    outer loop
      vertex   6.821848e+000 -2.052148e+002 5.729252e+000
      vertex   5.970088e+000 2.347843e+002 5.729252e+000
      vertex   5.271288e+000 2.347830e+002 6.772678e+000
    endloop
  endfacet
  facet normal 7.545832e-001 1.460739e-003 6.562028e-001
    outer loop
      vertex   6.123048e+000 -2.052162e+002 6.772678e+000
      vertex   5.271288e+000 2.347830e+002 6.772678e+000
      vertex   4.447224e+000 2.347814e+002 7.720293e+000
    endloop
  endfacet
  facet normal 6.663892e-001 1.290011e-003 7.456030e-001
    outer loop
      vertex   5.298984e+000 -2.052178e+002 7.720293e+000
      vertex   4.447224e+000 2.347814e+002 7.720293e+000
      vertex   3.510889e+000 2.347796e+002 8.557153e+000
    endloop
  endfacet
  facet normal 5.676859e-001 1.098939e-003 8.232445e-001
    outer loop
      vertex   4.362650e+000 -2.052196e+002 8.557153e+000
      vertex   3.510889e+000 2.347796e+002 8.557153e+000
      vertex   2.477052e+000 2.347776e+002 9.270060e+000
    endloop
  endfacet
  facet normal 4.600298e-001 8.905358e-004 8.879030e-001
    outer loop
      vertex   3.328812e+000 -2.052216e+002 9.270060e+000
      vertex   2.477052e+000 2.347776e+002 9.270060e+000
      vertex   1.362017e+000 2.347754e+002 9.847772e+000
    endloop
  endfacet
  facet normal 3.451188e-001 6.680885e-004 9.385588e-001
    outer loop
      vertex   2.213777e+000 -2.052238e+002 9.847772e+000
      vertex   1.362017e+000 2.347754e+002 9.847772e+000
      vertex   1.833669e-001 2.347731e+002 1.028118e+001
    endloop
  endfacet
  facet normal 2.247650e-001 4.351051e-004 9.744129e-001
    outer loop
      vertex   1.035127e+000 -2.052260e+002 1.028118e+001
      vertex   1.833669e-001 2.347731e+002 1.028118e+001
      vertex   -1.040309e+000 2.347708e+002 1.056344e+001
    endloop
  endfacet
  facet normal 1.008666e-001 1.952598e-004 9.948999e-001
    outer loop
      vertex   -1.885485e-001 -2.052284e+002 1.056344e+001
      vertex   -1.040309e+000 2.347708e+002 1.056344e+001
      vertex   -2.289712e+000 2.347684e+002 1.069011e+001
    endloop
  endfacet
  facet normal 1.008666e-001 1.952598e-004 9.948999e-001
    outer loop
      vertex   -2.289712e+000 2.347684e+002 1.069011e+001
      vertex   -1.437952e+000 -2.052308e+002 1.069011e+001
      vertex   -1.885485e-001 -2.052284e+002 1.056344e+001
    endloop
  endfacet
  facet normal 2.247650e-001 4.351051e-004 9.744129e-001
    outer loop
      vertex   -1.040309e+000 2.347708e+002 1.056344e+001
      vertex   -1.885485e-001 -2.052284e+002 1.056344e+001
      vertex   1.035127e+000 -2.052260e+002 1.028118e+001
    endloop
  endfacet
  facet normal 3.451188e-001 6.680885e-004 9.385588e-001
    outer loop
      vertex   1.833669e-001 2.347731e+002 1.028118e+001
      vertex   1.035127e+000 -2.052260e+002 1.028118e+001
      vertex   2.213777e+000 -2.052238e+002 9.847772e+000
    endloop
  endfacet
  facet normal 4.600298e-001 8.905358e-004 8.879030e-001
    outer loop
      vertex   1.362017e+000 2.347754e+002 9.847772e+000
      vertex   2.213777e+000 -2.052238e+002 9.847772e+000
      vertex   3.328812e+000 -2.052216e+002 9.270060e+000
    endloop
  endfacet
  facet normal 5.676859e-001 1.098939e-003 8.232445e-001
    outer loop
      vertex   2.477052e+000 2.347776e+002 9.270060e+000
      vertex   3.328812e+000 -2.052216e+002 9.270060e+000
      vertex   4.362650e+000 -2.052196e+002 8.557153e+000
    endloop
  endfacet
  facet normal 6.663892e-001 1.290011e-003 7.456030e-001
    outer loop
      vertex   3.510889e+000 2.347796e+002 8.557153e+000
      vertex   4.362650e+000 -2.052196e+002 8.557153e+000
      vertex   5.298984e+000 -2.052178e+002 7.720293e+000
    endloop
  endfacet
  facet normal 7.545832e-001 1.460739e-003 6.562028e-001
    outer loop
      vertex   4.447224e+000 2.347814e+002 7.720293e+000
      vertex   5.298984e+000 -2.052178e+002 7.720293e+000
      vertex   6.123048e+000 -2.052162e+002 6.772678e+000
    endloop
  endfacet
  facet normal 8.308769e-001 1.608430e-003 5.564539e-001
    outer loop
      vertex   5.271288e+000 2.347830e+002 6.772678e+000
      vertex   6.123048e+000 -2.052162e+002 6.772678e+000
      vertex   6.821848e+000 -2.052148e+002 5.729252e+000
    endloop
  endfacet
  facet normal 8.940673e-001 1.730755e-003 4.479294e-001
    outer loop
      vertex   5.970088e+000 2.347843e+002 5.729252e+000
      vertex   6.821848e+000 -2.052148e+002 5.729252e+000
      vertex   7.384361e+000 -2.052137e+002 4.606471e+000
    endloop
  endfacet
  facet normal 9.431576e-001 1.825785e-003 3.323408e-001
    outer loop
      vertex   6.532601e+000 2.347854e+002 4.606471e+000
      vertex   7.384361e+000 -2.052137e+002 4.606471e+000
      vertex   7.801717e+000 -2.052129e+002 3.422042e+000
    endloop
  endfacet
  facet normal 9.773738e-001 1.892022e-003 2.115110e-001
    outer loop
      vertex   6.949957e+000 2.347862e+002 3.422042e+000
      vertex   7.801717e+000 -2.052129e+002 3.422042e+000
      vertex   8.067335e+000 -2.052124e+002 2.194643e+000
    endloop
  endfacet
  facet normal 9.961762e-001 1.928420e-003 8.734551e-002
    outer loop
      vertex   7.215574e+000 2.347868e+002 2.194643e+000
      vertex   8.067335e+000 -2.052124e+002 2.194643e+000
      vertex   8.177024e+000 -2.052122e+002 9.436325e-001
    endloop
  endfacet
  facet normal 9.992683e-001 1.934406e-003 -3.819746e-002
    outer loop
      vertex   7.325264e+000 2.347870e+002 9.436325e-001
      vertex   8.177024e+000 -2.052122e+002 9.436325e-001
      vertex   8.129055e+000 -2.052123e+002 -3.112615e-001
    endloop
  endfacet
  facet normal 9.866014e-001 1.909885e-003 -1.631380e-001
    outer loop
      vertex   7.277295e+000 2.347869e+002 -3.112615e-001
      vertex   8.129055e+000 -2.052123e+002 -3.112615e-001
      vertex   7.924185e+000 -2.052127e+002 -1.550248e+000
    endloop
  endfacet
  facet normal 9.583752e-001 1.855244e-003 -2.855058e-001
    outer loop
      vertex   7.072425e+000 2.347865e+002 -1.550248e+000
      vertex   7.924185e+000 -2.052127e+002 -1.550248e+000
      vertex   7.565645e+000 -2.052134e+002 -2.753788e+000
    endloop
  endfacet
  facet normal 9.150348e-001 1.771345e-003 -4.033710e-001
    outer loop
      vertex   6.713884e+000 2.347858e+002 -2.753788e+000
      vertex   7.565645e+000 -2.052134e+002 -2.753788e+000
      vertex   7.059088e+000 -2.052144e+002 -3.902900e+000
    endloop
  endfacet
  facet normal 8.572638e-001 1.659510e-003 -5.148748e-001
    outer loop
      vertex   6.207328e+000 2.347848e+002 -3.902900e+000
      vertex   7.059088e+000 -2.052144e+002 -3.902900e+000
      vertex   6.412504e+000 -2.052156e+002 -4.979463e+000
    endloop
  endfacet
  facet normal 7.859732e-001 1.521504e-003 -6.182587e-001
    outer loop
      vertex   5.560744e+000 2.347835e+002 -4.979463e+000
      vertex   6.412504e+000 -2.052156e+002 -4.979463e+000
      vertex   5.636090e+000 -2.052171e+002 -5.966498e+000
    endloop
  endfacet
  facet normal 7.022874e-001 1.359503e-003 -7.118923e-001
    outer loop
      vertex   4.784330e+000 2.347820e+002 -5.966498e+000
      vertex   5.636090e+000 -2.052171e+002 -5.966498e+000
      vertex   4.742090e+000 -2.052189e+002 -6.848440e+000
    endloop
  endfacet
  facet normal 6.075260e-001 1.176062e-003 -7.942989e-001
    outer loop
      vertex   3.890330e+000 2.347803e+002 -6.848440e+000
      vertex   4.742090e+000 -2.052189e+002 -6.848440e+000
      vertex   3.744603e+000 -2.052208e+002 -7.611379e+000
    endloop
  endfacet
  facet normal 5.031836e-001 9.740740e-004 -8.641790e-001
    outer loop
      vertex   2.892843e+000 2.347784e+002 -7.611379e+000
      vertex   3.744603e+000 -2.052208e+002 -7.611379e+000
      vertex   2.659360e+000 -2.052229e+002 -8.243283e+000
    endloop
  endfacet
  facet normal 3.909057e-001 7.567240e-004 -9.204304e-001
    outer loop
      vertex   1.807600e+000 2.347763e+002 -8.243283e+000
      vertex   2.659360e+000 -2.052229e+002 -8.243283e+000
      vertex   1.503476e+000 -2.052251e+002 -8.734187e+000
    endloop
  endfacet
  facet normal 2.724630e-001 5.274399e-004 -9.621661e-001
    outer loop
      vertex   6.517159e-001 2.347740e+002 -8.734187e+000
      vertex   1.503476e+000 -2.052251e+002 -8.734187e+000
      vertex   2.951801e-001 -2.052275e+002 -9.076350e+000
    endloop
  endfacet
  facet normal 1.497234e-001 2.898379e-004 -9.887279e-001
    outer loop
      vertex   -5.565800e-001 2.347717e+002 -9.076350e+000
      vertex   2.951801e-001 -2.052275e+002 -9.076350e+000
      vertex   -9.464723e-001 -2.052299e+002 -9.264374e+000
    endloop
  endfacet
  facet normal 2.462257e-002 4.766491e-005 -9.996968e-001
    outer loop
      vertex   -1.798232e+000 2.347693e+002 -9.264374e+000
      vertex   -9.464723e-001 -2.052299e+002 -9.264374e+000
      vertex   -2.201900e+000 -2.052323e+002 -9.295296e+000
    endloop
  endfacet
  facet normal -1.008666e-001 -1.952598e-004 -9.948999e-001
    outer loop
      vertex   -3.053660e+000 2.347669e+002 -9.295296e+000
      vertex   -2.201900e+000 -2.052323e+002 -9.295296e+000
      vertex   -3.451303e+000 -2.052347e+002 -9.168626e+000
    endloop
  endfacet
  facet normal -2.247650e-001 -4.351051e-004 -9.744129e-001
    outer loop
      vertex   -4.303063e+000 2.347645e+002 -9.168626e+000
      vertex   -3.451303e+000 -2.052347e+002 -9.168626e+000
      vertex   -4.674978e+000 -2.052371e+002 -8.886363e+000
    endloop
  endfacet
  facet normal -3.451188e-001 -6.680885e-004 -9.385588e-001
    outer loop
      vertex   -5.526739e+000 2.347621e+002 -8.886363e+000
      vertex   -4.674978e+000 -2.052371e+002 -8.886363e+000
      vertex   -5.853628e+000 -2.052394e+002 -8.452959e+000
    endloop
  endfacet
  facet normal -4.600298e-001 -8.905358e-004 -8.879030e-001
    outer loop
      vertex   -6.705388e+000 2.347598e+002 -8.452959e+000
      vertex   -5.853628e+000 -2.052394e+002 -8.452959e+000
      vertex   -6.968664e+000 -2.052415e+002 -7.875248e+000
    endloop
  endfacet
  facet normal -5.676859e-001 -1.098939e-003 -8.232445e-001
    outer loop
      vertex   -7.820424e+000 2.347576e+002 -7.875248e+000
      vertex   -6.968664e+000 -2.052415e+002 -7.875248e+000
      vertex   -8.002501e+000 -2.052435e+002 -7.162340e+000
    endloop
  endfacet
  facet normal -6.663892e-001 -1.290011e-003 -7.456030e-001
    outer loop
      vertex   -8.854261e+000 2.347556e+002 -7.162340e+000
      vertex   -8.002501e+000 -2.052435e+002 -7.162340e+000
      vertex   -8.938835e+000 -2.052453e+002 -6.325480e+000
    endloop
  endfacet
  facet normal -7.545832e-001 -1.460739e-003 -6.562028e-001
    outer loop
      vertex   -9.790595e+000 2.347538e+002 -6.325480e+000
      vertex   -8.938835e+000 -2.052453e+002 -6.325480e+000
      vertex   -9.762900e+000 -2.052469e+002 -5.377865e+000
    endloop
  endfacet
  facet normal -8.308769e-001 -1.608430e-003 -5.564539e-001
    outer loop
      vertex   -1.061466e+001 2.347522e+002 -5.377865e+000
      vertex   -9.762900e+000 -2.052469e+002 -5.377865e+000
      vertex   -1.046170e+001 -2.052483e+002 -4.334439e+000
    endloop
  endfacet
  facet normal -8.940673e-001 -1.730755e-003 -4.479294e-001
    outer loop
      vertex   -1.131346e+001 2.347509e+002 -4.334439e+000
      vertex   -1.046170e+001 -2.052483e+002 -4.334439e+000
      vertex   -1.102421e+001 -2.052494e+002 -3.211658e+000
    endloop
  endfacet
  facet normal -9.431576e-001 -1.825785e-003 -3.323408e-001
    outer loop
      vertex   -1.187597e+001 2.347498e+002 -3.211658e+000
      vertex   -1.102421e+001 -2.052494e+002 -3.211658e+000
      vertex   -1.144157e+001 -2.052502e+002 -2.027229e+000
    endloop
  endfacet
  facet normal -9.773738e-001 -1.892022e-003 -2.115110e-001
    outer loop
      vertex   -1.229333e+001 2.347490e+002 -2.027229e+000
      vertex   -1.144157e+001 -2.052502e+002 -2.027229e+000
      vertex   -1.170719e+001 -2.052507e+002 -7.998306e-001
    endloop
  endfacet
  facet normal -9.961762e-001 -1.928420e-003 -8.734551e-002
    outer loop
      vertex   -1.255895e+001 2.347485e+002 -7.998306e-001
      vertex   -1.170719e+001 -2.052507e+002 -7.998306e-001
      vertex   -1.181688e+001 -2.052509e+002 4.511802e-001
    endloop
  endfacet
  facet normal -9.992683e-001 -1.934406e-003 3.819746e-002
    outer loop
      vertex   -1.266864e+001 2.347483e+002 4.511802e-001
      vertex   -1.181688e+001 -2.052509e+002 4.511802e-001
      vertex   -1.176891e+001 -2.052508e+002 1.706074e+000
    endloop
  endfacet
  facet normal -9.866014e-001 -1.909885e-003 1.631380e-001
    outer loop
      vertex   -1.262067e+001 2.347484e+002 1.706074e+000
      vertex   -1.176891e+001 -2.052508e+002 1.706074e+000
      vertex   -1.156404e+001 -2.052504e+002 2.945061e+000
    endloop
  endfacet
  facet normal -9.583752e-001 -1.855244e-003 2.855058e-001
    outer loop
      vertex   -1.241580e+001 2.347487e+002 2.945061e+000
      vertex   -1.156404e+001 -2.052504e+002 2.945061e+000
      vertex   -1.120550e+001 -2.052497e+002 4.148601e+000
    endloop
  endfacet
  facet normal -9.150348e-001 -1.771345e-003 4.033710e-001
    outer loop
      vertex   -1.205726e+001 2.347494e+002 4.148601e+000
      vertex   -1.120550e+001 -2.052497e+002 4.148601e+000
      vertex   -1.069894e+001 -2.052488e+002 5.297713e+000
    endloop
  endfacet
  facet normal -8.572638e-001 -1.659510e-003 5.148748e-001
    outer loop
      vertex   -1.155070e+001 2.347504e+002 5.297713e+000
      vertex   -1.069894e+001 -2.052488e+002 5.297713e+000
      vertex   -1.005236e+001 -2.052475e+002 6.374276e+000
    endloop
  endfacet
  facet normal -7.859732e-001 -1.521504e-003 6.182587e-001
    outer loop
      vertex   -1.090412e+001 2.347517e+002 6.374276e+000
      vertex   -1.005236e+001 -2.052475e+002 6.374276e+000
      vertex   -9.275941e+000 -2.052460e+002 7.361311e+000
    endloop
  endfacet
  facet normal -7.022874e-001 -1.359503e-003 7.118923e-001
    outer loop
      vertex   -1.012770e+001 2.347532e+002 7.361311e+000
      vertex   -9.275941e+000 -2.052460e+002 7.361311e+000
      vertex   -8.381941e+000 -2.052443e+002 8.243252e+000
    endloop
  endfacet
  facet normal -6.075260e-001 -1.176062e-003 7.942989e-001
    outer loop
      vertex   -9.233701e+000 2.347549e+002 8.243252e+000
      vertex   -8.381941e+000 -2.052443e+002 8.243252e+000
      vertex   -7.384454e+000 -2.052423e+002 9.006191e+000
    endloop
  endfacet
  facet normal -5.031836e-001 -9.740740e-004 8.641790e-001
    outer loop
      vertex   -8.236214e+000 2.347568e+002 9.006191e+000
      vertex   -7.384454e+000 -2.052423e+002 9.006191e+000
      vertex   -6.299211e+000 -2.052402e+002 9.638096e+000
    endloop
  endfacet
  facet normal -3.909057e-001 -7.567240e-004 9.204304e-001
    outer loop
      vertex   -7.150972e+000 2.347589e+002 9.638096e+000
      vertex   -6.299211e+000 -2.052402e+002 9.638096e+000
      vertex   -5.143327e+000 -2.052380e+002 1.012900e+001
    endloop
  endfacet
  facet normal -2.724630e-001 -5.274399e-004 9.621661e-001
    outer loop
      vertex   -5.995088e+000 2.347612e+002 1.012900e+001
      vertex   -5.143327e+000 -2.052380e+002 1.012900e+001
      vertex   -3.935032e+000 -2.052357e+002 1.047116e+001
    endloop
  endfacet
  facet normal -1.497234e-001 -2.898379e-004 9.887279e-001
    outer loop
      vertex   -4.786792e+000 2.347635e+002 1.047116e+001
      vertex   -3.935032e+000 -2.052357e+002 1.047116e+001
      vertex   -2.693379e+000 -2.052333e+002 1.065919e+001
    endloop
  endfacet
  facet normal -2.462257e-002 -4.766491e-005 9.996968e-001
    outer loop
      vertex   -3.545139e+000 2.347659e+002 1.065919e+001
      vertex   -2.693379e+000 -2.052333e+002 1.065919e+001
      vertex   -1.437952e+000 -2.052308e+002 1.069011e+001
    endloop
  endfacet
  facet normal 1.935818e-003 -9.999981e-001 2.874944e-014
    outer loop
      vertex   -1.819926e+000 -2.052316e+002 6.974063e-001
      vertex   -9.464723e-001 -2.052299e+002 -9.264374e+000
      vertex   2.951801e-001 -2.052275e+002 -9.076350e+000
    endloop
  endfacet
  facet normal 1.935818e-003 -9.999981e-001 2.986743e-014
    outer loop
      vertex   2.951801e-001 -2.052275e+002 -9.076350e+000
      vertex   1.503476e+000 -2.052251e+002 -8.734187e+000
      vertex   -1.819926e+000 -2.052316e+002 6.974063e-001
    endloop
  endfacet
  facet normal 1.935818e-003 -9.999981e-001 2.271154e-014
    outer loop
      vertex   1.503476e+000 -2.052251e+002 -8.734187e+000
      vertex   2.659360e+000 -2.052229e+002 -8.243283e+000
      vertex   -1.819926e+000 -2.052316e+002 6.974063e-001
    endloop
  endfacet
  facet normal 1.935818e-003 -9.999981e-001 1.892666e-014
    outer loop
      vertex   2.659360e+000 -2.052229e+002 -8.243283e+000
      vertex   3.744603e+000 -2.052208e+002 -7.611379e+000
      vertex   -1.819926e+000 -2.052316e+002 6.974063e-001
    endloop
  endfacet
  facet normal 1.935818e-003 -9.999981e-001 2.977615e-014
    outer loop
      vertex   3.744603e+000 -2.052208e+002 -7.611379e+000
      vertex   4.742090e+000 -2.052189e+002 -6.848440e+000
      vertex   -1.819926e+000 -2.052316e+002 6.974063e-001
    endloop
  endfacet
  facet normal 1.935818e-003 -9.999981e-001 1.465154e-014
    outer loop
      vertex   4.742090e+000 -2.052189e+002 -6.848440e+000
      vertex   5.636090e+000 -2.052171e+002 -5.966498e+000
      vertex   -1.819926e+000 -2.052316e+002 6.974063e-001
    endloop
  endfacet
  facet normal 1.935818e-003 -9.999981e-001 1.572837e-014
    outer loop
      vertex   5.636090e+000 -2.052171e+002 -5.966498e+000
      vertex   6.412504e+000 -2.052156e+002 -4.979463e+000
      vertex   -1.819926e+000 -2.052316e+002 6.974063e-001
    endloop
  endfacet
  facet normal 1.935818e-003 -9.999981e-001 2.545826e-014
    outer loop
      vertex   6.412504e+000 -2.052156e+002 -4.979463e+000
      vertex   7.059088e+000 -2.052144e+002 -3.902900e+000
      vertex   -1.819926e+000 -2.052316e+002 6.974063e-001
    endloop
  endfacet
  facet normal 1.935818e-003 -9.999981e-001 1.330173e-014
    outer loop
      vertex   7.059088e+000 -2.052144e+002 -3.902900e+000
      vertex   7.565645e+000 -2.052134e+002 -2.753788e+000
      vertex   -1.819926e+000 -2.052316e+002 6.974063e-001
    endloop
  endfacet
  facet normal 1.935818e-003 -9.999981e-001 5.247277e-015
    outer loop
      vertex   7.565645e+000 -2.052134e+002 -2.753788e+000
      vertex   7.924185e+000 -2.052127e+002 -1.550248e+000
      vertex   -1.819926e+000 -2.052316e+002 6.974063e-001
    endloop
  endfacet
  facet normal 1.935818e-003 -9.999981e-001 -2.870407e-015
    outer loop
      vertex   7.924185e+000 -2.052127e+002 -1.550248e+000
      vertex   8.129055e+000 -2.052123e+002 -3.112615e-001
      vertex   -1.819926e+000 -2.052316e+002 6.974063e-001
    endloop
  endfacet
  facet normal 1.935818e-003 -9.999981e-001 -2.169643e-015
    outer loop
      vertex   8.129055e+000 -2.052123e+002 -3.112615e-001
      vertex   8.177024e+000 -2.052122e+002 9.436325e-001
      vertex   -1.819926e+000 -2.052316e+002 6.974063e-001
    endloop
  endfacet
  facet normal 1.935818e-003 -9.999981e-001 1.137926e-014
    outer loop
      vertex   8.177024e+000 -2.052122e+002 9.436325e-001
      vertex   8.067335e+000 -2.052124e+002 2.194643e+000
      vertex   -1.819926e+000 -2.052316e+002 6.974063e-001
    endloop
  endfacet
  facet normal 1.935818e-003 -9.999981e-001 -2.248193e-014
    outer loop
      vertex   8.067335e+000 -2.052124e+002 2.194643e+000
      vertex   7.801717e+000 -2.052129e+002 3.422042e+000
      vertex   -1.819926e+000 -2.052316e+002 6.974063e-001
    endloop
  endfacet
  facet normal 1.935818e-003 -9.999981e-001 8.091945e-015
    outer loop
      vertex   7.801717e+000 -2.052129e+002 3.422042e+000
      vertex   7.384361e+000 -2.052137e+002 4.606471e+000
      vertex   -1.819926e+000 -2.052316e+002 6.974063e-001
    endloop
  endfacet
  facet normal 1.935818e-003 -9.999981e-001 -2.678721e-014
    outer loop
      vertex   7.384361e+000 -2.052137e+002 4.606471e+000
      vertex   6.821848e+000 -2.052148e+002 5.729252e+000
      vertex   -1.819926e+000 -2.052316e+002 6.974063e-001
    endloop
  endfacet
  facet normal 1.935818e-003 -9.999981e-001 -7.507462e-015
    outer loop
      vertex   6.821848e+000 -2.052148e+002 5.729252e+000
      vertex   6.123048e+000 -2.052162e+002 6.772678e+000
      vertex   -1.819926e+000 -2.052316e+002 6.974063e-001
    endloop
  endfacet
  facet normal 1.935818e-003 -9.999981e-001 -2.148977e-014
    outer loop
      vertex   6.123048e+000 -2.052162e+002 6.772678e+000
      vertex   5.298984e+000 -2.052178e+002 7.720293e+000
      vertex   -1.819926e+000 -2.052316e+002 6.974063e-001
    endloop
  endfacet
  facet normal 1.935818e-003 -9.999981e-001 -1.668733e-014
    outer loop
      vertex   5.298984e+000 -2.052178e+002 7.720293e+000
      vertex   4.362650e+000 -2.052196e+002 8.557153e+000
      vertex   -1.819926e+000 -2.052316e+002 6.974063e-001
    endloop
  endfacet
  facet normal 1.935818e-003 -9.999981e-001 -2.995897e-014
    outer loop
      vertex   4.362650e+000 -2.052196e+002 8.557153e+000
      vertex   3.328812e+000 -2.052216e+002 9.270060e+000
      vertex   -1.819926e+000 -2.052316e+002 6.974063e-001
    endloop
  endfacet
  facet normal 1.935818e-003 -9.999981e-001 -2.411691e-014
    outer loop
      vertex   3.328812e+000 -2.052216e+002 9.270060e+000
      vertex   2.213777e+000 -2.052238e+002 9.847772e+000
      vertex   -1.819926e+000 -2.052316e+002 6.974063e-001
    endloop
  endfacet
  facet normal 1.935818e-003 -9.999981e-001 -2.728801e-014
    outer loop
      vertex   2.213777e+000 -2.052238e+002 9.847772e+000
      vertex   1.035127e+000 -2.052260e+002 1.028118e+001
      vertex   -1.819926e+000 -2.052316e+002 6.974063e-001
    endloop
  endfacet
  facet normal 1.935818e-003 -9.999981e-001 -2.766327e-014
    outer loop
      vertex   1.035127e+000 -2.052260e+002 1.028118e+001
      vertex   -1.885485e-001 -2.052284e+002 1.056344e+001
      vertex   -1.819926e+000 -2.052316e+002 6.974063e-001
    endloop
  endfacet
  facet normal 1.935818e-003 -9.999981e-001 -2.601298e-014
    outer loop
      vertex   -1.885485e-001 -2.052284e+002 1.056344e+001
      vertex   -1.437952e+000 -2.052308e+002 1.069011e+001
      vertex   -1.819926e+000 -2.052316e+002 6.974063e-001
    endloop
  endfacet
  facet normal 1.935818e-003 -9.999981e-001 -2.672815e-014
    outer loop
      vertex   -1.437952e+000 -2.052308e+002 1.069011e+001
      vertex   -2.693379e+000 -2.052333e+002 1.065919e+001
      vertex   -1.819926e+000 -2.052316e+002 6.974063e-001
    endloop
  endfacet
  facet normal 1.935818e-003 -9.999981e-001 -2.623708e-014
    outer loop
      vertex   -2.693379e+000 -2.052333e+002 1.065919e+001
      vertex   -3.935032e+000 -2.052357e+002 1.047116e+001
      vertex   -1.819926e+000 -2.052316e+002 6.974063e-001
    endloop
  endfacet
  facet normal 1.935818e-003 -9.999981e-001 -2.364350e-014
    outer loop
      vertex   -3.935032e+000 -2.052357e+002 1.047116e+001
      vertex   -5.143327e+000 -2.052380e+002 1.012900e+001
      vertex   -1.819926e+000 -2.052316e+002 6.974063e-001
    endloop
  endfacet
  facet normal 1.935818e-003 -9.999981e-001 -2.847585e-014
    outer loop
      vertex   -5.143327e+000 -2.052380e+002 1.012900e+001
      vertex   -6.299211e+000 -2.052402e+002 9.638096e+000
      vertex   -1.819926e+000 -2.052316e+002 6.974063e-001
    endloop
  endfacet
  facet normal 1.935818e-003 -9.999981e-001 -2.913478e-014
    outer loop
      vertex   -6.299211e+000 -2.052402e+002 9.638096e+000
      vertex   -7.384454e+000 -2.052423e+002 9.006191e+000
      vertex   -1.819926e+000 -2.052316e+002 6.974063e-001
    endloop
  endfacet
  facet normal 1.935818e-003 -9.999981e-001 -1.439757e-014
    outer loop
      vertex   -7.384454e+000 -2.052423e+002 9.006191e+000
      vertex   -8.381941e+000 -2.052443e+002 8.243252e+000
      vertex   -1.819926e+000 -2.052316e+002 6.974063e-001
    endloop
  endfacet
  facet normal 1.935818e-003 -9.999981e-001 -2.493754e-014
    outer loop
      vertex   -8.381941e+000 -2.052443e+002 8.243252e+000
      vertex   -9.275941e+000 -2.052460e+002 7.361311e+000
      vertex   -1.819926e+000 -2.052316e+002 6.974063e-001
    endloop
  endfacet
  facet normal 1.935818e-003 -9.999981e-001 -1.865421e-014
    outer loop
      vertex   -9.275941e+000 -2.052460e+002 7.361311e+000
      vertex   -1.005236e+001 -2.052475e+002 6.374276e+000
      vertex   -1.819926e+000 -2.052316e+002 6.974063e-001
    endloop
  endfacet
  facet normal 1.935818e-003 -9.999981e-001 -3.173604e-015
    outer loop
      vertex   -1.005236e+001 -2.052475e+002 6.374276e+000
      vertex   -1.069894e+001 -2.052488e+002 5.297713e+000
      vertex   -1.819926e+000 -2.052316e+002 6.974063e-001
    endloop
  endfacet
  facet normal 1.935818e-003 -9.999981e-001 -9.136173e-015
    outer loop
      vertex   -1.069894e+001 -2.052488e+002 5.297713e+000
      vertex   -1.120550e+001 -2.052497e+002 4.148601e+000
      vertex   -1.819926e+000 -2.052316e+002 6.974063e-001
    endloop
  endfacet
  facet normal 1.935818e-003 -9.999981e-001 -1.063064e-014
    outer loop
      vertex   -1.120550e+001 -2.052497e+002 4.148601e+000
      vertex   -1.156404e+001 -2.052504e+002 2.945061e+000
      vertex   -1.819926e+000 -2.052316e+002 6.974063e-001
    endloop
  endfacet
  facet normal 1.935818e-003 -9.999981e-001 -1.194309e-014
    outer loop
      vertex   -1.156404e+001 -2.052504e+002 2.945061e+000
      vertex   -1.176891e+001 -2.052508e+002 1.706074e+000
      vertex   -1.819926e+000 -2.052316e+002 6.974063e-001
    endloop
  endfacet
  facet normal 1.935818e-003 -9.999981e-001 -4.296602e-015
    outer loop
      vertex   -1.176891e+001 -2.052508e+002 1.706074e+000
      vertex   -1.181688e+001 -2.052509e+002 4.511802e-001
      vertex   -1.819926e+000 -2.052316e+002 6.974063e-001
    endloop
  endfacet
  facet normal 1.935818e-003 -9.999981e-001 1.623949e-014
    outer loop
      vertex   -1.181688e+001 -2.052509e+002 4.511802e-001
      vertex   -1.170719e+001 -2.052507e+002 -7.998306e-001
      vertex   -1.819926e+000 -2.052316e+002 6.974063e-001
    endloop
  endfacet
  facet normal 1.935818e-003 -9.999981e-001 -1.071902e-014
    outer loop
      vertex   -1.170719e+001 -2.052507e+002 -7.998306e-001
      vertex   -1.144157e+001 -2.052502e+002 -2.027229e+000
      vertex   -1.819926e+000 -2.052316e+002 6.974063e-001
    endloop
  endfacet
  facet normal 1.935818e-003 -9.999981e-001 2.657469e-014
    outer loop
      vertex   -1.144157e+001 -2.052502e+002 -2.027229e+000
      vertex   -1.102421e+001 -2.052494e+002 -3.211658e+000
      vertex   -1.819926e+000 -2.052316e+002 6.974063e-001
    endloop
  endfacet
  facet normal 1.935818e-003 -9.999981e-001 -1.878845e-015
    outer loop
      vertex   -1.102421e+001 -2.052494e+002 -3.211658e+000
      vertex   -1.046170e+001 -2.052483e+002 -4.334439e+000
      vertex   -1.819926e+000 -2.052316e+002 6.974063e-001
    endloop
  endfacet
  facet normal 1.935818e-003 -9.999981e-001 2.343871e-014
    outer loop
      vertex   -1.046170e+001 -2.052483e+002 -4.334439e+000
      vertex   -9.762900e+000 -2.052469e+002 -5.377865e+000
      vertex   -1.819926e+000 -2.052316e+002 6.974063e-001
    endloop
  endfacet
  facet normal 1.935818e-003 -9.999981e-001 1.500476e-014
    outer loop
      vertex   -9.762900e+000 -2.052469e+002 -5.377865e+000
      vertex   -8.938835e+000 -2.052453e+002 -6.325480e+000
      vertex   -1.819926e+000 -2.052316e+002 6.974063e-001
    endloop
  endfacet
  facet normal 1.935818e-003 -9.999981e-001 2.478006e-014
    outer loop
      vertex   -8.938835e+000 -2.052453e+002 -6.325480e+000
      vertex   -8.002501e+000 -2.052435e+002 -7.162340e+000
      vertex   -1.819926e+000 -2.052316e+002 6.974063e-001
    endloop
  endfacet
  facet normal 1.935818e-003 -9.999981e-001 1.582486e-014
    outer loop
      vertex   -8.002501e+000 -2.052435e+002 -7.162340e+000
      vertex   -6.968664e+000 -2.052415e+002 -7.875248e+000
      vertex   -1.819926e+000 -2.052316e+002 6.974063e-001
    endloop
  endfacet
  facet normal 1.935818e-003 -9.999981e-001 2.526278e-014
    outer loop
      vertex   -6.968664e+000 -2.052415e+002 -7.875248e+000
      vertex   -5.853628e+000 -2.052394e+002 -8.452959e+000
      vertex   -1.819926e+000 -2.052316e+002 6.974063e-001
    endloop
  endfacet
  facet normal 1.935818e-003 -9.999981e-001 2.490889e-014
    outer loop
      vertex   -5.853628e+000 -2.052394e+002 -8.452959e+000
      vertex   -4.674978e+000 -2.052371e+002 -8.886363e+000
      vertex   -1.819926e+000 -2.052316e+002 6.974063e-001
    endloop
  endfacet
  facet normal 1.935818e-003 -9.999981e-001 2.652572e-014
    outer loop
      vertex   -4.674978e+000 -2.052371e+002 -8.886363e+000
      vertex   -3.451303e+000 -2.052347e+002 -9.168626e+000
      vertex   -1.819926e+000 -2.052316e+002 6.974063e-001
    endloop
  endfacet
  facet normal 1.935818e-003 -9.999981e-001 2.932188e-014
    outer loop
      vertex   -3.451303e+000 -2.052347e+002 -9.168626e+000
      vertex   -2.201900e+000 -2.052323e+002 -9.295296e+000
      vertex   -1.819926e+000 -2.052316e+002 6.974063e-001
    endloop
  endfacet
  facet normal 1.935818e-003 -9.999981e-001 2.887113e-014
    outer loop
      vertex   -2.201900e+000 -2.052323e+002 -9.295296e+000
      vertex   -9.464723e-001 -2.052299e+002 -9.264374e+000
      vertex   -1.819926e+000 -2.052316e+002 6.974063e-001
    endloop
  endfacet
endsolid
