solid Bobinado2
  facet normal 0.000000e+000 0.000000e+000 -1.000000e+000
    outer loop
      vertex   7.046819e+001 -4.753140e+001 -3.250000e+001
      vertex   2.279853e+001 -1.537780e+001 -3.250000e+001
      vertex   2.668313e+001 -6.652852e+000 -3.250000e+001
    endloop
  endfacet
  facet normal 0.000000e+000 0.000000e+000 -1.000000e+000
    outer loop
      vertex   2.668313e+001 -6.652852e+000 -3.250000e+001
      vertex   8.247514e+001 -2.056336e+001 -3.250000e+001
      vertex   7.046819e+001 -4.753140e+001 -3.250000e+001
    endloop
  endfacet
  facet normal -5.591929e-001 -8.290376e-001 -0.000000e+000
    outer loop
      vertex   2.279853e+001 -1.537780e+001 3.250000e+001
      vertex   2.279853e+001 -1.537780e+001 -3.250000e+001
      vertex   7.046819e+001 -4.753140e+001 -3.250000e+001
    endloop
  endfacet
  facet normal -5.591929e-001 -8.290376e-001 0.000000e+000
    outer loop
      vertex   7.046819e+001 -4.753140e+001 -3.250000e+001
      vertex   7.046819e+001 -4.753140e+001 3.250000e+001
      vertex   2.279853e+001 -1.537780e+001 3.250000e+001
    endloop
  endfacet
  facet normal 0.000000e+000 -0.000000e+000 1.000000e+000
    outer loop
      vertex   7.046819e+001 -4.753140e+001 3.250000e+001
      vertex   8.247514e+001 -2.056336e+001 3.250000e+001
      vertex   2.668313e+001 -6.652852e+000 3.250000e+001
    endloop
  endfacet
  facet normal 0.000000e+000 0.000000e+000 1.000000e+000
    outer loop
      vertex   2.668313e+001 -6.652852e+000 3.250000e+001
      vertex   2.279853e+001 -1.537780e+001 3.250000e+001
      vertex   7.046819e+001 -4.753140e+001 3.250000e+001
    endloop
  endfacet
  facet normal 9.135455e-001 -4.067366e-001 0.000000e+000
    outer loop
      vertex   8.247514e+001 -2.056336e+001 -3.250000e+001
      vertex   8.247514e+001 -2.056336e+001 3.250000e+001
      vertex   7.046819e+001 -4.753140e+001 3.250000e+001
    endloop
  endfacet
  facet normal 9.135455e-001 -4.067366e-001 0.000000e+000
    outer loop
      vertex   7.046819e+001 -4.753140e+001 3.250000e+001
      vertex   7.046819e+001 -4.753140e+001 -3.250000e+001
      vertex   8.247514e+001 -2.056336e+001 -3.250000e+001
    endloop
  endfacet
  facet normal 2.419219e-001 9.702957e-001 0.000000e+000
    outer loop
      vertex   8.247514e+001 -2.056336e+001 -3.250000e+001
      vertex   2.668313e+001 -6.652852e+000 -3.250000e+001
      vertex   2.668313e+001 -6.652852e+000 3.250000e+001
    endloop
  endfacet
  facet normal 2.419219e-001 9.702957e-001 0.000000e+000
    outer loop
      vertex   2.668313e+001 -6.652852e+000 3.250000e+001
      vertex   8.247514e+001 -2.056336e+001 3.250000e+001
      vertex   8.247514e+001 -2.056336e+001 -3.250000e+001
    endloop
  endfacet
  facet normal -9.135455e-001 4.067366e-001 0.000000e+000
    outer loop
      vertex   2.668313e+001 -6.652852e+000 -3.250000e+001
      vertex   2.279853e+001 -1.537780e+001 -3.250000e+001
      vertex   2.279853e+001 -1.537780e+001 3.250000e+001
    endloop
  endfacet
  facet normal -9.135455e-001 4.067366e-001 0.000000e+000
    outer loop
      vertex   2.279853e+001 -1.537780e+001 3.250000e+001
      vertex   2.668313e+001 -6.652852e+000 3.250000e+001
      vertex   2.668313e+001 -6.652852e+000 -3.250000e+001
    endloop
  endfacet
  facet normal 0.000000e+000 0.000000e+000 -1.000000e+000
    outer loop
      vertex   1.182971e+001 -8.417279e+001 -3.250000e+001
      vertex   3.827260e+000 -2.723237e+001 -3.250000e+001
      vertex   1.291047e+001 -2.428106e+001 -3.250000e+001
    endloop
  endfacet
  facet normal 0.000000e+000 -0.000000e+000 -1.000000e+000
    outer loop
      vertex   1.291047e+001 -2.428106e+001 -3.250000e+001
      vertex   3.990508e+001 -7.505055e+001 -3.250000e+001
      vertex   1.182971e+001 -8.417279e+001 -3.250000e+001
    endloop
  endfacet
  facet normal -9.902681e-001 -1.391731e-001 -0.000000e+000
    outer loop
      vertex   3.827260e+000 -2.723237e+001 3.250000e+001
      vertex   3.827260e+000 -2.723237e+001 -3.250000e+001
      vertex   1.182971e+001 -8.417279e+001 -3.250000e+001
    endloop
  endfacet
  facet normal -9.902681e-001 -1.391731e-001 0.000000e+000
    outer loop
      vertex   1.182971e+001 -8.417279e+001 -3.250000e+001
      vertex   1.182971e+001 -8.417279e+001 3.250000e+001
      vertex   3.827260e+000 -2.723237e+001 3.250000e+001
    endloop
  endfacet
  facet normal 0.000000e+000 0.000000e+000 1.000000e+000
    outer loop
      vertex   1.182971e+001 -8.417279e+001 3.250000e+001
      vertex   3.990508e+001 -7.505055e+001 3.250000e+001
      vertex   1.291047e+001 -2.428106e+001 3.250000e+001
    endloop
  endfacet
  facet normal 0.000000e+000 0.000000e+000 1.000000e+000
    outer loop
      vertex   1.291047e+001 -2.428106e+001 3.250000e+001
      vertex   3.827260e+000 -2.723237e+001 3.250000e+001
      vertex   1.182971e+001 -8.417279e+001 3.250000e+001
    endloop
  endfacet
  facet normal 3.090170e-001 -9.510565e-001 0.000000e+000
    outer loop
      vertex   3.990508e+001 -7.505055e+001 -3.250000e+001
      vertex   3.990508e+001 -7.505055e+001 3.250000e+001
      vertex   1.182971e+001 -8.417279e+001 3.250000e+001
    endloop
  endfacet
  facet normal 3.090170e-001 -9.510565e-001 0.000000e+000
    outer loop
      vertex   1.182971e+001 -8.417279e+001 3.250000e+001
      vertex   1.182971e+001 -8.417279e+001 -3.250000e+001
      vertex   3.990508e+001 -7.505055e+001 -3.250000e+001
    endloop
  endfacet
  facet normal 8.829476e-001 4.694716e-001 0.000000e+000
    outer loop
      vertex   3.990508e+001 -7.505055e+001 -3.250000e+001
      vertex   1.291047e+001 -2.428106e+001 -3.250000e+001
      vertex   1.291047e+001 -2.428106e+001 3.250000e+001
    endloop
  endfacet
  facet normal 8.829476e-001 4.694716e-001 0.000000e+000
    outer loop
      vertex   1.291047e+001 -2.428106e+001 3.250000e+001
      vertex   3.990508e+001 -7.505055e+001 3.250000e+001
      vertex   3.990508e+001 -7.505055e+001 -3.250000e+001
    endloop
  endfacet
  facet normal -3.090170e-001 9.510565e-001 0.000000e+000
    outer loop
      vertex   1.291047e+001 -2.428106e+001 -3.250000e+001
      vertex   3.827260e+000 -2.723237e+001 -3.250000e+001
      vertex   3.827260e+000 -2.723237e+001 3.250000e+001
    endloop
  endfacet
  facet normal -3.090170e-001 9.510565e-001 0.000000e+000
    outer loop
      vertex   3.827260e+000 -2.723237e+001 3.250000e+001
      vertex   1.291047e+001 -2.428106e+001 3.250000e+001
      vertex   1.291047e+001 -2.428106e+001 -3.250000e+001
    endloop
  endfacet
  facet normal 0.000000e+000 0.000000e+000 -1.000000e+000
    outer loop
      vertex   -5.463695e+001 -6.511378e+001 -3.250000e+001
      vertex   -1.767666e+001 -2.106622e+001 -3.250000e+001
      vertex   -9.405554e+000 -2.584155e+001 -3.250000e+001
    endloop
  endfacet
  facet normal 0.000000e+000 0.000000e+000 -1.000000e+000
    outer loop
      vertex   -9.405554e+000 -2.584155e+001 -3.250000e+001
      vertex   -2.907171e+001 -7.987387e+001 -3.250000e+001
      vertex   -5.463695e+001 -6.511378e+001 -3.250000e+001
    endloop
  endfacet
  facet normal -7.660444e-001 6.427876e-001 0.000000e+000
    outer loop
      vertex   -1.767666e+001 -2.106622e+001 -3.250000e+001
      vertex   -5.463695e+001 -6.511378e+001 -3.250000e+001
      vertex   -5.463695e+001 -6.511378e+001 3.250000e+001
    endloop
  endfacet
  facet normal -7.660444e-001 6.427876e-001 0.000000e+000
    outer loop
      vertex   -5.463695e+001 -6.511378e+001 3.250000e+001
      vertex   -1.767666e+001 -2.106622e+001 3.250000e+001
      vertex   -1.767666e+001 -2.106622e+001 -3.250000e+001
    endloop
  endfacet
  facet normal -0.000000e+000 0.000000e+000 1.000000e+000
    outer loop
      vertex   -5.463695e+001 -6.511378e+001 3.250000e+001
      vertex   -2.907171e+001 -7.987387e+001 3.250000e+001
      vertex   -9.405554e+000 -2.584155e+001 3.250000e+001
    endloop
  endfacet
  facet normal 0.000000e+000 0.000000e+000 1.000000e+000
    outer loop
      vertex   -9.405554e+000 -2.584155e+001 3.250000e+001
      vertex   -1.767666e+001 -2.106622e+001 3.250000e+001
      vertex   -5.463695e+001 -6.511378e+001 3.250000e+001
    endloop
  endfacet
  facet normal -5.000000e-001 -8.660254e-001 0.000000e+000
    outer loop
      vertex   -2.907171e+001 -7.987387e+001 -3.250000e+001
      vertex   -2.907171e+001 -7.987387e+001 3.250000e+001
      vertex   -5.463695e+001 -6.511378e+001 3.250000e+001
    endloop
  endfacet
  facet normal -5.000000e-001 -8.660254e-001 -0.000000e+000
    outer loop
      vertex   -5.463695e+001 -6.511378e+001 3.250000e+001
      vertex   -5.463695e+001 -6.511378e+001 -3.250000e+001
      vertex   -2.907171e+001 -7.987387e+001 -3.250000e+001
    endloop
  endfacet
  facet normal 9.396926e-001 -3.420201e-001 0.000000e+000
    outer loop
      vertex   -2.907171e+001 -7.987387e+001 3.250000e+001
      vertex   -2.907171e+001 -7.987387e+001 -3.250000e+001
      vertex   -9.405554e+000 -2.584155e+001 -3.250000e+001
    endloop
  endfacet
  facet normal 9.396926e-001 -3.420201e-001 0.000000e+000
    outer loop
      vertex   -9.405554e+000 -2.584155e+001 -3.250000e+001
      vertex   -9.405554e+000 -2.584155e+001 3.250000e+001
      vertex   -2.907171e+001 -7.987387e+001 3.250000e+001
    endloop
  endfacet
  facet normal 5.000000e-001 8.660254e-001 0.000000e+000
    outer loop
      vertex   -9.405554e+000 -2.584155e+001 -3.250000e+001
      vertex   -1.767666e+001 -2.106622e+001 -3.250000e+001
      vertex   -1.767666e+001 -2.106622e+001 3.250000e+001
    endloop
  endfacet
  facet normal 5.000000e-001 8.660254e-001 0.000000e+000
    outer loop
      vertex   -1.767666e+001 -2.106622e+001 3.250000e+001
      vertex   -9.405554e+000 -2.584155e+001 3.250000e+001
      vertex   -9.405554e+000 -2.584155e+001 -3.250000e+001
    endloop
  endfacet
  facet normal 0.000000e+000 0.000000e+000 -1.000000e+000
    outer loop
      vertex   -8.494822e+001 -2.966457e+000 -3.250000e+001
      vertex   -2.748325e+001 -9.597362e-001 -3.250000e+001
      vertex   -2.549756e+001 -1.030168e+001 -3.250000e+001
    endloop
  endfacet
  facet normal -0.000000e+000 0.000000e+000 -1.000000e+000
    outer loop
      vertex   -2.549756e+001 -1.030168e+001 -3.250000e+001
      vertex   -7.881063e+001 -3.184156e+001 -3.250000e+001
      vertex   -8.494822e+001 -2.966457e+000 -3.250000e+001
    endloop
  endfacet
  facet normal -3.489950e-002 9.993908e-001 0.000000e+000
    outer loop
      vertex   -2.748325e+001 -9.597362e-001 3.250000e+001
      vertex   -2.748325e+001 -9.597362e-001 -3.250000e+001
      vertex   -8.494822e+001 -2.966457e+000 -3.250000e+001
    endloop
  endfacet
  facet normal -3.489950e-002 9.993908e-001 0.000000e+000
    outer loop
      vertex   -8.494822e+001 -2.966457e+000 -3.250000e+001
      vertex   -8.494822e+001 -2.966457e+000 3.250000e+001
      vertex   -2.748325e+001 -9.597362e-001 3.250000e+001
    endloop
  endfacet
  facet normal 0.000000e+000 0.000000e+000 1.000000e+000
    outer loop
      vertex   -8.494822e+001 -2.966457e+000 3.250000e+001
      vertex   -7.881063e+001 -3.184156e+001 3.250000e+001
      vertex   -2.549756e+001 -1.030168e+001 3.250000e+001
    endloop
  endfacet
  facet normal 0.000000e+000 0.000000e+000 1.000000e+000
    outer loop
      vertex   -2.549756e+001 -1.030168e+001 3.250000e+001
      vertex   -2.748325e+001 -9.597362e-001 3.250000e+001
      vertex   -8.494822e+001 -2.966457e+000 3.250000e+001
    endloop
  endfacet
  facet normal -9.781476e-001 -2.079117e-001 0.000000e+000
    outer loop
      vertex   -7.881063e+001 -3.184156e+001 -3.250000e+001
      vertex   -7.881063e+001 -3.184156e+001 3.250000e+001
      vertex   -8.494822e+001 -2.966457e+000 3.250000e+001
    endloop
  endfacet
  facet normal -9.781476e-001 -2.079117e-001 -0.000000e+000
    outer loop
      vertex   -8.494822e+001 -2.966457e+000 3.250000e+001
      vertex   -8.494822e+001 -2.966457e+000 -3.250000e+001
      vertex   -7.881063e+001 -3.184156e+001 -3.250000e+001
    endloop
  endfacet
  facet normal 3.746066e-001 -9.271839e-001 0.000000e+000
    outer loop
      vertex   -7.881063e+001 -3.184156e+001 -3.250000e+001
      vertex   -2.549756e+001 -1.030168e+001 -3.250000e+001
      vertex   -2.549756e+001 -1.030168e+001 3.250000e+001
    endloop
  endfacet
  facet normal 3.746066e-001 -9.271839e-001 0.000000e+000
    outer loop
      vertex   -2.549756e+001 -1.030168e+001 3.250000e+001
      vertex   -7.881063e+001 -3.184156e+001 3.250000e+001
      vertex   -7.881063e+001 -3.184156e+001 -3.250000e+001
    endloop
  endfacet
  facet normal 9.781476e-001 2.079117e-001 0.000000e+000
    outer loop
      vertex   -2.549756e+001 -1.030168e+001 -3.250000e+001
      vertex   -2.748325e+001 -9.597362e-001 -3.250000e+001
      vertex   -2.748325e+001 -9.597362e-001 3.250000e+001
    endloop
  endfacet
  facet normal 9.781476e-001 2.079117e-001 0.000000e+000
    outer loop
      vertex   -2.748325e+001 -9.597362e-001 3.250000e+001
      vertex   -2.549756e+001 -1.030168e+001 3.250000e+001
      vertex   -2.549756e+001 -1.030168e+001 -3.250000e+001
    endloop
  endfacet
  facet normal 0.000000e+000 0.000000e+000 -1.000000e+000
    outer loop
      vertex   -5.904596e+001 6.114388e+001 -3.250000e+001
      vertex   -1.910311e+001 1.978184e+001 -3.250000e+001
      vertex   -2.471684e+001 1.205521e+001 -3.250000e+001
    endloop
  endfacet
  facet normal 0.000000e+000 0.000000e+000 -1.000000e+000
    outer loop
      vertex   -2.471684e+001 1.205521e+001 -3.250000e+001
      vertex   -7.639749e+001 3.726155e+001 -3.250000e+001
      vertex   -5.904596e+001 6.114388e+001 -3.250000e+001
    endloop
  endfacet
  facet normal 7.193398e-001 6.946584e-001 0.000000e+000
    outer loop
      vertex   -1.910311e+001 1.978184e+001 3.250000e+001
      vertex   -1.910311e+001 1.978184e+001 -3.250000e+001
      vertex   -5.904596e+001 6.114388e+001 -3.250000e+001
    endloop
  endfacet
  facet normal 7.193398e-001 6.946584e-001 -0.000000e+000
    outer loop
      vertex   -5.904596e+001 6.114388e+001 -3.250000e+001
      vertex   -5.904596e+001 6.114388e+001 3.250000e+001
      vertex   -1.910311e+001 1.978184e+001 3.250000e+001
    endloop
  endfacet
  facet normal 0.000000e+000 0.000000e+000 1.000000e+000
    outer loop
      vertex   -5.904596e+001 6.114388e+001 3.250000e+001
      vertex   -7.639749e+001 3.726155e+001 3.250000e+001
      vertex   -2.471684e+001 1.205521e+001 3.250000e+001
    endloop
  endfacet
  facet normal 0.000000e+000 -0.000000e+000 1.000000e+000
    outer loop
      vertex   -2.471684e+001 1.205521e+001 3.250000e+001
      vertex   -1.910311e+001 1.978184e+001 3.250000e+001
      vertex   -5.904596e+001 6.114388e+001 3.250000e+001
    endloop
  endfacet
  facet normal -8.090170e-001 5.877853e-001 0.000000e+000
    outer loop
      vertex   -7.639749e+001 3.726155e+001 -3.250000e+001
      vertex   -7.639749e+001 3.726155e+001 3.250000e+001
      vertex   -5.904596e+001 6.114388e+001 3.250000e+001
    endloop
  endfacet
  facet normal -8.090170e-001 5.877853e-001 0.000000e+000
    outer loop
      vertex   -5.904596e+001 6.114388e+001 3.250000e+001
      vertex   -5.904596e+001 6.114388e+001 -3.250000e+001
      vertex   -7.639749e+001 3.726155e+001 -3.250000e+001
    endloop
  endfacet
  facet normal -4.383711e-001 -8.987940e-001 -0.000000e+000
    outer loop
      vertex   -7.639749e+001 3.726155e+001 3.250000e+001
      vertex   -7.639749e+001 3.726155e+001 -3.250000e+001
      vertex   -2.471684e+001 1.205521e+001 -3.250000e+001
    endloop
  endfacet
  facet normal -4.383711e-001 -8.987940e-001 0.000000e+000
    outer loop
      vertex   -2.471684e+001 1.205521e+001 -3.250000e+001
      vertex   -2.471684e+001 1.205521e+001 3.250000e+001
      vertex   -7.639749e+001 3.726155e+001 3.250000e+001
    endloop
  endfacet
  facet normal 8.090170e-001 -5.877853e-001 0.000000e+000
    outer loop
      vertex   -2.471684e+001 1.205521e+001 -3.250000e+001
      vertex   -1.910311e+001 1.978184e+001 -3.250000e+001
      vertex   -1.910311e+001 1.978184e+001 3.250000e+001
    endloop
  endfacet
  facet normal 8.090170e-001 -5.877853e-001 0.000000e+000
    outer loop
      vertex   -1.910311e+001 1.978184e+001 3.250000e+001
      vertex   -2.471684e+001 1.205521e+001 3.250000e+001
      vertex   -2.471684e+001 1.205521e+001 -3.250000e+001
    endloop
  endfacet
  facet normal 0.000000e+000 0.000000e+000 -1.000000e+000
    outer loop
      vertex   5.929300e+000 8.479294e+001 -3.250000e+001
      vertex   1.918303e+000 2.743301e+001 -3.250000e+001
      vertex   -7.580027e+000 2.643470e+001 -3.250000e+001
    endloop
  endfacet
  facet normal 0.000000e+000 0.000000e+000 -1.000000e+000
    outer loop
      vertex   -7.580027e+000 2.643470e+001 -3.250000e+001
      vertex   -2.342918e+001 8.170724e+001 -3.250000e+001
      vertex   5.929300e+000 8.479294e+001 -3.250000e+001
    endloop
  endfacet
  facet normal 9.975641e-001 -6.975647e-002 0.000000e+000
    outer loop
      vertex   1.918303e+000 2.743301e+001 3.250000e+001
      vertex   1.918303e+000 2.743301e+001 -3.250000e+001
      vertex   5.929300e+000 8.479294e+001 -3.250000e+001
    endloop
  endfacet
  facet normal 9.975641e-001 -6.975647e-002 0.000000e+000
    outer loop
      vertex   5.929300e+000 8.479294e+001 -3.250000e+001
      vertex   5.929300e+000 8.479294e+001 3.250000e+001
      vertex   1.918303e+000 2.743301e+001 3.250000e+001
    endloop
  endfacet
  facet normal 0.000000e+000 0.000000e+000 1.000000e+000
    outer loop
      vertex   5.929300e+000 8.479294e+001 3.250000e+001
      vertex   -2.342918e+001 8.170724e+001 3.250000e+001
      vertex   -7.580027e+000 2.643470e+001 3.250000e+001
    endloop
  endfacet
  facet normal 0.000000e+000 0.000000e+000 1.000000e+000
    outer loop
      vertex   -7.580027e+000 2.643470e+001 3.250000e+001
      vertex   1.918303e+000 2.743301e+001 3.250000e+001
      vertex   5.929300e+000 8.479294e+001 3.250000e+001
    endloop
  endfacet
  facet normal -1.045285e-001 9.945219e-001 0.000000e+000
    outer loop
      vertex   -2.342918e+001 8.170724e+001 -3.250000e+001
      vertex   -2.342918e+001 8.170724e+001 3.250000e+001
      vertex   5.929300e+000 8.479294e+001 3.250000e+001
    endloop
  endfacet
  facet normal -1.045285e-001 9.945219e-001 0.000000e+000
    outer loop
      vertex   5.929300e+000 8.479294e+001 3.250000e+001
      vertex   5.929300e+000 8.479294e+001 -3.250000e+001
      vertex   -2.342918e+001 8.170724e+001 -3.250000e+001
    endloop
  endfacet
  facet normal -9.612617e-001 -2.756374e-001 0.000000e+000
    outer loop
      vertex   -2.342918e+001 8.170724e+001 -3.250000e+001
      vertex   -7.580027e+000 2.643470e+001 -3.250000e+001
      vertex   -7.580027e+000 2.643470e+001 3.250000e+001
    endloop
  endfacet
  facet normal -9.612617e-001 -2.756374e-001 0.000000e+000
    outer loop
      vertex   -7.580027e+000 2.643470e+001 3.250000e+001
      vertex   -2.342918e+001 8.170724e+001 3.250000e+001
      vertex   -2.342918e+001 8.170724e+001 -3.250000e+001
    endloop
  endfacet
  facet normal 1.045285e-001 -9.945219e-001 0.000000e+000
    outer loop
      vertex   -7.580027e+000 2.643470e+001 -3.250000e+001
      vertex   1.918303e+000 2.743301e+001 -3.250000e+001
      vertex   1.918303e+000 2.743301e+001 3.250000e+001
    endloop
  endfacet
  facet normal 1.045285e-001 -9.945219e-001 0.000000e+000
    outer loop
      vertex   1.918303e+000 2.743301e+001 3.250000e+001
      vertex   -7.580027e+000 2.643470e+001 3.250000e+001
      vertex   -7.580027e+000 2.643470e+001 -3.250000e+001
    endloop
  endfacet
  facet normal 0.000000e+000 0.000000e+000 -1.000000e+000
    outer loop
      vertex   6.698091e+001 5.233123e+001 -3.250000e+001
      vertex   2.167030e+001 1.693069e+001 -3.250000e+001
      vertex   1.457278e+001 2.332132e+001 -3.250000e+001
    endloop
  endfacet
  facet normal 0.000000e+000 0.000000e+000 -1.000000e+000
    outer loop
      vertex   1.457278e+001 2.332132e+001 -3.250000e+001
      vertex   4.504314e+001 7.208409e+001 -3.250000e+001
      vertex   6.698091e+001 5.233123e+001 -3.250000e+001
    endloop
  endfacet
  facet normal 6.156615e-001 -7.880108e-001 0.000000e+000
    outer loop
      vertex   2.167030e+001 1.693069e+001 -3.250000e+001
      vertex   6.698091e+001 5.233123e+001 -3.250000e+001
      vertex   6.698091e+001 5.233123e+001 3.250000e+001
    endloop
  endfacet
  facet normal 6.156615e-001 -7.880108e-001 0.000000e+000
    outer loop
      vertex   6.698091e+001 5.233123e+001 3.250000e+001
      vertex   2.167030e+001 1.693069e+001 3.250000e+001
      vertex   2.167030e+001 1.693069e+001 -3.250000e+001
    endloop
  endfacet
  facet normal 0.000000e+000 0.000000e+000 1.000000e+000
    outer loop
      vertex   6.698091e+001 5.233123e+001 3.250000e+001
      vertex   4.504314e+001 7.208409e+001 3.250000e+001
      vertex   1.457278e+001 2.332132e+001 3.250000e+001
    endloop
  endfacet
  facet normal -0.000000e+000 0.000000e+000 1.000000e+000
    outer loop
      vertex   1.457278e+001 2.332132e+001 3.250000e+001
      vertex   2.167030e+001 1.693069e+001 3.250000e+001
      vertex   6.698091e+001 5.233123e+001 3.250000e+001
    endloop
  endfacet
  facet normal 6.691306e-001 7.431448e-001 -0.000000e+000
    outer loop
      vertex   4.504314e+001 7.208409e+001 -3.250000e+001
      vertex   4.504314e+001 7.208409e+001 3.250000e+001
      vertex   6.698091e+001 5.233123e+001 3.250000e+001
    endloop
  endfacet
  facet normal 6.691306e-001 7.431448e-001 0.000000e+000
    outer loop
      vertex   6.698091e+001 5.233123e+001 3.250000e+001
      vertex   6.698091e+001 5.233123e+001 -3.250000e+001
      vertex   4.504314e+001 7.208409e+001 -3.250000e+001
    endloop
  endfacet
  facet normal -8.480481e-001 5.299193e-001 0.000000e+000
    outer loop
      vertex   4.504314e+001 7.208409e+001 3.250000e+001
      vertex   4.504314e+001 7.208409e+001 -3.250000e+001
      vertex   1.457278e+001 2.332132e+001 -3.250000e+001
    endloop
  endfacet
  facet normal -8.480481e-001 5.299193e-001 0.000000e+000
    outer loop
      vertex   1.457278e+001 2.332132e+001 -3.250000e+001
      vertex   1.457278e+001 2.332132e+001 3.250000e+001
      vertex   4.504314e+001 7.208409e+001 3.250000e+001
    endloop
  endfacet
  facet normal -6.691306e-001 -7.431448e-001 0.000000e+000
    outer loop
      vertex   1.457278e+001 2.332132e+001 -3.250000e+001
      vertex   2.167030e+001 1.693069e+001 -3.250000e+001
      vertex   2.167030e+001 1.693069e+001 3.250000e+001
    endloop
  endfacet
  facet normal -6.691306e-001 -7.431448e-001 0.000000e+000
    outer loop
      vertex   2.167030e+001 1.693069e+001 3.250000e+001
      vertex   1.457278e+001 2.332132e+001 3.250000e+001
      vertex   1.457278e+001 2.332132e+001 -3.250000e+001
    endloop
  endfacet
  facet normal -1.000000e+000 0.000000e+000 0.000000e+000
    outer loop
      vertex   2.708221e+001 4.775325e+000 -3.250000e+001
      vertex   2.708221e+001 -4.775325e+000 -3.250000e+001
      vertex   2.708221e+001 -4.775325e+000 3.250000e+001
    endloop
  endfacet
  facet normal -1.000000e+000 0.000000e+000 0.000000e+000
    outer loop
      vertex   2.708221e+001 -4.775325e+000 3.250000e+001
      vertex   2.708221e+001 4.775325e+000 3.250000e+001
      vertex   2.708221e+001 4.775325e+000 -3.250000e+001
    endloop
  endfacet
  facet normal -1.736482e-001 9.848078e-001 0.000000e+000
    outer loop
      vertex   8.370866e+001 1.476010e+001 3.250000e+001
      vertex   8.370866e+001 1.476010e+001 -3.250000e+001
      vertex   2.708221e+001 4.775325e+000 -3.250000e+001
    endloop
  endfacet
  facet normal -1.736482e-001 9.848078e-001 0.000000e+000
    outer loop
      vertex   2.708221e+001 4.775325e+000 -3.250000e+001
      vertex   2.708221e+001 4.775325e+000 3.250000e+001
      vertex   8.370866e+001 1.476010e+001 3.250000e+001
    endloop
  endfacet
  facet normal 1.000000e+000 4.701117e-016 -0.000000e+000
    outer loop
      vertex   8.370866e+001 1.476010e+001 -3.250000e+001
      vertex   8.370866e+001 1.476010e+001 3.250000e+001
      vertex   8.370866e+001 -1.476010e+001 3.250000e+001
    endloop
  endfacet
  facet normal 1.000000e+000 4.701117e-016 0.000000e+000
    outer loop
      vertex   8.370866e+001 -1.476010e+001 3.250000e+001
      vertex   8.370866e+001 -1.476010e+001 -3.250000e+001
      vertex   8.370866e+001 1.476010e+001 -3.250000e+001
    endloop
  endfacet
  facet normal -1.736482e-001 -9.848078e-001 0.000000e+000
    outer loop
      vertex   2.708221e+001 -4.775325e+000 -3.250000e+001
      vertex   8.370866e+001 -1.476010e+001 -3.250000e+001
      vertex   8.370866e+001 -1.476010e+001 3.250000e+001
    endloop
  endfacet
  facet normal -1.736482e-001 -9.848078e-001 0.000000e+000
    outer loop
      vertex   8.370866e+001 -1.476010e+001 3.250000e+001
      vertex   2.708221e+001 -4.775325e+000 3.250000e+001
      vertex   2.708221e+001 -4.775325e+000 -3.250000e+001
    endloop
  endfacet
  facet normal 0.000000e+000 0.000000e+000 1.000000e+000
    outer loop
      vertex   8.370866e+001 -1.476010e+001 3.250000e+001
      vertex   8.370866e+001 1.476010e+001 3.250000e+001
      vertex   2.708221e+001 4.775325e+000 3.250000e+001
    endloop
  endfacet
  facet normal 0.000000e+000 0.000000e+000 1.000000e+000
    outer loop
      vertex   2.708221e+001 4.775325e+000 3.250000e+001
      vertex   2.708221e+001 -4.775325e+000 3.250000e+001
      vertex   8.370866e+001 -1.476010e+001 3.250000e+001
    endloop
  endfacet
  facet normal 0.000000e+000 0.000000e+000 -1.000000e+000
    outer loop
      vertex   8.370866e+001 -1.476010e+001 -3.250000e+001
      vertex   2.708221e+001 -4.775325e+000 -3.250000e+001
      vertex   2.708221e+001 4.775325e+000 -3.250000e+001
    endloop
  endfacet
  facet normal 0.000000e+000 0.000000e+000 -1.000000e+000
    outer loop
      vertex   2.708221e+001 4.775325e+000 -3.250000e+001
      vertex   8.370866e+001 1.476010e+001 -3.250000e+001
      vertex   8.370866e+001 -1.476010e+001 -3.250000e+001
    endloop
  endfacet
  facet normal 0.000000e+000 0.000000e+000 -1.000000e+000
    outer loop
      vertex   8.247514e+001 2.056336e+001 -3.250000e+001
      vertex   2.668313e+001 6.652852e+000 -3.250000e+001
      vertex   2.279853e+001 1.537780e+001 -3.250000e+001
    endloop
  endfacet
  facet normal 0.000000e+000 0.000000e+000 -1.000000e+000
    outer loop
      vertex   2.279853e+001 1.537780e+001 -3.250000e+001
      vertex   7.046819e+001 4.753140e+001 -3.250000e+001
      vertex   8.247514e+001 2.056336e+001 -3.250000e+001
    endloop
  endfacet
  facet normal 2.419219e-001 -9.702957e-001 0.000000e+000
    outer loop
      vertex   2.668313e+001 6.652852e+000 3.250000e+001
      vertex   2.668313e+001 6.652852e+000 -3.250000e+001
      vertex   8.247514e+001 2.056336e+001 -3.250000e+001
    endloop
  endfacet
  facet normal 2.419219e-001 -9.702957e-001 0.000000e+000
    outer loop
      vertex   8.247514e+001 2.056336e+001 -3.250000e+001
      vertex   8.247514e+001 2.056336e+001 3.250000e+001
      vertex   2.668313e+001 6.652852e+000 3.250000e+001
    endloop
  endfacet
  facet normal 0.000000e+000 0.000000e+000 1.000000e+000
    outer loop
      vertex   8.247514e+001 2.056336e+001 3.250000e+001
      vertex   7.046819e+001 4.753140e+001 3.250000e+001
      vertex   2.279853e+001 1.537780e+001 3.250000e+001
    endloop
  endfacet
  facet normal -0.000000e+000 0.000000e+000 1.000000e+000
    outer loop
      vertex   2.279853e+001 1.537780e+001 3.250000e+001
      vertex   2.668313e+001 6.652852e+000 3.250000e+001
      vertex   8.247514e+001 2.056336e+001 3.250000e+001
    endloop
  endfacet
  facet normal 9.135455e-001 4.067366e-001 -0.000000e+000
    outer loop
      vertex   7.046819e+001 4.753140e+001 -3.250000e+001
      vertex   7.046819e+001 4.753140e+001 3.250000e+001
      vertex   8.247514e+001 2.056336e+001 3.250000e+001
    endloop
  endfacet
  facet normal 9.135455e-001 4.067366e-001 0.000000e+000
    outer loop
      vertex   8.247514e+001 2.056336e+001 3.250000e+001
      vertex   8.247514e+001 2.056336e+001 -3.250000e+001
      vertex   7.046819e+001 4.753140e+001 -3.250000e+001
    endloop
  endfacet
  facet normal -5.591929e-001 8.290376e-001 0.000000e+000
    outer loop
      vertex   7.046819e+001 4.753140e+001 3.250000e+001
      vertex   7.046819e+001 4.753140e+001 -3.250000e+001
      vertex   2.279853e+001 1.537780e+001 -3.250000e+001
    endloop
  endfacet
  facet normal -5.591929e-001 8.290376e-001 0.000000e+000
    outer loop
      vertex   2.279853e+001 1.537780e+001 -3.250000e+001
      vertex   2.279853e+001 1.537780e+001 3.250000e+001
      vertex   7.046819e+001 4.753140e+001 3.250000e+001
    endloop
  endfacet
  facet normal -9.135455e-001 -4.067366e-001 0.000000e+000
    outer loop
      vertex   2.279853e+001 1.537780e+001 -3.250000e+001
      vertex   2.668313e+001 6.652852e+000 -3.250000e+001
      vertex   2.668313e+001 6.652852e+000 3.250000e+001
    endloop
  endfacet
  facet normal -9.135455e-001 -4.067366e-001 0.000000e+000
    outer loop
      vertex   2.668313e+001 6.652852e+000 3.250000e+001
      vertex   2.279853e+001 1.537780e+001 3.250000e+001
      vertex   2.279853e+001 1.537780e+001 -3.250000e+001
    endloop
  endfacet
  facet normal 0.000000e+000 0.000000e+000 -1.000000e+000
    outer loop
      vertex   3.990508e+001 7.505055e+001 -3.250000e+001
      vertex   1.291047e+001 2.428106e+001 -3.250000e+001
      vertex   3.827260e+000 2.723237e+001 -3.250000e+001
    endloop
  endfacet
  facet normal 0.000000e+000 0.000000e+000 -1.000000e+000
    outer loop
      vertex   3.827260e+000 2.723237e+001 -3.250000e+001
      vertex   1.182971e+001 8.417279e+001 -3.250000e+001
      vertex   3.990508e+001 7.505055e+001 -3.250000e+001
    endloop
  endfacet
  facet normal 8.829476e-001 -4.694716e-001 0.000000e+000
    outer loop
      vertex   1.291047e+001 2.428106e+001 -3.250000e+001
      vertex   3.990508e+001 7.505055e+001 -3.250000e+001
      vertex   3.990508e+001 7.505055e+001 3.250000e+001
    endloop
  endfacet
  facet normal 8.829476e-001 -4.694716e-001 0.000000e+000
    outer loop
      vertex   3.990508e+001 7.505055e+001 3.250000e+001
      vertex   1.291047e+001 2.428106e+001 3.250000e+001
      vertex   1.291047e+001 2.428106e+001 -3.250000e+001
    endloop
  endfacet
  facet normal 0.000000e+000 0.000000e+000 1.000000e+000
    outer loop
      vertex   3.990508e+001 7.505055e+001 3.250000e+001
      vertex   1.182971e+001 8.417279e+001 3.250000e+001
      vertex   3.827260e+000 2.723237e+001 3.250000e+001
    endloop
  endfacet
  facet normal -0.000000e+000 0.000000e+000 1.000000e+000
    outer loop
      vertex   3.827260e+000 2.723237e+001 3.250000e+001
      vertex   1.291047e+001 2.428106e+001 3.250000e+001
      vertex   3.990508e+001 7.505055e+001 3.250000e+001
    endloop
  endfacet
  facet normal 3.090170e-001 9.510565e-001 -0.000000e+000
    outer loop
      vertex   1.182971e+001 8.417279e+001 -3.250000e+001
      vertex   1.182971e+001 8.417279e+001 3.250000e+001
      vertex   3.990508e+001 7.505055e+001 3.250000e+001
    endloop
  endfacet
  facet normal 3.090170e-001 9.510565e-001 0.000000e+000
    outer loop
      vertex   3.990508e+001 7.505055e+001 3.250000e+001
      vertex   3.990508e+001 7.505055e+001 -3.250000e+001
      vertex   1.182971e+001 8.417279e+001 -3.250000e+001
    endloop
  endfacet
  facet normal -9.902681e-001 1.391731e-001 0.000000e+000
    outer loop
      vertex   1.182971e+001 8.417279e+001 3.250000e+001
      vertex   1.182971e+001 8.417279e+001 -3.250000e+001
      vertex   3.827260e+000 2.723237e+001 -3.250000e+001
    endloop
  endfacet
  facet normal -9.902681e-001 1.391731e-001 0.000000e+000
    outer loop
      vertex   3.827260e+000 2.723237e+001 -3.250000e+001
      vertex   3.827260e+000 2.723237e+001 3.250000e+001
      vertex   1.182971e+001 8.417279e+001 3.250000e+001
    endloop
  endfacet
  facet normal -3.090170e-001 -9.510565e-001 0.000000e+000
    outer loop
      vertex   3.827260e+000 2.723237e+001 -3.250000e+001
      vertex   1.291047e+001 2.428106e+001 -3.250000e+001
      vertex   1.291047e+001 2.428106e+001 3.250000e+001
    endloop
  endfacet
  facet normal -3.090170e-001 -9.510565e-001 0.000000e+000
    outer loop
      vertex   1.291047e+001 2.428106e+001 3.250000e+001
      vertex   3.827260e+000 2.723237e+001 3.250000e+001
      vertex   3.827260e+000 2.723237e+001 -3.250000e+001
    endloop
  endfacet
  facet normal 0.000000e+000 0.000000e+000 -1.000000e+000
    outer loop
      vertex   -2.907171e+001 7.987387e+001 -3.250000e+001
      vertex   -9.405554e+000 2.584155e+001 -3.250000e+001
      vertex   -1.767666e+001 2.106622e+001 -3.250000e+001
    endloop
  endfacet
  facet normal 0.000000e+000 0.000000e+000 -1.000000e+000
    outer loop
      vertex   -1.767666e+001 2.106622e+001 -3.250000e+001
      vertex   -5.463695e+001 6.511378e+001 -3.250000e+001
      vertex   -2.907171e+001 7.987387e+001 -3.250000e+001
    endloop
  endfacet
  facet normal 9.396926e-001 3.420201e-001 0.000000e+000
    outer loop
      vertex   -9.405554e+000 2.584155e+001 3.250000e+001
      vertex   -9.405554e+000 2.584155e+001 -3.250000e+001
      vertex   -2.907171e+001 7.987387e+001 -3.250000e+001
    endloop
  endfacet
  facet normal 9.396926e-001 3.420201e-001 -0.000000e+000
    outer loop
      vertex   -2.907171e+001 7.987387e+001 -3.250000e+001
      vertex   -2.907171e+001 7.987387e+001 3.250000e+001
      vertex   -9.405554e+000 2.584155e+001 3.250000e+001
    endloop
  endfacet
  facet normal 0.000000e+000 0.000000e+000 1.000000e+000
    outer loop
      vertex   -2.907171e+001 7.987387e+001 3.250000e+001
      vertex   -5.463695e+001 6.511378e+001 3.250000e+001
      vertex   -1.767666e+001 2.106622e+001 3.250000e+001
    endloop
  endfacet
  facet normal 0.000000e+000 -0.000000e+000 1.000000e+000
    outer loop
      vertex   -1.767666e+001 2.106622e+001 3.250000e+001
      vertex   -9.405554e+000 2.584155e+001 3.250000e+001
      vertex   -2.907171e+001 7.987387e+001 3.250000e+001
    endloop
  endfacet
  facet normal -5.000000e-001 8.660254e-001 0.000000e+000
    outer loop
      vertex   -5.463695e+001 6.511378e+001 -3.250000e+001
      vertex   -5.463695e+001 6.511378e+001 3.250000e+001
      vertex   -2.907171e+001 7.987387e+001 3.250000e+001
    endloop
  endfacet
  facet normal -5.000000e-001 8.660254e-001 0.000000e+000
    outer loop
      vertex   -2.907171e+001 7.987387e+001 3.250000e+001
      vertex   -2.907171e+001 7.987387e+001 -3.250000e+001
      vertex   -5.463695e+001 6.511378e+001 -3.250000e+001
    endloop
  endfacet
  facet normal -7.660444e-001 -6.427876e-001 0.000000e+000
    outer loop
      vertex   -5.463695e+001 6.511378e+001 -3.250000e+001
      vertex   -1.767666e+001 2.106622e+001 -3.250000e+001
      vertex   -1.767666e+001 2.106622e+001 3.250000e+001
    endloop
  endfacet
  facet normal -7.660444e-001 -6.427876e-001 0.000000e+000
    outer loop
      vertex   -1.767666e+001 2.106622e+001 3.250000e+001
      vertex   -5.463695e+001 6.511378e+001 3.250000e+001
      vertex   -5.463695e+001 6.511378e+001 -3.250000e+001
    endloop
  endfacet
  facet normal 5.000000e-001 -8.660254e-001 0.000000e+000
    outer loop
      vertex   -1.767666e+001 2.106622e+001 -3.250000e+001
      vertex   -9.405554e+000 2.584155e+001 -3.250000e+001
      vertex   -9.405554e+000 2.584155e+001 3.250000e+001
    endloop
  endfacet
  facet normal 5.000000e-001 -8.660254e-001 0.000000e+000
    outer loop
      vertex   -9.405554e+000 2.584155e+001 3.250000e+001
      vertex   -1.767666e+001 2.106622e+001 3.250000e+001
      vertex   -1.767666e+001 2.106622e+001 -3.250000e+001
    endloop
  endfacet
  facet normal 0.000000e+000 0.000000e+000 -1.000000e+000
    outer loop
      vertex   -7.881063e+001 3.184156e+001 -3.250000e+001
      vertex   -2.549756e+001 1.030168e+001 -3.250000e+001
      vertex   -2.748325e+001 9.597362e-001 -3.250000e+001
    endloop
  endfacet
  facet normal 0.000000e+000 0.000000e+000 -1.000000e+000
    outer loop
      vertex   -2.748325e+001 9.597362e-001 -3.250000e+001
      vertex   -8.494822e+001 2.966457e+000 -3.250000e+001
      vertex   -7.881063e+001 3.184156e+001 -3.250000e+001
    endloop
  endfacet
  facet normal 3.746066e-001 9.271839e-001 0.000000e+000
    outer loop
      vertex   -2.549756e+001 1.030168e+001 3.250000e+001
      vertex   -2.549756e+001 1.030168e+001 -3.250000e+001
      vertex   -7.881063e+001 3.184156e+001 -3.250000e+001
    endloop
  endfacet
  facet normal 3.746066e-001 9.271839e-001 -0.000000e+000
    outer loop
      vertex   -7.881063e+001 3.184156e+001 -3.250000e+001
      vertex   -7.881063e+001 3.184156e+001 3.250000e+001
      vertex   -2.549756e+001 1.030168e+001 3.250000e+001
    endloop
  endfacet
  facet normal 0.000000e+000 0.000000e+000 1.000000e+000
    outer loop
      vertex   -7.881063e+001 3.184156e+001 3.250000e+001
      vertex   -8.494822e+001 2.966457e+000 3.250000e+001
      vertex   -2.748325e+001 9.597362e-001 3.250000e+001
    endloop
  endfacet
  facet normal 0.000000e+000 -0.000000e+000 1.000000e+000
    outer loop
      vertex   -2.748325e+001 9.597362e-001 3.250000e+001
      vertex   -2.549756e+001 1.030168e+001 3.250000e+001
      vertex   -7.881063e+001 3.184156e+001 3.250000e+001
    endloop
  endfacet
  facet normal -9.781476e-001 2.079117e-001 0.000000e+000
    outer loop
      vertex   -8.494822e+001 2.966457e+000 -3.250000e+001
      vertex   -8.494822e+001 2.966457e+000 3.250000e+001
      vertex   -7.881063e+001 3.184156e+001 3.250000e+001
    endloop
  endfacet
  facet normal -9.781476e-001 2.079117e-001 0.000000e+000
    outer loop
      vertex   -7.881063e+001 3.184156e+001 3.250000e+001
      vertex   -7.881063e+001 3.184156e+001 -3.250000e+001
      vertex   -8.494822e+001 2.966457e+000 -3.250000e+001
    endloop
  endfacet
  facet normal -3.489950e-002 -9.993908e-001 0.000000e+000
    outer loop
      vertex   -8.494822e+001 2.966457e+000 -3.250000e+001
      vertex   -2.748325e+001 9.597362e-001 -3.250000e+001
      vertex   -2.748325e+001 9.597362e-001 3.250000e+001
    endloop
  endfacet
  facet normal -3.489950e-002 -9.993908e-001 0.000000e+000
    outer loop
      vertex   -2.748325e+001 9.597362e-001 3.250000e+001
      vertex   -8.494822e+001 2.966457e+000 3.250000e+001
      vertex   -8.494822e+001 2.966457e+000 -3.250000e+001
    endloop
  endfacet
  facet normal 9.781476e-001 -2.079117e-001 0.000000e+000
    outer loop
      vertex   -2.748325e+001 9.597362e-001 -3.250000e+001
      vertex   -2.549756e+001 1.030168e+001 -3.250000e+001
      vertex   -2.549756e+001 1.030168e+001 3.250000e+001
    endloop
  endfacet
  facet normal 9.781476e-001 -2.079117e-001 0.000000e+000
    outer loop
      vertex   -2.549756e+001 1.030168e+001 3.250000e+001
      vertex   -2.748325e+001 9.597362e-001 3.250000e+001
      vertex   -2.748325e+001 9.597362e-001 -3.250000e+001
    endloop
  endfacet
  facet normal 0.000000e+000 0.000000e+000 -1.000000e+000
    outer loop
      vertex   -7.639749e+001 -3.726155e+001 -3.250000e+001
      vertex   -2.471684e+001 -1.205521e+001 -3.250000e+001
      vertex   -1.910311e+001 -1.978184e+001 -3.250000e+001
    endloop
  endfacet
  facet normal 0.000000e+000 0.000000e+000 -1.000000e+000
    outer loop
      vertex   -1.910311e+001 -1.978184e+001 -3.250000e+001
      vertex   -5.904596e+001 -6.114388e+001 -3.250000e+001
      vertex   -7.639749e+001 -3.726155e+001 -3.250000e+001
    endloop
  endfacet
  facet normal -4.383711e-001 8.987940e-001 0.000000e+000
    outer loop
      vertex   -2.471684e+001 -1.205521e+001 3.250000e+001
      vertex   -2.471684e+001 -1.205521e+001 -3.250000e+001
      vertex   -7.639749e+001 -3.726155e+001 -3.250000e+001
    endloop
  endfacet
  facet normal -4.383711e-001 8.987940e-001 0.000000e+000
    outer loop
      vertex   -7.639749e+001 -3.726155e+001 -3.250000e+001
      vertex   -7.639749e+001 -3.726155e+001 3.250000e+001
      vertex   -2.471684e+001 -1.205521e+001 3.250000e+001
    endloop
  endfacet
  facet normal -0.000000e+000 0.000000e+000 1.000000e+000
    outer loop
      vertex   -7.639749e+001 -3.726155e+001 3.250000e+001
      vertex   -5.904596e+001 -6.114388e+001 3.250000e+001
      vertex   -1.910311e+001 -1.978184e+001 3.250000e+001
    endloop
  endfacet
  facet normal 0.000000e+000 0.000000e+000 1.000000e+000
    outer loop
      vertex   -1.910311e+001 -1.978184e+001 3.250000e+001
      vertex   -2.471684e+001 -1.205521e+001 3.250000e+001
      vertex   -7.639749e+001 -3.726155e+001 3.250000e+001
    endloop
  endfacet
  facet normal -8.090170e-001 -5.877853e-001 0.000000e+000
    outer loop
      vertex   -5.904596e+001 -6.114388e+001 -3.250000e+001
      vertex   -5.904596e+001 -6.114388e+001 3.250000e+001
      vertex   -7.639749e+001 -3.726155e+001 3.250000e+001
    endloop
  endfacet
  facet normal -8.090170e-001 -5.877853e-001 -0.000000e+000
    outer loop
      vertex   -7.639749e+001 -3.726155e+001 3.250000e+001
      vertex   -7.639749e+001 -3.726155e+001 -3.250000e+001
      vertex   -5.904596e+001 -6.114388e+001 -3.250000e+001
    endloop
  endfacet
  facet normal 7.193398e-001 -6.946584e-001 0.000000e+000
    outer loop
      vertex   -5.904596e+001 -6.114388e+001 3.250000e+001
      vertex   -5.904596e+001 -6.114388e+001 -3.250000e+001
      vertex   -1.910311e+001 -1.978184e+001 -3.250000e+001
    endloop
  endfacet
  facet normal 7.193398e-001 -6.946584e-001 0.000000e+000
    outer loop
      vertex   -1.910311e+001 -1.978184e+001 -3.250000e+001
      vertex   -1.910311e+001 -1.978184e+001 3.250000e+001
      vertex   -5.904596e+001 -6.114388e+001 3.250000e+001
    endloop
  endfacet
  facet normal 8.090170e-001 5.877853e-001 0.000000e+000
    outer loop
      vertex   -1.910311e+001 -1.978184e+001 -3.250000e+001
      vertex   -2.471684e+001 -1.205521e+001 -3.250000e+001
      vertex   -2.471684e+001 -1.205521e+001 3.250000e+001
    endloop
  endfacet
  facet normal 8.090170e-001 5.877853e-001 0.000000e+000
    outer loop
      vertex   -2.471684e+001 -1.205521e+001 3.250000e+001
      vertex   -1.910311e+001 -1.978184e+001 3.250000e+001
      vertex   -1.910311e+001 -1.978184e+001 -3.250000e+001
    endloop
  endfacet
  facet normal 0.000000e+000 0.000000e+000 -1.000000e+000
    outer loop
      vertex   -2.342918e+001 -8.170724e+001 -3.250000e+001
      vertex   -7.580027e+000 -2.643470e+001 -3.250000e+001
      vertex   1.918303e+000 -2.743301e+001 -3.250000e+001
    endloop
  endfacet
  facet normal 0.000000e+000 -0.000000e+000 -1.000000e+000
    outer loop
      vertex   1.918303e+000 -2.743301e+001 -3.250000e+001
      vertex   5.929300e+000 -8.479294e+001 -3.250000e+001
      vertex   -2.342918e+001 -8.170724e+001 -3.250000e+001
    endloop
  endfacet
  facet normal -9.612617e-001 2.756374e-001 0.000000e+000
    outer loop
      vertex   -7.580027e+000 -2.643470e+001 3.250000e+001
      vertex   -7.580027e+000 -2.643470e+001 -3.250000e+001
      vertex   -2.342918e+001 -8.170724e+001 -3.250000e+001
    endloop
  endfacet
  facet normal -9.612617e-001 2.756374e-001 0.000000e+000
    outer loop
      vertex   -2.342918e+001 -8.170724e+001 -3.250000e+001
      vertex   -2.342918e+001 -8.170724e+001 3.250000e+001
      vertex   -7.580027e+000 -2.643470e+001 3.250000e+001
    endloop
  endfacet
  facet normal -0.000000e+000 0.000000e+000 1.000000e+000
    outer loop
      vertex   -2.342918e+001 -8.170724e+001 3.250000e+001
      vertex   5.929300e+000 -8.479294e+001 3.250000e+001
      vertex   1.918303e+000 -2.743301e+001 3.250000e+001
    endloop
  endfacet
  facet normal 0.000000e+000 0.000000e+000 1.000000e+000
    outer loop
      vertex   1.918303e+000 -2.743301e+001 3.250000e+001
      vertex   -7.580027e+000 -2.643470e+001 3.250000e+001
      vertex   -2.342918e+001 -8.170724e+001 3.250000e+001
    endloop
  endfacet
  facet normal -1.045285e-001 -9.945219e-001 0.000000e+000
    outer loop
      vertex   5.929300e+000 -8.479294e+001 -3.250000e+001
      vertex   5.929300e+000 -8.479294e+001 3.250000e+001
      vertex   -2.342918e+001 -8.170724e+001 3.250000e+001
    endloop
  endfacet
  facet normal -1.045285e-001 -9.945219e-001 -0.000000e+000
    outer loop
      vertex   -2.342918e+001 -8.170724e+001 3.250000e+001
      vertex   -2.342918e+001 -8.170724e+001 -3.250000e+001
      vertex   5.929300e+000 -8.479294e+001 -3.250000e+001
    endloop
  endfacet
  facet normal 9.975641e-001 6.975647e-002 0.000000e+000
    outer loop
      vertex   5.929300e+000 -8.479294e+001 -3.250000e+001
      vertex   1.918303e+000 -2.743301e+001 -3.250000e+001
      vertex   1.918303e+000 -2.743301e+001 3.250000e+001
    endloop
  endfacet
  facet normal 9.975641e-001 6.975647e-002 0.000000e+000
    outer loop
      vertex   1.918303e+000 -2.743301e+001 3.250000e+001
      vertex   5.929300e+000 -8.479294e+001 3.250000e+001
      vertex   5.929300e+000 -8.479294e+001 -3.250000e+001
    endloop
  endfacet
  facet normal 1.045285e-001 9.945219e-001 0.000000e+000
    outer loop
      vertex   1.918303e+000 -2.743301e+001 -3.250000e+001
      vertex   -7.580027e+000 -2.643470e+001 -3.250000e+001
      vertex   -7.580027e+000 -2.643470e+001 3.250000e+001
    endloop
  endfacet
  facet normal 1.045285e-001 9.945219e-001 0.000000e+000
    outer loop
      vertex   -7.580027e+000 -2.643470e+001 3.250000e+001
      vertex   1.918303e+000 -2.743301e+001 3.250000e+001
      vertex   1.918303e+000 -2.743301e+001 -3.250000e+001
    endloop
  endfacet
  facet normal 0.000000e+000 0.000000e+000 -1.000000e+000
    outer loop
      vertex   4.504314e+001 -7.208409e+001 -3.250000e+001
      vertex   1.457278e+001 -2.332132e+001 -3.250000e+001
      vertex   2.167030e+001 -1.693069e+001 -3.250000e+001
    endloop
  endfacet
  facet normal 0.000000e+000 0.000000e+000 -1.000000e+000
    outer loop
      vertex   2.167030e+001 -1.693069e+001 -3.250000e+001
      vertex   6.698091e+001 -5.233123e+001 -3.250000e+001
      vertex   4.504314e+001 -7.208409e+001 -3.250000e+001
    endloop
  endfacet
  facet normal -8.480481e-001 -5.299193e-001 0.000000e+000
    outer loop
      vertex   1.457278e+001 -2.332132e+001 -3.250000e+001
      vertex   4.504314e+001 -7.208409e+001 -3.250000e+001
      vertex   4.504314e+001 -7.208409e+001 3.250000e+001
    endloop
  endfacet
  facet normal -8.480481e-001 -5.299193e-001 0.000000e+000
    outer loop
      vertex   4.504314e+001 -7.208409e+001 3.250000e+001
      vertex   1.457278e+001 -2.332132e+001 3.250000e+001
      vertex   1.457278e+001 -2.332132e+001 -3.250000e+001
    endloop
  endfacet
  facet normal 0.000000e+000 -0.000000e+000 1.000000e+000
    outer loop
      vertex   4.504314e+001 -7.208409e+001 3.250000e+001
      vertex   6.698091e+001 -5.233123e+001 3.250000e+001
      vertex   2.167030e+001 -1.693069e+001 3.250000e+001
    endloop
  endfacet
  facet normal 0.000000e+000 0.000000e+000 1.000000e+000
    outer loop
      vertex   2.167030e+001 -1.693069e+001 3.250000e+001
      vertex   1.457278e+001 -2.332132e+001 3.250000e+001
      vertex   4.504314e+001 -7.208409e+001 3.250000e+001
    endloop
  endfacet
  facet normal 6.691306e-001 -7.431448e-001 0.000000e+000
    outer loop
      vertex   6.698091e+001 -5.233123e+001 -3.250000e+001
      vertex   6.698091e+001 -5.233123e+001 3.250000e+001
      vertex   4.504314e+001 -7.208409e+001 3.250000e+001
    endloop
  endfacet
  facet normal 6.691306e-001 -7.431448e-001 0.000000e+000
    outer loop
      vertex   4.504314e+001 -7.208409e+001 3.250000e+001
      vertex   4.504314e+001 -7.208409e+001 -3.250000e+001
      vertex   6.698091e+001 -5.233123e+001 -3.250000e+001
    endloop
  endfacet
  facet normal 6.156615e-001 7.880108e-001 0.000000e+000
    outer loop
      vertex   6.698091e+001 -5.233123e+001 3.250000e+001
      vertex   6.698091e+001 -5.233123e+001 -3.250000e+001
      vertex   2.167030e+001 -1.693069e+001 -3.250000e+001
    endloop
  endfacet
  facet normal 6.156615e-001 7.880108e-001 -0.000000e+000
    outer loop
      vertex   2.167030e+001 -1.693069e+001 -3.250000e+001
      vertex   2.167030e+001 -1.693069e+001 3.250000e+001
      vertex   6.698091e+001 -5.233123e+001 3.250000e+001
    endloop
  endfacet
  facet normal -6.691306e-001 7.431448e-001 0.000000e+000
    outer loop
      vertex   2.167030e+001 -1.693069e+001 -3.250000e+001
      vertex   1.457278e+001 -2.332132e+001 -3.250000e+001
      vertex   1.457278e+001 -2.332132e+001 3.250000e+001
    endloop
  endfacet
  facet normal -6.691306e-001 7.431448e-001 0.000000e+000
    outer loop
      vertex   1.457278e+001 -2.332132e+001 3.250000e+001
      vertex   2.167030e+001 -1.693069e+001 3.250000e+001
      vertex   2.167030e+001 -1.693069e+001 -3.250000e+001
    endloop
  endfacet
endsolid
