solid EjePrincipal
  facet normal 1.000000e+000 0.000000e+000 0.000000e+000
    outer loop
      vertex   3.150000e+002 0.000000e+000 3.673819e-015
      vertex   3.150000e+002 -7.981350e+000 -5.459393e-001
      vertex   3.150000e+002 -7.538087e+000 -2.679037e+000
    endloop
  endfacet
  facet normal 1.000000e+000 -0.000000e+000 0.000000e+000
    outer loop
      vertex   3.150000e+002 -7.538087e+000 -2.679037e+000
      vertex   3.150000e+002 -6.535759e+000 -4.613443e+000
      vertex   3.150000e+002 0.000000e+000 3.673819e-015
    endloop
  endfacet
  facet normal 1.000000e+000 -0.000000e+000 0.000000e+000
    outer loop
      vertex   3.150000e+002 -6.535759e+000 -4.613443e+000
      vertex   3.150000e+002 -5.048704e+000 -6.205690e+000
      vertex   3.150000e+002 0.000000e+000 3.673819e-015
    endloop
  endfacet
  facet normal 1.000000e+000 -0.000000e+000 0.000000e+000
    outer loop
      vertex   3.150000e+002 -5.048704e+000 -6.205690e+000
      vertex   3.150000e+002 -3.187209e+000 -7.337690e+000
      vertex   3.150000e+002 0.000000e+000 3.673819e-015
    endloop
  endfacet
  facet normal 1.000000e+000 -0.000000e+000 0.000000e+000
    outer loop
      vertex   3.150000e+002 -3.187209e+000 -7.337690e+000
      vertex   3.150000e+002 -1.089333e+000 -7.925488e+000
      vertex   3.150000e+002 0.000000e+000 3.673819e-015
    endloop
  endfacet
  facet normal 1.000000e+000 0.000000e+000 0.000000e+000
    outer loop
      vertex   3.150000e+002 -1.089333e+000 -7.925488e+000
      vertex   3.150000e+002 1.089333e+000 -7.925488e+000
      vertex   3.150000e+002 0.000000e+000 3.673819e-015
    endloop
  endfacet
  facet normal 1.000000e+000 0.000000e+000 -0.000000e+000
    outer loop
      vertex   3.150000e+002 1.089333e+000 -7.925488e+000
      vertex   3.150000e+002 3.187209e+000 -7.337690e+000
      vertex   3.150000e+002 0.000000e+000 3.673819e-015
    endloop
  endfacet
  facet normal 1.000000e+000 0.000000e+000 -0.000000e+000
    outer loop
      vertex   3.150000e+002 3.187209e+000 -7.337690e+000
      vertex   3.150000e+002 5.048704e+000 -6.205690e+000
      vertex   3.150000e+002 0.000000e+000 3.673819e-015
    endloop
  endfacet
  facet normal 1.000000e+000 0.000000e+000 -0.000000e+000
    outer loop
      vertex   3.150000e+002 5.048704e+000 -6.205690e+000
      vertex   3.150000e+002 6.535759e+000 -4.613443e+000
      vertex   3.150000e+002 0.000000e+000 3.673819e-015
    endloop
  endfacet
  facet normal 1.000000e+000 0.000000e+000 -0.000000e+000
    outer loop
      vertex   3.150000e+002 6.535759e+000 -4.613443e+000
      vertex   3.150000e+002 7.538087e+000 -2.679037e+000
      vertex   3.150000e+002 0.000000e+000 3.673819e-015
    endloop
  endfacet
  facet normal 1.000000e+000 0.000000e+000 -0.000000e+000
    outer loop
      vertex   3.150000e+002 7.538087e+000 -2.679037e+000
      vertex   3.150000e+002 7.981350e+000 -5.459393e-001
      vertex   3.150000e+002 0.000000e+000 3.673819e-015
    endloop
  endfacet
  facet normal 1.000000e+000 0.000000e+000 0.000000e+000
    outer loop
      vertex   3.150000e+002 7.981350e+000 -5.459393e-001
      vertex   3.150000e+002 7.832673e+000 1.627648e+000
      vertex   3.150000e+002 0.000000e+000 3.673819e-015
    endloop
  endfacet
  facet normal 1.000000e+000 0.000000e+000 0.000000e+000
    outer loop
      vertex   3.150000e+002 7.832673e+000 1.627648e+000
      vertex   3.150000e+002 7.103082e+000 3.680520e+000
      vertex   3.150000e+002 0.000000e+000 3.673819e-015
    endloop
  endfacet
  facet normal 1.000000e+000 0.000000e+000 0.000000e+000
    outer loop
      vertex   3.150000e+002 7.103082e+000 3.680520e+000
      vertex   3.150000e+002 5.846688e+000 5.460425e+000
      vertex   3.150000e+002 0.000000e+000 3.673819e-015
    endloop
  endfacet
  facet normal 1.000000e+000 0.000000e+000 0.000000e+000
    outer loop
      vertex   3.150000e+002 5.846688e+000 5.460425e+000
      vertex   3.150000e+002 4.156672e+000 6.835355e+000
      vertex   3.150000e+002 0.000000e+000 3.673819e-015
    endloop
  endfacet
  facet normal 1.000000e+000 0.000000e+000 0.000000e+000
    outer loop
      vertex   3.150000e+002 4.156672e+000 6.835355e+000
      vertex   3.150000e+002 2.158374e+000 7.703338e+000
      vertex   3.150000e+002 0.000000e+000 3.673819e-015
    endloop
  endfacet
  facet normal 1.000000e+000 0.000000e+000 0.000000e+000
    outer loop
      vertex   3.150000e+002 2.158374e+000 7.703338e+000
      vertex   3.150000e+002 0.000000e+000 8.000000e+000
      vertex   3.150000e+002 0.000000e+000 3.673819e-015
    endloop
  endfacet
  facet normal 1.000000e+000 0.000000e+000 0.000000e+000
    outer loop
      vertex   3.150000e+002 0.000000e+000 8.000000e+000
      vertex   3.150000e+002 -2.158374e+000 7.703338e+000
      vertex   3.150000e+002 0.000000e+000 3.673819e-015
    endloop
  endfacet
  facet normal 1.000000e+000 0.000000e+000 0.000000e+000
    outer loop
      vertex   3.150000e+002 -2.158374e+000 7.703338e+000
      vertex   3.150000e+002 -4.156672e+000 6.835355e+000
      vertex   3.150000e+002 0.000000e+000 3.673819e-015
    endloop
  endfacet
  facet normal 1.000000e+000 0.000000e+000 0.000000e+000
    outer loop
      vertex   3.150000e+002 -4.156672e+000 6.835355e+000
      vertex   3.150000e+002 -5.846688e+000 5.460425e+000
      vertex   3.150000e+002 0.000000e+000 3.673819e-015
    endloop
  endfacet
  facet normal 1.000000e+000 0.000000e+000 0.000000e+000
    outer loop
      vertex   3.150000e+002 -5.846688e+000 5.460425e+000
      vertex   3.150000e+002 -7.103082e+000 3.680520e+000
      vertex   3.150000e+002 0.000000e+000 3.673819e-015
    endloop
  endfacet
  facet normal 1.000000e+000 0.000000e+000 0.000000e+000
    outer loop
      vertex   3.150000e+002 -7.103082e+000 3.680520e+000
      vertex   3.150000e+002 -7.832673e+000 1.627648e+000
      vertex   3.150000e+002 0.000000e+000 3.673819e-015
    endloop
  endfacet
  facet normal 1.000000e+000 0.000000e+000 0.000000e+000
    outer loop
      vertex   3.150000e+002 -7.832673e+000 1.627648e+000
      vertex   3.150000e+002 -8.000000e+000 2.448080e-016
      vertex   3.150000e+002 0.000000e+000 3.673819e-015
    endloop
  endfacet
  facet normal 1.000000e+000 -0.000000e+000 0.000000e+000
    outer loop
      vertex   3.150000e+002 -8.000000e+000 2.448080e-016
      vertex   3.150000e+002 -7.981350e+000 -5.459393e-001
      vertex   3.150000e+002 0.000000e+000 3.673819e-015
    endloop
  endfacet
  facet normal 7.037907e-001 9.673380e-002 7.037907e-001
    outer loop
      vertex   3.130000e+002 0.000000e+000 1.000000e+001
      vertex   3.150000e+002 0.000000e+000 8.000000e+000
      vertex   3.150000e+002 2.158374e+000 7.703338e+000
    endloop
  endfacet
  facet normal 7.037907e-001 2.830271e-001 6.515937e-001
    outer loop
      vertex   3.130000e+002 2.697968e+000 9.629173e+000
      vertex   3.150000e+002 2.158374e+000 7.703338e+000
      vertex   3.150000e+002 4.156672e+000 6.835355e+000
    endloop
  endfacet
  facet normal 7.037907e-001 4.483296e-001 5.510711e-001
    outer loop
      vertex   3.130000e+002 5.195840e+000 8.544194e+000
      vertex   3.150000e+002 4.156672e+000 6.835355e+000
      vertex   3.150000e+002 5.846688e+000 5.460425e+000
    endloop
  endfacet
  facet normal 7.037907e-001 5.803815e-001 4.096780e-001
    outer loop
      vertex   3.130000e+002 7.308360e+000 6.825531e+000
      vertex   3.150000e+002 5.846688e+000 5.460425e+000
      vertex   3.150000e+002 7.103082e+000 3.680520e+000
    endloop
  endfacet
  facet normal 7.037907e-001 6.693892e-001 2.379010e-001
    outer loop
      vertex   3.130000e+002 8.878852e+000 4.600650e+000
      vertex   3.150000e+002 7.103082e+000 3.680520e+000
      vertex   3.150000e+002 7.832673e+000 1.627648e+000
    endloop
  endfacet
  facet normal 7.037907e-001 7.087513e-001 4.847992e-002
    outer loop
      vertex   3.130000e+002 9.790841e+000 2.034560e+000
      vertex   3.150000e+002 7.832673e+000 1.627648e+000
      vertex   3.150000e+002 7.981350e+000 -5.459393e-001
    endloop
  endfacet
  facet normal 7.037907e-001 6.955486e-001 -1.445367e-001
    outer loop
      vertex   3.130000e+002 9.976688e+000 -6.824241e-001
      vertex   3.150000e+002 7.981350e+000 -5.459393e-001
      vertex   3.150000e+002 7.538087e+000 -2.679037e+000
    endloop
  endfacet
  facet normal 7.037907e-001 6.307603e-001 -3.268336e-001
    outer loop
      vertex   3.130000e+002 9.422609e+000 -3.348796e+000
      vertex   3.150000e+002 7.538087e+000 -2.679037e+000
      vertex   3.150000e+002 6.535759e+000 -4.613443e+000
    endloop
  endfacet
  facet normal 7.037907e-001 5.191913e-001 -4.848908e-001
    outer loop
      vertex   3.130000e+002 8.169699e+000 -5.766803e+000
      vertex   3.150000e+002 6.535759e+000 -4.613443e+000
      vertex   3.150000e+002 5.048704e+000 -6.205690e+000
    endloop
  endfacet
  facet normal 7.037907e-001 3.691163e-001 -6.069859e-001
    outer loop
      vertex   3.130000e+002 6.310879e+000 -7.757113e+000
      vertex   3.150000e+002 5.048704e+000 -6.205690e+000
      vertex   3.150000e+002 3.187209e+000 -7.337690e+000
    endloop
  endfacet
  facet normal 7.037907e-001 1.916656e-001 -6.840636e-001
    outer loop
      vertex   3.130000e+002 3.984011e+000 -9.172113e+000
      vertex   3.150000e+002 3.187209e+000 -7.337690e+000
      vertex   3.150000e+002 1.089333e+000 -7.925488e+000
    endloop
  endfacet
  facet normal 7.037907e-001 5.523916e-016 -7.104074e-001
    outer loop
      vertex   3.130000e+002 1.361666e+000 -9.906859e+000
      vertex   3.150000e+002 1.089333e+000 -7.925488e+000
      vertex   3.150000e+002 -1.089333e+000 -7.925488e+000
    endloop
  endfacet
  facet normal 7.037907e-001 -1.916656e-001 -6.840636e-001
    outer loop
      vertex   3.130000e+002 -1.361666e+000 -9.906859e+000
      vertex   3.150000e+002 -1.089333e+000 -7.925488e+000
      vertex   3.150000e+002 -3.187209e+000 -7.337690e+000
    endloop
  endfacet
  facet normal 7.037907e-001 -3.691163e-001 -6.069859e-001
    outer loop
      vertex   3.130000e+002 -3.984011e+000 -9.172113e+000
      vertex   3.150000e+002 -3.187209e+000 -7.337690e+000
      vertex   3.150000e+002 -5.048704e+000 -6.205690e+000
    endloop
  endfacet
  facet normal 7.037907e-001 -5.191913e-001 -4.848908e-001
    outer loop
      vertex   3.130000e+002 -6.310879e+000 -7.757113e+000
      vertex   3.150000e+002 -5.048704e+000 -6.205690e+000
      vertex   3.150000e+002 -6.535759e+000 -4.613443e+000
    endloop
  endfacet
  facet normal 7.037907e-001 -6.307603e-001 -3.268336e-001
    outer loop
      vertex   3.130000e+002 -8.169699e+000 -5.766803e+000
      vertex   3.150000e+002 -6.535759e+000 -4.613443e+000
      vertex   3.150000e+002 -7.538087e+000 -2.679037e+000
    endloop
  endfacet
  facet normal 7.037907e-001 -6.955486e-001 -1.445367e-001
    outer loop
      vertex   3.130000e+002 -9.422609e+000 -3.348796e+000
      vertex   3.150000e+002 -7.538087e+000 -2.679037e+000
      vertex   3.150000e+002 -7.981350e+000 -5.459393e-001
    endloop
  endfacet
  facet normal 6.935638e-001 -7.187158e-001 4.916151e-002
    outer loop
      vertex   3.130000e+002 -9.790841e+000 2.034560e+000
      vertex   3.130000e+002 -9.976688e+000 -6.824241e-001
      vertex   3.150000e+002 -8.000000e+000 2.448080e-016
    endloop
  endfacet
  facet normal 7.069006e-001 -7.069006e-001 -2.414845e-002
    outer loop
      vertex   3.130000e+002 -9.976688e+000 -6.824241e-001
      vertex   3.150000e+002 -7.981350e+000 -5.459393e-001
      vertex   3.150000e+002 -8.000000e+000 2.448080e-016
    endloop
  endfacet
  facet normal 7.037907e-001 -6.693892e-001 2.379010e-001
    outer loop
      vertex   3.130000e+002 -9.790841e+000 2.034560e+000
      vertex   3.150000e+002 -7.832673e+000 1.627648e+000
      vertex   3.150000e+002 -7.103082e+000 3.680520e+000
    endloop
  endfacet
  facet normal 7.037907e-001 -5.803815e-001 4.096780e-001
    outer loop
      vertex   3.130000e+002 -8.878852e+000 4.600650e+000
      vertex   3.150000e+002 -7.103082e+000 3.680520e+000
      vertex   3.150000e+002 -5.846688e+000 5.460425e+000
    endloop
  endfacet
  facet normal 7.037907e-001 -4.483296e-001 5.510711e-001
    outer loop
      vertex   3.130000e+002 -7.308360e+000 6.825531e+000
      vertex   3.150000e+002 -5.846688e+000 5.460425e+000
      vertex   3.150000e+002 -4.156672e+000 6.835355e+000
    endloop
  endfacet
  facet normal 7.037907e-001 -2.830271e-001 6.515937e-001
    outer loop
      vertex   3.130000e+002 -5.195840e+000 8.544194e+000
      vertex   3.150000e+002 -4.156672e+000 6.835355e+000
      vertex   3.150000e+002 -2.158374e+000 7.703338e+000
    endloop
  endfacet
  facet normal 7.037907e-001 -9.673380e-002 7.037907e-001
    outer loop
      vertex   3.130000e+002 -2.697968e+000 9.629173e+000
      vertex   3.150000e+002 -2.158374e+000 7.703338e+000
      vertex   3.150000e+002 0.000000e+000 8.000000e+000
    endloop
  endfacet
  facet normal 7.037907e-001 -9.673380e-002 7.037907e-001
    outer loop
      vertex   3.150000e+002 0.000000e+000 8.000000e+000
      vertex   3.130000e+002 0.000000e+000 1.000000e+001
      vertex   3.130000e+002 -2.697968e+000 9.629173e+000
    endloop
  endfacet
  facet normal 7.037907e-001 -2.830271e-001 6.515937e-001
    outer loop
      vertex   3.150000e+002 -2.158374e+000 7.703338e+000
      vertex   3.130000e+002 -2.697968e+000 9.629173e+000
      vertex   3.130000e+002 -5.195840e+000 8.544194e+000
    endloop
  endfacet
  facet normal 7.037907e-001 -4.483296e-001 5.510711e-001
    outer loop
      vertex   3.150000e+002 -4.156672e+000 6.835355e+000
      vertex   3.130000e+002 -5.195840e+000 8.544194e+000
      vertex   3.130000e+002 -7.308360e+000 6.825531e+000
    endloop
  endfacet
  facet normal 7.037907e-001 -5.803815e-001 4.096780e-001
    outer loop
      vertex   3.150000e+002 -5.846688e+000 5.460425e+000
      vertex   3.130000e+002 -7.308360e+000 6.825531e+000
      vertex   3.130000e+002 -8.878852e+000 4.600650e+000
    endloop
  endfacet
  facet normal 7.037907e-001 -6.693892e-001 2.379010e-001
    outer loop
      vertex   3.150000e+002 -7.103082e+000 3.680520e+000
      vertex   3.130000e+002 -8.878852e+000 4.600650e+000
      vertex   3.130000e+002 -9.790841e+000 2.034560e+000
    endloop
  endfacet
  facet normal 7.052459e-001 -7.052459e-001 7.250148e-002
    outer loop
      vertex   3.150000e+002 -8.000000e+000 2.448080e-016
      vertex   3.150000e+002 -7.832673e+000 1.627648e+000
      vertex   3.130000e+002 -9.790841e+000 2.034560e+000
    endloop
  endfacet
  facet normal 7.037907e-001 -6.955486e-001 -1.445367e-001
    outer loop
      vertex   3.150000e+002 -7.981350e+000 -5.459393e-001
      vertex   3.130000e+002 -9.976688e+000 -6.824241e-001
      vertex   3.130000e+002 -9.422609e+000 -3.348796e+000
    endloop
  endfacet
  facet normal 7.037907e-001 -6.307603e-001 -3.268336e-001
    outer loop
      vertex   3.150000e+002 -7.538087e+000 -2.679037e+000
      vertex   3.130000e+002 -9.422609e+000 -3.348796e+000
      vertex   3.130000e+002 -8.169699e+000 -5.766803e+000
    endloop
  endfacet
  facet normal 7.037907e-001 -5.191913e-001 -4.848908e-001
    outer loop
      vertex   3.150000e+002 -6.535759e+000 -4.613443e+000
      vertex   3.130000e+002 -8.169699e+000 -5.766803e+000
      vertex   3.130000e+002 -6.310879e+000 -7.757113e+000
    endloop
  endfacet
  facet normal 7.037907e-001 -3.691163e-001 -6.069859e-001
    outer loop
      vertex   3.150000e+002 -5.048704e+000 -6.205690e+000
      vertex   3.130000e+002 -6.310879e+000 -7.757113e+000
      vertex   3.130000e+002 -3.984011e+000 -9.172113e+000
    endloop
  endfacet
  facet normal 7.037907e-001 -1.916656e-001 -6.840636e-001
    outer loop
      vertex   3.150000e+002 -3.187209e+000 -7.337690e+000
      vertex   3.130000e+002 -3.984011e+000 -9.172113e+000
      vertex   3.130000e+002 -1.361666e+000 -9.906859e+000
    endloop
  endfacet
  facet normal 7.037907e-001 4.419133e-016 -7.104074e-001
    outer loop
      vertex   3.150000e+002 -1.089333e+000 -7.925488e+000
      vertex   3.130000e+002 -1.361666e+000 -9.906859e+000
      vertex   3.130000e+002 1.361666e+000 -9.906859e+000
    endloop
  endfacet
  facet normal 7.037907e-001 1.916656e-001 -6.840636e-001
    outer loop
      vertex   3.150000e+002 1.089333e+000 -7.925488e+000
      vertex   3.130000e+002 1.361666e+000 -9.906859e+000
      vertex   3.130000e+002 3.984011e+000 -9.172113e+000
    endloop
  endfacet
  facet normal 7.037907e-001 3.691163e-001 -6.069859e-001
    outer loop
      vertex   3.150000e+002 3.187209e+000 -7.337690e+000
      vertex   3.130000e+002 3.984011e+000 -9.172113e+000
      vertex   3.130000e+002 6.310879e+000 -7.757113e+000
    endloop
  endfacet
  facet normal 7.037907e-001 5.191913e-001 -4.848908e-001
    outer loop
      vertex   3.150000e+002 5.048704e+000 -6.205690e+000
      vertex   3.130000e+002 6.310879e+000 -7.757113e+000
      vertex   3.130000e+002 8.169699e+000 -5.766803e+000
    endloop
  endfacet
  facet normal 7.037907e-001 6.307603e-001 -3.268336e-001
    outer loop
      vertex   3.150000e+002 6.535759e+000 -4.613443e+000
      vertex   3.130000e+002 8.169699e+000 -5.766803e+000
      vertex   3.130000e+002 9.422609e+000 -3.348796e+000
    endloop
  endfacet
  facet normal 7.037907e-001 6.955486e-001 -1.445367e-001
    outer loop
      vertex   3.150000e+002 7.538087e+000 -2.679037e+000
      vertex   3.130000e+002 9.422609e+000 -3.348796e+000
      vertex   3.130000e+002 9.976688e+000 -6.824241e-001
    endloop
  endfacet
  facet normal 7.037907e-001 7.087513e-001 4.847992e-002
    outer loop
      vertex   3.150000e+002 7.981350e+000 -5.459393e-001
      vertex   3.130000e+002 9.976688e+000 -6.824241e-001
      vertex   3.130000e+002 9.790841e+000 2.034560e+000
    endloop
  endfacet
  facet normal 7.037907e-001 6.693892e-001 2.379010e-001
    outer loop
      vertex   3.150000e+002 7.832673e+000 1.627648e+000
      vertex   3.130000e+002 9.790841e+000 2.034560e+000
      vertex   3.130000e+002 8.878852e+000 4.600650e+000
    endloop
  endfacet
  facet normal 7.037907e-001 5.803815e-001 4.096780e-001
    outer loop
      vertex   3.150000e+002 7.103082e+000 3.680520e+000
      vertex   3.130000e+002 8.878852e+000 4.600650e+000
      vertex   3.130000e+002 7.308360e+000 6.825531e+000
    endloop
  endfacet
  facet normal 7.037907e-001 4.483296e-001 5.510711e-001
    outer loop
      vertex   3.150000e+002 5.846688e+000 5.460425e+000
      vertex   3.130000e+002 7.308360e+000 6.825531e+000
      vertex   3.130000e+002 5.195840e+000 8.544194e+000
    endloop
  endfacet
  facet normal 7.037907e-001 2.830271e-001 6.515937e-001
    outer loop
      vertex   3.150000e+002 4.156672e+000 6.835355e+000
      vertex   3.130000e+002 5.195840e+000 8.544194e+000
      vertex   3.130000e+002 2.697968e+000 9.629173e+000
    endloop
  endfacet
  facet normal 7.037907e-001 9.673380e-002 7.037907e-001
    outer loop
      vertex   3.150000e+002 2.158374e+000 7.703338e+000
      vertex   3.130000e+002 2.697968e+000 9.629173e+000
      vertex   3.130000e+002 0.000000e+000 1.000000e+001
    endloop
  endfacet
  facet normal -1.487868e-004 2.697968e-001 9.629173e-001
    outer loop
      vertex   3.130000e+002 2.697968e+000 9.629173e+000
      vertex   -3.130000e+002 2.672839e+000 9.539486e+000
      vertex   -3.130000e+002 1.361666e+000 9.906859e+000
    endloop
  endfacet
  facet normal 1.487868e-004 1.361666e-001 9.906859e-001
    outer loop
      vertex   -3.130000e+002 1.361666e+000 9.906859e+000
      vertex   3.130000e+002 0.000000e+000 1.000000e+001
      vertex   3.130000e+002 2.697968e+000 9.629173e+000
    endloop
  endfacet
  facet normal 1.239229e-019 6.824241e-002 9.976688e-001
    outer loop
      vertex   -3.130000e+002 1.361666e+000 9.906859e+000
      vertex   -3.130000e+002 1.224647e-015 1.000000e+001
      vertex   3.130000e+002 0.000000e+000 1.000000e+001
    endloop
  endfacet
  facet normal -1.487868e-004 5.195839e-001 8.544194e-001
    outer loop
      vertex   3.130000e+002 5.195840e+000 8.544194e+000
      vertex   -3.130000e+002 5.147445e+000 8.464613e+000
      vertex   -3.130000e+002 3.984011e+000 9.172113e+000
    endloop
  endfacet
  facet normal 1.487868e-004 3.984011e-001 9.172113e-001
    outer loop
      vertex   -3.130000e+002 3.984011e+000 9.172113e+000
      vertex   3.130000e+002 2.697968e+000 9.629173e+000
      vertex   3.130000e+002 5.195840e+000 8.544194e+000
    endloop
  endfacet
  facet normal -1.487868e-004 2.697968e-001 9.629173e-001
    outer loop
      vertex   -3.130000e+002 3.984011e+000 9.172113e+000
      vertex   -3.130000e+002 2.672839e+000 9.539486e+000
      vertex   3.130000e+002 2.697968e+000 9.629173e+000
    endloop
  endfacet
  facet normal -1.487868e-004 7.308360e-001 6.825531e-001
    outer loop
      vertex   3.130000e+002 7.308360e+000 6.825531e+000
      vertex   -3.130000e+002 7.240289e+000 6.761958e+000
      vertex   -3.130000e+002 6.310879e+000 7.757113e+000
    endloop
  endfacet
  facet normal 1.487868e-004 6.310879e-001 7.757113e-001
    outer loop
      vertex   -3.130000e+002 6.310879e+000 7.757113e+000
      vertex   3.130000e+002 5.195840e+000 8.544194e+000
      vertex   3.130000e+002 7.308360e+000 6.825531e+000
    endloop
  endfacet
  facet normal -1.487868e-004 5.195839e-001 8.544194e-001
    outer loop
      vertex   -3.130000e+002 6.310879e+000 7.757113e+000
      vertex   -3.130000e+002 5.147445e+000 8.464613e+000
      vertex   3.130000e+002 5.195840e+000 8.544194e+000
    endloop
  endfacet
  facet normal -1.487868e-004 8.878852e-001 4.600650e-001
    outer loop
      vertex   3.130000e+002 8.878852e+000 4.600650e+000
      vertex   -3.130000e+002 8.796154e+000 4.557800e+000
      vertex   -3.130000e+002 8.169699e+000 5.766803e+000
    endloop
  endfacet
  facet normal 1.487868e-004 8.169699e-001 5.766803e-001
    outer loop
      vertex   -3.130000e+002 8.169699e+000 5.766803e+000
      vertex   3.130000e+002 7.308360e+000 6.825531e+000
      vertex   3.130000e+002 8.878852e+000 4.600650e+000
    endloop
  endfacet
  facet normal -1.487868e-004 7.308360e-001 6.825531e-001
    outer loop
      vertex   -3.130000e+002 8.169699e+000 5.766803e+000
      vertex   -3.130000e+002 7.240289e+000 6.761958e+000
      vertex   3.130000e+002 7.308360e+000 6.825531e+000
    endloop
  endfacet
  facet normal -1.487868e-004 9.790841e-001 2.034560e-001
    outer loop
      vertex   3.130000e+002 9.790841e+000 2.034560e+000
      vertex   -3.130000e+002 9.699648e+000 2.015610e+000
      vertex   -3.130000e+002 9.422609e+000 3.348796e+000
    endloop
  endfacet
  facet normal 1.487868e-004 9.422609e-001 3.348796e-001
    outer loop
      vertex   -3.130000e+002 9.422609e+000 3.348796e+000
      vertex   3.130000e+002 8.878852e+000 4.600650e+000
      vertex   3.130000e+002 9.790841e+000 2.034560e+000
    endloop
  endfacet
  facet normal -1.487868e-004 8.878852e-001 4.600650e-001
    outer loop
      vertex   -3.130000e+002 9.422609e+000 3.348796e+000
      vertex   -3.130000e+002 8.796154e+000 4.557800e+000
      vertex   3.130000e+002 8.878852e+000 4.600650e+000
    endloop
  endfacet
  facet normal -1.487868e-004 9.976688e-001 -6.824241e-002
    outer loop
      vertex   3.130000e+002 9.976688e+000 -6.824241e-001
      vertex   -3.130000e+002 9.883764e+000 -6.760680e-001
      vertex   -3.130000e+002 9.976688e+000 6.824241e-001
    endloop
  endfacet
  facet normal 1.487868e-004 9.976688e-001 6.824241e-002
    outer loop
      vertex   -3.130000e+002 9.976688e+000 6.824241e-001
      vertex   3.130000e+002 9.790841e+000 2.034560e+000
      vertex   3.130000e+002 9.976688e+000 -6.824241e-001
    endloop
  endfacet
  facet normal -1.487868e-004 9.790841e-001 2.034560e-001
    outer loop
      vertex   -3.130000e+002 9.976688e+000 6.824241e-001
      vertex   -3.130000e+002 9.699648e+000 2.015610e+000
      vertex   3.130000e+002 9.790841e+000 2.034560e+000
    endloop
  endfacet
  facet normal -1.487868e-004 9.422609e-001 -3.348796e-001
    outer loop
      vertex   3.130000e+002 9.422609e+000 -3.348796e+000
      vertex   -3.130000e+002 9.334847e+000 -3.317605e+000
      vertex   -3.130000e+002 9.790841e+000 -2.034560e+000
    endloop
  endfacet
  facet normal 1.487868e-004 9.790841e-001 -2.034560e-001
    outer loop
      vertex   -3.130000e+002 9.790841e+000 -2.034560e+000
      vertex   3.130000e+002 9.976688e+000 -6.824241e-001
      vertex   3.130000e+002 9.422609e+000 -3.348796e+000
    endloop
  endfacet
  facet normal -1.487868e-004 9.976688e-001 -6.824241e-002
    outer loop
      vertex   -3.130000e+002 9.790841e+000 -2.034560e+000
      vertex   -3.130000e+002 9.883764e+000 -6.760680e-001
      vertex   3.130000e+002 9.976688e+000 -6.824241e-001
    endloop
  endfacet
  facet normal -1.487868e-004 8.169699e-001 -5.766803e-001
    outer loop
      vertex   3.130000e+002 8.169699e+000 -5.766803e+000
      vertex   -3.130000e+002 8.093606e+000 -5.713091e+000
      vertex   -3.130000e+002 8.878852e+000 -4.600650e+000
    endloop
  endfacet
  facet normal 1.487868e-004 8.878852e-001 -4.600650e-001
    outer loop
      vertex   -3.130000e+002 8.878852e+000 -4.600650e+000
      vertex   3.130000e+002 9.422609e+000 -3.348796e+000
      vertex   3.130000e+002 8.169699e+000 -5.766803e+000
    endloop
  endfacet
  facet normal -1.487868e-004 9.422609e-001 -3.348796e-001
    outer loop
      vertex   -3.130000e+002 8.878852e+000 -4.600650e+000
      vertex   -3.130000e+002 9.334847e+000 -3.317605e+000
      vertex   3.130000e+002 9.422609e+000 -3.348796e+000
    endloop
  endfacet
  facet normal -1.487868e-004 6.310879e-001 -7.757113e-001
    outer loop
      vertex   3.130000e+002 6.310879e+000 -7.757113e+000
      vertex   -3.130000e+002 6.252100e+000 -7.684863e+000
      vertex   -3.130000e+002 7.308360e+000 -6.825531e+000
    endloop
  endfacet
  facet normal 1.487868e-004 7.308360e-001 -6.825531e-001
    outer loop
      vertex   -3.130000e+002 7.308360e+000 -6.825531e+000
      vertex   3.130000e+002 8.169699e+000 -5.766803e+000
      vertex   3.130000e+002 6.310879e+000 -7.757113e+000
    endloop
  endfacet
  facet normal -1.487868e-004 8.169699e-001 -5.766803e-001
    outer loop
      vertex   -3.130000e+002 7.308360e+000 -6.825531e+000
      vertex   -3.130000e+002 8.093606e+000 -5.713091e+000
      vertex   3.130000e+002 8.169699e+000 -5.766803e+000
    endloop
  endfacet
  facet normal -1.487868e-004 3.984011e-001 -9.172113e-001
    outer loop
      vertex   3.130000e+002 3.984011e+000 -9.172113e+000
      vertex   -3.130000e+002 3.946904e+000 -9.086683e+000
      vertex   -3.130000e+002 5.195840e+000 -8.544194e+000
    endloop
  endfacet
  facet normal 1.487868e-004 5.195839e-001 -8.544194e-001
    outer loop
      vertex   -3.130000e+002 5.195840e+000 -8.544194e+000
      vertex   3.130000e+002 6.310879e+000 -7.757113e+000
      vertex   3.130000e+002 3.984011e+000 -9.172113e+000
    endloop
  endfacet
  facet normal -1.487868e-004 6.310879e-001 -7.757113e-001
    outer loop
      vertex   -3.130000e+002 5.195840e+000 -8.544194e+000
      vertex   -3.130000e+002 6.252100e+000 -7.684863e+000
      vertex   3.130000e+002 6.310879e+000 -7.757113e+000
    endloop
  endfacet
  facet normal -1.487868e-004 1.361666e-001 -9.906859e-001
    outer loop
      vertex   3.130000e+002 1.361666e+000 -9.906859e+000
      vertex   -3.130000e+002 1.348984e+000 -9.814586e+000
      vertex   -3.130000e+002 2.697968e+000 -9.629173e+000
    endloop
  endfacet
  facet normal 1.487868e-004 2.697968e-001 -9.629173e-001
    outer loop
      vertex   -3.130000e+002 2.697968e+000 -9.629173e+000
      vertex   3.130000e+002 3.984011e+000 -9.172113e+000
      vertex   3.130000e+002 1.361666e+000 -9.906859e+000
    endloop
  endfacet
  facet normal -1.487868e-004 3.984011e-001 -9.172113e-001
    outer loop
      vertex   -3.130000e+002 2.697968e+000 -9.629173e+000
      vertex   -3.130000e+002 3.946904e+000 -9.086683e+000
      vertex   3.130000e+002 3.984011e+000 -9.172113e+000
    endloop
  endfacet
  facet normal -1.487868e-004 -1.361666e-001 -9.906859e-001
    outer loop
      vertex   3.130000e+002 -1.361666e+000 -9.906859e+000
      vertex   -3.130000e+002 -1.348984e+000 -9.814586e+000
      vertex   -3.130000e+002 -2.449294e-015 -1.000000e+001
    endloop
  endfacet
  facet normal 1.487868e-004 6.359679e-016 -1.000000e+000
    outer loop
      vertex   -3.130000e+002 -2.449294e-015 -1.000000e+001
      vertex   3.130000e+002 1.361666e+000 -9.906859e+000
      vertex   3.130000e+002 -1.361666e+000 -9.906859e+000
    endloop
  endfacet
  facet normal -1.487868e-004 1.361666e-001 -9.906859e-001
    outer loop
      vertex   -3.130000e+002 -2.449294e-015 -1.000000e+001
      vertex   -3.130000e+002 1.348984e+000 -9.814586e+000
      vertex   3.130000e+002 1.361666e+000 -9.906859e+000
    endloop
  endfacet
  facet normal -1.487868e-004 -3.984011e-001 -9.172113e-001
    outer loop
      vertex   3.130000e+002 -3.984011e+000 -9.172113e+000
      vertex   -3.130000e+002 -3.946904e+000 -9.086683e+000
      vertex   -3.130000e+002 -2.697968e+000 -9.629173e+000
    endloop
  endfacet
  facet normal 1.487868e-004 -2.697968e-001 -9.629173e-001
    outer loop
      vertex   -3.130000e+002 -2.697968e+000 -9.629173e+000
      vertex   3.130000e+002 -1.361666e+000 -9.906859e+000
      vertex   3.130000e+002 -3.984011e+000 -9.172113e+000
    endloop
  endfacet
  facet normal -1.487868e-004 -1.361666e-001 -9.906859e-001
    outer loop
      vertex   -3.130000e+002 -2.697968e+000 -9.629173e+000
      vertex   -3.130000e+002 -1.348984e+000 -9.814586e+000
      vertex   3.130000e+002 -1.361666e+000 -9.906859e+000
    endloop
  endfacet
  facet normal -1.487868e-004 -6.310879e-001 -7.757113e-001
    outer loop
      vertex   3.130000e+002 -6.310879e+000 -7.757113e+000
      vertex   -3.130000e+002 -6.252100e+000 -7.684863e+000
      vertex   -3.130000e+002 -5.195840e+000 -8.544194e+000
    endloop
  endfacet
  facet normal 1.487868e-004 -5.195839e-001 -8.544194e-001
    outer loop
      vertex   -3.130000e+002 -5.195840e+000 -8.544194e+000
      vertex   3.130000e+002 -3.984011e+000 -9.172113e+000
      vertex   3.130000e+002 -6.310879e+000 -7.757113e+000
    endloop
  endfacet
  facet normal -1.487868e-004 -3.984011e-001 -9.172113e-001
    outer loop
      vertex   -3.130000e+002 -5.195840e+000 -8.544194e+000
      vertex   -3.130000e+002 -3.946904e+000 -9.086683e+000
      vertex   3.130000e+002 -3.984011e+000 -9.172113e+000
    endloop
  endfacet
  facet normal -1.487868e-004 -8.169699e-001 -5.766803e-001
    outer loop
      vertex   3.130000e+002 -8.169699e+000 -5.766803e+000
      vertex   -3.130000e+002 -8.093606e+000 -5.713091e+000
      vertex   -3.130000e+002 -7.308360e+000 -6.825531e+000
    endloop
  endfacet
  facet normal 1.487868e-004 -7.308360e-001 -6.825531e-001
    outer loop
      vertex   -3.130000e+002 -7.308360e+000 -6.825531e+000
      vertex   3.130000e+002 -6.310879e+000 -7.757113e+000
      vertex   3.130000e+002 -8.169699e+000 -5.766803e+000
    endloop
  endfacet
  facet normal -1.487868e-004 -6.310879e-001 -7.757113e-001
    outer loop
      vertex   -3.130000e+002 -7.308360e+000 -6.825531e+000
      vertex   -3.130000e+002 -6.252100e+000 -7.684863e+000
      vertex   3.130000e+002 -6.310879e+000 -7.757113e+000
    endloop
  endfacet
  facet normal -1.487868e-004 -9.422609e-001 -3.348796e-001
    outer loop
      vertex   3.130000e+002 -9.422609e+000 -3.348796e+000
      vertex   -3.130000e+002 -9.334847e+000 -3.317605e+000
      vertex   -3.130000e+002 -8.878852e+000 -4.600650e+000
    endloop
  endfacet
  facet normal 1.487868e-004 -8.878852e-001 -4.600650e-001
    outer loop
      vertex   -3.130000e+002 -8.878852e+000 -4.600650e+000
      vertex   3.130000e+002 -8.169699e+000 -5.766803e+000
      vertex   3.130000e+002 -9.422609e+000 -3.348796e+000
    endloop
  endfacet
  facet normal -1.487868e-004 -8.169699e-001 -5.766803e-001
    outer loop
      vertex   -3.130000e+002 -8.878852e+000 -4.600650e+000
      vertex   -3.130000e+002 -8.093606e+000 -5.713091e+000
      vertex   3.130000e+002 -8.169699e+000 -5.766803e+000
    endloop
  endfacet
  facet normal -1.487868e-004 -9.976688e-001 -6.824241e-002
    outer loop
      vertex   3.130000e+002 -9.976688e+000 -6.824241e-001
      vertex   -3.130000e+002 -9.883764e+000 -6.760680e-001
      vertex   -3.130000e+002 -9.790841e+000 -2.034560e+000
    endloop
  endfacet
  facet normal 1.487868e-004 -9.790841e-001 -2.034560e-001
    outer loop
      vertex   -3.130000e+002 -9.790841e+000 -2.034560e+000
      vertex   3.130000e+002 -9.422609e+000 -3.348796e+000
      vertex   3.130000e+002 -9.976688e+000 -6.824241e-001
    endloop
  endfacet
  facet normal -1.487868e-004 -9.422609e-001 -3.348796e-001
    outer loop
      vertex   -3.130000e+002 -9.790841e+000 -2.034560e+000
      vertex   -3.130000e+002 -9.334847e+000 -3.317605e+000
      vertex   3.130000e+002 -9.422609e+000 -3.348796e+000
    endloop
  endfacet
  facet normal -1.487868e-004 -9.790841e-001 2.034560e-001
    outer loop
      vertex   3.130000e+002 -9.790841e+000 2.034560e+000
      vertex   -3.130000e+002 -9.699648e+000 2.015610e+000
      vertex   -3.130000e+002 -9.976688e+000 6.824241e-001
    endloop
  endfacet
  facet normal 1.487868e-004 -9.976688e-001 6.824241e-002
    outer loop
      vertex   -3.130000e+002 -9.976688e+000 6.824241e-001
      vertex   3.130000e+002 -9.976688e+000 -6.824241e-001
      vertex   3.130000e+002 -9.790841e+000 2.034560e+000
    endloop
  endfacet
  facet normal -1.487868e-004 -9.976688e-001 -6.824241e-002
    outer loop
      vertex   -3.130000e+002 -9.976688e+000 6.824241e-001
      vertex   -3.130000e+002 -9.883764e+000 -6.760680e-001
      vertex   3.130000e+002 -9.976688e+000 -6.824241e-001
    endloop
  endfacet
  facet normal -1.487868e-004 -8.878852e-001 4.600650e-001
    outer loop
      vertex   3.130000e+002 -8.878852e+000 4.600650e+000
      vertex   -3.130000e+002 -8.796154e+000 4.557800e+000
      vertex   -3.130000e+002 -9.422609e+000 3.348796e+000
    endloop
  endfacet
  facet normal 1.487868e-004 -9.422609e-001 3.348796e-001
    outer loop
      vertex   -3.130000e+002 -9.422609e+000 3.348796e+000
      vertex   3.130000e+002 -9.790841e+000 2.034560e+000
      vertex   3.130000e+002 -8.878852e+000 4.600650e+000
    endloop
  endfacet
  facet normal -1.487868e-004 -9.790841e-001 2.034560e-001
    outer loop
      vertex   -3.130000e+002 -9.422609e+000 3.348796e+000
      vertex   -3.130000e+002 -9.699648e+000 2.015610e+000
      vertex   3.130000e+002 -9.790841e+000 2.034560e+000
    endloop
  endfacet
  facet normal -1.487868e-004 -7.308360e-001 6.825531e-001
    outer loop
      vertex   3.130000e+002 -7.308360e+000 6.825531e+000
      vertex   -3.130000e+002 -7.240289e+000 6.761958e+000
      vertex   -3.130000e+002 -8.169699e+000 5.766803e+000
    endloop
  endfacet
  facet normal 1.487868e-004 -8.169699e-001 5.766803e-001
    outer loop
      vertex   -3.130000e+002 -8.169699e+000 5.766803e+000
      vertex   3.130000e+002 -8.878852e+000 4.600650e+000
      vertex   3.130000e+002 -7.308360e+000 6.825531e+000
    endloop
  endfacet
  facet normal -1.487868e-004 -8.878852e-001 4.600650e-001
    outer loop
      vertex   -3.130000e+002 -8.169699e+000 5.766803e+000
      vertex   -3.130000e+002 -8.796154e+000 4.557800e+000
      vertex   3.130000e+002 -8.878852e+000 4.600650e+000
    endloop
  endfacet
  facet normal -1.487868e-004 -5.195839e-001 8.544194e-001
    outer loop
      vertex   3.130000e+002 -5.195840e+000 8.544194e+000
      vertex   -3.130000e+002 -5.147445e+000 8.464613e+000
      vertex   -3.130000e+002 -6.310879e+000 7.757113e+000
    endloop
  endfacet
  facet normal 1.487868e-004 -6.310879e-001 7.757113e-001
    outer loop
      vertex   -3.130000e+002 -6.310879e+000 7.757113e+000
      vertex   3.130000e+002 -7.308360e+000 6.825531e+000
      vertex   3.130000e+002 -5.195840e+000 8.544194e+000
    endloop
  endfacet
  facet normal -1.487868e-004 -7.308360e-001 6.825531e-001
    outer loop
      vertex   -3.130000e+002 -6.310879e+000 7.757113e+000
      vertex   -3.130000e+002 -7.240289e+000 6.761958e+000
      vertex   3.130000e+002 -7.308360e+000 6.825531e+000
    endloop
  endfacet
  facet normal -1.487868e-004 -2.697968e-001 9.629173e-001
    outer loop
      vertex   3.130000e+002 -2.697968e+000 9.629173e+000
      vertex   -3.130000e+002 -2.672839e+000 9.539486e+000
      vertex   -3.130000e+002 -3.984011e+000 9.172113e+000
    endloop
  endfacet
  facet normal 1.487868e-004 -3.984011e-001 9.172113e-001
    outer loop
      vertex   -3.130000e+002 -3.984011e+000 9.172113e+000
      vertex   3.130000e+002 -5.195840e+000 8.544194e+000
      vertex   3.130000e+002 -2.697968e+000 9.629173e+000
    endloop
  endfacet
  facet normal -1.487868e-004 -5.195839e-001 8.544194e-001
    outer loop
      vertex   -3.130000e+002 -3.984011e+000 9.172113e+000
      vertex   -3.130000e+002 -5.147445e+000 8.464613e+000
      vertex   3.130000e+002 -5.195840e+000 8.544194e+000
    endloop
  endfacet
  facet normal -1.335030e-019 -6.824241e-002 9.976688e-001
    outer loop
      vertex   3.130000e+002 0.000000e+000 1.000000e+001
      vertex   -3.130000e+002 1.224647e-015 1.000000e+001
      vertex   -3.130000e+002 -1.361666e+000 9.906859e+000
    endloop
  endfacet
  facet normal 1.487868e-004 -1.361666e-001 9.906859e-001
    outer loop
      vertex   -3.130000e+002 -1.361666e+000 9.906859e+000
      vertex   3.130000e+002 -2.697968e+000 9.629173e+000
      vertex   3.130000e+002 0.000000e+000 1.000000e+001
    endloop
  endfacet
  facet normal -1.487868e-004 -2.697968e-001 9.629173e-001
    outer loop
      vertex   -3.130000e+002 -1.361666e+000 9.906859e+000
      vertex   -3.130000e+002 -2.672839e+000 9.539486e+000
      vertex   3.130000e+002 -2.697968e+000 9.629173e+000
    endloop
  endfacet
  facet normal -7.037907e-001 9.673380e-002 -7.037907e-001
    outer loop
      vertex   -3.150000e+002 0.000000e+000 -8.000000e+000
      vertex   -3.150000e+002 2.158374e+000 -7.703338e+000
      vertex   -3.130000e+002 1.348984e+000 -9.814586e+000
    endloop
  endfacet
  facet normal -7.037907e-001 9.673380e-002 -7.037907e-001
    outer loop
      vertex   -3.150000e+002 2.158374e+000 -7.703338e+000
      vertex   -3.130000e+002 2.697968e+000 -9.629173e+000
      vertex   -3.130000e+002 1.348984e+000 -9.814586e+000
    endloop
  endfacet
  facet normal -7.037907e-001 2.830271e-001 -6.515937e-001
    outer loop
      vertex   -3.150000e+002 2.158374e+000 -7.703338e+000
      vertex   -3.150000e+002 4.156672e+000 -6.835355e+000
      vertex   -3.130000e+002 3.946904e+000 -9.086683e+000
    endloop
  endfacet
  facet normal -7.037907e-001 2.830271e-001 -6.515937e-001
    outer loop
      vertex   -3.150000e+002 4.156672e+000 -6.835355e+000
      vertex   -3.130000e+002 5.195840e+000 -8.544194e+000
      vertex   -3.130000e+002 3.946904e+000 -9.086683e+000
    endloop
  endfacet
  facet normal -7.037907e-001 4.483296e-001 -5.510711e-001
    outer loop
      vertex   -3.150000e+002 4.156672e+000 -6.835355e+000
      vertex   -3.150000e+002 5.846688e+000 -5.460425e+000
      vertex   -3.130000e+002 6.252100e+000 -7.684863e+000
    endloop
  endfacet
  facet normal -7.037907e-001 4.483296e-001 -5.510711e-001
    outer loop
      vertex   -3.150000e+002 5.846688e+000 -5.460425e+000
      vertex   -3.130000e+002 7.308360e+000 -6.825531e+000
      vertex   -3.130000e+002 6.252100e+000 -7.684863e+000
    endloop
  endfacet
  facet normal -7.037907e-001 5.803815e-001 -4.096780e-001
    outer loop
      vertex   -3.150000e+002 5.846688e+000 -5.460425e+000
      vertex   -3.150000e+002 7.103082e+000 -3.680520e+000
      vertex   -3.130000e+002 8.093606e+000 -5.713091e+000
    endloop
  endfacet
  facet normal -7.037907e-001 5.803815e-001 -4.096780e-001
    outer loop
      vertex   -3.150000e+002 7.103082e+000 -3.680520e+000
      vertex   -3.130000e+002 8.878852e+000 -4.600650e+000
      vertex   -3.130000e+002 8.093606e+000 -5.713091e+000
    endloop
  endfacet
  facet normal -7.037907e-001 6.693892e-001 -2.379010e-001
    outer loop
      vertex   -3.150000e+002 7.103082e+000 -3.680520e+000
      vertex   -3.150000e+002 7.832673e+000 -1.627648e+000
      vertex   -3.130000e+002 9.334847e+000 -3.317605e+000
    endloop
  endfacet
  facet normal -7.037907e-001 6.693892e-001 -2.379010e-001
    outer loop
      vertex   -3.150000e+002 7.832673e+000 -1.627648e+000
      vertex   -3.130000e+002 9.790841e+000 -2.034560e+000
      vertex   -3.130000e+002 9.334847e+000 -3.317605e+000
    endloop
  endfacet
  facet normal -7.037907e-001 7.087513e-001 -4.847992e-002
    outer loop
      vertex   -3.150000e+002 7.832673e+000 -1.627648e+000
      vertex   -3.150000e+002 7.981350e+000 5.459393e-001
      vertex   -3.130000e+002 9.883764e+000 -6.760680e-001
    endloop
  endfacet
  facet normal -7.037907e-001 7.087513e-001 -4.847992e-002
    outer loop
      vertex   -3.150000e+002 7.981350e+000 5.459393e-001
      vertex   -3.130000e+002 9.976688e+000 6.824241e-001
      vertex   -3.130000e+002 9.883764e+000 -6.760680e-001
    endloop
  endfacet
  facet normal -7.037907e-001 6.955486e-001 1.445367e-001
    outer loop
      vertex   -3.150000e+002 7.981350e+000 5.459393e-001
      vertex   -3.150000e+002 7.538087e+000 2.679037e+000
      vertex   -3.130000e+002 9.699648e+000 2.015610e+000
    endloop
  endfacet
  facet normal -7.037907e-001 6.955486e-001 1.445367e-001
    outer loop
      vertex   -3.150000e+002 7.538087e+000 2.679037e+000
      vertex   -3.130000e+002 9.422609e+000 3.348796e+000
      vertex   -3.130000e+002 9.699648e+000 2.015610e+000
    endloop
  endfacet
  facet normal -7.037907e-001 6.307603e-001 3.268336e-001
    outer loop
      vertex   -3.150000e+002 7.538087e+000 2.679037e+000
      vertex   -3.150000e+002 6.535759e+000 4.613443e+000
      vertex   -3.130000e+002 8.796154e+000 4.557800e+000
    endloop
  endfacet
  facet normal -7.037907e-001 6.307603e-001 3.268336e-001
    outer loop
      vertex   -3.150000e+002 6.535759e+000 4.613443e+000
      vertex   -3.130000e+002 8.169699e+000 5.766803e+000
      vertex   -3.130000e+002 8.796154e+000 4.557800e+000
    endloop
  endfacet
  facet normal -7.037907e-001 5.191913e-001 4.848908e-001
    outer loop
      vertex   -3.150000e+002 6.535759e+000 4.613443e+000
      vertex   -3.150000e+002 5.048704e+000 6.205690e+000
      vertex   -3.130000e+002 7.240289e+000 6.761958e+000
    endloop
  endfacet
  facet normal -7.037907e-001 5.191913e-001 4.848908e-001
    outer loop
      vertex   -3.150000e+002 5.048704e+000 6.205690e+000
      vertex   -3.130000e+002 6.310879e+000 7.757113e+000
      vertex   -3.130000e+002 7.240289e+000 6.761958e+000
    endloop
  endfacet
  facet normal -7.037907e-001 3.691163e-001 6.069859e-001
    outer loop
      vertex   -3.150000e+002 5.048704e+000 6.205690e+000
      vertex   -3.150000e+002 3.187209e+000 7.337690e+000
      vertex   -3.130000e+002 5.147445e+000 8.464613e+000
    endloop
  endfacet
  facet normal -7.037907e-001 3.691163e-001 6.069859e-001
    outer loop
      vertex   -3.150000e+002 3.187209e+000 7.337690e+000
      vertex   -3.130000e+002 3.984011e+000 9.172113e+000
      vertex   -3.130000e+002 5.147445e+000 8.464613e+000
    endloop
  endfacet
  facet normal -7.037907e-001 1.916656e-001 6.840636e-001
    outer loop
      vertex   -3.150000e+002 3.187209e+000 7.337690e+000
      vertex   -3.150000e+002 1.089333e+000 7.925488e+000
      vertex   -3.130000e+002 2.672839e+000 9.539486e+000
    endloop
  endfacet
  facet normal -7.037907e-001 1.916656e-001 6.840636e-001
    outer loop
      vertex   -3.150000e+002 1.089333e+000 7.925488e+000
      vertex   -3.130000e+002 1.361666e+000 9.906859e+000
      vertex   -3.130000e+002 2.672839e+000 9.539486e+000
    endloop
  endfacet
  facet normal -7.199176e-001 5.526323e-016 6.940596e-001
    outer loop
      vertex   -3.150000e+002 1.089333e+000 7.925488e+000
      vertex   -3.150000e+002 -1.089333e+000 7.925488e+000
      vertex   -3.130000e+002 1.224647e-015 1.000000e+001
    endloop
  endfacet
  facet normal -7.062811e-001 -4.831095e-002 7.062811e-001
    outer loop
      vertex   -3.150000e+002 -1.089333e+000 7.925488e+000
      vertex   -3.130000e+002 -1.361666e+000 9.906859e+000
      vertex   -3.130000e+002 1.224647e-015 1.000000e+001
    endloop
  endfacet
  facet normal -7.037907e-001 -1.916656e-001 6.840636e-001
    outer loop
      vertex   -3.150000e+002 -1.089333e+000 7.925488e+000
      vertex   -3.150000e+002 -3.187209e+000 7.337690e+000
      vertex   -3.130000e+002 -2.672839e+000 9.539486e+000
    endloop
  endfacet
  facet normal -7.037907e-001 -1.916656e-001 6.840636e-001
    outer loop
      vertex   -3.150000e+002 -3.187209e+000 7.337690e+000
      vertex   -3.130000e+002 -3.984011e+000 9.172113e+000
      vertex   -3.130000e+002 -2.672839e+000 9.539486e+000
    endloop
  endfacet
  facet normal -7.037907e-001 -3.691163e-001 6.069859e-001
    outer loop
      vertex   -3.150000e+002 -3.187209e+000 7.337690e+000
      vertex   -3.150000e+002 -5.048704e+000 6.205690e+000
      vertex   -3.130000e+002 -5.147445e+000 8.464613e+000
    endloop
  endfacet
  facet normal -7.037907e-001 -3.691163e-001 6.069859e-001
    outer loop
      vertex   -3.150000e+002 -5.048704e+000 6.205690e+000
      vertex   -3.130000e+002 -6.310879e+000 7.757113e+000
      vertex   -3.130000e+002 -5.147445e+000 8.464613e+000
    endloop
  endfacet
  facet normal -7.037907e-001 -5.191913e-001 4.848908e-001
    outer loop
      vertex   -3.150000e+002 -5.048704e+000 6.205690e+000
      vertex   -3.150000e+002 -6.535759e+000 4.613443e+000
      vertex   -3.130000e+002 -7.240289e+000 6.761958e+000
    endloop
  endfacet
  facet normal -7.037907e-001 -5.191913e-001 4.848908e-001
    outer loop
      vertex   -3.150000e+002 -6.535759e+000 4.613443e+000
      vertex   -3.130000e+002 -8.169699e+000 5.766803e+000
      vertex   -3.130000e+002 -7.240289e+000 6.761958e+000
    endloop
  endfacet
  facet normal -7.037907e-001 -6.307603e-001 3.268336e-001
    outer loop
      vertex   -3.150000e+002 -6.535759e+000 4.613443e+000
      vertex   -3.150000e+002 -7.538087e+000 2.679037e+000
      vertex   -3.130000e+002 -8.796154e+000 4.557800e+000
    endloop
  endfacet
  facet normal -7.037907e-001 -6.307603e-001 3.268336e-001
    outer loop
      vertex   -3.150000e+002 -7.538087e+000 2.679037e+000
      vertex   -3.130000e+002 -9.422609e+000 3.348796e+000
      vertex   -3.130000e+002 -8.796154e+000 4.557800e+000
    endloop
  endfacet
  facet normal -7.037907e-001 -6.955486e-001 1.445367e-001
    outer loop
      vertex   -3.150000e+002 -7.538087e+000 2.679037e+000
      vertex   -3.150000e+002 -7.981350e+000 5.459393e-001
      vertex   -3.130000e+002 -9.699648e+000 2.015610e+000
    endloop
  endfacet
  facet normal -7.037907e-001 -6.955486e-001 1.445367e-001
    outer loop
      vertex   -3.150000e+002 -7.981350e+000 5.459393e-001
      vertex   -3.130000e+002 -9.976688e+000 6.824241e-001
      vertex   -3.130000e+002 -9.699648e+000 2.015610e+000
    endloop
  endfacet
  facet normal -7.037907e-001 -7.087513e-001 -4.847992e-002
    outer loop
      vertex   -3.150000e+002 -7.832673e+000 -1.627648e+000
      vertex   -3.130000e+002 -9.790841e+000 -2.034560e+000
      vertex   -3.130000e+002 -9.883764e+000 -6.760680e-001
    endloop
  endfacet
  facet normal -7.069006e-001 -7.069006e-001 2.414845e-002
    outer loop
      vertex   -3.130000e+002 -9.976688e+000 6.824241e-001
      vertex   -3.150000e+002 -7.981350e+000 5.459393e-001
      vertex   -3.150000e+002 -8.000000e+000 7.102830e-015
    endloop
  endfacet
  facet normal -6.935638e-001 -7.187158e-001 -4.916151e-002
    outer loop
      vertex   -3.150000e+002 -8.000000e+000 7.102830e-015
      vertex   -3.130000e+002 -9.883764e+000 -6.760680e-001
      vertex   -3.130000e+002 -9.976688e+000 6.824241e-001
    endloop
  endfacet
  facet normal -7.037907e-001 -6.693892e-001 -2.379010e-001
    outer loop
      vertex   -3.150000e+002 -7.832673e+000 -1.627648e+000
      vertex   -3.150000e+002 -7.103082e+000 -3.680520e+000
      vertex   -3.130000e+002 -9.334847e+000 -3.317605e+000
    endloop
  endfacet
  facet normal -7.037907e-001 -6.693892e-001 -2.379010e-001
    outer loop
      vertex   -3.150000e+002 -7.103082e+000 -3.680520e+000
      vertex   -3.130000e+002 -8.878852e+000 -4.600650e+000
      vertex   -3.130000e+002 -9.334847e+000 -3.317605e+000
    endloop
  endfacet
  facet normal -7.037907e-001 -5.803815e-001 -4.096780e-001
    outer loop
      vertex   -3.150000e+002 -7.103082e+000 -3.680520e+000
      vertex   -3.150000e+002 -5.846688e+000 -5.460425e+000
      vertex   -3.130000e+002 -8.093606e+000 -5.713091e+000
    endloop
  endfacet
  facet normal -7.037907e-001 -5.803815e-001 -4.096780e-001
    outer loop
      vertex   -3.150000e+002 -5.846688e+000 -5.460425e+000
      vertex   -3.130000e+002 -7.308360e+000 -6.825531e+000
      vertex   -3.130000e+002 -8.093606e+000 -5.713091e+000
    endloop
  endfacet
  facet normal -7.037907e-001 -4.483296e-001 -5.510711e-001
    outer loop
      vertex   -3.150000e+002 -5.846688e+000 -5.460425e+000
      vertex   -3.150000e+002 -4.156672e+000 -6.835355e+000
      vertex   -3.130000e+002 -6.252100e+000 -7.684863e+000
    endloop
  endfacet
  facet normal -7.037907e-001 -4.483296e-001 -5.510711e-001
    outer loop
      vertex   -3.150000e+002 -4.156672e+000 -6.835355e+000
      vertex   -3.130000e+002 -5.195840e+000 -8.544194e+000
      vertex   -3.130000e+002 -6.252100e+000 -7.684863e+000
    endloop
  endfacet
  facet normal -7.037907e-001 -2.830271e-001 -6.515937e-001
    outer loop
      vertex   -3.150000e+002 -4.156672e+000 -6.835355e+000
      vertex   -3.150000e+002 -2.158374e+000 -7.703338e+000
      vertex   -3.130000e+002 -3.946904e+000 -9.086683e+000
    endloop
  endfacet
  facet normal -7.037907e-001 -2.830271e-001 -6.515937e-001
    outer loop
      vertex   -3.150000e+002 -2.158374e+000 -7.703338e+000
      vertex   -3.130000e+002 -2.697968e+000 -9.629173e+000
      vertex   -3.130000e+002 -3.946904e+000 -9.086683e+000
    endloop
  endfacet
  facet normal -7.037907e-001 -9.673380e-002 -7.037907e-001
    outer loop
      vertex   -3.150000e+002 -2.158374e+000 -7.703338e+000
      vertex   -3.150000e+002 0.000000e+000 -8.000000e+000
      vertex   -3.130000e+002 -1.348984e+000 -9.814586e+000
    endloop
  endfacet
  facet normal -7.037907e-001 -9.673380e-002 -7.037907e-001
    outer loop
      vertex   -3.150000e+002 0.000000e+000 -8.000000e+000
      vertex   -3.130000e+002 -2.449294e-015 -1.000000e+001
      vertex   -3.130000e+002 -1.348984e+000 -9.814586e+000
    endloop
  endfacet
  facet normal -7.037907e-001 -9.673380e-002 -7.037907e-001
    outer loop
      vertex   -3.130000e+002 -1.348984e+000 -9.814586e+000
      vertex   -3.130000e+002 -2.697968e+000 -9.629173e+000
      vertex   -3.150000e+002 -2.158374e+000 -7.703338e+000
    endloop
  endfacet
  facet normal -7.037907e-001 -2.830271e-001 -6.515937e-001
    outer loop
      vertex   -3.130000e+002 -3.946904e+000 -9.086683e+000
      vertex   -3.130000e+002 -5.195840e+000 -8.544194e+000
      vertex   -3.150000e+002 -4.156672e+000 -6.835355e+000
    endloop
  endfacet
  facet normal -7.037907e-001 -4.483296e-001 -5.510711e-001
    outer loop
      vertex   -3.130000e+002 -6.252100e+000 -7.684863e+000
      vertex   -3.130000e+002 -7.308360e+000 -6.825531e+000
      vertex   -3.150000e+002 -5.846688e+000 -5.460425e+000
    endloop
  endfacet
  facet normal -7.037907e-001 -5.803815e-001 -4.096780e-001
    outer loop
      vertex   -3.130000e+002 -8.093606e+000 -5.713091e+000
      vertex   -3.130000e+002 -8.878852e+000 -4.600650e+000
      vertex   -3.150000e+002 -7.103082e+000 -3.680520e+000
    endloop
  endfacet
  facet normal -7.037907e-001 -6.693892e-001 -2.379010e-001
    outer loop
      vertex   -3.130000e+002 -9.334847e+000 -3.317605e+000
      vertex   -3.130000e+002 -9.790841e+000 -2.034560e+000
      vertex   -3.150000e+002 -7.832673e+000 -1.627648e+000
    endloop
  endfacet
  facet normal -6.968168e-001 -7.134888e-001 -7.334887e-002
    outer loop
      vertex   -3.130000e+002 -9.883764e+000 -6.760680e-001
      vertex   -3.150000e+002 -8.000000e+000 7.102830e-015
      vertex   -3.150000e+002 -7.832673e+000 -1.627648e+000
    endloop
  endfacet
  facet normal -7.037907e-001 -6.955486e-001 1.445367e-001
    outer loop
      vertex   -3.130000e+002 -9.699648e+000 2.015610e+000
      vertex   -3.130000e+002 -9.422609e+000 3.348796e+000
      vertex   -3.150000e+002 -7.538087e+000 2.679037e+000
    endloop
  endfacet
  facet normal -7.037907e-001 -6.307603e-001 3.268336e-001
    outer loop
      vertex   -3.130000e+002 -8.796154e+000 4.557800e+000
      vertex   -3.130000e+002 -8.169699e+000 5.766803e+000
      vertex   -3.150000e+002 -6.535759e+000 4.613443e+000
    endloop
  endfacet
  facet normal -7.037907e-001 -5.191913e-001 4.848908e-001
    outer loop
      vertex   -3.130000e+002 -7.240289e+000 6.761958e+000
      vertex   -3.130000e+002 -6.310879e+000 7.757113e+000
      vertex   -3.150000e+002 -5.048704e+000 6.205690e+000
    endloop
  endfacet
  facet normal -7.037907e-001 -3.691163e-001 6.069859e-001
    outer loop
      vertex   -3.130000e+002 -5.147445e+000 8.464613e+000
      vertex   -3.130000e+002 -3.984011e+000 9.172113e+000
      vertex   -3.150000e+002 -3.187209e+000 7.337690e+000
    endloop
  endfacet
  facet normal -7.037907e-001 -1.916656e-001 6.840636e-001
    outer loop
      vertex   -3.130000e+002 -2.672839e+000 9.539486e+000
      vertex   -3.130000e+002 -1.361666e+000 9.906859e+000
      vertex   -3.150000e+002 -1.089333e+000 7.925488e+000
    endloop
  endfacet
  facet normal -7.062811e-001 4.831095e-002 7.062811e-001
    outer loop
      vertex   -3.130000e+002 1.224647e-015 1.000000e+001
      vertex   -3.130000e+002 1.361666e+000 9.906859e+000
      vertex   -3.150000e+002 1.089333e+000 7.925488e+000
    endloop
  endfacet
  facet normal -7.037907e-001 1.916656e-001 6.840636e-001
    outer loop
      vertex   -3.130000e+002 2.672839e+000 9.539486e+000
      vertex   -3.130000e+002 3.984011e+000 9.172113e+000
      vertex   -3.150000e+002 3.187209e+000 7.337690e+000
    endloop
  endfacet
  facet normal -7.037907e-001 3.691163e-001 6.069859e-001
    outer loop
      vertex   -3.130000e+002 5.147445e+000 8.464613e+000
      vertex   -3.130000e+002 6.310879e+000 7.757113e+000
      vertex   -3.150000e+002 5.048704e+000 6.205690e+000
    endloop
  endfacet
  facet normal -7.037907e-001 5.191913e-001 4.848908e-001
    outer loop
      vertex   -3.130000e+002 7.240289e+000 6.761958e+000
      vertex   -3.130000e+002 8.169699e+000 5.766803e+000
      vertex   -3.150000e+002 6.535759e+000 4.613443e+000
    endloop
  endfacet
  facet normal -7.037907e-001 6.307603e-001 3.268336e-001
    outer loop
      vertex   -3.130000e+002 8.796154e+000 4.557800e+000
      vertex   -3.130000e+002 9.422609e+000 3.348796e+000
      vertex   -3.150000e+002 7.538087e+000 2.679037e+000
    endloop
  endfacet
  facet normal -7.037907e-001 6.955486e-001 1.445367e-001
    outer loop
      vertex   -3.130000e+002 9.699648e+000 2.015610e+000
      vertex   -3.130000e+002 9.976688e+000 6.824241e-001
      vertex   -3.150000e+002 7.981350e+000 5.459393e-001
    endloop
  endfacet
  facet normal -7.037907e-001 7.087513e-001 -4.847992e-002
    outer loop
      vertex   -3.130000e+002 9.883764e+000 -6.760680e-001
      vertex   -3.130000e+002 9.790841e+000 -2.034560e+000
      vertex   -3.150000e+002 7.832673e+000 -1.627648e+000
    endloop
  endfacet
  facet normal -7.037907e-001 6.693892e-001 -2.379010e-001
    outer loop
      vertex   -3.130000e+002 9.334847e+000 -3.317605e+000
      vertex   -3.130000e+002 8.878852e+000 -4.600650e+000
      vertex   -3.150000e+002 7.103082e+000 -3.680520e+000
    endloop
  endfacet
  facet normal -7.037907e-001 5.803815e-001 -4.096780e-001
    outer loop
      vertex   -3.130000e+002 8.093606e+000 -5.713091e+000
      vertex   -3.130000e+002 7.308360e+000 -6.825531e+000
      vertex   -3.150000e+002 5.846688e+000 -5.460425e+000
    endloop
  endfacet
  facet normal -7.037907e-001 4.483296e-001 -5.510711e-001
    outer loop
      vertex   -3.130000e+002 6.252100e+000 -7.684863e+000
      vertex   -3.130000e+002 5.195840e+000 -8.544194e+000
      vertex   -3.150000e+002 4.156672e+000 -6.835355e+000
    endloop
  endfacet
  facet normal -7.037907e-001 2.830271e-001 -6.515937e-001
    outer loop
      vertex   -3.130000e+002 3.946904e+000 -9.086683e+000
      vertex   -3.130000e+002 2.697968e+000 -9.629173e+000
      vertex   -3.150000e+002 2.158374e+000 -7.703338e+000
    endloop
  endfacet
  facet normal -7.037907e-001 9.673380e-002 -7.037907e-001
    outer loop
      vertex   -3.130000e+002 1.348984e+000 -9.814586e+000
      vertex   -3.130000e+002 -2.449294e-015 -1.000000e+001
      vertex   -3.150000e+002 0.000000e+000 -8.000000e+000
    endloop
  endfacet
  facet normal -1.000000e+000 0.000000e+000 0.000000e+000
    outer loop
      vertex   -3.150000e+002 0.000000e+000 3.673819e-015
      vertex   -3.150000e+002 -7.981350e+000 5.459393e-001
      vertex   -3.150000e+002 -7.538087e+000 2.679037e+000
    endloop
  endfacet
  facet normal -1.000000e+000 0.000000e+000 0.000000e+000
    outer loop
      vertex   -3.150000e+002 -7.538087e+000 2.679037e+000
      vertex   -3.150000e+002 -6.535759e+000 4.613443e+000
      vertex   -3.150000e+002 0.000000e+000 3.673819e-015
    endloop
  endfacet
  facet normal -1.000000e+000 0.000000e+000 0.000000e+000
    outer loop
      vertex   -3.150000e+002 -6.535759e+000 4.613443e+000
      vertex   -3.150000e+002 -5.048704e+000 6.205690e+000
      vertex   -3.150000e+002 0.000000e+000 3.673819e-015
    endloop
  endfacet
  facet normal -1.000000e+000 0.000000e+000 0.000000e+000
    outer loop
      vertex   -3.150000e+002 -5.048704e+000 6.205690e+000
      vertex   -3.150000e+002 -3.187209e+000 7.337690e+000
      vertex   -3.150000e+002 0.000000e+000 3.673819e-015
    endloop
  endfacet
  facet normal -1.000000e+000 0.000000e+000 0.000000e+000
    outer loop
      vertex   -3.150000e+002 -3.187209e+000 7.337690e+000
      vertex   -3.150000e+002 -1.089333e+000 7.925488e+000
      vertex   -3.150000e+002 0.000000e+000 3.673819e-015
    endloop
  endfacet
  facet normal -1.000000e+000 0.000000e+000 0.000000e+000
    outer loop
      vertex   -3.150000e+002 -1.089333e+000 7.925488e+000
      vertex   -3.150000e+002 1.089333e+000 7.925488e+000
      vertex   -3.150000e+002 0.000000e+000 3.673819e-015
    endloop
  endfacet
  facet normal -1.000000e+000 0.000000e+000 -0.000000e+000
    outer loop
      vertex   -3.150000e+002 1.089333e+000 7.925488e+000
      vertex   -3.150000e+002 3.187209e+000 7.337690e+000
      vertex   -3.150000e+002 0.000000e+000 3.673819e-015
    endloop
  endfacet
  facet normal -1.000000e+000 0.000000e+000 -0.000000e+000
    outer loop
      vertex   -3.150000e+002 3.187209e+000 7.337690e+000
      vertex   -3.150000e+002 5.048704e+000 6.205690e+000
      vertex   -3.150000e+002 0.000000e+000 3.673819e-015
    endloop
  endfacet
  facet normal -1.000000e+000 0.000000e+000 -0.000000e+000
    outer loop
      vertex   -3.150000e+002 5.048704e+000 6.205690e+000
      vertex   -3.150000e+002 6.535759e+000 4.613443e+000
      vertex   -3.150000e+002 0.000000e+000 3.673819e-015
    endloop
  endfacet
  facet normal -1.000000e+000 0.000000e+000 -0.000000e+000
    outer loop
      vertex   -3.150000e+002 6.535759e+000 4.613443e+000
      vertex   -3.150000e+002 7.538087e+000 2.679037e+000
      vertex   -3.150000e+002 0.000000e+000 3.673819e-015
    endloop
  endfacet
  facet normal -1.000000e+000 0.000000e+000 -0.000000e+000
    outer loop
      vertex   -3.150000e+002 7.538087e+000 2.679037e+000
      vertex   -3.150000e+002 7.981350e+000 5.459393e-001
      vertex   -3.150000e+002 0.000000e+000 3.673819e-015
    endloop
  endfacet
  facet normal -1.000000e+000 0.000000e+000 0.000000e+000
    outer loop
      vertex   -3.150000e+002 7.981350e+000 5.459393e-001
      vertex   -3.150000e+002 7.832673e+000 -1.627648e+000
      vertex   -3.150000e+002 0.000000e+000 3.673819e-015
    endloop
  endfacet
  facet normal -1.000000e+000 -0.000000e+000 0.000000e+000
    outer loop
      vertex   -3.150000e+002 7.832673e+000 -1.627648e+000
      vertex   -3.150000e+002 7.103082e+000 -3.680520e+000
      vertex   -3.150000e+002 0.000000e+000 3.673819e-015
    endloop
  endfacet
  facet normal -1.000000e+000 -0.000000e+000 0.000000e+000
    outer loop
      vertex   -3.150000e+002 7.103082e+000 -3.680520e+000
      vertex   -3.150000e+002 5.846688e+000 -5.460425e+000
      vertex   -3.150000e+002 0.000000e+000 3.673819e-015
    endloop
  endfacet
  facet normal -1.000000e+000 -0.000000e+000 0.000000e+000
    outer loop
      vertex   -3.150000e+002 5.846688e+000 -5.460425e+000
      vertex   -3.150000e+002 4.156672e+000 -6.835355e+000
      vertex   -3.150000e+002 0.000000e+000 3.673819e-015
    endloop
  endfacet
  facet normal -1.000000e+000 -0.000000e+000 0.000000e+000
    outer loop
      vertex   -3.150000e+002 4.156672e+000 -6.835355e+000
      vertex   -3.150000e+002 2.158374e+000 -7.703338e+000
      vertex   -3.150000e+002 0.000000e+000 3.673819e-015
    endloop
  endfacet
  facet normal -1.000000e+000 -0.000000e+000 0.000000e+000
    outer loop
      vertex   -3.150000e+002 2.158374e+000 -7.703338e+000
      vertex   -3.150000e+002 0.000000e+000 -8.000000e+000
      vertex   -3.150000e+002 0.000000e+000 3.673819e-015
    endloop
  endfacet
  facet normal -1.000000e+000 0.000000e+000 0.000000e+000
    outer loop
      vertex   -3.150000e+002 0.000000e+000 -8.000000e+000
      vertex   -3.150000e+002 -2.158374e+000 -7.703338e+000
      vertex   -3.150000e+002 0.000000e+000 3.673819e-015
    endloop
  endfacet
  facet normal -1.000000e+000 0.000000e+000 0.000000e+000
    outer loop
      vertex   -3.150000e+002 -2.158374e+000 -7.703338e+000
      vertex   -3.150000e+002 -4.156672e+000 -6.835355e+000
      vertex   -3.150000e+002 0.000000e+000 3.673819e-015
    endloop
  endfacet
  facet normal -1.000000e+000 0.000000e+000 0.000000e+000
    outer loop
      vertex   -3.150000e+002 -4.156672e+000 -6.835355e+000
      vertex   -3.150000e+002 -5.846688e+000 -5.460425e+000
      vertex   -3.150000e+002 0.000000e+000 3.673819e-015
    endloop
  endfacet
  facet normal -1.000000e+000 0.000000e+000 0.000000e+000
    outer loop
      vertex   -3.150000e+002 -5.846688e+000 -5.460425e+000
      vertex   -3.150000e+002 -7.103082e+000 -3.680520e+000
      vertex   -3.150000e+002 0.000000e+000 3.673819e-015
    endloop
  endfacet
  facet normal -1.000000e+000 0.000000e+000 0.000000e+000
    outer loop
      vertex   -3.150000e+002 -7.103082e+000 -3.680520e+000
      vertex   -3.150000e+002 -7.832673e+000 -1.627648e+000
      vertex   -3.150000e+002 0.000000e+000 3.673819e-015
    endloop
  endfacet
  facet normal -1.000000e+000 0.000000e+000 0.000000e+000
    outer loop
      vertex   -3.150000e+002 -7.832673e+000 -1.627648e+000
      vertex   -3.150000e+002 -8.000000e+000 7.102830e-015
      vertex   -3.150000e+002 0.000000e+000 3.673819e-015
    endloop
  endfacet
  facet normal -1.000000e+000 0.000000e+000 0.000000e+000
    outer loop
      vertex   -3.150000e+002 -8.000000e+000 7.102830e-015
      vertex   -3.150000e+002 -7.981350e+000 5.459393e-001
      vertex   -3.150000e+002 0.000000e+000 3.673819e-015
    endloop
  endfacet
endsolid
