solid EjePpal
  facet normal 0.000000e+000 -1.000000e+000 0.000000e+000
    outer loop
      vertex   0.000000e+000 -1.275000e+002 0.000000e+000
      vertex   1.261275e+000 -1.275000e+002 -1.503129e+000
      vertex   1.932385e+000 -1.275000e+002 -3.407317e-001
    endloop
  endfacet
  facet normal 0.000000e+000 -1.000000e+000 0.000000e+000
    outer loop
      vertex   1.932385e+000 -1.275000e+002 -3.407317e-001
      vertex   1.699311e+000 -1.275000e+002 9.810977e-001
      vertex   0.000000e+000 -1.275000e+002 0.000000e+000
    endloop
  endfacet
  facet normal -0.000000e+000 -1.000000e+000 0.000000e+000
    outer loop
      vertex   1.699311e+000 -1.275000e+002 9.810977e-001
      vertex   6.711104e-001 -1.275000e+002 1.843861e+000
      vertex   0.000000e+000 -1.275000e+002 0.000000e+000
    endloop
  endfacet
  facet normal -0.000000e+000 -1.000000e+000 0.000000e+000
    outer loop
      vertex   6.711104e-001 -1.275000e+002 1.843861e+000
      vertex   -6.711104e-001 -1.275000e+002 1.843861e+000
      vertex   0.000000e+000 -1.275000e+002 0.000000e+000
    endloop
  endfacet
  facet normal 0.000000e+000 -1.000000e+000 -0.000000e+000
    outer loop
      vertex   -6.711104e-001 -1.275000e+002 1.843861e+000
      vertex   -1.699311e+000 -1.275000e+002 9.810977e-001
      vertex   0.000000e+000 -1.275000e+002 0.000000e+000
    endloop
  endfacet
  facet normal 0.000000e+000 -1.000000e+000 -0.000000e+000
    outer loop
      vertex   -1.699311e+000 -1.275000e+002 9.810977e-001
      vertex   -1.932385e+000 -1.275000e+002 -3.407317e-001
      vertex   0.000000e+000 -1.275000e+002 0.000000e+000
    endloop
  endfacet
  facet normal 0.000000e+000 -1.000000e+000 0.000000e+000
    outer loop
      vertex   -1.932385e+000 -1.275000e+002 -3.407317e-001
      vertex   -1.261275e+000 -1.275000e+002 -1.503129e+000
      vertex   0.000000e+000 -1.275000e+002 0.000000e+000
    endloop
  endfacet
  facet normal 0.000000e+000 -1.000000e+000 0.000000e+000
    outer loop
      vertex   -1.261275e+000 -1.275000e+002 -1.503129e+000
      vertex   0.000000e+000 -1.275000e+002 -1.962195e+000
      vertex   0.000000e+000 -1.275000e+002 0.000000e+000
    endloop
  endfacet
  facet normal 0.000000e+000 -1.000000e+000 0.000000e+000
    outer loop
      vertex   0.000000e+000 -1.275000e+002 -1.962195e+000
      vertex   1.261275e+000 -1.275000e+002 -1.503129e+000
      vertex   0.000000e+000 -1.275000e+002 0.000000e+000
    endloop
  endfacet
  facet normal 1.736482e-001 -2.631902e-016 -9.848078e-001
    outer loop
      vertex   0.000000e+000 -1.275000e+002 -1.962195e+000
      vertex   7.208989e-016 -1.270244e+002 -1.962195e+000
      vertex   6.711104e-001 -1.270244e+002 -1.843861e+000
    endloop
  endfacet
  facet normal 3.319023e-001 -2.414329e-001 -9.118942e-001
    outer loop
      vertex   6.711104e-001 -1.270244e+002 -1.843861e+000
      vertex   1.261275e+000 -1.275000e+002 -1.503129e+000
      vertex   0.000000e+000 -1.275000e+002 -1.962195e+000
    endloop
  endfacet
  facet normal 6.237724e-001 2.414329e-001 -7.433829e-001
    outer loop
      vertex   1.261275e+000 -1.275000e+002 -1.503129e+000
      vertex   1.185211e+000 -1.270244e+002 -1.412479e+000
      vertex   1.699311e+000 -1.270244e+002 -9.810977e-001
    endloop
  endfacet
  facet normal 8.404062e-001 -2.414329e-001 -4.852088e-001
    outer loop
      vertex   1.699311e+000 -1.270244e+002 -9.810977e-001
      vertex   1.932385e+000 -1.275000e+002 -3.407317e-001
      vertex   1.261275e+000 -1.275000e+002 -1.503129e+000
    endloop
  endfacet
  facet normal 9.556747e-001 -2.414329e-001 1.685112e-001
    outer loop
      vertex   1.699311e+000 -1.275000e+002 9.810977e-001
      vertex   1.932385e+000 -1.275000e+002 -3.407317e-001
      vertex   1.932385e+000 -1.270244e+002 3.407317e-001
    endloop
  endfacet
  facet normal 9.556747e-001 2.414329e-001 -1.685112e-001
    outer loop
      vertex   1.932385e+000 -1.275000e+002 -3.407317e-001
      vertex   1.815848e+000 -1.270244e+002 -3.201830e-001
      vertex   1.932385e+000 -1.270244e+002 3.407317e-001
    endloop
  endfacet
  facet normal 8.404062e-001 2.414329e-001 4.852088e-001
    outer loop
      vertex   1.699311e+000 -1.275000e+002 9.810977e-001
      vertex   1.596830e+000 -1.270244e+002 9.219303e-001
      vertex   1.261275e+000 -1.270244e+002 1.503129e+000
    endloop
  endfacet
  facet normal 6.237724e-001 -2.414329e-001 7.433829e-001
    outer loop
      vertex   1.261275e+000 -1.270244e+002 1.503129e+000
      vertex   6.711104e-001 -1.275000e+002 1.843861e+000
      vertex   1.699311e+000 -1.275000e+002 9.810977e-001
    endloop
  endfacet
  facet normal 3.319023e-001 2.414329e-001 9.118942e-001
    outer loop
      vertex   6.711104e-001 -1.275000e+002 1.843861e+000
      vertex   6.306375e-001 -1.270244e+002 1.732662e+000
      vertex   0.000000e+000 -1.270244e+002 1.962195e+000
    endloop
  endfacet
  facet normal 3.118256e-016 -2.414329e-001 9.704175e-001
    outer loop
      vertex   0.000000e+000 -1.270244e+002 1.962195e+000
      vertex   -6.711104e-001 -1.275000e+002 1.843861e+000
      vertex   6.711104e-001 -1.275000e+002 1.843861e+000
    endloop
  endfacet
  facet normal -3.319023e-001 2.414329e-001 9.118942e-001
    outer loop
      vertex   -6.711104e-001 -1.275000e+002 1.843861e+000
      vertex   -6.306375e-001 -1.270244e+002 1.732662e+000
      vertex   -1.261275e+000 -1.270244e+002 1.503129e+000
    endloop
  endfacet
  facet normal -6.237724e-001 -2.414329e-001 7.433829e-001
    outer loop
      vertex   -1.261275e+000 -1.270244e+002 1.503129e+000
      vertex   -1.699311e+000 -1.275000e+002 9.810977e-001
      vertex   -6.711104e-001 -1.275000e+002 1.843861e+000
    endloop
  endfacet
  facet normal -8.404062e-001 2.414329e-001 4.852088e-001
    outer loop
      vertex   -1.699311e+000 -1.275000e+002 9.810977e-001
      vertex   -1.596830e+000 -1.270244e+002 9.219303e-001
      vertex   -1.932385e+000 -1.270244e+002 3.407317e-001
    endloop
  endfacet
  facet normal -9.556747e-001 -2.414329e-001 1.685112e-001
    outer loop
      vertex   -1.932385e+000 -1.270244e+002 3.407317e-001
      vertex   -1.932385e+000 -1.275000e+002 -3.407317e-001
      vertex   -1.699311e+000 -1.275000e+002 9.810977e-001
    endloop
  endfacet
  facet normal -9.556747e-001 2.414329e-001 -1.685112e-001
    outer loop
      vertex   -1.932385e+000 -1.275000e+002 -3.407317e-001
      vertex   -1.815848e+000 -1.270244e+002 -3.201830e-001
      vertex   -1.699311e+000 -1.270244e+002 -9.810977e-001
    endloop
  endfacet
  facet normal -8.404062e-001 -2.414329e-001 -4.852088e-001
    outer loop
      vertex   -1.699311e+000 -1.270244e+002 -9.810977e-001
      vertex   -1.261275e+000 -1.275000e+002 -1.503129e+000
      vertex   -1.932385e+000 -1.275000e+002 -3.407317e-001
    endloop
  endfacet
  facet normal -6.237724e-001 2.414329e-001 -7.433829e-001
    outer loop
      vertex   -1.261275e+000 -1.275000e+002 -1.503129e+000
      vertex   -1.185211e+000 -1.270244e+002 -1.412479e+000
      vertex   -6.711104e-001 -1.270244e+002 -1.843861e+000
    endloop
  endfacet
  facet normal -3.319023e-001 -2.414329e-001 -9.118942e-001
    outer loop
      vertex   -6.711104e-001 -1.270244e+002 -1.843861e+000
      vertex   0.000000e+000 -1.275000e+002 -1.962195e+000
      vertex   -1.261275e+000 -1.275000e+002 -1.503129e+000
    endloop
  endfacet
  facet normal -1.736482e-001 2.858255e-016 -9.848078e-001
    outer loop
      vertex   -6.711104e-001 -1.270244e+002 -1.843861e+000
      vertex   7.208989e-016 -1.270244e+002 -1.962195e+000
      vertex   0.000000e+000 -1.275000e+002 -1.962195e+000
    endloop
  endfacet
  facet normal -6.237724e-001 2.414329e-001 -7.433829e-001
    outer loop
      vertex   -1.699311e+000 -1.270244e+002 -9.810977e-001
      vertex   -1.185211e+000 -1.270244e+002 -1.412479e+000
      vertex   -1.261275e+000 -1.275000e+002 -1.503129e+000
    endloop
  endfacet
  facet normal -9.556747e-001 2.414329e-001 -1.685112e-001
    outer loop
      vertex   -1.932385e+000 -1.270244e+002 3.407317e-001
      vertex   -1.815848e+000 -1.270244e+002 -3.201830e-001
      vertex   -1.932385e+000 -1.275000e+002 -3.407317e-001
    endloop
  endfacet
  facet normal -8.404062e-001 2.414329e-001 4.852088e-001
    outer loop
      vertex   -1.261275e+000 -1.270244e+002 1.503129e+000
      vertex   -1.596830e+000 -1.270244e+002 9.219303e-001
      vertex   -1.699311e+000 -1.275000e+002 9.810977e-001
    endloop
  endfacet
  facet normal -3.319023e-001 2.414329e-001 9.118942e-001
    outer loop
      vertex   0.000000e+000 -1.270244e+002 1.962195e+000
      vertex   -6.306375e-001 -1.270244e+002 1.732662e+000
      vertex   -6.711104e-001 -1.275000e+002 1.843861e+000
    endloop
  endfacet
  facet normal 3.319023e-001 2.414329e-001 9.118942e-001
    outer loop
      vertex   1.261275e+000 -1.270244e+002 1.503129e+000
      vertex   6.306375e-001 -1.270244e+002 1.732662e+000
      vertex   6.711104e-001 -1.275000e+002 1.843861e+000
    endloop
  endfacet
  facet normal 8.404062e-001 2.414329e-001 4.852088e-001
    outer loop
      vertex   1.932385e+000 -1.270244e+002 3.407317e-001
      vertex   1.596830e+000 -1.270244e+002 9.219303e-001
      vertex   1.699311e+000 -1.275000e+002 9.810977e-001
    endloop
  endfacet
  facet normal 9.556747e-001 2.414329e-001 -1.685112e-001
    outer loop
      vertex   1.699311e+000 -1.270244e+002 -9.810977e-001
      vertex   1.815848e+000 -1.270244e+002 -3.201830e-001
      vertex   1.932385e+000 -1.275000e+002 -3.407317e-001
    endloop
  endfacet
  facet normal 6.237724e-001 2.414329e-001 -7.433829e-001
    outer loop
      vertex   6.711104e-001 -1.270244e+002 -1.843861e+000
      vertex   1.185211e+000 -1.270244e+002 -1.412479e+000
      vertex   1.261275e+000 -1.275000e+002 -1.503129e+000
    endloop
  endfacet
  facet normal 1.694103e-001 -8.687090e-001 4.654511e-001
    outer loop
      vertex   8.034845e-001 -1.267362e+002 2.207556e+000
      vertex   6.306375e-001 -1.270244e+002 1.732662e+000
      vertex   1.261275e+000 -1.270244e+002 1.503129e+000
    endloop
  endfacet
  facet normal 1.694103e-001 -8.687090e-001 4.654511e-001
    outer loop
      vertex   8.034845e-001 -1.267362e+002 2.207556e+000
      vertex   0.000000e+000 -1.267362e+002 2.500000e+000
      vertex   0.000000e+000 -1.270244e+002 1.962195e+000
    endloop
  endfacet
  facet normal 1.694103e-001 -8.687090e-001 4.654511e-001
    outer loop
      vertex   0.000000e+000 -1.270244e+002 1.962195e+000
      vertex   6.306375e-001 -1.270244e+002 1.732662e+000
      vertex   8.034845e-001 -1.267362e+002 2.207556e+000
    endloop
  endfacet
  facet normal 4.289621e-001 -8.687090e-001 2.476614e-001
    outer loop
      vertex   2.034494e+000 -1.267362e+002 1.174616e+000
      vertex   1.596830e+000 -1.270244e+002 9.219303e-001
      vertex   1.932385e+000 -1.270244e+002 3.407317e-001
    endloop
  endfacet
  facet normal 4.289621e-001 -8.687090e-001 2.476614e-001
    outer loop
      vertex   2.034494e+000 -1.267362e+002 1.174616e+000
      vertex   1.606969e+000 -1.267362e+002 1.915111e+000
      vertex   1.261275e+000 -1.270244e+002 1.503129e+000
    endloop
  endfacet
  facet normal 4.289621e-001 -8.687090e-001 2.476614e-001
    outer loop
      vertex   1.261275e+000 -1.270244e+002 1.503129e+000
      vertex   1.596830e+000 -1.270244e+002 9.219303e-001
      vertex   2.034494e+000 -1.267362e+002 1.174616e+000
    endloop
  endfacet
  facet normal 4.877977e-001 -8.687090e-001 -8.601189e-002
    outer loop
      vertex   2.313541e+000 -1.267362e+002 -4.079398e-001
      vertex   1.815848e+000 -1.270244e+002 -3.201830e-001
      vertex   1.699311e+000 -1.270244e+002 -9.810977e-001
    endloop
  endfacet
  facet normal 4.877977e-001 -8.687090e-001 -8.601189e-002
    outer loop
      vertex   2.313541e+000 -1.267362e+002 -4.079398e-001
      vertex   2.462019e+000 -1.267362e+002 4.341204e-001
      vertex   1.932385e+000 -1.270244e+002 3.407317e-001
    endloop
  endfacet
  facet normal 4.877977e-001 -8.687090e-001 -8.601189e-002
    outer loop
      vertex   1.932385e+000 -1.270244e+002 3.407317e-001
      vertex   1.815848e+000 -1.270244e+002 -3.201830e-001
      vertex   2.313541e+000 -1.267362e+002 -4.079398e-001
    endloop
  endfacet
  facet normal 3.183873e-001 -8.687090e-001 -3.794392e-001
    outer loop
      vertex   1.510057e+000 -1.267362e+002 -1.799616e+000
      vertex   1.185211e+000 -1.270244e+002 -1.412479e+000
      vertex   6.711104e-001 -1.270244e+002 -1.843861e+000
    endloop
  endfacet
  facet normal 3.183873e-001 -8.687090e-001 -3.794392e-001
    outer loop
      vertex   1.510057e+000 -1.267362e+002 -1.799616e+000
      vertex   2.165064e+000 -1.267362e+002 -1.250000e+000
      vertex   1.699311e+000 -1.270244e+002 -9.810977e-001
    endloop
  endfacet
  facet normal 3.183873e-001 -8.687090e-001 -3.794392e-001
    outer loop
      vertex   1.699311e+000 -1.270244e+002 -9.810977e-001
      vertex   1.185211e+000 -1.270244e+002 -1.412479e+000
      vertex   1.510057e+000 -1.267362e+002 -1.799616e+000
    endloop
  endfacet
  facet normal -8.298803e-002 -8.784093e-001 -4.706485e-001
    outer loop
      vertex   -8.550504e-001 -1.267362e+002 -2.349232e+000
      vertex   3.061617e-016 -1.267362e+002 -2.500000e+000
      vertex   7.208989e-016 -1.270244e+002 -1.962195e+000
    endloop
  endfacet
  facet normal 8.298803e-002 -8.784093e-001 -4.706485e-001
    outer loop
      vertex   8.550504e-001 -1.267362e+002 -2.349232e+000
      vertex   6.711104e-001 -1.270244e+002 -1.843861e+000
      vertex   7.208989e-016 -1.270244e+002 -1.962195e+000
    endloop
  endfacet
  facet normal 8.298803e-002 -8.784093e-001 -4.706485e-001
    outer loop
      vertex   7.208989e-016 -1.270244e+002 -1.962195e+000
      vertex   3.061617e-016 -1.267362e+002 -2.500000e+000
      vertex   8.550504e-001 -1.267362e+002 -2.349232e+000
    endloop
  endfacet
  facet normal -3.183873e-001 -8.687090e-001 -3.794392e-001
    outer loop
      vertex   -1.510057e+000 -1.267362e+002 -1.799616e+000
      vertex   -1.185211e+000 -1.270244e+002 -1.412479e+000
      vertex   -1.699311e+000 -1.270244e+002 -9.810977e-001
    endloop
  endfacet
  facet normal -3.183873e-001 -8.687090e-001 -3.794392e-001
    outer loop
      vertex   -1.510057e+000 -1.267362e+002 -1.799616e+000
      vertex   -8.550504e-001 -1.267362e+002 -2.349232e+000
      vertex   -6.711104e-001 -1.270244e+002 -1.843861e+000
    endloop
  endfacet
  facet normal -3.183873e-001 -8.687090e-001 -3.794392e-001
    outer loop
      vertex   -6.711104e-001 -1.270244e+002 -1.843861e+000
      vertex   -1.185211e+000 -1.270244e+002 -1.412479e+000
      vertex   -1.510057e+000 -1.267362e+002 -1.799616e+000
    endloop
  endfacet
  facet normal -4.877977e-001 -8.687090e-001 -8.601189e-002
    outer loop
      vertex   -2.313541e+000 -1.267362e+002 -4.079398e-001
      vertex   -1.815848e+000 -1.270244e+002 -3.201830e-001
      vertex   -1.932385e+000 -1.270244e+002 3.407317e-001
    endloop
  endfacet
  facet normal -4.877977e-001 -8.687090e-001 -8.601189e-002
    outer loop
      vertex   -2.313541e+000 -1.267362e+002 -4.079398e-001
      vertex   -2.165064e+000 -1.267362e+002 -1.250000e+000
      vertex   -1.699311e+000 -1.270244e+002 -9.810977e-001
    endloop
  endfacet
  facet normal -4.877977e-001 -8.687090e-001 -8.601189e-002
    outer loop
      vertex   -1.699311e+000 -1.270244e+002 -9.810977e-001
      vertex   -1.815848e+000 -1.270244e+002 -3.201830e-001
      vertex   -2.313541e+000 -1.267362e+002 -4.079398e-001
    endloop
  endfacet
  facet normal -4.289621e-001 -8.687090e-001 2.476614e-001
    outer loop
      vertex   -2.034494e+000 -1.267362e+002 1.174616e+000
      vertex   -1.596830e+000 -1.270244e+002 9.219303e-001
      vertex   -1.261275e+000 -1.270244e+002 1.503129e+000
    endloop
  endfacet
  facet normal -4.289621e-001 -8.687090e-001 2.476614e-001
    outer loop
      vertex   -2.034494e+000 -1.267362e+002 1.174616e+000
      vertex   -2.462019e+000 -1.267362e+002 4.341204e-001
      vertex   -1.932385e+000 -1.270244e+002 3.407317e-001
    endloop
  endfacet
  facet normal -4.289621e-001 -8.687090e-001 2.476614e-001
    outer loop
      vertex   -1.932385e+000 -1.270244e+002 3.407317e-001
      vertex   -1.596830e+000 -1.270244e+002 9.219303e-001
      vertex   -2.034494e+000 -1.267362e+002 1.174616e+000
    endloop
  endfacet
  facet normal -1.694103e-001 -8.687090e-001 4.654511e-001
    outer loop
      vertex   -8.034845e-001 -1.267362e+002 2.207556e+000
      vertex   -6.306375e-001 -1.270244e+002 1.732662e+000
      vertex   0.000000e+000 -1.270244e+002 1.962195e+000
    endloop
  endfacet
  facet normal -1.694103e-001 -8.687090e-001 4.654511e-001
    outer loop
      vertex   -8.034845e-001 -1.267362e+002 2.207556e+000
      vertex   -1.606969e+000 -1.267362e+002 1.915111e+000
      vertex   -1.261275e+000 -1.270244e+002 1.503129e+000
    endloop
  endfacet
  facet normal -1.694103e-001 -8.687090e-001 4.654511e-001
    outer loop
      vertex   -1.261275e+000 -1.270244e+002 1.503129e+000
      vertex   -6.306375e-001 -1.270244e+002 1.732662e+000
      vertex   -8.034845e-001 -1.267362e+002 2.207556e+000
    endloop
  endfacet
  facet normal -1.694103e-001 -8.687090e-001 4.654511e-001
    outer loop
      vertex   0.000000e+000 -1.270244e+002 1.962195e+000
      vertex   0.000000e+000 -1.267362e+002 2.500000e+000
      vertex   -8.034845e-001 -1.267362e+002 2.207556e+000
    endloop
  endfacet
  facet normal -4.289621e-001 -8.687090e-001 2.476614e-001
    outer loop
      vertex   -1.261275e+000 -1.270244e+002 1.503129e+000
      vertex   -1.606969e+000 -1.267362e+002 1.915111e+000
      vertex   -2.034494e+000 -1.267362e+002 1.174616e+000
    endloop
  endfacet
  facet normal -4.877977e-001 -8.687090e-001 -8.601189e-002
    outer loop
      vertex   -1.932385e+000 -1.270244e+002 3.407317e-001
      vertex   -2.462019e+000 -1.267362e+002 4.341204e-001
      vertex   -2.313541e+000 -1.267362e+002 -4.079398e-001
    endloop
  endfacet
  facet normal -3.183873e-001 -8.687090e-001 -3.794392e-001
    outer loop
      vertex   -1.699311e+000 -1.270244e+002 -9.810977e-001
      vertex   -2.165064e+000 -1.267362e+002 -1.250000e+000
      vertex   -1.510057e+000 -1.267362e+002 -1.799616e+000
    endloop
  endfacet
  facet normal -8.298803e-002 -8.784093e-001 -4.706485e-001
    outer loop
      vertex   7.208989e-016 -1.270244e+002 -1.962195e+000
      vertex   -6.711104e-001 -1.270244e+002 -1.843861e+000
      vertex   -8.550504e-001 -1.267362e+002 -2.349232e+000
    endloop
  endfacet
  facet normal 3.183873e-001 -8.687090e-001 -3.794392e-001
    outer loop
      vertex   6.711104e-001 -1.270244e+002 -1.843861e+000
      vertex   8.550504e-001 -1.267362e+002 -2.349232e+000
      vertex   1.510057e+000 -1.267362e+002 -1.799616e+000
    endloop
  endfacet
  facet normal 4.877977e-001 -8.687090e-001 -8.601189e-002
    outer loop
      vertex   1.699311e+000 -1.270244e+002 -9.810977e-001
      vertex   2.165064e+000 -1.267362e+002 -1.250000e+000
      vertex   2.313541e+000 -1.267362e+002 -4.079398e-001
    endloop
  endfacet
  facet normal 4.289621e-001 -8.687090e-001 2.476614e-001
    outer loop
      vertex   1.932385e+000 -1.270244e+002 3.407317e-001
      vertex   2.462019e+000 -1.267362e+002 4.341204e-001
      vertex   2.034494e+000 -1.267362e+002 1.174616e+000
    endloop
  endfacet
  facet normal 1.694103e-001 -8.687090e-001 4.654511e-001
    outer loop
      vertex   1.261275e+000 -1.270244e+002 1.503129e+000
      vertex   1.606969e+000 -1.267362e+002 1.915111e+000
      vertex   8.034845e-001 -1.267362e+002 2.207556e+000
    endloop
  endfacet
  facet normal 3.420176e-001 3.842556e-003 -9.396857e-001
    outer loop
      vertex   -6.123234e-016 -8.750000e+001 -2.500000e+000
      vertex   1.606969e+000 -8.750000e+001 -1.915111e+000
      vertex   8.550504e-001 -1.267362e+002 -2.349232e+000
    endloop
  endfacet
  facet normal 6.427829e-001 -3.842556e-003 -7.660388e-001
    outer loop
      vertex   1.606969e+000 -8.750000e+001 -1.915111e+000
      vertex   1.510057e+000 -1.267362e+002 -1.799616e+000
      vertex   8.550504e-001 -1.267362e+002 -2.349232e+000
    endloop
  endfacet
  facet normal 8.660190e-001 3.842556e-003 -4.999963e-001
    outer loop
      vertex   1.606969e+000 -8.750000e+001 -1.915111e+000
      vertex   2.462019e+000 -8.750000e+001 -4.341204e-001
      vertex   2.165064e+000 -1.267362e+002 -1.250000e+000
    endloop
  endfacet
  facet normal 9.848005e-001 -3.842556e-003 -1.736469e-001
    outer loop
      vertex   2.462019e+000 -8.750000e+001 -4.341204e-001
      vertex   2.313541e+000 -1.267362e+002 -4.079398e-001
      vertex   2.165064e+000 -1.267362e+002 -1.250000e+000
    endloop
  endfacet
  facet normal 9.848005e-001 3.842556e-003 1.736469e-001
    outer loop
      vertex   2.462019e+000 -8.750000e+001 -4.341204e-001
      vertex   2.165064e+000 -8.750000e+001 1.250000e+000
      vertex   2.462019e+000 -1.267362e+002 4.341204e-001
    endloop
  endfacet
  facet normal 8.660190e-001 -3.842556e-003 4.999963e-001
    outer loop
      vertex   2.165064e+000 -8.750000e+001 1.250000e+000
      vertex   2.034494e+000 -1.267362e+002 1.174616e+000
      vertex   2.462019e+000 -1.267362e+002 4.341204e-001
    endloop
  endfacet
  facet normal 6.427829e-001 3.842556e-003 7.660388e-001
    outer loop
      vertex   2.165064e+000 -8.750000e+001 1.250000e+000
      vertex   8.550504e-001 -8.750000e+001 2.349232e+000
      vertex   1.606969e+000 -1.267362e+002 1.915111e+000
    endloop
  endfacet
  facet normal 3.420176e-001 -3.842556e-003 9.396857e-001
    outer loop
      vertex   8.550504e-001 -8.750000e+001 2.349232e+000
      vertex   8.034845e-001 -1.267362e+002 2.207556e+000
      vertex   1.606969e+000 -1.267362e+002 1.915111e+000
    endloop
  endfacet
  facet normal 2.535977e-016 3.842556e-003 9.999926e-001
    outer loop
      vertex   8.550504e-001 -8.750000e+001 2.349232e+000
      vertex   -8.550504e-001 -8.750000e+001 2.349232e+000
      vertex   0.000000e+000 -1.267362e+002 2.500000e+000
    endloop
  endfacet
  facet normal -3.420176e-001 -3.842556e-003 9.396857e-001
    outer loop
      vertex   -8.550504e-001 -8.750000e+001 2.349232e+000
      vertex   -8.034845e-001 -1.267362e+002 2.207556e+000
      vertex   0.000000e+000 -1.267362e+002 2.500000e+000
    endloop
  endfacet
  facet normal -6.427829e-001 3.842556e-003 7.660388e-001
    outer loop
      vertex   -8.550504e-001 -8.750000e+001 2.349232e+000
      vertex   -2.165064e+000 -8.750000e+001 1.250000e+000
      vertex   -1.606969e+000 -1.267362e+002 1.915111e+000
    endloop
  endfacet
  facet normal -8.660190e-001 -3.842556e-003 4.999963e-001
    outer loop
      vertex   -2.165064e+000 -8.750000e+001 1.250000e+000
      vertex   -2.034494e+000 -1.267362e+002 1.174616e+000
      vertex   -1.606969e+000 -1.267362e+002 1.915111e+000
    endloop
  endfacet
  facet normal -9.848005e-001 3.842556e-003 1.736469e-001
    outer loop
      vertex   -2.165064e+000 -8.750000e+001 1.250000e+000
      vertex   -2.462019e+000 -8.750000e+001 -4.341204e-001
      vertex   -2.462019e+000 -1.267362e+002 4.341204e-001
    endloop
  endfacet
  facet normal -9.848005e-001 -3.842556e-003 -1.736469e-001
    outer loop
      vertex   -2.462019e+000 -8.750000e+001 -4.341204e-001
      vertex   -2.313541e+000 -1.267362e+002 -4.079398e-001
      vertex   -2.462019e+000 -1.267362e+002 4.341204e-001
    endloop
  endfacet
  facet normal -8.660190e-001 3.842556e-003 -4.999963e-001
    outer loop
      vertex   -2.462019e+000 -8.750000e+001 -4.341204e-001
      vertex   -1.606969e+000 -8.750000e+001 -1.915111e+000
      vertex   -2.165064e+000 -1.267362e+002 -1.250000e+000
    endloop
  endfacet
  facet normal -6.427829e-001 -3.842556e-003 -7.660388e-001
    outer loop
      vertex   -1.606969e+000 -8.750000e+001 -1.915111e+000
      vertex   -1.510057e+000 -1.267362e+002 -1.799616e+000
      vertex   -2.165064e+000 -1.267362e+002 -1.250000e+000
    endloop
  endfacet
  facet normal -3.420176e-001 3.842556e-003 -9.396857e-001
    outer loop
      vertex   -1.606969e+000 -8.750000e+001 -1.915111e+000
      vertex   -6.123234e-016 -8.750000e+001 -2.500000e+000
      vertex   -8.550504e-001 -1.267362e+002 -2.349232e+000
    endloop
  endfacet
  facet normal -1.736482e-001 -5.849073e-017 -9.848078e-001
    outer loop
      vertex   -6.123234e-016 -8.750000e+001 -2.500000e+000
      vertex   3.061617e-016 -1.267362e+002 -2.500000e+000
      vertex   -8.550504e-001 -1.267362e+002 -2.349232e+000
    endloop
  endfacet
  facet normal -6.427829e-001 -3.842556e-003 -7.660388e-001
    outer loop
      vertex   -8.550504e-001 -1.267362e+002 -2.349232e+000
      vertex   -1.510057e+000 -1.267362e+002 -1.799616e+000
      vertex   -1.606969e+000 -8.750000e+001 -1.915111e+000
    endloop
  endfacet
  facet normal -9.848005e-001 -3.842556e-003 -1.736469e-001
    outer loop
      vertex   -2.165064e+000 -1.267362e+002 -1.250000e+000
      vertex   -2.313541e+000 -1.267362e+002 -4.079398e-001
      vertex   -2.462019e+000 -8.750000e+001 -4.341204e-001
    endloop
  endfacet
  facet normal -8.660190e-001 -3.842556e-003 4.999963e-001
    outer loop
      vertex   -2.462019e+000 -1.267362e+002 4.341204e-001
      vertex   -2.034494e+000 -1.267362e+002 1.174616e+000
      vertex   -2.165064e+000 -8.750000e+001 1.250000e+000
    endloop
  endfacet
  facet normal -3.420176e-001 -3.842556e-003 9.396857e-001
    outer loop
      vertex   -1.606969e+000 -1.267362e+002 1.915111e+000
      vertex   -8.034845e-001 -1.267362e+002 2.207556e+000
      vertex   -8.550504e-001 -8.750000e+001 2.349232e+000
    endloop
  endfacet
  facet normal 3.420176e-001 -3.842556e-003 9.396857e-001
    outer loop
      vertex   0.000000e+000 -1.267362e+002 2.500000e+000
      vertex   8.034845e-001 -1.267362e+002 2.207556e+000
      vertex   8.550504e-001 -8.750000e+001 2.349232e+000
    endloop
  endfacet
  facet normal 8.660190e-001 -3.842556e-003 4.999963e-001
    outer loop
      vertex   1.606969e+000 -1.267362e+002 1.915111e+000
      vertex   2.034494e+000 -1.267362e+002 1.174616e+000
      vertex   2.165064e+000 -8.750000e+001 1.250000e+000
    endloop
  endfacet
  facet normal 9.848005e-001 -3.842556e-003 -1.736469e-001
    outer loop
      vertex   2.462019e+000 -1.267362e+002 4.341204e-001
      vertex   2.313541e+000 -1.267362e+002 -4.079398e-001
      vertex   2.462019e+000 -8.750000e+001 -4.341204e-001
    endloop
  endfacet
  facet normal 6.427829e-001 -3.842556e-003 -7.660388e-001
    outer loop
      vertex   2.165064e+000 -1.267362e+002 -1.250000e+000
      vertex   1.510057e+000 -1.267362e+002 -1.799616e+000
      vertex   1.606969e+000 -8.750000e+001 -1.915111e+000
    endloop
  endfacet
  facet normal 1.736482e-001 -5.050523e-017 -9.848078e-001
    outer loop
      vertex   8.550504e-001 -1.267362e+002 -2.349232e+000
      vertex   3.061617e-016 -1.267362e+002 -2.500000e+000
      vertex   -6.123234e-016 -8.750000e+001 -2.500000e+000
    endloop
  endfacet
  facet normal 2.126882e-015 -1.000000e+000 -1.227956e-015
    outer loop
      vertex   6.928203e+000 -8.750000e+001 -4.000000e+000
      vertex   2.462019e+000 -8.750000e+001 -4.341204e-001
      vertex   1.606969e+000 -8.750000e+001 -1.915111e+000
    endloop
  endfacet
  facet normal 8.584346e-016 -1.000000e+000 -2.358530e-015
    outer loop
      vertex   4.000000e+000 -8.750000e+001 -6.928203e+000
      vertex   1.606969e+000 -8.750000e+001 -1.915111e+000
      vertex   -6.123234e-016 -8.750000e+001 -2.500000e+000
    endloop
  endfacet
  facet normal 1.873826e-015 -1.000000e+000 -1.873826e-015
    outer loop
      vertex   1.606969e+000 -8.750000e+001 -1.915111e+000
      vertex   4.000000e+000 -8.750000e+001 -6.928203e+000
      vertex   6.928203e+000 -8.750000e+001 -4.000000e+000
    endloop
  endfacet
  facet normal 2.559694e-015 -1.000000e+000 -6.858680e-016
    outer loop
      vertex   6.928203e+000 -8.750000e+001 -4.000000e+000
      vertex   8.000000e+000 -8.750000e+001 -2.266216e-015
      vertex   2.462019e+000 -8.750000e+001 -4.341204e-001
    endloop
  endfacet
  facet normal 2.523234e-015 -1.000000e+000 6.760986e-016
    outer loop
      vertex   8.000000e+000 -8.750000e+001 -2.266216e-015
      vertex   6.928203e+000 -8.750000e+001 4.000000e+000
      vertex   2.165064e+000 -8.750000e+001 1.250000e+000
    endloop
  endfacet
  facet normal 0.000000e+000 -1.000000e+000 2.455912e-015
    outer loop
      vertex   4.532431e-015 -8.750000e+001 8.000000e+000
      vertex   -8.550504e-001 -8.750000e+001 2.349232e+000
      vertex   8.550504e-001 -8.750000e+001 2.349232e+000
    endloop
  endfacet
  facet normal 2.471764e-015 -1.000000e+000 4.358387e-016
    outer loop
      vertex   2.165064e+000 -8.750000e+001 1.250000e+000
      vertex   2.462019e+000 -8.750000e+001 -4.341204e-001
      vertex   8.000000e+000 -8.750000e+001 -2.266216e-015
    endloop
  endfacet
  facet normal 1.613329e-015 -1.000000e+000 1.922691e-015
    outer loop
      vertex   4.000000e+000 -8.750000e+001 6.928203e+000
      vertex   8.550504e-001 -8.750000e+001 2.349232e+000
      vertex   2.165064e+000 -8.750000e+001 1.250000e+000
    endloop
  endfacet
  facet normal 6.858680e-016 -1.000000e+000 2.559694e-015
    outer loop
      vertex   8.550504e-001 -8.750000e+001 2.349232e+000
      vertex   4.000000e+000 -8.750000e+001 6.928203e+000
      vertex   4.532431e-015 -8.750000e+001 8.000000e+000
    endloop
  endfacet
  facet normal -1.847136e-015 -1.000000e+000 1.847136e-015
    outer loop
      vertex   -4.000000e+000 -8.750000e+001 6.928203e+000
      vertex   -6.928203e+000 -8.750000e+001 4.000000e+000
      vertex   -2.165064e+000 -8.750000e+001 1.250000e+000
    endloop
  endfacet
  facet normal 1.847136e-015 -1.000000e+000 1.847136e-015
    outer loop
      vertex   2.165064e+000 -8.750000e+001 1.250000e+000
      vertex   6.928203e+000 -8.750000e+001 4.000000e+000
      vertex   4.000000e+000 -8.750000e+001 6.928203e+000
    endloop
  endfacet
  facet normal -1.613329e-015 -1.000000e+000 1.922691e-015
    outer loop
      vertex   -2.165064e+000 -8.750000e+001 1.250000e+000
      vertex   -8.550504e-001 -8.750000e+001 2.349232e+000
      vertex   -4.000000e+000 -8.750000e+001 6.928203e+000
    endloop
  endfacet
  facet normal -2.126882e-015 -1.000000e+000 -1.227956e-015
    outer loop
      vertex   -6.928203e+000 -8.750000e+001 -4.000000e+000
      vertex   -1.606969e+000 -8.750000e+001 -1.915111e+000
      vertex   -2.462019e+000 -8.750000e+001 -4.341204e-001
    endloop
  endfacet
  facet normal -6.858680e-016 -1.000000e+000 2.559694e-015
    outer loop
      vertex   4.532431e-015 -8.750000e+001 8.000000e+000
      vertex   -4.000000e+000 -8.750000e+001 6.928203e+000
      vertex   -8.550504e-001 -8.750000e+001 2.349232e+000
    endloop
  endfacet
  facet normal -2.471764e-015 -1.000000e+000 4.358387e-016
    outer loop
      vertex   -8.000000e+000 -8.750000e+001 8.575004e-015
      vertex   -2.462019e+000 -8.750000e+001 -4.341204e-001
      vertex   -2.165064e+000 -8.750000e+001 1.250000e+000
    endloop
  endfacet
  facet normal -2.559694e-015 -1.000000e+000 -6.858680e-016
    outer loop
      vertex   -2.462019e+000 -8.750000e+001 -4.341204e-001
      vertex   -8.000000e+000 -8.750000e+001 8.575004e-015
      vertex   -6.928203e+000 -8.750000e+001 -4.000000e+000
    endloop
  endfacet
  facet normal -6.760986e-016 -1.000000e+000 -2.523234e-015
    outer loop
      vertex   -4.000000e+000 -8.750000e+001 -6.928203e+000
      vertex   0.000000e+000 -8.750000e+001 -8.000000e+000
      vertex   -6.123234e-016 -8.750000e+001 -2.500000e+000
    endloop
  endfacet
  facet normal -2.523234e-015 -1.000000e+000 6.760986e-016
    outer loop
      vertex   -2.165064e+000 -8.750000e+001 1.250000e+000
      vertex   -6.928203e+000 -8.750000e+001 4.000000e+000
      vertex   -8.000000e+000 -8.750000e+001 8.575004e-015
    endloop
  endfacet
  facet normal -8.584346e-016 -1.000000e+000 -2.358530e-015
    outer loop
      vertex   -6.123234e-016 -8.750000e+001 -2.500000e+000
      vertex   -1.606969e+000 -8.750000e+001 -1.915111e+000
      vertex   -4.000000e+000 -8.750000e+001 -6.928203e+000
    endloop
  endfacet
  facet normal -1.873826e-015 -1.000000e+000 -1.873826e-015
    outer loop
      vertex   -6.928203e+000 -8.750000e+001 -4.000000e+000
      vertex   -4.000000e+000 -8.750000e+001 -6.928203e+000
      vertex   -1.606969e+000 -8.750000e+001 -1.915111e+000
    endloop
  endfacet
  facet normal 6.760986e-016 -1.000000e+000 -2.523234e-015
    outer loop
      vertex   -6.123234e-016 -8.750000e+001 -2.500000e+000
      vertex   0.000000e+000 -8.750000e+001 -8.000000e+000
      vertex   4.000000e+000 -8.750000e+001 -6.928203e+000
    endloop
  endfacet
  facet normal 2.588190e-001 2.897938e-018 -9.659258e-001
    outer loop
      vertex   0.000000e+000 -8.750000e+001 -8.000000e+000
      vertex   -1.959435e-015 8.750000e+001 -8.000000e+000
      vertex   4.000000e+000 8.750000e+001 -6.928203e+000
    endloop
  endfacet
  facet normal 7.071068e-001 0.000000e+000 -7.071068e-001
    outer loop
      vertex   4.000000e+000 -8.750000e+001 -6.928203e+000
      vertex   4.000000e+000 8.750000e+001 -6.928203e+000
      vertex   6.928203e+000 8.750000e+001 -4.000000e+000
    endloop
  endfacet
  facet normal 9.659258e-001 0.000000e+000 -2.588190e-001
    outer loop
      vertex   6.928203e+000 -8.750000e+001 -4.000000e+000
      vertex   6.928203e+000 8.750000e+001 -4.000000e+000
      vertex   8.000000e+000 8.750000e+001 -2.266216e-015
    endloop
  endfacet
  facet normal 9.659258e-001 -0.000000e+000 2.588190e-001
    outer loop
      vertex   8.000000e+000 -8.750000e+001 -2.266216e-015
      vertex   8.000000e+000 8.750000e+001 -2.266216e-015
      vertex   6.928203e+000 8.750000e+001 4.000000e+000
    endloop
  endfacet
  facet normal 7.071068e-001 -0.000000e+000 7.071068e-001
    outer loop
      vertex   6.928203e+000 -8.750000e+001 4.000000e+000
      vertex   6.928203e+000 8.750000e+001 4.000000e+000
      vertex   4.000000e+000 8.750000e+001 6.928203e+000
    endloop
  endfacet
  facet normal 2.588190e-001 -0.000000e+000 9.659258e-001
    outer loop
      vertex   4.000000e+000 -8.750000e+001 6.928203e+000
      vertex   4.000000e+000 8.750000e+001 6.928203e+000
      vertex   4.532431e-015 8.750000e+001 8.000000e+000
    endloop
  endfacet
  facet normal -2.588190e-001 0.000000e+000 9.659258e-001
    outer loop
      vertex   4.532431e-015 -8.750000e+001 8.000000e+000
      vertex   4.532431e-015 8.750000e+001 8.000000e+000
      vertex   -4.000000e+000 8.750000e+001 6.928203e+000
    endloop
  endfacet
  facet normal -7.071068e-001 0.000000e+000 7.071068e-001
    outer loop
      vertex   -4.000000e+000 -8.750000e+001 6.928203e+000
      vertex   -4.000000e+000 8.750000e+001 6.928203e+000
      vertex   -6.928203e+000 8.750000e+001 4.000000e+000
    endloop
  endfacet
  facet normal -9.659258e-001 0.000000e+000 2.588190e-001
    outer loop
      vertex   -6.928203e+000 -8.750000e+001 4.000000e+000
      vertex   -6.928203e+000 8.750000e+001 4.000000e+000
      vertex   -8.000000e+000 8.750000e+001 8.575004e-015
    endloop
  endfacet
  facet normal -9.659258e-001 0.000000e+000 -2.588190e-001
    outer loop
      vertex   -8.000000e+000 -8.750000e+001 8.575004e-015
      vertex   -8.000000e+000 8.750000e+001 8.575004e-015
      vertex   -6.928203e+000 8.750000e+001 -4.000000e+000
    endloop
  endfacet
  facet normal -7.071068e-001 0.000000e+000 -7.071068e-001
    outer loop
      vertex   -6.928203e+000 -8.750000e+001 -4.000000e+000
      vertex   -6.928203e+000 8.750000e+001 -4.000000e+000
      vertex   -4.000000e+000 8.750000e+001 -6.928203e+000
    endloop
  endfacet
  facet normal -2.588190e-001 0.000000e+000 -9.659258e-001
    outer loop
      vertex   -4.000000e+000 -8.750000e+001 -6.928203e+000
      vertex   -4.000000e+000 8.750000e+001 -6.928203e+000
      vertex   -1.959435e-015 8.750000e+001 -8.000000e+000
    endloop
  endfacet
  facet normal -2.588190e-001 -2.897938e-018 -9.659258e-001
    outer loop
      vertex   -1.959435e-015 8.750000e+001 -8.000000e+000
      vertex   0.000000e+000 -8.750000e+001 -8.000000e+000
      vertex   -4.000000e+000 -8.750000e+001 -6.928203e+000
    endloop
  endfacet
  facet normal -7.071068e-001 -0.000000e+000 -7.071068e-001
    outer loop
      vertex   -4.000000e+000 8.750000e+001 -6.928203e+000
      vertex   -4.000000e+000 -8.750000e+001 -6.928203e+000
      vertex   -6.928203e+000 -8.750000e+001 -4.000000e+000
    endloop
  endfacet
  facet normal -9.659258e-001 -0.000000e+000 -2.588190e-001
    outer loop
      vertex   -6.928203e+000 8.750000e+001 -4.000000e+000
      vertex   -6.928203e+000 -8.750000e+001 -4.000000e+000
      vertex   -8.000000e+000 -8.750000e+001 8.575004e-015
    endloop
  endfacet
  facet normal -9.659258e-001 0.000000e+000 2.588190e-001
    outer loop
      vertex   -8.000000e+000 8.750000e+001 8.575004e-015
      vertex   -8.000000e+000 -8.750000e+001 8.575004e-015
      vertex   -6.928203e+000 -8.750000e+001 4.000000e+000
    endloop
  endfacet
  facet normal -7.071068e-001 0.000000e+000 7.071068e-001
    outer loop
      vertex   -6.928203e+000 8.750000e+001 4.000000e+000
      vertex   -6.928203e+000 -8.750000e+001 4.000000e+000
      vertex   -4.000000e+000 -8.750000e+001 6.928203e+000
    endloop
  endfacet
  facet normal -2.588190e-001 0.000000e+000 9.659258e-001
    outer loop
      vertex   -4.000000e+000 8.750000e+001 6.928203e+000
      vertex   -4.000000e+000 -8.750000e+001 6.928203e+000
      vertex   4.532431e-015 -8.750000e+001 8.000000e+000
    endloop
  endfacet
  facet normal 2.588190e-001 0.000000e+000 9.659258e-001
    outer loop
      vertex   4.532431e-015 8.750000e+001 8.000000e+000
      vertex   4.532431e-015 -8.750000e+001 8.000000e+000
      vertex   4.000000e+000 -8.750000e+001 6.928203e+000
    endloop
  endfacet
  facet normal 7.071068e-001 0.000000e+000 7.071068e-001
    outer loop
      vertex   4.000000e+000 8.750000e+001 6.928203e+000
      vertex   4.000000e+000 -8.750000e+001 6.928203e+000
      vertex   6.928203e+000 -8.750000e+001 4.000000e+000
    endloop
  endfacet
  facet normal 9.659258e-001 0.000000e+000 2.588190e-001
    outer loop
      vertex   6.928203e+000 8.750000e+001 4.000000e+000
      vertex   6.928203e+000 -8.750000e+001 4.000000e+000
      vertex   8.000000e+000 -8.750000e+001 -2.266216e-015
    endloop
  endfacet
  facet normal 9.659258e-001 0.000000e+000 -2.588190e-001
    outer loop
      vertex   8.000000e+000 8.750000e+001 -2.266216e-015
      vertex   8.000000e+000 -8.750000e+001 -2.266216e-015
      vertex   6.928203e+000 -8.750000e+001 -4.000000e+000
    endloop
  endfacet
  facet normal 7.071068e-001 0.000000e+000 -7.071068e-001
    outer loop
      vertex   6.928203e+000 8.750000e+001 -4.000000e+000
      vertex   6.928203e+000 -8.750000e+001 -4.000000e+000
      vertex   4.000000e+000 -8.750000e+001 -6.928203e+000
    endloop
  endfacet
  facet normal 2.588190e-001 0.000000e+000 -9.659258e-001
    outer loop
      vertex   4.000000e+000 8.750000e+001 -6.928203e+000
      vertex   4.000000e+000 -8.750000e+001 -6.928203e+000
      vertex   0.000000e+000 -8.750000e+001 -8.000000e+000
    endloop
  endfacet
  facet normal 0.000000e+000 1.000000e+000 0.000000e+000
    outer loop
      vertex   0.000000e+000 8.750000e+001 0.000000e+000
      vertex   -4.000000e+000 8.750000e+001 -6.928203e+000
      vertex   -6.928203e+000 8.750000e+001 -4.000000e+000
    endloop
  endfacet
  facet normal 0.000000e+000 1.000000e+000 -0.000000e+000
    outer loop
      vertex   -6.928203e+000 8.750000e+001 -4.000000e+000
      vertex   -8.000000e+000 8.750000e+001 8.575004e-015
      vertex   0.000000e+000 8.750000e+001 0.000000e+000
    endloop
  endfacet
  facet normal -0.000000e+000 1.000000e+000 0.000000e+000
    outer loop
      vertex   -8.000000e+000 8.750000e+001 8.575004e-015
      vertex   -6.928203e+000 8.750000e+001 4.000000e+000
      vertex   0.000000e+000 8.750000e+001 0.000000e+000
    endloop
  endfacet
  facet normal -0.000000e+000 1.000000e+000 0.000000e+000
    outer loop
      vertex   -6.928203e+000 8.750000e+001 4.000000e+000
      vertex   -4.000000e+000 8.750000e+001 6.928203e+000
      vertex   0.000000e+000 8.750000e+001 0.000000e+000
    endloop
  endfacet
  facet normal -0.000000e+000 1.000000e+000 0.000000e+000
    outer loop
      vertex   -4.000000e+000 8.750000e+001 6.928203e+000
      vertex   4.532431e-015 8.750000e+001 8.000000e+000
      vertex   0.000000e+000 8.750000e+001 0.000000e+000
    endloop
  endfacet
  facet normal 0.000000e+000 1.000000e+000 0.000000e+000
    outer loop
      vertex   4.532431e-015 8.750000e+001 8.000000e+000
      vertex   4.000000e+000 8.750000e+001 6.928203e+000
      vertex   0.000000e+000 8.750000e+001 0.000000e+000
    endloop
  endfacet
  facet normal 0.000000e+000 1.000000e+000 0.000000e+000
    outer loop
      vertex   4.000000e+000 8.750000e+001 6.928203e+000
      vertex   6.928203e+000 8.750000e+001 4.000000e+000
      vertex   0.000000e+000 8.750000e+001 0.000000e+000
    endloop
  endfacet
  facet normal 0.000000e+000 1.000000e+000 0.000000e+000
    outer loop
      vertex   6.928203e+000 8.750000e+001 4.000000e+000
      vertex   8.000000e+000 8.750000e+001 -2.266216e-015
      vertex   0.000000e+000 8.750000e+001 0.000000e+000
    endloop
  endfacet
  facet normal 0.000000e+000 1.000000e+000 0.000000e+000
    outer loop
      vertex   8.000000e+000 8.750000e+001 -2.266216e-015
      vertex   6.928203e+000 8.750000e+001 -4.000000e+000
      vertex   0.000000e+000 8.750000e+001 0.000000e+000
    endloop
  endfacet
  facet normal 0.000000e+000 1.000000e+000 0.000000e+000
    outer loop
      vertex   6.928203e+000 8.750000e+001 -4.000000e+000
      vertex   4.000000e+000 8.750000e+001 -6.928203e+000
      vertex   0.000000e+000 8.750000e+001 0.000000e+000
    endloop
  endfacet
  facet normal 0.000000e+000 1.000000e+000 0.000000e+000
    outer loop
      vertex   4.000000e+000 8.750000e+001 -6.928203e+000
      vertex   -1.959435e-015 8.750000e+001 -8.000000e+000
      vertex   0.000000e+000 8.750000e+001 0.000000e+000
    endloop
  endfacet
  facet normal 0.000000e+000 1.000000e+000 -0.000000e+000
    outer loop
      vertex   -1.959435e-015 8.750000e+001 -8.000000e+000
      vertex   -4.000000e+000 8.750000e+001 -6.928203e+000
      vertex   0.000000e+000 8.750000e+001 0.000000e+000
    endloop
  endfacet
endsolid
