solid PasadoresAcople
  facet normal 0.000000e+000 -1.000000e+000 0.000000e+000
    outer loop
      vertex   1.850934e+002 -1.800000e+002 -3.209654e+000
      vertex   1.903028e+002 -1.800000e+002 -3.275389e+001
      vertex   2.080747e+002 -1.800000e+002 -2.249328e+001
    endloop
  endfacet
  facet normal 0.000000e+000 -1.000000e+000 0.000000e+000
    outer loop
      vertex   2.080747e+002 -1.800000e+002 -2.249328e+001
      vertex   2.150934e+002 -1.800000e+002 -3.209654e+000
      vertex   1.850934e+002 -1.800000e+002 -3.209654e+000
    endloop
  endfacet
  facet normal -0.000000e+000 -1.000000e+000 0.000000e+000
    outer loop
      vertex   2.150934e+002 -1.800000e+002 -3.209654e+000
      vertex   2.080747e+002 -1.800000e+002 1.607397e+001
      vertex   1.850934e+002 -1.800000e+002 -3.209654e+000
    endloop
  endfacet
  facet normal -0.000000e+000 -1.000000e+000 0.000000e+000
    outer loop
      vertex   2.080747e+002 -1.800000e+002 1.607397e+001
      vertex   1.903028e+002 -1.800000e+002 2.633458e+001
      vertex   1.850934e+002 -1.800000e+002 -3.209654e+000
    endloop
  endfacet
  facet normal 0.000000e+000 -1.000000e+000 0.000000e+000
    outer loop
      vertex   1.903028e+002 -1.800000e+002 2.633458e+001
      vertex   1.700934e+002 -1.800000e+002 2.277111e+001
      vertex   1.850934e+002 -1.800000e+002 -3.209654e+000
    endloop
  endfacet
  facet normal 0.000000e+000 -1.000000e+000 -0.000000e+000
    outer loop
      vertex   1.700934e+002 -1.800000e+002 2.277111e+001
      vertex   1.569026e+002 -1.800000e+002 7.050950e+000
      vertex   1.850934e+002 -1.800000e+002 -3.209654e+000
    endloop
  endfacet
  facet normal 0.000000e+000 -1.000000e+000 0.000000e+000
    outer loop
      vertex   1.569026e+002 -1.800000e+002 7.050950e+000
      vertex   1.569026e+002 -1.800000e+002 -1.347026e+001
      vertex   1.850934e+002 -1.800000e+002 -3.209654e+000
    endloop
  endfacet
  facet normal 0.000000e+000 -1.000000e+000 0.000000e+000
    outer loop
      vertex   1.569026e+002 -1.800000e+002 -1.347026e+001
      vertex   1.700934e+002 -1.800000e+002 -2.919042e+001
      vertex   1.850934e+002 -1.800000e+002 -3.209654e+000
    endloop
  endfacet
  facet normal 0.000000e+000 -1.000000e+000 0.000000e+000
    outer loop
      vertex   1.700934e+002 -1.800000e+002 -2.919042e+001
      vertex   1.850934e+002 -1.800000e+002 -3.320965e+001
      vertex   1.850934e+002 -1.800000e+002 -3.209654e+000
    endloop
  endfacet
  facet normal 0.000000e+000 -1.000000e+000 0.000000e+000
    outer loop
      vertex   1.850934e+002 -1.800000e+002 -3.320965e+001
      vertex   1.903028e+002 -1.800000e+002 -3.275389e+001
      vertex   1.850934e+002 -1.800000e+002 -3.209654e+000
    endloop
  endfacet
  facet normal 9.396926e-001 0.000000e+000 -3.420201e-001
    outer loop
      vertex   2.150934e+002 -5.551115e-014 -3.209654e+000
      vertex   2.150934e+002 -1.800000e+002 -3.209654e+000
      vertex   2.080747e+002 -1.800000e+002 -2.249328e+001
    endloop
  endfacet
  facet normal 5.000000e-001 0.000000e+000 -8.660254e-001
    outer loop
      vertex   2.080747e+002 -5.551115e-014 -2.249328e+001
      vertex   2.080747e+002 -1.800000e+002 -2.249328e+001
      vertex   1.903028e+002 -1.800000e+002 -3.275389e+001
    endloop
  endfacet
  facet normal -2.588190e-001 0.000000e+000 -9.659258e-001
    outer loop
      vertex   1.700934e+002 -5.551115e-014 -2.919042e+001
      vertex   1.850934e+002 -5.551115e-014 -3.320965e+001
      vertex   1.850934e+002 -1.800000e+002 -3.320965e+001
    endloop
  endfacet
  facet normal 8.715574e-002 0.000000e+000 -9.961947e-001
    outer loop
      vertex   1.903028e+002 -1.800000e+002 -3.275389e+001
      vertex   1.850934e+002 -1.800000e+002 -3.320965e+001
      vertex   1.850934e+002 -5.551115e-014 -3.320965e+001
    endloop
  endfacet
  facet normal 8.715574e-002 0.000000e+000 -9.961947e-001
    outer loop
      vertex   1.850934e+002 -5.551115e-014 -3.320965e+001
      vertex   1.903028e+002 -5.551115e-014 -3.275389e+001
      vertex   1.903028e+002 -1.800000e+002 -3.275389e+001
    endloop
  endfacet
  facet normal -7.660444e-001 -0.000000e+000 -6.427876e-001
    outer loop
      vertex   1.700934e+002 -5.551115e-014 -2.919042e+001
      vertex   1.700934e+002 -1.800000e+002 -2.919042e+001
      vertex   1.569026e+002 -1.800000e+002 -1.347026e+001
    endloop
  endfacet
  facet normal -1.000000e+000 0.000000e+000 0.000000e+000
    outer loop
      vertex   1.569026e+002 -5.551115e-014 -1.347026e+001
      vertex   1.569026e+002 -1.800000e+002 -1.347026e+001
      vertex   1.569026e+002 -1.800000e+002 7.050950e+000
    endloop
  endfacet
  facet normal -7.660444e-001 0.000000e+000 6.427876e-001
    outer loop
      vertex   1.569026e+002 -5.551115e-014 7.050950e+000
      vertex   1.569026e+002 -1.800000e+002 7.050950e+000
      vertex   1.700934e+002 -1.800000e+002 2.277111e+001
    endloop
  endfacet
  facet normal -1.736482e-001 0.000000e+000 9.848078e-001
    outer loop
      vertex   1.700934e+002 -5.551115e-014 2.277111e+001
      vertex   1.700934e+002 -1.800000e+002 2.277111e+001
      vertex   1.903028e+002 -1.800000e+002 2.633458e+001
    endloop
  endfacet
  facet normal 5.000000e-001 0.000000e+000 8.660254e-001
    outer loop
      vertex   1.903028e+002 -5.551115e-014 2.633458e+001
      vertex   1.903028e+002 -1.800000e+002 2.633458e+001
      vertex   2.080747e+002 -1.800000e+002 1.607397e+001
    endloop
  endfacet
  facet normal 9.396926e-001 0.000000e+000 3.420201e-001
    outer loop
      vertex   2.080747e+002 -5.551115e-014 1.607397e+001
      vertex   2.080747e+002 -1.800000e+002 1.607397e+001
      vertex   2.150934e+002 -1.800000e+002 -3.209654e+000
    endloop
  endfacet
  facet normal 9.396926e-001 -0.000000e+000 3.420201e-001
    outer loop
      vertex   2.150934e+002 -1.800000e+002 -3.209654e+000
      vertex   2.150934e+002 -5.551115e-014 -3.209654e+000
      vertex   2.080747e+002 -5.551115e-014 1.607397e+001
    endloop
  endfacet
  facet normal 5.000000e-001 -0.000000e+000 8.660254e-001
    outer loop
      vertex   2.080747e+002 -1.800000e+002 1.607397e+001
      vertex   2.080747e+002 -5.551115e-014 1.607397e+001
      vertex   1.903028e+002 -5.551115e-014 2.633458e+001
    endloop
  endfacet
  facet normal -1.736482e-001 0.000000e+000 9.848078e-001
    outer loop
      vertex   1.903028e+002 -1.800000e+002 2.633458e+001
      vertex   1.903028e+002 -5.551115e-014 2.633458e+001
      vertex   1.700934e+002 -5.551115e-014 2.277111e+001
    endloop
  endfacet
  facet normal -7.660444e-001 0.000000e+000 6.427876e-001
    outer loop
      vertex   1.700934e+002 -1.800000e+002 2.277111e+001
      vertex   1.700934e+002 -5.551115e-014 2.277111e+001
      vertex   1.569026e+002 -5.551115e-014 7.050950e+000
    endloop
  endfacet
  facet normal -1.000000e+000 0.000000e+000 0.000000e+000
    outer loop
      vertex   1.569026e+002 -1.800000e+002 7.050950e+000
      vertex   1.569026e+002 -5.551115e-014 7.050950e+000
      vertex   1.569026e+002 -5.551115e-014 -1.347026e+001
    endloop
  endfacet
  facet normal -7.660444e-001 0.000000e+000 -6.427876e-001
    outer loop
      vertex   1.569026e+002 -1.800000e+002 -1.347026e+001
      vertex   1.569026e+002 -5.551115e-014 -1.347026e+001
      vertex   1.700934e+002 -5.551115e-014 -2.919042e+001
    endloop
  endfacet
  facet normal -2.588190e-001 0.000000e+000 -9.659258e-001
    outer loop
      vertex   1.850934e+002 -1.800000e+002 -3.320965e+001
      vertex   1.700934e+002 -1.800000e+002 -2.919042e+001
      vertex   1.700934e+002 -5.551115e-014 -2.919042e+001
    endloop
  endfacet
  facet normal 5.000000e-001 0.000000e+000 -8.660254e-001
    outer loop
      vertex   1.903028e+002 -1.800000e+002 -3.275389e+001
      vertex   1.903028e+002 -5.551115e-014 -3.275389e+001
      vertex   2.080747e+002 -5.551115e-014 -2.249328e+001
    endloop
  endfacet
  facet normal 9.396926e-001 0.000000e+000 -3.420201e-001
    outer loop
      vertex   2.080747e+002 -1.800000e+002 -2.249328e+001
      vertex   2.080747e+002 -5.551115e-014 -2.249328e+001
      vertex   2.150934e+002 -5.551115e-014 -3.209654e+000
    endloop
  endfacet
  facet normal -1.508437e-015 1.000000e+000 -1.265729e-015
    outer loop
      vertex   1.850934e+002 0.000000e+000 -3.209654e+000
      vertex   1.700934e+002 -5.551115e-014 -2.919042e+001
      vertex   1.569026e+002 -5.551115e-014 -1.347026e+001
    endloop
  endfacet
  facet normal -1.969124e-015 1.000000e+000 0.000000e+000
    outer loop
      vertex   1.569026e+002 -5.551115e-014 -1.347026e+001
      vertex   1.569026e+002 -5.551115e-014 7.050950e+000
      vertex   1.850934e+002 0.000000e+000 -3.209654e+000
    endloop
  endfacet
  facet normal -1.508437e-015 1.000000e+000 1.265729e-015
    outer loop
      vertex   1.569026e+002 -5.551115e-014 7.050950e+000
      vertex   1.700934e+002 -5.551115e-014 2.277111e+001
      vertex   1.850934e+002 0.000000e+000 -3.209654e+000
    endloop
  endfacet
  facet normal -3.419349e-016 1.000000e+000 1.939209e-015
    outer loop
      vertex   1.700934e+002 -5.551115e-014 2.277111e+001
      vertex   1.903028e+002 -5.551115e-014 2.633458e+001
      vertex   1.850934e+002 0.000000e+000 -3.209654e+000
    endloop
  endfacet
  facet normal 9.845622e-016 1.000000e+000 1.705312e-015
    outer loop
      vertex   1.903028e+002 -5.551115e-014 2.633458e+001
      vertex   2.080747e+002 -5.551115e-014 1.607397e+001
      vertex   1.850934e+002 0.000000e+000 -3.209654e+000
    endloop
  endfacet
  facet normal 1.850372e-015 1.000000e+000 6.734802e-016
    outer loop
      vertex   2.080747e+002 -5.551115e-014 1.607397e+001
      vertex   2.150934e+002 -5.551115e-014 -3.209654e+000
      vertex   1.850934e+002 0.000000e+000 -3.209654e+000
    endloop
  endfacet
  facet normal 1.850372e-015 1.000000e+000 -6.734802e-016
    outer loop
      vertex   2.150934e+002 -5.551115e-014 -3.209654e+000
      vertex   2.080747e+002 -5.551115e-014 -2.249328e+001
      vertex   1.850934e+002 0.000000e+000 -3.209654e+000
    endloop
  endfacet
  facet normal 9.845622e-016 1.000000e+000 -1.705312e-015
    outer loop
      vertex   2.080747e+002 -5.551115e-014 -2.249328e+001
      vertex   1.903028e+002 -5.551115e-014 -3.275389e+001
      vertex   1.850934e+002 0.000000e+000 -3.209654e+000
    endloop
  endfacet
  facet normal 1.618865e-016 1.000000e+000 -1.850372e-015
    outer loop
      vertex   1.903028e+002 -5.551115e-014 -3.275389e+001
      vertex   1.850934e+002 -5.551115e-014 -3.320965e+001
      vertex   1.850934e+002 0.000000e+000 -3.209654e+000
    endloop
  endfacet
  facet normal -4.958056e-016 1.000000e+000 -1.850372e-015
    outer loop
      vertex   1.850934e+002 -5.551115e-014 -3.320965e+001
      vertex   1.700934e+002 -5.551115e-014 -2.919042e+001
      vertex   1.850934e+002 0.000000e+000 -3.209654e+000
    endloop
  endfacet
  facet normal 0.000000e+000 -1.000000e+000 0.000000e+000
    outer loop
      vertex   -3.566282e+000 -1.800000e+002 -1.883030e+002
      vertex   -3.311052e+001 -1.800000e+002 -1.935125e+002
      vertex   -2.284991e+001 -1.800000e+002 -2.112844e+002
    endloop
  endfacet
  facet normal 0.000000e+000 -1.000000e+000 0.000000e+000
    outer loop
      vertex   -2.284991e+001 -1.800000e+002 -2.112844e+002
      vertex   -3.566282e+000 -1.800000e+002 -2.183030e+002
      vertex   -3.566282e+000 -1.800000e+002 -1.883030e+002
    endloop
  endfacet
  facet normal 0.000000e+000 -1.000000e+000 0.000000e+000
    outer loop
      vertex   -3.566282e+000 -1.800000e+002 -2.183030e+002
      vertex   1.571735e+001 -1.800000e+002 -2.112844e+002
      vertex   -3.566282e+000 -1.800000e+002 -1.883030e+002
    endloop
  endfacet
  facet normal 0.000000e+000 -1.000000e+000 0.000000e+000
    outer loop
      vertex   1.571735e+001 -1.800000e+002 -2.112844e+002
      vertex   2.597795e+001 -1.800000e+002 -1.935125e+002
      vertex   -3.566282e+000 -1.800000e+002 -1.883030e+002
    endloop
  endfacet
  facet normal 0.000000e+000 -1.000000e+000 0.000000e+000
    outer loop
      vertex   2.597795e+001 -1.800000e+002 -1.935125e+002
      vertex   2.241448e+001 -1.800000e+002 -1.733030e+002
      vertex   -3.566282e+000 -1.800000e+002 -1.883030e+002
    endloop
  endfacet
  facet normal -0.000000e+000 -1.000000e+000 0.000000e+000
    outer loop
      vertex   2.241448e+001 -1.800000e+002 -1.733030e+002
      vertex   6.694322e+000 -1.800000e+002 -1.601122e+002
      vertex   -3.566282e+000 -1.800000e+002 -1.883030e+002
    endloop
  endfacet
  facet normal 0.000000e+000 -1.000000e+000 0.000000e+000
    outer loop
      vertex   6.694322e+000 -1.800000e+002 -1.601122e+002
      vertex   -1.382689e+001 -1.800000e+002 -1.601122e+002
      vertex   -3.566282e+000 -1.800000e+002 -1.883030e+002
    endloop
  endfacet
  facet normal 0.000000e+000 -1.000000e+000 -0.000000e+000
    outer loop
      vertex   -1.382689e+001 -1.800000e+002 -1.601122e+002
      vertex   -2.954704e+001 -1.800000e+002 -1.733030e+002
      vertex   -3.566282e+000 -1.800000e+002 -1.883030e+002
    endloop
  endfacet
  facet normal 0.000000e+000 -1.000000e+000 -0.000000e+000
    outer loop
      vertex   -2.954704e+001 -1.800000e+002 -1.733030e+002
      vertex   -3.356628e+001 -1.800000e+002 -1.883030e+002
      vertex   -3.566282e+000 -1.800000e+002 -1.883030e+002
    endloop
  endfacet
  facet normal 0.000000e+000 -1.000000e+000 0.000000e+000
    outer loop
      vertex   -3.356628e+001 -1.800000e+002 -1.883030e+002
      vertex   -3.311052e+001 -1.800000e+002 -1.935125e+002
      vertex   -3.566282e+000 -1.800000e+002 -1.883030e+002
    endloop
  endfacet
  facet normal -3.420201e-001 -0.000000e+000 -9.396926e-001
    outer loop
      vertex   -3.566282e+000 -5.551115e-014 -2.183030e+002
      vertex   -3.566282e+000 -1.800000e+002 -2.183030e+002
      vertex   -2.284991e+001 -1.800000e+002 -2.112844e+002
    endloop
  endfacet
  facet normal -8.660254e-001 -0.000000e+000 -5.000000e-001
    outer loop
      vertex   -2.284991e+001 -5.551115e-014 -2.112844e+002
      vertex   -2.284991e+001 -1.800000e+002 -2.112844e+002
      vertex   -3.311052e+001 -1.800000e+002 -1.935125e+002
    endloop
  endfacet
  facet normal -9.659258e-001 0.000000e+000 2.588190e-001
    outer loop
      vertex   -2.954704e+001 -5.551115e-014 -1.733030e+002
      vertex   -3.356628e+001 -5.551115e-014 -1.883030e+002
      vertex   -3.356628e+001 -1.800000e+002 -1.883030e+002
    endloop
  endfacet
  facet normal -9.961947e-001 0.000000e+000 -8.715574e-002
    outer loop
      vertex   -3.311052e+001 -1.800000e+002 -1.935125e+002
      vertex   -3.356628e+001 -1.800000e+002 -1.883030e+002
      vertex   -3.356628e+001 -5.551115e-014 -1.883030e+002
    endloop
  endfacet
  facet normal -9.961947e-001 0.000000e+000 -8.715574e-002
    outer loop
      vertex   -3.356628e+001 -5.551115e-014 -1.883030e+002
      vertex   -3.311052e+001 -5.551115e-014 -1.935125e+002
      vertex   -3.311052e+001 -1.800000e+002 -1.935125e+002
    endloop
  endfacet
  facet normal -6.427876e-001 0.000000e+000 7.660444e-001
    outer loop
      vertex   -2.954704e+001 -5.551115e-014 -1.733030e+002
      vertex   -2.954704e+001 -1.800000e+002 -1.733030e+002
      vertex   -1.382689e+001 -1.800000e+002 -1.601122e+002
    endloop
  endfacet
  facet normal -1.352531e-015 0.000000e+000 1.000000e+000
    outer loop
      vertex   -1.382689e+001 -5.551115e-014 -1.601122e+002
      vertex   -1.382689e+001 -1.800000e+002 -1.601122e+002
      vertex   6.694322e+000 -1.800000e+002 -1.601122e+002
    endloop
  endfacet
  facet normal 6.427876e-001 0.000000e+000 7.660444e-001
    outer loop
      vertex   6.694322e+000 -5.551115e-014 -1.601122e+002
      vertex   6.694322e+000 -1.800000e+002 -1.601122e+002
      vertex   2.241448e+001 -1.800000e+002 -1.733030e+002
    endloop
  endfacet
  facet normal 9.848078e-001 0.000000e+000 1.736482e-001
    outer loop
      vertex   2.241448e+001 -5.551115e-014 -1.733030e+002
      vertex   2.241448e+001 -1.800000e+002 -1.733030e+002
      vertex   2.597795e+001 -1.800000e+002 -1.935125e+002
    endloop
  endfacet
  facet normal 8.660254e-001 0.000000e+000 -5.000000e-001
    outer loop
      vertex   2.597795e+001 -5.551115e-014 -1.935125e+002
      vertex   2.597795e+001 -1.800000e+002 -1.935125e+002
      vertex   1.571735e+001 -1.800000e+002 -2.112844e+002
    endloop
  endfacet
  facet normal 3.420201e-001 0.000000e+000 -9.396926e-001
    outer loop
      vertex   1.571735e+001 -5.551115e-014 -2.112844e+002
      vertex   1.571735e+001 -1.800000e+002 -2.112844e+002
      vertex   -3.566282e+000 -1.800000e+002 -2.183030e+002
    endloop
  endfacet
  facet normal 3.420201e-001 0.000000e+000 -9.396926e-001
    outer loop
      vertex   -3.566282e+000 -1.800000e+002 -2.183030e+002
      vertex   -3.566282e+000 -5.551115e-014 -2.183030e+002
      vertex   1.571735e+001 -5.551115e-014 -2.112844e+002
    endloop
  endfacet
  facet normal 8.660254e-001 0.000000e+000 -5.000000e-001
    outer loop
      vertex   1.571735e+001 -1.800000e+002 -2.112844e+002
      vertex   1.571735e+001 -5.551115e-014 -2.112844e+002
      vertex   2.597795e+001 -5.551115e-014 -1.935125e+002
    endloop
  endfacet
  facet normal 9.848078e-001 -0.000000e+000 1.736482e-001
    outer loop
      vertex   2.597795e+001 -1.800000e+002 -1.935125e+002
      vertex   2.597795e+001 -5.551115e-014 -1.935125e+002
      vertex   2.241448e+001 -5.551115e-014 -1.733030e+002
    endloop
  endfacet
  facet normal 6.427876e-001 -0.000000e+000 7.660444e-001
    outer loop
      vertex   2.241448e+001 -1.800000e+002 -1.733030e+002
      vertex   2.241448e+001 -5.551115e-014 -1.733030e+002
      vertex   6.694322e+000 -5.551115e-014 -1.601122e+002
    endloop
  endfacet
  facet normal -1.352531e-015 0.000000e+000 1.000000e+000
    outer loop
      vertex   6.694322e+000 -1.800000e+002 -1.601122e+002
      vertex   6.694322e+000 -5.551115e-014 -1.601122e+002
      vertex   -1.382689e+001 -5.551115e-014 -1.601122e+002
    endloop
  endfacet
  facet normal -6.427876e-001 0.000000e+000 7.660444e-001
    outer loop
      vertex   -1.382689e+001 -1.800000e+002 -1.601122e+002
      vertex   -1.382689e+001 -5.551115e-014 -1.601122e+002
      vertex   -2.954704e+001 -5.551115e-014 -1.733030e+002
    endloop
  endfacet
  facet normal -9.659258e-001 0.000000e+000 2.588190e-001
    outer loop
      vertex   -3.356628e+001 -1.800000e+002 -1.883030e+002
      vertex   -2.954704e+001 -1.800000e+002 -1.733030e+002
      vertex   -2.954704e+001 -5.551115e-014 -1.733030e+002
    endloop
  endfacet
  facet normal -8.660254e-001 0.000000e+000 -5.000000e-001
    outer loop
      vertex   -3.311052e+001 -1.800000e+002 -1.935125e+002
      vertex   -3.311052e+001 -5.551115e-014 -1.935125e+002
      vertex   -2.284991e+001 -5.551115e-014 -2.112844e+002
    endloop
  endfacet
  facet normal -3.420201e-001 0.000000e+000 -9.396926e-001
    outer loop
      vertex   -2.284991e+001 -1.800000e+002 -2.112844e+002
      vertex   -2.284991e+001 -5.551115e-014 -2.112844e+002
      vertex   -3.566282e+000 -5.551115e-014 -2.183030e+002
    endloop
  endfacet
  facet normal -1.265729e-015 1.000000e+000 1.508437e-015
    outer loop
      vertex   -3.566282e+000 0.000000e+000 -1.883030e+002
      vertex   -2.954704e+001 -5.551115e-014 -1.733030e+002
      vertex   -1.382689e+001 -5.551115e-014 -1.601122e+002
    endloop
  endfacet
  facet normal -2.663302e-030 1.000000e+000 1.969124e-015
    outer loop
      vertex   -1.382689e+001 -5.551115e-014 -1.601122e+002
      vertex   6.694322e+000 -5.551115e-014 -1.601122e+002
      vertex   -3.566282e+000 0.000000e+000 -1.883030e+002
    endloop
  endfacet
  facet normal 1.265729e-015 1.000000e+000 1.508437e-015
    outer loop
      vertex   6.694322e+000 -5.551115e-014 -1.601122e+002
      vertex   2.241448e+001 -5.551115e-014 -1.733030e+002
      vertex   -3.566282e+000 0.000000e+000 -1.883030e+002
    endloop
  endfacet
  facet normal 1.939209e-015 1.000000e+000 3.419349e-016
    outer loop
      vertex   2.241448e+001 -5.551115e-014 -1.733030e+002
      vertex   2.597795e+001 -5.551115e-014 -1.935125e+002
      vertex   -3.566282e+000 0.000000e+000 -1.883030e+002
    endloop
  endfacet
  facet normal 1.705312e-015 1.000000e+000 -9.845622e-016
    outer loop
      vertex   2.597795e+001 -5.551115e-014 -1.935125e+002
      vertex   1.571735e+001 -5.551115e-014 -2.112844e+002
      vertex   -3.566282e+000 0.000000e+000 -1.883030e+002
    endloop
  endfacet
  facet normal 6.734802e-016 1.000000e+000 -1.850372e-015
    outer loop
      vertex   1.571735e+001 -5.551115e-014 -2.112844e+002
      vertex   -3.566282e+000 -5.551115e-014 -2.183030e+002
      vertex   -3.566282e+000 0.000000e+000 -1.883030e+002
    endloop
  endfacet
  facet normal -6.734802e-016 1.000000e+000 -1.850372e-015
    outer loop
      vertex   -3.566282e+000 -5.551115e-014 -2.183030e+002
      vertex   -2.284991e+001 -5.551115e-014 -2.112844e+002
      vertex   -3.566282e+000 0.000000e+000 -1.883030e+002
    endloop
  endfacet
  facet normal -1.705312e-015 1.000000e+000 -9.845622e-016
    outer loop
      vertex   -2.284991e+001 -5.551115e-014 -2.112844e+002
      vertex   -3.311052e+001 -5.551115e-014 -1.935125e+002
      vertex   -3.566282e+000 0.000000e+000 -1.883030e+002
    endloop
  endfacet
  facet normal -1.850372e-015 1.000000e+000 -1.618865e-016
    outer loop
      vertex   -3.311052e+001 -5.551115e-014 -1.935125e+002
      vertex   -3.356628e+001 -5.551115e-014 -1.883030e+002
      vertex   -3.566282e+000 0.000000e+000 -1.883030e+002
    endloop
  endfacet
  facet normal -1.850372e-015 1.000000e+000 4.958056e-016
    outer loop
      vertex   -3.356628e+001 -5.551115e-014 -1.883030e+002
      vertex   -2.954704e+001 -5.551115e-014 -1.733030e+002
      vertex   -3.566282e+000 0.000000e+000 -1.883030e+002
    endloop
  endfacet
  facet normal 0.000000e+000 -1.000000e+000 0.000000e+000
    outer loop
      vertex   -1.886597e+002 -1.800000e+002 3.566282e-001
      vertex   -1.938691e+002 -1.800000e+002 2.990086e+001
      vertex   -2.116410e+002 -1.800000e+002 1.964026e+001
    endloop
  endfacet
  facet normal 0.000000e+000 -1.000000e+000 -0.000000e+000
    outer loop
      vertex   -2.116410e+002 -1.800000e+002 1.964026e+001
      vertex   -2.186597e+002 -1.800000e+002 3.566282e-001
      vertex   -1.886597e+002 -1.800000e+002 3.566282e-001
    endloop
  endfacet
  facet normal 0.000000e+000 -1.000000e+000 0.000000e+000
    outer loop
      vertex   -2.186597e+002 -1.800000e+002 3.566282e-001
      vertex   -2.116410e+002 -1.800000e+002 -1.892700e+001
      vertex   -1.886597e+002 -1.800000e+002 3.566282e-001
    endloop
  endfacet
  facet normal 0.000000e+000 -1.000000e+000 0.000000e+000
    outer loop
      vertex   -2.116410e+002 -1.800000e+002 -1.892700e+001
      vertex   -1.938691e+002 -1.800000e+002 -2.918760e+001
      vertex   -1.886597e+002 -1.800000e+002 3.566282e-001
    endloop
  endfacet
  facet normal 0.000000e+000 -1.000000e+000 0.000000e+000
    outer loop
      vertex   -1.938691e+002 -1.800000e+002 -2.918760e+001
      vertex   -1.736597e+002 -1.800000e+002 -2.562413e+001
      vertex   -1.886597e+002 -1.800000e+002 3.566282e-001
    endloop
  endfacet
  facet normal 0.000000e+000 -1.000000e+000 0.000000e+000
    outer loop
      vertex   -1.736597e+002 -1.800000e+002 -2.562413e+001
      vertex   -1.604689e+002 -1.800000e+002 -9.903976e+000
      vertex   -1.886597e+002 -1.800000e+002 3.566282e-001
    endloop
  endfacet
  facet normal 0.000000e+000 -1.000000e+000 0.000000e+000
    outer loop
      vertex   -1.604689e+002 -1.800000e+002 -9.903976e+000
      vertex   -1.604689e+002 -1.800000e+002 1.061723e+001
      vertex   -1.886597e+002 -1.800000e+002 3.566282e-001
    endloop
  endfacet
  facet normal -0.000000e+000 -1.000000e+000 0.000000e+000
    outer loop
      vertex   -1.604689e+002 -1.800000e+002 1.061723e+001
      vertex   -1.736597e+002 -1.800000e+002 2.633739e+001
      vertex   -1.886597e+002 -1.800000e+002 3.566282e-001
    endloop
  endfacet
  facet normal -0.000000e+000 -1.000000e+000 0.000000e+000
    outer loop
      vertex   -1.736597e+002 -1.800000e+002 2.633739e+001
      vertex   -1.886597e+002 -1.800000e+002 3.035663e+001
      vertex   -1.886597e+002 -1.800000e+002 3.566282e-001
    endloop
  endfacet
  facet normal 0.000000e+000 -1.000000e+000 -0.000000e+000
    outer loop
      vertex   -1.886597e+002 -1.800000e+002 3.035663e+001
      vertex   -1.938691e+002 -1.800000e+002 2.990086e+001
      vertex   -1.886597e+002 -1.800000e+002 3.566282e-001
    endloop
  endfacet
  facet normal -9.396926e-001 0.000000e+000 3.420201e-001
    outer loop
      vertex   -2.186597e+002 -5.551115e-014 3.566282e-001
      vertex   -2.186597e+002 -1.800000e+002 3.566282e-001
      vertex   -2.116410e+002 -1.800000e+002 1.964026e+001
    endloop
  endfacet
  facet normal -5.000000e-001 0.000000e+000 8.660254e-001
    outer loop
      vertex   -2.116410e+002 -5.551115e-014 1.964026e+001
      vertex   -2.116410e+002 -1.800000e+002 1.964026e+001
      vertex   -1.938691e+002 -1.800000e+002 2.990086e+001
    endloop
  endfacet
  facet normal 2.588190e-001 0.000000e+000 9.659258e-001
    outer loop
      vertex   -1.736597e+002 -5.551115e-014 2.633739e+001
      vertex   -1.886597e+002 -5.551115e-014 3.035663e+001
      vertex   -1.886597e+002 -1.800000e+002 3.035663e+001
    endloop
  endfacet
  facet normal -8.715574e-002 0.000000e+000 9.961947e-001
    outer loop
      vertex   -1.938691e+002 -1.800000e+002 2.990086e+001
      vertex   -1.886597e+002 -1.800000e+002 3.035663e+001
      vertex   -1.886597e+002 -5.551115e-014 3.035663e+001
    endloop
  endfacet
  facet normal -8.715574e-002 0.000000e+000 9.961947e-001
    outer loop
      vertex   -1.886597e+002 -5.551115e-014 3.035663e+001
      vertex   -1.938691e+002 -5.551115e-014 2.990086e+001
      vertex   -1.938691e+002 -1.800000e+002 2.990086e+001
    endloop
  endfacet
  facet normal 7.660444e-001 0.000000e+000 6.427876e-001
    outer loop
      vertex   -1.736597e+002 -5.551115e-014 2.633739e+001
      vertex   -1.736597e+002 -1.800000e+002 2.633739e+001
      vertex   -1.604689e+002 -1.800000e+002 1.061723e+001
    endloop
  endfacet
  facet normal 1.000000e+000 0.000000e+000 1.352531e-015
    outer loop
      vertex   -1.604689e+002 -5.551115e-014 1.061723e+001
      vertex   -1.604689e+002 -1.800000e+002 1.061723e+001
      vertex   -1.604689e+002 -1.800000e+002 -9.903976e+000
    endloop
  endfacet
  facet normal 7.660444e-001 0.000000e+000 -6.427876e-001
    outer loop
      vertex   -1.604689e+002 -5.551115e-014 -9.903976e+000
      vertex   -1.604689e+002 -1.800000e+002 -9.903976e+000
      vertex   -1.736597e+002 -1.800000e+002 -2.562413e+001
    endloop
  endfacet
  facet normal 1.736482e-001 0.000000e+000 -9.848078e-001
    outer loop
      vertex   -1.736597e+002 -5.551115e-014 -2.562413e+001
      vertex   -1.736597e+002 -1.800000e+002 -2.562413e+001
      vertex   -1.938691e+002 -1.800000e+002 -2.918760e+001
    endloop
  endfacet
  facet normal -5.000000e-001 -0.000000e+000 -8.660254e-001
    outer loop
      vertex   -1.938691e+002 -5.551115e-014 -2.918760e+001
      vertex   -1.938691e+002 -1.800000e+002 -2.918760e+001
      vertex   -2.116410e+002 -1.800000e+002 -1.892700e+001
    endloop
  endfacet
  facet normal -9.396926e-001 -0.000000e+000 -3.420201e-001
    outer loop
      vertex   -2.116410e+002 -5.551115e-014 -1.892700e+001
      vertex   -2.116410e+002 -1.800000e+002 -1.892700e+001
      vertex   -2.186597e+002 -1.800000e+002 3.566282e-001
    endloop
  endfacet
  facet normal -9.396926e-001 0.000000e+000 -3.420201e-001
    outer loop
      vertex   -2.186597e+002 -1.800000e+002 3.566282e-001
      vertex   -2.186597e+002 -5.551115e-014 3.566282e-001
      vertex   -2.116410e+002 -5.551115e-014 -1.892700e+001
    endloop
  endfacet
  facet normal -5.000000e-001 0.000000e+000 -8.660254e-001
    outer loop
      vertex   -2.116410e+002 -1.800000e+002 -1.892700e+001
      vertex   -2.116410e+002 -5.551115e-014 -1.892700e+001
      vertex   -1.938691e+002 -5.551115e-014 -2.918760e+001
    endloop
  endfacet
  facet normal 1.736482e-001 0.000000e+000 -9.848078e-001
    outer loop
      vertex   -1.938691e+002 -1.800000e+002 -2.918760e+001
      vertex   -1.938691e+002 -5.551115e-014 -2.918760e+001
      vertex   -1.736597e+002 -5.551115e-014 -2.562413e+001
    endloop
  endfacet
  facet normal 7.660444e-001 0.000000e+000 -6.427876e-001
    outer loop
      vertex   -1.736597e+002 -1.800000e+002 -2.562413e+001
      vertex   -1.736597e+002 -5.551115e-014 -2.562413e+001
      vertex   -1.604689e+002 -5.551115e-014 -9.903976e+000
    endloop
  endfacet
  facet normal 1.000000e+000 -0.000000e+000 1.352531e-015
    outer loop
      vertex   -1.604689e+002 -1.800000e+002 -9.903976e+000
      vertex   -1.604689e+002 -5.551115e-014 -9.903976e+000
      vertex   -1.604689e+002 -5.551115e-014 1.061723e+001
    endloop
  endfacet
  facet normal 7.660444e-001 -0.000000e+000 6.427876e-001
    outer loop
      vertex   -1.604689e+002 -1.800000e+002 1.061723e+001
      vertex   -1.604689e+002 -5.551115e-014 1.061723e+001
      vertex   -1.736597e+002 -5.551115e-014 2.633739e+001
    endloop
  endfacet
  facet normal 2.588190e-001 0.000000e+000 9.659258e-001
    outer loop
      vertex   -1.886597e+002 -1.800000e+002 3.035663e+001
      vertex   -1.736597e+002 -1.800000e+002 2.633739e+001
      vertex   -1.736597e+002 -5.551115e-014 2.633739e+001
    endloop
  endfacet
  facet normal -5.000000e-001 0.000000e+000 8.660254e-001
    outer loop
      vertex   -1.938691e+002 -1.800000e+002 2.990086e+001
      vertex   -1.938691e+002 -5.551115e-014 2.990086e+001
      vertex   -2.116410e+002 -5.551115e-014 1.964026e+001
    endloop
  endfacet
  facet normal -9.396926e-001 0.000000e+000 3.420201e-001
    outer loop
      vertex   -2.116410e+002 -1.800000e+002 1.964026e+001
      vertex   -2.116410e+002 -5.551115e-014 1.964026e+001
      vertex   -2.186597e+002 -5.551115e-014 3.566282e-001
    endloop
  endfacet
  facet normal 1.508437e-015 1.000000e+000 1.265729e-015
    outer loop
      vertex   -1.886597e+002 0.000000e+000 3.566282e-001
      vertex   -1.736597e+002 -5.551115e-014 2.633739e+001
      vertex   -1.604689e+002 -5.551115e-014 1.061723e+001
    endloop
  endfacet
  facet normal 1.969124e-015 1.000000e+000 2.663302e-030
    outer loop
      vertex   -1.604689e+002 -5.551115e-014 1.061723e+001
      vertex   -1.604689e+002 -5.551115e-014 -9.903976e+000
      vertex   -1.886597e+002 0.000000e+000 3.566282e-001
    endloop
  endfacet
  facet normal 1.508437e-015 1.000000e+000 -1.265729e-015
    outer loop
      vertex   -1.604689e+002 -5.551115e-014 -9.903976e+000
      vertex   -1.736597e+002 -5.551115e-014 -2.562413e+001
      vertex   -1.886597e+002 0.000000e+000 3.566282e-001
    endloop
  endfacet
  facet normal 3.419349e-016 1.000000e+000 -1.939209e-015
    outer loop
      vertex   -1.736597e+002 -5.551115e-014 -2.562413e+001
      vertex   -1.938691e+002 -5.551115e-014 -2.918760e+001
      vertex   -1.886597e+002 0.000000e+000 3.566282e-001
    endloop
  endfacet
  facet normal -9.845622e-016 1.000000e+000 -1.705312e-015
    outer loop
      vertex   -1.938691e+002 -5.551115e-014 -2.918760e+001
      vertex   -2.116410e+002 -5.551115e-014 -1.892700e+001
      vertex   -1.886597e+002 0.000000e+000 3.566282e-001
    endloop
  endfacet
  facet normal -1.850372e-015 1.000000e+000 -6.734802e-016
    outer loop
      vertex   -2.116410e+002 -5.551115e-014 -1.892700e+001
      vertex   -2.186597e+002 -5.551115e-014 3.566282e-001
      vertex   -1.886597e+002 0.000000e+000 3.566282e-001
    endloop
  endfacet
  facet normal -1.850372e-015 1.000000e+000 6.734802e-016
    outer loop
      vertex   -2.186597e+002 -5.551115e-014 3.566282e-001
      vertex   -2.116410e+002 -5.551115e-014 1.964026e+001
      vertex   -1.886597e+002 0.000000e+000 3.566282e-001
    endloop
  endfacet
  facet normal -9.845622e-016 1.000000e+000 1.705312e-015
    outer loop
      vertex   -2.116410e+002 -5.551115e-014 1.964026e+001
      vertex   -1.938691e+002 -5.551115e-014 2.990086e+001
      vertex   -1.886597e+002 0.000000e+000 3.566282e-001
    endloop
  endfacet
  facet normal -1.618865e-016 1.000000e+000 1.850372e-015
    outer loop
      vertex   -1.938691e+002 -5.551115e-014 2.990086e+001
      vertex   -1.886597e+002 -5.551115e-014 3.035663e+001
      vertex   -1.886597e+002 0.000000e+000 3.566282e-001
    endloop
  endfacet
  facet normal 4.958056e-016 1.000000e+000 1.850372e-015
    outer loop
      vertex   -1.886597e+002 -5.551115e-014 3.035663e+001
      vertex   -1.736597e+002 -5.551115e-014 2.633739e+001
      vertex   -1.886597e+002 0.000000e+000 3.566282e-001
    endloop
  endfacet
  facet normal 0.000000e+000 -1.000000e+000 0.000000e+000
    outer loop
      vertex   0.000000e+000 -1.800000e+002 1.854500e+002
      vertex   2.954423e+001 -1.800000e+002 1.906594e+002
      vertex   1.928363e+001 -1.800000e+002 2.084313e+002
    endloop
  endfacet
  facet normal -0.000000e+000 -1.000000e+000 0.000000e+000
    outer loop
      vertex   1.928363e+001 -1.800000e+002 2.084313e+002
      vertex   -7.347881e-015 -1.800000e+002 2.154500e+002
      vertex   0.000000e+000 -1.800000e+002 1.854500e+002
    endloop
  endfacet
  facet normal 0.000000e+000 -1.000000e+000 -0.000000e+000
    outer loop
      vertex   -7.347881e-015 -1.800000e+002 2.154500e+002
      vertex   -1.928363e+001 -1.800000e+002 2.084313e+002
      vertex   0.000000e+000 -1.800000e+002 1.854500e+002
    endloop
  endfacet
  facet normal 0.000000e+000 -1.000000e+000 -0.000000e+000
    outer loop
      vertex   -1.928363e+001 -1.800000e+002 2.084313e+002
      vertex   -2.954423e+001 -1.800000e+002 1.906594e+002
      vertex   0.000000e+000 -1.800000e+002 1.854500e+002
    endloop
  endfacet
  facet normal 0.000000e+000 -1.000000e+000 0.000000e+000
    outer loop
      vertex   -2.954423e+001 -1.800000e+002 1.906594e+002
      vertex   -2.598076e+001 -1.800000e+002 1.704500e+002
      vertex   0.000000e+000 -1.800000e+002 1.854500e+002
    endloop
  endfacet
  facet normal 0.000000e+000 -1.000000e+000 0.000000e+000
    outer loop
      vertex   -2.598076e+001 -1.800000e+002 1.704500e+002
      vertex   -1.026060e+001 -1.800000e+002 1.572592e+002
      vertex   0.000000e+000 -1.800000e+002 1.854500e+002
    endloop
  endfacet
  facet normal 0.000000e+000 -1.000000e+000 0.000000e+000
    outer loop
      vertex   -1.026060e+001 -1.800000e+002 1.572592e+002
      vertex   1.026060e+001 -1.800000e+002 1.572592e+002
      vertex   0.000000e+000 -1.800000e+002 1.854500e+002
    endloop
  endfacet
  facet normal 0.000000e+000 -1.000000e+000 0.000000e+000
    outer loop
      vertex   1.026060e+001 -1.800000e+002 1.572592e+002
      vertex   2.598076e+001 -1.800000e+002 1.704500e+002
      vertex   0.000000e+000 -1.800000e+002 1.854500e+002
    endloop
  endfacet
  facet normal 0.000000e+000 -1.000000e+000 0.000000e+000
    outer loop
      vertex   2.598076e+001 -1.800000e+002 1.704500e+002
      vertex   3.000000e+001 -1.800000e+002 1.854500e+002
      vertex   0.000000e+000 -1.800000e+002 1.854500e+002
    endloop
  endfacet
  facet normal 0.000000e+000 -1.000000e+000 0.000000e+000
    outer loop
      vertex   3.000000e+001 -1.800000e+002 1.854500e+002
      vertex   2.954423e+001 -1.800000e+002 1.906594e+002
      vertex   0.000000e+000 -1.800000e+002 1.854500e+002
    endloop
  endfacet
  facet normal 3.420201e-001 0.000000e+000 9.396926e-001
    outer loop
      vertex   -7.347881e-015 -5.551115e-014 2.154500e+002
      vertex   -7.347881e-015 -1.800000e+002 2.154500e+002
      vertex   1.928363e+001 -1.800000e+002 2.084313e+002
    endloop
  endfacet
  facet normal 8.660254e-001 0.000000e+000 5.000000e-001
    outer loop
      vertex   1.928363e+001 -5.551115e-014 2.084313e+002
      vertex   1.928363e+001 -1.800000e+002 2.084313e+002
      vertex   2.954423e+001 -1.800000e+002 1.906594e+002
    endloop
  endfacet
  facet normal 9.659258e-001 0.000000e+000 -2.588190e-001
    outer loop
      vertex   2.598076e+001 -5.551115e-014 1.704500e+002
      vertex   3.000000e+001 -5.551115e-014 1.854500e+002
      vertex   3.000000e+001 -1.800000e+002 1.854500e+002
    endloop
  endfacet
  facet normal 9.961947e-001 0.000000e+000 8.715574e-002
    outer loop
      vertex   2.954423e+001 -1.800000e+002 1.906594e+002
      vertex   3.000000e+001 -1.800000e+002 1.854500e+002
      vertex   3.000000e+001 -5.551115e-014 1.854500e+002
    endloop
  endfacet
  facet normal 9.961947e-001 0.000000e+000 8.715574e-002
    outer loop
      vertex   3.000000e+001 -5.551115e-014 1.854500e+002
      vertex   2.954423e+001 -5.551115e-014 1.906594e+002
      vertex   2.954423e+001 -1.800000e+002 1.906594e+002
    endloop
  endfacet
  facet normal 6.427876e-001 0.000000e+000 -7.660444e-001
    outer loop
      vertex   2.598076e+001 -5.551115e-014 1.704500e+002
      vertex   2.598076e+001 -1.800000e+002 1.704500e+002
      vertex   1.026060e+001 -1.800000e+002 1.572592e+002
    endloop
  endfacet
  facet normal 0.000000e+000 -0.000000e+000 -1.000000e+000
    outer loop
      vertex   1.026060e+001 -5.551115e-014 1.572592e+002
      vertex   1.026060e+001 -1.800000e+002 1.572592e+002
      vertex   -1.026060e+001 -1.800000e+002 1.572592e+002
    endloop
  endfacet
  facet normal -6.427876e-001 -0.000000e+000 -7.660444e-001
    outer loop
      vertex   -1.026060e+001 -5.551115e-014 1.572592e+002
      vertex   -1.026060e+001 -1.800000e+002 1.572592e+002
      vertex   -2.598076e+001 -1.800000e+002 1.704500e+002
    endloop
  endfacet
  facet normal -9.848078e-001 -0.000000e+000 -1.736482e-001
    outer loop
      vertex   -2.598076e+001 -5.551115e-014 1.704500e+002
      vertex   -2.598076e+001 -1.800000e+002 1.704500e+002
      vertex   -2.954423e+001 -1.800000e+002 1.906594e+002
    endloop
  endfacet
  facet normal -8.660254e-001 0.000000e+000 5.000000e-001
    outer loop
      vertex   -2.954423e+001 -5.551115e-014 1.906594e+002
      vertex   -2.954423e+001 -1.800000e+002 1.906594e+002
      vertex   -1.928363e+001 -1.800000e+002 2.084313e+002
    endloop
  endfacet
  facet normal -3.420201e-001 0.000000e+000 9.396926e-001
    outer loop
      vertex   -1.928363e+001 -5.551115e-014 2.084313e+002
      vertex   -1.928363e+001 -1.800000e+002 2.084313e+002
      vertex   -7.347881e-015 -1.800000e+002 2.154500e+002
    endloop
  endfacet
  facet normal -3.420201e-001 0.000000e+000 9.396926e-001
    outer loop
      vertex   -7.347881e-015 -1.800000e+002 2.154500e+002
      vertex   -7.347881e-015 -5.551115e-014 2.154500e+002
      vertex   -1.928363e+001 -5.551115e-014 2.084313e+002
    endloop
  endfacet
  facet normal -8.660254e-001 0.000000e+000 5.000000e-001
    outer loop
      vertex   -1.928363e+001 -1.800000e+002 2.084313e+002
      vertex   -1.928363e+001 -5.551115e-014 2.084313e+002
      vertex   -2.954423e+001 -5.551115e-014 1.906594e+002
    endloop
  endfacet
  facet normal -9.848078e-001 0.000000e+000 -1.736482e-001
    outer loop
      vertex   -2.954423e+001 -1.800000e+002 1.906594e+002
      vertex   -2.954423e+001 -5.551115e-014 1.906594e+002
      vertex   -2.598076e+001 -5.551115e-014 1.704500e+002
    endloop
  endfacet
  facet normal -6.427876e-001 0.000000e+000 -7.660444e-001
    outer loop
      vertex   -2.598076e+001 -1.800000e+002 1.704500e+002
      vertex   -2.598076e+001 -5.551115e-014 1.704500e+002
      vertex   -1.026060e+001 -5.551115e-014 1.572592e+002
    endloop
  endfacet
  facet normal 0.000000e+000 0.000000e+000 -1.000000e+000
    outer loop
      vertex   -1.026060e+001 -1.800000e+002 1.572592e+002
      vertex   -1.026060e+001 -5.551115e-014 1.572592e+002
      vertex   1.026060e+001 -5.551115e-014 1.572592e+002
    endloop
  endfacet
  facet normal 6.427876e-001 0.000000e+000 -7.660444e-001
    outer loop
      vertex   1.026060e+001 -1.800000e+002 1.572592e+002
      vertex   1.026060e+001 -5.551115e-014 1.572592e+002
      vertex   2.598076e+001 -5.551115e-014 1.704500e+002
    endloop
  endfacet
  facet normal 9.659258e-001 0.000000e+000 -2.588190e-001
    outer loop
      vertex   3.000000e+001 -1.800000e+002 1.854500e+002
      vertex   2.598076e+001 -1.800000e+002 1.704500e+002
      vertex   2.598076e+001 -5.551115e-014 1.704500e+002
    endloop
  endfacet
  facet normal 8.660254e-001 -0.000000e+000 5.000000e-001
    outer loop
      vertex   2.954423e+001 -1.800000e+002 1.906594e+002
      vertex   2.954423e+001 -5.551115e-014 1.906594e+002
      vertex   1.928363e+001 -5.551115e-014 2.084313e+002
    endloop
  endfacet
  facet normal 3.420201e-001 -0.000000e+000 9.396926e-001
    outer loop
      vertex   1.928363e+001 -1.800000e+002 2.084313e+002
      vertex   1.928363e+001 -5.551115e-014 2.084313e+002
      vertex   -7.347881e-015 -5.551115e-014 2.154500e+002
    endloop
  endfacet
  facet normal 1.265729e-015 1.000000e+000 -1.508437e-015
    outer loop
      vertex   0.000000e+000 0.000000e+000 1.854500e+002
      vertex   2.598076e+001 -5.551115e-014 1.704500e+002
      vertex   1.026060e+001 -5.551115e-014 1.572592e+002
    endloop
  endfacet
  facet normal 0.000000e+000 1.000000e+000 -1.969124e-015
    outer loop
      vertex   1.026060e+001 -5.551115e-014 1.572592e+002
      vertex   -1.026060e+001 -5.551115e-014 1.572592e+002
      vertex   0.000000e+000 0.000000e+000 1.854500e+002
    endloop
  endfacet
  facet normal -1.265729e-015 1.000000e+000 -1.508437e-015
    outer loop
      vertex   -1.026060e+001 -5.551115e-014 1.572592e+002
      vertex   -2.598076e+001 -5.551115e-014 1.704500e+002
      vertex   0.000000e+000 0.000000e+000 1.854500e+002
    endloop
  endfacet
  facet normal -1.939209e-015 1.000000e+000 -3.419349e-016
    outer loop
      vertex   -2.598076e+001 -5.551115e-014 1.704500e+002
      vertex   -2.954423e+001 -5.551115e-014 1.906594e+002
      vertex   0.000000e+000 0.000000e+000 1.854500e+002
    endloop
  endfacet
  facet normal -1.705312e-015 1.000000e+000 9.845622e-016
    outer loop
      vertex   -2.954423e+001 -5.551115e-014 1.906594e+002
      vertex   -1.928363e+001 -5.551115e-014 2.084313e+002
      vertex   0.000000e+000 0.000000e+000 1.854500e+002
    endloop
  endfacet
  facet normal -6.734802e-016 1.000000e+000 1.850372e-015
    outer loop
      vertex   -1.928363e+001 -5.551115e-014 2.084313e+002
      vertex   -7.347881e-015 -5.551115e-014 2.154500e+002
      vertex   0.000000e+000 0.000000e+000 1.854500e+002
    endloop
  endfacet
  facet normal 6.734802e-016 1.000000e+000 1.850372e-015
    outer loop
      vertex   -7.347881e-015 -5.551115e-014 2.154500e+002
      vertex   1.928363e+001 -5.551115e-014 2.084313e+002
      vertex   0.000000e+000 0.000000e+000 1.854500e+002
    endloop
  endfacet
  facet normal 1.705312e-015 1.000000e+000 9.845622e-016
    outer loop
      vertex   1.928363e+001 -5.551115e-014 2.084313e+002
      vertex   2.954423e+001 -5.551115e-014 1.906594e+002
      vertex   0.000000e+000 0.000000e+000 1.854500e+002
    endloop
  endfacet
  facet normal 1.850372e-015 1.000000e+000 1.618865e-016
    outer loop
      vertex   2.954423e+001 -5.551115e-014 1.906594e+002
      vertex   3.000000e+001 -5.551115e-014 1.854500e+002
      vertex   0.000000e+000 0.000000e+000 1.854500e+002
    endloop
  endfacet
  facet normal 1.850372e-015 1.000000e+000 -4.958056e-016
    outer loop
      vertex   3.000000e+001 -5.551115e-014 1.854500e+002
      vertex   2.598076e+001 -5.551115e-014 1.704500e+002
      vertex   0.000000e+000 0.000000e+000 1.854500e+002
    endloop
  endfacet
endsolid
