solid Rotor2
  facet normal 4.570023e-016 0.000000e+000 -1.000000e+000
    outer loop
      vertex   -4.850000e+002 -6.500000e+002 -5.939537e-014
      vertex   -4.850000e+002 6.500000e+002 -5.939537e-014
      vertex   -2.800000e+002 6.500000e+002 3.429011e-014
    endloop
  endfacet
  facet normal 4.570023e-016 0.000000e+000 -1.000000e+000
    outer loop
      vertex   -2.800000e+002 6.500000e+002 3.429011e-014
      vertex   -2.800000e+002 -6.500000e+002 3.429011e-014
      vertex   -4.850000e+002 -6.500000e+002 -5.939537e-014
    endloop
  endfacet
  facet normal -9.983082e-001 0.000000e+000 5.814483e-002
    outer loop
      vertex   -4.850000e+002 6.500000e+002 -5.939537e-014
      vertex   -4.850000e+002 -6.500000e+002 -5.939537e-014
      vertex   -4.817206e+002 -6.500000e+002 5.630506e+001
    endloop
  endfacet
  facet normal -9.848078e-001 0.000000e+000 1.736482e-001
    outer loop
      vertex   -4.817206e+002 6.500000e+002 5.630506e+001
      vertex   -4.817206e+002 -6.500000e+002 5.630506e+001
      vertex   -4.719268e+002 -6.500000e+002 1.118487e+002
    endloop
  endfacet
  facet normal -9.579895e-001 0.000000e+000 2.868032e-001
    outer loop
      vertex   -4.719268e+002 6.500000e+002 1.118487e+002
      vertex   -4.719268e+002 -6.500000e+002 1.118487e+002
      vertex   -4.557509e+002 -6.500000e+002 1.658798e+002
    endloop
  endfacet
  facet normal -9.579895e-001 0.000000e+000 2.868032e-001
    outer loop
      vertex   -4.557509e+002 -6.500000e+002 1.658798e+002
      vertex   -4.557509e+002 6.500000e+002 1.658798e+002
      vertex   -4.719268e+002 6.500000e+002 1.118487e+002
    endloop
  endfacet
  facet normal -9.848078e-001 0.000000e+000 1.736482e-001
    outer loop
      vertex   -4.719268e+002 -6.500000e+002 1.118487e+002
      vertex   -4.719268e+002 6.500000e+002 1.118487e+002
      vertex   -4.817206e+002 6.500000e+002 5.630506e+001
    endloop
  endfacet
  facet normal -9.983082e-001 0.000000e+000 5.814483e-002
    outer loop
      vertex   -4.817206e+002 -6.500000e+002 5.630506e+001
      vertex   -4.817206e+002 6.500000e+002 5.630506e+001
      vertex   -4.850000e+002 6.500000e+002 -5.939537e-014
    endloop
  endfacet
  facet normal 3.420201e-001 -0.000000e+000 9.396926e-001
    outer loop
      vertex   -2.631139e+002 -6.500000e+002 9.576564e+001
      vertex   -2.631139e+002 6.500000e+002 9.576564e+001
      vertex   -4.557509e+002 6.500000e+002 1.658798e+002
    endloop
  endfacet
  facet normal 3.420201e-001 0.000000e+000 9.396926e-001
    outer loop
      vertex   -4.557509e+002 6.500000e+002 1.658798e+002
      vertex   -4.557509e+002 -6.500000e+002 1.658798e+002
      vertex   -2.631139e+002 -6.500000e+002 9.576564e+001
    endloop
  endfacet
  facet normal 9.579895e-001 0.000000e+000 -2.868032e-001
    outer loop
      vertex   -2.724526e+002 6.500000e+002 6.457244e+001
      vertex   -2.631139e+002 6.500000e+002 9.576564e+001
      vertex   -2.631139e+002 -6.500000e+002 9.576564e+001
    endloop
  endfacet
  facet normal 9.848078e-001 0.000000e+000 -1.736482e-001
    outer loop
      vertex   -2.781067e+002 6.500000e+002 3.250602e+001
      vertex   -2.724526e+002 6.500000e+002 6.457244e+001
      vertex   -2.724526e+002 -6.500000e+002 6.457244e+001
    endloop
  endfacet
  facet normal 9.983082e-001 0.000000e+000 -5.814483e-002
    outer loop
      vertex   -2.800000e+002 6.500000e+002 3.429011e-014
      vertex   -2.781067e+002 6.500000e+002 3.250602e+001
      vertex   -2.781067e+002 -6.500000e+002 3.250602e+001
    endloop
  endfacet
  facet normal 9.983082e-001 0.000000e+000 -5.814483e-002
    outer loop
      vertex   -2.781067e+002 -6.500000e+002 3.250602e+001
      vertex   -2.800000e+002 -6.500000e+002 3.429011e-014
      vertex   -2.800000e+002 6.500000e+002 3.429011e-014
    endloop
  endfacet
  facet normal 9.848078e-001 0.000000e+000 -1.736482e-001
    outer loop
      vertex   -2.724526e+002 -6.500000e+002 6.457244e+001
      vertex   -2.781067e+002 -6.500000e+002 3.250602e+001
      vertex   -2.781067e+002 6.500000e+002 3.250602e+001
    endloop
  endfacet
  facet normal 9.579895e-001 0.000000e+000 -2.868032e-001
    outer loop
      vertex   -2.631139e+002 -6.500000e+002 9.576564e+001
      vertex   -2.724526e+002 -6.500000e+002 6.457244e+001
      vertex   -2.724526e+002 6.500000e+002 6.457244e+001
    endloop
  endfacet
  facet normal 0.000000e+000 -1.000000e+000 -0.000000e+000
    outer loop
      vertex   -4.719268e+002 -6.500000e+002 1.118487e+002
      vertex   -4.817206e+002 -6.500000e+002 5.630506e+001
      vertex   -2.781067e+002 -6.500000e+002 3.250602e+001
    endloop
  endfacet
  facet normal 0.000000e+000 -1.000000e+000 -0.000000e+000
    outer loop
      vertex   -4.817206e+002 -6.500000e+002 5.630506e+001
      vertex   -4.850000e+002 -6.500000e+002 -5.939537e-014
      vertex   -2.800000e+002 -6.500000e+002 3.429011e-014
    endloop
  endfacet
  facet normal 0.000000e+000 -1.000000e+000 -0.000000e+000
    outer loop
      vertex   -4.557509e+002 -6.500000e+002 1.658798e+002
      vertex   -4.719268e+002 -6.500000e+002 1.118487e+002
      vertex   -2.724526e+002 -6.500000e+002 6.457244e+001
    endloop
  endfacet
  facet normal 0.000000e+000 -1.000000e+000 0.000000e+000
    outer loop
      vertex   -2.800000e+002 -6.500000e+002 3.429011e-014
      vertex   -2.781067e+002 -6.500000e+002 3.250602e+001
      vertex   -4.817206e+002 -6.500000e+002 5.630506e+001
    endloop
  endfacet
  facet normal 0.000000e+000 -1.000000e+000 0.000000e+000
    outer loop
      vertex   -2.781067e+002 -6.500000e+002 3.250602e+001
      vertex   -2.724526e+002 -6.500000e+002 6.457244e+001
      vertex   -4.719268e+002 -6.500000e+002 1.118487e+002
    endloop
  endfacet
  facet normal 0.000000e+000 -1.000000e+000 0.000000e+000
    outer loop
      vertex   -2.724526e+002 -6.500000e+002 6.457244e+001
      vertex   -2.631139e+002 -6.500000e+002 9.576564e+001
      vertex   -4.557509e+002 -6.500000e+002 1.658798e+002
    endloop
  endfacet
  facet normal 0.000000e+000 1.000000e+000 0.000000e+000
    outer loop
      vertex   -4.817206e+002 6.500000e+002 5.630506e+001
      vertex   -2.781067e+002 6.500000e+002 3.250602e+001
      vertex   -2.800000e+002 6.500000e+002 3.429011e-014
    endloop
  endfacet
  facet normal 0.000000e+000 1.000000e+000 0.000000e+000
    outer loop
      vertex   -4.719268e+002 6.500000e+002 1.118487e+002
      vertex   -2.724526e+002 6.500000e+002 6.457244e+001
      vertex   -2.781067e+002 6.500000e+002 3.250602e+001
    endloop
  endfacet
  facet normal 0.000000e+000 1.000000e+000 0.000000e+000
    outer loop
      vertex   -2.781067e+002 6.500000e+002 3.250602e+001
      vertex   -4.817206e+002 6.500000e+002 5.630506e+001
      vertex   -4.719268e+002 6.500000e+002 1.118487e+002
    endloop
  endfacet
  facet normal 0.000000e+000 1.000000e+000 0.000000e+000
    outer loop
      vertex   -4.557509e+002 6.500000e+002 1.658798e+002
      vertex   -2.631139e+002 6.500000e+002 9.576564e+001
      vertex   -2.724526e+002 6.500000e+002 6.457244e+001
    endloop
  endfacet
  facet normal 0.000000e+000 1.000000e+000 0.000000e+000
    outer loop
      vertex   -2.724526e+002 6.500000e+002 6.457244e+001
      vertex   -4.719268e+002 6.500000e+002 1.118487e+002
      vertex   -4.557509e+002 6.500000e+002 1.658798e+002
    endloop
  endfacet
  facet normal 0.000000e+000 1.000000e+000 0.000000e+000
    outer loop
      vertex   -2.800000e+002 6.500000e+002 3.429011e-014
      vertex   -4.850000e+002 6.500000e+002 -5.939537e-014
      vertex   -4.817206e+002 6.500000e+002 5.630506e+001
    endloop
  endfacet
  facet normal -2.306159e-001 -0.000000e+000 -9.730449e-001
    outer loop
      vertex   -8.421937e+001 6.500000e+002 -4.776318e+002
      vertex   -8.421937e+001 -6.500000e+002 -4.776318e+002
      vertex   -1.390996e+002 -6.500000e+002 -4.646249e+002
    endloop
  endfacet
  facet normal -3.420201e-001 -0.000000e+000 -9.396926e-001
    outer loop
      vertex   -1.390996e+002 6.500000e+002 -4.646249e+002
      vertex   -1.390996e+002 -6.500000e+002 -4.646249e+002
      vertex   -1.920987e+002 -6.500000e+002 -4.453348e+002
    endloop
  endfacet
  facet normal -4.487992e-001 -0.000000e+000 -8.936326e-001
    outer loop
      vertex   -1.920987e+002 6.500000e+002 -4.453348e+002
      vertex   -1.920987e+002 -6.500000e+002 -4.453348e+002
      vertex   -2.425000e+002 -6.500000e+002 -4.200223e+002
    endloop
  endfacet
  facet normal -4.487992e-001 0.000000e+000 -8.936326e-001
    outer loop
      vertex   -2.425000e+002 -6.500000e+002 -4.200223e+002
      vertex   -2.425000e+002 6.500000e+002 -4.200223e+002
      vertex   -1.920987e+002 6.500000e+002 -4.453348e+002
    endloop
  endfacet
  facet normal -3.420201e-001 0.000000e+000 -9.396926e-001
    outer loop
      vertex   -1.920987e+002 -6.500000e+002 -4.453348e+002
      vertex   -1.920987e+002 6.500000e+002 -4.453348e+002
      vertex   -1.390996e+002 6.500000e+002 -4.646249e+002
    endloop
  endfacet
  facet normal -2.306159e-001 0.000000e+000 -9.730449e-001
    outer loop
      vertex   -1.390996e+002 -6.500000e+002 -4.646249e+002
      vertex   -1.390996e+002 6.500000e+002 -4.646249e+002
      vertex   -8.421937e+001 6.500000e+002 -4.776318e+002
    endloop
  endfacet
  facet normal 9.848078e-001 0.000000e+000 -1.736482e-001
    outer loop
      vertex   -8.421937e+001 -6.500000e+002 -4.776318e+002
      vertex   -8.421937e+001 6.500000e+002 -4.776318e+002
      vertex   -4.862149e+001 6.500000e+002 -2.757462e+002
    endloop
  endfacet
  facet normal 9.848078e-001 0.000000e+000 -1.736482e-001
    outer loop
      vertex   -4.862149e+001 6.500000e+002 -2.757462e+002
      vertex   -4.862149e+001 -6.500000e+002 -2.757462e+002
      vertex   -8.421937e+001 -6.500000e+002 -4.776318e+002
    endloop
  endfacet
  facet normal 4.487992e-001 0.000000e+000 8.936326e-001
    outer loop
      vertex   -1.109023e+002 6.500000e+002 -2.571005e+002
      vertex   -1.400000e+002 6.500000e+002 -2.424871e+002
      vertex   -1.400000e+002 -6.500000e+002 -2.424871e+002
    endloop
  endfacet
  facet normal 3.420201e-001 0.000000e+000 9.396926e-001
    outer loop
      vertex   -8.030491e+001 6.500000e+002 -2.682371e+002
      vertex   -1.109023e+002 6.500000e+002 -2.571005e+002
      vertex   -1.109023e+002 -6.500000e+002 -2.571005e+002
    endloop
  endfacet
  facet normal 2.306159e-001 0.000000e+000 9.730449e-001
    outer loop
      vertex   -4.862149e+001 6.500000e+002 -2.757462e+002
      vertex   -8.030491e+001 6.500000e+002 -2.682371e+002
      vertex   -8.030491e+001 -6.500000e+002 -2.682371e+002
    endloop
  endfacet
  facet normal 2.306159e-001 0.000000e+000 9.730449e-001
    outer loop
      vertex   -8.030491e+001 -6.500000e+002 -2.682371e+002
      vertex   -4.862149e+001 -6.500000e+002 -2.757462e+002
      vertex   -4.862149e+001 6.500000e+002 -2.757462e+002
    endloop
  endfacet
  facet normal 3.420201e-001 0.000000e+000 9.396926e-001
    outer loop
      vertex   -1.109023e+002 -6.500000e+002 -2.571005e+002
      vertex   -8.030491e+001 -6.500000e+002 -2.682371e+002
      vertex   -8.030491e+001 6.500000e+002 -2.682371e+002
    endloop
  endfacet
  facet normal 4.487992e-001 0.000000e+000 8.936326e-001
    outer loop
      vertex   -1.400000e+002 -6.500000e+002 -2.424871e+002
      vertex   -1.109023e+002 -6.500000e+002 -2.571005e+002
      vertex   -1.109023e+002 6.500000e+002 -2.571005e+002
    endloop
  endfacet
  facet normal -8.660254e-001 0.000000e+000 5.000000e-001
    outer loop
      vertex   -1.400000e+002 -6.500000e+002 -2.424871e+002
      vertex   -1.400000e+002 6.500000e+002 -2.424871e+002
      vertex   -2.425000e+002 6.500000e+002 -4.200223e+002
    endloop
  endfacet
  facet normal -8.660254e-001 0.000000e+000 5.000000e-001
    outer loop
      vertex   -2.425000e+002 6.500000e+002 -4.200223e+002
      vertex   -2.425000e+002 -6.500000e+002 -4.200223e+002
      vertex   -1.400000e+002 -6.500000e+002 -2.424871e+002
    endloop
  endfacet
  facet normal 0.000000e+000 -1.000000e+000 0.000000e+000
    outer loop
      vertex   -1.920987e+002 -6.500000e+002 -4.453348e+002
      vertex   -1.390996e+002 -6.500000e+002 -4.646249e+002
      vertex   -8.030491e+001 -6.500000e+002 -2.682371e+002
    endloop
  endfacet
  facet normal 0.000000e+000 -1.000000e+000 0.000000e+000
    outer loop
      vertex   -1.390996e+002 -6.500000e+002 -4.646249e+002
      vertex   -8.421937e+001 -6.500000e+002 -4.776318e+002
      vertex   -4.862149e+001 -6.500000e+002 -2.757462e+002
    endloop
  endfacet
  facet normal 0.000000e+000 -1.000000e+000 0.000000e+000
    outer loop
      vertex   -2.425000e+002 -6.500000e+002 -4.200223e+002
      vertex   -1.920987e+002 -6.500000e+002 -4.453348e+002
      vertex   -1.109023e+002 -6.500000e+002 -2.571005e+002
    endloop
  endfacet
  facet normal -0.000000e+000 -1.000000e+000 0.000000e+000
    outer loop
      vertex   -4.862149e+001 -6.500000e+002 -2.757462e+002
      vertex   -8.030491e+001 -6.500000e+002 -2.682371e+002
      vertex   -1.390996e+002 -6.500000e+002 -4.646249e+002
    endloop
  endfacet
  facet normal -0.000000e+000 -1.000000e+000 0.000000e+000
    outer loop
      vertex   -8.030491e+001 -6.500000e+002 -2.682371e+002
      vertex   -1.109023e+002 -6.500000e+002 -2.571005e+002
      vertex   -1.920987e+002 -6.500000e+002 -4.453348e+002
    endloop
  endfacet
  facet normal -0.000000e+000 -1.000000e+000 0.000000e+000
    outer loop
      vertex   -1.109023e+002 -6.500000e+002 -2.571005e+002
      vertex   -1.400000e+002 -6.500000e+002 -2.424871e+002
      vertex   -2.425000e+002 -6.500000e+002 -4.200223e+002
    endloop
  endfacet
  facet normal 3.271954e-015 1.000000e+000 -9.795588e-016
    outer loop
      vertex   -1.390996e+002 6.500000e+002 -4.646249e+002
      vertex   -8.030491e+001 6.500000e+002 -2.682371e+002
      vertex   -4.862149e+001 6.500000e+002 -2.757462e+002
    endloop
  endfacet
  facet normal 0.000000e+000 1.000000e+000 0.000000e+000
    outer loop
      vertex   -1.920987e+002 6.500000e+002 -4.453348e+002
      vertex   -1.109023e+002 6.500000e+002 -2.571005e+002
      vertex   -8.030491e+001 6.500000e+002 -2.682371e+002
    endloop
  endfacet
  facet normal 0.000000e+000 1.000000e+000 0.000000e+000
    outer loop
      vertex   -8.030491e+001 6.500000e+002 -2.682371e+002
      vertex   -1.390996e+002 6.500000e+002 -4.646249e+002
      vertex   -1.920987e+002 6.500000e+002 -4.453348e+002
    endloop
  endfacet
  facet normal -2.957857e-015 1.000000e+000 1.707719e-015
    outer loop
      vertex   -2.425000e+002 6.500000e+002 -4.200223e+002
      vertex   -1.400000e+002 6.500000e+002 -2.424871e+002
      vertex   -1.109023e+002 6.500000e+002 -2.571005e+002
    endloop
  endfacet
  facet normal -1.810538e-015 1.000000e+000 7.809899e-016
    outer loop
      vertex   -1.109023e+002 6.500000e+002 -2.571005e+002
      vertex   -1.920987e+002 6.500000e+002 -4.453348e+002
      vertex   -2.425000e+002 6.500000e+002 -4.200223e+002
    endloop
  endfacet
  facet normal 1.941844e-015 1.000000e+000 -3.423994e-016
    outer loop
      vertex   -4.862149e+001 6.500000e+002 -2.757462e+002
      vertex   -8.421937e+001 6.500000e+002 -4.776318e+002
      vertex   -1.390996e+002 6.500000e+002 -4.646249e+002
    endloop
  endfacet
  facet normal -6.427876e-001 0.000000e+000 -7.660444e-001
    outer loop
      vertex   -3.715316e+002 -6.500000e+002 3.117520e+002
      vertex   -3.715316e+002 6.500000e+002 3.117520e+002
      vertex   -2.144924e+002 6.500000e+002 1.799805e+002
    endloop
  endfacet
  facet normal -6.427876e-001 -0.000000e+000 -7.660444e-001
    outer loop
      vertex   -2.144924e+002 6.500000e+002 1.799805e+002
      vertex   -2.144924e+002 -6.500000e+002 1.799805e+002
      vertex   -3.715316e+002 -6.500000e+002 3.117520e+002
    endloop
  endfacet
  facet normal -7.273736e-001 0.000000e+000 6.862416e-001
    outer loop
      vertex   -3.715316e+002 6.500000e+002 3.117520e+002
      vertex   -3.715316e+002 -6.500000e+002 3.117520e+002
      vertex   -3.328272e+002 -6.500000e+002 3.527762e+002
    endloop
  endfacet
  facet normal -6.427876e-001 0.000000e+000 7.660444e-001
    outer loop
      vertex   -3.328272e+002 6.500000e+002 3.527762e+002
      vertex   -3.328272e+002 -6.500000e+002 3.527762e+002
      vertex   -2.896219e+002 -6.500000e+002 3.890297e+002
    endloop
  endfacet
  facet normal -5.495090e-001 0.000000e+000 8.354878e-001
    outer loop
      vertex   -2.896219e+002 6.500000e+002 3.890297e+002
      vertex   -2.896219e+002 -6.500000e+002 3.890297e+002
      vertex   -2.425000e+002 -6.500000e+002 4.200223e+002
    endloop
  endfacet
  facet normal -5.495090e-001 0.000000e+000 8.354878e-001
    outer loop
      vertex   -2.425000e+002 -6.500000e+002 4.200223e+002
      vertex   -2.425000e+002 6.500000e+002 4.200223e+002
      vertex   -2.896219e+002 6.500000e+002 3.890297e+002
    endloop
  endfacet
  facet normal -6.427876e-001 0.000000e+000 7.660444e-001
    outer loop
      vertex   -2.896219e+002 -6.500000e+002 3.890297e+002
      vertex   -2.896219e+002 6.500000e+002 3.890297e+002
      vertex   -3.328272e+002 6.500000e+002 3.527762e+002
    endloop
  endfacet
  facet normal -7.273736e-001 0.000000e+000 6.862416e-001
    outer loop
      vertex   -3.328272e+002 -6.500000e+002 3.527762e+002
      vertex   -3.328272e+002 6.500000e+002 3.527762e+002
      vertex   -3.715316e+002 6.500000e+002 3.117520e+002
    endloop
  endfacet
  facet normal 8.660254e-001 -0.000000e+000 5.000000e-001
    outer loop
      vertex   -1.400000e+002 -6.500000e+002 2.424871e+002
      vertex   -1.400000e+002 6.500000e+002 2.424871e+002
      vertex   -2.425000e+002 6.500000e+002 4.200223e+002
    endloop
  endfacet
  facet normal 8.660254e-001 0.000000e+000 5.000000e-001
    outer loop
      vertex   -2.425000e+002 6.500000e+002 4.200223e+002
      vertex   -2.425000e+002 -6.500000e+002 4.200223e+002
      vertex   -1.400000e+002 -6.500000e+002 2.424871e+002
    endloop
  endfacet
  facet normal 5.495090e-001 0.000000e+000 -8.354878e-001
    outer loop
      vertex   -1.672044e+002 6.500000e+002 2.245945e+002
      vertex   -1.400000e+002 6.500000e+002 2.424871e+002
      vertex   -1.400000e+002 -6.500000e+002 2.424871e+002
    endloop
  endfacet
  facet normal 6.427876e-001 0.000000e+000 -7.660444e-001
    outer loop
      vertex   -1.921477e+002 6.500000e+002 2.036646e+002
      vertex   -1.672044e+002 6.500000e+002 2.245945e+002
      vertex   -1.672044e+002 -6.500000e+002 2.245945e+002
    endloop
  endfacet
  facet normal 7.273736e-001 0.000000e+000 -6.862416e-001
    outer loop
      vertex   -2.144924e+002 6.500000e+002 1.799805e+002
      vertex   -1.921477e+002 6.500000e+002 2.036646e+002
      vertex   -1.921477e+002 -6.500000e+002 2.036646e+002
    endloop
  endfacet
  facet normal 7.273736e-001 0.000000e+000 -6.862416e-001
    outer loop
      vertex   -1.921477e+002 -6.500000e+002 2.036646e+002
      vertex   -2.144924e+002 -6.500000e+002 1.799805e+002
      vertex   -2.144924e+002 6.500000e+002 1.799805e+002
    endloop
  endfacet
  facet normal 6.427876e-001 0.000000e+000 -7.660444e-001
    outer loop
      vertex   -1.672044e+002 -6.500000e+002 2.245945e+002
      vertex   -1.921477e+002 -6.500000e+002 2.036646e+002
      vertex   -1.921477e+002 6.500000e+002 2.036646e+002
    endloop
  endfacet
  facet normal 5.495090e-001 0.000000e+000 -8.354878e-001
    outer loop
      vertex   -1.400000e+002 -6.500000e+002 2.424871e+002
      vertex   -1.672044e+002 -6.500000e+002 2.245945e+002
      vertex   -1.672044e+002 6.500000e+002 2.245945e+002
    endloop
  endfacet
  facet normal 0.000000e+000 -1.000000e+000 -0.000000e+000
    outer loop
      vertex   -2.425000e+002 -6.500000e+002 4.200223e+002
      vertex   -2.896219e+002 -6.500000e+002 3.890297e+002
      vertex   -1.672044e+002 -6.500000e+002 2.245945e+002
    endloop
  endfacet
  facet normal 0.000000e+000 -1.000000e+000 -0.000000e+000
    outer loop
      vertex   -2.896219e+002 -6.500000e+002 3.890297e+002
      vertex   -3.328272e+002 -6.500000e+002 3.527762e+002
      vertex   -1.921477e+002 -6.500000e+002 2.036646e+002
    endloop
  endfacet
  facet normal 0.000000e+000 -1.000000e+000 0.000000e+000
    outer loop
      vertex   -1.921477e+002 -6.500000e+002 2.036646e+002
      vertex   -1.672044e+002 -6.500000e+002 2.245945e+002
      vertex   -2.896219e+002 -6.500000e+002 3.890297e+002
    endloop
  endfacet
  facet normal 0.000000e+000 -1.000000e+000 -0.000000e+000
    outer loop
      vertex   -3.328272e+002 -6.500000e+002 3.527762e+002
      vertex   -3.715316e+002 -6.500000e+002 3.117520e+002
      vertex   -2.144924e+002 -6.500000e+002 1.799805e+002
    endloop
  endfacet
  facet normal 0.000000e+000 -1.000000e+000 0.000000e+000
    outer loop
      vertex   -2.144924e+002 -6.500000e+002 1.799805e+002
      vertex   -1.921477e+002 -6.500000e+002 2.036646e+002
      vertex   -3.328272e+002 -6.500000e+002 3.527762e+002
    endloop
  endfacet
  facet normal 0.000000e+000 -1.000000e+000 0.000000e+000
    outer loop
      vertex   -1.672044e+002 -6.500000e+002 2.245945e+002
      vertex   -1.400000e+002 -6.500000e+002 2.424871e+002
      vertex   -2.425000e+002 -6.500000e+002 4.200223e+002
    endloop
  endfacet
  facet normal 0.000000e+000 1.000000e+000 0.000000e+000
    outer loop
      vertex   -2.896219e+002 6.500000e+002 3.890297e+002
      vertex   -1.672044e+002 6.500000e+002 2.245945e+002
      vertex   -1.921477e+002 6.500000e+002 2.036646e+002
    endloop
  endfacet
  facet normal 0.000000e+000 1.000000e+000 0.000000e+000
    outer loop
      vertex   -2.425000e+002 6.500000e+002 4.200223e+002
      vertex   -1.400000e+002 6.500000e+002 2.424871e+002
      vertex   -1.672044e+002 6.500000e+002 2.245945e+002
    endloop
  endfacet
  facet normal 0.000000e+000 1.000000e+000 0.000000e+000
    outer loop
      vertex   -3.328272e+002 6.500000e+002 3.527762e+002
      vertex   -1.921477e+002 6.500000e+002 2.036646e+002
      vertex   -2.144924e+002 6.500000e+002 1.799805e+002
    endloop
  endfacet
  facet normal 0.000000e+000 1.000000e+000 0.000000e+000
    outer loop
      vertex   -1.672044e+002 6.500000e+002 2.245945e+002
      vertex   -2.896219e+002 6.500000e+002 3.890297e+002
      vertex   -2.425000e+002 6.500000e+002 4.200223e+002
    endloop
  endfacet
  facet normal 0.000000e+000 1.000000e+000 0.000000e+000
    outer loop
      vertex   -1.921477e+002 6.500000e+002 2.036646e+002
      vertex   -3.328272e+002 6.500000e+002 3.527762e+002
      vertex   -2.896219e+002 6.500000e+002 3.890297e+002
    endloop
  endfacet
  facet normal 0.000000e+000 1.000000e+000 0.000000e+000
    outer loop
      vertex   -2.144924e+002 6.500000e+002 1.799805e+002
      vertex   -3.715316e+002 6.500000e+002 3.117520e+002
      vertex   -3.328272e+002 6.500000e+002 3.527762e+002
    endloop
  endfacet
  facet normal -9.848078e-001 0.000000e+000 -1.736482e-001
    outer loop
      vertex   -8.421937e+001 -6.500000e+002 4.776318e+002
      vertex   -8.421937e+001 6.500000e+002 4.776318e+002
      vertex   -4.862149e+001 6.500000e+002 2.757462e+002
    endloop
  endfacet
  facet normal -9.848078e-001 -0.000000e+000 -1.736482e-001
    outer loop
      vertex   -4.862149e+001 6.500000e+002 2.757462e+002
      vertex   -4.862149e+001 -6.500000e+002 2.757462e+002
      vertex   -8.421937e+001 -6.500000e+002 4.776318e+002
    endloop
  endfacet
  facet normal -1.160929e-001 0.000000e+000 9.932384e-001
    outer loop
      vertex   -8.421937e+001 6.500000e+002 4.776318e+002
      vertex   -8.421937e+001 -6.500000e+002 4.776318e+002
      vertex   -2.820024e+001 -6.500000e+002 4.841795e+002
    endloop
  endfacet
  facet normal -9.842318e-016 0.000000e+000 1.000000e+000
    outer loop
      vertex   -2.820024e+001 6.500000e+002 4.841795e+002
      vertex   -2.820024e+001 -6.500000e+002 4.841795e+002
      vertex   2.820024e+001 -6.500000e+002 4.841795e+002
    endloop
  endfacet
  facet normal 1.160929e-001 0.000000e+000 9.932384e-001
    outer loop
      vertex   2.820024e+001 6.500000e+002 4.841795e+002
      vertex   2.820024e+001 -6.500000e+002 4.841795e+002
      vertex   8.421937e+001 -6.500000e+002 4.776318e+002
    endloop
  endfacet
  facet normal 1.160929e-001 -0.000000e+000 9.932384e-001
    outer loop
      vertex   8.421937e+001 -6.500000e+002 4.776318e+002
      vertex   8.421937e+001 6.500000e+002 4.776318e+002
      vertex   2.820024e+001 6.500000e+002 4.841795e+002
    endloop
  endfacet
  facet normal -9.842318e-016 0.000000e+000 1.000000e+000
    outer loop
      vertex   2.820024e+001 -6.500000e+002 4.841795e+002
      vertex   2.820024e+001 6.500000e+002 4.841795e+002
      vertex   -2.820024e+001 6.500000e+002 4.841795e+002
    endloop
  endfacet
  facet normal -1.160929e-001 0.000000e+000 9.932384e-001
    outer loop
      vertex   -2.820024e+001 -6.500000e+002 4.841795e+002
      vertex   -2.820024e+001 6.500000e+002 4.841795e+002
      vertex   -8.421937e+001 6.500000e+002 4.776318e+002
    endloop
  endfacet
  facet normal 9.848078e-001 0.000000e+000 -1.736482e-001
    outer loop
      vertex   4.862149e+001 -6.500000e+002 2.757462e+002
      vertex   4.862149e+001 6.500000e+002 2.757462e+002
      vertex   8.421937e+001 6.500000e+002 4.776318e+002
    endloop
  endfacet
  facet normal 9.848078e-001 0.000000e+000 -1.736482e-001
    outer loop
      vertex   8.421937e+001 6.500000e+002 4.776318e+002
      vertex   8.421937e+001 -6.500000e+002 4.776318e+002
      vertex   4.862149e+001 -6.500000e+002 2.757462e+002
    endloop
  endfacet
  facet normal -1.160929e-001 0.000000e+000 -9.932384e-001
    outer loop
      vertex   1.628055e+001 6.500000e+002 2.795263e+002
      vertex   4.862149e+001 6.500000e+002 2.757462e+002
      vertex   4.862149e+001 -6.500000e+002 2.757462e+002
    endloop
  endfacet
  facet normal 1.704830e-015 0.000000e+000 -1.000000e+000
    outer loop
      vertex   -1.628055e+001 6.500000e+002 2.795263e+002
      vertex   1.628055e+001 6.500000e+002 2.795263e+002
      vertex   1.628055e+001 -6.500000e+002 2.795263e+002
    endloop
  endfacet
  facet normal 1.160929e-001 0.000000e+000 -9.932384e-001
    outer loop
      vertex   -4.862149e+001 6.500000e+002 2.757462e+002
      vertex   -1.628055e+001 6.500000e+002 2.795263e+002
      vertex   -1.628055e+001 -6.500000e+002 2.795263e+002
    endloop
  endfacet
  facet normal 1.160929e-001 0.000000e+000 -9.932384e-001
    outer loop
      vertex   -1.628055e+001 -6.500000e+002 2.795263e+002
      vertex   -4.862149e+001 -6.500000e+002 2.757462e+002
      vertex   -4.862149e+001 6.500000e+002 2.757462e+002
    endloop
  endfacet
  facet normal 1.704830e-015 0.000000e+000 -1.000000e+000
    outer loop
      vertex   1.628055e+001 -6.500000e+002 2.795263e+002
      vertex   -1.628055e+001 -6.500000e+002 2.795263e+002
      vertex   -1.628055e+001 6.500000e+002 2.795263e+002
    endloop
  endfacet
  facet normal -1.160929e-001 0.000000e+000 -9.932384e-001
    outer loop
      vertex   4.862149e+001 -6.500000e+002 2.757462e+002
      vertex   1.628055e+001 -6.500000e+002 2.795263e+002
      vertex   1.628055e+001 6.500000e+002 2.795263e+002
    endloop
  endfacet
  facet normal 0.000000e+000 -1.000000e+000 -0.000000e+000
    outer loop
      vertex   2.820024e+001 -6.500000e+002 4.841795e+002
      vertex   1.628055e+001 -6.500000e+002 2.795263e+002
      vertex   4.862149e+001 -6.500000e+002 2.757462e+002
    endloop
  endfacet
  facet normal 0.000000e+000 -1.000000e+000 0.000000e+000
    outer loop
      vertex   -2.820024e+001 -6.500000e+002 4.841795e+002
      vertex   -1.628055e+001 -6.500000e+002 2.795263e+002
      vertex   1.628055e+001 -6.500000e+002 2.795263e+002
    endloop
  endfacet
  facet normal 0.000000e+000 -1.000000e+000 0.000000e+000
    outer loop
      vertex   1.628055e+001 -6.500000e+002 2.795263e+002
      vertex   2.820024e+001 -6.500000e+002 4.841795e+002
      vertex   -2.820024e+001 -6.500000e+002 4.841795e+002
    endloop
  endfacet
  facet normal 0.000000e+000 -1.000000e+000 0.000000e+000
    outer loop
      vertex   -2.820024e+001 -6.500000e+002 4.841795e+002
      vertex   -8.421937e+001 -6.500000e+002 4.776318e+002
      vertex   -4.862149e+001 -6.500000e+002 2.757462e+002
    endloop
  endfacet
  facet normal 0.000000e+000 -1.000000e+000 0.000000e+000
    outer loop
      vertex   -4.862149e+001 -6.500000e+002 2.757462e+002
      vertex   -1.628055e+001 -6.500000e+002 2.795263e+002
      vertex   -2.820024e+001 -6.500000e+002 4.841795e+002
    endloop
  endfacet
  facet normal 0.000000e+000 -1.000000e+000 0.000000e+000
    outer loop
      vertex   4.862149e+001 -6.500000e+002 2.757462e+002
      vertex   8.421937e+001 -6.500000e+002 4.776318e+002
      vertex   2.820024e+001 -6.500000e+002 4.841795e+002
    endloop
  endfacet
  facet normal 0.000000e+000 1.000000e+000 0.000000e+000
    outer loop
      vertex   -2.820024e+001 6.500000e+002 4.841795e+002
      vertex   -1.628055e+001 6.500000e+002 2.795263e+002
      vertex   -4.862149e+001 6.500000e+002 2.757462e+002
    endloop
  endfacet
  facet normal -0.000000e+000 1.000000e+000 0.000000e+000
    outer loop
      vertex   -2.820024e+001 6.500000e+002 4.841795e+002
      vertex   2.820024e+001 6.500000e+002 4.841795e+002
      vertex   1.628055e+001 6.500000e+002 2.795263e+002
    endloop
  endfacet
  facet normal 0.000000e+000 1.000000e+000 0.000000e+000
    outer loop
      vertex   1.628055e+001 6.500000e+002 2.795263e+002
      vertex   -1.628055e+001 6.500000e+002 2.795263e+002
      vertex   -2.820024e+001 6.500000e+002 4.841795e+002
    endloop
  endfacet
  facet normal 0.000000e+000 1.000000e+000 0.000000e+000
    outer loop
      vertex   8.421937e+001 6.500000e+002 4.776318e+002
      vertex   4.862149e+001 6.500000e+002 2.757462e+002
      vertex   1.628055e+001 6.500000e+002 2.795263e+002
    endloop
  endfacet
  facet normal 0.000000e+000 1.000000e+000 0.000000e+000
    outer loop
      vertex   1.628055e+001 6.500000e+002 2.795263e+002
      vertex   2.820024e+001 6.500000e+002 4.841795e+002
      vertex   8.421937e+001 6.500000e+002 4.776318e+002
    endloop
  endfacet
  facet normal 0.000000e+000 1.000000e+000 -0.000000e+000
    outer loop
      vertex   -4.862149e+001 6.500000e+002 2.757462e+002
      vertex   -8.421937e+001 6.500000e+002 4.776318e+002
      vertex   -2.820024e+001 6.500000e+002 4.841795e+002
    endloop
  endfacet
  facet normal -8.660254e-001 0.000000e+000 5.000000e-001
    outer loop
      vertex   2.425000e+002 -6.500000e+002 4.200223e+002
      vertex   2.425000e+002 6.500000e+002 4.200223e+002
      vertex   1.400000e+002 6.500000e+002 2.424871e+002
    endloop
  endfacet
  facet normal -8.660254e-001 0.000000e+000 5.000000e-001
    outer loop
      vertex   1.400000e+002 6.500000e+002 2.424871e+002
      vertex   1.400000e+002 -6.500000e+002 2.424871e+002
      vertex   2.425000e+002 -6.500000e+002 4.200223e+002
    endloop
  endfacet
  facet normal -7.273736e-001 0.000000e+000 -6.862416e-001
    outer loop
      vertex   1.921477e+002 6.500000e+002 2.036646e+002
      vertex   2.144924e+002 6.500000e+002 1.799805e+002
      vertex   2.144924e+002 -6.500000e+002 1.799805e+002
    endloop
  endfacet
  facet normal -6.427876e-001 0.000000e+000 -7.660444e-001
    outer loop
      vertex   1.672044e+002 6.500000e+002 2.245945e+002
      vertex   1.921477e+002 6.500000e+002 2.036646e+002
      vertex   1.921477e+002 -6.500000e+002 2.036646e+002
    endloop
  endfacet
  facet normal -5.495090e-001 0.000000e+000 -8.354878e-001
    outer loop
      vertex   1.400000e+002 6.500000e+002 2.424871e+002
      vertex   1.672044e+002 6.500000e+002 2.245945e+002
      vertex   1.672044e+002 -6.500000e+002 2.245945e+002
    endloop
  endfacet
  facet normal -5.495090e-001 0.000000e+000 -8.354878e-001
    outer loop
      vertex   1.672044e+002 -6.500000e+002 2.245945e+002
      vertex   1.400000e+002 -6.500000e+002 2.424871e+002
      vertex   1.400000e+002 6.500000e+002 2.424871e+002
    endloop
  endfacet
  facet normal -6.427876e-001 0.000000e+000 -7.660444e-001
    outer loop
      vertex   1.921477e+002 -6.500000e+002 2.036646e+002
      vertex   1.672044e+002 -6.500000e+002 2.245945e+002
      vertex   1.672044e+002 6.500000e+002 2.245945e+002
    endloop
  endfacet
  facet normal -7.273736e-001 0.000000e+000 -6.862416e-001
    outer loop
      vertex   2.144924e+002 -6.500000e+002 1.799805e+002
      vertex   1.921477e+002 -6.500000e+002 2.036646e+002
      vertex   1.921477e+002 6.500000e+002 2.036646e+002
    endloop
  endfacet
  facet normal 6.427876e-001 0.000000e+000 -7.660444e-001
    outer loop
      vertex   2.144924e+002 -6.500000e+002 1.799805e+002
      vertex   2.144924e+002 6.500000e+002 1.799805e+002
      vertex   3.715316e+002 6.500000e+002 3.117520e+002
    endloop
  endfacet
  facet normal 6.427876e-001 0.000000e+000 -7.660444e-001
    outer loop
      vertex   3.715316e+002 6.500000e+002 3.117520e+002
      vertex   3.715316e+002 -6.500000e+002 3.117520e+002
      vertex   2.144924e+002 -6.500000e+002 1.799805e+002
    endloop
  endfacet
  facet normal 5.495090e-001 0.000000e+000 8.354878e-001
    outer loop
      vertex   2.425000e+002 6.500000e+002 4.200223e+002
      vertex   2.425000e+002 -6.500000e+002 4.200223e+002
      vertex   2.896219e+002 -6.500000e+002 3.890297e+002
    endloop
  endfacet
  facet normal 6.427876e-001 0.000000e+000 7.660444e-001
    outer loop
      vertex   2.896219e+002 6.500000e+002 3.890297e+002
      vertex   2.896219e+002 -6.500000e+002 3.890297e+002
      vertex   3.328272e+002 -6.500000e+002 3.527762e+002
    endloop
  endfacet
  facet normal 7.273736e-001 0.000000e+000 6.862416e-001
    outer loop
      vertex   3.328272e+002 6.500000e+002 3.527762e+002
      vertex   3.328272e+002 -6.500000e+002 3.527762e+002
      vertex   3.715316e+002 -6.500000e+002 3.117520e+002
    endloop
  endfacet
  facet normal 7.273736e-001 -0.000000e+000 6.862416e-001
    outer loop
      vertex   3.715316e+002 -6.500000e+002 3.117520e+002
      vertex   3.715316e+002 6.500000e+002 3.117520e+002
      vertex   3.328272e+002 6.500000e+002 3.527762e+002
    endloop
  endfacet
  facet normal 6.427876e-001 -0.000000e+000 7.660444e-001
    outer loop
      vertex   3.328272e+002 -6.500000e+002 3.527762e+002
      vertex   3.328272e+002 6.500000e+002 3.527762e+002
      vertex   2.896219e+002 6.500000e+002 3.890297e+002
    endloop
  endfacet
  facet normal 5.495090e-001 -0.000000e+000 8.354878e-001
    outer loop
      vertex   2.896219e+002 -6.500000e+002 3.890297e+002
      vertex   2.896219e+002 6.500000e+002 3.890297e+002
      vertex   2.425000e+002 6.500000e+002 4.200223e+002
    endloop
  endfacet
  facet normal 0.000000e+000 -1.000000e+000 0.000000e+000
    outer loop
      vertex   2.896219e+002 -6.500000e+002 3.890297e+002
      vertex   1.672044e+002 -6.500000e+002 2.245945e+002
      vertex   1.921477e+002 -6.500000e+002 2.036646e+002
    endloop
  endfacet
  facet normal 0.000000e+000 -1.000000e+000 0.000000e+000
    outer loop
      vertex   2.425000e+002 -6.500000e+002 4.200223e+002
      vertex   1.400000e+002 -6.500000e+002 2.424871e+002
      vertex   1.672044e+002 -6.500000e+002 2.245945e+002
    endloop
  endfacet
  facet normal -0.000000e+000 -1.000000e+000 0.000000e+000
    outer loop
      vertex   3.715316e+002 -6.500000e+002 3.117520e+002
      vertex   3.328272e+002 -6.500000e+002 3.527762e+002
      vertex   1.921477e+002 -6.500000e+002 2.036646e+002
    endloop
  endfacet
  facet normal 0.000000e+000 -1.000000e+000 0.000000e+000
    outer loop
      vertex   1.672044e+002 -6.500000e+002 2.245945e+002
      vertex   2.896219e+002 -6.500000e+002 3.890297e+002
      vertex   2.425000e+002 -6.500000e+002 4.200223e+002
    endloop
  endfacet
  facet normal 0.000000e+000 -1.000000e+000 0.000000e+000
    outer loop
      vertex   1.921477e+002 -6.500000e+002 2.036646e+002
      vertex   3.328272e+002 -6.500000e+002 3.527762e+002
      vertex   2.896219e+002 -6.500000e+002 3.890297e+002
    endloop
  endfacet
  facet normal 0.000000e+000 -1.000000e+000 0.000000e+000
    outer loop
      vertex   1.921477e+002 -6.500000e+002 2.036646e+002
      vertex   2.144924e+002 -6.500000e+002 1.799805e+002
      vertex   3.715316e+002 -6.500000e+002 3.117520e+002
    endloop
  endfacet
  facet normal -1.581626e-015 1.000000e+000 1.177477e-015
    outer loop
      vertex   2.425000e+002 6.500000e+002 4.200223e+002
      vertex   2.896219e+002 6.500000e+002 3.890297e+002
      vertex   1.672044e+002 6.500000e+002 2.245945e+002
    endloop
  endfacet
  facet normal 0.000000e+000 1.000000e+000 0.000000e+000
    outer loop
      vertex   2.896219e+002 6.500000e+002 3.890297e+002
      vertex   3.328272e+002 6.500000e+002 3.527762e+002
      vertex   1.921477e+002 6.500000e+002 2.036646e+002
    endloop
  endfacet
  facet normal 0.000000e+000 1.000000e+000 -0.000000e+000
    outer loop
      vertex   1.921477e+002 6.500000e+002 2.036646e+002
      vertex   1.672044e+002 6.500000e+002 2.245945e+002
      vertex   2.896219e+002 6.500000e+002 3.890297e+002
    endloop
  endfacet
  facet normal 2.195402e-015 1.000000e+000 -2.616378e-015
    outer loop
      vertex   3.715316e+002 6.500000e+002 3.117520e+002
      vertex   2.144924e+002 6.500000e+002 1.799805e+002
      vertex   1.921477e+002 6.500000e+002 2.036646e+002
    endloop
  endfacet
  facet normal 1.434235e-015 1.000000e+000 -1.353131e-015
    outer loop
      vertex   1.921477e+002 6.500000e+002 2.036646e+002
      vertex   3.328272e+002 6.500000e+002 3.527762e+002
      vertex   3.715316e+002 6.500000e+002 3.117520e+002
    endloop
  endfacet
  facet normal -2.957857e-015 1.000000e+000 1.707719e-015
    outer loop
      vertex   1.672044e+002 6.500000e+002 2.245945e+002
      vertex   1.400000e+002 6.500000e+002 2.424871e+002
      vertex   2.425000e+002 6.500000e+002 4.200223e+002
    endloop
  endfacet
  facet normal -3.420201e-001 0.000000e+000 9.396926e-001
    outer loop
      vertex   4.557509e+002 -6.500000e+002 1.658798e+002
      vertex   4.557509e+002 6.500000e+002 1.658798e+002
      vertex   2.631139e+002 6.500000e+002 9.576564e+001
    endloop
  endfacet
  facet normal -3.420201e-001 0.000000e+000 9.396926e-001
    outer loop
      vertex   2.631139e+002 6.500000e+002 9.576564e+001
      vertex   2.631139e+002 -6.500000e+002 9.576564e+001
      vertex   4.557509e+002 -6.500000e+002 1.658798e+002
    endloop
  endfacet
  facet normal -9.983082e-001 0.000000e+000 -5.814483e-002
    outer loop
      vertex   2.781067e+002 6.500000e+002 3.250602e+001
      vertex   2.800000e+002 6.500000e+002 3.429011e-014
      vertex   2.800000e+002 -6.500000e+002 3.429011e-014
    endloop
  endfacet
  facet normal -9.848078e-001 0.000000e+000 -1.736482e-001
    outer loop
      vertex   2.724526e+002 6.500000e+002 6.457244e+001
      vertex   2.781067e+002 6.500000e+002 3.250602e+001
      vertex   2.781067e+002 -6.500000e+002 3.250602e+001
    endloop
  endfacet
  facet normal -9.579895e-001 0.000000e+000 -2.868032e-001
    outer loop
      vertex   2.631139e+002 6.500000e+002 9.576564e+001
      vertex   2.724526e+002 6.500000e+002 6.457244e+001
      vertex   2.724526e+002 -6.500000e+002 6.457244e+001
    endloop
  endfacet
  facet normal -9.579895e-001 0.000000e+000 -2.868032e-001
    outer loop
      vertex   2.724526e+002 -6.500000e+002 6.457244e+001
      vertex   2.631139e+002 -6.500000e+002 9.576564e+001
      vertex   2.631139e+002 6.500000e+002 9.576564e+001
    endloop
  endfacet
  facet normal -9.848078e-001 0.000000e+000 -1.736482e-001
    outer loop
      vertex   2.781067e+002 -6.500000e+002 3.250602e+001
      vertex   2.724526e+002 -6.500000e+002 6.457244e+001
      vertex   2.724526e+002 6.500000e+002 6.457244e+001
    endloop
  endfacet
  facet normal -9.983082e-001 0.000000e+000 -5.814483e-002
    outer loop
      vertex   2.800000e+002 -6.500000e+002 3.429011e-014
      vertex   2.781067e+002 -6.500000e+002 3.250602e+001
      vertex   2.781067e+002 6.500000e+002 3.250602e+001
    endloop
  endfacet
  facet normal 1.224647e-016 0.000000e+000 -1.000000e+000
    outer loop
      vertex   2.800000e+002 -6.500000e+002 3.429011e-014
      vertex   2.800000e+002 6.500000e+002 3.429011e-014
      vertex   4.850000e+002 6.500000e+002 5.939537e-014
    endloop
  endfacet
  facet normal 1.224647e-016 0.000000e+000 -1.000000e+000
    outer loop
      vertex   4.850000e+002 6.500000e+002 5.939537e-014
      vertex   4.850000e+002 -6.500000e+002 5.939537e-014
      vertex   2.800000e+002 -6.500000e+002 3.429011e-014
    endloop
  endfacet
  facet normal 9.579895e-001 0.000000e+000 2.868032e-001
    outer loop
      vertex   4.557509e+002 6.500000e+002 1.658798e+002
      vertex   4.557509e+002 -6.500000e+002 1.658798e+002
      vertex   4.719268e+002 -6.500000e+002 1.118487e+002
    endloop
  endfacet
  facet normal 9.848078e-001 0.000000e+000 1.736482e-001
    outer loop
      vertex   4.719268e+002 6.500000e+002 1.118487e+002
      vertex   4.719268e+002 -6.500000e+002 1.118487e+002
      vertex   4.817206e+002 -6.500000e+002 5.630506e+001
    endloop
  endfacet
  facet normal 9.983082e-001 0.000000e+000 5.814483e-002
    outer loop
      vertex   4.817206e+002 6.500000e+002 5.630506e+001
      vertex   4.817206e+002 -6.500000e+002 5.630506e+001
      vertex   4.850000e+002 -6.500000e+002 5.939537e-014
    endloop
  endfacet
  facet normal 9.983082e-001 -0.000000e+000 5.814483e-002
    outer loop
      vertex   4.850000e+002 -6.500000e+002 5.939537e-014
      vertex   4.850000e+002 6.500000e+002 5.939537e-014
      vertex   4.817206e+002 6.500000e+002 5.630506e+001
    endloop
  endfacet
  facet normal 9.848078e-001 -0.000000e+000 1.736482e-001
    outer loop
      vertex   4.817206e+002 -6.500000e+002 5.630506e+001
      vertex   4.817206e+002 6.500000e+002 5.630506e+001
      vertex   4.719268e+002 6.500000e+002 1.118487e+002
    endloop
  endfacet
  facet normal 9.579895e-001 -0.000000e+000 2.868032e-001
    outer loop
      vertex   4.719268e+002 -6.500000e+002 1.118487e+002
      vertex   4.719268e+002 6.500000e+002 1.118487e+002
      vertex   4.557509e+002 6.500000e+002 1.658798e+002
    endloop
  endfacet
  facet normal 0.000000e+000 -1.000000e+000 0.000000e+000
    outer loop
      vertex   4.817206e+002 -6.500000e+002 5.630506e+001
      vertex   2.781067e+002 -6.500000e+002 3.250602e+001
      vertex   2.800000e+002 -6.500000e+002 3.429011e-014
    endloop
  endfacet
  facet normal 0.000000e+000 -1.000000e+000 0.000000e+000
    outer loop
      vertex   4.719268e+002 -6.500000e+002 1.118487e+002
      vertex   2.724526e+002 -6.500000e+002 6.457244e+001
      vertex   2.781067e+002 -6.500000e+002 3.250602e+001
    endloop
  endfacet
  facet normal 0.000000e+000 -1.000000e+000 0.000000e+000
    outer loop
      vertex   2.781067e+002 -6.500000e+002 3.250602e+001
      vertex   4.817206e+002 -6.500000e+002 5.630506e+001
      vertex   4.719268e+002 -6.500000e+002 1.118487e+002
    endloop
  endfacet
  facet normal 0.000000e+000 -1.000000e+000 0.000000e+000
    outer loop
      vertex   4.557509e+002 -6.500000e+002 1.658798e+002
      vertex   2.631139e+002 -6.500000e+002 9.576564e+001
      vertex   2.724526e+002 -6.500000e+002 6.457244e+001
    endloop
  endfacet
  facet normal 0.000000e+000 -1.000000e+000 0.000000e+000
    outer loop
      vertex   2.724526e+002 -6.500000e+002 6.457244e+001
      vertex   4.719268e+002 -6.500000e+002 1.118487e+002
      vertex   4.557509e+002 -6.500000e+002 1.658798e+002
    endloop
  endfacet
  facet normal 0.000000e+000 -1.000000e+000 0.000000e+000
    outer loop
      vertex   2.800000e+002 -6.500000e+002 3.429011e-014
      vertex   4.850000e+002 -6.500000e+002 5.939537e-014
      vertex   4.817206e+002 -6.500000e+002 5.630506e+001
    endloop
  endfacet
  facet normal 0.000000e+000 1.000000e+000 0.000000e+000
    outer loop
      vertex   4.719268e+002 6.500000e+002 1.118487e+002
      vertex   4.817206e+002 6.500000e+002 5.630506e+001
      vertex   2.781067e+002 6.500000e+002 3.250602e+001
    endloop
  endfacet
  facet normal 2.669680e-031 1.000000e+000 -1.971800e-015
    outer loop
      vertex   4.817206e+002 6.500000e+002 5.630506e+001
      vertex   4.850000e+002 6.500000e+002 5.939537e-014
      vertex   2.800000e+002 6.500000e+002 3.429011e-014
    endloop
  endfacet
  facet normal -4.547283e-016 1.000000e+000 1.918650e-015
    outer loop
      vertex   4.557509e+002 6.500000e+002 1.658798e+002
      vertex   4.719268e+002 6.500000e+002 1.118487e+002
      vertex   2.724526e+002 6.500000e+002 6.457244e+001
    endloop
  endfacet
  facet normal 3.965082e-016 1.000000e+000 -3.392345e-015
    outer loop
      vertex   2.800000e+002 6.500000e+002 3.429011e-014
      vertex   2.781067e+002 6.500000e+002 3.250602e+001
      vertex   4.817206e+002 6.500000e+002 5.630506e+001
    endloop
  endfacet
  facet normal 0.000000e+000 1.000000e+000 -0.000000e+000
    outer loop
      vertex   2.781067e+002 6.500000e+002 3.250602e+001
      vertex   2.724526e+002 6.500000e+002 6.457244e+001
      vertex   4.719268e+002 6.500000e+002 1.118487e+002
    endloop
  endfacet
  facet normal -1.168149e-015 1.000000e+000 3.209462e-015
    outer loop
      vertex   2.724526e+002 6.500000e+002 6.457244e+001
      vertex   2.631139e+002 6.500000e+002 9.576564e+001
      vertex   4.557509e+002 6.500000e+002 1.658798e+002
    endloop
  endfacet
  facet normal 9.182161e-001 0.000000e+000 -3.960798e-001
    outer loop
      vertex   4.557509e+002 6.500000e+002 -1.658798e+002
      vertex   4.557509e+002 -6.500000e+002 -1.658798e+002
      vertex   4.334118e+002 -6.500000e+002 -2.176676e+002
    endloop
  endfacet
  facet normal 8.660254e-001 0.000000e+000 -5.000000e-001
    outer loop
      vertex   4.334118e+002 6.500000e+002 -2.176676e+002
      vertex   4.334118e+002 -6.500000e+002 -2.176676e+002
      vertex   4.052116e+002 -6.500000e+002 -2.665119e+002
    endloop
  endfacet
  facet normal 8.021232e-001 0.000000e+000 -5.971586e-001
    outer loop
      vertex   4.052116e+002 6.500000e+002 -2.665119e+002
      vertex   4.052116e+002 -6.500000e+002 -2.665119e+002
      vertex   3.715316e+002 -6.500000e+002 -3.117520e+002
    endloop
  endfacet
  facet normal 8.021232e-001 0.000000e+000 -5.971586e-001
    outer loop
      vertex   3.715316e+002 -6.500000e+002 -3.117520e+002
      vertex   3.715316e+002 6.500000e+002 -3.117520e+002
      vertex   4.052116e+002 6.500000e+002 -2.665119e+002
    endloop
  endfacet
  facet normal 8.660254e-001 0.000000e+000 -5.000000e-001
    outer loop
      vertex   4.052116e+002 -6.500000e+002 -2.665119e+002
      vertex   4.052116e+002 6.500000e+002 -2.665119e+002
      vertex   4.334118e+002 6.500000e+002 -2.176676e+002
    endloop
  endfacet
  facet normal 9.182161e-001 0.000000e+000 -3.960798e-001
    outer loop
      vertex   4.334118e+002 -6.500000e+002 -2.176676e+002
      vertex   4.334118e+002 6.500000e+002 -2.176676e+002
      vertex   4.557509e+002 6.500000e+002 -1.658798e+002
    endloop
  endfacet
  facet normal 3.420201e-001 -0.000000e+000 9.396926e-001
    outer loop
      vertex   4.557509e+002 -6.500000e+002 -1.658798e+002
      vertex   4.557509e+002 6.500000e+002 -1.658798e+002
      vertex   2.631139e+002 6.500000e+002 -9.576564e+001
    endloop
  endfacet
  facet normal 3.420201e-001 0.000000e+000 9.396926e-001
    outer loop
      vertex   2.631139e+002 6.500000e+002 -9.576564e+001
      vertex   2.631139e+002 -6.500000e+002 -9.576564e+001
      vertex   4.557509e+002 -6.500000e+002 -1.658798e+002
    endloop
  endfacet
  facet normal -8.021232e-001 0.000000e+000 5.971586e-001
    outer loop
      vertex   2.339366e+002 6.500000e+002 -1.538625e+002
      vertex   2.144924e+002 6.500000e+002 -1.799805e+002
      vertex   2.144924e+002 -6.500000e+002 -1.799805e+002
    endloop
  endfacet
  facet normal -8.660254e-001 0.000000e+000 5.000000e-001
    outer loop
      vertex   2.502171e+002 6.500000e+002 -1.256638e+002
      vertex   2.339366e+002 6.500000e+002 -1.538625e+002
      vertex   2.339366e+002 -6.500000e+002 -1.538625e+002
    endloop
  endfacet
  facet normal -9.182161e-001 0.000000e+000 3.960798e-001
    outer loop
      vertex   2.631139e+002 6.500000e+002 -9.576564e+001
      vertex   2.502171e+002 6.500000e+002 -1.256638e+002
      vertex   2.502171e+002 -6.500000e+002 -1.256638e+002
    endloop
  endfacet
  facet normal -9.182161e-001 0.000000e+000 3.960798e-001
    outer loop
      vertex   2.502171e+002 -6.500000e+002 -1.256638e+002
      vertex   2.631139e+002 -6.500000e+002 -9.576564e+001
      vertex   2.631139e+002 6.500000e+002 -9.576564e+001
    endloop
  endfacet
  facet normal -8.660254e-001 0.000000e+000 5.000000e-001
    outer loop
      vertex   2.339366e+002 -6.500000e+002 -1.538625e+002
      vertex   2.502171e+002 -6.500000e+002 -1.256638e+002
      vertex   2.502171e+002 6.500000e+002 -1.256638e+002
    endloop
  endfacet
  facet normal -8.021232e-001 0.000000e+000 5.971586e-001
    outer loop
      vertex   2.144924e+002 -6.500000e+002 -1.799805e+002
      vertex   2.339366e+002 -6.500000e+002 -1.538625e+002
      vertex   2.339366e+002 6.500000e+002 -1.538625e+002
    endloop
  endfacet
  facet normal -6.427876e-001 0.000000e+000 -7.660444e-001
    outer loop
      vertex   2.144924e+002 -6.500000e+002 -1.799805e+002
      vertex   2.144924e+002 6.500000e+002 -1.799805e+002
      vertex   3.715316e+002 6.500000e+002 -3.117520e+002
    endloop
  endfacet
  facet normal -6.427876e-001 -0.000000e+000 -7.660444e-001
    outer loop
      vertex   3.715316e+002 6.500000e+002 -3.117520e+002
      vertex   3.715316e+002 -6.500000e+002 -3.117520e+002
      vertex   2.144924e+002 -6.500000e+002 -1.799805e+002
    endloop
  endfacet
  facet normal 0.000000e+000 -1.000000e+000 0.000000e+000
    outer loop
      vertex   3.715316e+002 -6.500000e+002 -3.117520e+002
      vertex   4.052116e+002 -6.500000e+002 -2.665119e+002
      vertex   2.339366e+002 -6.500000e+002 -1.538625e+002
    endloop
  endfacet
  facet normal 0.000000e+000 -1.000000e+000 0.000000e+000
    outer loop
      vertex   4.052116e+002 -6.500000e+002 -2.665119e+002
      vertex   4.334118e+002 -6.500000e+002 -2.176676e+002
      vertex   2.502171e+002 -6.500000e+002 -1.256638e+002
    endloop
  endfacet
  facet normal 0.000000e+000 -1.000000e+000 -0.000000e+000
    outer loop
      vertex   2.502171e+002 -6.500000e+002 -1.256638e+002
      vertex   2.339366e+002 -6.500000e+002 -1.538625e+002
      vertex   4.052116e+002 -6.500000e+002 -2.665119e+002
    endloop
  endfacet
  facet normal 0.000000e+000 -1.000000e+000 0.000000e+000
    outer loop
      vertex   4.334118e+002 -6.500000e+002 -2.176676e+002
      vertex   4.557509e+002 -6.500000e+002 -1.658798e+002
      vertex   2.631139e+002 -6.500000e+002 -9.576564e+001
    endloop
  endfacet
  facet normal 0.000000e+000 -1.000000e+000 -0.000000e+000
    outer loop
      vertex   2.631139e+002 -6.500000e+002 -9.576564e+001
      vertex   2.502171e+002 -6.500000e+002 -1.256638e+002
      vertex   4.334118e+002 -6.500000e+002 -2.176676e+002
    endloop
  endfacet
  facet normal 0.000000e+000 -1.000000e+000 -0.000000e+000
    outer loop
      vertex   2.339366e+002 -6.500000e+002 -1.538625e+002
      vertex   2.144924e+002 -6.500000e+002 -1.799805e+002
      vertex   3.715316e+002 -6.500000e+002 -3.117520e+002
    endloop
  endfacet
  facet normal 0.000000e+000 1.000000e+000 0.000000e+000
    outer loop
      vertex   4.052116e+002 6.500000e+002 -2.665119e+002
      vertex   2.339366e+002 6.500000e+002 -1.538625e+002
      vertex   2.502171e+002 6.500000e+002 -1.256638e+002
    endloop
  endfacet
  facet normal -2.195402e-015 1.000000e+000 -2.616378e-015
    outer loop
      vertex   3.715316e+002 6.500000e+002 -3.117520e+002
      vertex   2.144924e+002 6.500000e+002 -1.799805e+002
      vertex   2.339366e+002 6.500000e+002 -1.538625e+002
    endloop
  endfacet
  facet normal 8.849421e-016 1.000000e+000 1.762064e-015
    outer loop
      vertex   4.557509e+002 6.500000e+002 -1.658798e+002
      vertex   4.334118e+002 6.500000e+002 -2.176676e+002
      vertex   2.502171e+002 6.500000e+002 -1.256638e+002
    endloop
  endfacet
  facet normal -1.083522e-015 1.000000e+000 -1.647415e-015
    outer loop
      vertex   2.339366e+002 6.500000e+002 -1.538625e+002
      vertex   4.052116e+002 6.500000e+002 -2.665119e+002
      vertex   3.715316e+002 6.500000e+002 -3.117520e+002
    endloop
  endfacet
  facet normal 0.000000e+000 1.000000e+000 0.000000e+000
    outer loop
      vertex   2.502171e+002 6.500000e+002 -1.256638e+002
      vertex   4.334118e+002 6.500000e+002 -2.176676e+002
      vertex   4.052116e+002 6.500000e+002 -2.665119e+002
    endloop
  endfacet
  facet normal 1.168149e-015 1.000000e+000 3.209462e-015
    outer loop
      vertex   2.502171e+002 6.500000e+002 -1.256638e+002
      vertex   2.631139e+002 6.500000e+002 -9.576564e+001
      vertex   4.557509e+002 6.500000e+002 -1.658798e+002
    endloop
  endfacet
  facet normal 4.487992e-001 0.000000e+000 -8.936326e-001
    outer loop
      vertex   2.425000e+002 6.500000e+002 -4.200223e+002
      vertex   2.425000e+002 -6.500000e+002 -4.200223e+002
      vertex   1.920987e+002 -6.500000e+002 -4.453348e+002
    endloop
  endfacet
  facet normal 3.420201e-001 0.000000e+000 -9.396926e-001
    outer loop
      vertex   1.920987e+002 6.500000e+002 -4.453348e+002
      vertex   1.920987e+002 -6.500000e+002 -4.453348e+002
      vertex   1.390996e+002 -6.500000e+002 -4.646249e+002
    endloop
  endfacet
  facet normal 2.306159e-001 0.000000e+000 -9.730449e-001
    outer loop
      vertex   1.390996e+002 6.500000e+002 -4.646249e+002
      vertex   1.390996e+002 -6.500000e+002 -4.646249e+002
      vertex   8.421937e+001 -6.500000e+002 -4.776318e+002
    endloop
  endfacet
  facet normal 2.306159e-001 0.000000e+000 -9.730449e-001
    outer loop
      vertex   8.421937e+001 -6.500000e+002 -4.776318e+002
      vertex   8.421937e+001 6.500000e+002 -4.776318e+002
      vertex   1.390996e+002 6.500000e+002 -4.646249e+002
    endloop
  endfacet
  facet normal 3.420201e-001 0.000000e+000 -9.396926e-001
    outer loop
      vertex   1.390996e+002 -6.500000e+002 -4.646249e+002
      vertex   1.390996e+002 6.500000e+002 -4.646249e+002
      vertex   1.920987e+002 6.500000e+002 -4.453348e+002
    endloop
  endfacet
  facet normal 4.487992e-001 0.000000e+000 -8.936326e-001
    outer loop
      vertex   1.920987e+002 -6.500000e+002 -4.453348e+002
      vertex   1.920987e+002 6.500000e+002 -4.453348e+002
      vertex   2.425000e+002 6.500000e+002 -4.200223e+002
    endloop
  endfacet
  facet normal 8.660254e-001 -0.000000e+000 5.000000e-001
    outer loop
      vertex   2.425000e+002 -6.500000e+002 -4.200223e+002
      vertex   2.425000e+002 6.500000e+002 -4.200223e+002
      vertex   1.400000e+002 6.500000e+002 -2.424871e+002
    endloop
  endfacet
  facet normal 8.660254e-001 0.000000e+000 5.000000e-001
    outer loop
      vertex   1.400000e+002 6.500000e+002 -2.424871e+002
      vertex   1.400000e+002 -6.500000e+002 -2.424871e+002
      vertex   2.425000e+002 -6.500000e+002 -4.200223e+002
    endloop
  endfacet
  facet normal -2.306159e-001 0.000000e+000 9.730449e-001
    outer loop
      vertex   8.030491e+001 6.500000e+002 -2.682371e+002
      vertex   4.862149e+001 6.500000e+002 -2.757462e+002
      vertex   4.862149e+001 -6.500000e+002 -2.757462e+002
    endloop
  endfacet
  facet normal -3.420201e-001 0.000000e+000 9.396926e-001
    outer loop
      vertex   1.109023e+002 6.500000e+002 -2.571005e+002
      vertex   8.030491e+001 6.500000e+002 -2.682371e+002
      vertex   8.030491e+001 -6.500000e+002 -2.682371e+002
    endloop
  endfacet
  facet normal -4.487992e-001 0.000000e+000 8.936326e-001
    outer loop
      vertex   1.400000e+002 6.500000e+002 -2.424871e+002
      vertex   1.109023e+002 6.500000e+002 -2.571005e+002
      vertex   1.109023e+002 -6.500000e+002 -2.571005e+002
    endloop
  endfacet
  facet normal -4.487992e-001 0.000000e+000 8.936326e-001
    outer loop
      vertex   1.109023e+002 -6.500000e+002 -2.571005e+002
      vertex   1.400000e+002 -6.500000e+002 -2.424871e+002
      vertex   1.400000e+002 6.500000e+002 -2.424871e+002
    endloop
  endfacet
  facet normal -3.420201e-001 0.000000e+000 9.396926e-001
    outer loop
      vertex   8.030491e+001 -6.500000e+002 -2.682371e+002
      vertex   1.109023e+002 -6.500000e+002 -2.571005e+002
      vertex   1.109023e+002 6.500000e+002 -2.571005e+002
    endloop
  endfacet
  facet normal -2.306159e-001 0.000000e+000 9.730449e-001
    outer loop
      vertex   4.862149e+001 -6.500000e+002 -2.757462e+002
      vertex   8.030491e+001 -6.500000e+002 -2.682371e+002
      vertex   8.030491e+001 6.500000e+002 -2.682371e+002
    endloop
  endfacet
  facet normal -9.848078e-001 0.000000e+000 -1.736482e-001
    outer loop
      vertex   4.862149e+001 -6.500000e+002 -2.757462e+002
      vertex   4.862149e+001 6.500000e+002 -2.757462e+002
      vertex   8.421937e+001 6.500000e+002 -4.776318e+002
    endloop
  endfacet
  facet normal -9.848078e-001 -0.000000e+000 -1.736482e-001
    outer loop
      vertex   8.421937e+001 6.500000e+002 -4.776318e+002
      vertex   8.421937e+001 -6.500000e+002 -4.776318e+002
      vertex   4.862149e+001 -6.500000e+002 -2.757462e+002
    endloop
  endfacet
  facet normal 0.000000e+000 -1.000000e+000 0.000000e+000
    outer loop
      vertex   1.390996e+002 -6.500000e+002 -4.646249e+002
      vertex   8.030491e+001 -6.500000e+002 -2.682371e+002
      vertex   4.862149e+001 -6.500000e+002 -2.757462e+002
    endloop
  endfacet
  facet normal 0.000000e+000 -1.000000e+000 0.000000e+000
    outer loop
      vertex   1.920987e+002 -6.500000e+002 -4.453348e+002
      vertex   1.109023e+002 -6.500000e+002 -2.571005e+002
      vertex   8.030491e+001 -6.500000e+002 -2.682371e+002
    endloop
  endfacet
  facet normal 0.000000e+000 -1.000000e+000 0.000000e+000
    outer loop
      vertex   8.030491e+001 -6.500000e+002 -2.682371e+002
      vertex   1.390996e+002 -6.500000e+002 -4.646249e+002
      vertex   1.920987e+002 -6.500000e+002 -4.453348e+002
    endloop
  endfacet
  facet normal 0.000000e+000 -1.000000e+000 0.000000e+000
    outer loop
      vertex   2.425000e+002 -6.500000e+002 -4.200223e+002
      vertex   1.400000e+002 -6.500000e+002 -2.424871e+002
      vertex   1.109023e+002 -6.500000e+002 -2.571005e+002
    endloop
  endfacet
  facet normal 0.000000e+000 -1.000000e+000 0.000000e+000
    outer loop
      vertex   1.109023e+002 -6.500000e+002 -2.571005e+002
      vertex   1.920987e+002 -6.500000e+002 -4.453348e+002
      vertex   2.425000e+002 -6.500000e+002 -4.200223e+002
    endloop
  endfacet
  facet normal 0.000000e+000 -1.000000e+000 0.000000e+000
    outer loop
      vertex   4.862149e+001 -6.500000e+002 -2.757462e+002
      vertex   8.421937e+001 -6.500000e+002 -4.776318e+002
      vertex   1.390996e+002 -6.500000e+002 -4.646249e+002
    endloop
  endfacet
  facet normal 1.810538e-015 1.000000e+000 7.809899e-016
    outer loop
      vertex   2.425000e+002 6.500000e+002 -4.200223e+002
      vertex   1.920987e+002 6.500000e+002 -4.453348e+002
      vertex   1.109023e+002 6.500000e+002 -2.571005e+002
    endloop
  endfacet
  facet normal 0.000000e+000 1.000000e+000 0.000000e+000
    outer loop
      vertex   1.920987e+002 6.500000e+002 -4.453348e+002
      vertex   1.390996e+002 6.500000e+002 -4.646249e+002
      vertex   8.030491e+001 6.500000e+002 -2.682371e+002
    endloop
  endfacet
  facet normal -0.000000e+000 1.000000e+000 0.000000e+000
    outer loop
      vertex   8.030491e+001 6.500000e+002 -2.682371e+002
      vertex   1.109023e+002 6.500000e+002 -2.571005e+002
      vertex   1.920987e+002 6.500000e+002 -4.453348e+002
    endloop
  endfacet
  facet normal -3.363550e-015 1.000000e+000 -5.930847e-016
    outer loop
      vertex   8.421937e+001 6.500000e+002 -4.776318e+002
      vertex   4.862149e+001 6.500000e+002 -2.757462e+002
      vertex   8.030491e+001 6.500000e+002 -2.682371e+002
    endloop
  endfacet
  facet normal -1.888963e-015 1.000000e+000 -5.655185e-016
    outer loop
      vertex   8.030491e+001 6.500000e+002 -2.682371e+002
      vertex   1.390996e+002 6.500000e+002 -4.646249e+002
      vertex   8.421937e+001 6.500000e+002 -4.776318e+002
    endloop
  endfacet
  facet normal 2.957857e-015 1.000000e+000 1.707719e-015
    outer loop
      vertex   1.109023e+002 6.500000e+002 -2.571005e+002
      vertex   1.400000e+002 6.500000e+002 -2.424871e+002
      vertex   2.425000e+002 6.500000e+002 -4.200223e+002
    endloop
  endfacet
  facet normal -8.021232e-001 -0.000000e+000 -5.971586e-001
    outer loop
      vertex   -3.715316e+002 6.500000e+002 -3.117520e+002
      vertex   -3.715316e+002 -6.500000e+002 -3.117520e+002
      vertex   -4.052116e+002 -6.500000e+002 -2.665119e+002
    endloop
  endfacet
  facet normal -8.660254e-001 -0.000000e+000 -5.000000e-001
    outer loop
      vertex   -4.052116e+002 6.500000e+002 -2.665119e+002
      vertex   -4.052116e+002 -6.500000e+002 -2.665119e+002
      vertex   -4.334118e+002 -6.500000e+002 -2.176676e+002
    endloop
  endfacet
  facet normal -9.182161e-001 -0.000000e+000 -3.960798e-001
    outer loop
      vertex   -4.334118e+002 6.500000e+002 -2.176676e+002
      vertex   -4.334118e+002 -6.500000e+002 -2.176676e+002
      vertex   -4.557509e+002 -6.500000e+002 -1.658798e+002
    endloop
  endfacet
  facet normal -9.182161e-001 0.000000e+000 -3.960798e-001
    outer loop
      vertex   -4.557509e+002 -6.500000e+002 -1.658798e+002
      vertex   -4.557509e+002 6.500000e+002 -1.658798e+002
      vertex   -4.334118e+002 6.500000e+002 -2.176676e+002
    endloop
  endfacet
  facet normal -8.660254e-001 0.000000e+000 -5.000000e-001
    outer loop
      vertex   -4.334118e+002 -6.500000e+002 -2.176676e+002
      vertex   -4.334118e+002 6.500000e+002 -2.176676e+002
      vertex   -4.052116e+002 6.500000e+002 -2.665119e+002
    endloop
  endfacet
  facet normal -8.021232e-001 0.000000e+000 -5.971586e-001
    outer loop
      vertex   -4.052116e+002 -6.500000e+002 -2.665119e+002
      vertex   -4.052116e+002 6.500000e+002 -2.665119e+002
      vertex   -3.715316e+002 6.500000e+002 -3.117520e+002
    endloop
  endfacet
  facet normal -3.420201e-001 0.000000e+000 9.396926e-001
    outer loop
      vertex   -2.631139e+002 -6.500000e+002 -9.576564e+001
      vertex   -2.631139e+002 6.500000e+002 -9.576564e+001
      vertex   -4.557509e+002 6.500000e+002 -1.658798e+002
    endloop
  endfacet
  facet normal -3.420201e-001 0.000000e+000 9.396926e-001
    outer loop
      vertex   -4.557509e+002 6.500000e+002 -1.658798e+002
      vertex   -4.557509e+002 -6.500000e+002 -1.658798e+002
      vertex   -2.631139e+002 -6.500000e+002 -9.576564e+001
    endloop
  endfacet
  facet normal 9.182161e-001 0.000000e+000 3.960798e-001
    outer loop
      vertex   -2.502171e+002 6.500000e+002 -1.256638e+002
      vertex   -2.631139e+002 6.500000e+002 -9.576564e+001
      vertex   -2.631139e+002 -6.500000e+002 -9.576564e+001
    endloop
  endfacet
  facet normal 8.660254e-001 0.000000e+000 5.000000e-001
    outer loop
      vertex   -2.339366e+002 6.500000e+002 -1.538625e+002
      vertex   -2.502171e+002 6.500000e+002 -1.256638e+002
      vertex   -2.502171e+002 -6.500000e+002 -1.256638e+002
    endloop
  endfacet
  facet normal 8.021232e-001 0.000000e+000 5.971586e-001
    outer loop
      vertex   -2.144924e+002 6.500000e+002 -1.799805e+002
      vertex   -2.339366e+002 6.500000e+002 -1.538625e+002
      vertex   -2.339366e+002 -6.500000e+002 -1.538625e+002
    endloop
  endfacet
  facet normal 8.021232e-001 0.000000e+000 5.971586e-001
    outer loop
      vertex   -2.339366e+002 -6.500000e+002 -1.538625e+002
      vertex   -2.144924e+002 -6.500000e+002 -1.799805e+002
      vertex   -2.144924e+002 6.500000e+002 -1.799805e+002
    endloop
  endfacet
  facet normal 8.660254e-001 0.000000e+000 5.000000e-001
    outer loop
      vertex   -2.502171e+002 -6.500000e+002 -1.256638e+002
      vertex   -2.339366e+002 -6.500000e+002 -1.538625e+002
      vertex   -2.339366e+002 6.500000e+002 -1.538625e+002
    endloop
  endfacet
  facet normal 9.182161e-001 0.000000e+000 3.960798e-001
    outer loop
      vertex   -2.631139e+002 -6.500000e+002 -9.576564e+001
      vertex   -2.502171e+002 -6.500000e+002 -1.256638e+002
      vertex   -2.502171e+002 6.500000e+002 -1.256638e+002
    endloop
  endfacet
  facet normal 6.427876e-001 0.000000e+000 -7.660444e-001
    outer loop
      vertex   -3.715316e+002 -6.500000e+002 -3.117520e+002
      vertex   -3.715316e+002 6.500000e+002 -3.117520e+002
      vertex   -2.144924e+002 6.500000e+002 -1.799805e+002
    endloop
  endfacet
  facet normal 6.427876e-001 0.000000e+000 -7.660444e-001
    outer loop
      vertex   -2.144924e+002 6.500000e+002 -1.799805e+002
      vertex   -2.144924e+002 -6.500000e+002 -1.799805e+002
      vertex   -3.715316e+002 -6.500000e+002 -3.117520e+002
    endloop
  endfacet
  facet normal 0.000000e+000 -1.000000e+000 0.000000e+000
    outer loop
      vertex   -4.052116e+002 -6.500000e+002 -2.665119e+002
      vertex   -2.339366e+002 -6.500000e+002 -1.538625e+002
      vertex   -2.502171e+002 -6.500000e+002 -1.256638e+002
    endloop
  endfacet
  facet normal 0.000000e+000 -1.000000e+000 0.000000e+000
    outer loop
      vertex   -4.052116e+002 -6.500000e+002 -2.665119e+002
      vertex   -3.715316e+002 -6.500000e+002 -3.117520e+002
      vertex   -2.144924e+002 -6.500000e+002 -1.799805e+002
    endloop
  endfacet
  facet normal 0.000000e+000 -1.000000e+000 0.000000e+000
    outer loop
      vertex   -4.557509e+002 -6.500000e+002 -1.658798e+002
      vertex   -4.334118e+002 -6.500000e+002 -2.176676e+002
      vertex   -2.502171e+002 -6.500000e+002 -1.256638e+002
    endloop
  endfacet
  facet normal -0.000000e+000 -1.000000e+000 0.000000e+000
    outer loop
      vertex   -2.144924e+002 -6.500000e+002 -1.799805e+002
      vertex   -2.339366e+002 -6.500000e+002 -1.538625e+002
      vertex   -4.052116e+002 -6.500000e+002 -2.665119e+002
    endloop
  endfacet
  facet normal 0.000000e+000 -1.000000e+000 0.000000e+000
    outer loop
      vertex   -2.502171e+002 -6.500000e+002 -1.256638e+002
      vertex   -4.334118e+002 -6.500000e+002 -2.176676e+002
      vertex   -4.052116e+002 -6.500000e+002 -2.665119e+002
    endloop
  endfacet
  facet normal -0.000000e+000 -1.000000e+000 0.000000e+000
    outer loop
      vertex   -2.502171e+002 -6.500000e+002 -1.256638e+002
      vertex   -2.631139e+002 -6.500000e+002 -9.576564e+001
      vertex   -4.557509e+002 -6.500000e+002 -1.658798e+002
    endloop
  endfacet
  facet normal 0.000000e+000 1.000000e+000 0.000000e+000
    outer loop
      vertex   -4.052116e+002 6.500000e+002 -2.665119e+002
      vertex   -2.339366e+002 6.500000e+002 -1.538625e+002
      vertex   -2.144924e+002 6.500000e+002 -1.799805e+002
    endloop
  endfacet
  facet normal 0.000000e+000 1.000000e+000 -0.000000e+000
    outer loop
      vertex   -4.052116e+002 6.500000e+002 -2.665119e+002
      vertex   -4.334118e+002 6.500000e+002 -2.176676e+002
      vertex   -2.502171e+002 6.500000e+002 -1.256638e+002
    endloop
  endfacet
  facet normal 0.000000e+000 1.000000e+000 0.000000e+000
    outer loop
      vertex   -2.502171e+002 6.500000e+002 -1.256638e+002
      vertex   -2.339366e+002 6.500000e+002 -1.538625e+002
      vertex   -4.052116e+002 6.500000e+002 -2.665119e+002
    endloop
  endfacet
  facet normal 0.000000e+000 1.000000e+000 0.000000e+000
    outer loop
      vertex   -4.557509e+002 6.500000e+002 -1.658798e+002
      vertex   -2.631139e+002 6.500000e+002 -9.576564e+001
      vertex   -2.502171e+002 6.500000e+002 -1.256638e+002
    endloop
  endfacet
  facet normal 0.000000e+000 1.000000e+000 0.000000e+000
    outer loop
      vertex   -2.502171e+002 6.500000e+002 -1.256638e+002
      vertex   -4.334118e+002 6.500000e+002 -2.176676e+002
      vertex   -4.557509e+002 6.500000e+002 -1.658798e+002
    endloop
  endfacet
  facet normal 0.000000e+000 1.000000e+000 0.000000e+000
    outer loop
      vertex   -2.144924e+002 6.500000e+002 -1.799805e+002
      vertex   -3.715316e+002 6.500000e+002 -3.117520e+002
      vertex   -4.052116e+002 6.500000e+002 -2.665119e+002
    endloop
  endfacet
endsolid
