solid ChasisAcople1
  facet normal 2.393157e-001 1.463316e-016 -9.709418e-001
    outer loop
      vertex   -2.997464e+001 1.030000e+003 2.321119e+002
      vertex   -1.579794e-014 1.030000e+003 2.395000e+002
      vertex   0.000000e+000 1.000000e+003 2.395000e+002
    endloop
  endfacet
  facet normal 6.631227e-001 0.000000e+000 -7.485107e-001
    outer loop
      vertex   -5.308246e+001 1.030000e+003 2.116402e+002
      vertex   -2.997464e+001 1.030000e+003 2.321119e+002
      vertex   -2.997464e+001 1.000000e+003 2.321119e+002
    endloop
  endfacet
  facet normal 9.350162e-001 0.000000e+000 -3.546049e-001
    outer loop
      vertex   -6.402972e+001 1.030000e+003 1.827746e+002
      vertex   -5.308246e+001 1.030000e+003 2.116402e+002
      vertex   -5.308246e+001 1.000000e+003 2.116402e+002
    endloop
  endfacet
  facet normal 9.927089e-001 0.000000e+000 1.205367e-001
    outer loop
      vertex   -6.030855e+001 1.030000e+003 1.521280e+002
      vertex   -6.402972e+001 1.030000e+003 1.827746e+002
      vertex   -6.402972e+001 1.000000e+003 1.827746e+002
    endloop
  endfacet
  facet normal 8.229839e-001 0.000000e+000 5.680647e-001
    outer loop
      vertex   -4.277141e+001 1.030000e+003 1.267211e+002
      vertex   -6.030855e+001 1.030000e+003 1.521280e+002
      vertex   -6.030855e+001 1.000000e+003 1.521280e+002
    endloop
  endfacet
  facet normal 4.647232e-001 0.000000e+000 8.854560e-001
    outer loop
      vertex   -1.543586e+001 1.030000e+003 1.123743e+002
      vertex   -4.277141e+001 1.030000e+003 1.267211e+002
      vertex   -4.277141e+001 1.000000e+003 1.267211e+002
    endloop
  endfacet
  facet normal -4.495308e-016 0.000000e+000 1.000000e+000
    outer loop
      vertex   1.543586e+001 1.030000e+003 1.123743e+002
      vertex   -1.543586e+001 1.030000e+003 1.123743e+002
      vertex   -1.543586e+001 1.000000e+003 1.123743e+002
    endloop
  endfacet
  facet normal -4.647232e-001 0.000000e+000 8.854560e-001
    outer loop
      vertex   4.277141e+001 1.030000e+003 1.267211e+002
      vertex   1.543586e+001 1.030000e+003 1.123743e+002
      vertex   1.543586e+001 1.000000e+003 1.123743e+002
    endloop
  endfacet
  facet normal -8.229839e-001 0.000000e+000 5.680647e-001
    outer loop
      vertex   6.030855e+001 1.030000e+003 1.521280e+002
      vertex   4.277141e+001 1.030000e+003 1.267211e+002
      vertex   4.277141e+001 1.000000e+003 1.267211e+002
    endloop
  endfacet
  facet normal -9.927089e-001 0.000000e+000 1.205367e-001
    outer loop
      vertex   6.402972e+001 1.030000e+003 1.827746e+002
      vertex   6.030855e+001 1.030000e+003 1.521280e+002
      vertex   6.030855e+001 1.000000e+003 1.521280e+002
    endloop
  endfacet
  facet normal -9.350162e-001 0.000000e+000 -3.546049e-001
    outer loop
      vertex   5.308246e+001 1.030000e+003 2.116402e+002
      vertex   6.402972e+001 1.030000e+003 1.827746e+002
      vertex   6.402972e+001 1.000000e+003 1.827746e+002
    endloop
  endfacet
  facet normal -6.631227e-001 0.000000e+000 -7.485107e-001
    outer loop
      vertex   2.997464e+001 1.030000e+003 2.321119e+002
      vertex   5.308246e+001 1.030000e+003 2.116402e+002
      vertex   5.308246e+001 1.000000e+003 2.116402e+002
    endloop
  endfacet
  facet normal -2.393157e-001 0.000000e+000 -9.709418e-001
    outer loop
      vertex   -1.579794e-014 1.030000e+003 2.395000e+002
      vertex   2.997464e+001 1.030000e+003 2.321119e+002
      vertex   2.997464e+001 1.000000e+003 2.321119e+002
    endloop
  endfacet
  facet normal -2.393157e-001 -1.463316e-016 -9.709418e-001
    outer loop
      vertex   2.997464e+001 1.000000e+003 2.321119e+002
      vertex   0.000000e+000 1.000000e+003 2.395000e+002
      vertex   -1.579794e-014 1.030000e+003 2.395000e+002
    endloop
  endfacet
  facet normal -6.631227e-001 0.000000e+000 -7.485107e-001
    outer loop
      vertex   5.308246e+001 1.000000e+003 2.116402e+002
      vertex   2.997464e+001 1.000000e+003 2.321119e+002
      vertex   2.997464e+001 1.030000e+003 2.321119e+002
    endloop
  endfacet
  facet normal -9.350162e-001 0.000000e+000 -3.546049e-001
    outer loop
      vertex   6.402972e+001 1.000000e+003 1.827746e+002
      vertex   5.308246e+001 1.000000e+003 2.116402e+002
      vertex   5.308246e+001 1.030000e+003 2.116402e+002
    endloop
  endfacet
  facet normal -9.927089e-001 0.000000e+000 1.205367e-001
    outer loop
      vertex   6.030855e+001 1.000000e+003 1.521280e+002
      vertex   6.402972e+001 1.000000e+003 1.827746e+002
      vertex   6.402972e+001 1.030000e+003 1.827746e+002
    endloop
  endfacet
  facet normal -8.229839e-001 0.000000e+000 5.680647e-001
    outer loop
      vertex   4.277141e+001 1.000000e+003 1.267211e+002
      vertex   6.030855e+001 1.000000e+003 1.521280e+002
      vertex   6.030855e+001 1.030000e+003 1.521280e+002
    endloop
  endfacet
  facet normal -4.647232e-001 0.000000e+000 8.854560e-001
    outer loop
      vertex   1.543586e+001 1.000000e+003 1.123743e+002
      vertex   4.277141e+001 1.000000e+003 1.267211e+002
      vertex   4.277141e+001 1.030000e+003 1.267211e+002
    endloop
  endfacet
  facet normal -4.495308e-016 0.000000e+000 1.000000e+000
    outer loop
      vertex   -1.543586e+001 1.000000e+003 1.123743e+002
      vertex   1.543586e+001 1.000000e+003 1.123743e+002
      vertex   1.543586e+001 1.030000e+003 1.123743e+002
    endloop
  endfacet
  facet normal 4.647232e-001 0.000000e+000 8.854560e-001
    outer loop
      vertex   -4.277141e+001 1.000000e+003 1.267211e+002
      vertex   -1.543586e+001 1.000000e+003 1.123743e+002
      vertex   -1.543586e+001 1.030000e+003 1.123743e+002
    endloop
  endfacet
  facet normal 8.229839e-001 0.000000e+000 5.680647e-001
    outer loop
      vertex   -6.030855e+001 1.000000e+003 1.521280e+002
      vertex   -4.277141e+001 1.000000e+003 1.267211e+002
      vertex   -4.277141e+001 1.030000e+003 1.267211e+002
    endloop
  endfacet
  facet normal 9.927089e-001 0.000000e+000 1.205367e-001
    outer loop
      vertex   -6.402972e+001 1.000000e+003 1.827746e+002
      vertex   -6.030855e+001 1.000000e+003 1.521280e+002
      vertex   -6.030855e+001 1.030000e+003 1.521280e+002
    endloop
  endfacet
  facet normal 9.350162e-001 0.000000e+000 -3.546049e-001
    outer loop
      vertex   -5.308246e+001 1.000000e+003 2.116402e+002
      vertex   -6.402972e+001 1.000000e+003 1.827746e+002
      vertex   -6.402972e+001 1.030000e+003 1.827746e+002
    endloop
  endfacet
  facet normal 6.631227e-001 0.000000e+000 -7.485107e-001
    outer loop
      vertex   -2.997464e+001 1.000000e+003 2.321119e+002
      vertex   -5.308246e+001 1.000000e+003 2.116402e+002
      vertex   -5.308246e+001 1.030000e+003 2.116402e+002
    endloop
  endfacet
  facet normal 2.393157e-001 0.000000e+000 -9.709418e-001
    outer loop
      vertex   0.000000e+000 1.000000e+003 2.395000e+002
      vertex   -2.997464e+001 1.000000e+003 2.321119e+002
      vertex   -2.997464e+001 1.030000e+003 2.321119e+002
    endloop
  endfacet
  facet normal 0.000000e+000 1.000000e+000 0.000000e+000
    outer loop
      vertex   1.543586e+001 1.030000e+003 1.123743e+002
      vertex   2.974874e+002 1.030000e+003 -3.474874e+002
      vertex   2.444496e+002 1.030000e+003 -3.910144e+002
    endloop
  endfacet
  facet normal -0.000000e+000 1.000000e+000 0.000000e+000
    outer loop
      vertex   1.543586e+001 1.030000e+003 1.123743e+002
      vertex   4.277141e+001 1.030000e+003 1.267211e+002
      vertex   3.733578e+002 1.030000e+003 -2.339392e+002
    endloop
  endfacet
  facet normal 0.000000e+000 1.000000e+000 0.000000e+000
    outer loop
      vertex   -5.000000e+001 1.030000e+003 -4.500000e+002
      vertex   -1.543586e+001 1.030000e+003 1.123743e+002
      vertex   1.543586e+001 1.030000e+003 1.123743e+002
    endloop
  endfacet
  facet normal 0.000000e+000 1.000000e+000 0.000000e+000
    outer loop
      vertex   -4.277141e+001 1.030000e+003 1.267211e+002
      vertex   -3.932748e+002 1.030000e+003 -1.682816e+002
      vertex   -4.000000e+002 1.030000e+003 -1.000000e+002
    endloop
  endfacet
  facet normal 0.000000e+000 1.000000e+000 0.000000e+000
    outer loop
      vertex   2.444496e+002 1.030000e+003 -3.910144e+002
      vertex   1.839392e+002 1.030000e+003 -4.233578e+002
      vertex   1.543586e+001 1.030000e+003 1.123743e+002
    endloop
  endfacet
  facet normal 0.000000e+000 1.000000e+000 0.000000e+000
    outer loop
      vertex   3.733578e+002 1.030000e+003 -2.339392e+002
      vertex   3.410144e+002 1.030000e+003 -2.944496e+002
      vertex   1.543586e+001 1.030000e+003 1.123743e+002
    endloop
  endfacet
  facet normal 0.000000e+000 1.000000e+000 0.000000e+000
    outer loop
      vertex   1.543586e+001 1.030000e+003 1.123743e+002
      vertex   1.182816e+002 1.030000e+003 -4.432748e+002
      vertex   5.000000e+001 1.030000e+003 -4.500000e+002
    endloop
  endfacet
  facet normal 0.000000e+000 1.000000e+000 0.000000e+000
    outer loop
      vertex   -1.543586e+001 1.030000e+003 1.123743e+002
      vertex   -3.410144e+002 1.030000e+003 -2.944496e+002
      vertex   -3.733578e+002 1.030000e+003 -2.339392e+002
    endloop
  endfacet
  facet normal 0.000000e+000 1.000000e+000 0.000000e+000
    outer loop
      vertex   -1.543586e+001 1.030000e+003 1.123743e+002
      vertex   -2.444496e+002 1.030000e+003 -3.910144e+002
      vertex   -2.974874e+002 1.030000e+003 -3.474874e+002
    endloop
  endfacet
  facet normal 0.000000e+000 1.000000e+000 0.000000e+000
    outer loop
      vertex   -4.277141e+001 1.030000e+003 1.267211e+002
      vertex   -3.733578e+002 1.030000e+003 -2.339392e+002
      vertex   -3.932748e+002 1.030000e+003 -1.682816e+002
    endloop
  endfacet
  facet normal 0.000000e+000 1.000000e+000 0.000000e+000
    outer loop
      vertex   -4.000000e+002 1.030000e+003 -1.000000e+002
      vertex   -4.000000e+002 1.030000e+003 4.500000e+002
      vertex   -6.402972e+001 1.030000e+003 1.827746e+002
    endloop
  endfacet
  facet normal -0.000000e+000 1.000000e+000 0.000000e+000
    outer loop
      vertex   4.277141e+001 1.030000e+003 1.267211e+002
      vertex   6.030855e+001 1.030000e+003 1.521280e+002
      vertex   4.000000e+002 1.030000e+003 -1.000000e+002
    endloop
  endfacet
  facet normal 0.000000e+000 1.000000e+000 0.000000e+000
    outer loop
      vertex   3.410144e+002 1.030000e+003 -2.944496e+002
      vertex   2.974874e+002 1.030000e+003 -3.474874e+002
      vertex   1.543586e+001 1.030000e+003 1.123743e+002
    endloop
  endfacet
  facet normal 0.000000e+000 1.000000e+000 0.000000e+000
    outer loop
      vertex   1.543586e+001 1.030000e+003 1.123743e+002
      vertex   5.000000e+001 1.030000e+003 -4.500000e+002
      vertex   -5.000000e+001 1.030000e+003 -4.500000e+002
    endloop
  endfacet
  facet normal 0.000000e+000 1.000000e+000 -0.000000e+000
    outer loop
      vertex   -2.974874e+002 1.030000e+003 -3.474874e+002
      vertex   -3.410144e+002 1.030000e+003 -2.944496e+002
      vertex   -1.543586e+001 1.030000e+003 1.123743e+002
    endloop
  endfacet
  facet normal 0.000000e+000 1.000000e+000 0.000000e+000
    outer loop
      vertex   -1.543586e+001 1.030000e+003 1.123743e+002
      vertex   -1.182816e+002 1.030000e+003 -4.432748e+002
      vertex   -1.839392e+002 1.030000e+003 -4.233578e+002
    endloop
  endfacet
  facet normal 0.000000e+000 1.000000e+000 0.000000e+000
    outer loop
      vertex   -6.402972e+001 1.030000e+003 1.827746e+002
      vertex   -6.030855e+001 1.030000e+003 1.521280e+002
      vertex   -4.000000e+002 1.030000e+003 -1.000000e+002
    endloop
  endfacet
  facet normal 0.000000e+000 1.000000e+000 0.000000e+000
    outer loop
      vertex   4.000000e+002 1.030000e+003 -1.000000e+002
      vertex   6.030855e+001 1.030000e+003 1.521280e+002
      vertex   6.402972e+001 1.030000e+003 1.827746e+002
    endloop
  endfacet
  facet normal 0.000000e+000 1.000000e+000 0.000000e+000
    outer loop
      vertex   4.000000e+002 1.030000e+003 -1.000000e+002
      vertex   3.932748e+002 1.030000e+003 -1.682816e+002
      vertex   4.277141e+001 1.030000e+003 1.267211e+002
    endloop
  endfacet
  facet normal 0.000000e+000 1.000000e+000 -0.000000e+000
    outer loop
      vertex   -5.000000e+001 1.030000e+003 -4.500000e+002
      vertex   -1.182816e+002 1.030000e+003 -4.432748e+002
      vertex   -1.543586e+001 1.030000e+003 1.123743e+002
    endloop
  endfacet
  facet normal 0.000000e+000 1.000000e+000 -0.000000e+000
    outer loop
      vertex   -1.839392e+002 1.030000e+003 -4.233578e+002
      vertex   -2.444496e+002 1.030000e+003 -3.910144e+002
      vertex   -1.543586e+001 1.030000e+003 1.123743e+002
    endloop
  endfacet
  facet normal 0.000000e+000 1.000000e+000 0.000000e+000
    outer loop
      vertex   -4.000000e+002 1.030000e+003 4.500000e+002
      vertex   -5.308246e+001 1.030000e+003 2.116402e+002
      vertex   -6.402972e+001 1.030000e+003 1.827746e+002
    endloop
  endfacet
  facet normal 0.000000e+000 1.000000e+000 0.000000e+000
    outer loop
      vertex   4.000000e+002 1.030000e+003 4.500000e+002
      vertex   2.997464e+001 1.030000e+003 2.321119e+002
      vertex   -1.579794e-014 1.030000e+003 2.395000e+002
    endloop
  endfacet
  facet normal 0.000000e+000 1.000000e+000 0.000000e+000
    outer loop
      vertex   3.932748e+002 1.030000e+003 -1.682816e+002
      vertex   3.733578e+002 1.030000e+003 -2.339392e+002
      vertex   4.277141e+001 1.030000e+003 1.267211e+002
    endloop
  endfacet
  facet normal 0.000000e+000 1.000000e+000 0.000000e+000
    outer loop
      vertex   -3.733578e+002 1.030000e+003 -2.339392e+002
      vertex   -4.277141e+001 1.030000e+003 1.267211e+002
      vertex   -1.543586e+001 1.030000e+003 1.123743e+002
    endloop
  endfacet
  facet normal 0.000000e+000 1.000000e+000 0.000000e+000
    outer loop
      vertex   -4.000000e+002 1.030000e+003 4.500000e+002
      vertex   -2.997464e+001 1.030000e+003 2.321119e+002
      vertex   -5.308246e+001 1.030000e+003 2.116402e+002
    endloop
  endfacet
  facet normal 0.000000e+000 1.000000e+000 0.000000e+000
    outer loop
      vertex   4.000000e+002 1.030000e+003 4.500000e+002
      vertex   5.308246e+001 1.030000e+003 2.116402e+002
      vertex   2.997464e+001 1.030000e+003 2.321119e+002
    endloop
  endfacet
  facet normal -0.000000e+000 1.000000e+000 0.000000e+000
    outer loop
      vertex   6.402972e+001 1.030000e+003 1.827746e+002
      vertex   4.000000e+002 1.030000e+003 4.500000e+002
      vertex   4.000000e+002 1.030000e+003 -1.000000e+002
    endloop
  endfacet
  facet normal 0.000000e+000 1.000000e+000 0.000000e+000
    outer loop
      vertex   -4.000000e+002 1.030000e+003 -1.000000e+002
      vertex   -6.030855e+001 1.030000e+003 1.521280e+002
      vertex   -4.277141e+001 1.030000e+003 1.267211e+002
    endloop
  endfacet
  facet normal 0.000000e+000 1.000000e+000 -0.000000e+000
    outer loop
      vertex   6.402972e+001 1.030000e+003 1.827746e+002
      vertex   5.308246e+001 1.030000e+003 2.116402e+002
      vertex   4.000000e+002 1.030000e+003 4.500000e+002
    endloop
  endfacet
  facet normal 0.000000e+000 1.000000e+000 0.000000e+000
    outer loop
      vertex   -4.000000e+002 1.030000e+003 4.500000e+002
      vertex   -1.579794e-014 1.030000e+003 2.395000e+002
      vertex   -2.997464e+001 1.030000e+003 2.321119e+002
    endloop
  endfacet
  facet normal 0.000000e+000 1.000000e+000 0.000000e+000
    outer loop
      vertex   1.839392e+002 1.030000e+003 -4.233578e+002
      vertex   1.182816e+002 1.030000e+003 -4.432748e+002
      vertex   1.543586e+001 1.030000e+003 1.123743e+002
    endloop
  endfacet
  facet normal 0.000000e+000 1.000000e+000 -0.000000e+000
    outer loop
      vertex   -1.579794e-014 1.030000e+003 2.395000e+002
      vertex   -4.000000e+002 1.030000e+003 4.500000e+002
      vertex   4.000000e+002 1.030000e+003 4.500000e+002
    endloop
  endfacet
  facet normal -9.951847e-001 0.000000e+000 -9.801714e-002
    outer loop
      vertex   -4.000000e+002 0.000000e+000 -1.000000e+002
      vertex   -4.000000e+002 1.030000e+003 -1.000000e+002
      vertex   -3.932748e+002 1.030000e+003 -1.682816e+002
    endloop
  endfacet
  facet normal -9.569403e-001 0.000000e+000 -2.902847e-001
    outer loop
      vertex   -3.932748e+002 0.000000e+000 -1.682816e+002
      vertex   -3.932748e+002 1.030000e+003 -1.682816e+002
      vertex   -3.733578e+002 1.030000e+003 -2.339392e+002
    endloop
  endfacet
  facet normal -8.819213e-001 0.000000e+000 -4.713967e-001
    outer loop
      vertex   -3.733578e+002 0.000000e+000 -2.339392e+002
      vertex   -3.733578e+002 1.030000e+003 -2.339392e+002
      vertex   -3.410144e+002 1.030000e+003 -2.944496e+002
    endloop
  endfacet
  facet normal -7.730105e-001 0.000000e+000 -6.343933e-001
    outer loop
      vertex   -3.410144e+002 0.000000e+000 -2.944496e+002
      vertex   -3.410144e+002 1.030000e+003 -2.944496e+002
      vertex   -2.974874e+002 1.030000e+003 -3.474874e+002
    endloop
  endfacet
  facet normal -6.343933e-001 0.000000e+000 -7.730105e-001
    outer loop
      vertex   -2.974874e+002 0.000000e+000 -3.474874e+002
      vertex   -2.974874e+002 1.030000e+003 -3.474874e+002
      vertex   -2.444496e+002 1.030000e+003 -3.910144e+002
    endloop
  endfacet
  facet normal -4.713967e-001 0.000000e+000 -8.819213e-001
    outer loop
      vertex   -2.444496e+002 0.000000e+000 -3.910144e+002
      vertex   -2.444496e+002 1.030000e+003 -3.910144e+002
      vertex   -1.839392e+002 1.030000e+003 -4.233578e+002
    endloop
  endfacet
  facet normal -2.902847e-001 0.000000e+000 -9.569403e-001
    outer loop
      vertex   -1.839392e+002 0.000000e+000 -4.233578e+002
      vertex   -1.839392e+002 1.030000e+003 -4.233578e+002
      vertex   -1.182816e+002 1.030000e+003 -4.432748e+002
    endloop
  endfacet
  facet normal -9.801714e-002 0.000000e+000 -9.951847e-001
    outer loop
      vertex   -1.182816e+002 0.000000e+000 -4.432748e+002
      vertex   -1.182816e+002 1.030000e+003 -4.432748e+002
      vertex   -5.000000e+001 1.030000e+003 -4.500000e+002
    endloop
  endfacet
  facet normal -9.801714e-002 -0.000000e+000 -9.951847e-001
    outer loop
      vertex   -5.000000e+001 1.030000e+003 -4.500000e+002
      vertex   -5.000000e+001 0.000000e+000 -4.500000e+002
      vertex   -1.182816e+002 0.000000e+000 -4.432748e+002
    endloop
  endfacet
  facet normal -2.902847e-001 -0.000000e+000 -9.569403e-001
    outer loop
      vertex   -1.182816e+002 1.030000e+003 -4.432748e+002
      vertex   -1.182816e+002 0.000000e+000 -4.432748e+002
      vertex   -1.839392e+002 0.000000e+000 -4.233578e+002
    endloop
  endfacet
  facet normal -4.713967e-001 -0.000000e+000 -8.819213e-001
    outer loop
      vertex   -1.839392e+002 1.030000e+003 -4.233578e+002
      vertex   -1.839392e+002 0.000000e+000 -4.233578e+002
      vertex   -2.444496e+002 0.000000e+000 -3.910144e+002
    endloop
  endfacet
  facet normal -6.343933e-001 -0.000000e+000 -7.730105e-001
    outer loop
      vertex   -2.444496e+002 1.030000e+003 -3.910144e+002
      vertex   -2.444496e+002 0.000000e+000 -3.910144e+002
      vertex   -2.974874e+002 0.000000e+000 -3.474874e+002
    endloop
  endfacet
  facet normal -7.730105e-001 -0.000000e+000 -6.343933e-001
    outer loop
      vertex   -2.974874e+002 1.030000e+003 -3.474874e+002
      vertex   -2.974874e+002 0.000000e+000 -3.474874e+002
      vertex   -3.410144e+002 0.000000e+000 -2.944496e+002
    endloop
  endfacet
  facet normal -8.819213e-001 -0.000000e+000 -4.713967e-001
    outer loop
      vertex   -3.410144e+002 1.030000e+003 -2.944496e+002
      vertex   -3.410144e+002 0.000000e+000 -2.944496e+002
      vertex   -3.733578e+002 0.000000e+000 -2.339392e+002
    endloop
  endfacet
  facet normal -9.569403e-001 -0.000000e+000 -2.902847e-001
    outer loop
      vertex   -3.733578e+002 1.030000e+003 -2.339392e+002
      vertex   -3.733578e+002 0.000000e+000 -2.339392e+002
      vertex   -3.932748e+002 0.000000e+000 -1.682816e+002
    endloop
  endfacet
  facet normal -9.951847e-001 -0.000000e+000 -9.801714e-002
    outer loop
      vertex   -3.932748e+002 1.030000e+003 -1.682816e+002
      vertex   -3.932748e+002 0.000000e+000 -1.682816e+002
      vertex   -4.000000e+002 0.000000e+000 -1.000000e+002
    endloop
  endfacet
  facet normal -5.551115e-016 -0.000000e+000 -1.000000e+000
    outer loop
      vertex   5.000000e+001 1.030000e+003 -4.500000e+002
      vertex   5.000000e+001 0.000000e+000 -4.500000e+002
      vertex   -5.000000e+001 0.000000e+000 -4.500000e+002
    endloop
  endfacet
  facet normal -5.551115e-016 0.000000e+000 -1.000000e+000
    outer loop
      vertex   -5.000000e+001 0.000000e+000 -4.500000e+002
      vertex   -5.000000e+001 1.030000e+003 -4.500000e+002
      vertex   5.000000e+001 1.030000e+003 -4.500000e+002
    endloop
  endfacet
  facet normal 9.801714e-002 0.000000e+000 -9.951847e-001
    outer loop
      vertex   5.000000e+001 0.000000e+000 -4.500000e+002
      vertex   5.000000e+001 1.030000e+003 -4.500000e+002
      vertex   1.182816e+002 1.030000e+003 -4.432748e+002
    endloop
  endfacet
  facet normal 2.902847e-001 0.000000e+000 -9.569403e-001
    outer loop
      vertex   1.182816e+002 0.000000e+000 -4.432748e+002
      vertex   1.182816e+002 1.030000e+003 -4.432748e+002
      vertex   1.839392e+002 1.030000e+003 -4.233578e+002
    endloop
  endfacet
  facet normal 4.713967e-001 0.000000e+000 -8.819213e-001
    outer loop
      vertex   1.839392e+002 0.000000e+000 -4.233578e+002
      vertex   1.839392e+002 1.030000e+003 -4.233578e+002
      vertex   2.444496e+002 1.030000e+003 -3.910144e+002
    endloop
  endfacet
  facet normal 6.343933e-001 0.000000e+000 -7.730105e-001
    outer loop
      vertex   2.444496e+002 0.000000e+000 -3.910144e+002
      vertex   2.444496e+002 1.030000e+003 -3.910144e+002
      vertex   2.974874e+002 1.030000e+003 -3.474874e+002
    endloop
  endfacet
  facet normal 7.730105e-001 0.000000e+000 -6.343933e-001
    outer loop
      vertex   2.974874e+002 0.000000e+000 -3.474874e+002
      vertex   2.974874e+002 1.030000e+003 -3.474874e+002
      vertex   3.410144e+002 1.030000e+003 -2.944496e+002
    endloop
  endfacet
  facet normal 8.819213e-001 0.000000e+000 -4.713967e-001
    outer loop
      vertex   3.410144e+002 0.000000e+000 -2.944496e+002
      vertex   3.410144e+002 1.030000e+003 -2.944496e+002
      vertex   3.733578e+002 1.030000e+003 -2.339392e+002
    endloop
  endfacet
  facet normal 9.569403e-001 0.000000e+000 -2.902847e-001
    outer loop
      vertex   3.733578e+002 0.000000e+000 -2.339392e+002
      vertex   3.733578e+002 1.030000e+003 -2.339392e+002
      vertex   3.932748e+002 1.030000e+003 -1.682816e+002
    endloop
  endfacet
  facet normal 9.951847e-001 0.000000e+000 -9.801714e-002
    outer loop
      vertex   3.932748e+002 0.000000e+000 -1.682816e+002
      vertex   3.932748e+002 1.030000e+003 -1.682816e+002
      vertex   4.000000e+002 1.030000e+003 -1.000000e+002
    endloop
  endfacet
  facet normal 9.951847e-001 0.000000e+000 -9.801714e-002
    outer loop
      vertex   4.000000e+002 1.030000e+003 -1.000000e+002
      vertex   4.000000e+002 0.000000e+000 -1.000000e+002
      vertex   3.932748e+002 0.000000e+000 -1.682816e+002
    endloop
  endfacet
  facet normal 9.569403e-001 0.000000e+000 -2.902847e-001
    outer loop
      vertex   3.932748e+002 1.030000e+003 -1.682816e+002
      vertex   3.932748e+002 0.000000e+000 -1.682816e+002
      vertex   3.733578e+002 0.000000e+000 -2.339392e+002
    endloop
  endfacet
  facet normal 8.819213e-001 0.000000e+000 -4.713967e-001
    outer loop
      vertex   3.733578e+002 1.030000e+003 -2.339392e+002
      vertex   3.733578e+002 0.000000e+000 -2.339392e+002
      vertex   3.410144e+002 0.000000e+000 -2.944496e+002
    endloop
  endfacet
  facet normal 7.730105e-001 0.000000e+000 -6.343933e-001
    outer loop
      vertex   3.410144e+002 1.030000e+003 -2.944496e+002
      vertex   3.410144e+002 0.000000e+000 -2.944496e+002
      vertex   2.974874e+002 0.000000e+000 -3.474874e+002
    endloop
  endfacet
  facet normal 6.343933e-001 0.000000e+000 -7.730105e-001
    outer loop
      vertex   2.974874e+002 1.030000e+003 -3.474874e+002
      vertex   2.974874e+002 0.000000e+000 -3.474874e+002
      vertex   2.444496e+002 0.000000e+000 -3.910144e+002
    endloop
  endfacet
  facet normal 4.713967e-001 0.000000e+000 -8.819213e-001
    outer loop
      vertex   2.444496e+002 1.030000e+003 -3.910144e+002
      vertex   2.444496e+002 0.000000e+000 -3.910144e+002
      vertex   1.839392e+002 0.000000e+000 -4.233578e+002
    endloop
  endfacet
  facet normal 2.902847e-001 0.000000e+000 -9.569403e-001
    outer loop
      vertex   1.839392e+002 1.030000e+003 -4.233578e+002
      vertex   1.839392e+002 0.000000e+000 -4.233578e+002
      vertex   1.182816e+002 0.000000e+000 -4.432748e+002
    endloop
  endfacet
  facet normal 9.801714e-002 0.000000e+000 -9.951847e-001
    outer loop
      vertex   1.182816e+002 1.030000e+003 -4.432748e+002
      vertex   1.182816e+002 0.000000e+000 -4.432748e+002
      vertex   5.000000e+001 0.000000e+000 -4.500000e+002
    endloop
  endfacet
  facet normal 1.000000e+000 0.000000e+000 0.000000e+000
    outer loop
      vertex   4.000000e+002 1.030000e+003 4.500000e+002
      vertex   4.000000e+002 0.000000e+000 4.500000e+002
      vertex   4.000000e+002 0.000000e+000 -1.000000e+002
    endloop
  endfacet
  facet normal 1.000000e+000 0.000000e+000 0.000000e+000
    outer loop
      vertex   4.000000e+002 0.000000e+000 -1.000000e+002
      vertex   4.000000e+002 1.030000e+003 -1.000000e+002
      vertex   4.000000e+002 1.030000e+003 4.500000e+002
    endloop
  endfacet
  facet normal 0.000000e+000 0.000000e+000 1.000000e+000
    outer loop
      vertex   -4.000000e+002 1.030000e+003 4.500000e+002
      vertex   -4.000000e+002 0.000000e+000 4.500000e+002
      vertex   4.000000e+002 0.000000e+000 4.500000e+002
    endloop
  endfacet
  facet normal 0.000000e+000 -0.000000e+000 1.000000e+000
    outer loop
      vertex   4.000000e+002 0.000000e+000 4.500000e+002
      vertex   4.000000e+002 1.030000e+003 4.500000e+002
      vertex   -4.000000e+002 1.030000e+003 4.500000e+002
    endloop
  endfacet
  facet normal -1.000000e+000 0.000000e+000 0.000000e+000
    outer loop
      vertex   -4.000000e+002 1.030000e+003 -1.000000e+002
      vertex   -4.000000e+002 0.000000e+000 -1.000000e+002
      vertex   -4.000000e+002 0.000000e+000 4.500000e+002
    endloop
  endfacet
  facet normal -1.000000e+000 0.000000e+000 0.000000e+000
    outer loop
      vertex   -4.000000e+002 0.000000e+000 4.500000e+002
      vertex   -4.000000e+002 1.030000e+003 4.500000e+002
      vertex   -4.000000e+002 1.030000e+003 -1.000000e+002
    endloop
  endfacet
  facet normal 0.000000e+000 -1.000000e+000 0.000000e+000
    outer loop
      vertex   4.277141e+001 0.000000e+000 1.267211e+002
      vertex   3.932748e+002 0.000000e+000 -1.682816e+002
      vertex   4.000000e+002 0.000000e+000 -1.000000e+002
    endloop
  endfacet
  facet normal 0.000000e+000 -1.000000e+000 0.000000e+000
    outer loop
      vertex   -1.543586e+001 0.000000e+000 1.123743e+002
      vertex   -3.410144e+002 0.000000e+000 -2.944496e+002
      vertex   -2.974874e+002 0.000000e+000 -3.474874e+002
    endloop
  endfacet
  facet normal -0.000000e+000 -1.000000e+000 0.000000e+000
    outer loop
      vertex   -1.543586e+001 0.000000e+000 1.123743e+002
      vertex   -4.277141e+001 0.000000e+000 1.267211e+002
      vertex   -3.733578e+002 0.000000e+000 -2.339392e+002
    endloop
  endfacet
  facet normal 0.000000e+000 -1.000000e+000 0.000000e+000
    outer loop
      vertex   -5.000000e+001 0.000000e+000 -4.500000e+002
      vertex   5.000000e+001 0.000000e+000 -4.500000e+002
      vertex   1.543586e+001 0.000000e+000 1.123743e+002
    endloop
  endfacet
  facet normal 0.000000e+000 -1.000000e+000 0.000000e+000
    outer loop
      vertex   4.277141e+001 0.000000e+000 1.267211e+002
      vertex   3.733578e+002 0.000000e+000 -2.339392e+002
      vertex   3.932748e+002 0.000000e+000 -1.682816e+002
    endloop
  endfacet
  facet normal 0.000000e+000 -1.000000e+000 0.000000e+000
    outer loop
      vertex   4.000000e+002 0.000000e+000 -1.000000e+002
      vertex   4.000000e+002 0.000000e+000 4.500000e+002
      vertex   6.402972e+001 0.000000e+000 1.827746e+002
    endloop
  endfacet
  facet normal -0.000000e+000 -1.000000e+000 0.000000e+000
    outer loop
      vertex   4.000000e+002 0.000000e+000 4.500000e+002
      vertex   -4.000000e+002 0.000000e+000 4.500000e+002
      vertex   0.000000e+000 0.000000e+000 2.395000e+002
    endloop
  endfacet
  facet normal 0.000000e+000 -1.000000e+000 0.000000e+000
    outer loop
      vertex   -4.000000e+002 0.000000e+000 4.500000e+002
      vertex   -6.402972e+001 0.000000e+000 1.827746e+002
      vertex   -5.308246e+001 0.000000e+000 2.116402e+002
    endloop
  endfacet
  facet normal 0.000000e+000 -1.000000e+000 0.000000e+000
    outer loop
      vertex   -4.000000e+002 0.000000e+000 -1.000000e+002
      vertex   -6.030855e+001 0.000000e+000 1.521280e+002
      vertex   -6.402972e+001 0.000000e+000 1.827746e+002
    endloop
  endfacet
  facet normal -0.000000e+000 -1.000000e+000 0.000000e+000
    outer loop
      vertex   -4.277141e+001 0.000000e+000 1.267211e+002
      vertex   -6.030855e+001 0.000000e+000 1.521280e+002
      vertex   -4.000000e+002 0.000000e+000 -1.000000e+002
    endloop
  endfacet
  facet normal 0.000000e+000 -1.000000e+000 0.000000e+000
    outer loop
      vertex   -1.543586e+001 0.000000e+000 1.123743e+002
      vertex   -2.444496e+002 0.000000e+000 -3.910144e+002
      vertex   -1.839392e+002 0.000000e+000 -4.233578e+002
    endloop
  endfacet
  facet normal 0.000000e+000 -1.000000e+000 0.000000e+000
    outer loop
      vertex   -3.733578e+002 0.000000e+000 -2.339392e+002
      vertex   -3.410144e+002 0.000000e+000 -2.944496e+002
      vertex   -1.543586e+001 0.000000e+000 1.123743e+002
    endloop
  endfacet
  facet normal 0.000000e+000 -1.000000e+000 0.000000e+000
    outer loop
      vertex   1.543586e+001 0.000000e+000 1.123743e+002
      vertex   -1.543586e+001 0.000000e+000 1.123743e+002
      vertex   -5.000000e+001 0.000000e+000 -4.500000e+002
    endloop
  endfacet
  facet normal 0.000000e+000 -1.000000e+000 0.000000e+000
    outer loop
      vertex   1.543586e+001 0.000000e+000 1.123743e+002
      vertex   3.410144e+002 0.000000e+000 -2.944496e+002
      vertex   3.733578e+002 0.000000e+000 -2.339392e+002
    endloop
  endfacet
  facet normal 0.000000e+000 -1.000000e+000 -0.000000e+000
    outer loop
      vertex   6.402972e+001 0.000000e+000 1.827746e+002
      vertex   6.030855e+001 0.000000e+000 1.521280e+002
      vertex   4.000000e+002 0.000000e+000 -1.000000e+002
    endloop
  endfacet
  facet normal 0.000000e+000 -1.000000e+000 0.000000e+000
    outer loop
      vertex   0.000000e+000 0.000000e+000 2.395000e+002
      vertex   2.997464e+001 0.000000e+000 2.321119e+002
      vertex   4.000000e+002 0.000000e+000 4.500000e+002
    endloop
  endfacet
  facet normal -0.000000e+000 -1.000000e+000 0.000000e+000
    outer loop
      vertex   -6.402972e+001 0.000000e+000 1.827746e+002
      vertex   -4.000000e+002 0.000000e+000 4.500000e+002
      vertex   -4.000000e+002 0.000000e+000 -1.000000e+002
    endloop
  endfacet
  facet normal 0.000000e+000 -1.000000e+000 0.000000e+000
    outer loop
      vertex   -4.000000e+002 0.000000e+000 -1.000000e+002
      vertex   -3.932748e+002 0.000000e+000 -1.682816e+002
      vertex   -4.277141e+001 0.000000e+000 1.267211e+002
    endloop
  endfacet
  facet normal 0.000000e+000 -1.000000e+000 0.000000e+000
    outer loop
      vertex   -2.974874e+002 0.000000e+000 -3.474874e+002
      vertex   -2.444496e+002 0.000000e+000 -3.910144e+002
      vertex   -1.543586e+001 0.000000e+000 1.123743e+002
    endloop
  endfacet
  facet normal 0.000000e+000 -1.000000e+000 0.000000e+000
    outer loop
      vertex   -1.543586e+001 0.000000e+000 1.123743e+002
      vertex   -1.182816e+002 0.000000e+000 -4.432748e+002
      vertex   -5.000000e+001 0.000000e+000 -4.500000e+002
    endloop
  endfacet
  facet normal 0.000000e+000 -1.000000e+000 0.000000e+000
    outer loop
      vertex   1.543586e+001 0.000000e+000 1.123743e+002
      vertex   2.974874e+002 0.000000e+000 -3.474874e+002
      vertex   3.410144e+002 0.000000e+000 -2.944496e+002
    endloop
  endfacet
  facet normal 0.000000e+000 -1.000000e+000 0.000000e+000
    outer loop
      vertex   1.543586e+001 0.000000e+000 1.123743e+002
      vertex   1.839392e+002 0.000000e+000 -4.233578e+002
      vertex   2.444496e+002 0.000000e+000 -3.910144e+002
    endloop
  endfacet
  facet normal 0.000000e+000 -1.000000e+000 0.000000e+000
    outer loop
      vertex   4.000000e+002 0.000000e+000 4.500000e+002
      vertex   5.308246e+001 0.000000e+000 2.116402e+002
      vertex   6.402972e+001 0.000000e+000 1.827746e+002
    endloop
  endfacet
  facet normal 0.000000e+000 -1.000000e+000 0.000000e+000
    outer loop
      vertex   -4.000000e+002 0.000000e+000 4.500000e+002
      vertex   -2.997464e+001 0.000000e+000 2.321119e+002
      vertex   0.000000e+000 0.000000e+000 2.395000e+002
    endloop
  endfacet
  facet normal 0.000000e+000 -1.000000e+000 0.000000e+000
    outer loop
      vertex   -3.932748e+002 0.000000e+000 -1.682816e+002
      vertex   -3.733578e+002 0.000000e+000 -2.339392e+002
      vertex   -4.277141e+001 0.000000e+000 1.267211e+002
    endloop
  endfacet
  facet normal 0.000000e+000 -1.000000e+000 0.000000e+000
    outer loop
      vertex   5.000000e+001 0.000000e+000 -4.500000e+002
      vertex   1.182816e+002 0.000000e+000 -4.432748e+002
      vertex   1.543586e+001 0.000000e+000 1.123743e+002
    endloop
  endfacet
  facet normal 0.000000e+000 -1.000000e+000 0.000000e+000
    outer loop
      vertex   2.444496e+002 0.000000e+000 -3.910144e+002
      vertex   2.974874e+002 0.000000e+000 -3.474874e+002
      vertex   1.543586e+001 0.000000e+000 1.123743e+002
    endloop
  endfacet
  facet normal 0.000000e+000 -1.000000e+000 0.000000e+000
    outer loop
      vertex   2.997464e+001 0.000000e+000 2.321119e+002
      vertex   5.308246e+001 0.000000e+000 2.116402e+002
      vertex   4.000000e+002 0.000000e+000 4.500000e+002
    endloop
  endfacet
  facet normal 0.000000e+000 -1.000000e+000 0.000000e+000
    outer loop
      vertex   -1.839392e+002 0.000000e+000 -4.233578e+002
      vertex   -1.182816e+002 0.000000e+000 -4.432748e+002
      vertex   -1.543586e+001 0.000000e+000 1.123743e+002
    endloop
  endfacet
  facet normal 0.000000e+000 -1.000000e+000 0.000000e+000
    outer loop
      vertex   1.543586e+001 0.000000e+000 1.123743e+002
      vertex   1.182816e+002 0.000000e+000 -4.432748e+002
      vertex   1.839392e+002 0.000000e+000 -4.233578e+002
    endloop
  endfacet
  facet normal 0.000000e+000 -1.000000e+000 0.000000e+000
    outer loop
      vertex   -5.308246e+001 0.000000e+000 2.116402e+002
      vertex   -2.997464e+001 0.000000e+000 2.321119e+002
      vertex   -4.000000e+002 0.000000e+000 4.500000e+002
    endloop
  endfacet
  facet normal 0.000000e+000 -1.000000e+000 0.000000e+000
    outer loop
      vertex   4.000000e+002 0.000000e+000 -1.000000e+002
      vertex   6.030855e+001 0.000000e+000 1.521280e+002
      vertex   4.277141e+001 0.000000e+000 1.267211e+002
    endloop
  endfacet
  facet normal 0.000000e+000 -1.000000e+000 0.000000e+000
    outer loop
      vertex   3.733578e+002 0.000000e+000 -2.339392e+002
      vertex   4.277141e+001 0.000000e+000 1.267211e+002
      vertex   1.543586e+001 0.000000e+000 1.123743e+002
    endloop
  endfacet
  facet normal 2.393157e-001 1.463316e-016 -9.709418e-001
    outer loop
      vertex   -2.997464e+001 3.000000e+001 2.321119e+002
      vertex   -1.579794e-014 3.000000e+001 2.395000e+002
      vertex   0.000000e+000 0.000000e+000 2.395000e+002
    endloop
  endfacet
  facet normal 6.631227e-001 0.000000e+000 -7.485107e-001
    outer loop
      vertex   -5.308246e+001 3.000000e+001 2.116402e+002
      vertex   -2.997464e+001 3.000000e+001 2.321119e+002
      vertex   -2.997464e+001 0.000000e+000 2.321119e+002
    endloop
  endfacet
  facet normal 9.350162e-001 0.000000e+000 -3.546049e-001
    outer loop
      vertex   -6.402972e+001 3.000000e+001 1.827746e+002
      vertex   -5.308246e+001 3.000000e+001 2.116402e+002
      vertex   -5.308246e+001 0.000000e+000 2.116402e+002
    endloop
  endfacet
  facet normal 9.927089e-001 0.000000e+000 1.205367e-001
    outer loop
      vertex   -6.030855e+001 3.000000e+001 1.521280e+002
      vertex   -6.402972e+001 3.000000e+001 1.827746e+002
      vertex   -6.402972e+001 0.000000e+000 1.827746e+002
    endloop
  endfacet
  facet normal 8.229839e-001 0.000000e+000 5.680647e-001
    outer loop
      vertex   -4.277141e+001 3.000000e+001 1.267211e+002
      vertex   -6.030855e+001 3.000000e+001 1.521280e+002
      vertex   -6.030855e+001 0.000000e+000 1.521280e+002
    endloop
  endfacet
  facet normal 4.647232e-001 0.000000e+000 8.854560e-001
    outer loop
      vertex   -1.543586e+001 3.000000e+001 1.123743e+002
      vertex   -4.277141e+001 3.000000e+001 1.267211e+002
      vertex   -4.277141e+001 0.000000e+000 1.267211e+002
    endloop
  endfacet
  facet normal -4.495308e-016 0.000000e+000 1.000000e+000
    outer loop
      vertex   1.543586e+001 3.000000e+001 1.123743e+002
      vertex   -1.543586e+001 3.000000e+001 1.123743e+002
      vertex   -1.543586e+001 0.000000e+000 1.123743e+002
    endloop
  endfacet
  facet normal -4.647232e-001 0.000000e+000 8.854560e-001
    outer loop
      vertex   4.277141e+001 3.000000e+001 1.267211e+002
      vertex   1.543586e+001 3.000000e+001 1.123743e+002
      vertex   1.543586e+001 0.000000e+000 1.123743e+002
    endloop
  endfacet
  facet normal -8.229839e-001 0.000000e+000 5.680647e-001
    outer loop
      vertex   6.030855e+001 3.000000e+001 1.521280e+002
      vertex   4.277141e+001 3.000000e+001 1.267211e+002
      vertex   4.277141e+001 0.000000e+000 1.267211e+002
    endloop
  endfacet
  facet normal -9.927089e-001 0.000000e+000 1.205367e-001
    outer loop
      vertex   6.402972e+001 3.000000e+001 1.827746e+002
      vertex   6.030855e+001 3.000000e+001 1.521280e+002
      vertex   6.030855e+001 0.000000e+000 1.521280e+002
    endloop
  endfacet
  facet normal -9.350162e-001 0.000000e+000 -3.546049e-001
    outer loop
      vertex   5.308246e+001 3.000000e+001 2.116402e+002
      vertex   6.402972e+001 3.000000e+001 1.827746e+002
      vertex   6.402972e+001 0.000000e+000 1.827746e+002
    endloop
  endfacet
  facet normal -6.631227e-001 0.000000e+000 -7.485107e-001
    outer loop
      vertex   2.997464e+001 3.000000e+001 2.321119e+002
      vertex   5.308246e+001 3.000000e+001 2.116402e+002
      vertex   5.308246e+001 0.000000e+000 2.116402e+002
    endloop
  endfacet
  facet normal -2.393157e-001 0.000000e+000 -9.709418e-001
    outer loop
      vertex   -1.579794e-014 3.000000e+001 2.395000e+002
      vertex   2.997464e+001 3.000000e+001 2.321119e+002
      vertex   2.997464e+001 0.000000e+000 2.321119e+002
    endloop
  endfacet
  facet normal -2.393157e-001 -1.463316e-016 -9.709418e-001
    outer loop
      vertex   2.997464e+001 0.000000e+000 2.321119e+002
      vertex   0.000000e+000 0.000000e+000 2.395000e+002
      vertex   -1.579794e-014 3.000000e+001 2.395000e+002
    endloop
  endfacet
  facet normal -6.631227e-001 0.000000e+000 -7.485107e-001
    outer loop
      vertex   5.308246e+001 0.000000e+000 2.116402e+002
      vertex   2.997464e+001 0.000000e+000 2.321119e+002
      vertex   2.997464e+001 3.000000e+001 2.321119e+002
    endloop
  endfacet
  facet normal -9.350162e-001 0.000000e+000 -3.546049e-001
    outer loop
      vertex   6.402972e+001 0.000000e+000 1.827746e+002
      vertex   5.308246e+001 0.000000e+000 2.116402e+002
      vertex   5.308246e+001 3.000000e+001 2.116402e+002
    endloop
  endfacet
  facet normal -9.927089e-001 0.000000e+000 1.205367e-001
    outer loop
      vertex   6.030855e+001 0.000000e+000 1.521280e+002
      vertex   6.402972e+001 0.000000e+000 1.827746e+002
      vertex   6.402972e+001 3.000000e+001 1.827746e+002
    endloop
  endfacet
  facet normal -8.229839e-001 0.000000e+000 5.680647e-001
    outer loop
      vertex   4.277141e+001 0.000000e+000 1.267211e+002
      vertex   6.030855e+001 0.000000e+000 1.521280e+002
      vertex   6.030855e+001 3.000000e+001 1.521280e+002
    endloop
  endfacet
  facet normal -4.647232e-001 0.000000e+000 8.854560e-001
    outer loop
      vertex   1.543586e+001 0.000000e+000 1.123743e+002
      vertex   4.277141e+001 0.000000e+000 1.267211e+002
      vertex   4.277141e+001 3.000000e+001 1.267211e+002
    endloop
  endfacet
  facet normal -4.495308e-016 0.000000e+000 1.000000e+000
    outer loop
      vertex   -1.543586e+001 0.000000e+000 1.123743e+002
      vertex   1.543586e+001 0.000000e+000 1.123743e+002
      vertex   1.543586e+001 3.000000e+001 1.123743e+002
    endloop
  endfacet
  facet normal 4.647232e-001 0.000000e+000 8.854560e-001
    outer loop
      vertex   -4.277141e+001 0.000000e+000 1.267211e+002
      vertex   -1.543586e+001 0.000000e+000 1.123743e+002
      vertex   -1.543586e+001 3.000000e+001 1.123743e+002
    endloop
  endfacet
  facet normal 8.229839e-001 0.000000e+000 5.680647e-001
    outer loop
      vertex   -6.030855e+001 0.000000e+000 1.521280e+002
      vertex   -4.277141e+001 0.000000e+000 1.267211e+002
      vertex   -4.277141e+001 3.000000e+001 1.267211e+002
    endloop
  endfacet
  facet normal 9.927089e-001 0.000000e+000 1.205367e-001
    outer loop
      vertex   -6.402972e+001 0.000000e+000 1.827746e+002
      vertex   -6.030855e+001 0.000000e+000 1.521280e+002
      vertex   -6.030855e+001 3.000000e+001 1.521280e+002
    endloop
  endfacet
  facet normal 9.350162e-001 0.000000e+000 -3.546049e-001
    outer loop
      vertex   -5.308246e+001 0.000000e+000 2.116402e+002
      vertex   -6.402972e+001 0.000000e+000 1.827746e+002
      vertex   -6.402972e+001 3.000000e+001 1.827746e+002
    endloop
  endfacet
  facet normal 6.631227e-001 0.000000e+000 -7.485107e-001
    outer loop
      vertex   -2.997464e+001 0.000000e+000 2.321119e+002
      vertex   -5.308246e+001 0.000000e+000 2.116402e+002
      vertex   -5.308246e+001 3.000000e+001 2.116402e+002
    endloop
  endfacet
  facet normal 2.393157e-001 0.000000e+000 -9.709418e-001
    outer loop
      vertex   0.000000e+000 0.000000e+000 2.395000e+002
      vertex   -2.997464e+001 0.000000e+000 2.321119e+002
      vertex   -2.997464e+001 3.000000e+001 2.321119e+002
    endloop
  endfacet
  facet normal -6.352141e-016 -1.000000e+000 6.256313e-017
    outer loop
      vertex   4.277141e+001 1.000000e+003 1.267211e+002
      vertex   3.638513e+002 1.000000e+003 -1.624289e+002
      vertex   3.700000e+002 1.000000e+003 -1.000000e+002
    endloop
  endfacet
  facet normal 2.791845e-016 -1.000000e+000 3.401873e-016
    outer loop
      vertex   -1.543586e+001 1.000000e+003 1.123743e+002
      vertex   -2.762742e+002 1.000000e+003 -3.262742e+002
      vertex   -2.277825e+002 1.000000e+003 -3.660703e+002
    endloop
  endfacet
  facet normal -2.315279e-031 -1.000000e+000 4.170837e-016
    outer loop
      vertex   -5.000000e+001 1.000000e+003 -4.200000e+002
      vertex   5.000000e+001 1.000000e+003 -4.200000e+002
      vertex   1.543586e+001 1.000000e+003 1.123743e+002
    endloop
  endfacet
  facet normal 1.212215e-016 -1.000000e+000 3.996137e-016
    outer loop
      vertex   -1.543586e+001 1.000000e+003 1.123743e+002
      vertex   -1.724587e+002 1.000000e+003 -3.956415e+002
      vertex   -1.124289e+002 1.000000e+003 -4.138513e+002
    endloop
  endfacet
  facet normal -5.431718e-016 -1.000000e+000 1.647694e-016
    outer loop
      vertex   4.277141e+001 1.000000e+003 1.267211e+002
      vertex   3.456415e+002 1.000000e+003 -2.224587e+002
      vertex   3.638513e+002 1.000000e+003 -1.624289e+002
    endloop
  endfacet
  facet normal -7.257065e-016 -1.000000e+000 0.000000e+000
    outer loop
      vertex   3.700000e+002 1.000000e+003 -1.000000e+002
      vertex   3.700000e+002 1.000000e+003 4.200000e+002
      vertex   6.402972e+001 1.000000e+003 1.827746e+002
    endloop
  endfacet
  facet normal -0.000000e+000 -1.000000e+000 -1.230164e-015
    outer loop
      vertex   3.700000e+002 1.000000e+003 4.200000e+002
      vertex   -3.700000e+002 1.000000e+003 4.200000e+002
      vertex   0.000000e+000 1.000000e+003 2.395000e+002
    endloop
  endfacet
  facet normal 5.608065e-016 -1.000000e+000 -2.126859e-016
    outer loop
      vertex   -3.700000e+002 1.000000e+003 4.200000e+002
      vertex   -6.402972e+001 1.000000e+003 1.827746e+002
      vertex   -5.308246e+001 1.000000e+003 2.116402e+002
    endloop
  endfacet
  facet normal 6.524864e-016 -1.000000e+000 7.922619e-017
    outer loop
      vertex   -3.700000e+002 1.000000e+003 -1.000000e+002
      vertex   -6.030855e+001 1.000000e+003 1.521280e+002
      vertex   -6.402972e+001 1.000000e+003 1.827746e+002
    endloop
  endfacet
  facet normal 4.590327e-016 -1.000000e+000 3.168474e-016
    outer loop
      vertex   -4.277141e+001 1.000000e+003 1.267211e+002
      vertex   -6.030855e+001 1.000000e+003 1.521280e+002
      vertex   -3.700000e+002 1.000000e+003 -1.000000e+002
    endloop
  endfacet
  facet normal 3.576589e-016 -1.000000e+000 2.935231e-016
    outer loop
      vertex   -1.543586e+001 1.000000e+003 1.123743e+002
      vertex   -3.160703e+002 1.000000e+003 -2.777825e+002
      vertex   -2.762742e+002 1.000000e+003 -3.262742e+002
    endloop
  endfacet
  facet normal 2.293431e-016 -1.000000e+000 4.369768e-016
    outer loop
      vertex   -1.543586e+001 1.000000e+003 1.123743e+002
      vertex   -4.277141e+001 1.000000e+003 1.267211e+002
      vertex   -3.456415e+002 1.000000e+003 -2.224587e+002
    endloop
  endfacet
  facet normal -4.081814e-017 -1.000000e+000 4.144336e-016
    outer loop
      vertex   1.543586e+001 1.000000e+003 1.123743e+002
      vertex   5.000000e+001 1.000000e+003 -4.200000e+002
      vertex   1.124289e+002 1.000000e+003 -4.138513e+002
    endloop
  endfacet
  facet normal 4.081814e-017 -1.000000e+000 4.144336e-016
    outer loop
      vertex   -1.124289e+002 1.000000e+003 -4.138513e+002
      vertex   -5.000000e+001 1.000000e+003 -4.200000e+002
      vertex   -1.543586e+001 1.000000e+003 1.123743e+002
    endloop
  endfacet
  facet normal -6.524864e-016 -1.000000e+000 7.922619e-017
    outer loop
      vertex   6.402972e+001 1.000000e+003 1.827746e+002
      vertex   6.030855e+001 1.000000e+003 1.521280e+002
      vertex   3.700000e+002 1.000000e+003 -1.000000e+002
    endloop
  endfacet
  facet normal -2.014344e-016 -1.000000e+000 -8.172514e-016
    outer loop
      vertex   0.000000e+000 1.000000e+003 2.395000e+002
      vertex   2.997464e+001 1.000000e+003 2.321119e+002
      vertex   3.700000e+002 1.000000e+003 4.200000e+002
    endloop
  endfacet
  facet normal 7.257065e-016 -1.000000e+000 0.000000e+000
    outer loop
      vertex   -6.402972e+001 1.000000e+003 1.827746e+002
      vertex   -3.700000e+002 1.000000e+003 4.200000e+002
      vertex   -3.700000e+002 1.000000e+003 -1.000000e+002
    endloop
  endfacet
  facet normal 6.352141e-016 -1.000000e+000 6.256313e-017
    outer loop
      vertex   -3.700000e+002 1.000000e+003 -1.000000e+002
      vertex   -3.638513e+002 1.000000e+003 -1.624289e+002
      vertex   -4.277141e+001 1.000000e+003 1.267211e+002
    endloop
  endfacet
  facet normal 4.360848e-016 -1.000000e+000 2.330922e-016
    outer loop
      vertex   -3.456415e+002 1.000000e+003 -2.224587e+002
      vertex   -3.160703e+002 1.000000e+003 -2.777825e+002
      vertex   -1.543586e+001 1.000000e+003 1.123743e+002
    endloop
  endfacet
  facet normal -1.874919e-031 -1.000000e+000 4.170837e-016
    outer loop
      vertex   1.543586e+001 1.000000e+003 1.123743e+002
      vertex   -1.543586e+001 1.000000e+003 1.123743e+002
      vertex   -5.000000e+001 1.000000e+003 -4.200000e+002
    endloop
  endfacet
  facet normal -4.360848e-016 -1.000000e+000 2.330922e-016
    outer loop
      vertex   1.543586e+001 1.000000e+003 1.123743e+002
      vertex   3.160703e+002 1.000000e+003 -2.777825e+002
      vertex   3.456415e+002 1.000000e+003 -2.224587e+002
    endloop
  endfacet
  facet normal -5.608065e-016 -1.000000e+000 -2.126859e-016
    outer loop
      vertex   3.700000e+002 1.000000e+003 4.200000e+002
      vertex   5.308246e+001 1.000000e+003 2.116402e+002
      vertex   6.402972e+001 1.000000e+003 1.827746e+002
    endloop
  endfacet
  facet normal 2.014344e-016 -1.000000e+000 -8.172514e-016
    outer loop
      vertex   -3.700000e+002 1.000000e+003 4.200000e+002
      vertex   -2.997464e+001 1.000000e+003 2.321119e+002
      vertex   0.000000e+000 1.000000e+003 2.395000e+002
    endloop
  endfacet
  facet normal 5.431718e-016 -1.000000e+000 1.647694e-016
    outer loop
      vertex   -3.638513e+002 1.000000e+003 -1.624289e+002
      vertex   -3.456415e+002 1.000000e+003 -2.224587e+002
      vertex   -4.277141e+001 1.000000e+003 1.267211e+002
    endloop
  endfacet
  facet normal -1.212215e-016 -1.000000e+000 3.996137e-016
    outer loop
      vertex   1.124289e+002 1.000000e+003 -4.138513e+002
      vertex   1.724587e+002 1.000000e+003 -3.956415e+002
      vertex   1.543586e+001 1.000000e+003 1.123743e+002
    endloop
  endfacet
  facet normal -3.576589e-016 -1.000000e+000 2.935231e-016
    outer loop
      vertex   1.543586e+001 1.000000e+003 1.123743e+002
      vertex   2.762742e+002 1.000000e+003 -3.262742e+002
      vertex   3.160703e+002 1.000000e+003 -2.777825e+002
    endloop
  endfacet
  facet normal -2.005002e-016 -1.000000e+000 3.751095e-016
    outer loop
      vertex   1.543586e+001 1.000000e+003 1.123743e+002
      vertex   1.724587e+002 1.000000e+003 -3.956415e+002
      vertex   2.277825e+002 1.000000e+003 -3.660703e+002
    endloop
  endfacet
  facet normal -4.021766e-016 -1.000000e+000 -4.539636e-016
    outer loop
      vertex   2.997464e+001 1.000000e+003 2.321119e+002
      vertex   5.308246e+001 1.000000e+003 2.116402e+002
      vertex   3.700000e+002 1.000000e+003 4.200000e+002
    endloop
  endfacet
  facet normal 2.005002e-016 -1.000000e+000 3.751095e-016
    outer loop
      vertex   -2.277825e+002 1.000000e+003 -3.660703e+002
      vertex   -1.724587e+002 1.000000e+003 -3.956415e+002
      vertex   -1.543586e+001 1.000000e+003 1.123743e+002
    endloop
  endfacet
  facet normal -2.791845e-016 -1.000000e+000 3.401873e-016
    outer loop
      vertex   2.277825e+002 1.000000e+003 -3.660703e+002
      vertex   2.762742e+002 1.000000e+003 -3.262742e+002
      vertex   1.543586e+001 1.000000e+003 1.123743e+002
    endloop
  endfacet
  facet normal 4.021766e-016 -1.000000e+000 -4.539636e-016
    outer loop
      vertex   -5.308246e+001 1.000000e+003 2.116402e+002
      vertex   -2.997464e+001 1.000000e+003 2.321119e+002
      vertex   -3.700000e+002 1.000000e+003 4.200000e+002
    endloop
  endfacet
  facet normal -4.590327e-016 -1.000000e+000 3.168474e-016
    outer loop
      vertex   3.700000e+002 1.000000e+003 -1.000000e+002
      vertex   6.030855e+001 1.000000e+003 1.521280e+002
      vertex   4.277141e+001 1.000000e+003 1.267211e+002
    endloop
  endfacet
  facet normal -2.293431e-016 -1.000000e+000 4.369768e-016
    outer loop
      vertex   3.456415e+002 1.000000e+003 -2.224587e+002
      vertex   4.277141e+001 1.000000e+003 1.267211e+002
      vertex   1.543586e+001 1.000000e+003 1.123743e+002
    endloop
  endfacet
  facet normal 0.000000e+000 1.000000e+000 0.000000e+000
    outer loop
      vertex   1.543586e+001 3.000000e+001 1.123743e+002
      vertex   2.762742e+002 3.000000e+001 -3.262742e+002
      vertex   2.277825e+002 3.000000e+001 -3.660703e+002
    endloop
  endfacet
  facet normal -5.458347e-017 1.000000e+000 1.006074e-017
    outer loop
      vertex   -1.543586e+001 3.000000e+001 1.123743e+002
      vertex   -5.000000e+001 3.000000e+001 -4.200000e+002
      vertex   -1.124289e+002 3.000000e+001 -4.138513e+002
    endloop
  endfacet
  facet normal 0.000000e+000 1.000000e+000 6.516932e-018
    outer loop
      vertex   -5.000000e+001 3.000000e+001 -4.200000e+002
      vertex   -1.543586e+001 3.000000e+001 1.123743e+002
      vertex   1.543586e+001 3.000000e+001 1.123743e+002
    endloop
  endfacet
  facet normal 0.000000e+000 1.000000e+000 0.000000e+000
    outer loop
      vertex   -1.543586e+001 3.000000e+001 1.123743e+002
      vertex   -3.160703e+002 3.000000e+001 -2.777825e+002
      vertex   -3.456415e+002 3.000000e+001 -2.224587e+002
    endloop
  endfacet
  facet normal 4.597033e-017 1.000000e+000 -5.104669e-017
    outer loop
      vertex   -4.277141e+001 3.000000e+001 1.267211e+002
      vertex   -3.638513e+002 3.000000e+001 -1.624289e+002
      vertex   -3.700000e+002 3.000000e+001 -1.000000e+002
    endloop
  endfacet
  facet normal 0.000000e+000 1.000000e+000 0.000000e+000
    outer loop
      vertex   1.543586e+001 3.000000e+001 1.123743e+002
      vertex   3.160703e+002 3.000000e+001 -2.777825e+002
      vertex   2.762742e+002 3.000000e+001 -3.262742e+002
    endloop
  endfacet
  facet normal -0.000000e+000 1.000000e+000 0.000000e+000
    outer loop
      vertex   1.543586e+001 3.000000e+001 1.123743e+002
      vertex   4.277141e+001 3.000000e+001 1.267211e+002
      vertex   3.456415e+002 3.000000e+001 -2.224587e+002
    endloop
  endfacet
  facet normal 0.000000e+000 1.000000e+000 6.516932e-018
    outer loop
      vertex   1.543586e+001 3.000000e+001 1.123743e+002
      vertex   5.000000e+001 3.000000e+001 -4.200000e+002
      vertex   -5.000000e+001 3.000000e+001 -4.200000e+002
    endloop
  endfacet
  facet normal 0.000000e+000 1.000000e+000 0.000000e+000
    outer loop
      vertex   1.543586e+001 3.000000e+001 1.123743e+002
      vertex   1.724587e+002 3.000000e+001 -3.956415e+002
      vertex   1.124289e+002 3.000000e+001 -4.138513e+002
    endloop
  endfacet
  facet normal 0.000000e+000 1.000000e+000 0.000000e+000
    outer loop
      vertex   -1.543586e+001 3.000000e+001 1.123743e+002
      vertex   -2.762742e+002 3.000000e+001 -3.262742e+002
      vertex   -3.160703e+002 3.000000e+001 -2.777825e+002
    endloop
  endfacet
  facet normal 0.000000e+000 1.000000e+000 0.000000e+000
    outer loop
      vertex   -4.277141e+001 3.000000e+001 1.267211e+002
      vertex   -3.456415e+002 3.000000e+001 -2.224587e+002
      vertex   -3.638513e+002 3.000000e+001 -1.624289e+002
    endloop
  endfacet
  facet normal -4.415670e-017 1.000000e+000 6.004812e-017
    outer loop
      vertex   -3.700000e+002 3.000000e+001 -1.000000e+002
      vertex   -3.700000e+002 3.000000e+001 4.200000e+002
      vertex   -6.402972e+001 3.000000e+001 1.827746e+002
    endloop
  endfacet
  facet normal -7.172386e-018 1.000000e+000 4.950741e-018
    outer loop
      vertex   4.277141e+001 3.000000e+001 1.267211e+002
      vertex   6.030855e+001 3.000000e+001 1.521280e+002
      vertex   3.700000e+002 3.000000e+001 -1.000000e+002
    endloop
  endfacet
  facet normal 0.000000e+000 1.000000e+000 0.000000e+000
    outer loop
      vertex   3.456415e+002 3.000000e+001 -2.224587e+002
      vertex   3.160703e+002 3.000000e+001 -2.777825e+002
      vertex   1.543586e+001 3.000000e+001 1.123743e+002
    endloop
  endfacet
  facet normal 5.458347e-017 1.000000e+000 1.006074e-017
    outer loop
      vertex   1.124289e+002 3.000000e+001 -4.138513e+002
      vertex   5.000000e+001 3.000000e+001 -4.200000e+002
      vertex   1.543586e+001 3.000000e+001 1.123743e+002
    endloop
  endfacet
  facet normal 0.000000e+000 1.000000e+000 0.000000e+000
    outer loop
      vertex   -1.543586e+001 3.000000e+001 1.123743e+002
      vertex   -2.277825e+002 3.000000e+001 -3.660703e+002
      vertex   -2.762742e+002 3.000000e+001 -3.262742e+002
    endloop
  endfacet
  facet normal 1.019510e-017 1.000000e+000 1.237909e-018
    outer loop
      vertex   -6.402972e+001 3.000000e+001 1.827746e+002
      vertex   -6.030855e+001 3.000000e+001 1.521280e+002
      vertex   -3.700000e+002 3.000000e+001 -1.000000e+002
    endloop
  endfacet
  facet normal -1.019510e-017 1.000000e+000 1.237909e-018
    outer loop
      vertex   3.700000e+002 3.000000e+001 -1.000000e+002
      vertex   6.030855e+001 3.000000e+001 1.521280e+002
      vertex   6.402972e+001 3.000000e+001 1.827746e+002
    endloop
  endfacet
  facet normal -4.597033e-017 1.000000e+000 -5.104669e-017
    outer loop
      vertex   3.700000e+002 3.000000e+001 -1.000000e+002
      vertex   3.638513e+002 3.000000e+001 -1.624289e+002
      vertex   4.277141e+001 3.000000e+001 1.267211e+002
    endloop
  endfacet
  facet normal 0.000000e+000 1.000000e+000 -0.000000e+000
    outer loop
      vertex   -1.124289e+002 3.000000e+001 -4.138513e+002
      vertex   -1.724587e+002 3.000000e+001 -3.956415e+002
      vertex   -1.543586e+001 3.000000e+001 1.123743e+002
    endloop
  endfacet
  facet normal 0.000000e+000 1.000000e+000 0.000000e+000
    outer loop
      vertex   -1.543586e+001 3.000000e+001 1.123743e+002
      vertex   -1.724587e+002 3.000000e+001 -3.956415e+002
      vertex   -2.277825e+002 3.000000e+001 -3.660703e+002
    endloop
  endfacet
  facet normal -7.010081e-017 1.000000e+000 2.658573e-017
    outer loop
      vertex   -3.700000e+002 3.000000e+001 4.200000e+002
      vertex   -5.308246e+001 3.000000e+001 2.116402e+002
      vertex   -6.402972e+001 3.000000e+001 1.827746e+002
    endloop
  endfacet
  facet normal 0.000000e+000 1.000000e+000 0.000000e+000
    outer loop
      vertex   3.638513e+002 3.000000e+001 -1.624289e+002
      vertex   3.456415e+002 3.000000e+001 -2.224587e+002
      vertex   4.277141e+001 3.000000e+001 1.267211e+002
    endloop
  endfacet
  facet normal 0.000000e+000 1.000000e+000 0.000000e+000
    outer loop
      vertex   -3.456415e+002 3.000000e+001 -2.224587e+002
      vertex   -4.277141e+001 3.000000e+001 1.267211e+002
      vertex   -1.543586e+001 3.000000e+001 1.123743e+002
    endloop
  endfacet
  facet normal -5.027208e-017 1.000000e+000 5.674545e-017
    outer loop
      vertex   -3.700000e+002 3.000000e+001 4.200000e+002
      vertex   -2.997464e+001 3.000000e+001 2.321119e+002
      vertex   -5.308246e+001 3.000000e+001 2.116402e+002
    endloop
  endfacet
  facet normal 5.027208e-017 1.000000e+000 5.674545e-017
    outer loop
      vertex   3.700000e+002 3.000000e+001 4.200000e+002
      vertex   5.308246e+001 3.000000e+001 2.116402e+002
      vertex   2.997464e+001 3.000000e+001 2.321119e+002
    endloop
  endfacet
  facet normal 4.415670e-017 1.000000e+000 6.004812e-017
    outer loop
      vertex   6.402972e+001 3.000000e+001 1.827746e+002
      vertex   3.700000e+002 3.000000e+001 4.200000e+002
      vertex   3.700000e+002 3.000000e+001 -1.000000e+002
    endloop
  endfacet
  facet normal 7.172386e-018 1.000000e+000 4.950741e-018
    outer loop
      vertex   -3.700000e+002 3.000000e+001 -1.000000e+002
      vertex   -6.030855e+001 3.000000e+001 1.521280e+002
      vertex   -4.277141e+001 3.000000e+001 1.267211e+002
    endloop
  endfacet
  facet normal -0.000000e+000 1.000000e+000 1.537705e-016
    outer loop
      vertex   -3.700000e+002 3.000000e+001 4.200000e+002
      vertex   3.700000e+002 3.000000e+001 4.200000e+002
      vertex   -1.579794e-014 3.000000e+001 2.395000e+002
    endloop
  endfacet
  facet normal 7.010081e-017 1.000000e+000 2.658573e-017
    outer loop
      vertex   6.402972e+001 3.000000e+001 1.827746e+002
      vertex   5.308246e+001 3.000000e+001 2.116402e+002
      vertex   3.700000e+002 3.000000e+001 4.200000e+002
    endloop
  endfacet
  facet normal -2.517930e-017 1.000000e+000 1.021564e-016
    outer loop
      vertex   -1.579794e-014 3.000000e+001 2.395000e+002
      vertex   -2.997464e+001 3.000000e+001 2.321119e+002
      vertex   -3.700000e+002 3.000000e+001 4.200000e+002
    endloop
  endfacet
  facet normal 0.000000e+000 1.000000e+000 0.000000e+000
    outer loop
      vertex   2.277825e+002 3.000000e+001 -3.660703e+002
      vertex   1.724587e+002 3.000000e+001 -3.956415e+002
      vertex   1.543586e+001 3.000000e+001 1.123743e+002
    endloop
  endfacet
  facet normal 2.517930e-017 1.000000e+000 1.021564e-016
    outer loop
      vertex   2.997464e+001 3.000000e+001 2.321119e+002
      vertex   -1.579794e-014 3.000000e+001 2.395000e+002
      vertex   3.700000e+002 3.000000e+001 4.200000e+002
    endloop
  endfacet
  facet normal 1.000000e+000 0.000000e+000 0.000000e+000
    outer loop
      vertex   -3.700000e+002 3.000000e+001 4.200000e+002
      vertex   -3.700000e+002 3.000000e+001 -1.000000e+002
      vertex   -3.700000e+002 1.000000e+003 -1.000000e+002
    endloop
  endfacet
  facet normal 1.000000e+000 0.000000e+000 -0.000000e+000
    outer loop
      vertex   -3.700000e+002 1.000000e+003 -1.000000e+002
      vertex   -3.700000e+002 1.000000e+003 4.200000e+002
      vertex   -3.700000e+002 3.000000e+001 4.200000e+002
    endloop
  endfacet
  facet normal 0.000000e+000 -0.000000e+000 -1.000000e+000
    outer loop
      vertex   3.700000e+002 1.000000e+003 4.200000e+002
      vertex   3.700000e+002 3.000000e+001 4.200000e+002
      vertex   -3.700000e+002 3.000000e+001 4.200000e+002
    endloop
  endfacet
  facet normal 0.000000e+000 0.000000e+000 -1.000000e+000
    outer loop
      vertex   -3.700000e+002 3.000000e+001 4.200000e+002
      vertex   -3.700000e+002 1.000000e+003 4.200000e+002
      vertex   3.700000e+002 1.000000e+003 4.200000e+002
    endloop
  endfacet
  facet normal -1.000000e+000 -0.000000e+000 0.000000e+000
    outer loop
      vertex   3.700000e+002 1.000000e+003 -1.000000e+002
      vertex   3.700000e+002 3.000000e+001 -1.000000e+002
      vertex   3.700000e+002 3.000000e+001 4.200000e+002
    endloop
  endfacet
  facet normal -1.000000e+000 0.000000e+000 0.000000e+000
    outer loop
      vertex   3.700000e+002 3.000000e+001 4.200000e+002
      vertex   3.700000e+002 1.000000e+003 4.200000e+002
      vertex   3.700000e+002 1.000000e+003 -1.000000e+002
    endloop
  endfacet
  facet normal -9.951847e-001 -8.908950e-019 9.801714e-002
    outer loop
      vertex   3.638513e+002 3.000000e+001 -1.624289e+002
      vertex   3.700000e+002 3.000000e+001 -1.000000e+002
      vertex   3.700000e+002 1.000000e+003 -1.000000e+002
    endloop
  endfacet
  facet normal -9.569403e-001 0.000000e+000 2.902847e-001
    outer loop
      vertex   3.456415e+002 3.000000e+001 -2.224587e+002
      vertex   3.638513e+002 3.000000e+001 -1.624289e+002
      vertex   3.638513e+002 1.000000e+003 -1.624289e+002
    endloop
  endfacet
  facet normal -8.819213e-001 0.000000e+000 4.713967e-001
    outer loop
      vertex   3.160703e+002 3.000000e+001 -2.777825e+002
      vertex   3.456415e+002 3.000000e+001 -2.224587e+002
      vertex   3.456415e+002 1.000000e+003 -2.224587e+002
    endloop
  endfacet
  facet normal -7.730105e-001 0.000000e+000 6.343933e-001
    outer loop
      vertex   2.762742e+002 3.000000e+001 -3.262742e+002
      vertex   3.160703e+002 3.000000e+001 -2.777825e+002
      vertex   3.160703e+002 1.000000e+003 -2.777825e+002
    endloop
  endfacet
  facet normal -6.343933e-001 0.000000e+000 7.730105e-001
    outer loop
      vertex   2.277825e+002 3.000000e+001 -3.660703e+002
      vertex   2.762742e+002 3.000000e+001 -3.262742e+002
      vertex   2.762742e+002 1.000000e+003 -3.262742e+002
    endloop
  endfacet
  facet normal -4.713967e-001 0.000000e+000 8.819213e-001
    outer loop
      vertex   1.724587e+002 3.000000e+001 -3.956415e+002
      vertex   2.277825e+002 3.000000e+001 -3.660703e+002
      vertex   2.277825e+002 1.000000e+003 -3.660703e+002
    endloop
  endfacet
  facet normal -2.902847e-001 0.000000e+000 9.569403e-001
    outer loop
      vertex   1.124289e+002 3.000000e+001 -4.138513e+002
      vertex   1.724587e+002 3.000000e+001 -3.956415e+002
      vertex   1.724587e+002 1.000000e+003 -3.956415e+002
    endloop
  endfacet
  facet normal -9.801714e-002 0.000000e+000 9.951847e-001
    outer loop
      vertex   5.000000e+001 3.000000e+001 -4.200000e+002
      vertex   1.124289e+002 3.000000e+001 -4.138513e+002
      vertex   1.124289e+002 1.000000e+003 -4.138513e+002
    endloop
  endfacet
  facet normal -9.801714e-002 0.000000e+000 9.951847e-001
    outer loop
      vertex   1.124289e+002 1.000000e+003 -4.138513e+002
      vertex   5.000000e+001 1.000000e+003 -4.200000e+002
      vertex   5.000000e+001 3.000000e+001 -4.200000e+002
    endloop
  endfacet
  facet normal -2.902847e-001 0.000000e+000 9.569403e-001
    outer loop
      vertex   1.724587e+002 1.000000e+003 -3.956415e+002
      vertex   1.124289e+002 1.000000e+003 -4.138513e+002
      vertex   1.124289e+002 3.000000e+001 -4.138513e+002
    endloop
  endfacet
  facet normal -4.713967e-001 0.000000e+000 8.819213e-001
    outer loop
      vertex   2.277825e+002 1.000000e+003 -3.660703e+002
      vertex   1.724587e+002 1.000000e+003 -3.956415e+002
      vertex   1.724587e+002 3.000000e+001 -3.956415e+002
    endloop
  endfacet
  facet normal -6.343933e-001 0.000000e+000 7.730105e-001
    outer loop
      vertex   2.762742e+002 1.000000e+003 -3.262742e+002
      vertex   2.277825e+002 1.000000e+003 -3.660703e+002
      vertex   2.277825e+002 3.000000e+001 -3.660703e+002
    endloop
  endfacet
  facet normal -7.730105e-001 0.000000e+000 6.343933e-001
    outer loop
      vertex   3.160703e+002 1.000000e+003 -2.777825e+002
      vertex   2.762742e+002 1.000000e+003 -3.262742e+002
      vertex   2.762742e+002 3.000000e+001 -3.262742e+002
    endloop
  endfacet
  facet normal -8.819213e-001 0.000000e+000 4.713967e-001
    outer loop
      vertex   3.456415e+002 1.000000e+003 -2.224587e+002
      vertex   3.160703e+002 1.000000e+003 -2.777825e+002
      vertex   3.160703e+002 3.000000e+001 -2.777825e+002
    endloop
  endfacet
  facet normal -9.569403e-001 0.000000e+000 2.902847e-001
    outer loop
      vertex   3.638513e+002 1.000000e+003 -1.624289e+002
      vertex   3.456415e+002 1.000000e+003 -2.224587e+002
      vertex   3.456415e+002 3.000000e+001 -2.224587e+002
    endloop
  endfacet
  facet normal -9.951847e-001 0.000000e+000 9.801714e-002
    outer loop
      vertex   3.700000e+002 1.000000e+003 -1.000000e+002
      vertex   3.638513e+002 1.000000e+003 -1.624289e+002
      vertex   3.638513e+002 3.000000e+001 -1.624289e+002
    endloop
  endfacet
  facet normal -5.551115e-016 0.000000e+000 1.000000e+000
    outer loop
      vertex   -5.000000e+001 1.000000e+003 -4.200000e+002
      vertex   -5.000000e+001 3.000000e+001 -4.200000e+002
      vertex   5.000000e+001 3.000000e+001 -4.200000e+002
    endloop
  endfacet
  facet normal -5.551115e-016 0.000000e+000 1.000000e+000
    outer loop
      vertex   5.000000e+001 3.000000e+001 -4.200000e+002
      vertex   5.000000e+001 1.000000e+003 -4.200000e+002
      vertex   -5.000000e+001 1.000000e+003 -4.200000e+002
    endloop
  endfacet
  facet normal 9.801714e-002 0.000000e+000 9.951847e-001
    outer loop
      vertex   -1.124289e+002 3.000000e+001 -4.138513e+002
      vertex   -5.000000e+001 3.000000e+001 -4.200000e+002
      vertex   -5.000000e+001 1.000000e+003 -4.200000e+002
    endloop
  endfacet
  facet normal 2.902847e-001 0.000000e+000 9.569403e-001
    outer loop
      vertex   -1.724587e+002 3.000000e+001 -3.956415e+002
      vertex   -1.124289e+002 3.000000e+001 -4.138513e+002
      vertex   -1.124289e+002 1.000000e+003 -4.138513e+002
    endloop
  endfacet
  facet normal 4.713967e-001 0.000000e+000 8.819213e-001
    outer loop
      vertex   -2.277825e+002 3.000000e+001 -3.660703e+002
      vertex   -1.724587e+002 3.000000e+001 -3.956415e+002
      vertex   -1.724587e+002 1.000000e+003 -3.956415e+002
    endloop
  endfacet
  facet normal 6.343933e-001 0.000000e+000 7.730105e-001
    outer loop
      vertex   -2.762742e+002 3.000000e+001 -3.262742e+002
      vertex   -2.277825e+002 3.000000e+001 -3.660703e+002
      vertex   -2.277825e+002 1.000000e+003 -3.660703e+002
    endloop
  endfacet
  facet normal 7.730105e-001 0.000000e+000 6.343933e-001
    outer loop
      vertex   -3.160703e+002 3.000000e+001 -2.777825e+002
      vertex   -2.762742e+002 3.000000e+001 -3.262742e+002
      vertex   -2.762742e+002 1.000000e+003 -3.262742e+002
    endloop
  endfacet
  facet normal 8.819213e-001 0.000000e+000 4.713967e-001
    outer loop
      vertex   -3.456415e+002 3.000000e+001 -2.224587e+002
      vertex   -3.160703e+002 3.000000e+001 -2.777825e+002
      vertex   -3.160703e+002 1.000000e+003 -2.777825e+002
    endloop
  endfacet
  facet normal 9.569403e-001 0.000000e+000 2.902847e-001
    outer loop
      vertex   -3.638513e+002 3.000000e+001 -1.624289e+002
      vertex   -3.456415e+002 3.000000e+001 -2.224587e+002
      vertex   -3.456415e+002 1.000000e+003 -2.224587e+002
    endloop
  endfacet
  facet normal 9.951847e-001 0.000000e+000 9.801714e-002
    outer loop
      vertex   -3.700000e+002 3.000000e+001 -1.000000e+002
      vertex   -3.638513e+002 3.000000e+001 -1.624289e+002
      vertex   -3.638513e+002 1.000000e+003 -1.624289e+002
    endloop
  endfacet
  facet normal 9.951847e-001 -1.603611e-017 9.801714e-002
    outer loop
      vertex   -3.638513e+002 1.000000e+003 -1.624289e+002
      vertex   -3.700000e+002 1.000000e+003 -1.000000e+002
      vertex   -3.700000e+002 3.000000e+001 -1.000000e+002
    endloop
  endfacet
  facet normal 9.569403e-001 0.000000e+000 2.902847e-001
    outer loop
      vertex   -3.456415e+002 1.000000e+003 -2.224587e+002
      vertex   -3.638513e+002 1.000000e+003 -1.624289e+002
      vertex   -3.638513e+002 3.000000e+001 -1.624289e+002
    endloop
  endfacet
  facet normal 8.819213e-001 0.000000e+000 4.713967e-001
    outer loop
      vertex   -3.160703e+002 1.000000e+003 -2.777825e+002
      vertex   -3.456415e+002 1.000000e+003 -2.224587e+002
      vertex   -3.456415e+002 3.000000e+001 -2.224587e+002
    endloop
  endfacet
  facet normal 7.730105e-001 0.000000e+000 6.343933e-001
    outer loop
      vertex   -2.762742e+002 1.000000e+003 -3.262742e+002
      vertex   -3.160703e+002 1.000000e+003 -2.777825e+002
      vertex   -3.160703e+002 3.000000e+001 -2.777825e+002
    endloop
  endfacet
  facet normal 6.343933e-001 0.000000e+000 7.730105e-001
    outer loop
      vertex   -2.277825e+002 1.000000e+003 -3.660703e+002
      vertex   -2.762742e+002 1.000000e+003 -3.262742e+002
      vertex   -2.762742e+002 3.000000e+001 -3.262742e+002
    endloop
  endfacet
  facet normal 4.713967e-001 0.000000e+000 8.819213e-001
    outer loop
      vertex   -1.724587e+002 1.000000e+003 -3.956415e+002
      vertex   -2.277825e+002 1.000000e+003 -3.660703e+002
      vertex   -2.277825e+002 3.000000e+001 -3.660703e+002
    endloop
  endfacet
  facet normal 2.902847e-001 0.000000e+000 9.569403e-001
    outer loop
      vertex   -1.124289e+002 1.000000e+003 -4.138513e+002
      vertex   -1.724587e+002 1.000000e+003 -3.956415e+002
      vertex   -1.724587e+002 3.000000e+001 -3.956415e+002
    endloop
  endfacet
  facet normal 9.801714e-002 0.000000e+000 9.951847e-001
    outer loop
      vertex   -5.000000e+001 1.000000e+003 -4.200000e+002
      vertex   -1.124289e+002 1.000000e+003 -4.138513e+002
      vertex   -1.124289e+002 3.000000e+001 -4.138513e+002
    endloop
  endfacet
endsolid
