solid EjeBomba
   facet normal 3.437238e-001 0.000000e+000 -9.390708e-001
      outer loop
         vertex 6.450000e+001 0.000000e+000 0.000000e+000
         vertex 9.674999e+001 4.000000e+003 8.641358e+000
         vertex 9.674999e+001 0.000000e+000 8.641358e+000
      endloop
   endfacet
   facet normal 6.413973e-001 0.000000e+000 -7.672089e-001
      outer loop
         vertex 9.674999e+001 0.000000e+000 8.641358e+000
         vertex 9.674999e+001 4.000000e+003 8.641358e+000
         vertex 1.203586e+002 4.000000e+003 3.225000e+001
      endloop
   endfacet
   facet normal 7.672089e-001 0.000000e+000 -6.413973e-001
      outer loop
         vertex 9.674999e+001 0.000000e+000 8.641358e+000
         vertex 1.203586e+002 4.000000e+003 3.225000e+001
         vertex 1.203586e+002 0.000000e+000 3.225000e+001
      endloop
   endfacet
   facet normal 9.390708e-001 0.000000e+000 -3.437238e-001
      outer loop
         vertex 1.203586e+002 0.000000e+000 3.225000e+001
         vertex 1.203586e+002 4.000000e+003 3.225000e+001
         vertex 1.290000e+002 4.000000e+003 6.450000e+001
      endloop
   endfacet
   facet normal 9.851210e-001 0.000000e+000 -1.718619e-001
      outer loop
         vertex 1.203586e+002 0.000000e+000 3.225000e+001
         vertex 1.290000e+002 4.000000e+003 6.450000e+001
         vertex 1.290000e+002 0.000000e+000 6.450000e+001
      endloop
   endfacet
   facet normal 9.851210e-001 0.000000e+000 1.718619e-001
      outer loop
         vertex 1.290000e+002 0.000000e+000 6.450000e+001
         vertex 1.290000e+002 4.000000e+003 6.450000e+001
         vertex 1.203586e+002 4.000000e+003 9.674999e+001
      endloop
   endfacet
   facet normal 9.390708e-001 0.000000e+000 3.437238e-001
      outer loop
         vertex 1.290000e+002 0.000000e+000 6.450000e+001
         vertex 1.203586e+002 4.000000e+003 9.674999e+001
         vertex 1.203586e+002 0.000000e+000 9.674999e+001
      endloop
   endfacet
   facet normal 7.672089e-001 0.000000e+000 6.413973e-001
      outer loop
         vertex 1.203586e+002 0.000000e+000 9.674999e+001
         vertex 1.203586e+002 4.000000e+003 9.674999e+001
         vertex 9.674999e+001 4.000000e+003 1.203586e+002
      endloop
   endfacet
   facet normal 6.413973e-001 0.000000e+000 7.672089e-001
      outer loop
         vertex 1.203586e+002 0.000000e+000 9.674999e+001
         vertex 9.674999e+001 4.000000e+003 1.203586e+002
         vertex 9.674999e+001 0.000000e+000 1.203586e+002
      endloop
   endfacet
   facet normal 3.437238e-001 0.000000e+000 9.390708e-001
      outer loop
         vertex 9.674999e+001 0.000000e+000 1.203586e+002
         vertex 9.674999e+001 4.000000e+003 1.203586e+002
         vertex 6.450000e+001 4.000000e+003 1.290000e+002
      endloop
   endfacet
   facet normal 1.718619e-001 0.000000e+000 9.851210e-001
      outer loop
         vertex 9.674999e+001 0.000000e+000 1.203586e+002
         vertex 6.450000e+001 4.000000e+003 1.290000e+002
         vertex 6.450000e+001 0.000000e+000 1.290000e+002
      endloop
   endfacet
   facet normal -1.718619e-001 0.000000e+000 9.851210e-001
      outer loop
         vertex 6.450000e+001 0.000000e+000 1.290000e+002
         vertex 6.450000e+001 4.000000e+003 1.290000e+002
         vertex 3.225000e+001 4.000000e+003 1.203586e+002
      endloop
   endfacet
   facet normal -3.437238e-001 0.000000e+000 9.390708e-001
      outer loop
         vertex 6.450000e+001 0.000000e+000 1.290000e+002
         vertex 3.225000e+001 4.000000e+003 1.203586e+002
         vertex 3.225000e+001 0.000000e+000 1.203586e+002
      endloop
   endfacet
   facet normal -6.413973e-001 0.000000e+000 7.672089e-001
      outer loop
         vertex 3.225000e+001 0.000000e+000 1.203586e+002
         vertex 3.225000e+001 4.000000e+003 1.203586e+002
         vertex 8.641358e+000 4.000000e+003 9.674999e+001
      endloop
   endfacet
   facet normal -7.672089e-001 0.000000e+000 6.413973e-001
      outer loop
         vertex 3.225000e+001 0.000000e+000 1.203586e+002
         vertex 8.641358e+000 4.000000e+003 9.674999e+001
         vertex 8.641358e+000 0.000000e+000 9.674999e+001
      endloop
   endfacet
   facet normal -9.390708e-001 0.000000e+000 3.437238e-001
      outer loop
         vertex 8.641358e+000 0.000000e+000 9.674999e+001
         vertex 8.641358e+000 4.000000e+003 9.674999e+001
         vertex 0.000000e+000 4.000000e+003 6.450000e+001
      endloop
   endfacet
   facet normal -9.851210e-001 0.000000e+000 1.718619e-001
      outer loop
         vertex 8.641358e+000 0.000000e+000 9.674999e+001
         vertex 0.000000e+000 4.000000e+003 6.450000e+001
         vertex 0.000000e+000 0.000000e+000 6.450000e+001
      endloop
   endfacet
   facet normal -9.851210e-001 0.000000e+000 -1.718619e-001
      outer loop
         vertex 0.000000e+000 0.000000e+000 6.450000e+001
         vertex 0.000000e+000 4.000000e+003 6.450000e+001
         vertex 8.641358e+000 4.000000e+003 3.225000e+001
      endloop
   endfacet
   facet normal -9.390708e-001 0.000000e+000 -3.437238e-001
      outer loop
         vertex 0.000000e+000 0.000000e+000 6.450000e+001
         vertex 8.641358e+000 4.000000e+003 3.225000e+001
         vertex 8.641358e+000 0.000000e+000 3.225000e+001
      endloop
   endfacet
   facet normal -7.672089e-001 0.000000e+000 -6.413973e-001
      outer loop
         vertex 8.641358e+000 0.000000e+000 3.225000e+001
         vertex 8.641358e+000 4.000000e+003 3.225000e+001
         vertex 3.225000e+001 4.000000e+003 8.641358e+000
      endloop
   endfacet
   facet normal -6.413973e-001 0.000000e+000 -7.672089e-001
      outer loop
         vertex 8.641358e+000 0.000000e+000 3.225000e+001
         vertex 3.225000e+001 4.000000e+003 8.641358e+000
         vertex 3.225000e+001 0.000000e+000 8.641358e+000
      endloop
   endfacet
   facet normal -3.437238e-001 0.000000e+000 -9.390708e-001
      outer loop
         vertex 3.225000e+001 0.000000e+000 8.641358e+000
         vertex 3.225000e+001 4.000000e+003 8.641358e+000
         vertex 6.450000e+001 4.000000e+003 0.000000e+000
      endloop
   endfacet
   facet normal -1.718619e-001 0.000000e+000 -9.851210e-001
      outer loop
         vertex 3.225000e+001 0.000000e+000 8.641358e+000
         vertex 6.450000e+001 4.000000e+003 0.000000e+000
         vertex 6.450000e+001 0.000000e+000 0.000000e+000
      endloop
   endfacet
   facet normal 1.718619e-001 0.000000e+000 -9.851210e-001
      outer loop
         vertex 6.450000e+001 0.000000e+000 0.000000e+000
         vertex 6.450000e+001 4.000000e+003 0.000000e+000
         vertex 9.674999e+001 4.000000e+003 8.641358e+000
      endloop
   endfacet
   facet normal 0.000000e+000 1.000000e+000 0.000000e+000
      outer loop
         vertex 8.641358e+000 4.000000e+003 9.674999e+001
         vertex 3.225000e+001 4.000000e+003 1.203586e+002
         vertex 6.450000e+001 4.000000e+003 6.450000e+001
      endloop
   endfacet
   facet normal 0.000000e+000 1.000000e+000 0.000000e+000
      outer loop
         vertex 6.450000e+001 4.000000e+003 6.450000e+001
         vertex 3.225000e+001 4.000000e+003 1.203586e+002
         vertex 6.450000e+001 4.000000e+003 1.290000e+002
      endloop
   endfacet
   facet normal 0.000000e+000 1.000000e+000 0.000000e+000
      outer loop
         vertex 6.450000e+001 4.000000e+003 6.450000e+001
         vertex 6.450000e+001 4.000000e+003 1.290000e+002
         vertex 9.674999e+001 4.000000e+003 1.203586e+002
      endloop
   endfacet
   facet normal 0.000000e+000 1.000000e+000 0.000000e+000
      outer loop
         vertex 3.225000e+001 4.000000e+003 8.641358e+000
         vertex 8.641358e+000 4.000000e+003 3.225000e+001
         vertex 6.450000e+001 4.000000e+003 6.450000e+001
      endloop
   endfacet
   facet normal 0.000000e+000 1.000000e+000 0.000000e+000
      outer loop
         vertex 6.450000e+001 4.000000e+003 6.450000e+001
         vertex 8.641358e+000 4.000000e+003 3.225000e+001
         vertex 0.000000e+000 4.000000e+003 6.450000e+001
      endloop
   endfacet
   facet normal 0.000000e+000 1.000000e+000 0.000000e+000
      outer loop
         vertex 6.450000e+001 4.000000e+003 6.450000e+001
         vertex 0.000000e+000 4.000000e+003 6.450000e+001
         vertex 8.641358e+000 4.000000e+003 9.674999e+001
      endloop
   endfacet
   facet normal 0.000000e+000 1.000000e+000 0.000000e+000
      outer loop
         vertex 1.203586e+002 4.000000e+003 3.225000e+001
         vertex 9.674999e+001 4.000000e+003 8.641358e+000
         vertex 6.450000e+001 4.000000e+003 6.450000e+001
      endloop
   endfacet
   facet normal 0.000000e+000 1.000000e+000 0.000000e+000
      outer loop
         vertex 6.450000e+001 4.000000e+003 6.450000e+001
         vertex 9.674999e+001 4.000000e+003 8.641358e+000
         vertex 6.450000e+001 4.000000e+003 0.000000e+000
      endloop
   endfacet
   facet normal 0.000000e+000 1.000000e+000 0.000000e+000
      outer loop
         vertex 6.450000e+001 4.000000e+003 6.450000e+001
         vertex 6.450000e+001 4.000000e+003 0.000000e+000
         vertex 3.225000e+001 4.000000e+003 8.641358e+000
      endloop
   endfacet
   facet normal 0.000000e+000 1.000000e+000 0.000000e+000
      outer loop
         vertex 9.674999e+001 4.000000e+003 1.203586e+002
         vertex 1.203586e+002 4.000000e+003 9.674999e+001
         vertex 6.450000e+001 4.000000e+003 6.450000e+001
      endloop
   endfacet
   facet normal 0.000000e+000 1.000000e+000 0.000000e+000
      outer loop
         vertex 6.450000e+001 4.000000e+003 6.450000e+001
         vertex 1.203586e+002 4.000000e+003 9.674999e+001
         vertex 1.290000e+002 4.000000e+003 6.450000e+001
      endloop
   endfacet
   facet normal 0.000000e+000 1.000000e+000 0.000000e+000
      outer loop
         vertex 6.450000e+001 4.000000e+003 6.450000e+001
         vertex 1.290000e+002 4.000000e+003 6.450000e+001
         vertex 1.203586e+002 4.000000e+003 3.225000e+001
      endloop
   endfacet
   facet normal 0.000000e+000 -1.000000e+000 0.000000e+000
      outer loop
         vertex 1.203586e+002 0.000000e+000 9.674999e+001
         vertex 9.674999e+001 0.000000e+000 1.203586e+002
         vertex 6.450000e+001 0.000000e+000 6.450000e+001
      endloop
   endfacet
   facet normal 0.000000e+000 -1.000000e+000 0.000000e+000
      outer loop
         vertex 6.450000e+001 0.000000e+000 6.450000e+001
         vertex 9.674999e+001 0.000000e+000 1.203586e+002
         vertex 6.450000e+001 0.000000e+000 1.290000e+002
      endloop
   endfacet
   facet normal 0.000000e+000 -1.000000e+000 0.000000e+000
      outer loop
         vertex 6.450000e+001 0.000000e+000 6.450000e+001
         vertex 6.450000e+001 0.000000e+000 1.290000e+002
         vertex 3.225000e+001 0.000000e+000 1.203586e+002
      endloop
   endfacet
   facet normal 0.000000e+000 -1.000000e+000 0.000000e+000
      outer loop
         vertex 9.674999e+001 0.000000e+000 8.641358e+000
         vertex 1.203586e+002 0.000000e+000 3.225000e+001
         vertex 6.450000e+001 0.000000e+000 6.450000e+001
      endloop
   endfacet
   facet normal 0.000000e+000 -1.000000e+000 0.000000e+000
      outer loop
         vertex 6.450000e+001 0.000000e+000 6.450000e+001
         vertex 1.203586e+002 0.000000e+000 3.225000e+001
         vertex 1.290000e+002 0.000000e+000 6.450000e+001
      endloop
   endfacet
   facet normal 0.000000e+000 -1.000000e+000 0.000000e+000
      outer loop
         vertex 6.450000e+001 0.000000e+000 6.450000e+001
         vertex 1.290000e+002 0.000000e+000 6.450000e+001
         vertex 1.203586e+002 0.000000e+000 9.674999e+001
      endloop
   endfacet
   facet normal 0.000000e+000 -1.000000e+000 0.000000e+000
      outer loop
         vertex 8.641358e+000 0.000000e+000 3.225000e+001
         vertex 3.225000e+001 0.000000e+000 8.641358e+000
         vertex 6.450000e+001 0.000000e+000 6.450000e+001
      endloop
   endfacet
   facet normal 0.000000e+000 -1.000000e+000 0.000000e+000
      outer loop
         vertex 6.450000e+001 0.000000e+000 6.450000e+001
         vertex 3.225000e+001 0.000000e+000 8.641358e+000
         vertex 6.450000e+001 0.000000e+000 0.000000e+000
      endloop
   endfacet
   facet normal 0.000000e+000 -1.000000e+000 0.000000e+000
      outer loop
         vertex 6.450000e+001 0.000000e+000 6.450000e+001
         vertex 6.450000e+001 0.000000e+000 0.000000e+000
         vertex 9.674999e+001 0.000000e+000 8.641358e+000
      endloop
   endfacet
   facet normal 0.000000e+000 -1.000000e+000 0.000000e+000
      outer loop
         vertex 3.225000e+001 0.000000e+000 1.203586e+002
         vertex 8.641358e+000 0.000000e+000 9.674999e+001
         vertex 6.450000e+001 0.000000e+000 6.450000e+001
      endloop
   endfacet
   facet normal 0.000000e+000 -1.000000e+000 0.000000e+000
      outer loop
         vertex 6.450000e+001 0.000000e+000 6.450000e+001
         vertex 8.641358e+000 0.000000e+000 9.674999e+001
         vertex 0.000000e+000 0.000000e+000 6.450000e+001
      endloop
   endfacet
   facet normal 0.000000e+000 -1.000000e+000 0.000000e+000
      outer loop
         vertex 6.450000e+001 0.000000e+000 6.450000e+001
         vertex 0.000000e+000 0.000000e+000 6.450000e+001
         vertex 8.641358e+000 0.000000e+000 3.225000e+001
      endloop
   endfacet
endsolid