solid Tierra
  facet normal -1.545548e-001 1.545548e-001 -9.758205e-001
    outer loop
      vertex   1.500000e+002 5.963525e+002 -2.492658e+003
      vertex   1.500000e+002 5.500000e+002 -2.500000e+003
      vertex   1.036475e+002 5.500000e+002 -2.492658e+003
    endloop
  endfacet
  facet normal -4.485354e-001 1.545548e-001 -8.803004e-001
    outer loop
      vertex   6.614745e+001 5.963525e+002 -2.465413e+003
      vertex   1.059161e+002 5.963525e+002 -2.485676e+003
      vertex   9.322597e+001 5.500000e+002 -2.487348e+003
    endloop
  endfacet
  facet normal -4.485354e-001 1.545548e-001 -8.803004e-001
    outer loop
      vertex   1.059161e+002 5.963525e+002 -2.485676e+003
      vertex   1.036475e+002 5.500000e+002 -2.492658e+003
      vertex   9.322597e+001 5.500000e+002 -2.487348e+003
    endloop
  endfacet
  facet normal -6.986103e-001 1.545548e-001 -6.986103e-001
    outer loop
      vertex   6.614745e+001 5.963525e+002 -2.465413e+003
      vertex   6.183221e+001 5.500000e+002 -2.471353e+003
      vertex   4.523983e+001 5.500000e+002 -2.454760e+003
    endloop
  endfacet
  facet normal -6.986103e-001 1.545548e-001 -6.986103e-001
    outer loop
      vertex   4.523983e+001 5.500000e+002 -2.454760e+003
      vertex   3.458687e+001 5.963525e+002 -2.433853e+003
      vertex   6.614745e+001 5.963525e+002 -2.465413e+003
    endloop
  endfacet
  facet normal -8.803004e-001 1.545548e-001 -4.485354e-001
    outer loop
      vertex   3.458687e+001 5.963525e+002 -2.433853e+003
      vertex   2.864745e+001 5.500000e+002 -2.438168e+003
      vertex   1.265153e+001 5.500000e+002 -2.406774e+003
    endloop
  endfacet
  facet normal -8.803004e-001 1.545548e-001 -4.485354e-001
    outer loop
      vertex   1.265153e+001 5.500000e+002 -2.406774e+003
      vertex   1.432373e+001 5.963525e+002 -2.394084e+003
      vertex   3.458687e+001 5.963525e+002 -2.433853e+003
    endloop
  endfacet
  facet normal -9.758205e-001 1.545548e-001 -1.545548e-001
    outer loop
      vertex   1.432373e+001 5.963525e+002 -2.394084e+003
      vertex   7.341523e+000 5.500000e+002 -2.396353e+003
      vertex   0.000000e+000 5.500000e+002 -2.350000e+003
    endloop
  endfacet
  facet normal -1.397370e-001 4.495362e-001 -8.822646e-001
    outer loop
      vertex   1.125000e+002 6.381678e+002 -2.465413e+003
      vertex   1.500000e+002 6.381678e+002 -2.471353e+003
      vertex   1.500000e+002 6.067740e+002 -2.487348e+003
    endloop
  endfacet
  facet normal -1.397370e-001 4.495362e-001 -8.822646e-001
    outer loop
      vertex   1.500000e+002 6.067740e+002 -2.487348e+003
      vertex   1.059161e+002 5.963525e+002 -2.485676e+003
      vertex   1.125000e+002 6.381678e+002 -2.465413e+003
    endloop
  endfacet
  facet normal -4.055325e-001 4.495362e-001 -7.959024e-001
    outer loop
      vertex   1.125000e+002 6.381678e+002 -2.465413e+003
      vertex   1.059161e+002 5.963525e+002 -2.485676e+003
      vertex   6.614745e+001 5.963525e+002 -2.465413e+003
    endloop
  endfacet
  facet normal -6.316317e-001 4.495362e-001 -6.316317e-001
    outer loop
      vertex   7.867076e+001 6.381678e+002 -2.448176e+003
      vertex   6.614745e+001 5.963525e+002 -2.465413e+003
      vertex   3.458687e+001 5.963525e+002 -2.433853e+003
    endloop
  endfacet
  facet normal -7.959024e-001 4.495362e-001 -4.055325e-001
    outer loop
      vertex   5.182373e+001 6.381678e+002 -2.421329e+003
      vertex   3.458687e+001 5.963525e+002 -2.433853e+003
      vertex   1.432373e+001 5.963525e+002 -2.394084e+003
    endloop
  endfacet
  facet normal -8.822646e-001 4.495362e-001 -1.397370e-001
    outer loop
      vertex   3.458687e+001 6.381678e+002 -2.387500e+003
      vertex   1.432373e+001 5.963525e+002 -2.394084e+003
      vertex   1.265153e+001 6.067740e+002 -2.350000e+003
    endloop
  endfacet
  facet normal -8.822646e-001 4.495362e-001 -1.397370e-001
    outer loop
      vertex   1.432373e+001 5.963525e+002 -2.394084e+003
      vertex   7.341523e+000 5.963525e+002 -2.350000e+003
      vertex   1.265153e+001 6.067740e+002 -2.350000e+003
    endloop
  endfacet
  facet normal -1.112989e-001 7.027135e-001 -7.027135e-001
    outer loop
      vertex   1.227547e+002 6.713525e+002 -2.433853e+003
      vertex   1.500000e+002 6.713525e+002 -2.438168e+003
      vertex   1.500000e+002 6.547602e+002 -2.454760e+003
    endloop
  endfacet
  facet normal -1.112989e-001 7.027135e-001 -7.027135e-001
    outer loop
      vertex   1.500000e+002 6.547602e+002 -2.454760e+003
      vertex   1.125000e+002 6.381678e+002 -2.465413e+003
      vertex   1.227547e+002 6.713525e+002 -2.433853e+003
    endloop
  endfacet
  facet normal -3.230019e-001 7.027135e-001 -6.339270e-001
    outer loop
      vertex   1.227547e+002 6.713525e+002 -2.433853e+003
      vertex   1.125000e+002 6.381678e+002 -2.465413e+003
      vertex   7.867076e+001 6.381678e+002 -2.448176e+003
    endloop
  endfacet
  facet normal -5.030873e-001 7.027135e-001 -5.030873e-001
    outer loop
      vertex   9.817627e+001 6.713525e+002 -2.421329e+003
      vertex   7.867076e+001 6.381678e+002 -2.448176e+003
      vertex   5.182373e+001 6.381678e+002 -2.421329e+003
    endloop
  endfacet
  facet normal -6.339270e-001 7.027135e-001 -3.230019e-001
    outer loop
      vertex   7.867076e+001 6.713525e+002 -2.401824e+003
      vertex   5.182373e+001 6.381678e+002 -2.421329e+003
      vertex   3.458687e+001 6.381678e+002 -2.387500e+003
    endloop
  endfacet
  facet normal -7.027135e-001 7.027135e-001 -1.112989e-001
    outer loop
      vertex   6.614745e+001 6.713525e+002 -2.377245e+003
      vertex   3.458687e+001 6.381678e+002 -2.387500e+003
      vertex   4.523983e+001 6.547602e+002 -2.350000e+003
    endloop
  endfacet
  facet normal -7.027135e-001 7.027135e-001 -1.112989e-001
    outer loop
      vertex   3.458687e+001 6.381678e+002 -2.387500e+003
      vertex   2.864745e+001 6.381678e+002 -2.350000e+003
      vertex   4.523983e+001 6.547602e+002 -2.350000e+003
    endloop
  endfacet
  facet normal -7.171986e-002 8.887120e-001 -4.528214e-001
    outer loop
      vertex   1.227547e+002 6.713525e+002 -2.433853e+003
      vertex   1.356763e+002 6.926585e+002 -2.394084e+003
      vertex   1.500000e+002 6.873485e+002 -2.406774e+003
    endloop
  endfacet
  facet normal -7.171986e-002 8.887120e-001 -4.528214e-001
    outer loop
      vertex   1.356763e+002 6.926585e+002 -2.394084e+003
      vertex   1.500000e+002 6.926585e+002 -2.396353e+003
      vertex   1.500000e+002 6.873485e+002 -2.406774e+003
    endloop
  endfacet
  facet normal -2.081391e-001 8.887120e-001 -4.084961e-001
    outer loop
      vertex   1.356763e+002 6.926585e+002 -2.394084e+003
      vertex   1.227547e+002 6.713525e+002 -2.433853e+003
      vertex   9.817627e+001 6.713525e+002 -2.421329e+003
    endloop
  endfacet
  facet normal -3.241843e-001 8.887120e-001 -3.241843e-001
    outer loop
      vertex   1.227547e+002 6.926585e+002 -2.387500e+003
      vertex   9.817627e+001 6.713525e+002 -2.421329e+003
      vertex   7.867076e+001 6.713525e+002 -2.401824e+003
    endloop
  endfacet
  facet normal -4.084961e-001 8.887120e-001 -2.081391e-001
    outer loop
      vertex   1.125000e+002 6.926585e+002 -2.377245e+003
      vertex   7.867076e+001 6.713525e+002 -2.401824e+003
      vertex   6.614745e+001 6.713525e+002 -2.377245e+003
    endloop
  endfacet
  facet normal -4.528214e-001 8.887120e-001 -7.171986e-002
    outer loop
      vertex   6.614745e+001 6.713525e+002 -2.377245e+003
      vertex   6.183221e+001 6.713525e+002 -2.350000e+003
      vertex   9.322597e+001 6.873485e+002 -2.350000e+003
    endloop
  endfacet
  facet normal -4.528214e-001 8.887120e-001 -7.171986e-002
    outer loop
      vertex   9.322597e+001 6.873485e+002 -2.350000e+003
      vertex   1.059161e+002 6.926585e+002 -2.364324e+003
      vertex   6.614745e+001 6.713525e+002 -2.377245e+003
    endloop
  endfacet
  facet normal -1.563865e-001 9.873853e-001 -2.476918e-002
    outer loop
      vertex   1.500000e+002 7.000000e+002 -2.350000e+003
      vertex   1.059161e+002 6.926585e+002 -2.364324e+003
      vertex   1.036475e+002 6.926585e+002 -2.350000e+003
    endloop
  endfacet
  facet normal -1.410783e-001 9.873853e-001 -7.188297e-002
    outer loop
      vertex   1.500000e+002 7.000000e+002 -2.350000e+003
      vertex   1.125000e+002 6.926585e+002 -2.377245e+003
      vertex   1.059161e+002 6.926585e+002 -2.364324e+003
    endloop
  endfacet
  facet normal -1.119604e-001 9.873853e-001 -1.119604e-001
    outer loop
      vertex   1.500000e+002 7.000000e+002 -2.350000e+003
      vertex   1.227547e+002 6.926585e+002 -2.387500e+003
      vertex   1.125000e+002 6.926585e+002 -2.377245e+003
    endloop
  endfacet
  facet normal -7.188297e-002 9.873853e-001 -1.410783e-001
    outer loop
      vertex   1.500000e+002 7.000000e+002 -2.350000e+003
      vertex   1.356763e+002 6.926585e+002 -2.394084e+003
      vertex   1.227547e+002 6.926585e+002 -2.387500e+003
    endloop
  endfacet
  facet normal -2.476918e-002 9.873853e-001 -1.563865e-001
    outer loop
      vertex   1.500000e+002 7.000000e+002 -2.350000e+003
      vertex   1.500000e+002 6.926585e+002 -2.396353e+003
      vertex   1.356763e+002 6.926585e+002 -2.394084e+003
    endloop
  endfacet
  facet normal -4.528214e-001 8.887120e-001 -7.171986e-002
    outer loop
      vertex   9.322597e+001 6.873485e+002 -2.350000e+003
      vertex   1.036475e+002 6.926585e+002 -2.350000e+003
      vertex   1.059161e+002 6.926585e+002 -2.364324e+003
    endloop
  endfacet
  facet normal -4.084961e-001 8.887120e-001 -2.081391e-001
    outer loop
      vertex   6.614745e+001 6.713525e+002 -2.377245e+003
      vertex   1.059161e+002 6.926585e+002 -2.364324e+003
      vertex   1.125000e+002 6.926585e+002 -2.377245e+003
    endloop
  endfacet
  facet normal -3.241843e-001 8.887120e-001 -3.241843e-001
    outer loop
      vertex   7.867076e+001 6.713525e+002 -2.401824e+003
      vertex   1.125000e+002 6.926585e+002 -2.377245e+003
      vertex   1.227547e+002 6.926585e+002 -2.387500e+003
    endloop
  endfacet
  facet normal -2.081391e-001 8.887120e-001 -4.084961e-001
    outer loop
      vertex   9.817627e+001 6.713525e+002 -2.421329e+003
      vertex   1.227547e+002 6.926585e+002 -2.387500e+003
      vertex   1.356763e+002 6.926585e+002 -2.394084e+003
    endloop
  endfacet
  facet normal -7.171986e-002 8.887120e-001 -4.528214e-001
    outer loop
      vertex   1.500000e+002 6.873485e+002 -2.406774e+003
      vertex   1.500000e+002 6.713525e+002 -2.438168e+003
      vertex   1.227547e+002 6.713525e+002 -2.433853e+003
    endloop
  endfacet
  facet normal -7.027135e-001 7.027135e-001 -1.112989e-001
    outer loop
      vertex   4.523983e+001 6.547602e+002 -2.350000e+003
      vertex   6.183221e+001 6.713525e+002 -2.350000e+003
      vertex   6.614745e+001 6.713525e+002 -2.377245e+003
    endloop
  endfacet
  facet normal -6.339270e-001 7.027135e-001 -3.230019e-001
    outer loop
      vertex   3.458687e+001 6.381678e+002 -2.387500e+003
      vertex   6.614745e+001 6.713525e+002 -2.377245e+003
      vertex   7.867076e+001 6.713525e+002 -2.401824e+003
    endloop
  endfacet
  facet normal -5.030873e-001 7.027135e-001 -5.030873e-001
    outer loop
      vertex   5.182373e+001 6.381678e+002 -2.421329e+003
      vertex   7.867076e+001 6.713525e+002 -2.401824e+003
      vertex   9.817627e+001 6.713525e+002 -2.421329e+003
    endloop
  endfacet
  facet normal -3.230019e-001 7.027135e-001 -6.339270e-001
    outer loop
      vertex   7.867076e+001 6.381678e+002 -2.448176e+003
      vertex   9.817627e+001 6.713525e+002 -2.421329e+003
      vertex   1.227547e+002 6.713525e+002 -2.433853e+003
    endloop
  endfacet
  facet normal -1.112989e-001 7.027135e-001 -7.027135e-001
    outer loop
      vertex   1.500000e+002 6.547602e+002 -2.454760e+003
      vertex   1.500000e+002 6.381678e+002 -2.471353e+003
      vertex   1.125000e+002 6.381678e+002 -2.465413e+003
    endloop
  endfacet
  facet normal -8.822646e-001 4.495362e-001 -1.397370e-001
    outer loop
      vertex   1.265153e+001 6.067740e+002 -2.350000e+003
      vertex   2.864745e+001 6.381678e+002 -2.350000e+003
      vertex   3.458687e+001 6.381678e+002 -2.387500e+003
    endloop
  endfacet
  facet normal -7.959024e-001 4.495362e-001 -4.055325e-001
    outer loop
      vertex   1.432373e+001 5.963525e+002 -2.394084e+003
      vertex   3.458687e+001 6.381678e+002 -2.387500e+003
      vertex   5.182373e+001 6.381678e+002 -2.421329e+003
    endloop
  endfacet
  facet normal -6.316317e-001 4.495362e-001 -6.316317e-001
    outer loop
      vertex   3.458687e+001 5.963525e+002 -2.433853e+003
      vertex   5.182373e+001 6.381678e+002 -2.421329e+003
      vertex   7.867076e+001 6.381678e+002 -2.448176e+003
    endloop
  endfacet
  facet normal -4.055325e-001 4.495362e-001 -7.959024e-001
    outer loop
      vertex   6.614745e+001 5.963525e+002 -2.465413e+003
      vertex   7.867076e+001 6.381678e+002 -2.448176e+003
      vertex   1.125000e+002 6.381678e+002 -2.465413e+003
    endloop
  endfacet
  facet normal -1.397370e-001 4.495362e-001 -8.822646e-001
    outer loop
      vertex   1.500000e+002 6.067740e+002 -2.487348e+003
      vertex   1.500000e+002 5.963525e+002 -2.492658e+003
      vertex   1.059161e+002 5.963525e+002 -2.485676e+003
    endloop
  endfacet
  facet normal -9.758205e-001 1.545548e-001 -1.545548e-001
    outer loop
      vertex   0.000000e+000 5.500000e+002 -2.350000e+003
      vertex   7.341523e+000 5.963525e+002 -2.350000e+003
      vertex   1.432373e+001 5.963525e+002 -2.394084e+003
    endloop
  endfacet
  facet normal -8.803004e-001 1.545548e-001 -4.485354e-001
    outer loop
      vertex   1.265153e+001 5.500000e+002 -2.406774e+003
      vertex   7.341523e+000 5.500000e+002 -2.396353e+003
      vertex   1.432373e+001 5.963525e+002 -2.394084e+003
    endloop
  endfacet
  facet normal -6.986103e-001 1.545548e-001 -6.986103e-001
    outer loop
      vertex   4.523983e+001 5.500000e+002 -2.454760e+003
      vertex   2.864745e+001 5.500000e+002 -2.438168e+003
      vertex   3.458687e+001 5.963525e+002 -2.433853e+003
    endloop
  endfacet
  facet normal -4.485354e-001 1.545548e-001 -8.803004e-001
    outer loop
      vertex   9.322597e+001 5.500000e+002 -2.487348e+003
      vertex   6.183221e+001 5.500000e+002 -2.471353e+003
      vertex   6.614745e+001 5.963525e+002 -2.465413e+003
    endloop
  endfacet
  facet normal -1.545548e-001 1.545548e-001 -9.758205e-001
    outer loop
      vertex   1.036475e+002 5.500000e+002 -2.492658e+003
      vertex   1.059161e+002 5.963525e+002 -2.485676e+003
      vertex   1.500000e+002 5.963525e+002 -2.492658e+003
    endloop
  endfacet
  facet normal -9.876883e-001 0.000000e+000 -1.564345e-001
    outer loop
      vertex   0.000000e+000 -2.000000e+002 -2.350000e+003
      vertex   0.000000e+000 5.500000e+002 -2.350000e+003
      vertex   7.341523e+000 5.500000e+002 -2.396353e+003
    endloop
  endfacet
  facet normal -9.807823e-001 -2.456628e-003 -1.950897e-001
    outer loop
      vertex   7.341523e+000 5.500000e+002 -2.396353e+003
      vertex   1.141807e+001 -2.000000e+002 -2.407403e+003
      vertex   0.000000e+000 -2.000000e+002 -2.350000e+003
    endloop
  endfacet
  facet normal -8.910050e-001 1.845795e-003 -4.539897e-001
    outer loop
      vertex   1.141807e+001 -2.000000e+002 -2.407403e+003
      vertex   1.265153e+001 5.500000e+002 -2.406774e+003
      vertex   2.864745e+001 5.500000e+002 -2.438168e+003
    endloop
  endfacet
  facet normal -8.314640e-001 -3.688726e-003 -5.555665e-001
    outer loop
      vertex   2.864745e+001 5.500000e+002 -2.438168e+003
      vertex   4.393398e+001 -2.000000e+002 -2.456066e+003
      vertex   1.141807e+001 -2.000000e+002 -2.407403e+003
    endloop
  endfacet
  facet normal -5.555665e-001 -3.688726e-003 -8.314640e-001
    outer loop
      vertex   9.259749e+001 -2.000000e+002 -2.488582e+003
      vertex   4.393398e+001 -2.000000e+002 -2.456066e+003
      vertex   6.183221e+001 5.500000e+002 -2.471353e+003
    endloop
  endfacet
  facet normal -7.071046e-001 2.462324e-003 -7.071046e-001
    outer loop
      vertex   4.393398e+001 -2.000000e+002 -2.456066e+003
      vertex   4.523983e+001 5.500000e+002 -2.454760e+003
      vertex   6.183221e+001 5.500000e+002 -2.471353e+003
    endloop
  endfacet
  facet normal -1.950897e-001 -2.456628e-003 -9.807823e-001
    outer loop
      vertex   1.500000e+002 -2.000000e+002 -2.500000e+003
      vertex   9.259749e+001 -2.000000e+002 -2.488582e+003
      vertex   1.036475e+002 5.500000e+002 -2.492658e+003
    endloop
  endfacet
  facet normal -4.539897e-001 1.845795e-003 -8.910050e-001
    outer loop
      vertex   9.259749e+001 -2.000000e+002 -2.488582e+003
      vertex   9.322597e+001 5.500000e+002 -2.487348e+003
      vertex   1.036475e+002 5.500000e+002 -2.492658e+003
    endloop
  endfacet
  facet normal -1.564345e-001 0.000000e+000 -9.876883e-001
    outer loop
      vertex   1.036475e+002 5.500000e+002 -2.492658e+003
      vertex   1.500000e+002 5.500000e+002 -2.500000e+003
      vertex   1.500000e+002 -2.000000e+002 -2.500000e+003
    endloop
  endfacet
  facet normal -4.539897e-001 1.845795e-003 -8.910050e-001
    outer loop
      vertex   6.183221e+001 5.500000e+002 -2.471353e+003
      vertex   9.322597e+001 5.500000e+002 -2.487348e+003
      vertex   9.259749e+001 -2.000000e+002 -2.488582e+003
    endloop
  endfacet
  facet normal -7.071046e-001 2.462324e-003 -7.071046e-001
    outer loop
      vertex   2.864745e+001 5.500000e+002 -2.438168e+003
      vertex   4.523983e+001 5.500000e+002 -2.454760e+003
      vertex   4.393398e+001 -2.000000e+002 -2.456066e+003
    endloop
  endfacet
  facet normal -8.910050e-001 1.845795e-003 -4.539897e-001
    outer loop
      vertex   7.341523e+000 5.500000e+002 -2.396353e+003
      vertex   1.265153e+001 5.500000e+002 -2.406774e+003
      vertex   1.141807e+001 -2.000000e+002 -2.407403e+003
    endloop
  endfacet
  facet normal -1.000000e+000 0.000000e+000 0.000000e+000
    outer loop
      vertex   0.000000e+000 -2.000000e+002 -1.500000e+002
      vertex   0.000000e+000 5.500000e+002 -1.500000e+002
      vertex   0.000000e+000 5.500000e+002 -2.350000e+003
    endloop
  endfacet
  facet normal -1.000000e+000 0.000000e+000 0.000000e+000
    outer loop
      vertex   0.000000e+000 5.500000e+002 -2.350000e+003
      vertex   0.000000e+000 -2.000000e+002 -2.350000e+003
      vertex   0.000000e+000 -2.000000e+002 -1.500000e+002
    endloop
  endfacet
  facet normal -8.910065e-001 4.539905e-001 -1.106033e-017
    outer loop
      vertex   1.265153e+001 6.067740e+002 -2.350000e+003
      vertex   7.341523e+000 5.963525e+002 -2.350000e+003
      vertex   7.341523e+000 5.963525e+002 -1.500000e+002
    endloop
  endfacet
  facet normal -9.876883e-001 1.564345e-001 0.000000e+000
    outer loop
      vertex   0.000000e+000 5.500000e+002 -2.350000e+003
      vertex   0.000000e+000 5.500000e+002 -1.500000e+002
      vertex   7.341523e+000 5.963525e+002 -1.500000e+002
    endloop
  endfacet
  facet normal -9.876883e-001 1.564345e-001 -1.246084e-017
    outer loop
      vertex   7.341523e+000 5.963525e+002 -1.500000e+002
      vertex   7.341523e+000 5.963525e+002 -2.350000e+003
      vertex   0.000000e+000 5.500000e+002 -2.350000e+003
    endloop
  endfacet
  facet normal -7.071068e-001 7.071068e-001 4.200431e-018
    outer loop
      vertex   4.523983e+001 6.547602e+002 -2.350000e+003
      vertex   2.864745e+001 6.381678e+002 -2.350000e+003
      vertex   2.864745e+001 6.381678e+002 -1.500000e+002
    endloop
  endfacet
  facet normal -8.910065e-001 4.539905e-001 5.594808e-018
    outer loop
      vertex   1.265153e+001 6.067740e+002 -1.500000e+002
      vertex   2.864745e+001 6.381678e+002 -1.500000e+002
      vertex   2.864745e+001 6.381678e+002 -2.350000e+003
    endloop
  endfacet
  facet normal -8.910065e-001 4.539905e-001 0.000000e+000
    outer loop
      vertex   2.864745e+001 6.381678e+002 -2.350000e+003
      vertex   1.265153e+001 6.067740e+002 -2.350000e+003
      vertex   1.265153e+001 6.067740e+002 -1.500000e+002
    endloop
  endfacet
  facet normal -4.539905e-001 8.910065e-001 -8.392213e-018
    outer loop
      vertex   9.322597e+001 6.873485e+002 -2.350000e+003
      vertex   6.183221e+001 6.713525e+002 -2.350000e+003
      vertex   6.183221e+001 6.713525e+002 -1.500000e+002
    endloop
  endfacet
  facet normal -7.071068e-001 7.071068e-001 -1.365140e-017
    outer loop
      vertex   4.523983e+001 6.547602e+002 -1.500000e+002
      vertex   6.183221e+001 6.713525e+002 -1.500000e+002
      vertex   6.183221e+001 6.713525e+002 -2.350000e+003
    endloop
  endfacet
  facet normal -7.071068e-001 7.071068e-001 -4.200431e-018
    outer loop
      vertex   6.183221e+001 6.713525e+002 -2.350000e+003
      vertex   4.523983e+001 6.547602e+002 -2.350000e+003
      vertex   4.523983e+001 6.547602e+002 -1.500000e+002
    endloop
  endfacet
  facet normal -1.564345e-001 9.876883e-001 0.000000e+000
    outer loop
      vertex   1.500000e+002 7.000000e+002 -1.500000e+002
      vertex   1.500000e+002 7.000000e+002 -2.350000e+003
      vertex   1.036475e+002 6.926585e+002 -2.350000e+003
    endloop
  endfacet
  facet normal -4.539905e-001 8.910065e-001 -5.727622e-018
    outer loop
      vertex   9.322597e+001 6.873485e+002 -2.350000e+003
      vertex   9.322597e+001 6.873485e+002 -1.500000e+002
      vertex   1.036475e+002 6.926585e+002 -1.500000e+002
    endloop
  endfacet
  facet normal -4.539905e-001 8.910065e-001 -2.863811e-017
    outer loop
      vertex   1.036475e+002 6.926585e+002 -1.500000e+002
      vertex   1.036475e+002 6.926585e+002 -2.350000e+003
      vertex   9.322597e+001 6.873485e+002 -2.350000e+003
    endloop
  endfacet
  facet normal -1.564345e-001 9.876883e-001 -9.868020e-018
    outer loop
      vertex   1.036475e+002 6.926585e+002 -2.350000e+003
      vertex   1.036475e+002 6.926585e+002 -1.500000e+002
      vertex   1.500000e+002 7.000000e+002 -1.500000e+002
    endloop
  endfacet
  facet normal -4.539905e-001 8.910065e-001 -5.594808e-018
    outer loop
      vertex   6.183221e+001 6.713525e+002 -1.500000e+002
      vertex   9.322597e+001 6.873485e+002 -1.500000e+002
      vertex   9.322597e+001 6.873485e+002 -2.350000e+003
    endloop
  endfacet
  facet normal -7.071068e-001 7.071068e-001 -4.200431e-018
    outer loop
      vertex   2.864745e+001 6.381678e+002 -1.500000e+002
      vertex   4.523983e+001 6.547602e+002 -1.500000e+002
      vertex   4.523983e+001 6.547602e+002 -2.350000e+003
    endloop
  endfacet
  facet normal -8.910065e-001 4.539905e-001 0.000000e+000
    outer loop
      vertex   7.341523e+000 5.963525e+002 -1.500000e+002
      vertex   1.265153e+001 6.067740e+002 -1.500000e+002
      vertex   1.265153e+001 6.067740e+002 -2.350000e+003
    endloop
  endfacet
  facet normal -9.807823e-001 -2.456628e-003 1.950897e-001
    outer loop
      vertex   0.000000e+000 -2.000000e+002 -1.500000e+002
      vertex   1.141807e+001 -2.000000e+002 -9.259749e+001
      vertex   7.341523e+000 5.500000e+002 -1.036475e+002
    endloop
  endfacet
  facet normal -8.910050e-001 1.845795e-003 4.539897e-001
    outer loop
      vertex   1.141807e+001 -2.000000e+002 -9.259749e+001
      vertex   1.265153e+001 5.500000e+002 -9.322597e+001
      vertex   7.341523e+000 5.500000e+002 -1.036475e+002
    endloop
  endfacet
  facet normal -8.314640e-001 -3.688726e-003 5.555665e-001
    outer loop
      vertex   1.141807e+001 -2.000000e+002 -9.259749e+001
      vertex   4.393398e+001 -2.000000e+002 -4.393398e+001
      vertex   2.864745e+001 5.500000e+002 -6.183221e+001
    endloop
  endfacet
  facet normal -7.071046e-001 2.462324e-003 7.071046e-001
    outer loop
      vertex   4.393398e+001 -2.000000e+002 -4.393398e+001
      vertex   4.523983e+001 5.500000e+002 -4.523983e+001
      vertex   2.864745e+001 5.500000e+002 -6.183221e+001
    endloop
  endfacet
  facet normal -4.539897e-001 1.845795e-003 8.910050e-001
    outer loop
      vertex   9.259749e+001 -2.000000e+002 -1.141807e+001
      vertex   9.322597e+001 5.500000e+002 -1.265153e+001
      vertex   6.183221e+001 5.500000e+002 -2.864745e+001
    endloop
  endfacet
  facet normal -5.555665e-001 -3.688726e-003 8.314640e-001
    outer loop
      vertex   6.183221e+001 5.500000e+002 -2.864745e+001
      vertex   4.393398e+001 -2.000000e+002 -4.393398e+001
      vertex   9.259749e+001 -2.000000e+002 -1.141807e+001
    endloop
  endfacet
  facet normal -1.564345e-001 0.000000e+000 9.876883e-001
    outer loop
      vertex   1.500000e+002 -2.000000e+002 0.000000e+000
      vertex   1.500000e+002 5.500000e+002 0.000000e+000
      vertex   1.036475e+002 5.500000e+002 -7.341523e+000
    endloop
  endfacet
  facet normal -1.950897e-001 -2.456628e-003 9.807823e-001
    outer loop
      vertex   1.036475e+002 5.500000e+002 -7.341523e+000
      vertex   9.259749e+001 -2.000000e+002 -1.141807e+001
      vertex   1.500000e+002 -2.000000e+002 0.000000e+000
    endloop
  endfacet
  facet normal -4.539897e-001 1.845795e-003 8.910050e-001
    outer loop
      vertex   1.036475e+002 5.500000e+002 -7.341523e+000
      vertex   9.322597e+001 5.500000e+002 -1.265153e+001
      vertex   9.259749e+001 -2.000000e+002 -1.141807e+001
    endloop
  endfacet
  facet normal -7.071046e-001 2.462324e-003 7.071046e-001
    outer loop
      vertex   6.183221e+001 5.500000e+002 -2.864745e+001
      vertex   4.523983e+001 5.500000e+002 -4.523983e+001
      vertex   4.393398e+001 -2.000000e+002 -4.393398e+001
    endloop
  endfacet
  facet normal -8.910050e-001 1.845795e-003 4.539897e-001
    outer loop
      vertex   2.864745e+001 5.500000e+002 -6.183221e+001
      vertex   1.265153e+001 5.500000e+002 -9.322597e+001
      vertex   1.141807e+001 -2.000000e+002 -9.259749e+001
    endloop
  endfacet
  facet normal -9.876883e-001 6.160633e-018 1.564345e-001
    outer loop
      vertex   7.341523e+000 5.500000e+002 -1.036475e+002
      vertex   0.000000e+000 5.500000e+002 -1.500000e+002
      vertex   0.000000e+000 -2.000000e+002 -1.500000e+002
    endloop
  endfacet
  facet normal -9.758205e-001 1.545548e-001 1.545548e-001
    outer loop
      vertex   7.341523e+000 5.963525e+002 -1.500000e+002
      vertex   0.000000e+000 5.500000e+002 -1.500000e+002
      vertex   7.341523e+000 5.500000e+002 -1.036475e+002
    endloop
  endfacet
  facet normal -8.803004e-001 1.545548e-001 4.485354e-001
    outer loop
      vertex   3.458687e+001 5.963525e+002 -6.614745e+001
      vertex   1.432373e+001 5.963525e+002 -1.059161e+002
      vertex   1.265153e+001 5.500000e+002 -9.322597e+001
    endloop
  endfacet
  facet normal -8.803004e-001 1.545548e-001 4.485354e-001
    outer loop
      vertex   1.432373e+001 5.963525e+002 -1.059161e+002
      vertex   7.341523e+000 5.500000e+002 -1.036475e+002
      vertex   1.265153e+001 5.500000e+002 -9.322597e+001
    endloop
  endfacet
  facet normal -6.986103e-001 1.545548e-001 6.986103e-001
    outer loop
      vertex   3.458687e+001 5.963525e+002 -6.614745e+001
      vertex   2.864745e+001 5.500000e+002 -6.183221e+001
      vertex   4.523983e+001 5.500000e+002 -4.523983e+001
    endloop
  endfacet
  facet normal -6.986103e-001 1.545548e-001 6.986103e-001
    outer loop
      vertex   4.523983e+001 5.500000e+002 -4.523983e+001
      vertex   6.614745e+001 5.963525e+002 -3.458687e+001
      vertex   3.458687e+001 5.963525e+002 -6.614745e+001
    endloop
  endfacet
  facet normal -4.485354e-001 1.545548e-001 8.803004e-001
    outer loop
      vertex   6.614745e+001 5.963525e+002 -3.458687e+001
      vertex   6.183221e+001 5.500000e+002 -2.864745e+001
      vertex   9.322597e+001 5.500000e+002 -1.265153e+001
    endloop
  endfacet
  facet normal -4.485354e-001 1.545548e-001 8.803004e-001
    outer loop
      vertex   9.322597e+001 5.500000e+002 -1.265153e+001
      vertex   1.059161e+002 5.963525e+002 -1.432373e+001
      vertex   6.614745e+001 5.963525e+002 -3.458687e+001
    endloop
  endfacet
  facet normal -1.545548e-001 1.545548e-001 9.758205e-001
    outer loop
      vertex   1.059161e+002 5.963525e+002 -1.432373e+001
      vertex   1.036475e+002 5.500000e+002 -7.341523e+000
      vertex   1.500000e+002 5.500000e+002 0.000000e+000
    endloop
  endfacet
  facet normal -8.822646e-001 4.495362e-001 1.397370e-001
    outer loop
      vertex   3.458687e+001 6.381678e+002 -1.125000e+002
      vertex   2.864745e+001 6.381678e+002 -1.500000e+002
      vertex   1.265153e+001 6.067740e+002 -1.500000e+002
    endloop
  endfacet
  facet normal -8.822646e-001 4.495362e-001 1.397370e-001
    outer loop
      vertex   1.265153e+001 6.067740e+002 -1.500000e+002
      vertex   1.432373e+001 5.963525e+002 -1.059161e+002
      vertex   3.458687e+001 6.381678e+002 -1.125000e+002
    endloop
  endfacet
  facet normal -7.959024e-001 4.495362e-001 4.055325e-001
    outer loop
      vertex   3.458687e+001 6.381678e+002 -1.125000e+002
      vertex   1.432373e+001 5.963525e+002 -1.059161e+002
      vertex   3.458687e+001 5.963525e+002 -6.614745e+001
    endloop
  endfacet
  facet normal -6.316317e-001 4.495362e-001 6.316317e-001
    outer loop
      vertex   5.182373e+001 6.381678e+002 -7.867076e+001
      vertex   3.458687e+001 5.963525e+002 -6.614745e+001
      vertex   6.614745e+001 5.963525e+002 -3.458687e+001
    endloop
  endfacet
  facet normal -4.055325e-001 4.495362e-001 7.959024e-001
    outer loop
      vertex   7.867076e+001 6.381678e+002 -5.182373e+001
      vertex   6.614745e+001 5.963525e+002 -3.458687e+001
      vertex   1.059161e+002 5.963525e+002 -1.432373e+001
    endloop
  endfacet
  facet normal -1.397370e-001 4.495362e-001 8.822646e-001
    outer loop
      vertex   1.125000e+002 6.381678e+002 -3.458687e+001
      vertex   1.059161e+002 5.963525e+002 -1.432373e+001
      vertex   1.500000e+002 6.067740e+002 -1.265153e+001
    endloop
  endfacet
  facet normal -1.397370e-001 4.495362e-001 8.822646e-001
    outer loop
      vertex   1.059161e+002 5.963525e+002 -1.432373e+001
      vertex   1.500000e+002 5.963525e+002 -7.341523e+000
      vertex   1.500000e+002 6.067740e+002 -1.265153e+001
    endloop
  endfacet
  facet normal -7.027135e-001 7.027135e-001 1.112989e-001
    outer loop
      vertex   6.614745e+001 6.713525e+002 -1.227547e+002
      vertex   6.183221e+001 6.713525e+002 -1.500000e+002
      vertex   4.523983e+001 6.547602e+002 -1.500000e+002
    endloop
  endfacet
  facet normal -7.027135e-001 7.027135e-001 1.112989e-001
    outer loop
      vertex   4.523983e+001 6.547602e+002 -1.500000e+002
      vertex   3.458687e+001 6.381678e+002 -1.125000e+002
      vertex   6.614745e+001 6.713525e+002 -1.227547e+002
    endloop
  endfacet
  facet normal -6.339270e-001 7.027135e-001 3.230019e-001
    outer loop
      vertex   6.614745e+001 6.713525e+002 -1.227547e+002
      vertex   3.458687e+001 6.381678e+002 -1.125000e+002
      vertex   5.182373e+001 6.381678e+002 -7.867076e+001
    endloop
  endfacet
  facet normal -5.030873e-001 7.027135e-001 5.030873e-001
    outer loop
      vertex   7.867076e+001 6.713525e+002 -9.817627e+001
      vertex   5.182373e+001 6.381678e+002 -7.867076e+001
      vertex   7.867076e+001 6.381678e+002 -5.182373e+001
    endloop
  endfacet
  facet normal -3.230019e-001 7.027135e-001 6.339270e-001
    outer loop
      vertex   9.817627e+001 6.713525e+002 -7.867076e+001
      vertex   7.867076e+001 6.381678e+002 -5.182373e+001
      vertex   1.125000e+002 6.381678e+002 -3.458687e+001
    endloop
  endfacet
  facet normal -1.112989e-001 7.027135e-001 7.027135e-001
    outer loop
      vertex   1.227547e+002 6.713525e+002 -6.614745e+001
      vertex   1.125000e+002 6.381678e+002 -3.458687e+001
      vertex   1.500000e+002 6.547602e+002 -4.523983e+001
    endloop
  endfacet
  facet normal -1.112989e-001 7.027135e-001 7.027135e-001
    outer loop
      vertex   1.125000e+002 6.381678e+002 -3.458687e+001
      vertex   1.500000e+002 6.381678e+002 -2.864745e+001
      vertex   1.500000e+002 6.547602e+002 -4.523983e+001
    endloop
  endfacet
  facet normal -4.528214e-001 8.887120e-001 7.171986e-002
    outer loop
      vertex   6.614745e+001 6.713525e+002 -1.227547e+002
      vertex   1.059161e+002 6.926585e+002 -1.356763e+002
      vertex   9.322597e+001 6.873485e+002 -1.500000e+002
    endloop
  endfacet
  facet normal -4.528214e-001 8.887120e-001 7.171986e-002
    outer loop
      vertex   1.059161e+002 6.926585e+002 -1.356763e+002
      vertex   1.036475e+002 6.926585e+002 -1.500000e+002
      vertex   9.322597e+001 6.873485e+002 -1.500000e+002
    endloop
  endfacet
  facet normal -4.084961e-001 8.887120e-001 2.081391e-001
    outer loop
      vertex   1.059161e+002 6.926585e+002 -1.356763e+002
      vertex   6.614745e+001 6.713525e+002 -1.227547e+002
      vertex   7.867076e+001 6.713525e+002 -9.817627e+001
    endloop
  endfacet
  facet normal -3.241843e-001 8.887120e-001 3.241843e-001
    outer loop
      vertex   1.125000e+002 6.926585e+002 -1.227547e+002
      vertex   7.867076e+001 6.713525e+002 -9.817627e+001
      vertex   9.817627e+001 6.713525e+002 -7.867076e+001
    endloop
  endfacet
  facet normal -2.081391e-001 8.887120e-001 4.084961e-001
    outer loop
      vertex   1.227547e+002 6.926585e+002 -1.125000e+002
      vertex   9.817627e+001 6.713525e+002 -7.867076e+001
      vertex   1.227547e+002 6.713525e+002 -6.614745e+001
    endloop
  endfacet
  facet normal -7.171986e-002 8.887120e-001 4.528214e-001
    outer loop
      vertex   1.227547e+002 6.713525e+002 -6.614745e+001
      vertex   1.500000e+002 6.713525e+002 -6.183221e+001
      vertex   1.500000e+002 6.873485e+002 -9.322597e+001
    endloop
  endfacet
  facet normal -7.171986e-002 8.887120e-001 4.528214e-001
    outer loop
      vertex   1.500000e+002 6.873485e+002 -9.322597e+001
      vertex   1.356763e+002 6.926585e+002 -1.059161e+002
      vertex   1.227547e+002 6.713525e+002 -6.614745e+001
    endloop
  endfacet
  facet normal -2.476918e-002 9.873853e-001 1.563865e-001
    outer loop
      vertex   1.500000e+002 7.000000e+002 -1.500000e+002
      vertex   1.356763e+002 6.926585e+002 -1.059161e+002
      vertex   1.500000e+002 6.926585e+002 -1.036475e+002
    endloop
  endfacet
  facet normal -7.188297e-002 9.873853e-001 1.410783e-001
    outer loop
      vertex   1.500000e+002 7.000000e+002 -1.500000e+002
      vertex   1.227547e+002 6.926585e+002 -1.125000e+002
      vertex   1.356763e+002 6.926585e+002 -1.059161e+002
    endloop
  endfacet
  facet normal -1.119604e-001 9.873853e-001 1.119604e-001
    outer loop
      vertex   1.500000e+002 7.000000e+002 -1.500000e+002
      vertex   1.125000e+002 6.926585e+002 -1.227547e+002
      vertex   1.227547e+002 6.926585e+002 -1.125000e+002
    endloop
  endfacet
  facet normal -1.410783e-001 9.873853e-001 7.188297e-002
    outer loop
      vertex   1.500000e+002 7.000000e+002 -1.500000e+002
      vertex   1.059161e+002 6.926585e+002 -1.356763e+002
      vertex   1.125000e+002 6.926585e+002 -1.227547e+002
    endloop
  endfacet
  facet normal -1.563865e-001 9.873853e-001 2.476918e-002
    outer loop
      vertex   1.500000e+002 7.000000e+002 -1.500000e+002
      vertex   1.036475e+002 6.926585e+002 -1.500000e+002
      vertex   1.059161e+002 6.926585e+002 -1.356763e+002
    endloop
  endfacet
  facet normal -7.171986e-002 8.887120e-001 4.528214e-001
    outer loop
      vertex   1.500000e+002 6.873485e+002 -9.322597e+001
      vertex   1.500000e+002 6.926585e+002 -1.036475e+002
      vertex   1.356763e+002 6.926585e+002 -1.059161e+002
    endloop
  endfacet
  facet normal -2.081391e-001 8.887120e-001 4.084961e-001
    outer loop
      vertex   1.227547e+002 6.713525e+002 -6.614745e+001
      vertex   1.356763e+002 6.926585e+002 -1.059161e+002
      vertex   1.227547e+002 6.926585e+002 -1.125000e+002
    endloop
  endfacet
  facet normal -3.241843e-001 8.887120e-001 3.241843e-001
    outer loop
      vertex   9.817627e+001 6.713525e+002 -7.867076e+001
      vertex   1.227547e+002 6.926585e+002 -1.125000e+002
      vertex   1.125000e+002 6.926585e+002 -1.227547e+002
    endloop
  endfacet
  facet normal -4.084961e-001 8.887120e-001 2.081391e-001
    outer loop
      vertex   7.867076e+001 6.713525e+002 -9.817627e+001
      vertex   1.125000e+002 6.926585e+002 -1.227547e+002
      vertex   1.059161e+002 6.926585e+002 -1.356763e+002
    endloop
  endfacet
  facet normal -4.528214e-001 8.887120e-001 7.171986e-002
    outer loop
      vertex   9.322597e+001 6.873485e+002 -1.500000e+002
      vertex   6.183221e+001 6.713525e+002 -1.500000e+002
      vertex   6.614745e+001 6.713525e+002 -1.227547e+002
    endloop
  endfacet
  facet normal -1.112989e-001 7.027135e-001 7.027135e-001
    outer loop
      vertex   1.500000e+002 6.547602e+002 -4.523983e+001
      vertex   1.500000e+002 6.713525e+002 -6.183221e+001
      vertex   1.227547e+002 6.713525e+002 -6.614745e+001
    endloop
  endfacet
  facet normal -3.230019e-001 7.027135e-001 6.339270e-001
    outer loop
      vertex   1.125000e+002 6.381678e+002 -3.458687e+001
      vertex   1.227547e+002 6.713525e+002 -6.614745e+001
      vertex   9.817627e+001 6.713525e+002 -7.867076e+001
    endloop
  endfacet
  facet normal -5.030873e-001 7.027135e-001 5.030873e-001
    outer loop
      vertex   7.867076e+001 6.381678e+002 -5.182373e+001
      vertex   9.817627e+001 6.713525e+002 -7.867076e+001
      vertex   7.867076e+001 6.713525e+002 -9.817627e+001
    endloop
  endfacet
  facet normal -6.339270e-001 7.027135e-001 3.230019e-001
    outer loop
      vertex   5.182373e+001 6.381678e+002 -7.867076e+001
      vertex   7.867076e+001 6.713525e+002 -9.817627e+001
      vertex   6.614745e+001 6.713525e+002 -1.227547e+002
    endloop
  endfacet
  facet normal -7.027135e-001 7.027135e-001 1.112989e-001
    outer loop
      vertex   4.523983e+001 6.547602e+002 -1.500000e+002
      vertex   2.864745e+001 6.381678e+002 -1.500000e+002
      vertex   3.458687e+001 6.381678e+002 -1.125000e+002
    endloop
  endfacet
  facet normal -1.397370e-001 4.495362e-001 8.822646e-001
    outer loop
      vertex   1.500000e+002 6.067740e+002 -1.265153e+001
      vertex   1.500000e+002 6.381678e+002 -2.864745e+001
      vertex   1.125000e+002 6.381678e+002 -3.458687e+001
    endloop
  endfacet
  facet normal -4.055325e-001 4.495362e-001 7.959024e-001
    outer loop
      vertex   1.059161e+002 5.963525e+002 -1.432373e+001
      vertex   1.125000e+002 6.381678e+002 -3.458687e+001
      vertex   7.867076e+001 6.381678e+002 -5.182373e+001
    endloop
  endfacet
  facet normal -6.316317e-001 4.495362e-001 6.316317e-001
    outer loop
      vertex   6.614745e+001 5.963525e+002 -3.458687e+001
      vertex   7.867076e+001 6.381678e+002 -5.182373e+001
      vertex   5.182373e+001 6.381678e+002 -7.867076e+001
    endloop
  endfacet
  facet normal -7.959024e-001 4.495362e-001 4.055325e-001
    outer loop
      vertex   3.458687e+001 5.963525e+002 -6.614745e+001
      vertex   5.182373e+001 6.381678e+002 -7.867076e+001
      vertex   3.458687e+001 6.381678e+002 -1.125000e+002
    endloop
  endfacet
  facet normal -8.822646e-001 4.495362e-001 1.397370e-001
    outer loop
      vertex   1.265153e+001 6.067740e+002 -1.500000e+002
      vertex   7.341523e+000 5.963525e+002 -1.500000e+002
      vertex   1.432373e+001 5.963525e+002 -1.059161e+002
    endloop
  endfacet
  facet normal -1.545548e-001 1.545548e-001 9.758205e-001
    outer loop
      vertex   1.500000e+002 5.500000e+002 0.000000e+000
      vertex   1.500000e+002 5.963525e+002 -7.341523e+000
      vertex   1.059161e+002 5.963525e+002 -1.432373e+001
    endloop
  endfacet
  facet normal -4.485354e-001 1.545548e-001 8.803004e-001
    outer loop
      vertex   9.322597e+001 5.500000e+002 -1.265153e+001
      vertex   1.036475e+002 5.500000e+002 -7.341523e+000
      vertex   1.059161e+002 5.963525e+002 -1.432373e+001
    endloop
  endfacet
  facet normal -6.986103e-001 1.545548e-001 6.986103e-001
    outer loop
      vertex   4.523983e+001 5.500000e+002 -4.523983e+001
      vertex   6.183221e+001 5.500000e+002 -2.864745e+001
      vertex   6.614745e+001 5.963525e+002 -3.458687e+001
    endloop
  endfacet
  facet normal -8.803004e-001 1.545548e-001 4.485354e-001
    outer loop
      vertex   1.265153e+001 5.500000e+002 -9.322597e+001
      vertex   2.864745e+001 5.500000e+002 -6.183221e+001
      vertex   3.458687e+001 5.963525e+002 -6.614745e+001
    endloop
  endfacet
  facet normal -9.758205e-001 1.545548e-001 1.545548e-001
    outer loop
      vertex   7.341523e+000 5.500000e+002 -1.036475e+002
      vertex   1.432373e+001 5.963525e+002 -1.059161e+002
      vertex   7.341523e+000 5.963525e+002 -1.500000e+002
    endloop
  endfacet
  facet normal 0.000000e+000 0.000000e+000 -1.000000e+000
    outer loop
      vertex   7.869671e+003 -2.000000e+002 -2.500000e+003
      vertex   1.500000e+002 -2.000000e+002 -2.500000e+003
      vertex   4.310000e+003 0.000000e+000 -2.500000e+003
    endloop
  endfacet
  facet normal 0.000000e+000 0.000000e+000 -1.000000e+000
    outer loop
      vertex   1.500000e+002 5.500000e+002 -2.500000e+003
      vertex   4.310000e+003 5.500000e+002 -2.500000e+003
      vertex   4.310000e+003 0.000000e+000 -2.500000e+003
    endloop
  endfacet
  facet normal -0.000000e+000 0.000000e+000 -1.000000e+000
    outer loop
      vertex   4.310000e+003 0.000000e+000 -2.500000e+003
      vertex   1.500000e+002 -2.000000e+002 -2.500000e+003
      vertex   1.500000e+002 5.500000e+002 -2.500000e+003
    endloop
  endfacet
  facet normal 0.000000e+000 0.000000e+000 -1.000000e+000
    outer loop
      vertex   4.310000e+003 0.000000e+000 -2.500000e+003
      vertex   7.869671e+003 0.000000e+000 -2.500000e+003
      vertex   7.869671e+003 -2.000000e+002 -2.500000e+003
    endloop
  endfacet
  facet normal 0.000000e+000 0.000000e+000 1.000000e+000
    outer loop
      vertex   1.500000e+002 5.500000e+002 0.000000e+000
      vertex   1.500000e+002 -2.000000e+002 0.000000e+000
      vertex   4.310000e+003 0.000000e+000 0.000000e+000
    endloop
  endfacet
  facet normal 0.000000e+000 -0.000000e+000 1.000000e+000
    outer loop
      vertex   7.869671e+003 -2.000000e+002 0.000000e+000
      vertex   7.869671e+003 0.000000e+000 0.000000e+000
      vertex   4.310000e+003 0.000000e+000 0.000000e+000
    endloop
  endfacet
  facet normal 0.000000e+000 0.000000e+000 1.000000e+000
    outer loop
      vertex   4.310000e+003 0.000000e+000 0.000000e+000
      vertex   1.500000e+002 -2.000000e+002 0.000000e+000
      vertex   7.869671e+003 -2.000000e+002 0.000000e+000
    endloop
  endfacet
  facet normal 0.000000e+000 -0.000000e+000 1.000000e+000
    outer loop
      vertex   4.310000e+003 0.000000e+000 0.000000e+000
      vertex   4.310000e+003 5.500000e+002 0.000000e+000
      vertex   1.500000e+002 5.500000e+002 0.000000e+000
    endloop
  endfacet
  facet normal -6.343933e-001 0.000000e+000 7.730105e-001
    outer loop
      vertex   8.258570e+003 -2.000000e+002 1.179713e+002
      vertex   8.364645e+003 -2.000000e+002 2.050253e+002
      vertex   8.364645e+003 0.000000e+000 2.050253e+002
    endloop
  endfacet
  facet normal -4.713967e-001 0.000000e+000 8.819213e-001
    outer loop
      vertex   8.137549e+003 -2.000000e+002 5.328433e+001
      vertex   8.258570e+003 -2.000000e+002 1.179713e+002
      vertex   8.258570e+003 0.000000e+000 1.179713e+002
    endloop
  endfacet
  facet normal -2.902847e-001 0.000000e+000 9.569403e-001
    outer loop
      vertex   8.006234e+003 -2.000000e+002 1.345030e+001
      vertex   8.137549e+003 -2.000000e+002 5.328433e+001
      vertex   8.137549e+003 0.000000e+000 5.328433e+001
    endloop
  endfacet
  facet normal -9.801714e-002 0.000000e+000 9.951847e-001
    outer loop
      vertex   7.869671e+003 -2.000000e+002 0.000000e+000
      vertex   8.006234e+003 -2.000000e+002 1.345030e+001
      vertex   8.006234e+003 0.000000e+000 1.345030e+001
    endloop
  endfacet
  facet normal -9.801714e-002 0.000000e+000 9.951847e-001
    outer loop
      vertex   8.006234e+003 0.000000e+000 1.345030e+001
      vertex   7.869671e+003 0.000000e+000 0.000000e+000
      vertex   7.869671e+003 -2.000000e+002 0.000000e+000
    endloop
  endfacet
  facet normal -2.902847e-001 0.000000e+000 9.569403e-001
    outer loop
      vertex   8.137549e+003 0.000000e+000 5.328433e+001
      vertex   8.006234e+003 0.000000e+000 1.345030e+001
      vertex   8.006234e+003 -2.000000e+002 1.345030e+001
    endloop
  endfacet
  facet normal -4.713967e-001 0.000000e+000 8.819213e-001
    outer loop
      vertex   8.258570e+003 0.000000e+000 1.179713e+002
      vertex   8.137549e+003 0.000000e+000 5.328433e+001
      vertex   8.137549e+003 -2.000000e+002 5.328433e+001
    endloop
  endfacet
  facet normal -6.343933e-001 0.000000e+000 7.730105e-001
    outer loop
      vertex   8.364645e+003 0.000000e+000 2.050253e+002
      vertex   8.258570e+003 0.000000e+000 1.179713e+002
      vertex   8.258570e+003 -2.000000e+002 1.179713e+002
    endloop
  endfacet
  facet normal -9.801714e-002 0.000000e+000 -9.951847e-001
    outer loop
      vertex   8.006234e+003 -2.000000e+002 -2.513450e+003
      vertex   7.869671e+003 -2.000000e+002 -2.500000e+003
      vertex   7.869671e+003 0.000000e+000 -2.500000e+003
    endloop
  endfacet
  facet normal -2.902847e-001 0.000000e+000 -9.569403e-001
    outer loop
      vertex   8.137549e+003 -2.000000e+002 -2.553284e+003
      vertex   8.006234e+003 -2.000000e+002 -2.513450e+003
      vertex   8.006234e+003 0.000000e+000 -2.513450e+003
    endloop
  endfacet
  facet normal -4.713967e-001 0.000000e+000 -8.819213e-001
    outer loop
      vertex   8.258570e+003 -2.000000e+002 -2.617971e+003
      vertex   8.137549e+003 -2.000000e+002 -2.553284e+003
      vertex   8.137549e+003 0.000000e+000 -2.553284e+003
    endloop
  endfacet
  facet normal -6.343933e-001 0.000000e+000 -7.730105e-001
    outer loop
      vertex   8.364645e+003 -2.000000e+002 -2.705025e+003
      vertex   8.258570e+003 -2.000000e+002 -2.617971e+003
      vertex   8.258570e+003 0.000000e+000 -2.617971e+003
    endloop
  endfacet
  facet normal -6.343933e-001 0.000000e+000 -7.730105e-001
    outer loop
      vertex   8.258570e+003 0.000000e+000 -2.617971e+003
      vertex   8.364645e+003 0.000000e+000 -2.705025e+003
      vertex   8.364645e+003 -2.000000e+002 -2.705025e+003
    endloop
  endfacet
  facet normal -4.713967e-001 0.000000e+000 -8.819213e-001
    outer loop
      vertex   8.137549e+003 0.000000e+000 -2.553284e+003
      vertex   8.258570e+003 0.000000e+000 -2.617971e+003
      vertex   8.258570e+003 -2.000000e+002 -2.617971e+003
    endloop
  endfacet
  facet normal -2.902847e-001 0.000000e+000 -9.569403e-001
    outer loop
      vertex   8.006234e+003 0.000000e+000 -2.513450e+003
      vertex   8.137549e+003 0.000000e+000 -2.553284e+003
      vertex   8.137549e+003 -2.000000e+002 -2.553284e+003
    endloop
  endfacet
  facet normal -9.801714e-002 0.000000e+000 -9.951847e-001
    outer loop
      vertex   7.869671e+003 0.000000e+000 -2.500000e+003
      vertex   8.006234e+003 0.000000e+000 -2.513450e+003
      vertex   8.006234e+003 -2.000000e+002 -2.513450e+003
    endloop
  endfacet
  facet normal -7.071068e-001 0.000000e+000 7.071068e-001
    outer loop
      vertex   8.364645e+003 0.000000e+000 2.050253e+002
      vertex   8.364645e+003 -2.000000e+002 2.050253e+002
      vertex   8.804595e+003 -2.000000e+002 6.449747e+002
    endloop
  endfacet
  facet normal -7.071068e-001 0.000000e+000 7.071068e-001
    outer loop
      vertex   8.804595e+003 -2.000000e+002 6.449747e+002
      vertex   8.804595e+003 0.000000e+000 6.449747e+002
      vertex   8.364645e+003 0.000000e+000 2.050253e+002
    endloop
  endfacet
  facet normal -6.343933e-001 0.000000e+000 7.730105e-001
    outer loop
      vertex   8.804595e+003 0.000000e+000 6.449747e+002
      vertex   8.804595e+003 -2.000000e+002 6.449747e+002
      vertex   8.910670e+003 -2.000000e+002 7.320287e+002
    endloop
  endfacet
  facet normal -4.713967e-001 0.000000e+000 8.819213e-001
    outer loop
      vertex   8.910670e+003 0.000000e+000 7.320287e+002
      vertex   8.910670e+003 -2.000000e+002 7.320287e+002
      vertex   9.031691e+003 -2.000000e+002 7.967157e+002
    endloop
  endfacet
  facet normal -2.902847e-001 0.000000e+000 9.569403e-001
    outer loop
      vertex   9.031691e+003 0.000000e+000 7.967157e+002
      vertex   9.031691e+003 -2.000000e+002 7.967157e+002
      vertex   9.163006e+003 -2.000000e+002 8.365497e+002
    endloop
  endfacet
  facet normal -9.801714e-002 0.000000e+000 9.951847e-001
    outer loop
      vertex   9.163006e+003 0.000000e+000 8.365497e+002
      vertex   9.163006e+003 -2.000000e+002 8.365497e+002
      vertex   9.299569e+003 -2.000000e+002 8.500000e+002
    endloop
  endfacet
  facet normal -9.801714e-002 0.000000e+000 9.951847e-001
    outer loop
      vertex   9.299569e+003 -2.000000e+002 8.500000e+002
      vertex   9.299569e+003 0.000000e+000 8.500000e+002
      vertex   9.163006e+003 0.000000e+000 8.365497e+002
    endloop
  endfacet
  facet normal -2.902847e-001 0.000000e+000 9.569403e-001
    outer loop
      vertex   9.163006e+003 -2.000000e+002 8.365497e+002
      vertex   9.163006e+003 0.000000e+000 8.365497e+002
      vertex   9.031691e+003 0.000000e+000 7.967157e+002
    endloop
  endfacet
  facet normal -4.713967e-001 0.000000e+000 8.819213e-001
    outer loop
      vertex   9.031691e+003 -2.000000e+002 7.967157e+002
      vertex   9.031691e+003 0.000000e+000 7.967157e+002
      vertex   8.910670e+003 0.000000e+000 7.320287e+002
    endloop
  endfacet
  facet normal -6.343933e-001 0.000000e+000 7.730105e-001
    outer loop
      vertex   8.910670e+003 -2.000000e+002 7.320287e+002
      vertex   8.910670e+003 0.000000e+000 7.320287e+002
      vertex   8.804595e+003 0.000000e+000 6.449747e+002
    endloop
  endfacet
  facet normal 1.470445e-016 0.000000e+000 1.000000e+000
    outer loop
      vertex   9.299569e+003 0.000000e+000 8.500000e+002
      vertex   9.299569e+003 -2.000000e+002 8.500000e+002
      vertex   1.080962e+004 -2.000000e+002 8.500000e+002
    endloop
  endfacet
  facet normal 1.470445e-016 -0.000000e+000 1.000000e+000
    outer loop
      vertex   1.080962e+004 -2.000000e+002 8.500000e+002
      vertex   1.080962e+004 0.000000e+000 8.500000e+002
      vertex   9.299569e+003 0.000000e+000 8.500000e+002
    endloop
  endfacet
  facet normal 1.119645e-001 0.000000e+000 9.937122e-001
    outer loop
      vertex   1.080962e+004 0.000000e+000 8.500000e+002
      vertex   1.080962e+004 -2.000000e+002 8.500000e+002
      vertex   1.096538e+004 -2.000000e+002 8.324495e+002
    endloop
  endfacet
  facet normal 3.302791e-001 0.000000e+000 9.438833e-001
    outer loop
      vertex   1.096538e+004 0.000000e+000 8.324495e+002
      vertex   1.096538e+004 -2.000000e+002 8.324495e+002
      vertex   1.111334e+004 -2.000000e+002 7.806782e+002
    endloop
  endfacet
  facet normal 5.320321e-001 0.000000e+000 8.467242e-001
    outer loop
      vertex   1.111334e+004 0.000000e+000 7.806782e+002
      vertex   1.111334e+004 -2.000000e+002 7.806782e+002
      vertex   1.124606e+004 -2.000000e+002 6.972820e+002
    endloop
  endfacet
  facet normal 7.071068e-001 0.000000e+000 7.071068e-001
    outer loop
      vertex   1.124606e+004 0.000000e+000 6.972820e+002
      vertex   1.124606e+004 -2.000000e+002 6.972820e+002
      vertex   1.135690e+004 -2.000000e+002 5.864429e+002
    endloop
  endfacet
  facet normal 8.467242e-001 0.000000e+000 5.320321e-001
    outer loop
      vertex   1.135690e+004 0.000000e+000 5.864429e+002
      vertex   1.135690e+004 -2.000000e+002 5.864429e+002
      vertex   1.144030e+004 -2.000000e+002 4.537186e+002
    endloop
  endfacet
  facet normal 9.438833e-001 0.000000e+000 3.302791e-001
    outer loop
      vertex   1.144030e+004 0.000000e+000 4.537186e+002
      vertex   1.144030e+004 -2.000000e+002 4.537186e+002
      vertex   1.149207e+004 -2.000000e+002 3.057647e+002
    endloop
  endfacet
  facet normal 9.937122e-001 0.000000e+000 1.119645e-001
    outer loop
      vertex   1.149207e+004 0.000000e+000 3.057647e+002
      vertex   1.149207e+004 -2.000000e+002 3.057647e+002
      vertex   1.150962e+004 -2.000000e+002 1.500000e+002
    endloop
  endfacet
  facet normal 9.937122e-001 -0.000000e+000 1.119645e-001
    outer loop
      vertex   1.150962e+004 -2.000000e+002 1.500000e+002
      vertex   1.150962e+004 0.000000e+000 1.500000e+002
      vertex   1.149207e+004 0.000000e+000 3.057647e+002
    endloop
  endfacet
  facet normal 9.438833e-001 -0.000000e+000 3.302791e-001
    outer loop
      vertex   1.149207e+004 -2.000000e+002 3.057647e+002
      vertex   1.149207e+004 0.000000e+000 3.057647e+002
      vertex   1.144030e+004 0.000000e+000 4.537186e+002
    endloop
  endfacet
  facet normal 8.467242e-001 -0.000000e+000 5.320321e-001
    outer loop
      vertex   1.144030e+004 -2.000000e+002 4.537186e+002
      vertex   1.144030e+004 0.000000e+000 4.537186e+002
      vertex   1.135690e+004 0.000000e+000 5.864429e+002
    endloop
  endfacet
  facet normal 7.071068e-001 -0.000000e+000 7.071068e-001
    outer loop
      vertex   1.135690e+004 -2.000000e+002 5.864429e+002
      vertex   1.135690e+004 0.000000e+000 5.864429e+002
      vertex   1.124606e+004 0.000000e+000 6.972820e+002
    endloop
  endfacet
  facet normal 5.320321e-001 -0.000000e+000 8.467242e-001
    outer loop
      vertex   1.124606e+004 -2.000000e+002 6.972820e+002
      vertex   1.124606e+004 0.000000e+000 6.972820e+002
      vertex   1.111334e+004 0.000000e+000 7.806782e+002
    endloop
  endfacet
  facet normal 3.302791e-001 -0.000000e+000 9.438833e-001
    outer loop
      vertex   1.111334e+004 -2.000000e+002 7.806782e+002
      vertex   1.111334e+004 0.000000e+000 7.806782e+002
      vertex   1.096538e+004 0.000000e+000 8.324495e+002
    endloop
  endfacet
  facet normal 1.119645e-001 -0.000000e+000 9.937122e-001
    outer loop
      vertex   1.096538e+004 -2.000000e+002 8.324495e+002
      vertex   1.096538e+004 0.000000e+000 8.324495e+002
      vertex   1.080962e+004 0.000000e+000 8.500000e+002
    endloop
  endfacet
  facet normal -7.071068e-001 -0.000000e+000 -7.071068e-001
    outer loop
      vertex   8.804595e+003 0.000000e+000 -3.144975e+003
      vertex   8.804595e+003 -2.000000e+002 -3.144975e+003
      vertex   8.364645e+003 -2.000000e+002 -2.705025e+003
    endloop
  endfacet
  facet normal -7.071068e-001 0.000000e+000 -7.071068e-001
    outer loop
      vertex   8.364645e+003 -2.000000e+002 -2.705025e+003
      vertex   8.364645e+003 0.000000e+000 -2.705025e+003
      vertex   8.804595e+003 0.000000e+000 -3.144975e+003
    endloop
  endfacet
  facet normal -9.801714e-002 -0.000000e+000 -9.951847e-001
    outer loop
      vertex   9.299569e+003 0.000000e+000 -3.350000e+003
      vertex   9.299569e+003 -2.000000e+002 -3.350000e+003
      vertex   9.163006e+003 -2.000000e+002 -3.336550e+003
    endloop
  endfacet
  facet normal -2.902847e-001 -0.000000e+000 -9.569403e-001
    outer loop
      vertex   9.163006e+003 0.000000e+000 -3.336550e+003
      vertex   9.163006e+003 -2.000000e+002 -3.336550e+003
      vertex   9.031691e+003 -2.000000e+002 -3.296716e+003
    endloop
  endfacet
  facet normal -4.713967e-001 -0.000000e+000 -8.819213e-001
    outer loop
      vertex   9.031691e+003 0.000000e+000 -3.296716e+003
      vertex   9.031691e+003 -2.000000e+002 -3.296716e+003
      vertex   8.910670e+003 -2.000000e+002 -3.232029e+003
    endloop
  endfacet
  facet normal -6.343933e-001 -0.000000e+000 -7.730105e-001
    outer loop
      vertex   8.910670e+003 0.000000e+000 -3.232029e+003
      vertex   8.910670e+003 -2.000000e+002 -3.232029e+003
      vertex   8.804595e+003 -2.000000e+002 -3.144975e+003
    endloop
  endfacet
  facet normal -6.343933e-001 0.000000e+000 -7.730105e-001
    outer loop
      vertex   8.804595e+003 -2.000000e+002 -3.144975e+003
      vertex   8.804595e+003 0.000000e+000 -3.144975e+003
      vertex   8.910670e+003 0.000000e+000 -3.232029e+003
    endloop
  endfacet
  facet normal -4.713967e-001 0.000000e+000 -8.819213e-001
    outer loop
      vertex   8.910670e+003 -2.000000e+002 -3.232029e+003
      vertex   8.910670e+003 0.000000e+000 -3.232029e+003
      vertex   9.031691e+003 0.000000e+000 -3.296716e+003
    endloop
  endfacet
  facet normal -2.902847e-001 0.000000e+000 -9.569403e-001
    outer loop
      vertex   9.031691e+003 -2.000000e+002 -3.296716e+003
      vertex   9.031691e+003 0.000000e+000 -3.296716e+003
      vertex   9.163006e+003 0.000000e+000 -3.336550e+003
    endloop
  endfacet
  facet normal -9.801714e-002 0.000000e+000 -9.951847e-001
    outer loop
      vertex   9.163006e+003 -2.000000e+002 -3.336550e+003
      vertex   9.163006e+003 0.000000e+000 -3.336550e+003
      vertex   9.299569e+003 0.000000e+000 -3.350000e+003
    endloop
  endfacet
  facet normal 0.000000e+000 -1.000000e+000 0.000000e+000
    outer loop
      vertex   1.141807e+001 -2.000000e+002 -2.407403e+003
      vertex   4.393398e+001 -2.000000e+002 -2.456066e+003
      vertex   9.259749e+001 -2.000000e+002 -2.488582e+003
    endloop
  endfacet
  facet normal 0.000000e+000 -1.000000e+000 0.000000e+000
    outer loop
      vertex   1.096538e+004 -2.000000e+002 -3.332450e+003
      vertex   1.124606e+004 -2.000000e+002 -3.197282e+003
      vertex   1.135690e+004 -2.000000e+002 -3.086443e+003
    endloop
  endfacet
  facet normal 1.207172e-015 -1.000000e+000 1.207172e-015
    outer loop
      vertex   1.500000e+002 -2.000000e+002 -2.500000e+003
      vertex   0.000000e+000 -2.000000e+002 -2.350000e+003
      vertex   1.141807e+001 -2.000000e+002 -2.407403e+003
    endloop
  endfacet
  facet normal 1.207172e-015 -1.000000e+000 -1.207172e-015
    outer loop
      vertex   0.000000e+000 -2.000000e+002 -1.500000e+002
      vertex   1.500000e+002 -2.000000e+002 0.000000e+000
      vertex   9.259749e+001 -2.000000e+002 -1.141807e+001
    endloop
  endfacet
  facet normal 0.000000e+000 -1.000000e+000 0.000000e+000
    outer loop
      vertex   1.096538e+004 -2.000000e+002 -3.332450e+003
      vertex   1.111334e+004 -2.000000e+002 -3.280678e+003
      vertex   1.124606e+004 -2.000000e+002 -3.197282e+003
    endloop
  endfacet
  facet normal 1.207172e-015 -1.000000e+000 1.207172e-015
    outer loop
      vertex   9.259749e+001 -2.000000e+002 -2.488582e+003
      vertex   1.500000e+002 -2.000000e+002 -2.500000e+003
      vertex   1.141807e+001 -2.000000e+002 -2.407403e+003
    endloop
  endfacet
  facet normal 0.000000e+000 -1.000000e+000 0.000000e+000
    outer loop
      vertex   7.869671e+003 -2.000000e+002 -2.500000e+003
      vertex   7.869671e+003 -2.000000e+002 0.000000e+000
      vertex   0.000000e+000 -2.000000e+002 -1.500000e+002
    endloop
  endfacet
  facet normal 4.835254e-016 -1.000000e+000 -7.236469e-016
    outer loop
      vertex   9.259749e+001 -2.000000e+002 -1.141807e+001
      vertex   4.393398e+001 -2.000000e+002 -4.393398e+001
      vertex   0.000000e+000 -2.000000e+002 -1.500000e+002
    endloop
  endfacet
  facet normal 0.000000e+000 -1.000000e+000 0.000000e+000
    outer loop
      vertex   8.258570e+003 -2.000000e+002 -2.617971e+003
      vertex   9.163006e+003 -2.000000e+002 8.365497e+002
      vertex   9.031691e+003 -2.000000e+002 7.967157e+002
    endloop
  endfacet
  facet normal 0.000000e+000 -1.000000e+000 0.000000e+000
    outer loop
      vertex   1.144030e+004 -2.000000e+002 -2.953719e+003
      vertex   1.080962e+004 -2.000000e+002 -3.350000e+003
      vertex   1.096538e+004 -2.000000e+002 -3.332450e+003
    endloop
  endfacet
  facet normal 0.000000e+000 -1.000000e+000 0.000000e+000
    outer loop
      vertex   0.000000e+000 -2.000000e+002 -1.500000e+002
      vertex   0.000000e+000 -2.000000e+002 -2.350000e+003
      vertex   7.869671e+003 -2.000000e+002 -2.500000e+003
    endloop
  endfacet
  facet normal 0.000000e+000 -1.000000e+000 0.000000e+000
    outer loop
      vertex   0.000000e+000 -2.000000e+002 -1.500000e+002
      vertex   7.869671e+003 -2.000000e+002 0.000000e+000
      vertex   1.500000e+002 -2.000000e+002 0.000000e+000
    endloop
  endfacet
  facet normal 0.000000e+000 -1.000000e+000 0.000000e+000
    outer loop
      vertex   9.031691e+003 -2.000000e+002 7.967157e+002
      vertex   8.910670e+003 -2.000000e+002 7.320287e+002
      vertex   8.258570e+003 -2.000000e+002 -2.617971e+003
    endloop
  endfacet
  facet normal 0.000000e+000 -1.000000e+000 0.000000e+000
    outer loop
      vertex   1.135690e+004 -2.000000e+002 5.864429e+002
      vertex   1.150962e+004 -2.000000e+002 1.500000e+002
      vertex   1.149207e+004 -2.000000e+002 3.057647e+002
    endloop
  endfacet
  facet normal 0.000000e+000 -1.000000e+000 0.000000e+000
    outer loop
      vertex   1.080962e+004 -2.000000e+002 -3.350000e+003
      vertex   1.150962e+004 -2.000000e+002 -2.650000e+003
      vertex   1.150962e+004 -2.000000e+002 1.500000e+002
    endloop
  endfacet
  facet normal -0.000000e+000 -1.000000e+000 0.000000e+000
    outer loop
      vertex   1.135690e+004 -2.000000e+002 -3.086443e+003
      vertex   1.144030e+004 -2.000000e+002 -2.953719e+003
      vertex   1.096538e+004 -2.000000e+002 -3.332450e+003
    endloop
  endfacet
  facet normal 0.000000e+000 -1.000000e+000 0.000000e+000
    outer loop
      vertex   1.135690e+004 -2.000000e+002 5.864429e+002
      vertex   8.910670e+003 -2.000000e+002 -3.232029e+003
      vertex   9.031691e+003 -2.000000e+002 -3.296716e+003
    endloop
  endfacet
  facet normal 2.060772e-015 -1.000000e+000 -1.376964e-015
    outer loop
      vertex   4.393398e+001 -2.000000e+002 -4.393398e+001
      vertex   1.141807e+001 -2.000000e+002 -9.259749e+001
      vertex   0.000000e+000 -2.000000e+002 -1.500000e+002
    endloop
  endfacet
  facet normal 0.000000e+000 -1.000000e+000 0.000000e+000
    outer loop
      vertex   8.258570e+003 -2.000000e+002 -2.617971e+003
      vertex   9.299569e+003 -2.000000e+002 8.500000e+002
      vertex   9.163006e+003 -2.000000e+002 8.365497e+002
    endloop
  endfacet
  facet normal -0.000000e+000 -1.000000e+000 0.000000e+000
    outer loop
      vertex   1.150962e+004 -2.000000e+002 1.500000e+002
      vertex   1.135690e+004 -2.000000e+002 5.864429e+002
      vertex   1.080962e+004 -2.000000e+002 -3.350000e+003
    endloop
  endfacet
  facet normal -0.000000e+000 -1.000000e+000 0.000000e+000
    outer loop
      vertex   1.144030e+004 -2.000000e+002 -2.953719e+003
      vertex   1.149207e+004 -2.000000e+002 -2.805765e+003
      vertex   1.080962e+004 -2.000000e+002 -3.350000e+003
    endloop
  endfacet
  facet normal 0.000000e+000 -1.000000e+000 0.000000e+000
    outer loop
      vertex   9.031691e+003 -2.000000e+002 -3.296716e+003
      vertex   9.163006e+003 -2.000000e+002 -3.336550e+003
      vertex   1.135690e+004 -2.000000e+002 5.864429e+002
    endloop
  endfacet
  facet normal 0.000000e+000 -1.000000e+000 0.000000e+000
    outer loop
      vertex   1.500000e+002 -2.000000e+002 -2.500000e+003
      vertex   7.869671e+003 -2.000000e+002 -2.500000e+003
      vertex   0.000000e+000 -2.000000e+002 -2.350000e+003
    endloop
  endfacet
  facet normal 0.000000e+000 -1.000000e+000 0.000000e+000
    outer loop
      vertex   8.258570e+003 -2.000000e+002 -2.617971e+003
      vertex   1.080962e+004 -2.000000e+002 8.500000e+002
      vertex   9.299569e+003 -2.000000e+002 8.500000e+002
    endloop
  endfacet
  facet normal -0.000000e+000 -1.000000e+000 0.000000e+000
    outer loop
      vertex   1.149207e+004 -2.000000e+002 -2.805765e+003
      vertex   1.150962e+004 -2.000000e+002 -2.650000e+003
      vertex   1.080962e+004 -2.000000e+002 -3.350000e+003
    endloop
  endfacet
  facet normal 0.000000e+000 -1.000000e+000 0.000000e+000
    outer loop
      vertex   1.135690e+004 -2.000000e+002 5.864429e+002
      vertex   8.804595e+003 -2.000000e+002 -3.144975e+003
      vertex   8.910670e+003 -2.000000e+002 -3.232029e+003
    endloop
  endfacet
  facet normal 0.000000e+000 -1.000000e+000 0.000000e+000
    outer loop
      vertex   8.364645e+003 -2.000000e+002 -2.705025e+003
      vertex   1.096538e+004 -2.000000e+002 8.324495e+002
      vertex   1.080962e+004 -2.000000e+002 8.500000e+002
    endloop
  endfacet
  facet normal 0.000000e+000 -1.000000e+000 0.000000e+000
    outer loop
      vertex   8.364645e+003 -2.000000e+002 -2.705025e+003
      vertex   1.124606e+004 -2.000000e+002 6.972820e+002
      vertex   1.111334e+004 -2.000000e+002 7.806782e+002
    endloop
  endfacet
  facet normal 4.043232e-016 -1.000000e+000 2.196808e-017
    outer loop
      vertex   8.006234e+003 -2.000000e+002 -2.513450e+003
      vertex   8.006234e+003 -2.000000e+002 1.345030e+001
      vertex   7.869671e+003 -2.000000e+002 0.000000e+000
    endloop
  endfacet
  facet normal 0.000000e+000 -1.000000e+000 0.000000e+000
    outer loop
      vertex   8.910670e+003 -2.000000e+002 7.320287e+002
      vertex   8.804595e+003 -2.000000e+002 6.449747e+002
      vertex   8.258570e+003 -2.000000e+002 -2.617971e+003
    endloop
  endfacet
  facet normal 0.000000e+000 -1.000000e+000 0.000000e+000
    outer loop
      vertex   1.135690e+004 -2.000000e+002 5.864429e+002
      vertex   9.299569e+003 -2.000000e+002 -3.350000e+003
      vertex   1.080962e+004 -2.000000e+002 -3.350000e+003
    endloop
  endfacet
  facet normal 0.000000e+000 -1.000000e+000 0.000000e+000
    outer loop
      vertex   1.135690e+004 -2.000000e+002 5.864429e+002
      vertex   8.364645e+003 -2.000000e+002 -2.705025e+003
      vertex   8.804595e+003 -2.000000e+002 -3.144975e+003
    endloop
  endfacet
  facet normal -0.000000e+000 -1.000000e+000 0.000000e+000
    outer loop
      vertex   1.111334e+004 -2.000000e+002 7.806782e+002
      vertex   1.096538e+004 -2.000000e+002 8.324495e+002
      vertex   8.364645e+003 -2.000000e+002 -2.705025e+003
    endloop
  endfacet
  facet normal 6.460265e-018 -1.000000e+000 2.129664e-017
    outer loop
      vertex   8.137549e+003 -2.000000e+002 5.328433e+001
      vertex   8.006234e+003 -2.000000e+002 -2.513450e+003
      vertex   8.137549e+003 -2.000000e+002 -2.553284e+003
    endloop
  endfacet
  facet normal -6.663944e-018 -1.000000e+000 2.196808e-017
    outer loop
      vertex   8.006234e+003 -2.000000e+002 -2.513450e+003
      vertex   8.137549e+003 -2.000000e+002 5.328433e+001
      vertex   8.006234e+003 -2.000000e+002 1.345030e+001
    endloop
  endfacet
  facet normal 0.000000e+000 -1.000000e+000 0.000000e+000
    outer loop
      vertex   8.804595e+003 -2.000000e+002 6.449747e+002
      vertex   8.364645e+003 -2.000000e+002 2.050253e+002
      vertex   8.258570e+003 -2.000000e+002 -2.617971e+003
    endloop
  endfacet
  facet normal 0.000000e+000 -1.000000e+000 0.000000e+000
    outer loop
      vertex   9.163006e+003 -2.000000e+002 -3.336550e+003
      vertex   9.299569e+003 -2.000000e+002 -3.350000e+003
      vertex   1.135690e+004 -2.000000e+002 5.864429e+002
    endloop
  endfacet
  facet normal 0.000000e+000 -1.000000e+000 0.000000e+000
    outer loop
      vertex   8.364645e+003 -2.000000e+002 -2.705025e+003
      vertex   1.135690e+004 -2.000000e+002 5.864429e+002
      vertex   1.124606e+004 -2.000000e+002 6.972820e+002
    endloop
  endfacet
  facet normal 0.000000e+000 -1.000000e+000 0.000000e+000
    outer loop
      vertex   7.869671e+003 -2.000000e+002 -2.500000e+003
      vertex   8.006234e+003 -2.000000e+002 -2.513450e+003
      vertex   7.869671e+003 -2.000000e+002 0.000000e+000
    endloop
  endfacet
  facet normal -5.399682e-016 -1.000000e+000 2.028959e-017
    outer loop
      vertex   8.364645e+003 -2.000000e+002 2.050253e+002
      vertex   8.258570e+003 -2.000000e+002 1.179713e+002
      vertex   8.258570e+003 -2.000000e+002 -2.617971e+003
    endloop
  endfacet
  facet normal 0.000000e+000 -1.000000e+000 0.000000e+000
    outer loop
      vertex   1.080962e+004 -2.000000e+002 8.500000e+002
      vertex   8.258570e+003 -2.000000e+002 -2.617971e+003
      vertex   8.364645e+003 -2.000000e+002 -2.705025e+003
    endloop
  endfacet
  facet normal -1.084501e-017 -1.000000e+000 2.028959e-017
    outer loop
      vertex   8.258570e+003 -2.000000e+002 1.179713e+002
      vertex   8.137549e+003 -2.000000e+002 5.328433e+001
      vertex   8.258570e+003 -2.000000e+002 -2.617971e+003
    endloop
  endfacet
  facet normal 1.138329e-017 -1.000000e+000 2.129664e-017
    outer loop
      vertex   8.137549e+003 -2.000000e+002 -2.553284e+003
      vertex   8.258570e+003 -2.000000e+002 -2.617971e+003
      vertex   8.137549e+003 -2.000000e+002 5.328433e+001
    endloop
  endfacet
  facet normal 0.000000e+000 -1.000000e+000 0.000000e+000
    outer loop
      vertex   1.149207e+004 -2.000000e+002 3.057647e+002
      vertex   1.144030e+004 -2.000000e+002 4.537186e+002
      vertex   1.135690e+004 -2.000000e+002 5.864429e+002
    endloop
  endfacet
  facet normal 0.000000e+000 1.000000e+000 0.000000e+000
    outer loop
      vertex   8.258570e+003 0.000000e+000 -2.617971e+003
      vertex   8.910670e+003 0.000000e+000 7.320287e+002
      vertex   9.031691e+003 0.000000e+000 7.967157e+002
    endloop
  endfacet
  facet normal 0.000000e+000 1.000000e+000 0.000000e+000
    outer loop
      vertex   1.124606e+004 0.000000e+000 -3.197282e+003
      vertex   1.111334e+004 0.000000e+000 -3.280678e+003
      vertex   1.096538e+004 0.000000e+000 -3.332450e+003
    endloop
  endfacet
  facet normal 0.000000e+000 1.000000e+000 0.000000e+000
    outer loop
      vertex   1.080962e+004 0.000000e+000 -3.350000e+003
      vertex   1.144030e+004 0.000000e+000 -2.953719e+003
      vertex   1.135690e+004 0.000000e+000 -3.086443e+003
    endloop
  endfacet
  facet normal 0.000000e+000 1.000000e+000 0.000000e+000
    outer loop
      vertex   8.258570e+003 0.000000e+000 -2.617971e+003
      vertex   8.804595e+003 0.000000e+000 6.449747e+002
      vertex   8.910670e+003 0.000000e+000 7.320287e+002
    endloop
  endfacet
  facet normal 0.000000e+000 1.000000e+000 0.000000e+000
    outer loop
      vertex   1.135690e+004 0.000000e+000 -3.086443e+003
      vertex   1.124606e+004 0.000000e+000 -3.197282e+003
      vertex   1.080962e+004 0.000000e+000 -3.350000e+003
    endloop
  endfacet
  facet normal -0.000000e+000 1.000000e+000 0.000000e+000
    outer loop
      vertex   9.031691e+003 0.000000e+000 7.967157e+002
      vertex   9.163006e+003 0.000000e+000 8.365497e+002
      vertex   8.258570e+003 0.000000e+000 -2.617971e+003
    endloop
  endfacet
  facet normal -0.000000e+000 1.000000e+000 0.000000e+000
    outer loop
      vertex   4.310000e+003 0.000000e+000 0.000000e+000
      vertex   7.869671e+003 0.000000e+000 0.000000e+000
      vertex   7.869671e+003 0.000000e+000 -2.500000e+003
    endloop
  endfacet
  facet normal 0.000000e+000 1.000000e+000 0.000000e+000
    outer loop
      vertex   1.135690e+004 0.000000e+000 5.864429e+002
      vertex   9.163006e+003 0.000000e+000 -3.336550e+003
      vertex   9.031691e+003 0.000000e+000 -3.296716e+003
    endloop
  endfacet
  facet normal 0.000000e+000 1.000000e+000 0.000000e+000
    outer loop
      vertex   1.080962e+004 0.000000e+000 -3.350000e+003
      vertex   1.149207e+004 0.000000e+000 -2.805765e+003
      vertex   1.144030e+004 0.000000e+000 -2.953719e+003
    endloop
  endfacet
  facet normal 0.000000e+000 1.000000e+000 0.000000e+000
    outer loop
      vertex   1.080962e+004 0.000000e+000 -3.350000e+003
      vertex   1.135690e+004 0.000000e+000 5.864429e+002
      vertex   1.150962e+004 0.000000e+000 1.500000e+002
    endloop
  endfacet
  facet normal 0.000000e+000 1.000000e+000 0.000000e+000
    outer loop
      vertex   1.135690e+004 0.000000e+000 5.864429e+002
      vertex   1.144030e+004 0.000000e+000 4.537186e+002
      vertex   1.149207e+004 0.000000e+000 3.057647e+002
    endloop
  endfacet
  facet normal -0.000000e+000 1.000000e+000 0.000000e+000
    outer loop
      vertex   9.163006e+003 0.000000e+000 8.365497e+002
      vertex   9.299569e+003 0.000000e+000 8.500000e+002
      vertex   8.258570e+003 0.000000e+000 -2.617971e+003
    endloop
  endfacet
  facet normal 0.000000e+000 1.000000e+000 0.000000e+000
    outer loop
      vertex   7.869671e+003 0.000000e+000 0.000000e+000
      vertex   8.006234e+003 0.000000e+000 -2.513450e+003
      vertex   7.869671e+003 0.000000e+000 -2.500000e+003
    endloop
  endfacet
  facet normal 0.000000e+000 1.000000e+000 0.000000e+000
    outer loop
      vertex   1.135690e+004 0.000000e+000 5.864429e+002
      vertex   9.299569e+003 0.000000e+000 -3.350000e+003
      vertex   9.163006e+003 0.000000e+000 -3.336550e+003
    endloop
  endfacet
  facet normal 0.000000e+000 1.000000e+000 0.000000e+000
    outer loop
      vertex   1.080962e+004 0.000000e+000 -3.350000e+003
      vertex   1.150962e+004 0.000000e+000 -2.650000e+003
      vertex   1.149207e+004 0.000000e+000 -2.805765e+003
    endloop
  endfacet
  facet normal 0.000000e+000 1.000000e+000 0.000000e+000
    outer loop
      vertex   1.149207e+004 0.000000e+000 3.057647e+002
      vertex   1.150962e+004 0.000000e+000 1.500000e+002
      vertex   1.135690e+004 0.000000e+000 5.864429e+002
    endloop
  endfacet
  facet normal 0.000000e+000 1.000000e+000 0.000000e+000
    outer loop
      vertex   8.258570e+003 0.000000e+000 -2.617971e+003
      vertex   8.364645e+003 0.000000e+000 2.050253e+002
      vertex   8.804595e+003 0.000000e+000 6.449747e+002
    endloop
  endfacet
  facet normal 0.000000e+000 1.000000e+000 0.000000e+000
    outer loop
      vertex   7.869671e+003 0.000000e+000 -2.500000e+003
      vertex   4.310000e+003 0.000000e+000 -2.500000e+003
      vertex   4.310000e+003 0.000000e+000 0.000000e+000
    endloop
  endfacet
  facet normal 0.000000e+000 1.000000e+000 0.000000e+000
    outer loop
      vertex   8.364645e+003 0.000000e+000 -2.705025e+003
      vertex   1.096538e+004 0.000000e+000 8.324495e+002
      vertex   1.111334e+004 0.000000e+000 7.806782e+002
    endloop
  endfacet
  facet normal 0.000000e+000 1.000000e+000 -0.000000e+000
    outer loop
      vertex   9.031691e+003 0.000000e+000 -3.296716e+003
      vertex   8.910670e+003 0.000000e+000 -3.232029e+003
      vertex   1.135690e+004 0.000000e+000 5.864429e+002
    endloop
  endfacet
  facet normal 0.000000e+000 1.000000e+000 0.000000e+000
    outer loop
      vertex   1.150962e+004 0.000000e+000 1.500000e+002
      vertex   1.150962e+004 0.000000e+000 -2.650000e+003
      vertex   1.080962e+004 0.000000e+000 -3.350000e+003
    endloop
  endfacet
  facet normal 0.000000e+000 1.000000e+000 0.000000e+000
    outer loop
      vertex   8.258570e+003 0.000000e+000 -2.617971e+003
      vertex   8.258570e+003 0.000000e+000 1.179713e+002
      vertex   8.364645e+003 0.000000e+000 2.050253e+002
    endloop
  endfacet
  facet normal -0.000000e+000 1.000000e+000 0.000000e+000
    outer loop
      vertex   7.869671e+003 0.000000e+000 0.000000e+000
      vertex   8.006234e+003 0.000000e+000 1.345030e+001
      vertex   8.006234e+003 0.000000e+000 -2.513450e+003
    endloop
  endfacet
  facet normal 0.000000e+000 1.000000e+000 0.000000e+000
    outer loop
      vertex   8.137549e+003 0.000000e+000 5.328433e+001
      vertex   8.258570e+003 0.000000e+000 -2.617971e+003
      vertex   8.137549e+003 0.000000e+000 -2.553284e+003
    endloop
  endfacet
  facet normal 0.000000e+000 1.000000e+000 0.000000e+000
    outer loop
      vertex   1.111334e+004 0.000000e+000 7.806782e+002
      vertex   1.124606e+004 0.000000e+000 6.972820e+002
      vertex   8.364645e+003 0.000000e+000 -2.705025e+003
    endloop
  endfacet
  facet normal 0.000000e+000 1.000000e+000 -0.000000e+000
    outer loop
      vertex   8.364645e+003 0.000000e+000 -2.705025e+003
      vertex   8.258570e+003 0.000000e+000 -2.617971e+003
      vertex   1.080962e+004 0.000000e+000 8.500000e+002
    endloop
  endfacet
  facet normal 0.000000e+000 1.000000e+000 -0.000000e+000
    outer loop
      vertex   8.910670e+003 0.000000e+000 -3.232029e+003
      vertex   8.804595e+003 0.000000e+000 -3.144975e+003
      vertex   1.135690e+004 0.000000e+000 5.864429e+002
    endloop
  endfacet
  facet normal 0.000000e+000 1.000000e+000 -0.000000e+000
    outer loop
      vertex   1.096538e+004 0.000000e+000 -3.332450e+003
      vertex   1.080962e+004 0.000000e+000 -3.350000e+003
      vertex   1.124606e+004 0.000000e+000 -3.197282e+003
    endloop
  endfacet
  facet normal 0.000000e+000 1.000000e+000 -0.000000e+000
    outer loop
      vertex   8.258570e+003 0.000000e+000 -2.617971e+003
      vertex   8.137549e+003 0.000000e+000 5.328433e+001
      vertex   8.258570e+003 0.000000e+000 1.179713e+002
    endloop
  endfacet
  facet normal 0.000000e+000 1.000000e+000 -0.000000e+000
    outer loop
      vertex   8.137549e+003 0.000000e+000 -2.553284e+003
      vertex   8.006234e+003 0.000000e+000 -2.513450e+003
      vertex   8.137549e+003 0.000000e+000 5.328433e+001
    endloop
  endfacet
  facet normal 0.000000e+000 1.000000e+000 0.000000e+000
    outer loop
      vertex   1.080962e+004 0.000000e+000 8.500000e+002
      vertex   1.096538e+004 0.000000e+000 8.324495e+002
      vertex   8.364645e+003 0.000000e+000 -2.705025e+003
    endloop
  endfacet
  facet normal 0.000000e+000 1.000000e+000 -0.000000e+000
    outer loop
      vertex   1.080962e+004 0.000000e+000 -3.350000e+003
      vertex   9.299569e+003 0.000000e+000 -3.350000e+003
      vertex   1.135690e+004 0.000000e+000 5.864429e+002
    endloop
  endfacet
  facet normal -0.000000e+000 1.000000e+000 0.000000e+000
    outer loop
      vertex   8.006234e+003 0.000000e+000 1.345030e+001
      vertex   8.137549e+003 0.000000e+000 5.328433e+001
      vertex   8.006234e+003 0.000000e+000 -2.513450e+003
    endloop
  endfacet
  facet normal 0.000000e+000 1.000000e+000 -0.000000e+000
    outer loop
      vertex   8.804595e+003 0.000000e+000 -3.144975e+003
      vertex   8.364645e+003 0.000000e+000 -2.705025e+003
      vertex   1.135690e+004 0.000000e+000 5.864429e+002
    endloop
  endfacet
  facet normal 0.000000e+000 1.000000e+000 0.000000e+000
    outer loop
      vertex   1.124606e+004 0.000000e+000 6.972820e+002
      vertex   1.135690e+004 0.000000e+000 5.864429e+002
      vertex   8.364645e+003 0.000000e+000 -2.705025e+003
    endloop
  endfacet
  facet normal 0.000000e+000 1.000000e+000 0.000000e+000
    outer loop
      vertex   9.299569e+003 0.000000e+000 8.500000e+002
      vertex   1.080962e+004 0.000000e+000 8.500000e+002
      vertex   8.258570e+003 0.000000e+000 -2.617971e+003
    endloop
  endfacet
  facet normal 1.119645e-001 0.000000e+000 -9.937122e-001
    outer loop
      vertex   1.080962e+004 -2.000000e+002 -3.350000e+003
      vertex   1.080962e+004 0.000000e+000 -3.350000e+003
      vertex   1.096538e+004 0.000000e+000 -3.332450e+003
    endloop
  endfacet
  facet normal 3.302791e-001 0.000000e+000 -9.438833e-001
    outer loop
      vertex   1.096538e+004 -2.000000e+002 -3.332450e+003
      vertex   1.096538e+004 0.000000e+000 -3.332450e+003
      vertex   1.111334e+004 0.000000e+000 -3.280678e+003
    endloop
  endfacet
  facet normal 5.320321e-001 0.000000e+000 -8.467242e-001
    outer loop
      vertex   1.111334e+004 -2.000000e+002 -3.280678e+003
      vertex   1.111334e+004 0.000000e+000 -3.280678e+003
      vertex   1.124606e+004 0.000000e+000 -3.197282e+003
    endloop
  endfacet
  facet normal 7.071068e-001 0.000000e+000 -7.071068e-001
    outer loop
      vertex   1.124606e+004 -2.000000e+002 -3.197282e+003
      vertex   1.124606e+004 0.000000e+000 -3.197282e+003
      vertex   1.135690e+004 0.000000e+000 -3.086443e+003
    endloop
  endfacet
  facet normal 8.467242e-001 0.000000e+000 -5.320321e-001
    outer loop
      vertex   1.135690e+004 -2.000000e+002 -3.086443e+003
      vertex   1.135690e+004 0.000000e+000 -3.086443e+003
      vertex   1.144030e+004 0.000000e+000 -2.953719e+003
    endloop
  endfacet
  facet normal 9.438833e-001 0.000000e+000 -3.302791e-001
    outer loop
      vertex   1.144030e+004 -2.000000e+002 -2.953719e+003
      vertex   1.144030e+004 0.000000e+000 -2.953719e+003
      vertex   1.149207e+004 0.000000e+000 -2.805765e+003
    endloop
  endfacet
  facet normal 9.937122e-001 0.000000e+000 -1.119645e-001
    outer loop
      vertex   1.149207e+004 -2.000000e+002 -2.805765e+003
      vertex   1.149207e+004 0.000000e+000 -2.805765e+003
      vertex   1.150962e+004 0.000000e+000 -2.650000e+003
    endloop
  endfacet
  facet normal 9.937122e-001 0.000000e+000 -1.119645e-001
    outer loop
      vertex   1.150962e+004 0.000000e+000 -2.650000e+003
      vertex   1.150962e+004 -2.000000e+002 -2.650000e+003
      vertex   1.149207e+004 -2.000000e+002 -2.805765e+003
    endloop
  endfacet
  facet normal 9.438833e-001 0.000000e+000 -3.302791e-001
    outer loop
      vertex   1.149207e+004 0.000000e+000 -2.805765e+003
      vertex   1.149207e+004 -2.000000e+002 -2.805765e+003
      vertex   1.144030e+004 -2.000000e+002 -2.953719e+003
    endloop
  endfacet
  facet normal 8.467242e-001 0.000000e+000 -5.320321e-001
    outer loop
      vertex   1.144030e+004 0.000000e+000 -2.953719e+003
      vertex   1.144030e+004 -2.000000e+002 -2.953719e+003
      vertex   1.135690e+004 -2.000000e+002 -3.086443e+003
    endloop
  endfacet
  facet normal 7.071068e-001 0.000000e+000 -7.071068e-001
    outer loop
      vertex   1.135690e+004 0.000000e+000 -3.086443e+003
      vertex   1.135690e+004 -2.000000e+002 -3.086443e+003
      vertex   1.124606e+004 -2.000000e+002 -3.197282e+003
    endloop
  endfacet
  facet normal 5.320321e-001 0.000000e+000 -8.467242e-001
    outer loop
      vertex   1.124606e+004 0.000000e+000 -3.197282e+003
      vertex   1.124606e+004 -2.000000e+002 -3.197282e+003
      vertex   1.111334e+004 -2.000000e+002 -3.280678e+003
    endloop
  endfacet
  facet normal 3.302791e-001 0.000000e+000 -9.438833e-001
    outer loop
      vertex   1.111334e+004 0.000000e+000 -3.280678e+003
      vertex   1.111334e+004 -2.000000e+002 -3.280678e+003
      vertex   1.096538e+004 -2.000000e+002 -3.332450e+003
    endloop
  endfacet
  facet normal 1.119645e-001 0.000000e+000 -9.937122e-001
    outer loop
      vertex   1.096538e+004 0.000000e+000 -3.332450e+003
      vertex   1.096538e+004 -2.000000e+002 -3.332450e+003
      vertex   1.080962e+004 -2.000000e+002 -3.350000e+003
    endloop
  endfacet
  facet normal 0.000000e+000 -0.000000e+000 -1.000000e+000
    outer loop
      vertex   1.080962e+004 0.000000e+000 -3.350000e+003
      vertex   1.080962e+004 -2.000000e+002 -3.350000e+003
      vertex   9.299569e+003 -2.000000e+002 -3.350000e+003
    endloop
  endfacet
  facet normal 0.000000e+000 0.000000e+000 -1.000000e+000
    outer loop
      vertex   9.299569e+003 -2.000000e+002 -3.350000e+003
      vertex   9.299569e+003 0.000000e+000 -3.350000e+003
      vertex   1.080962e+004 0.000000e+000 -3.350000e+003
    endloop
  endfacet
  facet normal 1.000000e+000 0.000000e+000 0.000000e+000
    outer loop
      vertex   1.150962e+004 0.000000e+000 1.500000e+002
      vertex   1.150962e+004 -2.000000e+002 1.500000e+002
      vertex   1.150962e+004 -2.000000e+002 -2.650000e+003
    endloop
  endfacet
  facet normal 1.000000e+000 0.000000e+000 0.000000e+000
    outer loop
      vertex   1.150962e+004 -2.000000e+002 -2.650000e+003
      vertex   1.150962e+004 0.000000e+000 -2.650000e+003
      vertex   1.150962e+004 0.000000e+000 1.500000e+002
    endloop
  endfacet
  facet normal 1.000000e+000 0.000000e+000 0.000000e+000
    outer loop
      vertex   4.310000e+003 0.000000e+000 0.000000e+000
      vertex   4.310000e+003 0.000000e+000 -2.500000e+003
      vertex   4.310000e+003 5.500000e+002 -2.500000e+003
    endloop
  endfacet
  facet normal 1.000000e+000 0.000000e+000 -0.000000e+000
    outer loop
      vertex   4.310000e+003 5.500000e+002 -2.500000e+003
      vertex   4.310000e+003 5.500000e+002 0.000000e+000
      vertex   4.310000e+003 0.000000e+000 0.000000e+000
    endloop
  endfacet
  facet normal 9.807853e-001 1.950903e-001 1.775331e-015
    outer loop
      vertex   4.310000e+003 5.500000e+002 -2.500000e+003
      vertex   4.298582e+003 6.074025e+002 -2.488582e+003
      vertex   4.298582e+003 6.074025e+002 -1.141807e+001
    endloop
  endfacet
  facet normal 8.314696e-001 5.555702e-001 1.540402e-015
    outer loop
      vertex   4.298582e+003 6.074025e+002 -1.141807e+001
      vertex   4.298582e+003 6.074025e+002 -2.488582e+003
      vertex   4.266066e+003 6.560660e+002 -2.456066e+003
    endloop
  endfacet
  facet normal 5.555702e-001 8.314696e-001 1.036060e-015
    outer loop
      vertex   4.266066e+003 6.560660e+002 -4.393398e+001
      vertex   4.266066e+003 6.560660e+002 -2.456066e+003
      vertex   4.217403e+003 6.885819e+002 -2.407403e+003
    endloop
  endfacet
  facet normal 1.950903e-001 9.807853e-001 1.717890e-017
    outer loop
      vertex   4.217403e+003 6.885819e+002 -9.259749e+001
      vertex   4.217403e+003 6.885819e+002 -2.407403e+003
      vertex   4.160000e+003 7.000000e+002 -2.350000e+003
    endloop
  endfacet
  facet normal 1.950903e-001 9.807853e-001 -0.000000e+000
    outer loop
      vertex   4.160000e+003 7.000000e+002 -2.350000e+003
      vertex   4.160000e+003 7.000000e+002 -1.500000e+002
      vertex   4.217403e+003 6.885819e+002 -9.259749e+001
    endloop
  endfacet
  facet normal 5.555702e-001 8.314696e-001 6.134046e-016
    outer loop
      vertex   4.217403e+003 6.885819e+002 -2.407403e+003
      vertex   4.217403e+003 6.885819e+002 -9.259749e+001
      vertex   4.266066e+003 6.560660e+002 -4.393398e+001
    endloop
  endfacet
  facet normal 8.314696e-001 5.555702e-001 1.709092e-015
    outer loop
      vertex   4.266066e+003 6.560660e+002 -2.456066e+003
      vertex   4.266066e+003 6.560660e+002 -4.393398e+001
      vertex   4.298582e+003 6.074025e+002 -1.141807e+001
    endloop
  endfacet
  facet normal 9.807853e-001 1.950903e-001 0.000000e+000
    outer loop
      vertex   4.298582e+003 6.074025e+002 -1.141807e+001
      vertex   4.310000e+003 5.500000e+002 0.000000e+000
      vertex   4.310000e+003 5.500000e+002 -2.500000e+003
    endloop
  endfacet
  facet normal 7.817698e-003 8.909793e-001 -4.539766e-001
    outer loop
      vertex   1.500000e+002 6.873485e+002 -2.406774e+003
      vertex   1.500000e+002 6.926585e+002 -2.396353e+003
      vertex   2.005000e+003 7.000000e+002 -2.350000e+003
    endloop
  endfacet
  facet normal -3.286963e-004 9.782855e-001 -2.072617e-001
    outer loop
      vertex   2.005000e+003 7.000000e+002 -2.350000e+003
      vertex   4.217403e+003 6.885819e+002 -2.407403e+003
      vertex   1.500000e+002 6.873485e+002 -2.406774e+003
    endloop
  endfacet
  facet normal 0.000000e+000 9.807853e-001 -1.950903e-001
    outer loop
      vertex   2.005000e+003 7.000000e+002 -2.350000e+003
      vertex   2.305000e+003 7.000000e+002 -2.350000e+003
      vertex   4.217403e+003 6.885819e+002 -2.407403e+003
    endloop
  endfacet
  facet normal 0.000000e+000 9.807853e-001 -1.950903e-001
    outer loop
      vertex   2.305000e+003 7.000000e+002 -2.350000e+003
      vertex   4.160000e+003 7.000000e+002 -2.350000e+003
      vertex   4.217403e+003 6.885819e+002 -2.407403e+003
    endloop
  endfacet
  facet normal -5.915702e-017 9.876883e-001 -1.564345e-001
    outer loop
      vertex   1.500000e+002 6.926585e+002 -2.396353e+003
      vertex   1.500000e+002 7.000000e+002 -2.350000e+003
      vertex   2.005000e+003 7.000000e+002 -2.350000e+003
    endloop
  endfacet
  facet normal -3.403521e-004 8.910065e-001 -4.539905e-001
    outer loop
      vertex   1.500000e+002 6.713525e+002 -2.438168e+003
      vertex   1.500000e+002 6.873485e+002 -2.406774e+003
      vertex   4.217403e+003 6.885819e+002 -2.407403e+003
    endloop
  endfacet
  facet normal -4.486684e-004 7.071067e-001 -7.071067e-001
    outer loop
      vertex   4.266066e+003 6.560660e+002 -2.456066e+003
      vertex   1.500000e+002 6.547602e+002 -2.454760e+003
      vertex   1.500000e+002 6.713525e+002 -2.438168e+003
    endloop
  endfacet
  facet normal 1.334956e-003 4.539901e-001 -8.910057e-001
    outer loop
      vertex   1.500000e+002 6.067740e+002 -2.487348e+003
      vertex   1.500000e+002 6.381678e+002 -2.471353e+003
      vertex   4.266066e+003 6.560660e+002 -2.456066e+003
    endloop
  endfacet
  facet normal -3.313863e-004 5.554171e-001 -8.315718e-001
    outer loop
      vertex   4.266066e+003 6.560660e+002 -2.456066e+003
      vertex   4.298582e+003 6.074025e+002 -2.488582e+003
      vertex   1.500000e+002 6.067740e+002 -2.487348e+003
    endloop
  endfacet
  facet normal 5.538670e-004 1.564344e-001 -9.876882e-001
    outer loop
      vertex   1.500000e+002 5.500000e+002 -2.500000e+003
      vertex   1.500000e+002 5.963525e+002 -2.492658e+003
      vertex   4.298582e+003 6.074025e+002 -2.488582e+003
    endloop
  endfacet
  facet normal 0.000000e+000 1.950903e-001 -9.807853e-001
    outer loop
      vertex   4.298582e+003 6.074025e+002 -2.488582e+003
      vertex   4.310000e+003 5.500000e+002 -2.500000e+003
      vertex   1.500000e+002 5.500000e+002 -2.500000e+003
    endloop
  endfacet
  facet normal -3.336921e-004 4.539905e-001 -8.910065e-001
    outer loop
      vertex   1.500000e+002 5.963525e+002 -2.492658e+003
      vertex   1.500000e+002 6.067740e+002 -2.487348e+003
      vertex   4.298582e+003 6.074025e+002 -2.488582e+003
    endloop
  endfacet
  facet normal -4.486684e-004 7.071067e-001 -7.071067e-001
    outer loop
      vertex   1.500000e+002 6.381678e+002 -2.471353e+003
      vertex   1.500000e+002 6.547602e+002 -2.454760e+003
      vertex   4.266066e+003 6.560660e+002 -2.456066e+003
    endloop
  endfacet
  facet normal 6.753263e-004 8.317813e-001 -5.551031e-001
    outer loop
      vertex   4.217403e+003 6.885819e+002 -2.407403e+003
      vertex   4.266066e+003 6.560660e+002 -2.456066e+003
      vertex   1.500000e+002 6.713525e+002 -2.438168e+003
    endloop
  endfacet
  facet normal 4.438791e-004 1.951752e-001 9.807683e-001
    outer loop
      vertex   1.500000e+002 5.963525e+002 -7.341523e+000
      vertex   4.310000e+003 5.500000e+002 0.000000e+000
      vertex   4.298582e+003 6.074025e+002 -1.141807e+001
    endloop
  endfacet
  facet normal -3.336921e-004 4.539905e-001 8.910065e-001
    outer loop
      vertex   4.298582e+003 6.074025e+002 -1.141807e+001
      vertex   1.500000e+002 6.067740e+002 -1.265153e+001
      vertex   1.500000e+002 5.963525e+002 -7.341523e+000
    endloop
  endfacet
  facet normal 0.000000e+000 1.564345e-001 9.876883e-001
    outer loop
      vertex   1.500000e+002 5.963525e+002 -7.341523e+000
      vertex   1.500000e+002 5.500000e+002 0.000000e+000
      vertex   4.310000e+003 5.500000e+002 0.000000e+000
    endloop
  endfacet
  facet normal -3.313863e-004 5.554171e-001 8.315718e-001
    outer loop
      vertex   1.500000e+002 6.067740e+002 -1.265153e+001
      vertex   4.298582e+003 6.074025e+002 -1.141807e+001
      vertex   4.266066e+003 6.560660e+002 -4.393398e+001
    endloop
  endfacet
  facet normal -4.486684e-004 7.071067e-001 7.071067e-001
    outer loop
      vertex   4.266066e+003 6.560660e+002 -4.393398e+001
      vertex   1.500000e+002 6.547602e+002 -4.523983e+001
      vertex   1.500000e+002 6.381678e+002 -2.864745e+001
    endloop
  endfacet
  facet normal 6.753263e-004 8.317813e-001 5.551031e-001
    outer loop
      vertex   1.500000e+002 6.713525e+002 -6.183221e+001
      vertex   4.266066e+003 6.560660e+002 -4.393398e+001
      vertex   4.217403e+003 6.885819e+002 -9.259749e+001
    endloop
  endfacet
  facet normal -3.403521e-004 8.910065e-001 4.539905e-001
    outer loop
      vertex   4.217403e+003 6.885819e+002 -9.259749e+001
      vertex   1.500000e+002 6.873485e+002 -9.322597e+001
      vertex   1.500000e+002 6.713525e+002 -6.183221e+001
    endloop
  endfacet
  facet normal -5.911344e-017 9.876883e-001 1.564345e-001
    outer loop
      vertex   2.005000e+003 7.000000e+002 -1.500000e+002
      vertex   1.500000e+002 7.000000e+002 -1.500000e+002
      vertex   1.500000e+002 6.926585e+002 -1.036475e+002
    endloop
  endfacet
  facet normal -3.285466e-004 9.786343e-001 2.056082e-001
    outer loop
      vertex   1.500000e+002 6.873485e+002 -9.322597e+001
      vertex   4.217403e+003 6.885819e+002 -9.259749e+001
      vertex   2.305000e+003 7.000000e+002 -1.500000e+002
    endloop
  endfacet
  facet normal 0.000000e+000 9.760592e-001 2.175052e-001
    outer loop
      vertex   2.305000e+003 7.000000e+002 -1.500000e+002
      vertex   2.005000e+003 7.000000e+002 -1.500000e+002
      vertex   1.500000e+002 6.873485e+002 -9.322597e+001
    endloop
  endfacet
  facet normal 0.000000e+000 9.807853e-001 1.950903e-001
    outer loop
      vertex   4.217403e+003 6.885819e+002 -9.259749e+001
      vertex   4.160000e+003 7.000000e+002 -1.500000e+002
      vertex   2.305000e+003 7.000000e+002 -1.500000e+002
    endloop
  endfacet
  facet normal 7.817698e-003 8.909793e-001 4.539766e-001
    outer loop
      vertex   1.500000e+002 6.926585e+002 -1.036475e+002
      vertex   1.500000e+002 6.873485e+002 -9.322597e+001
      vertex   2.005000e+003 7.000000e+002 -1.500000e+002
    endloop
  endfacet
  facet normal -4.486684e-004 7.071067e-001 7.071067e-001
    outer loop
      vertex   1.500000e+002 6.713525e+002 -6.183221e+001
      vertex   1.500000e+002 6.547602e+002 -4.523983e+001
      vertex   4.266066e+003 6.560660e+002 -4.393398e+001
    endloop
  endfacet
  facet normal 1.334956e-003 4.539901e-001 8.910057e-001
    outer loop
      vertex   4.266066e+003 6.560660e+002 -4.393398e+001
      vertex   1.500000e+002 6.381678e+002 -2.864745e+001
      vertex   1.500000e+002 6.067740e+002 -1.265153e+001
    endloop
  endfacet
  facet normal -1.000000e+000 0.000000e+000 0.000000e+000
    outer loop
      vertex   4.160000e+003 7.000000e+002 -2.350000e+003
      vertex   4.160000e+003 0.000000e+000 -2.350000e+003
      vertex   4.160000e+003 0.000000e+000 -1.500000e+002
    endloop
  endfacet
  facet normal -1.000000e+000 0.000000e+000 0.000000e+000
    outer loop
      vertex   4.160000e+003 0.000000e+000 -1.500000e+002
      vertex   4.160000e+003 7.000000e+002 -1.500000e+002
      vertex   4.160000e+003 7.000000e+002 -2.350000e+003
    endloop
  endfacet
  facet normal 0.000000e+000 1.000000e+000 0.000000e+000
    outer loop
      vertex   4.160000e+003 0.000000e+000 -2.350000e+003
      vertex   2.305000e+003 0.000000e+000 -2.350000e+003
      vertex   2.305000e+003 0.000000e+000 -1.500000e+002
    endloop
  endfacet
  facet normal -0.000000e+000 1.000000e+000 0.000000e+000
    outer loop
      vertex   2.305000e+003 0.000000e+000 -1.500000e+002
      vertex   4.160000e+003 0.000000e+000 -1.500000e+002
      vertex   4.160000e+003 0.000000e+000 -2.350000e+003
    endloop
  endfacet
  facet normal 0.000000e+000 0.000000e+000 1.000000e+000
    outer loop
      vertex   2.305000e+003 7.000000e+002 -2.350000e+003
      vertex   2.305000e+003 0.000000e+000 -2.350000e+003
      vertex   4.160000e+003 0.000000e+000 -2.350000e+003
    endloop
  endfacet
  facet normal 0.000000e+000 -0.000000e+000 1.000000e+000
    outer loop
      vertex   4.160000e+003 0.000000e+000 -2.350000e+003
      vertex   4.160000e+003 7.000000e+002 -2.350000e+003
      vertex   2.305000e+003 7.000000e+002 -2.350000e+003
    endloop
  endfacet
  facet normal 1.000000e+000 0.000000e+000 0.000000e+000
    outer loop
      vertex   2.305000e+003 7.000000e+002 -1.500000e+002
      vertex   2.305000e+003 0.000000e+000 -1.500000e+002
      vertex   2.305000e+003 0.000000e+000 -2.350000e+003
    endloop
  endfacet
  facet normal 1.000000e+000 0.000000e+000 0.000000e+000
    outer loop
      vertex   2.305000e+003 0.000000e+000 -2.350000e+003
      vertex   2.305000e+003 7.000000e+002 -2.350000e+003
      vertex   2.305000e+003 7.000000e+002 -1.500000e+002
    endloop
  endfacet
  facet normal 0.000000e+000 -0.000000e+000 -1.000000e+000
    outer loop
      vertex   4.160000e+003 7.000000e+002 -1.500000e+002
      vertex   4.160000e+003 0.000000e+000 -1.500000e+002
      vertex   2.305000e+003 0.000000e+000 -1.500000e+002
    endloop
  endfacet
  facet normal 0.000000e+000 0.000000e+000 -1.000000e+000
    outer loop
      vertex   2.305000e+003 0.000000e+000 -1.500000e+002
      vertex   2.305000e+003 7.000000e+002 -1.500000e+002
      vertex   4.160000e+003 7.000000e+002 -1.500000e+002
    endloop
  endfacet
  facet normal -0.000000e+000 1.000000e+000 0.000000e+000
    outer loop
      vertex   2.005000e+003 7.000000e+002 -1.500000e+002
      vertex   2.305000e+003 7.000000e+002 -1.500000e+002
      vertex   2.305000e+003 7.000000e+002 -2.350000e+003
    endloop
  endfacet
  facet normal 0.000000e+000 1.000000e+000 0.000000e+000
    outer loop
      vertex   2.305000e+003 7.000000e+002 -2.350000e+003
      vertex   2.005000e+003 7.000000e+002 -2.350000e+003
      vertex   2.005000e+003 7.000000e+002 -1.500000e+002
    endloop
  endfacet
  facet normal -1.000000e+000 0.000000e+000 0.000000e+000
    outer loop
      vertex   2.005000e+003 7.000000e+002 -2.350000e+003
      vertex   2.005000e+003 0.000000e+000 -2.350000e+003
      vertex   2.005000e+003 0.000000e+000 -1.500000e+002
    endloop
  endfacet
  facet normal -1.000000e+000 0.000000e+000 0.000000e+000
    outer loop
      vertex   2.005000e+003 0.000000e+000 -1.500000e+002
      vertex   2.005000e+003 7.000000e+002 -1.500000e+002
      vertex   2.005000e+003 7.000000e+002 -2.350000e+003
    endloop
  endfacet
  facet normal 0.000000e+000 1.000000e+000 0.000000e+000
    outer loop
      vertex   2.005000e+003 0.000000e+000 -2.350000e+003
      vertex   1.500000e+002 0.000000e+000 -2.350000e+003
      vertex   1.500000e+002 0.000000e+000 -1.500000e+002
    endloop
  endfacet
  facet normal -0.000000e+000 1.000000e+000 0.000000e+000
    outer loop
      vertex   1.500000e+002 0.000000e+000 -1.500000e+002
      vertex   2.005000e+003 0.000000e+000 -1.500000e+002
      vertex   2.005000e+003 0.000000e+000 -2.350000e+003
    endloop
  endfacet
  facet normal 0.000000e+000 -0.000000e+000 1.000000e+000
    outer loop
      vertex   2.005000e+003 0.000000e+000 -2.350000e+003
      vertex   2.005000e+003 7.000000e+002 -2.350000e+003
      vertex   1.500000e+002 7.000000e+002 -2.350000e+003
    endloop
  endfacet
  facet normal 0.000000e+000 0.000000e+000 1.000000e+000
    outer loop
      vertex   1.500000e+002 7.000000e+002 -2.350000e+003
      vertex   1.500000e+002 0.000000e+000 -2.350000e+003
      vertex   2.005000e+003 0.000000e+000 -2.350000e+003
    endloop
  endfacet
  facet normal 1.000000e+000 0.000000e+000 0.000000e+000
    outer loop
      vertex   1.500000e+002 7.000000e+002 -1.500000e+002
      vertex   1.500000e+002 0.000000e+000 -1.500000e+002
      vertex   1.500000e+002 0.000000e+000 -2.350000e+003
    endloop
  endfacet
  facet normal 1.000000e+000 0.000000e+000 0.000000e+000
    outer loop
      vertex   1.500000e+002 0.000000e+000 -2.350000e+003
      vertex   1.500000e+002 7.000000e+002 -2.350000e+003
      vertex   1.500000e+002 7.000000e+002 -1.500000e+002
    endloop
  endfacet
  facet normal 0.000000e+000 0.000000e+000 -1.000000e+000
    outer loop
      vertex   2.005000e+003 0.000000e+000 -1.500000e+002
      vertex   1.500000e+002 0.000000e+000 -1.500000e+002
      vertex   1.500000e+002 7.000000e+002 -1.500000e+002
    endloop
  endfacet
  facet normal 0.000000e+000 0.000000e+000 -1.000000e+000
    outer loop
      vertex   1.500000e+002 7.000000e+002 -1.500000e+002
      vertex   2.005000e+003 7.000000e+002 -1.500000e+002
      vertex   2.005000e+003 0.000000e+000 -1.500000e+002
    endloop
  endfacet
endsolid
