solid Embrague2
  facet normal -8.191520e-001 0.000000e+000 5.735764e-001
    outer loop
      vertex   -1.299038e+002 7.500000e+000 7.500000e+001
      vertex   -1.299038e+002 -7.500000e+000 7.500000e+001
      vertex   -1.149067e+002 -7.500000e+000 9.641814e+001
    endloop
  endfacet
  facet normal -7.071068e-001 0.000000e+000 7.071068e-001
    outer loop
      vertex   -1.149067e+002 7.500000e+000 9.641814e+001
      vertex   -1.149067e+002 -7.500000e+000 9.641814e+001
      vertex   -9.641814e+001 -7.500000e+000 1.149067e+002
    endloop
  endfacet
  facet normal -5.735764e-001 0.000000e+000 8.191520e-001
    outer loop
      vertex   -9.641814e+001 7.500000e+000 1.149067e+002
      vertex   -9.641814e+001 -7.500000e+000 1.149067e+002
      vertex   -7.500000e+001 -7.500000e+000 1.299038e+002
    endloop
  endfacet
  facet normal -5.735764e-001 0.000000e+000 8.191520e-001
    outer loop
      vertex   -7.500000e+001 -7.500000e+000 1.299038e+002
      vertex   -7.500000e+001 7.500000e+000 1.299038e+002
      vertex   -9.641814e+001 7.500000e+000 1.149067e+002
    endloop
  endfacet
  facet normal -7.071068e-001 0.000000e+000 7.071068e-001
    outer loop
      vertex   -9.641814e+001 -7.500000e+000 1.149067e+002
      vertex   -9.641814e+001 7.500000e+000 1.149067e+002
      vertex   -1.149067e+002 7.500000e+000 9.641814e+001
    endloop
  endfacet
  facet normal -8.191520e-001 0.000000e+000 5.735764e-001
    outer loop
      vertex   -1.149067e+002 -7.500000e+000 9.641814e+001
      vertex   -1.149067e+002 7.500000e+000 9.641814e+001
      vertex   -1.299038e+002 7.500000e+000 7.500000e+001
    endloop
  endfacet
  facet normal 8.660254e-001 -0.000000e+000 5.000000e-001
    outer loop
      vertex   -6.250000e+001 -7.500000e+000 1.082532e+002
      vertex   -6.250000e+001 7.500000e+000 1.082532e+002
      vertex   -7.500000e+001 7.500000e+000 1.299038e+002
    endloop
  endfacet
  facet normal 8.660254e-001 0.000000e+000 5.000000e-001
    outer loop
      vertex   -7.500000e+001 7.500000e+000 1.299038e+002
      vertex   -7.500000e+001 -7.500000e+000 1.299038e+002
      vertex   -6.250000e+001 -7.500000e+000 1.082532e+002
    endloop
  endfacet
  facet normal 5.735764e-001 0.000000e+000 -8.191520e-001
    outer loop
      vertex   -8.034845e+001 7.500000e+000 9.575556e+001
      vertex   -6.250000e+001 7.500000e+000 1.082532e+002
      vertex   -6.250000e+001 -7.500000e+000 1.082532e+002
    endloop
  endfacet
  facet normal 7.071068e-001 0.000000e+000 -7.071068e-001
    outer loop
      vertex   -9.575556e+001 7.500000e+000 8.034845e+001
      vertex   -8.034845e+001 7.500000e+000 9.575556e+001
      vertex   -8.034845e+001 -7.500000e+000 9.575556e+001
    endloop
  endfacet
  facet normal 8.191520e-001 0.000000e+000 -5.735764e-001
    outer loop
      vertex   -1.082532e+002 7.500000e+000 6.250000e+001
      vertex   -9.575556e+001 7.500000e+000 8.034845e+001
      vertex   -9.575556e+001 -7.500000e+000 8.034845e+001
    endloop
  endfacet
  facet normal 8.191520e-001 0.000000e+000 -5.735764e-001
    outer loop
      vertex   -9.575556e+001 -7.500000e+000 8.034845e+001
      vertex   -1.082532e+002 -7.500000e+000 6.250000e+001
      vertex   -1.082532e+002 7.500000e+000 6.250000e+001
    endloop
  endfacet
  facet normal 7.071068e-001 0.000000e+000 -7.071068e-001
    outer loop
      vertex   -8.034845e+001 -7.500000e+000 9.575556e+001
      vertex   -9.575556e+001 -7.500000e+000 8.034845e+001
      vertex   -9.575556e+001 7.500000e+000 8.034845e+001
    endloop
  endfacet
  facet normal 5.735764e-001 0.000000e+000 -8.191520e-001
    outer loop
      vertex   -6.250000e+001 -7.500000e+000 1.082532e+002
      vertex   -8.034845e+001 -7.500000e+000 9.575556e+001
      vertex   -8.034845e+001 7.500000e+000 9.575556e+001
    endloop
  endfacet
  facet normal -5.000000e-001 0.000000e+000 -8.660254e-001
    outer loop
      vertex   -1.299038e+002 7.500000e+000 7.500000e+001
      vertex   -1.082532e+002 7.500000e+000 6.250000e+001
      vertex   -1.082532e+002 -7.500000e+000 6.250000e+001
    endloop
  endfacet
  facet normal -5.000000e-001 0.000000e+000 -8.660254e-001
    outer loop
      vertex   -1.082532e+002 -7.500000e+000 6.250000e+001
      vertex   -1.299038e+002 -7.500000e+000 7.500000e+001
      vertex   -1.299038e+002 7.500000e+000 7.500000e+001
    endloop
  endfacet
  facet normal 0.000000e+000 -1.000000e+000 0.000000e+000
    outer loop
      vertex   -9.641814e+001 -7.500000e+000 1.149067e+002
      vertex   -8.034845e+001 -7.500000e+000 9.575556e+001
      vertex   -6.250000e+001 -7.500000e+000 1.082532e+002
    endloop
  endfacet
  facet normal 0.000000e+000 -1.000000e+000 0.000000e+000
    outer loop
      vertex   -1.149067e+002 -7.500000e+000 9.641814e+001
      vertex   -9.575556e+001 -7.500000e+000 8.034845e+001
      vertex   -8.034845e+001 -7.500000e+000 9.575556e+001
    endloop
  endfacet
  facet normal 0.000000e+000 -1.000000e+000 0.000000e+000
    outer loop
      vertex   -8.034845e+001 -7.500000e+000 9.575556e+001
      vertex   -9.641814e+001 -7.500000e+000 1.149067e+002
      vertex   -1.149067e+002 -7.500000e+000 9.641814e+001
    endloop
  endfacet
  facet normal 0.000000e+000 -1.000000e+000 0.000000e+000
    outer loop
      vertex   -1.299038e+002 -7.500000e+000 7.500000e+001
      vertex   -1.082532e+002 -7.500000e+000 6.250000e+001
      vertex   -9.575556e+001 -7.500000e+000 8.034845e+001
    endloop
  endfacet
  facet normal -0.000000e+000 -1.000000e+000 0.000000e+000
    outer loop
      vertex   -9.575556e+001 -7.500000e+000 8.034845e+001
      vertex   -1.149067e+002 -7.500000e+000 9.641814e+001
      vertex   -1.299038e+002 -7.500000e+000 7.500000e+001
    endloop
  endfacet
  facet normal 0.000000e+000 -1.000000e+000 0.000000e+000
    outer loop
      vertex   -6.250000e+001 -7.500000e+000 1.082532e+002
      vertex   -7.500000e+001 -7.500000e+000 1.299038e+002
      vertex   -9.641814e+001 -7.500000e+000 1.149067e+002
    endloop
  endfacet
  facet normal 0.000000e+000 1.000000e+000 0.000000e+000
    outer loop
      vertex   -1.299038e+002 7.500000e+000 7.500000e+001
      vertex   -1.149067e+002 7.500000e+000 9.641814e+001
      vertex   -9.575556e+001 7.500000e+000 8.034845e+001
    endloop
  endfacet
  facet normal -0.000000e+000 1.000000e+000 0.000000e+000
    outer loop
      vertex   -1.149067e+002 7.500000e+000 9.641814e+001
      vertex   -9.641814e+001 7.500000e+000 1.149067e+002
      vertex   -8.034845e+001 7.500000e+000 9.575556e+001
    endloop
  endfacet
  facet normal 0.000000e+000 1.000000e+000 0.000000e+000
    outer loop
      vertex   -8.034845e+001 7.500000e+000 9.575556e+001
      vertex   -9.575556e+001 7.500000e+000 8.034845e+001
      vertex   -1.149067e+002 7.500000e+000 9.641814e+001
    endloop
  endfacet
  facet normal -0.000000e+000 1.000000e+000 0.000000e+000
    outer loop
      vertex   -9.641814e+001 7.500000e+000 1.149067e+002
      vertex   -7.500000e+001 7.500000e+000 1.299038e+002
      vertex   -6.250000e+001 7.500000e+000 1.082532e+002
    endloop
  endfacet
  facet normal 0.000000e+000 1.000000e+000 0.000000e+000
    outer loop
      vertex   -6.250000e+001 7.500000e+000 1.082532e+002
      vertex   -8.034845e+001 7.500000e+000 9.575556e+001
      vertex   -9.641814e+001 7.500000e+000 1.149067e+002
    endloop
  endfacet
  facet normal 0.000000e+000 1.000000e+000 0.000000e+000
    outer loop
      vertex   -9.575556e+001 7.500000e+000 8.034845e+001
      vertex   -1.082532e+002 7.500000e+000 6.250000e+001
      vertex   -1.299038e+002 7.500000e+000 7.500000e+001
    endloop
  endfacet
  facet normal 5.000000e-001 0.000000e+000 -8.660254e-001
    outer loop
      vertex   -1.299038e+002 7.500000e+000 -7.500000e+001
      vertex   -1.082532e+002 7.500000e+000 -6.250000e+001
      vertex   -1.082532e+002 -7.500000e+000 -6.250000e+001
    endloop
  endfacet
  facet normal 5.000000e-001 0.000000e+000 -8.660254e-001
    outer loop
      vertex   -1.082532e+002 -7.500000e+000 -6.250000e+001
      vertex   -1.299038e+002 -7.500000e+000 -7.500000e+001
      vertex   -1.299038e+002 7.500000e+000 -7.500000e+001
    endloop
  endfacet
  facet normal 9.961947e-001 0.000000e+000 8.715574e-002
    outer loop
      vertex   -1.231010e+002 7.500000e+000 -2.170602e+001
      vertex   -1.250000e+002 7.500000e+000 -1.530808e-014
      vertex   -1.250000e+002 -7.500000e+000 -1.530808e-014
    endloop
  endfacet
  facet normal 9.659258e-001 0.000000e+000 2.588190e-001
    outer loop
      vertex   -1.174616e+002 7.500000e+000 -4.275252e+001
      vertex   -1.231010e+002 7.500000e+000 -2.170602e+001
      vertex   -1.231010e+002 -7.500000e+000 -2.170602e+001
    endloop
  endfacet
  facet normal 9.063078e-001 0.000000e+000 4.226183e-001
    outer loop
      vertex   -1.082532e+002 7.500000e+000 -6.250000e+001
      vertex   -1.174616e+002 7.500000e+000 -4.275252e+001
      vertex   -1.174616e+002 -7.500000e+000 -4.275252e+001
    endloop
  endfacet
  facet normal 9.063078e-001 0.000000e+000 4.226183e-001
    outer loop
      vertex   -1.174616e+002 -7.500000e+000 -4.275252e+001
      vertex   -1.082532e+002 -7.500000e+000 -6.250000e+001
      vertex   -1.082532e+002 7.500000e+000 -6.250000e+001
    endloop
  endfacet
  facet normal 9.659258e-001 0.000000e+000 2.588190e-001
    outer loop
      vertex   -1.231010e+002 -7.500000e+000 -2.170602e+001
      vertex   -1.174616e+002 -7.500000e+000 -4.275252e+001
      vertex   -1.174616e+002 7.500000e+000 -4.275252e+001
    endloop
  endfacet
  facet normal 9.961947e-001 0.000000e+000 8.715574e-002
    outer loop
      vertex   -1.250000e+002 -7.500000e+000 -1.530808e-014
      vertex   -1.231010e+002 -7.500000e+000 -2.170602e+001
      vertex   -1.231010e+002 7.500000e+000 -2.170602e+001
    endloop
  endfacet
  facet normal -1.224647e-016 0.000000e+000 1.000000e+000
    outer loop
      vertex   -1.250000e+002 -7.500000e+000 -1.530808e-014
      vertex   -1.250000e+002 7.500000e+000 -1.530808e-014
      vertex   -1.500000e+002 7.500000e+000 -1.836970e-014
    endloop
  endfacet
  facet normal -1.224647e-016 0.000000e+000 1.000000e+000
    outer loop
      vertex   -1.500000e+002 7.500000e+000 -1.836970e-014
      vertex   -1.500000e+002 -7.500000e+000 -1.836970e-014
      vertex   -1.250000e+002 -7.500000e+000 -1.530808e-014
    endloop
  endfacet
  facet normal -9.063078e-001 -0.000000e+000 -4.226183e-001
    outer loop
      vertex   -1.299038e+002 7.500000e+000 -7.500000e+001
      vertex   -1.299038e+002 -7.500000e+000 -7.500000e+001
      vertex   -1.409539e+002 -7.500000e+000 -5.130302e+001
    endloop
  endfacet
  facet normal -9.659258e-001 -0.000000e+000 -2.588190e-001
    outer loop
      vertex   -1.409539e+002 7.500000e+000 -5.130302e+001
      vertex   -1.409539e+002 -7.500000e+000 -5.130302e+001
      vertex   -1.477212e+002 -7.500000e+000 -2.604723e+001
    endloop
  endfacet
  facet normal -9.961947e-001 -0.000000e+000 -8.715574e-002
    outer loop
      vertex   -1.477212e+002 7.500000e+000 -2.604723e+001
      vertex   -1.477212e+002 -7.500000e+000 -2.604723e+001
      vertex   -1.500000e+002 -7.500000e+000 -1.836970e-014
    endloop
  endfacet
  facet normal -9.961947e-001 0.000000e+000 -8.715574e-002
    outer loop
      vertex   -1.500000e+002 -7.500000e+000 -1.836970e-014
      vertex   -1.500000e+002 7.500000e+000 -1.836970e-014
      vertex   -1.477212e+002 7.500000e+000 -2.604723e+001
    endloop
  endfacet
  facet normal -9.659258e-001 0.000000e+000 -2.588190e-001
    outer loop
      vertex   -1.477212e+002 -7.500000e+000 -2.604723e+001
      vertex   -1.477212e+002 7.500000e+000 -2.604723e+001
      vertex   -1.409539e+002 7.500000e+000 -5.130302e+001
    endloop
  endfacet
  facet normal -9.063078e-001 0.000000e+000 -4.226183e-001
    outer loop
      vertex   -1.409539e+002 -7.500000e+000 -5.130302e+001
      vertex   -1.409539e+002 7.500000e+000 -5.130302e+001
      vertex   -1.299038e+002 7.500000e+000 -7.500000e+001
    endloop
  endfacet
  facet normal 0.000000e+000 -1.000000e+000 0.000000e+000
    outer loop
      vertex   -1.500000e+002 -7.500000e+000 -1.836970e-014
      vertex   -1.477212e+002 -7.500000e+000 -2.604723e+001
      vertex   -1.231010e+002 -7.500000e+000 -2.170602e+001
    endloop
  endfacet
  facet normal 0.000000e+000 -1.000000e+000 0.000000e+000
    outer loop
      vertex   -1.477212e+002 -7.500000e+000 -2.604723e+001
      vertex   -1.409539e+002 -7.500000e+000 -5.130302e+001
      vertex   -1.174616e+002 -7.500000e+000 -4.275252e+001
    endloop
  endfacet
  facet normal 0.000000e+000 -1.000000e+000 0.000000e+000
    outer loop
      vertex   -1.174616e+002 -7.500000e+000 -4.275252e+001
      vertex   -1.231010e+002 -7.500000e+000 -2.170602e+001
      vertex   -1.477212e+002 -7.500000e+000 -2.604723e+001
    endloop
  endfacet
  facet normal 0.000000e+000 -1.000000e+000 0.000000e+000
    outer loop
      vertex   -1.409539e+002 -7.500000e+000 -5.130302e+001
      vertex   -1.299038e+002 -7.500000e+000 -7.500000e+001
      vertex   -1.082532e+002 -7.500000e+000 -6.250000e+001
    endloop
  endfacet
  facet normal 0.000000e+000 -1.000000e+000 0.000000e+000
    outer loop
      vertex   -1.082532e+002 -7.500000e+000 -6.250000e+001
      vertex   -1.174616e+002 -7.500000e+000 -4.275252e+001
      vertex   -1.409539e+002 -7.500000e+000 -5.130302e+001
    endloop
  endfacet
  facet normal 0.000000e+000 -1.000000e+000 0.000000e+000
    outer loop
      vertex   -1.231010e+002 -7.500000e+000 -2.170602e+001
      vertex   -1.250000e+002 -7.500000e+000 -1.530808e-014
      vertex   -1.500000e+002 -7.500000e+000 -1.836970e-014
    endloop
  endfacet
  facet normal -0.000000e+000 1.000000e+000 0.000000e+000
    outer loop
      vertex   -1.477212e+002 7.500000e+000 -2.604723e+001
      vertex   -1.231010e+002 7.500000e+000 -2.170602e+001
      vertex   -1.174616e+002 7.500000e+000 -4.275252e+001
    endloop
  endfacet
  facet normal 0.000000e+000 1.000000e+000 -0.000000e+000
    outer loop
      vertex   -1.477212e+002 7.500000e+000 -2.604723e+001
      vertex   -1.500000e+002 7.500000e+000 -1.836970e-014
      vertex   -1.250000e+002 7.500000e+000 -1.530808e-014
    endloop
  endfacet
  facet normal 0.000000e+000 1.000000e+000 -0.000000e+000
    outer loop
      vertex   -1.299038e+002 7.500000e+000 -7.500000e+001
      vertex   -1.409539e+002 7.500000e+000 -5.130302e+001
      vertex   -1.174616e+002 7.500000e+000 -4.275252e+001
    endloop
  endfacet
  facet normal 0.000000e+000 1.000000e+000 0.000000e+000
    outer loop
      vertex   -1.250000e+002 7.500000e+000 -1.530808e-014
      vertex   -1.231010e+002 7.500000e+000 -2.170602e+001
      vertex   -1.477212e+002 7.500000e+000 -2.604723e+001
    endloop
  endfacet
  facet normal 0.000000e+000 1.000000e+000 0.000000e+000
    outer loop
      vertex   -1.174616e+002 7.500000e+000 -4.275252e+001
      vertex   -1.409539e+002 7.500000e+000 -5.130302e+001
      vertex   -1.477212e+002 7.500000e+000 -2.604723e+001
    endloop
  endfacet
  facet normal 0.000000e+000 1.000000e+000 0.000000e+000
    outer loop
      vertex   -1.174616e+002 7.500000e+000 -4.275252e+001
      vertex   -1.082532e+002 7.500000e+000 -6.250000e+001
      vertex   -1.299038e+002 7.500000e+000 -7.500000e+001
    endloop
  endfacet
  facet normal 8.715574e-002 0.000000e+000 9.961947e-001
    outer loop
      vertex   -2.755455e-014 7.500000e+000 1.500000e+002
      vertex   -2.755455e-014 -7.500000e+000 1.500000e+002
      vertex   2.604723e+001 -7.500000e+000 1.477212e+002
    endloop
  endfacet
  facet normal 2.588190e-001 0.000000e+000 9.659258e-001
    outer loop
      vertex   2.604723e+001 7.500000e+000 1.477212e+002
      vertex   2.604723e+001 -7.500000e+000 1.477212e+002
      vertex   5.130302e+001 -7.500000e+000 1.409539e+002
    endloop
  endfacet
  facet normal 4.226183e-001 0.000000e+000 9.063078e-001
    outer loop
      vertex   5.130302e+001 7.500000e+000 1.409539e+002
      vertex   5.130302e+001 -7.500000e+000 1.409539e+002
      vertex   7.500000e+001 -7.500000e+000 1.299038e+002
    endloop
  endfacet
  facet normal 4.226183e-001 -0.000000e+000 9.063078e-001
    outer loop
      vertex   7.500000e+001 -7.500000e+000 1.299038e+002
      vertex   7.500000e+001 7.500000e+000 1.299038e+002
      vertex   5.130302e+001 7.500000e+000 1.409539e+002
    endloop
  endfacet
  facet normal 2.588190e-001 -0.000000e+000 9.659258e-001
    outer loop
      vertex   5.130302e+001 -7.500000e+000 1.409539e+002
      vertex   5.130302e+001 7.500000e+000 1.409539e+002
      vertex   2.604723e+001 7.500000e+000 1.477212e+002
    endloop
  endfacet
  facet normal 8.715574e-002 -0.000000e+000 9.961947e-001
    outer loop
      vertex   2.604723e+001 -7.500000e+000 1.477212e+002
      vertex   2.604723e+001 7.500000e+000 1.477212e+002
      vertex   -2.755455e-014 7.500000e+000 1.500000e+002
    endloop
  endfacet
  facet normal 8.660254e-001 0.000000e+000 -5.000000e-001
    outer loop
      vertex   6.250000e+001 -7.500000e+000 1.082532e+002
      vertex   6.250000e+001 7.500000e+000 1.082532e+002
      vertex   7.500000e+001 7.500000e+000 1.299038e+002
    endloop
  endfacet
  facet normal 8.660254e-001 0.000000e+000 -5.000000e-001
    outer loop
      vertex   7.500000e+001 7.500000e+000 1.299038e+002
      vertex   7.500000e+001 -7.500000e+000 1.299038e+002
      vertex   6.250000e+001 -7.500000e+000 1.082532e+002
    endloop
  endfacet
  facet normal -4.226183e-001 0.000000e+000 -9.063078e-001
    outer loop
      vertex   4.275252e+001 7.500000e+000 1.174616e+002
      vertex   6.250000e+001 7.500000e+000 1.082532e+002
      vertex   6.250000e+001 -7.500000e+000 1.082532e+002
    endloop
  endfacet
  facet normal -2.588190e-001 0.000000e+000 -9.659258e-001
    outer loop
      vertex   2.170602e+001 7.500000e+000 1.231010e+002
      vertex   4.275252e+001 7.500000e+000 1.174616e+002
      vertex   4.275252e+001 -7.500000e+000 1.174616e+002
    endloop
  endfacet
  facet normal -8.715574e-002 0.000000e+000 -9.961947e-001
    outer loop
      vertex   -2.010153e-014 7.500000e+000 1.250000e+002
      vertex   2.170602e+001 7.500000e+000 1.231010e+002
      vertex   2.170602e+001 -7.500000e+000 1.231010e+002
    endloop
  endfacet
  facet normal -8.715574e-002 0.000000e+000 -9.961947e-001
    outer loop
      vertex   2.170602e+001 -7.500000e+000 1.231010e+002
      vertex   -2.010153e-014 -7.500000e+000 1.250000e+002
      vertex   -2.010153e-014 7.500000e+000 1.250000e+002
    endloop
  endfacet
  facet normal -2.588190e-001 0.000000e+000 -9.659258e-001
    outer loop
      vertex   4.275252e+001 -7.500000e+000 1.174616e+002
      vertex   2.170602e+001 -7.500000e+000 1.231010e+002
      vertex   2.170602e+001 7.500000e+000 1.231010e+002
    endloop
  endfacet
  facet normal -4.226183e-001 0.000000e+000 -9.063078e-001
    outer loop
      vertex   6.250000e+001 -7.500000e+000 1.082532e+002
      vertex   4.275252e+001 -7.500000e+000 1.174616e+002
      vertex   4.275252e+001 7.500000e+000 1.174616e+002
    endloop
  endfacet
  facet normal -1.000000e+000 0.000000e+000 -2.981208e-016
    outer loop
      vertex   -2.755455e-014 -7.500000e+000 1.500000e+002
      vertex   -2.755455e-014 7.500000e+000 1.500000e+002
      vertex   -2.010153e-014 7.500000e+000 1.250000e+002
    endloop
  endfacet
  facet normal -1.000000e+000 -0.000000e+000 -2.981208e-016
    outer loop
      vertex   -2.010153e-014 7.500000e+000 1.250000e+002
      vertex   -2.010153e-014 -7.500000e+000 1.250000e+002
      vertex   -2.755455e-014 -7.500000e+000 1.500000e+002
    endloop
  endfacet
  facet normal 0.000000e+000 -1.000000e+000 -0.000000e+000
    outer loop
      vertex   5.130302e+001 -7.500000e+000 1.409539e+002
      vertex   4.275252e+001 -7.500000e+000 1.174616e+002
      vertex   6.250000e+001 -7.500000e+000 1.082532e+002
    endloop
  endfacet
  facet normal -0.000000e+000 -1.000000e+000 0.000000e+000
    outer loop
      vertex   5.130302e+001 -7.500000e+000 1.409539e+002
      vertex   2.604723e+001 -7.500000e+000 1.477212e+002
      vertex   2.170602e+001 -7.500000e+000 1.231010e+002
    endloop
  endfacet
  facet normal 0.000000e+000 -1.000000e+000 0.000000e+000
    outer loop
      vertex   2.170602e+001 -7.500000e+000 1.231010e+002
      vertex   4.275252e+001 -7.500000e+000 1.174616e+002
      vertex   5.130302e+001 -7.500000e+000 1.409539e+002
    endloop
  endfacet
  facet normal -0.000000e+000 -1.000000e+000 0.000000e+000
    outer loop
      vertex   2.604723e+001 -7.500000e+000 1.477212e+002
      vertex   -2.755455e-014 -7.500000e+000 1.500000e+002
      vertex   -2.010153e-014 -7.500000e+000 1.250000e+002
    endloop
  endfacet
  facet normal 0.000000e+000 -1.000000e+000 0.000000e+000
    outer loop
      vertex   -2.010153e-014 -7.500000e+000 1.250000e+002
      vertex   2.170602e+001 -7.500000e+000 1.231010e+002
      vertex   2.604723e+001 -7.500000e+000 1.477212e+002
    endloop
  endfacet
  facet normal 0.000000e+000 -1.000000e+000 0.000000e+000
    outer loop
      vertex   6.250000e+001 -7.500000e+000 1.082532e+002
      vertex   7.500000e+001 -7.500000e+000 1.299038e+002
      vertex   5.130302e+001 -7.500000e+000 1.409539e+002
    endloop
  endfacet
  facet normal 0.000000e+000 1.000000e+000 0.000000e+000
    outer loop
      vertex   5.130302e+001 7.500000e+000 1.409539e+002
      vertex   4.275252e+001 7.500000e+000 1.174616e+002
      vertex   2.170602e+001 7.500000e+000 1.231010e+002
    endloop
  endfacet
  facet normal 0.000000e+000 1.000000e+000 0.000000e+000
    outer loop
      vertex   5.130302e+001 7.500000e+000 1.409539e+002
      vertex   7.500000e+001 7.500000e+000 1.299038e+002
      vertex   6.250000e+001 7.500000e+000 1.082532e+002
    endloop
  endfacet
  facet normal 0.000000e+000 1.000000e+000 0.000000e+000
    outer loop
      vertex   2.604723e+001 7.500000e+000 1.477212e+002
      vertex   2.170602e+001 7.500000e+000 1.231010e+002
      vertex   -2.010153e-014 7.500000e+000 1.250000e+002
    endloop
  endfacet
  facet normal 0.000000e+000 1.000000e+000 0.000000e+000
    outer loop
      vertex   6.250000e+001 7.500000e+000 1.082532e+002
      vertex   4.275252e+001 7.500000e+000 1.174616e+002
      vertex   5.130302e+001 7.500000e+000 1.409539e+002
    endloop
  endfacet
  facet normal 0.000000e+000 1.000000e+000 0.000000e+000
    outer loop
      vertex   2.170602e+001 7.500000e+000 1.231010e+002
      vertex   2.604723e+001 7.500000e+000 1.477212e+002
      vertex   5.130302e+001 7.500000e+000 1.409539e+002
    endloop
  endfacet
  facet normal 0.000000e+000 1.000000e+000 -0.000000e+000
    outer loop
      vertex   -2.010153e-014 7.500000e+000 1.250000e+002
      vertex   -2.755455e-014 7.500000e+000 1.500000e+002
      vertex   2.604723e+001 7.500000e+000 1.477212e+002
    endloop
  endfacet
  facet normal -5.000000e-001 0.000000e+000 8.660254e-001
    outer loop
      vertex   1.299038e+002 -7.500000e+000 7.500000e+001
      vertex   1.299038e+002 7.500000e+000 7.500000e+001
      vertex   1.082532e+002 7.500000e+000 6.250000e+001
    endloop
  endfacet
  facet normal -5.000000e-001 0.000000e+000 8.660254e-001
    outer loop
      vertex   1.082532e+002 7.500000e+000 6.250000e+001
      vertex   1.082532e+002 -7.500000e+000 6.250000e+001
      vertex   1.299038e+002 -7.500000e+000 7.500000e+001
    endloop
  endfacet
  facet normal -9.961947e-001 0.000000e+000 -8.715574e-002
    outer loop
      vertex   1.231010e+002 7.500000e+000 2.170602e+001
      vertex   1.250000e+002 7.500000e+000 1.530808e-014
      vertex   1.250000e+002 -7.500000e+000 1.530808e-014
    endloop
  endfacet
  facet normal -9.659258e-001 0.000000e+000 -2.588190e-001
    outer loop
      vertex   1.174616e+002 7.500000e+000 4.275252e+001
      vertex   1.231010e+002 7.500000e+000 2.170602e+001
      vertex   1.231010e+002 -7.500000e+000 2.170602e+001
    endloop
  endfacet
  facet normal -9.063078e-001 0.000000e+000 -4.226183e-001
    outer loop
      vertex   1.082532e+002 7.500000e+000 6.250000e+001
      vertex   1.174616e+002 7.500000e+000 4.275252e+001
      vertex   1.174616e+002 -7.500000e+000 4.275252e+001
    endloop
  endfacet
  facet normal -9.063078e-001 0.000000e+000 -4.226183e-001
    outer loop
      vertex   1.174616e+002 -7.500000e+000 4.275252e+001
      vertex   1.082532e+002 -7.500000e+000 6.250000e+001
      vertex   1.082532e+002 7.500000e+000 6.250000e+001
    endloop
  endfacet
  facet normal -9.659258e-001 0.000000e+000 -2.588190e-001
    outer loop
      vertex   1.231010e+002 -7.500000e+000 2.170602e+001
      vertex   1.174616e+002 -7.500000e+000 4.275252e+001
      vertex   1.174616e+002 7.500000e+000 4.275252e+001
    endloop
  endfacet
  facet normal -9.961947e-001 0.000000e+000 -8.715574e-002
    outer loop
      vertex   1.250000e+002 -7.500000e+000 1.530808e-014
      vertex   1.231010e+002 -7.500000e+000 2.170602e+001
      vertex   1.231010e+002 7.500000e+000 2.170602e+001
    endloop
  endfacet
  facet normal -6.123234e-016 0.000000e+000 -1.000000e+000
    outer loop
      vertex   1.250000e+002 -7.500000e+000 1.530808e-014
      vertex   1.250000e+002 7.500000e+000 1.530808e-014
      vertex   1.500000e+002 7.500000e+000 0.000000e+000
    endloop
  endfacet
  facet normal -6.123234e-016 -0.000000e+000 -1.000000e+000
    outer loop
      vertex   1.500000e+002 7.500000e+000 0.000000e+000
      vertex   1.500000e+002 -7.500000e+000 0.000000e+000
      vertex   1.250000e+002 -7.500000e+000 1.530808e-014
    endloop
  endfacet
  facet normal 9.063078e-001 0.000000e+000 4.226183e-001
    outer loop
      vertex   1.299038e+002 7.500000e+000 7.500000e+001
      vertex   1.299038e+002 -7.500000e+000 7.500000e+001
      vertex   1.409539e+002 -7.500000e+000 5.130302e+001
    endloop
  endfacet
  facet normal 9.659258e-001 0.000000e+000 2.588190e-001
    outer loop
      vertex   1.409539e+002 7.500000e+000 5.130302e+001
      vertex   1.409539e+002 -7.500000e+000 5.130302e+001
      vertex   1.477212e+002 -7.500000e+000 2.604723e+001
    endloop
  endfacet
  facet normal 9.961947e-001 0.000000e+000 8.715574e-002
    outer loop
      vertex   1.477212e+002 7.500000e+000 2.604723e+001
      vertex   1.477212e+002 -7.500000e+000 2.604723e+001
      vertex   1.500000e+002 -7.500000e+000 0.000000e+000
    endloop
  endfacet
  facet normal 9.961947e-001 -0.000000e+000 8.715574e-002
    outer loop
      vertex   1.500000e+002 -7.500000e+000 0.000000e+000
      vertex   1.500000e+002 7.500000e+000 0.000000e+000
      vertex   1.477212e+002 7.500000e+000 2.604723e+001
    endloop
  endfacet
  facet normal 9.659258e-001 -0.000000e+000 2.588190e-001
    outer loop
      vertex   1.477212e+002 -7.500000e+000 2.604723e+001
      vertex   1.477212e+002 7.500000e+000 2.604723e+001
      vertex   1.409539e+002 7.500000e+000 5.130302e+001
    endloop
  endfacet
  facet normal 9.063078e-001 -0.000000e+000 4.226183e-001
    outer loop
      vertex   1.409539e+002 -7.500000e+000 5.130302e+001
      vertex   1.409539e+002 7.500000e+000 5.130302e+001
      vertex   1.299038e+002 7.500000e+000 7.500000e+001
    endloop
  endfacet
  facet normal 0.000000e+000 -1.000000e+000 0.000000e+000
    outer loop
      vertex   1.477212e+002 -7.500000e+000 2.604723e+001
      vertex   1.231010e+002 -7.500000e+000 2.170602e+001
      vertex   1.250000e+002 -7.500000e+000 1.530808e-014
    endloop
  endfacet
  facet normal 0.000000e+000 -1.000000e+000 0.000000e+000
    outer loop
      vertex   1.409539e+002 -7.500000e+000 5.130302e+001
      vertex   1.174616e+002 -7.500000e+000 4.275252e+001
      vertex   1.231010e+002 -7.500000e+000 2.170602e+001
    endloop
  endfacet
  facet normal 0.000000e+000 -1.000000e+000 0.000000e+000
    outer loop
      vertex   1.231010e+002 -7.500000e+000 2.170602e+001
      vertex   1.477212e+002 -7.500000e+000 2.604723e+001
      vertex   1.409539e+002 -7.500000e+000 5.130302e+001
    endloop
  endfacet
  facet normal 0.000000e+000 -1.000000e+000 0.000000e+000
    outer loop
      vertex   1.299038e+002 -7.500000e+000 7.500000e+001
      vertex   1.082532e+002 -7.500000e+000 6.250000e+001
      vertex   1.174616e+002 -7.500000e+000 4.275252e+001
    endloop
  endfacet
  facet normal 0.000000e+000 -1.000000e+000 0.000000e+000
    outer loop
      vertex   1.174616e+002 -7.500000e+000 4.275252e+001
      vertex   1.409539e+002 -7.500000e+000 5.130302e+001
      vertex   1.299038e+002 -7.500000e+000 7.500000e+001
    endloop
  endfacet
  facet normal 0.000000e+000 -1.000000e+000 0.000000e+000
    outer loop
      vertex   1.250000e+002 -7.500000e+000 1.530808e-014
      vertex   1.500000e+002 -7.500000e+000 0.000000e+000
      vertex   1.477212e+002 -7.500000e+000 2.604723e+001
    endloop
  endfacet
  facet normal 0.000000e+000 1.000000e+000 0.000000e+000
    outer loop
      vertex   1.409539e+002 7.500000e+000 5.130302e+001
      vertex   1.477212e+002 7.500000e+000 2.604723e+001
      vertex   1.231010e+002 7.500000e+000 2.170602e+001
    endloop
  endfacet
  facet normal 0.000000e+000 1.000000e+000 0.000000e+000
    outer loop
      vertex   1.477212e+002 7.500000e+000 2.604723e+001
      vertex   1.500000e+002 7.500000e+000 0.000000e+000
      vertex   1.250000e+002 7.500000e+000 1.530808e-014
    endloop
  endfacet
  facet normal 0.000000e+000 1.000000e+000 0.000000e+000
    outer loop
      vertex   1.299038e+002 7.500000e+000 7.500000e+001
      vertex   1.409539e+002 7.500000e+000 5.130302e+001
      vertex   1.174616e+002 7.500000e+000 4.275252e+001
    endloop
  endfacet
  facet normal 0.000000e+000 1.000000e+000 -0.000000e+000
    outer loop
      vertex   1.250000e+002 7.500000e+000 1.530808e-014
      vertex   1.231010e+002 7.500000e+000 2.170602e+001
      vertex   1.477212e+002 7.500000e+000 2.604723e+001
    endloop
  endfacet
  facet normal 0.000000e+000 1.000000e+000 -0.000000e+000
    outer loop
      vertex   1.231010e+002 7.500000e+000 2.170602e+001
      vertex   1.174616e+002 7.500000e+000 4.275252e+001
      vertex   1.409539e+002 7.500000e+000 5.130302e+001
    endloop
  endfacet
  facet normal 0.000000e+000 1.000000e+000 -0.000000e+000
    outer loop
      vertex   1.174616e+002 7.500000e+000 4.275252e+001
      vertex   1.082532e+002 7.500000e+000 6.250000e+001
      vertex   1.299038e+002 7.500000e+000 7.500000e+001
    endloop
  endfacet
  facet normal 5.000000e-001 0.000000e+000 8.660254e-001
    outer loop
      vertex   1.299038e+002 7.500000e+000 -7.500000e+001
      vertex   1.082532e+002 7.500000e+000 -6.250000e+001
      vertex   1.082532e+002 -7.500000e+000 -6.250000e+001
    endloop
  endfacet
  facet normal 5.000000e-001 0.000000e+000 8.660254e-001
    outer loop
      vertex   1.082532e+002 -7.500000e+000 -6.250000e+001
      vertex   1.299038e+002 -7.500000e+000 -7.500000e+001
      vertex   1.299038e+002 7.500000e+000 -7.500000e+001
    endloop
  endfacet
  facet normal 8.191520e-001 0.000000e+000 -5.735764e-001
    outer loop
      vertex   1.299038e+002 7.500000e+000 -7.500000e+001
      vertex   1.299038e+002 -7.500000e+000 -7.500000e+001
      vertex   1.149067e+002 -7.500000e+000 -9.641814e+001
    endloop
  endfacet
  facet normal 7.071068e-001 0.000000e+000 -7.071068e-001
    outer loop
      vertex   1.149067e+002 7.500000e+000 -9.641814e+001
      vertex   1.149067e+002 -7.500000e+000 -9.641814e+001
      vertex   9.641814e+001 -7.500000e+000 -1.149067e+002
    endloop
  endfacet
  facet normal 5.735764e-001 0.000000e+000 -8.191520e-001
    outer loop
      vertex   9.641814e+001 7.500000e+000 -1.149067e+002
      vertex   9.641814e+001 -7.500000e+000 -1.149067e+002
      vertex   7.500000e+001 -7.500000e+000 -1.299038e+002
    endloop
  endfacet
  facet normal 5.735764e-001 0.000000e+000 -8.191520e-001
    outer loop
      vertex   7.500000e+001 -7.500000e+000 -1.299038e+002
      vertex   7.500000e+001 7.500000e+000 -1.299038e+002
      vertex   9.641814e+001 7.500000e+000 -1.149067e+002
    endloop
  endfacet
  facet normal 7.071068e-001 0.000000e+000 -7.071068e-001
    outer loop
      vertex   9.641814e+001 -7.500000e+000 -1.149067e+002
      vertex   9.641814e+001 7.500000e+000 -1.149067e+002
      vertex   1.149067e+002 7.500000e+000 -9.641814e+001
    endloop
  endfacet
  facet normal 8.191520e-001 0.000000e+000 -5.735764e-001
    outer loop
      vertex   1.149067e+002 -7.500000e+000 -9.641814e+001
      vertex   1.149067e+002 7.500000e+000 -9.641814e+001
      vertex   1.299038e+002 7.500000e+000 -7.500000e+001
    endloop
  endfacet
  facet normal -8.660254e-001 0.000000e+000 -5.000000e-001
    outer loop
      vertex   6.250000e+001 -7.500000e+000 -1.082532e+002
      vertex   6.250000e+001 7.500000e+000 -1.082532e+002
      vertex   7.500000e+001 7.500000e+000 -1.299038e+002
    endloop
  endfacet
  facet normal -8.660254e-001 -0.000000e+000 -5.000000e-001
    outer loop
      vertex   7.500000e+001 7.500000e+000 -1.299038e+002
      vertex   7.500000e+001 -7.500000e+000 -1.299038e+002
      vertex   6.250000e+001 -7.500000e+000 -1.082532e+002
    endloop
  endfacet
  facet normal -5.735764e-001 0.000000e+000 8.191520e-001
    outer loop
      vertex   8.034845e+001 7.500000e+000 -9.575556e+001
      vertex   6.250000e+001 7.500000e+000 -1.082532e+002
      vertex   6.250000e+001 -7.500000e+000 -1.082532e+002
    endloop
  endfacet
  facet normal -7.071068e-001 0.000000e+000 7.071068e-001
    outer loop
      vertex   9.575556e+001 7.500000e+000 -8.034845e+001
      vertex   8.034845e+001 7.500000e+000 -9.575556e+001
      vertex   8.034845e+001 -7.500000e+000 -9.575556e+001
    endloop
  endfacet
  facet normal -8.191520e-001 0.000000e+000 5.735764e-001
    outer loop
      vertex   1.082532e+002 7.500000e+000 -6.250000e+001
      vertex   9.575556e+001 7.500000e+000 -8.034845e+001
      vertex   9.575556e+001 -7.500000e+000 -8.034845e+001
    endloop
  endfacet
  facet normal -8.191520e-001 0.000000e+000 5.735764e-001
    outer loop
      vertex   9.575556e+001 -7.500000e+000 -8.034845e+001
      vertex   1.082532e+002 -7.500000e+000 -6.250000e+001
      vertex   1.082532e+002 7.500000e+000 -6.250000e+001
    endloop
  endfacet
  facet normal -7.071068e-001 0.000000e+000 7.071068e-001
    outer loop
      vertex   8.034845e+001 -7.500000e+000 -9.575556e+001
      vertex   9.575556e+001 -7.500000e+000 -8.034845e+001
      vertex   9.575556e+001 7.500000e+000 -8.034845e+001
    endloop
  endfacet
  facet normal -5.735764e-001 0.000000e+000 8.191520e-001
    outer loop
      vertex   6.250000e+001 -7.500000e+000 -1.082532e+002
      vertex   8.034845e+001 -7.500000e+000 -9.575556e+001
      vertex   8.034845e+001 7.500000e+000 -9.575556e+001
    endloop
  endfacet
  facet normal 0.000000e+000 -1.000000e+000 0.000000e+000
    outer loop
      vertex   1.149067e+002 -7.500000e+000 -9.641814e+001
      vertex   9.575556e+001 -7.500000e+000 -8.034845e+001
      vertex   8.034845e+001 -7.500000e+000 -9.575556e+001
    endloop
  endfacet
  facet normal -0.000000e+000 -1.000000e+000 0.000000e+000
    outer loop
      vertex   1.299038e+002 -7.500000e+000 -7.500000e+001
      vertex   1.082532e+002 -7.500000e+000 -6.250000e+001
      vertex   9.575556e+001 -7.500000e+000 -8.034845e+001
    endloop
  endfacet
  facet normal 0.000000e+000 -1.000000e+000 0.000000e+000
    outer loop
      vertex   7.500000e+001 -7.500000e+000 -1.299038e+002
      vertex   9.641814e+001 -7.500000e+000 -1.149067e+002
      vertex   8.034845e+001 -7.500000e+000 -9.575556e+001
    endloop
  endfacet
  facet normal 0.000000e+000 -1.000000e+000 0.000000e+000
    outer loop
      vertex   9.575556e+001 -7.500000e+000 -8.034845e+001
      vertex   1.149067e+002 -7.500000e+000 -9.641814e+001
      vertex   1.299038e+002 -7.500000e+000 -7.500000e+001
    endloop
  endfacet
  facet normal 0.000000e+000 -1.000000e+000 0.000000e+000
    outer loop
      vertex   8.034845e+001 -7.500000e+000 -9.575556e+001
      vertex   9.641814e+001 -7.500000e+000 -1.149067e+002
      vertex   1.149067e+002 -7.500000e+000 -9.641814e+001
    endloop
  endfacet
  facet normal 0.000000e+000 -1.000000e+000 0.000000e+000
    outer loop
      vertex   8.034845e+001 -7.500000e+000 -9.575556e+001
      vertex   6.250000e+001 -7.500000e+000 -1.082532e+002
      vertex   7.500000e+001 -7.500000e+000 -1.299038e+002
    endloop
  endfacet
  facet normal 0.000000e+000 1.000000e+000 0.000000e+000
    outer loop
      vertex   1.149067e+002 7.500000e+000 -9.641814e+001
      vertex   9.641814e+001 7.500000e+000 -1.149067e+002
      vertex   8.034845e+001 7.500000e+000 -9.575556e+001
    endloop
  endfacet
  facet normal 0.000000e+000 1.000000e+000 0.000000e+000
    outer loop
      vertex   9.641814e+001 7.500000e+000 -1.149067e+002
      vertex   7.500000e+001 7.500000e+000 -1.299038e+002
      vertex   6.250000e+001 7.500000e+000 -1.082532e+002
    endloop
  endfacet
  facet normal 0.000000e+000 1.000000e+000 0.000000e+000
    outer loop
      vertex   1.299038e+002 7.500000e+000 -7.500000e+001
      vertex   1.149067e+002 7.500000e+000 -9.641814e+001
      vertex   9.575556e+001 7.500000e+000 -8.034845e+001
    endloop
  endfacet
  facet normal -0.000000e+000 1.000000e+000 0.000000e+000
    outer loop
      vertex   6.250000e+001 7.500000e+000 -1.082532e+002
      vertex   8.034845e+001 7.500000e+000 -9.575556e+001
      vertex   9.641814e+001 7.500000e+000 -1.149067e+002
    endloop
  endfacet
  facet normal -0.000000e+000 1.000000e+000 0.000000e+000
    outer loop
      vertex   8.034845e+001 7.500000e+000 -9.575556e+001
      vertex   9.575556e+001 7.500000e+000 -8.034845e+001
      vertex   1.149067e+002 7.500000e+000 -9.641814e+001
    endloop
  endfacet
  facet normal 0.000000e+000 1.000000e+000 0.000000e+000
    outer loop
      vertex   9.575556e+001 7.500000e+000 -8.034845e+001
      vertex   1.082532e+002 7.500000e+000 -6.250000e+001
      vertex   1.299038e+002 7.500000e+000 -7.500000e+001
    endloop
  endfacet
  facet normal 1.000000e+000 0.000000e+000 -2.981208e-016
    outer loop
      vertex   -2.755455e-014 -7.500000e+000 -1.500000e+002
      vertex   -2.755455e-014 7.500000e+000 -1.500000e+002
      vertex   -2.010153e-014 7.500000e+000 -1.250000e+002
    endloop
  endfacet
  facet normal 1.000000e+000 0.000000e+000 -2.981208e-016
    outer loop
      vertex   -2.010153e-014 7.500000e+000 -1.250000e+002
      vertex   -2.010153e-014 -7.500000e+000 -1.250000e+002
      vertex   -2.755455e-014 -7.500000e+000 -1.500000e+002
    endloop
  endfacet
  facet normal 4.226183e-001 0.000000e+000 9.063078e-001
    outer loop
      vertex   -4.275252e+001 7.500000e+000 -1.174616e+002
      vertex   -6.250000e+001 7.500000e+000 -1.082532e+002
      vertex   -6.250000e+001 -7.500000e+000 -1.082532e+002
    endloop
  endfacet
  facet normal 2.588190e-001 0.000000e+000 9.659258e-001
    outer loop
      vertex   -2.170602e+001 7.500000e+000 -1.231010e+002
      vertex   -4.275252e+001 7.500000e+000 -1.174616e+002
      vertex   -4.275252e+001 -7.500000e+000 -1.174616e+002
    endloop
  endfacet
  facet normal 8.715574e-002 0.000000e+000 9.961947e-001
    outer loop
      vertex   -2.010153e-014 7.500000e+000 -1.250000e+002
      vertex   -2.170602e+001 7.500000e+000 -1.231010e+002
      vertex   -2.170602e+001 -7.500000e+000 -1.231010e+002
    endloop
  endfacet
  facet normal 8.715574e-002 0.000000e+000 9.961947e-001
    outer loop
      vertex   -2.170602e+001 -7.500000e+000 -1.231010e+002
      vertex   -2.010153e-014 -7.500000e+000 -1.250000e+002
      vertex   -2.010153e-014 7.500000e+000 -1.250000e+002
    endloop
  endfacet
  facet normal 2.588190e-001 0.000000e+000 9.659258e-001
    outer loop
      vertex   -4.275252e+001 -7.500000e+000 -1.174616e+002
      vertex   -2.170602e+001 -7.500000e+000 -1.231010e+002
      vertex   -2.170602e+001 7.500000e+000 -1.231010e+002
    endloop
  endfacet
  facet normal 4.226183e-001 0.000000e+000 9.063078e-001
    outer loop
      vertex   -6.250000e+001 -7.500000e+000 -1.082532e+002
      vertex   -4.275252e+001 -7.500000e+000 -1.174616e+002
      vertex   -4.275252e+001 7.500000e+000 -1.174616e+002
    endloop
  endfacet
  facet normal -8.660254e-001 0.000000e+000 5.000000e-001
    outer loop
      vertex   -6.250000e+001 -7.500000e+000 -1.082532e+002
      vertex   -6.250000e+001 7.500000e+000 -1.082532e+002
      vertex   -7.500000e+001 7.500000e+000 -1.299038e+002
    endloop
  endfacet
  facet normal -8.660254e-001 0.000000e+000 5.000000e-001
    outer loop
      vertex   -7.500000e+001 7.500000e+000 -1.299038e+002
      vertex   -7.500000e+001 -7.500000e+000 -1.299038e+002
      vertex   -6.250000e+001 -7.500000e+000 -1.082532e+002
    endloop
  endfacet
  facet normal -8.715574e-002 -0.000000e+000 -9.961947e-001
    outer loop
      vertex   -2.755455e-014 7.500000e+000 -1.500000e+002
      vertex   -2.755455e-014 -7.500000e+000 -1.500000e+002
      vertex   -2.604723e+001 -7.500000e+000 -1.477212e+002
    endloop
  endfacet
  facet normal -2.588190e-001 -0.000000e+000 -9.659258e-001
    outer loop
      vertex   -2.604723e+001 7.500000e+000 -1.477212e+002
      vertex   -2.604723e+001 -7.500000e+000 -1.477212e+002
      vertex   -5.130302e+001 -7.500000e+000 -1.409539e+002
    endloop
  endfacet
  facet normal -4.226183e-001 -0.000000e+000 -9.063078e-001
    outer loop
      vertex   -5.130302e+001 7.500000e+000 -1.409539e+002
      vertex   -5.130302e+001 -7.500000e+000 -1.409539e+002
      vertex   -7.500000e+001 -7.500000e+000 -1.299038e+002
    endloop
  endfacet
  facet normal -4.226183e-001 0.000000e+000 -9.063078e-001
    outer loop
      vertex   -7.500000e+001 -7.500000e+000 -1.299038e+002
      vertex   -7.500000e+001 7.500000e+000 -1.299038e+002
      vertex   -5.130302e+001 7.500000e+000 -1.409539e+002
    endloop
  endfacet
  facet normal -2.588190e-001 0.000000e+000 -9.659258e-001
    outer loop
      vertex   -5.130302e+001 -7.500000e+000 -1.409539e+002
      vertex   -5.130302e+001 7.500000e+000 -1.409539e+002
      vertex   -2.604723e+001 7.500000e+000 -1.477212e+002
    endloop
  endfacet
  facet normal -8.715574e-002 0.000000e+000 -9.961947e-001
    outer loop
      vertex   -2.604723e+001 -7.500000e+000 -1.477212e+002
      vertex   -2.604723e+001 7.500000e+000 -1.477212e+002
      vertex   -2.755455e-014 7.500000e+000 -1.500000e+002
    endloop
  endfacet
  facet normal 0.000000e+000 -1.000000e+000 0.000000e+000
    outer loop
      vertex   -5.130302e+001 -7.500000e+000 -1.409539e+002
      vertex   -2.604723e+001 -7.500000e+000 -1.477212e+002
      vertex   -2.170602e+001 -7.500000e+000 -1.231010e+002
    endloop
  endfacet
  facet normal 0.000000e+000 -1.000000e+000 0.000000e+000
    outer loop
      vertex   -2.755455e-014 -7.500000e+000 -1.500000e+002
      vertex   -2.010153e-014 -7.500000e+000 -1.250000e+002
      vertex   -2.170602e+001 -7.500000e+000 -1.231010e+002
    endloop
  endfacet
  facet normal 0.000000e+000 -1.000000e+000 0.000000e+000
    outer loop
      vertex   -7.500000e+001 -7.500000e+000 -1.299038e+002
      vertex   -5.130302e+001 -7.500000e+000 -1.409539e+002
      vertex   -4.275252e+001 -7.500000e+000 -1.174616e+002
    endloop
  endfacet
  facet normal 0.000000e+000 -1.000000e+000 -0.000000e+000
    outer loop
      vertex   -2.170602e+001 -7.500000e+000 -1.231010e+002
      vertex   -2.604723e+001 -7.500000e+000 -1.477212e+002
      vertex   -2.755455e-014 -7.500000e+000 -1.500000e+002
    endloop
  endfacet
  facet normal -0.000000e+000 -1.000000e+000 0.000000e+000
    outer loop
      vertex   -2.170602e+001 -7.500000e+000 -1.231010e+002
      vertex   -4.275252e+001 -7.500000e+000 -1.174616e+002
      vertex   -5.130302e+001 -7.500000e+000 -1.409539e+002
    endloop
  endfacet
  facet normal -0.000000e+000 -1.000000e+000 0.000000e+000
    outer loop
      vertex   -4.275252e+001 -7.500000e+000 -1.174616e+002
      vertex   -6.250000e+001 -7.500000e+000 -1.082532e+002
      vertex   -7.500000e+001 -7.500000e+000 -1.299038e+002
    endloop
  endfacet
  facet normal 0.000000e+000 1.000000e+000 0.000000e+000
    outer loop
      vertex   -2.755455e-014 7.500000e+000 -1.500000e+002
      vertex   -2.604723e+001 7.500000e+000 -1.477212e+002
      vertex   -2.170602e+001 7.500000e+000 -1.231010e+002
    endloop
  endfacet
  facet normal 0.000000e+000 1.000000e+000 0.000000e+000
    outer loop
      vertex   -5.130302e+001 7.500000e+000 -1.409539e+002
      vertex   -4.275252e+001 7.500000e+000 -1.174616e+002
      vertex   -2.170602e+001 7.500000e+000 -1.231010e+002
    endloop
  endfacet
  facet normal 0.000000e+000 1.000000e+000 0.000000e+000
    outer loop
      vertex   -2.170602e+001 7.500000e+000 -1.231010e+002
      vertex   -2.604723e+001 7.500000e+000 -1.477212e+002
      vertex   -5.130302e+001 7.500000e+000 -1.409539e+002
    endloop
  endfacet
  facet normal 0.000000e+000 1.000000e+000 0.000000e+000
    outer loop
      vertex   -7.500000e+001 7.500000e+000 -1.299038e+002
      vertex   -6.250000e+001 7.500000e+000 -1.082532e+002
      vertex   -4.275252e+001 7.500000e+000 -1.174616e+002
    endloop
  endfacet
  facet normal 0.000000e+000 1.000000e+000 0.000000e+000
    outer loop
      vertex   -4.275252e+001 7.500000e+000 -1.174616e+002
      vertex   -5.130302e+001 7.500000e+000 -1.409539e+002
      vertex   -7.500000e+001 7.500000e+000 -1.299038e+002
    endloop
  endfacet
  facet normal 0.000000e+000 1.000000e+000 0.000000e+000
    outer loop
      vertex   -2.170602e+001 7.500000e+000 -1.231010e+002
      vertex   -2.010153e-014 7.500000e+000 -1.250000e+002
      vertex   -2.755455e-014 7.500000e+000 -1.500000e+002
    endloop
  endfacet
endsolid
