solid Acople2
  facet normal 0.000000e+000 0.000000e+000 1.000000e+000
    outer loop
      vertex   1.058994e+001 1.062323e+001 1.200000e+001
      vertex   1.020172e+001 9.174344e+000 1.200000e+001
      vertex   1.122387e+001 9.263772e+000 1.200000e+001
    endloop
  endfacet
  facet normal 0.000000e+000 -0.000000e+000 1.000000e+000
    outer loop
      vertex   1.122387e+001 9.263772e+000 1.200000e+001
      vertex   1.194941e+001 9.989306e+000 1.200000e+001
      vertex   1.058994e+001 1.062323e+001 1.200000e+001
    endloop
  endfacet
  facet normal 0.000000e+000 -0.000000e+000 1.000000e+000
    outer loop
      vertex   1.194941e+001 9.989306e+000 1.200000e+001
      vertex   1.203883e+001 1.101146e+001 1.200000e+001
      vertex   1.058994e+001 1.062323e+001 1.200000e+001
    endloop
  endfacet
  facet normal 0.000000e+000 0.000000e+000 1.000000e+000
    outer loop
      vertex   1.203883e+001 1.101146e+001 1.200000e+001
      vertex   1.145031e+001 1.185196e+001 1.200000e+001
      vertex   1.058994e+001 1.062323e+001 1.200000e+001
    endloop
  endfacet
  facet normal 0.000000e+000 0.000000e+000 1.000000e+000
    outer loop
      vertex   1.145031e+001 1.185196e+001 1.200000e+001
      vertex   1.045921e+001 1.211753e+001 1.200000e+001
      vertex   1.058994e+001 1.062323e+001 1.200000e+001
    endloop
  endfacet
  facet normal 0.000000e+000 0.000000e+000 1.000000e+000
    outer loop
      vertex   1.045921e+001 1.211753e+001 1.200000e+001
      vertex   9.529284e+000 1.168389e+001 1.200000e+001
      vertex   1.058994e+001 1.062323e+001 1.200000e+001
    endloop
  endfacet
  facet normal 0.000000e+000 0.000000e+000 1.000000e+000
    outer loop
      vertex   9.529284e+000 1.168389e+001 1.200000e+001
      vertex   9.095652e+000 1.075397e+001 1.200000e+001
      vertex   1.058994e+001 1.062323e+001 1.200000e+001
    endloop
  endfacet
  facet normal 0.000000e+000 0.000000e+000 1.000000e+000
    outer loop
      vertex   9.095652e+000 1.075397e+001 1.200000e+001
      vertex   9.361216e+000 9.762869e+000 1.200000e+001
      vertex   1.058994e+001 1.062323e+001 1.200000e+001
    endloop
  endfacet
  facet normal -0.000000e+000 0.000000e+000 1.000000e+000
    outer loop
      vertex   9.361216e+000 9.762869e+000 1.200000e+001
      vertex   9.529284e+000 9.562573e+000 1.200000e+001
      vertex   1.058994e+001 1.062323e+001 1.200000e+001
    endloop
  endfacet
  facet normal -0.000000e+000 0.000000e+000 1.000000e+000
    outer loop
      vertex   9.529284e+000 9.562573e+000 1.200000e+001
      vertex   1.020172e+001 9.174344e+000 1.200000e+001
      vertex   1.058994e+001 1.062323e+001 1.200000e+001
    endloop
  endfacet
  facet normal -4.226183e-001 9.063078e-001 0.000000e+000
    outer loop
      vertex   9.529284e+000 1.168389e+001 -1.200000e+001
      vertex   9.529284e+000 1.168389e+001 1.200000e+001
      vertex   1.045921e+001 1.211753e+001 1.200000e+001
    endloop
  endfacet
  facet normal 2.588190e-001 9.659258e-001 -0.000000e+000
    outer loop
      vertex   1.045921e+001 1.211753e+001 -1.200000e+001
      vertex   1.045921e+001 1.211753e+001 1.200000e+001
      vertex   1.145031e+001 1.185196e+001 1.200000e+001
    endloop
  endfacet
  facet normal 8.191520e-001 5.735764e-001 -0.000000e+000
    outer loop
      vertex   1.145031e+001 1.185196e+001 -1.200000e+001
      vertex   1.145031e+001 1.185196e+001 1.200000e+001
      vertex   1.203883e+001 1.101146e+001 1.200000e+001
    endloop
  endfacet
  facet normal 9.961947e-001 -8.715574e-002 0.000000e+000
    outer loop
      vertex   1.203883e+001 1.101146e+001 -1.200000e+001
      vertex   1.203883e+001 1.101146e+001 1.200000e+001
      vertex   1.194941e+001 9.989306e+000 1.200000e+001
    endloop
  endfacet
  facet normal 7.071068e-001 -7.071068e-001 0.000000e+000
    outer loop
      vertex   1.194941e+001 9.989306e+000 -1.200000e+001
      vertex   1.194941e+001 9.989306e+000 1.200000e+001
      vertex   1.122387e+001 9.263772e+000 1.200000e+001
    endloop
  endfacet
  facet normal 8.715574e-002 -9.961947e-001 0.000000e+000
    outer loop
      vertex   1.122387e+001 9.263772e+000 -1.200000e+001
      vertex   1.122387e+001 9.263772e+000 1.200000e+001
      vertex   1.020172e+001 9.174344e+000 1.200000e+001
    endloop
  endfacet
  facet normal -7.660444e-001 -6.427876e-001 0.000000e+000
    outer loop
      vertex   9.361216e+000 9.762869e+000 -1.200000e+001
      vertex   9.529284e+000 9.562573e+000 -1.200000e+001
      vertex   9.529284e+000 9.562573e+000 1.200000e+001
    endloop
  endfacet
  facet normal -5.000000e-001 -8.660254e-001 0.000000e+000
    outer loop
      vertex   1.020172e+001 9.174344e+000 1.200000e+001
      vertex   9.529284e+000 9.562573e+000 1.200000e+001
      vertex   9.529284e+000 9.562573e+000 -1.200000e+001
    endloop
  endfacet
  facet normal -5.000000e-001 -8.660254e-001 0.000000e+000
    outer loop
      vertex   9.529284e+000 9.562573e+000 -1.200000e+001
      vertex   1.020172e+001 9.174344e+000 -1.200000e+001
      vertex   1.020172e+001 9.174344e+000 1.200000e+001
    endloop
  endfacet
  facet normal -9.659258e-001 -2.588190e-001 0.000000e+000
    outer loop
      vertex   9.361216e+000 9.762869e+000 -1.200000e+001
      vertex   9.361216e+000 9.762869e+000 1.200000e+001
      vertex   9.095652e+000 1.075397e+001 1.200000e+001
    endloop
  endfacet
  facet normal -9.063078e-001 4.226183e-001 0.000000e+000
    outer loop
      vertex   9.095652e+000 1.075397e+001 -1.200000e+001
      vertex   9.095652e+000 1.075397e+001 1.200000e+001
      vertex   9.529284e+000 1.168389e+001 1.200000e+001
    endloop
  endfacet
  facet normal -9.063078e-001 4.226183e-001 0.000000e+000
    outer loop
      vertex   9.529284e+000 1.168389e+001 1.200000e+001
      vertex   9.529284e+000 1.168389e+001 -1.200000e+001
      vertex   9.095652e+000 1.075397e+001 -1.200000e+001
    endloop
  endfacet
  facet normal -9.659258e-001 -2.588190e-001 -0.000000e+000
    outer loop
      vertex   9.095652e+000 1.075397e+001 1.200000e+001
      vertex   9.095652e+000 1.075397e+001 -1.200000e+001
      vertex   9.361216e+000 9.762869e+000 -1.200000e+001
    endloop
  endfacet
  facet normal -7.660444e-001 -6.427876e-001 0.000000e+000
    outer loop
      vertex   9.529284e+000 9.562573e+000 1.200000e+001
      vertex   9.361216e+000 9.762869e+000 1.200000e+001
      vertex   9.361216e+000 9.762869e+000 -1.200000e+001
    endloop
  endfacet
  facet normal 8.715574e-002 -9.961947e-001 0.000000e+000
    outer loop
      vertex   1.020172e+001 9.174344e+000 1.200000e+001
      vertex   1.020172e+001 9.174344e+000 -1.200000e+001
      vertex   1.122387e+001 9.263772e+000 -1.200000e+001
    endloop
  endfacet
  facet normal 7.071068e-001 -7.071068e-001 0.000000e+000
    outer loop
      vertex   1.122387e+001 9.263772e+000 1.200000e+001
      vertex   1.122387e+001 9.263772e+000 -1.200000e+001
      vertex   1.194941e+001 9.989306e+000 -1.200000e+001
    endloop
  endfacet
  facet normal 9.961947e-001 -8.715574e-002 0.000000e+000
    outer loop
      vertex   1.194941e+001 9.989306e+000 1.200000e+001
      vertex   1.194941e+001 9.989306e+000 -1.200000e+001
      vertex   1.203883e+001 1.101146e+001 -1.200000e+001
    endloop
  endfacet
  facet normal 8.191520e-001 5.735764e-001 0.000000e+000
    outer loop
      vertex   1.203883e+001 1.101146e+001 1.200000e+001
      vertex   1.203883e+001 1.101146e+001 -1.200000e+001
      vertex   1.145031e+001 1.185196e+001 -1.200000e+001
    endloop
  endfacet
  facet normal 2.588190e-001 9.659258e-001 0.000000e+000
    outer loop
      vertex   1.145031e+001 1.185196e+001 1.200000e+001
      vertex   1.145031e+001 1.185196e+001 -1.200000e+001
      vertex   1.045921e+001 1.211753e+001 -1.200000e+001
    endloop
  endfacet
  facet normal -4.226183e-001 9.063078e-001 0.000000e+000
    outer loop
      vertex   1.045921e+001 1.211753e+001 1.200000e+001
      vertex   1.045921e+001 1.211753e+001 -1.200000e+001
      vertex   9.529284e+000 1.168389e+001 -1.200000e+001
    endloop
  endfacet
  facet normal -0.000000e+000 0.000000e+000 -1.000000e+000
    outer loop
      vertex   1.058994e+001 1.062323e+001 -1.200000e+001
      vertex   9.361216e+000 9.762869e+000 -1.200000e+001
      vertex   9.095652e+000 1.075397e+001 -1.200000e+001
    endloop
  endfacet
  facet normal 0.000000e+000 0.000000e+000 -1.000000e+000
    outer loop
      vertex   9.095652e+000 1.075397e+001 -1.200000e+001
      vertex   9.529284e+000 1.168389e+001 -1.200000e+001
      vertex   1.058994e+001 1.062323e+001 -1.200000e+001
    endloop
  endfacet
  facet normal 0.000000e+000 0.000000e+000 -1.000000e+000
    outer loop
      vertex   9.529284e+000 1.168389e+001 -1.200000e+001
      vertex   1.045921e+001 1.211753e+001 -1.200000e+001
      vertex   1.058994e+001 1.062323e+001 -1.200000e+001
    endloop
  endfacet
  facet normal 0.000000e+000 0.000000e+000 -1.000000e+000
    outer loop
      vertex   1.045921e+001 1.211753e+001 -1.200000e+001
      vertex   1.145031e+001 1.185196e+001 -1.200000e+001
      vertex   1.058994e+001 1.062323e+001 -1.200000e+001
    endloop
  endfacet
  facet normal 0.000000e+000 -0.000000e+000 -1.000000e+000
    outer loop
      vertex   1.145031e+001 1.185196e+001 -1.200000e+001
      vertex   1.203883e+001 1.101146e+001 -1.200000e+001
      vertex   1.058994e+001 1.062323e+001 -1.200000e+001
    endloop
  endfacet
  facet normal 0.000000e+000 0.000000e+000 -1.000000e+000
    outer loop
      vertex   1.203883e+001 1.101146e+001 -1.200000e+001
      vertex   1.194941e+001 9.989306e+000 -1.200000e+001
      vertex   1.058994e+001 1.062323e+001 -1.200000e+001
    endloop
  endfacet
  facet normal -0.000000e+000 0.000000e+000 -1.000000e+000
    outer loop
      vertex   1.194941e+001 9.989306e+000 -1.200000e+001
      vertex   1.122387e+001 9.263772e+000 -1.200000e+001
      vertex   1.058994e+001 1.062323e+001 -1.200000e+001
    endloop
  endfacet
  facet normal -0.000000e+000 0.000000e+000 -1.000000e+000
    outer loop
      vertex   1.122387e+001 9.263772e+000 -1.200000e+001
      vertex   1.020172e+001 9.174344e+000 -1.200000e+001
      vertex   1.058994e+001 1.062323e+001 -1.200000e+001
    endloop
  endfacet
  facet normal 0.000000e+000 0.000000e+000 -1.000000e+000
    outer loop
      vertex   1.020172e+001 9.174344e+000 -1.200000e+001
      vertex   9.529284e+000 9.562573e+000 -1.200000e+001
      vertex   1.058994e+001 1.062323e+001 -1.200000e+001
    endloop
  endfacet
  facet normal 0.000000e+000 0.000000e+000 -1.000000e+000
    outer loop
      vertex   9.529284e+000 9.562573e+000 -1.200000e+001
      vertex   9.361216e+000 9.762869e+000 -1.200000e+001
      vertex   1.058994e+001 1.062323e+001 -1.200000e+001
    endloop
  endfacet
  facet normal 0.000000e+000 0.000000e+000 1.000000e+000
    outer loop
      vertex   1.499998e+001 2.353895e-002 1.200000e+001
      vertex   1.370094e+001 -7.264611e-001 1.200000e+001
      vertex   1.448695e+001 -1.386000e+000 1.200000e+001
    endloop
  endfacet
  facet normal 0.000000e+000 0.000000e+000 1.000000e+000
    outer loop
      vertex   1.448695e+001 -1.386000e+000 1.200000e+001
      vertex   1.551301e+001 -1.386000e+000 1.200000e+001
      vertex   1.499998e+001 2.353895e-002 1.200000e+001
    endloop
  endfacet
  facet normal 0.000000e+000 -0.000000e+000 1.000000e+000
    outer loop
      vertex   1.551301e+001 -1.386000e+000 1.200000e+001
      vertex   1.629902e+001 -7.264611e-001 1.200000e+001
      vertex   1.499998e+001 2.353895e-002 1.200000e+001
    endloop
  endfacet
  facet normal 0.000000e+000 -0.000000e+000 1.000000e+000
    outer loop
      vertex   1.629902e+001 -7.264611e-001 1.200000e+001
      vertex   1.647719e+001 2.840112e-001 1.200000e+001
      vertex   1.499998e+001 2.353895e-002 1.200000e+001
    endloop
  endfacet
  facet normal 0.000000e+000 0.000000e+000 1.000000e+000
    outer loop
      vertex   1.647719e+001 2.840112e-001 1.200000e+001
      vertex   1.596416e+001 1.172606e+000 1.200000e+001
      vertex   1.499998e+001 2.353895e-002 1.200000e+001
    endloop
  endfacet
  facet normal 0.000000e+000 0.000000e+000 1.000000e+000
    outer loop
      vertex   1.596416e+001 1.172606e+000 1.200000e+001
      vertex   1.499998e+001 1.523539e+000 1.200000e+001
      vertex   1.499998e+001 2.353895e-002 1.200000e+001
    endloop
  endfacet
  facet normal 0.000000e+000 0.000000e+000 1.000000e+000
    outer loop
      vertex   1.499998e+001 1.523539e+000 1.200000e+001
      vertex   1.403580e+001 1.172606e+000 1.200000e+001
      vertex   1.499998e+001 2.353895e-002 1.200000e+001
    endloop
  endfacet
  facet normal 0.000000e+000 0.000000e+000 1.000000e+000
    outer loop
      vertex   1.403580e+001 1.172606e+000 1.200000e+001
      vertex   1.352277e+001 2.840112e-001 1.200000e+001
      vertex   1.499998e+001 2.353895e-002 1.200000e+001
    endloop
  endfacet
  facet normal 0.000000e+000 0.000000e+000 1.000000e+000
    outer loop
      vertex   1.352277e+001 2.840112e-001 1.200000e+001
      vertex   1.349998e+001 2.353895e-002 1.200000e+001
      vertex   1.499998e+001 2.353895e-002 1.200000e+001
    endloop
  endfacet
  facet normal -0.000000e+000 0.000000e+000 1.000000e+000
    outer loop
      vertex   1.349998e+001 2.353895e-002 1.200000e+001
      vertex   1.370094e+001 -7.264611e-001 1.200000e+001
      vertex   1.499998e+001 2.353895e-002 1.200000e+001
    endloop
  endfacet
  facet normal 3.420201e-001 9.396926e-001 -0.000000e+000
    outer loop
      vertex   1.499998e+001 1.523539e+000 -1.200000e+001
      vertex   1.499998e+001 1.523539e+000 1.200000e+001
      vertex   1.596416e+001 1.172606e+000 1.200000e+001
    endloop
  endfacet
  facet normal 8.660254e-001 5.000000e-001 -0.000000e+000
    outer loop
      vertex   1.596416e+001 1.172606e+000 -1.200000e+001
      vertex   1.596416e+001 1.172606e+000 1.200000e+001
      vertex   1.647719e+001 2.840112e-001 1.200000e+001
    endloop
  endfacet
  facet normal 9.848078e-001 -1.736482e-001 0.000000e+000
    outer loop
      vertex   1.647719e+001 2.840112e-001 -1.200000e+001
      vertex   1.647719e+001 2.840112e-001 1.200000e+001
      vertex   1.629902e+001 -7.264611e-001 1.200000e+001
    endloop
  endfacet
  facet normal 6.427876e-001 -7.660444e-001 0.000000e+000
    outer loop
      vertex   1.629902e+001 -7.264611e-001 -1.200000e+001
      vertex   1.629902e+001 -7.264611e-001 1.200000e+001
      vertex   1.551301e+001 -1.386000e+000 1.200000e+001
    endloop
  endfacet
  facet normal 6.339990e-016 -1.000000e+000 0.000000e+000
    outer loop
      vertex   1.551301e+001 -1.386000e+000 -1.200000e+001
      vertex   1.551301e+001 -1.386000e+000 1.200000e+001
      vertex   1.448695e+001 -1.386000e+000 1.200000e+001
    endloop
  endfacet
  facet normal -6.427876e-001 -7.660444e-001 0.000000e+000
    outer loop
      vertex   1.448695e+001 -1.386000e+000 -1.200000e+001
      vertex   1.448695e+001 -1.386000e+000 1.200000e+001
      vertex   1.370094e+001 -7.264611e-001 1.200000e+001
    endloop
  endfacet
  facet normal -9.961947e-001 8.715574e-002 1.186354e-018
    outer loop
      vertex   1.352277e+001 2.840112e-001 -1.200000e+001
      vertex   1.349998e+001 2.353895e-002 -1.200000e+001
      vertex   1.349998e+001 2.353895e-002 1.200000e+001
    endloop
  endfacet
  facet normal -9.659258e-001 -2.588190e-001 -2.840872e-018
    outer loop
      vertex   1.370094e+001 -7.264611e-001 1.200000e+001
      vertex   1.349998e+001 2.353895e-002 1.200000e+001
      vertex   1.349998e+001 2.353895e-002 -1.200000e+001
    endloop
  endfacet
  facet normal -9.659258e-001 -2.588190e-001 0.000000e+000
    outer loop
      vertex   1.349998e+001 2.353895e-002 -1.200000e+001
      vertex   1.370094e+001 -7.264611e-001 -1.200000e+001
      vertex   1.370094e+001 -7.264611e-001 1.200000e+001
    endloop
  endfacet
  facet normal -8.660254e-001 5.000000e-001 0.000000e+000
    outer loop
      vertex   1.352277e+001 2.840112e-001 -1.200000e+001
      vertex   1.352277e+001 2.840112e-001 1.200000e+001
      vertex   1.403580e+001 1.172606e+000 1.200000e+001
    endloop
  endfacet
  facet normal -3.420201e-001 9.396926e-001 0.000000e+000
    outer loop
      vertex   1.403580e+001 1.172606e+000 -1.200000e+001
      vertex   1.403580e+001 1.172606e+000 1.200000e+001
      vertex   1.499998e+001 1.523539e+000 1.200000e+001
    endloop
  endfacet
  facet normal -3.420201e-001 9.396926e-001 0.000000e+000
    outer loop
      vertex   1.499998e+001 1.523539e+000 1.200000e+001
      vertex   1.499998e+001 1.523539e+000 -1.200000e+001
      vertex   1.403580e+001 1.172606e+000 -1.200000e+001
    endloop
  endfacet
  facet normal -8.660254e-001 5.000000e-001 0.000000e+000
    outer loop
      vertex   1.403580e+001 1.172606e+000 1.200000e+001
      vertex   1.403580e+001 1.172606e+000 -1.200000e+001
      vertex   1.352277e+001 2.840112e-001 -1.200000e+001
    endloop
  endfacet
  facet normal -9.961947e-001 8.715574e-002 0.000000e+000
    outer loop
      vertex   1.349998e+001 2.353895e-002 1.200000e+001
      vertex   1.352277e+001 2.840112e-001 1.200000e+001
      vertex   1.352277e+001 2.840112e-001 -1.200000e+001
    endloop
  endfacet
  facet normal -6.427876e-001 -7.660444e-001 -0.000000e+000
    outer loop
      vertex   1.370094e+001 -7.264611e-001 1.200000e+001
      vertex   1.370094e+001 -7.264611e-001 -1.200000e+001
      vertex   1.448695e+001 -1.386000e+000 -1.200000e+001
    endloop
  endfacet
  facet normal 6.339990e-016 -1.000000e+000 0.000000e+000
    outer loop
      vertex   1.448695e+001 -1.386000e+000 1.200000e+001
      vertex   1.448695e+001 -1.386000e+000 -1.200000e+001
      vertex   1.551301e+001 -1.386000e+000 -1.200000e+001
    endloop
  endfacet
  facet normal 6.427876e-001 -7.660444e-001 0.000000e+000
    outer loop
      vertex   1.551301e+001 -1.386000e+000 1.200000e+001
      vertex   1.551301e+001 -1.386000e+000 -1.200000e+001
      vertex   1.629902e+001 -7.264611e-001 -1.200000e+001
    endloop
  endfacet
  facet normal 9.848078e-001 -1.736482e-001 0.000000e+000
    outer loop
      vertex   1.629902e+001 -7.264611e-001 1.200000e+001
      vertex   1.629902e+001 -7.264611e-001 -1.200000e+001
      vertex   1.647719e+001 2.840112e-001 -1.200000e+001
    endloop
  endfacet
  facet normal 8.660254e-001 5.000000e-001 0.000000e+000
    outer loop
      vertex   1.647719e+001 2.840112e-001 1.200000e+001
      vertex   1.647719e+001 2.840112e-001 -1.200000e+001
      vertex   1.596416e+001 1.172606e+000 -1.200000e+001
    endloop
  endfacet
  facet normal 3.420201e-001 9.396926e-001 0.000000e+000
    outer loop
      vertex   1.596416e+001 1.172606e+000 1.200000e+001
      vertex   1.596416e+001 1.172606e+000 -1.200000e+001
      vertex   1.499998e+001 1.523539e+000 -1.200000e+001
    endloop
  endfacet
  facet normal 0.000000e+000 0.000000e+000 -1.000000e+000
    outer loop
      vertex   1.499998e+001 2.353895e-002 -1.200000e+001
      vertex   1.352277e+001 2.840112e-001 -1.200000e+001
      vertex   1.403580e+001 1.172606e+000 -1.200000e+001
    endloop
  endfacet
  facet normal 0.000000e+000 0.000000e+000 -1.000000e+000
    outer loop
      vertex   1.403580e+001 1.172606e+000 -1.200000e+001
      vertex   1.499998e+001 1.523539e+000 -1.200000e+001
      vertex   1.499998e+001 2.353895e-002 -1.200000e+001
    endloop
  endfacet
  facet normal 0.000000e+000 0.000000e+000 -1.000000e+000
    outer loop
      vertex   1.499998e+001 1.523539e+000 -1.200000e+001
      vertex   1.596416e+001 1.172606e+000 -1.200000e+001
      vertex   1.499998e+001 2.353895e-002 -1.200000e+001
    endloop
  endfacet
  facet normal 0.000000e+000 -0.000000e+000 -1.000000e+000
    outer loop
      vertex   1.596416e+001 1.172606e+000 -1.200000e+001
      vertex   1.647719e+001 2.840112e-001 -1.200000e+001
      vertex   1.499998e+001 2.353895e-002 -1.200000e+001
    endloop
  endfacet
  facet normal 0.000000e+000 0.000000e+000 -1.000000e+000
    outer loop
      vertex   1.647719e+001 2.840112e-001 -1.200000e+001
      vertex   1.629902e+001 -7.264611e-001 -1.200000e+001
      vertex   1.499998e+001 2.353895e-002 -1.200000e+001
    endloop
  endfacet
  facet normal -0.000000e+000 0.000000e+000 -1.000000e+000
    outer loop
      vertex   1.629902e+001 -7.264611e-001 -1.200000e+001
      vertex   1.551301e+001 -1.386000e+000 -1.200000e+001
      vertex   1.499998e+001 2.353895e-002 -1.200000e+001
    endloop
  endfacet
  facet normal -0.000000e+000 0.000000e+000 -1.000000e+000
    outer loop
      vertex   1.551301e+001 -1.386000e+000 -1.200000e+001
      vertex   1.448695e+001 -1.386000e+000 -1.200000e+001
      vertex   1.499998e+001 2.353895e-002 -1.200000e+001
    endloop
  endfacet
  facet normal 0.000000e+000 0.000000e+000 -1.000000e+000
    outer loop
      vertex   1.448695e+001 -1.386000e+000 -1.200000e+001
      vertex   1.370094e+001 -7.264611e-001 -1.200000e+001
      vertex   1.499998e+001 2.353895e-002 -1.200000e+001
    endloop
  endfacet
  facet normal 0.000000e+000 0.000000e+000 -1.000000e+000
    outer loop
      vertex   1.370094e+001 -7.264611e-001 -1.200000e+001
      vertex   1.349998e+001 2.353895e-002 -1.200000e+001
      vertex   1.499998e+001 2.353895e-002 -1.200000e+001
    endloop
  endfacet
  facet normal 0.000000e+000 0.000000e+000 -1.000000e+000
    outer loop
      vertex   1.349998e+001 2.353895e-002 -1.200000e+001
      vertex   1.352277e+001 2.840112e-001 -1.200000e+001
      vertex   1.499998e+001 2.353895e-002 -1.200000e+001
    endloop
  endfacet
  facet normal 0.000000e+000 0.000000e+000 1.000000e+000
    outer loop
      vertex   1.062323e+001 -1.058994e+001 1.200000e+001
      vertex   9.174344e+000 -1.020172e+001 1.200000e+001
      vertex   9.263772e+000 -1.122387e+001 1.200000e+001
    endloop
  endfacet
  facet normal -0.000000e+000 0.000000e+000 1.000000e+000
    outer loop
      vertex   9.263772e+000 -1.122387e+001 1.200000e+001
      vertex   9.989306e+000 -1.194941e+001 1.200000e+001
      vertex   1.062323e+001 -1.058994e+001 1.200000e+001
    endloop
  endfacet
  facet normal -0.000000e+000 0.000000e+000 1.000000e+000
    outer loop
      vertex   9.989306e+000 -1.194941e+001 1.200000e+001
      vertex   1.101146e+001 -1.203883e+001 1.200000e+001
      vertex   1.062323e+001 -1.058994e+001 1.200000e+001
    endloop
  endfacet
  facet normal 0.000000e+000 -0.000000e+000 1.000000e+000
    outer loop
      vertex   1.101146e+001 -1.203883e+001 1.200000e+001
      vertex   1.185196e+001 -1.145031e+001 1.200000e+001
      vertex   1.062323e+001 -1.058994e+001 1.200000e+001
    endloop
  endfacet
  facet normal 0.000000e+000 -0.000000e+000 1.000000e+000
    outer loop
      vertex   1.185196e+001 -1.145031e+001 1.200000e+001
      vertex   1.211753e+001 -1.045921e+001 1.200000e+001
      vertex   1.062323e+001 -1.058994e+001 1.200000e+001
    endloop
  endfacet
  facet normal 0.000000e+000 0.000000e+000 1.000000e+000
    outer loop
      vertex   1.211753e+001 -1.045921e+001 1.200000e+001
      vertex   1.168389e+001 -9.529284e+000 1.200000e+001
      vertex   1.062323e+001 -1.058994e+001 1.200000e+001
    endloop
  endfacet
  facet normal 0.000000e+000 0.000000e+000 1.000000e+000
    outer loop
      vertex   1.168389e+001 -9.529284e+000 1.200000e+001
      vertex   1.075397e+001 -9.095652e+000 1.200000e+001
      vertex   1.062323e+001 -1.058994e+001 1.200000e+001
    endloop
  endfacet
  facet normal 0.000000e+000 0.000000e+000 1.000000e+000
    outer loop
      vertex   1.075397e+001 -9.095652e+000 1.200000e+001
      vertex   9.762869e+000 -9.361216e+000 1.200000e+001
      vertex   1.062323e+001 -1.058994e+001 1.200000e+001
    endloop
  endfacet
  facet normal 0.000000e+000 0.000000e+000 1.000000e+000
    outer loop
      vertex   9.762869e+000 -9.361216e+000 1.200000e+001
      vertex   9.562573e+000 -9.529284e+000 1.200000e+001
      vertex   1.062323e+001 -1.058994e+001 1.200000e+001
    endloop
  endfacet
  facet normal 0.000000e+000 0.000000e+000 1.000000e+000
    outer loop
      vertex   9.562573e+000 -9.529284e+000 1.200000e+001
      vertex   9.174344e+000 -1.020172e+001 1.200000e+001
      vertex   1.062323e+001 -1.058994e+001 1.200000e+001
    endloop
  endfacet
  facet normal 9.063078e-001 4.226183e-001 -0.000000e+000
    outer loop
      vertex   1.168389e+001 -9.529284e+000 -1.200000e+001
      vertex   1.168389e+001 -9.529284e+000 1.200000e+001
      vertex   1.211753e+001 -1.045921e+001 1.200000e+001
    endloop
  endfacet
  facet normal 9.659258e-001 -2.588190e-001 0.000000e+000
    outer loop
      vertex   1.211753e+001 -1.045921e+001 -1.200000e+001
      vertex   1.211753e+001 -1.045921e+001 1.200000e+001
      vertex   1.185196e+001 -1.145031e+001 1.200000e+001
    endloop
  endfacet
  facet normal 5.735764e-001 -8.191520e-001 0.000000e+000
    outer loop
      vertex   1.185196e+001 -1.145031e+001 -1.200000e+001
      vertex   1.185196e+001 -1.145031e+001 1.200000e+001
      vertex   1.101146e+001 -1.203883e+001 1.200000e+001
    endloop
  endfacet
  facet normal -8.715574e-002 -9.961947e-001 0.000000e+000
    outer loop
      vertex   1.101146e+001 -1.203883e+001 -1.200000e+001
      vertex   1.101146e+001 -1.203883e+001 1.200000e+001
      vertex   9.989306e+000 -1.194941e+001 1.200000e+001
    endloop
  endfacet
  facet normal -7.071068e-001 -7.071068e-001 0.000000e+000
    outer loop
      vertex   9.989306e+000 -1.194941e+001 -1.200000e+001
      vertex   9.989306e+000 -1.194941e+001 1.200000e+001
      vertex   9.263772e+000 -1.122387e+001 1.200000e+001
    endloop
  endfacet
  facet normal -9.961947e-001 -8.715574e-002 0.000000e+000
    outer loop
      vertex   9.263772e+000 -1.122387e+001 -1.200000e+001
      vertex   9.263772e+000 -1.122387e+001 1.200000e+001
      vertex   9.174344e+000 -1.020172e+001 1.200000e+001
    endloop
  endfacet
  facet normal -6.427876e-001 7.660444e-001 0.000000e+000
    outer loop
      vertex   9.762869e+000 -9.361216e+000 -1.200000e+001
      vertex   9.562573e+000 -9.529284e+000 -1.200000e+001
      vertex   9.562573e+000 -9.529284e+000 1.200000e+001
    endloop
  endfacet
  facet normal -8.660254e-001 5.000000e-001 0.000000e+000
    outer loop
      vertex   9.174344e+000 -1.020172e+001 1.200000e+001
      vertex   9.562573e+000 -9.529284e+000 1.200000e+001
      vertex   9.562573e+000 -9.529284e+000 -1.200000e+001
    endloop
  endfacet
  facet normal -8.660254e-001 5.000000e-001 0.000000e+000
    outer loop
      vertex   9.562573e+000 -9.529284e+000 -1.200000e+001
      vertex   9.174344e+000 -1.020172e+001 -1.200000e+001
      vertex   9.174344e+000 -1.020172e+001 1.200000e+001
    endloop
  endfacet
  facet normal -2.588190e-001 9.659258e-001 0.000000e+000
    outer loop
      vertex   9.762869e+000 -9.361216e+000 -1.200000e+001
      vertex   9.762869e+000 -9.361216e+000 1.200000e+001
      vertex   1.075397e+001 -9.095652e+000 1.200000e+001
    endloop
  endfacet
  facet normal 4.226183e-001 9.063078e-001 -0.000000e+000
    outer loop
      vertex   1.075397e+001 -9.095652e+000 -1.200000e+001
      vertex   1.075397e+001 -9.095652e+000 1.200000e+001
      vertex   1.168389e+001 -9.529284e+000 1.200000e+001
    endloop
  endfacet
  facet normal 4.226183e-001 9.063078e-001 0.000000e+000
    outer loop
      vertex   1.168389e+001 -9.529284e+000 1.200000e+001
      vertex   1.168389e+001 -9.529284e+000 -1.200000e+001
      vertex   1.075397e+001 -9.095652e+000 -1.200000e+001
    endloop
  endfacet
  facet normal -2.588190e-001 9.659258e-001 0.000000e+000
    outer loop
      vertex   1.075397e+001 -9.095652e+000 1.200000e+001
      vertex   1.075397e+001 -9.095652e+000 -1.200000e+001
      vertex   9.762869e+000 -9.361216e+000 -1.200000e+001
    endloop
  endfacet
  facet normal -6.427876e-001 7.660444e-001 0.000000e+000
    outer loop
      vertex   9.562573e+000 -9.529284e+000 1.200000e+001
      vertex   9.762869e+000 -9.361216e+000 1.200000e+001
      vertex   9.762869e+000 -9.361216e+000 -1.200000e+001
    endloop
  endfacet
  facet normal -9.961947e-001 -8.715574e-002 -0.000000e+000
    outer loop
      vertex   9.174344e+000 -1.020172e+001 1.200000e+001
      vertex   9.174344e+000 -1.020172e+001 -1.200000e+001
      vertex   9.263772e+000 -1.122387e+001 -1.200000e+001
    endloop
  endfacet
  facet normal -7.071068e-001 -7.071068e-001 -0.000000e+000
    outer loop
      vertex   9.263772e+000 -1.122387e+001 1.200000e+001
      vertex   9.263772e+000 -1.122387e+001 -1.200000e+001
      vertex   9.989306e+000 -1.194941e+001 -1.200000e+001
    endloop
  endfacet
  facet normal -8.715574e-002 -9.961947e-001 -0.000000e+000
    outer loop
      vertex   9.989306e+000 -1.194941e+001 1.200000e+001
      vertex   9.989306e+000 -1.194941e+001 -1.200000e+001
      vertex   1.101146e+001 -1.203883e+001 -1.200000e+001
    endloop
  endfacet
  facet normal 5.735764e-001 -8.191520e-001 0.000000e+000
    outer loop
      vertex   1.101146e+001 -1.203883e+001 1.200000e+001
      vertex   1.101146e+001 -1.203883e+001 -1.200000e+001
      vertex   1.185196e+001 -1.145031e+001 -1.200000e+001
    endloop
  endfacet
  facet normal 9.659258e-001 -2.588190e-001 0.000000e+000
    outer loop
      vertex   1.185196e+001 -1.145031e+001 1.200000e+001
      vertex   1.185196e+001 -1.145031e+001 -1.200000e+001
      vertex   1.211753e+001 -1.045921e+001 -1.200000e+001
    endloop
  endfacet
  facet normal 9.063078e-001 4.226183e-001 0.000000e+000
    outer loop
      vertex   1.211753e+001 -1.045921e+001 1.200000e+001
      vertex   1.211753e+001 -1.045921e+001 -1.200000e+001
      vertex   1.168389e+001 -9.529284e+000 -1.200000e+001
    endloop
  endfacet
  facet normal 0.000000e+000 0.000000e+000 -1.000000e+000
    outer loop
      vertex   1.062323e+001 -1.058994e+001 -1.200000e+001
      vertex   9.762869e+000 -9.361216e+000 -1.200000e+001
      vertex   1.075397e+001 -9.095652e+000 -1.200000e+001
    endloop
  endfacet
  facet normal 0.000000e+000 -0.000000e+000 -1.000000e+000
    outer loop
      vertex   1.075397e+001 -9.095652e+000 -1.200000e+001
      vertex   1.168389e+001 -9.529284e+000 -1.200000e+001
      vertex   1.062323e+001 -1.058994e+001 -1.200000e+001
    endloop
  endfacet
  facet normal 0.000000e+000 -0.000000e+000 -1.000000e+000
    outer loop
      vertex   1.168389e+001 -9.529284e+000 -1.200000e+001
      vertex   1.211753e+001 -1.045921e+001 -1.200000e+001
      vertex   1.062323e+001 -1.058994e+001 -1.200000e+001
    endloop
  endfacet
  facet normal 0.000000e+000 0.000000e+000 -1.000000e+000
    outer loop
      vertex   1.211753e+001 -1.045921e+001 -1.200000e+001
      vertex   1.185196e+001 -1.145031e+001 -1.200000e+001
      vertex   1.062323e+001 -1.058994e+001 -1.200000e+001
    endloop
  endfacet
  facet normal -0.000000e+000 0.000000e+000 -1.000000e+000
    outer loop
      vertex   1.185196e+001 -1.145031e+001 -1.200000e+001
      vertex   1.101146e+001 -1.203883e+001 -1.200000e+001
      vertex   1.062323e+001 -1.058994e+001 -1.200000e+001
    endloop
  endfacet
  facet normal 0.000000e+000 0.000000e+000 -1.000000e+000
    outer loop
      vertex   1.101146e+001 -1.203883e+001 -1.200000e+001
      vertex   9.989306e+000 -1.194941e+001 -1.200000e+001
      vertex   1.062323e+001 -1.058994e+001 -1.200000e+001
    endloop
  endfacet
  facet normal 0.000000e+000 0.000000e+000 -1.000000e+000
    outer loop
      vertex   9.989306e+000 -1.194941e+001 -1.200000e+001
      vertex   9.263772e+000 -1.122387e+001 -1.200000e+001
      vertex   1.062323e+001 -1.058994e+001 -1.200000e+001
    endloop
  endfacet
  facet normal 0.000000e+000 0.000000e+000 -1.000000e+000
    outer loop
      vertex   9.263772e+000 -1.122387e+001 -1.200000e+001
      vertex   9.174344e+000 -1.020172e+001 -1.200000e+001
      vertex   1.062323e+001 -1.058994e+001 -1.200000e+001
    endloop
  endfacet
  facet normal 0.000000e+000 0.000000e+000 -1.000000e+000
    outer loop
      vertex   9.174344e+000 -1.020172e+001 -1.200000e+001
      vertex   9.562573e+000 -9.529284e+000 -1.200000e+001
      vertex   1.062323e+001 -1.058994e+001 -1.200000e+001
    endloop
  endfacet
  facet normal 0.000000e+000 0.000000e+000 -1.000000e+000
    outer loop
      vertex   9.562573e+000 -9.529284e+000 -1.200000e+001
      vertex   9.762869e+000 -9.361216e+000 -1.200000e+001
      vertex   1.062323e+001 -1.058994e+001 -1.200000e+001
    endloop
  endfacet
  facet normal 0.000000e+000 0.000000e+000 1.000000e+000
    outer loop
      vertex   2.353895e-002 -1.499998e+001 1.200000e+001
      vertex   -7.264611e-001 -1.370094e+001 1.200000e+001
      vertex   -1.386000e+000 -1.448695e+001 1.200000e+001
    endloop
  endfacet
  facet normal 0.000000e+000 0.000000e+000 1.000000e+000
    outer loop
      vertex   -1.386000e+000 -1.448695e+001 1.200000e+001
      vertex   -1.386000e+000 -1.551301e+001 1.200000e+001
      vertex   2.353895e-002 -1.499998e+001 1.200000e+001
    endloop
  endfacet
  facet normal -0.000000e+000 0.000000e+000 1.000000e+000
    outer loop
      vertex   -1.386000e+000 -1.551301e+001 1.200000e+001
      vertex   -7.264611e-001 -1.629902e+001 1.200000e+001
      vertex   2.353895e-002 -1.499998e+001 1.200000e+001
    endloop
  endfacet
  facet normal -0.000000e+000 0.000000e+000 1.000000e+000
    outer loop
      vertex   -7.264611e-001 -1.629902e+001 1.200000e+001
      vertex   2.840112e-001 -1.647719e+001 1.200000e+001
      vertex   2.353895e-002 -1.499998e+001 1.200000e+001
    endloop
  endfacet
  facet normal 0.000000e+000 -0.000000e+000 1.000000e+000
    outer loop
      vertex   2.840112e-001 -1.647719e+001 1.200000e+001
      vertex   1.172606e+000 -1.596416e+001 1.200000e+001
      vertex   2.353895e-002 -1.499998e+001 1.200000e+001
    endloop
  endfacet
  facet normal 0.000000e+000 -0.000000e+000 1.000000e+000
    outer loop
      vertex   1.172606e+000 -1.596416e+001 1.200000e+001
      vertex   1.523539e+000 -1.499998e+001 1.200000e+001
      vertex   2.353895e-002 -1.499998e+001 1.200000e+001
    endloop
  endfacet
  facet normal 0.000000e+000 0.000000e+000 1.000000e+000
    outer loop
      vertex   1.523539e+000 -1.499998e+001 1.200000e+001
      vertex   1.172606e+000 -1.403580e+001 1.200000e+001
      vertex   2.353895e-002 -1.499998e+001 1.200000e+001
    endloop
  endfacet
  facet normal 0.000000e+000 0.000000e+000 1.000000e+000
    outer loop
      vertex   1.172606e+000 -1.403580e+001 1.200000e+001
      vertex   2.840112e-001 -1.352277e+001 1.200000e+001
      vertex   2.353895e-002 -1.499998e+001 1.200000e+001
    endloop
  endfacet
  facet normal 0.000000e+000 0.000000e+000 1.000000e+000
    outer loop
      vertex   2.840112e-001 -1.352277e+001 1.200000e+001
      vertex   2.353895e-002 -1.349998e+001 1.200000e+001
      vertex   2.353895e-002 -1.499998e+001 1.200000e+001
    endloop
  endfacet
  facet normal 0.000000e+000 0.000000e+000 1.000000e+000
    outer loop
      vertex   2.353895e-002 -1.349998e+001 1.200000e+001
      vertex   -7.264611e-001 -1.370094e+001 1.200000e+001
      vertex   2.353895e-002 -1.499998e+001 1.200000e+001
    endloop
  endfacet
  facet normal 9.396926e-001 -3.420201e-001 0.000000e+000
    outer loop
      vertex   1.523539e+000 -1.499998e+001 -1.200000e+001
      vertex   1.523539e+000 -1.499998e+001 1.200000e+001
      vertex   1.172606e+000 -1.596416e+001 1.200000e+001
    endloop
  endfacet
  facet normal 5.000000e-001 -8.660254e-001 0.000000e+000
    outer loop
      vertex   1.172606e+000 -1.596416e+001 -1.200000e+001
      vertex   1.172606e+000 -1.596416e+001 1.200000e+001
      vertex   2.840112e-001 -1.647719e+001 1.200000e+001
    endloop
  endfacet
  facet normal -1.736482e-001 -9.848078e-001 0.000000e+000
    outer loop
      vertex   2.840112e-001 -1.647719e+001 -1.200000e+001
      vertex   2.840112e-001 -1.647719e+001 1.200000e+001
      vertex   -7.264611e-001 -1.629902e+001 1.200000e+001
    endloop
  endfacet
  facet normal -7.660444e-001 -6.427876e-001 0.000000e+000
    outer loop
      vertex   -7.264611e-001 -1.629902e+001 -1.200000e+001
      vertex   -7.264611e-001 -1.629902e+001 1.200000e+001
      vertex   -1.386000e+000 -1.551301e+001 1.200000e+001
    endloop
  endfacet
  facet normal -1.000000e+000 -6.339990e-016 0.000000e+000
    outer loop
      vertex   -1.386000e+000 -1.551301e+001 -1.200000e+001
      vertex   -1.386000e+000 -1.551301e+001 1.200000e+001
      vertex   -1.386000e+000 -1.448695e+001 1.200000e+001
    endloop
  endfacet
  facet normal -7.660444e-001 6.427876e-001 0.000000e+000
    outer loop
      vertex   -1.386000e+000 -1.448695e+001 -1.200000e+001
      vertex   -1.386000e+000 -1.448695e+001 1.200000e+001
      vertex   -7.264611e-001 -1.370094e+001 1.200000e+001
    endloop
  endfacet
  facet normal 8.715574e-002 9.961947e-001 1.449988e-018
    outer loop
      vertex   2.840112e-001 -1.352277e+001 -1.200000e+001
      vertex   2.353895e-002 -1.349998e+001 -1.200000e+001
      vertex   2.353895e-002 -1.349998e+001 1.200000e+001
    endloop
  endfacet
  facet normal -2.588190e-001 9.659258e-001 -5.681743e-018
    outer loop
      vertex   -7.264611e-001 -1.370094e+001 1.200000e+001
      vertex   2.353895e-002 -1.349998e+001 1.200000e+001
      vertex   2.353895e-002 -1.349998e+001 -1.200000e+001
    endloop
  endfacet
  facet normal -2.588190e-001 9.659258e-001 0.000000e+000
    outer loop
      vertex   2.353895e-002 -1.349998e+001 -1.200000e+001
      vertex   -7.264611e-001 -1.370094e+001 -1.200000e+001
      vertex   -7.264611e-001 -1.370094e+001 1.200000e+001
    endloop
  endfacet
  facet normal 5.000000e-001 8.660254e-001 -0.000000e+000
    outer loop
      vertex   2.840112e-001 -1.352277e+001 -1.200000e+001
      vertex   2.840112e-001 -1.352277e+001 1.200000e+001
      vertex   1.172606e+000 -1.403580e+001 1.200000e+001
    endloop
  endfacet
  facet normal 9.396926e-001 3.420201e-001 -0.000000e+000
    outer loop
      vertex   1.172606e+000 -1.403580e+001 -1.200000e+001
      vertex   1.172606e+000 -1.403580e+001 1.200000e+001
      vertex   1.523539e+000 -1.499998e+001 1.200000e+001
    endloop
  endfacet
  facet normal 9.396926e-001 3.420201e-001 0.000000e+000
    outer loop
      vertex   1.523539e+000 -1.499998e+001 1.200000e+001
      vertex   1.523539e+000 -1.499998e+001 -1.200000e+001
      vertex   1.172606e+000 -1.403580e+001 -1.200000e+001
    endloop
  endfacet
  facet normal 5.000000e-001 8.660254e-001 0.000000e+000
    outer loop
      vertex   1.172606e+000 -1.403580e+001 1.200000e+001
      vertex   1.172606e+000 -1.403580e+001 -1.200000e+001
      vertex   2.840112e-001 -1.352277e+001 -1.200000e+001
    endloop
  endfacet
  facet normal 8.715574e-002 9.961947e-001 0.000000e+000
    outer loop
      vertex   2.353895e-002 -1.349998e+001 1.200000e+001
      vertex   2.840112e-001 -1.352277e+001 1.200000e+001
      vertex   2.840112e-001 -1.352277e+001 -1.200000e+001
    endloop
  endfacet
  facet normal -7.660444e-001 6.427876e-001 0.000000e+000
    outer loop
      vertex   -7.264611e-001 -1.370094e+001 1.200000e+001
      vertex   -7.264611e-001 -1.370094e+001 -1.200000e+001
      vertex   -1.386000e+000 -1.448695e+001 -1.200000e+001
    endloop
  endfacet
  facet normal -1.000000e+000 -6.339990e-016 -0.000000e+000
    outer loop
      vertex   -1.386000e+000 -1.448695e+001 1.200000e+001
      vertex   -1.386000e+000 -1.448695e+001 -1.200000e+001
      vertex   -1.386000e+000 -1.551301e+001 -1.200000e+001
    endloop
  endfacet
  facet normal -7.660444e-001 -6.427876e-001 -0.000000e+000
    outer loop
      vertex   -1.386000e+000 -1.551301e+001 1.200000e+001
      vertex   -1.386000e+000 -1.551301e+001 -1.200000e+001
      vertex   -7.264611e-001 -1.629902e+001 -1.200000e+001
    endloop
  endfacet
  facet normal -1.736482e-001 -9.848078e-001 -0.000000e+000
    outer loop
      vertex   -7.264611e-001 -1.629902e+001 1.200000e+001
      vertex   -7.264611e-001 -1.629902e+001 -1.200000e+001
      vertex   2.840112e-001 -1.647719e+001 -1.200000e+001
    endloop
  endfacet
  facet normal 5.000000e-001 -8.660254e-001 0.000000e+000
    outer loop
      vertex   2.840112e-001 -1.647719e+001 1.200000e+001
      vertex   2.840112e-001 -1.647719e+001 -1.200000e+001
      vertex   1.172606e+000 -1.596416e+001 -1.200000e+001
    endloop
  endfacet
  facet normal 9.396926e-001 -3.420201e-001 0.000000e+000
    outer loop
      vertex   1.172606e+000 -1.596416e+001 1.200000e+001
      vertex   1.172606e+000 -1.596416e+001 -1.200000e+001
      vertex   1.523539e+000 -1.499998e+001 -1.200000e+001
    endloop
  endfacet
  facet normal 0.000000e+000 0.000000e+000 -1.000000e+000
    outer loop
      vertex   2.353895e-002 -1.499998e+001 -1.200000e+001
      vertex   2.840112e-001 -1.352277e+001 -1.200000e+001
      vertex   1.172606e+000 -1.403580e+001 -1.200000e+001
    endloop
  endfacet
  facet normal 0.000000e+000 -0.000000e+000 -1.000000e+000
    outer loop
      vertex   1.172606e+000 -1.403580e+001 -1.200000e+001
      vertex   1.523539e+000 -1.499998e+001 -1.200000e+001
      vertex   2.353895e-002 -1.499998e+001 -1.200000e+001
    endloop
  endfacet
  facet normal -0.000000e+000 0.000000e+000 -1.000000e+000
    outer loop
      vertex   1.523539e+000 -1.499998e+001 -1.200000e+001
      vertex   1.172606e+000 -1.596416e+001 -1.200000e+001
      vertex   2.353895e-002 -1.499998e+001 -1.200000e+001
    endloop
  endfacet
  facet normal -0.000000e+000 0.000000e+000 -1.000000e+000
    outer loop
      vertex   1.172606e+000 -1.596416e+001 -1.200000e+001
      vertex   2.840112e-001 -1.647719e+001 -1.200000e+001
      vertex   2.353895e-002 -1.499998e+001 -1.200000e+001
    endloop
  endfacet
  facet normal 0.000000e+000 0.000000e+000 -1.000000e+000
    outer loop
      vertex   2.840112e-001 -1.647719e+001 -1.200000e+001
      vertex   -7.264611e-001 -1.629902e+001 -1.200000e+001
      vertex   2.353895e-002 -1.499998e+001 -1.200000e+001
    endloop
  endfacet
  facet normal 0.000000e+000 0.000000e+000 -1.000000e+000
    outer loop
      vertex   -7.264611e-001 -1.629902e+001 -1.200000e+001
      vertex   -1.386000e+000 -1.551301e+001 -1.200000e+001
      vertex   2.353895e-002 -1.499998e+001 -1.200000e+001
    endloop
  endfacet
  facet normal 0.000000e+000 0.000000e+000 -1.000000e+000
    outer loop
      vertex   -1.386000e+000 -1.551301e+001 -1.200000e+001
      vertex   -1.386000e+000 -1.448695e+001 -1.200000e+001
      vertex   2.353895e-002 -1.499998e+001 -1.200000e+001
    endloop
  endfacet
  facet normal 0.000000e+000 0.000000e+000 -1.000000e+000
    outer loop
      vertex   -1.386000e+000 -1.448695e+001 -1.200000e+001
      vertex   -7.264611e-001 -1.370094e+001 -1.200000e+001
      vertex   2.353895e-002 -1.499998e+001 -1.200000e+001
    endloop
  endfacet
  facet normal 0.000000e+000 0.000000e+000 -1.000000e+000
    outer loop
      vertex   -7.264611e-001 -1.370094e+001 -1.200000e+001
      vertex   2.353895e-002 -1.349998e+001 -1.200000e+001
      vertex   2.353895e-002 -1.499998e+001 -1.200000e+001
    endloop
  endfacet
  facet normal 0.000000e+000 0.000000e+000 -1.000000e+000
    outer loop
      vertex   2.353895e-002 -1.349998e+001 -1.200000e+001
      vertex   2.840112e-001 -1.352277e+001 -1.200000e+001
      vertex   2.353895e-002 -1.499998e+001 -1.200000e+001
    endloop
  endfacet
  facet normal 0.000000e+000 -0.000000e+000 1.000000e+000
    outer loop
      vertex   -1.058994e+001 -1.062323e+001 1.200000e+001
      vertex   -1.020172e+001 -9.174344e+000 1.200000e+001
      vertex   -1.122387e+001 -9.263772e+000 1.200000e+001
    endloop
  endfacet
  facet normal 0.000000e+000 0.000000e+000 1.000000e+000
    outer loop
      vertex   -1.122387e+001 -9.263772e+000 1.200000e+001
      vertex   -1.194941e+001 -9.989306e+000 1.200000e+001
      vertex   -1.058994e+001 -1.062323e+001 1.200000e+001
    endloop
  endfacet
  facet normal 0.000000e+000 0.000000e+000 1.000000e+000
    outer loop
      vertex   -1.194941e+001 -9.989306e+000 1.200000e+001
      vertex   -1.203883e+001 -1.101146e+001 1.200000e+001
      vertex   -1.058994e+001 -1.062323e+001 1.200000e+001
    endloop
  endfacet
  facet normal -0.000000e+000 0.000000e+000 1.000000e+000
    outer loop
      vertex   -1.203883e+001 -1.101146e+001 1.200000e+001
      vertex   -1.145031e+001 -1.185196e+001 1.200000e+001
      vertex   -1.058994e+001 -1.062323e+001 1.200000e+001
    endloop
  endfacet
  facet normal -0.000000e+000 0.000000e+000 1.000000e+000
    outer loop
      vertex   -1.145031e+001 -1.185196e+001 1.200000e+001
      vertex   -1.045921e+001 -1.211753e+001 1.200000e+001
      vertex   -1.058994e+001 -1.062323e+001 1.200000e+001
    endloop
  endfacet
  facet normal 0.000000e+000 -0.000000e+000 1.000000e+000
    outer loop
      vertex   -1.045921e+001 -1.211753e+001 1.200000e+001
      vertex   -9.529284e+000 -1.168389e+001 1.200000e+001
      vertex   -1.058994e+001 -1.062323e+001 1.200000e+001
    endloop
  endfacet
  facet normal 0.000000e+000 -0.000000e+000 1.000000e+000
    outer loop
      vertex   -9.529284e+000 -1.168389e+001 1.200000e+001
      vertex   -9.095652e+000 -1.075397e+001 1.200000e+001
      vertex   -1.058994e+001 -1.062323e+001 1.200000e+001
    endloop
  endfacet
  facet normal 0.000000e+000 0.000000e+000 1.000000e+000
    outer loop
      vertex   -9.095652e+000 -1.075397e+001 1.200000e+001
      vertex   -9.361216e+000 -9.762869e+000 1.200000e+001
      vertex   -1.058994e+001 -1.062323e+001 1.200000e+001
    endloop
  endfacet
  facet normal 0.000000e+000 0.000000e+000 1.000000e+000
    outer loop
      vertex   -9.361216e+000 -9.762869e+000 1.200000e+001
      vertex   -9.529284e+000 -9.562573e+000 1.200000e+001
      vertex   -1.058994e+001 -1.062323e+001 1.200000e+001
    endloop
  endfacet
  facet normal 0.000000e+000 0.000000e+000 1.000000e+000
    outer loop
      vertex   -9.529284e+000 -9.562573e+000 1.200000e+001
      vertex   -1.020172e+001 -9.174344e+000 1.200000e+001
      vertex   -1.058994e+001 -1.062323e+001 1.200000e+001
    endloop
  endfacet
  facet normal 4.226183e-001 -9.063078e-001 0.000000e+000
    outer loop
      vertex   -9.529284e+000 -1.168389e+001 -1.200000e+001
      vertex   -9.529284e+000 -1.168389e+001 1.200000e+001
      vertex   -1.045921e+001 -1.211753e+001 1.200000e+001
    endloop
  endfacet
  facet normal -2.588190e-001 -9.659258e-001 0.000000e+000
    outer loop
      vertex   -1.045921e+001 -1.211753e+001 -1.200000e+001
      vertex   -1.045921e+001 -1.211753e+001 1.200000e+001
      vertex   -1.145031e+001 -1.185196e+001 1.200000e+001
    endloop
  endfacet
  facet normal -8.191520e-001 -5.735764e-001 0.000000e+000
    outer loop
      vertex   -1.145031e+001 -1.185196e+001 -1.200000e+001
      vertex   -1.145031e+001 -1.185196e+001 1.200000e+001
      vertex   -1.203883e+001 -1.101146e+001 1.200000e+001
    endloop
  endfacet
  facet normal -9.961947e-001 8.715574e-002 0.000000e+000
    outer loop
      vertex   -1.203883e+001 -1.101146e+001 -1.200000e+001
      vertex   -1.203883e+001 -1.101146e+001 1.200000e+001
      vertex   -1.194941e+001 -9.989306e+000 1.200000e+001
    endloop
  endfacet
  facet normal -7.071068e-001 7.071068e-001 0.000000e+000
    outer loop
      vertex   -1.194941e+001 -9.989306e+000 -1.200000e+001
      vertex   -1.194941e+001 -9.989306e+000 1.200000e+001
      vertex   -1.122387e+001 -9.263772e+000 1.200000e+001
    endloop
  endfacet
  facet normal -8.715574e-002 9.961947e-001 0.000000e+000
    outer loop
      vertex   -1.122387e+001 -9.263772e+000 -1.200000e+001
      vertex   -1.122387e+001 -9.263772e+000 1.200000e+001
      vertex   -1.020172e+001 -9.174344e+000 1.200000e+001
    endloop
  endfacet
  facet normal 7.660444e-001 6.427876e-001 0.000000e+000
    outer loop
      vertex   -9.361216e+000 -9.762869e+000 -1.200000e+001
      vertex   -9.529284e+000 -9.562573e+000 -1.200000e+001
      vertex   -9.529284e+000 -9.562573e+000 1.200000e+001
    endloop
  endfacet
  facet normal 5.000000e-001 8.660254e-001 0.000000e+000
    outer loop
      vertex   -1.020172e+001 -9.174344e+000 1.200000e+001
      vertex   -9.529284e+000 -9.562573e+000 1.200000e+001
      vertex   -9.529284e+000 -9.562573e+000 -1.200000e+001
    endloop
  endfacet
  facet normal 5.000000e-001 8.660254e-001 0.000000e+000
    outer loop
      vertex   -9.529284e+000 -9.562573e+000 -1.200000e+001
      vertex   -1.020172e+001 -9.174344e+000 -1.200000e+001
      vertex   -1.020172e+001 -9.174344e+000 1.200000e+001
    endloop
  endfacet
  facet normal 9.659258e-001 2.588190e-001 -0.000000e+000
    outer loop
      vertex   -9.361216e+000 -9.762869e+000 -1.200000e+001
      vertex   -9.361216e+000 -9.762869e+000 1.200000e+001
      vertex   -9.095652e+000 -1.075397e+001 1.200000e+001
    endloop
  endfacet
  facet normal 9.063078e-001 -4.226183e-001 0.000000e+000
    outer loop
      vertex   -9.095652e+000 -1.075397e+001 -1.200000e+001
      vertex   -9.095652e+000 -1.075397e+001 1.200000e+001
      vertex   -9.529284e+000 -1.168389e+001 1.200000e+001
    endloop
  endfacet
  facet normal 9.063078e-001 -4.226183e-001 0.000000e+000
    outer loop
      vertex   -9.529284e+000 -1.168389e+001 1.200000e+001
      vertex   -9.529284e+000 -1.168389e+001 -1.200000e+001
      vertex   -9.095652e+000 -1.075397e+001 -1.200000e+001
    endloop
  endfacet
  facet normal 9.659258e-001 2.588190e-001 0.000000e+000
    outer loop
      vertex   -9.095652e+000 -1.075397e+001 1.200000e+001
      vertex   -9.095652e+000 -1.075397e+001 -1.200000e+001
      vertex   -9.361216e+000 -9.762869e+000 -1.200000e+001
    endloop
  endfacet
  facet normal 7.660444e-001 6.427876e-001 0.000000e+000
    outer loop
      vertex   -9.529284e+000 -9.562573e+000 1.200000e+001
      vertex   -9.361216e+000 -9.762869e+000 1.200000e+001
      vertex   -9.361216e+000 -9.762869e+000 -1.200000e+001
    endloop
  endfacet
  facet normal -8.715574e-002 9.961947e-001 0.000000e+000
    outer loop
      vertex   -1.020172e+001 -9.174344e+000 1.200000e+001
      vertex   -1.020172e+001 -9.174344e+000 -1.200000e+001
      vertex   -1.122387e+001 -9.263772e+000 -1.200000e+001
    endloop
  endfacet
  facet normal -7.071068e-001 7.071068e-001 0.000000e+000
    outer loop
      vertex   -1.122387e+001 -9.263772e+000 1.200000e+001
      vertex   -1.122387e+001 -9.263772e+000 -1.200000e+001
      vertex   -1.194941e+001 -9.989306e+000 -1.200000e+001
    endloop
  endfacet
  facet normal -9.961947e-001 8.715574e-002 0.000000e+000
    outer loop
      vertex   -1.194941e+001 -9.989306e+000 1.200000e+001
      vertex   -1.194941e+001 -9.989306e+000 -1.200000e+001
      vertex   -1.203883e+001 -1.101146e+001 -1.200000e+001
    endloop
  endfacet
  facet normal -8.191520e-001 -5.735764e-001 -0.000000e+000
    outer loop
      vertex   -1.203883e+001 -1.101146e+001 1.200000e+001
      vertex   -1.203883e+001 -1.101146e+001 -1.200000e+001
      vertex   -1.145031e+001 -1.185196e+001 -1.200000e+001
    endloop
  endfacet
  facet normal -2.588190e-001 -9.659258e-001 -0.000000e+000
    outer loop
      vertex   -1.145031e+001 -1.185196e+001 1.200000e+001
      vertex   -1.145031e+001 -1.185196e+001 -1.200000e+001
      vertex   -1.045921e+001 -1.211753e+001 -1.200000e+001
    endloop
  endfacet
  facet normal 4.226183e-001 -9.063078e-001 0.000000e+000
    outer loop
      vertex   -1.045921e+001 -1.211753e+001 1.200000e+001
      vertex   -1.045921e+001 -1.211753e+001 -1.200000e+001
      vertex   -9.529284e+000 -1.168389e+001 -1.200000e+001
    endloop
  endfacet
  facet normal 0.000000e+000 0.000000e+000 -1.000000e+000
    outer loop
      vertex   -1.058994e+001 -1.062323e+001 -1.200000e+001
      vertex   -9.361216e+000 -9.762869e+000 -1.200000e+001
      vertex   -9.095652e+000 -1.075397e+001 -1.200000e+001
    endloop
  endfacet
  facet normal -0.000000e+000 0.000000e+000 -1.000000e+000
    outer loop
      vertex   -9.095652e+000 -1.075397e+001 -1.200000e+001
      vertex   -9.529284e+000 -1.168389e+001 -1.200000e+001
      vertex   -1.058994e+001 -1.062323e+001 -1.200000e+001
    endloop
  endfacet
  facet normal -0.000000e+000 0.000000e+000 -1.000000e+000
    outer loop
      vertex   -9.529284e+000 -1.168389e+001 -1.200000e+001
      vertex   -1.045921e+001 -1.211753e+001 -1.200000e+001
      vertex   -1.058994e+001 -1.062323e+001 -1.200000e+001
    endloop
  endfacet
  facet normal 0.000000e+000 0.000000e+000 -1.000000e+000
    outer loop
      vertex   -1.045921e+001 -1.211753e+001 -1.200000e+001
      vertex   -1.145031e+001 -1.185196e+001 -1.200000e+001
      vertex   -1.058994e+001 -1.062323e+001 -1.200000e+001
    endloop
  endfacet
  facet normal 0.000000e+000 0.000000e+000 -1.000000e+000
    outer loop
      vertex   -1.145031e+001 -1.185196e+001 -1.200000e+001
      vertex   -1.203883e+001 -1.101146e+001 -1.200000e+001
      vertex   -1.058994e+001 -1.062323e+001 -1.200000e+001
    endloop
  endfacet
  facet normal 0.000000e+000 0.000000e+000 -1.000000e+000
    outer loop
      vertex   -1.203883e+001 -1.101146e+001 -1.200000e+001
      vertex   -1.194941e+001 -9.989306e+000 -1.200000e+001
      vertex   -1.058994e+001 -1.062323e+001 -1.200000e+001
    endloop
  endfacet
  facet normal 0.000000e+000 0.000000e+000 -1.000000e+000
    outer loop
      vertex   -1.194941e+001 -9.989306e+000 -1.200000e+001
      vertex   -1.122387e+001 -9.263772e+000 -1.200000e+001
      vertex   -1.058994e+001 -1.062323e+001 -1.200000e+001
    endloop
  endfacet
  facet normal 0.000000e+000 0.000000e+000 -1.000000e+000
    outer loop
      vertex   -1.122387e+001 -9.263772e+000 -1.200000e+001
      vertex   -1.020172e+001 -9.174344e+000 -1.200000e+001
      vertex   -1.058994e+001 -1.062323e+001 -1.200000e+001
    endloop
  endfacet
  facet normal 0.000000e+000 -0.000000e+000 -1.000000e+000
    outer loop
      vertex   -1.020172e+001 -9.174344e+000 -1.200000e+001
      vertex   -9.529284e+000 -9.562573e+000 -1.200000e+001
      vertex   -1.058994e+001 -1.062323e+001 -1.200000e+001
    endloop
  endfacet
  facet normal 0.000000e+000 -0.000000e+000 -1.000000e+000
    outer loop
      vertex   -9.529284e+000 -9.562573e+000 -1.200000e+001
      vertex   -9.361216e+000 -9.762869e+000 -1.200000e+001
      vertex   -1.058994e+001 -1.062323e+001 -1.200000e+001
    endloop
  endfacet
  facet normal 0.000000e+000 0.000000e+000 1.000000e+000
    outer loop
      vertex   -1.499998e+001 -2.353895e-002 1.200000e+001
      vertex   -1.370094e+001 7.264611e-001 1.200000e+001
      vertex   -1.448695e+001 1.386000e+000 1.200000e+001
    endloop
  endfacet
  facet normal 0.000000e+000 0.000000e+000 1.000000e+000
    outer loop
      vertex   -1.448695e+001 1.386000e+000 1.200000e+001
      vertex   -1.551301e+001 1.386000e+000 1.200000e+001
      vertex   -1.499998e+001 -2.353895e-002 1.200000e+001
    endloop
  endfacet
  facet normal 0.000000e+000 0.000000e+000 1.000000e+000
    outer loop
      vertex   -1.551301e+001 1.386000e+000 1.200000e+001
      vertex   -1.629902e+001 7.264611e-001 1.200000e+001
      vertex   -1.499998e+001 -2.353895e-002 1.200000e+001
    endloop
  endfacet
  facet normal 0.000000e+000 0.000000e+000 1.000000e+000
    outer loop
      vertex   -1.629902e+001 7.264611e-001 1.200000e+001
      vertex   -1.647719e+001 -2.840112e-001 1.200000e+001
      vertex   -1.499998e+001 -2.353895e-002 1.200000e+001
    endloop
  endfacet
  facet normal -0.000000e+000 0.000000e+000 1.000000e+000
    outer loop
      vertex   -1.647719e+001 -2.840112e-001 1.200000e+001
      vertex   -1.596416e+001 -1.172606e+000 1.200000e+001
      vertex   -1.499998e+001 -2.353895e-002 1.200000e+001
    endloop
  endfacet
  facet normal -0.000000e+000 0.000000e+000 1.000000e+000
    outer loop
      vertex   -1.596416e+001 -1.172606e+000 1.200000e+001
      vertex   -1.499998e+001 -1.523539e+000 1.200000e+001
      vertex   -1.499998e+001 -2.353895e-002 1.200000e+001
    endloop
  endfacet
  facet normal 0.000000e+000 0.000000e+000 1.000000e+000
    outer loop
      vertex   -1.499998e+001 -1.523539e+000 1.200000e+001
      vertex   -1.403580e+001 -1.172606e+000 1.200000e+001
      vertex   -1.499998e+001 -2.353895e-002 1.200000e+001
    endloop
  endfacet
  facet normal 0.000000e+000 -0.000000e+000 1.000000e+000
    outer loop
      vertex   -1.403580e+001 -1.172606e+000 1.200000e+001
      vertex   -1.352277e+001 -2.840112e-001 1.200000e+001
      vertex   -1.499998e+001 -2.353895e-002 1.200000e+001
    endloop
  endfacet
  facet normal 0.000000e+000 -0.000000e+000 1.000000e+000
    outer loop
      vertex   -1.352277e+001 -2.840112e-001 1.200000e+001
      vertex   -1.349998e+001 -2.353895e-002 1.200000e+001
      vertex   -1.499998e+001 -2.353895e-002 1.200000e+001
    endloop
  endfacet
  facet normal 0.000000e+000 0.000000e+000 1.000000e+000
    outer loop
      vertex   -1.349998e+001 -2.353895e-002 1.200000e+001
      vertex   -1.370094e+001 7.264611e-001 1.200000e+001
      vertex   -1.499998e+001 -2.353895e-002 1.200000e+001
    endloop
  endfacet
  facet normal -3.420201e-001 -9.396926e-001 0.000000e+000
    outer loop
      vertex   -1.499998e+001 -1.523539e+000 -1.200000e+001
      vertex   -1.499998e+001 -1.523539e+000 1.200000e+001
      vertex   -1.596416e+001 -1.172606e+000 1.200000e+001
    endloop
  endfacet
  facet normal -8.660254e-001 -5.000000e-001 0.000000e+000
    outer loop
      vertex   -1.596416e+001 -1.172606e+000 -1.200000e+001
      vertex   -1.596416e+001 -1.172606e+000 1.200000e+001
      vertex   -1.647719e+001 -2.840112e-001 1.200000e+001
    endloop
  endfacet
  facet normal -9.848078e-001 1.736482e-001 0.000000e+000
    outer loop
      vertex   -1.647719e+001 -2.840112e-001 -1.200000e+001
      vertex   -1.647719e+001 -2.840112e-001 1.200000e+001
      vertex   -1.629902e+001 7.264611e-001 1.200000e+001
    endloop
  endfacet
  facet normal -6.427876e-001 7.660444e-001 0.000000e+000
    outer loop
      vertex   -1.629902e+001 7.264611e-001 -1.200000e+001
      vertex   -1.629902e+001 7.264611e-001 1.200000e+001
      vertex   -1.551301e+001 1.386000e+000 1.200000e+001
    endloop
  endfacet
  facet normal -6.339990e-016 1.000000e+000 0.000000e+000
    outer loop
      vertex   -1.551301e+001 1.386000e+000 -1.200000e+001
      vertex   -1.551301e+001 1.386000e+000 1.200000e+001
      vertex   -1.448695e+001 1.386000e+000 1.200000e+001
    endloop
  endfacet
  facet normal 6.427876e-001 7.660444e-001 -0.000000e+000
    outer loop
      vertex   -1.448695e+001 1.386000e+000 -1.200000e+001
      vertex   -1.448695e+001 1.386000e+000 1.200000e+001
      vertex   -1.370094e+001 7.264611e-001 1.200000e+001
    endloop
  endfacet
  facet normal 9.961947e-001 -8.715574e-002 1.449988e-018
    outer loop
      vertex   -1.352277e+001 -2.840112e-001 -1.200000e+001
      vertex   -1.349998e+001 -2.353895e-002 -1.200000e+001
      vertex   -1.349998e+001 -2.353895e-002 1.200000e+001
    endloop
  endfacet
  facet normal 9.659258e-001 2.588190e-001 -4.261307e-018
    outer loop
      vertex   -1.370094e+001 7.264611e-001 1.200000e+001
      vertex   -1.349998e+001 -2.353895e-002 1.200000e+001
      vertex   -1.349998e+001 -2.353895e-002 -1.200000e+001
    endloop
  endfacet
  facet normal 9.659258e-001 2.588190e-001 0.000000e+000
    outer loop
      vertex   -1.349998e+001 -2.353895e-002 -1.200000e+001
      vertex   -1.370094e+001 7.264611e-001 -1.200000e+001
      vertex   -1.370094e+001 7.264611e-001 1.200000e+001
    endloop
  endfacet
  facet normal 8.660254e-001 -5.000000e-001 0.000000e+000
    outer loop
      vertex   -1.352277e+001 -2.840112e-001 -1.200000e+001
      vertex   -1.352277e+001 -2.840112e-001 1.200000e+001
      vertex   -1.403580e+001 -1.172606e+000 1.200000e+001
    endloop
  endfacet
  facet normal 3.420201e-001 -9.396926e-001 0.000000e+000
    outer loop
      vertex   -1.403580e+001 -1.172606e+000 -1.200000e+001
      vertex   -1.403580e+001 -1.172606e+000 1.200000e+001
      vertex   -1.499998e+001 -1.523539e+000 1.200000e+001
    endloop
  endfacet
  facet normal 3.420201e-001 -9.396926e-001 0.000000e+000
    outer loop
      vertex   -1.499998e+001 -1.523539e+000 1.200000e+001
      vertex   -1.499998e+001 -1.523539e+000 -1.200000e+001
      vertex   -1.403580e+001 -1.172606e+000 -1.200000e+001
    endloop
  endfacet
  facet normal 8.660254e-001 -5.000000e-001 0.000000e+000
    outer loop
      vertex   -1.403580e+001 -1.172606e+000 1.200000e+001
      vertex   -1.403580e+001 -1.172606e+000 -1.200000e+001
      vertex   -1.352277e+001 -2.840112e-001 -1.200000e+001
    endloop
  endfacet
  facet normal 9.961947e-001 -8.715574e-002 0.000000e+000
    outer loop
      vertex   -1.349998e+001 -2.353895e-002 1.200000e+001
      vertex   -1.352277e+001 -2.840112e-001 1.200000e+001
      vertex   -1.352277e+001 -2.840112e-001 -1.200000e+001
    endloop
  endfacet
  facet normal 6.427876e-001 7.660444e-001 0.000000e+000
    outer loop
      vertex   -1.370094e+001 7.264611e-001 1.200000e+001
      vertex   -1.370094e+001 7.264611e-001 -1.200000e+001
      vertex   -1.448695e+001 1.386000e+000 -1.200000e+001
    endloop
  endfacet
  facet normal -6.339990e-016 1.000000e+000 0.000000e+000
    outer loop
      vertex   -1.448695e+001 1.386000e+000 1.200000e+001
      vertex   -1.448695e+001 1.386000e+000 -1.200000e+001
      vertex   -1.551301e+001 1.386000e+000 -1.200000e+001
    endloop
  endfacet
  facet normal -6.427876e-001 7.660444e-001 0.000000e+000
    outer loop
      vertex   -1.551301e+001 1.386000e+000 1.200000e+001
      vertex   -1.551301e+001 1.386000e+000 -1.200000e+001
      vertex   -1.629902e+001 7.264611e-001 -1.200000e+001
    endloop
  endfacet
  facet normal -9.848078e-001 1.736482e-001 0.000000e+000
    outer loop
      vertex   -1.629902e+001 7.264611e-001 1.200000e+001
      vertex   -1.629902e+001 7.264611e-001 -1.200000e+001
      vertex   -1.647719e+001 -2.840112e-001 -1.200000e+001
    endloop
  endfacet
  facet normal -8.660254e-001 -5.000000e-001 -0.000000e+000
    outer loop
      vertex   -1.647719e+001 -2.840112e-001 1.200000e+001
      vertex   -1.647719e+001 -2.840112e-001 -1.200000e+001
      vertex   -1.596416e+001 -1.172606e+000 -1.200000e+001
    endloop
  endfacet
  facet normal -3.420201e-001 -9.396926e-001 -0.000000e+000
    outer loop
      vertex   -1.596416e+001 -1.172606e+000 1.200000e+001
      vertex   -1.596416e+001 -1.172606e+000 -1.200000e+001
      vertex   -1.499998e+001 -1.523539e+000 -1.200000e+001
    endloop
  endfacet
  facet normal 0.000000e+000 0.000000e+000 -1.000000e+000
    outer loop
      vertex   -1.499998e+001 -2.353895e-002 -1.200000e+001
      vertex   -1.352277e+001 -2.840112e-001 -1.200000e+001
      vertex   -1.403580e+001 -1.172606e+000 -1.200000e+001
    endloop
  endfacet
  facet normal -0.000000e+000 0.000000e+000 -1.000000e+000
    outer loop
      vertex   -1.403580e+001 -1.172606e+000 -1.200000e+001
      vertex   -1.499998e+001 -1.523539e+000 -1.200000e+001
      vertex   -1.499998e+001 -2.353895e-002 -1.200000e+001
    endloop
  endfacet
  facet normal 0.000000e+000 0.000000e+000 -1.000000e+000
    outer loop
      vertex   -1.499998e+001 -1.523539e+000 -1.200000e+001
      vertex   -1.596416e+001 -1.172606e+000 -1.200000e+001
      vertex   -1.499998e+001 -2.353895e-002 -1.200000e+001
    endloop
  endfacet
  facet normal 0.000000e+000 0.000000e+000 -1.000000e+000
    outer loop
      vertex   -1.596416e+001 -1.172606e+000 -1.200000e+001
      vertex   -1.647719e+001 -2.840112e-001 -1.200000e+001
      vertex   -1.499998e+001 -2.353895e-002 -1.200000e+001
    endloop
  endfacet
  facet normal 0.000000e+000 0.000000e+000 -1.000000e+000
    outer loop
      vertex   -1.647719e+001 -2.840112e-001 -1.200000e+001
      vertex   -1.629902e+001 7.264611e-001 -1.200000e+001
      vertex   -1.499998e+001 -2.353895e-002 -1.200000e+001
    endloop
  endfacet
  facet normal 0.000000e+000 0.000000e+000 -1.000000e+000
    outer loop
      vertex   -1.629902e+001 7.264611e-001 -1.200000e+001
      vertex   -1.551301e+001 1.386000e+000 -1.200000e+001
      vertex   -1.499998e+001 -2.353895e-002 -1.200000e+001
    endloop
  endfacet
  facet normal 0.000000e+000 0.000000e+000 -1.000000e+000
    outer loop
      vertex   -1.551301e+001 1.386000e+000 -1.200000e+001
      vertex   -1.448695e+001 1.386000e+000 -1.200000e+001
      vertex   -1.499998e+001 -2.353895e-002 -1.200000e+001
    endloop
  endfacet
  facet normal 0.000000e+000 -0.000000e+000 -1.000000e+000
    outer loop
      vertex   -1.448695e+001 1.386000e+000 -1.200000e+001
      vertex   -1.370094e+001 7.264611e-001 -1.200000e+001
      vertex   -1.499998e+001 -2.353895e-002 -1.200000e+001
    endloop
  endfacet
  facet normal 0.000000e+000 -0.000000e+000 -1.000000e+000
    outer loop
      vertex   -1.370094e+001 7.264611e-001 -1.200000e+001
      vertex   -1.349998e+001 -2.353895e-002 -1.200000e+001
      vertex   -1.499998e+001 -2.353895e-002 -1.200000e+001
    endloop
  endfacet
  facet normal 0.000000e+000 0.000000e+000 -1.000000e+000
    outer loop
      vertex   -1.349998e+001 -2.353895e-002 -1.200000e+001
      vertex   -1.352277e+001 -2.840112e-001 -1.200000e+001
      vertex   -1.499998e+001 -2.353895e-002 -1.200000e+001
    endloop
  endfacet
  facet normal -0.000000e+000 0.000000e+000 1.000000e+000
    outer loop
      vertex   -1.062323e+001 1.058994e+001 1.200000e+001
      vertex   -9.174344e+000 1.020172e+001 1.200000e+001
      vertex   -9.263772e+000 1.122387e+001 1.200000e+001
    endloop
  endfacet
  facet normal 0.000000e+000 0.000000e+000 1.000000e+000
    outer loop
      vertex   -9.263772e+000 1.122387e+001 1.200000e+001
      vertex   -9.989306e+000 1.194941e+001 1.200000e+001
      vertex   -1.062323e+001 1.058994e+001 1.200000e+001
    endloop
  endfacet
  facet normal 0.000000e+000 0.000000e+000 1.000000e+000
    outer loop
      vertex   -9.989306e+000 1.194941e+001 1.200000e+001
      vertex   -1.101146e+001 1.203883e+001 1.200000e+001
      vertex   -1.062323e+001 1.058994e+001 1.200000e+001
    endloop
  endfacet
  facet normal 0.000000e+000 0.000000e+000 1.000000e+000
    outer loop
      vertex   -1.101146e+001 1.203883e+001 1.200000e+001
      vertex   -1.185196e+001 1.145031e+001 1.200000e+001
      vertex   -1.062323e+001 1.058994e+001 1.200000e+001
    endloop
  endfacet
  facet normal 0.000000e+000 0.000000e+000 1.000000e+000
    outer loop
      vertex   -1.185196e+001 1.145031e+001 1.200000e+001
      vertex   -1.211753e+001 1.045921e+001 1.200000e+001
      vertex   -1.062323e+001 1.058994e+001 1.200000e+001
    endloop
  endfacet
  facet normal -0.000000e+000 0.000000e+000 1.000000e+000
    outer loop
      vertex   -1.211753e+001 1.045921e+001 1.200000e+001
      vertex   -1.168389e+001 9.529284e+000 1.200000e+001
      vertex   -1.062323e+001 1.058994e+001 1.200000e+001
    endloop
  endfacet
  facet normal -0.000000e+000 0.000000e+000 1.000000e+000
    outer loop
      vertex   -1.168389e+001 9.529284e+000 1.200000e+001
      vertex   -1.075397e+001 9.095652e+000 1.200000e+001
      vertex   -1.062323e+001 1.058994e+001 1.200000e+001
    endloop
  endfacet
  facet normal 0.000000e+000 0.000000e+000 1.000000e+000
    outer loop
      vertex   -1.075397e+001 9.095652e+000 1.200000e+001
      vertex   -9.762869e+000 9.361216e+000 1.200000e+001
      vertex   -1.062323e+001 1.058994e+001 1.200000e+001
    endloop
  endfacet
  facet normal 0.000000e+000 -0.000000e+000 1.000000e+000
    outer loop
      vertex   -9.762869e+000 9.361216e+000 1.200000e+001
      vertex   -9.562573e+000 9.529284e+000 1.200000e+001
      vertex   -1.062323e+001 1.058994e+001 1.200000e+001
    endloop
  endfacet
  facet normal 0.000000e+000 -0.000000e+000 1.000000e+000
    outer loop
      vertex   -9.562573e+000 9.529284e+000 1.200000e+001
      vertex   -9.174344e+000 1.020172e+001 1.200000e+001
      vertex   -1.062323e+001 1.058994e+001 1.200000e+001
    endloop
  endfacet
  facet normal -9.063078e-001 -4.226183e-001 0.000000e+000
    outer loop
      vertex   -1.168389e+001 9.529284e+000 -1.200000e+001
      vertex   -1.168389e+001 9.529284e+000 1.200000e+001
      vertex   -1.211753e+001 1.045921e+001 1.200000e+001
    endloop
  endfacet
  facet normal -9.659258e-001 2.588190e-001 0.000000e+000
    outer loop
      vertex   -1.211753e+001 1.045921e+001 -1.200000e+001
      vertex   -1.211753e+001 1.045921e+001 1.200000e+001
      vertex   -1.185196e+001 1.145031e+001 1.200000e+001
    endloop
  endfacet
  facet normal -5.735764e-001 8.191520e-001 0.000000e+000
    outer loop
      vertex   -1.185196e+001 1.145031e+001 -1.200000e+001
      vertex   -1.185196e+001 1.145031e+001 1.200000e+001
      vertex   -1.101146e+001 1.203883e+001 1.200000e+001
    endloop
  endfacet
  facet normal 8.715574e-002 9.961947e-001 -0.000000e+000
    outer loop
      vertex   -1.101146e+001 1.203883e+001 -1.200000e+001
      vertex   -1.101146e+001 1.203883e+001 1.200000e+001
      vertex   -9.989306e+000 1.194941e+001 1.200000e+001
    endloop
  endfacet
  facet normal 7.071068e-001 7.071068e-001 -0.000000e+000
    outer loop
      vertex   -9.989306e+000 1.194941e+001 -1.200000e+001
      vertex   -9.989306e+000 1.194941e+001 1.200000e+001
      vertex   -9.263772e+000 1.122387e+001 1.200000e+001
    endloop
  endfacet
  facet normal 9.961947e-001 8.715574e-002 -0.000000e+000
    outer loop
      vertex   -9.263772e+000 1.122387e+001 -1.200000e+001
      vertex   -9.263772e+000 1.122387e+001 1.200000e+001
      vertex   -9.174344e+000 1.020172e+001 1.200000e+001
    endloop
  endfacet
  facet normal 6.427876e-001 -7.660444e-001 0.000000e+000
    outer loop
      vertex   -9.762869e+000 9.361216e+000 -1.200000e+001
      vertex   -9.562573e+000 9.529284e+000 -1.200000e+001
      vertex   -9.562573e+000 9.529284e+000 1.200000e+001
    endloop
  endfacet
  facet normal 8.660254e-001 -5.000000e-001 0.000000e+000
    outer loop
      vertex   -9.174344e+000 1.020172e+001 1.200000e+001
      vertex   -9.562573e+000 9.529284e+000 1.200000e+001
      vertex   -9.562573e+000 9.529284e+000 -1.200000e+001
    endloop
  endfacet
  facet normal 8.660254e-001 -5.000000e-001 0.000000e+000
    outer loop
      vertex   -9.562573e+000 9.529284e+000 -1.200000e+001
      vertex   -9.174344e+000 1.020172e+001 -1.200000e+001
      vertex   -9.174344e+000 1.020172e+001 1.200000e+001
    endloop
  endfacet
  facet normal 2.588190e-001 -9.659258e-001 0.000000e+000
    outer loop
      vertex   -9.762869e+000 9.361216e+000 -1.200000e+001
      vertex   -9.762869e+000 9.361216e+000 1.200000e+001
      vertex   -1.075397e+001 9.095652e+000 1.200000e+001
    endloop
  endfacet
  facet normal -4.226183e-001 -9.063078e-001 0.000000e+000
    outer loop
      vertex   -1.075397e+001 9.095652e+000 -1.200000e+001
      vertex   -1.075397e+001 9.095652e+000 1.200000e+001
      vertex   -1.168389e+001 9.529284e+000 1.200000e+001
    endloop
  endfacet
  facet normal -4.226183e-001 -9.063078e-001 -0.000000e+000
    outer loop
      vertex   -1.168389e+001 9.529284e+000 1.200000e+001
      vertex   -1.168389e+001 9.529284e+000 -1.200000e+001
      vertex   -1.075397e+001 9.095652e+000 -1.200000e+001
    endloop
  endfacet
  facet normal 2.588190e-001 -9.659258e-001 0.000000e+000
    outer loop
      vertex   -1.075397e+001 9.095652e+000 1.200000e+001
      vertex   -1.075397e+001 9.095652e+000 -1.200000e+001
      vertex   -9.762869e+000 9.361216e+000 -1.200000e+001
    endloop
  endfacet
  facet normal 6.427876e-001 -7.660444e-001 0.000000e+000
    outer loop
      vertex   -9.562573e+000 9.529284e+000 1.200000e+001
      vertex   -9.762869e+000 9.361216e+000 1.200000e+001
      vertex   -9.762869e+000 9.361216e+000 -1.200000e+001
    endloop
  endfacet
  facet normal 9.961947e-001 8.715574e-002 0.000000e+000
    outer loop
      vertex   -9.174344e+000 1.020172e+001 1.200000e+001
      vertex   -9.174344e+000 1.020172e+001 -1.200000e+001
      vertex   -9.263772e+000 1.122387e+001 -1.200000e+001
    endloop
  endfacet
  facet normal 7.071068e-001 7.071068e-001 0.000000e+000
    outer loop
      vertex   -9.263772e+000 1.122387e+001 1.200000e+001
      vertex   -9.263772e+000 1.122387e+001 -1.200000e+001
      vertex   -9.989306e+000 1.194941e+001 -1.200000e+001
    endloop
  endfacet
  facet normal 8.715574e-002 9.961947e-001 0.000000e+000
    outer loop
      vertex   -9.989306e+000 1.194941e+001 1.200000e+001
      vertex   -9.989306e+000 1.194941e+001 -1.200000e+001
      vertex   -1.101146e+001 1.203883e+001 -1.200000e+001
    endloop
  endfacet
  facet normal -5.735764e-001 8.191520e-001 0.000000e+000
    outer loop
      vertex   -1.101146e+001 1.203883e+001 1.200000e+001
      vertex   -1.101146e+001 1.203883e+001 -1.200000e+001
      vertex   -1.185196e+001 1.145031e+001 -1.200000e+001
    endloop
  endfacet
  facet normal -9.659258e-001 2.588190e-001 0.000000e+000
    outer loop
      vertex   -1.185196e+001 1.145031e+001 1.200000e+001
      vertex   -1.185196e+001 1.145031e+001 -1.200000e+001
      vertex   -1.211753e+001 1.045921e+001 -1.200000e+001
    endloop
  endfacet
  facet normal -9.063078e-001 -4.226183e-001 -0.000000e+000
    outer loop
      vertex   -1.211753e+001 1.045921e+001 1.200000e+001
      vertex   -1.211753e+001 1.045921e+001 -1.200000e+001
      vertex   -1.168389e+001 9.529284e+000 -1.200000e+001
    endloop
  endfacet
  facet normal 0.000000e+000 -0.000000e+000 -1.000000e+000
    outer loop
      vertex   -1.062323e+001 1.058994e+001 -1.200000e+001
      vertex   -9.762869e+000 9.361216e+000 -1.200000e+001
      vertex   -1.075397e+001 9.095652e+000 -1.200000e+001
    endloop
  endfacet
  facet normal 0.000000e+000 0.000000e+000 -1.000000e+000
    outer loop
      vertex   -1.075397e+001 9.095652e+000 -1.200000e+001
      vertex   -1.168389e+001 9.529284e+000 -1.200000e+001
      vertex   -1.062323e+001 1.058994e+001 -1.200000e+001
    endloop
  endfacet
  facet normal 0.000000e+000 0.000000e+000 -1.000000e+000
    outer loop
      vertex   -1.168389e+001 9.529284e+000 -1.200000e+001
      vertex   -1.211753e+001 1.045921e+001 -1.200000e+001
      vertex   -1.062323e+001 1.058994e+001 -1.200000e+001
    endloop
  endfacet
  facet normal 0.000000e+000 0.000000e+000 -1.000000e+000
    outer loop
      vertex   -1.211753e+001 1.045921e+001 -1.200000e+001
      vertex   -1.185196e+001 1.145031e+001 -1.200000e+001
      vertex   -1.062323e+001 1.058994e+001 -1.200000e+001
    endloop
  endfacet
  facet normal 0.000000e+000 0.000000e+000 -1.000000e+000
    outer loop
      vertex   -1.185196e+001 1.145031e+001 -1.200000e+001
      vertex   -1.101146e+001 1.203883e+001 -1.200000e+001
      vertex   -1.062323e+001 1.058994e+001 -1.200000e+001
    endloop
  endfacet
  facet normal 0.000000e+000 0.000000e+000 -1.000000e+000
    outer loop
      vertex   -1.101146e+001 1.203883e+001 -1.200000e+001
      vertex   -9.989306e+000 1.194941e+001 -1.200000e+001
      vertex   -1.062323e+001 1.058994e+001 -1.200000e+001
    endloop
  endfacet
  facet normal 0.000000e+000 -0.000000e+000 -1.000000e+000
    outer loop
      vertex   -9.989306e+000 1.194941e+001 -1.200000e+001
      vertex   -9.263772e+000 1.122387e+001 -1.200000e+001
      vertex   -1.062323e+001 1.058994e+001 -1.200000e+001
    endloop
  endfacet
  facet normal 0.000000e+000 -0.000000e+000 -1.000000e+000
    outer loop
      vertex   -9.263772e+000 1.122387e+001 -1.200000e+001
      vertex   -9.174344e+000 1.020172e+001 -1.200000e+001
      vertex   -1.062323e+001 1.058994e+001 -1.200000e+001
    endloop
  endfacet
  facet normal -0.000000e+000 0.000000e+000 -1.000000e+000
    outer loop
      vertex   -9.174344e+000 1.020172e+001 -1.200000e+001
      vertex   -9.562573e+000 9.529284e+000 -1.200000e+001
      vertex   -1.062323e+001 1.058994e+001 -1.200000e+001
    endloop
  endfacet
  facet normal -0.000000e+000 0.000000e+000 -1.000000e+000
    outer loop
      vertex   -9.562573e+000 9.529284e+000 -1.200000e+001
      vertex   -9.762869e+000 9.361216e+000 -1.200000e+001
      vertex   -1.062323e+001 1.058994e+001 -1.200000e+001
    endloop
  endfacet
  facet normal 0.000000e+000 0.000000e+000 1.000000e+000
    outer loop
      vertex   -2.353895e-002 1.499998e+001 1.200000e+001
      vertex   7.264611e-001 1.370094e+001 1.200000e+001
      vertex   1.386000e+000 1.448695e+001 1.200000e+001
    endloop
  endfacet
  facet normal 0.000000e+000 0.000000e+000 1.000000e+000
    outer loop
      vertex   1.386000e+000 1.448695e+001 1.200000e+001
      vertex   1.386000e+000 1.551301e+001 1.200000e+001
      vertex   -2.353895e-002 1.499998e+001 1.200000e+001
    endloop
  endfacet
  facet normal 0.000000e+000 0.000000e+000 1.000000e+000
    outer loop
      vertex   1.386000e+000 1.551301e+001 1.200000e+001
      vertex   7.264611e-001 1.629902e+001 1.200000e+001
      vertex   -2.353895e-002 1.499998e+001 1.200000e+001
    endloop
  endfacet
  facet normal 0.000000e+000 0.000000e+000 1.000000e+000
    outer loop
      vertex   7.264611e-001 1.629902e+001 1.200000e+001
      vertex   -2.840112e-001 1.647719e+001 1.200000e+001
      vertex   -2.353895e-002 1.499998e+001 1.200000e+001
    endloop
  endfacet
  facet normal 0.000000e+000 0.000000e+000 1.000000e+000
    outer loop
      vertex   -2.840112e-001 1.647719e+001 1.200000e+001
      vertex   -1.172606e+000 1.596416e+001 1.200000e+001
      vertex   -2.353895e-002 1.499998e+001 1.200000e+001
    endloop
  endfacet
  facet normal 0.000000e+000 0.000000e+000 1.000000e+000
    outer loop
      vertex   -1.172606e+000 1.596416e+001 1.200000e+001
      vertex   -1.523539e+000 1.499998e+001 1.200000e+001
      vertex   -2.353895e-002 1.499998e+001 1.200000e+001
    endloop
  endfacet
  facet normal -0.000000e+000 0.000000e+000 1.000000e+000
    outer loop
      vertex   -1.523539e+000 1.499998e+001 1.200000e+001
      vertex   -1.172606e+000 1.403580e+001 1.200000e+001
      vertex   -2.353895e-002 1.499998e+001 1.200000e+001
    endloop
  endfacet
  facet normal -0.000000e+000 0.000000e+000 1.000000e+000
    outer loop
      vertex   -1.172606e+000 1.403580e+001 1.200000e+001
      vertex   -2.840112e-001 1.352277e+001 1.200000e+001
      vertex   -2.353895e-002 1.499998e+001 1.200000e+001
    endloop
  endfacet
  facet normal -0.000000e+000 0.000000e+000 1.000000e+000
    outer loop
      vertex   -2.840112e-001 1.352277e+001 1.200000e+001
      vertex   -2.353895e-002 1.349998e+001 1.200000e+001
      vertex   -2.353895e-002 1.499998e+001 1.200000e+001
    endloop
  endfacet
  facet normal 0.000000e+000 -0.000000e+000 1.000000e+000
    outer loop
      vertex   -2.353895e-002 1.349998e+001 1.200000e+001
      vertex   7.264611e-001 1.370094e+001 1.200000e+001
      vertex   -2.353895e-002 1.499998e+001 1.200000e+001
    endloop
  endfacet
  facet normal -9.396926e-001 3.420201e-001 0.000000e+000
    outer loop
      vertex   -1.523539e+000 1.499998e+001 -1.200000e+001
      vertex   -1.523539e+000 1.499998e+001 1.200000e+001
      vertex   -1.172606e+000 1.596416e+001 1.200000e+001
    endloop
  endfacet
  facet normal -5.000000e-001 8.660254e-001 0.000000e+000
    outer loop
      vertex   -1.172606e+000 1.596416e+001 -1.200000e+001
      vertex   -1.172606e+000 1.596416e+001 1.200000e+001
      vertex   -2.840112e-001 1.647719e+001 1.200000e+001
    endloop
  endfacet
  facet normal 1.736482e-001 9.848078e-001 -0.000000e+000
    outer loop
      vertex   -2.840112e-001 1.647719e+001 -1.200000e+001
      vertex   -2.840112e-001 1.647719e+001 1.200000e+001
      vertex   7.264611e-001 1.629902e+001 1.200000e+001
    endloop
  endfacet
  facet normal 7.660444e-001 6.427876e-001 -0.000000e+000
    outer loop
      vertex   7.264611e-001 1.629902e+001 -1.200000e+001
      vertex   7.264611e-001 1.629902e+001 1.200000e+001
      vertex   1.386000e+000 1.551301e+001 1.200000e+001
    endloop
  endfacet
  facet normal 1.000000e+000 6.339990e-016 -0.000000e+000
    outer loop
      vertex   1.386000e+000 1.551301e+001 -1.200000e+001
      vertex   1.386000e+000 1.551301e+001 1.200000e+001
      vertex   1.386000e+000 1.448695e+001 1.200000e+001
    endloop
  endfacet
  facet normal 7.660444e-001 -6.427876e-001 0.000000e+000
    outer loop
      vertex   1.386000e+000 1.448695e+001 -1.200000e+001
      vertex   1.386000e+000 1.448695e+001 1.200000e+001
      vertex   7.264611e-001 1.370094e+001 1.200000e+001
    endloop
  endfacet
  facet normal -8.715574e-002 -9.961947e-001 1.318171e-018
    outer loop
      vertex   -2.840112e-001 1.352277e+001 -1.200000e+001
      vertex   -2.353895e-002 1.349998e+001 -1.200000e+001
      vertex   -2.353895e-002 1.349998e+001 1.200000e+001
    endloop
  endfacet
  facet normal 2.588190e-001 -9.659258e-001 -4.261307e-018
    outer loop
      vertex   7.264611e-001 1.370094e+001 1.200000e+001
      vertex   -2.353895e-002 1.349998e+001 1.200000e+001
      vertex   -2.353895e-002 1.349998e+001 -1.200000e+001
    endloop
  endfacet
  facet normal 2.588190e-001 -9.659258e-001 0.000000e+000
    outer loop
      vertex   -2.353895e-002 1.349998e+001 -1.200000e+001
      vertex   7.264611e-001 1.370094e+001 -1.200000e+001
      vertex   7.264611e-001 1.370094e+001 1.200000e+001
    endloop
  endfacet
  facet normal -5.000000e-001 -8.660254e-001 0.000000e+000
    outer loop
      vertex   -2.840112e-001 1.352277e+001 -1.200000e+001
      vertex   -2.840112e-001 1.352277e+001 1.200000e+001
      vertex   -1.172606e+000 1.403580e+001 1.200000e+001
    endloop
  endfacet
  facet normal -9.396926e-001 -3.420201e-001 0.000000e+000
    outer loop
      vertex   -1.172606e+000 1.403580e+001 -1.200000e+001
      vertex   -1.172606e+000 1.403580e+001 1.200000e+001
      vertex   -1.523539e+000 1.499998e+001 1.200000e+001
    endloop
  endfacet
  facet normal -9.396926e-001 -3.420201e-001 -0.000000e+000
    outer loop
      vertex   -1.523539e+000 1.499998e+001 1.200000e+001
      vertex   -1.523539e+000 1.499998e+001 -1.200000e+001
      vertex   -1.172606e+000 1.403580e+001 -1.200000e+001
    endloop
  endfacet
  facet normal -5.000000e-001 -8.660254e-001 -0.000000e+000
    outer loop
      vertex   -1.172606e+000 1.403580e+001 1.200000e+001
      vertex   -1.172606e+000 1.403580e+001 -1.200000e+001
      vertex   -2.840112e-001 1.352277e+001 -1.200000e+001
    endloop
  endfacet
  facet normal -8.715574e-002 -9.961947e-001 0.000000e+000
    outer loop
      vertex   -2.353895e-002 1.349998e+001 1.200000e+001
      vertex   -2.840112e-001 1.352277e+001 1.200000e+001
      vertex   -2.840112e-001 1.352277e+001 -1.200000e+001
    endloop
  endfacet
  facet normal 7.660444e-001 -6.427876e-001 0.000000e+000
    outer loop
      vertex   7.264611e-001 1.370094e+001 1.200000e+001
      vertex   7.264611e-001 1.370094e+001 -1.200000e+001
      vertex   1.386000e+000 1.448695e+001 -1.200000e+001
    endloop
  endfacet
  facet normal 1.000000e+000 6.339990e-016 0.000000e+000
    outer loop
      vertex   1.386000e+000 1.448695e+001 1.200000e+001
      vertex   1.386000e+000 1.448695e+001 -1.200000e+001
      vertex   1.386000e+000 1.551301e+001 -1.200000e+001
    endloop
  endfacet
  facet normal 7.660444e-001 6.427876e-001 0.000000e+000
    outer loop
      vertex   1.386000e+000 1.551301e+001 1.200000e+001
      vertex   1.386000e+000 1.551301e+001 -1.200000e+001
      vertex   7.264611e-001 1.629902e+001 -1.200000e+001
    endloop
  endfacet
  facet normal 1.736482e-001 9.848078e-001 0.000000e+000
    outer loop
      vertex   7.264611e-001 1.629902e+001 1.200000e+001
      vertex   7.264611e-001 1.629902e+001 -1.200000e+001
      vertex   -2.840112e-001 1.647719e+001 -1.200000e+001
    endloop
  endfacet
  facet normal -5.000000e-001 8.660254e-001 0.000000e+000
    outer loop
      vertex   -2.840112e-001 1.647719e+001 1.200000e+001
      vertex   -2.840112e-001 1.647719e+001 -1.200000e+001
      vertex   -1.172606e+000 1.596416e+001 -1.200000e+001
    endloop
  endfacet
  facet normal -9.396926e-001 3.420201e-001 0.000000e+000
    outer loop
      vertex   -1.172606e+000 1.596416e+001 1.200000e+001
      vertex   -1.172606e+000 1.596416e+001 -1.200000e+001
      vertex   -1.523539e+000 1.499998e+001 -1.200000e+001
    endloop
  endfacet
  facet normal 0.000000e+000 0.000000e+000 -1.000000e+000
    outer loop
      vertex   -2.353895e-002 1.499998e+001 -1.200000e+001
      vertex   -2.840112e-001 1.352277e+001 -1.200000e+001
      vertex   -1.172606e+000 1.403580e+001 -1.200000e+001
    endloop
  endfacet
  facet normal 0.000000e+000 0.000000e+000 -1.000000e+000
    outer loop
      vertex   -1.172606e+000 1.403580e+001 -1.200000e+001
      vertex   -1.523539e+000 1.499998e+001 -1.200000e+001
      vertex   -2.353895e-002 1.499998e+001 -1.200000e+001
    endloop
  endfacet
  facet normal 0.000000e+000 0.000000e+000 -1.000000e+000
    outer loop
      vertex   -1.523539e+000 1.499998e+001 -1.200000e+001
      vertex   -1.172606e+000 1.596416e+001 -1.200000e+001
      vertex   -2.353895e-002 1.499998e+001 -1.200000e+001
    endloop
  endfacet
  facet normal 0.000000e+000 0.000000e+000 -1.000000e+000
    outer loop
      vertex   -1.172606e+000 1.596416e+001 -1.200000e+001
      vertex   -2.840112e-001 1.647719e+001 -1.200000e+001
      vertex   -2.353895e-002 1.499998e+001 -1.200000e+001
    endloop
  endfacet
  facet normal 0.000000e+000 0.000000e+000 -1.000000e+000
    outer loop
      vertex   -2.840112e-001 1.647719e+001 -1.200000e+001
      vertex   7.264611e-001 1.629902e+001 -1.200000e+001
      vertex   -2.353895e-002 1.499998e+001 -1.200000e+001
    endloop
  endfacet
  facet normal 0.000000e+000 -0.000000e+000 -1.000000e+000
    outer loop
      vertex   7.264611e-001 1.629902e+001 -1.200000e+001
      vertex   1.386000e+000 1.551301e+001 -1.200000e+001
      vertex   -2.353895e-002 1.499998e+001 -1.200000e+001
    endloop
  endfacet
  facet normal 0.000000e+000 -0.000000e+000 -1.000000e+000
    outer loop
      vertex   1.386000e+000 1.551301e+001 -1.200000e+001
      vertex   1.386000e+000 1.448695e+001 -1.200000e+001
      vertex   -2.353895e-002 1.499998e+001 -1.200000e+001
    endloop
  endfacet
  facet normal -0.000000e+000 0.000000e+000 -1.000000e+000
    outer loop
      vertex   1.386000e+000 1.448695e+001 -1.200000e+001
      vertex   7.264611e-001 1.370094e+001 -1.200000e+001
      vertex   -2.353895e-002 1.499998e+001 -1.200000e+001
    endloop
  endfacet
  facet normal -0.000000e+000 0.000000e+000 -1.000000e+000
    outer loop
      vertex   7.264611e-001 1.370094e+001 -1.200000e+001
      vertex   -2.353895e-002 1.349998e+001 -1.200000e+001
      vertex   -2.353895e-002 1.499998e+001 -1.200000e+001
    endloop
  endfacet
  facet normal 0.000000e+000 0.000000e+000 -1.000000e+000
    outer loop
      vertex   -2.353895e-002 1.349998e+001 -1.200000e+001
      vertex   -2.840112e-001 1.352277e+001 -1.200000e+001
      vertex   -2.353895e-002 1.499998e+001 -1.200000e+001
    endloop
  endfacet
endsolid
