solid AnillosRotorMotor
  facet normal 8.257935e-002 0.000000e+000 9.965845e-001
    outer loop
      vertex   -4.608649e+001 -2.500000e+001 -2.761812e+002
      vertex   -6.858022e-014 -2.500000e+001 -2.800000e+002
      vertex   -6.858022e-014 2.500000e+001 -2.800000e+002
    endloop
  endfacet
  facet normal 2.454855e-001 0.000000e+000 9.694003e-001
    outer loop
      vertex   -9.091585e+001 -2.500000e+001 -2.648288e+002
      vertex   -4.608649e+001 -2.500000e+001 -2.761812e+002
      vertex   -4.608649e+001 2.500000e+001 -2.761812e+002
    endloop
  endfacet
  facet normal 4.016954e-001 0.000000e+000 9.157733e-001
    outer loop
      vertex   -1.332653e+002 -2.500000e+001 -2.462527e+002
      vertex   -9.091585e+001 -2.500000e+001 -2.648288e+002
      vertex   -9.091585e+001 2.500000e+001 -2.648288e+002
    endloop
  endfacet
  facet normal 5.469482e-001 0.000000e+000 8.371665e-001
    outer loop
      vertex   -1.719796e+002 -2.500000e+001 -2.209593e+002
      vertex   -1.332653e+002 -2.500000e+001 -2.462527e+002
      vertex   -1.332653e+002 2.500000e+001 -2.462527e+002
    endloop
  endfacet
  facet normal 6.772816e-001 0.000000e+000 7.357239e-001
    outer loop
      vertex   -2.060027e+002 -2.500000e+001 -1.896388e+002
      vertex   -1.719796e+002 -2.500000e+001 -2.209593e+002
      vertex   -1.719796e+002 2.500000e+001 -2.209593e+002
    endloop
  endfacet
  facet normal 7.891405e-001 0.000000e+000 6.142127e-001
    outer loop
      vertex   -2.344066e+002 -2.500000e+001 -1.531455e+002
      vertex   -2.060027e+002 -2.500000e+001 -1.896388e+002
      vertex   -2.060027e+002 2.500000e+001 -1.896388e+002
    endloop
  endfacet
  facet normal 8.794738e-001 0.000000e+000 4.759474e-001
    outer loop
      vertex   -2.564165e+002 -2.500000e+001 -1.124747e+002
      vertex   -2.344066e+002 -2.500000e+001 -1.531455e+002
      vertex   -2.344066e+002 2.500000e+001 -1.531455e+002
    endloop
  endfacet
  facet normal 9.458172e-001 0.000000e+000 3.246995e-001
    outer loop
      vertex   -2.714321e+002 -2.500000e+001 -6.873594e+001
      vertex   -2.564165e+002 -2.500000e+001 -1.124747e+002
      vertex   -2.564165e+002 2.500000e+001 -1.124747e+002
    endloop
  endfacet
  facet normal 9.863613e-001 0.000000e+000 1.645946e-001
    outer loop
      vertex   -2.790437e+002 -2.500000e+001 -2.312222e+001
      vertex   -2.714321e+002 -2.500000e+001 -6.873594e+001
      vertex   -2.714321e+002 2.500000e+001 -6.873594e+001
    endloop
  endfacet
  facet normal 1.000000e+000 0.000000e+000 0.000000e+000
    outer loop
      vertex   -2.790437e+002 -2.500000e+001 2.312222e+001
      vertex   -2.790437e+002 -2.500000e+001 -2.312222e+001
      vertex   -2.790437e+002 2.500000e+001 -2.312222e+001
    endloop
  endfacet
  facet normal 9.863613e-001 0.000000e+000 -1.645946e-001
    outer loop
      vertex   -2.714321e+002 -2.500000e+001 6.873594e+001
      vertex   -2.790437e+002 -2.500000e+001 2.312222e+001
      vertex   -2.790437e+002 2.500000e+001 2.312222e+001
    endloop
  endfacet
  facet normal 9.458172e-001 0.000000e+000 -3.246995e-001
    outer loop
      vertex   -2.564165e+002 -2.500000e+001 1.124747e+002
      vertex   -2.714321e+002 -2.500000e+001 6.873594e+001
      vertex   -2.714321e+002 2.500000e+001 6.873594e+001
    endloop
  endfacet
  facet normal 8.794738e-001 0.000000e+000 -4.759474e-001
    outer loop
      vertex   -2.344066e+002 -2.500000e+001 1.531455e+002
      vertex   -2.564165e+002 -2.500000e+001 1.124747e+002
      vertex   -2.564165e+002 2.500000e+001 1.124747e+002
    endloop
  endfacet
  facet normal 7.891405e-001 0.000000e+000 -6.142127e-001
    outer loop
      vertex   -2.060027e+002 -2.500000e+001 1.896388e+002
      vertex   -2.344066e+002 -2.500000e+001 1.531455e+002
      vertex   -2.344066e+002 2.500000e+001 1.531455e+002
    endloop
  endfacet
  facet normal 6.772816e-001 0.000000e+000 -7.357239e-001
    outer loop
      vertex   -1.719796e+002 -2.500000e+001 2.209593e+002
      vertex   -2.060027e+002 -2.500000e+001 1.896388e+002
      vertex   -2.060027e+002 2.500000e+001 1.896388e+002
    endloop
  endfacet
  facet normal 5.469482e-001 0.000000e+000 -8.371665e-001
    outer loop
      vertex   -1.332653e+002 -2.500000e+001 2.462527e+002
      vertex   -1.719796e+002 -2.500000e+001 2.209593e+002
      vertex   -1.719796e+002 2.500000e+001 2.209593e+002
    endloop
  endfacet
  facet normal 4.016954e-001 0.000000e+000 -9.157733e-001
    outer loop
      vertex   -9.091585e+001 -2.500000e+001 2.648288e+002
      vertex   -1.332653e+002 -2.500000e+001 2.462527e+002
      vertex   -1.332653e+002 2.500000e+001 2.462527e+002
    endloop
  endfacet
  facet normal 2.454855e-001 0.000000e+000 -9.694003e-001
    outer loop
      vertex   -4.608649e+001 -2.500000e+001 2.761812e+002
      vertex   -9.091585e+001 -2.500000e+001 2.648288e+002
      vertex   -9.091585e+001 2.500000e+001 2.648288e+002
    endloop
  endfacet
  facet normal 8.257935e-002 0.000000e+000 -9.965845e-001
    outer loop
      vertex   3.429011e-014 -2.500000e+001 2.800000e+002
      vertex   -4.608649e+001 -2.500000e+001 2.761812e+002
      vertex   -4.608649e+001 2.500000e+001 2.761812e+002
    endloop
  endfacet
  facet normal -8.257935e-002 0.000000e+000 -9.965845e-001
    outer loop
      vertex   4.608649e+001 -2.500000e+001 2.761812e+002
      vertex   3.429011e-014 -2.500000e+001 2.800000e+002
      vertex   3.429011e-014 2.500000e+001 2.800000e+002
    endloop
  endfacet
  facet normal -2.454855e-001 0.000000e+000 -9.694003e-001
    outer loop
      vertex   9.091585e+001 -2.500000e+001 2.648288e+002
      vertex   4.608649e+001 -2.500000e+001 2.761812e+002
      vertex   4.608649e+001 2.500000e+001 2.761812e+002
    endloop
  endfacet
  facet normal -4.016954e-001 0.000000e+000 -9.157733e-001
    outer loop
      vertex   1.332653e+002 -2.500000e+001 2.462527e+002
      vertex   9.091585e+001 -2.500000e+001 2.648288e+002
      vertex   9.091585e+001 2.500000e+001 2.648288e+002
    endloop
  endfacet
  facet normal -5.469482e-001 0.000000e+000 -8.371665e-001
    outer loop
      vertex   1.719796e+002 -2.500000e+001 2.209593e+002
      vertex   1.332653e+002 -2.500000e+001 2.462527e+002
      vertex   1.332653e+002 2.500000e+001 2.462527e+002
    endloop
  endfacet
  facet normal -6.772816e-001 0.000000e+000 -7.357239e-001
    outer loop
      vertex   2.060027e+002 -2.500000e+001 1.896388e+002
      vertex   1.719796e+002 -2.500000e+001 2.209593e+002
      vertex   1.719796e+002 2.500000e+001 2.209593e+002
    endloop
  endfacet
  facet normal -7.891405e-001 0.000000e+000 -6.142127e-001
    outer loop
      vertex   2.344066e+002 -2.500000e+001 1.531455e+002
      vertex   2.060027e+002 -2.500000e+001 1.896388e+002
      vertex   2.060027e+002 2.500000e+001 1.896388e+002
    endloop
  endfacet
  facet normal -8.794738e-001 0.000000e+000 -4.759474e-001
    outer loop
      vertex   2.564165e+002 -2.500000e+001 1.124747e+002
      vertex   2.344066e+002 -2.500000e+001 1.531455e+002
      vertex   2.344066e+002 2.500000e+001 1.531455e+002
    endloop
  endfacet
  facet normal -9.458172e-001 0.000000e+000 -3.246995e-001
    outer loop
      vertex   2.714321e+002 -2.500000e+001 6.873594e+001
      vertex   2.564165e+002 -2.500000e+001 1.124747e+002
      vertex   2.564165e+002 2.500000e+001 1.124747e+002
    endloop
  endfacet
  facet normal -9.863613e-001 0.000000e+000 -1.645946e-001
    outer loop
      vertex   2.790437e+002 -2.500000e+001 2.312222e+001
      vertex   2.714321e+002 -2.500000e+001 6.873594e+001
      vertex   2.714321e+002 2.500000e+001 6.873594e+001
    endloop
  endfacet
  facet normal -9.991458e-001 0.000000e+000 4.132497e-002
    outer loop
      vertex   2.790437e+002 2.500000e+001 -2.312222e+001
      vertex   2.790437e+002 -2.500000e+001 -2.312222e+001
      vertex   2.800000e+002 -2.500000e+001 -8.572528e-014
    endloop
  endfacet
  facet normal -9.991458e-001 0.000000e+000 -4.132497e-002
    outer loop
      vertex   2.790437e+002 -2.500000e+001 2.312222e+001
      vertex   2.790437e+002 2.500000e+001 2.312222e+001
      vertex   2.800000e+002 2.500000e+001 -1.714506e-014
    endloop
  endfacet
  facet normal -9.991458e-001 5.668152e-017 -4.132497e-002
    outer loop
      vertex   2.800000e+002 2.500000e+001 -1.714506e-014
      vertex   2.800000e+002 -2.500000e+001 -8.572528e-014
      vertex   2.790437e+002 -2.500000e+001 2.312222e+001
    endloop
  endfacet
  facet normal -9.863613e-001 0.000000e+000 1.645946e-001
    outer loop
      vertex   2.714321e+002 -2.500000e+001 -6.873594e+001
      vertex   2.790437e+002 -2.500000e+001 -2.312222e+001
      vertex   2.790437e+002 2.500000e+001 -2.312222e+001
    endloop
  endfacet
  facet normal -9.458172e-001 0.000000e+000 3.246995e-001
    outer loop
      vertex   2.564165e+002 -2.500000e+001 -1.124747e+002
      vertex   2.714321e+002 -2.500000e+001 -6.873594e+001
      vertex   2.714321e+002 2.500000e+001 -6.873594e+001
    endloop
  endfacet
  facet normal -8.794738e-001 0.000000e+000 4.759474e-001
    outer loop
      vertex   2.344066e+002 -2.500000e+001 -1.531455e+002
      vertex   2.564165e+002 -2.500000e+001 -1.124747e+002
      vertex   2.564165e+002 2.500000e+001 -1.124747e+002
    endloop
  endfacet
  facet normal -7.891405e-001 0.000000e+000 6.142127e-001
    outer loop
      vertex   2.060027e+002 -2.500000e+001 -1.896388e+002
      vertex   2.344066e+002 -2.500000e+001 -1.531455e+002
      vertex   2.344066e+002 2.500000e+001 -1.531455e+002
    endloop
  endfacet
  facet normal -6.772816e-001 0.000000e+000 7.357239e-001
    outer loop
      vertex   1.719796e+002 -2.500000e+001 -2.209593e+002
      vertex   2.060027e+002 -2.500000e+001 -1.896388e+002
      vertex   2.060027e+002 2.500000e+001 -1.896388e+002
    endloop
  endfacet
  facet normal -5.469482e-001 0.000000e+000 8.371665e-001
    outer loop
      vertex   1.332653e+002 -2.500000e+001 -2.462527e+002
      vertex   1.719796e+002 -2.500000e+001 -2.209593e+002
      vertex   1.719796e+002 2.500000e+001 -2.209593e+002
    endloop
  endfacet
  facet normal -4.016954e-001 0.000000e+000 9.157733e-001
    outer loop
      vertex   9.091585e+001 -2.500000e+001 -2.648288e+002
      vertex   1.332653e+002 -2.500000e+001 -2.462527e+002
      vertex   1.332653e+002 2.500000e+001 -2.462527e+002
    endloop
  endfacet
  facet normal -2.454855e-001 0.000000e+000 9.694003e-001
    outer loop
      vertex   4.608649e+001 -2.500000e+001 -2.761812e+002
      vertex   9.091585e+001 -2.500000e+001 -2.648288e+002
      vertex   9.091585e+001 2.500000e+001 -2.648288e+002
    endloop
  endfacet
  facet normal -8.257935e-002 0.000000e+000 9.965845e-001
    outer loop
      vertex   -6.858022e-014 -2.500000e+001 -2.800000e+002
      vertex   4.608649e+001 -2.500000e+001 -2.761812e+002
      vertex   4.608649e+001 2.500000e+001 -2.761812e+002
    endloop
  endfacet
  facet normal -8.257935e-002 0.000000e+000 9.965845e-001
    outer loop
      vertex   4.608649e+001 2.500000e+001 -2.761812e+002
      vertex   -6.858022e-014 2.500000e+001 -2.800000e+002
      vertex   -6.858022e-014 -2.500000e+001 -2.800000e+002
    endloop
  endfacet
  facet normal -2.454855e-001 0.000000e+000 9.694003e-001
    outer loop
      vertex   9.091585e+001 2.500000e+001 -2.648288e+002
      vertex   4.608649e+001 2.500000e+001 -2.761812e+002
      vertex   4.608649e+001 -2.500000e+001 -2.761812e+002
    endloop
  endfacet
  facet normal -4.016954e-001 0.000000e+000 9.157733e-001
    outer loop
      vertex   1.332653e+002 2.500000e+001 -2.462527e+002
      vertex   9.091585e+001 2.500000e+001 -2.648288e+002
      vertex   9.091585e+001 -2.500000e+001 -2.648288e+002
    endloop
  endfacet
  facet normal -5.469482e-001 0.000000e+000 8.371665e-001
    outer loop
      vertex   1.719796e+002 2.500000e+001 -2.209593e+002
      vertex   1.332653e+002 2.500000e+001 -2.462527e+002
      vertex   1.332653e+002 -2.500000e+001 -2.462527e+002
    endloop
  endfacet
  facet normal -6.772816e-001 0.000000e+000 7.357239e-001
    outer loop
      vertex   2.060027e+002 2.500000e+001 -1.896388e+002
      vertex   1.719796e+002 2.500000e+001 -2.209593e+002
      vertex   1.719796e+002 -2.500000e+001 -2.209593e+002
    endloop
  endfacet
  facet normal -7.891405e-001 0.000000e+000 6.142127e-001
    outer loop
      vertex   2.344066e+002 2.500000e+001 -1.531455e+002
      vertex   2.060027e+002 2.500000e+001 -1.896388e+002
      vertex   2.060027e+002 -2.500000e+001 -1.896388e+002
    endloop
  endfacet
  facet normal -8.794738e-001 0.000000e+000 4.759474e-001
    outer loop
      vertex   2.564165e+002 2.500000e+001 -1.124747e+002
      vertex   2.344066e+002 2.500000e+001 -1.531455e+002
      vertex   2.344066e+002 -2.500000e+001 -1.531455e+002
    endloop
  endfacet
  facet normal -9.458172e-001 0.000000e+000 3.246995e-001
    outer loop
      vertex   2.714321e+002 2.500000e+001 -6.873594e+001
      vertex   2.564165e+002 2.500000e+001 -1.124747e+002
      vertex   2.564165e+002 -2.500000e+001 -1.124747e+002
    endloop
  endfacet
  facet normal -9.863613e-001 0.000000e+000 1.645946e-001
    outer loop
      vertex   2.790437e+002 2.500000e+001 -2.312222e+001
      vertex   2.714321e+002 2.500000e+001 -6.873594e+001
      vertex   2.714321e+002 -2.500000e+001 -6.873594e+001
    endloop
  endfacet
  facet normal -9.991458e-001 -5.668152e-017 4.132497e-002
    outer loop
      vertex   2.800000e+002 -2.500000e+001 -8.572528e-014
      vertex   2.800000e+002 2.500000e+001 -1.714506e-014
      vertex   2.790437e+002 2.500000e+001 -2.312222e+001
    endloop
  endfacet
  facet normal -9.863613e-001 0.000000e+000 -1.645946e-001
    outer loop
      vertex   2.714321e+002 2.500000e+001 6.873594e+001
      vertex   2.790437e+002 2.500000e+001 2.312222e+001
      vertex   2.790437e+002 -2.500000e+001 2.312222e+001
    endloop
  endfacet
  facet normal -9.458172e-001 0.000000e+000 -3.246995e-001
    outer loop
      vertex   2.564165e+002 2.500000e+001 1.124747e+002
      vertex   2.714321e+002 2.500000e+001 6.873594e+001
      vertex   2.714321e+002 -2.500000e+001 6.873594e+001
    endloop
  endfacet
  facet normal -8.794738e-001 0.000000e+000 -4.759474e-001
    outer loop
      vertex   2.344066e+002 2.500000e+001 1.531455e+002
      vertex   2.564165e+002 2.500000e+001 1.124747e+002
      vertex   2.564165e+002 -2.500000e+001 1.124747e+002
    endloop
  endfacet
  facet normal -7.891405e-001 0.000000e+000 -6.142127e-001
    outer loop
      vertex   2.060027e+002 2.500000e+001 1.896388e+002
      vertex   2.344066e+002 2.500000e+001 1.531455e+002
      vertex   2.344066e+002 -2.500000e+001 1.531455e+002
    endloop
  endfacet
  facet normal -6.772816e-001 0.000000e+000 -7.357239e-001
    outer loop
      vertex   1.719796e+002 2.500000e+001 2.209593e+002
      vertex   2.060027e+002 2.500000e+001 1.896388e+002
      vertex   2.060027e+002 -2.500000e+001 1.896388e+002
    endloop
  endfacet
  facet normal -5.469482e-001 0.000000e+000 -8.371665e-001
    outer loop
      vertex   1.332653e+002 2.500000e+001 2.462527e+002
      vertex   1.719796e+002 2.500000e+001 2.209593e+002
      vertex   1.719796e+002 -2.500000e+001 2.209593e+002
    endloop
  endfacet
  facet normal -4.016954e-001 0.000000e+000 -9.157733e-001
    outer loop
      vertex   9.091585e+001 2.500000e+001 2.648288e+002
      vertex   1.332653e+002 2.500000e+001 2.462527e+002
      vertex   1.332653e+002 -2.500000e+001 2.462527e+002
    endloop
  endfacet
  facet normal -2.454855e-001 0.000000e+000 -9.694003e-001
    outer loop
      vertex   4.608649e+001 2.500000e+001 2.761812e+002
      vertex   9.091585e+001 2.500000e+001 2.648288e+002
      vertex   9.091585e+001 -2.500000e+001 2.648288e+002
    endloop
  endfacet
  facet normal -8.257935e-002 0.000000e+000 -9.965845e-001
    outer loop
      vertex   3.429011e-014 2.500000e+001 2.800000e+002
      vertex   4.608649e+001 2.500000e+001 2.761812e+002
      vertex   4.608649e+001 -2.500000e+001 2.761812e+002
    endloop
  endfacet
  facet normal 8.257935e-002 0.000000e+000 -9.965845e-001
    outer loop
      vertex   -4.608649e+001 2.500000e+001 2.761812e+002
      vertex   3.429011e-014 2.500000e+001 2.800000e+002
      vertex   3.429011e-014 -2.500000e+001 2.800000e+002
    endloop
  endfacet
  facet normal 2.454855e-001 0.000000e+000 -9.694003e-001
    outer loop
      vertex   -9.091585e+001 2.500000e+001 2.648288e+002
      vertex   -4.608649e+001 2.500000e+001 2.761812e+002
      vertex   -4.608649e+001 -2.500000e+001 2.761812e+002
    endloop
  endfacet
  facet normal 4.016954e-001 0.000000e+000 -9.157733e-001
    outer loop
      vertex   -1.332653e+002 2.500000e+001 2.462527e+002
      vertex   -9.091585e+001 2.500000e+001 2.648288e+002
      vertex   -9.091585e+001 -2.500000e+001 2.648288e+002
    endloop
  endfacet
  facet normal 5.469482e-001 0.000000e+000 -8.371665e-001
    outer loop
      vertex   -1.719796e+002 2.500000e+001 2.209593e+002
      vertex   -1.332653e+002 2.500000e+001 2.462527e+002
      vertex   -1.332653e+002 -2.500000e+001 2.462527e+002
    endloop
  endfacet
  facet normal 6.772816e-001 0.000000e+000 -7.357239e-001
    outer loop
      vertex   -2.060027e+002 2.500000e+001 1.896388e+002
      vertex   -1.719796e+002 2.500000e+001 2.209593e+002
      vertex   -1.719796e+002 -2.500000e+001 2.209593e+002
    endloop
  endfacet
  facet normal 7.891405e-001 0.000000e+000 -6.142127e-001
    outer loop
      vertex   -2.344066e+002 2.500000e+001 1.531455e+002
      vertex   -2.060027e+002 2.500000e+001 1.896388e+002
      vertex   -2.060027e+002 -2.500000e+001 1.896388e+002
    endloop
  endfacet
  facet normal 8.794738e-001 0.000000e+000 -4.759474e-001
    outer loop
      vertex   -2.564165e+002 2.500000e+001 1.124747e+002
      vertex   -2.344066e+002 2.500000e+001 1.531455e+002
      vertex   -2.344066e+002 -2.500000e+001 1.531455e+002
    endloop
  endfacet
  facet normal 9.458172e-001 0.000000e+000 -3.246995e-001
    outer loop
      vertex   -2.714321e+002 2.500000e+001 6.873594e+001
      vertex   -2.564165e+002 2.500000e+001 1.124747e+002
      vertex   -2.564165e+002 -2.500000e+001 1.124747e+002
    endloop
  endfacet
  facet normal 9.863613e-001 0.000000e+000 -1.645946e-001
    outer loop
      vertex   -2.790437e+002 2.500000e+001 2.312222e+001
      vertex   -2.714321e+002 2.500000e+001 6.873594e+001
      vertex   -2.714321e+002 -2.500000e+001 6.873594e+001
    endloop
  endfacet
  facet normal 1.000000e+000 0.000000e+000 -0.000000e+000
    outer loop
      vertex   -2.790437e+002 2.500000e+001 -2.312222e+001
      vertex   -2.790437e+002 2.500000e+001 2.312222e+001
      vertex   -2.790437e+002 -2.500000e+001 2.312222e+001
    endloop
  endfacet
  facet normal 9.863613e-001 0.000000e+000 1.645946e-001
    outer loop
      vertex   -2.714321e+002 2.500000e+001 -6.873594e+001
      vertex   -2.790437e+002 2.500000e+001 -2.312222e+001
      vertex   -2.790437e+002 -2.500000e+001 -2.312222e+001
    endloop
  endfacet
  facet normal 9.458172e-001 0.000000e+000 3.246995e-001
    outer loop
      vertex   -2.564165e+002 2.500000e+001 -1.124747e+002
      vertex   -2.714321e+002 2.500000e+001 -6.873594e+001
      vertex   -2.714321e+002 -2.500000e+001 -6.873594e+001
    endloop
  endfacet
  facet normal 8.794738e-001 0.000000e+000 4.759474e-001
    outer loop
      vertex   -2.344066e+002 2.500000e+001 -1.531455e+002
      vertex   -2.564165e+002 2.500000e+001 -1.124747e+002
      vertex   -2.564165e+002 -2.500000e+001 -1.124747e+002
    endloop
  endfacet
  facet normal 7.891405e-001 0.000000e+000 6.142127e-001
    outer loop
      vertex   -2.060027e+002 2.500000e+001 -1.896388e+002
      vertex   -2.344066e+002 2.500000e+001 -1.531455e+002
      vertex   -2.344066e+002 -2.500000e+001 -1.531455e+002
    endloop
  endfacet
  facet normal 6.772816e-001 0.000000e+000 7.357239e-001
    outer loop
      vertex   -1.719796e+002 2.500000e+001 -2.209593e+002
      vertex   -2.060027e+002 2.500000e+001 -1.896388e+002
      vertex   -2.060027e+002 -2.500000e+001 -1.896388e+002
    endloop
  endfacet
  facet normal 5.469482e-001 0.000000e+000 8.371665e-001
    outer loop
      vertex   -1.332653e+002 2.500000e+001 -2.462527e+002
      vertex   -1.719796e+002 2.500000e+001 -2.209593e+002
      vertex   -1.719796e+002 -2.500000e+001 -2.209593e+002
    endloop
  endfacet
  facet normal 4.016954e-001 0.000000e+000 9.157733e-001
    outer loop
      vertex   -9.091585e+001 2.500000e+001 -2.648288e+002
      vertex   -1.332653e+002 2.500000e+001 -2.462527e+002
      vertex   -1.332653e+002 -2.500000e+001 -2.462527e+002
    endloop
  endfacet
  facet normal 2.454855e-001 0.000000e+000 9.694003e-001
    outer loop
      vertex   -4.608649e+001 2.500000e+001 -2.761812e+002
      vertex   -9.091585e+001 2.500000e+001 -2.648288e+002
      vertex   -9.091585e+001 -2.500000e+001 -2.648288e+002
    endloop
  endfacet
  facet normal 8.257935e-002 0.000000e+000 9.965845e-001
    outer loop
      vertex   -6.858022e-014 2.500000e+001 -2.800000e+002
      vertex   -4.608649e+001 2.500000e+001 -2.761812e+002
      vertex   -4.608649e+001 -2.500000e+001 -2.761812e+002
    endloop
  endfacet
  facet normal 0.000000e+000 1.000000e+000 0.000000e+000
    outer loop
      vertex   4.240092e+002 2.500000e+001 2.900303e+001
      vertex   4.250000e+002 2.500000e+001 -1.301187e-013
      vertex   2.800000e+002 2.500000e+001 -1.714506e-014
    endloop
  endfacet
  facet normal 0.000000e+000 1.000000e+000 0.000000e+000
    outer loop
      vertex   4.240092e+002 2.500000e+001 -2.900303e+001
      vertex   2.790437e+002 2.500000e+001 -2.312222e+001
      vertex   2.800000e+002 2.500000e+001 -1.714506e-014
    endloop
  endfacet
  facet normal 0.000000e+000 1.000000e+000 0.000000e+000
    outer loop
      vertex   1.693205e+002 2.500000e+001 -3.898148e+002
      vertex   9.091585e+001 2.500000e+001 -2.648288e+002
      vertex   1.332653e+002 2.500000e+001 -2.462527e+002
    endloop
  endfacet
  facet normal 0.000000e+000 1.000000e+000 -0.000000e+000
    outer loop
      vertex   -1.693205e+002 2.500000e+001 -3.898148e+002
      vertex   -2.208232e+002 2.500000e+001 -3.631282e+002
      vertex   -1.332653e+002 2.500000e+001 -2.462527e+002
    endloop
  endfacet
  facet normal 0.000000e+000 1.000000e+000 0.000000e+000
    outer loop
      vertex   -4.004609e+002 2.500000e+001 1.423238e+002
      vertex   -2.564165e+002 2.500000e+001 1.124747e+002
      vertex   -2.714321e+002 2.500000e+001 6.873594e+001
    endloop
  endfacet
  facet normal 0.000000e+000 1.000000e+000 0.000000e+000
    outer loop
      vertex   2.800000e+002 2.500000e+001 -1.714506e-014
      vertex   4.250000e+002 2.500000e+001 -1.301187e-013
      vertex   4.240092e+002 2.500000e+001 -2.900303e+001
    endloop
  endfacet
  facet normal 0.000000e+000 1.000000e+000 0.000000e+000
    outer loop
      vertex   4.161107e+002 2.500000e+001 -8.646881e+001
      vertex   2.714321e+002 2.500000e+001 -6.873594e+001
      vertex   2.790437e+002 2.500000e+001 -2.312222e+001
    endloop
  endfacet
  facet normal 0.000000e+000 1.000000e+000 0.000000e+000
    outer loop
      vertex   3.773512e+002 2.500000e+001 -1.955276e+002
      vertex   3.472122e+002 2.500000e+001 -2.450891e+002
      vertex   2.344066e+002 2.500000e+001 -1.531455e+002
    endloop
  endfacet
  facet normal 0.000000e+000 1.000000e+000 0.000000e+000
    outer loop
      vertex   3.472122e+002 2.500000e+001 -2.450891e+002
      vertex   3.106053e+002 2.500000e+001 -2.900851e+002
      vertex   2.060027e+002 2.500000e+001 -1.896388e+002
    endloop
  endfacet
  facet normal 0.000000e+000 1.000000e+000 0.000000e+000
    outer loop
      vertex   1.332653e+002 2.500000e+001 -2.462527e+002
      vertex   2.208232e+002 2.500000e+001 -3.631282e+002
      vertex   1.693205e+002 2.500000e+001 -3.898148e+002
    endloop
  endfacet
  facet normal 0.000000e+000 1.000000e+000 0.000000e+000
    outer loop
      vertex   1.146636e+002 2.500000e+001 -4.092398e+002
      vertex   5.787083e+001 2.500000e+001 -4.210415e+002
      vertex   4.608649e+001 2.500000e+001 -2.761812e+002
    endloop
  endfacet
  facet normal 0.000000e+000 1.000000e+000 0.000000e+000
    outer loop
      vertex   -1.146636e+002 2.500000e+001 -4.092398e+002
      vertex   -9.091585e+001 2.500000e+001 -2.648288e+002
      vertex   -4.608649e+001 2.500000e+001 -2.761812e+002
    endloop
  endfacet
  facet normal 0.000000e+000 1.000000e+000 0.000000e+000
    outer loop
      vertex   -9.091585e+001 2.500000e+001 -2.648288e+002
      vertex   -1.146636e+002 2.500000e+001 -4.092398e+002
      vertex   -1.693205e+002 2.500000e+001 -3.898148e+002
    endloop
  endfacet
  facet normal 0.000000e+000 1.000000e+000 0.000000e+000
    outer loop
      vertex   -2.714321e+002 2.500000e+001 6.873594e+001
      vertex   -4.161107e+002 2.500000e+001 8.646881e+001
      vertex   -4.004609e+002 2.500000e+001 1.423238e+002
    endloop
  endfacet
  facet normal -0.000000e+000 1.000000e+000 0.000000e+000
    outer loop
      vertex   -3.773512e+002 2.500000e+001 1.955276e+002
      vertex   -3.472122e+002 2.500000e+001 2.450891e+002
      vertex   -2.344066e+002 2.500000e+001 1.531455e+002
    endloop
  endfacet
  facet normal 0.000000e+000 1.000000e+000 0.000000e+000
    outer loop
      vertex   1.693205e+002 2.500000e+001 3.898148e+002
      vertex   2.208232e+002 2.500000e+001 3.631282e+002
      vertex   1.332653e+002 2.500000e+001 2.462527e+002
    endloop
  endfacet
  facet normal 0.000000e+000 1.000000e+000 0.000000e+000
    outer loop
      vertex   3.472122e+002 2.500000e+001 2.450891e+002
      vertex   2.344066e+002 2.500000e+001 1.531455e+002
      vertex   2.060027e+002 2.500000e+001 1.896388e+002
    endloop
  endfacet
  facet normal 0.000000e+000 1.000000e+000 0.000000e+000
    outer loop
      vertex   3.773512e+002 2.500000e+001 1.955276e+002
      vertex   2.564165e+002 2.500000e+001 1.124747e+002
      vertex   2.344066e+002 2.500000e+001 1.531455e+002
    endloop
  endfacet
  facet normal 0.000000e+000 1.000000e+000 0.000000e+000
    outer loop
      vertex   4.004609e+002 2.500000e+001 1.423238e+002
      vertex   4.161107e+002 2.500000e+001 8.646881e+001
      vertex   2.714321e+002 2.500000e+001 6.873594e+001
    endloop
  endfacet
  facet normal 0.000000e+000 1.000000e+000 0.000000e+000
    outer loop
      vertex   4.161107e+002 2.500000e+001 8.646881e+001
      vertex   4.240092e+002 2.500000e+001 2.900303e+001
      vertex   2.790437e+002 2.500000e+001 2.312222e+001
    endloop
  endfacet
  facet normal 0.000000e+000 1.000000e+000 0.000000e+000
    outer loop
      vertex   2.790437e+002 2.500000e+001 -2.312222e+001
      vertex   4.240092e+002 2.500000e+001 -2.900303e+001
      vertex   4.161107e+002 2.500000e+001 -8.646881e+001
    endloop
  endfacet
  facet normal 0.000000e+000 1.000000e+000 0.000000e+000
    outer loop
      vertex   4.004609e+002 2.500000e+001 -1.423238e+002
      vertex   2.564165e+002 2.500000e+001 -1.124747e+002
      vertex   2.714321e+002 2.500000e+001 -6.873594e+001
    endloop
  endfacet
  facet normal -0.000000e+000 1.000000e+000 0.000000e+000
    outer loop
      vertex   2.060027e+002 2.500000e+001 -1.896388e+002
      vertex   2.344066e+002 2.500000e+001 -1.531455e+002
      vertex   3.472122e+002 2.500000e+001 -2.450891e+002
    endloop
  endfacet
  facet normal 0.000000e+000 1.000000e+000 0.000000e+000
    outer loop
      vertex   2.682124e+002 2.500000e+001 -3.296773e+002
      vertex   1.719796e+002 2.500000e+001 -2.209593e+002
      vertex   2.060027e+002 2.500000e+001 -1.896388e+002
    endloop
  endfacet
  facet normal 0.000000e+000 1.000000e+000 0.000000e+000
    outer loop
      vertex   2.208232e+002 2.500000e+001 -3.631282e+002
      vertex   1.332653e+002 2.500000e+001 -2.462527e+002
      vertex   1.719796e+002 2.500000e+001 -2.209593e+002
    endloop
  endfacet
  facet normal -0.000000e+000 1.000000e+000 0.000000e+000
    outer loop
      vertex   4.608649e+001 2.500000e+001 -2.761812e+002
      vertex   9.091585e+001 2.500000e+001 -2.648288e+002
      vertex   1.146636e+002 2.500000e+001 -4.092398e+002
    endloop
  endfacet
  facet normal 0.000000e+000 1.000000e+000 0.000000e+000
    outer loop
      vertex   -5.787083e+001 2.500000e+001 -4.210415e+002
      vertex   -4.608649e+001 2.500000e+001 -2.761812e+002
      vertex   -6.858022e-014 2.500000e+001 -2.800000e+002
    endloop
  endfacet
  facet normal 0.000000e+000 1.000000e+000 0.000000e+000
    outer loop
      vertex   -1.332653e+002 2.500000e+001 -2.462527e+002
      vertex   -9.091585e+001 2.500000e+001 -2.648288e+002
      vertex   -1.693205e+002 2.500000e+001 -3.898148e+002
    endloop
  endfacet
  facet normal 0.000000e+000 1.000000e+000 -0.000000e+000
    outer loop
      vertex   -4.004609e+002 2.500000e+001 -1.423238e+002
      vertex   -4.161107e+002 2.500000e+001 -8.646881e+001
      vertex   -2.714321e+002 2.500000e+001 -6.873594e+001
    endloop
  endfacet
  facet normal 0.000000e+000 1.000000e+000 0.000000e+000
    outer loop
      vertex   -4.240092e+002 2.500000e+001 -2.900303e+001
      vertex   -4.240092e+002 2.500000e+001 2.900303e+001
      vertex   -2.790437e+002 2.500000e+001 2.312222e+001
    endloop
  endfacet
  facet normal 0.000000e+000 1.000000e+000 0.000000e+000
    outer loop
      vertex   -4.161107e+002 2.500000e+001 8.646881e+001
      vertex   -2.714321e+002 2.500000e+001 6.873594e+001
      vertex   -2.790437e+002 2.500000e+001 2.312222e+001
    endloop
  endfacet
  facet normal 0.000000e+000 1.000000e+000 0.000000e+000
    outer loop
      vertex   -2.344066e+002 2.500000e+001 1.531455e+002
      vertex   -2.564165e+002 2.500000e+001 1.124747e+002
      vertex   -3.773512e+002 2.500000e+001 1.955276e+002
    endloop
  endfacet
  facet normal -0.000000e+000 1.000000e+000 0.000000e+000
    outer loop
      vertex   -3.472122e+002 2.500000e+001 2.450891e+002
      vertex   -3.106053e+002 2.500000e+001 2.900851e+002
      vertex   -2.060027e+002 2.500000e+001 1.896388e+002
    endloop
  endfacet
  facet normal 0.000000e+000 1.000000e+000 0.000000e+000
    outer loop
      vertex   9.091585e+001 2.500000e+001 2.648288e+002
      vertex   1.146636e+002 2.500000e+001 4.092398e+002
      vertex   1.693205e+002 2.500000e+001 3.898148e+002
    endloop
  endfacet
  facet normal 0.000000e+000 1.000000e+000 0.000000e+000
    outer loop
      vertex   2.208232e+002 2.500000e+001 3.631282e+002
      vertex   2.682124e+002 2.500000e+001 3.296773e+002
      vertex   1.719796e+002 2.500000e+001 2.209593e+002
    endloop
  endfacet
  facet normal 0.000000e+000 1.000000e+000 0.000000e+000
    outer loop
      vertex   2.344066e+002 2.500000e+001 1.531455e+002
      vertex   3.472122e+002 2.500000e+001 2.450891e+002
      vertex   3.773512e+002 2.500000e+001 1.955276e+002
    endloop
  endfacet
  facet normal 0.000000e+000 1.000000e+000 0.000000e+000
    outer loop
      vertex   2.564165e+002 2.500000e+001 1.124747e+002
      vertex   3.773512e+002 2.500000e+001 1.955276e+002
      vertex   4.004609e+002 2.500000e+001 1.423238e+002
    endloop
  endfacet
  facet normal 0.000000e+000 1.000000e+000 -0.000000e+000
    outer loop
      vertex   2.800000e+002 2.500000e+001 -1.714506e-014
      vertex   2.790437e+002 2.500000e+001 2.312222e+001
      vertex   4.240092e+002 2.500000e+001 2.900303e+001
    endloop
  endfacet
  facet normal 0.000000e+000 1.000000e+000 0.000000e+000
    outer loop
      vertex   2.714321e+002 2.500000e+001 -6.873594e+001
      vertex   4.161107e+002 2.500000e+001 -8.646881e+001
      vertex   4.004609e+002 2.500000e+001 -1.423238e+002
    endloop
  endfacet
  facet normal 0.000000e+000 1.000000e+000 0.000000e+000
    outer loop
      vertex   2.060027e+002 2.500000e+001 -1.896388e+002
      vertex   3.106053e+002 2.500000e+001 -2.900851e+002
      vertex   2.682124e+002 2.500000e+001 -3.296773e+002
    endloop
  endfacet
  facet normal 0.000000e+000 1.000000e+000 0.000000e+000
    outer loop
      vertex   1.693205e+002 2.500000e+001 -3.898148e+002
      vertex   1.146636e+002 2.500000e+001 -4.092398e+002
      vertex   9.091585e+001 2.500000e+001 -2.648288e+002
    endloop
  endfacet
  facet normal 0.000000e+000 1.000000e+000 0.000000e+000
    outer loop
      vertex   5.787083e+001 2.500000e+001 -4.210415e+002
      vertex   -1.040950e-013 2.500000e+001 -4.250000e+002
      vertex   -6.858022e-014 2.500000e+001 -2.800000e+002
    endloop
  endfacet
  facet normal 0.000000e+000 1.000000e+000 0.000000e+000
    outer loop
      vertex   -4.608649e+001 2.500000e+001 -2.761812e+002
      vertex   -5.787083e+001 2.500000e+001 -4.210415e+002
      vertex   -1.146636e+002 2.500000e+001 -4.092398e+002
    endloop
  endfacet
  facet normal 0.000000e+000 1.000000e+000 0.000000e+000
    outer loop
      vertex   -3.472122e+002 2.500000e+001 -2.450891e+002
      vertex   -2.344066e+002 2.500000e+001 -1.531455e+002
      vertex   -2.060027e+002 2.500000e+001 -1.896388e+002
    endloop
  endfacet
  facet normal 0.000000e+000 1.000000e+000 0.000000e+000
    outer loop
      vertex   -3.773512e+002 2.500000e+001 -1.955276e+002
      vertex   -2.564165e+002 2.500000e+001 -1.124747e+002
      vertex   -2.344066e+002 2.500000e+001 -1.531455e+002
    endloop
  endfacet
  facet normal 0.000000e+000 1.000000e+000 0.000000e+000
    outer loop
      vertex   -2.564165e+002 2.500000e+001 -1.124747e+002
      vertex   -3.773512e+002 2.500000e+001 -1.955276e+002
      vertex   -4.004609e+002 2.500000e+001 -1.423238e+002
    endloop
  endfacet
  facet normal 0.000000e+000 1.000000e+000 -0.000000e+000
    outer loop
      vertex   -4.161107e+002 2.500000e+001 -8.646881e+001
      vertex   -4.240092e+002 2.500000e+001 -2.900303e+001
      vertex   -2.790437e+002 2.500000e+001 -2.312222e+001
    endloop
  endfacet
  facet normal 0.000000e+000 1.000000e+000 0.000000e+000
    outer loop
      vertex   -2.790437e+002 2.500000e+001 2.312222e+001
      vertex   -4.240092e+002 2.500000e+001 2.900303e+001
      vertex   -4.161107e+002 2.500000e+001 8.646881e+001
    endloop
  endfacet
  facet normal 0.000000e+000 1.000000e+000 0.000000e+000
    outer loop
      vertex   -2.060027e+002 2.500000e+001 1.896388e+002
      vertex   -2.344066e+002 2.500000e+001 1.531455e+002
      vertex   -3.472122e+002 2.500000e+001 2.450891e+002
    endloop
  endfacet
  facet normal 0.000000e+000 1.000000e+000 0.000000e+000
    outer loop
      vertex   1.146636e+002 2.500000e+001 4.092398e+002
      vertex   9.091585e+001 2.500000e+001 2.648288e+002
      vertex   4.608649e+001 2.500000e+001 2.761812e+002
    endloop
  endfacet
  facet normal 0.000000e+000 1.000000e+000 -0.000000e+000
    outer loop
      vertex   1.719796e+002 2.500000e+001 2.209593e+002
      vertex   1.332653e+002 2.500000e+001 2.462527e+002
      vertex   2.208232e+002 2.500000e+001 3.631282e+002
    endloop
  endfacet
  facet normal 0.000000e+000 1.000000e+000 -0.000000e+000
    outer loop
      vertex   2.714321e+002 2.500000e+001 6.873594e+001
      vertex   2.564165e+002 2.500000e+001 1.124747e+002
      vertex   4.004609e+002 2.500000e+001 1.423238e+002
    endloop
  endfacet
  facet normal 0.000000e+000 1.000000e+000 0.000000e+000
    outer loop
      vertex   4.004609e+002 2.500000e+001 -1.423238e+002
      vertex   3.773512e+002 2.500000e+001 -1.955276e+002
      vertex   2.564165e+002 2.500000e+001 -1.124747e+002
    endloop
  endfacet
  facet normal 0.000000e+000 1.000000e+000 0.000000e+000
    outer loop
      vertex   1.719796e+002 2.500000e+001 -2.209593e+002
      vertex   2.682124e+002 2.500000e+001 -3.296773e+002
      vertex   2.208232e+002 2.500000e+001 -3.631282e+002
    endloop
  endfacet
  facet normal 0.000000e+000 1.000000e+000 0.000000e+000
    outer loop
      vertex   -6.858022e-014 2.500000e+001 -2.800000e+002
      vertex   -1.040950e-013 2.500000e+001 -4.250000e+002
      vertex   -5.787083e+001 2.500000e+001 -4.210415e+002
    endloop
  endfacet
  facet normal 0.000000e+000 1.000000e+000 -0.000000e+000
    outer loop
      vertex   -2.208232e+002 2.500000e+001 -3.631282e+002
      vertex   -2.682124e+002 2.500000e+001 -3.296773e+002
      vertex   -1.719796e+002 2.500000e+001 -2.209593e+002
    endloop
  endfacet
  facet normal 0.000000e+000 1.000000e+000 -0.000000e+000
    outer loop
      vertex   -2.682124e+002 2.500000e+001 -3.296773e+002
      vertex   -3.106053e+002 2.500000e+001 -2.900851e+002
      vertex   -2.060027e+002 2.500000e+001 -1.896388e+002
    endloop
  endfacet
  facet normal 0.000000e+000 1.000000e+000 0.000000e+000
    outer loop
      vertex   -2.344066e+002 2.500000e+001 -1.531455e+002
      vertex   -3.472122e+002 2.500000e+001 -2.450891e+002
      vertex   -3.773512e+002 2.500000e+001 -1.955276e+002
    endloop
  endfacet
  facet normal 0.000000e+000 1.000000e+000 0.000000e+000
    outer loop
      vertex   -2.790437e+002 2.500000e+001 -2.312222e+001
      vertex   -2.714321e+002 2.500000e+001 -6.873594e+001
      vertex   -4.161107e+002 2.500000e+001 -8.646881e+001
    endloop
  endfacet
  facet normal -0.000000e+000 1.000000e+000 0.000000e+000
    outer loop
      vertex   -4.004609e+002 2.500000e+001 1.423238e+002
      vertex   -3.773512e+002 2.500000e+001 1.955276e+002
      vertex   -2.564165e+002 2.500000e+001 1.124747e+002
    endloop
  endfacet
  facet normal 0.000000e+000 1.000000e+000 0.000000e+000
    outer loop
      vertex   -2.682124e+002 2.500000e+001 3.296773e+002
      vertex   -1.719796e+002 2.500000e+001 2.209593e+002
      vertex   -2.060027e+002 2.500000e+001 1.896388e+002
    endloop
  endfacet
  facet normal 0.000000e+000 1.000000e+000 0.000000e+000
    outer loop
      vertex   5.787083e+001 2.500000e+001 4.210415e+002
      vertex   4.608649e+001 2.500000e+001 2.761812e+002
      vertex   3.429011e-014 2.500000e+001 2.800000e+002
    endloop
  endfacet
  facet normal 0.000000e+000 1.000000e+000 -0.000000e+000
    outer loop
      vertex   1.332653e+002 2.500000e+001 2.462527e+002
      vertex   9.091585e+001 2.500000e+001 2.648288e+002
      vertex   1.693205e+002 2.500000e+001 3.898148e+002
    endloop
  endfacet
  facet normal 0.000000e+000 1.000000e+000 0.000000e+000
    outer loop
      vertex   2.682124e+002 2.500000e+001 3.296773e+002
      vertex   3.106053e+002 2.500000e+001 2.900851e+002
      vertex   2.060027e+002 2.500000e+001 1.896388e+002
    endloop
  endfacet
  facet normal 0.000000e+000 1.000000e+000 -0.000000e+000
    outer loop
      vertex   2.790437e+002 2.500000e+001 2.312222e+001
      vertex   2.714321e+002 2.500000e+001 6.873594e+001
      vertex   4.161107e+002 2.500000e+001 8.646881e+001
    endloop
  endfacet
  facet normal -0.000000e+000 1.000000e+000 0.000000e+000
    outer loop
      vertex   -6.858022e-014 2.500000e+001 -2.800000e+002
      vertex   4.608649e+001 2.500000e+001 -2.761812e+002
      vertex   5.787083e+001 2.500000e+001 -4.210415e+002
    endloop
  endfacet
  facet normal 0.000000e+000 1.000000e+000 0.000000e+000
    outer loop
      vertex   -2.060027e+002 2.500000e+001 -1.896388e+002
      vertex   -1.719796e+002 2.500000e+001 -2.209593e+002
      vertex   -2.682124e+002 2.500000e+001 -3.296773e+002
    endloop
  endfacet
  facet normal 0.000000e+000 1.000000e+000 0.000000e+000
    outer loop
      vertex   -2.714321e+002 2.500000e+001 -6.873594e+001
      vertex   -2.564165e+002 2.500000e+001 -1.124747e+002
      vertex   -4.004609e+002 2.500000e+001 -1.423238e+002
    endloop
  endfacet
  facet normal 0.000000e+000 1.000000e+000 0.000000e+000
    outer loop
      vertex   -2.060027e+002 2.500000e+001 1.896388e+002
      vertex   -3.106053e+002 2.500000e+001 2.900851e+002
      vertex   -2.682124e+002 2.500000e+001 3.296773e+002
    endloop
  endfacet
  facet normal 0.000000e+000 1.000000e+000 0.000000e+000
    outer loop
      vertex   4.608649e+001 2.500000e+001 2.761812e+002
      vertex   5.787083e+001 2.500000e+001 4.210415e+002
      vertex   1.146636e+002 2.500000e+001 4.092398e+002
    endloop
  endfacet
  facet normal 0.000000e+000 1.000000e+000 0.000000e+000
    outer loop
      vertex   2.060027e+002 2.500000e+001 1.896388e+002
      vertex   3.106053e+002 2.500000e+001 2.900851e+002
      vertex   3.472122e+002 2.500000e+001 2.450891e+002
    endloop
  endfacet
  facet normal 0.000000e+000 1.000000e+000 0.000000e+000
    outer loop
      vertex   -1.719796e+002 2.500000e+001 -2.209593e+002
      vertex   -1.332653e+002 2.500000e+001 -2.462527e+002
      vertex   -2.208232e+002 2.500000e+001 -3.631282e+002
    endloop
  endfacet
  facet normal 0.000000e+000 1.000000e+000 0.000000e+000
    outer loop
      vertex   -2.790437e+002 2.500000e+001 2.312222e+001
      vertex   -2.790437e+002 2.500000e+001 -2.312222e+001
      vertex   -4.240092e+002 2.500000e+001 -2.900303e+001
    endloop
  endfacet
  facet normal 0.000000e+000 1.000000e+000 0.000000e+000
    outer loop
      vertex   -1.693205e+002 2.500000e+001 3.898148e+002
      vertex   -9.091585e+001 2.500000e+001 2.648288e+002
      vertex   -1.332653e+002 2.500000e+001 2.462527e+002
    endloop
  endfacet
  facet normal 0.000000e+000 1.000000e+000 -0.000000e+000
    outer loop
      vertex   2.060027e+002 2.500000e+001 1.896388e+002
      vertex   1.719796e+002 2.500000e+001 2.209593e+002
      vertex   2.682124e+002 2.500000e+001 3.296773e+002
    endloop
  endfacet
  facet normal 0.000000e+000 1.000000e+000 0.000000e+000
    outer loop
      vertex   -2.060027e+002 2.500000e+001 -1.896388e+002
      vertex   -3.106053e+002 2.500000e+001 -2.900851e+002
      vertex   -3.472122e+002 2.500000e+001 -2.450891e+002
    endloop
  endfacet
  facet normal 0.000000e+000 1.000000e+000 0.000000e+000
    outer loop
      vertex   -2.208232e+002 2.500000e+001 3.631282e+002
      vertex   -1.332653e+002 2.500000e+001 2.462527e+002
      vertex   -1.719796e+002 2.500000e+001 2.209593e+002
    endloop
  endfacet
  facet normal 0.000000e+000 1.000000e+000 0.000000e+000
    outer loop
      vertex   -1.332653e+002 2.500000e+001 2.462527e+002
      vertex   -2.208232e+002 2.500000e+001 3.631282e+002
      vertex   -1.693205e+002 2.500000e+001 3.898148e+002
    endloop
  endfacet
  facet normal -0.000000e+000 1.000000e+000 0.000000e+000
    outer loop
      vertex   2.344066e+002 2.500000e+001 -1.531455e+002
      vertex   2.564165e+002 2.500000e+001 -1.124747e+002
      vertex   3.773512e+002 2.500000e+001 -1.955276e+002
    endloop
  endfacet
  facet normal -0.000000e+000 1.000000e+000 0.000000e+000
    outer loop
      vertex   -1.693205e+002 2.500000e+001 3.898148e+002
      vertex   -1.146636e+002 2.500000e+001 4.092398e+002
      vertex   -9.091585e+001 2.500000e+001 2.648288e+002
    endloop
  endfacet
  facet normal -0.000000e+000 1.000000e+000 0.000000e+000
    outer loop
      vertex   -1.146636e+002 2.500000e+001 4.092398e+002
      vertex   -5.787083e+001 2.500000e+001 4.210415e+002
      vertex   -4.608649e+001 2.500000e+001 2.761812e+002
    endloop
  endfacet
  facet normal -0.000000e+000 1.000000e+000 0.000000e+000
    outer loop
      vertex   -5.787083e+001 2.500000e+001 4.210415e+002
      vertex   5.204749e-014 2.500000e+001 4.250000e+002
      vertex   3.429011e-014 2.500000e+001 2.800000e+002
    endloop
  endfacet
  facet normal 0.000000e+000 1.000000e+000 0.000000e+000
    outer loop
      vertex   -1.719796e+002 2.500000e+001 2.209593e+002
      vertex   -2.682124e+002 2.500000e+001 3.296773e+002
      vertex   -2.208232e+002 2.500000e+001 3.631282e+002
    endloop
  endfacet
  facet normal 0.000000e+000 1.000000e+000 0.000000e+000
    outer loop
      vertex   3.429011e-014 2.500000e+001 2.800000e+002
      vertex   -4.608649e+001 2.500000e+001 2.761812e+002
      vertex   -5.787083e+001 2.500000e+001 4.210415e+002
    endloop
  endfacet
  facet normal 0.000000e+000 1.000000e+000 0.000000e+000
    outer loop
      vertex   -4.608649e+001 2.500000e+001 2.761812e+002
      vertex   -9.091585e+001 2.500000e+001 2.648288e+002
      vertex   -1.146636e+002 2.500000e+001 4.092398e+002
    endloop
  endfacet
  facet normal 0.000000e+000 1.000000e+000 0.000000e+000
    outer loop
      vertex   3.429011e-014 2.500000e+001 2.800000e+002
      vertex   5.204749e-014 2.500000e+001 4.250000e+002
      vertex   5.787083e+001 2.500000e+001 4.210415e+002
    endloop
  endfacet
  facet normal 6.824241e-002 0.000000e+000 -9.976688e-001
    outer loop
      vertex   -1.040950e-013 -2.500000e+001 -4.250000e+002
      vertex   -1.040950e-013 2.500000e+001 -4.250000e+002
      vertex   5.787083e+001 2.500000e+001 -4.210415e+002
    endloop
  endfacet
  facet normal 2.034560e-001 0.000000e+000 -9.790841e-001
    outer loop
      vertex   5.787083e+001 -2.500000e+001 -4.210415e+002
      vertex   5.787083e+001 2.500000e+001 -4.210415e+002
      vertex   1.146636e+002 2.500000e+001 -4.092398e+002
    endloop
  endfacet
  facet normal 3.348796e-001 0.000000e+000 -9.422609e-001
    outer loop
      vertex   1.146636e+002 -2.500000e+001 -4.092398e+002
      vertex   1.146636e+002 2.500000e+001 -4.092398e+002
      vertex   1.693205e+002 2.500000e+001 -3.898148e+002
    endloop
  endfacet
  facet normal 4.600650e-001 0.000000e+000 -8.878852e-001
    outer loop
      vertex   1.693205e+002 -2.500000e+001 -3.898148e+002
      vertex   1.693205e+002 2.500000e+001 -3.898148e+002
      vertex   2.208232e+002 2.500000e+001 -3.631282e+002
    endloop
  endfacet
  facet normal 5.766803e-001 0.000000e+000 -8.169699e-001
    outer loop
      vertex   2.208232e+002 -2.500000e+001 -3.631282e+002
      vertex   2.208232e+002 2.500000e+001 -3.631282e+002
      vertex   2.682124e+002 2.500000e+001 -3.296773e+002
    endloop
  endfacet
  facet normal 6.825531e-001 0.000000e+000 -7.308360e-001
    outer loop
      vertex   2.682124e+002 -2.500000e+001 -3.296773e+002
      vertex   2.682124e+002 2.500000e+001 -3.296773e+002
      vertex   3.106053e+002 2.500000e+001 -2.900851e+002
    endloop
  endfacet
  facet normal 7.757113e-001 0.000000e+000 -6.310879e-001
    outer loop
      vertex   3.106053e+002 -2.500000e+001 -2.900851e+002
      vertex   3.106053e+002 2.500000e+001 -2.900851e+002
      vertex   3.472122e+002 2.500000e+001 -2.450891e+002
    endloop
  endfacet
  facet normal 8.544194e-001 0.000000e+000 -5.195840e-001
    outer loop
      vertex   3.472122e+002 -2.500000e+001 -2.450891e+002
      vertex   3.472122e+002 2.500000e+001 -2.450891e+002
      vertex   3.773512e+002 2.500000e+001 -1.955276e+002
    endloop
  endfacet
  facet normal 9.172113e-001 0.000000e+000 -3.984011e-001
    outer loop
      vertex   3.773512e+002 -2.500000e+001 -1.955276e+002
      vertex   3.773512e+002 2.500000e+001 -1.955276e+002
      vertex   4.004609e+002 2.500000e+001 -1.423238e+002
    endloop
  endfacet
  facet normal 9.629173e-001 0.000000e+000 -2.697968e-001
    outer loop
      vertex   4.004609e+002 -2.500000e+001 -1.423238e+002
      vertex   4.004609e+002 2.500000e+001 -1.423238e+002
      vertex   4.161107e+002 2.500000e+001 -8.646881e+001
    endloop
  endfacet
  facet normal 9.906859e-001 0.000000e+000 -1.361666e-001
    outer loop
      vertex   4.161107e+002 -2.500000e+001 -8.646881e+001
      vertex   4.161107e+002 2.500000e+001 -8.646881e+001
      vertex   4.240092e+002 2.500000e+001 -2.900303e+001
    endloop
  endfacet
  facet normal 9.994170e-001 0.000000e+000 3.414111e-002
    outer loop
      vertex   4.240092e+002 2.500000e+001 2.900303e+001
      vertex   4.240092e+002 -2.500000e+001 2.900303e+001
      vertex   4.250000e+002 -2.500000e+001 -2.602374e-014
    endloop
  endfacet
  facet normal 9.994170e-001 0.000000e+000 -3.414111e-002
    outer loop
      vertex   4.240092e+002 -2.500000e+001 -2.900303e+001
      vertex   4.240092e+002 2.500000e+001 -2.900303e+001
      vertex   4.250000e+002 2.500000e+001 -1.301187e-013
    endloop
  endfacet
  facet normal 9.994170e-001 -7.107836e-017 -3.414111e-002
    outer loop
      vertex   4.250000e+002 2.500000e+001 -1.301187e-013
      vertex   4.250000e+002 -2.500000e+001 -2.602374e-014
      vertex   4.240092e+002 -2.500000e+001 -2.900303e+001
    endloop
  endfacet
  facet normal 9.906859e-001 -0.000000e+000 1.361666e-001
    outer loop
      vertex   4.240092e+002 -2.500000e+001 2.900303e+001
      vertex   4.240092e+002 2.500000e+001 2.900303e+001
      vertex   4.161107e+002 2.500000e+001 8.646881e+001
    endloop
  endfacet
  facet normal 9.629173e-001 -0.000000e+000 2.697968e-001
    outer loop
      vertex   4.161107e+002 -2.500000e+001 8.646881e+001
      vertex   4.161107e+002 2.500000e+001 8.646881e+001
      vertex   4.004609e+002 2.500000e+001 1.423238e+002
    endloop
  endfacet
  facet normal 9.172113e-001 -0.000000e+000 3.984011e-001
    outer loop
      vertex   4.004609e+002 -2.500000e+001 1.423238e+002
      vertex   4.004609e+002 2.500000e+001 1.423238e+002
      vertex   3.773512e+002 2.500000e+001 1.955276e+002
    endloop
  endfacet
  facet normal 8.544194e-001 -0.000000e+000 5.195840e-001
    outer loop
      vertex   3.773512e+002 -2.500000e+001 1.955276e+002
      vertex   3.773512e+002 2.500000e+001 1.955276e+002
      vertex   3.472122e+002 2.500000e+001 2.450891e+002
    endloop
  endfacet
  facet normal 7.757113e-001 -0.000000e+000 6.310879e-001
    outer loop
      vertex   3.472122e+002 -2.500000e+001 2.450891e+002
      vertex   3.472122e+002 2.500000e+001 2.450891e+002
      vertex   3.106053e+002 2.500000e+001 2.900851e+002
    endloop
  endfacet
  facet normal 6.825531e-001 -0.000000e+000 7.308360e-001
    outer loop
      vertex   3.106053e+002 -2.500000e+001 2.900851e+002
      vertex   3.106053e+002 2.500000e+001 2.900851e+002
      vertex   2.682124e+002 2.500000e+001 3.296773e+002
    endloop
  endfacet
  facet normal 5.766803e-001 -0.000000e+000 8.169699e-001
    outer loop
      vertex   2.682124e+002 -2.500000e+001 3.296773e+002
      vertex   2.682124e+002 2.500000e+001 3.296773e+002
      vertex   2.208232e+002 2.500000e+001 3.631282e+002
    endloop
  endfacet
  facet normal 4.600650e-001 -0.000000e+000 8.878852e-001
    outer loop
      vertex   2.208232e+002 -2.500000e+001 3.631282e+002
      vertex   2.208232e+002 2.500000e+001 3.631282e+002
      vertex   1.693205e+002 2.500000e+001 3.898148e+002
    endloop
  endfacet
  facet normal 3.348796e-001 -0.000000e+000 9.422609e-001
    outer loop
      vertex   1.693205e+002 -2.500000e+001 3.898148e+002
      vertex   1.693205e+002 2.500000e+001 3.898148e+002
      vertex   1.146636e+002 2.500000e+001 4.092398e+002
    endloop
  endfacet
  facet normal 2.034560e-001 -0.000000e+000 9.790841e-001
    outer loop
      vertex   1.146636e+002 -2.500000e+001 4.092398e+002
      vertex   1.146636e+002 2.500000e+001 4.092398e+002
      vertex   5.787083e+001 2.500000e+001 4.210415e+002
    endloop
  endfacet
  facet normal 6.824241e-002 -0.000000e+000 9.976688e-001
    outer loop
      vertex   5.787083e+001 -2.500000e+001 4.210415e+002
      vertex   5.787083e+001 2.500000e+001 4.210415e+002
      vertex   5.204749e-014 2.500000e+001 4.250000e+002
    endloop
  endfacet
  facet normal -6.824241e-002 0.000000e+000 9.976688e-001
    outer loop
      vertex   5.204749e-014 -2.500000e+001 4.250000e+002
      vertex   5.204749e-014 2.500000e+001 4.250000e+002
      vertex   -5.787083e+001 2.500000e+001 4.210415e+002
    endloop
  endfacet
  facet normal -2.034560e-001 0.000000e+000 9.790841e-001
    outer loop
      vertex   -5.787083e+001 -2.500000e+001 4.210415e+002
      vertex   -5.787083e+001 2.500000e+001 4.210415e+002
      vertex   -1.146636e+002 2.500000e+001 4.092398e+002
    endloop
  endfacet
  facet normal -3.348796e-001 0.000000e+000 9.422609e-001
    outer loop
      vertex   -1.146636e+002 -2.500000e+001 4.092398e+002
      vertex   -1.146636e+002 2.500000e+001 4.092398e+002
      vertex   -1.693205e+002 2.500000e+001 3.898148e+002
    endloop
  endfacet
  facet normal -4.600650e-001 0.000000e+000 8.878852e-001
    outer loop
      vertex   -1.693205e+002 -2.500000e+001 3.898148e+002
      vertex   -1.693205e+002 2.500000e+001 3.898148e+002
      vertex   -2.208232e+002 2.500000e+001 3.631282e+002
    endloop
  endfacet
  facet normal -5.766803e-001 0.000000e+000 8.169699e-001
    outer loop
      vertex   -2.208232e+002 -2.500000e+001 3.631282e+002
      vertex   -2.208232e+002 2.500000e+001 3.631282e+002
      vertex   -2.682124e+002 2.500000e+001 3.296773e+002
    endloop
  endfacet
  facet normal -6.825531e-001 0.000000e+000 7.308360e-001
    outer loop
      vertex   -2.682124e+002 -2.500000e+001 3.296773e+002
      vertex   -2.682124e+002 2.500000e+001 3.296773e+002
      vertex   -3.106053e+002 2.500000e+001 2.900851e+002
    endloop
  endfacet
  facet normal -7.757113e-001 0.000000e+000 6.310879e-001
    outer loop
      vertex   -3.106053e+002 -2.500000e+001 2.900851e+002
      vertex   -3.106053e+002 2.500000e+001 2.900851e+002
      vertex   -3.472122e+002 2.500000e+001 2.450891e+002
    endloop
  endfacet
  facet normal -8.544194e-001 0.000000e+000 5.195840e-001
    outer loop
      vertex   -3.472122e+002 -2.500000e+001 2.450891e+002
      vertex   -3.472122e+002 2.500000e+001 2.450891e+002
      vertex   -3.773512e+002 2.500000e+001 1.955276e+002
    endloop
  endfacet
  facet normal -9.172113e-001 0.000000e+000 3.984011e-001
    outer loop
      vertex   -3.773512e+002 -2.500000e+001 1.955276e+002
      vertex   -3.773512e+002 2.500000e+001 1.955276e+002
      vertex   -4.004609e+002 2.500000e+001 1.423238e+002
    endloop
  endfacet
  facet normal -9.629173e-001 0.000000e+000 2.697968e-001
    outer loop
      vertex   -4.004609e+002 -2.500000e+001 1.423238e+002
      vertex   -4.004609e+002 2.500000e+001 1.423238e+002
      vertex   -4.161107e+002 2.500000e+001 8.646881e+001
    endloop
  endfacet
  facet normal -9.906859e-001 0.000000e+000 1.361666e-001
    outer loop
      vertex   -4.161107e+002 -2.500000e+001 8.646881e+001
      vertex   -4.161107e+002 2.500000e+001 8.646881e+001
      vertex   -4.240092e+002 2.500000e+001 2.900303e+001
    endloop
  endfacet
  facet normal -1.000000e+000 0.000000e+000 0.000000e+000
    outer loop
      vertex   -4.240092e+002 -2.500000e+001 2.900303e+001
      vertex   -4.240092e+002 2.500000e+001 2.900303e+001
      vertex   -4.240092e+002 2.500000e+001 -2.900303e+001
    endloop
  endfacet
  facet normal -9.906859e-001 0.000000e+000 -1.361666e-001
    outer loop
      vertex   -4.240092e+002 -2.500000e+001 -2.900303e+001
      vertex   -4.240092e+002 2.500000e+001 -2.900303e+001
      vertex   -4.161107e+002 2.500000e+001 -8.646881e+001
    endloop
  endfacet
  facet normal -9.629173e-001 0.000000e+000 -2.697968e-001
    outer loop
      vertex   -4.161107e+002 -2.500000e+001 -8.646881e+001
      vertex   -4.161107e+002 2.500000e+001 -8.646881e+001
      vertex   -4.004609e+002 2.500000e+001 -1.423238e+002
    endloop
  endfacet
  facet normal -9.172113e-001 0.000000e+000 -3.984011e-001
    outer loop
      vertex   -4.004609e+002 -2.500000e+001 -1.423238e+002
      vertex   -4.004609e+002 2.500000e+001 -1.423238e+002
      vertex   -3.773512e+002 2.500000e+001 -1.955276e+002
    endloop
  endfacet
  facet normal -8.544194e-001 0.000000e+000 -5.195840e-001
    outer loop
      vertex   -3.773512e+002 -2.500000e+001 -1.955276e+002
      vertex   -3.773512e+002 2.500000e+001 -1.955276e+002
      vertex   -3.472122e+002 2.500000e+001 -2.450891e+002
    endloop
  endfacet
  facet normal -7.757113e-001 0.000000e+000 -6.310879e-001
    outer loop
      vertex   -3.472122e+002 -2.500000e+001 -2.450891e+002
      vertex   -3.472122e+002 2.500000e+001 -2.450891e+002
      vertex   -3.106053e+002 2.500000e+001 -2.900851e+002
    endloop
  endfacet
  facet normal -6.825531e-001 0.000000e+000 -7.308360e-001
    outer loop
      vertex   -3.106053e+002 -2.500000e+001 -2.900851e+002
      vertex   -3.106053e+002 2.500000e+001 -2.900851e+002
      vertex   -2.682124e+002 2.500000e+001 -3.296773e+002
    endloop
  endfacet
  facet normal -5.766803e-001 0.000000e+000 -8.169699e-001
    outer loop
      vertex   -2.682124e+002 -2.500000e+001 -3.296773e+002
      vertex   -2.682124e+002 2.500000e+001 -3.296773e+002
      vertex   -2.208232e+002 2.500000e+001 -3.631282e+002
    endloop
  endfacet
  facet normal -4.600650e-001 0.000000e+000 -8.878852e-001
    outer loop
      vertex   -2.208232e+002 -2.500000e+001 -3.631282e+002
      vertex   -2.208232e+002 2.500000e+001 -3.631282e+002
      vertex   -1.693205e+002 2.500000e+001 -3.898148e+002
    endloop
  endfacet
  facet normal -3.348796e-001 0.000000e+000 -9.422609e-001
    outer loop
      vertex   -1.693205e+002 -2.500000e+001 -3.898148e+002
      vertex   -1.693205e+002 2.500000e+001 -3.898148e+002
      vertex   -1.146636e+002 2.500000e+001 -4.092398e+002
    endloop
  endfacet
  facet normal -2.034560e-001 0.000000e+000 -9.790841e-001
    outer loop
      vertex   -1.146636e+002 -2.500000e+001 -4.092398e+002
      vertex   -1.146636e+002 2.500000e+001 -4.092398e+002
      vertex   -5.787083e+001 2.500000e+001 -4.210415e+002
    endloop
  endfacet
  facet normal -6.824241e-002 0.000000e+000 -9.976688e-001
    outer loop
      vertex   -5.787083e+001 -2.500000e+001 -4.210415e+002
      vertex   -5.787083e+001 2.500000e+001 -4.210415e+002
      vertex   -1.040950e-013 2.500000e+001 -4.250000e+002
    endloop
  endfacet
  facet normal -6.824241e-002 -0.000000e+000 -9.976688e-001
    outer loop
      vertex   -1.040950e-013 2.500000e+001 -4.250000e+002
      vertex   -1.040950e-013 -2.500000e+001 -4.250000e+002
      vertex   -5.787083e+001 -2.500000e+001 -4.210415e+002
    endloop
  endfacet
  facet normal -2.034560e-001 -0.000000e+000 -9.790841e-001
    outer loop
      vertex   -5.787083e+001 2.500000e+001 -4.210415e+002
      vertex   -5.787083e+001 -2.500000e+001 -4.210415e+002
      vertex   -1.146636e+002 -2.500000e+001 -4.092398e+002
    endloop
  endfacet
  facet normal -3.348796e-001 -0.000000e+000 -9.422609e-001
    outer loop
      vertex   -1.146636e+002 2.500000e+001 -4.092398e+002
      vertex   -1.146636e+002 -2.500000e+001 -4.092398e+002
      vertex   -1.693205e+002 -2.500000e+001 -3.898148e+002
    endloop
  endfacet
  facet normal -4.600650e-001 -0.000000e+000 -8.878852e-001
    outer loop
      vertex   -1.693205e+002 2.500000e+001 -3.898148e+002
      vertex   -1.693205e+002 -2.500000e+001 -3.898148e+002
      vertex   -2.208232e+002 -2.500000e+001 -3.631282e+002
    endloop
  endfacet
  facet normal -5.766803e-001 -0.000000e+000 -8.169699e-001
    outer loop
      vertex   -2.208232e+002 2.500000e+001 -3.631282e+002
      vertex   -2.208232e+002 -2.500000e+001 -3.631282e+002
      vertex   -2.682124e+002 -2.500000e+001 -3.296773e+002
    endloop
  endfacet
  facet normal -6.825531e-001 -0.000000e+000 -7.308360e-001
    outer loop
      vertex   -2.682124e+002 2.500000e+001 -3.296773e+002
      vertex   -2.682124e+002 -2.500000e+001 -3.296773e+002
      vertex   -3.106053e+002 -2.500000e+001 -2.900851e+002
    endloop
  endfacet
  facet normal -7.757113e-001 -0.000000e+000 -6.310879e-001
    outer loop
      vertex   -3.106053e+002 2.500000e+001 -2.900851e+002
      vertex   -3.106053e+002 -2.500000e+001 -2.900851e+002
      vertex   -3.472122e+002 -2.500000e+001 -2.450891e+002
    endloop
  endfacet
  facet normal -8.544194e-001 -0.000000e+000 -5.195840e-001
    outer loop
      vertex   -3.472122e+002 2.500000e+001 -2.450891e+002
      vertex   -3.472122e+002 -2.500000e+001 -2.450891e+002
      vertex   -3.773512e+002 -2.500000e+001 -1.955276e+002
    endloop
  endfacet
  facet normal -9.172113e-001 -0.000000e+000 -3.984011e-001
    outer loop
      vertex   -3.773512e+002 2.500000e+001 -1.955276e+002
      vertex   -3.773512e+002 -2.500000e+001 -1.955276e+002
      vertex   -4.004609e+002 -2.500000e+001 -1.423238e+002
    endloop
  endfacet
  facet normal -9.629173e-001 -0.000000e+000 -2.697968e-001
    outer loop
      vertex   -4.004609e+002 2.500000e+001 -1.423238e+002
      vertex   -4.004609e+002 -2.500000e+001 -1.423238e+002
      vertex   -4.161107e+002 -2.500000e+001 -8.646881e+001
    endloop
  endfacet
  facet normal -9.906859e-001 -0.000000e+000 -1.361666e-001
    outer loop
      vertex   -4.161107e+002 2.500000e+001 -8.646881e+001
      vertex   -4.161107e+002 -2.500000e+001 -8.646881e+001
      vertex   -4.240092e+002 -2.500000e+001 -2.900303e+001
    endloop
  endfacet
  facet normal -1.000000e+000 0.000000e+000 0.000000e+000
    outer loop
      vertex   -4.240092e+002 2.500000e+001 -2.900303e+001
      vertex   -4.240092e+002 -2.500000e+001 -2.900303e+001
      vertex   -4.240092e+002 -2.500000e+001 2.900303e+001
    endloop
  endfacet
  facet normal -9.906859e-001 0.000000e+000 1.361666e-001
    outer loop
      vertex   -4.240092e+002 2.500000e+001 2.900303e+001
      vertex   -4.240092e+002 -2.500000e+001 2.900303e+001
      vertex   -4.161107e+002 -2.500000e+001 8.646881e+001
    endloop
  endfacet
  facet normal -9.629173e-001 0.000000e+000 2.697968e-001
    outer loop
      vertex   -4.161107e+002 2.500000e+001 8.646881e+001
      vertex   -4.161107e+002 -2.500000e+001 8.646881e+001
      vertex   -4.004609e+002 -2.500000e+001 1.423238e+002
    endloop
  endfacet
  facet normal -9.172113e-001 0.000000e+000 3.984011e-001
    outer loop
      vertex   -4.004609e+002 2.500000e+001 1.423238e+002
      vertex   -4.004609e+002 -2.500000e+001 1.423238e+002
      vertex   -3.773512e+002 -2.500000e+001 1.955276e+002
    endloop
  endfacet
  facet normal -8.544194e-001 0.000000e+000 5.195840e-001
    outer loop
      vertex   -3.773512e+002 2.500000e+001 1.955276e+002
      vertex   -3.773512e+002 -2.500000e+001 1.955276e+002
      vertex   -3.472122e+002 -2.500000e+001 2.450891e+002
    endloop
  endfacet
  facet normal -7.757113e-001 0.000000e+000 6.310879e-001
    outer loop
      vertex   -3.472122e+002 2.500000e+001 2.450891e+002
      vertex   -3.472122e+002 -2.500000e+001 2.450891e+002
      vertex   -3.106053e+002 -2.500000e+001 2.900851e+002
    endloop
  endfacet
  facet normal -6.825531e-001 0.000000e+000 7.308360e-001
    outer loop
      vertex   -3.106053e+002 2.500000e+001 2.900851e+002
      vertex   -3.106053e+002 -2.500000e+001 2.900851e+002
      vertex   -2.682124e+002 -2.500000e+001 3.296773e+002
    endloop
  endfacet
  facet normal -5.766803e-001 0.000000e+000 8.169699e-001
    outer loop
      vertex   -2.682124e+002 2.500000e+001 3.296773e+002
      vertex   -2.682124e+002 -2.500000e+001 3.296773e+002
      vertex   -2.208232e+002 -2.500000e+001 3.631282e+002
    endloop
  endfacet
  facet normal -4.600650e-001 0.000000e+000 8.878852e-001
    outer loop
      vertex   -2.208232e+002 2.500000e+001 3.631282e+002
      vertex   -2.208232e+002 -2.500000e+001 3.631282e+002
      vertex   -1.693205e+002 -2.500000e+001 3.898148e+002
    endloop
  endfacet
  facet normal -3.348796e-001 0.000000e+000 9.422609e-001
    outer loop
      vertex   -1.693205e+002 2.500000e+001 3.898148e+002
      vertex   -1.693205e+002 -2.500000e+001 3.898148e+002
      vertex   -1.146636e+002 -2.500000e+001 4.092398e+002
    endloop
  endfacet
  facet normal -2.034560e-001 0.000000e+000 9.790841e-001
    outer loop
      vertex   -1.146636e+002 2.500000e+001 4.092398e+002
      vertex   -1.146636e+002 -2.500000e+001 4.092398e+002
      vertex   -5.787083e+001 -2.500000e+001 4.210415e+002
    endloop
  endfacet
  facet normal -6.824241e-002 0.000000e+000 9.976688e-001
    outer loop
      vertex   -5.787083e+001 2.500000e+001 4.210415e+002
      vertex   -5.787083e+001 -2.500000e+001 4.210415e+002
      vertex   5.204749e-014 -2.500000e+001 4.250000e+002
    endloop
  endfacet
  facet normal 6.824241e-002 0.000000e+000 9.976688e-001
    outer loop
      vertex   5.204749e-014 2.500000e+001 4.250000e+002
      vertex   5.204749e-014 -2.500000e+001 4.250000e+002
      vertex   5.787083e+001 -2.500000e+001 4.210415e+002
    endloop
  endfacet
  facet normal 2.034560e-001 0.000000e+000 9.790841e-001
    outer loop
      vertex   5.787083e+001 2.500000e+001 4.210415e+002
      vertex   5.787083e+001 -2.500000e+001 4.210415e+002
      vertex   1.146636e+002 -2.500000e+001 4.092398e+002
    endloop
  endfacet
  facet normal 3.348796e-001 0.000000e+000 9.422609e-001
    outer loop
      vertex   1.146636e+002 2.500000e+001 4.092398e+002
      vertex   1.146636e+002 -2.500000e+001 4.092398e+002
      vertex   1.693205e+002 -2.500000e+001 3.898148e+002
    endloop
  endfacet
  facet normal 4.600650e-001 0.000000e+000 8.878852e-001
    outer loop
      vertex   1.693205e+002 2.500000e+001 3.898148e+002
      vertex   1.693205e+002 -2.500000e+001 3.898148e+002
      vertex   2.208232e+002 -2.500000e+001 3.631282e+002
    endloop
  endfacet
  facet normal 5.766803e-001 0.000000e+000 8.169699e-001
    outer loop
      vertex   2.208232e+002 2.500000e+001 3.631282e+002
      vertex   2.208232e+002 -2.500000e+001 3.631282e+002
      vertex   2.682124e+002 -2.500000e+001 3.296773e+002
    endloop
  endfacet
  facet normal 6.825531e-001 0.000000e+000 7.308360e-001
    outer loop
      vertex   2.682124e+002 2.500000e+001 3.296773e+002
      vertex   2.682124e+002 -2.500000e+001 3.296773e+002
      vertex   3.106053e+002 -2.500000e+001 2.900851e+002
    endloop
  endfacet
  facet normal 7.757113e-001 0.000000e+000 6.310879e-001
    outer loop
      vertex   3.106053e+002 2.500000e+001 2.900851e+002
      vertex   3.106053e+002 -2.500000e+001 2.900851e+002
      vertex   3.472122e+002 -2.500000e+001 2.450891e+002
    endloop
  endfacet
  facet normal 8.544194e-001 0.000000e+000 5.195840e-001
    outer loop
      vertex   3.472122e+002 2.500000e+001 2.450891e+002
      vertex   3.472122e+002 -2.500000e+001 2.450891e+002
      vertex   3.773512e+002 -2.500000e+001 1.955276e+002
    endloop
  endfacet
  facet normal 9.172113e-001 0.000000e+000 3.984011e-001
    outer loop
      vertex   3.773512e+002 2.500000e+001 1.955276e+002
      vertex   3.773512e+002 -2.500000e+001 1.955276e+002
      vertex   4.004609e+002 -2.500000e+001 1.423238e+002
    endloop
  endfacet
  facet normal 9.629173e-001 0.000000e+000 2.697968e-001
    outer loop
      vertex   4.004609e+002 2.500000e+001 1.423238e+002
      vertex   4.004609e+002 -2.500000e+001 1.423238e+002
      vertex   4.161107e+002 -2.500000e+001 8.646881e+001
    endloop
  endfacet
  facet normal 9.906859e-001 0.000000e+000 1.361666e-001
    outer loop
      vertex   4.161107e+002 2.500000e+001 8.646881e+001
      vertex   4.161107e+002 -2.500000e+001 8.646881e+001
      vertex   4.240092e+002 -2.500000e+001 2.900303e+001
    endloop
  endfacet
  facet normal 9.994170e-001 7.107836e-017 3.414111e-002
    outer loop
      vertex   4.250000e+002 -2.500000e+001 -2.602374e-014
      vertex   4.250000e+002 2.500000e+001 -1.301187e-013
      vertex   4.240092e+002 2.500000e+001 2.900303e+001
    endloop
  endfacet
  facet normal 9.906859e-001 0.000000e+000 -1.361666e-001
    outer loop
      vertex   4.240092e+002 2.500000e+001 -2.900303e+001
      vertex   4.240092e+002 -2.500000e+001 -2.900303e+001
      vertex   4.161107e+002 -2.500000e+001 -8.646881e+001
    endloop
  endfacet
  facet normal 9.629173e-001 0.000000e+000 -2.697968e-001
    outer loop
      vertex   4.161107e+002 2.500000e+001 -8.646881e+001
      vertex   4.161107e+002 -2.500000e+001 -8.646881e+001
      vertex   4.004609e+002 -2.500000e+001 -1.423238e+002
    endloop
  endfacet
  facet normal 9.172113e-001 0.000000e+000 -3.984011e-001
    outer loop
      vertex   4.004609e+002 2.500000e+001 -1.423238e+002
      vertex   4.004609e+002 -2.500000e+001 -1.423238e+002
      vertex   3.773512e+002 -2.500000e+001 -1.955276e+002
    endloop
  endfacet
  facet normal 8.544194e-001 0.000000e+000 -5.195840e-001
    outer loop
      vertex   3.773512e+002 2.500000e+001 -1.955276e+002
      vertex   3.773512e+002 -2.500000e+001 -1.955276e+002
      vertex   3.472122e+002 -2.500000e+001 -2.450891e+002
    endloop
  endfacet
  facet normal 7.757113e-001 0.000000e+000 -6.310879e-001
    outer loop
      vertex   3.472122e+002 2.500000e+001 -2.450891e+002
      vertex   3.472122e+002 -2.500000e+001 -2.450891e+002
      vertex   3.106053e+002 -2.500000e+001 -2.900851e+002
    endloop
  endfacet
  facet normal 6.825531e-001 0.000000e+000 -7.308360e-001
    outer loop
      vertex   3.106053e+002 2.500000e+001 -2.900851e+002
      vertex   3.106053e+002 -2.500000e+001 -2.900851e+002
      vertex   2.682124e+002 -2.500000e+001 -3.296773e+002
    endloop
  endfacet
  facet normal 5.766803e-001 0.000000e+000 -8.169699e-001
    outer loop
      vertex   2.682124e+002 2.500000e+001 -3.296773e+002
      vertex   2.682124e+002 -2.500000e+001 -3.296773e+002
      vertex   2.208232e+002 -2.500000e+001 -3.631282e+002
    endloop
  endfacet
  facet normal 4.600650e-001 0.000000e+000 -8.878852e-001
    outer loop
      vertex   2.208232e+002 2.500000e+001 -3.631282e+002
      vertex   2.208232e+002 -2.500000e+001 -3.631282e+002
      vertex   1.693205e+002 -2.500000e+001 -3.898148e+002
    endloop
  endfacet
  facet normal 3.348796e-001 0.000000e+000 -9.422609e-001
    outer loop
      vertex   1.693205e+002 2.500000e+001 -3.898148e+002
      vertex   1.693205e+002 -2.500000e+001 -3.898148e+002
      vertex   1.146636e+002 -2.500000e+001 -4.092398e+002
    endloop
  endfacet
  facet normal 2.034560e-001 0.000000e+000 -9.790841e-001
    outer loop
      vertex   1.146636e+002 2.500000e+001 -4.092398e+002
      vertex   1.146636e+002 -2.500000e+001 -4.092398e+002
      vertex   5.787083e+001 -2.500000e+001 -4.210415e+002
    endloop
  endfacet
  facet normal 6.824241e-002 0.000000e+000 -9.976688e-001
    outer loop
      vertex   5.787083e+001 2.500000e+001 -4.210415e+002
      vertex   5.787083e+001 -2.500000e+001 -4.210415e+002
      vertex   -1.040950e-013 -2.500000e+001 -4.250000e+002
    endloop
  endfacet
  facet normal 0.000000e+000 -1.000000e+000 0.000000e+000
    outer loop
      vertex   4.240092e+002 -2.500000e+001 -2.900303e+001
      vertex   4.250000e+002 -2.500000e+001 -2.602374e-014
      vertex   2.800000e+002 -2.500000e+001 -8.572528e-014
    endloop
  endfacet
  facet normal 0.000000e+000 -1.000000e+000 0.000000e+000
    outer loop
      vertex   4.240092e+002 -2.500000e+001 2.900303e+001
      vertex   2.790437e+002 -2.500000e+001 2.312222e+001
      vertex   2.800000e+002 -2.500000e+001 -8.572528e-014
    endloop
  endfacet
  facet normal 0.000000e+000 -1.000000e+000 0.000000e+000
    outer loop
      vertex   4.161107e+002 -2.500000e+001 -8.646881e+001
      vertex   4.240092e+002 -2.500000e+001 -2.900303e+001
      vertex   2.790437e+002 -2.500000e+001 -2.312222e+001
    endloop
  endfacet
  facet normal 0.000000e+000 -1.000000e+000 0.000000e+000
    outer loop
      vertex   2.800000e+002 -2.500000e+001 -8.572528e-014
      vertex   4.250000e+002 -2.500000e+001 -2.602374e-014
      vertex   4.240092e+002 -2.500000e+001 2.900303e+001
    endloop
  endfacet
  facet normal 0.000000e+000 -1.000000e+000 0.000000e+000
    outer loop
      vertex   4.004609e+002 -2.500000e+001 -1.423238e+002
      vertex   4.161107e+002 -2.500000e+001 -8.646881e+001
      vertex   2.714321e+002 -2.500000e+001 -6.873594e+001
    endloop
  endfacet
  facet normal 0.000000e+000 -1.000000e+000 -0.000000e+000
    outer loop
      vertex   2.800000e+002 -2.500000e+001 -8.572528e-014
      vertex   2.790437e+002 -2.500000e+001 -2.312222e+001
      vertex   4.240092e+002 -2.500000e+001 -2.900303e+001
    endloop
  endfacet
  facet normal 0.000000e+000 -1.000000e+000 0.000000e+000
    outer loop
      vertex   4.161107e+002 -2.500000e+001 8.646881e+001
      vertex   2.714321e+002 -2.500000e+001 6.873594e+001
      vertex   2.790437e+002 -2.500000e+001 2.312222e+001
    endloop
  endfacet
  facet normal 0.000000e+000 -1.000000e+000 0.000000e+000
    outer loop
      vertex   2.564165e+002 -2.500000e+001 -1.124747e+002
      vertex   3.773512e+002 -2.500000e+001 -1.955276e+002
      vertex   4.004609e+002 -2.500000e+001 -1.423238e+002
    endloop
  endfacet
  facet normal 0.000000e+000 -1.000000e+000 0.000000e+000
    outer loop
      vertex   2.790437e+002 -2.500000e+001 2.312222e+001
      vertex   4.240092e+002 -2.500000e+001 2.900303e+001
      vertex   4.161107e+002 -2.500000e+001 8.646881e+001
    endloop
  endfacet
  facet normal 0.000000e+000 -1.000000e+000 0.000000e+000
    outer loop
      vertex   4.004609e+002 -2.500000e+001 1.423238e+002
      vertex   2.564165e+002 -2.500000e+001 1.124747e+002
      vertex   2.714321e+002 -2.500000e+001 6.873594e+001
    endloop
  endfacet
  facet normal 0.000000e+000 -1.000000e+000 0.000000e+000
    outer loop
      vertex   1.693205e+002 -2.500000e+001 3.898148e+002
      vertex   9.091585e+001 -2.500000e+001 2.648288e+002
      vertex   1.332653e+002 -2.500000e+001 2.462527e+002
    endloop
  endfacet
  facet normal 0.000000e+000 -1.000000e+000 0.000000e+000
    outer loop
      vertex   -3.472122e+002 -2.500000e+001 2.450891e+002
      vertex   -2.344066e+002 -2.500000e+001 1.531455e+002
      vertex   -2.060027e+002 -2.500000e+001 1.896388e+002
    endloop
  endfacet
  facet normal 0.000000e+000 -1.000000e+000 0.000000e+000
    outer loop
      vertex   -3.773512e+002 -2.500000e+001 1.955276e+002
      vertex   -2.564165e+002 -2.500000e+001 1.124747e+002
      vertex   -2.344066e+002 -2.500000e+001 1.531455e+002
    endloop
  endfacet
  facet normal 0.000000e+000 -1.000000e+000 -0.000000e+000
    outer loop
      vertex   -4.004609e+002 -2.500000e+001 1.423238e+002
      vertex   -4.161107e+002 -2.500000e+001 8.646881e+001
      vertex   -2.714321e+002 -2.500000e+001 6.873594e+001
    endloop
  endfacet
  facet normal 0.000000e+000 -1.000000e+000 0.000000e+000
    outer loop
      vertex   -4.004609e+002 -2.500000e+001 -1.423238e+002
      vertex   -2.564165e+002 -2.500000e+001 -1.124747e+002
      vertex   -2.714321e+002 -2.500000e+001 -6.873594e+001
    endloop
  endfacet
  facet normal 0.000000e+000 -1.000000e+000 -0.000000e+000
    outer loop
      vertex   2.790437e+002 -2.500000e+001 -2.312222e+001
      vertex   2.714321e+002 -2.500000e+001 -6.873594e+001
      vertex   4.161107e+002 -2.500000e+001 -8.646881e+001
    endloop
  endfacet
  facet normal 0.000000e+000 -1.000000e+000 0.000000e+000
    outer loop
      vertex   2.714321e+002 -2.500000e+001 6.873594e+001
      vertex   4.161107e+002 -2.500000e+001 8.646881e+001
      vertex   4.004609e+002 -2.500000e+001 1.423238e+002
    endloop
  endfacet
  facet normal -0.000000e+000 -1.000000e+000 0.000000e+000
    outer loop
      vertex   3.773512e+002 -2.500000e+001 1.955276e+002
      vertex   3.472122e+002 -2.500000e+001 2.450891e+002
      vertex   2.344066e+002 -2.500000e+001 1.531455e+002
    endloop
  endfacet
  facet normal -0.000000e+000 -1.000000e+000 0.000000e+000
    outer loop
      vertex   3.472122e+002 -2.500000e+001 2.450891e+002
      vertex   3.106053e+002 -2.500000e+001 2.900851e+002
      vertex   2.060027e+002 -2.500000e+001 1.896388e+002
    endloop
  endfacet
  facet normal 0.000000e+000 -1.000000e+000 0.000000e+000
    outer loop
      vertex   2.208232e+002 -2.500000e+001 3.631282e+002
      vertex   1.332653e+002 -2.500000e+001 2.462527e+002
      vertex   1.719796e+002 -2.500000e+001 2.209593e+002
    endloop
  endfacet
  facet normal 0.000000e+000 -1.000000e+000 0.000000e+000
    outer loop
      vertex   1.332653e+002 -2.500000e+001 2.462527e+002
      vertex   2.208232e+002 -2.500000e+001 3.631282e+002
      vertex   1.693205e+002 -2.500000e+001 3.898148e+002
    endloop
  endfacet
  facet normal 0.000000e+000 -1.000000e+000 0.000000e+000
    outer loop
      vertex   -5.787083e+001 -2.500000e+001 4.210415e+002
      vertex   -4.608649e+001 -2.500000e+001 2.761812e+002
      vertex   3.429011e-014 -2.500000e+001 2.800000e+002
    endloop
  endfacet
  facet normal 0.000000e+000 -1.000000e+000 0.000000e+000
    outer loop
      vertex   -1.146636e+002 -2.500000e+001 4.092398e+002
      vertex   -9.091585e+001 -2.500000e+001 2.648288e+002
      vertex   -4.608649e+001 -2.500000e+001 2.761812e+002
    endloop
  endfacet
  facet normal 0.000000e+000 -1.000000e+000 0.000000e+000
    outer loop
      vertex   -2.344066e+002 -2.500000e+001 1.531455e+002
      vertex   -3.472122e+002 -2.500000e+001 2.450891e+002
      vertex   -3.773512e+002 -2.500000e+001 1.955276e+002
    endloop
  endfacet
  facet normal 0.000000e+000 -1.000000e+000 0.000000e+000
    outer loop
      vertex   -2.564165e+002 -2.500000e+001 1.124747e+002
      vertex   -3.773512e+002 -2.500000e+001 1.955276e+002
      vertex   -4.004609e+002 -2.500000e+001 1.423238e+002
    endloop
  endfacet
  facet normal 0.000000e+000 -1.000000e+000 0.000000e+000
    outer loop
      vertex   -4.161107e+002 -2.500000e+001 -8.646881e+001
      vertex   -2.714321e+002 -2.500000e+001 -6.873594e+001
      vertex   -2.790437e+002 -2.500000e+001 -2.312222e+001
    endloop
  endfacet
  facet normal 0.000000e+000 -1.000000e+000 0.000000e+000
    outer loop
      vertex   -2.714321e+002 -2.500000e+001 -6.873594e+001
      vertex   -4.161107e+002 -2.500000e+001 -8.646881e+001
      vertex   -4.004609e+002 -2.500000e+001 -1.423238e+002
    endloop
  endfacet
  facet normal 0.000000e+000 -1.000000e+000 0.000000e+000
    outer loop
      vertex   -1.693205e+002 -2.500000e+001 -3.898148e+002
      vertex   -9.091585e+001 -2.500000e+001 -2.648288e+002
      vertex   -1.332653e+002 -2.500000e+001 -2.462527e+002
    endloop
  endfacet
  facet normal 0.000000e+000 -1.000000e+000 0.000000e+000
    outer loop
      vertex   1.693205e+002 -2.500000e+001 -3.898148e+002
      vertex   2.208232e+002 -2.500000e+001 -3.631282e+002
      vertex   1.332653e+002 -2.500000e+001 -2.462527e+002
    endloop
  endfacet
  facet normal -0.000000e+000 -1.000000e+000 0.000000e+000
    outer loop
      vertex   4.004609e+002 -2.500000e+001 1.423238e+002
      vertex   3.773512e+002 -2.500000e+001 1.955276e+002
      vertex   2.564165e+002 -2.500000e+001 1.124747e+002
    endloop
  endfacet
  facet normal 0.000000e+000 -1.000000e+000 0.000000e+000
    outer loop
      vertex   2.060027e+002 -2.500000e+001 1.896388e+002
      vertex   2.344066e+002 -2.500000e+001 1.531455e+002
      vertex   3.472122e+002 -2.500000e+001 2.450891e+002
    endloop
  endfacet
  facet normal -0.000000e+000 -1.000000e+000 0.000000e+000
    outer loop
      vertex   1.693205e+002 -2.500000e+001 3.898148e+002
      vertex   1.146636e+002 -2.500000e+001 4.092398e+002
      vertex   9.091585e+001 -2.500000e+001 2.648288e+002
    endloop
  endfacet
  facet normal -0.000000e+000 -1.000000e+000 0.000000e+000
    outer loop
      vertex   1.146636e+002 -2.500000e+001 4.092398e+002
      vertex   5.787083e+001 -2.500000e+001 4.210415e+002
      vertex   4.608649e+001 -2.500000e+001 2.761812e+002
    endloop
  endfacet
  facet normal -0.000000e+000 -1.000000e+000 0.000000e+000
    outer loop
      vertex   5.787083e+001 -2.500000e+001 4.210415e+002
      vertex   5.204749e-014 -2.500000e+001 4.250000e+002
      vertex   3.429011e-014 -2.500000e+001 2.800000e+002
    endloop
  endfacet
  facet normal 0.000000e+000 -1.000000e+000 0.000000e+000
    outer loop
      vertex   -4.608649e+001 -2.500000e+001 2.761812e+002
      vertex   -5.787083e+001 -2.500000e+001 4.210415e+002
      vertex   -1.146636e+002 -2.500000e+001 4.092398e+002
    endloop
  endfacet
  facet normal 0.000000e+000 -1.000000e+000 -0.000000e+000
    outer loop
      vertex   -2.682124e+002 -2.500000e+001 3.296773e+002
      vertex   -3.106053e+002 -2.500000e+001 2.900851e+002
      vertex   -2.060027e+002 -2.500000e+001 1.896388e+002
    endloop
  endfacet
  facet normal 0.000000e+000 -1.000000e+000 0.000000e+000
    outer loop
      vertex   -2.714321e+002 -2.500000e+001 6.873594e+001
      vertex   -2.564165e+002 -2.500000e+001 1.124747e+002
      vertex   -4.004609e+002 -2.500000e+001 1.423238e+002
    endloop
  endfacet
  facet normal 0.000000e+000 -1.000000e+000 -0.000000e+000
    outer loop
      vertex   -4.161107e+002 -2.500000e+001 8.646881e+001
      vertex   -4.240092e+002 -2.500000e+001 2.900303e+001
      vertex   -2.790437e+002 -2.500000e+001 2.312222e+001
    endloop
  endfacet
  facet normal 0.000000e+000 -1.000000e+000 0.000000e+000
    outer loop
      vertex   -4.240092e+002 -2.500000e+001 -2.900303e+001
      vertex   -2.790437e+002 -2.500000e+001 -2.312222e+001
      vertex   -2.790437e+002 -2.500000e+001 2.312222e+001
    endloop
  endfacet
  facet normal 0.000000e+000 -1.000000e+000 0.000000e+000
    outer loop
      vertex   -4.004609e+002 -2.500000e+001 -1.423238e+002
      vertex   -3.773512e+002 -2.500000e+001 -1.955276e+002
      vertex   -2.564165e+002 -2.500000e+001 -1.124747e+002
    endloop
  endfacet
  facet normal 0.000000e+000 -1.000000e+000 0.000000e+000
    outer loop
      vertex   -3.773512e+002 -2.500000e+001 -1.955276e+002
      vertex   -3.472122e+002 -2.500000e+001 -2.450891e+002
      vertex   -2.344066e+002 -2.500000e+001 -1.531455e+002
    endloop
  endfacet
  facet normal 0.000000e+000 -1.000000e+000 0.000000e+000
    outer loop
      vertex   -1.332653e+002 -2.500000e+001 -2.462527e+002
      vertex   -2.208232e+002 -2.500000e+001 -3.631282e+002
      vertex   -1.693205e+002 -2.500000e+001 -3.898148e+002
    endloop
  endfacet
  facet normal 0.000000e+000 -1.000000e+000 0.000000e+000
    outer loop
      vertex   -1.146636e+002 -2.500000e+001 -4.092398e+002
      vertex   -5.787083e+001 -2.500000e+001 -4.210415e+002
      vertex   -4.608649e+001 -2.500000e+001 -2.761812e+002
    endloop
  endfacet
  facet normal 0.000000e+000 -1.000000e+000 0.000000e+000
    outer loop
      vertex   1.146636e+002 -2.500000e+001 -4.092398e+002
      vertex   9.091585e+001 -2.500000e+001 -2.648288e+002
      vertex   4.608649e+001 -2.500000e+001 -2.761812e+002
    endloop
  endfacet
  facet normal 0.000000e+000 -1.000000e+000 0.000000e+000
    outer loop
      vertex   9.091585e+001 -2.500000e+001 -2.648288e+002
      vertex   1.146636e+002 -2.500000e+001 -4.092398e+002
      vertex   1.693205e+002 -2.500000e+001 -3.898148e+002
    endloop
  endfacet
  facet normal 0.000000e+000 -1.000000e+000 0.000000e+000
    outer loop
      vertex   2.344066e+002 -2.500000e+001 1.531455e+002
      vertex   2.564165e+002 -2.500000e+001 1.124747e+002
      vertex   3.773512e+002 -2.500000e+001 1.955276e+002
    endloop
  endfacet
  facet normal 0.000000e+000 -1.000000e+000 0.000000e+000
    outer loop
      vertex   2.682124e+002 -2.500000e+001 3.296773e+002
      vertex   1.719796e+002 -2.500000e+001 2.209593e+002
      vertex   2.060027e+002 -2.500000e+001 1.896388e+002
    endloop
  endfacet
  facet normal 0.000000e+000 -1.000000e+000 0.000000e+000
    outer loop
      vertex   4.608649e+001 -2.500000e+001 2.761812e+002
      vertex   9.091585e+001 -2.500000e+001 2.648288e+002
      vertex   1.146636e+002 -2.500000e+001 4.092398e+002
    endloop
  endfacet
  facet normal 0.000000e+000 -1.000000e+000 0.000000e+000
    outer loop
      vertex   3.429011e-014 -2.500000e+001 2.800000e+002
      vertex   5.204749e-014 -2.500000e+001 4.250000e+002
      vertex   -5.787083e+001 -2.500000e+001 4.210415e+002
    endloop
  endfacet
  facet normal 0.000000e+000 -1.000000e+000 -0.000000e+000
    outer loop
      vertex   -1.693205e+002 -2.500000e+001 3.898148e+002
      vertex   -2.208232e+002 -2.500000e+001 3.631282e+002
      vertex   -1.332653e+002 -2.500000e+001 2.462527e+002
    endloop
  endfacet
  facet normal 0.000000e+000 -1.000000e+000 0.000000e+000
    outer loop
      vertex   -2.060027e+002 -2.500000e+001 1.896388e+002
      vertex   -3.106053e+002 -2.500000e+001 2.900851e+002
      vertex   -3.472122e+002 -2.500000e+001 2.450891e+002
    endloop
  endfacet
  facet normal -0.000000e+000 -1.000000e+000 0.000000e+000
    outer loop
      vertex   -2.790437e+002 -2.500000e+001 2.312222e+001
      vertex   -4.240092e+002 -2.500000e+001 2.900303e+001
      vertex   -4.240092e+002 -2.500000e+001 -2.900303e+001
    endloop
  endfacet
  facet normal -0.000000e+000 -1.000000e+000 0.000000e+000
    outer loop
      vertex   -2.344066e+002 -2.500000e+001 -1.531455e+002
      vertex   -2.564165e+002 -2.500000e+001 -1.124747e+002
      vertex   -3.773512e+002 -2.500000e+001 -1.955276e+002
    endloop
  endfacet
  facet normal 0.000000e+000 -1.000000e+000 0.000000e+000
    outer loop
      vertex   -3.472122e+002 -2.500000e+001 -2.450891e+002
      vertex   -3.106053e+002 -2.500000e+001 -2.900851e+002
      vertex   -2.060027e+002 -2.500000e+001 -1.896388e+002
    endloop
  endfacet
  facet normal 0.000000e+000 -1.000000e+000 0.000000e+000
    outer loop
      vertex   -2.682124e+002 -2.500000e+001 -3.296773e+002
      vertex   -1.719796e+002 -2.500000e+001 -2.209593e+002
      vertex   -2.060027e+002 -2.500000e+001 -1.896388e+002
    endloop
  endfacet
  facet normal 0.000000e+000 -1.000000e+000 0.000000e+000
    outer loop
      vertex   -2.208232e+002 -2.500000e+001 -3.631282e+002
      vertex   -1.332653e+002 -2.500000e+001 -2.462527e+002
      vertex   -1.719796e+002 -2.500000e+001 -2.209593e+002
    endloop
  endfacet
  facet normal -0.000000e+000 -1.000000e+000 0.000000e+000
    outer loop
      vertex   -4.608649e+001 -2.500000e+001 -2.761812e+002
      vertex   -9.091585e+001 -2.500000e+001 -2.648288e+002
      vertex   -1.146636e+002 -2.500000e+001 -4.092398e+002
    endloop
  endfacet
  facet normal 0.000000e+000 -1.000000e+000 0.000000e+000
    outer loop
      vertex   -5.787083e+001 -2.500000e+001 -4.210415e+002
      vertex   -1.040950e-013 -2.500000e+001 -4.250000e+002
      vertex   -6.858022e-014 -2.500000e+001 -2.800000e+002
    endloop
  endfacet
  facet normal 0.000000e+000 -1.000000e+000 -0.000000e+000
    outer loop
      vertex   1.332653e+002 -2.500000e+001 -2.462527e+002
      vertex   9.091585e+001 -2.500000e+001 -2.648288e+002
      vertex   1.693205e+002 -2.500000e+001 -3.898148e+002
    endloop
  endfacet
  facet normal 0.000000e+000 -1.000000e+000 0.000000e+000
    outer loop
      vertex   2.208232e+002 -2.500000e+001 -3.631282e+002
      vertex   2.682124e+002 -2.500000e+001 -3.296773e+002
      vertex   1.719796e+002 -2.500000e+001 -2.209593e+002
    endloop
  endfacet
  facet normal 0.000000e+000 -1.000000e+000 0.000000e+000
    outer loop
      vertex   2.682124e+002 -2.500000e+001 -3.296773e+002
      vertex   3.106053e+002 -2.500000e+001 -2.900851e+002
      vertex   2.060027e+002 -2.500000e+001 -1.896388e+002
    endloop
  endfacet
  facet normal 0.000000e+000 -1.000000e+000 0.000000e+000
    outer loop
      vertex   3.472122e+002 -2.500000e+001 -2.450891e+002
      vertex   2.344066e+002 -2.500000e+001 -1.531455e+002
      vertex   2.060027e+002 -2.500000e+001 -1.896388e+002
    endloop
  endfacet
  facet normal 0.000000e+000 -1.000000e+000 0.000000e+000
    outer loop
      vertex   2.060027e+002 -2.500000e+001 1.896388e+002
      vertex   3.106053e+002 -2.500000e+001 2.900851e+002
      vertex   2.682124e+002 -2.500000e+001 3.296773e+002
    endloop
  endfacet
  facet normal 0.000000e+000 -1.000000e+000 0.000000e+000
    outer loop
      vertex   3.429011e-014 -2.500000e+001 2.800000e+002
      vertex   4.608649e+001 -2.500000e+001 2.761812e+002
      vertex   5.787083e+001 -2.500000e+001 4.210415e+002
    endloop
  endfacet
  facet normal 0.000000e+000 -1.000000e+000 0.000000e+000
    outer loop
      vertex   -9.091585e+001 -2.500000e+001 2.648288e+002
      vertex   -1.146636e+002 -2.500000e+001 4.092398e+002
      vertex   -1.693205e+002 -2.500000e+001 3.898148e+002
    endloop
  endfacet
  facet normal 0.000000e+000 -1.000000e+000 -0.000000e+000
    outer loop
      vertex   -2.208232e+002 -2.500000e+001 3.631282e+002
      vertex   -2.682124e+002 -2.500000e+001 3.296773e+002
      vertex   -1.719796e+002 -2.500000e+001 2.209593e+002
    endloop
  endfacet
  facet normal 0.000000e+000 -1.000000e+000 0.000000e+000
    outer loop
      vertex   -2.790437e+002 -2.500000e+001 2.312222e+001
      vertex   -2.714321e+002 -2.500000e+001 6.873594e+001
      vertex   -4.161107e+002 -2.500000e+001 8.646881e+001
    endloop
  endfacet
  facet normal -0.000000e+000 -1.000000e+000 0.000000e+000
    outer loop
      vertex   -2.060027e+002 -2.500000e+001 -1.896388e+002
      vertex   -2.344066e+002 -2.500000e+001 -1.531455e+002
      vertex   -3.472122e+002 -2.500000e+001 -2.450891e+002
    endloop
  endfacet
  facet normal 0.000000e+000 -1.000000e+000 0.000000e+000
    outer loop
      vertex   -1.719796e+002 -2.500000e+001 -2.209593e+002
      vertex   -2.682124e+002 -2.500000e+001 -3.296773e+002
      vertex   -2.208232e+002 -2.500000e+001 -3.631282e+002
    endloop
  endfacet
  facet normal -0.000000e+000 -1.000000e+000 0.000000e+000
    outer loop
      vertex   -6.858022e-014 -2.500000e+001 -2.800000e+002
      vertex   -4.608649e+001 -2.500000e+001 -2.761812e+002
      vertex   -5.787083e+001 -2.500000e+001 -4.210415e+002
    endloop
  endfacet
  facet normal 0.000000e+000 -1.000000e+000 0.000000e+000
    outer loop
      vertex   5.787083e+001 -2.500000e+001 -4.210415e+002
      vertex   4.608649e+001 -2.500000e+001 -2.761812e+002
      vertex   -6.858022e-014 -2.500000e+001 -2.800000e+002
    endloop
  endfacet
  facet normal 0.000000e+000 -1.000000e+000 -0.000000e+000
    outer loop
      vertex   1.719796e+002 -2.500000e+001 -2.209593e+002
      vertex   1.332653e+002 -2.500000e+001 -2.462527e+002
      vertex   2.208232e+002 -2.500000e+001 -3.631282e+002
    endloop
  endfacet
  facet normal 0.000000e+000 -1.000000e+000 0.000000e+000
    outer loop
      vertex   2.060027e+002 -2.500000e+001 -1.896388e+002
      vertex   3.106053e+002 -2.500000e+001 -2.900851e+002
      vertex   3.472122e+002 -2.500000e+001 -2.450891e+002
    endloop
  endfacet
  facet normal 0.000000e+000 -1.000000e+000 0.000000e+000
    outer loop
      vertex   3.773512e+002 -2.500000e+001 -1.955276e+002
      vertex   2.564165e+002 -2.500000e+001 -1.124747e+002
      vertex   2.344066e+002 -2.500000e+001 -1.531455e+002
    endloop
  endfacet
  facet normal 0.000000e+000 -1.000000e+000 0.000000e+000
    outer loop
      vertex   1.719796e+002 -2.500000e+001 2.209593e+002
      vertex   2.682124e+002 -2.500000e+001 3.296773e+002
      vertex   2.208232e+002 -2.500000e+001 3.631282e+002
    endloop
  endfacet
  facet normal 0.000000e+000 -1.000000e+000 0.000000e+000
    outer loop
      vertex   -1.719796e+002 -2.500000e+001 2.209593e+002
      vertex   -1.332653e+002 -2.500000e+001 2.462527e+002
      vertex   -2.208232e+002 -2.500000e+001 3.631282e+002
    endloop
  endfacet
  facet normal 0.000000e+000 -1.000000e+000 0.000000e+000
    outer loop
      vertex   -2.790437e+002 -2.500000e+001 -2.312222e+001
      vertex   -4.240092e+002 -2.500000e+001 -2.900303e+001
      vertex   -4.161107e+002 -2.500000e+001 -8.646881e+001
    endloop
  endfacet
  facet normal 0.000000e+000 -1.000000e+000 0.000000e+000
    outer loop
      vertex   -1.693205e+002 -2.500000e+001 -3.898148e+002
      vertex   -1.146636e+002 -2.500000e+001 -4.092398e+002
      vertex   -9.091585e+001 -2.500000e+001 -2.648288e+002
    endloop
  endfacet
  facet normal 0.000000e+000 -1.000000e+000 0.000000e+000
    outer loop
      vertex   4.608649e+001 -2.500000e+001 -2.761812e+002
      vertex   5.787083e+001 -2.500000e+001 -4.210415e+002
      vertex   1.146636e+002 -2.500000e+001 -4.092398e+002
    endloop
  endfacet
  facet normal 0.000000e+000 -1.000000e+000 0.000000e+000
    outer loop
      vertex   2.344066e+002 -2.500000e+001 -1.531455e+002
      vertex   3.472122e+002 -2.500000e+001 -2.450891e+002
      vertex   3.773512e+002 -2.500000e+001 -1.955276e+002
    endloop
  endfacet
  facet normal 0.000000e+000 -1.000000e+000 0.000000e+000
    outer loop
      vertex   -1.332653e+002 -2.500000e+001 2.462527e+002
      vertex   -9.091585e+001 -2.500000e+001 2.648288e+002
      vertex   -1.693205e+002 -2.500000e+001 3.898148e+002
    endloop
  endfacet
  facet normal 0.000000e+000 -1.000000e+000 0.000000e+000
    outer loop
      vertex   -2.060027e+002 -2.500000e+001 -1.896388e+002
      vertex   -3.106053e+002 -2.500000e+001 -2.900851e+002
      vertex   -2.682124e+002 -2.500000e+001 -3.296773e+002
    endloop
  endfacet
  facet normal 0.000000e+000 -1.000000e+000 -0.000000e+000
    outer loop
      vertex   2.060027e+002 -2.500000e+001 -1.896388e+002
      vertex   1.719796e+002 -2.500000e+001 -2.209593e+002
      vertex   2.682124e+002 -2.500000e+001 -3.296773e+002
    endloop
  endfacet
  facet normal 0.000000e+000 -1.000000e+000 0.000000e+000
    outer loop
      vertex   -2.060027e+002 -2.500000e+001 1.896388e+002
      vertex   -1.719796e+002 -2.500000e+001 2.209593e+002
      vertex   -2.682124e+002 -2.500000e+001 3.296773e+002
    endloop
  endfacet
  facet normal 0.000000e+000 -1.000000e+000 -0.000000e+000
    outer loop
      vertex   2.714321e+002 -2.500000e+001 -6.873594e+001
      vertex   2.564165e+002 -2.500000e+001 -1.124747e+002
      vertex   4.004609e+002 -2.500000e+001 -1.423238e+002
    endloop
  endfacet
  facet normal 0.000000e+000 -1.000000e+000 -0.000000e+000
    outer loop
      vertex   -6.858022e-014 -2.500000e+001 -2.800000e+002
      vertex   -1.040950e-013 -2.500000e+001 -4.250000e+002
      vertex   5.787083e+001 -2.500000e+001 -4.210415e+002
    endloop
  endfacet
endsolid
