solid AnilloVolante
  facet normal 9.226836e-002 0.000000e+000 9.957342e-001
    outer loop
      vertex   -4.134364e+001 0.000000e+000 -2.211689e+002
      vertex   -5.510911e-014 0.000000e+000 -2.250000e+002
      vertex   -5.510911e-014 1.700000e+002 -2.250000e+002
    endloop
  endfacet
  facet normal 2.736630e-001 0.000000e+000 9.618256e-001
    outer loop
      vertex   -8.127937e+001 0.000000e+000 -2.098063e+002
      vertex   -4.134364e+001 0.000000e+000 -2.211689e+002
      vertex   -4.134364e+001 1.700000e+002 -2.211689e+002
    endloop
  endfacet
  facet normal 4.457384e-001 0.000000e+000 8.951633e-001
    outer loop
      vertex   -1.184472e+002 0.000000e+000 -1.912989e+002
      vertex   -8.127937e+001 0.000000e+000 -2.098063e+002
      vertex   -8.127937e+001 1.700000e+002 -2.098063e+002
    endloop
  endfacet
  facet normal 6.026346e-001 0.000000e+000 7.980172e-001
    outer loop
      vertex   -1.515815e+002 0.000000e+000 -1.662770e+002
      vertex   -1.184472e+002 0.000000e+000 -1.912989e+002
      vertex   -1.184472e+002 1.700000e+002 -1.912989e+002
    endloop
  endfacet
  facet normal 7.390089e-001 0.000000e+000 6.736956e-001
    outer loop
      vertex   -1.795539e+002 0.000000e+000 -1.355928e+002
      vertex   -1.515815e+002 0.000000e+000 -1.662770e+002
      vertex   -1.515815e+002 1.700000e+002 -1.662770e+002
    endloop
  endfacet
  facet normal 8.502171e-001 0.000000e+000 5.264322e-001
    outer loop
      vertex   -2.014117e+002 0.000000e+000 -1.002911e+002
      vertex   -1.795539e+002 0.000000e+000 -1.355928e+002
      vertex   -1.795539e+002 1.700000e+002 -1.355928e+002
    endloop
  endfacet
  facet normal 9.324722e-001 0.000000e+000 3.612417e-001
    outer loop
      vertex   -2.164108e+002 0.000000e+000 -6.157417e+001
      vertex   -2.014117e+002 0.000000e+000 -1.002911e+002
      vertex   -2.014117e+002 1.700000e+002 -1.002911e+002
    endloop
  endfacet
  facet normal 9.829731e-001 0.000000e+000 1.837495e-001
    outer loop
      vertex   -2.240402e+002 0.000000e+000 -2.076038e+001
      vertex   -2.164108e+002 0.000000e+000 -6.157417e+001
      vertex   -2.164108e+002 1.700000e+002 -6.157417e+001
    endloop
  endfacet
  facet normal 1.000000e+000 0.000000e+000 6.684746e-016
    outer loop
      vertex   -2.240402e+002 0.000000e+000 2.076038e+001
      vertex   -2.240402e+002 0.000000e+000 -2.076038e+001
      vertex   -2.240402e+002 1.700000e+002 -2.076038e+001
    endloop
  endfacet
  facet normal 9.829731e-001 0.000000e+000 -1.837495e-001
    outer loop
      vertex   -2.164108e+002 0.000000e+000 6.157417e+001
      vertex   -2.240402e+002 0.000000e+000 2.076038e+001
      vertex   -2.240402e+002 1.700000e+002 2.076038e+001
    endloop
  endfacet
  facet normal 9.324722e-001 0.000000e+000 -3.612417e-001
    outer loop
      vertex   -2.014117e+002 0.000000e+000 1.002911e+002
      vertex   -2.164108e+002 0.000000e+000 6.157417e+001
      vertex   -2.164108e+002 1.700000e+002 6.157417e+001
    endloop
  endfacet
  facet normal 8.502171e-001 0.000000e+000 -5.264322e-001
    outer loop
      vertex   -1.795539e+002 0.000000e+000 1.355928e+002
      vertex   -2.014117e+002 0.000000e+000 1.002911e+002
      vertex   -2.014117e+002 1.700000e+002 1.002911e+002
    endloop
  endfacet
  facet normal 7.390089e-001 0.000000e+000 -6.736956e-001
    outer loop
      vertex   -1.515815e+002 0.000000e+000 1.662770e+002
      vertex   -1.795539e+002 0.000000e+000 1.355928e+002
      vertex   -1.795539e+002 1.700000e+002 1.355928e+002
    endloop
  endfacet
  facet normal 6.026346e-001 0.000000e+000 -7.980172e-001
    outer loop
      vertex   -1.184472e+002 0.000000e+000 1.912989e+002
      vertex   -1.515815e+002 0.000000e+000 1.662770e+002
      vertex   -1.515815e+002 1.700000e+002 1.662770e+002
    endloop
  endfacet
  facet normal 4.457384e-001 0.000000e+000 -8.951633e-001
    outer loop
      vertex   -8.127937e+001 0.000000e+000 2.098063e+002
      vertex   -1.184472e+002 0.000000e+000 1.912989e+002
      vertex   -1.184472e+002 1.700000e+002 1.912989e+002
    endloop
  endfacet
  facet normal 2.736630e-001 0.000000e+000 -9.618256e-001
    outer loop
      vertex   -4.134364e+001 0.000000e+000 2.211689e+002
      vertex   -8.127937e+001 0.000000e+000 2.098063e+002
      vertex   -8.127937e+001 1.700000e+002 2.098063e+002
    endloop
  endfacet
  facet normal 9.226836e-002 0.000000e+000 -9.957342e-001
    outer loop
      vertex   2.755455e-014 0.000000e+000 2.250000e+002
      vertex   -4.134364e+001 0.000000e+000 2.211689e+002
      vertex   -4.134364e+001 1.700000e+002 2.211689e+002
    endloop
  endfacet
  facet normal -9.226836e-002 0.000000e+000 -9.957342e-001
    outer loop
      vertex   4.134364e+001 0.000000e+000 2.211689e+002
      vertex   2.755455e-014 0.000000e+000 2.250000e+002
      vertex   2.755455e-014 1.700000e+002 2.250000e+002
    endloop
  endfacet
  facet normal -2.736630e-001 0.000000e+000 -9.618256e-001
    outer loop
      vertex   8.127937e+001 0.000000e+000 2.098063e+002
      vertex   4.134364e+001 0.000000e+000 2.211689e+002
      vertex   4.134364e+001 1.700000e+002 2.211689e+002
    endloop
  endfacet
  facet normal -4.457384e-001 0.000000e+000 -8.951633e-001
    outer loop
      vertex   1.184472e+002 0.000000e+000 1.912989e+002
      vertex   8.127937e+001 0.000000e+000 2.098063e+002
      vertex   8.127937e+001 1.700000e+002 2.098063e+002
    endloop
  endfacet
  facet normal -6.026346e-001 0.000000e+000 -7.980172e-001
    outer loop
      vertex   1.515815e+002 0.000000e+000 1.662770e+002
      vertex   1.184472e+002 0.000000e+000 1.912989e+002
      vertex   1.184472e+002 1.700000e+002 1.912989e+002
    endloop
  endfacet
  facet normal -7.390089e-001 0.000000e+000 -6.736956e-001
    outer loop
      vertex   1.795539e+002 0.000000e+000 1.355928e+002
      vertex   1.515815e+002 0.000000e+000 1.662770e+002
      vertex   1.515815e+002 1.700000e+002 1.662770e+002
    endloop
  endfacet
  facet normal -8.502171e-001 0.000000e+000 -5.264322e-001
    outer loop
      vertex   2.014117e+002 0.000000e+000 1.002911e+002
      vertex   1.795539e+002 0.000000e+000 1.355928e+002
      vertex   1.795539e+002 1.700000e+002 1.355928e+002
    endloop
  endfacet
  facet normal -9.324722e-001 0.000000e+000 -3.612417e-001
    outer loop
      vertex   2.164108e+002 0.000000e+000 6.157417e+001
      vertex   2.014117e+002 0.000000e+000 1.002911e+002
      vertex   2.014117e+002 1.700000e+002 1.002911e+002
    endloop
  endfacet
  facet normal -9.829731e-001 0.000000e+000 -1.837495e-001
    outer loop
      vertex   2.240402e+002 0.000000e+000 2.076038e+001
      vertex   2.164108e+002 0.000000e+000 6.157417e+001
      vertex   2.164108e+002 1.700000e+002 6.157417e+001
    endloop
  endfacet
  facet normal -9.989330e-001 0.000000e+000 4.618346e-002
    outer loop
      vertex   2.240402e+002 1.700000e+002 -2.076038e+001
      vertex   2.240402e+002 0.000000e+000 -2.076038e+001
      vertex   2.250000e+002 0.000000e+000 -6.888638e-014
    endloop
  endfacet
  facet normal -9.989330e-001 0.000000e+000 -4.618346e-002
    outer loop
      vertex   2.240402e+002 0.000000e+000 2.076038e+001
      vertex   2.240402e+002 1.700000e+002 2.076038e+001
      vertex   2.250000e+002 1.700000e+002 -1.377728e-014
    endloop
  endfacet
  facet normal -9.989330e-001 1.497135e-017 -4.618346e-002
    outer loop
      vertex   2.250000e+002 1.700000e+002 -1.377728e-014
      vertex   2.250000e+002 0.000000e+000 -6.888638e-014
      vertex   2.240402e+002 0.000000e+000 2.076038e+001
    endloop
  endfacet
  facet normal -9.829731e-001 0.000000e+000 1.837495e-001
    outer loop
      vertex   2.164108e+002 0.000000e+000 -6.157417e+001
      vertex   2.240402e+002 0.000000e+000 -2.076038e+001
      vertex   2.240402e+002 1.700000e+002 -2.076038e+001
    endloop
  endfacet
  facet normal -9.324722e-001 0.000000e+000 3.612417e-001
    outer loop
      vertex   2.014117e+002 0.000000e+000 -1.002911e+002
      vertex   2.164108e+002 0.000000e+000 -6.157417e+001
      vertex   2.164108e+002 1.700000e+002 -6.157417e+001
    endloop
  endfacet
  facet normal -8.502171e-001 0.000000e+000 5.264322e-001
    outer loop
      vertex   1.795539e+002 0.000000e+000 -1.355928e+002
      vertex   2.014117e+002 0.000000e+000 -1.002911e+002
      vertex   2.014117e+002 1.700000e+002 -1.002911e+002
    endloop
  endfacet
  facet normal -7.390089e-001 0.000000e+000 6.736956e-001
    outer loop
      vertex   1.515815e+002 0.000000e+000 -1.662770e+002
      vertex   1.795539e+002 0.000000e+000 -1.355928e+002
      vertex   1.795539e+002 1.700000e+002 -1.355928e+002
    endloop
  endfacet
  facet normal -6.026346e-001 0.000000e+000 7.980172e-001
    outer loop
      vertex   1.184472e+002 0.000000e+000 -1.912989e+002
      vertex   1.515815e+002 0.000000e+000 -1.662770e+002
      vertex   1.515815e+002 1.700000e+002 -1.662770e+002
    endloop
  endfacet
  facet normal -4.457384e-001 0.000000e+000 8.951633e-001
    outer loop
      vertex   8.127937e+001 0.000000e+000 -2.098063e+002
      vertex   1.184472e+002 0.000000e+000 -1.912989e+002
      vertex   1.184472e+002 1.700000e+002 -1.912989e+002
    endloop
  endfacet
  facet normal -2.736630e-001 0.000000e+000 9.618256e-001
    outer loop
      vertex   4.134364e+001 0.000000e+000 -2.211689e+002
      vertex   8.127937e+001 0.000000e+000 -2.098063e+002
      vertex   8.127937e+001 1.700000e+002 -2.098063e+002
    endloop
  endfacet
  facet normal -9.226836e-002 0.000000e+000 9.957342e-001
    outer loop
      vertex   -5.510911e-014 0.000000e+000 -2.250000e+002
      vertex   4.134364e+001 0.000000e+000 -2.211689e+002
      vertex   4.134364e+001 1.700000e+002 -2.211689e+002
    endloop
  endfacet
  facet normal -9.226836e-002 0.000000e+000 9.957342e-001
    outer loop
      vertex   4.134364e+001 1.700000e+002 -2.211689e+002
      vertex   -5.510911e-014 1.700000e+002 -2.250000e+002
      vertex   -5.510911e-014 0.000000e+000 -2.250000e+002
    endloop
  endfacet
  facet normal -2.736630e-001 0.000000e+000 9.618256e-001
    outer loop
      vertex   8.127937e+001 1.700000e+002 -2.098063e+002
      vertex   4.134364e+001 1.700000e+002 -2.211689e+002
      vertex   4.134364e+001 0.000000e+000 -2.211689e+002
    endloop
  endfacet
  facet normal -4.457384e-001 0.000000e+000 8.951633e-001
    outer loop
      vertex   1.184472e+002 1.700000e+002 -1.912989e+002
      vertex   8.127937e+001 1.700000e+002 -2.098063e+002
      vertex   8.127937e+001 0.000000e+000 -2.098063e+002
    endloop
  endfacet
  facet normal -6.026346e-001 0.000000e+000 7.980172e-001
    outer loop
      vertex   1.515815e+002 1.700000e+002 -1.662770e+002
      vertex   1.184472e+002 1.700000e+002 -1.912989e+002
      vertex   1.184472e+002 0.000000e+000 -1.912989e+002
    endloop
  endfacet
  facet normal -7.390089e-001 0.000000e+000 6.736956e-001
    outer loop
      vertex   1.795539e+002 1.700000e+002 -1.355928e+002
      vertex   1.515815e+002 1.700000e+002 -1.662770e+002
      vertex   1.515815e+002 0.000000e+000 -1.662770e+002
    endloop
  endfacet
  facet normal -8.502171e-001 0.000000e+000 5.264322e-001
    outer loop
      vertex   2.014117e+002 1.700000e+002 -1.002911e+002
      vertex   1.795539e+002 1.700000e+002 -1.355928e+002
      vertex   1.795539e+002 0.000000e+000 -1.355928e+002
    endloop
  endfacet
  facet normal -9.324722e-001 0.000000e+000 3.612417e-001
    outer loop
      vertex   2.164108e+002 1.700000e+002 -6.157417e+001
      vertex   2.014117e+002 1.700000e+002 -1.002911e+002
      vertex   2.014117e+002 0.000000e+000 -1.002911e+002
    endloop
  endfacet
  facet normal -9.829731e-001 0.000000e+000 1.837495e-001
    outer loop
      vertex   2.240402e+002 1.700000e+002 -2.076038e+001
      vertex   2.164108e+002 1.700000e+002 -6.157417e+001
      vertex   2.164108e+002 0.000000e+000 -6.157417e+001
    endloop
  endfacet
  facet normal -9.989330e-001 -1.497135e-017 4.618346e-002
    outer loop
      vertex   2.250000e+002 0.000000e+000 -6.888638e-014
      vertex   2.250000e+002 1.700000e+002 -1.377728e-014
      vertex   2.240402e+002 1.700000e+002 -2.076038e+001
    endloop
  endfacet
  facet normal -9.829731e-001 0.000000e+000 -1.837495e-001
    outer loop
      vertex   2.164108e+002 1.700000e+002 6.157417e+001
      vertex   2.240402e+002 1.700000e+002 2.076038e+001
      vertex   2.240402e+002 0.000000e+000 2.076038e+001
    endloop
  endfacet
  facet normal -9.324722e-001 0.000000e+000 -3.612417e-001
    outer loop
      vertex   2.014117e+002 1.700000e+002 1.002911e+002
      vertex   2.164108e+002 1.700000e+002 6.157417e+001
      vertex   2.164108e+002 0.000000e+000 6.157417e+001
    endloop
  endfacet
  facet normal -8.502171e-001 0.000000e+000 -5.264322e-001
    outer loop
      vertex   1.795539e+002 1.700000e+002 1.355928e+002
      vertex   2.014117e+002 1.700000e+002 1.002911e+002
      vertex   2.014117e+002 0.000000e+000 1.002911e+002
    endloop
  endfacet
  facet normal -7.390089e-001 0.000000e+000 -6.736956e-001
    outer loop
      vertex   1.515815e+002 1.700000e+002 1.662770e+002
      vertex   1.795539e+002 1.700000e+002 1.355928e+002
      vertex   1.795539e+002 0.000000e+000 1.355928e+002
    endloop
  endfacet
  facet normal -6.026346e-001 0.000000e+000 -7.980172e-001
    outer loop
      vertex   1.184472e+002 1.700000e+002 1.912989e+002
      vertex   1.515815e+002 1.700000e+002 1.662770e+002
      vertex   1.515815e+002 0.000000e+000 1.662770e+002
    endloop
  endfacet
  facet normal -4.457384e-001 0.000000e+000 -8.951633e-001
    outer loop
      vertex   8.127937e+001 1.700000e+002 2.098063e+002
      vertex   1.184472e+002 1.700000e+002 1.912989e+002
      vertex   1.184472e+002 0.000000e+000 1.912989e+002
    endloop
  endfacet
  facet normal -2.736630e-001 0.000000e+000 -9.618256e-001
    outer loop
      vertex   4.134364e+001 1.700000e+002 2.211689e+002
      vertex   8.127937e+001 1.700000e+002 2.098063e+002
      vertex   8.127937e+001 0.000000e+000 2.098063e+002
    endloop
  endfacet
  facet normal -9.226836e-002 0.000000e+000 -9.957342e-001
    outer loop
      vertex   2.755455e-014 1.700000e+002 2.250000e+002
      vertex   4.134364e+001 1.700000e+002 2.211689e+002
      vertex   4.134364e+001 0.000000e+000 2.211689e+002
    endloop
  endfacet
  facet normal 9.226836e-002 0.000000e+000 -9.957342e-001
    outer loop
      vertex   -4.134364e+001 1.700000e+002 2.211689e+002
      vertex   2.755455e-014 1.700000e+002 2.250000e+002
      vertex   2.755455e-014 0.000000e+000 2.250000e+002
    endloop
  endfacet
  facet normal 2.736630e-001 0.000000e+000 -9.618256e-001
    outer loop
      vertex   -8.127937e+001 1.700000e+002 2.098063e+002
      vertex   -4.134364e+001 1.700000e+002 2.211689e+002
      vertex   -4.134364e+001 0.000000e+000 2.211689e+002
    endloop
  endfacet
  facet normal 4.457384e-001 0.000000e+000 -8.951633e-001
    outer loop
      vertex   -1.184472e+002 1.700000e+002 1.912989e+002
      vertex   -8.127937e+001 1.700000e+002 2.098063e+002
      vertex   -8.127937e+001 0.000000e+000 2.098063e+002
    endloop
  endfacet
  facet normal 6.026346e-001 0.000000e+000 -7.980172e-001
    outer loop
      vertex   -1.515815e+002 1.700000e+002 1.662770e+002
      vertex   -1.184472e+002 1.700000e+002 1.912989e+002
      vertex   -1.184472e+002 0.000000e+000 1.912989e+002
    endloop
  endfacet
  facet normal 7.390089e-001 0.000000e+000 -6.736956e-001
    outer loop
      vertex   -1.795539e+002 1.700000e+002 1.355928e+002
      vertex   -1.515815e+002 1.700000e+002 1.662770e+002
      vertex   -1.515815e+002 0.000000e+000 1.662770e+002
    endloop
  endfacet
  facet normal 8.502171e-001 0.000000e+000 -5.264322e-001
    outer loop
      vertex   -2.014117e+002 1.700000e+002 1.002911e+002
      vertex   -1.795539e+002 1.700000e+002 1.355928e+002
      vertex   -1.795539e+002 0.000000e+000 1.355928e+002
    endloop
  endfacet
  facet normal 9.324722e-001 0.000000e+000 -3.612417e-001
    outer loop
      vertex   -2.164108e+002 1.700000e+002 6.157417e+001
      vertex   -2.014117e+002 1.700000e+002 1.002911e+002
      vertex   -2.014117e+002 0.000000e+000 1.002911e+002
    endloop
  endfacet
  facet normal 9.829731e-001 0.000000e+000 -1.837495e-001
    outer loop
      vertex   -2.240402e+002 1.700000e+002 2.076038e+001
      vertex   -2.164108e+002 1.700000e+002 6.157417e+001
      vertex   -2.164108e+002 0.000000e+000 6.157417e+001
    endloop
  endfacet
  facet normal 1.000000e+000 0.000000e+000 6.684746e-016
    outer loop
      vertex   -2.240402e+002 1.700000e+002 -2.076038e+001
      vertex   -2.240402e+002 1.700000e+002 2.076038e+001
      vertex   -2.240402e+002 0.000000e+000 2.076038e+001
    endloop
  endfacet
  facet normal 9.829731e-001 0.000000e+000 1.837495e-001
    outer loop
      vertex   -2.164108e+002 1.700000e+002 -6.157417e+001
      vertex   -2.240402e+002 1.700000e+002 -2.076038e+001
      vertex   -2.240402e+002 0.000000e+000 -2.076038e+001
    endloop
  endfacet
  facet normal 9.324722e-001 0.000000e+000 3.612417e-001
    outer loop
      vertex   -2.014117e+002 1.700000e+002 -1.002911e+002
      vertex   -2.164108e+002 1.700000e+002 -6.157417e+001
      vertex   -2.164108e+002 0.000000e+000 -6.157417e+001
    endloop
  endfacet
  facet normal 8.502171e-001 0.000000e+000 5.264322e-001
    outer loop
      vertex   -1.795539e+002 1.700000e+002 -1.355928e+002
      vertex   -2.014117e+002 1.700000e+002 -1.002911e+002
      vertex   -2.014117e+002 0.000000e+000 -1.002911e+002
    endloop
  endfacet
  facet normal 7.390089e-001 0.000000e+000 6.736956e-001
    outer loop
      vertex   -1.515815e+002 1.700000e+002 -1.662770e+002
      vertex   -1.795539e+002 1.700000e+002 -1.355928e+002
      vertex   -1.795539e+002 0.000000e+000 -1.355928e+002
    endloop
  endfacet
  facet normal 6.026346e-001 0.000000e+000 7.980172e-001
    outer loop
      vertex   -1.184472e+002 1.700000e+002 -1.912989e+002
      vertex   -1.515815e+002 1.700000e+002 -1.662770e+002
      vertex   -1.515815e+002 0.000000e+000 -1.662770e+002
    endloop
  endfacet
  facet normal 4.457384e-001 0.000000e+000 8.951633e-001
    outer loop
      vertex   -8.127937e+001 1.700000e+002 -2.098063e+002
      vertex   -1.184472e+002 1.700000e+002 -1.912989e+002
      vertex   -1.184472e+002 0.000000e+000 -1.912989e+002
    endloop
  endfacet
  facet normal 2.736630e-001 0.000000e+000 9.618256e-001
    outer loop
      vertex   -4.134364e+001 1.700000e+002 -2.211689e+002
      vertex   -8.127937e+001 1.700000e+002 -2.098063e+002
      vertex   -8.127937e+001 0.000000e+000 -2.098063e+002
    endloop
  endfacet
  facet normal 9.226836e-002 0.000000e+000 9.957342e-001
    outer loop
      vertex   -5.510911e-014 1.700000e+002 -2.250000e+002
      vertex   -4.134364e+001 1.700000e+002 -2.211689e+002
      vertex   -4.134364e+001 0.000000e+000 -2.211689e+002
    endloop
  endfacet
  facet normal 0.000000e+000 1.000000e+000 -0.000000e+000
    outer loop
      vertex   -1.802227e+002 1.700000e+002 -2.398328e+002
      vertex   -2.163607e+002 1.700000e+002 -2.078173e+002
      vertex   -1.515815e+002 1.700000e+002 -1.662770e+002
    endloop
  endfacet
  facet normal -0.000000e+000 1.000000e+000 0.000000e+000
    outer loop
      vertex   -2.805049e+002 1.700000e+002 1.063815e+002
      vertex   -2.598076e+002 1.700000e+002 1.500000e+002
      vertex   -2.014117e+002 1.700000e+002 1.002911e+002
    endloop
  endfacet
  facet normal 0.000000e+000 1.000000e+000 -0.000000e+000
    outer loop
      vertex   2.250000e+002 1.700000e+002 -1.377728e-014
      vertex   2.240402e+002 1.700000e+002 2.076038e+001
      vertex   2.997567e+002 1.700000e+002 1.207978e+001
    endloop
  endfacet
  facet normal 0.000000e+000 1.000000e+000 0.000000e+000
    outer loop
      vertex   3.000000e+002 1.700000e+002 -9.184851e-014
      vertex   2.978127e+002 1.700000e+002 -3.616100e+001
      vertex   2.240402e+002 1.700000e+002 -2.076038e+001
    endloop
  endfacet
  facet normal 0.000000e+000 1.000000e+000 0.000000e+000
    outer loop
      vertex   -1.394170e+002 1.700000e+002 -2.656368e+002
      vertex   -1.184472e+002 1.700000e+002 -1.912989e+002
      vertex   -8.127937e+001 1.700000e+002 -2.098063e+002
    endloop
  endfacet
  facet normal 0.000000e+000 1.000000e+000 0.000000e+000
    outer loop
      vertex   -1.184472e+002 1.700000e+002 -1.912989e+002
      vertex   -1.394170e+002 1.700000e+002 -2.656368e+002
      vertex   -1.802227e+002 1.700000e+002 -2.398328e+002
    endloop
  endfacet
  facet normal 0.000000e+000 1.000000e+000 0.000000e+000
    outer loop
      vertex   -2.164108e+002 1.700000e+002 6.157417e+001
      vertex   -2.939372e+002 1.700000e+002 6.000771e+001
      vertex   -2.805049e+002 1.700000e+002 1.063815e+002
    endloop
  endfacet
  facet normal -0.000000e+000 1.000000e+000 0.000000e+000
    outer loop
      vertex   -2.598076e+002 1.700000e+002 1.500000e+002
      vertex   -2.323815e+002 1.700000e+002 1.897336e+002
      vertex   -1.795539e+002 1.700000e+002 1.355928e+002
    endloop
  endfacet
  facet normal 0.000000e+000 1.000000e+000 0.000000e+000
    outer loop
      vertex   2.939372e+002 1.700000e+002 6.000771e+001
      vertex   2.997567e+002 1.700000e+002 1.207978e+001
      vertex   2.240402e+002 1.700000e+002 2.076038e+001
    endloop
  endfacet
  facet normal 0.000000e+000 1.000000e+000 0.000000e+000
    outer loop
      vertex   2.240402e+002 1.700000e+002 -2.076038e+001
      vertex   2.250000e+002 1.700000e+002 -1.377728e-014
      vertex   3.000000e+002 1.700000e+002 -9.184851e-014
    endloop
  endfacet
  facet normal 0.000000e+000 1.000000e+000 0.000000e+000
    outer loop
      vertex   1.802227e+002 1.700000e+002 -2.398328e+002
      vertex   1.184472e+002 1.700000e+002 -1.912989e+002
      vertex   1.515815e+002 1.700000e+002 -1.662770e+002
    endloop
  endfacet
  facet normal 0.000000e+000 1.000000e+000 0.000000e+000
    outer loop
      vertex   -1.515815e+002 1.700000e+002 -1.662770e+002
      vertex   -1.184472e+002 1.700000e+002 -1.912989e+002
      vertex   -1.802227e+002 1.700000e+002 -2.398328e+002
    endloop
  endfacet
  facet normal 0.000000e+000 1.000000e+000 -0.000000e+000
    outer loop
      vertex   -2.163607e+002 1.700000e+002 -2.078173e+002
      vertex   -2.468952e+002 1.700000e+002 -1.704194e+002
      vertex   -1.795539e+002 1.700000e+002 -1.355928e+002
    endloop
  endfacet
  facet normal 0.000000e+000 1.000000e+000 -0.000000e+000
    outer loop
      vertex   -2.710351e+002 1.700000e+002 -1.286078e+002
      vertex   -2.881554e+002 1.700000e+002 -8.346524e+001
      vertex   -2.164108e+002 1.700000e+002 -6.157417e+001
    endloop
  endfacet
  facet normal -0.000000e+000 1.000000e+000 0.000000e+000
    outer loop
      vertex   -2.978127e+002 1.700000e+002 -3.616100e+001
      vertex   -2.240402e+002 1.700000e+002 -2.076038e+001
      vertex   -2.164108e+002 1.700000e+002 -6.157417e+001
    endloop
  endfacet
  facet normal -0.000000e+000 1.000000e+000 0.000000e+000
    outer loop
      vertex   -2.939372e+002 1.700000e+002 6.000771e+001
      vertex   -2.164108e+002 1.700000e+002 6.157417e+001
      vertex   -2.240402e+002 1.700000e+002 2.076038e+001
    endloop
  endfacet
  facet normal 0.000000e+000 1.000000e+000 0.000000e+000
    outer loop
      vertex   -1.795539e+002 1.700000e+002 1.355928e+002
      vertex   -2.014117e+002 1.700000e+002 1.002911e+002
      vertex   -2.598076e+002 1.700000e+002 1.500000e+002
    endloop
  endfacet
  facet normal -0.000000e+000 1.000000e+000 0.000000e+000
    outer loop
      vertex   -2.323815e+002 1.700000e+002 1.897336e+002
      vertex   -1.989368e+002 1.700000e+002 2.245532e+002
      vertex   -1.515815e+002 1.700000e+002 1.662770e+002
    endloop
  endfacet
  facet normal -0.000000e+000 1.000000e+000 0.000000e+000
    outer loop
      vertex   -1.989368e+002 1.700000e+002 2.245532e+002
      vertex   -1.603397e+002 1.700000e+002 2.535570e+002
      vertex   -1.184472e+002 1.700000e+002 1.912989e+002
    endloop
  endfacet
  facet normal 0.000000e+000 1.000000e+000 0.000000e+000
    outer loop
      vertex   7.179470e+001 1.700000e+002 2.912825e+002
      vertex   1.175900e+002 1.700000e+002 2.759938e+002
      vertex   8.127937e+001 1.700000e+002 2.098063e+002
    endloop
  endfacet
  facet normal 0.000000e+000 1.000000e+000 0.000000e+000
    outer loop
      vertex   1.175900e+002 1.700000e+002 2.759938e+002
      vertex   1.603397e+002 1.700000e+002 2.535570e+002
      vertex   1.184472e+002 1.700000e+002 1.912989e+002
    endloop
  endfacet
  facet normal 0.000000e+000 1.000000e+000 0.000000e+000
    outer loop
      vertex   2.997567e+002 1.700000e+002 1.207978e+001
      vertex   3.000000e+002 1.700000e+002 -9.184851e-014
      vertex   2.250000e+002 1.700000e+002 -1.377728e-014
    endloop
  endfacet
  facet normal 0.000000e+000 1.000000e+000 0.000000e+000
    outer loop
      vertex   2.978127e+002 1.700000e+002 -3.616100e+001
      vertex   2.881554e+002 1.700000e+002 -8.346524e+001
      vertex   2.164108e+002 1.700000e+002 -6.157417e+001
    endloop
  endfacet
  facet normal 0.000000e+000 1.000000e+000 0.000000e+000
    outer loop
      vertex   2.163607e+002 1.700000e+002 -2.078173e+002
      vertex   1.515815e+002 1.700000e+002 -1.662770e+002
      vertex   1.795539e+002 1.700000e+002 -1.355928e+002
    endloop
  endfacet
  facet normal 0.000000e+000 1.000000e+000 0.000000e+000
    outer loop
      vertex   1.515815e+002 1.700000e+002 -1.662770e+002
      vertex   2.163607e+002 1.700000e+002 -2.078173e+002
      vertex   1.802227e+002 1.700000e+002 -2.398328e+002
    endloop
  endfacet
  facet normal 0.000000e+000 1.000000e+000 0.000000e+000
    outer loop
      vertex   9.500040e+001 1.700000e+002 -2.845609e+002
      vertex   4.812338e+001 1.700000e+002 -2.961151e+002
      vertex   4.134364e+001 1.700000e+002 -2.211689e+002
    endloop
  endfacet
  facet normal 0.000000e+000 1.000000e+000 0.000000e+000
    outer loop
      vertex   4.812338e+001 1.700000e+002 -2.961151e+002
      vertex   -7.347881e-014 1.700000e+002 -3.000000e+002
      vertex   -5.510911e-014 1.700000e+002 -2.250000e+002
    endloop
  endfacet
  facet normal 0.000000e+000 1.000000e+000 0.000000e+000
    outer loop
      vertex   -4.812338e+001 1.700000e+002 -2.961151e+002
      vertex   -4.134364e+001 1.700000e+002 -2.211689e+002
      vertex   -5.510911e-014 1.700000e+002 -2.250000e+002
    endloop
  endfacet
  facet normal 0.000000e+000 1.000000e+000 0.000000e+000
    outer loop
      vertex   -9.500040e+001 1.700000e+002 -2.845609e+002
      vertex   -8.127937e+001 1.700000e+002 -2.098063e+002
      vertex   -4.134364e+001 1.700000e+002 -2.211689e+002
    endloop
  endfacet
  facet normal 0.000000e+000 1.000000e+000 0.000000e+000
    outer loop
      vertex   -1.795539e+002 1.700000e+002 -1.355928e+002
      vertex   -1.515815e+002 1.700000e+002 -1.662770e+002
      vertex   -2.163607e+002 1.700000e+002 -2.078173e+002
    endloop
  endfacet
  facet normal 0.000000e+000 1.000000e+000 -0.000000e+000
    outer loop
      vertex   -2.468952e+002 1.700000e+002 -1.704194e+002
      vertex   -2.710351e+002 1.700000e+002 -1.286078e+002
      vertex   -2.014117e+002 1.700000e+002 -1.002911e+002
    endloop
  endfacet
  facet normal 0.000000e+000 1.000000e+000 0.000000e+000
    outer loop
      vertex   -2.164108e+002 1.700000e+002 -6.157417e+001
      vertex   -2.881554e+002 1.700000e+002 -8.346524e+001
      vertex   -2.978127e+002 1.700000e+002 -3.616100e+001
    endloop
  endfacet
  facet normal -0.000000e+000 1.000000e+000 0.000000e+000
    outer loop
      vertex   -2.997567e+002 1.700000e+002 1.207978e+001
      vertex   -2.240402e+002 1.700000e+002 2.076038e+001
      vertex   -2.240402e+002 1.700000e+002 -2.076038e+001
    endloop
  endfacet
  facet normal 0.000000e+000 1.000000e+000 0.000000e+000
    outer loop
      vertex   -2.014117e+002 1.700000e+002 1.002911e+002
      vertex   -2.164108e+002 1.700000e+002 6.157417e+001
      vertex   -2.805049e+002 1.700000e+002 1.063815e+002
    endloop
  endfacet
  facet normal 0.000000e+000 1.000000e+000 0.000000e+000
    outer loop
      vertex   -1.184472e+002 1.700000e+002 1.912989e+002
      vertex   -1.515815e+002 1.700000e+002 1.662770e+002
      vertex   -1.989368e+002 1.700000e+002 2.245532e+002
    endloop
  endfacet
  facet normal 0.000000e+000 1.000000e+000 0.000000e+000
    outer loop
      vertex   -1.175900e+002 1.700000e+002 2.759938e+002
      vertex   -8.127937e+001 1.700000e+002 2.098063e+002
      vertex   -1.184472e+002 1.700000e+002 1.912989e+002
    endloop
  endfacet
  facet normal 0.000000e+000 1.000000e+000 0.000000e+000
    outer loop
      vertex   -7.179470e+001 1.700000e+002 2.912825e+002
      vertex   -4.134364e+001 1.700000e+002 2.211689e+002
      vertex   -8.127937e+001 1.700000e+002 2.098063e+002
    endloop
  endfacet
  facet normal 0.000000e+000 1.000000e+000 0.000000e+000
    outer loop
      vertex   1.184472e+002 1.700000e+002 1.912989e+002
      vertex   8.127937e+001 1.700000e+002 2.098063e+002
      vertex   1.175900e+002 1.700000e+002 2.759938e+002
    endloop
  endfacet
  facet normal 0.000000e+000 1.000000e+000 0.000000e+000
    outer loop
      vertex   1.989368e+002 1.700000e+002 2.245532e+002
      vertex   1.515815e+002 1.700000e+002 1.662770e+002
      vertex   1.184472e+002 1.700000e+002 1.912989e+002
    endloop
  endfacet
  facet normal 0.000000e+000 1.000000e+000 0.000000e+000
    outer loop
      vertex   2.164108e+002 1.700000e+002 -6.157417e+001
      vertex   2.240402e+002 1.700000e+002 -2.076038e+001
      vertex   2.978127e+002 1.700000e+002 -3.616100e+001
    endloop
  endfacet
  facet normal 0.000000e+000 1.000000e+000 0.000000e+000
    outer loop
      vertex   2.710351e+002 1.700000e+002 -1.286078e+002
      vertex   2.014117e+002 1.700000e+002 -1.002911e+002
      vertex   2.164108e+002 1.700000e+002 -6.157417e+001
    endloop
  endfacet
  facet normal 0.000000e+000 1.000000e+000 0.000000e+000
    outer loop
      vertex   1.802227e+002 1.700000e+002 -2.398328e+002
      vertex   1.394170e+002 1.700000e+002 -2.656368e+002
      vertex   1.184472e+002 1.700000e+002 -1.912989e+002
    endloop
  endfacet
  facet normal 0.000000e+000 1.000000e+000 0.000000e+000
    outer loop
      vertex   1.394170e+002 1.700000e+002 -2.656368e+002
      vertex   9.500040e+001 1.700000e+002 -2.845609e+002
      vertex   8.127937e+001 1.700000e+002 -2.098063e+002
    endloop
  endfacet
  facet normal -0.000000e+000 1.000000e+000 0.000000e+000
    outer loop
      vertex   -5.510911e-014 1.700000e+002 -2.250000e+002
      vertex   4.134364e+001 1.700000e+002 -2.211689e+002
      vertex   4.812338e+001 1.700000e+002 -2.961151e+002
    endloop
  endfacet
  facet normal 0.000000e+000 1.000000e+000 0.000000e+000
    outer loop
      vertex   -4.134364e+001 1.700000e+002 -2.211689e+002
      vertex   -4.812338e+001 1.700000e+002 -2.961151e+002
      vertex   -9.500040e+001 1.700000e+002 -2.845609e+002
    endloop
  endfacet
  facet normal 0.000000e+000 1.000000e+000 0.000000e+000
    outer loop
      vertex   -2.014117e+002 1.700000e+002 -1.002911e+002
      vertex   -1.795539e+002 1.700000e+002 -1.355928e+002
      vertex   -2.468952e+002 1.700000e+002 -1.704194e+002
    endloop
  endfacet
  facet normal 0.000000e+000 1.000000e+000 0.000000e+000
    outer loop
      vertex   -2.240402e+002 1.700000e+002 -2.076038e+001
      vertex   -2.978127e+002 1.700000e+002 -3.616100e+001
      vertex   -2.997567e+002 1.700000e+002 1.207978e+001
    endloop
  endfacet
  facet normal 0.000000e+000 1.000000e+000 0.000000e+000
    outer loop
      vertex   -1.515815e+002 1.700000e+002 1.662770e+002
      vertex   -1.795539e+002 1.700000e+002 1.355928e+002
      vertex   -2.323815e+002 1.700000e+002 1.897336e+002
    endloop
  endfacet
  facet normal 0.000000e+000 1.000000e+000 -0.000000e+000
    outer loop
      vertex   -8.127937e+001 1.700000e+002 2.098063e+002
      vertex   -1.175900e+002 1.700000e+002 2.759938e+002
      vertex   -7.179470e+001 1.700000e+002 2.912825e+002
    endloop
  endfacet
  facet normal 0.000000e+000 1.000000e+000 0.000000e+000
    outer loop
      vertex   2.413997e+001 1.700000e+002 2.990272e+002
      vertex   7.179470e+001 1.700000e+002 2.912825e+002
      vertex   4.134364e+001 1.700000e+002 2.211689e+002
    endloop
  endfacet
  facet normal 0.000000e+000 1.000000e+000 0.000000e+000
    outer loop
      vertex   1.184472e+002 1.700000e+002 1.912989e+002
      vertex   1.603397e+002 1.700000e+002 2.535570e+002
      vertex   1.989368e+002 1.700000e+002 2.245532e+002
    endloop
  endfacet
  facet normal 0.000000e+000 1.000000e+000 0.000000e+000
    outer loop
      vertex   2.323815e+002 1.700000e+002 1.897336e+002
      vertex   1.795539e+002 1.700000e+002 1.355928e+002
      vertex   1.515815e+002 1.700000e+002 1.662770e+002
    endloop
  endfacet
  facet normal 0.000000e+000 1.000000e+000 0.000000e+000
    outer loop
      vertex   2.805049e+002 1.700000e+002 1.063815e+002
      vertex   2.164108e+002 1.700000e+002 6.157417e+001
      vertex   2.014117e+002 1.700000e+002 1.002911e+002
    endloop
  endfacet
  facet normal 0.000000e+000 1.000000e+000 0.000000e+000
    outer loop
      vertex   2.164108e+002 1.700000e+002 -6.157417e+001
      vertex   2.881554e+002 1.700000e+002 -8.346524e+001
      vertex   2.710351e+002 1.700000e+002 -1.286078e+002
    endloop
  endfacet
  facet normal 0.000000e+000 1.000000e+000 0.000000e+000
    outer loop
      vertex   2.468952e+002 1.700000e+002 -1.704194e+002
      vertex   1.795539e+002 1.700000e+002 -1.355928e+002
      vertex   2.014117e+002 1.700000e+002 -1.002911e+002
    endloop
  endfacet
  facet normal -0.000000e+000 1.000000e+000 0.000000e+000
    outer loop
      vertex   8.127937e+001 1.700000e+002 -2.098063e+002
      vertex   1.184472e+002 1.700000e+002 -1.912989e+002
      vertex   1.394170e+002 1.700000e+002 -2.656368e+002
    endloop
  endfacet
  facet normal 0.000000e+000 1.000000e+000 0.000000e+000
    outer loop
      vertex   -5.510911e-014 1.700000e+002 -2.250000e+002
      vertex   -7.347881e-014 1.700000e+002 -3.000000e+002
      vertex   -4.812338e+001 1.700000e+002 -2.961151e+002
    endloop
  endfacet
  facet normal 0.000000e+000 1.000000e+000 0.000000e+000
    outer loop
      vertex   -2.164108e+002 1.700000e+002 -6.157417e+001
      vertex   -2.014117e+002 1.700000e+002 -1.002911e+002
      vertex   -2.710351e+002 1.700000e+002 -1.286078e+002
    endloop
  endfacet
  facet normal 0.000000e+000 1.000000e+000 -0.000000e+000
    outer loop
      vertex   -1.184472e+002 1.700000e+002 1.912989e+002
      vertex   -1.603397e+002 1.700000e+002 2.535570e+002
      vertex   -1.175900e+002 1.700000e+002 2.759938e+002
    endloop
  endfacet
  facet normal 0.000000e+000 1.000000e+000 -0.000000e+000
    outer loop
      vertex   2.755455e-014 1.700000e+002 2.250000e+002
      vertex   -2.413997e+001 1.700000e+002 2.990272e+002
      vertex   2.413997e+001 1.700000e+002 2.990272e+002
    endloop
  endfacet
  facet normal 0.000000e+000 1.000000e+000 0.000000e+000
    outer loop
      vertex   1.515815e+002 1.700000e+002 1.662770e+002
      vertex   1.989368e+002 1.700000e+002 2.245532e+002
      vertex   2.323815e+002 1.700000e+002 1.897336e+002
    endloop
  endfacet
  facet normal 0.000000e+000 1.000000e+000 0.000000e+000
    outer loop
      vertex   2.598076e+002 1.700000e+002 1.500000e+002
      vertex   2.014117e+002 1.700000e+002 1.002911e+002
      vertex   1.795539e+002 1.700000e+002 1.355928e+002
    endloop
  endfacet
  facet normal 0.000000e+000 1.000000e+000 0.000000e+000
    outer loop
      vertex   2.014117e+002 1.700000e+002 1.002911e+002
      vertex   2.598076e+002 1.700000e+002 1.500000e+002
      vertex   2.805049e+002 1.700000e+002 1.063815e+002
    endloop
  endfacet
  facet normal 0.000000e+000 1.000000e+000 0.000000e+000
    outer loop
      vertex   2.014117e+002 1.700000e+002 -1.002911e+002
      vertex   2.710351e+002 1.700000e+002 -1.286078e+002
      vertex   2.468952e+002 1.700000e+002 -1.704194e+002
    endloop
  endfacet
  facet normal -0.000000e+000 1.000000e+000 0.000000e+000
    outer loop
      vertex   4.134364e+001 1.700000e+002 -2.211689e+002
      vertex   8.127937e+001 1.700000e+002 -2.098063e+002
      vertex   9.500040e+001 1.700000e+002 -2.845609e+002
    endloop
  endfacet
  facet normal 0.000000e+000 1.000000e+000 0.000000e+000
    outer loop
      vertex   -2.240402e+002 1.700000e+002 2.076038e+001
      vertex   -2.997567e+002 1.700000e+002 1.207978e+001
      vertex   -2.939372e+002 1.700000e+002 6.000771e+001
    endloop
  endfacet
  facet normal 0.000000e+000 1.000000e+000 0.000000e+000
    outer loop
      vertex   -2.413997e+001 1.700000e+002 2.990272e+002
      vertex   2.755455e-014 1.700000e+002 2.250000e+002
      vertex   -4.134364e+001 1.700000e+002 2.211689e+002
    endloop
  endfacet
  facet normal 0.000000e+000 1.000000e+000 0.000000e+000
    outer loop
      vertex   8.127937e+001 1.700000e+002 2.098063e+002
      vertex   4.134364e+001 1.700000e+002 2.211689e+002
      vertex   7.179470e+001 1.700000e+002 2.912825e+002
    endloop
  endfacet
  facet normal 0.000000e+000 1.000000e+000 0.000000e+000
    outer loop
      vertex   2.805049e+002 1.700000e+002 1.063815e+002
      vertex   2.939372e+002 1.700000e+002 6.000771e+001
      vertex   2.164108e+002 1.700000e+002 6.157417e+001
    endloop
  endfacet
  facet normal 0.000000e+000 1.000000e+000 0.000000e+000
    outer loop
      vertex   1.795539e+002 1.700000e+002 -1.355928e+002
      vertex   2.468952e+002 1.700000e+002 -1.704194e+002
      vertex   2.163607e+002 1.700000e+002 -2.078173e+002
    endloop
  endfacet
  facet normal 0.000000e+000 1.000000e+000 -0.000000e+000
    outer loop
      vertex   -4.134364e+001 1.700000e+002 2.211689e+002
      vertex   -7.179470e+001 1.700000e+002 2.912825e+002
      vertex   -2.413997e+001 1.700000e+002 2.990272e+002
    endloop
  endfacet
  facet normal 0.000000e+000 1.000000e+000 0.000000e+000
    outer loop
      vertex   1.795539e+002 1.700000e+002 1.355928e+002
      vertex   2.323815e+002 1.700000e+002 1.897336e+002
      vertex   2.598076e+002 1.700000e+002 1.500000e+002
    endloop
  endfacet
  facet normal 0.000000e+000 1.000000e+000 0.000000e+000
    outer loop
      vertex   -8.127937e+001 1.700000e+002 -2.098063e+002
      vertex   -9.500040e+001 1.700000e+002 -2.845609e+002
      vertex   -1.394170e+002 1.700000e+002 -2.656368e+002
    endloop
  endfacet
  facet normal 0.000000e+000 1.000000e+000 -0.000000e+000
    outer loop
      vertex   2.240402e+002 1.700000e+002 2.076038e+001
      vertex   2.164108e+002 1.700000e+002 6.157417e+001
      vertex   2.939372e+002 1.700000e+002 6.000771e+001
    endloop
  endfacet
  facet normal 0.000000e+000 1.000000e+000 0.000000e+000
    outer loop
      vertex   4.134364e+001 1.700000e+002 2.211689e+002
      vertex   2.755455e-014 1.700000e+002 2.250000e+002
      vertex   2.413997e+001 1.700000e+002 2.990272e+002
    endloop
  endfacet
  facet normal 8.046657e-002 0.000000e+000 -9.967573e-001
    outer loop
      vertex   -7.347881e-014 0.000000e+000 -3.000000e+002
      vertex   -7.347881e-014 1.700000e+002 -3.000000e+002
      vertex   4.812338e+001 1.700000e+002 -2.961151e+002
    endloop
  endfacet
  facet normal 2.393157e-001 0.000000e+000 -9.709418e-001
    outer loop
      vertex   4.812338e+001 0.000000e+000 -2.961151e+002
      vertex   4.812338e+001 1.700000e+002 -2.961151e+002
      vertex   9.500040e+001 1.700000e+002 -2.845609e+002
    endloop
  endfacet
  facet normal 3.919666e-001 0.000000e+000 -9.199794e-001
    outer loop
      vertex   9.500040e+001 0.000000e+000 -2.845609e+002
      vertex   9.500040e+001 1.700000e+002 -2.845609e+002
      vertex   1.394170e+002 1.700000e+002 -2.656368e+002
    endloop
  endfacet
  facet normal 5.344658e-001 0.000000e+000 -8.451901e-001
    outer loop
      vertex   1.394170e+002 0.000000e+000 -2.656368e+002
      vertex   1.394170e+002 1.700000e+002 -2.656368e+002
      vertex   1.802227e+002 1.700000e+002 -2.398328e+002
    endloop
  endfacet
  facet normal 6.631227e-001 0.000000e+000 -7.485107e-001
    outer loop
      vertex   1.802227e+002 0.000000e+000 -2.398328e+002
      vertex   1.802227e+002 1.700000e+002 -2.398328e+002
      vertex   2.163607e+002 1.700000e+002 -2.078173e+002
    endloop
  endfacet
  facet normal 7.746050e-001 0.000000e+000 -6.324454e-001
    outer loop
      vertex   2.163607e+002 0.000000e+000 -2.078173e+002
      vertex   2.163607e+002 1.700000e+002 -2.078173e+002
      vertex   2.468952e+002 1.700000e+002 -1.704194e+002
    endloop
  endfacet
  facet normal 8.660254e-001 0.000000e+000 -5.000000e-001
    outer loop
      vertex   2.468952e+002 0.000000e+000 -1.704194e+002
      vertex   2.468952e+002 1.700000e+002 -1.704194e+002
      vertex   2.710351e+002 1.700000e+002 -1.286078e+002
    endloop
  endfacet
  facet normal 9.350162e-001 0.000000e+000 -3.546049e-001
    outer loop
      vertex   2.710351e+002 0.000000e+000 -1.286078e+002
      vertex   2.710351e+002 1.700000e+002 -1.286078e+002
      vertex   2.881554e+002 1.700000e+002 -8.346524e+001
    endloop
  endfacet
  facet normal 9.797907e-001 0.000000e+000 -2.000257e-001
    outer loop
      vertex   2.881554e+002 0.000000e+000 -8.346524e+001
      vertex   2.881554e+002 1.700000e+002 -8.346524e+001
      vertex   2.978127e+002 1.700000e+002 -3.616100e+001
    endloop
  endfacet
  facet normal 9.997972e-001 0.000000e+000 2.013705e-002
    outer loop
      vertex   2.997567e+002 1.700000e+002 1.207978e+001
      vertex   2.997567e+002 0.000000e+000 1.207978e+001
      vertex   3.000000e+002 0.000000e+000 -1.836970e-014
    endloop
  endfacet
  facet normal 9.981756e-001 0.000000e+000 -6.037850e-002
    outer loop
      vertex   2.978127e+002 0.000000e+000 -3.616100e+001
      vertex   2.978127e+002 1.700000e+002 -3.616100e+001
      vertex   3.000000e+002 1.700000e+002 -9.184851e-014
    endloop
  endfacet
  facet normal 9.981756e-001 -2.609729e-017 -6.037850e-002
    outer loop
      vertex   3.000000e+002 1.700000e+002 -9.184851e-014
      vertex   3.000000e+002 0.000000e+000 -1.836970e-014
      vertex   2.978127e+002 0.000000e+000 -3.616100e+001
    endloop
  endfacet
  facet normal 9.927089e-001 -0.000000e+000 1.205367e-001
    outer loop
      vertex   2.997567e+002 0.000000e+000 1.207978e+001
      vertex   2.997567e+002 1.700000e+002 1.207978e+001
      vertex   2.939372e+002 1.700000e+002 6.000771e+001
    endloop
  endfacet
  facet normal 9.605181e-001 -0.000000e+000 2.782175e-001
    outer loop
      vertex   2.939372e+002 0.000000e+000 6.000771e+001
      vertex   2.939372e+002 1.700000e+002 6.000771e+001
      vertex   2.805049e+002 1.700000e+002 1.063815e+002
    endloop
  endfacet
  facet normal 9.034504e-001 -0.000000e+000 4.286926e-001
    outer loop
      vertex   2.805049e+002 0.000000e+000 1.063815e+002
      vertex   2.805049e+002 1.700000e+002 1.063815e+002
      vertex   2.598076e+002 1.700000e+002 1.500000e+002
    endloop
  endfacet
  facet normal 8.229839e-001 -0.000000e+000 5.680647e-001
    outer loop
      vertex   2.598076e+002 0.000000e+000 1.500000e+002
      vertex   2.598076e+002 1.700000e+002 1.500000e+002
      vertex   2.323815e+002 1.700000e+002 1.897336e+002
    endloop
  endfacet
  facet normal 7.212024e-001 -0.000000e+000 6.927244e-001
    outer loop
      vertex   2.323815e+002 0.000000e+000 1.897336e+002
      vertex   2.323815e+002 1.700000e+002 1.897336e+002
      vertex   1.989368e+002 1.700000e+002 2.245532e+002
    endloop
  endfacet
  facet normal 6.007423e-001 -0.000000e+000 7.994428e-001
    outer loop
      vertex   1.989368e+002 0.000000e+000 2.245532e+002
      vertex   1.989368e+002 1.700000e+002 2.245532e+002
      vertex   1.603397e+002 1.700000e+002 2.535570e+002
    endloop
  endfacet
  facet normal 4.647232e-001 -0.000000e+000 8.854560e-001
    outer loop
      vertex   1.603397e+002 0.000000e+000 2.535570e+002
      vertex   1.603397e+002 1.700000e+002 2.535570e+002
      vertex   1.175900e+002 1.700000e+002 2.759938e+002
    endloop
  endfacet
  facet normal 3.166680e-001 -0.000000e+000 9.485364e-001
    outer loop
      vertex   1.175900e+002 0.000000e+000 2.759938e+002
      vertex   1.175900e+002 1.700000e+002 2.759938e+002
      vertex   7.179470e+001 1.700000e+002 2.912825e+002
    endloop
  endfacet
  facet normal 1.604113e-001 -0.000000e+000 9.870503e-001
    outer loop
      vertex   7.179470e+001 0.000000e+000 2.912825e+002
      vertex   7.179470e+001 1.700000e+002 2.912825e+002
      vertex   2.413997e+001 1.700000e+002 2.990272e+002
    endloop
  endfacet
  facet normal 0.000000e+000 -0.000000e+000 1.000000e+000
    outer loop
      vertex   2.413997e+001 0.000000e+000 2.990272e+002
      vertex   2.413997e+001 1.700000e+002 2.990272e+002
      vertex   -2.413997e+001 1.700000e+002 2.990272e+002
    endloop
  endfacet
  facet normal -1.604113e-001 0.000000e+000 9.870503e-001
    outer loop
      vertex   -2.413997e+001 0.000000e+000 2.990272e+002
      vertex   -2.413997e+001 1.700000e+002 2.990272e+002
      vertex   -7.179470e+001 1.700000e+002 2.912825e+002
    endloop
  endfacet
  facet normal -3.166680e-001 0.000000e+000 9.485364e-001
    outer loop
      vertex   -7.179470e+001 0.000000e+000 2.912825e+002
      vertex   -7.179470e+001 1.700000e+002 2.912825e+002
      vertex   -1.175900e+002 1.700000e+002 2.759938e+002
    endloop
  endfacet
  facet normal -4.647232e-001 0.000000e+000 8.854560e-001
    outer loop
      vertex   -1.175900e+002 0.000000e+000 2.759938e+002
      vertex   -1.175900e+002 1.700000e+002 2.759938e+002
      vertex   -1.603397e+002 1.700000e+002 2.535570e+002
    endloop
  endfacet
  facet normal -6.007423e-001 0.000000e+000 7.994428e-001
    outer loop
      vertex   -1.603397e+002 0.000000e+000 2.535570e+002
      vertex   -1.603397e+002 1.700000e+002 2.535570e+002
      vertex   -1.989368e+002 1.700000e+002 2.245532e+002
    endloop
  endfacet
  facet normal -7.212024e-001 0.000000e+000 6.927244e-001
    outer loop
      vertex   -1.989368e+002 0.000000e+000 2.245532e+002
      vertex   -1.989368e+002 1.700000e+002 2.245532e+002
      vertex   -2.323815e+002 1.700000e+002 1.897336e+002
    endloop
  endfacet
  facet normal -8.229839e-001 0.000000e+000 5.680647e-001
    outer loop
      vertex   -2.323815e+002 0.000000e+000 1.897336e+002
      vertex   -2.323815e+002 1.700000e+002 1.897336e+002
      vertex   -2.598076e+002 1.700000e+002 1.500000e+002
    endloop
  endfacet
  facet normal -9.034504e-001 0.000000e+000 4.286926e-001
    outer loop
      vertex   -2.598076e+002 0.000000e+000 1.500000e+002
      vertex   -2.598076e+002 1.700000e+002 1.500000e+002
      vertex   -2.805049e+002 1.700000e+002 1.063815e+002
    endloop
  endfacet
  facet normal -9.605181e-001 0.000000e+000 2.782175e-001
    outer loop
      vertex   -2.805049e+002 0.000000e+000 1.063815e+002
      vertex   -2.805049e+002 1.700000e+002 1.063815e+002
      vertex   -2.939372e+002 1.700000e+002 6.000771e+001
    endloop
  endfacet
  facet normal -9.927089e-001 0.000000e+000 1.205367e-001
    outer loop
      vertex   -2.939372e+002 0.000000e+000 6.000771e+001
      vertex   -2.939372e+002 1.700000e+002 6.000771e+001
      vertex   -2.997567e+002 1.700000e+002 1.207978e+001
    endloop
  endfacet
  facet normal -9.991890e-001 0.000000e+000 -4.026594e-002
    outer loop
      vertex   -2.997567e+002 0.000000e+000 1.207978e+001
      vertex   -2.997567e+002 1.700000e+002 1.207978e+001
      vertex   -2.978127e+002 1.700000e+002 -3.616100e+001
    endloop
  endfacet
  facet normal -9.797907e-001 0.000000e+000 -2.000257e-001
    outer loop
      vertex   -2.978127e+002 0.000000e+000 -3.616100e+001
      vertex   -2.978127e+002 1.700000e+002 -3.616100e+001
      vertex   -2.881554e+002 1.700000e+002 -8.346524e+001
    endloop
  endfacet
  facet normal -9.350162e-001 0.000000e+000 -3.546049e-001
    outer loop
      vertex   -2.881554e+002 0.000000e+000 -8.346524e+001
      vertex   -2.881554e+002 1.700000e+002 -8.346524e+001
      vertex   -2.710351e+002 1.700000e+002 -1.286078e+002
    endloop
  endfacet
  facet normal -8.660254e-001 0.000000e+000 -5.000000e-001
    outer loop
      vertex   -2.710351e+002 0.000000e+000 -1.286078e+002
      vertex   -2.710351e+002 1.700000e+002 -1.286078e+002
      vertex   -2.468952e+002 1.700000e+002 -1.704194e+002
    endloop
  endfacet
  facet normal -7.746050e-001 0.000000e+000 -6.324454e-001
    outer loop
      vertex   -2.468952e+002 0.000000e+000 -1.704194e+002
      vertex   -2.468952e+002 1.700000e+002 -1.704194e+002
      vertex   -2.163607e+002 1.700000e+002 -2.078173e+002
    endloop
  endfacet
  facet normal -6.631227e-001 0.000000e+000 -7.485107e-001
    outer loop
      vertex   -2.163607e+002 0.000000e+000 -2.078173e+002
      vertex   -2.163607e+002 1.700000e+002 -2.078173e+002
      vertex   -1.802227e+002 1.700000e+002 -2.398328e+002
    endloop
  endfacet
  facet normal -5.344658e-001 0.000000e+000 -8.451901e-001
    outer loop
      vertex   -1.802227e+002 0.000000e+000 -2.398328e+002
      vertex   -1.802227e+002 1.700000e+002 -2.398328e+002
      vertex   -1.394170e+002 1.700000e+002 -2.656368e+002
    endloop
  endfacet
  facet normal -3.919666e-001 0.000000e+000 -9.199794e-001
    outer loop
      vertex   -1.394170e+002 0.000000e+000 -2.656368e+002
      vertex   -1.394170e+002 1.700000e+002 -2.656368e+002
      vertex   -9.500040e+001 1.700000e+002 -2.845609e+002
    endloop
  endfacet
  facet normal -2.393157e-001 0.000000e+000 -9.709418e-001
    outer loop
      vertex   -9.500040e+001 0.000000e+000 -2.845609e+002
      vertex   -9.500040e+001 1.700000e+002 -2.845609e+002
      vertex   -4.812338e+001 1.700000e+002 -2.961151e+002
    endloop
  endfacet
  facet normal -8.046657e-002 0.000000e+000 -9.967573e-001
    outer loop
      vertex   -4.812338e+001 0.000000e+000 -2.961151e+002
      vertex   -4.812338e+001 1.700000e+002 -2.961151e+002
      vertex   -7.347881e-014 1.700000e+002 -3.000000e+002
    endloop
  endfacet
  facet normal -8.046657e-002 -0.000000e+000 -9.967573e-001
    outer loop
      vertex   -7.347881e-014 1.700000e+002 -3.000000e+002
      vertex   -7.347881e-014 0.000000e+000 -3.000000e+002
      vertex   -4.812338e+001 0.000000e+000 -2.961151e+002
    endloop
  endfacet
  facet normal -2.393157e-001 -0.000000e+000 -9.709418e-001
    outer loop
      vertex   -4.812338e+001 1.700000e+002 -2.961151e+002
      vertex   -4.812338e+001 0.000000e+000 -2.961151e+002
      vertex   -9.500040e+001 0.000000e+000 -2.845609e+002
    endloop
  endfacet
  facet normal -3.919666e-001 -0.000000e+000 -9.199794e-001
    outer loop
      vertex   -9.500040e+001 1.700000e+002 -2.845609e+002
      vertex   -9.500040e+001 0.000000e+000 -2.845609e+002
      vertex   -1.394170e+002 0.000000e+000 -2.656368e+002
    endloop
  endfacet
  facet normal -5.344658e-001 -0.000000e+000 -8.451901e-001
    outer loop
      vertex   -1.394170e+002 1.700000e+002 -2.656368e+002
      vertex   -1.394170e+002 0.000000e+000 -2.656368e+002
      vertex   -1.802227e+002 0.000000e+000 -2.398328e+002
    endloop
  endfacet
  facet normal -6.631227e-001 -0.000000e+000 -7.485107e-001
    outer loop
      vertex   -1.802227e+002 1.700000e+002 -2.398328e+002
      vertex   -1.802227e+002 0.000000e+000 -2.398328e+002
      vertex   -2.163607e+002 0.000000e+000 -2.078173e+002
    endloop
  endfacet
  facet normal -7.746050e-001 -0.000000e+000 -6.324454e-001
    outer loop
      vertex   -2.163607e+002 1.700000e+002 -2.078173e+002
      vertex   -2.163607e+002 0.000000e+000 -2.078173e+002
      vertex   -2.468952e+002 0.000000e+000 -1.704194e+002
    endloop
  endfacet
  facet normal -8.660254e-001 -0.000000e+000 -5.000000e-001
    outer loop
      vertex   -2.468952e+002 1.700000e+002 -1.704194e+002
      vertex   -2.468952e+002 0.000000e+000 -1.704194e+002
      vertex   -2.710351e+002 0.000000e+000 -1.286078e+002
    endloop
  endfacet
  facet normal -9.350162e-001 -0.000000e+000 -3.546049e-001
    outer loop
      vertex   -2.710351e+002 1.700000e+002 -1.286078e+002
      vertex   -2.710351e+002 0.000000e+000 -1.286078e+002
      vertex   -2.881554e+002 0.000000e+000 -8.346524e+001
    endloop
  endfacet
  facet normal -9.797907e-001 -0.000000e+000 -2.000257e-001
    outer loop
      vertex   -2.881554e+002 1.700000e+002 -8.346524e+001
      vertex   -2.881554e+002 0.000000e+000 -8.346524e+001
      vertex   -2.978127e+002 0.000000e+000 -3.616100e+001
    endloop
  endfacet
  facet normal -9.991890e-001 -0.000000e+000 -4.026594e-002
    outer loop
      vertex   -2.978127e+002 1.700000e+002 -3.616100e+001
      vertex   -2.978127e+002 0.000000e+000 -3.616100e+001
      vertex   -2.997567e+002 0.000000e+000 1.207978e+001
    endloop
  endfacet
  facet normal -9.927089e-001 0.000000e+000 1.205367e-001
    outer loop
      vertex   -2.997567e+002 1.700000e+002 1.207978e+001
      vertex   -2.997567e+002 0.000000e+000 1.207978e+001
      vertex   -2.939372e+002 0.000000e+000 6.000771e+001
    endloop
  endfacet
  facet normal -9.605181e-001 0.000000e+000 2.782175e-001
    outer loop
      vertex   -2.939372e+002 1.700000e+002 6.000771e+001
      vertex   -2.939372e+002 0.000000e+000 6.000771e+001
      vertex   -2.805049e+002 0.000000e+000 1.063815e+002
    endloop
  endfacet
  facet normal -9.034504e-001 0.000000e+000 4.286926e-001
    outer loop
      vertex   -2.805049e+002 1.700000e+002 1.063815e+002
      vertex   -2.805049e+002 0.000000e+000 1.063815e+002
      vertex   -2.598076e+002 0.000000e+000 1.500000e+002
    endloop
  endfacet
  facet normal -8.229839e-001 0.000000e+000 5.680647e-001
    outer loop
      vertex   -2.598076e+002 1.700000e+002 1.500000e+002
      vertex   -2.598076e+002 0.000000e+000 1.500000e+002
      vertex   -2.323815e+002 0.000000e+000 1.897336e+002
    endloop
  endfacet
  facet normal -7.212024e-001 0.000000e+000 6.927244e-001
    outer loop
      vertex   -2.323815e+002 1.700000e+002 1.897336e+002
      vertex   -2.323815e+002 0.000000e+000 1.897336e+002
      vertex   -1.989368e+002 0.000000e+000 2.245532e+002
    endloop
  endfacet
  facet normal -6.007423e-001 0.000000e+000 7.994428e-001
    outer loop
      vertex   -1.989368e+002 1.700000e+002 2.245532e+002
      vertex   -1.989368e+002 0.000000e+000 2.245532e+002
      vertex   -1.603397e+002 0.000000e+000 2.535570e+002
    endloop
  endfacet
  facet normal -4.647232e-001 0.000000e+000 8.854560e-001
    outer loop
      vertex   -1.603397e+002 1.700000e+002 2.535570e+002
      vertex   -1.603397e+002 0.000000e+000 2.535570e+002
      vertex   -1.175900e+002 0.000000e+000 2.759938e+002
    endloop
  endfacet
  facet normal -3.166680e-001 0.000000e+000 9.485364e-001
    outer loop
      vertex   -1.175900e+002 1.700000e+002 2.759938e+002
      vertex   -1.175900e+002 0.000000e+000 2.759938e+002
      vertex   -7.179470e+001 0.000000e+000 2.912825e+002
    endloop
  endfacet
  facet normal -1.604113e-001 0.000000e+000 9.870503e-001
    outer loop
      vertex   -7.179470e+001 1.700000e+002 2.912825e+002
      vertex   -7.179470e+001 0.000000e+000 2.912825e+002
      vertex   -2.413997e+001 0.000000e+000 2.990272e+002
    endloop
  endfacet
  facet normal 0.000000e+000 0.000000e+000 1.000000e+000
    outer loop
      vertex   -2.413997e+001 1.700000e+002 2.990272e+002
      vertex   -2.413997e+001 0.000000e+000 2.990272e+002
      vertex   2.413997e+001 0.000000e+000 2.990272e+002
    endloop
  endfacet
  facet normal 1.604113e-001 0.000000e+000 9.870503e-001
    outer loop
      vertex   2.413997e+001 1.700000e+002 2.990272e+002
      vertex   2.413997e+001 0.000000e+000 2.990272e+002
      vertex   7.179470e+001 0.000000e+000 2.912825e+002
    endloop
  endfacet
  facet normal 3.166680e-001 0.000000e+000 9.485364e-001
    outer loop
      vertex   7.179470e+001 1.700000e+002 2.912825e+002
      vertex   7.179470e+001 0.000000e+000 2.912825e+002
      vertex   1.175900e+002 0.000000e+000 2.759938e+002
    endloop
  endfacet
  facet normal 4.647232e-001 0.000000e+000 8.854560e-001
    outer loop
      vertex   1.175900e+002 1.700000e+002 2.759938e+002
      vertex   1.175900e+002 0.000000e+000 2.759938e+002
      vertex   1.603397e+002 0.000000e+000 2.535570e+002
    endloop
  endfacet
  facet normal 6.007423e-001 0.000000e+000 7.994428e-001
    outer loop
      vertex   1.603397e+002 1.700000e+002 2.535570e+002
      vertex   1.603397e+002 0.000000e+000 2.535570e+002
      vertex   1.989368e+002 0.000000e+000 2.245532e+002
    endloop
  endfacet
  facet normal 7.212024e-001 0.000000e+000 6.927244e-001
    outer loop
      vertex   1.989368e+002 1.700000e+002 2.245532e+002
      vertex   1.989368e+002 0.000000e+000 2.245532e+002
      vertex   2.323815e+002 0.000000e+000 1.897336e+002
    endloop
  endfacet
  facet normal 8.229839e-001 0.000000e+000 5.680647e-001
    outer loop
      vertex   2.323815e+002 1.700000e+002 1.897336e+002
      vertex   2.323815e+002 0.000000e+000 1.897336e+002
      vertex   2.598076e+002 0.000000e+000 1.500000e+002
    endloop
  endfacet
  facet normal 9.034504e-001 0.000000e+000 4.286926e-001
    outer loop
      vertex   2.598076e+002 1.700000e+002 1.500000e+002
      vertex   2.598076e+002 0.000000e+000 1.500000e+002
      vertex   2.805049e+002 0.000000e+000 1.063815e+002
    endloop
  endfacet
  facet normal 9.605181e-001 0.000000e+000 2.782175e-001
    outer loop
      vertex   2.805049e+002 1.700000e+002 1.063815e+002
      vertex   2.805049e+002 0.000000e+000 1.063815e+002
      vertex   2.939372e+002 0.000000e+000 6.000771e+001
    endloop
  endfacet
  facet normal 9.927089e-001 0.000000e+000 1.205367e-001
    outer loop
      vertex   2.939372e+002 1.700000e+002 6.000771e+001
      vertex   2.939372e+002 0.000000e+000 6.000771e+001
      vertex   2.997567e+002 0.000000e+000 1.207978e+001
    endloop
  endfacet
  facet normal 9.997972e-001 8.703804e-018 2.013705e-002
    outer loop
      vertex   3.000000e+002 0.000000e+000 -1.836970e-014
      vertex   3.000000e+002 1.700000e+002 -9.184851e-014
      vertex   2.997567e+002 1.700000e+002 1.207978e+001
    endloop
  endfacet
  facet normal 9.797907e-001 0.000000e+000 -2.000257e-001
    outer loop
      vertex   2.978127e+002 1.700000e+002 -3.616100e+001
      vertex   2.978127e+002 0.000000e+000 -3.616100e+001
      vertex   2.881554e+002 0.000000e+000 -8.346524e+001
    endloop
  endfacet
  facet normal 9.350162e-001 0.000000e+000 -3.546049e-001
    outer loop
      vertex   2.881554e+002 1.700000e+002 -8.346524e+001
      vertex   2.881554e+002 0.000000e+000 -8.346524e+001
      vertex   2.710351e+002 0.000000e+000 -1.286078e+002
    endloop
  endfacet
  facet normal 8.660254e-001 0.000000e+000 -5.000000e-001
    outer loop
      vertex   2.710351e+002 1.700000e+002 -1.286078e+002
      vertex   2.710351e+002 0.000000e+000 -1.286078e+002
      vertex   2.468952e+002 0.000000e+000 -1.704194e+002
    endloop
  endfacet
  facet normal 7.746050e-001 0.000000e+000 -6.324454e-001
    outer loop
      vertex   2.468952e+002 1.700000e+002 -1.704194e+002
      vertex   2.468952e+002 0.000000e+000 -1.704194e+002
      vertex   2.163607e+002 0.000000e+000 -2.078173e+002
    endloop
  endfacet
  facet normal 6.631227e-001 0.000000e+000 -7.485107e-001
    outer loop
      vertex   2.163607e+002 1.700000e+002 -2.078173e+002
      vertex   2.163607e+002 0.000000e+000 -2.078173e+002
      vertex   1.802227e+002 0.000000e+000 -2.398328e+002
    endloop
  endfacet
  facet normal 5.344658e-001 0.000000e+000 -8.451901e-001
    outer loop
      vertex   1.802227e+002 1.700000e+002 -2.398328e+002
      vertex   1.802227e+002 0.000000e+000 -2.398328e+002
      vertex   1.394170e+002 0.000000e+000 -2.656368e+002
    endloop
  endfacet
  facet normal 3.919666e-001 0.000000e+000 -9.199794e-001
    outer loop
      vertex   1.394170e+002 1.700000e+002 -2.656368e+002
      vertex   1.394170e+002 0.000000e+000 -2.656368e+002
      vertex   9.500040e+001 0.000000e+000 -2.845609e+002
    endloop
  endfacet
  facet normal 2.393157e-001 0.000000e+000 -9.709418e-001
    outer loop
      vertex   9.500040e+001 1.700000e+002 -2.845609e+002
      vertex   9.500040e+001 0.000000e+000 -2.845609e+002
      vertex   4.812338e+001 0.000000e+000 -2.961151e+002
    endloop
  endfacet
  facet normal 8.046657e-002 0.000000e+000 -9.967573e-001
    outer loop
      vertex   4.812338e+001 1.700000e+002 -2.961151e+002
      vertex   4.812338e+001 0.000000e+000 -2.961151e+002
      vertex   -7.347881e-014 0.000000e+000 -3.000000e+002
    endloop
  endfacet
  facet normal -0.000000e+000 -1.000000e+000 0.000000e+000
    outer loop
      vertex   2.805049e+002 0.000000e+000 1.063815e+002
      vertex   2.598076e+002 0.000000e+000 1.500000e+002
      vertex   2.014117e+002 0.000000e+000 1.002911e+002
    endloop
  endfacet
  facet normal -0.000000e+000 -1.000000e+000 0.000000e+000
    outer loop
      vertex   2.323815e+002 0.000000e+000 1.897336e+002
      vertex   1.989368e+002 0.000000e+000 2.245532e+002
      vertex   1.515815e+002 0.000000e+000 1.662770e+002
    endloop
  endfacet
  facet normal -0.000000e+000 -1.000000e+000 0.000000e+000
    outer loop
      vertex   1.989368e+002 0.000000e+000 2.245532e+002
      vertex   1.603397e+002 0.000000e+000 2.535570e+002
      vertex   1.184472e+002 0.000000e+000 1.912989e+002
    endloop
  endfacet
  facet normal 0.000000e+000 -1.000000e+000 -0.000000e+000
    outer loop
      vertex   1.175900e+002 0.000000e+000 2.759938e+002
      vertex   8.127937e+001 0.000000e+000 2.098063e+002
      vertex   1.184472e+002 0.000000e+000 1.912989e+002
    endloop
  endfacet
  facet normal 0.000000e+000 -1.000000e+000 -0.000000e+000
    outer loop
      vertex   7.179470e+001 0.000000e+000 2.912825e+002
      vertex   4.134364e+001 0.000000e+000 2.211689e+002
      vertex   8.127937e+001 0.000000e+000 2.098063e+002
    endloop
  endfacet
  facet normal 0.000000e+000 -1.000000e+000 0.000000e+000
    outer loop
      vertex   -7.179470e+001 0.000000e+000 2.912825e+002
      vertex   -1.175900e+002 0.000000e+000 2.759938e+002
      vertex   -8.127937e+001 0.000000e+000 2.098063e+002
    endloop
  endfacet
  facet normal 0.000000e+000 -1.000000e+000 0.000000e+000
    outer loop
      vertex   -1.175900e+002 0.000000e+000 2.759938e+002
      vertex   -1.603397e+002 0.000000e+000 2.535570e+002
      vertex   -1.184472e+002 0.000000e+000 1.912989e+002
    endloop
  endfacet
  facet normal 0.000000e+000 -1.000000e+000 0.000000e+000
    outer loop
      vertex   -1.989368e+002 0.000000e+000 2.245532e+002
      vertex   -1.515815e+002 0.000000e+000 1.662770e+002
      vertex   -1.184472e+002 0.000000e+000 1.912989e+002
    endloop
  endfacet
  facet normal 0.000000e+000 -1.000000e+000 0.000000e+000
    outer loop
      vertex   -2.323815e+002 0.000000e+000 1.897336e+002
      vertex   -1.795539e+002 0.000000e+000 1.355928e+002
      vertex   -1.515815e+002 0.000000e+000 1.662770e+002
    endloop
  endfacet
  facet normal 0.000000e+000 -1.000000e+000 0.000000e+000
    outer loop
      vertex   -2.805049e+002 0.000000e+000 1.063815e+002
      vertex   -2.164108e+002 0.000000e+000 6.157417e+001
      vertex   -2.014117e+002 0.000000e+000 1.002911e+002
    endloop
  endfacet
  facet normal 0.000000e+000 -1.000000e+000 0.000000e+000
    outer loop
      vertex   1.802227e+002 0.000000e+000 -2.398328e+002
      vertex   2.163607e+002 0.000000e+000 -2.078173e+002
      vertex   1.515815e+002 0.000000e+000 -1.662770e+002
    endloop
  endfacet
  facet normal 0.000000e+000 -1.000000e+000 0.000000e+000
    outer loop
      vertex   3.000000e+002 0.000000e+000 -1.836970e-014
      vertex   2.250000e+002 0.000000e+000 -6.888638e-014
      vertex   2.240402e+002 0.000000e+000 -2.076038e+001
    endloop
  endfacet
  facet normal 0.000000e+000 -1.000000e+000 0.000000e+000
    outer loop
      vertex   2.250000e+002 0.000000e+000 -6.888638e-014
      vertex   3.000000e+002 0.000000e+000 -1.836970e-014
      vertex   2.997567e+002 0.000000e+000 1.207978e+001
    endloop
  endfacet
  facet normal 0.000000e+000 -1.000000e+000 0.000000e+000
    outer loop
      vertex   2.164108e+002 0.000000e+000 6.157417e+001
      vertex   2.939372e+002 0.000000e+000 6.000771e+001
      vertex   2.805049e+002 0.000000e+000 1.063815e+002
    endloop
  endfacet
  facet normal -0.000000e+000 -1.000000e+000 0.000000e+000
    outer loop
      vertex   2.598076e+002 0.000000e+000 1.500000e+002
      vertex   2.323815e+002 0.000000e+000 1.897336e+002
      vertex   1.795539e+002 0.000000e+000 1.355928e+002
    endloop
  endfacet
  facet normal 0.000000e+000 -1.000000e+000 0.000000e+000
    outer loop
      vertex   1.184472e+002 0.000000e+000 1.912989e+002
      vertex   1.515815e+002 0.000000e+000 1.662770e+002
      vertex   1.989368e+002 0.000000e+000 2.245532e+002
    endloop
  endfacet
  facet normal 0.000000e+000 -1.000000e+000 0.000000e+000
    outer loop
      vertex   8.127937e+001 0.000000e+000 2.098063e+002
      vertex   1.175900e+002 0.000000e+000 2.759938e+002
      vertex   7.179470e+001 0.000000e+000 2.912825e+002
    endloop
  endfacet
  facet normal 0.000000e+000 -1.000000e+000 -0.000000e+000
    outer loop
      vertex   2.413997e+001 0.000000e+000 2.990272e+002
      vertex   2.755455e-014 0.000000e+000 2.250000e+002
      vertex   4.134364e+001 0.000000e+000 2.211689e+002
    endloop
  endfacet
  facet normal 0.000000e+000 -1.000000e+000 0.000000e+000
    outer loop
      vertex   -1.184472e+002 0.000000e+000 1.912989e+002
      vertex   -8.127937e+001 0.000000e+000 2.098063e+002
      vertex   -1.175900e+002 0.000000e+000 2.759938e+002
    endloop
  endfacet
  facet normal 0.000000e+000 -1.000000e+000 0.000000e+000
    outer loop
      vertex   -1.515815e+002 0.000000e+000 1.662770e+002
      vertex   -1.989368e+002 0.000000e+000 2.245532e+002
      vertex   -2.323815e+002 0.000000e+000 1.897336e+002
    endloop
  endfacet
  facet normal 0.000000e+000 -1.000000e+000 0.000000e+000
    outer loop
      vertex   -2.598076e+002 0.000000e+000 1.500000e+002
      vertex   -2.014117e+002 0.000000e+000 1.002911e+002
      vertex   -1.795539e+002 0.000000e+000 1.355928e+002
    endloop
  endfacet
  facet normal 0.000000e+000 -1.000000e+000 0.000000e+000
    outer loop
      vertex   -2.014117e+002 0.000000e+000 1.002911e+002
      vertex   -2.598076e+002 0.000000e+000 1.500000e+002
      vertex   -2.805049e+002 0.000000e+000 1.063815e+002
    endloop
  endfacet
  facet normal 0.000000e+000 -1.000000e+000 0.000000e+000
    outer loop
      vertex   -2.978127e+002 0.000000e+000 -3.616100e+001
      vertex   -2.881554e+002 0.000000e+000 -8.346524e+001
      vertex   -2.164108e+002 0.000000e+000 -6.157417e+001
    endloop
  endfacet
  facet normal 0.000000e+000 -1.000000e+000 0.000000e+000
    outer loop
      vertex   -2.710351e+002 0.000000e+000 -1.286078e+002
      vertex   -2.014117e+002 0.000000e+000 -1.002911e+002
      vertex   -2.164108e+002 0.000000e+000 -6.157417e+001
    endloop
  endfacet
  facet normal 0.000000e+000 -1.000000e+000 0.000000e+000
    outer loop
      vertex   -1.802227e+002 0.000000e+000 -2.398328e+002
      vertex   -1.184472e+002 0.000000e+000 -1.912989e+002
      vertex   -1.515815e+002 0.000000e+000 -1.662770e+002
    endloop
  endfacet
  facet normal 0.000000e+000 -1.000000e+000 0.000000e+000
    outer loop
      vertex   1.184472e+002 0.000000e+000 -1.912989e+002
      vertex   1.394170e+002 0.000000e+000 -2.656368e+002
      vertex   1.802227e+002 0.000000e+000 -2.398328e+002
    endloop
  endfacet
  facet normal 0.000000e+000 -1.000000e+000 0.000000e+000
    outer loop
      vertex   2.163607e+002 0.000000e+000 -2.078173e+002
      vertex   2.468952e+002 0.000000e+000 -1.704194e+002
      vertex   1.795539e+002 0.000000e+000 -1.355928e+002
    endloop
  endfacet
  facet normal -0.000000e+000 -1.000000e+000 0.000000e+000
    outer loop
      vertex   2.997567e+002 0.000000e+000 1.207978e+001
      vertex   2.240402e+002 0.000000e+000 2.076038e+001
      vertex   2.250000e+002 0.000000e+000 -6.888638e-014
    endloop
  endfacet
  facet normal -0.000000e+000 -1.000000e+000 0.000000e+000
    outer loop
      vertex   2.939372e+002 0.000000e+000 6.000771e+001
      vertex   2.164108e+002 0.000000e+000 6.157417e+001
      vertex   2.240402e+002 0.000000e+000 2.076038e+001
    endloop
  endfacet
  facet normal 0.000000e+000 -1.000000e+000 0.000000e+000
    outer loop
      vertex   1.795539e+002 0.000000e+000 1.355928e+002
      vertex   2.014117e+002 0.000000e+000 1.002911e+002
      vertex   2.598076e+002 0.000000e+000 1.500000e+002
    endloop
  endfacet
  facet normal 0.000000e+000 -1.000000e+000 0.000000e+000
    outer loop
      vertex   1.184472e+002 0.000000e+000 1.912989e+002
      vertex   1.603397e+002 0.000000e+000 2.535570e+002
      vertex   1.175900e+002 0.000000e+000 2.759938e+002
    endloop
  endfacet
  facet normal 0.000000e+000 -1.000000e+000 0.000000e+000
    outer loop
      vertex   4.134364e+001 0.000000e+000 2.211689e+002
      vertex   7.179470e+001 0.000000e+000 2.912825e+002
      vertex   2.413997e+001 0.000000e+000 2.990272e+002
    endloop
  endfacet
  facet normal 0.000000e+000 -1.000000e+000 0.000000e+000
    outer loop
      vertex   -2.413997e+001 0.000000e+000 2.990272e+002
      vertex   -7.179470e+001 0.000000e+000 2.912825e+002
      vertex   -4.134364e+001 0.000000e+000 2.211689e+002
    endloop
  endfacet
  facet normal 0.000000e+000 -1.000000e+000 0.000000e+000
    outer loop
      vertex   -1.184472e+002 0.000000e+000 1.912989e+002
      vertex   -1.603397e+002 0.000000e+000 2.535570e+002
      vertex   -1.989368e+002 0.000000e+000 2.245532e+002
    endloop
  endfacet
  facet normal 0.000000e+000 -1.000000e+000 -0.000000e+000
    outer loop
      vertex   -2.805049e+002 0.000000e+000 1.063815e+002
      vertex   -2.939372e+002 0.000000e+000 6.000771e+001
      vertex   -2.164108e+002 0.000000e+000 6.157417e+001
    endloop
  endfacet
  facet normal 0.000000e+000 -1.000000e+000 0.000000e+000
    outer loop
      vertex   -2.997567e+002 0.000000e+000 1.207978e+001
      vertex   -2.978127e+002 0.000000e+000 -3.616100e+001
      vertex   -2.240402e+002 0.000000e+000 -2.076038e+001
    endloop
  endfacet
  facet normal 0.000000e+000 -1.000000e+000 0.000000e+000
    outer loop
      vertex   -2.164108e+002 0.000000e+000 -6.157417e+001
      vertex   -2.881554e+002 0.000000e+000 -8.346524e+001
      vertex   -2.710351e+002 0.000000e+000 -1.286078e+002
    endloop
  endfacet
  facet normal 0.000000e+000 -1.000000e+000 0.000000e+000
    outer loop
      vertex   -1.515815e+002 0.000000e+000 -1.662770e+002
      vertex   -2.163607e+002 0.000000e+000 -2.078173e+002
      vertex   -1.802227e+002 0.000000e+000 -2.398328e+002
    endloop
  endfacet
  facet normal 0.000000e+000 -1.000000e+000 0.000000e+000
    outer loop
      vertex   -1.394170e+002 0.000000e+000 -2.656368e+002
      vertex   -9.500040e+001 0.000000e+000 -2.845609e+002
      vertex   -8.127937e+001 0.000000e+000 -2.098063e+002
    endloop
  endfacet
  facet normal 0.000000e+000 -1.000000e+000 0.000000e+000
    outer loop
      vertex   4.812338e+001 0.000000e+000 -2.961151e+002
      vertex   4.134364e+001 0.000000e+000 -2.211689e+002
      vertex   -5.510911e-014 0.000000e+000 -2.250000e+002
    endloop
  endfacet
  facet normal 0.000000e+000 -1.000000e+000 0.000000e+000
    outer loop
      vertex   9.500040e+001 0.000000e+000 -2.845609e+002
      vertex   8.127937e+001 0.000000e+000 -2.098063e+002
      vertex   4.134364e+001 0.000000e+000 -2.211689e+002
    endloop
  endfacet
  facet normal 0.000000e+000 -1.000000e+000 0.000000e+000
    outer loop
      vertex   1.394170e+002 0.000000e+000 -2.656368e+002
      vertex   1.184472e+002 0.000000e+000 -1.912989e+002
      vertex   8.127937e+001 0.000000e+000 -2.098063e+002
    endloop
  endfacet
  facet normal 0.000000e+000 -1.000000e+000 -0.000000e+000
    outer loop
      vertex   1.795539e+002 0.000000e+000 -1.355928e+002
      vertex   1.515815e+002 0.000000e+000 -1.662770e+002
      vertex   2.163607e+002 0.000000e+000 -2.078173e+002
    endloop
  endfacet
  facet normal 0.000000e+000 -1.000000e+000 0.000000e+000
    outer loop
      vertex   2.468952e+002 0.000000e+000 -1.704194e+002
      vertex   2.710351e+002 0.000000e+000 -1.286078e+002
      vertex   2.014117e+002 0.000000e+000 -1.002911e+002
    endloop
  endfacet
  facet normal 0.000000e+000 -1.000000e+000 0.000000e+000
    outer loop
      vertex   2.710351e+002 0.000000e+000 -1.286078e+002
      vertex   2.881554e+002 0.000000e+000 -8.346524e+001
      vertex   2.164108e+002 0.000000e+000 -6.157417e+001
    endloop
  endfacet
  facet normal -0.000000e+000 -1.000000e+000 0.000000e+000
    outer loop
      vertex   2.978127e+002 0.000000e+000 -3.616100e+001
      vertex   2.240402e+002 0.000000e+000 -2.076038e+001
      vertex   2.164108e+002 0.000000e+000 -6.157417e+001
    endloop
  endfacet
  facet normal 0.000000e+000 -1.000000e+000 0.000000e+000
    outer loop
      vertex   2.240402e+002 0.000000e+000 2.076038e+001
      vertex   2.997567e+002 0.000000e+000 1.207978e+001
      vertex   2.939372e+002 0.000000e+000 6.000771e+001
    endloop
  endfacet
  facet normal 0.000000e+000 -1.000000e+000 0.000000e+000
    outer loop
      vertex   1.515815e+002 0.000000e+000 1.662770e+002
      vertex   1.795539e+002 0.000000e+000 1.355928e+002
      vertex   2.323815e+002 0.000000e+000 1.897336e+002
    endloop
  endfacet
  facet normal 0.000000e+000 -1.000000e+000 0.000000e+000
    outer loop
      vertex   -4.134364e+001 0.000000e+000 2.211689e+002
      vertex   2.755455e-014 0.000000e+000 2.250000e+002
      vertex   -2.413997e+001 0.000000e+000 2.990272e+002
    endloop
  endfacet
  facet normal 0.000000e+000 -1.000000e+000 0.000000e+000
    outer loop
      vertex   -1.795539e+002 0.000000e+000 1.355928e+002
      vertex   -2.323815e+002 0.000000e+000 1.897336e+002
      vertex   -2.598076e+002 0.000000e+000 1.500000e+002
    endloop
  endfacet
  facet normal 0.000000e+000 -1.000000e+000 -0.000000e+000
    outer loop
      vertex   -2.939372e+002 0.000000e+000 6.000771e+001
      vertex   -2.997567e+002 0.000000e+000 1.207978e+001
      vertex   -2.240402e+002 0.000000e+000 2.076038e+001
    endloop
  endfacet
  facet normal 0.000000e+000 -1.000000e+000 0.000000e+000
    outer loop
      vertex   -2.164108e+002 0.000000e+000 -6.157417e+001
      vertex   -2.240402e+002 0.000000e+000 -2.076038e+001
      vertex   -2.978127e+002 0.000000e+000 -3.616100e+001
    endloop
  endfacet
  facet normal 0.000000e+000 -1.000000e+000 0.000000e+000
    outer loop
      vertex   -2.468952e+002 0.000000e+000 -1.704194e+002
      vertex   -1.795539e+002 0.000000e+000 -1.355928e+002
      vertex   -2.014117e+002 0.000000e+000 -1.002911e+002
    endloop
  endfacet
  facet normal 0.000000e+000 -1.000000e+000 0.000000e+000
    outer loop
      vertex   -2.163607e+002 0.000000e+000 -2.078173e+002
      vertex   -1.515815e+002 0.000000e+000 -1.662770e+002
      vertex   -1.795539e+002 0.000000e+000 -1.355928e+002
    endloop
  endfacet
  facet normal -0.000000e+000 -1.000000e+000 0.000000e+000
    outer loop
      vertex   -8.127937e+001 0.000000e+000 -2.098063e+002
      vertex   -1.184472e+002 0.000000e+000 -1.912989e+002
      vertex   -1.394170e+002 0.000000e+000 -2.656368e+002
    endloop
  endfacet
  facet normal 0.000000e+000 -1.000000e+000 0.000000e+000
    outer loop
      vertex   4.134364e+001 0.000000e+000 -2.211689e+002
      vertex   4.812338e+001 0.000000e+000 -2.961151e+002
      vertex   9.500040e+001 0.000000e+000 -2.845609e+002
    endloop
  endfacet
  facet normal 0.000000e+000 -1.000000e+000 -0.000000e+000
    outer loop
      vertex   1.515815e+002 0.000000e+000 -1.662770e+002
      vertex   1.184472e+002 0.000000e+000 -1.912989e+002
      vertex   1.802227e+002 0.000000e+000 -2.398328e+002
    endloop
  endfacet
  facet normal 0.000000e+000 -1.000000e+000 -0.000000e+000
    outer loop
      vertex   2.164108e+002 0.000000e+000 -6.157417e+001
      vertex   2.014117e+002 0.000000e+000 -1.002911e+002
      vertex   2.710351e+002 0.000000e+000 -1.286078e+002
    endloop
  endfacet
  facet normal 0.000000e+000 -1.000000e+000 0.000000e+000
    outer loop
      vertex   2.240402e+002 0.000000e+000 -2.076038e+001
      vertex   2.978127e+002 0.000000e+000 -3.616100e+001
      vertex   3.000000e+002 0.000000e+000 -1.836970e-014
    endloop
  endfacet
  facet normal -0.000000e+000 -1.000000e+000 0.000000e+000
    outer loop
      vertex   2.413997e+001 0.000000e+000 2.990272e+002
      vertex   -2.413997e+001 0.000000e+000 2.990272e+002
      vertex   2.755455e-014 0.000000e+000 2.250000e+002
    endloop
  endfacet
  facet normal 0.000000e+000 -1.000000e+000 0.000000e+000
    outer loop
      vertex   -2.240402e+002 0.000000e+000 2.076038e+001
      vertex   -2.164108e+002 0.000000e+000 6.157417e+001
      vertex   -2.939372e+002 0.000000e+000 6.000771e+001
    endloop
  endfacet
  facet normal 0.000000e+000 -1.000000e+000 0.000000e+000
    outer loop
      vertex   -2.014117e+002 0.000000e+000 -1.002911e+002
      vertex   -2.710351e+002 0.000000e+000 -1.286078e+002
      vertex   -2.468952e+002 0.000000e+000 -1.704194e+002
    endloop
  endfacet
  facet normal 0.000000e+000 -1.000000e+000 0.000000e+000
    outer loop
      vertex   -1.802227e+002 0.000000e+000 -2.398328e+002
      vertex   -1.394170e+002 0.000000e+000 -2.656368e+002
      vertex   -1.184472e+002 0.000000e+000 -1.912989e+002
    endloop
  endfacet
  facet normal 0.000000e+000 -1.000000e+000 0.000000e+000
    outer loop
      vertex   8.127937e+001 0.000000e+000 -2.098063e+002
      vertex   9.500040e+001 0.000000e+000 -2.845609e+002
      vertex   1.394170e+002 0.000000e+000 -2.656368e+002
    endloop
  endfacet
  facet normal 0.000000e+000 -1.000000e+000 0.000000e+000
    outer loop
      vertex   2.164108e+002 0.000000e+000 -6.157417e+001
      vertex   2.881554e+002 0.000000e+000 -8.346524e+001
      vertex   2.978127e+002 0.000000e+000 -3.616100e+001
    endloop
  endfacet
  facet normal 0.000000e+000 -1.000000e+000 0.000000e+000
    outer loop
      vertex   -8.127937e+001 0.000000e+000 2.098063e+002
      vertex   -4.134364e+001 0.000000e+000 2.211689e+002
      vertex   -7.179470e+001 0.000000e+000 2.912825e+002
    endloop
  endfacet
  facet normal 0.000000e+000 -1.000000e+000 0.000000e+000
    outer loop
      vertex   -1.795539e+002 0.000000e+000 -1.355928e+002
      vertex   -2.468952e+002 0.000000e+000 -1.704194e+002
      vertex   -2.163607e+002 0.000000e+000 -2.078173e+002
    endloop
  endfacet
  facet normal 0.000000e+000 -1.000000e+000 -0.000000e+000
    outer loop
      vertex   2.014117e+002 0.000000e+000 -1.002911e+002
      vertex   1.795539e+002 0.000000e+000 -1.355928e+002
      vertex   2.468952e+002 0.000000e+000 -1.704194e+002
    endloop
  endfacet
  facet normal 0.000000e+000 -1.000000e+000 0.000000e+000
    outer loop
      vertex   -2.240402e+002 0.000000e+000 -2.076038e+001
      vertex   -2.240402e+002 0.000000e+000 2.076038e+001
      vertex   -2.997567e+002 0.000000e+000 1.207978e+001
    endloop
  endfacet
  facet normal 0.000000e+000 -1.000000e+000 0.000000e+000
    outer loop
      vertex   -9.500040e+001 0.000000e+000 -2.845609e+002
      vertex   -4.812338e+001 0.000000e+000 -2.961151e+002
      vertex   -4.134364e+001 0.000000e+000 -2.211689e+002
    endloop
  endfacet
  facet normal 0.000000e+000 -1.000000e+000 0.000000e+000
    outer loop
      vertex   -4.812338e+001 0.000000e+000 -2.961151e+002
      vertex   -7.347881e-014 0.000000e+000 -3.000000e+002
      vertex   -5.510911e-014 0.000000e+000 -2.250000e+002
    endloop
  endfacet
  facet normal 0.000000e+000 -1.000000e+000 0.000000e+000
    outer loop
      vertex   2.014117e+002 0.000000e+000 1.002911e+002
      vertex   2.164108e+002 0.000000e+000 6.157417e+001
      vertex   2.805049e+002 0.000000e+000 1.063815e+002
    endloop
  endfacet
  facet normal -0.000000e+000 -1.000000e+000 0.000000e+000
    outer loop
      vertex   -5.510911e-014 0.000000e+000 -2.250000e+002
      vertex   -4.134364e+001 0.000000e+000 -2.211689e+002
      vertex   -4.812338e+001 0.000000e+000 -2.961151e+002
    endloop
  endfacet
  facet normal -0.000000e+000 -1.000000e+000 0.000000e+000
    outer loop
      vertex   -4.134364e+001 0.000000e+000 -2.211689e+002
      vertex   -8.127937e+001 0.000000e+000 -2.098063e+002
      vertex   -9.500040e+001 0.000000e+000 -2.845609e+002
    endloop
  endfacet
  facet normal 0.000000e+000 -1.000000e+000 -0.000000e+000
    outer loop
      vertex   -5.510911e-014 0.000000e+000 -2.250000e+002
      vertex   -7.347881e-014 0.000000e+000 -3.000000e+002
      vertex   4.812338e+001 0.000000e+000 -2.961151e+002
    endloop
  endfacet
endsolid
