solid Chumacera
  facet normal 0.000000e+000 0.000000e+000 -1.000000e+000
    outer loop
      vertex   5.892362e+001 2.031871e+001 3.640607e+001
      vertex   7.433758e+001 2.031871e+001 3.640607e+001
      vertex   7.433758e+001 -2.045860e+001 3.640607e+001
    endloop
  endfacet
  facet normal -0.000000e+000 0.000000e+000 -1.000000e+000
    outer loop
      vertex   7.433758e+001 -2.045860e+001 3.640607e+001
      vertex   5.892362e+001 -2.048755e+001 3.640607e+001
      vertex   5.892362e+001 2.031871e+001 3.640607e+001
    endloop
  endfacet
  facet normal -1.000000e+000 0.000000e+000 0.000000e+000
    outer loop
      vertex   7.433758e+001 -2.045860e+001 3.640607e+001
      vertex   7.433758e+001 2.031871e+001 3.640607e+001
      vertex   7.433758e+001 2.031871e+001 -1.967683e+001
    endloop
  endfacet
  facet normal -1.000000e+000 0.000000e+000 0.000000e+000
    outer loop
      vertex   7.433758e+001 2.031871e+001 -1.967683e+001
      vertex   7.433758e+001 -2.045860e+001 -1.967683e+001
      vertex   7.433758e+001 -2.045860e+001 3.640607e+001
    endloop
  endfacet
  facet normal 0.000000e+000 0.000000e+000 -1.000000e+000
    outer loop
      vertex   7.433758e+001 -2.045860e+001 -1.967683e+001
      vertex   7.433758e+001 2.031871e+001 -1.967683e+001
      vertex   9.000000e+001 2.031871e+001 -1.967683e+001
    endloop
  endfacet
  facet normal 0.000000e+000 -0.000000e+000 -1.000000e+000
    outer loop
      vertex   9.000000e+001 2.031871e+001 -1.967683e+001
      vertex   9.000000e+001 -2.045860e+001 -1.967683e+001
      vertex   7.433758e+001 -2.045860e+001 -1.967683e+001
    endloop
  endfacet
  facet normal -0.000000e+000 1.000000e+000 0.000000e+000
    outer loop
      vertex   7.433758e+001 -2.045860e+001 -1.967683e+001
      vertex   9.000000e+001 -2.045860e+001 -1.967683e+001
      vertex   9.000000e+001 -2.045860e+001 -5.010672e+001
    endloop
  endfacet
  facet normal 0.000000e+000 1.000000e+000 0.000000e+000
    outer loop
      vertex   9.000000e+001 -2.045860e+001 -5.010672e+001
      vertex   7.433758e+001 -2.045860e+001 -5.010672e+001
      vertex   7.433758e+001 -2.045860e+001 -1.967683e+001
    endloop
  endfacet
  facet normal -4.430282e-016 -1.701656e-016 1.000000e+000
    outer loop
      vertex   7.433758e+001 2.031871e+001 -5.010672e+001
      vertex   7.433758e+001 -2.045860e+001 -5.010672e+001
      vertex   9.000000e+001 -2.045860e+001 -5.010672e+001
    endloop
  endfacet
  facet normal 0.000000e+000 -0.000000e+000 1.000000e+000
    outer loop
      vertex   9.000000e+001 -2.045860e+001 -5.010672e+001
      vertex   9.000000e+001 2.031871e+001 -5.010672e+001
      vertex   7.433758e+001 2.031871e+001 -5.010672e+001
    endloop
  endfacet
  facet normal -1.000000e+000 0.000000e+000 0.000000e+000
    outer loop
      vertex   7.433758e+001 2.031871e+001 -8.000000e+001
      vertex   7.433758e+001 -2.045860e+001 -8.000000e+001
      vertex   7.433758e+001 -2.045860e+001 -5.010672e+001
    endloop
  endfacet
  facet normal -1.000000e+000 0.000000e+000 0.000000e+000
    outer loop
      vertex   7.433758e+001 -2.045860e+001 -5.010672e+001
      vertex   7.433758e+001 2.031871e+001 -5.010672e+001
      vertex   7.433758e+001 2.031871e+001 -8.000000e+001
    endloop
  endfacet
  facet normal -1.000000e+000 -3.805893e-011 -0.000000e+000
    outer loop
      vertex   5.892362e+001 2.031871e+001 6.200816e+001
      vertex   5.892362e+001 2.031871e+001 3.640607e+001
      vertex   5.892362e+001 -2.048755e+001 3.640607e+001
    endloop
  endfacet
  facet normal -1.000000e+000 0.000000e+000 -6.066078e-011
    outer loop
      vertex   5.892362e+001 -2.048755e+001 3.640607e+001
      vertex   5.892362e+001 -2.048755e+001 6.200816e+001
      vertex   5.892362e+001 2.031871e+001 6.200816e+001
    endloop
  endfacet
  facet normal 0.000000e+000 0.000000e+000 -1.000000e+000
    outer loop
      vertex   -5.892362e+001 2.031871e+001 6.200816e+001
      vertex   5.892362e+001 2.031871e+001 6.200816e+001
      vertex   5.892362e+001 -2.048755e+001 6.200816e+001
    endloop
  endfacet
  facet normal 0.000000e+000 0.000000e+000 -1.000000e+000
    outer loop
      vertex   5.892362e+001 -2.048755e+001 6.200816e+001
      vertex   -5.892362e+001 -2.048755e+001 6.200816e+001
      vertex   -5.892362e+001 2.031871e+001 6.200816e+001
    endloop
  endfacet
  facet normal 1.000000e+000 0.000000e+000 0.000000e+000
    outer loop
      vertex   -5.892362e+001 -2.048755e+001 6.200816e+001
      vertex   -5.892362e+001 -2.048755e+001 3.640607e+001
      vertex   -5.892362e+001 2.031871e+001 3.640607e+001
    endloop
  endfacet
  facet normal 1.000000e+000 0.000000e+000 -0.000000e+000
    outer loop
      vertex   -5.892362e+001 2.031871e+001 3.640607e+001
      vertex   -5.892362e+001 2.031871e+001 6.200816e+001
      vertex   -5.892362e+001 -2.048755e+001 6.200816e+001
    endloop
  endfacet
  facet normal 0.000000e+000 1.000000e+000 0.000000e+000
    outer loop
      vertex   -5.892362e+001 -2.048755e+001 3.640607e+001
      vertex   -5.892362e+001 -2.048755e+001 6.200816e+001
      vertex   5.892362e+001 -2.048755e+001 6.200816e+001
    endloop
  endfacet
  facet normal -1.239433e-014 1.000000e+000 5.705149e-014
    outer loop
      vertex   5.892362e+001 -2.048755e+001 6.200816e+001
      vertex   5.892362e+001 -2.048755e+001 3.640607e+001
      vertex   -5.892362e+001 -2.048755e+001 3.640607e+001
    endloop
  endfacet
  facet normal 0.000000e+000 0.000000e+000 -1.000000e+000
    outer loop
      vertex   -7.559899e+001 2.031871e+001 3.640607e+001
      vertex   -5.892362e+001 2.031871e+001 3.640607e+001
      vertex   -5.892362e+001 -2.048755e+001 3.640607e+001
    endloop
  endfacet
  facet normal -0.000000e+000 0.000000e+000 -1.000000e+000
    outer loop
      vertex   -5.892362e+001 -2.048755e+001 3.640607e+001
      vertex   -7.559899e+001 -2.074018e+001 3.640607e+001
      vertex   -7.559899e+001 2.031871e+001 3.640607e+001
    endloop
  endfacet
  facet normal 0.000000e+000 -0.000000e+000 -1.000000e+000
    outer loop
      vertex   -5.892362e+001 -2.048755e+001 3.640607e+001
      vertex   5.892362e+001 -2.048755e+001 3.640607e+001
      vertex   -7.559899e+001 -2.074018e+001 3.640607e+001
    endloop
  endfacet
  facet normal 1.000000e+000 0.000000e+000 0.000000e+000
    outer loop
      vertex   -7.559899e+001 -2.074018e+001 3.640607e+001
      vertex   -7.559899e+001 -2.074018e+001 -8.000000e+001
      vertex   -7.559899e+001 2.031871e+001 -8.000000e+001
    endloop
  endfacet
  facet normal 1.000000e+000 0.000000e+000 -0.000000e+000
    outer loop
      vertex   -7.559899e+001 2.031871e+001 -8.000000e+001
      vertex   -7.559899e+001 2.031871e+001 3.640607e+001
      vertex   -7.559899e+001 -2.074018e+001 3.640607e+001
    endloop
  endfacet
  facet normal 0.000000e+000 -1.000000e+000 -1.181890e-015
    outer loop
      vertex   -5.892362e+001 2.031871e+001 3.640607e+001
      vertex   -3.534773e+000 2.031871e+001 3.347057e+001
      vertex   2.645567e+000 2.031871e+001 3.347057e+001
    endloop
  endfacet
  facet normal -5.751885e-017 -1.000000e+000 -7.916791e-017
    outer loop
      vertex   5.892362e+001 2.031871e+001 3.640607e+001
      vertex   2.645567e+000 2.031871e+001 3.347057e+001
      vertex   7.645567e+000 2.031871e+001 2.983785e+001
    endloop
  endfacet
  facet normal 5.837947e-017 -1.000000e+000 -8.035245e-017
    outer loop
      vertex   -5.892362e+001 2.031871e+001 3.640607e+001
      vertex   -8.534773e+000 2.031871e+001 2.983785e+001
      vertex   -3.534773e+000 2.031871e+001 3.347057e+001
    endloop
  endfacet
  facet normal 6.605578e-017 -1.000000e+000 -2.146282e-017
    outer loop
      vertex   -1.044460e+001 2.031871e+001 2.396000e+001
      vertex   -8.534773e+000 2.031871e+001 2.983785e+001
      vertex   -5.892362e+001 2.031871e+001 3.640607e+001
    endloop
  endfacet
  facet normal 7.108379e-033 -1.000000e+000 3.337290e-017
    outer loop
      vertex   -7.559899e+001 2.031871e+001 -8.000000e+001
      vertex   -1.044460e+001 2.031871e+001 -8.000000e+001
      vertex   -1.044460e+001 2.031871e+001 2.396000e+001
    endloop
  endfacet
  facet normal 0.000000e+000 -1.000000e+000 -1.181890e-015
    outer loop
      vertex   2.645567e+000 2.031871e+001 3.347057e+001
      vertex   5.892362e+001 2.031871e+001 3.640607e+001
      vertex   -5.892362e+001 2.031871e+001 3.640607e+001
    endloop
  endfacet
  facet normal 5.324963e-017 -1.000000e+000 0.000000e+000
    outer loop
      vertex   -1.044460e+001 2.031871e+001 2.396000e+001
      vertex   -7.559899e+001 2.031871e+001 3.640607e+001
      vertex   -7.559899e+001 2.031871e+001 -8.000000e+001
    endloop
  endfacet
  facet normal -0.000000e+000 -1.000000e+000 -2.787584e-016
    outer loop
      vertex   -5.892362e+001 2.031871e+001 3.640607e+001
      vertex   -7.559899e+001 2.031871e+001 3.640607e+001
      vertex   -1.044460e+001 2.031871e+001 2.396000e+001
    endloop
  endfacet
  facet normal 0.000000e+000 -1.000000e+000 0.000000e+000
    outer loop
      vertex   -5.892362e+001 2.031871e+001 6.200816e+001
      vertex   -5.892362e+001 2.031871e+001 3.640607e+001
      vertex   5.892362e+001 2.031871e+001 3.640607e+001
    endloop
  endfacet
  facet normal 0.000000e+000 -1.000000e+000 0.000000e+000
    outer loop
      vertex   5.892362e+001 2.031871e+001 3.640607e+001
      vertex   5.892362e+001 2.031871e+001 6.200816e+001
      vertex   -5.892362e+001 2.031871e+001 6.200816e+001
    endloop
  endfacet
  facet normal 0.000000e+000 -1.000000e+000 0.000000e+000
    outer loop
      vertex   7.433758e+001 2.031871e+001 -5.010672e+001
      vertex   9.000000e+001 2.031871e+001 -5.010672e+001
      vertex   9.000000e+001 2.031871e+001 -1.967683e+001
    endloop
  endfacet
  facet normal 0.000000e+000 -1.000000e+000 0.000000e+000
    outer loop
      vertex   7.433758e+001 2.031871e+001 -1.967683e+001
      vertex   7.433758e+001 2.031871e+001 3.640607e+001
      vertex   5.892362e+001 2.031871e+001 3.640607e+001
    endloop
  endfacet
  facet normal -0.000000e+000 -1.000000e+000 0.000000e+000
    outer loop
      vertex   9.000000e+001 2.031871e+001 -1.967683e+001
      vertex   7.433758e+001 2.031871e+001 -1.967683e+001
      vertex   7.433758e+001 2.031871e+001 -5.010672e+001
    endloop
  endfacet
  facet normal -5.355557e-017 -1.000000e+000 0.000000e+000
    outer loop
      vertex   9.555397e+000 2.031871e+001 -8.000000e+001
      vertex   7.433758e+001 2.031871e+001 -8.000000e+001
      vertex   7.433758e+001 2.031871e+001 -5.010672e+001
    endloop
  endfacet
  facet normal -5.202193e-017 -1.000000e+000 -0.000000e+000
    outer loop
      vertex   7.433758e+001 2.031871e+001 -1.967683e+001
      vertex   7.645567e+000 2.031871e+001 2.983785e+001
      vertex   7.433758e+001 2.031871e+001 -5.010672e+001
    endloop
  endfacet
  facet normal -8.520996e-017 -1.000000e+000 -2.768639e-017
    outer loop
      vertex   7.433758e+001 2.031871e+001 -5.010672e+001
      vertex   7.645567e+000 2.031871e+001 2.983785e+001
      vertex   9.555397e+000 2.031871e+001 2.396000e+001
    endloop
  endfacet
  facet normal -5.355557e-017 -1.000000e+000 0.000000e+000
    outer loop
      vertex   7.433758e+001 2.031871e+001 -5.010672e+001
      vertex   9.555397e+000 2.031871e+001 2.396000e+001
      vertex   9.555397e+000 2.031871e+001 -8.000000e+001
    endloop
  endfacet
  facet normal -6.535856e-017 -1.000000e+000 -1.796330e-017
    outer loop
      vertex   7.645567e+000 2.031871e+001 2.983785e+001
      vertex   7.433758e+001 2.031871e+001 -1.967683e+001
      vertex   5.892362e+001 2.031871e+001 3.640607e+001
    endloop
  endfacet
  facet normal -1.000000e+000 0.000000e+000 6.674581e-017
    outer loop
      vertex   9.555397e+000 2.250000e+001 2.396000e+001
      vertex   9.555397e+000 2.250000e+001 -8.000000e+001
      vertex   9.555397e+000 2.031871e+001 -8.000000e+001
    endloop
  endfacet
  facet normal -1.000000e+000 0.000000e+000 6.674581e-017
    outer loop
      vertex   9.555397e+000 2.031871e+001 -8.000000e+001
      vertex   9.555397e+000 2.031871e+001 2.396000e+001
      vertex   9.555397e+000 2.250000e+001 2.396000e+001
    endloop
  endfacet
  facet normal 9.510565e-001 0.000000e+000 -3.090170e-001
    outer loop
      vertex   -8.534773e+000 2.031871e+001 2.983785e+001
      vertex   -1.044460e+001 2.031871e+001 2.396000e+001
      vertex   -1.044460e+001 2.250000e+001 2.396000e+001
    endloop
  endfacet
  facet normal 5.877853e-001 0.000000e+000 -8.090170e-001
    outer loop
      vertex   -3.534773e+000 2.031871e+001 3.347057e+001
      vertex   -8.534773e+000 2.031871e+001 2.983785e+001
      vertex   -8.534773e+000 2.250000e+001 2.983785e+001
    endloop
  endfacet
  facet normal 0.000000e+000 0.000000e+000 -1.000000e+000
    outer loop
      vertex   2.645567e+000 2.031871e+001 3.347057e+001
      vertex   -3.534773e+000 2.031871e+001 3.347057e+001
      vertex   -3.534773e+000 2.250000e+001 3.347057e+001
    endloop
  endfacet
  facet normal -5.877853e-001 0.000000e+000 -8.090170e-001
    outer loop
      vertex   7.645567e+000 2.031871e+001 2.983785e+001
      vertex   2.645567e+000 2.031871e+001 3.347057e+001
      vertex   2.645567e+000 2.250000e+001 3.347057e+001
    endloop
  endfacet
  facet normal -9.510565e-001 0.000000e+000 -3.090170e-001
    outer loop
      vertex   9.555397e+000 2.031871e+001 2.396000e+001
      vertex   7.645567e+000 2.031871e+001 2.983785e+001
      vertex   7.645567e+000 2.250000e+001 2.983785e+001
    endloop
  endfacet
  facet normal -9.510565e-001 0.000000e+000 -3.090170e-001
    outer loop
      vertex   7.645567e+000 2.250000e+001 2.983785e+001
      vertex   9.555397e+000 2.250000e+001 2.396000e+001
      vertex   9.555397e+000 2.031871e+001 2.396000e+001
    endloop
  endfacet
  facet normal -5.877853e-001 0.000000e+000 -8.090170e-001
    outer loop
      vertex   2.645567e+000 2.250000e+001 3.347057e+001
      vertex   7.645567e+000 2.250000e+001 2.983785e+001
      vertex   7.645567e+000 2.031871e+001 2.983785e+001
    endloop
  endfacet
  facet normal 0.000000e+000 0.000000e+000 -1.000000e+000
    outer loop
      vertex   -3.534773e+000 2.250000e+001 3.347057e+001
      vertex   2.645567e+000 2.250000e+001 3.347057e+001
      vertex   2.645567e+000 2.031871e+001 3.347057e+001
    endloop
  endfacet
  facet normal 5.877853e-001 0.000000e+000 -8.090170e-001
    outer loop
      vertex   -8.534773e+000 2.250000e+001 2.983785e+001
      vertex   -3.534773e+000 2.250000e+001 3.347057e+001
      vertex   -3.534773e+000 2.031871e+001 3.347057e+001
    endloop
  endfacet
  facet normal 9.510565e-001 0.000000e+000 -3.090170e-001
    outer loop
      vertex   -1.044460e+001 2.250000e+001 2.396000e+001
      vertex   -8.534773e+000 2.250000e+001 2.983785e+001
      vertex   -8.534773e+000 2.031871e+001 2.983785e+001
    endloop
  endfacet
  facet normal 1.000000e+000 0.000000e+000 5.005935e-017
    outer loop
      vertex   -1.044460e+001 2.250000e+001 -8.000000e+001
      vertex   -1.044460e+001 2.250000e+001 2.396000e+001
      vertex   -1.044460e+001 2.031871e+001 2.396000e+001
    endloop
  endfacet
  facet normal 1.000000e+000 0.000000e+000 5.005935e-017
    outer loop
      vertex   -1.044460e+001 2.031871e+001 2.396000e+001
      vertex   -1.044460e+001 2.031871e+001 -8.000000e+001
      vertex   -1.044460e+001 2.250000e+001 -8.000000e+001
    endloop
  endfacet
  facet normal 1.000000e+000 -1.231273e-014 4.560578e-016
    outer loop
      vertex   9.000000e+001 2.250000e+001 8.784077e+000
      vertex   9.000000e+001 2.031871e+001 -1.967683e+001
      vertex   9.000000e+001 2.031871e+001 -5.010672e+001
    endloop
  endfacet
  facet normal 1.000000e+000 0.000000e+000 -4.876088e-016
    outer loop
      vertex   9.000000e+001 -2.250000e+001 8.784077e+000
      vertex   9.000000e+001 -2.045860e+001 -1.967683e+001
      vertex   9.000000e+001 2.031871e+001 -1.967683e+001
    endloop
  endfacet
  facet normal 1.000000e+000 0.000000e+000 -4.876088e-016
    outer loop
      vertex   9.000000e+001 2.031871e+001 -1.967683e+001
      vertex   9.000000e+001 2.250000e+001 8.784077e+000
      vertex   9.000000e+001 -2.250000e+001 8.784077e+000
    endloop
  endfacet
  facet normal 1.000000e+000 6.798168e-015 0.000000e+000
    outer loop
      vertex   9.000000e+001 -2.250000e+001 8.784077e+000
      vertex   9.000000e+001 -2.250000e+001 -8.000000e+001
      vertex   9.000000e+001 -2.045860e+001 -5.010672e+001
    endloop
  endfacet
  facet normal 1.000000e+000 6.798168e-015 -0.000000e+000
    outer loop
      vertex   9.000000e+001 -2.045860e+001 -5.010672e+001
      vertex   9.000000e+001 -2.045860e+001 -1.967683e+001
      vertex   9.000000e+001 -2.250000e+001 8.784077e+000
    endloop
  endfacet
  facet normal 1.000000e+000 0.000000e+000 0.000000e+000
    outer loop
      vertex   9.000000e+001 -2.250000e+001 -8.000000e+001
      vertex   9.000000e+001 2.250000e+001 -8.000000e+001
      vertex   9.000000e+001 2.031871e+001 -5.010672e+001
    endloop
  endfacet
  facet normal 1.000000e+000 -3.403311e-016 4.874854e-016
    outer loop
      vertex   9.000000e+001 2.031871e+001 -5.010672e+001
      vertex   9.000000e+001 -2.045860e+001 -5.010672e+001
      vertex   9.000000e+001 -2.250000e+001 -8.000000e+001
    endloop
  endfacet
  facet normal 1.000000e+000 -0.000000e+000 0.000000e+000
    outer loop
      vertex   9.000000e+001 2.031871e+001 -5.010672e+001
      vertex   9.000000e+001 2.250000e+001 -8.000000e+001
      vertex   9.000000e+001 2.250000e+001 8.784077e+000
    endloop
  endfacet
  facet normal 9.241493e-001 -0.000000e+000 3.820314e-001
    outer loop
      vertex   9.000000e+001 -2.250000e+001 8.784077e+000
      vertex   9.000000e+001 2.250000e+001 8.784077e+000
      vertex   6.993187e+001 2.250000e+001 5.732969e+001
    endloop
  endfacet
  facet normal 5.558636e-001 -0.000000e+000 8.312735e-001
    outer loop
      vertex   6.993187e+001 -2.250000e+001 5.732969e+001
      vertex   6.993187e+001 2.250000e+001 5.732969e+001
      vertex   2.626503e+001 2.250000e+001 8.652923e+001
    endloop
  endfacet
  facet normal 0.000000e+000 -0.000000e+000 1.000000e+000
    outer loop
      vertex   2.626503e+001 -2.250000e+001 8.652923e+001
      vertex   2.626503e+001 2.250000e+001 8.652923e+001
      vertex   -2.626503e+001 2.250000e+001 8.652923e+001
    endloop
  endfacet
  facet normal -5.558636e-001 0.000000e+000 8.312735e-001
    outer loop
      vertex   -2.626503e+001 -2.250000e+001 8.652923e+001
      vertex   -2.626503e+001 2.250000e+001 8.652923e+001
      vertex   -6.993187e+001 2.250000e+001 5.732969e+001
    endloop
  endfacet
  facet normal -9.241493e-001 0.000000e+000 3.820314e-001
    outer loop
      vertex   -6.993187e+001 -2.250000e+001 5.732969e+001
      vertex   -6.993187e+001 2.250000e+001 5.732969e+001
      vertex   -9.000000e+001 2.250000e+001 8.784077e+000
    endloop
  endfacet
  facet normal -9.241493e-001 0.000000e+000 3.820314e-001
    outer loop
      vertex   -9.000000e+001 2.250000e+001 8.784077e+000
      vertex   -9.000000e+001 -2.250000e+001 8.784077e+000
      vertex   -6.993187e+001 -2.250000e+001 5.732969e+001
    endloop
  endfacet
  facet normal -5.558636e-001 0.000000e+000 8.312735e-001
    outer loop
      vertex   -6.993187e+001 2.250000e+001 5.732969e+001
      vertex   -6.993187e+001 -2.250000e+001 5.732969e+001
      vertex   -2.626503e+001 -2.250000e+001 8.652923e+001
    endloop
  endfacet
  facet normal 0.000000e+000 0.000000e+000 1.000000e+000
    outer loop
      vertex   -2.626503e+001 2.250000e+001 8.652923e+001
      vertex   -2.626503e+001 -2.250000e+001 8.652923e+001
      vertex   2.626503e+001 -2.250000e+001 8.652923e+001
    endloop
  endfacet
  facet normal 5.558636e-001 0.000000e+000 8.312735e-001
    outer loop
      vertex   2.626503e+001 2.250000e+001 8.652923e+001
      vertex   2.626503e+001 -2.250000e+001 8.652923e+001
      vertex   6.993187e+001 -2.250000e+001 5.732969e+001
    endloop
  endfacet
  facet normal 9.241493e-001 0.000000e+000 3.820314e-001
    outer loop
      vertex   6.993187e+001 2.250000e+001 5.732969e+001
      vertex   6.993187e+001 -2.250000e+001 5.732969e+001
      vertex   9.000000e+001 -2.250000e+001 8.784077e+000
    endloop
  endfacet
  facet normal -1.000000e+000 0.000000e+000 0.000000e+000
    outer loop
      vertex   -9.000000e+001 -2.250000e+001 -8.000000e+001
      vertex   -9.000000e+001 -2.250000e+001 8.784077e+000
      vertex   -9.000000e+001 2.250000e+001 8.784077e+000
    endloop
  endfacet
  facet normal -1.000000e+000 0.000000e+000 -0.000000e+000
    outer loop
      vertex   -9.000000e+001 2.250000e+001 8.784077e+000
      vertex   -9.000000e+001 2.250000e+001 -8.000000e+001
      vertex   -9.000000e+001 -2.250000e+001 -8.000000e+001
    endloop
  endfacet
  facet normal -1.878013e-003 9.999982e-001 4.413405e-013
    outer loop
      vertex   5.892362e+001 -2.048755e+001 3.640607e+001
      vertex   2.645567e+000 -2.059324e+001 3.347057e+001
      vertex   -3.534773e+000 -2.060484e+001 3.347057e+001
    endloop
  endfacet
  facet normal -1.878013e-003 9.999982e-001 -6.665168e-017
    outer loop
      vertex   9.555397e+000 -2.058026e+001 -8.000000e+001
      vertex   9.555397e+000 -2.058026e+001 2.396000e+001
      vertex   7.433758e+001 -2.045860e+001 -1.967683e+001
    endloop
  endfacet
  facet normal -1.878013e-003 9.999982e-001 0.000000e+000
    outer loop
      vertex   -7.559899e+001 -2.074018e+001 -8.000000e+001
      vertex   -7.559899e+001 -2.074018e+001 3.640607e+001
      vertex   -1.044460e+001 -2.061782e+001 2.396000e+001
    endloop
  endfacet
  facet normal -1.878013e-003 9.999982e-001 2.751911e-013
    outer loop
      vertex   -3.534773e+000 -2.060484e+001 3.347057e+001
      vertex   -7.559899e+001 -2.074018e+001 3.640607e+001
      vertex   5.892362e+001 -2.048755e+001 3.640607e+001
    endloop
  endfacet
  facet normal -1.878013e-003 9.999982e-001 0.000000e+000
    outer loop
      vertex   7.433758e+001 -2.045860e+001 -1.967683e+001
      vertex   7.433758e+001 -2.045860e+001 -5.010672e+001
      vertex   9.555397e+000 -2.058026e+001 -8.000000e+001
    endloop
  endfacet
  facet normal -1.878013e-003 9.999982e-001 -9.329601e-016
    outer loop
      vertex   -7.559899e+001 -2.074018e+001 3.640607e+001
      vertex   -8.534773e+000 -2.061423e+001 2.983785e+001
      vertex   -1.044460e+001 -2.061782e+001 2.396000e+001
    endloop
  endfacet
  facet normal -1.878013e-003 9.999982e-001 3.271855e-014
    outer loop
      vertex   5.892362e+001 -2.048755e+001 3.640607e+001
      vertex   7.645567e+000 -2.058385e+001 2.983785e+001
      vertex   2.645567e+000 -2.059324e+001 3.347057e+001
    endloop
  endfacet
  facet normal -1.878013e-003 9.999982e-001 9.961655e-015
    outer loop
      vertex   9.555397e+000 -2.058026e+001 2.396000e+001
      vertex   7.645567e+000 -2.058385e+001 2.983785e+001
      vertex   5.892362e+001 -2.048755e+001 3.640607e+001
    endloop
  endfacet
  facet normal -1.878013e-003 9.999982e-001 0.000000e+000
    outer loop
      vertex   9.555397e+000 -2.058026e+001 2.396000e+001
      vertex   7.433758e+001 -2.045860e+001 3.640607e+001
      vertex   7.433758e+001 -2.045860e+001 -1.967683e+001
    endloop
  endfacet
  facet normal -1.878013e-003 9.999982e-001 1.231257e-015
    outer loop
      vertex   -3.534773e+000 -2.060484e+001 3.347057e+001
      vertex   -8.534773e+000 -2.061423e+001 2.983785e+001
      vertex   -7.559899e+001 -2.074018e+001 3.640607e+001
    endloop
  endfacet
  facet normal -1.878013e-003 9.999982e-001 0.000000e+000
    outer loop
      vertex   7.433758e+001 -2.045860e+001 -5.010672e+001
      vertex   7.433758e+001 -2.045860e+001 -8.000000e+001
      vertex   9.555397e+000 -2.058026e+001 -8.000000e+001
    endloop
  endfacet
  facet normal -1.878013e-003 9.999982e-001 4.916896e-013
    outer loop
      vertex   5.892362e+001 -2.048755e+001 3.640607e+001
      vertex   7.433758e+001 -2.045860e+001 3.640607e+001
      vertex   9.555397e+000 -2.058026e+001 2.396000e+001
    endloop
  endfacet
  facet normal -1.878013e-003 9.999982e-001 -1.253495e-019
    outer loop
      vertex   -1.044460e+001 -2.061782e+001 2.396000e+001
      vertex   -1.044460e+001 -2.061782e+001 -8.000000e+001
      vertex   -7.559899e+001 -2.074018e+001 -8.000000e+001
    endloop
  endfacet
  facet normal -1.000000e+000 0.000000e+000 5.005935e-017
    outer loop
      vertex   9.555397e+000 -2.250000e+001 -8.000000e+001
      vertex   9.555397e+000 -2.250000e+001 2.396000e+001
      vertex   9.555397e+000 -2.058026e+001 2.396000e+001
    endloop
  endfacet
  facet normal -1.000000e+000 0.000000e+000 5.005935e-017
    outer loop
      vertex   9.555397e+000 -2.058026e+001 2.396000e+001
      vertex   9.555397e+000 -2.058026e+001 -8.000000e+001
      vertex   9.555397e+000 -2.250000e+001 -8.000000e+001
    endloop
  endfacet
  facet normal 9.510565e-001 0.000000e+000 -3.090170e-001
    outer loop
      vertex   -8.534773e+000 -2.250000e+001 2.983785e+001
      vertex   -1.044460e+001 -2.250000e+001 2.396000e+001
      vertex   -1.044460e+001 -2.061782e+001 2.396000e+001
    endloop
  endfacet
  facet normal 5.877853e-001 0.000000e+000 -8.090170e-001
    outer loop
      vertex   -3.534773e+000 -2.250000e+001 3.347057e+001
      vertex   -8.534773e+000 -2.250000e+001 2.983785e+001
      vertex   -8.534773e+000 -2.061423e+001 2.983785e+001
    endloop
  endfacet
  facet normal 0.000000e+000 0.000000e+000 -1.000000e+000
    outer loop
      vertex   2.645567e+000 -2.250000e+001 3.347057e+001
      vertex   -3.534773e+000 -2.250000e+001 3.347057e+001
      vertex   -3.534773e+000 -2.060484e+001 3.347057e+001
    endloop
  endfacet
  facet normal -5.877853e-001 0.000000e+000 -8.090170e-001
    outer loop
      vertex   7.645567e+000 -2.250000e+001 2.983785e+001
      vertex   2.645567e+000 -2.250000e+001 3.347057e+001
      vertex   2.645567e+000 -2.059324e+001 3.347057e+001
    endloop
  endfacet
  facet normal -9.510565e-001 -4.291500e-016 -3.090170e-001
    outer loop
      vertex   9.555397e+000 -2.250000e+001 2.396000e+001
      vertex   7.645567e+000 -2.250000e+001 2.983785e+001
      vertex   7.645567e+000 -2.058385e+001 2.983785e+001
    endloop
  endfacet
  facet normal -9.510565e-001 0.000000e+000 -3.090170e-001
    outer loop
      vertex   7.645567e+000 -2.058385e+001 2.983785e+001
      vertex   9.555397e+000 -2.058026e+001 2.396000e+001
      vertex   9.555397e+000 -2.250000e+001 2.396000e+001
    endloop
  endfacet
  facet normal -5.877853e-001 1.144400e-015 -8.090170e-001
    outer loop
      vertex   2.645567e+000 -2.059324e+001 3.347057e+001
      vertex   7.645567e+000 -2.058385e+001 2.983785e+001
      vertex   7.645567e+000 -2.250000e+001 2.983785e+001
    endloop
  endfacet
  facet normal 0.000000e+000 0.000000e+000 -1.000000e+000
    outer loop
      vertex   -3.534773e+000 -2.060484e+001 3.347057e+001
      vertex   2.645567e+000 -2.059324e+001 3.347057e+001
      vertex   2.645567e+000 -2.250000e+001 3.347057e+001
    endloop
  endfacet
  facet normal 5.877853e-001 0.000000e+000 -8.090170e-001
    outer loop
      vertex   -8.534773e+000 -2.061423e+001 2.983785e+001
      vertex   -3.534773e+000 -2.060484e+001 3.347057e+001
      vertex   -3.534773e+000 -2.250000e+001 3.347057e+001
    endloop
  endfacet
  facet normal 9.510565e-001 0.000000e+000 -3.090170e-001
    outer loop
      vertex   -1.044460e+001 -2.061782e+001 2.396000e+001
      vertex   -8.534773e+000 -2.061423e+001 2.983785e+001
      vertex   -8.534773e+000 -2.250000e+001 2.983785e+001
    endloop
  endfacet
  facet normal 1.000000e+000 0.000000e+000 6.674581e-017
    outer loop
      vertex   -1.044460e+001 -2.061782e+001 -8.000000e+001
      vertex   -1.044460e+001 -2.061782e+001 2.396000e+001
      vertex   -1.044460e+001 -2.250000e+001 2.396000e+001
    endloop
  endfacet
  facet normal 1.000000e+000 -9.216570e-016 5.005935e-017
    outer loop
      vertex   -1.044460e+001 -2.250000e+001 2.396000e+001
      vertex   -1.044460e+001 -2.250000e+001 -8.000000e+001
      vertex   -1.044460e+001 -2.061782e+001 -8.000000e+001
    endloop
  endfacet
  facet normal 0.000000e+000 3.965082e-016 -1.000000e+000
    outer loop
      vertex   8.169002e+001 1.750000e+001 -8.000000e+001
      vertex   8.669002e+001 1.750000e+001 -8.000000e+001
      vertex   8.669002e+001 -1.750000e+001 -8.000000e+001
    endloop
  endfacet
  facet normal -0.000000e+000 -2.775558e-015 -1.000000e+000
    outer loop
      vertex   9.000000e+001 -2.250000e+001 -8.000000e+001
      vertex   8.669002e+001 -2.250000e+001 -8.000000e+001
      vertex   8.669002e+001 -1.750000e+001 -8.000000e+001
    endloop
  endfacet
  facet normal 0.000000e+000 -0.000000e+000 -1.000000e+000
    outer loop
      vertex   9.000000e+001 2.250000e+001 -8.000000e+001
      vertex   9.000000e+001 -2.250000e+001 -8.000000e+001
      vertex   8.669002e+001 1.750000e+001 -8.000000e+001
    endloop
  endfacet
  facet normal 4.791669e-015 3.965082e-016 -1.000000e+000
    outer loop
      vertex   8.669002e+001 -1.750000e+001 -8.000000e+001
      vertex   8.669002e+001 1.750000e+001 -8.000000e+001
      vertex   9.000000e+001 -2.250000e+001 -8.000000e+001
    endloop
  endfacet
  facet normal 0.000000e+000 -6.362199e-015 -1.000000e+000
    outer loop
      vertex   9.555397e+000 2.250000e+001 -8.000000e+001
      vertex   8.169002e+001 2.250000e+001 -8.000000e+001
      vertex   7.433758e+001 2.031871e+001 -8.000000e+001
    endloop
  endfacet
  facet normal -1.887508e-015 0.000000e+000 -1.000000e+000
    outer loop
      vertex   7.433758e+001 2.031871e+001 -8.000000e+001
      vertex   8.169002e+001 2.250000e+001 -8.000000e+001
      vertex   8.169002e+001 1.750000e+001 -8.000000e+001
    endloop
  endfacet
  facet normal -3.775016e-015 0.000000e+000 -1.000000e+000
    outer loop
      vertex   7.433758e+001 -2.045860e+001 -8.000000e+001
      vertex   7.433758e+001 2.031871e+001 -8.000000e+001
      vertex   8.169002e+001 -1.750000e+001 -8.000000e+001
    endloop
  endfacet
  facet normal 4.284446e-016 0.000000e+000 -1.000000e+000
    outer loop
      vertex   9.555397e+000 -2.250000e+001 -8.000000e+001
      vertex   9.555397e+000 -2.058026e+001 -8.000000e+001
      vertex   7.433758e+001 -2.045860e+001 -8.000000e+001
    endloop
  endfacet
  facet normal 0.000000e+000 3.965082e-016 -1.000000e+000
    outer loop
      vertex   8.669002e+001 -1.750000e+001 -8.000000e+001
      vertex   8.169002e+001 -1.750000e+001 -8.000000e+001
      vertex   8.169002e+001 1.750000e+001 -8.000000e+001
    endloop
  endfacet
  facet normal -1.735498e-015 3.965082e-016 -1.000000e+000
    outer loop
      vertex   8.169002e+001 1.750000e+001 -8.000000e+001
      vertex   8.169002e+001 -1.750000e+001 -8.000000e+001
      vertex   7.433758e+001 2.031871e+001 -8.000000e+001
    endloop
  endfacet
  facet normal 1.923873e-016 7.491082e-015 -1.000000e+000
    outer loop
      vertex   7.433758e+001 -2.045860e+001 -8.000000e+001
      vertex   8.169002e+001 -2.250000e+001 -8.000000e+001
      vertex   9.555397e+000 -2.250000e+001 -8.000000e+001
    endloop
  endfacet
  facet normal 2.142223e-016 0.000000e+000 -1.000000e+000
    outer loop
      vertex   7.433758e+001 2.031871e+001 -8.000000e+001
      vertex   9.555397e+000 2.031871e+001 -8.000000e+001
      vertex   9.555397e+000 2.250000e+001 -8.000000e+001
    endloop
  endfacet
  facet normal 0.000000e+000 0.000000e+000 -1.000000e+000
    outer loop
      vertex   8.669002e+001 1.750000e+001 -8.000000e+001
      vertex   8.669002e+001 2.250000e+001 -8.000000e+001
      vertex   9.000000e+001 2.250000e+001 -8.000000e+001
    endloop
  endfacet
  facet normal -2.658140e-015 -2.775558e-015 -1.000000e+000
    outer loop
      vertex   8.169002e+001 -1.750000e+001 -8.000000e+001
      vertex   8.169002e+001 -2.250000e+001 -8.000000e+001
      vertex   7.433758e+001 -2.045860e+001 -8.000000e+001
    endloop
  endfacet
  facet normal -1.000000e+000 -3.885781e-014 2.081668e-014
    outer loop
      vertex   8.169002e+001 -2.250000e+001 -9.000000e+001
      vertex   8.169002e+001 -2.250000e+001 -8.000000e+001
      vertex   8.169002e+001 -1.750000e+001 -8.000000e+001
    endloop
  endfacet
  facet normal -1.000000e+000 0.000000e+000 1.387779e-015
    outer loop
      vertex   8.169002e+001 -1.750000e+001 -8.000000e+001
      vertex   8.169002e+001 -1.750000e+001 -9.000000e+001
      vertex   8.169002e+001 -2.250000e+001 -9.000000e+001
    endloop
  endfacet
  facet normal 0.000000e+000 0.000000e+000 1.000000e+000
    outer loop
      vertex   7.669002e+001 -1.750000e+001 -9.000000e+001
      vertex   7.669002e+001 -2.250000e+001 -9.000000e+001
      vertex   8.169002e+001 -2.250000e+001 -9.000000e+001
    endloop
  endfacet
  facet normal 0.000000e+000 -0.000000e+000 1.000000e+000
    outer loop
      vertex   8.169002e+001 -2.250000e+001 -9.000000e+001
      vertex   8.169002e+001 -1.750000e+001 -9.000000e+001
      vertex   7.669002e+001 -1.750000e+001 -9.000000e+001
    endloop
  endfacet
  facet normal 0.000000e+000 1.000000e+000 0.000000e+000
    outer loop
      vertex   8.669002e+001 -1.750000e+001 -8.000000e+001
      vertex   8.669002e+001 -1.750000e+001 -9.500000e+001
      vertex   8.169002e+001 -1.750000e+001 -9.000000e+001
    endloop
  endfacet
  facet normal 0.000000e+000 1.000000e+000 0.000000e+000
    outer loop
      vertex   7.669002e+001 -1.750000e+001 -9.500000e+001
      vertex   7.669002e+001 -1.750000e+001 -9.000000e+001
      vertex   8.169002e+001 -1.750000e+001 -9.000000e+001
    endloop
  endfacet
  facet normal 0.000000e+000 1.000000e+000 0.000000e+000
    outer loop
      vertex   8.169002e+001 -1.750000e+001 -9.000000e+001
      vertex   8.669002e+001 -1.750000e+001 -9.500000e+001
      vertex   7.669002e+001 -1.750000e+001 -9.500000e+001
    endloop
  endfacet
  facet normal 0.000000e+000 1.000000e+000 0.000000e+000
    outer loop
      vertex   8.169002e+001 -1.750000e+001 -9.000000e+001
      vertex   8.169002e+001 -1.750000e+001 -8.000000e+001
      vertex   8.669002e+001 -1.750000e+001 -8.000000e+001
    endloop
  endfacet
  facet normal -1.000000e+000 0.000000e+000 0.000000e+000
    outer loop
      vertex   7.669002e+001 -1.750000e+001 -9.500000e+001
      vertex   7.669002e+001 -2.250000e+001 -9.500000e+001
      vertex   7.669002e+001 -2.250000e+001 -9.000000e+001
    endloop
  endfacet
  facet normal -1.000000e+000 0.000000e+000 0.000000e+000
    outer loop
      vertex   7.669002e+001 -2.250000e+001 -9.000000e+001
      vertex   7.669002e+001 -1.750000e+001 -9.000000e+001
      vertex   7.669002e+001 -1.750000e+001 -9.500000e+001
    endloop
  endfacet
  facet normal 0.000000e+000 -0.000000e+000 -1.000000e+000
    outer loop
      vertex   8.669002e+001 -1.750000e+001 -9.500000e+001
      vertex   8.669002e+001 -2.250000e+001 -9.500000e+001
      vertex   7.669002e+001 -2.250000e+001 -9.500000e+001
    endloop
  endfacet
  facet normal 0.000000e+000 0.000000e+000 -1.000000e+000
    outer loop
      vertex   7.669002e+001 -2.250000e+001 -9.500000e+001
      vertex   7.669002e+001 -1.750000e+001 -9.500000e+001
      vertex   8.669002e+001 -1.750000e+001 -9.500000e+001
    endloop
  endfacet
  facet normal 1.000000e+000 0.000000e+000 0.000000e+000
    outer loop
      vertex   8.669002e+001 -2.250000e+001 -9.500000e+001
      vertex   8.669002e+001 -1.750000e+001 -9.500000e+001
      vertex   8.669002e+001 -1.750000e+001 -8.000000e+001
    endloop
  endfacet
  facet normal 1.000000e+000 0.000000e+000 0.000000e+000
    outer loop
      vertex   8.669002e+001 -1.750000e+001 -8.000000e+001
      vertex   8.669002e+001 -2.250000e+001 -8.000000e+001
      vertex   8.669002e+001 -2.250000e+001 -9.500000e+001
    endloop
  endfacet
  facet normal -1.000000e+000 0.000000e+000 1.387779e-015
    outer loop
      vertex   8.169002e+001 1.750000e+001 -8.000000e+001
      vertex   8.169002e+001 2.250000e+001 -8.000000e+001
      vertex   8.169002e+001 2.250000e+001 -9.000000e+001
    endloop
  endfacet
  facet normal -1.000000e+000 0.000000e+000 1.387779e-015
    outer loop
      vertex   8.169002e+001 2.250000e+001 -9.000000e+001
      vertex   8.169002e+001 1.750000e+001 -9.000000e+001
      vertex   8.169002e+001 1.750000e+001 -8.000000e+001
    endloop
  endfacet
  facet normal 0.000000e+000 -0.000000e+000 1.000000e+000
    outer loop
      vertex   8.169002e+001 1.750000e+001 -9.000000e+001
      vertex   8.169002e+001 2.250000e+001 -9.000000e+001
      vertex   7.669002e+001 2.250000e+001 -9.000000e+001
    endloop
  endfacet
  facet normal 0.000000e+000 0.000000e+000 1.000000e+000
    outer loop
      vertex   7.669002e+001 2.250000e+001 -9.000000e+001
      vertex   7.669002e+001 1.750000e+001 -9.000000e+001
      vertex   8.169002e+001 1.750000e+001 -9.000000e+001
    endloop
  endfacet
  facet normal 0.000000e+000 -1.000000e+000 0.000000e+000
    outer loop
      vertex   7.669002e+001 1.750000e+001 -9.500000e+001
      vertex   8.669002e+001 1.750000e+001 -9.500000e+001
      vertex   8.169002e+001 1.750000e+001 -9.000000e+001
    endloop
  endfacet
  facet normal -0.000000e+000 -1.000000e+000 0.000000e+000
    outer loop
      vertex   8.669002e+001 1.750000e+001 -8.000000e+001
      vertex   8.169002e+001 1.750000e+001 -8.000000e+001
      vertex   8.169002e+001 1.750000e+001 -9.000000e+001
    endloop
  endfacet
  facet normal 0.000000e+000 -1.000000e+000 0.000000e+000
    outer loop
      vertex   8.169002e+001 1.750000e+001 -9.000000e+001
      vertex   8.669002e+001 1.750000e+001 -9.500000e+001
      vertex   8.669002e+001 1.750000e+001 -8.000000e+001
    endloop
  endfacet
  facet normal -0.000000e+000 -1.000000e+000 0.000000e+000
    outer loop
      vertex   8.169002e+001 1.750000e+001 -9.000000e+001
      vertex   7.669002e+001 1.750000e+001 -9.000000e+001
      vertex   7.669002e+001 1.750000e+001 -9.500000e+001
    endloop
  endfacet
  facet normal -1.000000e+000 0.000000e+000 0.000000e+000
    outer loop
      vertex   7.669002e+001 1.750000e+001 -9.000000e+001
      vertex   7.669002e+001 2.250000e+001 -9.000000e+001
      vertex   7.669002e+001 2.250000e+001 -9.500000e+001
    endloop
  endfacet
  facet normal -1.000000e+000 0.000000e+000 0.000000e+000
    outer loop
      vertex   7.669002e+001 2.250000e+001 -9.500000e+001
      vertex   7.669002e+001 1.750000e+001 -9.500000e+001
      vertex   7.669002e+001 1.750000e+001 -9.000000e+001
    endloop
  endfacet
  facet normal 0.000000e+000 0.000000e+000 -1.000000e+000
    outer loop
      vertex   7.669002e+001 1.750000e+001 -9.500000e+001
      vertex   7.669002e+001 2.250000e+001 -9.500000e+001
      vertex   8.669002e+001 2.250000e+001 -9.500000e+001
    endloop
  endfacet
  facet normal 0.000000e+000 -0.000000e+000 -1.000000e+000
    outer loop
      vertex   8.669002e+001 2.250000e+001 -9.500000e+001
      vertex   8.669002e+001 1.750000e+001 -9.500000e+001
      vertex   7.669002e+001 1.750000e+001 -9.500000e+001
    endloop
  endfacet
  facet normal 1.000000e+000 0.000000e+000 0.000000e+000
    outer loop
      vertex   8.669002e+001 1.750000e+001 -8.000000e+001
      vertex   8.669002e+001 1.750000e+001 -9.500000e+001
      vertex   8.669002e+001 2.250000e+001 -9.500000e+001
    endloop
  endfacet
  facet normal 1.000000e+000 0.000000e+000 -0.000000e+000
    outer loop
      vertex   8.669002e+001 2.250000e+001 -9.500000e+001
      vertex   8.669002e+001 2.250000e+001 -8.000000e+001
      vertex   8.669002e+001 1.750000e+001 -8.000000e+001
    endloop
  endfacet
  facet normal 7.246187e-017 1.000000e+000 -9.973521e-017
    outer loop
      vertex   -2.626503e+001 2.250000e+001 8.652923e+001
      vertex   -3.534773e+000 2.250000e+001 3.347057e+001
      vertex   -8.534773e+000 2.250000e+001 2.983785e+001
    endloop
  endfacet
  facet normal 0.000000e+000 1.000000e+000 -1.307778e-016
    outer loop
      vertex   -2.626503e+001 2.250000e+001 8.652923e+001
      vertex   2.626503e+001 2.250000e+001 8.652923e+001
      vertex   2.645567e+000 2.250000e+001 3.347057e+001
    endloop
  endfacet
  facet normal 0.000000e+000 1.000000e+000 -1.307778e-016
    outer loop
      vertex   2.645567e+000 2.250000e+001 3.347057e+001
      vertex   -3.534773e+000 2.250000e+001 3.347057e+001
      vertex   -2.626503e+001 2.250000e+001 8.652923e+001
    endloop
  endfacet
  facet normal -6.710772e-017 1.000000e+000 -1.003571e-016
    outer loop
      vertex   2.626503e+001 2.250000e+001 8.652923e+001
      vertex   6.993187e+001 2.250000e+001 5.732969e+001
      vertex   7.645567e+000 2.250000e+001 2.983785e+001
    endloop
  endfacet
  facet normal -9.355256e-017 1.000000e+000 -3.867342e-017
    outer loop
      vertex   6.993187e+001 2.250000e+001 5.732969e+001
      vertex   9.000000e+001 2.250000e+001 8.784077e+000
      vertex   9.555397e+000 2.250000e+001 2.396000e+001
    endloop
  endfacet
  facet normal -8.476017e-017 1.000000e+000 7.933352e-018
    outer loop
      vertex   9.555397e+000 2.250000e+001 2.396000e+001
      vertex   9.000000e+001 2.250000e+001 8.784077e+000
      vertex   8.169002e+001 2.250000e+001 -8.000000e+001
    endloop
  endfacet
  facet normal 9.619367e-017 1.000000e+000 8.040084e-018
    outer loop
      vertex   -1.044460e+001 2.250000e+001 -8.000000e+001
      vertex   -8.257923e+001 2.250000e+001 -8.000000e+001
      vertex   -9.000000e+001 2.250000e+001 8.784077e+000
    endloop
  endfacet
  facet normal 9.866230e-017 1.000000e+000 -3.205733e-017
    outer loop
      vertex   -6.993187e+001 2.250000e+001 5.732969e+001
      vertex   -8.534773e+000 2.250000e+001 2.983785e+001
      vertex   -1.044460e+001 2.250000e+001 2.396000e+001
    endloop
  endfacet
  facet normal -7.179519e-017 1.000000e+000 -9.881760e-017
    outer loop
      vertex   7.645567e+000 2.250000e+001 2.983785e+001
      vertex   2.645567e+000 2.250000e+001 3.347057e+001
      vertex   2.626503e+001 2.250000e+001 8.652923e+001
    endloop
  endfacet
  facet normal 0.000000e+000 1.000000e+000 6.674581e-017
    outer loop
      vertex   8.169002e+001 2.250000e+001 -8.000000e+001
      vertex   9.555397e+000 2.250000e+001 -8.000000e+001
      vertex   9.555397e+000 2.250000e+001 2.396000e+001
    endloop
  endfacet
  facet normal -2.312965e-016 1.000000e+000 -2.312965e-016
    outer loop
      vertex   8.669002e+001 2.250000e+001 -8.000000e+001
      vertex   8.669002e+001 2.250000e+001 -9.500000e+001
      vertex   8.169002e+001 2.250000e+001 -9.000000e+001
    endloop
  endfacet
  facet normal 0.000000e+000 1.000000e+000 0.000000e+000
    outer loop
      vertex   7.669002e+001 2.250000e+001 -9.500000e+001
      vertex   7.669002e+001 2.250000e+001 -9.000000e+001
      vertex   8.169002e+001 2.250000e+001 -9.000000e+001
    endloop
  endfacet
  facet normal 0.000000e+000 1.000000e+000 0.000000e+000
    outer loop
      vertex   -7.757923e+001 2.250000e+001 -9.500000e+001
      vertex   -8.757923e+001 2.250000e+001 -9.500000e+001
      vertex   -8.257923e+001 2.250000e+001 -9.000000e+001
    endloop
  endfacet
  facet normal 0.000000e+000 1.000000e+000 -3.469447e-016
    outer loop
      vertex   -8.757923e+001 2.250000e+001 -8.000000e+001
      vertex   -8.257923e+001 2.250000e+001 -8.000000e+001
      vertex   -8.257923e+001 2.250000e+001 -9.000000e+001
    endloop
  endfacet
  facet normal 9.468773e-017 1.000000e+000 -3.914269e-017
    outer loop
      vertex   -1.044460e+001 2.250000e+001 2.396000e+001
      vertex   -9.000000e+001 2.250000e+001 8.784077e+000
      vertex   -6.993187e+001 2.250000e+001 5.732969e+001
    endloop
  endfacet
  facet normal -9.743045e-017 1.000000e+000 -3.165707e-017
    outer loop
      vertex   9.555397e+000 2.250000e+001 2.396000e+001
      vertex   7.645567e+000 2.250000e+001 2.983785e+001
      vertex   6.993187e+001 2.250000e+001 5.732969e+001
    endloop
  endfacet
  facet normal 0.000000e+000 1.000000e+000 0.000000e+000
    outer loop
      vertex   8.169002e+001 2.250000e+001 -9.000000e+001
      vertex   8.669002e+001 2.250000e+001 -9.500000e+001
      vertex   7.669002e+001 2.250000e+001 -9.500000e+001
    endloop
  endfacet
  facet normal 0.000000e+000 1.000000e+000 0.000000e+000
    outer loop
      vertex   9.000000e+001 2.250000e+001 8.784077e+000
      vertex   9.000000e+001 2.250000e+001 -8.000000e+001
      vertex   8.669002e+001 2.250000e+001 -8.000000e+001
    endloop
  endfacet
  facet normal 0.000000e+000 1.000000e+000 0.000000e+000
    outer loop
      vertex   -9.000000e+001 2.250000e+001 8.784077e+000
      vertex   -8.257923e+001 2.250000e+001 -8.000000e+001
      vertex   -8.757923e+001 2.250000e+001 -8.000000e+001
    endloop
  endfacet
  facet normal 2.312965e-016 1.000000e+000 -2.312965e-016
    outer loop
      vertex   -8.257923e+001 2.250000e+001 -9.000000e+001
      vertex   -8.757923e+001 2.250000e+001 -9.500000e+001
      vertex   -8.757923e+001 2.250000e+001 -8.000000e+001
    endloop
  endfacet
  facet normal 6.768983e-017 1.000000e+000 -1.012277e-016
    outer loop
      vertex   -8.534773e+000 2.250000e+001 2.983785e+001
      vertex   -6.993187e+001 2.250000e+001 5.732969e+001
      vertex   -2.626503e+001 2.250000e+001 8.652923e+001
    endloop
  endfacet
  facet normal 0.000000e+000 1.000000e+000 -0.000000e+000
    outer loop
      vertex   8.669002e+001 2.250000e+001 -8.000000e+001
      vertex   8.169002e+001 2.250000e+001 -8.000000e+001
      vertex   9.000000e+001 2.250000e+001 8.784077e+000
    endloop
  endfacet
  facet normal -0.000000e+000 1.000000e+000 0.000000e+000
    outer loop
      vertex   -8.257923e+001 2.250000e+001 -9.000000e+001
      vertex   -7.757923e+001 2.250000e+001 -9.000000e+001
      vertex   -7.757923e+001 2.250000e+001 -9.500000e+001
    endloop
  endfacet
  facet normal 0.000000e+000 1.000000e+000 -3.469447e-016
    outer loop
      vertex   8.169002e+001 2.250000e+001 -9.000000e+001
      vertex   8.169002e+001 2.250000e+001 -8.000000e+001
      vertex   8.669002e+001 2.250000e+001 -8.000000e+001
    endloop
  endfacet
  facet normal 8.722091e-017 1.000000e+000 0.000000e+000
    outer loop
      vertex   -9.000000e+001 2.250000e+001 8.784077e+000
      vertex   -1.044460e+001 2.250000e+001 2.396000e+001
      vertex   -1.044460e+001 2.250000e+001 -8.000000e+001
    endloop
  endfacet
  facet normal 0.000000e+000 1.000000e+000 0.000000e+000
    outer loop
      vertex   -8.757923e+001 2.250000e+001 -8.000000e+001
      vertex   -9.000000e+001 2.250000e+001 -8.000000e+001
      vertex   -9.000000e+001 2.250000e+001 8.784077e+000
    endloop
  endfacet
  facet normal -1.000000e+000 -5.551115e-015 -9.251859e-016
    outer loop
      vertex   -8.757923e+001 1.750000e+001 -8.000000e+001
      vertex   -8.757923e+001 2.250000e+001 -8.000000e+001
      vertex   -8.757923e+001 2.250000e+001 -9.500000e+001
    endloop
  endfacet
  facet normal -1.000000e+000 0.000000e+000 9.251859e-016
    outer loop
      vertex   -8.757923e+001 2.250000e+001 -9.500000e+001
      vertex   -8.757923e+001 1.750000e+001 -9.500000e+001
      vertex   -8.757923e+001 1.750000e+001 -8.000000e+001
    endloop
  endfacet
  facet normal 0.000000e+000 -1.000000e+000 -0.000000e+000
    outer loop
      vertex   -8.757923e+001 1.750000e+001 -8.000000e+001
      vertex   -8.757923e+001 1.750000e+001 -9.500000e+001
      vertex   -8.257923e+001 1.750000e+001 -9.000000e+001
    endloop
  endfacet
  facet normal 0.000000e+000 -1.000000e+000 0.000000e+000
    outer loop
      vertex   -7.757923e+001 1.750000e+001 -9.500000e+001
      vertex   -7.757923e+001 1.750000e+001 -9.000000e+001
      vertex   -8.257923e+001 1.750000e+001 -9.000000e+001
    endloop
  endfacet
  facet normal 0.000000e+000 -1.000000e+000 -0.000000e+000
    outer loop
      vertex   -8.257923e+001 1.750000e+001 -9.000000e+001
      vertex   -8.757923e+001 1.750000e+001 -9.500000e+001
      vertex   -7.757923e+001 1.750000e+001 -9.500000e+001
    endloop
  endfacet
  facet normal 0.000000e+000 -1.000000e+000 0.000000e+000
    outer loop
      vertex   -8.257923e+001 1.750000e+001 -9.000000e+001
      vertex   -8.257923e+001 1.750000e+001 -8.000000e+001
      vertex   -8.757923e+001 1.750000e+001 -8.000000e+001
    endloop
  endfacet
  facet normal 0.000000e+000 0.000000e+000 -1.000000e+000
    outer loop
      vertex   -8.757923e+001 1.750000e+001 -9.500000e+001
      vertex   -8.757923e+001 2.250000e+001 -9.500000e+001
      vertex   -7.757923e+001 2.250000e+001 -9.500000e+001
    endloop
  endfacet
  facet normal 0.000000e+000 -0.000000e+000 -1.000000e+000
    outer loop
      vertex   -7.757923e+001 2.250000e+001 -9.500000e+001
      vertex   -7.757923e+001 1.750000e+001 -9.500000e+001
      vertex   -8.757923e+001 1.750000e+001 -9.500000e+001
    endloop
  endfacet
  facet normal 1.000000e+000 -0.000000e+000 1.387779e-014
    outer loop
      vertex   -7.757923e+001 1.750000e+001 -9.500000e+001
      vertex   -7.757923e+001 2.250000e+001 -9.500000e+001
      vertex   -7.757923e+001 2.250000e+001 -9.000000e+001
    endloop
  endfacet
  facet normal 1.000000e+000 0.000000e+000 1.387779e-014
    outer loop
      vertex   -7.757923e+001 2.250000e+001 -9.000000e+001
      vertex   -7.757923e+001 1.750000e+001 -9.000000e+001
      vertex   -7.757923e+001 1.750000e+001 -9.500000e+001
    endloop
  endfacet
  facet normal 0.000000e+000 -0.000000e+000 1.000000e+000
    outer loop
      vertex   -7.757923e+001 1.750000e+001 -9.000000e+001
      vertex   -7.757923e+001 2.250000e+001 -9.000000e+001
      vertex   -8.257923e+001 2.250000e+001 -9.000000e+001
    endloop
  endfacet
  facet normal 0.000000e+000 0.000000e+000 1.000000e+000
    outer loop
      vertex   -8.257923e+001 2.250000e+001 -9.000000e+001
      vertex   -8.257923e+001 1.750000e+001 -9.000000e+001
      vertex   -7.757923e+001 1.750000e+001 -9.000000e+001
    endloop
  endfacet
  facet normal 1.000000e+000 0.000000e+000 1.387779e-015
    outer loop
      vertex   -8.257923e+001 1.750000e+001 -8.000000e+001
      vertex   -8.257923e+001 1.750000e+001 -9.000000e+001
      vertex   -8.257923e+001 2.250000e+001 -9.000000e+001
    endloop
  endfacet
  facet normal 1.000000e+000 0.000000e+000 1.387779e-015
    outer loop
      vertex   -8.257923e+001 2.250000e+001 -9.000000e+001
      vertex   -8.257923e+001 2.250000e+001 -8.000000e+001
      vertex   -8.257923e+001 1.750000e+001 -8.000000e+001
    endloop
  endfacet
  facet normal 1.828039e-015 3.965082e-016 -1.000000e+000
    outer loop
      vertex   -7.559899e+001 2.031871e+001 -8.000000e+001
      vertex   -8.257923e+001 -1.750000e+001 -8.000000e+001
      vertex   -8.257923e+001 1.750000e+001 -8.000000e+001
    endloop
  endfacet
  facet normal -2.129985e-016 -0.000000e+000 -1.000000e+000
    outer loop
      vertex   -1.044460e+001 2.250000e+001 -8.000000e+001
      vertex   -1.044460e+001 2.031871e+001 -8.000000e+001
      vertex   -7.559899e+001 2.031871e+001 -8.000000e+001
    endloop
  endfacet
  facet normal -2.775558e-015 1.100531e-030 -1.000000e+000
    outer loop
      vertex   -8.257923e+001 -1.750000e+001 -8.000000e+001
      vertex   -8.757923e+001 -1.750000e+001 -8.000000e+001
      vertex   -8.757923e+001 1.750000e+001 -8.000000e+001
    endloop
  endfacet
  facet normal 0.000000e+000 0.000000e+000 -1.000000e+000
    outer loop
      vertex   -9.000000e+001 2.250000e+001 -8.000000e+001
      vertex   -8.757923e+001 2.250000e+001 -8.000000e+001
      vertex   -8.757923e+001 1.750000e+001 -8.000000e+001
    endloop
  endfacet
  facet normal -6.120033e-031 -6.362199e-015 -1.000000e+000
    outer loop
      vertex   -7.559899e+001 2.031871e+001 -8.000000e+001
      vertex   -8.257923e+001 2.250000e+001 -8.000000e+001
      vertex   -1.044460e+001 2.250000e+001 -8.000000e+001
    endloop
  endfacet
  facet normal -0.000000e+000 0.000000e+000 -1.000000e+000
    outer loop
      vertex   -8.757923e+001 1.750000e+001 -8.000000e+001
      vertex   -8.757923e+001 -1.750000e+001 -8.000000e+001
      vertex   -9.000000e+001 2.250000e+001 -8.000000e+001
    endloop
  endfacet
  facet normal 0.000000e+000 0.000000e+000 -1.000000e+000
    outer loop
      vertex   -9.000000e+001 -2.250000e+001 -8.000000e+001
      vertex   -9.000000e+001 2.250000e+001 -8.000000e+001
      vertex   -8.757923e+001 -1.750000e+001 -8.000000e+001
    endloop
  endfacet
  facet normal 0.000000e+000 3.965082e-016 -1.000000e+000
    outer loop
      vertex   -8.757923e+001 1.750000e+001 -8.000000e+001
      vertex   -8.257923e+001 1.750000e+001 -8.000000e+001
      vertex   -8.257923e+001 -1.750000e+001 -8.000000e+001
    endloop
  endfacet
  facet normal 1.988154e-015 0.000000e+000 -1.000000e+000
    outer loop
      vertex   -8.257923e+001 1.750000e+001 -8.000000e+001
      vertex   -8.257923e+001 2.250000e+001 -8.000000e+001
      vertex   -7.559899e+001 2.031871e+001 -8.000000e+001
    endloop
  endfacet
  facet normal 6.997579e-016 -2.775558e-015 -1.000000e+000
    outer loop
      vertex   -7.559899e+001 -2.074018e+001 -8.000000e+001
      vertex   -8.257923e+001 -2.250000e+001 -8.000000e+001
      vertex   -8.257923e+001 -1.750000e+001 -8.000000e+001
    endloop
  endfacet
  facet normal 0.000000e+000 0.000000e+000 -1.000000e+000
    outer loop
      vertex   -1.044460e+001 -2.250000e+001 -8.000000e+001
      vertex   -8.257923e+001 -2.250000e+001 -8.000000e+001
      vertex   -7.559899e+001 -2.074018e+001 -8.000000e+001
    endloop
  endfacet
  facet normal 2.145050e-015 3.379971e-016 -1.000000e+000
    outer loop
      vertex   -8.257923e+001 -1.750000e+001 -8.000000e+001
      vertex   -7.559899e+001 2.031871e+001 -8.000000e+001
      vertex   -7.559899e+001 -2.074018e+001 -8.000000e+001
    endloop
  endfacet
  facet normal 0.000000e+000 -0.000000e+000 -1.000000e+000
    outer loop
      vertex   -8.757923e+001 -1.750000e+001 -8.000000e+001
      vertex   -8.757923e+001 -2.250000e+001 -8.000000e+001
      vertex   -9.000000e+001 -2.250000e+001 -8.000000e+001
    endloop
  endfacet
  facet normal -1.991514e-016 -7.373256e-015 -1.000000e+000
    outer loop
      vertex   -7.559899e+001 -2.074018e+001 -8.000000e+001
      vertex   -1.044460e+001 -2.061782e+001 -8.000000e+001
      vertex   -1.044460e+001 -2.250000e+001 -8.000000e+001
    endloop
  endfacet
  facet normal -1.000000e+000 0.000000e+000 0.000000e+000
    outer loop
      vertex   -8.757923e+001 -1.750000e+001 -9.500000e+001
      vertex   -8.757923e+001 -2.250000e+001 -9.500000e+001
      vertex   -8.757923e+001 -2.250000e+001 -8.000000e+001
    endloop
  endfacet
  facet normal -1.000000e+000 0.000000e+000 0.000000e+000
    outer loop
      vertex   -8.757923e+001 -2.250000e+001 -8.000000e+001
      vertex   -8.757923e+001 -1.750000e+001 -8.000000e+001
      vertex   -8.757923e+001 -1.750000e+001 -9.500000e+001
    endloop
  endfacet
  facet normal 1.000000e+000 0.000000e+000 0.000000e+000
    outer loop
      vertex   -8.257923e+001 -2.250000e+001 -9.000000e+001
      vertex   -8.257923e+001 -1.750000e+001 -9.000000e+001
      vertex   -8.257923e+001 -1.750000e+001 -8.000000e+001
    endloop
  endfacet
  facet normal 1.000000e+000 0.000000e+000 0.000000e+000
    outer loop
      vertex   -8.257923e+001 -1.750000e+001 -8.000000e+001
      vertex   -8.257923e+001 -2.250000e+001 -8.000000e+001
      vertex   -8.257923e+001 -2.250000e+001 -9.000000e+001
    endloop
  endfacet
  facet normal -4.809683e-017 -1.000000e+000 2.407696e-033
    outer loop
      vertex   9.555397e+000 -2.250000e+001 2.396000e+001
      vertex   9.555397e+000 -2.250000e+001 -8.000000e+001
      vertex   8.169002e+001 -2.250000e+001 -8.000000e+001
    endloop
  endfacet
  facet normal -1.304200e-016 -1.000000e+000 5.478816e-016
    outer loop
      vertex   6.993187e+001 -2.250000e+001 5.732969e+001
      vertex   7.645567e+000 -2.250000e+001 2.983785e+001
      vertex   9.555397e+000 -2.250000e+001 2.396000e+001
    endloop
  endfacet
  facet normal 1.171496e-017 -1.000000e+000 2.907139e-016
    outer loop
      vertex   9.555397e+000 -2.250000e+001 2.396000e+001
      vertex   9.000000e+001 -2.250000e+001 8.784077e+000
      vertex   6.993187e+001 -2.250000e+001 5.732969e+001
    endloop
  endfacet
  facet normal 7.179519e-017 -1.000000e+000 9.881760e-017
    outer loop
      vertex   2.626503e+001 -2.250000e+001 8.652923e+001
      vertex   2.645567e+000 -2.250000e+001 3.347057e+001
      vertex   7.645567e+000 -2.250000e+001 2.983785e+001
    endloop
  endfacet
  facet normal 0.000000e+000 -1.000000e+000 1.307778e-016
    outer loop
      vertex   -2.626503e+001 -2.250000e+001 8.652923e+001
      vertex   -3.534773e+000 -2.250000e+001 3.347057e+001
      vertex   2.645567e+000 -2.250000e+001 3.347057e+001
    endloop
  endfacet
  facet normal -6.768983e-017 -1.000000e+000 1.012277e-016
    outer loop
      vertex   -2.626503e+001 -2.250000e+001 8.652923e+001
      vertex   -6.993187e+001 -2.250000e+001 5.732969e+001
      vertex   -8.534773e+000 -2.250000e+001 2.983785e+001
    endloop
  endfacet
  facet normal 1.433197e-015 -1.000000e+000 0.000000e+000
    outer loop
      vertex   -9.000000e+001 -2.250000e+001 8.784077e+000
      vertex   -9.000000e+001 -2.250000e+001 -8.000000e+001
      vertex   -8.757923e+001 -2.250000e+001 -8.000000e+001
    endloop
  endfacet
  facet normal 0.000000e+000 -1.000000e+000 0.000000e+000
    outer loop
      vertex   -1.044460e+001 -2.250000e+001 2.396000e+001
      vertex   -8.757923e+001 -2.250000e+001 -8.000000e+001
      vertex   -8.257923e+001 -2.250000e+001 -8.000000e+001
    endloop
  endfacet
  facet normal 0.000000e+000 -1.000000e+000 0.000000e+000
    outer loop
      vertex   -8.757923e+001 -2.250000e+001 -8.000000e+001
      vertex   -8.757923e+001 -2.250000e+001 -9.500000e+001
      vertex   -8.257923e+001 -2.250000e+001 -9.000000e+001
    endloop
  endfacet
  facet normal 6.710772e-017 -1.000000e+000 1.003571e-016
    outer loop
      vertex   7.645567e+000 -2.250000e+001 2.983785e+001
      vertex   6.993187e+001 -2.250000e+001 5.732969e+001
      vertex   2.626503e+001 -2.250000e+001 8.652923e+001
    endloop
  endfacet
  facet normal -7.246187e-017 -1.000000e+000 9.973521e-017
    outer loop
      vertex   -8.534773e+000 -2.250000e+001 2.983785e+001
      vertex   -3.534773e+000 -2.250000e+001 3.347057e+001
      vertex   -2.626503e+001 -2.250000e+001 8.652923e+001
    endloop
  endfacet
  facet normal -1.185711e-017 -1.000000e+000 2.907727e-016
    outer loop
      vertex   -1.044460e+001 -2.250000e+001 2.396000e+001
      vertex   -6.993187e+001 -2.250000e+001 5.732969e+001
      vertex   -9.000000e+001 -2.250000e+001 8.784077e+000
    endloop
  endfacet
  facet normal 0.000000e+000 -1.000000e+000 0.000000e+000
    outer loop
      vertex   7.669002e+001 -2.250000e+001 -9.500000e+001
      vertex   8.669002e+001 -2.250000e+001 -9.500000e+001
      vertex   8.169002e+001 -2.250000e+001 -9.000000e+001
    endloop
  endfacet
  facet normal -0.000000e+000 -1.000000e+000 -3.469447e-016
    outer loop
      vertex   8.669002e+001 -2.250000e+001 -8.000000e+001
      vertex   8.169002e+001 -2.250000e+001 -8.000000e+001
      vertex   8.169002e+001 -2.250000e+001 -9.000000e+001
    endloop
  endfacet
  facet normal 0.000000e+000 -1.000000e+000 0.000000e+000
    outer loop
      vertex   -8.257923e+001 -2.250000e+001 -9.000000e+001
      vertex   -8.257923e+001 -2.250000e+001 -8.000000e+001
      vertex   -8.757923e+001 -2.250000e+001 -8.000000e+001
    endloop
  endfacet
  facet normal 0.000000e+000 -1.000000e+000 0.000000e+000
    outer loop
      vertex   -7.757923e+001 -2.250000e+001 -9.500000e+001
      vertex   -7.757923e+001 -2.250000e+001 -9.000000e+001
      vertex   -8.257923e+001 -2.250000e+001 -9.000000e+001
    endloop
  endfacet
  facet normal 0.000000e+000 -1.000000e+000 1.307778e-016
    outer loop
      vertex   2.645567e+000 -2.250000e+001 3.347057e+001
      vertex   2.626503e+001 -2.250000e+001 8.652923e+001
      vertex   -2.626503e+001 -2.250000e+001 8.652923e+001
    endloop
  endfacet
  facet normal 5.080059e-017 -1.000000e+000 -3.769223e-017
    outer loop
      vertex   -8.757923e+001 -2.250000e+001 -8.000000e+001
      vertex   -1.044460e+001 -2.250000e+001 2.396000e+001
      vertex   -9.000000e+001 -2.250000e+001 8.784077e+000
    endloop
  endfacet
  facet normal 0.000000e+000 -1.000000e+000 0.000000e+000
    outer loop
      vertex   9.000000e+001 -2.250000e+001 8.784077e+000
      vertex   8.169002e+001 -2.250000e+001 -8.000000e+001
      vertex   8.669002e+001 -2.250000e+001 -8.000000e+001
    endloop
  endfacet
  facet normal -2.312965e-016 -1.000000e+000 -2.312965e-016
    outer loop
      vertex   8.169002e+001 -2.250000e+001 -9.000000e+001
      vertex   8.669002e+001 -2.250000e+001 -9.500000e+001
      vertex   8.669002e+001 -2.250000e+001 -8.000000e+001
    endloop
  endfacet
  facet normal 0.000000e+000 -1.000000e+000 -0.000000e+000
    outer loop
      vertex   -8.257923e+001 -2.250000e+001 -9.000000e+001
      vertex   -8.757923e+001 -2.250000e+001 -9.500000e+001
      vertex   -7.757923e+001 -2.250000e+001 -9.500000e+001
    endloop
  endfacet
  facet normal 1.320689e-016 -1.000000e+000 5.473458e-016
    outer loop
      vertex   -1.044460e+001 -2.250000e+001 2.396000e+001
      vertex   -8.534773e+000 -2.250000e+001 2.983785e+001
      vertex   -6.993187e+001 -2.250000e+001 5.732969e+001
    endloop
  endfacet
  facet normal -0.000000e+000 -1.000000e+000 0.000000e+000
    outer loop
      vertex   8.169002e+001 -2.250000e+001 -9.000000e+001
      vertex   7.669002e+001 -2.250000e+001 -9.000000e+001
      vertex   7.669002e+001 -2.250000e+001 -9.500000e+001
    endloop
  endfacet
  facet normal -4.238008e-017 -1.000000e+000 3.966676e-018
    outer loop
      vertex   8.169002e+001 -2.250000e+001 -8.000000e+001
      vertex   9.000000e+001 -2.250000e+001 8.784077e+000
      vertex   9.555397e+000 -2.250000e+001 2.396000e+001
    endloop
  endfacet
  facet normal 0.000000e+000 -1.000000e+000 0.000000e+000
    outer loop
      vertex   -8.257923e+001 -2.250000e+001 -8.000000e+001
      vertex   -1.044460e+001 -2.250000e+001 -8.000000e+001
      vertex   -1.044460e+001 -2.250000e+001 2.396000e+001
    endloop
  endfacet
  facet normal 0.000000e+000 -1.000000e+000 0.000000e+000
    outer loop
      vertex   8.669002e+001 -2.250000e+001 -8.000000e+001
      vertex   9.000000e+001 -2.250000e+001 -8.000000e+001
      vertex   9.000000e+001 -2.250000e+001 8.784077e+000
    endloop
  endfacet
  facet normal 0.000000e+000 1.000000e+000 0.000000e+000
    outer loop
      vertex   -7.757923e+001 -1.750000e+001 -9.500000e+001
      vertex   -8.757923e+001 -1.750000e+001 -9.500000e+001
      vertex   -8.257923e+001 -1.750000e+001 -9.000000e+001
    endloop
  endfacet
  facet normal 0.000000e+000 1.000000e+000 0.000000e+000
    outer loop
      vertex   -8.757923e+001 -1.750000e+001 -8.000000e+001
      vertex   -8.257923e+001 -1.750000e+001 -8.000000e+001
      vertex   -8.257923e+001 -1.750000e+001 -9.000000e+001
    endloop
  endfacet
  facet normal 0.000000e+000 1.000000e+000 0.000000e+000
    outer loop
      vertex   -8.257923e+001 -1.750000e+001 -9.000000e+001
      vertex   -8.757923e+001 -1.750000e+001 -9.500000e+001
      vertex   -8.757923e+001 -1.750000e+001 -8.000000e+001
    endloop
  endfacet
  facet normal -0.000000e+000 1.000000e+000 0.000000e+000
    outer loop
      vertex   -8.257923e+001 -1.750000e+001 -9.000000e+001
      vertex   -7.757923e+001 -1.750000e+001 -9.000000e+001
      vertex   -7.757923e+001 -1.750000e+001 -9.500000e+001
    endloop
  endfacet
  facet normal 0.000000e+000 0.000000e+000 1.000000e+000
    outer loop
      vertex   -8.257923e+001 -1.750000e+001 -9.000000e+001
      vertex   -8.257923e+001 -2.250000e+001 -9.000000e+001
      vertex   -7.757923e+001 -2.250000e+001 -9.000000e+001
    endloop
  endfacet
  facet normal 0.000000e+000 -0.000000e+000 1.000000e+000
    outer loop
      vertex   -7.757923e+001 -2.250000e+001 -9.000000e+001
      vertex   -7.757923e+001 -1.750000e+001 -9.000000e+001
      vertex   -8.257923e+001 -1.750000e+001 -9.000000e+001
    endloop
  endfacet
  facet normal 1.000000e+000 0.000000e+000 -1.942890e-014
    outer loop
      vertex   -7.757923e+001 -1.750000e+001 -9.000000e+001
      vertex   -7.757923e+001 -2.250000e+001 -9.000000e+001
      vertex   -7.757923e+001 -2.250000e+001 -9.500000e+001
    endloop
  endfacet
  facet normal 1.000000e+000 0.000000e+000 -1.942890e-014
    outer loop
      vertex   -7.757923e+001 -2.250000e+001 -9.500000e+001
      vertex   -7.757923e+001 -1.750000e+001 -9.500000e+001
      vertex   -7.757923e+001 -1.750000e+001 -9.000000e+001
    endloop
  endfacet
  facet normal 0.000000e+000 -0.000000e+000 -1.000000e+000
    outer loop
      vertex   -7.757923e+001 -1.750000e+001 -9.500000e+001
      vertex   -7.757923e+001 -2.250000e+001 -9.500000e+001
      vertex   -8.757923e+001 -2.250000e+001 -9.500000e+001
    endloop
  endfacet
  facet normal 0.000000e+000 0.000000e+000 -1.000000e+000
    outer loop
      vertex   -8.757923e+001 -2.250000e+001 -9.500000e+001
      vertex   -8.757923e+001 -1.750000e+001 -9.500000e+001
      vertex   -7.757923e+001 -1.750000e+001 -9.500000e+001
    endloop
  endfacet
endsolid
