solid Base
  facet normal 1.636532e-017 0.000000e+000 -1.000000e+000
    outer loop
      vertex   4.240000e+002 4.075000e+002 -1.250000e+002
      vertex   4.240000e+002 -4.075000e+002 -1.250000e+002
      vertex   -4.240000e+002 -4.075000e+002 -1.250000e+002
    endloop
  endfacet
  facet normal 1.636532e-017 0.000000e+000 -1.000000e+000
    outer loop
      vertex   -4.240000e+002 -4.075000e+002 -1.250000e+002
      vertex   -4.240000e+002 4.075000e+002 -1.250000e+002
      vertex   4.240000e+002 4.075000e+002 -1.250000e+002
    endloop
  endfacet
  facet normal -1.000000e+000 0.000000e+000 0.000000e+000
    outer loop
      vertex   -4.240000e+002 4.075000e+002 -1.250000e+002
      vertex   -4.240000e+002 -4.075000e+002 -1.250000e+002
      vertex   -4.240000e+002 -4.075000e+002 1.250000e+002
    endloop
  endfacet
  facet normal -1.000000e+000 0.000000e+000 0.000000e+000
    outer loop
      vertex   -4.240000e+002 -4.075000e+002 1.250000e+002
      vertex   -4.240000e+002 4.075000e+002 1.250000e+002
      vertex   -4.240000e+002 4.075000e+002 -1.250000e+002
    endloop
  endfacet
  facet normal -1.636532e-017 0.000000e+000 1.000000e+000
    outer loop
      vertex   -4.240000e+002 4.075000e+002 1.250000e+002
      vertex   -4.240000e+002 -4.075000e+002 1.250000e+002
      vertex   4.240000e+002 -4.075000e+002 1.250000e+002
    endloop
  endfacet
  facet normal -1.636532e-017 0.000000e+000 1.000000e+000
    outer loop
      vertex   4.240000e+002 -4.075000e+002 1.250000e+002
      vertex   4.240000e+002 4.075000e+002 1.250000e+002
      vertex   -4.240000e+002 4.075000e+002 1.250000e+002
    endloop
  endfacet
  facet normal 1.000000e+000 0.000000e+000 0.000000e+000
    outer loop
      vertex   4.240000e+002 4.075000e+002 1.250000e+002
      vertex   4.240000e+002 -4.075000e+002 1.250000e+002
      vertex   4.240000e+002 -4.075000e+002 -1.250000e+002
    endloop
  endfacet
  facet normal 1.000000e+000 0.000000e+000 0.000000e+000
    outer loop
      vertex   4.240000e+002 -4.075000e+002 -1.250000e+002
      vertex   4.240000e+002 4.075000e+002 -1.250000e+002
      vertex   4.240000e+002 4.075000e+002 1.250000e+002
    endloop
  endfacet
  facet normal 0.000000e+000 1.000000e+000 0.000000e+000
    outer loop
      vertex   4.240000e+002 4.075000e+002 1.250000e+002
      vertex   4.240000e+002 4.075000e+002 -1.250000e+002
      vertex   -4.240000e+002 4.075000e+002 -1.250000e+002
    endloop
  endfacet
  facet normal 0.000000e+000 1.000000e+000 0.000000e+000
    outer loop
      vertex   -4.240000e+002 4.075000e+002 -1.250000e+002
      vertex   -4.240000e+002 4.075000e+002 1.250000e+002
      vertex   4.240000e+002 4.075000e+002 1.250000e+002
    endloop
  endfacet
  facet normal 0.000000e+000 -1.000000e+000 0.000000e+000
    outer loop
      vertex   -4.240000e+002 -4.075000e+002 1.250000e+002
      vertex   -4.240000e+002 -4.075000e+002 -1.250000e+002
      vertex   4.240000e+002 -4.075000e+002 -1.250000e+002
    endloop
  endfacet
  facet normal 0.000000e+000 -1.000000e+000 0.000000e+000
    outer loop
      vertex   4.240000e+002 -4.075000e+002 -1.250000e+002
      vertex   4.240000e+002 -4.075000e+002 1.250000e+002
      vertex   -4.240000e+002 -4.075000e+002 1.250000e+002
    endloop
  endfacet
endsolid
