solid CorazaRuedaDentada
  facet normal -4.250000e-001 0.000000e+000 9.051933e-001
    outer loop
      vertex   -1.601921e+002 5.400000e+001 9.500000e+001
      vertex   -3.490000e+002 5.400000e+001 6.352234e+000
      vertex   -3.490000e+002 -5.400000e+001 6.352234e+000
    endloop
  endfacet
  facet normal -4.250000e-001 -1.540131e-016 9.051933e-001
    outer loop
      vertex   -3.490000e+002 -5.400000e+001 6.352234e+000
      vertex   -1.601921e+002 -5.400000e+001 9.500000e+001
      vertex   -1.601921e+002 5.400000e+001 9.500000e+001
    endloop
  endfacet
  facet normal 4.331609e-017 -1.284980e-016 1.000000e+000
    outer loop
      vertex   1.601921e+002 5.400000e+001 9.500000e+001
      vertex   -1.601921e+002 5.400000e+001 9.500000e+001
      vertex   -1.601921e+002 -5.400000e+001 9.500000e+001
    endloop
  endfacet
  facet normal 0.000000e+000 0.000000e+000 1.000000e+000
    outer loop
      vertex   -1.601921e+002 -5.400000e+001 9.500000e+001
      vertex   1.601921e+002 -5.400000e+001 9.500000e+001
      vertex   1.601921e+002 5.400000e+001 9.500000e+001
    endloop
  endfacet
  facet normal 4.250000e-001 0.000000e+000 9.051933e-001
    outer loop
      vertex   3.490000e+002 5.400000e+001 6.352234e+000
      vertex   1.601921e+002 5.400000e+001 9.500000e+001
      vertex   1.601921e+002 -5.400000e+001 9.500000e+001
    endloop
  endfacet
  facet normal 4.250000e-001 1.540131e-016 9.051933e-001
    outer loop
      vertex   1.601921e+002 -5.400000e+001 9.500000e+001
      vertex   3.490000e+002 -5.400000e+001 6.352234e+000
      vertex   3.490000e+002 5.400000e+001 6.352234e+000
    endloop
  endfacet
  facet normal 0.000000e+000 -1.000000e+000 0.000000e+000
    outer loop
      vertex   -3.490000e+002 -5.400000e+001 -8.500000e+001
      vertex   1.601921e+002 -5.400000e+001 9.500000e+001
      vertex   -1.601921e+002 -5.400000e+001 9.500000e+001
    endloop
  endfacet
  facet normal 0.000000e+000 -1.000000e+000 0.000000e+000
    outer loop
      vertex   3.490000e+002 -5.400000e+001 -8.500000e+001
      vertex   3.490000e+002 -5.400000e+001 6.352234e+000
      vertex   1.601921e+002 -5.400000e+001 9.500000e+001
    endloop
  endfacet
  facet normal 0.000000e+000 -1.000000e+000 -0.000000e+000
    outer loop
      vertex   1.601921e+002 -5.400000e+001 9.500000e+001
      vertex   -3.490000e+002 -5.400000e+001 -8.500000e+001
      vertex   3.490000e+002 -5.400000e+001 -8.500000e+001
    endloop
  endfacet
  facet normal 0.000000e+000 -1.000000e+000 0.000000e+000
    outer loop
      vertex   -1.601921e+002 -5.400000e+001 9.500000e+001
      vertex   -3.490000e+002 -5.400000e+001 6.352234e+000
      vertex   -3.490000e+002 -5.400000e+001 -8.500000e+001
    endloop
  endfacet
  facet normal 0.000000e+000 1.000000e+000 0.000000e+000
    outer loop
      vertex   3.490000e+002 5.400000e+001 -8.500000e+001
      vertex   -1.601921e+002 5.400000e+001 9.500000e+001
      vertex   1.601921e+002 5.400000e+001 9.500000e+001
    endloop
  endfacet
  facet normal 0.000000e+000 1.000000e+000 0.000000e+000
    outer loop
      vertex   -3.490000e+002 5.400000e+001 -8.500000e+001
      vertex   -3.490000e+002 5.400000e+001 6.352234e+000
      vertex   -1.601921e+002 5.400000e+001 9.500000e+001
    endloop
  endfacet
  facet normal 0.000000e+000 1.000000e+000 0.000000e+000
    outer loop
      vertex   -1.601921e+002 5.400000e+001 9.500000e+001
      vertex   3.490000e+002 5.400000e+001 -8.500000e+001
      vertex   -3.490000e+002 5.400000e+001 -8.500000e+001
    endloop
  endfacet
  facet normal 0.000000e+000 1.000000e+000 0.000000e+000
    outer loop
      vertex   1.601921e+002 5.400000e+001 9.500000e+001
      vertex   3.490000e+002 5.400000e+001 6.352234e+000
      vertex   3.490000e+002 5.400000e+001 -8.500000e+001
    endloop
  endfacet
  facet normal 1.000000e+000 0.000000e+000 -6.076606e-016
    outer loop
      vertex   3.490000e+002 -5.400000e+001 -8.500000e+001
      vertex   3.490000e+002 5.400000e+001 -8.500000e+001
      vertex   3.490000e+002 5.400000e+001 6.352234e+000
    endloop
  endfacet
  facet normal 1.000000e+000 -7.808319e-032 -6.076606e-016
    outer loop
      vertex   3.490000e+002 5.400000e+001 6.352234e+000
      vertex   3.490000e+002 -5.400000e+001 6.352234e+000
      vertex   3.490000e+002 -5.400000e+001 -8.500000e+001
    endloop
  endfacet
  facet normal -1.000000e+000 0.000000e+000 -0.000000e+000
    outer loop
      vertex   -3.490000e+002 5.400000e+001 6.352234e+000
      vertex   -3.490000e+002 5.400000e+001 -8.500000e+001
      vertex   -3.490000e+002 -5.400000e+001 -8.500000e+001
    endloop
  endfacet
  facet normal -1.000000e+000 0.000000e+000 0.000000e+000
    outer loop
      vertex   -3.490000e+002 -5.400000e+001 -8.500000e+001
      vertex   -3.490000e+002 -5.400000e+001 6.352234e+000
      vertex   -3.490000e+002 5.400000e+001 6.352234e+000
    endloop
  endfacet
  facet normal 0.000000e+000 -0.000000e+000 -1.000000e+000
    outer loop
      vertex   3.490000e+002 5.400000e+001 -8.500000e+001
      vertex   3.490000e+002 -5.400000e+001 -8.500000e+001
      vertex   3.390000e+002 -4.400000e+001 -8.500000e+001
    endloop
  endfacet
  facet normal 0.000000e+000 0.000000e+000 -1.000000e+000
    outer loop
      vertex   3.490000e+002 -5.400000e+001 -8.500000e+001
      vertex   -3.490000e+002 -5.400000e+001 -8.500000e+001
      vertex   -3.390000e+002 -4.400000e+001 -8.500000e+001
    endloop
  endfacet
  facet normal 0.000000e+000 0.000000e+000 -1.000000e+000
    outer loop
      vertex   -3.390000e+002 -4.400000e+001 -8.500000e+001
      vertex   3.390000e+002 -4.400000e+001 -8.500000e+001
      vertex   3.490000e+002 -5.400000e+001 -8.500000e+001
    endloop
  endfacet
  facet normal 0.000000e+000 0.000000e+000 -1.000000e+000
    outer loop
      vertex   -3.490000e+002 -5.400000e+001 -8.500000e+001
      vertex   -3.490000e+002 5.400000e+001 -8.500000e+001
      vertex   -3.390000e+002 4.400000e+001 -8.500000e+001
    endloop
  endfacet
  facet normal 0.000000e+000 0.000000e+000 -1.000000e+000
    outer loop
      vertex   -3.490000e+002 5.400000e+001 -8.500000e+001
      vertex   3.490000e+002 5.400000e+001 -8.500000e+001
      vertex   3.390000e+002 4.400000e+001 -8.500000e+001
    endloop
  endfacet
  facet normal 0.000000e+000 -0.000000e+000 -1.000000e+000
    outer loop
      vertex   -3.390000e+002 4.400000e+001 -8.500000e+001
      vertex   -3.390000e+002 -4.400000e+001 -8.500000e+001
      vertex   -3.490000e+002 -5.400000e+001 -8.500000e+001
    endloop
  endfacet
  facet normal 0.000000e+000 0.000000e+000 -1.000000e+000
    outer loop
      vertex   3.390000e+002 -4.400000e+001 -8.500000e+001
      vertex   3.390000e+002 4.400000e+001 -8.500000e+001
      vertex   3.490000e+002 5.400000e+001 -8.500000e+001
    endloop
  endfacet
  facet normal -0.000000e+000 0.000000e+000 -1.000000e+000
    outer loop
      vertex   3.390000e+002 4.400000e+001 -8.500000e+001
      vertex   -3.390000e+002 4.400000e+001 -8.500000e+001
      vertex   -3.490000e+002 5.400000e+001 -8.500000e+001
    endloop
  endfacet
  facet normal -1.000000e+000 0.000000e+000 0.000000e+000
    outer loop
      vertex   3.390000e+002 4.400000e+001 -8.500000e+001
      vertex   3.390000e+002 -4.400000e+001 -8.500000e+001
      vertex   3.390000e+002 -4.400000e+001 0.000000e+000
    endloop
  endfacet
  facet normal -1.000000e+000 0.000000e+000 0.000000e+000
    outer loop
      vertex   3.390000e+002 -4.400000e+001 0.000000e+000
      vertex   3.390000e+002 4.400000e+001 0.000000e+000
      vertex   3.390000e+002 4.400000e+001 -8.500000e+001
    endloop
  endfacet
  facet normal -4.250000e-001 -0.000000e+000 -9.051933e-001
    outer loop
      vertex   3.390000e+002 4.400000e+001 0.000000e+000
      vertex   3.390000e+002 -4.400000e+001 0.000000e+000
      vertex   1.579613e+002 -4.400000e+001 8.500000e+001
    endloop
  endfacet
  facet normal -4.250000e-001 0.000000e+000 -9.051933e-001
    outer loop
      vertex   1.579613e+002 -4.400000e+001 8.500000e+001
      vertex   1.579613e+002 4.400000e+001 8.500000e+001
      vertex   3.390000e+002 4.400000e+001 0.000000e+000
    endloop
  endfacet
  facet normal 0.000000e+000 1.000000e+000 0.000000e+000
    outer loop
      vertex   3.390000e+002 -4.400000e+001 -8.500000e+001
      vertex   -1.579613e+002 -4.400000e+001 8.500000e+001
      vertex   1.579613e+002 -4.400000e+001 8.500000e+001
    endloop
  endfacet
  facet normal 0.000000e+000 1.000000e+000 0.000000e+000
    outer loop
      vertex   -3.390000e+002 -4.400000e+001 -8.500000e+001
      vertex   -3.390000e+002 -4.400000e+001 0.000000e+000
      vertex   -1.579613e+002 -4.400000e+001 8.500000e+001
    endloop
  endfacet
  facet normal 0.000000e+000 1.000000e+000 0.000000e+000
    outer loop
      vertex   -1.579613e+002 -4.400000e+001 8.500000e+001
      vertex   3.390000e+002 -4.400000e+001 -8.500000e+001
      vertex   -3.390000e+002 -4.400000e+001 -8.500000e+001
    endloop
  endfacet
  facet normal 0.000000e+000 1.000000e+000 0.000000e+000
    outer loop
      vertex   1.579613e+002 -4.400000e+001 8.500000e+001
      vertex   3.390000e+002 -4.400000e+001 0.000000e+000
      vertex   3.390000e+002 -4.400000e+001 -8.500000e+001
    endloop
  endfacet
  facet normal 3.586004e-033 -1.000000e+000 4.081702e-017
    outer loop
      vertex   -3.390000e+002 4.400000e+001 -8.500000e+001
      vertex   1.579613e+002 4.400000e+001 8.500000e+001
      vertex   -1.579613e+002 4.400000e+001 8.500000e+001
    endloop
  endfacet
  facet normal 0.000000e+000 -1.000000e+000 0.000000e+000
    outer loop
      vertex   3.390000e+002 4.400000e+001 -8.500000e+001
      vertex   3.390000e+002 4.400000e+001 0.000000e+000
      vertex   1.579613e+002 4.400000e+001 8.500000e+001
    endloop
  endfacet
  facet normal 1.023436e-017 -1.000000e+000 1.089891e-017
    outer loop
      vertex   1.579613e+002 4.400000e+001 8.500000e+001
      vertex   -3.390000e+002 4.400000e+001 -8.500000e+001
      vertex   3.390000e+002 4.400000e+001 -8.500000e+001
    endloop
  endfacet
  facet normal -3.832824e-017 -1.000000e+000 8.163405e-017
    outer loop
      vertex   -1.579613e+002 4.400000e+001 8.500000e+001
      vertex   -3.390000e+002 4.400000e+001 0.000000e+000
      vertex   -3.390000e+002 4.400000e+001 -8.500000e+001
    endloop
  endfacet
  facet normal -4.392780e-017 -0.000000e+000 -1.000000e+000
    outer loop
      vertex   1.579613e+002 4.400000e+001 8.500000e+001
      vertex   1.579613e+002 -4.400000e+001 8.500000e+001
      vertex   -1.579613e+002 -4.400000e+001 8.500000e+001
    endloop
  endfacet
  facet normal -4.392780e-017 0.000000e+000 -1.000000e+000
    outer loop
      vertex   -1.579613e+002 -4.400000e+001 8.500000e+001
      vertex   -1.579613e+002 4.400000e+001 8.500000e+001
      vertex   1.579613e+002 4.400000e+001 8.500000e+001
    endloop
  endfacet
  facet normal 4.250000e-001 0.000000e+000 -9.051933e-001
    outer loop
      vertex   -1.579613e+002 4.400000e+001 8.500000e+001
      vertex   -1.579613e+002 -4.400000e+001 8.500000e+001
      vertex   -3.390000e+002 -4.400000e+001 0.000000e+000
    endloop
  endfacet
  facet normal 4.250000e-001 0.000000e+000 -9.051933e-001
    outer loop
      vertex   -3.390000e+002 -4.400000e+001 0.000000e+000
      vertex   -3.390000e+002 4.400000e+001 0.000000e+000
      vertex   -1.579613e+002 4.400000e+001 8.500000e+001
    endloop
  endfacet
  facet normal 1.000000e+000 0.000000e+000 0.000000e+000
    outer loop
      vertex   -3.390000e+002 -4.400000e+001 0.000000e+000
      vertex   -3.390000e+002 -4.400000e+001 -8.500000e+001
      vertex   -3.390000e+002 4.400000e+001 -8.500000e+001
    endloop
  endfacet
  facet normal 1.000000e+000 0.000000e+000 -0.000000e+000
    outer loop
      vertex   -3.390000e+002 4.400000e+001 -8.500000e+001
      vertex   -3.390000e+002 4.400000e+001 0.000000e+000
      vertex   -3.390000e+002 -4.400000e+001 0.000000e+000
    endloop
  endfacet
endsolid
