solid EjePpalR2
  facet normal 0.000000e+000 -1.000000e+000 0.000000e+000
    outer loop
      vertex   0.000000e+000 -1.275000e+002 0.000000e+000
      vertex   1.153350e+000 -1.275000e+002 -1.587449e+000
      vertex   1.866159e+000 -1.275000e+002 -6.063517e-001
    endloop
  endfacet
  facet normal 0.000000e+000 -1.000000e+000 0.000000e+000
    outer loop
      vertex   1.866159e+000 -1.275000e+002 -6.063517e-001
      vertex   1.866159e+000 -1.275000e+002 6.063517e-001
      vertex   0.000000e+000 -1.275000e+002 0.000000e+000
    endloop
  endfacet
  facet normal -0.000000e+000 -1.000000e+000 0.000000e+000
    outer loop
      vertex   1.866159e+000 -1.275000e+002 6.063517e-001
      vertex   1.153350e+000 -1.275000e+002 1.587449e+000
      vertex   0.000000e+000 -1.275000e+002 0.000000e+000
    endloop
  endfacet
  facet normal -0.000000e+000 -1.000000e+000 0.000000e+000
    outer loop
      vertex   1.153350e+000 -1.275000e+002 1.587449e+000
      vertex   2.402996e-016 -1.275000e+002 1.962195e+000
      vertex   0.000000e+000 -1.275000e+002 0.000000e+000
    endloop
  endfacet
  facet normal 0.000000e+000 -1.000000e+000 0.000000e+000
    outer loop
      vertex   2.402996e-016 -1.275000e+002 1.962195e+000
      vertex   -1.153350e+000 -1.275000e+002 1.587449e+000
      vertex   0.000000e+000 -1.275000e+002 0.000000e+000
    endloop
  endfacet
  facet normal 0.000000e+000 -1.000000e+000 -0.000000e+000
    outer loop
      vertex   -1.153350e+000 -1.275000e+002 1.587449e+000
      vertex   -1.866159e+000 -1.275000e+002 6.063517e-001
      vertex   0.000000e+000 -1.275000e+002 0.000000e+000
    endloop
  endfacet
  facet normal 0.000000e+000 -1.000000e+000 -0.000000e+000
    outer loop
      vertex   -1.866159e+000 -1.275000e+002 6.063517e-001
      vertex   -1.866159e+000 -1.275000e+002 -6.063517e-001
      vertex   0.000000e+000 -1.275000e+002 0.000000e+000
    endloop
  endfacet
  facet normal 0.000000e+000 -1.000000e+000 0.000000e+000
    outer loop
      vertex   -1.866159e+000 -1.275000e+002 -6.063517e-001
      vertex   -1.153350e+000 -1.275000e+002 -1.587449e+000
      vertex   0.000000e+000 -1.275000e+002 0.000000e+000
    endloop
  endfacet
  facet normal 0.000000e+000 -1.000000e+000 0.000000e+000
    outer loop
      vertex   -1.153350e+000 -1.275000e+002 -1.587449e+000
      vertex   0.000000e+000 -1.275000e+002 -1.962195e+000
      vertex   0.000000e+000 -1.275000e+002 0.000000e+000
    endloop
  endfacet
  facet normal 0.000000e+000 -1.000000e+000 0.000000e+000
    outer loop
      vertex   0.000000e+000 -1.275000e+002 -1.962195e+000
      vertex   1.153350e+000 -1.275000e+002 -1.587449e+000
      vertex   0.000000e+000 -1.275000e+002 0.000000e+000
    endloop
  endfacet
  facet normal 2.588190e-001 -3.922796e-016 -9.659258e-001
    outer loop
      vertex   0.000000e+000 -1.275000e+002 -1.962195e+000
      vertex   7.208989e-016 -1.270244e+002 -1.962195e+000
      vertex   9.810977e-001 -1.270244e+002 -1.699311e+000
    endloop
  endfacet
  facet normal 3.071050e-001 -1.110704e-001 -9.451719e-001
    outer loop
      vertex   9.810977e-001 -1.270244e+002 -1.699311e+000
      vertex   1.153350e+000 -1.275000e+002 -1.587449e+000
      vertex   0.000000e+000 -1.275000e+002 -1.962195e+000
    endloop
  endfacet
  facet normal 7.042741e-001 8.941969e-002 -7.042741e-001
    outer loop
      vertex   1.153350e+000 -1.275000e+002 -1.587449e+000
      vertex   1.123154e+000 -1.270244e+002 -1.557254e+000
      vertex   1.699311e+000 -1.270244e+002 -9.810977e-001
    endloop
  endfacet
  facet normal 7.963163e-001 -1.764976e-001 -5.785577e-001
    outer loop
      vertex   1.699311e+000 -1.270244e+002 -9.810977e-001
      vertex   1.866159e+000 -1.275000e+002 -6.063517e-001
      vertex   1.153350e+000 -1.275000e+002 -1.587449e+000
    endloop
  endfacet
  facet normal 9.572530e-001 1.337049e-001 -2.564952e-001
    outer loop
      vertex   1.866159e+000 -1.275000e+002 -6.063517e-001
      vertex   1.804174e+000 -1.270244e+002 -5.897430e-001
      vertex   1.962195e+000 -1.270244e+002 1.201498e-016
    endloop
  endfacet
  facet normal 9.802186e-001 -1.979179e-001 -1.686844e-016
    outer loop
      vertex   1.962195e+000 -1.270244e+002 1.201498e-016
      vertex   1.866159e+000 -1.275000e+002 6.063517e-001
      vertex   1.866159e+000 -1.275000e+002 -6.063517e-001
    endloop
  endfacet
  facet normal 7.963163e-001 -1.764976e-001 5.785577e-001
    outer loop
      vertex   1.153350e+000 -1.275000e+002 1.587449e+000
      vertex   1.866159e+000 -1.275000e+002 6.063517e-001
      vertex   1.699311e+000 -1.270244e+002 9.810977e-001
    endloop
  endfacet
  facet normal 9.572530e-001 1.337049e-001 2.564952e-001
    outer loop
      vertex   1.866159e+000 -1.275000e+002 6.063517e-001
      vertex   1.804174e+000 -1.270244e+002 5.897430e-001
      vertex   1.699311e+000 -1.270244e+002 9.810977e-001
    endloop
  endfacet
  facet normal 3.071050e-001 -1.110704e-001 9.451719e-001
    outer loop
      vertex   2.402996e-016 -1.275000e+002 1.962195e+000
      vertex   1.153350e+000 -1.275000e+002 1.587449e+000
      vertex   9.810977e-001 -1.270244e+002 1.699311e+000
    endloop
  endfacet
  facet normal 7.042741e-001 8.941969e-002 7.042741e-001
    outer loop
      vertex   1.153350e+000 -1.275000e+002 1.587449e+000
      vertex   1.123154e+000 -1.270244e+002 1.557254e+000
      vertex   9.810977e-001 -1.270244e+002 1.699311e+000
    endloop
  endfacet
  facet normal -2.588190e-001 -1.307599e-016 9.659258e-001
    outer loop
      vertex   2.402996e-016 -1.275000e+002 1.962195e+000
      vertex   0.000000e+000 -1.270244e+002 1.962195e+000
      vertex   -9.810977e-001 -1.270244e+002 1.699311e+000
    endloop
  endfacet
  facet normal -3.071050e-001 -1.110704e-001 9.451719e-001
    outer loop
      vertex   -9.810977e-001 -1.270244e+002 1.699311e+000
      vertex   -1.153350e+000 -1.275000e+002 1.587449e+000
      vertex   2.402996e-016 -1.275000e+002 1.962195e+000
    endloop
  endfacet
  facet normal -7.042741e-001 8.941969e-002 7.042741e-001
    outer loop
      vertex   -1.153350e+000 -1.275000e+002 1.587449e+000
      vertex   -1.123154e+000 -1.270244e+002 1.557254e+000
      vertex   -1.699311e+000 -1.270244e+002 9.810977e-001
    endloop
  endfacet
  facet normal -7.963163e-001 -1.764976e-001 5.785577e-001
    outer loop
      vertex   -1.699311e+000 -1.270244e+002 9.810977e-001
      vertex   -1.866159e+000 -1.275000e+002 6.063517e-001
      vertex   -1.153350e+000 -1.275000e+002 1.587449e+000
    endloop
  endfacet
  facet normal -9.802186e-001 -1.979179e-001 1.752704e-016
    outer loop
      vertex   -1.866159e+000 -1.275000e+002 -6.063517e-001
      vertex   -1.866159e+000 -1.275000e+002 6.063517e-001
      vertex   -1.962195e+000 -1.270244e+002 -3.604495e-016
    endloop
  endfacet
  facet normal -9.572530e-001 1.337049e-001 2.564952e-001
    outer loop
      vertex   -1.866159e+000 -1.275000e+002 6.063517e-001
      vertex   -1.804174e+000 -1.270244e+002 5.897430e-001
      vertex   -1.962195e+000 -1.270244e+002 -3.604495e-016
    endloop
  endfacet
  facet normal -7.963163e-001 -1.764976e-001 -5.785577e-001
    outer loop
      vertex   -1.153350e+000 -1.275000e+002 -1.587449e+000
      vertex   -1.866159e+000 -1.275000e+002 -6.063517e-001
      vertex   -1.699311e+000 -1.270244e+002 -9.810977e-001
    endloop
  endfacet
  facet normal -9.572530e-001 1.337049e-001 -2.564952e-001
    outer loop
      vertex   -1.866159e+000 -1.275000e+002 -6.063517e-001
      vertex   -1.804174e+000 -1.270244e+002 -5.897430e-001
      vertex   -1.699311e+000 -1.270244e+002 -9.810977e-001
    endloop
  endfacet
  facet normal -3.071050e-001 -1.110704e-001 -9.451719e-001
    outer loop
      vertex   0.000000e+000 -1.275000e+002 -1.962195e+000
      vertex   -1.153350e+000 -1.275000e+002 -1.587449e+000
      vertex   -9.810977e-001 -1.270244e+002 -1.699311e+000
    endloop
  endfacet
  facet normal -7.042741e-001 8.941969e-002 -7.042741e-001
    outer loop
      vertex   -1.153350e+000 -1.275000e+002 -1.587449e+000
      vertex   -1.123154e+000 -1.270244e+002 -1.557254e+000
      vertex   -9.810977e-001 -1.270244e+002 -1.699311e+000
    endloop
  endfacet
  facet normal -2.588190e-001 3.287443e-016 -9.659258e-001
    outer loop
      vertex   -9.810977e-001 -1.270244e+002 -1.699311e+000
      vertex   7.208989e-016 -1.270244e+002 -1.962195e+000
      vertex   0.000000e+000 -1.275000e+002 -1.962195e+000
    endloop
  endfacet
  facet normal -7.042741e-001 8.941969e-002 -7.042741e-001
    outer loop
      vertex   -1.699311e+000 -1.270244e+002 -9.810977e-001
      vertex   -1.123154e+000 -1.270244e+002 -1.557254e+000
      vertex   -1.153350e+000 -1.275000e+002 -1.587449e+000
    endloop
  endfacet
  facet normal -9.572530e-001 1.337049e-001 -2.564952e-001
    outer loop
      vertex   -1.962195e+000 -1.270244e+002 -3.604495e-016
      vertex   -1.804174e+000 -1.270244e+002 -5.897430e-001
      vertex   -1.866159e+000 -1.275000e+002 -6.063517e-001
    endloop
  endfacet
  facet normal -9.572530e-001 1.337049e-001 2.564952e-001
    outer loop
      vertex   -1.699311e+000 -1.270244e+002 9.810977e-001
      vertex   -1.804174e+000 -1.270244e+002 5.897430e-001
      vertex   -1.866159e+000 -1.275000e+002 6.063517e-001
    endloop
  endfacet
  facet normal -7.042741e-001 8.941969e-002 7.042741e-001
    outer loop
      vertex   -9.810977e-001 -1.270244e+002 1.699311e+000
      vertex   -1.123154e+000 -1.270244e+002 1.557254e+000
      vertex   -1.153350e+000 -1.275000e+002 1.587449e+000
    endloop
  endfacet
  facet normal 2.588190e-001 1.095814e-016 9.659258e-001
    outer loop
      vertex   9.810977e-001 -1.270244e+002 1.699311e+000
      vertex   0.000000e+000 -1.270244e+002 1.962195e+000
      vertex   2.402996e-016 -1.275000e+002 1.962195e+000
    endloop
  endfacet
  facet normal 7.042741e-001 8.941969e-002 7.042741e-001
    outer loop
      vertex   1.699311e+000 -1.270244e+002 9.810977e-001
      vertex   1.123154e+000 -1.270244e+002 1.557254e+000
      vertex   1.153350e+000 -1.275000e+002 1.587449e+000
    endloop
  endfacet
  facet normal 9.572530e-001 1.337049e-001 2.564952e-001
    outer loop
      vertex   1.962195e+000 -1.270244e+002 1.201498e-016
      vertex   1.804174e+000 -1.270244e+002 5.897430e-001
      vertex   1.866159e+000 -1.275000e+002 6.063517e-001
    endloop
  endfacet
  facet normal 9.572530e-001 1.337049e-001 -2.564952e-001
    outer loop
      vertex   1.699311e+000 -1.270244e+002 -9.810977e-001
      vertex   1.804174e+000 -1.270244e+002 -5.897430e-001
      vertex   1.866159e+000 -1.275000e+002 -6.063517e-001
    endloop
  endfacet
  facet normal 7.042741e-001 8.941969e-002 -7.042741e-001
    outer loop
      vertex   9.810977e-001 -1.270244e+002 -1.699311e+000
      vertex   1.123154e+000 -1.270244e+002 -1.557254e+000
      vertex   1.153350e+000 -1.275000e+002 -1.587449e+000
    endloop
  endfacet
  facet normal 1.255452e-001 -8.744758e-001 4.685409e-001
    outer loop
      vertex   0.000000e+000 -1.267362e+002 2.500000e+000
      vertex   0.000000e+000 -1.270244e+002 1.962195e+000
      vertex   9.810977e-001 -1.270244e+002 1.699311e+000
    endloop
  endfacet
  facet normal 3.429957e-001 -8.744758e-001 3.429957e-001
    outer loop
      vertex   2.165064e+000 -1.267362e+002 1.250000e+000
      vertex   1.250000e+000 -1.267362e+002 2.165064e+000
      vertex   1.123154e+000 -1.270244e+002 1.557254e+000
    endloop
  endfacet
  facet normal 3.429957e-001 -8.744758e-001 3.429957e-001
    outer loop
      vertex   1.250000e+000 -1.267362e+002 2.165064e+000
      vertex   9.810977e-001 -1.270244e+002 1.699311e+000
      vertex   1.123154e+000 -1.270244e+002 1.557254e+000
    endloop
  endfacet
  facet normal 4.685409e-001 -8.744758e-001 1.255452e-001
    outer loop
      vertex   2.500000e+000 -1.267362e+002 1.530808e-016
      vertex   2.165064e+000 -1.267362e+002 1.250000e+000
      vertex   1.804174e+000 -1.270244e+002 5.897430e-001
    endloop
  endfacet
  facet normal 4.685409e-001 -8.744758e-001 1.255452e-001
    outer loop
      vertex   2.165064e+000 -1.267362e+002 1.250000e+000
      vertex   1.699311e+000 -1.270244e+002 9.810977e-001
      vertex   1.804174e+000 -1.270244e+002 5.897430e-001
    endloop
  endfacet
  facet normal 4.685409e-001 -8.744758e-001 -1.255452e-001
    outer loop
      vertex   2.500000e+000 -1.267362e+002 1.530808e-016
      vertex   1.962195e+000 -1.270244e+002 1.201498e-016
      vertex   1.804174e+000 -1.270244e+002 -5.897430e-001
    endloop
  endfacet
  facet normal 4.685409e-001 -8.744758e-001 -1.255452e-001
    outer loop
      vertex   1.804174e+000 -1.270244e+002 -5.897430e-001
      vertex   2.165064e+000 -1.267362e+002 -1.250000e+000
      vertex   2.500000e+000 -1.267362e+002 1.530808e-016
    endloop
  endfacet
  facet normal 3.429957e-001 -8.744758e-001 -3.429957e-001
    outer loop
      vertex   2.165064e+000 -1.267362e+002 -1.250000e+000
      vertex   1.699311e+000 -1.270244e+002 -9.810977e-001
      vertex   1.123154e+000 -1.270244e+002 -1.557254e+000
    endloop
  endfacet
  facet normal 3.429957e-001 -8.744758e-001 -3.429957e-001
    outer loop
      vertex   1.123154e+000 -1.270244e+002 -1.557254e+000
      vertex   1.250000e+000 -1.267362e+002 -2.165064e+000
      vertex   2.165064e+000 -1.267362e+002 -1.250000e+000
    endloop
  endfacet
  facet normal 1.255452e-001 -8.744758e-001 -4.685409e-001
    outer loop
      vertex   1.250000e+000 -1.267362e+002 -2.165064e+000
      vertex   9.810977e-001 -1.270244e+002 -1.699311e+000
      vertex   7.208989e-016 -1.270244e+002 -1.962195e+000
    endloop
  endfacet
  facet normal -1.255452e-001 -8.744758e-001 -4.685409e-001
    outer loop
      vertex   3.061617e-016 -1.267362e+002 -2.500000e+000
      vertex   7.208989e-016 -1.270244e+002 -1.962195e+000
      vertex   -9.810977e-001 -1.270244e+002 -1.699311e+000
    endloop
  endfacet
  facet normal -3.429957e-001 -8.744758e-001 -3.429957e-001
    outer loop
      vertex   -2.165064e+000 -1.267362e+002 -1.250000e+000
      vertex   -1.250000e+000 -1.267362e+002 -2.165064e+000
      vertex   -1.123154e+000 -1.270244e+002 -1.557254e+000
    endloop
  endfacet
  facet normal -3.429957e-001 -8.744758e-001 -3.429957e-001
    outer loop
      vertex   -1.250000e+000 -1.267362e+002 -2.165064e+000
      vertex   -9.810977e-001 -1.270244e+002 -1.699311e+000
      vertex   -1.123154e+000 -1.270244e+002 -1.557254e+000
    endloop
  endfacet
  facet normal -4.685409e-001 -8.744758e-001 -1.255452e-001
    outer loop
      vertex   -2.500000e+000 -1.267362e+002 -4.592425e-016
      vertex   -2.165064e+000 -1.267362e+002 -1.250000e+000
      vertex   -1.804174e+000 -1.270244e+002 -5.897430e-001
    endloop
  endfacet
  facet normal -4.685409e-001 -8.744758e-001 -1.255452e-001
    outer loop
      vertex   -2.165064e+000 -1.267362e+002 -1.250000e+000
      vertex   -1.699311e+000 -1.270244e+002 -9.810977e-001
      vertex   -1.804174e+000 -1.270244e+002 -5.897430e-001
    endloop
  endfacet
  facet normal -4.685409e-001 -8.744758e-001 1.255452e-001
    outer loop
      vertex   -2.500000e+000 -1.267362e+002 -4.592425e-016
      vertex   -1.962195e+000 -1.270244e+002 -3.604495e-016
      vertex   -1.804174e+000 -1.270244e+002 5.897430e-001
    endloop
  endfacet
  facet normal -4.685409e-001 -8.744758e-001 1.255452e-001
    outer loop
      vertex   -1.804174e+000 -1.270244e+002 5.897430e-001
      vertex   -2.165064e+000 -1.267362e+002 1.250000e+000
      vertex   -2.500000e+000 -1.267362e+002 -4.592425e-016
    endloop
  endfacet
  facet normal -3.429957e-001 -8.744758e-001 3.429957e-001
    outer loop
      vertex   -2.165064e+000 -1.267362e+002 1.250000e+000
      vertex   -1.699311e+000 -1.270244e+002 9.810977e-001
      vertex   -1.123154e+000 -1.270244e+002 1.557254e+000
    endloop
  endfacet
  facet normal -3.429957e-001 -8.744758e-001 3.429957e-001
    outer loop
      vertex   -1.123154e+000 -1.270244e+002 1.557254e+000
      vertex   -1.250000e+000 -1.267362e+002 2.165064e+000
      vertex   -2.165064e+000 -1.267362e+002 1.250000e+000
    endloop
  endfacet
  facet normal -1.255452e-001 -8.744758e-001 4.685409e-001
    outer loop
      vertex   -1.250000e+000 -1.267362e+002 2.165064e+000
      vertex   -9.810977e-001 -1.270244e+002 1.699311e+000
      vertex   0.000000e+000 -1.270244e+002 1.962195e+000
    endloop
  endfacet
  facet normal -1.255452e-001 -8.744758e-001 4.685409e-001
    outer loop
      vertex   0.000000e+000 -1.270244e+002 1.962195e+000
      vertex   0.000000e+000 -1.267362e+002 2.500000e+000
      vertex   -1.250000e+000 -1.267362e+002 2.165064e+000
    endloop
  endfacet
  facet normal -3.429957e-001 -8.744758e-001 3.429957e-001
    outer loop
      vertex   -1.123154e+000 -1.270244e+002 1.557254e+000
      vertex   -9.810977e-001 -1.270244e+002 1.699311e+000
      vertex   -1.250000e+000 -1.267362e+002 2.165064e+000
    endloop
  endfacet
  facet normal -4.685409e-001 -8.744758e-001 1.255452e-001
    outer loop
      vertex   -1.804174e+000 -1.270244e+002 5.897430e-001
      vertex   -1.699311e+000 -1.270244e+002 9.810977e-001
      vertex   -2.165064e+000 -1.267362e+002 1.250000e+000
    endloop
  endfacet
  facet normal -4.685409e-001 -8.744758e-001 -1.255452e-001
    outer loop
      vertex   -1.804174e+000 -1.270244e+002 -5.897430e-001
      vertex   -1.962195e+000 -1.270244e+002 -3.604495e-016
      vertex   -2.500000e+000 -1.267362e+002 -4.592425e-016
    endloop
  endfacet
  facet normal -3.429957e-001 -8.744758e-001 -3.429957e-001
    outer loop
      vertex   -1.123154e+000 -1.270244e+002 -1.557254e+000
      vertex   -1.699311e+000 -1.270244e+002 -9.810977e-001
      vertex   -2.165064e+000 -1.267362e+002 -1.250000e+000
    endloop
  endfacet
  facet normal -1.255452e-001 -8.744758e-001 -4.685409e-001
    outer loop
      vertex   -9.810977e-001 -1.270244e+002 -1.699311e+000
      vertex   -1.250000e+000 -1.267362e+002 -2.165064e+000
      vertex   3.061617e-016 -1.267362e+002 -2.500000e+000
    endloop
  endfacet
  facet normal 1.255452e-001 -8.744758e-001 -4.685409e-001
    outer loop
      vertex   7.208989e-016 -1.270244e+002 -1.962195e+000
      vertex   3.061617e-016 -1.267362e+002 -2.500000e+000
      vertex   1.250000e+000 -1.267362e+002 -2.165064e+000
    endloop
  endfacet
  facet normal 3.429957e-001 -8.744758e-001 -3.429957e-001
    outer loop
      vertex   1.123154e+000 -1.270244e+002 -1.557254e+000
      vertex   9.810977e-001 -1.270244e+002 -1.699311e+000
      vertex   1.250000e+000 -1.267362e+002 -2.165064e+000
    endloop
  endfacet
  facet normal 4.685409e-001 -8.744758e-001 -1.255452e-001
    outer loop
      vertex   1.804174e+000 -1.270244e+002 -5.897430e-001
      vertex   1.699311e+000 -1.270244e+002 -9.810977e-001
      vertex   2.165064e+000 -1.267362e+002 -1.250000e+000
    endloop
  endfacet
  facet normal 4.685409e-001 -8.744758e-001 1.255452e-001
    outer loop
      vertex   1.804174e+000 -1.270244e+002 5.897430e-001
      vertex   1.962195e+000 -1.270244e+002 1.201498e-016
      vertex   2.500000e+000 -1.267362e+002 1.530808e-016
    endloop
  endfacet
  facet normal 3.429957e-001 -8.744758e-001 3.429957e-001
    outer loop
      vertex   1.123154e+000 -1.270244e+002 1.557254e+000
      vertex   1.699311e+000 -1.270244e+002 9.810977e-001
      vertex   2.165064e+000 -1.267362e+002 1.250000e+000
    endloop
  endfacet
  facet normal 1.255452e-001 -8.744758e-001 4.685409e-001
    outer loop
      vertex   9.810977e-001 -1.270244e+002 1.699311e+000
      vertex   1.250000e+000 -1.267362e+002 2.165064e+000
      vertex   0.000000e+000 -1.267362e+002 2.500000e+000
    endloop
  endfacet
  facet normal 2.588190e-001 -4.732354e-017 -9.659258e-001
    outer loop
      vertex   3.061617e-016 -1.267362e+002 -2.500000e+000
      vertex   -6.123234e-016 -8.750000e+001 -2.500000e+000
      vertex   1.250000e+000 -8.750000e+001 -2.165064e+000
    endloop
  endfacet
  facet normal 7.071068e-001 -4.298638e-017 -7.071068e-001
    outer loop
      vertex   1.250000e+000 -1.267362e+002 -2.165064e+000
      vertex   1.250000e+000 -8.750000e+001 -2.165064e+000
      vertex   2.165064e+000 -8.750000e+001 -1.250000e+000
    endloop
  endfacet
  facet normal 9.659258e-001 -4.919384e-017 -2.588190e-001
    outer loop
      vertex   2.165064e+000 -1.267362e+002 -1.250000e+000
      vertex   2.165064e+000 -8.750000e+001 -1.250000e+000
      vertex   2.500000e+000 -8.750000e+001 -7.081924e-016
    endloop
  endfacet
  facet normal 9.659258e-001 -4.770093e-017 2.588190e-001
    outer loop
      vertex   2.500000e+000 -1.267362e+002 1.530808e-016
      vertex   2.500000e+000 -8.750000e+001 -7.081924e-016
      vertex   2.165064e+000 -8.750000e+001 1.250000e+000
    endloop
  endfacet
  facet normal 7.071068e-001 -4.298638e-017 7.071068e-001
    outer loop
      vertex   2.165064e+000 -1.267362e+002 1.250000e+000
      vertex   2.165064e+000 -8.750000e+001 1.250000e+000
      vertex   1.250000e+000 -8.750000e+001 2.165064e+000
    endloop
  endfacet
  facet normal 2.588190e-001 -4.633309e-017 9.659258e-001
    outer loop
      vertex   1.250000e+000 -1.267362e+002 2.165064e+000
      vertex   1.250000e+000 -8.750000e+001 2.165064e+000
      vertex   1.416385e-015 -8.750000e+001 2.500000e+000
    endloop
  endfacet
  facet normal -2.588190e-001 -4.403918e-017 9.659258e-001
    outer loop
      vertex   0.000000e+000 -1.267362e+002 2.500000e+000
      vertex   1.416385e-015 -8.750000e+001 2.500000e+000
      vertex   -1.250000e+000 -8.750000e+001 2.165064e+000
    endloop
  endfacet
  facet normal -7.071068e-001 -5.080209e-017 7.071068e-001
    outer loop
      vertex   -1.250000e+000 -1.267362e+002 2.165064e+000
      vertex   -1.250000e+000 -8.750000e+001 2.165064e+000
      vertex   -2.165064e+000 -8.750000e+001 1.250000e+000
    endloop
  endfacet
  facet normal -9.659258e-001 -2.431635e-017 2.588190e-001
    outer loop
      vertex   -2.165064e+000 -1.267362e+002 1.250000e+000
      vertex   -2.165064e+000 -8.750000e+001 1.250000e+000
      vertex   -2.500000e+000 -8.750000e+001 2.679689e-015
    endloop
  endfacet
  facet normal -9.659258e-001 -3.267651e-017 -2.588190e-001
    outer loop
      vertex   -2.500000e+000 -1.267362e+002 -4.592425e-016
      vertex   -2.500000e+000 -8.750000e+001 2.679689e-015
      vertex   -2.165064e+000 -8.750000e+001 -1.250000e+000
    endloop
  endfacet
  facet normal -7.071068e-001 -3.907853e-017 -7.071068e-001
    outer loop
      vertex   -2.165064e+000 -1.267362e+002 -1.250000e+000
      vertex   -2.165064e+000 -8.750000e+001 -1.250000e+000
      vertex   -1.250000e+000 -8.750000e+001 -2.165064e+000
    endloop
  endfacet
  facet normal -2.588190e-001 -1.726718e-017 -9.659258e-001
    outer loop
      vertex   -1.250000e+000 -1.267362e+002 -2.165064e+000
      vertex   -1.250000e+000 -8.750000e+001 -2.165064e+000
      vertex   -6.123234e-016 -8.750000e+001 -2.500000e+000
    endloop
  endfacet
  facet normal -2.588190e-001 -5.944099e-017 -9.659258e-001
    outer loop
      vertex   -6.123234e-016 -8.750000e+001 -2.500000e+000
      vertex   3.061617e-016 -1.267362e+002 -2.500000e+000
      vertex   -1.250000e+000 -1.267362e+002 -2.165064e+000
    endloop
  endfacet
  facet normal -7.071068e-001 -8.988062e-017 -7.071068e-001
    outer loop
      vertex   -1.250000e+000 -8.750000e+001 -2.165064e+000
      vertex   -1.250000e+000 -1.267362e+002 -2.165064e+000
      vertex   -2.165064e+000 -1.267362e+002 -1.250000e+000
    endloop
  endfacet
  facet normal -9.659258e-001 -8.464509e-017 -2.588190e-001
    outer loop
      vertex   -2.165064e+000 -8.750000e+001 -1.250000e+000
      vertex   -2.165064e+000 -1.267362e+002 -1.250000e+000
      vertex   -2.500000e+000 -1.267362e+002 -4.592425e-016
    endloop
  endfacet
  facet normal -9.659258e-001 -7.408801e-017 2.588190e-001
    outer loop
      vertex   -2.500000e+000 -8.750000e+001 2.679689e-015
      vertex   -2.500000e+000 -1.267362e+002 -4.592425e-016
      vertex   -2.165064e+000 -1.267362e+002 1.250000e+000
    endloop
  endfacet
  facet normal -7.071068e-001 -6.643350e-017 7.071068e-001
    outer loop
      vertex   -2.165064e+000 -8.750000e+001 1.250000e+000
      vertex   -2.165064e+000 -1.267362e+002 1.250000e+000
      vertex   -1.250000e+000 -1.267362e+002 2.165064e+000
    endloop
  endfacet
  facet normal -2.588190e-001 -6.548909e-017 9.659258e-001
    outer loop
      vertex   -1.250000e+000 -8.750000e+001 2.165064e+000
      vertex   -1.250000e+000 -1.267362e+002 2.165064e+000
      vertex   0.000000e+000 -1.267362e+002 2.500000e+000
    endloop
  endfacet
  facet normal 2.588190e-001 -6.272535e-017 9.659258e-001
    outer loop
      vertex   1.416385e-015 -8.750000e+001 2.500000e+000
      vertex   0.000000e+000 -1.267362e+002 2.500000e+000
      vertex   1.250000e+000 -1.267362e+002 2.165064e+000
    endloop
  endfacet
  facet normal 7.071068e-001 -6.252565e-017 7.071068e-001
    outer loop
      vertex   1.250000e+000 -8.750000e+001 2.165064e+000
      vertex   1.250000e+000 -1.267362e+002 2.165064e+000
      vertex   2.165064e+000 -1.267362e+002 1.250000e+000
    endloop
  endfacet
  facet normal 9.659258e-001 -5.481264e-017 2.588190e-001
    outer loop
      vertex   2.165064e+000 -8.750000e+001 1.250000e+000
      vertex   2.165064e+000 -1.267362e+002 1.250000e+000
      vertex   2.500000e+000 -1.267362e+002 1.530808e-016
    endloop
  endfacet
  facet normal 9.659258e-001 -5.906360e-017 -2.588190e-001
    outer loop
      vertex   2.500000e+000 -8.750000e+001 -7.081924e-016
      vertex   2.500000e+000 -1.267362e+002 1.530808e-016
      vertex   2.165064e+000 -1.267362e+002 -1.250000e+000
    endloop
  endfacet
  facet normal 7.071068e-001 -7.034135e-017 -7.071068e-001
    outer loop
      vertex   2.165064e+000 -8.750000e+001 -1.250000e+000
      vertex   2.165064e+000 -1.267362e+002 -1.250000e+000
      vertex   1.250000e+000 -1.267362e+002 -2.165064e+000
    endloop
  endfacet
  facet normal 2.588190e-001 -6.262834e-017 -9.659258e-001
    outer loop
      vertex   1.250000e+000 -8.750000e+001 -2.165064e+000
      vertex   1.250000e+000 -1.267362e+002 -2.165064e+000
      vertex   3.061617e-016 -1.267362e+002 -2.500000e+000
    endloop
  endfacet
  facet normal 6.443654e-016 -1.000000e+000 -2.404805e-015
    outer loop
      vertex   2.472136e+000 -8.750000e+001 -7.608452e+000
      vertex   1.250000e+000 -8.750000e+001 -2.165064e+000
      vertex   -6.123234e-016 -8.750000e+001 -2.500000e+000
    endloop
  endfacet
  facet normal 3.996410e-016 -1.000000e+000 -2.523234e-015
    outer loop
      vertex   -6.123234e-016 -8.750000e+001 -2.500000e+000
      vertex   0.000000e+000 -8.750000e+001 -8.000000e+000
      vertex   2.472136e+000 -8.750000e+001 -7.608452e+000
    endloop
  endfacet
  facet normal 1.788524e-015 -1.000000e+000 -1.788524e-015
    outer loop
      vertex   4.702282e+000 -8.750000e+001 -6.472136e+000
      vertex   6.472136e+000 -8.750000e+001 -4.702282e+000
      vertex   2.165064e+000 -8.750000e+001 -1.250000e+000
    endloop
  endfacet
  facet normal 2.523234e-015 -1.000000e+000 -3.996410e-016
    outer loop
      vertex   7.608452e+000 -8.750000e+001 -2.472136e+000
      vertex   8.000000e+000 -8.750000e+001 -4.898587e-016
      vertex   2.500000e+000 -8.750000e+001 -7.081924e-016
    endloop
  endfacet
  facet normal 2.404805e-015 -1.000000e+000 6.443654e-016
    outer loop
      vertex   7.608452e+000 -8.750000e+001 2.472136e+000
      vertex   2.165064e+000 -8.750000e+001 1.250000e+000
      vertex   2.500000e+000 -8.750000e+001 -7.081924e-016
    endloop
  endfacet
  facet normal 1.788524e-015 -1.000000e+000 -1.788524e-015
    outer loop
      vertex   2.165064e+000 -8.750000e+001 -1.250000e+000
      vertex   1.250000e+000 -8.750000e+001 -2.165064e+000
      vertex   4.702282e+000 -8.750000e+001 -6.472136e+000
    endloop
  endfacet
  facet normal 2.287762e-015 -1.000000e+000 -1.165673e-015
    outer loop
      vertex   2.165064e+000 -8.750000e+001 -1.250000e+000
      vertex   6.472136e+000 -8.750000e+001 -4.702282e+000
      vertex   7.608452e+000 -8.750000e+001 -2.472136e+000
    endloop
  endfacet
  facet normal 2.523234e-015 -1.000000e+000 3.996410e-016
    outer loop
      vertex   2.500000e+000 -8.750000e+001 -7.081924e-016
      vertex   8.000000e+000 -8.750000e+001 -4.898587e-016
      vertex   7.608452e+000 -8.750000e+001 2.472136e+000
    endloop
  endfacet
  facet normal 1.788524e-015 -1.000000e+000 1.788524e-015
    outer loop
      vertex   6.472136e+000 -8.750000e+001 4.702282e+000
      vertex   4.702282e+000 -8.750000e+001 6.472136e+000
      vertex   1.250000e+000 -8.750000e+001 2.165064e+000
    endloop
  endfacet
  facet normal 3.996410e-016 -1.000000e+000 2.523234e-015
    outer loop
      vertex   2.472136e+000 -8.750000e+001 7.608452e+000
      vertex   4.532431e-015 -8.750000e+001 8.000000e+000
      vertex   1.416385e-015 -8.750000e+001 2.500000e+000
    endloop
  endfacet
  facet normal -6.443654e-016 -1.000000e+000 2.404805e-015
    outer loop
      vertex   -2.472136e+000 -8.750000e+001 7.608452e+000
      vertex   -1.250000e+000 -8.750000e+001 2.165064e+000
      vertex   1.416385e-015 -8.750000e+001 2.500000e+000
    endloop
  endfacet
  facet normal 2.404805e-015 -1.000000e+000 -6.443654e-016
    outer loop
      vertex   2.500000e+000 -8.750000e+001 -7.081924e-016
      vertex   2.165064e+000 -8.750000e+001 -1.250000e+000
      vertex   7.608452e+000 -8.750000e+001 -2.472136e+000
    endloop
  endfacet
  facet normal 1.788524e-015 -1.000000e+000 1.788524e-015
    outer loop
      vertex   1.250000e+000 -8.750000e+001 2.165064e+000
      vertex   2.165064e+000 -8.750000e+001 1.250000e+000
      vertex   6.472136e+000 -8.750000e+001 4.702282e+000
    endloop
  endfacet
  facet normal 1.165673e-015 -1.000000e+000 2.287762e-015
    outer loop
      vertex   1.250000e+000 -8.750000e+001 2.165064e+000
      vertex   4.702282e+000 -8.750000e+001 6.472136e+000
      vertex   2.472136e+000 -8.750000e+001 7.608452e+000
    endloop
  endfacet
  facet normal -3.996410e-016 -1.000000e+000 2.523234e-015
    outer loop
      vertex   1.416385e-015 -8.750000e+001 2.500000e+000
      vertex   4.532431e-015 -8.750000e+001 8.000000e+000
      vertex   -2.472136e+000 -8.750000e+001 7.608452e+000
    endloop
  endfacet
  facet normal -2.523234e-015 -1.000000e+000 3.996410e-016
    outer loop
      vertex   -7.608452e+000 -8.750000e+001 2.472136e+000
      vertex   -8.000000e+000 -8.750000e+001 8.575004e-015
      vertex   -2.500000e+000 -8.750000e+001 2.679689e-015
    endloop
  endfacet
  facet normal 2.287762e-015 -1.000000e+000 1.165673e-015
    outer loop
      vertex   7.608452e+000 -8.750000e+001 2.472136e+000
      vertex   6.472136e+000 -8.750000e+001 4.702282e+000
      vertex   2.165064e+000 -8.750000e+001 1.250000e+000
    endloop
  endfacet
  facet normal -1.165673e-015 -1.000000e+000 2.287762e-015
    outer loop
      vertex   -2.472136e+000 -8.750000e+001 7.608452e+000
      vertex   -4.702282e+000 -8.750000e+001 6.472136e+000
      vertex   -1.250000e+000 -8.750000e+001 2.165064e+000
    endloop
  endfacet
  facet normal -1.788524e-015 -1.000000e+000 1.788524e-015
    outer loop
      vertex   -4.702282e+000 -8.750000e+001 6.472136e+000
      vertex   -6.472136e+000 -8.750000e+001 4.702282e+000
      vertex   -2.165064e+000 -8.750000e+001 1.250000e+000
    endloop
  endfacet
  facet normal -2.287762e-015 -1.000000e+000 1.165673e-015
    outer loop
      vertex   -2.165064e+000 -8.750000e+001 1.250000e+000
      vertex   -6.472136e+000 -8.750000e+001 4.702282e+000
      vertex   -7.608452e+000 -8.750000e+001 2.472136e+000
    endloop
  endfacet
  facet normal 6.443654e-016 -1.000000e+000 2.404805e-015
    outer loop
      vertex   1.416385e-015 -8.750000e+001 2.500000e+000
      vertex   1.250000e+000 -8.750000e+001 2.165064e+000
      vertex   2.472136e+000 -8.750000e+001 7.608452e+000
    endloop
  endfacet
  facet normal -2.404805e-015 -1.000000e+000 6.443654e-016
    outer loop
      vertex   -2.500000e+000 -8.750000e+001 2.679689e-015
      vertex   -2.165064e+000 -8.750000e+001 1.250000e+000
      vertex   -7.608452e+000 -8.750000e+001 2.472136e+000
    endloop
  endfacet
  facet normal -2.404805e-015 -1.000000e+000 -6.443654e-016
    outer loop
      vertex   -7.608452e+000 -8.750000e+001 -2.472136e+000
      vertex   -2.165064e+000 -8.750000e+001 -1.250000e+000
      vertex   -2.500000e+000 -8.750000e+001 2.679689e-015
    endloop
  endfacet
  facet normal -3.996410e-016 -1.000000e+000 -2.523234e-015
    outer loop
      vertex   -2.472136e+000 -8.750000e+001 -7.608452e+000
      vertex   0.000000e+000 -8.750000e+001 -8.000000e+000
      vertex   -6.123234e-016 -8.750000e+001 -2.500000e+000
    endloop
  endfacet
  facet normal -1.788524e-015 -1.000000e+000 1.788524e-015
    outer loop
      vertex   -2.165064e+000 -8.750000e+001 1.250000e+000
      vertex   -1.250000e+000 -8.750000e+001 2.165064e+000
      vertex   -4.702282e+000 -8.750000e+001 6.472136e+000
    endloop
  endfacet
  facet normal -2.523234e-015 -1.000000e+000 -3.996410e-016
    outer loop
      vertex   -2.500000e+000 -8.750000e+001 2.679689e-015
      vertex   -8.000000e+000 -8.750000e+001 8.575004e-015
      vertex   -7.608452e+000 -8.750000e+001 -2.472136e+000
    endloop
  endfacet
  facet normal -1.788524e-015 -1.000000e+000 -1.788524e-015
    outer loop
      vertex   -4.702282e+000 -8.750000e+001 -6.472136e+000
      vertex   -1.250000e+000 -8.750000e+001 -2.165064e+000
      vertex   -2.165064e+000 -8.750000e+001 -1.250000e+000
    endloop
  endfacet
  facet normal -1.165673e-015 -1.000000e+000 -2.287762e-015
    outer loop
      vertex   -1.250000e+000 -8.750000e+001 -2.165064e+000
      vertex   -4.702282e+000 -8.750000e+001 -6.472136e+000
      vertex   -2.472136e+000 -8.750000e+001 -7.608452e+000
    endloop
  endfacet
  facet normal -2.287762e-015 -1.000000e+000 -1.165673e-015
    outer loop
      vertex   -7.608452e+000 -8.750000e+001 -2.472136e+000
      vertex   -6.472136e+000 -8.750000e+001 -4.702282e+000
      vertex   -2.165064e+000 -8.750000e+001 -1.250000e+000
    endloop
  endfacet
  facet normal -6.443654e-016 -1.000000e+000 -2.404805e-015
    outer loop
      vertex   -6.123234e-016 -8.750000e+001 -2.500000e+000
      vertex   -1.250000e+000 -8.750000e+001 -2.165064e+000
      vertex   -2.472136e+000 -8.750000e+001 -7.608452e+000
    endloop
  endfacet
  facet normal -1.788524e-015 -1.000000e+000 -1.788524e-015
    outer loop
      vertex   -2.165064e+000 -8.750000e+001 -1.250000e+000
      vertex   -6.472136e+000 -8.750000e+001 -4.702282e+000
      vertex   -4.702282e+000 -8.750000e+001 -6.472136e+000
    endloop
  endfacet
  facet normal 1.165673e-015 -1.000000e+000 -2.287762e-015
    outer loop
      vertex   2.472136e+000 -8.750000e+001 -7.608452e+000
      vertex   4.702282e+000 -8.750000e+001 -6.472136e+000
      vertex   1.250000e+000 -8.750000e+001 -2.165064e+000
    endloop
  endfacet
  facet normal 1.564345e-001 1.419089e-018 -9.876883e-001
    outer loop
      vertex   0.000000e+000 -8.750000e+001 -8.000000e+000
      vertex   -1.959435e-015 1.285000e+002 -8.000000e+000
      vertex   2.472136e+000 1.285000e+002 -7.608452e+000
    endloop
  endfacet
  facet normal 4.539905e-001 0.000000e+000 -8.910065e-001
    outer loop
      vertex   2.472136e+000 -8.750000e+001 -7.608452e+000
      vertex   2.472136e+000 1.285000e+002 -7.608452e+000
      vertex   4.702282e+000 1.285000e+002 -6.472136e+000
    endloop
  endfacet
  facet normal 7.071068e-001 0.000000e+000 -7.071068e-001
    outer loop
      vertex   4.702282e+000 -8.750000e+001 -6.472136e+000
      vertex   4.702282e+000 1.285000e+002 -6.472136e+000
      vertex   6.472136e+000 1.285000e+002 -4.702282e+000
    endloop
  endfacet
  facet normal 8.910065e-001 0.000000e+000 -4.539905e-001
    outer loop
      vertex   6.472136e+000 -8.750000e+001 -4.702282e+000
      vertex   6.472136e+000 1.285000e+002 -4.702282e+000
      vertex   7.608452e+000 1.285000e+002 -2.472136e+000
    endloop
  endfacet
  facet normal 9.876883e-001 0.000000e+000 -1.564345e-001
    outer loop
      vertex   7.608452e+000 -8.750000e+001 -2.472136e+000
      vertex   7.608452e+000 1.285000e+002 -2.472136e+000
      vertex   8.000000e+000 1.285000e+002 -4.898587e-016
    endloop
  endfacet
  facet normal 9.876883e-001 -0.000000e+000 1.564345e-001
    outer loop
      vertex   8.000000e+000 -8.750000e+001 -4.898587e-016
      vertex   8.000000e+000 1.285000e+002 -4.898587e-016
      vertex   7.608452e+000 1.285000e+002 2.472136e+000
    endloop
  endfacet
  facet normal 8.910065e-001 -0.000000e+000 4.539905e-001
    outer loop
      vertex   7.608452e+000 -8.750000e+001 2.472136e+000
      vertex   7.608452e+000 1.285000e+002 2.472136e+000
      vertex   6.472136e+000 1.285000e+002 4.702282e+000
    endloop
  endfacet
  facet normal 7.071068e-001 -0.000000e+000 7.071068e-001
    outer loop
      vertex   6.472136e+000 -8.750000e+001 4.702282e+000
      vertex   6.472136e+000 1.285000e+002 4.702282e+000
      vertex   4.702282e+000 1.285000e+002 6.472136e+000
    endloop
  endfacet
  facet normal 4.539905e-001 -0.000000e+000 8.910065e-001
    outer loop
      vertex   4.702282e+000 -8.750000e+001 6.472136e+000
      vertex   4.702282e+000 1.285000e+002 6.472136e+000
      vertex   2.472136e+000 1.285000e+002 7.608452e+000
    endloop
  endfacet
  facet normal 1.564345e-001 -0.000000e+000 9.876883e-001
    outer loop
      vertex   2.472136e+000 -8.750000e+001 7.608452e+000
      vertex   2.472136e+000 1.285000e+002 7.608452e+000
      vertex   4.532431e-015 1.285000e+002 8.000000e+000
    endloop
  endfacet
  facet normal -1.564345e-001 0.000000e+000 9.876883e-001
    outer loop
      vertex   4.532431e-015 -8.750000e+001 8.000000e+000
      vertex   4.532431e-015 1.285000e+002 8.000000e+000
      vertex   -2.472136e+000 1.285000e+002 7.608452e+000
    endloop
  endfacet
  facet normal -4.539905e-001 0.000000e+000 8.910065e-001
    outer loop
      vertex   -2.472136e+000 -8.750000e+001 7.608452e+000
      vertex   -2.472136e+000 1.285000e+002 7.608452e+000
      vertex   -4.702282e+000 1.285000e+002 6.472136e+000
    endloop
  endfacet
  facet normal -7.071068e-001 0.000000e+000 7.071068e-001
    outer loop
      vertex   -4.702282e+000 -8.750000e+001 6.472136e+000
      vertex   -4.702282e+000 1.285000e+002 6.472136e+000
      vertex   -6.472136e+000 1.285000e+002 4.702282e+000
    endloop
  endfacet
  facet normal -8.910065e-001 0.000000e+000 4.539905e-001
    outer loop
      vertex   -6.472136e+000 -8.750000e+001 4.702282e+000
      vertex   -6.472136e+000 1.285000e+002 4.702282e+000
      vertex   -7.608452e+000 1.285000e+002 2.472136e+000
    endloop
  endfacet
  facet normal -9.876883e-001 0.000000e+000 1.564345e-001
    outer loop
      vertex   -7.608452e+000 -8.750000e+001 2.472136e+000
      vertex   -7.608452e+000 1.285000e+002 2.472136e+000
      vertex   -8.000000e+000 1.285000e+002 8.575004e-015
    endloop
  endfacet
  facet normal -9.876883e-001 0.000000e+000 -1.564345e-001
    outer loop
      vertex   -8.000000e+000 -8.750000e+001 8.575004e-015
      vertex   -8.000000e+000 1.285000e+002 8.575004e-015
      vertex   -7.608452e+000 1.285000e+002 -2.472136e+000
    endloop
  endfacet
  facet normal -8.910065e-001 0.000000e+000 -4.539905e-001
    outer loop
      vertex   -7.608452e+000 -8.750000e+001 -2.472136e+000
      vertex   -7.608452e+000 1.285000e+002 -2.472136e+000
      vertex   -6.472136e+000 1.285000e+002 -4.702282e+000
    endloop
  endfacet
  facet normal -7.071068e-001 0.000000e+000 -7.071068e-001
    outer loop
      vertex   -6.472136e+000 -8.750000e+001 -4.702282e+000
      vertex   -6.472136e+000 1.285000e+002 -4.702282e+000
      vertex   -4.702282e+000 1.285000e+002 -6.472136e+000
    endloop
  endfacet
  facet normal -4.539905e-001 0.000000e+000 -8.910065e-001
    outer loop
      vertex   -4.702282e+000 -8.750000e+001 -6.472136e+000
      vertex   -4.702282e+000 1.285000e+002 -6.472136e+000
      vertex   -2.472136e+000 1.285000e+002 -7.608452e+000
    endloop
  endfacet
  facet normal -1.564345e-001 0.000000e+000 -9.876883e-001
    outer loop
      vertex   -2.472136e+000 -8.750000e+001 -7.608452e+000
      vertex   -2.472136e+000 1.285000e+002 -7.608452e+000
      vertex   -1.959435e-015 1.285000e+002 -8.000000e+000
    endloop
  endfacet
  facet normal -1.564345e-001 -1.419089e-018 -9.876883e-001
    outer loop
      vertex   -1.959435e-015 1.285000e+002 -8.000000e+000
      vertex   0.000000e+000 -8.750000e+001 -8.000000e+000
      vertex   -2.472136e+000 -8.750000e+001 -7.608452e+000
    endloop
  endfacet
  facet normal -4.539905e-001 -0.000000e+000 -8.910065e-001
    outer loop
      vertex   -2.472136e+000 1.285000e+002 -7.608452e+000
      vertex   -2.472136e+000 -8.750000e+001 -7.608452e+000
      vertex   -4.702282e+000 -8.750000e+001 -6.472136e+000
    endloop
  endfacet
  facet normal -7.071068e-001 -0.000000e+000 -7.071068e-001
    outer loop
      vertex   -4.702282e+000 1.285000e+002 -6.472136e+000
      vertex   -4.702282e+000 -8.750000e+001 -6.472136e+000
      vertex   -6.472136e+000 -8.750000e+001 -4.702282e+000
    endloop
  endfacet
  facet normal -8.910065e-001 -0.000000e+000 -4.539905e-001
    outer loop
      vertex   -6.472136e+000 1.285000e+002 -4.702282e+000
      vertex   -6.472136e+000 -8.750000e+001 -4.702282e+000
      vertex   -7.608452e+000 -8.750000e+001 -2.472136e+000
    endloop
  endfacet
  facet normal -9.876883e-001 -0.000000e+000 -1.564345e-001
    outer loop
      vertex   -7.608452e+000 1.285000e+002 -2.472136e+000
      vertex   -7.608452e+000 -8.750000e+001 -2.472136e+000
      vertex   -8.000000e+000 -8.750000e+001 8.575004e-015
    endloop
  endfacet
  facet normal -9.876883e-001 0.000000e+000 1.564345e-001
    outer loop
      vertex   -8.000000e+000 1.285000e+002 8.575004e-015
      vertex   -8.000000e+000 -8.750000e+001 8.575004e-015
      vertex   -7.608452e+000 -8.750000e+001 2.472136e+000
    endloop
  endfacet
  facet normal -8.910065e-001 0.000000e+000 4.539905e-001
    outer loop
      vertex   -7.608452e+000 1.285000e+002 2.472136e+000
      vertex   -7.608452e+000 -8.750000e+001 2.472136e+000
      vertex   -6.472136e+000 -8.750000e+001 4.702282e+000
    endloop
  endfacet
  facet normal -7.071068e-001 0.000000e+000 7.071068e-001
    outer loop
      vertex   -6.472136e+000 1.285000e+002 4.702282e+000
      vertex   -6.472136e+000 -8.750000e+001 4.702282e+000
      vertex   -4.702282e+000 -8.750000e+001 6.472136e+000
    endloop
  endfacet
  facet normal -4.539905e-001 0.000000e+000 8.910065e-001
    outer loop
      vertex   -4.702282e+000 1.285000e+002 6.472136e+000
      vertex   -4.702282e+000 -8.750000e+001 6.472136e+000
      vertex   -2.472136e+000 -8.750000e+001 7.608452e+000
    endloop
  endfacet
  facet normal -1.564345e-001 0.000000e+000 9.876883e-001
    outer loop
      vertex   -2.472136e+000 1.285000e+002 7.608452e+000
      vertex   -2.472136e+000 -8.750000e+001 7.608452e+000
      vertex   4.532431e-015 -8.750000e+001 8.000000e+000
    endloop
  endfacet
  facet normal 1.564345e-001 0.000000e+000 9.876883e-001
    outer loop
      vertex   4.532431e-015 1.285000e+002 8.000000e+000
      vertex   4.532431e-015 -8.750000e+001 8.000000e+000
      vertex   2.472136e+000 -8.750000e+001 7.608452e+000
    endloop
  endfacet
  facet normal 4.539905e-001 0.000000e+000 8.910065e-001
    outer loop
      vertex   2.472136e+000 1.285000e+002 7.608452e+000
      vertex   2.472136e+000 -8.750000e+001 7.608452e+000
      vertex   4.702282e+000 -8.750000e+001 6.472136e+000
    endloop
  endfacet
  facet normal 7.071068e-001 0.000000e+000 7.071068e-001
    outer loop
      vertex   4.702282e+000 1.285000e+002 6.472136e+000
      vertex   4.702282e+000 -8.750000e+001 6.472136e+000
      vertex   6.472136e+000 -8.750000e+001 4.702282e+000
    endloop
  endfacet
  facet normal 8.910065e-001 0.000000e+000 4.539905e-001
    outer loop
      vertex   6.472136e+000 1.285000e+002 4.702282e+000
      vertex   6.472136e+000 -8.750000e+001 4.702282e+000
      vertex   7.608452e+000 -8.750000e+001 2.472136e+000
    endloop
  endfacet
  facet normal 9.876883e-001 0.000000e+000 1.564345e-001
    outer loop
      vertex   7.608452e+000 1.285000e+002 2.472136e+000
      vertex   7.608452e+000 -8.750000e+001 2.472136e+000
      vertex   8.000000e+000 -8.750000e+001 -4.898587e-016
    endloop
  endfacet
  facet normal 9.876883e-001 0.000000e+000 -1.564345e-001
    outer loop
      vertex   8.000000e+000 1.285000e+002 -4.898587e-016
      vertex   8.000000e+000 -8.750000e+001 -4.898587e-016
      vertex   7.608452e+000 -8.750000e+001 -2.472136e+000
    endloop
  endfacet
  facet normal 8.910065e-001 0.000000e+000 -4.539905e-001
    outer loop
      vertex   7.608452e+000 1.285000e+002 -2.472136e+000
      vertex   7.608452e+000 -8.750000e+001 -2.472136e+000
      vertex   6.472136e+000 -8.750000e+001 -4.702282e+000
    endloop
  endfacet
  facet normal 7.071068e-001 0.000000e+000 -7.071068e-001
    outer loop
      vertex   6.472136e+000 1.285000e+002 -4.702282e+000
      vertex   6.472136e+000 -8.750000e+001 -4.702282e+000
      vertex   4.702282e+000 -8.750000e+001 -6.472136e+000
    endloop
  endfacet
  facet normal 4.539905e-001 0.000000e+000 -8.910065e-001
    outer loop
      vertex   4.702282e+000 1.285000e+002 -6.472136e+000
      vertex   4.702282e+000 -8.750000e+001 -6.472136e+000
      vertex   2.472136e+000 -8.750000e+001 -7.608452e+000
    endloop
  endfacet
  facet normal 1.564345e-001 0.000000e+000 -9.876883e-001
    outer loop
      vertex   2.472136e+000 1.285000e+002 -7.608452e+000
      vertex   2.472136e+000 -8.750000e+001 -7.608452e+000
      vertex   0.000000e+000 -8.750000e+001 -8.000000e+000
    endloop
  endfacet
  facet normal 1.406544e-015 1.000000e+000 4.328896e-015
    outer loop
      vertex   2.472136e+000 1.285000e+002 7.608452e+000
      vertex   1.175571e+000 1.285000e+002 1.618034e+000
      vertex   2.449294e-016 1.285000e+002 2.000000e+000
    endloop
  endfacet
  facet normal 4.173111e-015 1.000000e+000 2.126306e-015
    outer loop
      vertex   6.472136e+000 1.285000e+002 4.702282e+000
      vertex   7.608452e+000 1.285000e+002 2.472136e+000
      vertex   1.902113e+000 1.285000e+002 6.180340e-001
    endloop
  endfacet
  facet normal 4.551671e-015 1.000000e+000 0.000000e+000
    outer loop
      vertex   8.000000e+000 1.285000e+002 -4.898587e-016
      vertex   1.902113e+000 1.285000e+002 -6.180340e-001
      vertex   1.902113e+000 1.285000e+002 6.180340e-001
    endloop
  endfacet
  facet normal 3.682379e-015 1.000000e+000 -2.675405e-015
    outer loop
      vertex   6.472136e+000 1.285000e+002 -4.702282e+000
      vertex   1.175571e+000 1.285000e+002 -1.618034e+000
      vertex   1.902113e+000 1.285000e+002 -6.180340e-001
    endloop
  endfacet
  facet normal 7.326752e-016 1.000000e+000 4.625929e-015
    outer loop
      vertex   2.449294e-016 1.285000e+002 2.000000e+000
      vertex   4.532431e-015 1.285000e+002 8.000000e+000
      vertex   2.472136e+000 1.285000e+002 7.608452e+000
    endloop
  endfacet
  facet normal 3.311800e-015 1.000000e+000 3.311800e-015
    outer loop
      vertex   1.175571e+000 1.285000e+002 1.618034e+000
      vertex   4.702282e+000 1.285000e+002 6.472136e+000
      vertex   6.472136e+000 1.285000e+002 4.702282e+000
    endloop
  endfacet
  facet normal 4.625929e-015 1.000000e+000 7.326752e-016
    outer loop
      vertex   1.902113e+000 1.285000e+002 6.180340e-001
      vertex   7.608452e+000 1.285000e+002 2.472136e+000
      vertex   8.000000e+000 1.285000e+002 -4.898587e-016
    endloop
  endfacet
  facet normal 4.173111e-015 1.000000e+000 -2.126306e-015
    outer loop
      vertex   1.902113e+000 1.285000e+002 -6.180340e-001
      vertex   7.608452e+000 1.285000e+002 -2.472136e+000
      vertex   6.472136e+000 1.285000e+002 -4.702282e+000
    endloop
  endfacet
  facet normal -3.682379e-015 1.000000e+000 -2.675405e-015
    outer loop
      vertex   -6.472136e+000 1.285000e+002 -4.702282e+000
      vertex   -1.902113e+000 1.285000e+002 -6.180340e-001
      vertex   -1.175571e+000 1.285000e+002 -1.618034e+000
    endloop
  endfacet
  facet normal -4.625929e-015 1.000000e+000 -7.326752e-016
    outer loop
      vertex   -7.608452e+000 1.285000e+002 -2.472136e+000
      vertex   -8.000000e+000 1.285000e+002 8.575004e-015
      vertex   -2.000000e+000 1.285000e+002 3.673940e-016
    endloop
  endfacet
  facet normal -4.625929e-015 1.000000e+000 7.326752e-016
    outer loop
      vertex   -8.000000e+000 1.285000e+002 8.575004e-015
      vertex   -7.608452e+000 1.285000e+002 2.472136e+000
      vertex   -1.902113e+000 1.285000e+002 6.180340e-001
    endloop
  endfacet
  facet normal 3.682379e-015 1.000000e+000 2.675405e-015
    outer loop
      vertex   1.902113e+000 1.285000e+002 6.180340e-001
      vertex   1.175571e+000 1.285000e+002 1.618034e+000
      vertex   6.472136e+000 1.285000e+002 4.702282e+000
    endloop
  endfacet
  facet normal 3.311800e-015 1.000000e+000 -3.311800e-015
    outer loop
      vertex   6.472136e+000 1.285000e+002 -4.702282e+000
      vertex   4.702282e+000 1.285000e+002 -6.472136e+000
      vertex   1.175571e+000 1.285000e+002 -1.618034e+000
    endloop
  endfacet
  facet normal 1.406544e-015 1.000000e+000 -4.328896e-015
    outer loop
      vertex   2.472136e+000 1.285000e+002 -7.608452e+000
      vertex   -4.898587e-016 1.285000e+002 -2.000000e+000
      vertex   1.175571e+000 1.285000e+002 -1.618034e+000
    endloop
  endfacet
  facet normal -3.311800e-015 1.000000e+000 -3.311800e-015
    outer loop
      vertex   -1.175571e+000 1.285000e+002 -1.618034e+000
      vertex   -4.702282e+000 1.285000e+002 -6.472136e+000
      vertex   -6.472136e+000 1.285000e+002 -4.702282e+000
    endloop
  endfacet
  facet normal -4.625929e-015 1.000000e+000 7.326752e-016
    outer loop
      vertex   -1.902113e+000 1.285000e+002 6.180340e-001
      vertex   -2.000000e+000 1.285000e+002 3.673940e-016
      vertex   -8.000000e+000 1.285000e+002 8.575004e-015
    endloop
  endfacet
  facet normal -3.311800e-015 1.000000e+000 3.311800e-015
    outer loop
      vertex   -6.472136e+000 1.285000e+002 4.702282e+000
      vertex   -4.702282e+000 1.285000e+002 6.472136e+000
      vertex   -1.175571e+000 1.285000e+002 1.618034e+000
    endloop
  endfacet
  facet normal 4.625929e-015 1.000000e+000 -7.326752e-016
    outer loop
      vertex   8.000000e+000 1.285000e+002 -4.898587e-016
      vertex   7.608452e+000 1.285000e+002 -2.472136e+000
      vertex   1.902113e+000 1.285000e+002 -6.180340e-001
    endloop
  endfacet
  facet normal 2.126306e-015 1.000000e+000 -4.173111e-015
    outer loop
      vertex   1.175571e+000 1.285000e+002 -1.618034e+000
      vertex   4.702282e+000 1.285000e+002 -6.472136e+000
      vertex   2.472136e+000 1.285000e+002 -7.608452e+000
    endloop
  endfacet
  facet normal -1.406544e-015 1.000000e+000 -4.328896e-015
    outer loop
      vertex   -2.472136e+000 1.285000e+002 -7.608452e+000
      vertex   -1.175571e+000 1.285000e+002 -1.618034e+000
      vertex   -4.898587e-016 1.285000e+002 -2.000000e+000
    endloop
  endfacet
  facet normal -4.625929e-015 1.000000e+000 -7.326752e-016
    outer loop
      vertex   -2.000000e+000 1.285000e+002 3.673940e-016
      vertex   -1.902113e+000 1.285000e+002 -6.180340e-001
      vertex   -7.608452e+000 1.285000e+002 -2.472136e+000
    endloop
  endfacet
  facet normal -4.173111e-015 1.000000e+000 2.126306e-015
    outer loop
      vertex   -1.902113e+000 1.285000e+002 6.180340e-001
      vertex   -7.608452e+000 1.285000e+002 2.472136e+000
      vertex   -6.472136e+000 1.285000e+002 4.702282e+000
    endloop
  endfacet
  facet normal -7.326752e-016 1.000000e+000 4.625929e-015
    outer loop
      vertex   -2.472136e+000 1.285000e+002 7.608452e+000
      vertex   4.532431e-015 1.285000e+002 8.000000e+000
      vertex   2.449294e-016 1.285000e+002 2.000000e+000
    endloop
  endfacet
  facet normal 7.326752e-016 1.000000e+000 -4.625929e-015
    outer loop
      vertex   2.472136e+000 1.285000e+002 -7.608452e+000
      vertex   -1.959435e-015 1.285000e+002 -8.000000e+000
      vertex   -4.898587e-016 1.285000e+002 -2.000000e+000
    endloop
  endfacet
  facet normal -7.326752e-016 1.000000e+000 -4.625929e-015
    outer loop
      vertex   -4.898587e-016 1.285000e+002 -2.000000e+000
      vertex   -1.959435e-015 1.285000e+002 -8.000000e+000
      vertex   -2.472136e+000 1.285000e+002 -7.608452e+000
    endloop
  endfacet
  facet normal -3.682379e-015 1.000000e+000 2.675405e-015
    outer loop
      vertex   -1.175571e+000 1.285000e+002 1.618034e+000
      vertex   -1.902113e+000 1.285000e+002 6.180340e-001
      vertex   -6.472136e+000 1.285000e+002 4.702282e+000
    endloop
  endfacet
  facet normal -2.126306e-015 1.000000e+000 4.173111e-015
    outer loop
      vertex   -1.175571e+000 1.285000e+002 1.618034e+000
      vertex   -4.702282e+000 1.285000e+002 6.472136e+000
      vertex   -2.472136e+000 1.285000e+002 7.608452e+000
    endloop
  endfacet
  facet normal -2.126306e-015 1.000000e+000 -4.173111e-015
    outer loop
      vertex   -2.472136e+000 1.285000e+002 -7.608452e+000
      vertex   -4.702282e+000 1.285000e+002 -6.472136e+000
      vertex   -1.175571e+000 1.285000e+002 -1.618034e+000
    endloop
  endfacet
  facet normal -1.406544e-015 1.000000e+000 4.328896e-015
    outer loop
      vertex   2.449294e-016 1.285000e+002 2.000000e+000
      vertex   -1.175571e+000 1.285000e+002 1.618034e+000
      vertex   -2.472136e+000 1.285000e+002 7.608452e+000
    endloop
  endfacet
  facet normal -4.173111e-015 1.000000e+000 -2.126306e-015
    outer loop
      vertex   -6.472136e+000 1.285000e+002 -4.702282e+000
      vertex   -7.608452e+000 1.285000e+002 -2.472136e+000
      vertex   -1.902113e+000 1.285000e+002 -6.180340e-001
    endloop
  endfacet
  facet normal 2.126306e-015 1.000000e+000 4.173111e-015
    outer loop
      vertex   2.472136e+000 1.285000e+002 7.608452e+000
      vertex   4.702282e+000 1.285000e+002 6.472136e+000
      vertex   1.175571e+000 1.285000e+002 1.618034e+000
    endloop
  endfacet
  facet normal 3.090170e-001 0.000000e+000 -9.510565e-001
    outer loop
      vertex   -4.898587e-016 1.285000e+002 -2.000000e+000
      vertex   -4.898587e-016 1.685000e+002 -2.000000e+000
      vertex   1.175571e+000 1.685000e+002 -1.618034e+000
    endloop
  endfacet
  facet normal 8.090170e-001 0.000000e+000 -5.877853e-001
    outer loop
      vertex   1.175571e+000 1.285000e+002 -1.618034e+000
      vertex   1.175571e+000 1.685000e+002 -1.618034e+000
      vertex   1.902113e+000 1.685000e+002 -6.180340e-001
    endloop
  endfacet
  facet normal 1.000000e+000 0.000000e+000 -1.754276e-016
    outer loop
      vertex   1.902113e+000 1.285000e+002 -6.180340e-001
      vertex   1.902113e+000 1.685000e+002 -6.180340e-001
      vertex   1.902113e+000 1.685000e+002 6.180340e-001
    endloop
  endfacet
  facet normal 8.090170e-001 -0.000000e+000 5.877853e-001
    outer loop
      vertex   1.902113e+000 1.285000e+002 6.180340e-001
      vertex   1.902113e+000 1.685000e+002 6.180340e-001
      vertex   1.175571e+000 1.685000e+002 1.618034e+000
    endloop
  endfacet
  facet normal 3.090170e-001 -0.000000e+000 9.510565e-001
    outer loop
      vertex   1.175571e+000 1.285000e+002 1.618034e+000
      vertex   1.175571e+000 1.685000e+002 1.618034e+000
      vertex   2.449294e-016 1.685000e+002 2.000000e+000
    endloop
  endfacet
  facet normal -3.090170e-001 0.000000e+000 9.510565e-001
    outer loop
      vertex   2.449294e-016 1.285000e+002 2.000000e+000
      vertex   2.449294e-016 1.685000e+002 2.000000e+000
      vertex   -1.175571e+000 1.685000e+002 1.618034e+000
    endloop
  endfacet
  facet normal -8.090170e-001 0.000000e+000 5.877853e-001
    outer loop
      vertex   -1.175571e+000 1.285000e+002 1.618034e+000
      vertex   -1.175571e+000 1.685000e+002 1.618034e+000
      vertex   -1.902113e+000 1.685000e+002 6.180340e-001
    endloop
  endfacet
  facet normal -9.876883e-001 2.115085e-018 -1.564345e-001
    outer loop
      vertex   -1.902113e+000 1.285000e+002 -6.180340e-001
      vertex   -2.000000e+000 1.285000e+002 3.673940e-016
      vertex   -2.000000e+000 1.685000e+002 8.572528e-016
    endloop
  endfacet
  facet normal -9.876883e-001 -2.115085e-018 1.564345e-001
    outer loop
      vertex   -1.902113e+000 1.685000e+002 6.180340e-001
      vertex   -2.000000e+000 1.685000e+002 8.572528e-016
      vertex   -2.000000e+000 1.285000e+002 3.673940e-016
    endloop
  endfacet
  facet normal -9.876883e-001 0.000000e+000 1.564345e-001
    outer loop
      vertex   -2.000000e+000 1.285000e+002 3.673940e-016
      vertex   -1.902113e+000 1.285000e+002 6.180340e-001
      vertex   -1.902113e+000 1.685000e+002 6.180340e-001
    endloop
  endfacet
  facet normal -8.090170e-001 0.000000e+000 -5.877853e-001
    outer loop
      vertex   -1.902113e+000 1.285000e+002 -6.180340e-001
      vertex   -1.902113e+000 1.685000e+002 -6.180340e-001
      vertex   -1.175571e+000 1.685000e+002 -1.618034e+000
    endloop
  endfacet
  facet normal -3.090170e-001 0.000000e+000 -9.510565e-001
    outer loop
      vertex   -1.175571e+000 1.285000e+002 -1.618034e+000
      vertex   -1.175571e+000 1.685000e+002 -1.618034e+000
      vertex   -4.898587e-016 1.685000e+002 -2.000000e+000
    endloop
  endfacet
  facet normal -3.090170e-001 -0.000000e+000 -9.510565e-001
    outer loop
      vertex   -4.898587e-016 1.685000e+002 -2.000000e+000
      vertex   -4.898587e-016 1.285000e+002 -2.000000e+000
      vertex   -1.175571e+000 1.285000e+002 -1.618034e+000
    endloop
  endfacet
  facet normal -8.090170e-001 -0.000000e+000 -5.877853e-001
    outer loop
      vertex   -1.175571e+000 1.685000e+002 -1.618034e+000
      vertex   -1.175571e+000 1.285000e+002 -1.618034e+000
      vertex   -1.902113e+000 1.285000e+002 -6.180340e-001
    endloop
  endfacet
  facet normal -9.876883e-001 0.000000e+000 -1.564345e-001
    outer loop
      vertex   -2.000000e+000 1.685000e+002 8.572528e-016
      vertex   -1.902113e+000 1.685000e+002 -6.180340e-001
      vertex   -1.902113e+000 1.285000e+002 -6.180340e-001
    endloop
  endfacet
  facet normal -8.090170e-001 0.000000e+000 5.877853e-001
    outer loop
      vertex   -1.902113e+000 1.685000e+002 6.180340e-001
      vertex   -1.902113e+000 1.285000e+002 6.180340e-001
      vertex   -1.175571e+000 1.285000e+002 1.618034e+000
    endloop
  endfacet
  facet normal -3.090170e-001 0.000000e+000 9.510565e-001
    outer loop
      vertex   -1.175571e+000 1.685000e+002 1.618034e+000
      vertex   -1.175571e+000 1.285000e+002 1.618034e+000
      vertex   2.449294e-016 1.285000e+002 2.000000e+000
    endloop
  endfacet
  facet normal 3.090170e-001 0.000000e+000 9.510565e-001
    outer loop
      vertex   2.449294e-016 1.685000e+002 2.000000e+000
      vertex   2.449294e-016 1.285000e+002 2.000000e+000
      vertex   1.175571e+000 1.285000e+002 1.618034e+000
    endloop
  endfacet
  facet normal 8.090170e-001 0.000000e+000 5.877853e-001
    outer loop
      vertex   1.175571e+000 1.685000e+002 1.618034e+000
      vertex   1.175571e+000 1.285000e+002 1.618034e+000
      vertex   1.902113e+000 1.285000e+002 6.180340e-001
    endloop
  endfacet
  facet normal 1.000000e+000 0.000000e+000 -1.754276e-016
    outer loop
      vertex   1.902113e+000 1.685000e+002 6.180340e-001
      vertex   1.902113e+000 1.285000e+002 6.180340e-001
      vertex   1.902113e+000 1.285000e+002 -6.180340e-001
    endloop
  endfacet
  facet normal 8.090170e-001 0.000000e+000 -5.877853e-001
    outer loop
      vertex   1.902113e+000 1.685000e+002 -6.180340e-001
      vertex   1.902113e+000 1.285000e+002 -6.180340e-001
      vertex   1.175571e+000 1.285000e+002 -1.618034e+000
    endloop
  endfacet
  facet normal 3.090170e-001 0.000000e+000 -9.510565e-001
    outer loop
      vertex   1.175571e+000 1.685000e+002 -1.618034e+000
      vertex   1.175571e+000 1.285000e+002 -1.618034e+000
      vertex   -4.898587e-016 1.285000e+002 -2.000000e+000
    endloop
  endfacet
  facet normal 0.000000e+000 1.000000e+000 0.000000e+000
    outer loop
      vertex   0.000000e+000 1.685000e+002 0.000000e+000
      vertex   -1.902113e+000 1.685000e+002 6.180340e-001
      vertex   -1.175571e+000 1.685000e+002 1.618034e+000
    endloop
  endfacet
  facet normal -0.000000e+000 1.000000e+000 0.000000e+000
    outer loop
      vertex   -1.175571e+000 1.685000e+002 1.618034e+000
      vertex   2.449294e-016 1.685000e+002 2.000000e+000
      vertex   0.000000e+000 1.685000e+002 0.000000e+000
    endloop
  endfacet
  facet normal 0.000000e+000 1.000000e+000 0.000000e+000
    outer loop
      vertex   2.449294e-016 1.685000e+002 2.000000e+000
      vertex   1.175571e+000 1.685000e+002 1.618034e+000
      vertex   0.000000e+000 1.685000e+002 0.000000e+000
    endloop
  endfacet
  facet normal 0.000000e+000 1.000000e+000 0.000000e+000
    outer loop
      vertex   1.175571e+000 1.685000e+002 1.618034e+000
      vertex   1.902113e+000 1.685000e+002 6.180340e-001
      vertex   0.000000e+000 1.685000e+002 0.000000e+000
    endloop
  endfacet
  facet normal 0.000000e+000 1.000000e+000 0.000000e+000
    outer loop
      vertex   1.902113e+000 1.685000e+002 6.180340e-001
      vertex   1.902113e+000 1.685000e+002 -6.180340e-001
      vertex   0.000000e+000 1.685000e+002 0.000000e+000
    endloop
  endfacet
  facet normal 0.000000e+000 1.000000e+000 0.000000e+000
    outer loop
      vertex   1.902113e+000 1.685000e+002 -6.180340e-001
      vertex   1.175571e+000 1.685000e+002 -1.618034e+000
      vertex   0.000000e+000 1.685000e+002 0.000000e+000
    endloop
  endfacet
  facet normal 0.000000e+000 1.000000e+000 0.000000e+000
    outer loop
      vertex   1.175571e+000 1.685000e+002 -1.618034e+000
      vertex   -4.898587e-016 1.685000e+002 -2.000000e+000
      vertex   0.000000e+000 1.685000e+002 0.000000e+000
    endloop
  endfacet
  facet normal 0.000000e+000 1.000000e+000 -0.000000e+000
    outer loop
      vertex   -4.898587e-016 1.685000e+002 -2.000000e+000
      vertex   -1.175571e+000 1.685000e+002 -1.618034e+000
      vertex   0.000000e+000 1.685000e+002 0.000000e+000
    endloop
  endfacet
  facet normal 0.000000e+000 1.000000e+000 -0.000000e+000
    outer loop
      vertex   -1.175571e+000 1.685000e+002 -1.618034e+000
      vertex   -1.902113e+000 1.685000e+002 -6.180340e-001
      vertex   0.000000e+000 1.685000e+002 0.000000e+000
    endloop
  endfacet
  facet normal 0.000000e+000 1.000000e+000 -0.000000e+000
    outer loop
      vertex   -1.902113e+000 1.685000e+002 -6.180340e-001
      vertex   -2.000000e+000 1.685000e+002 8.572528e-016
      vertex   0.000000e+000 1.685000e+002 0.000000e+000
    endloop
  endfacet
  facet normal -0.000000e+000 1.000000e+000 0.000000e+000
    outer loop
      vertex   -2.000000e+000 1.685000e+002 8.572528e-016
      vertex   -1.902113e+000 1.685000e+002 6.180340e-001
      vertex   0.000000e+000 1.685000e+002 0.000000e+000
    endloop
  endfacet
endsolid
