solid BaseBombaMsu
   facet normal 0.000000e+000 -1.000000e+000 0.000000e+000
      outer loop
         vertex 0.000000e+000 0.000000e+000 4.642856e+002
         vertex 0.000000e+000 0.000000e+000 0.000000e+000
         vertex 3.809524e+001 0.000000e+000 4.642856e+002
      endloop
   endfacet
   facet normal 0.000000e+000 -1.000000e+000 0.000000e+000
      outer loop
         vertex 3.809524e+001 0.000000e+000 4.642856e+002
         vertex 0.000000e+000 0.000000e+000 0.000000e+000
         vertex 3.809524e+001 0.000000e+000 0.000000e+000
      endloop
   endfacet
   facet normal 0.000000e+000 0.000000e+000 1.000000e+000
      outer loop
         vertex 0.000000e+000 2.706108e+001 4.642856e+002
         vertex 0.000000e+000 0.000000e+000 4.642856e+002
         vertex 3.809524e+001 2.706108e+001 4.642856e+002
      endloop
   endfacet
   facet normal 0.000000e+000 0.000000e+000 1.000000e+000
      outer loop
         vertex 3.809524e+001 2.706108e+001 4.642856e+002
         vertex 0.000000e+000 0.000000e+000 4.642856e+002
         vertex 3.809524e+001 0.000000e+000 4.642856e+002
      endloop
   endfacet
   facet normal 0.000000e+000 1.000000e+000 0.000000e+000
      outer loop
         vertex 0.000000e+000 2.706108e+001 3.869047e+002
         vertex 0.000000e+000 2.706108e+001 4.642856e+002
         vertex 3.809524e+001 2.706108e+001 3.869047e+002
      endloop
   endfacet
   facet normal 0.000000e+000 1.000000e+000 0.000000e+000
      outer loop
         vertex 3.809524e+001 2.706108e+001 3.869047e+002
         vertex 0.000000e+000 2.706108e+001 4.642856e+002
         vertex 3.809524e+001 2.706108e+001 4.642856e+002
      endloop
   endfacet
   facet normal 0.000000e+000 0.000000e+000 1.000000e+000
      outer loop
         vertex 0.000000e+000 5.412218e+001 3.869047e+002
         vertex 0.000000e+000 2.706108e+001 3.869047e+002
         vertex 3.809524e+001 5.412218e+001 3.869047e+002
      endloop
   endfacet
   facet normal 0.000000e+000 0.000000e+000 1.000000e+000
      outer loop
         vertex 3.809524e+001 5.412218e+001 3.869047e+002
         vertex 0.000000e+000 2.706108e+001 3.869047e+002
         vertex 3.809524e+001 2.706108e+001 3.869047e+002
      endloop
   endfacet
   facet normal 0.000000e+000 0.000000e+000 -1.000000e+000
      outer loop
         vertex 3.809524e+001 0.000000e+000 0.000000e+000
         vertex 0.000000e+000 0.000000e+000 0.000000e+000
         vertex 3.809524e+001 2.706108e+001 0.000000e+000
      endloop
   endfacet
   facet normal 0.000000e+000 0.000000e+000 -1.000000e+000
      outer loop
         vertex 3.809524e+001 2.706108e+001 0.000000e+000
         vertex 0.000000e+000 0.000000e+000 0.000000e+000
         vertex 0.000000e+000 2.706108e+001 0.000000e+000
      endloop
   endfacet
   facet normal 0.000000e+000 1.000000e+000 0.000000e+000
      outer loop
         vertex 3.809524e+001 2.706108e+001 0.000000e+000
         vertex 0.000000e+000 2.706108e+001 0.000000e+000
         vertex 3.809524e+001 2.706108e+001 7.738094e+001
      endloop
   endfacet
   facet normal 0.000000e+000 1.000000e+000 0.000000e+000
      outer loop
         vertex 3.809524e+001 2.706108e+001 7.738094e+001
         vertex 0.000000e+000 2.706108e+001 0.000000e+000
         vertex 0.000000e+000 2.706108e+001 7.738094e+001
      endloop
   endfacet
   facet normal 0.000000e+000 0.000000e+000 -1.000000e+000
      outer loop
         vertex 3.809524e+001 2.706108e+001 7.738094e+001
         vertex 0.000000e+000 2.706108e+001 7.738094e+001
         vertex 3.809524e+001 5.412218e+001 7.738094e+001
      endloop
   endfacet
   facet normal 0.000000e+000 0.000000e+000 -1.000000e+000
      outer loop
         vertex 3.809524e+001 5.412218e+001 7.738094e+001
         vertex 0.000000e+000 2.706108e+001 7.738094e+001
         vertex 0.000000e+000 5.412218e+001 7.738094e+001
      endloop
   endfacet
   facet normal 0.000000e+000 -1.000000e+000 0.000000e+000
      outer loop
         vertex 5.142856e+002 0.000000e+000 0.000000e+000
         vertex 5.523809e+002 0.000000e+000 0.000000e+000
         vertex 5.142856e+002 0.000000e+000 4.642856e+002
      endloop
   endfacet
   facet normal 0.000000e+000 -1.000000e+000 0.000000e+000
      outer loop
         vertex 5.142856e+002 0.000000e+000 4.642856e+002
         vertex 5.523809e+002 0.000000e+000 0.000000e+000
         vertex 5.523809e+002 0.000000e+000 4.642856e+002
      endloop
   endfacet
   facet normal 1.000000e+000 0.000000e+000 0.000000e+000
      outer loop
         vertex 5.523809e+002 0.000000e+000 0.000000e+000
         vertex 5.523809e+002 2.706108e+001 0.000000e+000
         vertex 5.523809e+002 2.706108e+001 7.738094e+001
      endloop
   endfacet
   facet normal 1.000000e+000 0.000000e+000 0.000000e+000
      outer loop
         vertex 5.523809e+002 0.000000e+000 0.000000e+000
         vertex 5.523809e+002 2.706108e+001 7.738094e+001
         vertex 5.523809e+002 0.000000e+000 4.642856e+002
      endloop
   endfacet
   facet normal 1.000000e+000 0.000000e+000 0.000000e+000
      outer loop
         vertex 5.523809e+002 0.000000e+000 4.642856e+002
         vertex 5.523809e+002 2.706108e+001 7.738094e+001
         vertex 5.523809e+002 2.706108e+001 3.869047e+002
      endloop
   endfacet
   facet normal 1.000000e+000 0.000000e+000 0.000000e+000
      outer loop
         vertex 5.523809e+002 0.000000e+000 4.642856e+002
         vertex 5.523809e+002 2.706108e+001 3.869047e+002
         vertex 5.523809e+002 2.706108e+001 4.642856e+002
      endloop
   endfacet
   facet normal 1.000000e+000 0.000000e+000 0.000000e+000
      outer loop
         vertex 5.523809e+002 9.273823e+001 2.941206e+001
         vertex 5.523809e+002 1.607820e+002 9.745583e+001
         vertex 5.523809e+002 6.595014e+001 6.032717e+001
      endloop
   endfacet
   facet normal 1.000000e+000 0.000000e+000 0.000000e+000
      outer loop
         vertex 5.523809e+002 6.595014e+001 6.032717e+001
         vertex 5.523809e+002 1.607820e+002 9.745583e+001
         vertex 5.523809e+002 1.394400e+002 1.228902e+002
      endloop
   endfacet
   facet normal 1.000000e+000 0.000000e+000 0.000000e+000
      outer loop
         vertex 5.523809e+002 6.595014e+001 6.032717e+001
         vertex 5.523809e+002 1.394400e+002 1.228902e+002
         vertex 5.523809e+002 5.412218e+001 7.738094e+001
      endloop
   endfacet
   facet normal 1.000000e+000 0.000000e+000 0.000000e+000
      outer loop
         vertex 5.523809e+002 1.607820e+002 3.668298e+002
         vertex 5.523809e+002 9.273823e+001 4.348736e+002
         vertex 5.523809e+002 1.394400e+002 3.413955e+002
      endloop
   endfacet
   facet normal 1.000000e+000 0.000000e+000 0.000000e+000
      outer loop
         vertex 5.523809e+002 1.394400e+002 3.413955e+002
         vertex 5.523809e+002 9.273823e+001 4.348736e+002
         vertex 5.523809e+002 6.595014e+001 4.039585e+002
      endloop
   endfacet
   facet normal 1.000000e+000 0.000000e+000 0.000000e+000
      outer loop
         vertex 5.523809e+002 1.394400e+002 3.413955e+002
         vertex 5.523809e+002 6.595014e+001 4.039585e+002
         vertex 5.523809e+002 1.228390e+002 3.126415e+002
      endloop
   endfacet
   facet normal 1.000000e+000 0.000000e+000 0.000000e+000
      outer loop
         vertex 5.523809e+002 1.228390e+002 3.126415e+002
         vertex 5.523809e+002 6.595014e+001 4.039585e+002
         vertex 5.523809e+002 5.412218e+001 3.869047e+002
      endloop
   endfacet
   facet normal 1.000000e+000 0.000000e+000 0.000000e+000
      outer loop
         vertex 5.523809e+002 1.394400e+002 1.228902e+002
         vertex 5.523809e+002 1.228390e+002 1.516441e+002
         vertex 5.523809e+002 5.412218e+001 7.738094e+001
      endloop
   endfacet
   facet normal 1.000000e+000 0.000000e+000 0.000000e+000
      outer loop
         vertex 5.523809e+002 5.412218e+001 7.738094e+001
         vertex 5.523809e+002 1.228390e+002 1.516441e+002
         vertex 5.523809e+002 1.114831e+002 1.828440e+002
      endloop
   endfacet
   facet normal 1.000000e+000 0.000000e+000 0.000000e+000
      outer loop
         vertex 5.523809e+002 5.412218e+001 7.738094e+001
         vertex 5.523809e+002 1.114831e+002 1.828440e+002
         vertex 5.523809e+002 2.706108e+001 7.738094e+001
      endloop
   endfacet
   facet normal 1.000000e+000 0.000000e+000 0.000000e+000
      outer loop
         vertex 5.523809e+002 2.706108e+001 7.738094e+001
         vertex 5.523809e+002 1.114831e+002 1.828440e+002
         vertex 5.523809e+002 1.057176e+002 2.155417e+002
      endloop
   endfacet
   facet normal 1.000000e+000 0.000000e+000 0.000000e+000
      outer loop
         vertex 5.523809e+002 2.706108e+001 7.738094e+001
         vertex 5.523809e+002 1.057176e+002 2.155417e+002
         vertex 5.523809e+002 2.706108e+001 3.869047e+002
      endloop
   endfacet
   facet normal 1.000000e+000 0.000000e+000 0.000000e+000
      outer loop
         vertex 5.523809e+002 2.706108e+001 3.869047e+002
         vertex 5.523809e+002 1.057176e+002 2.155417e+002
         vertex 5.523809e+002 1.057176e+002 2.487439e+002
      endloop
   endfacet
   facet normal 1.000000e+000 0.000000e+000 0.000000e+000
      outer loop
         vertex 5.523809e+002 2.706108e+001 3.869047e+002
         vertex 5.523809e+002 1.057176e+002 2.487439e+002
         vertex 5.523809e+002 5.412218e+001 3.869047e+002
      endloop
   endfacet
   facet normal 1.000000e+000 0.000000e+000 0.000000e+000
      outer loop
         vertex 5.523809e+002 5.412218e+001 3.869047e+002
         vertex 5.523809e+002 1.057176e+002 2.487439e+002
         vertex 5.523809e+002 1.114831e+002 2.814417e+002
      endloop
   endfacet
   facet normal 1.000000e+000 0.000000e+000 0.000000e+000
      outer loop
         vertex 5.523809e+002 5.412218e+001 3.869047e+002
         vertex 5.523809e+002 1.114831e+002 2.814417e+002
         vertex 5.523809e+002 1.228390e+002 3.126415e+002
      endloop
   endfacet
   facet normal -1.000000e+000 0.000000e+000 0.000000e+000
      outer loop
         vertex 0.000000e+000 2.706108e+001 0.000000e+000
         vertex 0.000000e+000 0.000000e+000 0.000000e+000
         vertex 0.000000e+000 2.706108e+001 7.738094e+001
      endloop
   endfacet
   facet normal -1.000000e+000 0.000000e+000 0.000000e+000
      outer loop
         vertex 0.000000e+000 2.706108e+001 7.738094e+001
         vertex 0.000000e+000 0.000000e+000 0.000000e+000
         vertex 0.000000e+000 0.000000e+000 4.642856e+002
      endloop
   endfacet
   facet normal -1.000000e+000 0.000000e+000 0.000000e+000
      outer loop
         vertex 0.000000e+000 2.706108e+001 7.738094e+001
         vertex 0.000000e+000 0.000000e+000 4.642856e+002
         vertex 0.000000e+000 2.706108e+001 3.869047e+002
      endloop
   endfacet
   facet normal -1.000000e+000 0.000000e+000 0.000000e+000
      outer loop
         vertex 0.000000e+000 2.706108e+001 3.869047e+002
         vertex 0.000000e+000 0.000000e+000 4.642856e+002
         vertex 0.000000e+000 2.706108e+001 4.642856e+002
      endloop
   endfacet
   facet normal -1.000000e+000 0.000000e+000 0.000000e+000
      outer loop
         vertex 0.000000e+000 9.273823e+001 4.348736e+002
         vertex 0.000000e+000 1.607820e+002 3.668298e+002
         vertex 0.000000e+000 6.595014e+001 4.039585e+002
      endloop
   endfacet
   facet normal -1.000000e+000 0.000000e+000 0.000000e+000
      outer loop
         vertex 0.000000e+000 6.595014e+001 4.039585e+002
         vertex 0.000000e+000 1.607820e+002 3.668298e+002
         vertex 0.000000e+000 1.394400e+002 3.413955e+002
      endloop
   endfacet
   facet normal -1.000000e+000 0.000000e+000 0.000000e+000
      outer loop
         vertex 0.000000e+000 6.595014e+001 4.039585e+002
         vertex 0.000000e+000 1.394400e+002 3.413955e+002
         vertex 0.000000e+000 5.412218e+001 3.869047e+002
      endloop
   endfacet
   facet normal -1.000000e+000 0.000000e+000 0.000000e+000
      outer loop
         vertex 0.000000e+000 1.607820e+002 9.745583e+001
         vertex 0.000000e+000 9.273823e+001 2.941206e+001
         vertex 0.000000e+000 1.394400e+002 1.228902e+002
      endloop
   endfacet
   facet normal -1.000000e+000 0.000000e+000 0.000000e+000
      outer loop
         vertex 0.000000e+000 1.394400e+002 1.228902e+002
         vertex 0.000000e+000 9.273823e+001 2.941206e+001
         vertex 0.000000e+000 6.595014e+001 6.032717e+001
      endloop
   endfacet
   facet normal -1.000000e+000 0.000000e+000 0.000000e+000
      outer loop
         vertex 0.000000e+000 1.394400e+002 1.228902e+002
         vertex 0.000000e+000 6.595014e+001 6.032717e+001
         vertex 0.000000e+000 1.228390e+002 1.516441e+002
      endloop
   endfacet
   facet normal -1.000000e+000 0.000000e+000 0.000000e+000
      outer loop
         vertex 0.000000e+000 1.228390e+002 1.516441e+002
         vertex 0.000000e+000 6.595014e+001 6.032717e+001
         vertex 0.000000e+000 5.412218e+001 7.738094e+001
      endloop
   endfacet
   facet normal -1.000000e+000 0.000000e+000 0.000000e+000
      outer loop
         vertex 0.000000e+000 1.394400e+002 3.413955e+002
         vertex 0.000000e+000 1.228390e+002 3.126415e+002
         vertex 0.000000e+000 5.412218e+001 3.869047e+002
      endloop
   endfacet
   facet normal -1.000000e+000 0.000000e+000 0.000000e+000
      outer loop
         vertex 0.000000e+000 5.412218e+001 3.869047e+002
         vertex 0.000000e+000 1.228390e+002 3.126415e+002
         vertex 0.000000e+000 1.114831e+002 2.814417e+002
      endloop
   endfacet
   facet normal -1.000000e+000 0.000000e+000 0.000000e+000
      outer loop
         vertex 0.000000e+000 5.412218e+001 3.869047e+002
         vertex 0.000000e+000 1.114831e+002 2.814417e+002
         vertex 0.000000e+000 2.706108e+001 3.869047e+002
      endloop
   endfacet
   facet normal -1.000000e+000 0.000000e+000 0.000000e+000
      outer loop
         vertex 0.000000e+000 2.706108e+001 3.869047e+002
         vertex 0.000000e+000 1.114831e+002 2.814417e+002
         vertex 0.000000e+000 1.057176e+002 2.487439e+002
      endloop
   endfacet
   facet normal -1.000000e+000 0.000000e+000 0.000000e+000
      outer loop
         vertex 0.000000e+000 2.706108e+001 3.869047e+002
         vertex 0.000000e+000 1.057176e+002 2.487439e+002
         vertex 0.000000e+000 2.706108e+001 7.738094e+001
      endloop
   endfacet
   facet normal -1.000000e+000 0.000000e+000 0.000000e+000
      outer loop
         vertex 0.000000e+000 2.706108e+001 7.738094e+001
         vertex 0.000000e+000 1.057176e+002 2.487439e+002
         vertex 0.000000e+000 1.057176e+002 2.155417e+002
      endloop
   endfacet
   facet normal -1.000000e+000 0.000000e+000 0.000000e+000
      outer loop
         vertex 0.000000e+000 2.706108e+001 7.738094e+001
         vertex 0.000000e+000 1.057176e+002 2.155417e+002
         vertex 0.000000e+000 5.412218e+001 7.738094e+001
      endloop
   endfacet
   facet normal -1.000000e+000 0.000000e+000 0.000000e+000
      outer loop
         vertex 0.000000e+000 5.412218e+001 7.738094e+001
         vertex 0.000000e+000 1.057176e+002 2.155417e+002
         vertex 0.000000e+000 1.114831e+002 1.828440e+002
      endloop
   endfacet
   facet normal -1.000000e+000 0.000000e+000 0.000000e+000
      outer loop
         vertex 0.000000e+000 5.412218e+001 7.738094e+001
         vertex 0.000000e+000 1.114831e+002 1.828440e+002
         vertex 0.000000e+000 1.228390e+002 1.516441e+002
      endloop
   endfacet
   facet normal 0.000000e+000 7.469813e-001 6.648450e-001
      outer loop
         vertex 5.523809e+002 1.607820e+002 9.745583e+001
         vertex 0.000000e+000 1.607820e+002 9.745583e+001
         vertex 5.523809e+002 1.394400e+002 1.228902e+002
      endloop
   endfacet
   facet normal 0.000000e+000 7.844564e-001 6.201839e-001
      outer loop
         vertex 5.523809e+002 1.394400e+002 1.228902e+002
         vertex 0.000000e+000 1.607820e+002 9.745583e+001
         vertex 0.000000e+000 1.394400e+002 1.228902e+002
      endloop
   endfacet
   facet normal 0.000000e+000 8.510821e-001 5.250326e-001
      outer loop
         vertex 5.523809e+002 1.394400e+002 1.228902e+002
         vertex 0.000000e+000 1.394400e+002 1.228902e+002
         vertex 5.523809e+002 1.228390e+002 1.516441e+002
      endloop
   endfacet
   facet normal 0.000000e+000 8.802326e-001 4.745424e-001
      outer loop
         vertex 5.523809e+002 1.228390e+002 1.516441e+002
         vertex 0.000000e+000 1.394400e+002 1.228902e+002
         vertex 0.000000e+000 1.228390e+002 1.516441e+002
      endloop
   endfacet
   facet normal 0.000000e+000 9.293233e-001 3.692673e-001
      outer loop
         vertex 5.523809e+002 1.228390e+002 1.516441e+002
         vertex 0.000000e+000 1.228390e+002 1.516441e+002
         vertex 5.523809e+002 1.114831e+002 1.828440e+002
      endloop
   endfacet
   facet normal 0.000000e+000 9.492633e-001 3.144823e-001
      outer loop
         vertex 5.523809e+002 1.114831e+002 1.828440e+002
         vertex 0.000000e+000 1.228390e+002 1.516441e+002
         vertex 0.000000e+000 1.114831e+002 1.828440e+002
      endloop
   endfacet
   facet normal 0.000000e+000 9.793273e-001 2.022820e-001
      outer loop
         vertex 5.523809e+002 1.114831e+002 1.828440e+002
         vertex 0.000000e+000 1.114831e+002 1.828440e+002
         vertex 5.523809e+002 1.057176e+002 2.155417e+002
      endloop
   endfacet
   facet normal 0.000000e+000 9.894512e-001 1.448667e-001
      outer loop
         vertex 5.523809e+002 1.057176e+002 2.155417e+002
         vertex 0.000000e+000 1.114831e+002 1.828440e+002
         vertex 0.000000e+000 1.057176e+002 2.155417e+002
      endloop
   endfacet
   facet normal 0.000000e+000 9.995750e-001 2.915050e-002
      outer loop
         vertex 5.523809e+002 1.057176e+002 2.155417e+002
         vertex 0.000000e+000 1.057176e+002 2.155417e+002
         vertex 5.523809e+002 1.057176e+002 2.487439e+002
      endloop
   endfacet
   facet normal 0.000000e+000 9.995750e-001 -2.915050e-002
      outer loop
         vertex 5.523809e+002 1.057176e+002 2.487439e+002
         vertex 0.000000e+000 1.057176e+002 2.155417e+002
         vertex 0.000000e+000 1.057176e+002 2.487439e+002
      endloop
   endfacet
   facet normal 0.000000e+000 9.894512e-001 -1.448667e-001
      outer loop
         vertex 5.523809e+002 1.057176e+002 2.487439e+002
         vertex 0.000000e+000 1.057176e+002 2.487439e+002
         vertex 5.523809e+002 1.114831e+002 2.814417e+002
      endloop
   endfacet
   facet normal 0.000000e+000 9.793273e-001 -2.022820e-001
      outer loop
         vertex 5.523809e+002 1.114831e+002 2.814417e+002
         vertex 0.000000e+000 1.057176e+002 2.487439e+002
         vertex 0.000000e+000 1.114831e+002 2.814417e+002
      endloop
   endfacet
   facet normal 0.000000e+000 9.492633e-001 -3.144823e-001
      outer loop
         vertex 5.523809e+002 1.114831e+002 2.814417e+002
         vertex 0.000000e+000 1.114831e+002 2.814417e+002
         vertex 5.523809e+002 1.228390e+002 3.126415e+002
      endloop
   endfacet
   facet normal 0.000000e+000 9.293233e-001 -3.692673e-001
      outer loop
         vertex 5.523809e+002 1.228390e+002 3.126415e+002
         vertex 0.000000e+000 1.114831e+002 2.814417e+002
         vertex 0.000000e+000 1.228390e+002 3.126415e+002
      endloop
   endfacet
   facet normal 0.000000e+000 8.802326e-001 -4.745424e-001
      outer loop
         vertex 5.523809e+002 1.228390e+002 3.126415e+002
         vertex 0.000000e+000 1.228390e+002 3.126415e+002
         vertex 5.523809e+002 1.394400e+002 3.413955e+002
      endloop
   endfacet
   facet normal 0.000000e+000 8.510821e-001 -5.250326e-001
      outer loop
         vertex 5.523809e+002 1.394400e+002 3.413955e+002
         vertex 0.000000e+000 1.228390e+002 3.126415e+002
         vertex 0.000000e+000 1.394400e+002 3.413955e+002
      endloop
   endfacet
   facet normal 0.000000e+000 7.844564e-001 -6.201839e-001
      outer loop
         vertex 5.523809e+002 1.394400e+002 3.413955e+002
         vertex 0.000000e+000 1.394400e+002 3.413955e+002
         vertex 5.523809e+002 1.607820e+002 3.668298e+002
      endloop
   endfacet
   facet normal 0.000000e+000 7.469813e-001 -6.648450e-001
      outer loop
         vertex 5.523809e+002 1.607820e+002 3.668298e+002
         vertex 0.000000e+000 1.394400e+002 3.413955e+002
         vertex 0.000000e+000 1.607820e+002 3.668298e+002
      endloop
   endfacet
   facet normal 0.000000e+000 0.000000e+000 1.000000e+000
      outer loop
         vertex 5.142856e+002 0.000000e+000 4.642856e+002
         vertex 5.523809e+002 0.000000e+000 4.642856e+002
         vertex 5.142856e+002 2.706108e+001 4.642856e+002
      endloop
   endfacet
   facet normal 0.000000e+000 0.000000e+000 1.000000e+000
      outer loop
         vertex 5.142856e+002 2.706108e+001 4.642856e+002
         vertex 5.523809e+002 0.000000e+000 4.642856e+002
         vertex 5.523809e+002 2.706108e+001 4.642856e+002
      endloop
   endfacet
   facet normal 0.000000e+000 1.000000e+000 0.000000e+000
      outer loop
         vertex 5.142856e+002 2.706108e+001 4.642856e+002
         vertex 5.523809e+002 2.706108e+001 4.642856e+002
         vertex 5.142856e+002 2.706108e+001 3.869047e+002
      endloop
   endfacet
   facet normal 0.000000e+000 1.000000e+000 0.000000e+000
      outer loop
         vertex 5.142856e+002 2.706108e+001 3.869047e+002
         vertex 5.523809e+002 2.706108e+001 4.642856e+002
         vertex 5.523809e+002 2.706108e+001 3.869047e+002
      endloop
   endfacet
   facet normal 0.000000e+000 0.000000e+000 1.000000e+000
      outer loop
         vertex 5.142856e+002 2.706108e+001 3.869047e+002
         vertex 5.523809e+002 2.706108e+001 3.869047e+002
         vertex 5.142856e+002 5.412218e+001 3.869047e+002
      endloop
   endfacet
   facet normal 0.000000e+000 0.000000e+000 1.000000e+000
      outer loop
         vertex 5.142856e+002 5.412218e+001 3.869047e+002
         vertex 5.523809e+002 2.706108e+001 3.869047e+002
         vertex 5.523809e+002 5.412218e+001 3.869047e+002
      endloop
   endfacet
   facet normal 0.000000e+000 -7.399272e-001 6.726870e-001
      outer loop
         vertex 5.523809e+002 9.273823e+001 4.348736e+002
         vertex 0.000000e+000 9.273823e+001 4.348736e+002
         vertex 0.000000e+000 6.595014e+001 4.039585e+002
      endloop
   endfacet
   facet normal 0.000000e+000 -8.285270e-001 -5.599491e-001
      outer loop
         vertex 3.809524e+001 5.412218e+001 7.738094e+001
         vertex 0.000000e+000 5.412218e+001 7.738094e+001
         vertex 0.000000e+000 6.595014e+001 6.032717e+001
      endloop
   endfacet
   facet normal 0.000000e+000 -8.994728e-001 4.369769e-001
      outer loop
         vertex 5.142856e+002 4.383439e+001 3.695457e+002
         vertex 3.809524e+001 4.383439e+001 3.695457e+002
         vertex 3.809524e+001 2.684119e+001 3.323358e+002
      endloop
   endfacet
   facet normal 0.000000e+000 -8.285270e-001 5.599491e-001
      outer loop
         vertex 5.142856e+002 5.412218e+001 3.869047e+002
         vertex 5.523809e+002 5.412218e+001 3.869047e+002
         vertex 5.523809e+002 6.595014e+001 4.039585e+002
      endloop
   endfacet
   facet normal 0.000000e+000 -8.285270e-001 5.599491e-001
      outer loop
         vertex 0.000000e+000 6.595014e+001 4.039585e+002
         vertex 0.000000e+000 5.412218e+001 3.869047e+002
         vertex 3.809524e+001 5.412218e+001 3.869047e+002
      endloop
   endfacet
   facet normal 0.000000e+000 -9.192744e-001 3.936172e-001
      outer loop
         vertex 5.142856e+002 4.383439e+001 3.695457e+002
         vertex 3.809524e+001 2.684119e+001 3.323358e+002
         vertex 5.142856e+002 2.684119e+001 3.323358e+002
      endloop
   endfacet
   facet normal 0.000000e+000 -9.525057e-001 3.045208e-001
      outer loop
         vertex 5.142856e+002 2.684119e+001 3.323358e+002
         vertex 3.809524e+001 2.684119e+001 3.323358e+002
         vertex 3.809524e+001 1.531649e+001 2.930863e+002
      endloop
   endfacet
   facet normal 0.000000e+000 -9.659352e-001 2.587843e-001
      outer loop
         vertex 5.142856e+002 2.684119e+001 3.323358e+002
         vertex 3.809524e+001 1.531649e+001 2.930863e+002
         vertex 5.142856e+002 1.531649e+001 2.930863e+002
      endloop
   endfacet
   facet normal 0.000000e+000 -9.861484e-001 1.658655e-001
      outer loop
         vertex 5.142856e+002 1.531649e+001 2.930863e+002
         vertex 3.809524e+001 1.531649e+001 2.930863e+002
         vertex 3.809524e+001 9.494901e+000 2.525961e+002
      endloop
   endfacet
   facet normal 0.000000e+000 -9.929321e-001 1.186833e-001
      outer loop
         vertex 5.142856e+002 1.531649e+001 2.930863e+002
         vertex 3.809524e+001 9.494901e+000 2.525961e+002
         vertex 5.142856e+002 9.494901e+000 2.525961e+002
      endloop
   endfacet
   facet normal 0.000000e+000 -9.997159e-001 2.383370e-002
      outer loop
         vertex 5.142856e+002 9.494901e+000 2.525961e+002
         vertex 3.809524e+001 9.494901e+000 2.525961e+002
         vertex 3.809524e+001 9.494901e+000 2.116895e+002
      endloop
   endfacet
   facet normal 0.000000e+000 -9.997159e-001 -2.383370e-002
      outer loop
         vertex 5.142856e+002 9.494901e+000 2.525961e+002
         vertex 3.809524e+001 9.494901e+000 2.116895e+002
         vertex 5.142856e+002 9.494901e+000 2.116895e+002
      endloop
   endfacet
   facet normal 0.000000e+000 -9.929321e-001 -1.186833e-001
      outer loop
         vertex 5.142856e+002 9.494901e+000 2.116895e+002
         vertex 3.809524e+001 9.494901e+000 2.116895e+002
         vertex 3.809524e+001 1.531649e+001 1.711994e+002
      endloop
   endfacet
   facet normal 0.000000e+000 -9.861484e-001 -1.658655e-001
      outer loop
         vertex 5.142856e+002 9.494901e+000 2.116895e+002
         vertex 3.809524e+001 1.531649e+001 1.711994e+002
         vertex 5.142856e+002 1.531649e+001 1.711994e+002
      endloop
   endfacet
   facet normal 0.000000e+000 -9.659352e-001 -2.587843e-001
      outer loop
         vertex 5.142856e+002 1.531649e+001 1.711994e+002
         vertex 3.809524e+001 1.531649e+001 1.711994e+002
         vertex 3.809524e+001 2.684119e+001 1.319498e+002
      endloop
   endfacet
   facet normal 0.000000e+000 -9.525057e-001 -3.045208e-001
      outer loop
         vertex 5.142856e+002 1.531649e+001 1.711994e+002
         vertex 3.809524e+001 2.684119e+001 1.319498e+002
         vertex 5.142856e+002 2.684119e+001 1.319498e+002
      endloop
   endfacet
   facet normal 0.000000e+000 -9.192744e-001 -3.936172e-001
      outer loop
         vertex 5.142856e+002 2.684119e+001 1.319498e+002
         vertex 3.809524e+001 2.684119e+001 1.319498e+002
         vertex 3.809524e+001 4.383439e+001 9.473994e+001
      endloop
   endfacet
   facet normal 0.000000e+000 -8.994728e-001 -4.369769e-001
      outer loop
         vertex 5.142856e+002 2.684119e+001 1.319498e+002
         vertex 3.809524e+001 4.383439e+001 9.473994e+001
         vertex 5.142856e+002 4.383439e+001 9.473994e+001
      endloop
   endfacet
   facet normal 0.000000e+000 -8.285270e-001 -5.599491e-001
      outer loop
         vertex 5.523809e+002 6.595014e+001 6.032717e+001
         vertex 5.523809e+002 5.412218e+001 7.738094e+001
         vertex 5.142856e+002 5.412218e+001 7.738094e+001
      endloop
   endfacet
   facet normal 0.000000e+000 -8.661949e-001 -4.997063e-001
      outer loop
         vertex 5.142856e+002 4.383439e+001 9.473994e+001
         vertex 3.809524e+001 4.383439e+001 9.473994e+001
         vertex 5.142856e+002 5.412218e+001 7.738094e+001
      endloop
   endfacet
   facet normal 0.000000e+000 -8.542274e-001 -5.198997e-001
      outer loop
         vertex 5.142856e+002 5.412218e+001 7.738094e+001
         vertex 3.809524e+001 4.383439e+001 9.473994e+001
         vertex 3.809524e+001 5.412218e+001 7.738094e+001
      endloop
   endfacet
   facet normal 0.000000e+000 -8.285270e-001 -5.599491e-001
      outer loop
         vertex 5.142856e+002 5.412218e+001 7.738094e+001
         vertex 3.809524e+001 5.412218e+001 7.738094e+001
         vertex 5.523809e+002 6.595014e+001 6.032717e+001
      endloop
   endfacet
   facet normal 0.000000e+000 -8.661949e-001 4.997063e-001
      outer loop
         vertex 3.809524e+001 4.383439e+001 3.695457e+002
         vertex 5.142856e+002 4.383439e+001 3.695457e+002
         vertex 3.809524e+001 5.412218e+001 3.869047e+002
      endloop
   endfacet
   facet normal 0.000000e+000 -8.542274e-001 5.198997e-001
      outer loop
         vertex 3.809524e+001 5.412218e+001 3.869047e+002
         vertex 5.142856e+002 4.383439e+001 3.695457e+002
         vertex 5.142856e+002 5.412218e+001 3.869047e+002
      endloop
   endfacet
   facet normal 0.000000e+000 -8.285270e-001 5.599491e-001
      outer loop
         vertex 3.809524e+001 5.412218e+001 3.869047e+002
         vertex 5.142856e+002 5.412218e+001 3.869047e+002
         vertex 0.000000e+000 6.595014e+001 4.039585e+002
      endloop
   endfacet
   facet normal 0.000000e+000 -8.147674e-001 5.797880e-001
      outer loop
         vertex 0.000000e+000 6.595014e+001 4.039585e+002
         vertex 5.142856e+002 5.412218e+001 3.869047e+002
         vertex 5.523809e+002 6.595014e+001 4.039585e+002
      endloop
   endfacet
   facet normal 0.000000e+000 -7.711426e-001 6.366624e-001
      outer loop
         vertex 0.000000e+000 6.595014e+001 4.039585e+002
         vertex 5.523809e+002 6.595014e+001 4.039585e+002
         vertex 5.523809e+002 9.273823e+001 4.348736e+002
      endloop
   endfacet
   facet normal 0.000000e+000 -8.147674e-001 -5.797880e-001
      outer loop
         vertex 3.809524e+001 5.412218e+001 7.738094e+001
         vertex 0.000000e+000 6.595014e+001 6.032717e+001
         vertex 5.523809e+002 6.595014e+001 6.032717e+001
      endloop
   endfacet
   facet normal 0.000000e+000 -7.711426e-001 -6.366624e-001
      outer loop
         vertex 5.523809e+002 6.595014e+001 6.032717e+001
         vertex 0.000000e+000 6.595014e+001 6.032717e+001
         vertex 0.000000e+000 9.273823e+001 2.941206e+001
      endloop
   endfacet
   facet normal 0.000000e+000 -7.399272e-001 -6.726870e-001
      outer loop
         vertex 5.523809e+002 6.595014e+001 6.032717e+001
         vertex 0.000000e+000 9.273823e+001 2.941206e+001
         vertex 5.523809e+002 9.273823e+001 2.941206e+001
      endloop
   endfacet
   facet normal 0.000000e+000 7.071068e-001 7.071068e-001
      outer loop
         vertex 5.523809e+002 1.607820e+002 3.668298e+002
         vertex 0.000000e+000 1.607820e+002 3.668298e+002
         vertex 5.523809e+002 9.273823e+001 4.348736e+002
      endloop
   endfacet
   facet normal 0.000000e+000 7.071068e-001 7.071068e-001
      outer loop
         vertex 5.523809e+002 9.273823e+001 4.348736e+002
         vertex 0.000000e+000 1.607820e+002 3.668298e+002
         vertex 0.000000e+000 9.273823e+001 4.348736e+002
      endloop
   endfacet
   facet normal 0.000000e+000 0.000000e+000 -1.000000e+000
      outer loop
         vertex 5.523809e+002 2.706108e+001 0.000000e+000
         vertex 5.523809e+002 0.000000e+000 0.000000e+000
         vertex 5.142856e+002 2.706108e+001 0.000000e+000
      endloop
   endfacet
   facet normal 0.000000e+000 0.000000e+000 -1.000000e+000
      outer loop
         vertex 5.142856e+002 2.706108e+001 0.000000e+000
         vertex 5.523809e+002 0.000000e+000 0.000000e+000
         vertex 5.142856e+002 0.000000e+000 0.000000e+000
      endloop
   endfacet
   facet normal 0.000000e+000 1.000000e+000 0.000000e+000
      outer loop
         vertex 5.523809e+002 2.706108e+001 7.738094e+001
         vertex 5.523809e+002 2.706108e+001 0.000000e+000
         vertex 5.142856e+002 2.706108e+001 7.738094e+001
      endloop
   endfacet
   facet normal 0.000000e+000 1.000000e+000 0.000000e+000
      outer loop
         vertex 5.142856e+002 2.706108e+001 7.738094e+001
         vertex 5.523809e+002 2.706108e+001 0.000000e+000
         vertex 5.142856e+002 2.706108e+001 0.000000e+000
      endloop
   endfacet
   facet normal 0.000000e+000 0.000000e+000 -1.000000e+000
      outer loop
         vertex 5.523809e+002 5.412218e+001 7.738094e+001
         vertex 5.523809e+002 2.706108e+001 7.738094e+001
         vertex 5.142856e+002 5.412218e+001 7.738094e+001
      endloop
   endfacet
   facet normal 0.000000e+000 0.000000e+000 -1.000000e+000
      outer loop
         vertex 5.142856e+002 5.412218e+001 7.738094e+001
         vertex 5.523809e+002 2.706108e+001 7.738094e+001
         vertex 5.142856e+002 2.706108e+001 7.738094e+001
      endloop
   endfacet
   facet normal 0.000000e+000 7.071068e-001 -7.071068e-001
      outer loop
         vertex 0.000000e+000 9.273823e+001 2.941206e+001
         vertex 0.000000e+000 1.607820e+002 9.745583e+001
         vertex 5.523809e+002 9.273823e+001 2.941206e+001
      endloop
   endfacet
   facet normal 0.000000e+000 7.071068e-001 -7.071068e-001
      outer loop
         vertex 5.523809e+002 9.273823e+001 2.941206e+001
         vertex 0.000000e+000 1.607820e+002 9.745583e+001
         vertex 5.523809e+002 1.607820e+002 9.745583e+001
      endloop
   endfacet
   facet normal 1.000000e+000 0.000000e+000 0.000000e+000
      outer loop
         vertex 3.809524e+001 2.706108e+001 3.869047e+002
         vertex 3.809524e+001 9.494901e+000 2.525961e+002
         vertex 3.809524e+001 1.531649e+001 2.930863e+002
      endloop
   endfacet
   facet normal 1.000000e+000 0.000000e+000 0.000000e+000
      outer loop
         vertex 3.809524e+001 2.684119e+001 1.319498e+002
         vertex 3.809524e+001 2.706108e+001 7.738094e+001
         vertex 3.809524e+001 4.383439e+001 9.473994e+001
      endloop
   endfacet
   facet normal 1.000000e+000 0.000000e+000 0.000000e+000
      outer loop
         vertex 3.809524e+001 4.383439e+001 9.473994e+001
         vertex 3.809524e+001 2.706108e+001 7.738094e+001
         vertex 3.809524e+001 5.412218e+001 7.738094e+001
      endloop
   endfacet
   facet normal 1.000000e+000 0.000000e+000 0.000000e+000
      outer loop
         vertex 3.809524e+001 1.531649e+001 2.930863e+002
         vertex 3.809524e+001 2.684119e+001 3.323358e+002
         vertex 3.809524e+001 2.706108e+001 3.869047e+002
      endloop
   endfacet
   facet normal 1.000000e+000 0.000000e+000 0.000000e+000
      outer loop
         vertex 3.809524e+001 2.706108e+001 3.869047e+002
         vertex 3.809524e+001 2.684119e+001 3.323358e+002
         vertex 3.809524e+001 4.383439e+001 3.695457e+002
      endloop
   endfacet
   facet normal 1.000000e+000 0.000000e+000 0.000000e+000
      outer loop
         vertex 3.809524e+001 2.706108e+001 3.869047e+002
         vertex 3.809524e+001 4.383439e+001 3.695457e+002
         vertex 3.809524e+001 5.412218e+001 3.869047e+002
      endloop
   endfacet
   facet normal 1.000000e+000 0.000000e+000 0.000000e+000
      outer loop
         vertex 3.809524e+001 0.000000e+000 0.000000e+000
         vertex 3.809524e+001 2.706108e+001 0.000000e+000
         vertex 3.809524e+001 2.706108e+001 7.738094e+001
      endloop
   endfacet
   facet normal 1.000000e+000 0.000000e+000 0.000000e+000
      outer loop
         vertex 3.809524e+001 2.684119e+001 1.319498e+002
         vertex 3.809524e+001 1.531649e+001 1.711994e+002
         vertex 3.809524e+001 2.706108e+001 7.738094e+001
      endloop
   endfacet
   facet normal 1.000000e+000 0.000000e+000 0.000000e+000
      outer loop
         vertex 3.809524e+001 2.706108e+001 7.738094e+001
         vertex 3.809524e+001 1.531649e+001 1.711994e+002
         vertex 3.809524e+001 9.494901e+000 2.116895e+002
      endloop
   endfacet
   facet normal 1.000000e+000 0.000000e+000 0.000000e+000
      outer loop
         vertex 3.809524e+001 2.706108e+001 7.738094e+001
         vertex 3.809524e+001 9.494901e+000 2.116895e+002
         vertex 3.809524e+001 0.000000e+000 0.000000e+000
      endloop
   endfacet
   facet normal 1.000000e+000 0.000000e+000 0.000000e+000
      outer loop
         vertex 3.809524e+001 0.000000e+000 0.000000e+000
         vertex 3.809524e+001 9.494901e+000 2.116895e+002
         vertex 3.809524e+001 9.494901e+000 2.525961e+002
      endloop
   endfacet
   facet normal 1.000000e+000 0.000000e+000 0.000000e+000
      outer loop
         vertex 3.809524e+001 0.000000e+000 0.000000e+000
         vertex 3.809524e+001 9.494901e+000 2.525961e+002
         vertex 3.809524e+001 0.000000e+000 4.642856e+002
      endloop
   endfacet
   facet normal 1.000000e+000 0.000000e+000 0.000000e+000
      outer loop
         vertex 3.809524e+001 0.000000e+000 4.642856e+002
         vertex 3.809524e+001 9.494901e+000 2.525961e+002
         vertex 3.809524e+001 2.706108e+001 3.869047e+002
      endloop
   endfacet
   facet normal 1.000000e+000 0.000000e+000 0.000000e+000
      outer loop
         vertex 3.809524e+001 0.000000e+000 4.642856e+002
         vertex 3.809524e+001 2.706108e+001 3.869047e+002
         vertex 3.809524e+001 2.706108e+001 4.642856e+002
      endloop
   endfacet
   facet normal -1.000000e+000 0.000000e+000 0.000000e+000
      outer loop
         vertex 5.142856e+002 1.531649e+001 2.930863e+002
         vertex 5.142856e+002 9.494901e+000 2.525961e+002
         vertex 5.142856e+002 2.706108e+001 3.869047e+002
      endloop
   endfacet
   facet normal -1.000000e+000 0.000000e+000 0.000000e+000
      outer loop
         vertex 5.142856e+002 2.706108e+001 7.738094e+001
         vertex 5.142856e+002 2.706108e+001 0.000000e+000
         vertex 5.142856e+002 0.000000e+000 0.000000e+000
      endloop
   endfacet
   facet normal -1.000000e+000 0.000000e+000 0.000000e+000
      outer loop
         vertex 5.142856e+002 5.412218e+001 7.738094e+001
         vertex 5.142856e+002 2.706108e+001 7.738094e+001
         vertex 5.142856e+002 4.383439e+001 9.473994e+001
      endloop
   endfacet
   facet normal -1.000000e+000 0.000000e+000 0.000000e+000
      outer loop
         vertex 5.142856e+002 4.383439e+001 9.473994e+001
         vertex 5.142856e+002 2.706108e+001 7.738094e+001
         vertex 5.142856e+002 2.684119e+001 1.319498e+002
      endloop
   endfacet
   facet normal -1.000000e+000 0.000000e+000 0.000000e+000
      outer loop
         vertex 5.142856e+002 5.412218e+001 3.869047e+002
         vertex 5.142856e+002 4.383439e+001 3.695457e+002
         vertex 5.142856e+002 2.706108e+001 3.869047e+002
      endloop
   endfacet
   facet normal -1.000000e+000 0.000000e+000 0.000000e+000
      outer loop
         vertex 5.142856e+002 2.706108e+001 3.869047e+002
         vertex 5.142856e+002 4.383439e+001 3.695457e+002
         vertex 5.142856e+002 2.684119e+001 3.323358e+002
      endloop
   endfacet
   facet normal -1.000000e+000 0.000000e+000 0.000000e+000
      outer loop
         vertex 5.142856e+002 2.706108e+001 3.869047e+002
         vertex 5.142856e+002 2.684119e+001 3.323358e+002
         vertex 5.142856e+002 1.531649e+001 2.930863e+002
      endloop
   endfacet
   facet normal -1.000000e+000 0.000000e+000 0.000000e+000
      outer loop
         vertex 5.142856e+002 2.706108e+001 4.642856e+002
         vertex 5.142856e+002 2.706108e+001 3.869047e+002
         vertex 5.142856e+002 0.000000e+000 4.642856e+002
      endloop
   endfacet
   facet normal -1.000000e+000 0.000000e+000 0.000000e+000
      outer loop
         vertex 5.142856e+002 0.000000e+000 4.642856e+002
         vertex 5.142856e+002 2.706108e+001 3.869047e+002
         vertex 5.142856e+002 9.494901e+000 2.525961e+002
      endloop
   endfacet
   facet normal -1.000000e+000 0.000000e+000 0.000000e+000
      outer loop
         vertex 5.142856e+002 0.000000e+000 4.642856e+002
         vertex 5.142856e+002 9.494901e+000 2.525961e+002
         vertex 5.142856e+002 0.000000e+000 0.000000e+000
      endloop
   endfacet
   facet normal -1.000000e+000 0.000000e+000 0.000000e+000
      outer loop
         vertex 5.142856e+002 0.000000e+000 0.000000e+000
         vertex 5.142856e+002 9.494901e+000 2.525961e+002
         vertex 5.142856e+002 9.494901e+000 2.116895e+002
      endloop
   endfacet
   facet normal -1.000000e+000 0.000000e+000 0.000000e+000
      outer loop
         vertex 5.142856e+002 0.000000e+000 0.000000e+000
         vertex 5.142856e+002 9.494901e+000 2.116895e+002
         vertex 5.142856e+002 2.706108e+001 7.738094e+001
      endloop
   endfacet
   facet normal -1.000000e+000 0.000000e+000 0.000000e+000
      outer loop
         vertex 5.142856e+002 2.706108e+001 7.738094e+001
         vertex 5.142856e+002 9.494901e+000 2.116895e+002
         vertex 5.142856e+002 1.531649e+001 1.711994e+002
      endloop
   endfacet
   facet normal -1.000000e+000 0.000000e+000 0.000000e+000
      outer loop
         vertex 5.142856e+002 2.706108e+001 7.738094e+001
         vertex 5.142856e+002 1.531649e+001 1.711994e+002
         vertex 5.142856e+002 2.684119e+001 1.319498e+002
      endloop
   endfacet
endsolid